<svg width="176" height="92" viewBox="0 0 176 92" fill="none" xmlns="http://www.w3.org/2000/svg">
<path d="M157.524 19.165C157.524 11.3029 151.157 4.9068 143.331 4.9068H19.0784C11.2519 4.9068 4.88463 11.3029 4.88463 19.165V72.835C4.88463 80.6971 11.2519 87.0932 19.0784 87.0932H143.331C151.157 87.0932 157.524 80.6971 157.524 72.835V19.165ZM0 72.835V19.165C0 8.59779 8.55895 0 19.0784 0H143.331C153.85 0 162.409 8.59779 162.409 19.165V72.835C162.409 83.4022 153.85 92 143.331 92H19.0784C8.55895 92 0 83.4022 0 72.835Z" fill="#263238"/>
<path d="M158.898 54.5581V37.4418C158.898 34.4184 161.361 31.9444 164.371 31.9444C170.767 31.9444 176 37.2017 176 43.6258V48.3741C176 54.7992 170.767 60.0555 164.371 60.0555C161.361 60.0555 158.898 57.5814 158.898 54.5581Z" fill="#263238"/>
<path d="M10.3115 64.0226V27.5683C10.3115 17.6877 18.2848 9.67717 28.1207 9.67717L28.1218 81.9138C18.2859 81.9138 10.3115 73.9032 10.3115 64.0226Z" fill="#F92333"/>
</svg>
