<svg width="176" height="92" viewBox="0 0 176 92" fill="none" xmlns="http://www.w3.org/2000/svg">
<path d="M158.898 55.2383V36.7631C158.898 34.113 161.056 31.9443 163.694 31.9443H165.809C171.414 31.9443 176 36.5522 176 42.1821V49.8181C176 55.4492 171.414 60.0559 165.809 60.0559H163.694C161.056 60.0559 158.898 57.8883 158.898 55.2383Z" fill="#263238"/>
<path d="M10.3115 66.2345V25.3573C10.3115 16.697 17.2998 9.67694 25.9199 9.67694H28.1212V81.9138H25.9199C17.2998 81.9138 10.3115 74.8948 10.3115 66.2345Z" fill="#FF692E"/>
<path d="M34.8008 9.67693H52.6105V81.9138H34.8008V9.67693Z" fill="#FF692E"/>
<path d="M157.524 19.1652C157.524 11.3037 151.157 4.90742 143.33 4.90742H19.0785C11.2514 4.90742 4.88408 11.3037 4.88408 19.1652V72.836C4.88408 80.6975 11.2514 87.0937 19.0785 87.0937H143.33C151.157 87.0937 157.524 80.6975 157.524 72.836V19.1652ZM0 72.836V19.1652C0 8.59751 8.55861 0 19.0785 0H143.33C153.85 0 162.408 8.59751 162.408 19.1652V72.836C162.408 83.4036 153.85 92 143.33 92H19.0785C8.55861 92 0 83.4036 0 72.836Z" fill="#263238"/>
</svg>
