<svg width="176" height="92" viewBox="0 0 176 92" fill="none" xmlns="http://www.w3.org/2000/svg">
<path d="M157.524 19.1643C157.524 11.3023 151.157 4.90614 143.331 4.90614H19.0786C11.2521 4.90614 4.88499 11.3023 4.88499 19.1643V72.8357C4.88499 80.6966 11.2521 87.0939 19.0786 87.0939H143.331C151.157 87.0939 157.524 80.6966 157.524 72.8357V19.1643ZM0 72.8357V19.1643C0 8.59667 8.55881 -7.62939e-06 19.0786 -7.62939e-06H143.331C153.851 -7.62939e-06 162.409 8.59667 162.409 19.1643V72.8357C162.409 83.4033 153.851 92 143.331 92H19.0786C8.55881 92 0 83.4033 0 72.8357Z" fill="#263238"/>
<path d="M158.899 55.0805V36.9186C158.899 34.1824 161.128 31.9435 163.851 31.9435H165.477C171.265 31.9435 176 36.701 176 42.5156V49.4845C176 55.298 171.265 60.0555 165.477 60.0555H163.851C161.128 60.0555 158.899 57.8167 158.899 55.0805Z" fill="#263238"/>
<path d="M10.312 65.7237V25.8667C10.312 16.9257 17.528 9.67691 26.4296 9.67691H28.1217V81.9146H26.4296C17.528 81.9146 10.312 74.6658 10.312 65.7237Z" fill="#FFD815"/>
<path d="M34.8005 9.67656H52.6103V81.9142H34.8005V9.67656Z" fill="#FFD815"/>
<path d="M59.2896 9.67656H77.0992V81.9142H59.2896V9.67656Z" fill="#FFD815"/>
</svg>
