<svg width="176" height="92" viewBox="0 0 176 92" fill="none" xmlns="http://www.w3.org/2000/svg">
<path d="M157.524 19.1652C157.524 11.303 151.156 4.90738 143.331 4.90738H19.0785C11.2519 4.90738 4.8841 11.303 4.8841 19.1652V72.8359C4.8841 80.697 11.2519 87.0937 19.0785 87.0937H143.331C151.156 87.0937 157.524 80.697 157.524 72.8359V19.1652ZM0 72.8359V19.1652C0 8.59821 8.55824 -7.62939e-06 19.0785 -7.62939e-06H143.331C153.85 -7.62939e-06 162.408 8.59821 162.408 19.1652V72.8359C162.408 83.4029 153.85 92 143.331 92H19.0785C8.55824 92 0 83.4029 0 72.8359Z" fill="#263238"/>
<path d="M158.898 54.6504V37.3512C158.898 34.3779 161.321 31.9448 164.28 31.9448H164.565C170.854 31.9448 176 37.1141 176 43.4318V48.5698C176 54.8874 170.854 60.0568 164.565 60.0568H164.28C161.321 60.0568 158.898 57.6236 158.898 54.6504Z" fill="#263238"/>
<path d="M10.3118 64.3214V27.2703C10.3118 17.554 18.1524 9.67773 27.8247 9.67773H28.1221V81.915H27.8258C18.1524 81.915 10.3118 74.0377 10.3118 64.3214Z" fill="#A4ED53"/>
<path d="M34.8005 9.67733H52.6109V81.9146H34.8005V9.67733Z" fill="#A4ED53"/>
<path d="M59.29 9.67733H77.1004V81.9146H59.29V9.67733Z" fill="#A4ED53"/>
<path d="M84.4741 10.0867H102.285V82.324H84.4741V10.0867Z" fill="#A4ED53"/>
</svg>
