<svg width="176" height="92" viewBox="0 0 176 92" fill="none" xmlns="http://www.w3.org/2000/svg">
<path d="M157.524 19.1648C157.524 11.3027 151.156 4.90704 143.329 4.90704H19.0781C11.2515 4.90704 4.88482 11.3027 4.88482 19.1648V72.8352C4.88482 80.6973 11.2515 87.093 19.0781 87.093H143.329C151.156 87.093 157.524 80.6973 157.524 72.8352V19.1648ZM0 72.8352V19.1648C0 8.59702 8.55809 0 19.0781 0H143.329C153.849 0 162.408 8.59702 162.408 19.1648V72.8352C162.408 83.403 153.849 92 143.329 92H19.0781C8.55809 92 0 83.403 0 72.8352Z" fill="#263238"/>
<path d="M158.898 55.1544V36.8453C158.898 34.1496 161.094 31.9438 163.778 31.9438H165.633C171.335 31.9438 176 36.6314 176 42.3587V49.6411C176 55.3695 171.334 60.0559 165.633 60.0559H163.778C161.094 60.0559 158.898 57.8501 158.898 55.1544Z" fill="#263238"/>
<path d="M10.3118 65.963V25.6282C10.3118 16.8183 17.4211 9.6767 26.1899 9.6767H28.122V81.9144H26.191C17.4211 81.9144 10.3118 74.7728 10.3118 65.963Z" fill="#A4ED53"/>
<path d="M34.8005 9.6769H52.6108V81.9136H34.8005V9.6769Z" fill="#A4ED53"/>
<path d="M59.2893 9.6769H77.0995V81.9136H59.2893V9.6769Z" fill="#A4ED53"/>
<path d="M84.4741 10.0862H102.284V82.3228H84.4741V10.0862Z" fill="#A4ED53"/>
<path d="M108.963 10.0862H126.773V82.3228H108.963V10.0862Z" fill="#A4ED53"/>
<path d="M134.287 82.3228V10.0861H136.218C144.988 10.0861 152.097 17.2278 152.097 26.0365V66.3713C152.097 75.1811 144.988 82.3228 136.218 82.3228H134.287Z" fill="#A4ED53"/>
</svg>
