<svg width="175" height="182" viewBox="0 0 175 182" fill="none" xmlns="http://www.w3.org/2000/svg">
<path d="M38.7734 148.898C28.2466 142.229 23.548 132.798 27.3953 128.268C30.3257 124.815 39.33 123.704 49.8568 130.373C60.3836 137.042 66.4573 146.59 63.3959 151.71C60.3344 156.83 49.3165 155.567 38.7734 148.898Z" fill="#502A73" stroke="#502A73" stroke-width="0.1096" stroke-miterlimit="10" stroke-linecap="round" stroke-linejoin="round"/>
<path d="M38.7734 148.898C28.2466 142.229 23.548 132.798 27.3953 128.268C30.3257 124.815 39.33 123.704 49.8568 130.373C60.3836 137.042 66.4573 146.59 63.3959 151.71C60.3344 156.83 49.3165 155.567 38.7734 148.898Z" stroke="#502A73" stroke-width="0.1096" stroke-miterlimit="10" stroke-linecap="round" stroke-linejoin="round"/>
<path d="M146.398 140.576L156.711 143.388L152.881 166.089L146.398 166.292L144.875 164.372L146.398 140.576Z" fill="#4BBEA5" stroke="#502A73" stroke-width="0.1096" stroke-miterlimit="10" stroke-linecap="round" stroke-linejoin="round"/>
<path d="M156.267 138.1L147.148 143.068" stroke="#502A73" stroke-width="0.1096" stroke-miterlimit="10" stroke-linecap="round" stroke-linejoin="round"/>
<path d="M145.644 151.49L154.762 146.522" stroke="#502A73" stroke-width="0.1096" stroke-miterlimit="10" stroke-linecap="round" stroke-linejoin="round"/>
<path d="M144.874 155.7L154.009 150.732" stroke="#502A73" stroke-width="0.1096" stroke-miterlimit="10" stroke-linecap="round" stroke-linejoin="round"/>
<path d="M144.121 159.909L153.24 154.94" stroke="#502A73" stroke-width="0.1096" stroke-miterlimit="10" stroke-linecap="round" stroke-linejoin="round"/>
<path d="M145.431 139.936C143.696 141.267 142.566 141.755 142.189 150.984C141.813 160.213 141.797 172.843 142.763 176.851C143.728 180.86 146.544 181.702 150.784 180.489C155.025 179.26 161.082 173.702 166.943 159.337C172.804 144.972 173.966 139.128 173.983 137.242C173.999 135.356 174.032 131.937 169.415 130.135C168.482 129.781 166.91 129.074 166.91 129.074L163.718 130.876C161.622 132.055 159.232 132.476 156.858 132.122C155.532 131.937 154.042 132.088 152.962 133.352C151.472 135.086 151.03 139.263 150.686 144.77C150.539 147.144 149.491 158.242 149.426 160.785C149.409 161.088 149.196 161.358 148.902 161.408C148.509 161.493 148.149 161.206 148.132 160.802C148.034 158.882 148.214 153.039 148.345 149.334C148.754 137.478 146.086 139.431 145.431 139.936Z" fill="#4BBEA5" stroke="#502A73" stroke-width="0.1096" stroke-miterlimit="10" stroke-linecap="round" stroke-linejoin="round"/>
<path d="M169.399 130.118C168.466 129.765 163.358 127.542 163.358 127.542L163.948 130.725C165.634 131.735 167.992 132.695 171.168 132.931C171.904 132.981 172.559 133.049 173.165 133.083C172.526 131.988 171.397 130.91 169.399 130.118Z" fill="#4BBEA5" stroke="#502A73" stroke-width="0.1096" stroke-miterlimit="10" stroke-linecap="round" stroke-linejoin="round"/>
<path d="M168.546 131.82C164.961 133.891 165.01 136.333 165.174 138.876C165.337 141.419 168.775 146.774 166.369 150.799C163.962 154.824 160.328 153.275 157.316 156.39C154.303 159.506 156.693 167.051 156.513 171.042C156.333 175.033 150.096 177.138 150.096 177.138L152.731 179.664C156.775 177.458 161.932 171.615 166.958 159.321C172.819 144.955 173.981 139.112 173.998 137.226C173.998 135.861 174.031 133.655 172.246 131.87C171.297 131.23 170.069 130.927 168.546 131.82Z" fill="#008056" stroke="#502A73" stroke-width="0.1096" stroke-miterlimit="10" stroke-linecap="round" stroke-linejoin="round"/>
<path d="M145.611 176.633C144.367 177.778 144.318 179.058 144.711 180.17C146.135 181.197 148.198 181.231 150.768 180.473C152.209 180.052 153.863 179.143 155.647 177.543C152.668 175.589 148.313 174.174 145.611 176.633Z" fill="#008056" stroke="#502A73" stroke-width="0.1096" stroke-miterlimit="10" stroke-linecap="round" stroke-linejoin="round"/>
<path d="M161.231 132.847C161.1 133.218 160.936 133.723 160.691 134.43C159.823 136.957 158.628 141.251 158.628 141.251L161.771 141.184L161.575 132.662C161.46 132.729 161.346 132.797 161.231 132.847Z" fill="#008056" stroke="#502A73" stroke-width="0.1096" stroke-miterlimit="10" stroke-linecap="round" stroke-linejoin="round"/>
<path d="M57.5994 153.308L61.7087 135.507L42.898 112.974L32.7313 129.091L30.5703 138.724L43.2581 156.845" fill="#BF792A"/>
<path d="M57.5994 153.308L61.7087 135.507L42.898 112.974L32.7313 129.091L30.5703 138.724L43.2581 156.845" stroke="#502A73" stroke-width="0.1096" stroke-miterlimit="10" stroke-linecap="round" stroke-linejoin="round"/>
<path d="M57.5677 146.589C55.6686 145.578 51.7886 144.366 50.4298 144.046C49.7585 143.894 49.1528 143.507 48.7108 142.968L43.3573 136.299C42.506 135.356 41.442 134.666 40.2632 134.261L30.5877 131.365C30.5877 131.365 26.2329 129.445 18.9313 128.3C11.6297 127.154 5.32675 129.091 2.28168 133.992C-0.763391 138.876 28.5085 160.803 28.5085 160.803L49.0055 173.467C49.0055 173.467 53.9169 170.957 55.0301 165.248C55.7505 161.594 57.6332 154.42 58.6154 150.193C58.0261 148.963 58.6645 148.138 57.5677 146.589Z" fill="#4BBEA5" stroke="#502A73" stroke-width="0.1096" stroke-miterlimit="10" stroke-linecap="round" stroke-linejoin="round"/>
<path d="M55.0303 165.267C55.6851 161.915 57.797 154.219 58.9103 149.722C59.205 148.493 58.6811 147.213 57.6006 146.624C57.5842 146.624 57.5842 146.607 57.5678 146.607C56.1926 149.874 52.8529 158.311 51.445 162.42C49.595 167.843 49.595 167.843 49.595 167.843C49.595 167.843 49.3822 170.656 48.9893 173.485C50.0043 172.946 54.048 170.201 55.0303 165.267Z" fill="#4BBEA5" stroke="#502A73" stroke-width="0.1096" stroke-miterlimit="10" stroke-linecap="round" stroke-linejoin="round"/>
<path d="M47.0573 152.13C35.2863 148.677 36.6288 140.813 29.7037 136.552C26.2493 134.43 23.5972 134.969 19.4716 133.167C15.346 131.382 13.6598 128.031 13.6598 128.031L9.53418 133.874C9.53418 133.874 24.6286 150.53 24.8087 150.698C24.956 150.833 31.3409 160.449 34.5333 164.929L40.476 168.971C42.0149 169.56 43.3737 170.032 43.3737 170.032L43.8485 171.261L48.9727 173.467C48.9727 173.467 53.8842 170.958 54.9975 165.249C55.2921 163.75 55.7833 161.662 56.3235 159.422C56.5527 158.63 55.3903 154.555 47.0573 152.13Z" fill="#008056" stroke="#502A73" stroke-width="0.1096" stroke-miterlimit="10" stroke-linecap="round" stroke-linejoin="round"/>
<path d="M9.71396 134.935C9.71396 134.935 14.8709 130.59 13.6758 128.031C8.68254 128.317 4.57339 130.338 2.2814 133.992C1.46284 135.289 2.95265 137.815 5.57206 140.796C7.76582 142.312 9.58296 143.524 9.58296 143.524L9.71396 134.935Z" fill="#008056" stroke="#502A73" stroke-width="0.1096" stroke-miterlimit="10" stroke-linecap="round" stroke-linejoin="round"/>
<path d="M13.6106 133.705C2.78917 129.596 -0.63249 134.867 1.69224 141.805C4.50812 150.26 13.2668 157.569 21.6653 163.614C28.3612 168.431 35.6137 173.247 40.6888 174.376C49.7585 176.38 52.0669 170.149 52.4434 169.02C53.9496 164.574 52.9183 158.579 32.9452 147.211C29.3435 145.157 20.2901 136.248 13.6106 133.705Z" fill="#502A73" stroke="#502A73" stroke-width="0.1096" stroke-miterlimit="10" stroke-linecap="round" stroke-linejoin="round"/>
<path d="M13.6106 133.705C2.78917 129.596 -0.63249 134.867 1.69224 141.805C4.50811 150.26 13.2668 157.569 21.6653 163.614C28.3612 168.431 35.6137 173.247 40.6888 174.376C49.7586 176.38 52.0669 170.149 52.4434 169.02C53.9496 164.574 52.9183 158.579 32.9452 147.211C29.3435 145.157 20.2901 136.248 13.6106 133.705Z" stroke="#502A73" stroke-width="0.1096" stroke-miterlimit="10" stroke-linecap="round" stroke-linejoin="round"/>
<path d="M44.962 144.164C44.962 144.164 48.9893 145.865 51.3304 147.027C53.6715 148.189 53.6715 148.189 53.6715 148.189L44.6836 147.364L44.962 144.164Z" fill="#008056" stroke="#502A73" stroke-width="0.1096" stroke-miterlimit="10" stroke-linecap="round" stroke-linejoin="round"/>
<path d="M165.537 122.202C165.242 120.198 164.08 118.446 162.443 117.335L136.969 100.207C134.3 98.4055 132.434 95.5763 131.828 92.3429V92.3091C131.239 89.2104 131.059 86.0613 131.272 82.912C131.419 80.908 131.484 78.466 131.272 76.3272C130.797 71.6118 127.768 63.7808 127.768 63.7808L93.5028 65.5659L82.092 67.4353L62.8393 72.4707L60.2362 81.7836L52.951 85.9434C49.3985 87.9811 46.4189 90.945 44.3397 94.5321L27.3789 128.298C30.0147 125.553 39.4774 123.802 49.8732 130.369C59.0576 136.18 64.8366 144.196 64.149 149.534L71.909 110.295C72.3347 108.156 73.5134 106.27 75.216 104.973L102.9 83.9224L108.679 109.436C109.743 114.169 112.084 118.497 115.424 121.932L137.673 144.886C141.815 149.147 150.983 146.604 158.17 139.228C163.523 133.687 166.241 127.001 165.537 122.202Z" fill="white" stroke="#502A73" stroke-width="0.1096" stroke-miterlimit="10" stroke-linecap="round" stroke-linejoin="round"/>
<path d="M162.901 132.88C163.457 131.87 163.948 130.876 164.341 129.882C159.201 126.565 148.297 119.542 142.747 116.275C134.906 111.644 128.079 105.901 126.507 102.6C124.723 98.8618 124.215 96.4703 123.282 81.6336C122.938 76.2277 121.792 64.5569 121.776 64.439C121.759 64.3212 121.743 64.2033 121.71 64.0854L118.6 64.2538C118.567 64.4222 118.551 64.5906 118.567 64.7759C118.583 64.8938 119.729 76.514 120.073 81.8525C121.039 97.1945 121.645 99.9059 123.626 104.066C124.641 106.188 126.916 108.747 130.42 111.661C133.481 114.221 137.296 116.881 141.159 119.155C146.758 122.473 157.924 129.647 162.901 132.88Z" fill="white" stroke="#502A73" stroke-width="0.1096" stroke-miterlimit="10" stroke-linecap="round" stroke-linejoin="round"/>
<path d="M30.5876 131.366L38.5932 133.758C38.7733 130.777 38.8551 122.693 34.3529 121.345C31.2588 120.419 26.4456 121.261 25.3979 124.074C24.6775 126.028 25.2996 128.116 26.2983 129.918C29.0487 130.693 30.5876 131.366 30.5876 131.366Z" fill="#4BBEA5" stroke="#502A73" stroke-width="0.1096" stroke-miterlimit="10" stroke-linecap="round" stroke-linejoin="round"/>
<path d="M30.5879 131.365L36.5799 133.167C36.629 132.073 36.6454 130.506 36.4653 128.906C36.2688 127.071 35.6303 123.921 33.764 123.365C32.7489 123.062 31.4393 123.012 30.2278 123.214C27.5756 123.669 26.3477 124.746 26.0694 125.471C25.5455 126.885 26.2496 128.654 27.2646 130.22C29.4092 130.86 30.5879 131.365 30.5879 131.365Z" fill="#4BBEA5" stroke="#502A73" stroke-width="0.1096" stroke-miterlimit="10" stroke-linecap="round" stroke-linejoin="round"/>
<path d="M142.255 138.42C141.059 139.026 137.441 140.525 137.13 142.091C136.754 144.079 141.812 146.1 144.121 146.908C147.608 146.605 151.684 144.769 155.482 141.654C154.811 141.62 153.747 141.401 153.289 140.441C152.765 139.346 152.716 137.493 151.897 136.719C150.407 135.287 148.95 135.034 142.255 138.42Z" fill="#4BBEA5" stroke="#502A73" stroke-width="0.1096" stroke-miterlimit="10" stroke-linecap="round" stroke-linejoin="round"/>
<path d="M154.109 142.716C152.636 142.615 151.539 142.076 151.244 140.493C151.097 139.819 150.737 137.41 148.887 137.899C147.691 138.202 145.858 138.926 143.157 140.29C142.976 140.375 142.764 140.493 142.502 140.61C141.503 141.082 140.701 141.503 140.128 141.857C139.735 142.093 139.702 142.665 140.062 142.951C140.832 143.558 142.502 145.074 145.121 146.135C145.825 146.421 146.595 146.455 147.315 146.236C149.525 145.562 151.85 144.366 154.109 142.716Z" fill="#4BBEA5" stroke="#502A73" stroke-width="0.1096" stroke-miterlimit="10" stroke-linecap="round" stroke-linejoin="round"/>
<path d="M130.436 60.3642C128.766 56.7435 127.981 55.0763 127.113 50.6134C126.245 46.1506 126.802 42.6477 126.802 42.6477C126.802 42.6477 121.759 34.143 123.773 28.535C125.787 22.927 130.485 22.4892 130.485 22.4892C127.506 22.2703 124.755 22.0008 119.124 22.9103C113.492 23.8197 106.649 26.531 106.649 26.531C106.649 26.531 91.6853 29.1751 85.235 31.3475C84.9403 31.4486 84.6293 31.5664 84.3346 31.6843C78.8011 36.5849 77.5568 42.614 78.7519 46.2685C79.9306 49.9229 79.9307 53.4595 79.2267 56.7434C78.5228 60.0274 77.5077 64.1703 76.6728 66.4943C75.8379 68.8015 76.2798 71.1423 79.0793 71.9002C79.0793 71.9002 81.6006 72.3044 89.6553 72.7928C97.71 73.2812 104.422 72.136 110.66 71.176C116.897 70.2161 127.948 70.1992 127.948 70.1992C127.948 70.1992 129.683 70.4351 131.026 69.3067C132.368 68.1784 132.728 65.3491 130.436 60.3642Z" fill="#008056" stroke="#502A73" stroke-width="0.1096" stroke-miterlimit="10" stroke-linecap="round" stroke-linejoin="round"/>
<path d="M47.2884 38.7569C47.4521 36.635 47.1574 34.3109 47.5667 32.7279C47.976 31.1448 49.0565 27.4904 46.5353 27.2546C44.5871 27.0694 42.7535 31.1112 42.7535 31.1112C42.7535 31.1112 42.0005 25.7053 41.2802 22.6908C40.5107 19.5079 38.0058 19.4236 37.22 20.9393C36.6143 22.1013 37.22 25.5705 37.22 25.5705C37.22 25.5705 36.6962 21.0235 34.7152 21.3603C32.1286 21.815 33.1108 26.379 33.1108 26.379C33.1108 26.379 32.0466 23.3981 30.5568 24.0212C28.5595 24.8464 29.4764 29.3092 29.4764 29.3092C29.4764 29.3092 28.0194 27.1536 26.9552 28.9893C25.8911 30.8249 26.5623 38.3359 28.9689 43.8934C31.0153 48.592 33.1108 49.6193 33.1108 49.6193C33.1108 49.6193 46.6991 46.5711 47.2884 38.7569Z" fill="#BF792A" stroke="#502A73" stroke-width="0.1096" stroke-miterlimit="10" stroke-linecap="round" stroke-linejoin="round"/>
<path d="M37.2051 25.554L37.9997 30.5055" stroke="#502A73" stroke-width="0.1096" stroke-miterlimit="10" stroke-linecap="round" stroke-linejoin="round"/>
<path d="M33.1113 26.3792L34.2301 31.7012" stroke="#502A73" stroke-width="0.1096" stroke-miterlimit="10" stroke-linecap="round" stroke-linejoin="round"/>
<path d="M29.4775 29.2927C29.4775 29.2927 29.9851 31.7854 30.6236 33.6043C31.262 35.4232 31.2621 35.4233 31.2621 35.4233" fill="#BF792A"/>
<path d="M29.4775 29.2927C29.4775 29.2927 29.9851 31.7854 30.6236 33.6043C31.262 35.4232 31.2621 35.4233 31.2621 35.4233" stroke="#502A73" stroke-width="0.1096" stroke-miterlimit="10" stroke-linecap="round" stroke-linejoin="round"/>
<path d="M42.7554 31.1113C42.7554 31.1113 42.1496 31.8692 41.4293 32.3745C40.7253 32.8797 37.9914 35.1197 38.1878 38.5724" fill="#BF792A"/>
<path d="M42.7554 31.1113C42.7554 31.1113 42.1496 31.8692 41.4293 32.3745C40.7253 32.8797 37.9914 35.1197 38.1878 38.5724" stroke="#502A73" stroke-width="0.1096" stroke-miterlimit="10" stroke-linecap="round" stroke-linejoin="round"/>
<path d="M76.6923 66.5111C77.5272 64.204 78.5259 60.0611 79.2462 56.7603C79.9502 53.4764 79.9501 49.9399 78.7714 46.2854C77.5926 42.6309 78.8369 36.6019 84.3541 31.7012C72.6813 36.5008 62.6783 57.1982 62.5965 56.9624C62.5146 56.7267 57.3085 47.38 54.3126 45.5107C51.3166 43.6413 48.861 44.3655 48.861 44.3655C48.861 44.3655 39.5456 50.125 37.2209 51.9102C34.8961 53.6953 34.0776 54.8574 34.094 58.2592C34.1104 62.2505 39.0709 72.3213 47.0601 77.5251C55.0329 82.7289 60.2554 81.8027 60.2554 81.8027L79.1316 71.9339C76.2994 71.1593 75.8737 68.8183 76.6923 66.5111Z" fill="#008056" stroke="#502A73" stroke-width="0.1096" stroke-miterlimit="10" stroke-linecap="round" stroke-linejoin="round"/>
<path d="M48.9261 44.2816L46.9451 40.3745L33.1113 49.6033L35.0432 53.9314L48.9261 44.2816Z" fill="#008056" stroke="#502A73" stroke-width="0.1096" stroke-miterlimit="10" stroke-linecap="round" stroke-linejoin="round"/>
<path d="M62.581 56.9624C62.581 56.9624 61.5269 58.8317 61.0565 63.4629C60.6997 66.9995 61.3809 70.4688 61.3809 70.4688" fill="#008056"/>
<path d="M62.581 56.9624C62.581 56.9624 61.5269 58.8317 61.0565 63.4629C60.6997 66.9995 61.3809 70.4688 61.3809 70.4688" stroke="#502A73" stroke-width="0.1096" stroke-miterlimit="10" stroke-linecap="round" stroke-linejoin="round"/>
<path d="M156.058 78.8714C156.058 78.8714 154.945 85.2541 153.848 87.8981C152.784 90.4579 151.163 93.6576 147.333 92.9503C146.874 92.8661 145.433 93.8429 144.353 93.5398C143.403 93.2872 143.371 92.6473 142.88 92.4957C142.192 92.2936 141.652 93.2366 139.818 92.4451C138.656 91.9399 138.901 91.1315 138.41 90.9463C137.919 90.761 135.381 91.182 134.972 89.0432C134.841 88.4033 135.021 87.2077 135.25 86.5845L135.971 84.6309L135.119 83.4858C134.154 82.189 134.35 80.5555 135.332 79.1408C137.641 75.8232 141.995 73.8697 141.995 73.8697C141.995 73.8697 144.418 73.196 149.657 73.3644C157.123 73.617 156.058 78.8714 156.058 78.8714Z" fill="#BF792A" stroke="#502A73" stroke-width="0.1096" stroke-miterlimit="10" stroke-linecap="round" stroke-linejoin="round"/>
<path d="M135.938 84.6167C135.938 84.6167 136.489 83.2931 137.592 81.7852L135.938 84.6167Z" fill="#BF792A"/>
<path d="M135.938 84.6167C135.938 84.6167 136.489 83.2931 137.592 81.7852" stroke="#502A73" stroke-width="0.1096" stroke-miterlimit="10" stroke-linecap="round" stroke-linejoin="round"/>
<path d="M133.27 48.8277C140.425 53.0885 143.781 52.4823 143.781 52.4823C143.781 52.4823 140.457 57.5345 139.279 61.4248C137.609 66.9317 141.341 70.7041 141.341 70.7041C141.341 70.7041 155.29 73.8364 157.664 74.409C160.037 74.9816 166.373 64.6245 167.306 52.9875C168.125 42.9335 165.391 40.2727 156.108 33.8563C146.875 27.4568 131.928 22.6067 130.504 22.5056C130.504 22.5056 125.805 22.9434 123.791 28.5514C121.778 34.1594 126.82 42.664 126.82 42.664C126.82 42.664 129.816 46.7732 133.27 48.8277Z" fill="#008056" stroke="#502A73" stroke-width="0.1096" stroke-miterlimit="10" stroke-linecap="round" stroke-linejoin="round"/>
<path d="M141.34 70.7029L140.047 74.9134L156.058 78.8713L157.662 74.4081L141.34 70.7029Z" fill="#008056" stroke="#502A73" stroke-width="0.1096" stroke-miterlimit="10" stroke-linecap="round" stroke-linejoin="round"/>
<path d="M153.602 43.2698C153.602 43.2698 150.638 44.4824 147.397 47.8845C145.301 50.074 143.762 52.4993 143.762 52.4993C143.762 52.4993 142.977 52.0108 143.32 49.2487C143.681 46.4866 146.12 43.8425 146.12 43.8425" fill="#008056"/>
<path d="M153.602 43.2698C153.602 43.2698 150.638 44.4824 147.397 47.8845C145.301 50.074 143.762 52.4993 143.762 52.4993C143.762 52.4993 142.977 52.0108 143.32 49.2487C143.681 46.4866 146.12 43.8425 146.12 43.8425" stroke="#502A73" stroke-width="0.1096" stroke-miterlimit="10" stroke-linecap="round" stroke-linejoin="round"/>
<path d="M95.661 32.9629C95.661 32.9629 91.912 39.5482 94.2367 41.7377C96.5615 43.9271 100.687 41.0977 104.616 41.1314C110.248 41.1819 110.248 43.9777 110.248 43.9777" stroke="#502A73" stroke-width="0.5481" stroke-miterlimit="10" stroke-linecap="round" stroke-linejoin="round"/>
<path d="M95.661 32.9629C95.661 32.9629 91.912 39.5482 94.2367 41.7377C96.5615 43.9271 100.687 41.0977 104.616 41.1314C110.248 41.1819 110.248 43.9777 110.248 43.9777" stroke="#EEC718" stroke-width="0.3289" stroke-miterlimit="10" stroke-linecap="round" stroke-linejoin="round"/>
<path d="M110.25 45.6834C110.865 45.6834 111.363 45.1733 111.363 44.5441C111.363 43.9149 110.865 43.4048 110.25 43.4048C109.635 43.4048 109.137 43.9149 109.137 44.5441C109.137 45.1733 109.635 45.6834 110.25 45.6834Z" fill="#EEC718" stroke="#502A73" stroke-width="0.1096" stroke-miterlimit="10" stroke-linecap="round" stroke-linejoin="round"/>
<path d="M97.3488 27.911C97.3488 27.911 92.3228 34.2768 96.7103 35.6746C100.165 36.7693 103.963 32.2728 106.271 30.2519C110.626 26.4796 114.997 24.3071 117.322 23.6335C124.542 21.5452 130.501 22.4883 130.501 22.4883C130.501 22.4883 134.348 21.2421 133.038 16.594C131.729 11.946 124.05 9.72291 115.472 13.1584C106.893 16.6108 102.424 23.1114 102.424 23.1114" fill="#008056"/>
<path d="M97.3488 27.911C97.3488 27.911 92.3228 34.2768 96.7103 35.6746C100.165 36.7693 103.963 32.2728 106.271 30.2519C110.626 26.4796 114.997 24.3071 117.322 23.6335C124.542 21.5452 130.501 22.4883 130.501 22.4883C130.501 22.4883 134.348 21.2421 133.038 16.594C131.729 11.946 124.05 9.72291 115.472 13.1584C106.893 16.6108 102.424 23.1114 102.424 23.1114" stroke="#502A73" stroke-width="0.1096" stroke-miterlimit="10" stroke-linecap="round" stroke-linejoin="round"/>
<path d="M102.161 30.9263C102.161 30.9263 98.8378 36.7705 100.901 38.7073C102.947 40.6442 106.614 38.1347 110.101 38.1684C115.078 38.202 115.078 40.6947 115.078 40.6947" stroke="#502A73" stroke-width="0.5481" stroke-miterlimit="10" stroke-linecap="round" stroke-linejoin="round"/>
<path d="M102.161 30.9263C102.161 30.9263 98.8378 36.7705 100.901 38.7073C102.947 40.6442 106.614 38.1347 110.101 38.1684C115.078 38.202 115.078 40.6947 115.078 40.6947" stroke="#EEC718" stroke-width="0.3289" stroke-miterlimit="10" stroke-linecap="round" stroke-linejoin="round"/>
<path d="M115.047 42.619C115.662 42.619 116.16 42.1089 116.16 41.4796C116.16 40.8504 115.662 40.3403 115.047 40.3403C114.432 40.3403 113.934 40.8504 113.934 41.4796C113.934 42.1089 114.432 42.619 115.047 42.619Z" fill="#EEC718" stroke="#502A73" stroke-width="0.1096" stroke-miterlimit="10" stroke-linecap="round" stroke-linejoin="round"/>
<path d="M98.4628 31.1426L106.665 24.3389C106.239 19.3877 105.372 9.73796 104.799 7.12763C103.865 2.93427 103.276 1.83955 100.607 1.16591C97.0058 0.239667 91.4722 7.09392 91.4722 7.09392C91.4722 7.09392 91.0957 11.1357 90.932 13.3082C90.9156 13.5776 90.8174 13.8302 90.6537 14.0323L88.7546 16.2216C88.4436 16.6426 88.6236 17.2489 89.1148 17.4005L90.5391 17.9899C90.8501 18.1246 90.801 18.4446 90.49 19.0004C90.048 19.7582 90.7683 20.1624 90.9483 20.2466C91.3413 20.4319 91.4395 20.4487 91.4395 20.4487L91.4722 21.9307C91.4722 21.9307 90.9647 22.0486 90.9156 22.4696C90.8665 22.9748 91.112 23.1264 91.1448 23.4295C91.2103 24.1032 91.2758 24.4231 91.3412 24.8947C91.4558 25.7536 92.2254 26.343 93.0603 26.2251L96.9239 25.6862L98.0699 31.3784L98.4628 31.1426Z" fill="#BF792A" stroke="#502A73" stroke-width="0.1096" stroke-miterlimit="10" stroke-linecap="round" stroke-linejoin="round"/>
<path d="M95.418 19.9048C95.7782 20.0221 96.0402 19.8378 96.0402 19.8378C96.0402 19.8378 94.9105 18.6817 94.5995 18.4974C94.2884 18.3131 93.4208 18.3801 92.2093 18.4807C91.5545 18.5309 91.0469 18.4304 90.7359 18.3298C90.7359 18.4974 90.6541 18.7152 90.4904 19.0001C90.4576 19.0503 90.4412 19.1005 90.4248 19.1508C90.7522 19.2848 91.2598 19.4357 91.8983 19.4859C92.9951 19.5697 94.2885 19.3687 94.3867 19.3352C94.4195 19.3184 94.9924 19.754 95.418 19.9048Z" fill="#502A73" stroke="#502A73" stroke-width="0.1096" stroke-miterlimit="10" stroke-linecap="round" stroke-linejoin="round"/>
<path d="M95.418 19.9048C95.7782 20.0221 96.0402 19.8378 96.0402 19.8378C96.0402 19.8378 94.9105 18.6817 94.5995 18.4974C94.2884 18.3131 93.4208 18.3801 92.2093 18.4807C91.5545 18.5309 91.0469 18.4304 90.7359 18.3298C90.7359 18.4974 90.6541 18.7152 90.4904 19.0001C90.4576 19.0503 90.4412 19.1005 90.4248 19.1508C90.7522 19.2848 91.2598 19.4357 91.8983 19.4859C92.9951 19.5697 94.2885 19.3687 94.3867 19.3352C94.4195 19.3184 94.9924 19.754 95.418 19.9048Z" stroke="#502A73" stroke-width="0.1096" stroke-miterlimit="10" stroke-linecap="round" stroke-linejoin="round"/>
<path d="M96.2514 8.10644C96.6607 7.95487 95.4819 8.27491 95.7439 8.27491C96.6279 8.25807 96.9063 8.20748 96.9063 8.20748C96.9063 8.20748 96.9062 8.20755 97.2664 8.69593C97.6266 9.18431 99.5421 8.34228 99.5912 8.39281C99.6567 8.44333 98.2651 9.94209 98.3797 10.5315C98.4943 11.1378 99.3293 10.7673 99.3948 10.9357C99.4602 11.1041 98.1832 12.5019 98.3142 12.8893C98.4452 13.2766 98.8873 13.3945 98.8873 13.3945C98.8873 13.3945 98.478 15.0617 99.6894 15.6006C100.901 16.1395 101.261 15.2975 101.343 13.0914C101.359 12.4177 101.785 11.8957 102.227 12.0641C103.029 12.3841 104.077 14.0682 104.077 14.0682C104.077 14.0682 104.945 17.1332 106.074 17.5374C105.665 13.2935 105.19 8.83064 104.814 7.09603C103.881 2.90266 103.291 1.80804 100.623 1.13441C98.5107 0.595504 95.613 1.75747 93.2391 3.18894C92.7316 3.49208 92.5515 2.80165 90.767 2.81849C89.3591 2.83534 88.5732 5.52978 89.8993 7.04546C90.8325 8.17379 94.7616 8.6285 96.2514 8.10644Z" fill="#502A73" stroke="#502A73" stroke-width="0.1096" stroke-miterlimit="10" stroke-linecap="round" stroke-linejoin="round"/>
<path d="M96.2514 8.10644C96.6607 7.95487 95.4819 8.27491 95.7439 8.27491C96.6279 8.25807 96.9063 8.20748 96.9063 8.20748C96.9063 8.20748 96.9062 8.20755 97.2664 8.69593C97.6266 9.18431 99.5421 8.34228 99.5912 8.39281C99.6567 8.44333 98.2651 9.94209 98.3797 10.5315C98.4943 11.1378 99.3293 10.7673 99.3948 10.9357C99.4602 11.1041 98.1832 12.5019 98.3142 12.8893C98.4452 13.2766 98.8873 13.3945 98.8873 13.3945C98.8873 13.3945 98.478 15.0617 99.6894 15.6006C100.901 16.1395 101.261 15.2975 101.343 13.0914C101.359 12.4177 101.785 11.8957 102.227 12.0641C103.029 12.3841 104.077 14.0682 104.077 14.0682C104.077 14.0682 104.945 17.1332 106.074 17.5374C105.665 13.2935 105.19 8.83064 104.814 7.09603C103.881 2.90266 103.291 1.80804 100.623 1.13441C98.5107 0.595504 95.613 1.75747 93.2391 3.18894C92.7316 3.49208 92.5515 2.80165 90.767 2.81849C89.3591 2.83534 88.5732 5.52978 89.8993 7.04546C90.8325 8.17379 94.7616 8.6285 96.2514 8.10644Z" stroke="#502A73" stroke-width="0.1096" stroke-miterlimit="10" stroke-linecap="round" stroke-linejoin="round"/>
<path d="M101.639 13.7319C101.655 13.3109 101.737 12.9403 101.852 12.6877C102.31 11.694 103.341 11.1887 104.307 11.6771C105.273 12.1655 105.519 13.294 105.289 14.3719C105.077 15.3824 104.569 16.275 103.996 16.7635C103.554 17.134 103.079 17.2856 102.654 17.0835" fill="#BF792A"/>
<path d="M101.639 13.7319C101.655 13.3109 101.737 12.9403 101.852 12.6877C102.31 11.694 103.341 11.1887 104.307 11.6771C105.273 12.1655 105.519 13.294 105.289 14.3719C105.077 15.3824 104.569 16.275 103.996 16.7635C103.554 17.134 103.079 17.2856 102.654 17.0835" stroke="#502A73" stroke-width="0.1096" stroke-miterlimit="10" stroke-linecap="round" stroke-linejoin="round"/>
<path d="M101.295 16.2917C101.295 16.2917 100.984 16.8782 100.378 16.9284C99.7889 16.9619 99.1504 16.3252 99.1504 16.3252" stroke="#502A73" stroke-width="0.1096" stroke-miterlimit="10" stroke-linecap="round" stroke-linejoin="round"/>
<path d="M101.247 17.3352C101.247 17.3352 100.936 17.9216 100.33 17.9719C99.741 18.0054 99.1025 17.3686 99.1025 17.3686" stroke="#502A73" stroke-width="0.1096" stroke-miterlimit="10" stroke-linecap="round" stroke-linejoin="round"/>
<path d="M102.586 13.8452C102.586 13.8452 102.848 12.689 103.798 13.1582C104.42 13.4597 104.256 14.5153 103.683 14.8336C103.372 15.0012 102.897 14.8504 102.897 14.8504C102.897 14.8504 103.208 15.1018 103.045 15.4201C102.848 15.8222 102.406 15.4871 102.406 15.4871" fill="#BF792A"/>
<path d="M102.586 13.8452C102.586 13.8452 102.848 12.689 103.798 13.1582C104.42 13.4597 104.256 14.5153 103.683 14.8336C103.372 15.0012 102.897 14.8504 102.897 14.8504C102.897 14.8504 103.208 15.1018 103.045 15.4201C102.848 15.8222 102.406 15.4871 102.406 15.4871" stroke="#502A73" stroke-width="0.1096" stroke-miterlimit="10" stroke-linecap="round" stroke-linejoin="round"/>
<path d="M94.4349 20.5679C94.3367 20.4003 94.1403 20.3165 93.9602 20.3501C93.731 20.4003 93.1089 20.5176 92.4213 20.5511C92.0284 20.5679 91.6682 20.5176 91.4062 20.4506L91.4389 21.9418C91.4389 22.2266 91.6518 22.4612 91.9301 22.478C92.1757 22.5115 92.4703 22.4779 92.8632 22.3607C94.0092 22.0088 94.5823 20.8192 94.4349 20.5679Z" fill="white" stroke="#502A73" stroke-width="0.1096" stroke-miterlimit="10" stroke-linecap="round" stroke-linejoin="round"/>
<path d="M93.9424 13.1267C94.2667 13.0396 94.6071 13.057 94.9314 13.1789" stroke="#502A73" stroke-width="0.2192" stroke-miterlimit="10" stroke-linecap="round" stroke-linejoin="round"/>
<path d="M94.0884 13.1089C93.9911 13.2932 93.91 13.578 93.8938 13.8629C93.8776 14.2985 94.0235 14.5163 94.2019 14.533C94.3965 14.5498 94.5587 14.3487 94.5749 13.9131C94.5911 13.645 94.5424 13.3267 94.4614 13.1424L94.0884 13.1089Z" fill="#502A73"/>
<path d="M90.8164 12.9582C91.1407 12.8711 91.4813 12.8886 91.8056 13.0105" stroke="#502A73" stroke-width="0.2192" stroke-miterlimit="10" stroke-linecap="round" stroke-linejoin="round"/>
<path d="M90.9624 12.9404C90.8651 13.1247 90.784 13.4096 90.7678 13.6944C90.7516 14.13 90.8976 14.3479 91.0759 14.3647C91.2705 14.3814 91.4326 14.1804 91.4488 13.7447C91.465 13.4767 91.4164 13.1583 91.3353 12.974L90.9624 12.9404Z" fill="#502A73"/>
<path d="M92.9286 11.723C93.0105 11.9073 93.2232 11.9743 93.387 11.857C93.6653 11.6727 94.1073 11.4716 94.6476 11.5889C94.9423 11.6559 95.1551 11.7397 95.3188 11.8235C95.4988 11.924 95.728 11.7899 95.728 11.5721C95.728 11.4883 95.6953 11.4046 95.6298 11.3376C95.3024 11.036 94.2219 10.2653 92.9941 11.3209C92.8958 11.4214 92.8631 11.5889 92.9286 11.723Z" fill="#502A73"/>
<path d="M91.5665 10.9199C91.4043 10.8696 91.2584 10.8528 91.1449 10.8696L91.0801 11.6235C91.1449 11.6068 91.226 11.59 91.3071 11.6068C91.5017 11.6235 91.68 11.7073 91.8097 11.7911C91.9719 11.8916 92.1664 11.8246 92.2475 11.6403C92.3123 11.5063 92.2799 11.3554 92.1664 11.2549C92.0529 11.1544 91.8746 11.0372 91.5665 10.9199Z" fill="#502A73"/>
<path d="M104.341 5.22803C104.112 5.34592 103.866 5.54797 103.572 5.69955C97.7271 8.46166 92.5865 8.00694 91.4077 7.82168C91.3422 8.46168 91.2603 9.47216 91.1621 10.5164C92.1444 10.6848 94.3054 10.9375 97.4814 10.6007C100.494 10.2975 103.424 9.13532 105.029 8.41111C104.947 7.889 104.881 7.46795 104.799 7.14795C104.636 6.42374 104.488 5.78382 104.341 5.22803Z" fill="#008056" stroke="#502A73" stroke-width="0.1096" stroke-miterlimit="10" stroke-linecap="round" stroke-linejoin="round"/>
<path d="M97.1846 32.5081C97.1846 32.5081 101.196 26.4454 107.564 23.2961C112.312 20.9384 117.6 19.9617 122.773 19.9617C128.732 19.9617 129.092 15.9535 126.244 14.9768C123.444 14.0168 118.86 16.3071 118.86 16.3071" fill="#008056"/>
<path d="M97.1846 32.5081C97.1846 32.5081 101.196 26.4454 107.564 23.2961C112.312 20.9384 117.6 19.9617 122.773 19.9617C128.732 19.9617 129.092 15.9535 126.244 14.9768C123.444 14.0168 118.86 16.3071 118.86 16.3071" stroke="#502A73" stroke-width="0.1096" stroke-miterlimit="10" stroke-linecap="round" stroke-linejoin="round"/>
<path d="M88.0026 37.8979C86.6438 37.6958 85.9071 38.5211 85.8088 38.639C85.7106 38.5548 84.974 37.9822 83.6151 38.6558C82.3054 39.3127 81.9125 40.6938 82.1417 41.3001C82.2563 41.6201 82.551 41.2158 83.0585 40.7442C83.7624 40.0874 84.1881 40.3232 84.1881 40.3232C84.1881 40.3232 83.124 40.8454 82.7147 41.6369C82.3218 42.4285 82.8129 43.3885 83.2549 42.7148C83.9916 41.6201 84.4501 41.519 84.4501 41.519C84.4501 41.519 83.9916 41.9906 83.7624 42.5801C83.5332 43.1864 83.6969 43.7421 84.0735 43.6916C84.3027 43.6579 85.3341 41.4853 85.1867 42.7485C84.9903 44.4832 84.9576 45.7127 85.023 46.5548C85.0558 46.959 85.3014 47.2116 85.5797 47.1611L85.8416 47.1106C86.1199 47.0601 86.3818 46.7232 86.4146 46.3021C86.4964 45.4432 86.4965 44.2137 86.3327 42.5464C86.2181 41.3337 87.2005 43.1527 87.4297 43.1022C87.8062 43.018 87.9863 42.3948 87.7734 41.8727C87.5606 41.3506 87.1186 41.0474 87.1186 41.0474C87.1186 41.0474 87.577 40.9801 88.2973 41.8222C88.7393 42.3274 89.2468 41.199 88.8703 40.5422C88.4937 39.8853 87.4297 39.7506 87.4297 39.7506C87.4297 39.7506 87.8717 39.3464 88.5593 39.7675C89.0505 40.0538 89.3288 40.3569 89.4597 40.0032C89.6562 39.3295 89.296 38.0832 88.0026 37.8979Z" fill="#EEC718" stroke="#502A73" stroke-width="0.1096" stroke-miterlimit="10" stroke-linecap="round" stroke-linejoin="round"/>
<path d="M138.491 45.3755C139.522 40.8285 141.061 38.7571 141.061 38.7571L138.245 36.5005C138.245 36.5005 136.166 38.8414 134.971 43.961C134.414 46.3524 134.365 48.2385 134.447 49.5016C135.757 50.2257 136.936 50.7983 137.967 51.2194C137.934 49.8216 137.983 47.6154 138.491 45.3755Z" fill="#4BBEA5" stroke="#502A73" stroke-width="0.1096" stroke-miterlimit="10" stroke-linecap="round" stroke-linejoin="round"/>
<path d="M150.049 37.5456C148.494 40.4927 144.86 41.6041 141.995 39.9874L136.33 36.8214C133.465 35.2216 132.385 31.4828 133.956 28.5357C135.512 25.5885 139.146 24.477 142.011 26.0937L147.675 29.2598C150.54 30.8765 151.605 34.5984 150.049 37.5456Z" fill="#4BBEA5" stroke="#502A73" stroke-width="0.1096" stroke-miterlimit="10" stroke-linecap="round" stroke-linejoin="round"/>
<path d="M150.606 36.4666C149.051 39.4138 145.416 40.5253 142.551 38.9086L136.887 35.7425C134.022 34.1426 132.941 30.404 134.513 27.4568C136.068 24.5097 139.703 23.3981 142.568 25.0149L148.232 28.181C151.097 29.7977 152.178 33.5195 150.606 36.4666Z" fill="#4BBEA5" stroke="#502A73" stroke-width="0.1096" stroke-miterlimit="10" stroke-linecap="round" stroke-linejoin="round"/>
<path d="M143.91 36.3665L138.246 33.2002C136.74 32.3581 136.183 30.4044 137.002 28.8549C137.82 27.3054 139.719 26.7328 141.225 27.5749L146.89 30.7412C148.396 31.5833 148.953 33.537 148.134 35.0865C147.315 36.636 145.416 37.2086 143.91 36.3665Z" fill="#502A73" stroke="#502A73" stroke-width="0.1096" stroke-miterlimit="10" stroke-linecap="round" stroke-linejoin="round"/>
<path d="M143.91 36.3665L138.246 33.2002C136.74 32.3581 136.183 30.4044 137.002 28.8549C137.82 27.3054 139.719 26.7328 141.225 27.5749L146.89 30.7412C148.396 31.5833 148.953 33.537 148.134 35.0865C147.315 36.636 145.416 37.2086 143.91 36.3665Z" stroke="#502A73" stroke-width="0.1096" stroke-miterlimit="10" stroke-linecap="round" stroke-linejoin="round"/>
<path d="M102.867 83.9238C102.867 83.9238 100.035 83.688 96.4984 82.2227C92.9785 80.7574 89.2949 80.387 89.2949 80.387" fill="white"/>
<path d="M102.867 83.9238C102.867 83.9238 100.035 83.688 96.4984 82.2227C92.9785 80.7574 89.2949 80.387 89.2949 80.387" stroke="#502A73" stroke-width="0.1096" stroke-miterlimit="10" stroke-linecap="round" stroke-linejoin="round"/>
<path d="M95.2691 81.751L66.4228 96.5036C63.3777 98.0529 61.0039 100.714 59.7433 103.947L49.5439 130.185" fill="white"/>
<path d="M95.2691 81.751L66.4228 96.5036C63.3777 98.0529 61.0039 100.714 59.7433 103.947L49.5439 130.185" stroke="#502A73" stroke-width="0.1096" stroke-miterlimit="10" stroke-linecap="round" stroke-linejoin="round"/>
</svg>
