<svg width="57" height="55" viewBox="0 0 57 55" fill="none" xmlns="http://www.w3.org/2000/svg">
<g clip-path="url(#clip0_33_13451)">
<rect width="57" height="55" rx="27.5" transform="matrix(-1 0 0 1 57 0)" fill="#008057"/>
<rect x="-1.5" y="1.5" width="42" height="42" rx="21" transform="matrix(-1 0 0 1 48 5)" stroke="white" stroke-width="3"/>
<path d="M29.71 21.29L34.71 26.29C34.801 26.3851 34.8724 26.4972 34.92 26.62C35.02 26.8635 35.02 27.1365 34.92 27.38C34.8724 27.5027 34.801 27.6149 34.71 27.71L29.71 32.71C29.6167 32.8032 29.5061 32.8772 29.3842 32.9277C29.2624 32.9781 29.1318 33.0041 29 33.0041C28.7337 33.0041 28.4783 32.8983 28.29 32.71C28.1017 32.5217 27.9959 32.2663 27.9959 32C27.9959 31.7337 28.1017 31.4783 28.29 31.29L31.59 28H24C23.7348 28 23.4804 27.8946 23.2929 27.7071C23.1053 27.5196 23 27.2652 23 27C23 26.7348 23.1053 26.4804 23.2929 26.2929C23.4804 26.1054 23.7348 26 24 26H31.59L28.29 22.71C28.1963 22.617 28.1219 22.5064 28.0711 22.3846C28.0203 22.2627 27.9942 22.132 27.9942 22C27.9942 21.868 28.0203 21.7373 28.0711 21.6154C28.1219 21.4936 28.1963 21.383 28.29 21.29C28.3829 21.1963 28.4935 21.1219 28.6154 21.0711C28.7373 21.0203 28.868 20.9942 29 20.9942C29.132 20.9942 29.2627 21.0203 29.3846 21.0711C29.5064 21.1219 29.617 21.1963 29.71 21.29Z" fill="white"/>
</g>
<defs>
<clipPath id="clip0_33_13451">
<rect width="57" height="55" rx="27.5" transform="matrix(-1 0 0 1 57 0)" fill="white"/>
</clipPath>
</defs>
</svg>
