<svg width="1728" height="546" viewBox="0 0 1728 546" fill="none" xmlns="http://www.w3.org/2000/svg">
<path d="M703.536 544.971C690.5 544.221 677.314 542.26 664 539.09C621.12 528.884 576.509 506.075 531.411 471.302C488.579 438.275 448.206 398.439 409.164 359.912C369.011 320.292 327.491 279.319 283.274 245.743C170.66 160.225 64.0824 174.45 -34.313 202.557L-34.3809 202.137C29.4977 183.888 81.189 177.496 128.297 182.026C183.557 187.337 234.306 208.057 283.435 245.365C327.669 278.955 369.198 319.935 409.358 359.56C448.394 398.079 488.757 437.91 531.575 470.924C629.073 546.104 720.859 564.198 804.387 524.706C878.718 489.564 936.989 416.448 993.341 345.743C1001.26 335.808 1009.44 325.538 1017.49 315.607C1057.01 266.853 1091.12 232.054 1124.86 206.092C1166.23 174.257 1207.87 155.124 1252.16 147.596C1297.45 139.9 1346.13 141.577 1400.97 152.726C1452.57 163.219 1503.56 180.941 1546.64 196.89C1637.7 230.613 1729.46 268.736 1818.2 305.603C1841.54 315.298 1865.67 325.328 1889.42 335.117C1941.34 356.523 2002.87 381.67 2065.57 405.856C2070.56 407.783 2081.98 411.171 2096.44 415.461C2144.9 429.841 2226 453.911 2228 470.38L2227.68 470.448C2226.83 463.465 2210.53 454.04 2179.22 442.44C2152.58 432.565 2120.09 422.921 2096.37 415.882C2081.9 411.588 2070.48 408.194 2065.48 406.268C2002.78 382.078 1941.24 356.931 1889.32 335.525C1865.58 325.731 1841.44 315.706 1818.1 306.011C1729.37 269.144 1637.61 231.024 1546.54 197.302C1480.94 173.009 1407.45 148.304 1332.47 143.975C1305.8 142.435 1278.96 143.469 1252.19 148.016C1151.63 165.107 1077.22 242.483 1017.71 315.916C1009.66 325.847 1001.47 336.117 993.554 346.052C937.18 416.791 878.883 489.937 804.487 525.109C772.263 540.342 738.441 546.979 703.533 544.963L703.536 544.971Z" fill="white"/>
<path d="M691.524 526.018C679.922 525.349 668.213 523.826 656.41 521.445C613.026 512.698 568.419 492.451 523.821 461.268C520.226 458.754 516.508 456.103 512.77 453.392C471.089 423.14 431.21 386.552 392.64 351.161C354.482 316.151 315.027 279.945 273.061 249.016C214.109 205.349 156.329 187.92 101.51 184.75C49.3701 181.738 -0.0859833 191.622 -45.3817 204.101L-45.4561 203.625C18.0155 186.135 69.8296 180.34 117.603 185.376C172.754 191.189 223.66 211.866 273.239 248.587C315.221 279.529 354.683 315.74 392.846 350.758C431.407 386.136 471.28 422.724 512.945 452.963C516.682 455.674 520.4 458.325 523.992 460.834C618.912 527.207 713.244 543.066 796.794 506.701C869.112 475.222 925.704 407.525 980.432 342.053C988.697 332.165 997.247 321.938 1005.66 312.072C1007.89 309.455 1010.11 306.873 1012.26 304.393C1049.82 261.019 1082.34 230.102 1114.6 207.087C1154.05 178.95 1193.59 162.378 1235.48 156.428C1271.58 151.306 1310.68 152.07 1355.02 158.775C1396.09 164.986 1436.18 175.368 1473.38 185.659C1490.24 190.331 1507.92 195.508 1530.73 202.445C1583.05 218.412 1636.57 235.636 1694.34 255.103C1747.52 273.021 1805.44 294.449 1871.43 320.609C1939.34 347.609 1995.64 370.293 2048.61 392.004C2054.33 394.351 2066.72 398.259 2082.42 403.205C2105.75 410.562 2137.72 420.639 2163.5 430.72C2194.16 442.71 2209.79 452.152 2211.28 459.586L2210.92 459.711C2207.61 443.173 2129.19 418.451 2082.33 403.677C2066.63 398.726 2054.23 394.818 2048.49 392.468C1995.53 370.757 1939.23 348.068 1871.32 321.072C1805.34 294.912 1747.42 273.489 1694.25 255.571C1636.48 236.103 1582.96 218.88 1530.64 202.913C1507.84 195.972 1490.15 190.798 1473.3 186.127C1400.52 165.986 1316.13 145.459 1235.52 156.904C1140.09 170.452 1069.23 239.248 1012.5 304.753C1010.35 307.229 1008.13 309.811 1005.9 312.428C997.486 322.29 988.94 332.517 980.674 342.405C925.917 407.911 869.296 475.647 796.907 507.156C763.242 521.81 727.921 528.116 691.521 526.014L691.524 526.018Z" fill="#9C9C9C" fill-opacity="0.13"/>
<path d="M678.458 507.135C614.779 503.458 558.233 477.574 516.235 451.225C512.695 449.003 508.971 446.631 505.169 444.169C459.805 414.796 418.202 379.341 374.153 341.801C338.602 311.506 301.84 280.173 262.847 252.281C169.593 184.939 74.1019 170.988 -56.4525 205.641L-56.5332 205.11C6.52166 188.375 58.4585 183.171 106.91 188.722C161.928 195.033 212.996 215.667 263.04 251.804C302.047 279.71 338.815 311.042 374.372 341.346C418.408 378.873 460.002 414.324 505.347 443.684C509.145 446.146 512.87 448.519 516.406 450.736C581.548 491.606 681.755 531.364 789.205 488.684C859.537 460.749 914.514 398.336 967.681 337.978C976.247 328.253 985.104 318.198 993.826 308.524C995.99 306.126 998.167 303.728 1000.3 301.403C1037.39 260.83 1069.25 232.097 1100.57 210.974C1139.32 184.84 1178 169.886 1218.81 165.257C1292.11 156.939 1367.67 174.167 1440.75 190.829C1446.44 192.129 1452.11 193.42 1457.76 194.694C1476.77 199.001 1494.85 203.265 1514.82 207.992C1580.53 223.667 1628.67 235.662 1675.8 248.115C1730.8 262.64 1790.56 282.15 1853.43 306.096C1920.44 331.758 1978.73 355.326 2031.64 378.153C2038.07 380.928 2051.23 385.321 2067.9 390.881C2116.45 407.083 2189.83 431.574 2194.55 448.785L2194.17 448.969C2192.16 441.625 2176.37 431.827 2147.25 419.858C2122.19 409.558 2092.03 399.495 2067.8 391.404C2051.12 385.84 2037.95 381.447 2031.51 378.663C1978.61 355.841 1920.32 332.273 1853.31 306.615C1790.46 282.67 1730.71 263.164 1675.72 248.643C1628.59 236.194 1580.45 224.195 1514.74 208.524C1494.78 203.797 1476.7 199.533 1457.69 195.226C1452.04 193.952 1446.37 192.656 1440.67 191.361C1367.62 174.703 1292.09 157.484 1218.84 165.798C1126.48 176.278 1056.67 240.445 1000.55 301.828C998.422 304.153 996.248 306.547 994.084 308.945C985.366 318.614 976.509 328.669 967.943 338.394C914.743 398.787 859.731 461.238 789.318 489.208C751.028 504.415 713.646 509.168 678.451 507.139L678.458 507.135Z" fill="#9C9C9C" fill-opacity="0.13"/>
<path d="M663.441 488.212C656.034 487.783 648.602 487.088 641.14 486.127C596.565 480.375 551.986 465.257 508.648 441.187C505.147 439.244 501.526 437.202 497.569 434.95C447.156 406.221 400.73 369.5 351.578 330.629C319.9 305.577 287.144 279.671 252.636 255.549C157.067 188.743 61.3206 174.278 -67.5186 207.181L-67.6025 206.594C-5.11295 190.635 46.924 186.067 96.1637 192.218C150.917 199.056 202.169 219.6 252.846 255.021C287.363 279.152 320.126 305.058 351.81 330.115C400.95 368.976 447.366 405.685 497.75 434.401C501.703 436.653 505.327 438.695 508.826 440.638C572.643 476.08 671.775 510.06 781.621 470.671C849.992 446.155 903.415 388.92 955.081 333.568C963.899 324.122 973.017 314.35 982 304.981C984.139 302.75 986.271 300.545 988.344 298.417C1024.96 260.68 1056.17 234.138 1086.56 214.89C1124.62 190.79 1162.42 177.44 1202.14 174.085C1263.81 168.877 1328.15 181.588 1390.37 193.883C1407.44 197.254 1425.1 200.746 1442.14 203.732C1459.02 206.709 1478.97 210.201 1498.9 213.547C1511.33 215.662 1523.77 217.756 1535.8 219.785C1577.11 226.743 1616.14 233.315 1657.27 241.131C1712.78 251.68 1772.72 268.659 1835.44 291.592C1901.59 315.967 1960.22 339.75 2014.67 364.305C2021.79 367.513 2036.24 372.605 2052.97 378.495C2100.28 395.161 2171.78 420.347 2177.82 437.991L2177.41 438.24C2171.46 420.857 2100.08 395.715 2052.85 379.075C2036.11 373.18 2021.66 368.088 2014.52 364.871C1960.08 340.325 1901.46 316.542 1835.31 292.171C1772.62 269.246 1712.69 252.276 1657.2 241.727C1616.07 233.911 1577.05 227.339 1535.74 220.381C1523.71 218.356 1511.27 216.258 1498.84 214.143C1478.91 210.797 1458.96 207.306 1442.08 204.328C1425.03 201.343 1407.38 197.855 1390.3 194.479C1328.1 182.189 1263.79 169.482 1202.16 174.686C1112.86 182.231 1044.1 241.71 988.616 298.898C986.542 301.025 984.41 303.23 982.275 305.461C973.295 314.83 964.18 324.598 955.362 334.044C903.661 389.434 850.202 446.708 781.737 471.259C743.732 484.888 704.034 490.572 663.441 488.225V488.212Z" fill="#9C9C9C" fill-opacity="0.13"/>
<path d="M646.103 469.406C641.894 469.161 637.685 468.848 633.466 468.458C588.151 464.258 543.608 451.706 501.068 431.153C497.637 429.497 494.01 427.722 489.976 425.735C433.688 397.989 381.583 359.625 326.419 319.013C299.451 299.156 271.566 278.624 242.424 258.823C144.778 192.455 48.7725 177.474 -78.5873 208.726L-78.6777 208.082C-48.599 200.7 -21.1657 196.062 5.19514 193.896C33.3843 191.579 59.6385 192.141 85.46 195.607C139.997 202.93 191.411 223.419 242.647 258.243C271.795 278.054 299.684 298.589 326.655 318.447C381.803 359.05 433.888 397.401 490.144 425.13C494.178 427.117 497.805 428.888 501.232 430.549C588.998 472.958 685.878 480.817 774.031 452.667C840.461 431.454 892.382 379.302 942.597 328.863C951.628 319.79 960.967 310.412 970.169 301.446C972.259 299.409 974.349 297.388 976.387 295.44C1013.03 260.092 1042.69 236.468 1072.55 218.846C1109.91 196.796 1146.85 185.046 1185.47 182.923C1238.42 180.014 1294.14 190.155 1348.03 199.957C1374.01 204.685 1400.87 209.571 1426.52 212.771C1445.74 215.195 1464.74 217.323 1482.99 219.099C1503.98 221.209 1524.7 223.08 1544.75 224.886C1575.23 227.635 1606.74 230.475 1638.72 234.143C1694.23 240.513 1754.35 254.957 1817.44 277.08C1881.83 299.885 1942.48 324.568 1997.7 350.449C2005.49 354.095 2020.41 359.629 2037.68 366.038C2086.66 384.205 2153.75 409.087 2161.1 427.19L2160.66 427.498C2153.41 409.64 2083.69 383.776 2037.55 366.664C2020.27 360.255 2005.34 354.717 1997.54 351.062C1942.32 325.186 1881.69 300.507 1817.31 277.706C1754.26 255.597 1694.16 241.157 1638.68 234.791C1606.7 231.123 1575.19 228.279 1544.72 225.533C1524.67 223.727 1503.94 221.857 1482.95 219.746C1464.7 217.97 1445.7 215.843 1426.47 213.419C1400.81 210.219 1373.95 205.328 1347.97 200.601C1294.1 190.799 1238.4 180.666 1185.49 183.57C1099.48 188.293 1034.3 240.38 976.678 295.964C974.643 297.911 972.553 299.932 970.463 301.969C961.264 310.931 951.929 320.313 942.897 329.382C892.643 379.86 840.681 432.054 774.15 453.298C732.724 466.523 689.709 471.932 646.103 469.414V469.406Z" fill="#9C9C9C" fill-opacity="0.13"/>
<path d="M624.993 450.719C579.568 448.094 535.028 438.193 493.489 421.115C490.246 419.781 486.719 418.322 482.384 416.516C418.835 390.044 359.592 349.222 296.87 306.002C276.026 291.639 254.471 276.788 232.216 262.087C133.73 197.023 34.4624 181.039 -89.6544 210.261L-89.748 209.562C-29.0221 195.264 24.7882 191.802 74.7611 198.983C129.046 206.782 180.628 227.215 232.452 261.452C254.71 276.157 276.265 291.009 297.112 305.376C359.811 348.578 419.035 389.387 482.542 415.843C486.877 417.649 490.404 419.107 493.647 420.442C578.108 455.159 674.992 460.204 766.452 434.645C830.954 416.619 881.425 369.465 930.232 323.865C939.437 315.263 948.96 306.366 958.346 297.894C960.333 296.101 962.326 294.325 964.316 292.549L964.435 292.442C1021.74 241.35 1086.16 193.788 1168.8 191.742C1214.91 190.601 1263.74 199.194 1310.96 207.503C1344.14 213.341 1378.44 219.377 1410.89 221.797C1429.79 223.234 1448.16 224.165 1467.07 224.637C1491.13 225.336 1514.64 225.507 1537.39 225.675C1564.18 225.868 1591.88 226.069 1620.18 227.146C1675.46 229.257 1735.77 241.17 1799.44 262.554C1863.05 284.179 1924.04 309.086 1980.74 336.58C1989.15 340.664 2004.41 346.609 2022.08 353.495C2070.03 372.181 2135.71 397.778 2144.37 416.375L2143.91 416.748C2135.36 398.383 2069.8 372.833 2021.93 354.177C2004.26 347.287 1988.99 341.337 1980.55 337.249C1923.88 309.764 1862.9 284.866 1799.31 263.245C1735.68 241.869 1675.4 229.956 1620.17 227.854C1591.87 226.773 1564.17 226.576 1537.38 226.383C1514.64 226.22 1491.12 226.048 1467.06 225.349C1448.14 224.872 1429.76 223.942 1410.86 222.505C1378.4 220.085 1344.08 214.045 1310.9 208.207C1263.69 199.901 1214.88 191.313 1168.81 192.45C1086.3 194.492 1021.97 241.998 964.735 293.029L964.616 293.137C962.626 294.913 960.633 296.689 958.65 298.482C949.266 306.95 939.747 315.843 930.542 324.444C881.69 370.087 831.177 417.284 766.565 435.34C719.997 448.351 672.023 453.439 624.996 450.723L624.993 450.719Z" fill="#9C9C9C" fill-opacity="0.13"/>
<path d="M598.862 432.35C558.718 430.034 520.807 422.9 485.912 411.081C482.184 409.82 478.479 408.559 474.791 407.302C441.676 396.02 408.002 380.353 368.821 357.999C333.868 338.056 298.831 315.247 261.739 291.099C248.851 282.708 235.527 274.034 222.006 265.356C121.282 200.695 21.7492 184.175 -100.723 211.802L-100.82 211.047C-40.5434 197.452 13.3897 194.612 64.0636 202.36C118.061 210.618 169.807 230.999 222.255 264.67C235.776 273.352 249.103 282.026 261.991 290.413C337.392 339.497 402.511 381.889 474.936 406.56C478.625 407.817 482.33 409.078 486.054 410.339C565.844 437.365 662.734 439.596 758.869 416.628C821.455 401.674 870.514 359.449 917.958 318.614C927.312 310.562 936.983 302.24 946.521 294.342C948.175 292.974 949.832 291.614 951.489 290.258L952.481 289.448C976.703 269.611 1009.06 244.576 1044.6 226.885C1080.61 208.958 1115.78 200.348 1152.13 200.571C1192.67 200.82 1235.78 208.439 1277.48 215.808C1316.69 222.737 1357.23 229.9 1395.26 230.836C1413.9 231.325 1432.18 231.114 1451.14 230.192C1476.43 229.081 1500.92 227.129 1524.6 225.242C1549.47 223.26 1575.19 221.214 1601.63 220.163C1656.57 217.975 1717.07 227.357 1781.44 248.046C1844.34 268.552 1905.68 293.677 1963.76 322.728C1972.78 327.241 1988.25 333.564 2006.17 340.887C2053.22 360.118 2117.65 386.453 2127.63 405.573L2127.15 406.011C2117.3 387.106 2052.97 360.813 2006 341.616C1988.07 334.289 1972.6 327.962 1963.56 323.444C1905.5 294.402 1844.18 269.285 1781.3 248.789C1716.98 228.116 1656.54 218.738 1601.64 220.926C1575.21 221.977 1549.5 224.023 1524.64 226.005C1500.95 227.893 1476.46 229.84 1451.16 230.956C1432.19 231.878 1413.9 232.088 1395.25 231.599C1357.18 230.664 1316.62 223.5 1277.4 216.568C1235.72 209.202 1192.62 201.583 1152.12 201.339C1072.78 200.854 1009.42 243.718 952.778 290.104L951.786 290.915C950.129 292.27 948.472 293.626 946.822 294.994C937.29 302.888 927.619 311.21 918.268 319.258C870.775 360.135 821.668 402.403 758.965 417.383C711.577 428.704 664.162 433.989 618.03 433.092C611.585 432.968 605.19 432.719 598.856 432.355L598.862 432.35Z" fill="#9C9C9C" fill-opacity="0.13"/>
<path d="M566.393 414.539C534.702 412.707 505.218 408.194 478.34 401.039L477.08 400.704C473.773 399.825 470.481 398.95 467.206 398.079C383.818 375.947 307.684 328.446 219.528 273.442L211.795 268.62C108.726 204.342 8.92847 187.294 -111.793 213.337L-111.894 212.526C8.95756 186.453 108.868 203.527 212.057 267.878L219.79 272.7C307.907 327.678 384.008 375.163 467.325 397.272C470.601 398.143 473.892 399.018 477.2 399.898L478.46 400.232C552.242 419.871 646.583 419.305 751.29 398.606C811.968 386.608 859.651 349.256 905.764 313.132C915.241 305.71 925.038 298.031 934.702 290.786C936.117 289.722 937.538 288.671 938.956 287.616L940.532 286.449C965.992 267.535 996.607 246.15 1030.63 230.921C1065.95 215.109 1100.24 208.07 1135.46 209.391C1171.31 210.742 1209.55 217.717 1246.53 224.461C1290.93 232.564 1336.85 240.942 1379.64 239.861C1398.16 239.428 1416.34 238.077 1435.22 235.734C1460.95 232.676 1485.65 228.468 1509.54 224.397C1533.23 220.36 1557.73 216.186 1583.07 213.17C1637.63 206.671 1698.31 213.522 1763.44 233.53C1825.7 252.963 1887.39 278.311 1946.8 308.872C1956.37 313.797 1971.95 320.463 1989.98 328.176C2036.24 347.974 2099.6 375.085 2110.9 394.771L2110.41 395.269C2099.23 375.789 2035.98 348.724 1989.79 328.961C1971.75 321.239 1956.17 314.573 1946.57 309.64C1887.19 279.092 1825.53 253.756 1763.3 234.332C1698.24 214.345 1637.62 207.503 1583.13 213.994C1557.8 217.014 1533.31 221.183 1509.62 225.22C1485.73 229.291 1461.02 233.5 1435.28 236.562C1416.38 238.905 1398.19 240.26 1379.65 240.694C1336.82 241.775 1290.88 233.392 1246.44 225.289C1209.48 218.545 1171.26 211.566 1135.45 210.223C1055.5 207.22 993.077 248.368 940.836 287.174L939.26 288.345C937.842 289.396 936.424 290.451 935.009 291.511C925.351 298.752 915.554 306.427 906.08 313.848C859.915 350.011 812.181 387.41 751.384 399.43C701.689 409.258 654.216 414.625 610.287 415.388C595.238 415.65 580.595 415.367 566.393 414.547V414.539Z" fill="#9C9C9C" fill-opacity="0.13"/>
<path d="M527.732 397.899C507.337 396.719 488.434 394.428 470.766 391.005C467.022 390.28 463.311 389.568 459.619 388.864C419.268 381.168 379.04 367.321 333.018 345.288C292.464 325.873 251.148 301.905 201.585 271.889C96.0608 207.979 -4.00462 190.395 -122.863 214.877L-122.963 214.011C-80.2577 205.217 -39.9589 201.845 -0.978012 204.097C68.6566 208.121 134.128 230.072 201.86 271.096C291.162 325.182 372.202 371.306 459.712 387.998C463.404 388.701 467.119 389.418 470.863 390.143C553.967 406.238 655.424 394.351 743.713 380.598C802.484 371.443 848.824 338.909 893.635 307.448C903.212 300.721 913.119 293.767 922.887 287.243C924.114 286.419 925.348 285.608 926.579 284.793L928.588 283.463C953.815 266.733 984.007 247.892 1016.66 235.005C1051.3 221.338 1084.71 215.843 1118.8 218.228C1150.57 220.446 1184.53 226.966 1217.36 233.272C1266.38 242.688 1317.08 252.422 1364.01 248.904C1382.03 247.592 1400.12 245.099 1419.3 241.294C1444.82 236.228 1469.13 229.802 1492.63 223.59C1515.74 217.481 1539.63 211.167 1564.52 206.191C1618.64 195.376 1679.52 199.691 1745.44 219.017C1806.25 237.163 1870.01 263.443 1929.83 295.02C1939.91 300.339 1955.46 307.298 1973.48 315.358C2021.61 336.889 2081.52 363.687 2094.16 383.974L2093.65 384.532C2081.13 364.438 2018.79 336.55 1973.26 316.186C1955.24 308.125 1939.68 301.163 1929.58 295.835C1869.79 264.275 1806.06 238.008 1745.29 219.875C1679.44 200.571 1618.66 196.259 1564.62 207.057C1539.74 212.029 1515.86 218.343 1492.76 224.448C1469.24 230.664 1444.92 237.09 1419.39 242.161C1400.19 245.97 1382.08 248.463 1364.04 249.779C1317.04 253.301 1266.31 243.559 1217.26 234.139C1184.44 227.837 1150.5 221.321 1118.76 219.103C1117.88 219.043 1117.01 218.987 1116.14 218.936C1040.83 214.586 980.03 250.316 928.875 284.244L926.863 285.574C925.632 286.389 924.401 287.2 923.174 288.023C913.413 294.548 903.509 301.498 893.935 308.22C849.069 339.72 802.675 372.293 743.781 381.464C685.758 390.503 642.184 395.496 602.502 397.663C575.453 399.138 550.646 399.224 527.725 397.899H527.732Z" fill="#9C9C9C" fill-opacity="0.13"/>
<path d="M487.673 383.12C479.352 382.64 471.186 381.932 463.198 380.967C459.445 380.512 455.727 380.074 452.038 379.641C411.113 374.875 369.341 363.327 324.336 344.34C286.899 328.545 245.896 307.207 191.378 275.158C121.007 233.783 53.9117 211.66 -16.5757 207.589C-54.3743 205.406 -93.1356 208.408 -133.932 216.413L-134.035 215.491C-75.1019 203.926 -20.7942 202.93 31.9889 212.45C84.8463 221.982 137.077 242.212 191.659 274.305C288.656 331.334 366.059 368.689 452.096 378.715C455.788 379.144 459.506 379.586 463.259 380.036C529.292 388.019 607.597 378.316 683.323 368.93C700.659 366.78 718.586 364.558 736.132 362.576C792.995 356.15 838.01 328.395 881.545 301.554C891.216 295.591 901.213 289.426 911.071 283.682C912.163 283.043 913.258 282.412 914.353 281.782C915.115 281.34 915.881 280.902 916.646 280.456C942.936 265.206 971.558 249.642 1002.69 239.102C1036.65 227.601 1069.18 223.659 1102.14 227.048C1130.28 229.943 1159.02 235.829 1189.46 242.062C1242.68 252.963 1297.71 264.232 1348.38 257.935C1366.43 255.73 1384.41 252.1 1403.37 246.841C1428.8 239.789 1452.81 231.063 1476.04 222.629C1498.46 214.487 1521.64 206.066 1545.97 199.203C1599.64 184.068 1660.69 185.848 1727.45 204.5C1787.74 221.673 1851.86 248.179 1912.87 281.16C1923.38 286.844 1938.81 294.046 1956.67 302.382C2004.23 324.586 2063.41 352.225 2077.44 373.164L2076.92 373.786C2063.01 353.027 2003.92 325.435 1956.44 303.265C1938.57 294.921 1923.14 287.719 1912.61 282.026C1851.64 249.067 1787.56 222.578 1727.31 205.418C1660.65 186.796 1599.69 185.012 1546.12 200.12C1521.82 206.976 1498.64 215.392 1476.23 223.534C1453 231.972 1428.97 240.702 1403.52 247.759C1384.54 253.023 1366.52 256.656 1348.45 258.865C1297.7 265.176 1242.62 253.898 1189.36 242.989C1158.94 236.76 1130.2 230.874 1102.09 227.983C1029.03 220.472 970.563 250.209 916.934 281.314C916.168 281.756 915.403 282.198 914.641 282.64C913.549 283.27 912.454 283.901 911.362 284.536C901.51 290.28 891.513 296.444 881.849 302.403C838.258 329.279 793.185 357.068 736.2 363.507C718.657 365.489 700.733 367.711 683.397 369.86C616.796 378.114 548.198 386.617 487.679 383.12H487.673Z" fill="#9C9C9C" fill-opacity="0.13"/>
<path d="M438.894 370.143C398.766 367.827 358.39 359.058 315.649 343.4C276.384 329.017 233.65 308.37 181.167 278.427C70.3392 215.195 -30.2527 196.542 -145.002 217.953L-145.105 216.975C-30.2139 195.539 70.5039 214.212 181.461 277.517C287.315 337.909 362.425 364.738 438.691 369.139C440.622 369.251 442.544 369.35 444.479 369.431C448.168 369.59 451.895 369.753 455.655 369.937C504.643 372.292 559.096 364.957 616.744 357.188C653.399 352.25 691.304 347.145 728.554 344.559C783.498 340.745 827.201 317.734 869.467 295.483C879.222 290.348 889.313 285.033 899.258 280.125C900.23 279.645 901.206 279.169 902.181 278.693C903.021 278.281 903.864 277.873 904.704 277.457C929.069 265.45 957.668 251.916 988.726 243.237C1022.02 233.933 1053.66 231.526 1085.47 235.876C1110.28 239.269 1135.61 244.85 1162.44 250.762C1219.56 263.348 1278.64 276.363 1332.74 266.968C1350.81 263.871 1368.71 259.105 1387.43 252.396C1412.65 243.366 1436.26 232.35 1459.09 221.694C1480.94 211.497 1503.53 200.952 1527.41 192.218C1580.6 172.764 1641.85 172.009 1709.44 189.979C1769.26 206.212 1833.74 232.95 1895.9 267.299C1906.76 273.305 1921.93 280.683 1939.48 289.228C1986.6 312.162 2045.25 340.706 2060.7 362.357L2060.16 363.035C2044.83 341.551 1986.28 313.054 1939.23 290.155C1921.66 281.605 1906.49 274.223 1895.61 268.208C1833.5 233.881 1769.07 207.164 1709.3 190.944C1641.82 173.004 1580.69 173.75 1527.61 193.166C1503.75 201.892 1481.17 212.428 1459.33 222.62C1436.49 233.28 1412.87 244.301 1387.62 253.344C1368.86 260.066 1350.94 264.841 1332.84 267.942C1278.62 277.354 1219.49 264.326 1162.31 251.731C1135.5 245.824 1110.18 240.243 1085.39 236.854C1015.94 227.361 958.175 252.16 904.963 278.379C904.123 278.791 903.28 279.203 902.437 279.615C901.461 280.091 900.489 280.567 899.517 281.048C889.578 285.955 879.493 291.262 869.742 296.397C827.421 318.678 783.659 341.719 728.592 345.541C691.362 348.124 653.467 353.228 616.818 358.166C559.144 365.935 504.669 373.275 455.629 370.92C451.866 370.74 448.142 370.576 444.453 370.418C442.602 370.336 440.745 370.246 438.891 370.139L438.894 370.143Z" fill="#9C9C9C" fill-opacity="0.13"/>
<path d="M404.412 360.757C372.385 358.908 340.243 352.864 306.966 342.478C266.018 329.699 222.799 310.386 170.959 281.696C57.2662 218.772 -43.5937 199.588 -156.072 219.493L-156.176 218.459C-43.5517 198.529 57.4342 217.738 171.263 280.735C276.28 338.857 355.712 362.61 436.862 360.161C440.37 360.054 444.155 359.942 448.054 359.848C486.537 358.891 528.616 351.813 573.162 344.314C621.485 336.185 671.454 327.777 720.982 326.55C773.991 325.237 816.383 306.937 857.376 289.241C867.228 284.99 877.412 280.593 887.455 276.574C888.327 276.226 889.199 275.879 890.074 275.535C890.972 275.179 891.873 274.823 892.771 274.463C918.238 264.249 945.545 253.743 974.764 247.407C1007.4 240.329 1038.16 239.445 1068.81 244.709C1090.49 248.432 1112.6 253.7 1136 259.281C1196.84 273.785 1259.75 288.782 1317.11 276.012C1335.21 272.022 1353 266.115 1371.5 257.96C1396.43 246.965 1419.57 233.667 1441.94 220.806C1463.28 208.537 1485.34 195.852 1508.85 185.252C1561.82 161.357 1623.26 158.071 1691.44 175.479C1750.31 190.507 1815.15 217.473 1878.93 253.456C1890.03 259.719 1905.5 267.556 1921.87 275.853C1968.72 299.588 2027.02 329.128 2043.96 351.568L2043.41 352.306C2026.58 330.025 1968.37 300.528 1921.59 276.827C1905.21 268.526 1889.74 260.688 1878.62 254.417C1814.89 218.459 1750.11 191.519 1691.3 176.505C1623.24 159.131 1561.95 162.408 1509.1 186.243C1485.62 196.83 1463.57 209.506 1442.25 221.767C1419.86 234.636 1396.71 247.943 1371.74 258.955C1353.21 267.132 1335.38 273.047 1317.24 277.045C1296.65 281.631 1275.34 282.644 1253.7 281.395C1214.9 279.156 1174.96 269.633 1135.86 260.315C1112.46 254.738 1090.37 249.47 1068.7 245.751C1002.98 234.469 948.087 253.37 892.994 275.471C892.093 275.831 891.192 276.188 890.294 276.544C889.422 276.887 888.55 277.234 887.677 277.582C877.645 281.597 867.464 285.99 857.615 290.241C816.564 307.962 774.117 326.284 720.991 327.601C671.506 328.828 621.559 337.232 573.256 345.357C528.684 352.855 486.586 359.938 448.06 360.894C444.165 360.989 440.379 361.105 436.871 361.208C426.038 361.534 415.226 361.388 404.406 360.761L404.412 360.757Z" fill="#9C9C9C" fill-opacity="0.13"/>
<path d="M371.747 353.302C347.457 351.899 323.118 348 298.288 341.569C256.6 330.772 211.611 312.257 160.754 284.969C44.0305 222.333 -57.0976 202.617 -167.141 221.038L-167.244 219.948C-109.638 210.305 -54.9528 211.141 -0.0668945 222.505C51.014 233.079 103.72 253.181 161.064 283.952C264.643 339.536 344.847 359.556 429.24 350.887L429.572 350.852C433.151 350.483 436.776 350.114 440.445 349.754C471.774 346.683 505.573 339.441 541.36 331.771C597.425 319.755 655.399 307.332 713.411 308.542C764.45 309.606 805.508 295.99 845.219 282.82C855.19 279.513 865.501 276.093 875.659 273.026C876.451 272.786 877.242 272.55 878.034 272.314C878.97 272.035 879.91 271.757 880.847 271.469C903.425 264.588 931.527 256.021 960.808 251.611C992.799 246.794 1022.68 247.425 1052.15 253.542C1070.81 257.416 1089.8 262.332 1109.9 267.54C1174.34 284.227 1240.97 301.481 1301.48 285.055C1319.61 280.173 1337.31 273.129 1355.57 263.524C1380.18 250.582 1402.81 235.01 1424.68 219.952C1445.55 205.59 1467.12 190.743 1490.3 178.273C1517.15 163.829 1546.73 155.176 1578.21 152.559C1607.85 150.097 1639.89 152.924 1673.45 160.959C1732.47 175.411 1797.66 202.6 1861.97 239.596C1873.16 246.035 1888.02 253.859 1903.74 262.143C1950.51 286.779 2008.71 317.435 2027.24 340.763L2026.67 341.56C2008.25 318.378 1950.13 287.766 1903.44 263.164C1887.7 254.876 1872.84 247.051 1861.64 240.604C1797.39 203.643 1732.26 176.475 1673.3 162.04C1604.13 145.481 1542.67 151.285 1490.6 179.289C1467.46 191.738 1445.9 206.577 1425.05 220.926C1403.16 235.996 1380.52 251.577 1355.87 264.541C1337.56 274.172 1319.82 281.233 1301.64 286.127C1274.48 293.497 1243.46 294.677 1206.78 289.727C1174.36 285.351 1141.5 276.844 1109.74 268.616C1089.64 263.413 1070.66 258.501 1052.02 254.627C985.263 240.767 929.886 257.647 881.028 272.537C880.088 272.825 879.148 273.104 878.208 273.382C877.417 273.618 876.625 273.854 875.837 274.09C865.688 277.153 855.381 280.572 845.416 283.875C805.657 297.062 764.541 310.695 713.395 309.631C655.457 308.422 597.518 320.841 541.489 332.848C505.687 340.523 471.867 347.768 440.503 350.844C436.834 351.204 433.213 351.577 429.634 351.942L429.301 351.976C410.011 353.958 390.892 354.404 371.744 353.298L371.747 353.302Z" fill="#9C9C9C" fill-opacity="0.13"/>
<path d="M341.335 347.558C324.167 346.567 306.983 344.276 289.612 340.677C246.855 331.823 201.368 314.672 150.546 288.238C28.9939 225.023 -69.3272 205.384 -178.214 222.574L-178.317 221.424C-121.151 212.398 -66.3426 213.844 -10.7525 225.838C39.5176 236.687 92.3815 256.746 150.859 287.157C253.528 340.552 334.5 356.837 421.613 341.603L423.926 341.2C426.862 340.685 429.83 340.166 432.834 339.652C459.021 335.164 486.965 327.67 516.549 319.73C546.654 311.652 577.782 303.299 609.579 297.465C645.637 290.846 677.13 288.581 705.84 290.516C754.834 293.832 794.516 284.858 832.886 276.179C843.035 273.884 853.53 271.512 863.863 269.461C864.564 269.32 865.265 269.187 865.966 269.05C866.951 268.856 867.936 268.663 868.924 268.466L872.145 267.81C896.471 262.851 921.627 257.72 948.65 255.691C979.32 253.387 1007.73 255.571 1035.49 262.366C1051.16 266.201 1067.06 270.688 1083.88 275.433C1151.89 294.617 1222.21 314.453 1285.84 294.085C1304.01 288.307 1321.6 280.13 1339.63 269.079C1363.9 254.207 1385.98 236.378 1407.34 219.137C1427.75 202.664 1448.85 185.63 1471.73 171.293C1498.4 154.584 1527.98 144.155 1559.63 140.303C1589.29 136.691 1621.53 138.755 1655.45 146.442C1685.76 153.469 1717.79 164.09 1750.66 178.019C1781.58 191.125 1813.33 207.182 1845 225.739C1856.07 232.226 1870.08 239.883 1884.91 247.995C1931.84 273.665 1990.25 305.607 2010.5 329.961L2009.92 330.819C1989.78 306.598 1931.44 274.699 1884.58 249.063C1869.74 240.951 1855.73 233.289 1844.65 226.799C1779.38 188.564 1713.91 161.173 1655.3 147.587C1585.28 131.728 1523.64 140.059 1472.1 172.348C1449.27 186.655 1428.18 203.677 1407.79 220.133C1386.42 237.391 1364.31 255.236 1340 270.135C1321.92 281.22 1304.27 289.422 1286.05 295.217C1257.5 304.355 1224.74 306.114 1185.9 300.601C1151.63 295.732 1117.1 285.994 1083.71 276.574C1066.88 271.829 1051 267.346 1035.33 263.511C973.363 248.347 919.659 259.299 872.277 268.959L869.057 269.616C868.068 269.817 867.08 270.01 866.095 270.203C865.394 270.341 864.696 270.478 863.995 270.615C853.672 272.666 843.18 275.038 833.035 277.333C795.417 285.84 756.542 294.625 708.853 291.876C707.836 291.816 706.821 291.755 705.798 291.683C641.68 287.367 575.298 305.157 516.723 320.875C487.123 328.82 459.163 336.318 432.947 340.81C429.947 341.324 426.978 341.844 424.042 342.358L421.729 342.766C394.629 347.506 368.009 349.106 341.332 347.566L341.335 347.558Z" fill="#9C9C9C" fill-opacity="0.13"/>
<path d="M313.295 343.259C302.532 342.637 291.766 341.479 280.945 339.788C237.268 332.963 191.274 317.168 140.339 291.507C52.215 247.111 -22.7912 223.993 -96.5183 219.733C-127.375 217.949 -157.997 219.472 -189.284 224.113L-189.384 222.908C-132.657 214.491 -77.7191 216.542 -21.4281 229.175C28.5642 240.397 80.0682 259.843 140.665 290.374C242.791 341.826 324.535 354.374 413.993 332.337C415.408 331.989 416.829 331.638 418.26 331.282C420.56 330.711 422.882 330.136 425.224 329.566C447.583 324.096 471.231 316.345 496.267 308.138C558.64 287.697 629.338 264.536 698.271 272.507C745.082 277.925 783.262 273.545 820.188 269.311C830.638 268.114 841.443 266.874 852.073 265.918C852.706 265.862 853.342 265.806 853.979 265.75C854.986 265.665 855.994 265.574 857.005 265.476C860.293 265.158 863.604 264.828 866.938 264.493C911.377 260.062 961.748 255.043 1018.83 271.203C1031.48 274.785 1044.24 278.718 1057.76 282.88C1126.02 303.913 1203.4 327.751 1270.2 303.132C1288.4 296.461 1305.9 287.144 1323.69 274.652C1347.6 257.861 1369.13 237.789 1389.96 218.378C1409.92 199.768 1430.56 180.529 1453.16 164.326C1479.64 145.343 1509.2 133.135 1541.03 128.038C1570.71 123.285 1603.15 124.594 1637.44 131.925C1667.77 138.561 1699.98 149.106 1733.18 163.258C1764.11 176.436 1796.02 192.798 1828.03 211.879C1838.67 218.219 1851.51 225.499 1865.09 233.203C1912.54 260.101 1971.58 293.574 1993.76 319.154L1993.16 320.068C1971.09 294.612 1912.12 261.182 1864.74 234.319C1851.14 226.61 1838.3 219.334 1827.65 212.985C1761.41 173.498 1695.58 145.88 1637.29 133.122C1566.41 117.966 1504.61 128.823 1453.59 165.39C1431.04 181.558 1410.42 200.777 1390.48 219.365C1369.63 238.797 1348.07 258.891 1324.11 275.716C1306.26 288.251 1288.71 297.598 1270.44 304.295C1240.48 315.337 1205.95 317.679 1164.88 311.458C1128.72 305.985 1092.54 294.835 1057.54 284.055C1044.03 279.894 1031.27 275.96 1018.63 272.382C961.677 256.257 911.377 261.272 866.996 265.699C863.659 266.029 860.348 266.359 857.06 266.681C856.049 266.78 855.038 266.866 854.027 266.956C853.394 267.012 852.757 267.063 852.124 267.123C841.5 268.08 830.699 269.319 820.256 270.516C789.166 274.081 757.179 277.749 719.9 275.6C712.855 275.192 705.629 274.579 698.178 273.716C629.392 265.75 558.776 288.898 496.471 309.313C471.421 317.524 447.757 325.276 425.373 330.754C423.031 331.329 420.708 331.904 418.409 332.47C416.978 332.826 415.553 333.178 414.138 333.525C379.916 341.955 346.649 345.181 313.275 343.255L313.295 343.259Z" fill="#9C9C9C" fill-opacity="0.13"/>
<path d="M287.502 340.17C282.431 339.879 277.366 339.462 272.285 338.918C227.793 334.173 181.293 319.733 130.131 294.78C34.785 248.269 -71.2464 207.709 -200.357 225.658L-200.457 224.396C-144.169 216.572 -89.1024 219.227 -32.1137 232.513C16.6996 243.894 68.3586 263.301 130.457 293.591C186.509 320.93 237.771 335.859 287.789 338.75C327.5 341.045 366.416 335.756 406.363 323.071C408.372 322.432 410.401 321.784 412.445 321.132C414.154 320.587 415.876 320.034 417.61 319.48C437.056 313.29 457.476 305.307 479.095 296.856C544.256 271.383 618.113 242.508 690.703 254.502C734.974 261.816 771.397 261.928 806.625 262.031C818.169 262.065 829.074 262.1 840.292 262.37C840.857 262.383 841.426 262.4 841.994 262.413C843.025 262.438 844.058 262.469 845.095 262.486C850.854 262.576 856.559 262.614 862.596 262.662C903.747 262.966 950.387 263.309 1002.17 280.035C1011.67 283.103 1021.19 286.316 1031.28 289.718C1103.08 313.938 1184.46 341.393 1254.57 312.175C1272.96 304.543 1290.36 294.093 1307.75 280.22C1331.4 261.525 1352.43 239.136 1372.77 217.481C1392.22 196.778 1412.33 175.372 1434.6 157.359C1460.88 136.103 1490.43 122.11 1522.43 115.769C1552.14 109.884 1584.78 110.437 1619.44 117.417C1649.8 123.671 1682.19 134.134 1715.72 148.509C1746.64 161.769 1778.72 178.431 1811.07 198.031C1820.81 203.93 1832 210.497 1843.85 217.451C1892.3 245.876 1952.61 281.249 1977.03 308.361L1976.42 309.335C1952.1 282.339 1891.86 247.004 1843.46 218.614C1831.61 211.66 1820.41 205.092 1810.67 199.189C1742.51 157.887 1678.12 130.797 1619.3 118.678C1547.56 104.234 1485.58 117.614 1435.1 158.453C1412.88 176.423 1392.79 197.804 1373.37 218.481C1353 240.161 1331.94 262.58 1308.24 281.318C1290.78 295.243 1273.31 305.732 1254.85 313.393C1184.49 342.718 1102.96 315.216 1031.04 290.957C1020.96 287.555 1011.44 284.347 1001.94 281.275C950.267 264.583 903.683 264.24 862.586 263.936C856.546 263.893 850.838 263.85 845.079 263.76C844.042 263.743 843.005 263.717 841.972 263.687C841.403 263.674 840.838 263.657 840.273 263.644C829.061 263.369 818.159 263.339 806.618 263.305C771.365 263.198 734.91 263.09 690.583 255.763C618.187 243.803 544.434 272.636 479.363 298.074C457.731 306.529 437.301 314.517 417.83 320.716C416.095 321.269 414.374 321.818 412.665 322.363C410.62 323.019 408.592 323.667 406.583 324.306C365.919 337.219 326.802 342.444 287.499 340.174L287.502 340.17Z" fill="#9C9C9C" fill-opacity="0.13"/>
<path d="M263.715 338.056C263.689 338.056 263.664 338.056 263.638 338.051C218.4 335.426 171.392 322.342 119.927 298.049C6.38254 244.452 -93.4212 211.892 -211.427 227.194L-211.523 225.877C-155.675 218.635 -100.479 221.891 -42.7893 235.838C5.23911 247.446 55.5253 266.248 120.26 296.805C220.832 344.276 306.718 349.518 398.737 313.801C401.35 312.789 403.995 311.746 406.673 310.695L409.997 309.391C427.194 302.647 445.147 294.445 464.153 285.758C531.426 255.013 607.673 220.167 683.141 236.49C723.727 245.271 757.54 249.574 790.238 253.735C803.375 255.408 815.779 256.987 828.518 258.831L829.972 259.041C831.044 259.2 832.116 259.354 833.192 259.5C841.81 260.659 850.451 261.667 859.598 262.739C897.029 267.119 939.45 272.078 985.517 288.873C991.655 291.108 997.753 293.369 1004.21 295.762C1079.71 323.741 1165.3 355.455 1238.93 321.222C1257.33 312.703 1274.63 301.116 1291.82 285.797C1315.08 265.214 1335.54 240.612 1355.32 216.816C1374.34 193.943 1394 170.298 1416.04 150.397C1442.11 126.859 1471.64 111.077 1503.82 103.492C1533.57 96.4782 1566.42 96.2811 1601.44 102.905C1631.84 108.786 1664.41 119.167 1698.25 133.761C1729.17 147.098 1761.42 164.06 1794.1 184.175C1802.15 189.126 1810.94 194.449 1820.25 200.086C1870.53 230.527 1933.1 268.406 1960.3 297.56L1959.67 298.589C1932.58 269.543 1870.07 231.698 1819.83 201.292C1810.52 195.655 1801.73 190.331 1793.68 185.376C1724.59 142.847 1659.86 115.542 1601.3 104.213C1528.69 90.4854 1466.54 106.392 1416.6 151.491C1394.62 171.336 1374.98 194.956 1355.99 217.795C1336.18 241.62 1315.69 266.257 1292.37 286.891C1275.11 302.27 1257.74 313.908 1239.25 322.466C1206.28 337.798 1167.89 341.252 1121.9 333.028C1081.68 325.838 1042.16 311.193 1003.94 297.028C997.482 294.638 991.386 292.378 985.249 290.143C939.269 273.382 896.893 268.428 859.508 264.052C850.357 262.979 841.713 261.971 833.089 260.813C832.01 260.667 830.934 260.508 829.859 260.354L828.408 260.144C815.675 258.299 803.272 256.72 790.141 255.047C757.427 250.882 723.595 246.579 682.976 237.794C607.757 221.523 531.633 256.313 464.473 287.007C445.454 295.698 427.491 303.909 410.275 310.656L406.951 311.961C404.273 313.012 401.624 314.054 399.011 315.067C352.53 333.105 308.271 340.625 263.709 338.051L263.715 338.056Z" fill="#9C9C9C" fill-opacity="0.13"/>
<path d="M241.561 336.73C199.793 334.319 156.516 322.677 109.721 301.318C-10.7551 246.322 -108.356 214.993 -222.498 228.734L-222.592 227.361C-167.179 220.69 -111.857 224.551 -53.4635 239.158C5.44063 253.893 62.2549 278.191 110.06 300.013C210.849 346.022 297.529 347.416 391.112 304.535C394.413 303.021 397.695 301.493 401.17 299.872L402.382 299.305C417.818 292.111 433.862 283.686 450.846 274.763C519.747 238.574 597.842 197.555 675.581 218.476C703.127 225.889 727.291 232.063 750.658 238.034C773.472 243.864 795.02 249.368 816.752 255.288L818.035 255.635C819.12 255.931 820.205 256.231 821.297 256.51C833.303 259.629 845.529 262.417 858.469 265.369C893.189 273.288 929.089 281.473 968.868 297.693C971.306 298.688 973.761 299.691 976.229 300.7C1051.76 331.573 1145.77 369.998 1223.3 330.252C1241.71 320.84 1258.91 308.117 1275.89 291.356C1298.77 268.895 1318.65 242.092 1337.87 216.173C1356.45 191.116 1375.67 165.21 1397.48 143.422C1423.34 117.601 1452.85 100.03 1485.2 91.1974C1515 83.0639 1548.05 82.1157 1583.45 88.3789C1641.88 98.949 1707.05 126.516 1777.14 170.31C1782 173.348 1787.09 176.509 1792.33 179.774C1843.09 211.347 1912.59 254.588 1943.57 286.749L1942.93 287.839C1912.04 255.777 1842.6 212.574 1791.89 181.026C1786.65 177.762 1781.56 174.6 1776.7 171.563C1706.7 127.824 1641.64 100.3 1583.31 89.7473C1509.83 76.7448 1447.52 95.1784 1398.11 144.524C1376.35 166.252 1357.16 192.124 1338.61 217.142C1319.36 243.1 1299.45 269.942 1276.5 292.463C1259.45 309.301 1242.17 322.084 1223.67 331.539C1188.99 349.325 1148.39 353.267 1099.55 343.594C1057.04 335.173 1013.94 317.559 975.925 302.021C973.458 301.013 971.003 300.009 968.564 299.014C928.85 282.82 892.983 274.639 858.295 266.733C845.345 263.781 833.116 260.989 821.097 257.866C820.002 257.583 818.913 257.282 817.825 256.986L816.546 256.639C794.817 250.723 773.272 245.215 750.464 239.389C727.094 233.418 702.93 227.241 675.377 219.828C597.939 198.988 519.999 239.926 451.23 276.046C434.237 284.973 418.186 293.403 402.727 300.605L401.516 301.172C398.037 302.793 394.752 304.324 391.451 305.839C344.398 327.399 299.764 337.656 255.002 337.189C250.538 337.142 246.057 336.992 241.561 336.73Z" fill="#9C9C9C" fill-opacity="0.13"/>
<path d="M220.772 336.052C182.16 333.821 142.245 323.444 99.5144 304.591C-6.70113 257.729 -112.103 216.778 -233.571 230.274L-233.661 228.845C-204.597 225.615 -176.207 225.306 -146.868 227.893C-119.965 230.269 -92.9061 235.04 -64.1421 242.478C-8.28389 256.922 47.6906 280.212 99.8568 303.231C201.027 347.871 288.501 345.413 383.482 295.273C387.233 293.291 391.115 291.202 394.768 289.229C408.803 281.649 423.336 273 438.72 263.841C474.164 242.748 510.816 220.935 549.51 207.031C593.775 191.129 632.54 188.984 668.019 200.476C721.703 217.863 764.04 235.1 804.985 251.77L805.977 252.173C807.117 252.637 808.257 253.104 809.401 253.554C825.677 259.955 842.577 265.682 860.465 271.743C889.595 281.614 919.715 291.82 952.213 306.547C1025.47 339.737 1125.79 385.192 1207.65 339.317C1226.08 329.017 1243.19 315.156 1259.94 296.95C1282.44 272.623 1301.74 243.636 1320.41 215.607C1338.55 188.349 1357.32 160.169 1378.92 136.481C1404.54 108.378 1434.04 89.0137 1466.57 78.9326C1496.42 69.6838 1529.68 67.985 1565.44 73.8835C1623.67 83.6901 1689.19 111.48 1760.18 156.476C1808.65 187.199 1889.77 238.622 1926.84 275.969L1926.18 277.114C1889.21 239.857 1808.15 188.473 1759.71 157.775C1688.83 112.844 1623.43 85.1014 1565.31 75.312C1490.96 63.0431 1428.48 83.9947 1379.61 137.592C1358.07 161.207 1339.34 189.349 1321.22 216.563C1302.53 244.64 1283.2 273.669 1260.63 298.07C1243.79 316.366 1226.6 330.291 1208.08 340.647C1172.14 360.787 1129.99 365.334 1079.22 354.554C1033.27 344.795 986.22 323.479 951.864 307.915C919.405 293.21 889.304 283.008 860.197 273.146C842.296 267.08 825.39 261.349 809.094 254.944C807.947 254.494 806.801 254.026 805.66 253.559L804.669 253.156C763.74 236.494 721.419 219.262 667.764 201.888C588.581 176.243 509.201 223.487 439.163 265.167C423.768 274.33 409.23 282.983 395.175 290.571C391.519 292.545 387.636 294.638 383.883 296.62C336.329 321.724 291.35 334.718 246.374 336.348C237.895 336.657 229.365 336.563 220.776 336.065L220.772 336.052Z" fill="#9C9C9C" fill-opacity="0.13"/>
<path d="M201.161 335.902C165.398 333.839 128.497 324.56 89.3094 307.86C-5.22603 267.574 -87.9167 235.464 -176.764 230.334C-198.919 229.055 -221.439 229.45 -244.641 231.814L-244.729 230.325C-215.703 227.37 -187.246 227.361 -157.726 230.308C-130.951 232.981 -103.831 238.043 -74.8186 245.79C-20.0554 260.41 34.2264 282.82 89.6518 306.44C191.348 349.78 279.617 343.478 375.849 286.007C379.822 283.635 383.788 281.207 387.148 279.143C400.065 271.207 413.399 262.323 427.514 252.916C461.731 230.119 500.511 204.277 539.847 188.65C584.907 170.744 624.357 168.723 660.456 182.468C705.387 199.576 742.159 219.961 777.722 239.677C782.797 242.491 788.042 245.4 793.217 248.244L793.931 248.638C795.119 249.291 796.308 249.947 797.503 250.586C819.536 262.366 842.993 272.82 867.826 283.892C889.558 293.579 912.026 303.6 935.558 315.38C1017.99 356.648 1112.59 396.638 1192.01 348.356C1210.46 337.163 1227.46 322.17 1244 302.519C1266.12 276.338 1284.84 245.181 1302.94 215.049C1320.65 185.582 1338.96 155.112 1360.35 129.51C1385.74 99.1252 1415.2 77.9719 1447.92 66.6339C1477.83 56.2697 1511.31 53.8202 1547.43 59.3584C1605.48 68.4228 1671.34 96.431 1743.2 142.611C1823.87 194.449 1880.01 235.683 1910.09 265.159L1909.42 266.36C1879.4 236.94 1823.31 195.754 1742.71 143.954C1670.97 97.8468 1605.23 69.8857 1547.3 60.8385C1472.08 49.3074 1409.43 72.7813 1361.1 130.612C1339.77 156.128 1321.5 186.552 1303.82 215.971C1285.69 246.15 1266.94 277.359 1244.75 303.626C1228.12 323.38 1211.02 338.455 1192.47 349.707C1173.4 361.298 1152.12 368.393 1129.22 370.783C1108.96 372.898 1086.66 371.409 1062.93 366.351C1018.99 356.991 975.55 336.988 935.157 316.765C911.645 304.994 889.183 294.982 867.464 285.295C842.615 274.215 819.145 263.752 797.08 251.959C795.882 251.32 794.69 250.663 793.498 250.007L792.784 249.612C787.609 246.768 782.36 243.86 777.286 241.046C741.752 221.347 705.009 200.974 660.143 183.892C579.616 153.233 499.074 206.894 428.015 254.241C413.89 263.653 400.546 272.542 387.616 280.486C384.257 282.55 380.284 284.982 376.307 287.359C328.302 316.027 282.977 331.763 237.752 335.469C225.659 336.46 213.475 336.606 201.158 335.894L201.161 335.902Z" fill="#9C9C9C" fill-opacity="0.13"/>
<path d="M182.543 336.185C149.354 334.268 115.17 325.963 79.1086 311.128L75.9948 309.846C-38.1732 262.881 -136.775 222.32 -255.714 233.349L-255.795 231.805C-201.358 226.756 -147.722 232.118 -86.9962 248.681C-32.8564 263.447 20.1851 285.265 76.3372 308.366L79.4511 309.648C181.784 351.74 270.844 341.591 368.222 276.741C371.488 274.566 375.08 272.125 379.531 269.058C391.534 260.792 403.899 251.663 416.987 241.998C451.549 216.478 490.724 187.551 530.6 170.173C576.328 150.243 616.333 148.372 652.901 164.459C694.64 182.824 729.015 207.366 762.259 231.102C768.545 235.589 775.044 240.23 781.456 244.726L781.701 244.898C783.003 245.812 784.305 246.721 785.613 247.617C816.406 268.711 850.341 287.045 886.27 306.457C896.871 312.184 907.837 318.108 918.913 324.208C996.855 367.128 1096.56 409.691 1176.37 357.394C1194.84 345.314 1211.75 329.188 1228.07 308.091C1249.81 280.066 1267.95 246.751 1285.5 214.53C1302.76 182.837 1320.6 150.062 1341.79 122.543C1366.94 89.8847 1396.38 66.9385 1429.28 54.3435C1459.26 42.8682 1492.96 39.6681 1529.44 44.8416C1587.33 53.1767 1653.54 81.408 1726.25 128.755C1796.34 174.403 1858.82 221.355 1893.37 254.357L1892.69 255.614C1858.19 222.659 1795.77 175.759 1725.73 130.145C1653.15 82.8795 1587.07 54.6953 1529.32 46.3816C1453.21 35.597 1390.4 61.5933 1342.61 123.654C1321.49 151.079 1303.67 183.798 1286.44 215.439C1268.87 247.712 1250.7 281.082 1228.88 309.202C1212.47 330.415 1195.46 346.635 1176.89 358.784C1157.74 371.328 1136.36 379.148 1113.35 382.022C1092.88 384.579 1070.43 383.3 1046.62 378.226C999.365 368.149 953.307 344.829 918.464 325.641C907.391 319.545 896.428 313.621 885.827 307.894C849.876 288.469 815.918 270.122 785.077 248.999C783.765 248.102 782.46 247.184 781.156 246.27L780.91 246.099C774.495 241.599 767.993 236.957 761.707 232.466C728.508 208.765 694.179 184.252 652.536 165.931C570.999 130.055 489.477 190.245 417.556 243.353C404.458 253.023 392.086 262.16 380.07 270.435C375.613 273.507 372.014 275.948 368.746 278.127C320.32 310.373 274.659 328.854 229.15 334.615C213.778 336.563 198.27 337.09 182.54 336.181L182.543 336.185Z" fill="#9C9C9C" fill-opacity="0.13"/>
<path d="M1062.95 394.643C1052.39 394.033 1041.48 392.536 1030.28 390.151C992.493 382.103 950.456 363.906 901.765 334.516C851.376 304.101 810.205 277.414 773.075 246.03C771.728 244.889 770.394 243.743 769.037 242.572C762.118 236.601 755.112 230.398 748.335 224.401C716.861 196.538 684.315 167.728 644.924 147.964C562.663 106.692 480.285 173.511 407.608 232.461C395.356 242.401 383.783 251.787 372.523 260.38C368.265 263.631 364.557 266.415 361.182 268.891C312.43 304.689 266.439 325.877 220.582 333.671C172.243 341.886 122.632 335.585 68.9089 314.406C62.5941 311.883 56.3148 309.369 50.0677 306.864C-54.4261 264.965 -153.122 225.392 -266.783 234.898L-266.86 233.298C-214.869 228.952 -163.529 234.194 -105.287 249.792C-53.4732 263.674 -3.01254 283.905 50.4134 305.328C56.6604 307.834 62.9365 310.347 69.2513 312.87C102.072 325.808 133.553 333.225 164.359 335.005C230.505 338.828 293.598 316.684 360.597 267.492C363.966 265.017 367.668 262.237 371.919 258.994C383.166 250.41 394.73 241.028 406.975 231.093C441.837 202.814 481.348 170.765 521.676 151.619C567.986 129.634 608.436 127.948 645.347 146.467C684.867 166.295 717.472 195.157 749.001 223.071C755.774 229.068 762.777 235.267 769.693 241.23C771.05 242.401 772.38 243.542 773.724 244.679C810.796 276.016 851.922 302.673 902.266 333.058C972.918 375.699 1076.58 425.555 1160.74 366.45C1179.22 353.482 1196.03 336.219 1212.13 313.676C1233.5 283.819 1251.07 248.355 1268.05 214.062C1284.86 180.13 1302.24 145.047 1323.23 115.593C1348.13 80.6614 1377.54 55.922 1410.63 42.0658C1440.69 29.4795 1474.61 25.5328 1511.44 30.3331C1569.19 37.9476 1635.75 66.4022 1709.29 114.907C1770.26 155.124 1835.95 205.624 1876.64 243.563L1875.94 244.876C1835.3 206.98 1769.67 156.527 1708.75 116.344C1635.34 67.9292 1568.92 39.5262 1511.32 31.9332C1434.35 21.8993 1371.35 50.4181 1324.11 116.7C1303.19 146.051 1285.84 181.074 1269.06 214.95C1252.05 249.303 1234.45 284.823 1213.01 314.787C1196.81 337.459 1179.9 354.824 1161.3 367.874C1142.08 381.374 1120.6 389.928 1097.46 393.291C1086.47 394.891 1074.94 395.342 1062.96 394.651L1062.95 394.643Z" fill="#9C9C9C" fill-opacity="0.13"/>
<path d="M1044.94 406.405C998.054 403.699 944.632 382.678 885.062 343.384C836.866 311.596 796.305 278.775 761.068 243.049C759.76 241.719 758.458 240.376 757.156 239.033C749.986 231.612 742.734 223.861 735.725 216.362C705.778 184.338 674.815 151.229 637.303 129.986C554.564 83.1369 467.752 159.908 397.998 221.591C386.466 231.788 375.575 241.419 364.967 250.311C360.8 253.803 357.085 256.858 353.61 259.642C304.48 299.052 258.154 322.994 211.979 332.844C190.848 337.348 169.484 338.986 147.678 337.725C118.975 336.069 89.4972 329.399 58.6982 317.662C46.5271 312.994 34.3432 308.233 22.563 303.634C-76.5011 264.936 -170.074 228.391 -277.863 236.425L-277.934 234.769C-169.932 226.717 -76.2588 263.305 22.915 302.043C34.6953 306.646 46.8759 311.403 59.0438 316.07C163.043 355.695 253.693 337.858 352.964 258.222C356.433 255.438 360.141 252.392 364.298 248.904C374.893 240.025 385.778 230.398 397.303 220.206C432.437 189.134 472.258 153.919 512.993 132.98C559.826 108.906 600.648 107.426 637.791 128.455C675.464 149.784 706.495 182.97 736.506 215.062C743.513 222.556 750.761 230.304 757.925 237.717C759.224 239.059 760.525 240.398 761.827 241.723C797 277.38 837.492 310.146 885.618 341.891C993.009 412.724 1080.31 424.028 1145.09 375.493C1163.59 361.637 1180.31 343.242 1196.19 319.253C1217.19 287.569 1234.18 249.977 1250.61 213.621C1266.95 177.44 1283.86 140.029 1304.66 108.631C1329.31 71.4342 1358.68 44.9015 1391.96 29.7799C1422.09 16.0825 1456.23 11.3809 1493.43 15.8166C1524.21 19.5101 1557.85 29.4368 1593.4 45.3263C1624.39 59.1696 1657.67 77.9204 1692.31 101.051C1746.39 137.163 1809.04 186.397 1859.89 232.762L1859.19 234.13C1808.37 187.809 1745.78 138.613 1691.75 102.535C1617.54 52.9836 1550.78 24.3662 1493.32 17.4724C1415.46 8.1978 1352.31 39.2391 1305.6 109.734C1284.87 141.02 1267.99 178.363 1251.68 214.479C1235.22 250.899 1218.2 288.555 1197.13 320.356C1181.15 344.486 1164.33 362.997 1145.7 376.947C1116.55 398.787 1082.88 408.598 1044.94 406.41L1044.94 406.405Z" fill="#9C9C9C" fill-opacity="0.13"/>
<path d="M1026.93 418.168C1017.37 417.615 1007.55 416.276 997.483 414.153C976.073 409.631 953.44 401.485 930.209 389.95C909.96 379.89 889.151 367.209 868.356 352.255C825.667 321.561 785.533 283.815 749.065 240.072C740.466 229.759 731.832 218.811 723.483 208.224C694.987 172.091 665.518 134.731 629.68 112.02C592.751 88.6192 551.967 89.8889 504.998 115.902C464.025 138.596 423.968 176.959 388.627 210.81C373.643 225.164 359.492 238.716 346.042 250.414C296.563 293.441 249.901 320.141 203.394 332.037C179.711 338.094 155.76 340.428 131.243 339.012C104.478 337.468 77.0387 331.458 48.4942 320.948C31.1647 314.569 13.9257 307.962 -2.7449 301.575C-97.1221 265.407 -186.267 231.247 -288.935 237.978L-289 236.262C-186.115 229.518 -96.8702 263.717 -2.38638 299.923C14.281 306.311 31.5168 312.917 48.8398 319.292C153.621 357.862 245.062 336.176 345.334 248.977C358.759 237.3 372.9 223.757 387.872 209.416C423.27 175.514 463.388 137.085 504.501 114.315C551.828 88.1042 592.957 86.843 630.239 110.471C666.265 133.298 695.807 170.756 724.377 206.98C732.721 217.558 741.348 228.498 749.934 238.797C786.328 282.451 826.378 320.115 868.976 350.745C928.42 393.489 1041.3 454.717 1129.45 384.548C1178.5 345.507 1206.3 278.255 1233.18 213.217C1249.06 174.78 1265.49 135.035 1286.11 101.677C1303.67 73.2571 1323.87 50.504 1346.15 34.044C1366.96 18.6735 1390.12 8.38638 1415.01 3.46595C1438.02 -1.08127 1463.11 -1.1541 1489.59 3.24727C1513.78 7.26684 1539.78 15.1343 1566.87 26.631C1612.98 46.1926 1662.28 75.8655 1717.58 117.331C1763.58 151.825 1805.13 188.002 1843.17 221.956L1842.45 223.38C1755.91 146.141 1662.59 69.0447 1566.48 28.2613C1443.82 -23.7829 1349.83 1.28252 1287.11 102.763C1266.57 135.996 1250.17 175.668 1234.31 214.041C1220.85 246.609 1206.93 280.284 1190.48 310.081C1172.01 343.555 1152.26 368.393 1130.12 386.02C1100.43 409.653 1065.82 420.411 1026.93 418.168H1026.93Z" fill="#9C9C9C" fill-opacity="0.13"/>
</svg>
