<svg width="251" height="342" viewBox="0 0 251 342" fill="none" xmlns="http://www.w3.org/2000/svg">
<path d="M217.479 5.18921H49.3461C32.7338 5.18921 19.2668 18.6562 19.2668 35.2685V250.241C19.2668 266.853 32.7338 280.32 49.3461 280.32H217.49C234.103 280.32 247.57 266.853 247.57 250.241V35.2685C247.558 18.6562 234.091 5.18921 217.479 5.18921Z" fill="#016642"/>
<path d="M87.9768 32.6386L93.0263 36.1344C90.5987 39.1447 91.0357 45.8936 98.1244 45.8936H112.35C115.021 45.8936 117.594 44.7283 117.594 41.7666C117.594 38.7563 114.827 37.591 112.35 37.591H103.902V29.3855C103.757 23.5591 108.029 20.9858 112.69 20.9858C117.157 20.9858 121.43 23.1222 121.818 29.1428H115.264C115.021 27.5405 113.953 27.2006 112.787 27.2006C111.671 27.2006 110.408 27.9289 110.408 29.2884V31.619H113.37C117.983 31.619 124.149 34.6778 124.149 41.7666C124.149 48.8553 118.031 52.3511 112.787 52.3511H98.4157C86.1804 52.3511 82.7816 40.4071 87.9768 32.6386ZM106.815 60.7023H113.419V55.1187H106.815V60.7023ZM97.1534 60.7023H103.805V55.1187H97.1534V60.7023ZM143.162 37.5424V28.6572C143.162 28.6572 143.162 26.3752 140.346 26.3752C139.23 26.3752 137.676 26.9579 137.433 29.0942H131.267C131.51 22.8308 137.433 21.8112 140.249 21.8112C146.464 21.8112 149.863 24.4331 149.863 30.2595V44H130.247V37.5424H143.162ZM170.317 44H165.607C157.45 44 156.868 37.0084 156.868 34.2408V12.5376H163.374V34.6293C163.374 36.5228 164.442 37.5424 166.141 37.5424H170.317V44ZM176.387 44H170.075V37.5424H175.804C177.552 37.5424 178.62 36.5228 178.62 34.6293V22.3939H185.175V34.2408C185.175 37.0084 184.544 44 176.387 44ZM177.115 46.7675H183.767V52.3511H177.115V46.7675Z" fill="white"/>
<path d="M189.353 189.639C189.353 189.639 187.184 195.555 173.888 192.682C160.591 189.809 162.794 182.985 162.794 182.985L175.352 165.726L182.188 172.028L188.059 178.284C188.07 178.284 190.75 185.79 189.353 189.639Z" fill="#502A73" stroke="#502A73" stroke-width="0.2291" stroke-miterlimit="10" stroke-linecap="round" stroke-linejoin="round"/>
<path d="M189.353 189.639C189.353 189.639 187.184 195.555 173.888 192.682C160.591 189.809 162.794 182.985 162.794 182.985L175.352 165.726L182.188 172.028L188.059 178.284C188.07 178.284 190.75 185.79 189.353 189.639Z" stroke="#502A73" stroke-width="0.2291" stroke-miterlimit="10" stroke-linecap="round" stroke-linejoin="round"/>
<path d="M40.58 254.601C40.58 254.601 35.1524 258.757 39.9896 270.021C48.5058 289.858 76.5639 310.274 80.6857 301.02C85.6705 289.79 79.0733 257.246 79.0733 257.246L61.4504 247.549L40.58 254.601Z" fill="#502A73" stroke="#502A73" stroke-width="0.2291" stroke-miterlimit="10" stroke-linecap="round" stroke-linejoin="round"/>
<path d="M78.0063 295.104L87.9873 271.326L56.9088 255.134L48.0292 255.532L42.7151 268.408L56.6817 296.625" fill="#BF792A"/>
<path d="M78.0063 295.104L87.9873 271.326L56.9088 255.134L48.0292 255.532L42.7151 268.408L56.6817 296.625" stroke="#502A73" stroke-width="0.2291" stroke-miterlimit="10" stroke-linecap="round" stroke-linejoin="round"/>
<path d="M173.751 286.304L187.298 282.523L176.522 321.016L169.255 320.573L173.751 286.304Z" fill="#4BBEA5" stroke="#502A73" stroke-width="0.2291" stroke-miterlimit="10" stroke-linecap="round" stroke-linejoin="round"/>
<path d="M188.172 282.966L174.194 288.291" stroke="#502A73" stroke-width="0.2291" stroke-miterlimit="10" stroke-linecap="round" stroke-linejoin="round"/>
<path d="M172.377 294.036L186.355 288.722" stroke="#502A73" stroke-width="0.2291" stroke-miterlimit="10" stroke-linecap="round" stroke-linejoin="round"/>
<path d="M170.561 299.793L184.539 294.479" stroke="#502A73" stroke-width="0.2291" stroke-miterlimit="10" stroke-linecap="round" stroke-linejoin="round"/>
<path d="M168.744 305.55L182.722 300.236" stroke="#502A73" stroke-width="0.2291" stroke-miterlimit="10" stroke-linecap="round" stroke-linejoin="round"/>
<path d="M166.927 311.308L180.905 305.982" stroke="#502A73" stroke-width="0.2291" stroke-miterlimit="10" stroke-linecap="round" stroke-linejoin="round"/>
<path d="M172.264 283.602C169.55 285.169 167.835 285.645 165.689 298.465C163.543 311.285 161.34 328.953 162.033 334.744C162.726 340.535 166.632 342.204 172.945 341.251C179.258 340.297 188.921 333.586 199.845 314.532C210.768 295.49 213.437 287.508 213.777 284.885C214.118 282.262 214.765 277.481 208.429 274.143C207.158 273.473 205 272.224 205 272.224L200.083 274.188C196.87 275.471 193.339 275.619 190.012 274.722C188.149 274.222 185.958 274.177 184.198 275.744C181.768 277.901 180.394 283.658 178.94 291.289C178.316 294.582 174.898 309.922 174.353 313.465C174.285 313.897 173.933 314.215 173.501 314.249C172.934 314.294 172.457 313.828 172.502 313.249C172.684 310.536 173.967 302.394 174.796 297.25C177.464 280.763 173.274 283.022 172.264 283.602Z" fill="#4BBEA5" stroke="#502A73" stroke-width="0.2291" stroke-miterlimit="10" stroke-linecap="round" stroke-linejoin="round"/>
<path d="M208.441 274.154C207.169 273.484 205.012 272.235 205.012 272.235L200.481 274.041C202.729 275.755 205.965 277.504 210.485 278.424C211.529 278.639 212.472 278.821 213.323 279.003C212.608 277.299 211.177 275.596 208.441 274.154Z" fill="#4BBEA5" stroke="#502A73" stroke-width="0.2291" stroke-miterlimit="10" stroke-linecap="round" stroke-linejoin="round"/>
<path d="M206.908 276.357C201.389 278.605 201.037 282.046 200.833 285.623C200.629 289.199 204.648 297.307 200.492 302.519C196.336 307.731 191.386 304.915 186.492 308.73C181.598 312.557 183.767 323.525 182.813 329.067C181.859 334.608 172.525 336.447 172.525 336.447L175.886 340.444C182.075 338.094 190.511 330.827 199.857 314.532C210.78 295.49 213.448 287.508 213.789 284.885C214.039 282.966 214.448 279.9 212.188 277.095C210.984 276.039 209.258 275.403 206.908 276.357Z" fill="#008056" stroke="#502A73" stroke-width="0.2291" stroke-miterlimit="10" stroke-linecap="round" stroke-linejoin="round"/>
<path d="M166.189 334.948C164.191 336.322 163.907 338.105 164.281 339.74C166.155 341.443 169.107 341.829 172.945 341.25C175.091 340.921 177.635 339.933 180.474 338.014C176.488 334.767 170.493 331.996 166.189 334.948Z" fill="#008056" stroke="#502A73" stroke-width="0.2291" stroke-miterlimit="10" stroke-linecap="round" stroke-linejoin="round"/>
<path d="M196.2 276.504C195.95 276.993 195.61 277.674 195.144 278.628C193.452 282 191 287.803 191 287.803L195.53 288.257L196.734 276.3C196.552 276.38 196.371 276.448 196.2 276.504Z" fill="#008056" stroke="#502A73" stroke-width="0.2291" stroke-miterlimit="10" stroke-linecap="round" stroke-linejoin="round"/>
<path d="M40.58 254.601C40.58 254.601 35.1524 258.757 39.9896 270.021C48.5058 289.858 76.5639 310.274 80.6857 301.02C85.6705 289.79 79.0733 257.246 79.0733 257.246L61.4504 247.549L40.58 254.601Z" stroke="#502A73" stroke-width="0.2291" stroke-miterlimit="10" stroke-linecap="round" stroke-linejoin="round"/>
<path d="M99.2854 175.82C99.2854 175.82 59.0889 230.222 51.7422 240.066C44.3956 249.911 40.5803 254.612 40.5803 254.612C40.5803 254.612 51.447 251.16 66.7308 269.01C85.5119 290.959 80.686 301.031 80.686 301.031C80.686 301.031 93.1765 274.143 100.659 259.903C108.154 245.653 140.799 182.622 140.799 182.622C140.799 182.622 135.337 209.521 137.688 224.067C140.595 242.053 149.293 260.21 154.436 272.099C159.58 283.999 164.576 290.164 164.576 290.164C164.576 290.164 183.823 290.312 196.893 282.522C209.962 274.733 214.084 268.567 214.084 268.567L180.337 212.599C179.133 210.6 178.452 208.318 178.361 205.979C178.157 200.369 177.76 189.662 177.657 185.415C177.51 179.544 178.498 161.615 178.498 161.615L126.833 153.099L99.2854 175.82Z" fill="white" stroke="#502A73" stroke-width="0.2291" stroke-miterlimit="10" stroke-linecap="round" stroke-linejoin="round"/>
<path d="M185.322 285.52C185.322 283.806 185.367 281.285 184.448 279.979C182.71 277.549 180.723 276.754 170.242 279.423C168.369 279.899 162.794 280.887 161.919 282.943C160.466 286.338 168.869 289.983 168.869 289.983C173.093 289.699 179.871 288.938 186.65 286.883C186.639 286.894 185.322 286.894 185.322 285.52Z" fill="#4BBEA5" stroke="#502A73" stroke-width="0.2291" stroke-miterlimit="10" stroke-linecap="round" stroke-linejoin="round"/>
<path d="M183.289 287.814C183.108 287.644 182.937 287.462 182.79 287.28C182.438 286.826 182.46 286.258 182.37 285.009C182.37 284.044 182.563 280.626 179.781 280.729C177.998 280.797 175.193 281.228 170.969 282.307C170.697 282.375 170.345 282.454 169.947 282.545C168.38 282.909 167.131 283.238 166.223 283.545C165.598 283.76 165.383 284.532 165.814 285.043C166.893 286.315 168.8 288.336 171.537 289.79C174.818 289.449 178.963 288.87 183.289 287.814Z" fill="#4BBEA5" stroke="#502A73" stroke-width="0.2291" stroke-miterlimit="10" stroke-linecap="round" stroke-linejoin="round"/>
<path d="M206.113 276.266C201.139 268.545 188.479 248.787 184.005 240.805C176.987 228.257 171.912 220.831 171.026 213.189C170.14 205.547 171.616 174.117 171.616 174.117L168.096 168.803C168.096 168.803 167.733 173.89 166.779 184.688C165.701 196.815 164.236 215.279 169.13 224.726C175.977 237.943 195.973 269.237 202.298 279.071C203.706 278.083 204.977 277.14 206.113 276.266Z" fill="#EEC718" stroke="#502A73" stroke-width="0.2291" stroke-miterlimit="10" stroke-linecap="round" stroke-linejoin="round"/>
<path d="M140.799 182.61V180.816C140.799 179.397 139.528 178.284 138.131 178.523C135.054 179.034 129.546 181.838 122.847 193.466C112.412 211.554 80.7202 270.679 75.2925 280.524" stroke="#502A73" stroke-width="0.2291" stroke-miterlimit="10" stroke-linecap="round" stroke-linejoin="round"/>
<path d="M140.776 163.931C140.776 163.931 138.278 169.95 137.54 172.89C136.802 175.831 140.776 176.274 140.776 176.274" fill="white"/>
<path d="M140.776 163.931C140.776 163.931 138.278 169.95 137.54 172.89C136.802 175.831 140.776 176.274 140.776 176.274" stroke="#502A73" stroke-width="0.2291" stroke-miterlimit="10" stroke-linecap="round" stroke-linejoin="round"/>
<path d="M126.81 111.301L63.1314 111.006C55.217 111.006 48.8127 117.422 48.8127 125.325C48.8127 129.265 50.4024 132.83 52.9687 135.419C53.684 136.135 83.0366 159.844 83.0366 159.844L83.7065 160.4C85.6709 162.047 87.465 163.875 89.066 165.873L91.6323 169.075C91.7572 169.234 91.8935 169.393 92.0297 169.552C93.3356 171.028 95.1183 172.016 97.0486 172.391C97.0486 172.391 95.5271 174.639 96.1402 176.093C97.219 178.636 102.363 180.748 106.326 177.989L117.533 169.268C119.213 167.963 120.156 165.919 120.065 163.784L119.94 161.002C119.906 160.23 119.781 159.458 119.577 158.72C118.748 155.711 116.613 153.235 113.763 151.975L107.597 149.25C106.28 148.67 105.065 147.887 103.986 146.933C101.454 144.696 96.5717 140.302 93.3128 136.782H121.666L126.81 111.301Z" fill="#BF792A" stroke="#502A73" stroke-width="0.2291" stroke-miterlimit="10" stroke-linecap="round" stroke-linejoin="round"/>
<path d="M91.9161 111.301C91.9161 111.301 96.549 114.821 100.728 125.552C102.522 130.139 103.43 134.181 104.111 136.793H121.655L126.799 111.301L91.9729 111.142L91.9161 111.301Z" fill="#4BBEA5" stroke="#502A73" stroke-width="0.2291" stroke-miterlimit="10" stroke-linecap="round" stroke-linejoin="round"/>
<path d="M178.963 145.673C177.862 141.108 179.849 136.486 179.849 136.486L193.702 118.125C193.702 118.125 186.9 114.083 177.567 113.867C168.233 113.652 155.97 112.777 155.97 112.777L140.027 111.664L126.81 111.301C126.81 111.301 123.256 113.583 123.142 118.137C122.995 123.723 121.519 130.582 119.872 134.113L111.924 151.168L113.775 151.986C116.625 153.246 118.759 155.722 119.588 158.731C119.793 159.48 119.918 160.241 119.952 161.013L120.077 163.795C120.133 165.101 119.804 166.373 119.145 167.463C124.38 166.168 128.343 164.658 131.863 165.794C136.416 167.258 140.311 171.596 145.603 171.959C148.146 172.141 155.708 169.472 161.079 170.858C166.87 172.357 165.292 177.171 172.343 177.955C175.943 178.352 180.235 176.66 184.879 178.636C188.581 180.214 190.489 185.892 189.353 189.616C189.353 189.616 191.59 186.425 188.218 176.581C185.402 168.428 180.053 150.237 178.963 145.673Z" fill="#4BBEA5" stroke="#502A73" stroke-width="0.2291" stroke-miterlimit="10" stroke-linecap="round" stroke-linejoin="round"/>
<path d="M158.808 126.585C152.756 124.587 148.873 126.721 148.339 127.039C147.942 126.642 144.967 123.996 138.335 125.029C131.976 126.017 129.342 130.378 129.989 132.694C130.33 133.909 131.942 132.808 134.475 131.683C138.063 130.094 139.902 131.343 139.902 131.343C139.902 131.343 134.713 132.115 132.408 134.431C130.103 136.748 131.772 140.518 134.225 138.667C138.278 135.601 140.402 135.737 140.402 135.737C140.402 135.737 138.029 136.907 136.632 138.746C135.235 140.586 135.633 142.664 137.381 142.845C138.449 142.959 144.456 136.498 143.013 140.677C141.038 146.445 140.141 150.624 139.936 153.553C139.834 154.95 140.777 156.074 142.116 156.176L143.331 156.267C144.671 156.369 146.011 155.427 146.443 154.053C147.351 151.18 148.066 146.979 148.328 141.085C148.521 136.805 151.904 143.981 152.983 144.038C154.755 144.117 155.924 142.164 155.266 140.166C154.607 138.167 152.745 136.68 152.745 136.68C152.745 136.68 154.857 136.873 157.639 140.45C159.319 142.618 162.362 139.2 161 136.612C159.637 134.023 154.891 132.49 154.891 132.49C154.891 132.49 157.15 131.547 160.035 133.637C162.078 135.113 163.214 136.419 164.009 135.283C165.519 133.126 164.611 128.504 158.808 126.585Z" fill="#EEC718" stroke="#502A73" stroke-width="0.2291" stroke-miterlimit="10" stroke-linecap="round" stroke-linejoin="round"/>
<path d="M160.375 123.712L169.209 122.679C170.549 122.52 171.81 121.941 172.809 121.021L173.808 119.863C177.464 115.627 182.074 112.323 187.252 110.234L188.002 109.927C189.966 108.871 191.238 106.873 191.363 104.647L191.953 93.6782C191.953 93.6782 187.286 96.4034 180.61 98.4132C175.647 99.9121 171.878 99.0718 170.47 101.706L163.554 111.562" fill="#4BBEA5"/>
<path d="M160.375 123.712L169.209 122.679C170.549 122.52 171.81 121.941 172.809 121.021L173.808 119.863C177.464 115.627 182.074 112.323 187.252 110.234L188.002 109.927C189.966 108.871 191.238 106.873 191.363 104.647L191.953 93.6782C191.953 93.6782 187.286 96.4034 180.61 98.4132C175.647 99.9121 171.878 99.0718 170.47 101.706L163.554 111.562" stroke="#502A73" stroke-width="0.2291" stroke-miterlimit="10" stroke-linecap="round" stroke-linejoin="round"/>
<path d="M180.587 98.4246C175.625 99.9235 171.855 99.0831 170.447 101.717L163.532 111.574L160.375 123.712L165.473 123.122C166.212 122.906 166.916 122.554 167.54 122.088C167.824 121.873 168.085 121.611 168.312 121.328L169.493 119.885C173.149 115.65 177.76 112.346 182.937 110.256L183.687 109.95C185.651 108.894 186.923 106.895 187.048 104.67L187.525 95.8811C185.64 96.6873 183.278 97.607 180.587 98.4246Z" fill="#008056" stroke="#502A73" stroke-width="0.2291" stroke-miterlimit="10" stroke-linecap="round" stroke-linejoin="round"/>
<path d="M180.587 98.4246C175.625 99.9235 171.855 99.0831 170.447 101.717L163.532 111.574L160.375 123.712L165.473 123.122C166.212 122.906 166.916 122.554 167.54 122.088C167.824 121.873 168.085 121.611 168.312 121.328L169.493 119.885C173.149 115.65 177.76 112.346 182.937 110.256L183.687 109.95C185.651 108.894 186.923 106.895 187.048 104.67L187.525 95.8811C185.64 96.6873 183.278 97.607 180.587 98.4246Z" stroke="#502A73" stroke-width="0.2291" stroke-miterlimit="10" stroke-linecap="round" stroke-linejoin="round"/>
<path d="M141.855 107.191L141.106 107.793C139.641 108.974 139.073 110.949 139.698 112.732L143.956 124.995C144.637 126.949 146.738 128.005 148.702 127.38L160.375 123.712L169.925 109.746C171.117 107.997 170.924 105.647 169.448 104.125L165.894 100.446C164.383 98.8791 162.294 97.9934 160.114 97.9934H152.949" fill="#008056"/>
<path d="M141.855 107.191L141.106 107.793C139.641 108.974 139.073 110.949 139.698 112.732L143.956 124.995C144.637 126.949 146.738 128.005 148.702 127.38L160.375 123.712L169.925 109.746C171.117 107.997 170.924 105.647 169.448 104.125L165.894 100.446C164.383 98.8791 162.294 97.9934 160.114 97.9934H152.949" stroke="#502A73" stroke-width="0.2291" stroke-miterlimit="10" stroke-linecap="round" stroke-linejoin="round"/>
<path d="M141.855 107.191L141.106 107.793C139.641 108.974 139.073 110.949 139.698 112.732L143.956 124.995C144.637 126.949 146.738 128.005 148.702 127.38L160.375 123.712L169.925 109.746C171.117 107.997 170.924 105.647 169.448 104.125L165.894 100.446C164.383 98.8791 162.294 97.9934 160.114 97.9934H152.949" stroke="#502A73" stroke-width="0.2291" stroke-miterlimit="10" stroke-linecap="round" stroke-linejoin="round"/>
<path d="M148.759 114.389L157.775 102.047C155.379 95.4721 150.655 82.6524 148.895 79.3254C146.068 73.9772 144.841 72.7054 140.856 72.7736C135.474 72.8644 128.649 80.5972 127.093 83.7425C125.538 86.8878 126.81 88.5456 128.07 88.557C129.342 88.5683 130.795 87.5691 130.795 87.5691C130.795 87.5691 131.147 89.9082 131.715 92.94C131.794 93.3033 131.749 93.6894 131.579 94.0301L129.717 97.7318C129.433 98.4131 129.91 99.1739 130.648 99.2079L132.862 99.4804C133.339 99.5599 133.407 100.014 133.168 100.866C132.828 102.069 133.997 102.342 134.27 102.41C134.747 102.524 134.134 102.739 134.259 103.568C134.372 104.272 134.769 104.397 134.917 104.795C135.292 105.782 135.496 106.168 135.803 106.907C136.246 107.985 137.381 108.633 138.539 108.451L144.58 107.531L148.259 114.844L148.759 114.389Z" fill="#BF792A" stroke="#502A73" stroke-width="0.2291" stroke-miterlimit="10" stroke-linecap="round" stroke-linejoin="round"/>
<path d="M135.303 84.5377C137.552 82.8572 139.596 80.484 139.596 80.484C139.596 80.484 138.21 83.7428 138.892 84.2765C139.573 84.8102 141.935 82.9366 142.037 82.9934C142.139 83.0502 140.731 85.5937 141.117 86.3658C141.492 87.1493 142.548 86.3318 142.695 86.5475C142.843 86.7632 141.583 89.1478 141.901 89.6133C142.23 90.0789 142.9 90.0902 142.9 90.0902C142.9 90.0902 142.934 92.5202 144.83 92.7927C146.726 93.0652 146.919 91.7935 146.215 88.7617C146 87.8306 146.386 86.9676 147.078 87.0358C148.316 87.1607 150.394 89.0797 150.394 89.0797C150.394 89.0797 152.733 92.929 154.448 93.0539C152.336 87.4219 150.031 81.5286 148.873 79.3144C146.045 73.9662 144.819 72.6944 140.833 72.7626C135.451 72.8534 128.627 80.5862 127.071 83.7315C125.515 86.8768 126.787 88.5346 128.048 88.546C129.319 88.5573 130.773 87.5581 130.773 87.5581C130.773 87.5581 132.692 86.4908 135.303 84.5377Z" fill="#502A73" stroke="#502A73" stroke-width="0.2291" stroke-miterlimit="10" stroke-linecap="round" stroke-linejoin="round"/>
<path d="M135.303 84.5377C137.552 82.8572 139.596 80.484 139.596 80.484C139.596 80.484 138.21 83.7428 138.892 84.2765C139.573 84.8102 141.935 82.9366 142.037 82.9934C142.139 83.0502 140.731 85.5937 141.117 86.3658C141.492 87.1493 142.548 86.3318 142.695 86.5475C142.843 86.7632 141.583 89.1478 141.901 89.6134C142.23 90.0789 142.9 90.0902 142.9 90.0902C142.9 90.0902 142.934 92.5202 144.83 92.7927C146.726 93.0652 146.919 91.7935 146.215 88.7617C146 87.8306 146.386 86.9676 147.078 87.0358C148.316 87.1607 150.394 89.0797 150.394 89.0797C150.394 89.0797 152.733 92.929 154.448 93.0539C152.336 87.4219 150.031 81.5286 148.873 79.3144C146.045 73.9662 144.819 72.6944 140.833 72.7626C135.451 72.8534 128.627 80.5862 127.071 83.7315C125.515 86.8768 126.787 88.5346 128.048 88.546C129.319 88.5573 130.773 87.5581 130.773 87.5581C130.773 87.5581 132.692 86.4908 135.303 84.5377Z" stroke="#502A73" stroke-width="0.2291" stroke-miterlimit="10" stroke-linecap="round" stroke-linejoin="round"/>
<path d="M146.863 89.4773C146.738 88.8982 146.704 88.3645 146.772 87.9784C147.056 86.4455 148.316 85.3895 149.849 85.6734C151.382 85.9573 152.131 87.422 152.199 88.9776C152.268 90.4311 151.882 91.8277 151.246 92.7248C150.769 93.4061 150.144 93.7808 149.486 93.6559" fill="#BF792A"/>
<path d="M146.863 89.4773C146.738 88.8982 146.704 88.3645 146.772 87.9784C147.056 86.4455 148.316 85.3895 149.849 85.6734C151.382 85.9573 152.131 87.422 152.199 88.9776C152.268 90.4311 151.882 91.8277 151.246 92.7248C150.769 93.4061 150.144 93.7808 149.486 93.6559" stroke="#502A73" stroke-width="0.2291" stroke-miterlimit="10" stroke-linecap="round" stroke-linejoin="round"/>
<path d="M147.328 93.0879C147.328 93.0879 147.113 94.019 146.284 94.2915C145.455 94.564 144.331 93.9281 144.331 93.9281" stroke="#502A73" stroke-width="0.2291" stroke-miterlimit="10" stroke-linecap="round" stroke-linejoin="round"/>
<path d="M147.612 94.5415C147.612 94.5415 147.396 95.4726 146.567 95.7451C145.75 96.0176 144.614 95.3818 144.614 95.3818" stroke="#502A73" stroke-width="0.2291" stroke-miterlimit="10" stroke-linecap="round" stroke-linejoin="round"/>
<path d="M148.248 89.2951C148.248 89.2951 148.18 87.6145 149.69 87.8871C150.667 88.0687 150.837 89.5677 150.144 90.2149C149.758 90.5669 149.043 90.5328 149.043 90.5328C149.043 90.5328 149.565 90.7485 149.463 91.2482C149.327 91.884 148.589 91.5774 148.589 91.5774" fill="#BF792A"/>
<path d="M148.248 89.2951C148.248 89.2951 148.18 87.6145 149.69 87.8871C150.667 88.0687 150.837 89.5677 150.144 90.2149C149.758 90.5669 149.043 90.5328 149.043 90.5328C149.043 90.5328 149.565 90.7485 149.463 91.2482C149.327 91.884 148.589 91.5774 148.589 91.5774" stroke="#502A73" stroke-width="0.2291" stroke-miterlimit="10" stroke-linecap="round" stroke-linejoin="round"/>
<path d="M134.259 102.399C134.259 102.399 135.78 102.603 136.95 102.229C138.165 101.831 138.664 101.298 138.664 101.298" stroke="#502A73" stroke-width="0.2291" stroke-miterlimit="10" stroke-linecap="round" stroke-linejoin="round"/>
<path d="M135.86 91.5321C136.291 91.2936 136.78 91.1914 137.268 91.2368" stroke="#502A73" stroke-width="0.4582" stroke-miterlimit="10" stroke-linecap="round" stroke-linejoin="round"/>
<path d="M136.064 91.4752C135.985 91.759 135.985 92.1905 136.064 92.5766C136.189 93.1784 136.473 93.4282 136.745 93.3714C137.018 93.3146 137.177 92.974 137.052 92.3722C136.972 91.9861 136.791 91.5887 136.598 91.3616L136.064 91.4752Z" fill="#502A73"/>
<path d="M131.431 92.475C131.863 92.2365 132.351 92.1343 132.839 92.1797" stroke="#502A73" stroke-width="0.4582" stroke-miterlimit="10" stroke-linecap="round" stroke-linejoin="round"/>
<path d="M131.624 92.418C131.545 92.7019 131.545 93.1334 131.624 93.5194C131.749 94.1212 132.033 94.3711 132.305 94.3143C132.578 94.2575 132.737 93.9169 132.612 93.3151C132.533 92.929 132.351 92.5315 132.158 92.3044L131.624 92.418Z" fill="#502A73"/>
<path d="M133.929 90.0106C134.111 90.2263 134.44 90.2377 134.622 90.022C134.94 89.67 135.496 89.2158 136.291 89.1817C136.734 89.159 137.063 89.1931 137.313 89.2498C137.608 89.318 137.87 89.0454 137.801 88.7502C137.767 88.6253 137.688 88.5345 137.574 88.4777C137.007 88.1938 135.212 87.5239 133.884 89.4428C133.782 89.6132 133.793 89.8516 133.929 90.0106Z" fill="#502A73"/>
<path d="M140.413 100.219C140.969 100.242 141.265 99.9009 141.265 99.9009C141.265 99.9009 139.266 98.7313 138.744 98.6178C138.222 98.5042 137.063 98.9017 135.383 99.4921C134.486 99.8101 133.748 99.8555 133.259 99.8328C133.316 100.06 133.282 100.401 133.157 100.843C133.135 100.923 133.123 100.991 133.112 101.07C133.623 101.116 134.395 101.139 135.292 100.968C136.87 100.662 138.585 99.9122 138.721 99.8328C138.801 99.7987 139.743 100.196 140.413 100.219Z" fill="#502A73" stroke="#502A73" stroke-width="0.2291" stroke-miterlimit="10" stroke-linecap="round" stroke-linejoin="round"/>
<path d="M140.413 100.219C140.969 100.242 141.265 99.9009 141.265 99.9009C141.265 99.9009 139.266 98.7313 138.744 98.6178C138.222 98.5042 137.063 98.9017 135.383 99.4921C134.486 99.8101 133.748 99.8555 133.259 99.8328C133.316 100.06 133.282 100.401 133.157 100.843C133.135 100.923 133.123 100.991 133.112 101.07C133.623 101.116 134.395 101.139 135.292 100.968C136.87 100.662 138.585 99.9122 138.721 99.8328C138.801 99.7987 139.743 100.196 140.413 100.219Z" stroke="#502A73" stroke-width="0.2291" stroke-miterlimit="10" stroke-linecap="round" stroke-linejoin="round"/>
<path d="M131.738 89.4316C131.488 89.4089 131.284 89.4543 131.113 89.5338L131.295 90.6012C131.386 90.5444 131.488 90.499 131.613 90.4763C131.885 90.4308 132.169 90.4763 132.396 90.533C132.658 90.6012 132.919 90.4308 132.976 90.1697C133.01 89.9653 132.907 89.7609 132.726 89.67C132.533 89.5678 132.215 89.4657 131.738 89.4316Z" fill="#502A73"/>
<path d="M222.146 211.611C222.146 211.611 223.565 212.542 226.063 212.838C228.561 213.133 229.447 212.94 230.617 214.507C231.786 216.074 231.548 218.322 227.483 218.322C223.418 218.322 220.727 215.676 220.727 215.676" fill="#BF792A"/>
<path d="M222.146 211.611C222.146 211.611 223.565 212.542 226.063 212.838C228.561 213.133 229.447 212.94 230.617 214.507C231.786 216.074 231.548 218.322 227.483 218.322C223.418 218.322 220.727 215.676 220.727 215.676" stroke="#502A73" stroke-width="0.2291" stroke-miterlimit="10" stroke-linecap="round" stroke-linejoin="round"/>
<path d="M193.702 118.137C198.006 120.431 206.828 142.528 210.746 149.863C214.663 157.21 218.876 167.293 219.171 174.151C219.466 181.01 218.49 205.877 218.49 205.877C218.49 205.877 222.112 208.614 223.191 211.066C224.27 213.519 225.246 215.767 229.164 219.004C233.081 222.24 236.51 222.626 236.601 224.783C236.703 226.941 233.092 228.212 233.092 228.212C233.092 228.212 232.434 230.904 229.663 231.619C227.733 232.119 226.631 232.232 226.631 232.232C226.631 232.232 225.042 234.049 222.612 234.049C220.182 234.049 216.98 233.118 216.98 233.118C216.98 233.118 208.929 236.184 202.536 227.213C196.143 218.254 197.449 209.341 196.087 199.155C194.985 190.957 192.839 176.388 194.088 170.881L181.439 148.512C176.227 139.292 186.673 137.793 194.61 130.776C197.279 128.391 191.374 116.888 193.702 118.137Z" fill="#BF792A" stroke="#502A73" stroke-width="0.2291" stroke-miterlimit="10" stroke-linecap="round" stroke-linejoin="round"/>
<path d="M210.11 148.636C205.943 140.336 197.779 120.306 193.702 118.126C189.751 116.025 185.073 121.884 181.098 127.232C177.101 132.603 176.182 139.178 179.474 145.003L186.708 157.788C190.432 157.527 194.883 156.857 198.948 155.29C205.852 152.622 208.918 149.954 210.11 148.636Z" fill="#4BBEA5" stroke="#502A73" stroke-width="0.2291" stroke-miterlimit="10" stroke-linecap="round" stroke-linejoin="round"/>
<path d="M194.088 170.87C194.088 170.87 197.029 172.664 200.992 173.072C204.955 173.481 208.157 172.63 208.157 172.63" fill="#BF792A"/>
<path d="M194.088 170.87C194.088 170.87 197.029 172.664 200.992 173.072C204.955 173.481 208.157 172.63 208.157 172.63" stroke="#502A73" stroke-width="0.2291" stroke-miterlimit="10" stroke-linecap="round" stroke-linejoin="round"/>
<path d="M198.494 183.36C198.494 183.36 200.447 184.53 205.352 185.029C210.246 185.518 214.073 185.029 214.073 185.029C214.073 185.029 210.258 187.278 206.726 188.754C203.195 190.23 199.187 191.399 199.187 191.399C199.187 191.399 199.868 192.921 204.864 193.477C209.86 194.045 210.542 194.045 210.542 194.045L201.117 200.211" stroke="#502A73" stroke-width="0.2291" stroke-miterlimit="10" stroke-linecap="round" stroke-linejoin="round"/>
<path d="M216.98 233.106C216.98 233.106 212.892 231.289 210.792 228.405L216.98 233.106Z" fill="#BF792A"/>
<path d="M216.98 233.106C216.98 233.106 212.892 231.289 210.792 228.405" stroke="#502A73" stroke-width="0.2291" stroke-miterlimit="10" stroke-linecap="round" stroke-linejoin="round"/>
<path d="M226.62 232.22C226.62 232.22 224.565 231.732 221.636 229.858C219.081 228.235 217.446 226.1 217.446 226.1" fill="#BF792A"/>
<path d="M226.62 232.22C226.62 232.22 224.565 231.732 221.636 229.858C219.081 228.235 217.446 226.1 217.446 226.1" stroke="#502A73" stroke-width="0.2291" stroke-miterlimit="10" stroke-linecap="round" stroke-linejoin="round"/>
<path d="M233.081 228.212C233.081 228.212 231.753 228.496 228.789 227.463C225.746 226.395 223.429 223.875 223.429 223.875" fill="#BF792A"/>
<path d="M233.081 228.212C233.081 228.212 231.753 228.496 228.789 227.463C225.746 226.395 223.429 223.875 223.429 223.875" stroke="#502A73" stroke-width="0.2291" stroke-miterlimit="10" stroke-linecap="round" stroke-linejoin="round"/>
<path d="M42.931 262.526C42.931 262.526 35.0052 253.068 38.6842 246.823C40.8303 243.166 47.9045 243.132 52.1172 245.153C59.6682 248.787 54.9445 264.922 54.9445 264.922L53.8204 274.358L42.931 262.526Z" fill="#4BBEA5" stroke="#502A73" stroke-width="0.2291" stroke-miterlimit="10" stroke-linecap="round" stroke-linejoin="round"/>
<path d="M43.2831 261.175C41.5572 259.075 37.2423 252.489 39.3543 248.9C39.9107 247.958 41.9319 246.754 45.8153 246.754C47.5867 246.754 49.4602 247.152 50.8342 247.81C53.3777 249.037 53.548 253.567 53.4231 256.156C53.2187 260.255 52.1286 264.059 52.1173 264.105L52.0492 264.343L51.6517 267.647L43.2831 261.175Z" fill="#4BBEA5" stroke="#502A73" stroke-width="0.2291" stroke-miterlimit="10" stroke-linecap="round" stroke-linejoin="round"/>
<path d="M77.5521 284.635C75.0767 282.773 71.7383 281.285 69.8761 280.536C68.945 280.161 68.1729 279.491 67.6733 278.617L61.553 268.079C60.5651 266.569 59.2025 265.343 57.6014 264.514L44.441 258.189C44.441 258.189 38.6614 254.487 28.476 251.172C18.2906 247.856 8.84324 249.06 3.34744 255.123C-2.14836 261.187 34.6644 298.624 34.6644 298.624L59.7816 321.958C59.7816 321.958 68.6611 318.768 71.5794 311.092C73.4416 306.186 77.8019 296.648 80.1864 291.016C79.6073 289.165 78.7671 287.042 77.5521 284.635Z" fill="#4BBEA5" stroke="#502A73" stroke-width="0.2291" stroke-miterlimit="10" stroke-linecap="round" stroke-linejoin="round"/>
<path d="M71.5566 311.114C73.4188 306.209 77.7791 296.671 80.1637 291.039C79.8117 289.892 79.3574 288.632 78.7783 287.28C76.0645 291.493 70.0464 300.918 67.0941 306.311C63.1994 313.408 63.1994 313.408 63.1994 313.408C63.1994 313.408 61.428 317.939 60.213 321.799C62.0639 321.027 69.0358 317.746 71.5566 311.114Z" fill="#4BBEA5" stroke="#502A73" stroke-width="0.2291" stroke-miterlimit="10" stroke-linecap="round" stroke-linejoin="round"/>
<path d="M63.9378 289.597C47.8933 282 51.6404 271.383 42.7154 263.832C38.2643 260.062 34.3581 260.176 28.8623 256.701C23.3665 253.227 21.0047 249.548 21.0047 249.548L13.7489 256.701C13.7489 256.701 31.4967 283.442 31.7238 283.703C31.9055 283.919 38.7979 298.817 42.3634 305.789L49.9258 312.817C51.9924 313.998 53.8206 314.986 53.8206 314.986L54.218 316.814L59.7705 321.97C59.7705 321.97 68.6501 318.779 71.5684 311.103C72.3291 309.093 73.5214 306.3 74.8159 303.313C75.2701 302.246 75.2814 294.967 63.9378 289.597Z" fill="#008056" stroke="#502A73" stroke-width="0.2291" stroke-miterlimit="10" stroke-linecap="round" stroke-linejoin="round"/>
<path d="M13.7487 258.2C13.7487 258.2 22.1173 253.397 21.0045 249.547C13.7941 248.775 7.45808 250.581 3.33623 255.134C1.87144 256.747 3.4157 260.596 6.47018 265.376C9.25214 267.988 11.5799 270.134 11.5799 270.134L13.7487 258.2Z" fill="#008056" stroke="#502A73" stroke-width="0.2291" stroke-miterlimit="10" stroke-linecap="round" stroke-linejoin="round"/>
<path d="M20.8798 256.009C6.06155 248.072 -0.83092 255.453 0.327286 266.285C1.7353 279.468 12.3976 291.891 22.9577 302.36C31.3718 310.706 40.6147 319.131 47.8591 321.641C60.7697 326.137 66.2996 317.11 67.2421 315.486C70.9779 309.037 71.432 299.85 45.3383 279.491C40.6033 275.801 30.0319 260.914 20.8798 256.009Z" fill="#502A73" stroke="#502A73" stroke-width="0.2291" stroke-miterlimit="10" stroke-linecap="round" stroke-linejoin="round"/>
<path d="M20.8798 256.009C6.06155 248.072 -0.83092 255.453 0.327286 266.285C1.7353 279.468 12.3976 291.891 22.9577 302.36C31.3718 310.706 40.6147 319.131 47.8592 321.641C60.7697 326.137 66.2996 317.11 67.2421 315.486C70.9779 309.037 71.432 299.85 45.3383 279.491C40.6033 275.801 30.0319 260.914 20.8798 256.009Z" stroke="#502A73" stroke-width="0.2291" stroke-miterlimit="10" stroke-linecap="round" stroke-linejoin="round"/>
<path d="M62.2572 278.446C62.2572 278.446 67.6167 281.762 70.6939 283.942C73.7711 286.122 73.7712 286.122 73.7712 286.122L61.1104 282.852L62.2572 278.446Z" fill="#008056" stroke="#502A73" stroke-width="0.2291" stroke-miterlimit="10" stroke-linecap="round" stroke-linejoin="round"/>
<path d="M80.334 143.913C76.0645 146.615 75.0426 150.453 74.9745 153.337C77.711 155.551 80.0388 157.436 81.4922 158.606C82.094 152.758 85.2167 150.271 85.2167 150.271L91.2234 144.39C91.2121 144.39 87.9986 139.064 80.334 143.913Z" fill="#A9D054" stroke="#502A73" stroke-width="0.2291" stroke-miterlimit="10" stroke-linecap="round" stroke-linejoin="round"/>
<path d="M93.3126 136.793C93.3126 136.793 91.5072 134.624 90.1787 132.535C89.1226 130.877 87.1468 128.22 85.6707 126.267C82.3437 121.862 79.5958 119.216 79.5958 119.216" fill="#BF792A"/>
<path d="M93.3126 136.793C93.3126 136.793 91.5072 134.624 90.1787 132.535C89.1226 130.877 87.1468 128.22 85.6707 126.267C82.3437 121.862 79.5958 119.216 79.5958 119.216" stroke="#502A73" stroke-width="0.2291" stroke-miterlimit="10" stroke-linecap="round" stroke-linejoin="round"/>
<path d="M107.382 168.791C107.382 168.791 109.891 175.604 107.382 177.205V168.791Z" fill="#BF792A"/>
<path d="M107.382 168.791C107.382 168.791 109.891 175.604 107.382 177.205" stroke="#502A73" stroke-width="0.2291" stroke-miterlimit="10" stroke-linecap="round" stroke-linejoin="round"/>
<path d="M111.924 164.476C111.924 164.476 114.831 171.392 112.65 173.095L111.924 164.476Z" fill="#BF792A"/>
<path d="M111.924 164.476C111.924 164.476 114.831 171.392 112.65 173.095" stroke="#502A73" stroke-width="0.2291" stroke-miterlimit="10" stroke-linecap="round" stroke-linejoin="round"/>
<path d="M115.546 161.513C115.546 161.513 116.602 163.557 116.999 165.578C117.397 167.599 117.26 169.507 116.431 170.154" fill="#BF792A"/>
<path d="M115.546 161.513C115.546 161.513 116.602 163.557 116.999 165.578C117.397 167.599 117.26 169.507 116.431 170.154" stroke="#502A73" stroke-width="0.2291" stroke-miterlimit="10" stroke-linecap="round" stroke-linejoin="round"/>
<path d="M97.0597 172.414H97.2527C97.8772 172.402 98.4904 172.289 99.0922 172.096L99.2285 172.05C99.2285 172.05 99.2966 173.515 99.853 174.106" fill="#BF792A"/>
<path d="M97.0597 172.414H97.2527C97.8772 172.402 98.4904 172.289 99.0922 172.096L99.2285 172.05C99.2285 172.05 99.2966 173.515 99.853 174.106" stroke="#502A73" stroke-width="0.2291" stroke-miterlimit="10" stroke-linecap="round" stroke-linejoin="round"/>
<path d="M80.8333 126.937C80.8333 126.937 78.1535 126.483 74.0771 130.139C70.012 133.807 69.1604 136.793 69.1604 136.793" stroke="#502A73" stroke-width="0.2291" stroke-miterlimit="10" stroke-linecap="round" stroke-linejoin="round"/>
<path d="M77.0524 122.588C77.0524 122.588 73.1576 122.361 67.9003 123.156C62.6316 123.962 58.7482 126.926 58.7482 126.926" stroke="#502A73" stroke-width="0.2291" stroke-miterlimit="10" stroke-linecap="round" stroke-linejoin="round"/>
<path d="M78.6764 143.254L84.8875 152.292C86.1933 154.189 88.7822 154.688 90.6899 153.394L100.046 147.103C102.204 145.65 102.533 142.607 100.739 140.722L92.9608 132.569C91.5301 131.07 89.2251 130.843 87.5332 132.013L79.7437 137.417C77.8475 138.746 77.3705 141.346 78.6764 143.254Z" fill="#A9D054" stroke="#502A73" stroke-width="0.2291" stroke-miterlimit="10" stroke-linecap="round" stroke-linejoin="round"/>
<path d="M88.3505 151.169C87.9417 151.169 87.5557 150.964 87.3172 150.624L81.106 141.585C80.72 141.017 80.8563 140.245 81.424 139.848L89.2135 134.443C89.4747 134.261 89.7472 134.216 89.9289 134.216C90.1332 134.216 90.5079 134.261 90.8372 134.602L98.6154 142.755C98.9674 143.118 98.9788 143.538 98.9561 143.754C98.9333 143.97 98.8312 144.379 98.411 144.651L89.0545 150.942C88.8274 151.101 88.6003 151.169 88.3505 151.169Z" fill="#502A73" stroke="#502A73" stroke-width="0.2291" stroke-miterlimit="10" stroke-linecap="round" stroke-linejoin="round"/>
<path d="M88.3505 151.169C87.9417 151.169 87.5557 150.964 87.3172 150.624L81.106 141.585C80.72 141.017 80.8563 140.245 81.424 139.848L89.2135 134.443C89.4747 134.261 89.7472 134.216 89.9289 134.216C90.1332 134.216 90.5079 134.261 90.8372 134.602L98.6154 142.755C98.9674 143.118 98.9788 143.538 98.9561 143.754C98.9333 143.97 98.8312 144.379 98.411 144.651L89.0545 150.942C88.8274 151.101 88.6003 151.169 88.3505 151.169Z" stroke="#502A73" stroke-width="0.2291" stroke-miterlimit="10" stroke-linecap="round" stroke-linejoin="round"/>
<path d="M89.6563 145.366C91.4185 145.366 92.8471 143.938 92.8471 142.175C92.8471 140.413 91.4185 138.985 89.6563 138.985C87.8941 138.985 86.4656 140.413 86.4656 142.175C86.4656 143.938 87.8941 145.366 89.6563 145.366Z" fill="#EEC718" stroke="#502A73" stroke-width="0.2291" stroke-miterlimit="10" stroke-linecap="round" stroke-linejoin="round"/>
</svg>
