<svg width="522" height="393" viewBox="0 0 522 393" fill="none" xmlns="http://www.w3.org/2000/svg">
<path d="M521 274.581L336.564 178.353L118.942 293.766L65.1516 252.375L1 373.893L247.121 392.399L194.442 351.863L521 274.581Z" fill="#A9D054"/>
<path d="M521 274.581L336.564 178.353L118.942 293.766L65.1516 252.375L1 373.893L247.121 392.399L194.442 351.863L521 274.581Z" stroke="#502A73" stroke-width="0.724" stroke-miterlimit="10" stroke-linecap="round" stroke-linejoin="round"/>
<path d="M362.191 248.439C362.419 253.713 374.627 262.761 392.142 275.904C409.658 289.046 421.546 299.899 430.732 303.347C439.918 306.796 445.448 302.25 448.905 292.071C452.364 281.892 449.822 262.239 429.811 231.159C409.8 200.078 399.947 189.9 396.285 187.362C392.623 184.825 385.992 180.154 376.088 187.031C374.103 188.409 363.119 196.101 363.119 196.101L340.214 212.827C339.642 218.615 358.727 220.639 359.702 224.484C361.049 229.798 362.106 246.461 362.191 248.439Z" fill="#EAE7DA"/>
<path d="M362.191 248.439C362.419 253.713 374.627 262.761 392.142 275.904C409.658 289.046 421.546 299.899 430.732 303.347C439.918 306.796 445.448 302.25 448.905 292.071C452.364 281.892 449.822 262.239 429.811 231.159C409.8 200.078 399.947 189.9 396.285 187.362C392.623 184.825 385.992 180.154 376.088 187.031C374.103 188.409 363.119 196.101 363.119 196.101L340.214 212.827C339.642 218.615 358.727 220.639 359.702 224.484C361.049 229.798 362.106 246.461 362.191 248.439Z" stroke="#502A73" stroke-width="0.724" stroke-miterlimit="10" stroke-linecap="round" stroke-linejoin="round"/>
<path d="M340.678 214.592C343.262 218.578 352.265 217.784 355.588 220.585C366.001 217.842 382.677 206.24 385.59 198.411C387.779 192.527 387.215 187.389 385.868 183.444C383.058 183.497 379.803 184.451 376.088 187.03C374.103 188.409 363.12 196.101 363.12 196.101L340.296 212.767L340.678 214.592Z" fill="#4BBEA5"/>
<path d="M340.678 214.592C343.262 218.578 352.265 217.784 355.588 220.585C366.001 217.842 382.677 206.24 385.59 198.411C387.779 192.527 387.215 187.389 385.868 183.444C383.058 183.497 379.803 184.451 376.088 187.03C374.103 188.409 363.12 196.101 363.12 196.101L340.296 212.767L340.678 214.592Z" stroke="#502A73" stroke-width="0.724" stroke-miterlimit="10" stroke-linecap="round" stroke-linejoin="round"/>
<path d="M396.285 187.362C392.623 184.825 385.992 180.154 376.088 187.03C374.966 187.81 370.967 190.607 367.703 192.891C367.875 193.708 368.039 194.571 368.518 195.297C379.315 211.651 403.972 207.014 416.932 230.616C422.329 240.446 413.776 248.444 414.661 258.859C415.546 269.273 434.306 275.167 439.937 282.771C445.96 290.906 440.036 302.46 437.908 304.373C442.981 303.639 446.461 299.264 448.905 292.071C452.364 281.892 449.822 262.24 429.811 231.158C409.8 200.078 399.947 189.9 396.285 187.362Z" fill="#4BBEA5"/>
<path d="M396.285 187.362C392.623 184.825 385.992 180.154 376.088 187.03C374.966 187.81 370.967 190.607 367.703 192.891C367.875 193.708 368.039 194.571 368.518 195.297C379.315 211.651 403.972 207.014 416.932 230.616C422.329 240.446 413.776 248.444 414.661 258.859C415.546 269.273 434.306 275.167 439.937 282.771C445.96 290.906 440.036 302.46 437.908 304.373C442.981 303.639 446.461 299.264 448.905 292.071C452.364 281.892 449.822 262.24 429.811 231.158C409.8 200.078 399.947 189.9 396.285 187.362Z" stroke="#502A73" stroke-width="0.724" stroke-miterlimit="10" stroke-linecap="round" stroke-linejoin="round"/>
<path d="M374.259 217.12C374.802 217.866 375.558 218.904 376.609 220.349C380.346 225.484 387.118 233.664 387.118 233.664L391.307 227.243L374.366 216.188C374.331 216.496 374.295 216.807 374.259 217.12Z" fill="#4BBEA5"/>
<path d="M374.259 217.12C374.802 217.866 375.558 218.904 376.609 220.349C380.346 225.484 387.118 233.664 387.118 233.664L391.307 227.243L374.366 216.188C374.331 216.496 374.295 216.807 374.259 217.12Z" stroke="#502A73" stroke-width="0.724" stroke-miterlimit="10" stroke-linecap="round" stroke-linejoin="round"/>
<path d="M447.589 295.438C445.382 294.826 438.933 293.465 433.058 296.403C429.574 298.144 429.017 300.691 429.806 302.978C430.118 303.109 430.427 303.232 430.732 303.347C438.832 306.387 444.088 303.209 447.589 295.438Z" fill="#4BBEA5"/>
<path d="M447.589 295.438C445.382 294.826 438.933 293.465 433.058 296.403C429.574 298.144 429.017 300.691 429.806 302.978C430.118 303.109 430.427 303.232 430.732 303.347C438.832 306.387 444.088 303.209 447.589 295.438Z" stroke="#502A73" stroke-width="0.724" stroke-miterlimit="10" stroke-linecap="round" stroke-linejoin="round"/>
<path d="M387.037 261.741L385.253 265.342C386.691 266.432 387.923 267.383 388.78 268.072C389.419 268.588 390.027 269.068 390.603 269.513L392.131 266.429C390.626 264.982 388.863 263.369 387.037 261.741Z" fill="#4BBEA5"/>
<path d="M387.037 261.741L385.253 265.342C386.691 266.432 387.923 267.383 388.78 268.072C389.419 268.588 390.027 269.068 390.603 269.513L392.131 266.429C390.626 264.982 388.863 263.369 387.037 261.741Z" stroke="#502A73" stroke-width="0.724" stroke-miterlimit="10" stroke-linecap="round" stroke-linejoin="round"/>
<path d="M373.94 250.534L368.35 252.847C368.35 252.847 378.857 260.49 385.253 265.341L387.037 261.74C380.848 256.224 373.94 250.534 373.94 250.534Z" fill="#4BBEA5"/>
<path d="M373.94 250.534L368.35 252.847C368.35 252.847 378.857 260.49 385.253 265.341L387.037 261.74C380.848 256.224 373.94 250.534 373.94 250.534Z" stroke="#502A73" stroke-width="0.724" stroke-miterlimit="10" stroke-linecap="round" stroke-linejoin="round"/>
<path d="M396.295 270.964C395.669 269.979 394.127 268.35 392.131 266.43L390.603 269.514C396.27 273.896 398.744 274.812 396.295 270.964Z" fill="#4BBEA5"/>
<path d="M396.295 270.964C395.669 269.979 394.127 268.35 392.131 266.43L390.603 269.514C396.27 273.896 398.744 274.812 396.295 270.964Z" stroke="#502A73" stroke-width="0.724" stroke-miterlimit="10" stroke-linecap="round" stroke-linejoin="round"/>
<path d="M367.697 264.829C367.697 264.829 374.346 283.017 382.803 286.014C391.26 289.011 392.964 285.199 400.11 277.428C406.662 270.305 402.509 262.182 395.224 257.155C387.939 252.128 374.343 248.948 374.343 248.948L367.697 264.829Z" fill="#EAE7DA"/>
<path d="M367.697 264.829C367.697 264.829 374.346 283.017 382.803 286.014C391.26 289.011 392.964 285.199 400.11 277.428C406.662 270.305 402.509 262.182 395.224 257.155C387.939 252.128 374.343 248.948 374.343 248.948L367.697 264.829Z" stroke="#502A73" stroke-width="0.724" stroke-miterlimit="10" stroke-linecap="round" stroke-linejoin="round"/>
<path d="M374.696 252.907C378.559 253.849 388.324 256.71 393.437 260.239C396.475 262.335 398.555 264.927 399.145 267.351C399.727 269.75 398.954 272.129 396.844 274.423C395.889 275.461 395.019 276.443 394.251 277.308C393.599 278.043 392.993 278.726 392.419 279.351C388.745 283.345 387.476 283.759 383.369 282.303C379.234 280.838 373.913 271.759 371.564 265.36" fill="#EAE7DA"/>
<path d="M374.696 252.907C378.559 253.849 388.324 256.71 393.437 260.239C396.475 262.335 398.555 264.927 399.145 267.351C399.727 269.75 398.954 272.129 396.844 274.423C395.889 275.461 395.019 276.443 394.251 277.308C393.599 278.043 392.993 278.726 392.419 279.351C388.745 283.345 387.476 283.759 383.369 282.303C379.234 280.838 373.913 271.759 371.564 265.36" stroke="#502A73" stroke-width="0.724" stroke-miterlimit="10" stroke-linecap="round" stroke-linejoin="round"/>
<path d="M249.177 223.794C249.177 223.794 245.631 226.518 239.513 229.139C233.396 231.761 224.709 234.28 222.448 237.982C219.377 243.005 223.681 244.972 230.055 244.972H249.589C249.589 244.972 235.504 260.753 246.196 262.398C256.888 264.043 261.309 250.318 261.309 250.318L283.309 222.149" fill="#BF792A"/>
<path d="M249.177 223.794C249.177 223.794 245.631 226.518 239.513 229.139C233.396 231.761 224.709 234.28 222.448 237.982C219.377 243.005 223.681 244.972 230.055 244.972H249.589C249.589 244.972 235.504 260.753 246.196 262.398C256.888 264.043 261.309 250.318 261.309 250.318L283.309 222.149" stroke="#502A73" stroke-width="0.724" stroke-miterlimit="10" stroke-linecap="round" stroke-linejoin="round"/>
<path d="M232.331 122.483C232.431 123.769 232.529 125.021 232.626 126.23C234.27 146.997 248.149 233.253 248.149 233.253L293.385 219.271L279.633 133.628L232.331 122.483Z" fill="#008056"/>
<path d="M232.331 122.483C232.431 123.769 232.529 125.021 232.626 126.23C234.27 146.997 248.149 233.253 248.149 233.253L293.385 219.271L279.633 133.628L232.331 122.483Z" stroke="#502A73" stroke-width="0.724" stroke-miterlimit="10" stroke-linecap="round" stroke-linejoin="round"/>
<path d="M277.141 118.108L254.831 50.6668C254.831 50.6668 240.541 52.5175 233.962 63.2096C228.806 71.5878 230.718 101.663 232.332 122.483L279.633 133.629L277.141 118.108Z" fill="#008056"/>
<path d="M277.141 118.108L254.831 50.6668C254.831 50.6668 240.541 52.5175 233.962 63.2096C228.806 71.5878 230.718 101.663 232.332 122.483L279.633 133.629L277.141 118.108Z" stroke="#502A73" stroke-width="0.724" stroke-miterlimit="10" stroke-linecap="round" stroke-linejoin="round"/>
<path d="M250.565 147.408C250.565 147.408 275.342 198.658 272.103 210.224C268.865 221.79 297.446 233.047 317.339 231.197C337.232 229.346 318.11 198.761 318.11 198.761L316.722 179.33C316.722 179.33 283.412 157.587 281.562 153.423C279.711 149.259 250.565 147.408 250.565 147.408Z" fill="#EAE7DA"/>
<path d="M250.565 147.408C250.565 147.408 275.342 198.658 272.103 210.224C268.865 221.79 297.446 233.047 317.339 231.197C337.232 229.346 318.11 198.761 318.11 198.761L316.722 179.33C316.722 179.33 283.412 157.587 281.562 153.423C279.711 149.259 250.565 147.408 250.565 147.408Z" stroke="#502A73" stroke-width="0.724" stroke-miterlimit="10" stroke-linecap="round" stroke-linejoin="round"/>
<path d="M279.3 167.867L274.073 182.055C272.938 185.137 274.204 188.587 277.064 190.202L294.31 199.943L309.525 180.204L279.3 167.867Z" fill="#4BBEA5"/>
<path d="M279.3 167.867L274.073 182.055C272.938 185.137 274.204 188.587 277.064 190.202L294.31 199.943L309.525 180.204L279.3 167.867Z" stroke="#502A73" stroke-width="0.724" stroke-miterlimit="10" stroke-linecap="round" stroke-linejoin="round"/>
<path d="M357.331 181.643L329.572 144.633L289.683 135.996L284.238 136.341L283.103 134.146L221.522 109.884C221.522 109.884 202.631 102.093 178.651 102.378C152.744 102.687 142.257 132.501 135.473 161.904C128.687 191.307 117.738 256.075 117.738 256.075C117.738 256.075 123.29 270.88 175.361 277.048C203.662 280.401 207.026 269.492 207.026 269.492C207.026 269.492 212.578 198.709 219.775 190.073C226.971 181.437 281.459 177.942 281.459 177.942L281.693 177.938C274.447 186.577 252.867 213.017 242.187 233.869C229.232 259.159 218.13 280.338 233.55 302.339C248.972 324.34 278.169 317.349 298.936 308.508C314.716 301.789 355.897 283.32 374.77 274.835C380.316 272.342 383.141 266.113 381.364 260.297L357.331 181.643Z" fill="#008056"/>
<path d="M357.331 181.643L329.572 144.633L289.683 135.996L284.238 136.341L283.103 134.146L221.522 109.884C221.522 109.884 202.631 102.093 178.651 102.378C152.744 102.687 142.257 132.501 135.473 161.904C128.687 191.307 117.738 256.075 117.738 256.075C117.738 256.075 123.29 270.88 175.361 277.048C203.662 280.401 207.026 269.492 207.026 269.492C207.026 269.492 212.578 198.709 219.775 190.073C226.971 181.437 281.459 177.942 281.459 177.942L281.693 177.938C274.447 186.577 252.867 213.017 242.187 233.869C229.232 259.159 218.13 280.338 233.55 302.339C248.972 324.34 278.169 317.349 298.936 308.508C314.716 301.789 355.897 283.32 374.77 274.835C380.316 272.342 383.141 266.113 381.364 260.297L357.331 181.643Z" stroke="#502A73" stroke-width="0.724" stroke-miterlimit="10" stroke-linecap="round" stroke-linejoin="round"/>
<path d="M287.812 288.456C283.135 288.456 279.009 286.885 276.114 283.862C272.27 279.852 271.256 273.992 273.401 268.189C275.917 261.381 288.413 243.917 304.487 221.794C309.226 215.272 313.319 209.638 315.826 205.991C324.403 193.515 330.946 172.975 331.012 172.769C331.711 170.555 334.07 169.327 336.288 170.026C338.502 170.725 339.731 173.086 339.032 175.301C338.751 176.19 332.053 197.234 322.757 210.756C320.188 214.493 316.065 220.168 311.291 226.738C300.266 241.913 283.604 264.845 281.291 271.104C280.273 273.858 280.599 276.387 282.187 278.043C284.277 280.225 288.212 280.663 292.713 279.213C321.267 270.028 366.333 241.307 366.784 241.018C368.742 239.768 371.342 240.339 372.594 242.295C373.844 244.252 373.274 246.853 371.317 248.104C369.435 249.308 324.871 277.705 295.288 287.22C292.714 288.049 290.191 288.455 287.812 288.456Z" fill="#008056"/>
<path d="M287.812 288.456C283.135 288.456 279.009 286.885 276.114 283.862C272.27 279.852 271.256 273.992 273.401 268.189C275.917 261.381 288.413 243.917 304.487 221.794C309.226 215.272 313.319 209.638 315.826 205.991C324.403 193.515 330.946 172.975 331.012 172.769C331.711 170.555 334.07 169.327 336.288 170.026C338.502 170.725 339.731 173.086 339.032 175.301C338.751 176.19 332.053 197.234 322.757 210.756C320.188 214.493 316.065 220.168 311.291 226.738C300.266 241.913 283.604 264.845 281.291 271.104C280.273 273.858 280.599 276.387 282.187 278.043C284.277 280.225 288.212 280.663 292.713 279.213C321.267 270.028 366.333 241.307 366.784 241.018C368.742 239.768 371.342 240.339 372.594 242.295C373.844 244.252 373.274 246.853 371.317 248.104C369.435 249.308 324.871 277.705 295.288 287.22C292.714 288.049 290.191 288.455 287.812 288.456Z" stroke="#502A73" stroke-width="0.724" stroke-miterlimit="10" stroke-linecap="round" stroke-linejoin="round"/>
<path d="M295.852 264.711L308.497 254.842C321.142 244.972 338.414 228.626 338.414 228.626" stroke="#502A73" stroke-width="0.724" stroke-miterlimit="10" stroke-linecap="round" stroke-linejoin="round"/>
<path d="M354.246 94.0512C361.401 89.0421 372.754 84.1915 375.586 83.0139C364.687 76.1163 347.584 69.1609 321.759 61.1529C281.973 48.8158 254.832 50.6665 254.832 50.6665C244.218 62.1988 244.409 78.1125 244.962 93.2291C245.429 106.006 245.579 119.136 245.579 119.136L221.522 109.883C221.522 109.883 227.999 123.763 240.644 133.016C253.289 142.267 284.44 147.511 300.478 155.838C316.516 164.166 310.348 172.802 318.058 182.979C325.768 193.157 336.358 186.577 336.358 186.577C336.358 186.577 340.264 127.155 340.881 117.697C341.499 108.239 346.021 99.8082 354.246 94.0512Z" fill="#008056"/>
<path d="M354.246 94.0512C361.401 89.0421 372.754 84.1915 375.586 83.0139C364.687 76.1163 347.584 69.161 321.759 61.1529C281.973 48.8158 254.832 50.6665 254.832 50.6665C244.218 62.1988 244.409 78.1125 244.962 93.2291C245.429 106.006 245.579 119.136 245.579 119.136L221.522 109.883C221.522 109.883 227.999 123.763 240.644 133.016C253.289 142.267 284.44 147.511 300.478 155.838C316.516 164.166 310.348 172.802 318.058 182.979C325.768 193.157 336.358 186.577 336.358 186.577C336.358 186.577 340.264 127.155 340.881 117.697C341.499 108.239 346.021 99.8082 354.246 94.0512Z" stroke="#502A73" stroke-width="0.724" stroke-miterlimit="10" stroke-linecap="round" stroke-linejoin="round"/>
<path d="M245.579 119.136C245.579 119.136 260.795 125.716 271.384 131.473C281.917 137.2 290.153 142.95 300.993 145.66C317.442 149.773 332.452 148.95 332.452 148.95" stroke="#502A73" stroke-width="0.724" stroke-miterlimit="10" stroke-linecap="round" stroke-linejoin="round"/>
<path d="M270.481 106.973C276.729 105.083 279.924 107.873 279.924 107.873C279.924 107.873 270.894 107.827 266.883 111.39C262.87 114.954 265.747 122.271 270.014 119.594C277.077 115.16 280.763 115.997 280.763 115.997C280.763 115.997 276.636 117.46 274.206 120.412C271.776 123.365 272.451 127.252 275.489 128.077C277.335 128.578 287.804 118.511 285.291 125.712C284.351 128.406 283.807 130.301 282.693 132.45C281.947 133.889 280.606 134.936 278.908 135.712C282.612 137.832 286.16 139.843 289.824 141.576C290.747 141.115 291.54 140.52 292.151 139.749C294.205 137.157 294.319 132.193 294.511 127.928C294.86 120.206 300.716 134.195 302.584 134.587C305.656 135.231 307.696 131.995 306.562 128.186C305.429 124.377 302.202 121.148 302.202 121.148C302.202 121.148 305.869 122.078 310.686 129.365C313.595 133.768 318.901 128.416 316.549 123.323C314.196 118.231 305.945 114.125 305.945 114.125C305.945 114.125 309.881 113.049 314.886 117.643C318.423 120.889 320.403 123.589 321.791 121.752C324.427 118.264 322.864 109.606 312.79 104.501C302.288 99.1795 294.418 103.281 293.488 103.715C292.798 102.891 288.738 95.9231 277.21 95.9523C266.151 95.979 261.553 103.156 262.678 107.549C263.27 109.862 266.065 108.309 270.481 106.973Z" fill="#4BBEA5"/>
<path d="M270.481 106.973C276.729 105.083 279.924 107.873 279.924 107.873C279.924 107.873 270.894 107.827 266.883 111.39C262.87 114.954 265.747 122.271 270.014 119.594C277.077 115.16 280.763 115.997 280.763 115.997C280.763 115.997 276.636 117.46 274.206 120.412C271.776 123.365 272.451 127.252 275.489 128.077C277.335 128.578 287.804 118.511 285.291 125.712C284.351 128.406 283.807 130.301 282.693 132.45C281.947 133.889 280.606 134.936 278.908 135.712C282.612 137.832 286.16 139.843 289.824 141.576C290.747 141.115 291.54 140.52 292.151 139.749C294.205 137.157 294.319 132.193 294.511 127.928C294.86 120.206 300.716 134.195 302.584 134.587C305.656 135.231 307.696 131.995 306.562 128.186C305.429 124.377 302.202 121.148 302.202 121.148C302.202 121.148 305.869 122.078 310.686 129.365C313.595 133.768 318.901 128.416 316.549 123.323C314.196 118.231 305.945 114.125 305.945 114.125C305.945 114.125 309.881 113.049 314.886 117.643C318.423 120.889 320.403 123.589 321.791 121.752C324.427 118.264 322.864 109.606 312.79 104.501C302.288 99.1795 294.418 103.281 293.488 103.715C292.798 102.891 288.738 95.9231 277.21 95.9523C266.151 95.979 261.553 103.156 262.678 107.549C263.27 109.862 266.065 108.309 270.481 106.973Z" stroke="#502A73" stroke-width="0.724" stroke-miterlimit="10" stroke-linecap="round" stroke-linejoin="round"/>
<path d="M245.579 119.136C245.579 119.136 258.076 124.54 268.301 129.838C268.362 124.787 261.617 91.0694 272.103 71.6393C276.268 63.9213 283.172 54.7442 287.495 53.0734C267.208 49.8239 254.832 50.6666 254.832 50.6666C244.218 62.1988 235.71 74.4145 238.177 96.0044C239.629 108.707 245.579 119.136 245.579 119.136Z" fill="#EAE7DA"/>
<path d="M245.579 119.136C245.579 119.136 258.076 124.54 268.301 129.838C268.362 124.787 261.617 91.0694 272.103 71.6393C276.268 63.9213 283.172 54.7442 287.495 53.0734C267.208 49.8239 254.832 50.6666 254.832 50.6666C244.218 62.1988 235.71 74.4145 238.177 96.0044C239.629 108.707 245.579 119.136 245.579 119.136Z" stroke="#502A73" stroke-width="0.724" stroke-miterlimit="10" stroke-linecap="round" stroke-linejoin="round"/>
<path d="M284.632 54.9105L273.065 55.8634C268.607 56.2301 265.282 60.1261 265.618 64.5859L266.243 72.8729L256.766 80.4549C253.421 83.1312 252.722 87.9413 255.169 91.4577L260.692 99.3969L252.606 110.037C250.446 112.879 250.39 116.798 252.47 119.701L255.151 123.442C259.187 125.311 263.949 127.583 268.301 129.839C268.362 124.787 261.617 91.0695 272.103 71.6394C275.435 65.4657 280.518 58.3623 284.632 54.9105Z" fill="#4BBEA5"/>
<path d="M284.632 54.9105L273.065 55.8634C268.607 56.2301 265.282 60.1261 265.618 64.5859L266.243 72.8729L256.766 80.4549C253.421 83.1312 252.722 87.9413 255.169 91.4577L260.692 99.3969L252.606 110.037C250.446 112.879 250.39 116.798 252.47 119.701L255.151 123.442C259.187 125.311 263.949 127.583 268.301 129.839C268.362 124.787 261.617 91.0695 272.103 71.6394C275.435 65.4657 280.518 58.3623 284.632 54.9105Z" stroke="#502A73" stroke-width="0.724" stroke-miterlimit="10" stroke-linecap="round" stroke-linejoin="round"/>
<path d="M368.35 252.847C368.35 252.847 377.926 248.932 388.071 245.589C415.211 236.645 411.664 208.578 404.262 195.316C398.11 184.293 384.677 187.143 385.603 156.609C386.528 126.075 384.215 132.552 384.215 132.552L370.798 139.029" fill="#EAE7DA"/>
<path d="M368.35 252.847C368.35 252.847 377.926 248.932 388.071 245.589C415.211 236.645 411.664 208.578 404.262 195.316C398.11 184.293 384.677 187.143 385.603 156.609C386.528 126.075 384.215 132.552 384.215 132.552L370.798 139.029" stroke="#502A73" stroke-width="0.724" stroke-miterlimit="10" stroke-linecap="round" stroke-linejoin="round"/>
<path d="M329.806 269.567C329.815 269.574 329.828 269.584 329.841 269.594C329.848 269.601 329.857 269.608 329.867 269.616C329.884 269.63 329.908 269.647 329.931 269.665C329.952 269.68 329.975 269.698 330 269.716C330.022 269.733 330.046 269.75 330.073 269.77C330.098 269.787 330.125 269.807 330.153 269.826C330.176 269.842 330.202 269.86 330.228 269.877C330.261 269.901 330.293 269.923 330.329 269.947C330.359 269.966 330.391 269.988 330.423 270.008C330.49 270.051 330.561 270.098 330.638 270.146C330.676 270.169 330.713 270.192 330.752 270.217C330.8 270.246 330.852 270.277 330.904 270.309C330.946 270.333 330.989 270.359 331.033 270.384C331.09 270.417 331.146 270.45 331.208 270.485C331.257 270.513 331.312 270.543 331.365 270.572C331.468 270.629 331.578 270.688 331.692 270.749C331.754 270.781 331.816 270.814 331.881 270.848C331.95 270.884 332.022 270.92 332.095 270.956C332.166 270.991 332.239 271.027 332.312 271.064C332.387 271.1 332.46 271.136 332.537 271.173C336.218 272.926 344.005 275.515 358.359 275.918C364.087 276.078 368.746 275.832 372.519 275.384C381.195 274.354 385.138 272.243 386.326 271.476C386.334 271.47 386.344 271.464 386.352 271.459C386.39 271.434 386.426 271.411 386.458 271.388C386.467 271.382 386.475 271.377 386.483 271.372C386.536 271.335 386.58 271.304 386.616 271.278C386.624 271.272 386.635 271.264 386.643 271.258C386.656 271.248 386.668 271.24 386.678 271.231C386.688 271.224 386.699 271.215 386.706 271.21C386.711 271.206 386.717 271.202 386.72 271.2C386.727 271.194 386.734 271.188 386.734 271.188L384.891 248.752C384.33 241.931 384.086 235.091 384.16 228.247C384.323 213.08 384.693 186.18 385.295 181.437C386.093 175.141 386.887 168.892 387.628 162.794C388.006 159.692 388.369 156.63 388.714 153.62C391.941 125.421 393.454 101.874 388.225 94.3083C385.561 90.4553 381.479 86.7435 375.586 83.0136C372.754 84.1912 361.402 89.0427 354.246 94.0509C346.022 99.8088 341.498 108.239 340.881 117.697C340.549 122.803 339.257 142.465 338.139 159.483C337.973 162.006 337.811 164.472 337.657 166.822C336.922 177.987 336.358 186.578 336.358 186.578C334.269 196.413 329.779 269.541 329.779 269.543C329.779 269.543 329.785 269.549 329.792 269.555C329.796 269.558 329.802 269.562 329.806 269.567Z" fill="#008056"/>
<path d="M329.806 269.567C329.815 269.574 329.828 269.584 329.841 269.594C329.848 269.601 329.857 269.608 329.867 269.616C329.884 269.63 329.908 269.647 329.931 269.665C329.952 269.68 329.975 269.698 330 269.716C330.022 269.733 330.046 269.75 330.073 269.77C330.098 269.787 330.125 269.807 330.153 269.826C330.176 269.842 330.202 269.86 330.228 269.877C330.261 269.901 330.293 269.923 330.329 269.947C330.359 269.966 330.391 269.988 330.423 270.008C330.49 270.051 330.561 270.098 330.638 270.146C330.676 270.169 330.713 270.192 330.752 270.217C330.8 270.246 330.852 270.277 330.904 270.309C330.946 270.333 330.989 270.359 331.033 270.384C331.09 270.417 331.146 270.45 331.208 270.485C331.257 270.513 331.312 270.543 331.365 270.572C331.468 270.629 331.578 270.688 331.692 270.749C331.754 270.781 331.816 270.814 331.881 270.848C331.95 270.884 332.022 270.92 332.095 270.956C332.166 270.991 332.239 271.027 332.312 271.064C332.387 271.1 332.46 271.136 332.537 271.173C336.218 272.926 344.005 275.515 358.359 275.918C364.087 276.078 368.746 275.832 372.519 275.384C381.195 274.354 385.138 272.243 386.326 271.476C386.334 271.47 386.344 271.464 386.352 271.459C386.39 271.434 386.426 271.411 386.458 271.388C386.467 271.382 386.475 271.377 386.483 271.372C386.536 271.335 386.58 271.304 386.616 271.278C386.624 271.272 386.635 271.264 386.643 271.258C386.656 271.248 386.668 271.24 386.678 271.231C386.688 271.224 386.699 271.215 386.706 271.21C386.711 271.206 386.717 271.202 386.72 271.2C386.727 271.194 386.734 271.188 386.734 271.188L384.891 248.752C384.33 241.931 384.086 235.091 384.16 228.247C384.323 213.08 384.693 186.18 385.295 181.437C386.093 175.141 386.887 168.892 387.628 162.794C388.006 159.692 388.369 156.63 388.714 153.62C391.941 125.421 393.454 101.874 388.225 94.3083C385.561 90.4553 381.479 86.7435 375.586 83.0136C372.754 84.1912 361.402 89.0427 354.246 94.0509C346.022 99.8088 341.498 108.239 340.881 117.697C340.549 122.803 339.257 142.465 338.139 159.483C337.973 162.006 337.811 164.472 337.657 166.822C336.922 177.987 336.358 186.578 336.358 186.578C334.269 196.413 329.779 269.541 329.779 269.543C329.779 269.543 329.785 269.549 329.792 269.555C329.796 269.558 329.802 269.562 329.806 269.567Z" stroke="#502A73" stroke-width="0.724" stroke-miterlimit="10" stroke-linecap="round" stroke-linejoin="round"/>
<path d="M386.484 271.37C386.475 271.376 386.468 271.382 386.459 271.388" stroke="#502A73" stroke-width="0.724" stroke-miterlimit="10" stroke-linecap="round" stroke-linejoin="round"/>
<path d="M386.354 271.458C386.345 271.463 386.335 271.47 386.326 271.476" stroke="#502A73" stroke-width="0.724" stroke-miterlimit="10" stroke-linecap="round" stroke-linejoin="round"/>
<path d="M330.228 269.878C330.202 269.86 330.176 269.843 330.153 269.826C330.176 269.843 330.201 269.86 330.228 269.878Z" fill="#008056"/>
<path d="M330.228 269.878C330.202 269.86 330.176 269.843 330.153 269.826C330.176 269.843 330.201 269.86 330.228 269.878Z" stroke="#502A73" stroke-width="0.724" stroke-miterlimit="10" stroke-linecap="round" stroke-linejoin="round"/>
<path d="M386.708 271.209C386.701 271.215 386.689 271.223 386.678 271.231C386.69 271.222 386.7 271.215 386.708 271.209Z" fill="#008056"/>
<path d="M386.708 271.209C386.701 271.215 386.689 271.223 386.678 271.231C386.69 271.222 386.7 271.215 386.708 271.209Z" stroke="#502A73" stroke-width="0.724" stroke-miterlimit="10" stroke-linecap="round" stroke-linejoin="round"/>
<path d="M329.793 269.555C329.786 269.55 329.778 269.544 329.778 269.544C329.778 269.544 329.784 269.548 329.793 269.555Z" fill="#008056"/>
<path d="M329.793 269.555C329.786 269.55 329.778 269.544 329.778 269.544C329.778 269.544 329.784 269.548 329.793 269.555Z" stroke="#502A73" stroke-width="0.724" stroke-miterlimit="10" stroke-linecap="round" stroke-linejoin="round"/>
<path d="M386.734 271.188C386.734 271.188 386.727 271.194 386.72 271.2C386.729 271.193 386.734 271.188 386.734 271.188Z" fill="#008056"/>
<path d="M386.734 271.188C386.734 271.188 386.727 271.194 386.72 271.2C386.729 271.193 386.734 271.188 386.734 271.188Z" stroke="#502A73" stroke-width="0.724" stroke-miterlimit="10" stroke-linecap="round" stroke-linejoin="round"/>
<path d="M386.644 271.257C386.636 271.264 386.625 271.272 386.616 271.278C386.625 271.271 386.636 271.264 386.644 271.257Z" fill="#008056"/>
<path d="M386.644 271.257C386.636 271.264 386.625 271.272 386.616 271.278C386.625 271.271 386.636 271.264 386.644 271.257Z" stroke="#502A73" stroke-width="0.724" stroke-miterlimit="10" stroke-linecap="round" stroke-linejoin="round"/>
<path d="M358.359 275.917C344.005 275.515 336.219 272.925 332.537 271.173C332.678 271.24 332.821 271.307 332.973 271.376C332.976 271.566 332.98 271.758 332.983 271.944C333.037 274.974 331.652 277.851 329.244 279.69C326.672 281.652 323.453 284.504 321.759 287.535C317.038 295.983 316.379 306.708 313.947 310.358C309.834 316.526 313.124 322.078 321.349 319.61C329.573 317.143 334.713 307.89 334.713 307.89C334.713 307.89 342.578 326.704 352.756 330.868C360.08 333.864 364.116 330.097 364.116 330.097C364.116 330.097 368.332 332.705 372.547 331.742C377.044 330.714 378.355 327.552 378.355 327.552C378.355 327.552 382.442 330.097 387.145 328.452C390.771 327.184 389.844 322.849 389.844 322.849C389.844 322.849 396.398 322.9 396.192 318.582C395.987 314.265 390.229 308.508 382.416 299.666C377.074 293.621 373.366 285.367 371.555 280.749C371.853 279.188 372.171 277.391 372.509 275.385C372.512 275.385 372.516 275.385 372.519 275.385C368.747 275.832 364.087 276.078 358.359 275.917Z" fill="#BF792A"/>
<path d="M358.359 275.917C344.005 275.515 336.219 272.925 332.537 271.173C332.678 271.24 332.821 271.307 332.973 271.376C332.976 271.566 332.98 271.758 332.983 271.944C333.037 274.974 331.652 277.851 329.244 279.69C326.672 281.652 323.453 284.504 321.759 287.535C317.038 295.983 316.379 306.708 313.947 310.358C309.834 316.526 313.124 322.078 321.349 319.61C329.573 317.143 334.713 307.89 334.713 307.89C334.713 307.89 342.578 326.704 352.756 330.868C360.08 333.864 364.116 330.097 364.116 330.097C364.116 330.097 368.332 332.705 372.547 331.742C377.044 330.714 378.355 327.552 378.355 327.552C378.355 327.552 382.442 330.097 387.145 328.452C390.771 327.184 389.844 322.849 389.844 322.849C389.844 322.849 396.398 322.9 396.192 318.582C395.987 314.265 390.229 308.508 382.416 299.666C377.074 293.621 373.366 285.367 371.555 280.749C371.853 279.188 372.171 277.391 372.509 275.385C372.512 275.385 372.516 275.385 372.519 275.385C368.747 275.832 364.087 276.078 358.359 275.917Z" stroke="#502A73" stroke-width="0.724" stroke-miterlimit="10" stroke-linecap="round" stroke-linejoin="round"/>
<path d="M330.752 270.216C330.713 270.192 330.676 270.169 330.638 270.146" stroke="#502A73" stroke-width="0.724" stroke-miterlimit="10" stroke-linecap="round" stroke-linejoin="round"/>
<path d="M332.313 271.063C332.239 271.027 332.165 270.991 332.094 270.956" stroke="#502A73" stroke-width="0.724" stroke-miterlimit="10" stroke-linecap="round" stroke-linejoin="round"/>
<path d="M330.074 269.77C330.047 269.751 330.023 269.732 330 269.715C330.023 269.732 330.046 269.75 330.074 269.77Z" fill="#008056"/>
<path d="M330.074 269.77C330.047 269.751 330.023 269.732 330 269.715C330.023 269.732 330.046 269.75 330.074 269.77Z" stroke="#502A73" stroke-width="0.724" stroke-miterlimit="10" stroke-linecap="round" stroke-linejoin="round"/>
<path d="M330.424 270.008C330.393 269.988 330.359 269.966 330.33 269.947C330.359 269.966 330.392 269.988 330.424 270.008Z" fill="#008056"/>
<path d="M330.424 270.008C330.393 269.988 330.359 269.966 330.33 269.947C330.359 269.966 330.392 269.988 330.424 270.008Z" stroke="#502A73" stroke-width="0.724" stroke-miterlimit="10" stroke-linecap="round" stroke-linejoin="round"/>
<path d="M331.033 270.383C330.989 270.357 330.946 270.332 330.905 270.307" stroke="#502A73" stroke-width="0.724" stroke-miterlimit="10" stroke-linecap="round" stroke-linejoin="round"/>
<path d="M331.882 270.848C331.816 270.814 331.755 270.781 331.693 270.748" stroke="#502A73" stroke-width="0.724" stroke-miterlimit="10" stroke-linecap="round" stroke-linejoin="round"/>
<path d="M329.931 269.665C329.908 269.646 329.885 269.629 329.868 269.615C329.886 269.63 329.907 269.646 329.931 269.665Z" fill="#008056"/>
<path d="M329.931 269.665C329.908 269.646 329.885 269.629 329.868 269.615C329.886 269.63 329.907 269.646 329.931 269.665Z" stroke="#502A73" stroke-width="0.724" stroke-miterlimit="10" stroke-linecap="round" stroke-linejoin="round"/>
<path d="M329.841 269.594C329.828 269.584 329.815 269.573 329.806 269.566C329.816 269.574 329.827 269.583 329.841 269.594Z" fill="#008056"/>
<path d="M329.841 269.594C329.828 269.584 329.815 269.573 329.806 269.566C329.816 269.574 329.827 269.583 329.841 269.594Z" stroke="#502A73" stroke-width="0.724" stroke-miterlimit="10" stroke-linecap="round" stroke-linejoin="round"/>
<path d="M331.365 270.572C331.313 270.543 331.258 270.514 331.208 270.485" stroke="#502A73" stroke-width="0.724" stroke-miterlimit="10" stroke-linecap="round" stroke-linejoin="round"/>
<path d="M352.253 309.359C353.291 310.776 354.604 312.435 356.184 314.18C361.058 319.561 365.748 326.124 364.116 330.097" fill="#BF792A"/>
<path d="M352.253 309.359C353.291 310.776 354.604 312.435 356.184 314.18C361.058 319.561 365.748 326.124 364.116 330.097" stroke="#502A73" stroke-width="0.724" stroke-miterlimit="10" stroke-linecap="round" stroke-linejoin="round"/>
<path d="M378.355 327.552C378.355 327.552 379.28 326.704 377.353 322.001C376.366 319.594 369.554 312.15 365.344 307.683" fill="#BF792A"/>
<path d="M378.355 327.552C378.355 327.552 379.28 326.704 377.353 322.001C376.366 319.594 369.554 312.15 365.344 307.683" stroke="#502A73" stroke-width="0.724" stroke-miterlimit="10" stroke-linecap="round" stroke-linejoin="round"/>
<path d="M389.844 322.849C389.844 322.849 389.15 319.764 386.606 316.372C385.158 314.442 381.961 311.264 379.024 307.993C376.798 305.515 374.5 302.544 374.5 302.544" fill="#BF792A"/>
<path d="M389.844 322.849C389.844 322.849 389.15 319.764 386.606 316.372C385.158 314.442 381.961 311.264 379.024 307.993C376.798 305.515 374.5 302.544 374.5 302.544" stroke="#502A73" stroke-width="0.724" stroke-miterlimit="10" stroke-linecap="round" stroke-linejoin="round"/>
<path d="M339.237 188.428C339.237 188.428 346.639 192.952 355.686 193.569C364.733 194.185 369.874 191.924 369.874 191.924" stroke="#502A73" stroke-width="0.724" stroke-miterlimit="10" stroke-linecap="round" stroke-linejoin="round"/>
<path d="M281.459 177.942L281.694 177.938C281.694 177.938 287.833 171.877 286.599 166.942C285.365 162.007 280.145 162.572 268.711 162.315C232.111 161.493 208.26 151.006 199.007 159.848C187.857 170.502 185.002 205.377 182.352 223.074C179.36 243.06 177.182 265.339 176.128 277.134" stroke="#502A73" stroke-width="0.724" stroke-miterlimit="10" stroke-linecap="round" stroke-linejoin="round"/>
<path d="M128.019 266.941C128.019 266.941 109.939 255.808 115.425 246.07C119.537 238.772 126.026 238.819 141.743 240.725C156.151 242.472 159.637 253.182 156.543 263.346C153.45 273.51 152.636 278.087 152.636 278.087L94.3826 320.064L84.6787 311.312L128.019 266.941Z" fill="#EAE7DA"/>
<path d="M128.019 266.941C128.019 266.941 109.939 255.808 115.425 246.07C119.537 238.772 126.026 238.819 141.743 240.725C156.151 242.472 159.637 253.182 156.543 263.346C153.45 273.51 152.636 278.087 152.636 278.087L94.3826 320.064L84.6787 311.312L128.019 266.941Z" stroke="#502A73" stroke-width="0.724" stroke-miterlimit="10" stroke-linecap="round" stroke-linejoin="round"/>
<path d="M149.076 274.122C152.435 270.344 149.304 268.936 151.475 261.803C152.764 257.565 152.493 253.581 150.729 250.873C148.983 248.192 145.745 246.547 141.105 245.985C139.006 245.73 137.058 245.465 135.338 245.232C133.877 245.034 132.522 244.849 131.259 244.696C123.179 243.716 119.845 244.94 118.232 248.723C116.393 253.038 124.624 257.397 129.379 263.445C130.771 265.216 131.789 267.261 132.314 269.451C132.411 269.857 132.492 270.271 132.542 270.667" fill="#EAE7DA"/>
<path d="M149.076 274.122C152.435 270.344 149.304 268.936 151.475 261.803C152.764 257.565 152.493 253.581 150.729 250.873C148.983 248.192 145.745 246.547 141.105 245.985C139.006 245.73 137.058 245.465 135.338 245.232C133.877 245.034 132.522 244.849 131.259 244.696C123.179 243.716 119.845 244.94 118.232 248.723C116.393 253.038 124.624 257.397 129.379 263.445C130.771 265.216 131.789 267.261 132.314 269.451C132.411 269.857 132.492 270.271 132.542 270.667" stroke="#502A73" stroke-width="0.724" stroke-miterlimit="10" stroke-linecap="round" stroke-linejoin="round"/>
<path d="M152.133 273.014L125.459 269.779" stroke="#502A73" stroke-width="0.724" stroke-miterlimit="10" stroke-linecap="round" stroke-linejoin="round"/>
<path d="M117.759 277.408L144.433 280.643" stroke="#502A73" stroke-width="0.724" stroke-miterlimit="10" stroke-linecap="round" stroke-linejoin="round"/>
<path d="M110.061 285.037L136.734 288.272" stroke="#502A73" stroke-width="0.724" stroke-miterlimit="10" stroke-linecap="round" stroke-linejoin="round"/>
<path d="M102.362 292.666L129.036 295.901" stroke="#502A73" stroke-width="0.724" stroke-miterlimit="10" stroke-linecap="round" stroke-linejoin="round"/>
<path d="M94.6626 300.295L121.336 303.53" stroke="#502A73" stroke-width="0.724" stroke-miterlimit="10" stroke-linecap="round" stroke-linejoin="round"/>
<path d="M124.754 264.653C124.754 264.653 108.399 276.709 95.3648 288.419C77.986 304.032 64.1675 314.229 58.6583 323.13C53.1483 332.031 56.7628 338.759 66.7009 344.484C76.6389 350.209 97.7338 351.615 134.403 337.101C171.074 322.587 183.764 314.379 187.178 311.072C190.591 307.765 196.852 301.79 191.704 290.001C190.672 287.638 189.04 283.462 189.04 283.462L183.123 277.632C181.478 277.376 172.175 277.786 165.205 270.173C162.863 267.615 160.12 264.878 155.894 265.102C150.053 265.413 141.677 271.955 131.099 281.056C126.535 284.983 106.022 303.873 101.291 308.233C100.718 308.761 99.86 308.823 99.2152 308.385C98.369 307.811 98.2287 306.621 98.92 305.867C102.218 302.27 111.113 292.694 118.049 286.385C121.143 283.57 124.579 279.926 126.715 277.595C128.079 276.107 129.033 274.29 129.488 272.323C130.068 269.816 128.975 267.22 126.777 265.883L124.754 264.653Z" fill="#EAE7DA"/>
<path d="M124.754 264.653C124.754 264.653 108.399 276.709 95.3648 288.419C77.986 304.032 64.1675 314.229 58.6583 323.13C53.1483 332.031 56.7628 338.759 66.7009 344.484C76.6389 350.209 97.7338 351.615 134.403 337.101C171.074 322.587 183.764 314.379 187.178 311.072C190.591 307.765 196.852 301.79 191.704 290.001C190.672 287.638 189.04 283.462 189.04 283.462L183.123 277.632C181.478 277.376 172.175 277.786 165.205 270.173C162.863 267.615 160.12 264.878 155.894 265.102C150.053 265.413 141.677 271.955 131.099 281.056C126.535 284.983 106.022 303.873 101.291 308.233C100.718 308.761 99.86 308.823 99.2152 308.385C98.369 307.811 98.2287 306.621 98.92 305.867C102.218 302.27 111.113 292.694 118.049 286.385C121.143 283.57 124.579 279.926 126.715 277.595C128.079 276.107 129.033 274.29 129.488 272.323C130.068 269.816 128.975 267.22 126.777 265.883L124.754 264.653Z" stroke="#502A73" stroke-width="0.724" stroke-miterlimit="10" stroke-linecap="round" stroke-linejoin="round"/>
<path d="M187.374 277.698C185.282 277.725 182.975 277.633 180.424 277.392C181.667 282.346 184.515 291.987 189.793 298.276C191.027 299.747 192.136 301.068 193.139 302.264C194.02 299.089 193.924 295.087 191.703 290.002C191.07 288.552 188.932 282.307 187.374 277.698Z" fill="#4BBEA5"/>
<path d="M187.374 277.698C185.282 277.725 182.975 277.633 180.424 277.392C181.667 282.346 184.515 291.987 189.793 298.276C191.027 299.747 192.136 301.068 193.139 302.264C194.02 299.089 193.924 295.087 191.703 290.002C191.07 288.552 188.932 282.307 187.374 277.698Z" stroke="#502A73" stroke-width="0.724" stroke-miterlimit="10" stroke-linecap="round" stroke-linejoin="round"/>
<path d="M187.084 291.391C176.817 288.374 172.467 292.808 168.165 297.602C163.861 302.397 160.431 318.284 148.767 320.945C137.103 323.606 133.293 314.107 122.143 313.995C110.992 313.883 101.741 331.722 94.1937 338.427C86.647 345.132 71.4753 337.267 71.4753 337.267L71.7129 346.651C83.0489 350.28 103.017 349.524 134.404 337.101C171.074 322.587 183.765 314.379 187.178 311.072C189.672 308.657 193.678 304.815 193.655 298.327C193.15 295.505 191.461 292.677 187.084 291.391Z" fill="#4BBEA5"/>
<path d="M187.084 291.391C176.817 288.374 172.467 292.808 168.165 297.602C163.861 302.397 160.431 318.284 148.767 320.945C137.103 323.606 133.293 314.107 122.143 313.995C110.992 313.883 101.741 331.722 94.1937 338.427C86.647 345.132 71.4753 337.267 71.4753 337.267L71.7129 346.651C83.0489 350.28 103.017 349.524 134.404 337.101C171.074 322.587 183.765 314.379 187.178 311.072C189.672 308.657 193.678 304.815 193.655 298.327C193.15 295.505 191.461 292.677 187.084 291.391Z" stroke="#502A73" stroke-width="0.724" stroke-miterlimit="10" stroke-linecap="round" stroke-linejoin="round"/>
<path d="M64.2622 328.063C59.9272 327.752 57.5342 329.939 56.2197 332.653C56.9531 337.143 60.6529 341 66.7009 344.484C70.0839 346.433 74.7632 347.879 80.9068 348.369C78.9502 339.344 73.6313 328.734 64.2622 328.063Z" fill="#4BBEA5"/>
<path d="M64.2622 328.063C59.9272 327.752 57.5342 329.939 56.2197 332.653C56.9531 337.143 60.6529 341 66.7009 344.484C70.0839 346.433 74.7632 347.879 80.9068 348.369C78.9502 339.344 73.6312 328.734 64.2622 328.063Z" stroke="#502A73" stroke-width="0.724" stroke-miterlimit="10" stroke-linecap="round" stroke-linejoin="round"/>
<path d="M171.873 279.605C170.979 280.019 169.736 280.595 168.007 281.397C161.859 284.246 151.897 289.64 151.897 289.64L157.751 295.354L172.826 279.91C172.511 279.81 172.193 279.708 171.873 279.605Z" fill="#4BBEA5"/>
<path d="M171.873 279.605C170.979 280.019 169.736 280.595 168.007 281.397C161.859 284.246 151.897 289.64 151.897 289.64L157.751 295.354L172.826 279.91C172.511 279.81 172.193 279.708 171.873 279.605Z" stroke="#502A73" stroke-width="0.724" stroke-miterlimit="10" stroke-linecap="round" stroke-linejoin="round"/>
<path d="M473.72 150.547C471.516 147.952 469.995 145.369 468.947 142.939H470.615C483.345 142.939 493.665 132.62 493.665 119.889V105.538C493.665 92.8084 483.345 82.4882 470.615 82.4882H428.505C415.776 82.4882 405.456 92.8084 405.456 105.538V119.889C405.456 132.62 415.776 142.939 428.505 142.939H448.616C450.573 150.525 455.507 158.75 467.14 162.884C478.978 167.091 499.216 163.295 499.216 163.295C499.216 163.295 482.973 161.445 473.72 150.547Z" fill="#4BBEA5"/>
<path d="M473.72 150.547C471.516 147.952 469.995 145.369 468.947 142.939H470.615C483.345 142.939 493.665 132.62 493.665 119.889V105.538C493.665 92.8084 483.345 82.4882 470.615 82.4882H428.505C415.776 82.4882 405.456 92.8084 405.456 105.538V119.889C405.456 132.62 415.776 142.939 428.505 142.939H448.616C450.573 150.525 455.507 158.75 467.14 162.884C478.978 167.091 499.216 163.295 499.216 163.295C499.216 163.295 482.973 161.445 473.72 150.547Z" stroke="#502A73" stroke-width="0.724" stroke-miterlimit="10" stroke-linecap="round" stroke-linejoin="round"/>
<path d="M480.931 106.148L449.798 108.237L449.017 97.2928L417.485 115.489L451.352 129.985L450.673 120.479L480.465 124.763L480.931 106.148Z" fill="#EEC718"/>
<path d="M480.931 106.148L449.798 108.237L449.017 97.2928L417.485 115.489L451.352 129.985L450.673 120.479L480.465 124.763L480.931 106.148Z" stroke="#502A73" stroke-width="0.724" stroke-miterlimit="10" stroke-linecap="round" stroke-linejoin="round"/>
<path d="M355.892 73.1655L348.592 74.7227C348.592 74.7227 322.417 77.9198 312.969 96.0044C296.777 127 321.223 155.751 296.777 192.232C266.706 237.107 272.257 260.702 272.257 260.702C272.257 260.702 268.523 280.64 306.493 277.819C318.598 276.919 327.114 268.932 329.917 267.313C330.688 254.989 334.487 195.388 336.358 186.578C336.358 186.578 336.923 177.987 337.656 166.821C337.811 164.471 337.973 162.006 338.138 159.483C338.207 158.44 338.276 157.389 338.346 156.33C338.409 155.376 338.471 154.418 338.534 153.457C338.552 153.192 338.57 152.928 338.587 152.663C339.444 139.609 340.315 126.343 340.724 120.105C340.726 120.076 340.728 120.05 340.729 120.022C340.764 119.498 340.794 119.029 340.821 118.612C340.844 118.273 340.865 117.96 340.882 117.697C341.498 108.238 346.022 99.8084 354.247 94.0504C361.402 89.0423 372.755 84.1908 375.587 83.014C370.474 79.7774 363.995 76.5296 355.892 73.1655Z" fill="#EAE7DA"/>
<path d="M355.892 73.1655L348.592 74.7227C348.592 74.7227 322.417 77.9198 312.969 96.0044C296.777 127 321.223 155.751 296.777 192.232C266.706 237.107 272.257 260.702 272.257 260.702C272.257 260.702 268.523 280.64 306.493 277.819C318.598 276.919 327.114 268.932 329.917 267.313C330.688 254.989 334.487 195.388 336.358 186.578C336.358 186.578 336.923 177.987 337.656 166.821C337.811 164.471 337.973 162.006 338.138 159.483C338.207 158.44 338.276 157.389 338.346 156.33C338.409 155.376 338.471 154.418 338.534 153.457C338.552 153.192 338.57 152.928 338.587 152.663C339.444 139.609 340.315 126.343 340.724 120.105C340.726 120.076 340.728 120.05 340.729 120.022C340.764 119.498 340.794 119.029 340.821 118.612C340.844 118.273 340.865 117.96 340.882 117.697C341.498 108.238 346.022 99.8084 354.247 94.0504C361.402 89.0423 372.755 84.1908 375.587 83.014C370.474 79.7774 363.995 76.5296 355.892 73.1655Z" stroke="#502A73" stroke-width="0.724" stroke-miterlimit="10" stroke-linecap="round" stroke-linejoin="round"/>
<path d="M312.969 96.0049C296.778 127.002 321.223 155.753 296.778 192.233C266.706 237.108 272.258 260.702 272.258 260.702C272.258 260.702 270.478 270.222 281.904 275.175L294.343 268.333C297.094 266.821 298.183 263.423 296.827 260.594L288.45 243.123L304.608 231.479C307.265 229.564 307.861 225.857 305.938 223.207L298.011 212.28L318.032 197.65C320.362 195.946 321.123 192.81 319.833 190.229L313.432 177.429L324.96 165.181C326.871 163.15 327.104 160.059 325.518 157.765L316.516 144.736L327.989 131.59C329.907 129.393 329.936 126.126 328.059 123.894L319.909 114.202L331.591 106.114C334.07 104.398 334.861 101.091 333.428 98.4384L329.778 91.6871L347.187 87.217C350.248 86.431 352.196 83.4311 351.667 80.3159L350.644 74.2859L348.682 74.7043C348.625 74.7172 348.571 74.7267 348.513 74.7336C346.933 74.9436 322.114 78.4996 312.969 96.0049Z" fill="#4BBEA5"/>
<path d="M312.969 96.0049C296.778 127.002 321.223 155.753 296.778 192.233C266.706 237.108 272.258 260.702 272.258 260.702C272.258 260.702 270.478 270.222 281.904 275.175L294.343 268.333C297.094 266.821 298.183 263.423 296.827 260.594L288.45 243.123L304.608 231.479C307.265 229.564 307.861 225.857 305.938 223.207L298.011 212.28L318.032 197.65C320.362 195.946 321.123 192.81 319.833 190.229L313.432 177.429L324.96 165.181C326.871 163.15 327.104 160.059 325.518 157.765L316.516 144.736L327.989 131.59C329.907 129.393 329.936 126.126 328.059 123.894L319.909 114.202L331.591 106.114C334.07 104.398 334.861 101.091 333.428 98.4384L329.778 91.6871L347.187 87.217C350.248 86.431 352.196 83.4311 351.667 80.3159L350.644 74.2859L348.682 74.7043C348.625 74.7172 348.571 74.7267 348.513 74.7336C346.933 74.9436 322.114 78.4996 312.969 96.0049Z" stroke="#502A73" stroke-width="0.724" stroke-miterlimit="10" stroke-linecap="round" stroke-linejoin="round"/>
<path d="M300.606 76.6049L323.05 68.1061C322.957 65.8999 322.527 55.5849 322.4 52.8019C321.8 39.746 320.849 22.1245 319.861 16.6489C317.931 5.95508 316.505 3.11872 309.648 1.07259C303.856 -0.656769 295.479 2.41717 288.944 6.07645C285.023 8.27237 284.398 20.9357 284.398 20.9357C284.398 20.9357 283.742 25.127 283.056 30.6266C282.992 31.2981 282.7 31.9273 282.228 32.4094L278.507 36.945C277.525 38.1423 277.781 39.9242 279.062 40.7953L281.471 42.4343C282.427 43.1531 282.113 43.636 281.244 44.9668C280.015 46.8468 281.863 47.9547 282.282 48.2095C283.032 48.6683 281.871 48.701 281.641 50.1859C281.444 51.4581 282.064 51.8886 282.107 52.6426C282.157 53.5189 282.215 54.1533 282.273 54.7223C282.617 58.0218 285.133 60.6765 288.41 61.1896L297.163 62.5591L299.496 77.0852L300.606 76.6049Z" fill="#BF792A"/>
<path d="M300.606 76.6049L323.05 68.1061C322.957 65.8999 322.527 55.5849 322.4 52.8019C321.8 39.746 320.849 22.1245 319.861 16.6489C317.931 5.95508 316.505 3.11872 309.648 1.07259C303.856 -0.656772 295.479 2.41717 288.944 6.07646C285.023 8.27237 284.398 20.9357 284.398 20.9357C284.398 20.9357 283.742 25.127 283.056 30.6266C282.992 31.2981 282.7 31.9273 282.228 32.4094L278.507 36.945C277.525 38.1423 277.781 39.9242 279.062 40.7953L281.471 42.4343C282.427 43.1531 282.113 43.636 281.244 44.9668C280.015 46.8468 281.863 47.9547 282.282 48.2095C283.032 48.6683 281.871 48.701 281.641 50.1859C281.444 51.4581 282.064 51.8886 282.107 52.6426C282.157 53.5189 282.215 54.1533 282.273 54.7223C282.617 58.0218 285.133 60.6765 288.41 61.1896L297.163 62.5591L299.496 77.0852L300.606 76.6049Z" stroke="#502A73" stroke-width="0.724" stroke-miterlimit="10" stroke-linecap="round" stroke-linejoin="round"/>
<path d="M310.876 32.929C310.984 31.8668 311.207 30.9397 311.535 30.3208C312.853 27.846 315.583 26.7235 318.058 28.0414C320.533 29.3593 321.011 32.2696 320.283 34.9777C319.602 37.5042 318.181 39.6898 316.627 40.87C315.438 41.7721 314.172 42.0863 313.099 41.5147" fill="#BF792A"/>
<path d="M310.876 32.929C310.984 31.8668 311.207 30.9397 311.535 30.3208C312.853 27.846 315.583 26.7235 318.058 28.0414C320.533 29.3593 321.011 32.2696 320.283 34.9777C319.602 37.5042 318.181 39.6898 316.627 40.87C315.438 41.7721 314.172 42.0863 313.099 41.5147" stroke="#502A73" stroke-width="0.724" stroke-miterlimit="10" stroke-linecap="round" stroke-linejoin="round"/>
<path d="M308.876 33.9946C308.876 33.9946 307.992 35.4675 306.437 35.4864C304.883 35.5062 303.293 33.8121 303.293 33.8121" stroke="#502A73" stroke-width="0.724" stroke-miterlimit="10" stroke-linecap="round" stroke-linejoin="round"/>
<path d="M313.354 33.3627C313.354 33.3627 314.148 30.4472 316.578 31.741C318.155 32.5803 317.635 35.2427 316.101 35.971C315.25 36.3747 314.037 35.9185 314.037 35.9185C314.037 35.9185 314.822 36.5727 314.371 37.3741C313.806 38.383 312.703 37.4628 312.703 37.4628" fill="#BF792A"/>
<path d="M313.354 33.3627C313.354 33.3627 314.148 30.4472 316.578 31.741C318.155 32.5803 317.635 35.2427 316.101 35.971C315.25 36.3747 314.037 35.9185 314.037 35.9185C314.037 35.9185 314.822 36.5727 314.371 37.3741C313.806 38.383 312.703 37.4628 312.703 37.4628" stroke="#502A73" stroke-width="0.724" stroke-miterlimit="10" stroke-linecap="round" stroke-linejoin="round"/>
<path d="M282.54 48.3526C285.309 48.9956 288.2 47.9678 289.942 45.7202L290.204 45.3819" stroke="#502A73" stroke-width="0.724" stroke-miterlimit="10" stroke-linecap="round" stroke-linejoin="round"/>
<path d="M290.929 30.4868C291.796 30.3206 292.692 30.4102 293.509 30.7424" stroke="#502A73" stroke-width="1.448" stroke-miterlimit="10" stroke-linecap="round" stroke-linejoin="round"/>
<path d="M291.308 30.4918C291.014 30.9308 290.774 31.6763 290.704 32.377C290.595 33.4805 290.949 34.0521 291.451 34.102C291.953 34.1519 292.412 33.6604 292.522 32.5569C292.591 31.8562 292.502 31.078 292.3 30.5899L291.308 30.4918Z" fill="#502A73"/>
<path d="M282.822 29.6838C283.689 29.5185 284.585 29.6072 285.402 29.9395" stroke="#502A73" stroke-width="1.448" stroke-miterlimit="10" stroke-linecap="round" stroke-linejoin="round"/>
<path d="M283.201 29.6886C282.907 30.1276 282.667 30.873 282.598 31.5737C282.488 32.6773 282.842 33.2489 283.344 33.2988C283.846 33.3487 284.305 32.8572 284.415 31.7537C284.484 31.053 284.395 30.2748 284.193 29.7867L283.201 29.6886Z" fill="#502A73"/>
<path d="M288.449 26.822C288.641 27.2834 289.198 27.4814 289.628 27.2266C290.36 26.7919 291.554 26.3228 292.952 26.6869C293.716 26.8849 294.27 27.1285 294.672 27.3669C295.142 27.6458 295.74 27.3153 295.776 26.7704C295.791 26.5492 295.706 26.3348 295.546 26.1807C294.727 25.3966 292.011 23.2721 288.71 25.839C288.412 26.0697 288.305 26.4743 288.449 26.822Z" fill="#502A73"/>
<path d="M285.003 24.6376C284.591 24.474 284.217 24.437 283.883 24.4723L283.617 26.3979C283.804 26.3532 284.007 26.3308 284.234 26.3635C284.723 26.4341 285.188 26.6648 285.55 26.8955C285.961 27.1563 286.504 27.0134 286.733 26.5839C286.908 26.2533 286.842 25.8496 286.573 25.5888C286.282 25.3056 285.796 24.9518 285.003 24.6376Z" fill="#502A73"/>
<path d="M313.471 27.0543C314.15 24.3178 307.922 21.8783 303.811 20.5827C304.312 19.3819 304.218 18.3791 304.218 18.3791L303.442 8.83101L290.034 6.92777C290.034 6.92777 286.43 4.7 279.897 6.30283C272.705 8.06834 272.383 15.974 275.905 19.9208C279.427 23.8676 288.218 25.1175 296.492 24.5855C297.881 24.496 299.018 24.2592 299.953 23.9304C299.5 26.1065 299.672 28.3489 301.473 29.8502C306.079 33.6902 312.465 31.1035 313.471 27.0543Z" fill="#502A73"/>
<path d="M313.471 27.0543C314.15 24.3178 307.922 21.8782 303.811 20.5827C304.312 19.3819 304.218 18.3791 304.218 18.3791L303.442 8.83101L290.034 6.92777C290.034 6.92777 286.43 4.7 279.897 6.30283C272.705 8.06834 272.383 15.974 275.905 19.9208C279.427 23.8676 288.218 25.1175 296.492 24.5855C297.881 24.496 299.018 24.2592 299.953 23.9304C299.5 26.1065 299.672 28.3489 301.473 29.8502C306.079 33.6902 312.465 31.1035 313.471 27.0543Z" stroke="#502A73" stroke-width="0.724" stroke-miterlimit="10" stroke-linecap="round" stroke-linejoin="round"/>
<path d="M313.471 27.0543C314.15 24.3178 307.922 21.8782 303.811 20.5827C304.312 19.3819 304.218 18.3791 304.218 18.3791L303.442 8.83101L290.034 6.92777C290.034 6.92777 286.43 4.7 279.897 6.30283C272.705 8.06834 272.383 15.974 275.905 19.9208C279.427 23.8676 288.218 25.1175 296.492 24.5855C297.881 24.496 299.018 24.2592 299.953 23.9304C299.5 26.1065 299.672 28.3489 301.473 29.8502C306.079 33.6902 312.465 31.1035 313.471 27.0543Z" stroke="#502A73" stroke-width="0.724" stroke-miterlimit="10" stroke-linecap="round" stroke-linejoin="round"/>
<path d="M318.37 48.3431C317.164 52.1487 313.101 54.256 309.296 53.05C305.49 51.844 303.383 47.781 304.589 43.9754C305.795 40.1697 309.858 38.0625 313.663 39.2685C317.469 40.4745 319.576 44.5375 318.37 48.3431Z" fill="#EEC718"/>
<path d="M318.37 48.3431C317.164 52.1487 313.101 54.256 309.296 53.05C305.49 51.844 303.383 47.781 304.589 43.9754C305.795 40.1697 309.858 38.0625 313.663 39.2685C317.469 40.4745 319.576 44.5375 318.37 48.3431Z" stroke="#502A73" stroke-width="0.724" stroke-miterlimit="10" stroke-linecap="round" stroke-linejoin="round"/>
<path d="M333.844 51.7915C331.475 31.1433 317.374 6.96416 316.885 6.09302C315.417 3.47961 313.305 2.16344 309.648 1.07194C303.855 -0.657425 295.478 2.41738 288.943 6.07667C288.819 6.14639 288.698 6.22731 288.58 6.31683C288.582 6.31769 301.614 9.38388 305.423 27.0924C313.319 63.7937 306.24 69.574 299.355 76.2083L323.935 65.313C329.553 60.1792 334.161 54.559 333.844 51.7915Z" fill="#008056"/>
<path d="M333.844 51.7915C331.475 31.1433 317.374 6.96415 316.885 6.09302C315.417 3.47961 313.305 2.16344 309.648 1.07194C303.855 -0.657422 295.478 2.41738 288.943 6.07667C288.819 6.14639 288.698 6.22731 288.58 6.31683C288.582 6.31769 301.614 9.38388 305.423 27.0924C313.319 63.7937 306.24 69.574 299.355 76.2083L323.935 65.313C329.553 60.1792 334.161 54.559 333.844 51.7915Z" stroke="#502A73" stroke-width="0.724" stroke-miterlimit="10" stroke-linecap="round" stroke-linejoin="round"/>
<path d="M299.21 85.2533C289.357 76.8991 289.775 68.1155 289.775 68.1155C289.671 65.7095 290.683 63.3905 292.519 61.8325L297.162 62.559C297.162 62.559 298.754 69.9042 304.984 70.5774C309.406 71.0551 317.764 67.3063 325.349 63.2192C326.804 62.4359 328.302 61.7653 329.829 61.2084C342.553 56.5669 357.787 52.5177 367.56 66.5497C373.574 75.1861 370.892 80.3174 371.57 80.5834C371.57 80.5834 361.237 76.4197 356.765 77.4991C352.294 78.5786 318.984 102.018 299.21 85.2533Z" fill="#008056"/>
<path d="M299.21 85.2533C289.357 76.8991 289.775 68.1155 289.775 68.1155C289.671 65.7095 290.683 63.3905 292.519 61.8325L297.162 62.559C297.162 62.559 298.754 69.9042 304.984 70.5774C309.406 71.0551 317.764 67.3063 325.349 63.2192C326.804 62.4359 328.302 61.7653 329.829 61.2084C342.553 56.5669 357.787 52.5177 367.56 66.5497C373.574 75.1861 370.892 80.3174 371.57 80.5834C371.57 80.5834 361.237 76.4197 356.765 77.4991C352.294 78.5786 318.984 102.018 299.21 85.2533Z" stroke="#502A73" stroke-width="0.724" stroke-miterlimit="10" stroke-linecap="round" stroke-linejoin="round"/>
</svg>
