<svg width="293" height="334" viewBox="0 0 293 334" fill="none" xmlns="http://www.w3.org/2000/svg">
<path d="M236.001 0H59.0793C42.467 0 29 13.467 29 30.0793V250.774C29 267.387 42.467 280.854 59.0793 280.854H236.001C252.613 280.854 266.08 267.387 266.08 250.774V30.0793C266.08 13.467 252.613 0 236.001 0Z" fill="#4BBEA5"/>
<path d="M202.157 267.83C202.305 271.293 210.333 277.243 221.835 285.873C233.338 294.502 241.161 301.645 247.191 303.904C253.22 306.164 256.865 303.178 259.136 296.49C261.407 289.801 259.738 276.891 246.589 256.463C233.44 236.036 226.968 229.348 224.56 227.678C222.153 226.009 217.793 222.943 211.286 227.463C209.981 228.371 202.759 233.424 202.759 233.424L187.702 244.416C187.327 248.22 199.863 249.548 200.51 252.08C201.408 255.578 202.1 266.524 202.157 267.83Z" fill="#4BBEA5" stroke="#502A73" stroke-width="0.2704" stroke-miterlimit="10" stroke-linecap="round" stroke-linejoin="round"/>
<path d="M188.02 245.585C189.724 248.208 195.64 247.686 197.82 249.525C204.667 247.72 215.624 240.101 217.532 234.957C218.974 231.085 218.599 227.712 217.714 225.123C215.863 225.157 213.728 225.782 211.287 227.485C209.981 228.394 202.759 233.447 202.759 233.447L187.759 244.393L188.02 245.585Z" fill="#4BBEA5" stroke="#502A73" stroke-width="0.2704" stroke-miterlimit="10" stroke-linecap="round" stroke-linejoin="round"/>
<path d="M224.56 227.69C222.153 226.021 217.793 222.955 211.286 227.474C210.548 227.985 207.925 229.825 205.779 231.323C205.893 231.857 205.995 232.425 206.313 232.902C213.41 243.644 229.613 240.601 238.13 256.111C241.672 262.572 236.052 267.83 236.642 274.665C237.233 281.501 249.553 285.384 253.254 290.381C257.217 295.729 253.322 303.314 251.926 304.574C255.264 304.097 257.547 301.213 259.148 296.49C261.419 289.802 259.749 276.891 246.6 256.463C233.44 236.047 226.968 229.359 224.56 227.69Z" fill="#008056" stroke="#502A73" stroke-width="0.2704" stroke-miterlimit="10" stroke-linecap="round" stroke-linejoin="round"/>
<path d="M210.083 247.243C210.435 247.732 210.935 248.413 211.627 249.367C214.08 252.739 218.531 258.121 218.531 258.121L221.279 253.897L210.151 246.63C210.128 246.835 210.106 247.039 210.083 247.243Z" fill="#008056" stroke="#502A73" stroke-width="0.2704" stroke-miterlimit="10" stroke-linecap="round" stroke-linejoin="round"/>
<path d="M258.273 298.715C256.82 298.318 252.584 297.421 248.724 299.351C246.43 300.498 246.067 302.167 246.589 303.666C246.793 303.757 246.998 303.836 247.202 303.904C252.516 305.903 255.968 303.814 258.273 298.715Z" fill="#008056" stroke="#502A73" stroke-width="0.2704" stroke-miterlimit="10" stroke-linecap="round" stroke-linejoin="round"/>
<path d="M218.474 276.562L217.305 278.923C218.247 279.639 219.065 280.263 219.621 280.717C220.041 281.058 220.439 281.376 220.825 281.66L221.824 279.639C220.836 278.696 219.678 277.64 218.474 276.562Z" fill="#4BBEA5" stroke="#502A73" stroke-width="0.2704" stroke-miterlimit="10" stroke-linecap="round" stroke-linejoin="round"/>
<path d="M209.879 269.204L206.211 270.725C206.211 270.725 213.115 275.744 217.316 278.935L218.486 276.573C214.409 272.939 209.879 269.204 209.879 269.204Z" fill="#4BBEA5" stroke="#502A73" stroke-width="0.2704" stroke-miterlimit="10" stroke-linecap="round" stroke-linejoin="round"/>
<path d="M224.56 282.625C224.152 281.978 223.141 280.91 221.824 279.65L220.825 281.671C224.549 284.555 226.173 285.157 224.56 282.625Z" fill="#4BBEA5" stroke="#502A73" stroke-width="0.2704" stroke-miterlimit="10" stroke-linecap="round" stroke-linejoin="round"/>
<path d="M205.768 278.594C205.768 278.594 210.14 290.551 215.692 292.515C221.245 294.48 222.369 291.982 227.07 286.872C231.374 282.194 228.648 276.857 223.857 273.552C219.065 270.248 210.14 268.159 210.14 268.159L205.768 278.594Z" fill="#4BBEA5" stroke="#502A73" stroke-width="0.2704" stroke-miterlimit="10" stroke-linecap="round" stroke-linejoin="round"/>
<path d="M210.367 270.759C212.91 271.384 219.326 273.257 222.687 275.574C224.685 276.948 226.048 278.651 226.434 280.252C226.82 281.83 226.309 283.397 224.924 284.896C224.299 285.577 223.72 286.225 223.221 286.792C222.789 287.281 222.392 287.724 222.017 288.132C219.598 290.755 218.769 291.028 216.067 290.074C213.353 289.109 209.856 283.148 208.312 278.946" fill="#4BBEA5"/>
<path d="M210.367 270.759C212.91 271.384 219.326 273.257 222.687 275.574C224.685 276.948 226.048 278.651 226.434 280.252C226.82 281.83 226.309 283.397 224.924 284.896C224.299 285.577 223.72 286.225 223.221 286.792C222.789 287.281 222.392 287.724 222.017 288.132C219.598 290.755 218.769 291.028 216.067 290.074C213.353 289.109 209.856 283.148 208.312 278.946" stroke="#502A73" stroke-width="0.2704" stroke-miterlimit="10" stroke-linecap="round" stroke-linejoin="round"/>
<path d="M127.884 251.626C127.884 251.626 125.556 253.42 121.537 255.135C117.517 256.85 111.806 258.507 110.318 260.949C108.297 264.253 111.124 265.547 115.314 265.547C118.051 265.547 128.145 265.547 128.145 265.547C128.145 265.547 118.891 275.915 125.92 276.993C132.948 278.072 135.855 269.056 135.855 269.056L150.31 250.548" fill="#BF792A"/>
<path d="M127.884 251.626C127.884 251.626 125.556 253.42 121.537 255.135C117.517 256.85 111.806 258.507 110.318 260.949C108.297 264.253 111.124 265.547 115.314 265.547C118.051 265.547 128.145 265.547 128.145 265.547C128.145 265.547 118.891 275.915 125.92 276.993C132.948 278.072 135.855 269.056 135.855 269.056L150.31 250.548" stroke="#502A73" stroke-width="0.2704" stroke-miterlimit="10" stroke-linecap="round" stroke-linejoin="round"/>
<path d="M116.825 185.063C116.893 185.904 116.95 186.733 117.018 187.527C118.096 201.176 127.214 257.849 127.214 257.849L156.942 248.663L147.903 192.387L116.825 185.063Z" fill="#BF792A" stroke="#502A73" stroke-width="0.2704" stroke-miterlimit="10" stroke-linecap="round" stroke-linejoin="round"/>
<path d="M146.268 182.179L131.609 137.861C131.609 137.861 122.218 139.076 117.892 146.104C114.508 151.612 115.757 171.369 116.825 185.052L147.903 192.376L146.268 182.179Z" fill="white" stroke="#502A73" stroke-width="0.2704" stroke-miterlimit="10" stroke-linecap="round" stroke-linejoin="round"/>
<path d="M198.955 223.931L180.719 199.609L154.512 193.932L150.935 194.159L150.186 192.717L109.716 176.774C109.716 176.774 97.3055 171.653 81.5448 171.846C64.5237 172.051 57.6312 191.638 53.1687 210.964C48.7062 230.29 41.5186 272.849 41.5186 272.849C41.5186 272.849 45.1635 282.58 79.3873 286.633C97.9868 288.836 100.19 281.671 100.19 281.671C100.19 281.671 103.835 235.161 108.57 229.484C113.293 223.806 149.107 221.513 149.107 221.513H149.266C144.508 227.19 130.326 244.563 123.308 258.269C114.792 274.892 107.502 288.802 117.631 303.257C127.759 317.712 146.949 313.125 160.598 307.311C170.965 302.894 198.024 290.755 210.435 285.18C214.08 283.545 215.931 279.446 214.772 275.631L198.955 223.931Z" fill="#EEC718" stroke="#502A73" stroke-width="0.2704" stroke-miterlimit="10" stroke-linecap="round" stroke-linejoin="round"/>
<path d="M153.274 294.116C150.197 294.116 147.494 293.083 145.586 291.096C143.066 288.462 142.396 284.612 143.804 280.797C145.462 276.323 153.671 264.843 164.231 250.309C167.343 246.028 170.034 242.326 171.68 239.919C177.312 231.721 181.616 218.22 181.661 218.084C182.115 216.63 183.671 215.824 185.124 216.278C186.578 216.732 187.384 218.288 186.93 219.741C186.748 220.32 182.342 234.151 176.234 243.042C174.542 245.494 171.839 249.23 168.694 253.545C161.449 263.515 150.503 278.583 148.982 282.705C148.312 284.51 148.527 286.179 149.572 287.269C150.946 288.7 153.535 288.995 156.487 288.041C175.246 282.001 204.859 263.129 205.166 262.947C206.449 262.129 208.164 262.504 208.981 263.787C209.799 265.07 209.424 266.785 208.141 267.603C206.903 268.397 177.619 287.054 158.179 293.31C156.499 293.855 154.841 294.116 153.274 294.116Z" fill="#EEC718" stroke="#502A73" stroke-width="0.2704" stroke-miterlimit="10" stroke-linecap="round" stroke-linejoin="round"/>
<path d="M186.533 254.805C186.533 254.805 175.178 265.547 166.877 272.031C158.565 278.515 158.565 278.515 158.565 278.515" stroke="#502A73" stroke-width="0.2704" stroke-miterlimit="10" stroke-linecap="round" stroke-linejoin="round"/>
<path d="M149.107 221.502H149.266C149.266 221.502 153.297 217.516 152.491 214.28C151.684 211.032 148.255 211.407 140.738 211.237C116.689 210.692 101.019 203.811 94.9324 209.613C87.6085 216.619 85.7349 239.533 83.9862 251.161C82.0218 264.299 80.5911 278.935 79.8984 286.679" stroke="#502A73" stroke-width="0.2704" stroke-miterlimit="10" stroke-linecap="round" stroke-linejoin="round"/>
<path d="M196.934 166.373C201.635 163.08 209.095 159.889 210.957 159.117C203.792 154.586 192.562 150.01 175.587 144.753C149.448 136.646 131.609 137.861 131.609 137.861C126.749 145.162 125.534 182.849 125.534 182.849L109.728 176.774C109.728 176.774 113.986 185.892 122.298 191.978C130.61 198.053 151.083 201.505 161.62 206.978C172.158 212.451 168.104 218.129 173.168 224.817C178.232 231.505 185.193 227.179 185.193 227.179C185.193 227.179 187.759 188.129 188.168 181.918C188.554 175.695 191.529 170.154 196.934 166.373Z" fill="white" stroke="#502A73" stroke-width="0.2704" stroke-miterlimit="10" stroke-linecap="round" stroke-linejoin="round"/>
<path d="M125.522 182.86C125.522 182.86 135.526 187.187 142.475 190.968C149.402 194.726 154.807 198.508 161.926 200.29C172.736 202.993 182.604 202.448 182.604 202.448" stroke="#502A73" stroke-width="0.2704" stroke-miterlimit="10" stroke-linecap="round" stroke-linejoin="round"/>
<path d="M141.885 174.866C145.995 173.629 148.085 175.457 148.085 175.457C148.085 175.457 142.146 175.423 139.512 177.773C136.877 180.112 138.762 184.927 141.567 183.167C146.211 180.248 148.63 180.805 148.63 180.805C148.63 180.805 145.916 181.77 144.326 183.712C142.725 185.653 143.168 188.208 145.166 188.753C146.381 189.083 153.262 182.463 151.605 187.198C150.991 188.969 150.628 190.218 149.901 191.626C149.413 192.569 148.527 193.261 147.415 193.772C149.845 195.169 152.184 196.486 154.591 197.622C155.193 197.315 155.715 196.929 156.124 196.418C157.475 194.715 157.543 191.456 157.679 188.651C157.907 183.575 161.756 192.773 162.982 193.023C165.003 193.443 166.343 191.32 165.594 188.821C164.844 186.323 162.732 184.2 162.732 184.2C162.732 184.2 165.14 184.813 168.308 189.605C170.215 192.5 173.701 188.98 172.157 185.631C170.613 182.281 165.185 179.59 165.185 179.59C165.185 179.59 167.774 178.886 171.056 181.906C173.383 184.041 174.678 185.812 175.598 184.609C177.335 182.315 176.302 176.626 169.682 173.277C162.778 169.779 157.611 172.47 156.998 172.766C156.544 172.22 153.876 167.644 146.302 167.667C139.035 167.69 136.014 172.402 136.752 175.286C137.15 176.763 138.989 175.741 141.885 174.866Z" fill="#4BBEA5" stroke="#502A73" stroke-width="0.2704" stroke-miterlimit="10" stroke-linecap="round" stroke-linejoin="round"/>
<path d="M182.07 158.231C182.07 158.231 191.188 151.85 196.866 152.554C202.543 153.258 206.983 155.915 209.935 155.699C216.93 155.188 221.994 151.543 221.994 151.543L215.783 148.5C213.319 147.297 211.025 145.752 208.981 143.913L205.087 140.416C205.064 140.393 204.11 139.598 203.088 138.735C201.544 137.441 199.477 136.975 197.536 137.486C194.038 138.406 175.178 143.947 174.871 144.753" fill="#4BBEA5"/>
<path d="M182.07 158.231C182.07 158.231 191.188 151.85 196.866 152.554C202.543 153.258 206.983 155.915 209.935 155.699C216.93 155.188 221.994 151.543 221.994 151.543L215.783 148.5C213.319 147.297 211.025 145.752 208.981 143.913L205.087 140.416C205.064 140.393 204.11 139.598 203.088 138.735C201.544 137.441 199.477 136.975 197.536 137.486C194.038 138.406 175.178 143.947 174.871 144.753" stroke="#502A73" stroke-width="0.2704" stroke-miterlimit="10" stroke-linecap="round" stroke-linejoin="round"/>
<path d="M215.783 148.5C213.319 147.297 211.025 145.752 208.981 143.913L205.087 140.416C205.064 140.393 204.11 139.598 203.088 138.735C201.544 137.441 199.477 136.975 197.536 137.486C194.038 138.406 175.178 143.947 174.871 144.753L181.468 157.119C183.785 154.405 189.996 147.739 194.527 148.307C200.204 149.011 204.644 151.668 207.596 151.453C211.355 151.18 214.545 149.999 216.714 148.966L215.783 148.5Z" fill="#008056" stroke="#502A73" stroke-width="0.2704" stroke-miterlimit="10" stroke-linecap="round" stroke-linejoin="round"/>
<path d="M215.783 148.5C213.319 147.297 211.025 145.752 208.981 143.913L205.087 140.416C205.064 140.393 204.11 139.598 203.088 138.735C201.544 137.441 199.477 136.975 197.536 137.486C194.038 138.406 175.178 143.947 174.871 144.753L181.468 157.119C183.785 154.405 189.996 147.739 194.527 148.307C200.204 149.011 204.644 151.668 207.596 151.453C211.355 151.18 214.545 149.999 216.714 148.966L215.783 148.5Z" stroke="#502A73" stroke-width="0.2704" stroke-miterlimit="10" stroke-linecap="round" stroke-linejoin="round"/>
<path d="M156.726 144.424L155.681 144.855C153.626 145.696 152.32 147.74 152.423 149.965L153.115 165.272C153.229 167.702 155.25 169.609 157.68 169.575L170.08 169.394C171.397 169.371 172.668 168.917 173.69 168.076L188.497 152.724C190.087 151.067 190.201 148.489 188.747 146.718L185.272 142.471C184.671 141.733 183.864 141.199 182.945 140.927L172.373 137.781" fill="#008056"/>
<path d="M156.726 144.424L155.681 144.855C153.626 145.696 152.32 147.74 152.423 149.965L153.115 165.272C153.229 167.702 155.25 169.609 157.68 169.575L170.08 169.394C171.397 169.371 172.668 168.917 173.69 168.076L188.497 152.724C190.087 151.067 190.201 148.489 188.747 146.718L185.272 142.471C184.671 141.733 183.864 141.199 182.945 140.927L172.373 137.781" stroke="#502A73" stroke-width="0.2704" stroke-miterlimit="10" stroke-linecap="round" stroke-linejoin="round"/>
<path d="M156.726 144.424L155.681 144.855C153.626 145.696 152.32 147.74 152.423 149.965L153.115 165.272C153.229 167.702 155.25 169.609 157.68 169.575L170.08 169.394C171.397 169.371 172.668 168.917 173.69 168.076L188.497 152.724C190.087 151.067 190.201 148.489 188.747 146.718L185.272 142.471C184.671 141.733 183.864 141.199 182.945 140.927L172.373 137.781" stroke="#502A73" stroke-width="0.2704" stroke-miterlimit="10" stroke-linecap="round" stroke-linejoin="round"/>
<path d="M162.108 154.882L176.461 143.958C175.972 135.715 174.928 119.613 174.065 115.264C172.668 108.258 171.703 106.419 167.172 105.147C161.052 103.433 150.81 118.489 150.81 118.489C150.81 118.489 150.424 121.248 150.038 124.871C150.004 125.314 149.822 125.734 149.515 126.052L146.154 129.606C145.598 130.276 145.882 131.298 146.711 131.593L149.129 132.649C149.64 132.899 149.561 133.432 149.004 134.318C148.221 135.567 149.447 136.271 149.72 136.441C150.219 136.737 149.459 136.771 149.322 137.747C149.209 138.588 149.618 138.86 149.652 139.36C149.742 140.609 149.845 141.108 149.947 142.039C150.083 143.413 151.15 144.515 152.513 144.708L159.655 145.696L161.359 155.211L162.108 154.882Z" fill="#BF792A" stroke="#502A73" stroke-width="0.2704" stroke-miterlimit="10" stroke-linecap="round" stroke-linejoin="round"/>
<path d="M156.942 116.593C160.053 115.457 163.164 113.459 163.164 113.459C163.164 113.459 160.507 116.672 161.098 117.512C161.688 118.353 165.004 117.024 165.095 117.115C165.186 117.217 162.744 119.613 162.915 120.624C163.085 121.634 164.538 121.067 164.629 121.35C164.72 121.646 162.494 123.917 162.699 124.553C162.903 125.2 163.664 125.438 163.664 125.438C163.664 125.438 162.892 128.197 164.936 129.151C166.98 130.105 167.627 128.72 167.865 125.052C167.933 123.917 168.672 123.088 169.421 123.394C170.784 123.962 172.487 126.824 172.487 126.824C172.487 126.824 173.838 131.967 175.746 132.683C175.246 125.597 174.633 118.16 174.054 115.264C172.657 108.258 171.692 106.419 167.161 105.147C161.052 103.444 153.32 117.921 156.942 116.593Z" fill="#502A73" stroke="#502A73" stroke-width="0.2704" stroke-miterlimit="10" stroke-linecap="round" stroke-linejoin="round"/>
<path d="M156.942 116.593C160.053 115.457 163.164 113.459 163.164 113.459C163.164 113.459 160.507 116.672 161.098 117.512C161.688 118.353 165.004 117.024 165.095 117.115C165.186 117.217 162.744 119.613 162.915 120.624C163.085 121.634 164.538 121.067 164.629 121.35C164.72 121.646 162.494 123.917 162.699 124.553C162.903 125.2 163.664 125.438 163.664 125.438C163.664 125.438 162.892 128.197 164.936 129.151C166.98 130.105 167.627 128.72 167.865 125.052C167.933 123.917 168.672 123.088 169.421 123.394C170.784 123.962 172.487 126.824 172.487 126.824C172.487 126.824 173.838 131.967 175.746 132.683C175.246 125.597 174.633 118.16 174.054 115.264C172.657 108.258 171.692 106.419 167.161 105.147C161.052 103.444 153.32 117.921 156.942 116.593Z" stroke="#502A73" stroke-width="0.2704" stroke-miterlimit="10" stroke-linecap="round" stroke-linejoin="round"/>
<path d="M167.752 105.204C163.993 104.193 157.952 104.489 153.899 108.52C151.207 111.199 150.81 116.831 150.81 118.205L174.769 120.942C174.769 120.942 176.87 107.668 167.752 105.204Z" fill="#008056" stroke="#502A73" stroke-width="0.2704" stroke-miterlimit="10" stroke-linecap="round" stroke-linejoin="round"/>
<path d="M168.354 126.074C168.41 125.37 168.547 124.768 168.751 124.348C169.591 122.702 171.363 121.941 173.009 122.77C174.655 123.599 174.996 125.518 174.553 127.301C174.133 128.97 173.225 130.423 172.226 131.218C171.453 131.82 170.624 132.047 169.92 131.684" fill="#BF792A"/>
<path d="M168.354 126.074C168.41 125.37 168.547 124.768 168.751 124.348C169.591 122.702 171.363 121.941 173.009 122.77C174.655 123.599 174.996 125.518 174.553 127.301C174.133 128.97 173.225 130.423 172.226 131.218C171.453 131.82 170.624 132.047 169.92 131.684" stroke="#502A73" stroke-width="0.2704" stroke-miterlimit="10" stroke-linecap="round" stroke-linejoin="round"/>
<path d="M167.661 130.31C167.661 130.31 167.093 131.286 166.071 131.32C165.049 131.354 163.982 130.253 163.982 130.253" stroke="#502A73" stroke-width="0.2704" stroke-miterlimit="10" stroke-linecap="round" stroke-linejoin="round"/>
<path d="M167.502 132.047C167.502 132.047 166.934 133.024 165.912 133.058C164.89 133.092 163.823 131.99 163.823 131.99" stroke="#502A73" stroke-width="0.2704" stroke-miterlimit="10" stroke-linecap="round" stroke-linejoin="round"/>
<path d="M169.977 126.324C169.977 126.324 170.465 124.394 172.077 125.223C173.122 125.756 172.816 127.516 171.816 128.005C171.26 128.277 170.454 127.993 170.454 127.993C170.454 127.993 170.976 128.413 170.692 128.947C170.329 129.617 169.602 129.027 169.602 129.027" fill="#BF792A"/>
<path d="M169.977 126.324C169.977 126.324 170.465 124.394 172.077 125.223C173.122 125.756 172.816 127.516 171.816 128.005C171.26 128.277 170.454 127.993 170.454 127.993C170.454 127.993 170.976 128.413 170.692 128.947C170.329 129.617 169.602 129.027 169.602 129.027" stroke="#502A73" stroke-width="0.2704" stroke-miterlimit="10" stroke-linecap="round" stroke-linejoin="round"/>
<path d="M149.742 136.442C149.742 136.442 151.4 137.191 152.853 137.146C154.364 137.1 155.102 136.669 155.102 136.669" stroke="#502A73" stroke-width="0.2704" stroke-miterlimit="10" stroke-linecap="round" stroke-linejoin="round"/>
<path d="M155.215 124.701C155.783 124.587 156.374 124.633 156.919 124.837" stroke="#502A73" stroke-width="0.5408" stroke-miterlimit="10" stroke-linecap="round" stroke-linejoin="round"/>
<path d="M155.465 124.7C155.272 124.995 155.124 125.484 155.09 125.949C155.034 126.676 155.272 127.051 155.601 127.073C155.931 127.096 156.226 126.767 156.283 126.04C156.317 125.575 156.249 125.064 156.112 124.746L155.465 124.7Z" fill="#502A73"/>
<path d="M149.879 124.269C150.447 124.155 151.037 124.201 151.582 124.405" stroke="#502A73" stroke-width="0.5408" stroke-miterlimit="10" stroke-linecap="round" stroke-linejoin="round"/>
<path d="M150.129 124.258C149.936 124.553 149.788 125.041 149.754 125.507C149.697 126.233 149.936 126.608 150.265 126.631C150.594 126.654 150.889 126.324 150.946 125.598C150.98 125.132 150.912 124.621 150.776 124.303L150.129 124.258Z" fill="#502A73"/>
<path d="M153.546 122.316C153.683 122.611 154.046 122.736 154.33 122.566C154.807 122.271 155.59 121.953 156.51 122.168C157.01 122.293 157.384 122.441 157.645 122.6C157.952 122.782 158.349 122.554 158.361 122.191C158.372 122.043 158.304 121.907 158.202 121.805C157.657 121.294 155.84 119.931 153.705 121.657C153.512 121.828 153.444 122.089 153.546 122.316Z" fill="#502A73"/>
<path d="M157.43 136.055C158.054 136.271 158.509 135.987 158.509 135.987C158.509 135.987 156.635 134 156.09 133.682C155.545 133.376 154.092 133.444 152.002 133.546C150.878 133.603 150.026 133.41 149.481 133.217C149.47 133.5 149.311 133.864 149.027 134.329C148.982 134.409 148.936 134.488 148.902 134.568C149.459 134.795 150.333 135.079 151.4 135.181C153.285 135.363 155.488 135.09 155.67 135.056C155.761 135.022 156.692 135.794 157.43 136.055Z" fill="#502A73" stroke="#502A73" stroke-width="0.2704" stroke-miterlimit="10" stroke-linecap="round" stroke-linejoin="round"/>
<path d="M157.43 136.055C158.054 136.271 158.509 135.987 158.509 135.987C158.509 135.987 156.635 134 156.09 133.682C155.545 133.376 154.092 133.444 152.002 133.546C150.878 133.603 150.026 133.41 149.481 133.217C149.47 133.5 149.311 133.864 149.027 134.329C148.982 134.409 148.936 134.488 148.902 134.568C149.459 134.795 150.333 135.079 151.4 135.181C153.285 135.363 155.488 135.09 155.67 135.056C155.761 135.022 156.692 135.794 157.43 136.055Z" stroke="#502A73" stroke-width="0.2704" stroke-miterlimit="10" stroke-linecap="round" stroke-linejoin="round"/>
<path d="M151.253 120.919C150.98 120.817 150.731 120.794 150.515 120.828L150.367 122.1C150.492 122.066 150.617 122.055 150.776 122.066C151.094 122.111 151.4 122.248 151.65 122.395C151.923 122.566 152.275 122.463 152.422 122.18C152.536 121.964 152.491 121.691 152.309 121.532C152.104 121.351 151.775 121.124 151.253 120.919Z" fill="#502A73"/>
<path d="M156.022 115.219C144.474 108.485 133.528 112.266 138.649 116.57C142.896 120.135 167.013 120.033 167.013 120.033C167.013 120.033 160.257 117.683 156.022 115.219Z" fill="#502A73" stroke="#502A73" stroke-width="0.2704" stroke-miterlimit="10" stroke-linecap="round" stroke-linejoin="round"/>
<path d="M156.022 115.219C144.474 108.485 133.528 112.266 138.649 116.57C142.896 120.135 167.013 120.033 167.013 120.033C167.013 120.033 160.257 117.683 156.022 115.219Z" stroke="#502A73" stroke-width="0.2704" stroke-miterlimit="10" stroke-linecap="round" stroke-linejoin="round"/>
<path d="M208.311 289.052C210.367 278.253 213.966 250.388 217.338 223.795C217.861 219.662 218.383 215.551 218.871 211.543C219.121 209.499 219.36 207.489 219.587 205.513C215.874 208.17 208.663 212.077 198.557 211.906C191.767 211.781 188.156 210.43 186.351 209.374C186.237 211.032 186.135 212.656 186.033 214.2C185.556 221.535 185.181 227.179 185.181 227.179C182.229 241.088 182.74 270.203 182.967 283.272C183.001 285.259 182.093 287.156 180.514 288.359C178.822 289.654 176.71 291.527 175.598 293.514C172.498 299.067 172.066 306.118 170.465 308.514C167.763 312.568 169.92 316.213 175.325 314.589C180.73 312.965 184.102 306.89 184.102 306.89C184.102 306.89 189.269 319.256 195.957 321.993C200.772 323.957 203.417 321.482 203.417 321.482C203.417 321.482 206.188 323.196 208.958 322.56C211.911 321.89 212.774 319.812 212.774 319.812C212.774 319.812 215.454 321.482 218.553 320.403C220.938 319.574 220.325 316.724 220.325 316.724C220.325 316.724 224.628 316.758 224.492 313.919C224.356 311.08 220.575 307.299 215.442 301.485C211.933 297.511 209.492 292.095 208.311 289.052Z" fill="#BF792A" stroke="#502A73" stroke-width="0.2704" stroke-miterlimit="10" stroke-linecap="round" stroke-linejoin="round"/>
<path d="M219.587 205.513C221.71 186.982 222.698 171.505 219.269 166.543C217.52 164.011 214.841 161.569 210.969 159.117C209.106 159.889 201.646 163.08 196.945 166.373C191.54 170.154 188.565 175.695 188.168 181.906C187.952 185.256 187.1 198.178 186.362 209.362C188.156 210.418 191.779 211.781 198.569 211.895C208.663 212.088 215.862 208.182 219.587 205.513Z" fill="white" stroke="#502A73" stroke-width="0.2704" stroke-miterlimit="10" stroke-linecap="round" stroke-linejoin="round"/>
<path d="M192.8 247.527C192.8 247.527 195.117 248.912 200.896 249.491C206.676 250.07 211.184 249.491 211.184 249.491C211.184 249.491 206.676 252.148 202.509 253.885C198.353 255.623 193.606 257.008 193.606 257.008C193.606 257.008 194.413 258.802 200.306 259.461C206.199 260.131 207.005 260.131 207.005 260.131L195.889 267.409" stroke="#502A73" stroke-width="0.2704" stroke-miterlimit="10" stroke-linecap="round" stroke-linejoin="round"/>
<path d="M195.627 307.856C196.309 308.787 197.172 309.877 198.216 311.024C201.418 314.555 204.496 318.87 203.428 321.481" fill="#BF792A"/>
<path d="M195.627 307.856C196.309 308.787 197.172 309.877 198.216 311.024C201.418 314.555 204.496 318.87 203.428 321.481" stroke="#502A73" stroke-width="0.2704" stroke-miterlimit="10" stroke-linecap="round" stroke-linejoin="round"/>
<path d="M212.774 319.812C212.774 319.812 213.387 319.256 212.115 316.167C211.468 314.589 206.994 309.695 204.224 306.754" fill="#BF792A"/>
<path d="M212.774 319.812C212.774 319.812 213.387 319.256 212.115 316.167C211.468 314.589 206.994 309.695 204.224 306.754" stroke="#502A73" stroke-width="0.2704" stroke-miterlimit="10" stroke-linecap="round" stroke-linejoin="round"/>
<path d="M220.324 316.724C220.324 316.724 219.87 314.703 218.201 312.466C217.247 311.194 215.147 309.105 213.216 306.958C211.751 305.335 210.241 303.382 210.241 303.382" fill="#BF792A"/>
<path d="M220.324 316.724C220.324 316.724 219.87 314.703 218.201 312.466C217.247 311.194 215.147 309.105 213.216 306.958C211.751 305.335 210.241 303.382 210.241 303.382" stroke="#502A73" stroke-width="0.2704" stroke-miterlimit="10" stroke-linecap="round" stroke-linejoin="round"/>
<path d="M187.066 228.393C187.066 228.393 191.926 231.368 197.876 231.766C203.826 232.175 207.198 230.687 207.198 230.687" stroke="#502A73" stroke-width="0.2704" stroke-miterlimit="10" stroke-linecap="round" stroke-linejoin="round"/>
<path d="M48.2747 279.979C48.2747 279.979 36.3975 272.666 39.997 266.262C42.6995 261.47 46.9689 261.493 57.2906 262.753C66.7606 263.9 69.0543 270.94 67.0104 277.617C64.9779 284.294 64.4442 287.303 64.4442 287.303L26.1666 314.884L19.7852 309.127L48.2747 279.979Z" fill="#4BBEA5" stroke="#502A73" stroke-width="0.2704" stroke-miterlimit="10" stroke-linecap="round" stroke-linejoin="round"/>
<path d="M62.1167 284.703C64.3195 282.216 62.2643 281.296 63.695 276.606C64.5466 273.824 64.365 271.201 63.2068 269.419C62.0599 267.659 59.9365 266.58 56.8821 266.205C55.5081 266.035 54.225 265.865 53.0895 265.706C52.1243 265.581 51.2386 265.456 50.4097 265.354C45.0956 264.706 42.9155 265.513 41.8481 267.999C40.6445 270.838 46.0494 273.7 49.172 277.674C50.0918 278.832 50.7504 280.183 51.1024 281.625C51.1705 281.898 51.2159 282.159 51.25 282.42" fill="#4BBEA5"/>
<path d="M62.1167 284.703C64.3195 282.216 62.2643 281.296 63.695 276.606C64.5466 273.824 64.365 271.201 63.2068 269.419C62.0599 267.659 59.9365 266.58 56.8821 266.205C55.5081 266.035 54.225 265.865 53.0895 265.706C52.1243 265.581 51.2386 265.456 50.4097 265.354C45.0956 264.706 42.9155 265.513 41.8481 267.999C40.6445 270.838 46.0494 273.7 49.172 277.674C50.0918 278.832 50.7504 280.183 51.1024 281.625C51.1705 281.898 51.2159 282.159 51.25 282.42" stroke="#502A73" stroke-width="0.2704" stroke-miterlimit="10" stroke-linecap="round" stroke-linejoin="round"/>
<path d="M64.1149 283.976L46.5942 281.853" stroke="#502A73" stroke-width="0.2704" stroke-miterlimit="10" stroke-linecap="round" stroke-linejoin="round"/>
<path d="M41.5298 286.86L59.0618 288.983" stroke="#502A73" stroke-width="0.2704" stroke-miterlimit="10" stroke-linecap="round" stroke-linejoin="round"/>
<path d="M36.4766 291.879L53.9973 294.002" stroke="#502A73" stroke-width="0.2704" stroke-miterlimit="10" stroke-linecap="round" stroke-linejoin="round"/>
<path d="M31.4126 296.887L48.9447 299.01" stroke="#502A73" stroke-width="0.2704" stroke-miterlimit="10" stroke-linecap="round" stroke-linejoin="round"/>
<path d="M26.3594 301.905L43.8801 304.029" stroke="#502A73" stroke-width="0.2704" stroke-miterlimit="10" stroke-linecap="round" stroke-linejoin="round"/>
<path d="M46.1286 278.48C46.1286 278.48 35.3869 286.406 26.8139 294.093C15.3908 304.358 6.31815 311.057 2.69592 316.905C-0.92631 322.753 1.44689 327.17 7.97599 330.94C14.5051 334.698 28.3695 335.63 52.4647 326.091C76.5599 316.553 84.9058 311.16 87.1428 308.991C89.391 306.822 93.5015 302.893 90.1178 295.149C89.4365 293.594 88.3691 290.857 88.3691 290.857L84.4857 287.03C83.407 286.86 77.2866 287.133 72.7106 282.125C71.1663 280.445 69.3722 278.65 66.5903 278.798C62.7523 279.002 57.2451 283.306 50.2959 289.279C47.2982 291.856 33.8199 304.267 30.7086 307.14C30.3339 307.492 29.7661 307.526 29.346 307.242C28.7896 306.868 28.6988 306.084 29.153 305.584C31.3218 303.223 37.1696 296.932 41.7229 292.787C43.7555 290.937 46.0151 288.541 47.4231 287.008C48.3201 286.031 48.9447 284.839 49.2399 283.544C49.626 281.898 48.8992 280.195 47.4572 279.309L46.1286 278.48Z" fill="#4BBEA5" stroke="#502A73" stroke-width="0.2704" stroke-miterlimit="10" stroke-linecap="round" stroke-linejoin="round"/>
<path d="M87.2791 287.053C85.9051 287.076 84.3835 287.008 82.7144 286.849C83.5319 290.108 85.4055 296.444 88.8687 300.577C89.6749 301.542 90.413 302.416 91.0716 303.2C91.6507 301.111 91.5826 298.488 90.1291 295.138C89.709 294.184 88.301 290.085 87.2791 287.053Z" fill="#4BBEA5" stroke="#502A73" stroke-width="0.2704" stroke-miterlimit="10" stroke-linecap="round" stroke-linejoin="round"/>
<path d="M87.0859 296.046C80.341 294.059 77.4796 296.977 74.6522 300.123C71.8248 303.268 69.5652 313.714 61.9006 315.463C54.236 317.212 51.7379 310.967 44.4026 310.898C37.0673 310.83 30.9924 322.549 26.0416 326.954C21.0795 331.36 11.1099 326.193 11.1099 326.193L11.2688 332.359C18.7177 334.744 31.844 334.244 52.4646 326.08C76.5598 316.542 84.9057 311.148 87.1427 308.979C88.7778 307.39 91.4121 304.869 91.4008 300.599C91.0715 298.749 89.9587 296.898 87.0859 296.046Z" fill="#008056" stroke="#502A73" stroke-width="0.2704" stroke-miterlimit="10" stroke-linecap="round" stroke-linejoin="round"/>
<path d="M6.37479 320.153C3.5247 319.948 1.9577 321.39 1.09473 323.173C1.57163 326.125 4.01296 328.658 7.98719 330.951C10.2128 332.234 13.29 333.177 17.321 333.506C16.0265 327.556 12.5405 320.584 6.37479 320.153Z" fill="#008056" stroke="#502A73" stroke-width="0.2704" stroke-miterlimit="10" stroke-linecap="round" stroke-linejoin="round"/>
<path d="M77.0936 288.302C76.5032 288.575 75.6856 288.949 74.5501 289.483C70.5077 291.357 63.9673 294.899 63.9673 294.899L67.8166 298.658L77.7181 288.506C77.5137 288.438 77.298 288.37 77.0936 288.302Z" fill="#008056" stroke="#502A73" stroke-width="0.2704" stroke-miterlimit="10" stroke-linecap="round" stroke-linejoin="round"/>
<path d="M275.442 203.504C273.988 201.8 272.989 200.097 272.308 198.507H273.409C281.778 198.507 288.557 191.729 288.557 183.36V173.924C288.557 165.555 281.778 158.776 273.409 158.776H245.737C237.369 158.776 230.59 165.555 230.59 173.924V183.36C230.59 191.729 237.369 198.507 245.737 198.507H258.955C260.238 203.492 263.485 208.897 271.127 211.611C278.905 214.37 292.202 211.884 292.202 211.884C292.202 211.884 281.517 210.657 275.442 203.504Z" fill="#EEC718" stroke="#502A73" stroke-width="0.2704" stroke-miterlimit="10" stroke-linecap="round" stroke-linejoin="round"/>
<path d="M280.177 174.322L259.727 175.696L259.204 168.508L238.481 180.465L260.737 189.992L260.294 183.746L279.87 186.551L280.177 174.322Z" fill="#008056" stroke="#502A73" stroke-width="0.2704" stroke-miterlimit="10" stroke-linecap="round" stroke-linejoin="round"/>
<path d="M48.2325 62V33.44H67.1125C73.6325 33.44 75.3125 36.92 75.3125 40.56C75.3125 44.64 72.9525 45.8 71.4325 46.52C73.6325 47.2 76.6325 48.8 76.6325 53.6C76.6325 56.8 74.6325 62 66.9125 62H48.2325ZM54.2325 37.92V45.04H65.4325C67.1125 45.04 69.3125 44.64 69.3125 41.4C69.3125 39.04 67.8725 37.92 64.3925 37.92H54.2325ZM54.2325 49.28V57.52H64.9925C67.6725 57.52 70.3925 57 70.3925 53.32C70.3925 50.68 68.5525 49.28 65.8725 49.28H54.2325ZM105.953 52.8H85.9528C86.0728 55.16 87.6728 58.8 93.1528 58.8C96.7928 58.8 98.3928 57.52 99.4728 55.76H105.473C104.273 58.12 101.393 62.8 93.3128 62.8C83.7528 62.8 80.1928 57.24 80.1928 51.6C80.1928 44.52 85.4328 40 92.9528 40C102.353 40 105.953 45.8 105.953 52V52.8ZM85.9528 49.28H100.193C99.5128 45.04 95.7528 43.76 93.0328 43.76C90.4728 43.76 86.8728 44.96 85.9528 49.28ZM114.42 50.96C114.42 54.08 116.3 57.52 122.1 57.52C126.3 57.52 129.22 54.8 129.22 50.88C129.22 45.8 124.46 44.48 121.62 44.48C117.5 44.48 114.42 47.16 114.42 50.96ZM129.22 40.72H134.74V61.28C134.74 66.32 131.5 70.8 122.14 70.8C115.58 70.8 110.18 69.36 109.7 63.88H115.46C116.02 66.6 118.62 67.04 121.98 67.04C128.3 67.04 129.22 63.68 129.22 60.92V58.36H129.1C126.46 60.88 123.7 61.76 120.46 61.76C114.86 61.76 108.66 58.92 108.66 51.04C108.66 45.6 112.26 40.24 120.42 40.24C124.7 40.24 127.86 41.6 129.14 43.84H129.22V40.72ZM139.548 62V40.8H145.068V62H139.548ZM139.548 37.44V32.96H145.068V37.44H139.548ZM149.701 62V40.8H155.221V44H155.301C157.101 41.72 159.901 40.24 163.661 40.24C168.221 40.24 172.661 41.88 172.661 47.6V62H167.141V49.36C167.141 47.08 166.381 44.48 161.821 44.48C158.941 44.48 155.221 46.08 155.221 50.6V62H149.701ZM177.123 62V40.8H182.643V44H182.723C184.523 41.72 187.323 40.24 191.083 40.24C195.643 40.24 200.083 41.88 200.083 47.6V62H194.563V49.36C194.563 47.08 193.803 44.48 189.243 44.48C186.363 44.48 182.643 46.08 182.643 50.6V62H177.123ZM229.625 52.8H209.625C209.745 55.16 211.345 58.8 216.825 58.8C220.465 58.8 222.065 57.52 223.145 55.76H229.145C227.945 58.12 225.065 62.8 216.985 62.8C207.425 62.8 203.865 57.24 203.865 51.6C203.865 44.52 209.105 40 216.625 40C226.025 40 229.625 45.8 229.625 52V52.8ZM209.625 49.28H223.865C223.185 45.04 219.425 43.76 216.705 43.76C214.145 43.76 210.545 44.96 209.625 49.28ZM233.412 62V40.8H238.932V44.92H239.012C240.492 42.52 242.772 40.24 247.012 40.24C247.852 40.24 248.492 40.32 249.212 40.44V45.88C247.692 45.4 246.652 45.36 245.692 45.36C242.892 45.36 238.932 46.84 238.932 51.76V62H233.412Z" fill="white"/>
</svg>
