<svg width="293" height="334" viewBox="0 0 293 334" fill="none" xmlns="http://www.w3.org/2000/svg">
<path d="M236.001 -0.000244141H59.0791C42.4668 -0.000244141 28.9999 13.4668 28.9999 30.0791V250.774C28.9999 267.386 42.4668 280.853 59.0791 280.853H236.001C252.613 280.853 266.08 267.386 266.08 250.774V30.0791C266.08 13.4668 252.613 -0.000244141 236.001 -0.000244141Z" fill="#4BBEA5"/>
<path d="M202.157 267.829C202.305 271.293 210.333 277.243 221.835 285.872C233.338 294.502 241.161 301.644 247.191 303.904C253.22 306.164 256.865 303.177 259.136 296.489C261.407 289.801 259.738 276.891 246.589 256.463C233.44 236.035 226.968 229.347 224.56 227.678C222.153 226.009 217.793 222.943 211.286 227.462C209.981 228.371 202.759 233.424 202.759 233.424L187.702 244.415C187.327 248.219 199.863 249.548 200.511 252.08C201.408 255.577 202.1 266.524 202.157 267.829Z" fill="#4BBEA5" stroke="#502A73" stroke-width="0.2704" stroke-miterlimit="10" stroke-linecap="round" stroke-linejoin="round"/>
<path d="M188.021 245.585C189.724 248.208 195.64 247.685 197.82 249.525C204.667 247.719 215.624 240.1 217.532 234.956C218.974 231.084 218.599 227.712 217.714 225.123C215.863 225.157 213.728 225.782 211.287 227.485C209.981 228.393 202.759 233.446 202.759 233.446L187.759 244.392L188.021 245.585Z" fill="#4BBEA5" stroke="#502A73" stroke-width="0.2704" stroke-miterlimit="10" stroke-linecap="round" stroke-linejoin="round"/>
<path d="M224.56 227.69C222.153 226.02 217.793 222.955 211.286 227.474C210.548 227.985 207.925 229.824 205.779 231.323C205.893 231.857 205.995 232.425 206.313 232.902C213.41 243.643 229.613 240.6 238.129 256.111C241.672 262.572 236.051 267.829 236.642 274.665C237.232 281.501 249.553 285.384 253.254 290.38C257.217 295.729 253.322 303.314 251.926 304.574C255.264 304.097 257.546 301.213 259.147 296.489C261.418 289.801 259.749 276.891 246.6 256.463C233.44 236.047 226.968 229.359 224.56 227.69Z" fill="#008056" stroke="#502A73" stroke-width="0.2704" stroke-miterlimit="10" stroke-linecap="round" stroke-linejoin="round"/>
<path d="M210.083 247.243C210.435 247.731 210.935 248.413 211.627 249.366C214.08 252.739 218.531 258.121 218.531 258.121L221.279 253.897L210.151 246.63C210.129 246.834 210.106 247.039 210.083 247.243Z" fill="#008056" stroke="#502A73" stroke-width="0.2704" stroke-miterlimit="10" stroke-linecap="round" stroke-linejoin="round"/>
<path d="M258.273 298.715C256.82 298.318 252.585 297.421 248.724 299.351C246.43 300.498 246.067 302.167 246.589 303.666C246.794 303.757 246.998 303.836 247.202 303.904C252.516 305.903 255.968 303.813 258.273 298.715Z" fill="#008056" stroke="#502A73" stroke-width="0.2704" stroke-miterlimit="10" stroke-linecap="round" stroke-linejoin="round"/>
<path d="M218.475 276.561L217.305 278.923C218.248 279.638 219.065 280.263 219.621 280.717C220.042 281.058 220.439 281.376 220.825 281.66L221.824 279.638C220.836 278.696 219.678 277.64 218.475 276.561Z" fill="#4BBEA5" stroke="#502A73" stroke-width="0.2704" stroke-miterlimit="10" stroke-linecap="round" stroke-linejoin="round"/>
<path d="M209.879 269.203L206.211 270.725C206.211 270.725 213.115 275.744 217.316 278.935L218.486 276.573C214.409 272.939 209.879 269.203 209.879 269.203Z" fill="#4BBEA5" stroke="#502A73" stroke-width="0.2704" stroke-miterlimit="10" stroke-linecap="round" stroke-linejoin="round"/>
<path d="M224.561 282.625C224.152 281.977 223.142 280.91 221.824 279.65L220.825 281.671C224.55 284.555 226.173 285.157 224.561 282.625Z" fill="#4BBEA5" stroke="#502A73" stroke-width="0.2704" stroke-miterlimit="10" stroke-linecap="round" stroke-linejoin="round"/>
<path d="M205.768 278.594C205.768 278.594 210.14 290.551 215.692 292.515C221.245 294.479 222.369 291.981 227.07 286.872C231.374 282.193 228.648 276.857 223.857 273.552C219.065 270.248 210.14 268.159 210.14 268.159L205.768 278.594Z" fill="#4BBEA5" stroke="#502A73" stroke-width="0.2704" stroke-miterlimit="10" stroke-linecap="round" stroke-linejoin="round"/>
<path d="M210.367 270.759C212.91 271.384 219.326 273.257 222.687 275.574C224.685 276.948 226.048 278.651 226.434 280.252C226.82 281.83 226.309 283.397 224.924 284.896C224.299 285.577 223.72 286.224 223.221 286.792C222.789 287.28 222.392 287.723 222.017 288.132C219.598 290.755 218.769 291.028 216.067 290.074C213.353 289.109 209.856 283.147 208.312 278.946" fill="#4BBEA5"/>
<path d="M210.367 270.759C212.91 271.384 219.326 273.257 222.687 275.574C224.685 276.948 226.048 278.651 226.434 280.252C226.82 281.83 226.309 283.397 224.924 284.896C224.299 285.577 223.72 286.224 223.221 286.792C222.789 287.28 222.392 287.723 222.017 288.132C219.598 290.755 218.769 291.028 216.067 290.074C213.353 289.109 209.856 283.147 208.312 278.946" stroke="#502A73" stroke-width="0.2704" stroke-miterlimit="10" stroke-linecap="round" stroke-linejoin="round"/>
<path d="M127.884 251.626C127.884 251.626 125.557 253.42 121.537 255.135C117.517 256.849 111.806 258.507 110.318 260.949C108.297 264.253 111.125 265.547 115.314 265.547C118.051 265.547 128.146 265.547 128.146 265.547C128.146 265.547 118.891 275.914 125.92 276.993C132.949 278.072 135.856 269.056 135.856 269.056L150.31 250.547" fill="#BF792A"/>
<path d="M127.884 251.626C127.884 251.626 125.557 253.42 121.537 255.135C117.517 256.849 111.806 258.507 110.318 260.949C108.297 264.253 111.125 265.547 115.315 265.547C118.051 265.547 128.146 265.547 128.146 265.547C128.146 265.547 118.891 275.914 125.92 276.993C132.949 278.072 135.856 269.056 135.856 269.056L150.31 250.547" stroke="#502A73" stroke-width="0.2704" stroke-miterlimit="10" stroke-linecap="round" stroke-linejoin="round"/>
<path d="M116.825 185.063C116.893 185.903 116.95 186.732 117.018 187.527C118.097 201.176 127.215 257.848 127.215 257.848L156.942 248.662L147.904 192.387L116.825 185.063Z" fill="#BF792A" stroke="#502A73" stroke-width="0.2704" stroke-miterlimit="10" stroke-linecap="round" stroke-linejoin="round"/>
<path d="M146.268 182.179L131.609 137.861C131.609 137.861 122.219 139.076 117.892 146.104C114.508 151.611 115.758 171.369 116.825 185.052L147.903 192.376L146.268 182.179Z" fill="white" stroke="#502A73" stroke-width="0.2704" stroke-miterlimit="10" stroke-linecap="round" stroke-linejoin="round"/>
<path d="M198.955 223.931L180.719 199.609L154.512 193.931L150.935 194.158L150.186 192.716L109.717 176.774C109.717 176.774 97.3057 171.653 81.545 171.846C64.5239 172.05 57.6315 191.638 53.169 210.964C48.7065 230.29 41.5188 272.848 41.5188 272.848C41.5188 272.848 45.1637 282.579 79.3876 286.633C97.987 288.836 100.19 281.671 100.19 281.671C100.19 281.671 103.835 235.161 108.57 229.484C113.293 223.806 149.107 221.512 149.107 221.512H149.266C144.508 227.19 130.326 244.563 123.309 258.268C114.792 274.892 107.502 288.802 117.631 303.257C127.76 317.712 146.95 313.124 160.598 307.311C170.965 302.893 198.024 290.755 210.435 285.18C214.08 283.545 215.931 279.445 214.773 275.63L198.955 223.931Z" fill="#EEC718" stroke="#502A73" stroke-width="0.2704" stroke-miterlimit="10" stroke-linecap="round" stroke-linejoin="round"/>
<path d="M153.274 294.116C150.197 294.116 147.494 293.083 145.587 291.096C143.066 288.461 142.396 284.612 143.804 280.797C145.462 276.323 153.672 264.843 164.232 250.309C167.343 246.028 170.034 242.326 171.681 239.919C177.313 231.721 181.616 218.22 181.662 218.083C182.116 216.63 183.671 215.824 185.125 216.278C186.578 216.732 187.384 218.288 186.93 219.741C186.749 220.32 182.343 234.151 176.234 243.042C174.542 245.494 171.84 249.23 168.694 253.545C161.45 263.515 150.504 278.583 148.982 282.704C148.312 284.51 148.528 286.179 149.572 287.269C150.946 288.7 153.535 288.995 156.488 288.041C175.246 282 204.86 263.128 205.166 262.947C206.449 262.129 208.164 262.504 208.982 263.787C209.799 265.07 209.424 266.785 208.141 267.602C206.904 268.397 177.619 287.053 158.179 293.31C156.499 293.855 154.841 294.116 153.274 294.116Z" fill="#EEC718" stroke="#502A73" stroke-width="0.2704" stroke-miterlimit="10" stroke-linecap="round" stroke-linejoin="round"/>
<path d="M186.533 254.805C186.533 254.805 175.178 265.547 166.878 272.031C158.566 278.514 158.566 278.514 158.566 278.514" stroke="#502A73" stroke-width="0.2704" stroke-miterlimit="10" stroke-linecap="round" stroke-linejoin="round"/>
<path d="M149.107 221.502H149.266C149.266 221.502 153.297 217.516 152.491 214.28C151.684 211.032 148.255 211.407 140.738 211.237C116.689 210.692 101.019 203.811 94.9324 209.613C87.6085 216.619 85.7349 239.533 83.9862 251.161C82.0218 264.298 80.5911 278.935 79.8984 286.679" stroke="#502A73" stroke-width="0.2704" stroke-miterlimit="10" stroke-linecap="round" stroke-linejoin="round"/>
<path d="M196.934 166.373C201.635 163.08 209.095 159.889 210.957 159.117C203.792 154.586 192.562 150.01 175.587 144.753C149.448 136.645 131.609 137.86 131.609 137.86C126.749 145.162 125.534 182.849 125.534 182.849L109.728 176.774C109.728 176.774 113.986 185.892 122.298 191.978C130.61 198.053 151.083 201.505 161.62 206.978C172.157 212.451 168.104 218.128 173.168 224.817C178.232 231.505 185.193 227.178 185.193 227.178C185.193 227.178 187.759 188.129 188.168 181.917C188.554 175.695 191.529 170.154 196.934 166.373Z" fill="white" stroke="#502A73" stroke-width="0.2704" stroke-miterlimit="10" stroke-linecap="round" stroke-linejoin="round"/>
<path d="M125.523 182.86C125.523 182.86 135.526 187.186 142.476 190.968C149.402 194.726 154.807 198.507 161.927 200.29C172.737 202.992 182.604 202.447 182.604 202.447" stroke="#502A73" stroke-width="0.2704" stroke-miterlimit="10" stroke-linecap="round" stroke-linejoin="round"/>
<path d="M141.885 174.866C145.995 173.628 148.085 175.456 148.085 175.456C148.085 175.456 142.146 175.422 139.512 177.773C136.877 180.112 138.762 184.926 141.567 183.166C146.211 180.248 148.63 180.805 148.63 180.805C148.63 180.805 145.916 181.77 144.326 183.711C142.725 185.653 143.168 188.208 145.167 188.753C146.382 189.082 153.263 182.462 151.605 187.197C150.992 188.969 150.628 190.218 149.902 191.626C149.413 192.568 148.528 193.261 147.415 193.772C149.845 195.169 152.184 196.486 154.591 197.621C155.193 197.315 155.715 196.929 156.124 196.418C157.475 194.714 157.543 191.455 157.68 188.651C157.907 183.575 161.756 192.773 162.982 193.022C165.004 193.443 166.344 191.319 165.594 188.821C164.845 186.323 162.733 184.2 162.733 184.2C162.733 184.2 165.14 184.813 168.308 189.605C170.216 192.5 173.702 188.98 172.157 185.63C170.613 182.281 165.185 179.59 165.185 179.59C165.185 179.59 167.774 178.886 171.056 181.906C173.384 184.041 174.678 185.812 175.598 184.608C177.335 182.315 176.302 176.626 169.682 173.276C162.778 169.779 157.612 172.47 156.998 172.765C156.544 172.22 153.876 167.644 146.302 167.667C139.035 167.69 136.014 172.402 136.753 175.286C137.15 176.762 138.989 175.74 141.885 174.866Z" fill="#4BBEA5" stroke="#502A73" stroke-width="0.2704" stroke-miterlimit="10" stroke-linecap="round" stroke-linejoin="round"/>
<path d="M182.07 158.231C182.07 158.231 191.188 151.85 196.866 152.554C202.543 153.258 206.983 155.915 209.935 155.699C216.93 155.188 221.994 151.543 221.994 151.543L215.783 148.5C213.319 147.296 211.025 145.752 208.982 143.912L205.087 140.415C205.064 140.392 204.11 139.598 203.088 138.735C201.544 137.44 199.477 136.974 197.536 137.485C194.038 138.405 175.178 143.946 174.871 144.753" fill="#4BBEA5"/>
<path d="M182.07 158.231C182.07 158.231 191.188 151.85 196.866 152.554C202.543 153.258 206.983 155.915 209.935 155.699C216.93 155.188 221.994 151.543 221.994 151.543L215.783 148.5C213.319 147.296 211.025 145.752 208.982 143.912L205.087 140.415C205.064 140.392 204.11 139.598 203.088 138.735C201.544 137.44 199.477 136.974 197.536 137.485C194.038 138.405 175.178 143.946 174.871 144.753" stroke="#502A73" stroke-width="0.2704" stroke-miterlimit="10" stroke-linecap="round" stroke-linejoin="round"/>
<path d="M215.783 148.5C213.319 147.296 211.025 145.752 208.982 143.912L205.087 140.415C205.064 140.392 204.11 139.598 203.088 138.735C201.544 137.44 199.477 136.974 197.536 137.485C194.038 138.405 175.178 143.946 174.871 144.753L181.468 157.118C183.785 154.404 189.996 147.739 194.527 148.307C200.204 149.011 204.644 151.668 207.596 151.452C211.355 151.18 214.545 149.999 216.714 148.965L215.783 148.5Z" fill="#008056" stroke="#502A73" stroke-width="0.2704" stroke-miterlimit="10" stroke-linecap="round" stroke-linejoin="round"/>
<path d="M215.783 148.5C213.319 147.296 211.025 145.752 208.982 143.912L205.087 140.415C205.064 140.392 204.11 139.598 203.088 138.735C201.544 137.44 199.477 136.974 197.536 137.485C194.038 138.405 175.178 143.946 174.871 144.753L181.468 157.118C183.785 154.404 189.996 147.739 194.527 148.307C200.204 149.011 204.644 151.668 207.596 151.452C211.355 151.18 214.545 149.999 216.714 148.965L215.783 148.5Z" stroke="#502A73" stroke-width="0.2704" stroke-miterlimit="10" stroke-linecap="round" stroke-linejoin="round"/>
<path d="M156.726 144.424L155.681 144.855C153.626 145.695 152.32 147.739 152.422 149.965L153.115 165.271C153.229 167.701 155.25 169.609 157.68 169.575L170.079 169.393C171.397 169.371 172.668 168.916 173.69 168.076L188.497 152.724C190.087 151.066 190.2 148.489 188.747 146.717L185.272 142.471C184.671 141.733 183.864 141.199 182.945 140.926L172.373 137.781" fill="#008056"/>
<path d="M156.726 144.424L155.681 144.855C153.626 145.695 152.32 147.739 152.422 149.965L153.115 165.271C153.229 167.701 155.25 169.609 157.68 169.575L170.079 169.393C171.397 169.371 172.668 168.916 173.69 168.076L188.497 152.724C190.087 151.066 190.2 148.489 188.747 146.717L185.272 142.471C184.671 141.733 183.864 141.199 182.945 140.926L172.373 137.781" stroke="#502A73" stroke-width="0.2704" stroke-miterlimit="10" stroke-linecap="round" stroke-linejoin="round"/>
<path d="M156.726 144.424L155.681 144.855C153.626 145.695 152.32 147.739 152.422 149.965L153.115 165.271C153.229 167.701 155.25 169.609 157.68 169.575L170.079 169.393C171.397 169.371 172.668 168.916 173.69 168.076L188.497 152.724C190.087 151.066 190.2 148.489 188.747 146.717L185.272 142.471C184.671 141.733 183.864 141.199 182.945 140.926L172.373 137.781" stroke="#502A73" stroke-width="0.2704" stroke-miterlimit="10" stroke-linecap="round" stroke-linejoin="round"/>
<path d="M162.108 154.882L176.461 143.958C175.973 135.714 174.928 119.613 174.065 115.264C172.669 108.258 171.703 106.419 167.173 105.147C161.052 103.432 150.81 118.489 150.81 118.489C150.81 118.489 150.424 121.248 150.038 124.87C150.004 125.313 149.822 125.733 149.516 126.051L146.155 129.605C145.598 130.275 145.882 131.297 146.711 131.592L149.13 132.648C149.641 132.898 149.561 133.432 149.005 134.318C148.221 135.567 149.448 136.271 149.72 136.441C150.22 136.736 149.459 136.77 149.323 137.747C149.209 138.587 149.618 138.86 149.652 139.359C149.743 140.608 149.845 141.108 149.947 142.039C150.083 143.413 151.151 144.514 152.513 144.708L159.656 145.695L161.359 155.211L162.108 154.882Z" fill="#BF792A" stroke="#502A73" stroke-width="0.2704" stroke-miterlimit="10" stroke-linecap="round" stroke-linejoin="round"/>
<path d="M156.942 116.592C160.053 115.457 163.164 113.458 163.164 113.458C163.164 113.458 160.507 116.672 161.098 117.512C161.688 118.352 165.004 117.024 165.095 117.115C165.185 117.217 162.744 119.613 162.914 120.623C163.085 121.634 164.538 121.066 164.629 121.35C164.72 121.645 162.494 123.916 162.699 124.552C162.903 125.2 163.664 125.438 163.664 125.438C163.664 125.438 162.892 128.197 164.936 129.151C166.98 130.105 167.627 128.719 167.865 125.052C167.933 123.916 168.671 123.087 169.421 123.394C170.783 123.962 172.487 126.823 172.487 126.823C172.487 126.823 173.838 131.967 175.746 132.682C175.246 125.597 174.633 118.159 174.054 115.264C172.657 108.258 171.692 106.418 167.161 105.147C161.052 103.443 153.319 117.921 156.942 116.592Z" fill="#502A73" stroke="#502A73" stroke-width="0.2704" stroke-miterlimit="10" stroke-linecap="round" stroke-linejoin="round"/>
<path d="M156.942 116.592C160.053 115.457 163.164 113.458 163.164 113.458C163.164 113.458 160.507 116.672 161.098 117.512C161.688 118.352 165.004 117.024 165.095 117.115C165.185 117.217 162.744 119.613 162.914 120.623C163.085 121.634 164.538 121.066 164.629 121.35C164.72 121.645 162.494 123.916 162.699 124.552C162.903 125.2 163.664 125.438 163.664 125.438C163.664 125.438 162.892 128.197 164.936 129.151C166.98 130.105 167.627 128.719 167.865 125.052C167.933 123.916 168.671 123.087 169.421 123.394C170.783 123.962 172.487 126.823 172.487 126.823C172.487 126.823 173.838 131.967 175.746 132.682C175.246 125.597 174.633 118.159 174.054 115.264C172.657 108.258 171.692 106.418 167.161 105.147C161.052 103.443 153.319 117.921 156.942 116.592Z" stroke="#502A73" stroke-width="0.2704" stroke-miterlimit="10" stroke-linecap="round" stroke-linejoin="round"/>
<path d="M167.752 105.204C163.993 104.193 157.953 104.488 153.899 108.519C151.208 111.199 150.81 116.831 150.81 118.205L174.769 120.941C174.769 120.941 176.87 107.668 167.752 105.204Z" fill="#008056" stroke="#502A73" stroke-width="0.2704" stroke-miterlimit="10" stroke-linecap="round" stroke-linejoin="round"/>
<path d="M168.353 126.074C168.41 125.37 168.546 124.768 168.751 124.348C169.591 122.701 171.362 121.941 173.009 122.77C174.655 123.598 174.996 125.517 174.553 127.3C174.133 128.969 173.225 130.423 172.225 131.218C171.453 131.819 170.624 132.046 169.92 131.683" fill="#BF792A"/>
<path d="M168.353 126.074C168.41 125.37 168.546 124.768 168.751 124.348C169.591 122.701 171.362 121.941 173.009 122.77C174.655 123.598 174.996 125.517 174.553 127.3C174.133 128.969 173.225 130.423 172.225 131.218C171.453 131.819 170.624 132.046 169.92 131.683" stroke="#502A73" stroke-width="0.2704" stroke-miterlimit="10" stroke-linecap="round" stroke-linejoin="round"/>
<path d="M167.661 130.309C167.661 130.309 167.093 131.286 166.071 131.32C165.049 131.354 163.982 130.252 163.982 130.252" stroke="#502A73" stroke-width="0.2704" stroke-miterlimit="10" stroke-linecap="round" stroke-linejoin="round"/>
<path d="M167.502 132.047C167.502 132.047 166.934 133.023 165.912 133.057C164.89 133.091 163.823 131.99 163.823 131.99" stroke="#502A73" stroke-width="0.2704" stroke-miterlimit="10" stroke-linecap="round" stroke-linejoin="round"/>
<path d="M169.977 126.324C169.977 126.324 170.465 124.394 172.078 125.222C173.122 125.756 172.816 127.516 171.817 128.004C171.26 128.277 170.454 127.993 170.454 127.993C170.454 127.993 170.976 128.413 170.693 128.947C170.329 129.617 169.602 129.026 169.602 129.026" fill="#BF792A"/>
<path d="M169.977 126.324C169.977 126.324 170.465 124.394 172.078 125.222C173.122 125.756 172.816 127.516 171.817 128.004C171.26 128.277 170.454 127.993 170.454 127.993C170.454 127.993 170.976 128.413 170.693 128.947C170.329 129.617 169.602 129.026 169.602 129.026" stroke="#502A73" stroke-width="0.2704" stroke-miterlimit="10" stroke-linecap="round" stroke-linejoin="round"/>
<path d="M149.743 136.441C149.743 136.441 151.4 137.191 152.854 137.145C154.364 137.1 155.102 136.668 155.102 136.668" stroke="#502A73" stroke-width="0.2704" stroke-miterlimit="10" stroke-linecap="round" stroke-linejoin="round"/>
<path d="M155.216 124.7C155.783 124.587 156.374 124.632 156.919 124.837" stroke="#502A73" stroke-width="0.5408" stroke-miterlimit="10" stroke-linecap="round" stroke-linejoin="round"/>
<path d="M155.465 124.7C155.272 124.995 155.125 125.483 155.091 125.949C155.034 126.676 155.272 127.05 155.602 127.073C155.931 127.096 156.226 126.767 156.283 126.04C156.317 125.574 156.249 125.063 156.113 124.745L155.465 124.7Z" fill="#502A73"/>
<path d="M149.879 124.268C150.447 124.155 151.037 124.2 151.582 124.405" stroke="#502A73" stroke-width="0.5408" stroke-miterlimit="10" stroke-linecap="round" stroke-linejoin="round"/>
<path d="M150.129 124.257C149.936 124.553 149.788 125.041 149.754 125.506C149.698 126.233 149.936 126.608 150.265 126.63C150.595 126.653 150.89 126.324 150.947 125.597C150.981 125.132 150.913 124.621 150.776 124.303L150.129 124.257Z" fill="#502A73"/>
<path d="M153.546 122.316C153.683 122.611 154.046 122.736 154.33 122.565C154.807 122.27 155.59 121.952 156.51 122.168C157.01 122.293 157.384 122.44 157.646 122.599C157.952 122.781 158.35 122.554 158.361 122.191C158.372 122.043 158.304 121.907 158.202 121.805C157.657 121.294 155.84 119.931 153.705 121.657C153.512 121.827 153.444 122.088 153.546 122.316Z" fill="#502A73"/>
<path d="M157.43 136.055C158.054 136.271 158.509 135.987 158.509 135.987C158.509 135.987 156.635 134 156.09 133.682C155.545 133.375 154.092 133.443 152.002 133.546C150.878 133.602 150.026 133.409 149.481 133.216C149.47 133.5 149.311 133.864 149.027 134.329C148.982 134.409 148.936 134.488 148.902 134.568C149.459 134.795 150.333 135.079 151.4 135.181C153.285 135.362 155.488 135.09 155.67 135.056C155.761 135.022 156.692 135.794 157.43 136.055Z" fill="#502A73" stroke="#502A73" stroke-width="0.2704" stroke-miterlimit="10" stroke-linecap="round" stroke-linejoin="round"/>
<path d="M157.43 136.055C158.054 136.271 158.509 135.987 158.509 135.987C158.509 135.987 156.635 134 156.09 133.682C155.545 133.375 154.092 133.443 152.002 133.546C150.878 133.602 150.026 133.409 149.481 133.216C149.47 133.5 149.311 133.864 149.027 134.329C148.982 134.409 148.936 134.488 148.902 134.568C149.459 134.795 150.333 135.079 151.4 135.181C153.285 135.362 155.488 135.09 155.67 135.056C155.761 135.022 156.692 135.794 157.43 136.055Z" stroke="#502A73" stroke-width="0.2704" stroke-miterlimit="10" stroke-linecap="round" stroke-linejoin="round"/>
<path d="M151.253 120.919C150.98 120.817 150.731 120.794 150.515 120.828L150.367 122.1C150.492 122.066 150.617 122.054 150.776 122.066C151.094 122.111 151.401 122.247 151.65 122.395C151.923 122.565 152.275 122.463 152.423 122.179C152.536 121.963 152.491 121.691 152.309 121.532C152.105 121.35 151.775 121.123 151.253 120.919Z" fill="#502A73"/>
<path d="M156.022 115.218C144.474 108.485 133.528 112.266 138.649 116.57C142.896 120.135 167.014 120.033 167.014 120.033C167.014 120.033 160.258 117.682 156.022 115.218Z" fill="#502A73" stroke="#502A73" stroke-width="0.2704" stroke-miterlimit="10" stroke-linecap="round" stroke-linejoin="round"/>
<path d="M156.022 115.218C144.474 108.485 133.528 112.266 138.649 116.57C142.896 120.135 167.014 120.033 167.014 120.033C167.014 120.033 160.258 117.682 156.022 115.218Z" stroke="#502A73" stroke-width="0.2704" stroke-miterlimit="10" stroke-linecap="round" stroke-linejoin="round"/>
<path d="M208.312 289.052C210.367 278.253 213.966 250.388 217.339 223.795C217.861 219.662 218.383 215.551 218.872 211.543C219.121 209.499 219.36 207.489 219.587 205.513C215.874 208.17 208.663 212.077 198.558 211.906C191.767 211.781 188.156 210.43 186.351 209.374C186.237 211.032 186.135 212.656 186.033 214.2C185.556 221.535 185.181 227.179 185.181 227.179C182.229 241.088 182.74 270.203 182.967 283.272C183.001 285.259 182.093 287.156 180.515 288.359C178.823 289.654 176.711 291.527 175.598 293.514C172.498 299.067 172.066 306.118 170.465 308.514C167.763 312.568 169.92 316.213 175.325 314.589C180.73 312.965 184.103 306.89 184.103 306.89C184.103 306.89 189.269 319.256 195.957 321.993C200.772 323.957 203.417 321.482 203.417 321.482C203.417 321.482 206.188 323.196 208.959 322.56C211.911 321.89 212.774 319.812 212.774 319.812C212.774 319.812 215.454 321.482 218.554 320.403C220.938 319.574 220.325 316.724 220.325 316.724C220.325 316.724 224.629 316.758 224.492 313.919C224.356 311.08 220.575 307.299 215.442 301.485C211.934 297.511 209.492 292.095 208.312 289.052Z" fill="#BF792A" stroke="#502A73" stroke-width="0.2704" stroke-miterlimit="10" stroke-linecap="round" stroke-linejoin="round"/>
<path d="M219.587 205.513C221.71 186.982 222.698 171.505 219.269 166.543C217.52 164.011 214.841 161.569 210.969 159.117C209.106 159.889 201.646 163.08 196.945 166.373C191.54 170.154 188.565 175.695 188.168 181.906C187.952 185.256 187.1 198.178 186.362 209.362C188.157 210.418 191.779 211.781 198.569 211.895C208.664 212.088 215.863 208.182 219.587 205.513Z" fill="white" stroke="#502A73" stroke-width="0.2704" stroke-miterlimit="10" stroke-linecap="round" stroke-linejoin="round"/>
<path d="M192.801 247.527C192.801 247.527 195.117 248.912 200.897 249.491C206.676 250.07 211.184 249.491 211.184 249.491C211.184 249.491 206.676 252.148 202.509 253.885C198.353 255.623 193.607 257.008 193.607 257.008C193.607 257.008 194.413 258.802 200.306 259.461C206.199 260.131 207.006 260.131 207.006 260.131L195.889 267.409" stroke="#502A73" stroke-width="0.2704" stroke-miterlimit="10" stroke-linecap="round" stroke-linejoin="round"/>
<path d="M195.628 307.855C196.309 308.787 197.172 309.877 198.217 311.023C201.419 314.555 204.496 318.87 203.429 321.481" fill="#BF792A"/>
<path d="M195.628 307.855C196.309 308.787 197.172 309.877 198.217 311.023C201.419 314.555 204.496 318.87 203.429 321.481" stroke="#502A73" stroke-width="0.2704" stroke-miterlimit="10" stroke-linecap="round" stroke-linejoin="round"/>
<path d="M212.774 319.812C212.774 319.812 213.387 319.256 212.116 316.167C211.468 314.589 206.994 309.695 204.224 306.754" fill="#BF792A"/>
<path d="M212.774 319.812C212.774 319.812 213.387 319.256 212.116 316.167C211.468 314.589 206.994 309.695 204.224 306.754" stroke="#502A73" stroke-width="0.2704" stroke-miterlimit="10" stroke-linecap="round" stroke-linejoin="round"/>
<path d="M220.325 316.724C220.325 316.724 219.871 314.702 218.201 312.466C217.248 311.194 215.147 309.104 213.217 306.958C211.752 305.335 210.242 303.382 210.242 303.382" fill="#BF792A"/>
<path d="M220.325 316.724C220.325 316.724 219.871 314.702 218.201 312.466C217.248 311.194 215.147 309.104 213.217 306.958C211.752 305.335 210.242 303.382 210.242 303.382" stroke="#502A73" stroke-width="0.2704" stroke-miterlimit="10" stroke-linecap="round" stroke-linejoin="round"/>
<path d="M187.066 228.393C187.066 228.393 191.926 231.368 197.876 231.766C203.826 232.175 207.199 230.687 207.199 230.687" stroke="#502A73" stroke-width="0.2704" stroke-miterlimit="10" stroke-linecap="round" stroke-linejoin="round"/>
<path d="M48.2747 279.979C48.2747 279.979 36.3975 272.666 39.997 266.262C42.6995 261.47 46.9689 261.493 57.2906 262.753C66.7606 263.9 69.0543 270.94 67.0104 277.617C64.9779 284.294 64.4442 287.303 64.4442 287.303L26.1666 314.884L19.7852 309.127L48.2747 279.979Z" fill="#4BBEA5" stroke="#502A73" stroke-width="0.2704" stroke-miterlimit="10" stroke-linecap="round" stroke-linejoin="round"/>
<path d="M62.1164 284.702C64.3193 282.215 62.2641 281.296 63.6948 276.606C64.5464 273.824 64.3647 271.201 63.2065 269.418C62.0597 267.658 59.9363 266.58 56.8818 266.205C55.5079 266.035 54.2248 265.864 53.0893 265.705C52.1241 265.58 51.2384 265.456 50.4095 265.353C45.0954 264.706 42.9152 265.512 41.8479 267.999C40.6442 270.838 46.0492 273.699 49.1718 277.673C50.0916 278.832 50.7501 280.183 51.1021 281.625C51.1703 281.897 51.2157 282.159 51.2498 282.42" fill="#4BBEA5"/>
<path d="M62.1164 284.702C64.3193 282.215 62.2641 281.296 63.6948 276.606C64.5464 273.824 64.3647 271.201 63.2065 269.418C62.0597 267.658 59.9363 266.58 56.8818 266.205C55.5079 266.035 54.2248 265.864 53.0893 265.705C52.1241 265.58 51.2384 265.456 50.4095 265.353C45.0954 264.706 42.9152 265.512 41.8479 267.999C40.6442 270.838 46.0492 273.699 49.1718 277.673C50.0916 278.832 50.7501 280.183 51.1021 281.625C51.1703 281.897 51.2157 282.159 51.2498 282.42" stroke="#502A73" stroke-width="0.2704" stroke-miterlimit="10" stroke-linecap="round" stroke-linejoin="round"/>
<path d="M64.1149 283.976L46.5942 281.852" stroke="#502A73" stroke-width="0.2704" stroke-miterlimit="10" stroke-linecap="round" stroke-linejoin="round"/>
<path d="M41.5303 286.86L59.0623 288.983" stroke="#502A73" stroke-width="0.2704" stroke-miterlimit="10" stroke-linecap="round" stroke-linejoin="round"/>
<path d="M36.4769 291.879L53.9976 294.002" stroke="#502A73" stroke-width="0.2704" stroke-miterlimit="10" stroke-linecap="round" stroke-linejoin="round"/>
<path d="M31.4127 296.886L48.9448 299.01" stroke="#502A73" stroke-width="0.2704" stroke-miterlimit="10" stroke-linecap="round" stroke-linejoin="round"/>
<path d="M26.3596 301.905L43.8803 304.028" stroke="#502A73" stroke-width="0.2704" stroke-miterlimit="10" stroke-linecap="round" stroke-linejoin="round"/>
<path d="M46.1286 278.48C46.1286 278.48 35.3869 286.406 26.8139 294.093C15.3908 304.358 6.31815 311.057 2.69592 316.905C-0.92631 322.753 1.44689 327.17 7.97599 330.94C14.5051 334.698 28.3695 335.629 52.4647 326.091C76.5599 316.553 84.9058 311.16 87.1428 308.991C89.391 306.822 93.5015 302.893 90.1178 295.149C89.4365 293.593 88.3691 290.857 88.3691 290.857L84.4857 287.03C83.407 286.86 77.2866 287.132 72.7106 282.125C71.1663 280.444 69.3722 278.65 66.5903 278.798C62.7523 279.002 57.2451 283.306 50.2959 289.278C47.2982 291.856 33.8199 304.267 30.7086 307.14C30.3339 307.492 29.7661 307.526 29.346 307.242C28.7896 306.867 28.6988 306.084 29.153 305.584C31.3218 303.222 37.1696 296.932 41.7229 292.787C43.7555 290.936 46.0151 288.54 47.4231 287.007C48.3201 286.031 48.9447 284.839 49.2399 283.544C49.626 281.898 48.8992 280.195 47.4572 279.309L46.1286 278.48Z" fill="#4BBEA5" stroke="#502A73" stroke-width="0.2704" stroke-miterlimit="10" stroke-linecap="round" stroke-linejoin="round"/>
<path d="M87.2789 287.053C85.905 287.075 84.3834 287.007 82.7142 286.848C83.5318 290.107 85.4054 296.443 88.8686 300.576C89.6748 301.542 90.4129 302.416 91.0715 303.199C91.6506 301.11 91.5825 298.487 90.129 295.137C89.7089 294.184 88.3009 290.085 87.2789 287.053Z" fill="#4BBEA5" stroke="#502A73" stroke-width="0.2704" stroke-miterlimit="10" stroke-linecap="round" stroke-linejoin="round"/>
<path d="M87.0859 296.046C80.341 294.059 77.4796 296.977 74.6522 300.122C71.8248 303.268 69.5652 313.714 61.9006 315.463C54.236 317.211 51.7379 310.966 44.4026 310.898C37.0673 310.83 30.9924 322.548 26.0416 326.954C21.0795 331.36 11.1099 326.193 11.1099 326.193L11.2688 332.359C18.7177 334.744 31.844 334.244 52.4646 326.08C76.5598 316.542 84.9057 311.148 87.1427 308.979C88.7778 307.39 91.4121 304.869 91.4008 300.599C91.0715 298.748 89.9587 296.898 87.0859 296.046Z" fill="#008056" stroke="#502A73" stroke-width="0.2704" stroke-miterlimit="10" stroke-linecap="round" stroke-linejoin="round"/>
<path d="M6.37491 320.152C3.52482 319.948 1.95783 321.39 1.09485 323.173C1.57176 326.125 4.01308 328.657 7.98732 330.951C10.2129 332.234 13.2901 333.177 17.3211 333.506C16.0266 327.556 12.5407 320.584 6.37491 320.152Z" fill="#008056" stroke="#502A73" stroke-width="0.2704" stroke-miterlimit="10" stroke-linecap="round" stroke-linejoin="round"/>
<path d="M77.0939 288.302C76.5034 288.574 75.6858 288.949 74.5503 289.483C70.508 291.356 63.9675 294.899 63.9675 294.899L67.8169 298.657L77.7184 288.506C77.514 288.438 77.2982 288.37 77.0939 288.302Z" fill="#008056" stroke="#502A73" stroke-width="0.2704" stroke-miterlimit="10" stroke-linecap="round" stroke-linejoin="round"/>
<path d="M275.442 203.503C273.989 201.8 272.989 200.097 272.308 198.507H273.409C281.778 198.507 288.557 191.728 288.557 183.36V173.924C288.557 165.555 281.778 158.776 273.409 158.776H245.737C237.369 158.776 230.59 165.555 230.59 173.924V183.36C230.59 191.728 237.369 198.507 245.737 198.507H258.955C260.238 203.492 263.485 208.897 271.127 211.611C278.905 214.37 292.202 211.883 292.202 211.883C292.202 211.883 281.517 210.657 275.442 203.503Z" fill="#EEC718" stroke="#502A73" stroke-width="0.2704" stroke-miterlimit="10" stroke-linecap="round" stroke-linejoin="round"/>
<path d="M280.177 174.322L259.727 175.696L259.205 168.508L238.482 180.465L260.738 189.991L260.295 183.746L279.871 186.551L280.177 174.322Z" fill="#008056" stroke="#502A73" stroke-width="0.2704" stroke-miterlimit="10" stroke-linecap="round" stroke-linejoin="round"/>
<path d="M102.17 44.6386L107.22 48.1344C104.792 51.1447 105.229 57.8936 112.318 57.8936H126.544C129.214 57.8936 131.788 56.7283 131.788 53.7666C131.788 50.7563 129.02 49.591 126.544 49.591H118.096V41.3855C117.95 35.5591 122.223 32.9858 126.884 32.9858C131.351 32.9858 135.623 35.1222 136.012 41.1428H129.457C129.214 39.5405 128.146 39.2006 126.981 39.2006C125.864 39.2006 124.602 39.9289 124.602 41.2884V43.619H127.564C132.176 43.619 138.342 46.6778 138.342 53.7666C138.342 60.8553 132.225 64.3511 126.981 64.3511H112.609C100.374 64.3511 96.9751 52.4071 102.17 44.6386ZM121.009 72.7023H127.612V67.1187H121.009V72.7023ZM111.347 72.7023H117.999V67.1187H111.347V72.7023ZM159.832 49.5424V40.2202H155.705C152.84 40.2202 151.19 42.6964 151.19 44.9299C151.19 47.3575 152.84 49.5424 155.705 49.5424H159.832ZM151.238 63.7685L149.539 57.9907C150.655 58.3305 152.209 58.6704 153.763 58.6704H153.86C155.025 58.6704 158.424 58.6219 159.541 56H155.899C149.393 56 144.441 51.1447 144.441 44.9299C144.441 38.8608 148.908 34.3939 155.899 34.3939L166.435 34.3939V54.3006C166.435 61.9235 160.172 64.3026 155.219 64.3026C153.909 64.3026 152.258 64.0598 151.238 63.7685ZM186.881 56H182.171C174.014 56 173.432 49.0084 173.432 46.2408V24.5376H179.938V46.6293C179.938 48.5228 181.006 49.5424 182.705 49.5424H186.881V56ZM192.951 56H186.639V49.5424H192.368C194.116 49.5424 195.184 48.5228 195.184 46.6293V34.3939H201.739V46.2408C201.739 49.0084 201.108 56 192.951 56ZM193.776 24.5376H200.38V30.1698H193.776V24.5376Z" fill="white"/>
</svg>
