<svg width="42" height="40" viewBox="0 0 42 40" fill="none" xmlns="http://www.w3.org/2000/svg">
<g clip-path="url(#clip0_6_1110)">
<rect width="42" height="40" rx="20" transform="matrix(-1 0 0 1 42 0)" fill="#008057"/>
<rect x="-1.05" y="1.05" width="29.4" height="29.4" rx="14.7" transform="matrix(-1 0 0 1 34.9 4)" stroke="white" stroke-width="2.1"/>
<path d="M21.1033 15.4032L17.6033 18.9032C17.5396 18.9697 17.4896 19.0482 17.4563 19.1342C17.3863 19.3046 17.3863 19.4957 17.4563 19.6662C17.4896 19.7521 17.5396 19.8306 17.6033 19.8972L21.1033 23.3972C21.1686 23.4624 21.2461 23.5142 21.3313 23.5495C21.4166 23.5848 21.508 23.603 21.6003 23.603C21.7867 23.603 21.9655 23.529 22.0973 23.3972C22.2291 23.2654 22.3032 23.0866 22.3032 22.9002C22.3032 22.7138 22.2291 22.535 22.0973 22.4032L19.7873 20.1002H25.1003C25.286 20.1002 25.464 20.0264 25.5953 19.8951C25.7266 19.7639 25.8003 19.5858 25.8003 19.4002C25.8003 19.2145 25.7266 19.0365 25.5953 18.9052C25.464 18.7739 25.286 18.7002 25.1003 18.7002H19.7873L22.0973 16.3972C22.1629 16.3321 22.215 16.2547 22.2505 16.1694C22.2861 16.0841 22.3044 15.9926 22.3044 15.9002C22.3044 15.8078 22.2861 15.7163 22.2505 15.631C22.215 15.5457 22.1629 15.4682 22.0973 15.4032C22.0322 15.3376 21.9548 15.2855 21.8695 15.2499C21.7842 15.2144 21.6927 15.1961 21.6003 15.1961C21.5079 15.1961 21.4164 15.2144 21.3311 15.2499C21.2458 15.2855 21.1684 15.3376 21.1033 15.4032Z" fill="white"/>
</g>
<defs>
<clipPath id="clip0_6_1110">
<rect width="42" height="40" rx="20" transform="matrix(-1 0 0 1 42 0)" fill="white"/>
</clipPath>
</defs>
</svg>
