<svg width="24" height="24" viewBox="0 0 24 24" fill="none" xmlns="http://www.w3.org/2000/svg">
<path d="M2.52421 19.7812C4.34638 17.6348 5.33311 15.037 5.33311 12.3217V10.0781C5.33311 6.84714 8.3243 4.21881 11.9996 4.21881C15.6757 4.21881 18.6669 6.84714 18.6669 10.0781V12.3217C18.6669 15.037 19.6536 17.6348 21.4758 19.7812H2.52421ZM11.9996 22.5937C10.9568 22.5937 10.0675 22.0061 9.73761 21.1875H14.2624C13.9318 22.0061 13.0432 22.5937 11.9996 22.5937ZM11.1996 2.10941C11.1996 1.72151 11.559 1.40627 11.9996 1.40627C12.441 1.40627 12.7996 1.72151 12.7996 2.10941V2.84627C12.5369 2.82422 12.2697 2.81254 11.9996 2.81254C11.7303 2.81254 11.4631 2.82422 11.1996 2.84627V2.10941ZM20.2669 12.3217V10.0781C20.2669 6.80497 17.7916 4.03135 14.3997 3.12519V2.10941C14.3997 0.946379 13.3236 1.90735e-06 11.9996 1.90735e-06C10.6764 1.90735e-06 9.5996 0.946379 9.5996 2.10941V3.12519C6.2084 4.03135 3.73309 6.80497 3.73309 10.0781V12.3217C3.73309 15.1965 2.48658 17.9228 0.222335 19.9978C0.000929296 20.2009 -0.0618022 20.5012 0.0643989 20.76C0.189862 21.0195 0.479165 21.1875 0.800203 21.1875H8.08075C8.45198 22.7903 10.0682 24 11.9996 24C13.9318 24 15.548 22.7903 15.9192 21.1875H23.1998C23.5208 21.1875 23.8101 21.0195 23.9356 20.76C24.0618 20.5012 23.9991 20.2009 23.7777 19.9978C21.5134 17.9228 20.2669 15.1965 20.2669 12.3217Z" fill="#008056"/>
<path d="M22.3999 10.0781C22.3999 10.4667 22.7578 10.7812 23.1999 10.7812C23.642 10.7812 23.9999 10.4667 23.9999 10.0781C23.9999 7.26103 22.7519 4.6126 20.4855 2.6206C20.1725 2.34558 19.6663 2.34558 19.3541 2.6206C19.0412 2.89498 19.0412 3.33995 19.3541 3.61433C21.3179 5.34103 22.3999 7.6366 22.3999 10.0781Z" fill="#008056"/>
<path d="M0.800012 10.7812C1.24208 10.7812 1.60002 10.4667 1.60002 10.0781C1.60002 7.6366 2.68196 5.34103 4.64583 3.61498C4.95875 3.33995 4.95875 2.89498 4.64583 2.6206C4.33364 2.34557 3.82736 2.34557 3.51444 2.6206C1.24799 4.6126 0 7.26103 0 10.0781C0 10.4667 0.357939 10.7812 0.800012 10.7812Z" fill="#008056"/>
</svg>
