<svg width="398" height="389" viewBox="0 0 398 389" fill="none" xmlns="http://www.w3.org/2000/svg">
<path d="M320.396 131.179C312.96 129.054 308.877 132.489 308.324 133.001C307.78 132.497 303.775 129.124 296.285 131.318C289.106 133.436 286.951 139.849 288.18 143.029C288.826 144.704 290.467 142.974 293.181 141.105C297.023 138.461 299.403 140.012 299.403 140.012C299.403 140.012 293.531 141.687 291.338 145.2C289.144 148.713 291.851 153.824 294.317 150.947C298.392 146.185 300.889 146.131 300.889 146.131C299.312 147.39 298.03 148.978 297.132 150.784C295.896 153.529 296.782 156.399 298.851 156.461C300.103 156.461 305.75 146.736 304.949 152.777C303.837 161.098 303.658 167.078 304.023 171.211C304.195 173.196 305.525 174.662 307.135 174.654H308.558C310.113 174.654 311.498 173.158 311.716 171.18C312.182 167.031 312.143 161.098 311.233 152.746C310.572 146.72 315.986 156.414 317.246 156.368C319.315 156.282 320.271 153.39 319.097 150.668C318.251 148.86 317.004 147.269 315.449 146.014C315.449 146.014 317.938 146.014 321.912 150.753C324.308 153.607 327.139 148.426 325.023 144.975C322.908 141.524 317.074 139.88 317.074 139.88C317.074 139.88 319.509 138.329 323.297 140.904C325.972 142.742 327.567 144.448 328.259 142.765C329.542 139.601 327.528 133.234 320.396 131.179Z" fill="#A9D054" stroke="#502A73" stroke-width="0.5" stroke-linecap="round" stroke-linejoin="round"/>
<path d="M388.646 175.546C381.21 173.429 377.127 176.865 376.567 177.377C376.03 176.872 372.025 173.499 364.535 175.686C357.356 177.803 355.201 184.217 356.43 187.404C357.076 189.071 358.717 187.342 361.431 185.473C365.273 182.828 367.653 184.38 367.653 184.38C367.653 184.38 361.781 186.055 359.588 189.568C357.394 193.081 360.101 198.192 362.567 195.314C366.642 190.553 369.139 190.498 369.139 190.498C367.561 191.758 366.279 193.346 365.382 195.152C364.146 197.897 365.032 200.774 367.093 200.836C368.353 200.836 374 191.111 373.199 197.145C372.087 205.474 371.908 211.445 372.273 215.586C372.445 217.564 373.775 219.03 375.385 219.022H376.808C378.363 219.022 379.74 217.533 379.966 215.548C380.432 211.406 380.393 205.466 379.483 197.121C378.822 191.088 384.236 200.789 385.496 200.735C387.565 200.65 388.521 197.765 387.347 195.035C386.496 193.242 385.249 191.664 383.699 190.421C383.699 190.421 386.188 190.421 390.162 195.167C392.558 198.013 395.389 192.84 393.273 189.382C391.158 185.923 385.324 184.286 385.324 184.286C385.324 184.286 387.759 182.735 391.547 185.31C394.222 187.148 395.817 188.862 396.509 187.179C397.792 183.976 395.778 177.578 388.646 175.546Z" fill="#A9D054" stroke="#502A73" stroke-width="0.5" stroke-linecap="round" stroke-linejoin="round"/>
<path d="M391.842 210.142C382.509 211.174 369.613 211.011 359.176 199.51C352.308 191.949 349.212 156.926 304.241 165.31C289.852 167.993 280.418 165.829 275.074 154.452C269.731 143.075 264.644 126.316 249.128 116.452C237.959 109.371 223.368 108.697 216.064 108.922V157.074C222.815 158.161 229.275 160.604 235.05 164.255C250.559 174.096 251.998 178.889 255.653 190.879C261.331 209.545 275.743 215.362 290.156 213.066C304.568 210.771 309.063 208.002 321.523 215.292C333.983 222.582 338.02 239.899 345.09 247.259C359.494 262.25 378.877 261.172 391.842 259.07V210.142Z" fill="#EEC718" stroke="#502A73" stroke-width="0.5" stroke-linecap="round" stroke-linejoin="round"/>
<path d="M359.16 199.51C352.292 191.949 349.197 156.926 304.225 165.31C289.837 167.993 280.402 165.829 275.059 154.452C269.715 143.075 264.629 126.316 249.112 116.452C237.943 109.371 223.352 108.697 216.049 108.922V131.854C222.8 132.917 229.264 135.337 235.05 138.965C250.559 148.807 251.998 153.599 255.653 165.589C261.331 184.256 275.743 190.072 290.156 187.769C304.568 185.465 309.063 182.705 321.523 190.002C333.983 197.3 338.02 214.609 345.09 221.969C359.494 236.952 378.877 235.882 391.842 233.78V210.142C382.555 211.174 369.613 211.011 359.16 199.51Z" fill="#A9D054" stroke="#502A73" stroke-width="0.5" stroke-linecap="round" stroke-linejoin="round"/>
<path d="M291.773 110.441C289.382 107.169 286.811 104.031 284.073 101.042C282.129 101.655 260.546 95.179 252.69 103.252C244.212 111.969 247.347 135.824 247.347 135.824L251.08 165.72C251.08 165.72 281.413 150.698 290.747 140.051C297.412 132.458 300.764 123.292 291.773 110.441Z" fill="#BF792A" stroke="#502A73" stroke-width="0.5" stroke-linecap="round" stroke-linejoin="round"/>
<path d="M236.582 113.14C236.162 113.823 247.347 135.801 247.347 135.801C247.347 135.801 252.457 122.989 260.81 114.156C273.037 101.228 282.129 101.655 284.073 101.042C271.1 86.5398 250.061 66.6477 250.061 66.6477L227.506 74.0074V81.1732C231.542 94.6905 236.847 112.721 236.582 113.14Z" fill="white" stroke="#502A73" stroke-width="0.5" stroke-linecap="round" stroke-linejoin="round"/>
<path d="M71.2656 334.924C71.2656 334.924 56.3245 321.313 61.4734 312.907C64.74 307.563 74.6956 304.104 80.14 308.331C88.7734 315.024 73.9178 338.367 73.9178 338.367L71.2656 334.924Z" fill="#4BBEA5" stroke="#502A73" stroke-width="0.5" stroke-linecap="round" stroke-linejoin="round"/>
<path d="M97.9978 329.44C94.4511 326.447 81.3144 328.929 62.3678 332.387C43.4211 335.846 29.3044 337.041 21.5889 340.918C13.8733 344.796 13.5156 351.047 18.0267 359.337C22.5378 367.627 36.7555 377.686 68.7844 383.3C100.813 388.915 113.273 388.628 117.1 387.783C120.927 386.938 127.911 385.456 129.381 374.964C129.677 372.862 131.263 361.206 131.263 361.206L134.133 336.49C130.734 332.674 118.026 343.772 114.961 342.105C110.722 339.825 99.3278 330.588 97.9978 329.44Z" fill="#4BBEA5" stroke="#502A73" stroke-width="0.5" stroke-linecap="round" stroke-linejoin="round"/>
<path d="M132.718 335.754C128.596 335.048 123.734 341.322 119.939 341.795C115.49 350.139 113.032 367.79 116.353 374.367C118.359 378.412 121.738 381.619 125.889 383.417C127.53 381.571 128.86 378.911 129.412 374.979C129.708 372.878 131.294 361.222 131.294 361.222L134.157 336.599L132.718 335.754Z" fill="#4BBEA5" stroke="#502A73" stroke-width="0.5" stroke-linecap="round" stroke-linejoin="round"/>
<path d="M117.1 387.799C120.927 386.946 127.911 385.472 129.381 374.979C129.544 373.793 130.159 369.551 130.594 366.092C129.98 365.662 129.288 365.354 128.557 365.184C111.539 362.4 99.8178 381.044 76.8267 375.344C67.2522 372.971 67.19 362.695 59.9334 357.065C52.6767 351.434 37.6656 360.012 29.39 359.112C20.5389 358.15 16.6111 347.479 16.6422 344.943C14.0911 348.65 14.8378 353.474 18.0267 359.353C22.5378 367.643 36.7556 377.701 68.7844 383.316C100.813 388.931 113.273 388.644 117.1 387.799Z" fill="#008056" stroke="#502A73" stroke-width="0.5" stroke-linecap="round" stroke-linejoin="round"/>
<path d="M102.112 356.537L98.6278 356.126C93.0745 355.475 83.7489 354.971 83.7489 354.971L85.3978 361.493L102.657 357.158L102.112 356.537Z" fill="#008056" stroke="#502A73" stroke-width="0.5" stroke-linecap="round" stroke-linejoin="round"/>
<path d="M25.5556 339.344C24.2098 339.764 22.897 340.282 21.6278 340.895C16.6889 343.369 14.7678 346.828 15.2112 351.179C19.6038 348.165 23.162 344.095 25.5556 339.344Z" fill="#008056" stroke="#502A73" stroke-width="0.5" stroke-linecap="round" stroke-linejoin="round"/>
<path d="M253.794 170.288C253.738 174.114 253.215 177.919 252.239 181.619C250.683 186.861 250.03 186.691 250.372 191.251C250.714 195.811 256.843 223.194 256.843 223.194C256.843 223.194 272.445 235.603 304.661 242.637C312.691 244.396 320.558 246.824 328.181 249.896L269.117 326.339C269.117 326.339 271.784 329.123 270.423 327.89C265.959 323.927 251.834 308.936 236.668 297.722C216.998 283.181 206.148 271.005 200.602 250.206C197.009 236.719 197.491 200.084 197.491 200.084L180.839 190.956L166.209 182.262L164.171 155.026" fill="#008056"/>
<path d="M253.794 170.288C253.738 174.114 253.215 177.919 252.239 181.619C250.683 186.861 250.03 186.691 250.372 191.251C250.714 195.811 256.843 223.194 256.843 223.194C256.843 223.194 272.445 235.603 304.661 242.637C312.691 244.396 320.558 246.824 328.181 249.896L269.117 326.339C269.117 326.339 271.784 329.123 270.423 327.89C265.959 323.927 251.834 308.936 236.668 297.722C216.998 283.181 206.148 271.005 200.602 250.206C197.009 236.719 197.491 200.084 197.491 200.084L180.839 190.956L166.209 182.262L164.171 155.026" stroke="#502A73" stroke-width="0.5" stroke-linecap="round" stroke-linejoin="round"/>
<path d="M208.333 195.989C208.333 195.989 211.048 226.761 212.914 235.044C214.781 243.327 216.477 253.3 227.692 262.598C235.47 269.035 260.048 281.854 274.483 289.152" fill="#008056"/>
<path d="M208.333 195.989C208.333 195.989 211.048 226.761 212.914 235.044C214.781 243.327 216.477 253.3 227.692 262.598C235.47 269.035 260.048 281.854 274.483 289.152" stroke="#502A73" stroke-width="0.5" stroke-linecap="round" stroke-linejoin="round"/>
<path d="M162.398 152.451C146.38 170.977 131.865 190.742 118.99 211.562C88.3844 261.009 67.8589 327.184 67.8589 327.184C67.8589 327.184 70.6666 346.642 104.881 351.768C126.838 355.048 145.886 349.116 147.402 338.731C147.402 338.429 147.472 338.127 147.488 337.832C148.126 331.341 152.621 290.804 168.247 255.689C185.288 217.394 200.042 201.402 200.042 201.402L229.209 188.218" fill="#008056"/>
<path d="M162.398 152.451C146.38 170.977 131.865 190.742 118.99 211.562C88.3844 261.009 67.8589 327.184 67.8589 327.184C67.8589 327.184 70.6666 346.642 104.881 351.768C126.838 355.048 145.886 349.116 147.402 338.731C147.402 338.429 147.472 338.127 147.488 337.832C148.126 331.341 152.621 290.804 168.247 255.689C185.288 217.394 200.042 201.402 200.042 201.402L229.209 188.218" stroke="#502A73" stroke-width="0.5" stroke-linecap="round" stroke-linejoin="round"/>
<path d="M103.465 312.201C99.0633 325.99 95.2055 338.762 92.2344 348.836C94.2955 349.503 96.5277 350.116 98.9388 350.651C108.762 317.397 128.393 254.432 145.388 221.535C149.074 214.408 150.404 211.825 153.858 205.668C163.284 188.87 176.888 168.559 188.08 162.037L179.688 158.873C170.401 167.543 158.688 183.007 149.448 199.293C145.637 206.032 143.443 210.15 139.212 218.363C129.14 237.929 117.108 269.454 103.465 312.201Z" fill="#4BBEA5" stroke="#502A73" stroke-width="0.5" stroke-linecap="round" stroke-linejoin="round"/>
<path d="M234.778 66.6477C234.778 66.6477 243.427 75.6127 248 96.2338C252.573 116.855 257.154 139.857 261.393 147.635C265.632 155.414 272.414 166.062 272.414 166.062C272.414 166.062 266.651 177.392 255.459 176.376C244.267 175.36 244.943 172.956 236.551 176.438C228.159 179.92 217.107 183.1 206.996 176.438C196.884 169.776 197.157 166.403 187.154 166.736C177.152 167.07 165.96 166.574 156.292 159.47C150.405 154.986 146.174 148.683 144.26 141.547L162.063 70.1996L183.911 66.6477H234.778Z" fill="white" stroke="#502A73" stroke-width="0.5" stroke-linecap="round" stroke-linejoin="round"/>
<path d="M173.761 82.7087C168.846 71.0759 162.094 70.1996 162.094 70.1996L157.428 71.6111C153.328 72.8454 149.828 75.5428 147.597 79.1879L122.91 119.461L116.773 116.622C109.158 113.105 102.128 108.444 95.9289 102.803L87.2956 94.9465L85.9967 83.0267C85.9567 82.5752 85.8733 82.1285 85.7478 81.6928C85.2916 80.1276 84.3383 78.7523 83.0312 77.7734C81.724 76.7945 80.1337 76.2649 78.4989 76.2642H75.6056L73 72.8364C71.9197 71.482 70.579 70.3561 69.0567 69.5249C64.9189 67.6869 62.9278 72.185 62.0567 72.7666C61.1856 73.3483 60.0578 71.9911 57.9578 73.2629C54.6289 75.2793 55.6789 77.2103 54.59 78.0867C53.8123 78.7071 52.6845 78.0169 51.2223 79.2267C49.5578 80.5993 49.6667 84.0427 49.06 84.6553C43.7167 89.9133 47.5045 96.2881 50.7945 100.941C54.1778 105.804 64.8723 113.955 64.8723 113.955C64.8723 113.955 91.7912 150.776 113.623 163.037C119.439 165.932 126.157 166.455 132.352 164.495C137.525 162.864 142.025 159.597 145.17 155.189L171.988 117.491C175.11 113.108 176.807 107.875 176.849 102.5C176.934 96.6294 176.374 88.9052 173.761 82.7087Z" fill="#BF792A" stroke="#502A73" stroke-width="0.5" stroke-linecap="round" stroke-linejoin="round"/>
<path d="M172.019 117.498C175.141 113.116 176.838 107.883 176.88 102.507C176.934 96.629 176.374 88.9048 173.769 82.7084C168.853 71.0756 162.102 70.1992 162.102 70.1992L157.435 71.6107C153.336 72.845 149.836 75.5425 147.604 79.1875L125.484 115.273C126.215 118.289 128.549 122.919 135.129 129.038C140.893 134.389 147.571 138.67 154.845 141.679L172.019 117.498Z" fill="white" stroke="#502A73" stroke-width="0.5" stroke-linecap="round" stroke-linejoin="round"/>
<path d="M122.887 119.461C119.598 124.776 117.06 130.517 115.342 136.522L115.093 137.406" fill="#BF792A"/>
<path d="M122.887 119.461C119.598 124.776 117.06 130.517 115.342 136.522L115.093 137.406" stroke="#502A73" stroke-width="0.5" stroke-linecap="round" stroke-linejoin="round"/>
<path d="M103.396 111.961C103.396 111.961 98.8689 113.109 94.8011 119.53C92.2384 123.769 90.3912 128.398 89.3334 133.234L107.65 122.578L104.111 138.662" fill="#BF792A"/>
<path d="M103.396 111.961C103.396 111.961 98.8689 113.109 94.8011 119.53C92.2384 123.769 90.3912 128.398 89.3334 133.234L107.65 122.578L104.111 138.662" stroke="#502A73" stroke-width="0.5" stroke-linecap="round" stroke-linejoin="round"/>
<path d="M99.5689 105.943C98.8765 105.556 98.066 105.434 97.29 105.602C85.7167 107.82 77.3322 121.702 76.6245 125.766C76.1734 128.325 76.7645 128.922 76.7645 128.922C76.7645 128.922 74.0267 131.853 67.4778 123.299C65.0745 120.197 60.2833 116.956 63.0133 109.984C65.7434 103.012 73.5056 96.0941 80.63 93.9382C85.67 92.3872 88.8978 93.752 94.63 98.126C100.362 102.5 99.5689 105.943 99.5689 105.943Z" fill="#008056" stroke="#502A73" stroke-width="0.5" stroke-linecap="round" stroke-linejoin="round"/>
<path d="M88.3844 101.391C86.4125 102.299 84.554 103.434 82.8466 104.772C80.9468 106.295 79.1441 107.935 77.4489 109.682V98.77C81.2516 98.7609 85.0013 99.6597 88.3844 101.391Z" fill="#EEC718" stroke="#502A73" stroke-width="0.5" stroke-linecap="round" stroke-linejoin="round"/>
<path d="M75.5824 76.2642C76.8209 78.1546 77.8634 80.1658 78.6935 82.2667L75.5824 76.2642Z" fill="#BF792A"/>
<path d="M75.5824 76.2642C76.8209 78.1546 77.8634 80.1658 78.6935 82.2667" stroke="#502A73" stroke-width="0.5" stroke-linecap="round" stroke-linejoin="round"/>
<path d="M319.823 304.39C336.366 283.062 341.552 259.43 331.406 251.606C321.261 243.781 299.625 254.727 283.081 276.055C266.538 297.382 261.351 321.014 271.497 328.838C281.643 336.663 303.279 325.717 319.823 304.39Z" fill="#502A73" stroke="#502A73" stroke-width="0.5" stroke-linecap="round" stroke-linejoin="round"/>
<path d="M319.823 304.39C336.366 283.062 341.552 259.43 331.406 251.606C321.261 243.781 299.625 254.727 283.081 276.055C266.538 297.382 261.351 321.014 271.497 328.838C281.643 336.663 303.279 325.717 319.823 304.39Z" stroke="#502A73" stroke-width="0.5" stroke-linecap="round" stroke-linejoin="round"/>
<path d="M233.448 233.354C233.448 233.354 235.836 234.424 245.402 231.749C259.278 227.871 256.843 223.218 256.843 223.218" fill="#008056"/>
<path d="M233.448 233.354C233.448 233.354 235.836 234.424 245.402 231.749C259.278 227.871 256.843 223.218 256.843 223.218" stroke="#502A73" stroke-width="0.5" stroke-linecap="round" stroke-linejoin="round"/>
<path d="M176.934 263.963C167.601 264.995 154.706 264.832 144.268 253.331C137.392 245.77 134.304 210.747 89.3255 219.13C74.9366 221.814 65.5022 219.65 60.1588 208.273C54.8155 196.896 49.7366 180.137 34.22 170.273C23.0511 163.184 8.45217 162.517 1.15662 162.742V210.894C7.89589 211.98 14.3442 214.418 20.1111 218.06C35.6277 227.902 37.0588 232.686 40.7144 244.684C46.3999 263.351 60.8044 269.167 75.2166 266.864C89.6288 264.56 94.1244 261.8 106.592 269.09C119.06 276.379 123.081 293.705 130.159 301.064C144.563 316.047 163.938 314.977 176.903 312.875L176.934 263.963Z" fill="#EEC718" stroke="#502A73" stroke-width="0.5" stroke-linecap="round" stroke-linejoin="round"/>
<path d="M144.26 253.331C137.385 245.769 134.297 210.747 89.3178 219.13C74.9289 221.814 65.4945 219.65 60.1512 208.273C54.8078 196.896 49.7289 180.137 34.2123 170.273C23.0434 163.184 8.44448 162.517 1.14893 162.742V188.583C7.89017 189.67 14.3407 192.107 20.1112 195.748C35.6667 205.59 37.09 210.382 40.7456 222.419C46.4312 241.078 60.8356 246.894 75.2478 244.598C89.6601 242.303 94.1556 239.534 106.623 246.824C119.091 254.114 123.112 271.431 130.19 278.791C144.595 293.782 163.969 292.704 176.935 290.602V264.002C167.632 264.995 154.706 264.832 144.26 253.331Z" fill="#A9D054" stroke="#502A73" stroke-width="0.5" stroke-linecap="round" stroke-linejoin="round"/>
<path d="M128.774 193.065C121.339 190.948 117.256 194.384 116.703 194.896C116.159 194.391 112.161 191.018 104.671 193.205C97.4845 195.322 95.3378 201.736 96.5589 204.923C97.2045 206.598 98.8456 204.869 101.56 203C105.402 200.355 107.782 201.906 107.782 201.906C107.782 201.906 101.902 203.581 99.7089 207.095C97.5156 210.608 100.222 215.718 102.688 212.833C106.771 208.072 109.26 208.017 109.26 208.017C107.684 209.279 106.403 210.866 105.503 212.671C104.267 215.408 105.153 218.285 107.222 218.347C108.474 218.347 114.121 208.622 113.32 214.664C112.208 222.985 112.029 228.956 112.394 233.098C112.573 235.075 113.896 236.541 115.467 236.533H116.898C118.453 236.533 119.83 235.044 120.009 233.059C120.476 228.918 120.437 222.977 119.527 214.633C118.866 208.599 124.279 218.301 125.539 218.246C127.608 218.161 128.564 215.276 127.39 212.546C126.54 210.755 125.293 209.18 123.742 207.94C123.742 207.94 126.239 207.94 130.206 212.678C132.601 215.532 135.432 210.352 133.317 206.901C131.201 203.45 125.368 201.798 125.368 201.798C125.368 201.798 127.802 200.247 131.59 202.821C134.258 204.659 135.852 206.373 136.544 204.69C137.921 201.48 135.907 195.105 128.774 193.065Z" fill="#A9D054" stroke="#502A73" stroke-width="0.5" stroke-linecap="round" stroke-linejoin="round"/>
<path d="M53.1199 141.369C45.6844 139.252 41.601 142.687 41.041 143.199C40.5044 142.695 36.4988 139.322 29.0088 141.509C21.8299 143.626 19.6755 150.039 20.8966 153.227C21.5499 154.902 23.1911 153.165 25.9055 151.296C29.7477 148.651 32.1277 150.202 32.1277 150.202C32.1277 150.202 26.2555 151.877 24.0621 155.39C21.8688 158.903 24.5755 164.014 27.0333 161.137C31.1166 156.375 33.6055 156.321 33.6055 156.321C32.0316 157.582 30.7522 159.17 29.8566 160.974C28.6122 163.719 29.4988 166.597 31.5677 166.659C32.8277 166.659 38.4744 156.934 37.6655 162.967C36.561 171.296 36.3822 177.268 36.7477 181.409C36.9188 183.387 38.2488 184.852 39.8199 184.845H41.2433C42.7988 184.845 44.1755 183.356 44.4011 181.37C44.8677 177.229 44.8288 171.289 43.9188 162.944C43.2577 156.91 48.671 166.612 49.931 166.558C51.9999 166.473 52.9566 163.588 51.7822 160.858C50.9348 159.052 49.6876 157.461 48.1344 156.205C48.1344 156.205 50.6233 156.205 54.5899 160.951C56.9933 163.797 59.8244 158.624 57.701 155.165C55.5777 151.707 49.7521 150.07 49.7521 150.07C49.7521 150.07 52.1866 148.519 55.9744 151.094C58.6499 152.932 60.2444 154.646 60.9366 152.963C62.2666 149.799 60.2522 143.401 53.1199 141.369Z" fill="#A9D054" stroke="#502A73" stroke-width="0.5" stroke-linecap="round" stroke-linejoin="round"/>
<path d="M283.078 276.093C275.09 286.399 269.747 297.241 267.522 306.578L269.373 309.805L292.038 311.999L310.463 259.814L303.152 256.813C295.508 262.174 288.737 268.676 283.078 276.093Z" fill="#BF792A" stroke="#502A73" stroke-width="0.5" stroke-linecap="round" stroke-linejoin="round"/>
<path d="M284.485 319.359C284.485 319.359 284.765 337.552 276.186 340.996C271.17 343.012 264.178 336.242 261.65 329.921C257.1 318.583 274.584 305.105 274.584 305.105L283.186 295.643L284.485 319.359Z" fill="#4BBEA5" stroke="#502A73" stroke-width="0.5" stroke-linecap="round" stroke-linejoin="round"/>
<path d="M283.07 320.491C283.07 324.5 282.105 336.001 277.182 337.979C275.883 338.498 272.943 337.901 269.117 334.156C267.367 332.44 265.975 330.398 265.018 328.145C263.462 324.322 266.923 319.103 269.109 316.334C271.365 313.533 273.915 310.98 276.715 308.719L276.972 308.525L279.982 305.213L283.07 320.491Z" fill="#4BBEA5" stroke="#502A73" stroke-width="0.5" stroke-linecap="round" stroke-linejoin="round"/>
<path d="M296.533 270.889C296.035 273.365 295.674 275.866 295.452 278.381C295.319 279.849 294.701 281.232 293.694 282.313L281.413 295.496C279.71 297.551 278.559 300.003 278.069 302.623L274.802 323.943C274.802 323.943 272.064 333.699 271.761 349.535C271.458 365.371 277.252 378.182 288.219 383.324C299.186 388.466 336.317 320.344 336.317 320.344L356.111 272.828C354.021 269.939 351.321 267.543 348.2 265.809C345.079 264.075 341.615 263.045 338.051 262.793C331.494 262.351 319.47 260.815 310.456 259.784C308.911 259.606 307.346 259.74 305.855 260.178C304.364 260.617 302.976 261.35 301.776 262.335L301.604 262.475C299.003 264.622 297.214 267.59 296.533 270.889Z" fill="#4BBEA5" stroke="#502A73" stroke-width="0.5" stroke-linecap="round" stroke-linejoin="round"/>
<path d="M338.036 262.823C331.479 262.381 319.455 260.846 310.44 259.814C308.896 259.636 307.331 259.771 305.84 260.209C304.348 260.647 302.961 261.381 301.76 262.366L301.589 262.505L301.519 262.575C304.423 263.542 307.409 264.243 310.44 264.669C317.674 265.685 333.703 267.717 333.703 267.717L341.481 263.296C340.345 263.058 339.194 262.9 338.036 262.823Z" fill="#4BBEA5" stroke="#502A73" stroke-width="0.5" stroke-linecap="round" stroke-linejoin="round"/>
<path d="M356.111 272.827C354.021 269.938 351.32 267.542 348.2 265.808C345.079 264.074 341.615 263.045 338.051 262.792C335.088 262.591 331.051 262.164 326.594 261.668C323.717 262.141 314.998 266.259 312.548 282.901C308.721 308.835 292.061 308.114 285.217 324.004C281.802 331.907 283.661 337.382 281.094 346.642C278.528 355.901 274.359 360.826 274.359 360.826L287.628 367.992C287.628 367.992 317.844 331.403 318.124 330.96C318.311 330.666 331.347 319.048 340.377 310.611L356.111 272.827Z" fill="#008056" stroke="#502A73" stroke-width="0.5" stroke-linecap="round" stroke-linejoin="round"/>
<path d="M288.063 367.286C288.063 367.286 277.633 357.546 272.671 360.772C274.686 371.295 279.998 379.469 288.227 383.324C291.151 384.696 295.935 380.858 301.379 374.491C303.883 369.434 305.913 365.184 305.913 365.184L288.063 367.286Z" fill="#008056" stroke="#502A73" stroke-width="0.5" stroke-linecap="round" stroke-linejoin="round"/>
<path d="M298.081 289.114C298.081 289.114 300.461 280.11 302.227 274.821L303.985 269.532L304.817 288.827L298.081 289.114Z" fill="#008056" stroke="#502A73" stroke-width="0.5" stroke-linecap="round" stroke-linejoin="round"/>
<path d="M285.45 359.794C279.749 383.758 290.988 389.264 304.241 382.284C320.38 373.754 332.894 353.086 342.99 333.582C351.04 318.071 358.95 301.336 360.023 290.315C361.952 270.664 349.041 267.825 346.739 267.344C337.577 265.569 328.967 268.291 310.922 313.721C307.656 321.926 288.973 344.997 285.45 359.794Z" fill="#502A73" stroke="#502A73" stroke-width="0.5" stroke-linecap="round" stroke-linejoin="round"/>
<path d="M285.45 359.794C279.749 383.758 290.988 389.264 304.241 382.284C320.38 373.754 332.894 353.086 342.99 333.582C351.04 318.071 358.95 301.336 360.023 290.315C361.952 270.664 349.041 267.825 346.739 267.344C337.577 265.569 328.967 268.291 310.922 313.721C307.656 321.926 288.973 344.997 285.45 359.794Z" stroke="#502A73" stroke-width="0.5" stroke-linecap="round" stroke-linejoin="round"/>
<path d="M211.234 19.5659H208.349C205.364 19.5659 202.943 21.9791 202.943 24.9558V32.7265C202.943 35.7033 205.364 38.1164 208.349 38.1164H211.234C214.22 38.1164 216.64 35.7033 216.64 32.7265V24.9558C216.64 21.9791 214.22 19.5659 211.234 19.5659Z" fill="#EEC718" stroke="#502A73" stroke-width="0.5" stroke-linecap="round" stroke-linejoin="round"/>
<path d="M209.414 19.5659H206.529C203.543 19.5659 201.123 21.9791 201.123 24.9558V32.7265C201.123 35.7033 203.543 38.1164 206.529 38.1164H209.414C212.4 38.1164 214.82 35.7033 214.82 32.7265V24.9558C214.82 21.9791 212.4 19.5659 209.414 19.5659Z" fill="#EEC718" stroke="#502A73" stroke-width="0.5" stroke-linecap="round" stroke-linejoin="round"/>
<path d="M210.488 13.16C208.528 4.43538 207.26 2.15535 201.536 0.751659C193.804 -1.20265 181.414 17.9372 181.414 17.9372C181.414 17.9372 180.769 25.2193 180.59 27.6932C180.559 28.1254 180.383 28.5348 180.092 28.8565L177.269 31.9586C177.107 32.1576 176.998 32.3933 176.95 32.6448C176.902 32.8962 176.917 33.1556 176.994 33.3998C177.071 33.644 177.207 33.8654 177.391 34.0442C177.575 34.2231 177.8 34.3538 178.047 34.4248L180.131 35.2701C180.066 36.1143 179.91 36.949 179.664 37.7595C179.453 38.2379 179.436 38.7794 179.618 39.2699C179.799 39.7604 180.164 40.1615 180.637 40.3886C181.267 40.7453 180.31 40.8073 180.178 42.0404C180.053 43.0873 180.582 43.4208 180.644 44.0412C180.8 45.5923 180.94 46.2204 181.088 47.3837C181.191 48.2191 181.573 48.9956 182.173 49.5879C182.772 50.1802 183.555 50.5539 184.393 50.6487L193.392 51.6724L195.811 63.5223L196.706 63.088L215.45 60.3427C215.388 59.5672 214.244 47.3527 214.167 46.4609C213.218 35.6811 211.616 18.1621 210.488 13.16Z" fill="#BF792A" stroke="#502A73" stroke-width="0.5" stroke-linecap="round" stroke-linejoin="round"/>
<path d="M181.352 18.4566C177.704 18.5885 173.248 15.9284 179.291 10.2827C183.087 6.73852 193.804 -1.26485 201.536 0.689466C207.26 2.13193 208.536 4.41197 210.488 13.0978C211.196 16.1999 212.09 24.304 212.883 32.5401C212.909 32.7985 212.881 33.0594 212.8 33.3064C212.72 33.5534 212.589 33.7811 212.416 33.9749C212.242 34.1688 212.031 34.3247 211.794 34.4329C211.557 34.541 211.3 34.5989 211.04 34.603H210.939C209.11 34.6304 207.32 34.0834 205.82 33.0394C204.321 31.9955 203.189 30.5076 202.586 28.7866C202.337 28.0731 202.197 27.6 202.197 27.6C202.197 27.6 199.972 24.0636 198.246 23.3967C197.289 23.0322 196.394 24.1024 196.34 25.5138C196.153 30.1127 195.383 31.8576 192.786 30.7254C190.188 29.5931 191.082 26.1265 191.082 26.1265C190.811 26.0467 190.561 25.9098 190.347 25.7252C190.134 25.5406 189.963 25.3125 189.846 25.0563C189.566 24.2808 192.288 21.3493 192.179 20.9926C192.07 20.6359 190.242 21.3881 190.001 20.1317C189.76 18.8754 191.704 15.1142 191.557 14.9901C191.409 14.866 187.108 18.2627 181.352 18.4566Z" fill="#502A73" stroke="#502A73" stroke-width="0.5" stroke-linecap="round" stroke-linejoin="round"/>
<path d="M181.352 18.4566C177.704 18.5885 173.248 15.9284 179.291 10.2827C183.087 6.73852 193.804 -1.26485 201.536 0.689466C207.26 2.13193 208.536 4.41197 210.488 13.0978C211.196 16.1999 212.09 24.304 212.883 32.5401C212.909 32.7985 212.881 33.0594 212.8 33.3064C212.72 33.5534 212.589 33.7811 212.416 33.9749C212.242 34.1688 212.031 34.3247 211.794 34.4329C211.557 34.541 211.3 34.5989 211.04 34.603H210.939C209.11 34.6304 207.32 34.0834 205.82 33.0394C204.321 31.9955 203.189 30.5076 202.586 28.7866C202.337 28.0731 202.197 27.6 202.197 27.6C202.197 27.6 199.972 24.0636 198.246 23.3967C197.289 23.0322 196.394 24.1024 196.34 25.5138C196.153 30.1127 195.383 31.8576 192.786 30.7254C190.188 29.5931 191.082 26.1265 191.082 26.1265C190.811 26.0467 190.561 25.9098 190.347 25.7252C190.134 25.5406 189.963 25.3125 189.846 25.0563C189.566 24.2808 192.288 21.3493 192.179 20.9926C192.07 20.6359 190.242 21.3881 190.001 20.1317C189.76 18.8754 191.704 15.1142 191.557 14.9901C191.409 14.866 187.108 18.2627 181.352 18.4566Z" stroke="#502A73" stroke-width="0.5" stroke-linecap="round" stroke-linejoin="round"/>
<path d="M201.839 0.790304L201.536 0.712771C199.744 0.303425 197.883 0.303425 196.091 0.712771C189.869 8.46798 193.33 21.8225 193.33 21.8225H199.194C199.194 21.8225 195.111 7.64591 201.839 0.790304Z" fill="#EEC718" stroke="#502A73" stroke-width="0.5" stroke-linecap="round" stroke-linejoin="round"/>
<path d="M180.621 40.3728C181.092 40.6033 181.609 40.7231 182.134 40.7231C182.658 40.7231 183.176 40.6033 183.647 40.3728" stroke="#502A73" stroke-width="0.5" stroke-linecap="round" stroke-linejoin="round"/>
<path d="M182.535 25.5216C183.244 25.355 183.987 25.3953 184.673 25.6376" stroke="#502A73" stroke-width="0.99" stroke-linecap="round" stroke-linejoin="round"/>
<path d="M182.846 25.5142C182.588 25.9928 182.442 26.5228 182.418 27.0652C182.363 27.9726 182.674 28.4301 183.087 28.4534C183.499 28.4767 183.864 28.0579 183.919 27.1505C183.955 26.6037 183.87 26.0557 183.67 25.5452L182.846 25.5142Z" fill="#502A73"/>
<path d="M181.484 22.5902C181.525 22.6789 181.584 22.7578 181.658 22.8218C181.731 22.8858 181.818 22.9334 181.911 22.9613C182.005 22.9892 182.103 22.9968 182.2 22.9837C182.297 22.9705 182.39 22.9368 182.472 22.8849C182.865 22.6169 183.307 22.4295 183.773 22.3336C184.239 22.2378 184.72 22.2354 185.187 22.3265C185.69 22.4257 186.177 22.5954 186.633 22.8306C186.725 22.8761 186.827 22.8978 186.93 22.8938C187.033 22.8898 187.133 22.8602 187.221 22.8077C187.309 22.7553 187.383 22.6816 187.435 22.5935C187.487 22.5054 187.516 22.4056 187.52 22.3033C187.522 22.2128 187.504 22.123 187.468 22.04C187.431 21.957 187.378 21.8828 187.31 21.8225C186.556 21.0909 185.548 20.6778 184.496 20.6691C183.444 20.6604 182.429 21.0569 181.663 21.7759C181.549 21.8737 181.469 22.0061 181.437 22.1531C181.404 22.3001 181.421 22.4536 181.484 22.5902Z" fill="#502A73"/>
<path d="M186.975 39.3958C186.004 38.3898 184.965 37.4518 183.864 36.5884C182.654 36.0589 181.332 35.8326 180.014 35.9292C179.946 36.5397 179.818 37.1422 179.633 37.7284C179.575 37.9257 179.536 38.1284 179.517 38.3333C181.399 38.5272 182.153 38.1394 183.367 38.3333C183.701 38.3798 184.689 39.2329 185.622 39.5353C185.844 39.6115 186.081 39.6384 186.314 39.6143C186.548 39.5902 186.774 39.5156 186.975 39.3958Z" fill="#502A73" stroke="#502A73" stroke-width="0.5" stroke-linecap="round" stroke-linejoin="round"/>
<path d="M186.975 39.3958C186.004 38.3898 184.965 37.4518 183.864 36.5884C182.654 36.0589 181.332 35.8326 180.014 35.9292C179.946 36.5397 179.818 37.1422 179.633 37.7284C179.575 37.9257 179.536 38.1284 179.517 38.3333C181.399 38.5272 182.153 38.1394 183.367 38.3333C183.701 38.3798 184.689 39.2329 185.622 39.5353C185.844 39.6115 186.081 39.6384 186.314 39.6143C186.548 39.5902 186.774 39.5156 186.975 39.3958Z" stroke="#502A73" stroke-width="0.5" stroke-linecap="round" stroke-linejoin="round"/>
<path d="M183.281 64.0265L183.211 60.591C183.195 59.7751 183.486 58.9829 184.028 58.3712C184.57 57.7594 185.322 57.3726 186.136 57.2873L218.569 53.8129C219.529 53.7088 220.5 53.8323 221.402 54.1732C222.305 54.5142 223.115 55.063 223.764 55.775L236.582 69.7809L210.667 74.0075L183.281 64.0265Z" fill="#008056" stroke="#502A73" stroke-width="0.5" stroke-linecap="round" stroke-linejoin="round"/>
<path d="M183.281 64.0265L183.211 60.591C183.195 59.7751 183.486 58.9829 184.028 58.3712C184.57 57.7594 185.322 57.3726 186.136 57.2873L218.569 53.8129C219.529 53.7088 220.5 53.8323 221.402 54.1732C222.305 54.5142 223.115 55.063 223.764 55.775L236.582 69.7809L210.667 74.0075L183.281 64.0265Z" stroke="#502A73" stroke-width="0.5" stroke-linecap="round" stroke-linejoin="round"/>
<path d="M183.281 64.0263L218.973 67.3145C222.513 67.6522 226.08 67.0781 229.333 65.6471L244.267 59.0785C247.795 57.5248 251.757 57.2505 255.467 58.3029L287.2 67.3145L258.36 74.4725C254.674 75.3856 251.206 77.0171 248.156 79.273L239.445 85.6866C236.19 88.0897 232.247 89.3865 228.198 89.3858H212.152C207.68 89.387 203.361 87.7631 200.003 84.818L181.282 67.5317C181.134 67.396 181.018 67.2292 180.942 67.0434C180.867 66.8576 180.833 66.6574 180.844 66.4572C180.856 66.257 180.911 66.0617 181.007 65.8854C181.103 65.7092 181.237 65.5563 181.399 65.4377L183.281 64.0263Z" fill="#008056" stroke="#502A73" stroke-width="0.5" stroke-linecap="round" stroke-linejoin="round"/>
<path d="M183.281 64.0263L218.973 67.3145C222.513 67.6522 226.08 67.0781 229.333 65.6471L244.267 59.0785C247.795 57.5248 251.757 57.2505 255.467 58.3029L287.2 67.3145L258.36 74.4725C254.674 75.3856 251.206 77.0171 248.156 79.273L239.445 85.6866C236.19 88.0897 232.247 89.3865 228.198 89.3858H212.152C207.68 89.387 203.361 87.7631 200.003 84.818L181.282 67.5317C181.134 67.396 181.018 67.2292 180.942 67.0434C180.867 66.8576 180.833 66.6574 180.844 66.4572C180.856 66.257 180.911 66.0617 181.007 65.8854C181.103 65.7092 181.237 65.5563 181.399 65.4377L183.281 64.0263Z" stroke="#502A73" stroke-width="0.5" stroke-linecap="round" stroke-linejoin="round"/>
<path d="M255.863 167.163C255.863 167.163 273.675 168.939 290.086 161.331C306.497 153.723 318.21 134.963 315.892 118.6C313.341 100.46 299.077 86.2606 275.845 96.7456C257.007 105.276 254.775 116.777 236.59 123.889C215.893 131.97 196.192 121.097 196.745 99.173C197.211 80.7854 206.311 74.9768 205.23 63.0648C204.312 52.9209 195.298 50.509 195.298 38.124V31.1443" stroke="#502A73" stroke-width="2.48" stroke-linecap="round" stroke-linejoin="round"/>
<path d="M255.863 167.163C255.863 167.163 273.675 168.939 290.086 161.331C306.497 153.723 318.21 134.963 315.892 118.6C313.341 100.46 299.077 86.2606 275.845 96.7456C257.007 105.276 254.775 116.777 236.59 123.889C215.893 131.97 196.192 121.097 196.745 99.173C197.211 80.7854 206.311 74.9768 205.23 63.0648C204.312 52.9209 195.298 50.509 195.298 38.124V31.1443" stroke="#EEC718" stroke-width="1.49" stroke-linecap="round" stroke-linejoin="round"/>
<path d="M198.183 19.5659H195.298C192.312 19.5659 189.892 21.9791 189.892 24.9558V32.7265C189.892 35.7033 192.312 38.1164 195.298 38.1164H198.183C201.169 38.1164 203.589 35.7033 203.589 32.7265V24.9558C203.589 21.9791 201.169 19.5659 198.183 19.5659Z" fill="#EEC718" stroke="#502A73" stroke-width="0.5" stroke-linecap="round" stroke-linejoin="round"/>
<path d="M196.363 19.5659H193.478C190.492 19.5659 188.072 21.9791 188.072 24.9558V32.7265C188.072 35.7033 190.492 38.1164 193.478 38.1164H196.363C199.349 38.1164 201.769 35.7033 201.769 32.7265V24.9558C201.769 21.9791 199.349 19.5659 196.363 19.5659Z" fill="#EEC718" stroke="#502A73" stroke-width="0.5" stroke-linecap="round" stroke-linejoin="round"/>
<path d="M197.39 25.1572C196.983 25.0021 196.542 24.9548 196.112 25.0201C195.681 25.0853 195.275 25.2608 194.932 25.5294C194.593 25.2603 194.188 25.0862 193.758 25.0248C193.329 24.9635 192.891 25.0172 192.49 25.1804C191.955 25.2823 191.481 25.5898 191.171 26.0366C190.861 26.4834 190.74 27.0338 190.833 27.5691C190.965 27.9103 191.3 27.569 191.852 27.1735C192.63 26.6384 193.128 26.9564 193.128 26.9564C192.485 27.1356 191.91 27.503 191.479 28.0111C191.035 28.7246 191.588 29.7638 192.085 29.1821C192.918 28.2127 193.423 28.1972 193.423 28.1972C193.099 28.453 192.833 28.7758 192.645 29.1434C192.397 29.7018 192.575 30.2911 192.995 30.2989C193.252 30.2989 194.403 28.3213 194.24 29.5234C194.046 30.7646 193.981 32.0224 194.045 33.2769C194.045 33.4505 194.109 33.6182 194.225 33.7473C194.342 33.8763 194.502 33.9575 194.675 33.9749H194.963C195.136 33.9456 195.293 33.8593 195.41 33.7298C195.527 33.6004 195.597 33.4354 195.609 33.2614C195.707 32.0127 195.674 30.7572 195.508 29.5156C195.375 28.2825 196.472 30.2911 196.729 30.2911C197.157 30.2911 197.351 29.6862 197.11 29.1279C196.927 28.759 196.661 28.4377 196.332 28.1895C196.332 28.1895 196.845 28.1895 197.647 29.1511C198.137 29.7327 198.712 28.6858 198.284 27.9801C197.869 27.4719 197.302 27.1081 196.667 26.9409C196.667 26.9409 197.164 26.6229 197.934 27.1503C198.479 27.5225 198.798 27.8715 198.938 27.5303C198.996 27.2729 199.001 27.0066 198.955 26.747C198.908 26.4873 198.809 26.2397 198.665 26.0185C198.521 25.7974 198.334 25.6073 198.115 25.4594C197.896 25.3114 197.649 25.2087 197.39 25.1572Z" fill="#EEC718" stroke="#502A73" stroke-width="0.5" stroke-linecap="round" stroke-linejoin="round"/>
<path d="M276.35 64.2124C268.922 65.6626 256.182 67.4386 247.432 71.7194C238.099 76.2873 234.887 89.3548 224.877 89.3548H228.268C232.29 89.3495 236.205 88.0645 239.444 85.6866L248.124 79.2808C251.175 77.0249 254.643 75.3934 258.329 74.4803L287.2 67.3145L276.35 64.2124Z" fill="#4BBEA5" stroke="#502A73" stroke-width="0.5" stroke-linecap="round" stroke-linejoin="round"/>
<path d="M201.123 133.684C206.188 139.67 212.878 144.073 220.389 146.364C232.6 149.915 245.573 149.915 245.573 149.915" fill="white"/>
<path d="M201.123 133.684C206.188 139.67 212.878 144.073 220.389 146.364C232.6 149.915 245.573 149.915 245.573 149.915" stroke="#502A73" stroke-width="0.5" stroke-linecap="round" stroke-linejoin="round"/>
<path d="M261.424 147.635C265.663 155.39 272.446 166.061 272.446 166.061C272.446 166.061 266.682 177.392 255.49 176.376C244.298 175.36 244.974 172.956 236.582 176.438" fill="white"/>
<path d="M261.424 147.635C265.663 155.39 272.446 166.061 272.446 166.061C272.446 166.061 266.682 177.392 255.49 176.376C244.298 175.36 244.974 172.956 236.582 176.438" stroke="#502A73" stroke-width="0.5" stroke-linecap="round" stroke-linejoin="round"/>
</svg>
