<svg width="507" height="382" viewBox="0 0 507 382" fill="none" xmlns="http://www.w3.org/2000/svg">
<path d="M506.029 266.95L326.961 173.606L115.678 285.561L63.45 245.409L1.16553 363.285L240.122 381.235L188.976 341.915L506.029 266.95Z" fill="#A9D054" stroke="#502A73" stroke-width="0.58" stroke-linecap="round" stroke-linejoin="round"/>
<path d="M351.842 241.593C352.068 246.707 363.921 255.488 380.924 268.232C397.926 280.976 409.468 291.544 418.389 294.855C427.31 298.165 432.677 293.79 436.037 283.913C439.397 274.037 436.924 254.975 417.495 224.855C398.066 194.735 388.499 184.827 384.945 182.372C381.39 179.916 374.95 175.378 365.337 182.046C363.408 183.382 352.745 190.842 352.745 190.842L330.508 207.068C329.948 212.686 348.482 214.644 349.424 218.374C350.738 223.511 351.765 239.674 351.842 241.593Z" fill="#4BBEA5" stroke="#502A73" stroke-width="0.58" stroke-linecap="round" stroke-linejoin="round"/>
<path d="M330.959 208.762C333.463 212.647 342.205 211.87 345.433 214.574C355.544 211.909 371.738 200.657 374.561 193.064C376.362 188.409 376.459 183.268 374.833 178.549C372.103 178.595 368.945 179.52 365.337 182.022C363.408 183.359 352.744 190.819 352.744 190.819L330.585 206.99L330.959 208.762Z" fill="#4BBEA5" stroke="#502A73" stroke-width="0.58" stroke-linecap="round" stroke-linejoin="round"/>
<path d="M384.944 182.349C381.39 179.885 374.95 175.355 365.337 182.022L357.193 187.71C357.305 188.529 357.569 189.32 357.971 190.042C368.456 205.91 392.396 201.41 404.972 224.303C410.214 233.838 401.916 241.593 402.771 251.695C403.627 261.797 421.889 267.517 427.333 274.891C433.182 282.787 427.434 293.992 425.366 295.873C430.289 295.158 433.672 290.915 436.044 283.937C439.397 274.068 436.931 254.998 417.502 224.878C398.073 194.759 388.499 184.804 384.944 182.349Z" fill="#008056" stroke="#502A73" stroke-width="0.58" stroke-linecap="round" stroke-linejoin="round"/>
<path d="M363.556 211.21L365.835 214.318C369.467 219.299 376.039 227.233 376.039 227.233L380.107 221.016L363.657 210.293C363.633 210.603 363.595 210.906 363.556 211.21Z" fill="#008056" stroke="#502A73" stroke-width="0.58" stroke-linecap="round" stroke-linejoin="round"/>
<path d="M434.753 287.185C432.615 286.587 426.354 285.266 420.645 288.117C417.269 289.804 416.756 292.275 417.534 294.497C417.829 294.622 418.132 294.746 418.428 294.855C426.252 297.8 431.355 294.723 434.753 287.185Z" fill="#008056" stroke="#502A73" stroke-width="0.58" stroke-linecap="round" stroke-linejoin="round"/>
<path d="M376 254.493L374.266 257.99C375.666 259.047 376.856 259.964 377.688 260.64C378.31 261.137 378.901 261.603 379.461 262.031L380.947 259.039C379.453 257.64 377.742 256.07 376 254.493Z" fill="#4BBEA5" stroke="#502A73" stroke-width="0.58" stroke-linecap="round" stroke-linejoin="round"/>
<path d="M363.252 243.622L357.808 245.868C357.808 245.868 368.012 253.281 374.219 257.99L375.953 254.493C369.957 249.147 363.252 243.622 363.252 243.622Z" fill="#4BBEA5" stroke="#502A73" stroke-width="0.58" stroke-linecap="round" stroke-linejoin="round"/>
<path d="M384.952 263.437C383.748 261.848 382.396 260.375 380.916 259.039L379.43 262.031C384.929 266.289 387.332 267.175 384.952 263.437Z" fill="#4BBEA5" stroke="#502A73" stroke-width="0.58" stroke-linecap="round" stroke-linejoin="round"/>
<path d="M357.193 257.493C357.193 257.493 363.649 275.133 371.854 278.039C380.06 280.945 381.724 277.262 388.662 269.709C395.024 262.8 390.996 254.944 383.918 250.048C376.84 245.153 363.641 242.083 363.641 242.083L357.193 257.493Z" fill="#4BBEA5" stroke="#502A73" stroke-width="0.58" stroke-linecap="round" stroke-linejoin="round"/>
<path d="M363.983 245.922C367.732 246.839 377.206 249.613 382.183 253.04C385.131 255.068 387.146 257.586 387.721 259.933C388.297 262.28 387.535 264.595 385.489 266.794C384.563 267.805 383.716 268.753 382.969 269.592C382.336 270.307 381.745 270.967 381.196 271.573C377.626 275.459 376.397 275.855 372.407 274.441C368.417 273.027 363.221 264.214 360.942 258.005" fill="#4BBEA5"/>
<path d="M363.983 245.922C367.732 246.839 377.206 249.613 382.183 253.04C385.131 255.068 387.146 257.586 387.721 259.933C388.297 262.28 387.535 264.595 385.489 266.794C384.563 267.805 383.716 268.753 382.969 269.592C382.336 270.307 381.745 270.967 381.196 271.573C377.626 275.459 376.397 275.855 372.407 274.441C368.417 273.027 363.221 264.214 360.942 258.005" stroke="#502A73" stroke-width="0.58" stroke-linecap="round" stroke-linejoin="round"/>
<path d="M242.121 217.683C239.2 219.76 236.053 221.501 232.741 222.874C226.799 225.415 218.368 227.855 216.167 231.421C213.188 236.294 217.364 238.205 223.556 238.205H242.518C242.518 238.205 228.844 253.514 239.228 255.107C249.611 256.7 253.889 243.412 253.889 243.412L275.262 216.09" fill="#BF792A"/>
<path d="M242.121 217.683C239.2 219.76 236.053 221.501 232.741 222.874C226.799 225.415 218.368 227.855 216.167 231.421C213.188 236.294 217.364 238.205 223.556 238.205H242.518C242.518 238.205 228.844 253.514 239.228 255.107C249.611 256.7 253.889 243.412 253.889 243.412L275.262 216.09" stroke="#502A73" stroke-width="0.58" stroke-linecap="round" stroke-linejoin="round"/>
<path d="M225.764 119.413C225.857 120.656 225.959 121.876 226.052 123.049C227.646 143.191 241.125 226.86 241.125 226.86L285.039 213.3L271.692 130.222L225.764 119.413Z" fill="#BF792A" stroke="#502A73" stroke-width="0.58" stroke-linecap="round" stroke-linejoin="round"/>
<path d="M269.273 115.17L247.612 49.7471C247.612 49.7471 233.737 51.5421 227.39 61.9162C222.381 70.0445 224.24 99.2162 225.835 119.42L271.762 130.23L269.273 115.17Z" fill="white" stroke="#502A73" stroke-width="0.58" stroke-linecap="round" stroke-linejoin="round"/>
<path d="M347.129 176.801L320.179 140.899L281.446 132.522L276.157 132.856L275.06 130.727L215.272 107.189C201.953 102.261 187.848 99.7938 173.646 99.9081C148.492 100.211 138.311 129.126 131.723 157.653C125.136 186.18 114.503 248.999 114.503 248.999C114.503 248.999 119.893 263.36 170.457 269.343C197.928 272.592 201.195 262.015 201.195 262.015C201.195 262.015 206.585 193.352 213.577 184.975C220.569 176.598 273.466 173.21 273.466 173.21H273.691C266.652 181.595 245.691 207.239 235.331 227.466C222.755 251.999 211.998 272.537 226.947 293.884C241.896 315.23 270.269 308.446 290.429 299.867C305.751 293.348 345.737 275.436 364.053 267.23C366.656 266.06 368.743 263.983 369.923 261.386C371.103 258.79 371.294 255.853 370.462 253.126L347.129 176.801Z" fill="#EEC718" stroke="#502A73" stroke-width="0.58" stroke-linecap="round" stroke-linejoin="round"/>
<path d="M279.633 280.409C275.091 280.409 271.078 278.855 268.27 275.956C264.544 272.071 263.557 266.375 265.641 260.748C268.083 254.143 280.217 237.203 295.819 215.748C300.423 209.414 304.374 203.951 306.832 200.416C315.154 188.317 321.509 168.392 321.571 168.19C321.712 167.656 321.959 167.155 322.299 166.72C322.639 166.284 323.064 165.921 323.549 165.655C324.033 165.388 324.567 165.222 325.117 165.168C325.667 165.113 326.223 165.171 326.751 165.337C327.278 165.504 327.766 165.776 328.185 166.136C328.604 166.497 328.945 166.939 329.188 167.435C329.431 167.932 329.571 168.472 329.598 169.024C329.626 169.576 329.541 170.128 329.349 170.646C329.077 171.508 322.574 191.922 313.552 205.039C311.055 208.661 307.05 214.17 302.414 220.581C291.712 235.299 275.534 257.547 273.294 263.616C272.307 266.289 272.618 268.737 274.158 270.345C276.188 272.459 280.007 272.887 284.378 271.48C312.105 262.575 355.855 234.716 356.299 234.429C356.751 234.136 357.256 233.936 357.786 233.839C358.316 233.742 358.859 233.752 359.386 233.866C359.912 233.98 360.411 234.197 360.852 234.504C361.294 234.812 361.671 235.204 361.961 235.657C362.251 236.111 362.448 236.617 362.541 237.147C362.634 237.677 362.621 238.22 362.504 238.745C362.386 239.27 362.165 239.767 361.854 240.206C361.544 240.646 361.149 241.019 360.693 241.306C358.865 242.471 315.582 270.019 286.882 279.251C284.54 280.008 282.095 280.398 279.633 280.409Z" fill="#EEC718" stroke="#502A73" stroke-width="0.58" stroke-linecap="round" stroke-linejoin="round"/>
<path d="M328.758 222.376C328.758 222.376 311.989 238.229 299.716 247.802L287.435 257.376" stroke="#502A73" stroke-width="0.58" stroke-linecap="round" stroke-linejoin="round"/>
<path d="M273.465 173.21H273.691C273.691 173.21 279.649 167.335 278.451 162.549C277.253 157.762 272.19 158.306 261.083 158.057C225.554 157.28 202.392 147.085 193.416 155.664C182.59 165.999 179.821 199.825 177.246 216.999C174.345 236.379 172.23 257.99 171.203 269.436" stroke="#502A73" stroke-width="0.58" stroke-linecap="round" stroke-linejoin="round"/>
<path d="M344.111 91.8339C351.057 86.9694 362.078 82.268 364.824 81.1257C354.246 74.435 337.64 67.69 312.565 59.9191C273.94 47.952 247.589 49.7471 247.589 49.7471C240.402 60.5175 238.606 116.164 238.606 116.164L215.272 107.189C215.272 107.189 221.557 120.656 233.838 129.631C246.119 138.607 276.359 143.689 291.93 151.77C307.501 159.852 301.512 168.221 308.995 178.098C316.477 187.975 326.767 181.587 326.767 181.587C326.767 181.587 330.555 123.943 331.154 114.758C331.41 110.2 332.711 105.762 334.958 101.787C337.205 97.812 340.337 94.4066 344.111 91.8339Z" fill="white" stroke="#502A73" stroke-width="0.58" stroke-linecap="round" stroke-linejoin="round"/>
<path d="M238.629 116.165C238.629 116.165 253.407 122.544 263.681 128.132C273.956 133.719 281.904 139.267 292.459 141.894C302.452 144.314 312.724 145.388 323.002 145.088" stroke="#502A73" stroke-width="0.58" stroke-linecap="round" stroke-linejoin="round"/>
<path d="M262.802 104.368C268.869 102.534 271.972 105.239 271.972 105.239C271.972 105.239 263.222 105.192 259.333 108.65C255.445 112.108 258.229 119.203 262.374 116.607C269.234 112.31 272.812 113.118 272.812 113.118C272.812 113.118 268.807 114.54 266.442 117.4C264.078 120.26 264.739 124.036 267.687 124.837C269.483 125.326 279.649 115.558 277.207 122.506C276.531 124.744 275.689 126.928 274.687 129.041C273.855 130.494 272.556 131.622 271 132.242C274.593 134.302 278 136.252 281.601 137.931C282.475 137.515 283.246 136.91 283.857 136.159C285.856 133.649 285.965 128.831 286.19 124.689C286.525 117.206 292.21 130.774 294.03 131.155C297.009 131.776 298.992 128.637 297.919 124.938C297.015 122.384 295.572 120.054 293.688 118.107C293.688 118.107 297.25 119.009 301.925 126.08C304.748 130.354 309.897 125.155 307.618 120.221C305.339 115.286 297.32 111.292 297.32 111.292C297.32 111.292 301.139 110.251 306 114.711C309.438 117.859 311.359 120.477 312.705 118.698C315.263 115.31 313.747 106.909 303.97 101.959C293.773 96.7996 286.128 100.778 285.226 101.182C284.557 100.405 280.613 93.6214 269.421 93.6525C258.688 93.6525 254.223 100.646 255.312 104.905C255.802 107.166 258.556 105.666 262.802 104.368Z" fill="#4BBEA5" stroke="#502A73" stroke-width="0.58" stroke-linecap="round" stroke-linejoin="round"/>
<path d="M322.17 79.8125C322.17 79.8125 335.649 70.3942 344.034 71.4355C352.418 72.4768 358.975 76.3933 363.346 76.098C369.705 75.5746 375.831 73.4667 381.165 69.9669L371.987 65.4753C368.34 63.691 364.958 61.4106 361.938 58.6991L356.183 53.5315L353.243 51.0604C352.122 50.1176 350.79 49.4581 349.361 49.1376C347.931 48.817 346.446 48.8449 345.029 49.2187C339.865 50.5708 311.989 58.7458 311.538 59.9425" fill="#4BBEA5"/>
<path d="M322.17 79.8125C322.17 79.8125 335.649 70.3942 344.034 71.4355C352.418 72.4768 358.975 76.3933 363.346 76.098C369.705 75.5746 375.832 73.4667 381.165 69.9669L371.987 65.4753C368.34 63.691 364.958 61.4106 361.938 58.6991L356.183 53.5315L353.243 51.0604C352.122 50.1176 350.79 49.4581 349.361 49.1376C347.931 48.817 346.446 48.8449 345.029 49.2187C339.865 50.5708 311.989 58.7458 311.538 59.9425" stroke="#502A73" stroke-width="0.58" stroke-linecap="round" stroke-linejoin="round"/>
<path d="M371.987 65.4523C368.34 63.668 364.958 61.3876 361.938 58.6761L356.183 53.5085L353.243 51.0373C352.122 50.0945 350.79 49.435 349.361 49.1145C347.931 48.794 346.446 48.8218 345.029 49.1956C339.865 50.5478 311.989 58.7227 311.538 59.9194L321.291 78.1653C324.714 74.1711 333.891 64.3177 340.588 65.157C348.973 66.206 355.529 70.107 359.9 69.8195C364.579 69.4251 369.143 68.1683 373.364 66.1128L371.987 65.4523Z" fill="#008056" stroke="#502A73" stroke-width="0.58" stroke-linecap="round" stroke-linejoin="round"/>
<path d="M371.987 65.4523C368.34 63.668 364.958 61.3876 361.938 58.6761L356.183 53.5085L353.243 51.0373C352.122 50.0945 350.79 49.435 349.361 49.1145C347.931 48.794 346.446 48.8218 345.029 49.1956C339.865 50.5478 311.989 58.7227 311.538 59.9194L321.291 78.1653C324.714 74.1711 333.891 64.3177 340.588 65.157C348.973 66.206 355.529 70.107 359.9 69.8195C364.579 69.4251 369.143 68.1683 373.364 66.1128L371.987 65.4523Z" stroke="#502A73" stroke-width="0.58" stroke-linecap="round" stroke-linejoin="round"/>
<path d="M284.72 59.4219L283.164 60.0513C281.681 60.6599 280.423 61.7115 279.561 63.0622C278.699 64.4129 278.276 65.9967 278.35 67.5968L279.384 90.2021C279.461 91.9302 280.209 93.5602 281.47 94.7458C282.731 95.9313 284.405 96.5789 286.136 96.5509L304.46 96.2789C306.405 96.2472 308.283 95.5661 309.796 94.344L331.667 71.6765C332.805 70.4988 333.471 68.9446 333.538 67.3088C333.606 65.673 333.07 64.0693 332.032 62.8022L326.891 56.5233C326.002 55.4379 324.807 54.6447 323.461 54.2465L307.843 49.584" fill="#008056"/>
<path d="M284.72 59.4219L283.164 60.0513C281.681 60.6599 280.423 61.7115 279.561 63.0622C278.699 64.4129 278.276 65.9967 278.35 67.5968L279.384 90.2021C279.461 91.9302 280.209 93.5602 281.47 94.7458C282.731 95.9313 284.405 96.5789 286.136 96.5509L304.46 96.2789C306.405 96.2472 308.283 95.5661 309.796 94.344L331.667 71.6765C332.805 70.4988 333.471 68.9446 333.538 67.3088C333.606 65.673 333.07 64.0693 332.032 62.8022L326.891 56.5233C326.002 55.4379 324.807 54.6447 323.461 54.2465L307.843 49.584" stroke="#502A73" stroke-width="0.58" stroke-linecap="round" stroke-linejoin="round"/>
<path d="M284.72 59.4219L283.164 60.0513C281.681 60.6599 280.423 61.7115 279.561 63.0622C278.699 64.4129 278.276 65.9967 278.35 67.5968L279.384 90.2021C279.461 91.9302 280.209 93.5602 281.47 94.7458C282.731 95.9313 284.405 96.5789 286.136 96.5509L304.46 96.2789C306.405 96.2472 308.283 95.5661 309.796 94.344L331.667 71.6765C332.805 70.4988 333.471 68.9446 333.538 67.3088C333.606 65.673 333.07 64.0693 332.032 62.8022L326.891 56.5233C326.002 55.4379 324.807 54.6447 323.461 54.2465L307.843 49.584" stroke="#502A73" stroke-width="0.58" stroke-linecap="round" stroke-linejoin="round"/>
<path d="M292.685 74.8701L313.879 58.7379C313.148 46.5688 311.616 22.8133 310.34 16.3868C308.279 6.05163 306.848 3.32405 300.159 1.45905C291.114 -1.06647 275.986 21.1581 275.986 21.1581C275.986 21.1581 275.426 25.2301 274.85 30.5764C274.8 31.2313 274.525 31.8489 274.072 32.3248L269.11 37.5701C268.923 37.8019 268.793 38.0751 268.733 38.367C268.673 38.6589 268.684 38.9609 268.764 39.2478C268.845 39.5347 268.994 39.7981 269.197 40.0159C269.401 40.2338 269.654 40.3996 269.935 40.4997L273.512 42.0539C274.29 42.4191 274.15 43.204 273.334 44.5095C272.175 46.3512 273.987 47.4002 274.399 47.6178C275.13 48.0452 274.002 48.0996 273.808 49.545C273.637 50.7805 274.251 51.1846 274.306 51.8762C274.438 53.7179 274.594 54.4562 274.734 55.8394C274.834 56.8257 275.262 57.75 275.95 58.4643C276.638 59.1786 277.546 59.6416 278.529 59.7792L289.091 61.2401L291.604 75.282L292.685 74.8701Z" fill="#BF792A" stroke="#502A73" stroke-width="0.58" stroke-linecap="round" stroke-linejoin="round"/>
<path d="M285.039 18.3452C288.244 17.085 291.322 15.5239 294.232 13.6827C294.232 13.6827 290.343 18.4306 291.183 19.6739C292.023 20.9173 296.947 18.9435 297.087 19.0911C297.227 19.2388 293.618 22.7823 293.867 24.2743C294.116 25.7663 296.262 24.9192 296.402 25.3466C296.542 25.774 293.291 29.1311 293.563 30.0791C293.694 30.3842 293.889 30.6578 294.135 30.8816C294.38 31.1054 294.671 31.2742 294.987 31.3768C294.987 31.3768 293.843 35.4487 296.861 36.8164C299.879 38.1841 300.843 36.1792 301.193 30.7629C301.302 29.1 302.375 27.8566 303.527 28.3229C305.541 29.1466 308.061 33.3895 308.061 33.3895C308.061 33.3895 310.06 40.9816 312.868 42.0306C312.137 31.5789 311.227 20.5987 310.371 16.3169C308.31 5.98173 306.879 3.2542 300.19 1.3892C291.113 -1.06638 279.695 20.3034 285.039 18.3452Z" fill="#502A73" stroke="#502A73" stroke-width="0.58" stroke-linecap="round" stroke-linejoin="round"/>
<path d="M285.039 18.3452C288.244 17.085 291.322 15.5239 294.232 13.6827C294.232 13.6827 290.343 18.4306 291.183 19.6739C292.023 20.9173 296.947 18.9435 297.087 19.0911C297.227 19.2388 293.618 22.7823 293.867 24.2743C294.116 25.7663 296.262 24.9192 296.402 25.3466C296.542 25.774 293.291 29.1311 293.563 30.0791C293.694 30.3842 293.889 30.6578 294.135 30.8816C294.38 31.1054 294.671 31.2742 294.987 31.3768C294.987 31.3768 293.843 35.4487 296.861 36.8164C299.879 38.1841 300.843 36.1792 301.193 30.7629C301.302 29.1 302.375 27.8566 303.527 28.3229C305.541 29.1466 308.061 33.3895 308.061 33.3895C308.061 33.3895 310.06 40.9816 312.868 42.0306C312.137 31.5789 311.227 20.5987 310.371 16.3169C308.31 5.98173 306.879 3.2542 300.19 1.3892C291.113 -1.06638 279.695 20.3034 285.039 18.3452Z" stroke="#502A73" stroke-width="0.58" stroke-linecap="round" stroke-linejoin="round"/>
<path d="M301.015 1.53712C295.461 0.0451251 286.54 0.48029 280.544 6.44052C276.569 10.3881 275.994 18.7106 275.986 20.731L311.39 24.7641C311.39 24.7641 314.486 5.17387 301.015 1.53712Z" fill="#008056" stroke="#502A73" stroke-width="0.58" stroke-linecap="round" stroke-linejoin="round"/>
<path d="M301.901 32.3328C301.941 31.4568 302.141 30.5954 302.492 29.7917C303.729 27.3672 306.381 26.2327 308.785 27.4605C311.188 28.6883 311.725 31.5091 311.064 34.1512C310.554 36.3909 309.348 38.412 307.618 39.9249C306.483 40.8263 305.285 41.1527 304.204 40.6165" fill="#BF792A"/>
<path d="M301.901 32.3328C301.941 31.4568 302.141 30.5954 302.492 29.7917C303.729 27.3672 306.381 26.2327 308.785 27.4605C311.188 28.6883 311.725 31.5091 311.064 34.1512C310.554 36.3909 309.348 38.412 307.618 39.9249C306.483 40.8263 305.285 41.1527 304.204 40.6165" stroke="#502A73" stroke-width="0.58" stroke-linecap="round" stroke-linejoin="round"/>
<path d="M300.875 38.5959C300.627 39.0077 300.288 39.3568 299.883 39.6157C299.479 39.8745 299.019 40.0361 298.541 40.0879C297.032 40.1345 295.43 38.5337 295.43 38.5337" stroke="#502A73" stroke-width="0.58" stroke-linecap="round" stroke-linejoin="round"/>
<path d="M300.649 41.1604C300.402 41.5723 300.063 41.9214 299.658 42.1802C299.253 42.4391 298.794 42.6007 298.316 42.6524C296.807 42.6991 295.205 41.0983 295.205 41.0983" stroke="#502A73" stroke-width="0.58" stroke-linecap="round" stroke-linejoin="round"/>
<path d="M304.312 32.698C304.312 32.698 305.036 29.8539 307.424 31.0661C308.979 31.8432 308.505 34.4464 307.035 35.1769C306.386 35.4068 305.677 35.4068 305.028 35.1769C305.236 35.3383 305.383 35.5647 305.446 35.8197C305.51 36.0747 305.486 36.3437 305.378 36.5834C304.841 37.5703 303.76 36.7 303.76 36.7" fill="#BF792A"/>
<path d="M304.312 32.698C304.312 32.698 305.036 29.8539 307.424 31.0661C308.979 31.8432 308.505 34.4464 307.035 35.1769C306.386 35.4068 305.677 35.4068 305.028 35.1769C305.236 35.3383 305.383 35.5647 305.446 35.8197C305.51 36.0747 305.486 36.3437 305.378 36.5834C304.841 37.5703 303.76 36.7 303.76 36.7" stroke="#502A73" stroke-width="0.58" stroke-linecap="round" stroke-linejoin="round"/>
<path d="M274.407 47.6492C275.856 48.2853 277.413 48.6383 278.996 48.6891C280.145 48.7192 281.285 48.48 282.325 47.9906" stroke="#502A73" stroke-width="0.58" stroke-linecap="round" stroke-linejoin="round"/>
<path d="M282.496 30.3044C283.333 30.1317 284.203 30.2045 285 30.5139" stroke="#502A73" stroke-width="1.17" stroke-linecap="round" stroke-linejoin="round"/>
<path d="M282.861 30.3044C282.541 30.8691 282.352 31.4986 282.309 32.1461C282.223 33.2185 282.573 33.7625 283.087 33.8091C283.6 33.8557 284.012 33.3584 284.098 32.2549C284.156 31.6098 284.071 30.9597 283.849 30.3511L282.861 30.3044Z" fill="#502A73"/>
<path d="M274.609 29.6673C275.449 29.4963 276.32 29.5663 277.121 29.8691" stroke="#502A73" stroke-width="1.17" stroke-linecap="round" stroke-linejoin="round"/>
<path d="M274.974 29.6672C274.656 30.2329 274.468 30.8618 274.422 31.5089C274.336 32.5813 274.686 33.1253 275.2 33.1641C275.713 33.203 276.125 32.7212 276.211 31.6099C276.278 30.9646 276.192 30.3127 275.962 29.7061L274.974 29.6672Z" fill="#502A73"/>
<path d="M280.022 26.8C280.064 26.9076 280.13 27.0045 280.215 27.0834C280.299 27.1624 280.4 27.2216 280.511 27.2566C280.621 27.2915 280.738 27.3015 280.852 27.2857C280.967 27.2699 281.077 27.2288 281.173 27.1653C281.645 26.8607 282.173 26.653 282.725 26.5543C283.278 26.4556 283.845 26.4678 284.393 26.5903C284.98 26.7197 285.546 26.9317 286.073 27.2197C286.18 27.2779 286.3 27.308 286.422 27.3071C286.543 27.3061 286.663 27.2742 286.769 27.2143C286.875 27.1544 286.963 27.0685 287.027 26.9648C287.09 26.861 287.126 26.7428 287.131 26.6213C287.138 26.5152 287.121 26.4088 287.081 26.3104C287.04 26.212 286.978 26.1243 286.898 26.0541C286.033 25.1684 284.858 24.6512 283.62 24.6106C282.382 24.5701 281.177 25.0093 280.256 25.8365C280.118 25.9508 280.021 26.1062 279.979 26.2797C279.937 26.4533 279.952 26.6357 280.022 26.8Z" fill="#502A73"/>
<path d="M285.778 47.0662C286.03 47.1584 286.299 47.1971 286.566 47.1797C286.834 47.1623 287.096 47.0892 287.334 46.9652C286.224 45.7515 285.031 44.6167 283.764 43.5693C282.986 43.1108 280.816 43.2118 277.72 43.3595C276.459 43.4365 275.195 43.273 273.995 42.8777C273.906 43.4711 273.674 44.0339 273.318 44.5174C273.244 44.6272 273.181 44.7443 273.131 44.867C274.31 45.3447 275.552 45.6509 276.818 45.7762C278.921 45.934 281.035 45.8715 283.126 45.5897C283.981 46.1323 284.866 46.6253 285.778 47.0662Z" fill="#502A73" stroke="#502A73" stroke-width="0.58" stroke-linecap="round" stroke-linejoin="round"/>
<path d="M285.778 47.0662C286.03 47.1584 286.299 47.1971 286.566 47.1797C286.834 47.1623 287.096 47.0892 287.334 46.9652C286.224 45.7515 285.031 44.6167 283.764 43.5693C282.986 43.1108 280.816 43.2118 277.72 43.3595C276.459 43.4365 275.195 43.273 273.995 42.8777C273.906 43.4711 273.674 44.0339 273.318 44.5174C273.244 44.6272 273.181 44.7443 273.131 44.867C274.31 45.3447 275.552 45.6509 276.818 45.7762C278.921 45.934 281.035 45.8715 283.126 45.5897C283.981 46.1323 284.866 46.6253 285.778 47.0662Z" stroke="#502A73" stroke-width="0.58" stroke-linecap="round" stroke-linejoin="round"/>
<path d="M276.639 24.7406C276.294 24.6015 275.92 24.5507 275.55 24.5929L275.325 26.4657C275.52 26.4128 275.723 26.3996 275.924 26.4268C276.382 26.4961 276.819 26.6631 277.207 26.9164C277.3 26.9797 277.407 27.022 277.518 27.0402C277.63 27.0584 277.744 27.0521 277.852 27.0218C277.961 26.9915 278.062 26.9379 278.148 26.8646C278.234 26.7914 278.303 26.7004 278.35 26.5978C278.437 26.4419 278.467 26.2611 278.436 26.0857C278.404 25.9103 278.314 25.7509 278.179 25.6342C277.731 25.2355 277.208 24.9315 276.639 24.7406Z" fill="#502A73"/>
<path d="M283.693 16.3171C266.582 6.37042 250.459 11.9499 258.027 18.3064C264.303 23.5673 299.941 23.4196 299.941 23.4196C299.941 23.4196 289.939 19.9538 283.693 16.3171Z" fill="#502A73" stroke="#502A73" stroke-width="0.58" stroke-linecap="round" stroke-linejoin="round"/>
<path d="M283.693 16.3171C266.582 6.37042 250.459 11.9499 258.027 18.3064C264.303 23.5673 299.941 23.4196 299.941 23.4196C299.941 23.4196 289.939 19.9538 283.693 16.3171Z" stroke="#502A73" stroke-width="0.58" stroke-linecap="round" stroke-linejoin="round"/>
<path d="M360.935 272.933C363.976 256.995 369.288 215.857 374.273 176.575C375.051 170.467 375.829 164.406 376.545 158.492C376.91 155.485 377.26 152.509 377.594 149.595C368.523 155.99 357.63 159.296 346.53 159.021C336.497 158.85 331.153 156.837 328.493 155.283C328.33 157.723 328.175 160.116 328.027 162.401C327.311 173.226 326.767 181.564 326.767 181.564C322.403 202.087 323.15 245.067 323.484 264.37C323.512 265.819 323.197 267.255 322.566 268.56C321.935 269.866 321.005 271.004 319.852 271.884C317.356 273.788 314.237 276.547 312.588 279.492C308.007 287.69 307.369 298.088 305.004 301.631C301.014 307.615 304.227 313 312.191 310.606C320.156 308.213 325.165 299.238 325.165 299.238C325.165 299.238 332.802 317.491 342.68 321.524C349.797 324.431 353.717 320.747 353.717 320.747C353.717 320.747 357.808 323.281 361.899 322.302C366.262 321.307 367.538 318.237 367.538 318.237C368.826 318.967 370.251 319.422 371.723 319.573C373.196 319.724 374.684 319.568 376.093 319.115C379.617 317.88 378.715 313.676 378.715 313.676C378.715 313.676 385.077 313.73 384.882 309.542C384.688 305.353 379.088 299.766 371.504 291.187C366.293 285.421 362.692 277.409 360.935 272.933Z" fill="#BF792A" stroke="#502A73" stroke-width="0.58" stroke-linecap="round" stroke-linejoin="round"/>
<path d="M377.594 149.618C380.705 122.264 382.199 99.4182 377.12 92.1136C374.53 88.3759 370.571 84.7702 364.846 81.1567C362.101 82.2991 351.08 87.0004 344.134 91.865C340.355 94.4359 337.218 97.8415 334.967 101.818C332.716 105.795 331.411 110.235 331.153 114.797C330.834 119.754 329.598 138.824 328.493 155.337C331.153 156.891 336.496 158.904 346.53 159.075C357.633 159.341 368.526 156.024 377.594 149.618Z" fill="white" stroke="#502A73" stroke-width="0.58" stroke-linecap="round" stroke-linejoin="round"/>
<path d="M338.021 211.637C338.021 211.637 341.435 213.681 349.975 214.535C355.028 215.055 360.121 215.055 365.173 214.535C361.034 216.945 356.757 219.109 352.363 221.016C346.219 223.581 339.219 225.624 339.219 225.624C339.219 225.624 340.409 228.274 349.12 229.253C357.831 230.233 359.029 230.233 359.029 230.233L342.602 240.956" stroke="#502A73" stroke-width="0.58" stroke-linecap="round" stroke-linejoin="round"/>
<path d="M342.198 300.683C343.386 302.302 344.658 303.858 346.009 305.345C350.746 310.567 355.296 316.932 353.717 320.786" fill="#BF792A"/>
<path d="M342.198 300.683C343.386 302.302 344.658 303.858 346.009 305.345C350.746 310.567 355.296 316.932 353.717 320.786" stroke="#502A73" stroke-width="0.58" stroke-linecap="round" stroke-linejoin="round"/>
<path d="M367.538 318.33C367.538 318.33 368.432 317.553 366.566 312.945C365.609 310.614 358.99 303.395 354.899 299.059" fill="#BF792A"/>
<path d="M367.538 318.33C367.538 318.33 368.432 317.553 366.566 312.945C365.609 310.614 358.99 303.395 354.899 299.059" stroke="#502A73" stroke-width="0.58" stroke-linecap="round" stroke-linejoin="round"/>
<path d="M378.691 313.769C378.066 311.496 377.01 309.365 375.58 307.49C374.173 305.617 371.069 302.532 368.215 299.362C366.06 296.961 363.828 294.078 363.828 294.078" fill="#BF792A"/>
<path d="M378.691 313.769C378.066 311.496 377.01 309.365 375.58 307.49C374.173 305.617 371.069 302.532 368.215 299.362C366.06 296.961 363.828 294.078 363.828 294.078" stroke="#502A73" stroke-width="0.58" stroke-linecap="round" stroke-linejoin="round"/>
<path d="M329.559 183.382C334.463 186.165 339.909 187.864 345.527 188.363C354.316 188.962 359.301 186.77 359.301 186.77" stroke="#502A73" stroke-width="0.58" stroke-linecap="round" stroke-linejoin="round"/>
<path d="M124.49 259.536C124.49 259.536 106.935 248.742 112.263 239.293C116.253 232.214 122.553 232.26 137.813 234.11C151.813 235.804 155.189 246.194 152.187 256.055C150.669 260.75 149.402 265.523 148.391 270.353L91.831 311.072L82.4121 302.579L124.49 259.536Z" fill="#4BBEA5" stroke="#502A73" stroke-width="0.58" stroke-linecap="round" stroke-linejoin="round"/>
<path d="M144.93 266.507C148.197 262.839 145.156 261.471 147.263 254.555C148.516 250.444 148.251 246.582 146.54 243.948C144.829 241.314 141.702 239.759 137.207 239.208C135.169 238.967 133.318 238.71 131.615 238.477L127.648 237.957C119.808 237.009 116.572 238.197 115.001 241.842C113.22 246.03 121.223 250.258 125.828 256.125C127.183 257.842 128.154 259.829 128.675 261.953C128.769 262.34 128.842 262.731 128.892 263.126" fill="#4BBEA5"/>
<path d="M144.93 266.507C148.197 262.839 145.156 261.471 147.263 254.555C148.516 250.444 148.251 246.582 146.54 243.948C144.829 241.314 141.702 239.759 137.207 239.208C135.169 238.967 133.318 238.71 131.615 238.477L127.648 237.957C119.808 237.009 116.572 238.197 115.001 241.842C113.22 246.03 121.223 250.258 125.828 256.125C127.183 257.842 128.154 259.829 128.675 261.953C128.769 262.34 128.842 262.731 128.892 263.126" stroke="#502A73" stroke-width="0.58" stroke-linecap="round" stroke-linejoin="round"/>
<path d="M147.901 265.427L122.001 262.295" stroke="#502A73" stroke-width="0.58" stroke-linecap="round" stroke-linejoin="round"/>
<path d="M114.526 269.693L140.426 272.832" stroke="#502A73" stroke-width="0.58" stroke-linecap="round" stroke-linejoin="round"/>
<path d="M107.052 277.091L132.952 280.23" stroke="#502A73" stroke-width="0.58" stroke-linecap="round" stroke-linejoin="round"/>
<path d="M99.5776 284.496L125.478 287.628" stroke="#502A73" stroke-width="0.58" stroke-linecap="round" stroke-linejoin="round"/>
<path d="M92.1035 291.894L118.004 295.033" stroke="#502A73" stroke-width="0.58" stroke-linecap="round" stroke-linejoin="round"/>
<path d="M121.317 257.322C121.317 257.322 105.442 268.978 92.788 280.37C75.9102 295.515 62.4935 305.407 57.1502 314.041C51.8069 322.674 55.3069 329.202 64.928 334.758C74.5491 340.314 95.0513 341.674 130.658 327.593C166.265 313.512 178.577 305.555 181.898 302.346C185.219 299.136 191.286 293.339 186.292 281.908C185.289 279.577 183.702 275.567 183.702 275.567L177.955 269.91C176.36 269.662 167.33 270.058 160.564 262.676C158.285 260.197 155.625 257.539 151.518 257.757C145.848 258.06 137.72 264.401 127.446 273.228C123.02 277.044 103.101 295.36 98.5047 299.595C98.2348 299.843 97.8889 299.992 97.5232 300.019C97.1575 300.046 96.7935 299.948 96.4902 299.742C96.2969 299.611 96.1341 299.439 96.0129 299.24C95.8917 299.04 95.8149 298.816 95.7876 298.584C95.7603 298.352 95.7832 298.117 95.8548 297.894C95.9263 297.672 96.0449 297.467 96.2024 297.295C99.4069 293.806 108.048 284.519 114.776 278.404C117.786 275.668 121.115 272.133 123.191 269.856C124.514 268.411 125.441 266.65 125.882 264.743C126.151 263.562 126.042 262.327 125.57 261.211C125.098 260.096 124.288 259.157 123.254 258.526L121.317 257.322Z" fill="#4BBEA5" stroke="#502A73" stroke-width="0.58" stroke-linecap="round" stroke-linejoin="round"/>
<path d="M182.115 269.973C179.864 269.993 177.613 269.894 175.372 269.677C176.578 274.48 179.339 283.836 184.464 289.936L187.715 293.821C188.571 290.713 188.493 286.827 186.323 281.932C185.701 280.502 183.632 274.441 182.115 269.973Z" fill="#4BBEA5" stroke="#502A73" stroke-width="0.58" stroke-linecap="round" stroke-linejoin="round"/>
<path d="M181.835 283.253C171.864 280.331 167.641 284.628 163.464 289.283C159.288 293.938 155.959 309.34 144.634 311.927C133.31 314.515 129.608 305.291 118.781 305.182C107.954 305.073 98.9787 322.379 91.6442 328.883C84.3098 335.387 69.5942 327.756 69.5942 327.756L69.8198 336.856C80.8254 340.376 100.215 339.646 130.689 327.593C166.288 313.52 178.608 305.555 181.929 302.346C184.348 300.015 188.236 296.277 188.213 289.982C187.723 287.247 186.082 284.473 181.835 283.253Z" fill="#008056" stroke="#502A73" stroke-width="0.58" stroke-linecap="round" stroke-linejoin="round"/>
<path d="M62.5556 318.828C58.3478 318.525 56.0223 320.646 54.7778 323.28C55.4934 327.64 59.0867 331.378 64.9589 334.758C68.2412 336.646 72.7834 338.053 78.749 338.527C76.8512 329.769 71.6867 319.48 62.5556 318.828Z" fill="#008056" stroke="#502A73" stroke-width="0.58" stroke-linecap="round" stroke-linejoin="round"/>
<path d="M167.065 271.822L163.309 273.562C157.343 276.321 147.675 281.559 147.675 281.559L153.353 287.099L167.991 272.117L167.065 271.822Z" fill="#008056" stroke="#502A73" stroke-width="0.58" stroke-linecap="round" stroke-linejoin="round"/>
<path d="M460.124 146.634C458.208 144.42 456.635 141.932 455.458 139.252H457.083C463.018 139.252 468.709 136.896 472.906 132.704C477.102 128.511 479.46 122.824 479.46 116.895V102.978C479.46 97.0474 477.102 91.3601 472.906 87.1662C468.71 82.9723 463.018 80.6151 457.083 80.613H416.226C410.298 80.6254 404.616 82.9871 400.428 87.1799C396.241 91.3727 393.889 97.0542 393.889 102.978V116.895C393.889 122.824 396.246 128.511 400.443 132.704C404.639 136.896 410.331 139.252 416.265 139.252H435.795C437.693 146.611 442.484 154.591 453.778 158.601C465.273 162.681 484.889 158.997 484.889 158.997C484.889 158.997 469.108 157.202 460.124 146.634Z" fill="#EEC718" stroke="#502A73" stroke-width="0.58" stroke-linecap="round" stroke-linejoin="round"/>
<path d="M467.124 103.568L436.9 105.588L436.146 94.9735L405.524 112.629L438.409 126.686L437.748 117.47L466.673 121.62L467.124 103.568Z" fill="#008056" stroke="#502A73" stroke-width="0.58" stroke-linecap="round" stroke-linejoin="round"/>
</svg>
