<svg width="538" height="385" viewBox="0 0 538 385" fill="none" xmlns="http://www.w3.org/2000/svg">
<path d="M155.25 179.341L276.676 1L536.711 199.622L431.672 247.149L168.487 285.358" fill="#EEC718"/>
<path d="M155.25 179.341L276.676 1L536.711 199.622L431.672 247.149L168.487 285.358" stroke="#502A73" stroke-width="1.06" stroke-linecap="round" stroke-linejoin="round"/>
<path d="M144.454 166.278C144.454 166.278 178.466 214.815 181.188 219.594C183.911 224.373 142.113 252.006 142.113 252.006C142.113 252.006 127.926 204.285 124.722 189.785C121.517 175.284 119.028 159.043 120.833 150.154C122.637 141.264 134.413 152.127 134.413 152.127" fill="#BF792A"/>
<path d="M144.454 166.278C144.454 166.278 178.466 214.815 181.188 219.594C183.911 224.373 142.113 252.006 142.113 252.006C142.113 252.006 127.926 204.285 124.722 189.785C121.517 175.284 119.028 159.043 120.833 150.154C122.637 141.264 134.413 152.127 134.413 152.127" stroke="#502A73" stroke-width="0.56" stroke-linecap="round" stroke-linejoin="round"/>
<path d="M122.311 194.773C124.849 197.683 128.05 199.94 131.644 201.355C137.734 203.819 139.717 204.192 139.717 204.192" stroke="#502A73" stroke-width="0.56" stroke-linecap="round" stroke-linejoin="round"/>
<path d="M125.523 208.1C125.523 208.1 129.21 212.211 133.861 213.361C138.512 214.511 139.694 214.348 139.694 214.348" stroke="#502A73" stroke-width="0.56" stroke-linecap="round" stroke-linejoin="round"/>
<path d="M390.745 130.851V120.842C390.745 109.9 400.281 101.034 412.041 101.034C423.801 101.034 433.336 109.9 433.336 120.842V134.371" fill="#008056"/>
<path d="M390.745 130.851V120.842C390.745 109.9 400.281 101.034 412.041 101.034C423.801 101.034 433.336 109.9 433.336 120.842V134.371" stroke="#502A73" stroke-width="0.56" stroke-linecap="round" stroke-linejoin="round"/>
<path d="M408.541 125.062C408.541 125.062 422.284 124.588 429.541 120.881C448.402 111.23 463.716 118.48 457.541 126.779C455.534 129.475 450.805 133.073 437.808 132.576" fill="#502A73"/>
<path d="M408.541 125.062C408.541 125.062 422.284 124.588 429.541 120.881C448.402 111.23 463.716 118.48 457.541 126.779C455.534 129.475 450.805 133.073 437.808 132.576" stroke="#502A73" stroke-width="0.56" stroke-linecap="round" stroke-linejoin="round"/>
<path d="M408.541 125.062C408.541 125.062 422.284 124.588 429.541 120.881C448.402 111.23 463.716 118.48 457.541 126.779C455.534 129.475 450.805 133.073 437.808 132.576" stroke="#502A73" stroke-width="0.56" stroke-linecap="round" stroke-linejoin="round"/>
<path d="M335.686 326.567H155.646C155.646 326.567 136.349 328.952 136.427 310.357C136.505 291.761 156.727 293.005 156.727 293.005L168.036 276.056L176.941 292.989H350.635" fill="#A9D054"/>
<path d="M335.686 326.567H155.646C155.646 326.567 136.349 328.952 136.427 310.357C136.505 291.761 156.727 293.005 156.727 293.005L168.036 276.056L176.941 292.989H350.635" stroke="#502A73" stroke-width="0.56" stroke-linecap="round" stroke-linejoin="round"/>
<path d="M340.936 117.764C340.936 117.764 429.369 126.903 446.714 129.864C464.058 132.824 467.286 144.908 463.319 158.305C459.353 171.702 429.385 282.017 429.385 282.017L375.796 261.657L303.408 236.852L340.936 117.764Z" fill="#A9D054" stroke="#502A73" stroke-width="0.56" stroke-linecap="round" stroke-linejoin="round"/>
<path d="M446.698 129.864C441.083 128.9 428.031 127.292 412.88 125.559C415.214 125.839 439.123 129.087 436.82 144.667C434.705 158.981 400.498 257.624 400.498 257.624L435.615 259.07C444.621 225.981 460.504 167.793 463.304 158.305C467.301 144.908 464.027 132.825 446.698 129.864Z" fill="#A9D054" stroke="#502A73" stroke-width="0.56" stroke-linecap="round" stroke-linejoin="round"/>
<path d="M422.097 257.189C431.096 224.101 446.986 165.921 449.786 156.425C453.753 143.036 450.509 130.944 433.181 127.983" stroke="#502A73" stroke-width="0.56" stroke-linecap="round" stroke-linejoin="round"/>
<path d="M375.617 163.333C366.455 143.128 356.951 126.343 351.405 118.992C343.386 108.377 338.408 98.3529 323.491 99.1766C308.573 100 283.381 110.273 283.381 110.273C283.381 110.273 261.447 101.088 265.204 108.882C268.961 116.677 262.699 113.421 262.699 113.421L258.204 120.236C258.204 120.236 240.066 128.131 229.162 133.399C218.257 138.668 208.621 142.779 205.735 148.863C202.849 154.948 175.899 209.911 175.899 209.911L242.477 217.48L367.528 215.281C367.528 215.281 377.149 174.53 375.617 163.333Z" fill="white" stroke="#502A73" stroke-width="0.56" stroke-linecap="round" stroke-linejoin="round"/>
<path d="M272.538 146.478C272.538 146.478 277.983 136.453 287.417 134.247C296.447 132.141 298.267 136.578 297.528 138.404C296.789 140.23 295.071 141.683 290.769 143.307C283.591 146.012 281.234 149.058 281.234 149.058C281.234 149.058 293.282 146.167 299.955 149.058C306.628 151.949 304.863 158.15 299.955 157.116C295.047 156.083 285.107 154.008 285.107 154.008C285.107 154.008 291.773 157.598 294.036 161.344C296.299 165.089 293.033 174.251 285.356 171.15C277.679 168.05 274.172 163.216 274.172 163.216L262.404 152.516L251.772 153.666C251.772 153.666 244.888 153.814 247.432 148.646C249.975 143.478 264.986 140.23 272.538 146.478Z" fill="#4BBEA5" stroke="#502A73" stroke-width="0.56" stroke-linecap="round" stroke-linejoin="round"/>
<path d="M212.587 141.979C209.375 144.077 206.956 146.299 205.735 148.864C202.849 154.956 175.899 209.911 175.899 209.911L227.559 215.786L237.632 185.752C237.632 185.752 215.683 151.366 213.435 147.581C212.494 145.874 212.194 143.887 212.587 141.979Z" fill="white" stroke="#502A73" stroke-width="0.56" stroke-linecap="round" stroke-linejoin="round"/>
<path d="M351.413 118.992C344.413 109.667 339.692 100.832 328.585 99.3477C327.343 100.426 326.228 101.644 325.264 102.977C321.546 107.903 318.186 118.347 315.837 127.136C314.662 131.544 314.392 136.144 315.042 140.66C315.693 145.175 317.252 149.512 319.625 153.409L329.386 169.433C329.386 169.433 375.913 165.547 375.617 163.372C366.455 143.136 356.95 126.344 351.413 118.992Z" fill="white" stroke="#502A73" stroke-width="0.56" stroke-linecap="round" stroke-linejoin="round"/>
<path d="M79.4783 269.552C79.4783 269.552 74.6639 271.775 82.5894 290.285C90.515 308.795 115.077 331.47 132.647 322.619C133.744 322.06 135.564 311.251 136.412 310.357C149.222 297.022 135.051 258.945 135.051 258.945L79.4783 269.552Z" fill="#502A73" stroke="#502A73" stroke-width="0.56" stroke-linecap="round" stroke-linejoin="round"/>
<path d="M79.4783 269.552C79.4783 269.552 74.6639 271.775 82.5894 290.285C90.515 308.795 115.077 331.47 132.647 322.619C133.744 322.06 135.564 311.251 136.412 310.357C149.222 297.022 135.051 258.945 135.051 258.945L79.4783 269.552Z" stroke="#502A73" stroke-width="0.56" stroke-linecap="round" stroke-linejoin="round"/>
<path d="M107.152 321.26L134.949 291.894L115.699 262.03L90.1884 260.67L76.7095 276.344" fill="#BF792A"/>
<path d="M107.152 321.26L134.949 291.894L115.699 262.03L90.1884 260.67L76.7095 276.344" stroke="#502A73" stroke-width="0.56" stroke-linecap="round" stroke-linejoin="round"/>
<path d="M220.497 181.796C220.497 181.796 180.792 190.344 172.851 193.787C164.91 197.229 157.925 202.669 147.099 212.786C136.272 222.904 79.4785 269.514 79.4785 269.514C79.4785 269.514 93.813 265.628 112.449 283.089C132.422 301.848 132.671 322.581 132.671 322.581L187.053 266.304L246.942 230.52" fill="white"/>
<path d="M220.497 181.796C220.497 181.796 180.792 190.344 172.851 193.787C164.91 197.229 157.925 202.669 147.099 212.786C136.272 222.904 79.4785 269.514 79.4785 269.514C79.4785 269.514 93.813 265.628 112.449 283.089C132.422 301.848 132.671 322.581 132.671 322.581L187.053 266.304L246.942 230.52" stroke="#502A73" stroke-width="0.56" stroke-linecap="round" stroke-linejoin="round"/>
<path d="M121.494 293.417C121.494 293.417 162.607 253.708 175.588 240.575C191.828 224.171 196.588 224.349 209.351 222.811C222.115 221.272 231.129 220.658 231.129 220.658" stroke="#502A73" stroke-width="0.56" stroke-linecap="round" stroke-linejoin="round"/>
<path d="M273.674 185.394C273.674 185.394 246.646 173.466 230.281 176.675C213.917 179.885 205.797 196.211 199.948 214.022C195.616 227.232 182.837 266.731 176.459 286.291C175.982 287.721 175.8 289.234 175.922 290.737C176.045 292.24 176.471 293.702 177.175 295.036C177.878 296.371 178.844 297.549 180.015 298.5C181.186 299.452 182.537 300.157 183.988 300.573C195.429 303.682 213.178 308.282 225.055 310.31C243.823 313.52 246.265 313.333 246.265 313.333L254.043 294.512H301.635C314.299 294.557 326.792 291.589 338.081 285.855C353.723 277.844 369.099 263.32 359.081 238.453C341.029 193.787 295.553 185.884 295.553 185.884L273.674 185.394Z" fill="white" stroke="#502A73" stroke-width="0.56" stroke-linecap="round" stroke-linejoin="round"/>
<path d="M283.699 199.483C268.626 199.211 261.143 204.472 256.593 214.434C253.047 222.142 227.66 281.986 216.39 308.585C219.105 309.168 221.702 309.681 224.082 310.139C229.465 297.03 256.415 231.654 262.847 219.221C270.01 205.381 284.15 202.56 294.075 211.279L303.968 219.943L307.95 215.786C307.95 215.786 298.772 199.739 283.699 199.483Z" fill="white" stroke="#502A73" stroke-width="0.56" stroke-linecap="round" stroke-linejoin="round"/>
<path d="M254.027 294.481L275.471 244.717" stroke="#502A73" stroke-width="0.56" stroke-linecap="round" stroke-linejoin="round"/>
<path d="M228.368 161.212L228.524 161.476L235.532 170.521L239.428 178.882L263.252 171.158L271.512 167.047L266.58 152.749L265.235 144.388L264.885 144.108L254.26 148.996" fill="#008056"/>
<path d="M228.368 161.212L228.524 161.476L235.532 170.521L239.428 178.882L263.252 171.158L271.512 167.047L266.58 152.749L265.235 144.388L264.885 144.108L254.26 148.996" stroke="#502A73" stroke-width="0.56" stroke-linecap="round" stroke-linejoin="round"/>
<path d="M293.313 178.408C296.732 178.408 299.504 175.562 299.504 172.052C299.504 168.541 296.732 165.695 293.313 165.695C289.893 165.695 287.122 168.541 287.122 172.052C287.122 175.562 289.893 178.408 293.313 178.408Z" fill="#EEC718" stroke="#502A73" stroke-width="0.56" stroke-linecap="round" stroke-linejoin="round"/>
<path d="M275.836 209.538C279.255 209.538 282.027 206.692 282.027 203.181C282.027 199.671 279.255 196.825 275.836 196.825C272.417 196.825 269.645 199.671 269.645 203.181C269.645 206.692 272.417 209.538 275.836 209.538Z" fill="#EEC718" stroke="#502A73" stroke-width="0.56" stroke-linecap="round" stroke-linejoin="round"/>
<path d="M275.836 220.674C279.255 220.674 282.027 217.828 282.027 214.317C282.027 210.807 279.255 207.961 275.836 207.961C272.417 207.961 269.645 210.807 269.645 214.317C269.645 217.828 272.417 220.674 275.836 220.674Z" fill="#EEC718" stroke="#502A73" stroke-width="0.56" stroke-linecap="round" stroke-linejoin="round"/>
<path d="M276.443 231.887C279.862 231.887 282.634 229.041 282.634 225.53C282.634 222.02 279.862 219.174 276.443 219.174C273.023 219.174 270.251 222.02 270.251 225.53C270.251 229.041 273.023 231.887 276.443 231.887Z" fill="#EEC718" stroke="#502A73" stroke-width="0.56" stroke-linecap="round" stroke-linejoin="round"/>
<path d="M279.142 242.58C282.561 242.58 285.333 239.734 285.333 236.223C285.333 232.713 282.561 229.867 279.142 229.867C275.723 229.867 272.951 232.713 272.951 236.223C272.951 239.734 275.723 242.58 279.142 242.58Z" fill="#EEC718" stroke="#502A73" stroke-width="0.56" stroke-linecap="round" stroke-linejoin="round"/>
<path d="M283.699 253.296C287.119 253.296 289.891 250.45 289.891 246.939C289.891 243.429 287.119 240.583 283.699 240.583C280.28 240.583 277.508 243.429 277.508 246.939C277.508 250.45 280.28 253.296 283.699 253.296Z" fill="#EEC718" stroke="#502A73" stroke-width="0.56" stroke-linecap="round" stroke-linejoin="round"/>
<path d="M290.341 263.584C293.761 263.584 296.533 260.738 296.533 257.228C296.533 253.717 293.761 250.871 290.341 250.871C286.922 250.871 284.15 253.717 284.15 257.228C284.15 260.738 286.922 263.584 290.341 263.584Z" fill="#EEC718" stroke="#502A73" stroke-width="0.56" stroke-linecap="round" stroke-linejoin="round"/>
<path d="M284.345 95.8821L275.603 96.7058L276.886 104.438L282.019 102.627L284.345 95.8821Z" fill="white" stroke="#502A73" stroke-width="0.56" stroke-linecap="round" stroke-linejoin="round"/>
<path d="M256.711 61.9857C250.574 54.0128 248.209 52.2955 241.816 53.6165C233.167 55.4038 224.464 70.2538 222.901 75.9343C221.337 81.6148 223.865 83.9538 225.911 83.5886C227.956 83.2234 230.002 81.1174 230.002 81.1174C230.002 81.1174 231.269 84.863 233.113 89.6654C233.348 90.2515 233.384 90.8987 233.214 91.507L231.301 98.1822C231.238 98.4588 231.242 98.7464 231.313 99.0209C231.385 99.2953 231.521 99.5487 231.711 99.7596C231.901 99.9705 232.138 100.133 232.404 100.233C232.67 100.333 232.955 100.368 233.237 100.335L236.901 100.109C237.678 100.109 237.927 100.824 237.803 102.301C237.616 104.399 239.576 104.5 240.027 104.523C240.805 104.57 239.903 105.114 240.354 106.435C240.743 107.577 241.427 107.655 241.785 108.261C242.687 109.815 243.131 110.351 243.838 111.47C244.328 112.269 245.077 112.876 245.96 113.19C246.843 113.504 247.807 113.506 248.692 113.195L258.157 109.831L268.338 117.726L270.508 109.668L280.814 102.06C280.814 102.06 262.124 69.0338 256.711 61.9857Z" fill="#BF792A" stroke="#502A73" stroke-width="0.56" stroke-linecap="round" stroke-linejoin="round"/>
<path d="M236.38 74.7376C238.53 72.2561 240.444 69.579 242.096 66.7414C242.096 66.7414 240.828 72.5385 242.096 73.2223C243.364 73.9061 246.607 70.0751 246.763 70.114C246.918 70.1528 245.441 74.7764 246.281 75.9732C247.121 77.1699 248.567 75.4758 248.871 75.7867C249.174 76.0975 247.844 80.4492 248.505 81.0942C248.746 81.3107 249.033 81.4706 249.343 81.562C249.654 81.6534 249.982 81.6741 250.302 81.6226C250.302 81.6226 251.08 85.6245 254.191 85.508C257.302 85.3914 257.255 83.1767 255.233 78.421C254.611 76.9368 254.984 75.4059 256.119 75.3127C258.157 75.1495 262.077 77.6439 262.077 77.6439C262.077 77.6439 266.993 83.2933 269.793 82.9669C264.714 74.3102 259.262 65.2805 256.718 61.9857C250.582 54.0128 248.217 52.2955 241.824 53.6165C233.175 55.4038 224.472 70.2538 222.908 75.9343C221.345 81.6148 223.873 83.9538 225.918 83.5886C227.964 83.2234 230.01 81.1174 230.01 81.1174C232.252 79.1126 234.378 76.9826 236.38 74.7376Z" fill="#502A73" stroke="#502A73" stroke-width="0.56" stroke-linecap="round" stroke-linejoin="round"/>
<path d="M236.38 74.7376C238.53 72.2561 240.444 69.579 242.096 66.7414C242.096 66.7414 240.828 72.5385 242.096 73.2223C243.364 73.9061 246.607 70.0751 246.763 70.114C246.918 70.1528 245.441 74.7764 246.281 75.9732C247.121 77.1699 248.567 75.4758 248.871 75.7867C249.174 76.0975 247.844 80.4492 248.505 81.0942C248.746 81.3107 249.033 81.4706 249.343 81.562C249.654 81.6534 249.982 81.6741 250.302 81.6226C250.302 81.6226 251.08 85.6245 254.191 85.508C257.302 85.3914 257.255 83.1767 255.233 78.421C254.611 76.9368 254.984 75.4059 256.119 75.3127C258.157 75.1495 262.077 77.6439 262.077 77.6439C262.077 77.6439 266.993 83.2933 269.793 82.9669C264.714 74.3102 259.262 65.2805 256.718 61.9857C250.582 54.0128 248.217 52.2955 241.824 53.6165C233.175 55.4038 224.472 70.2538 222.908 75.9343C221.345 81.6148 223.873 83.9538 225.918 83.5886C227.964 83.2234 230.01 81.1174 230.01 81.1174C232.252 79.1126 234.378 76.9826 236.38 74.7376Z" stroke="#502A73" stroke-width="0.56" stroke-linecap="round" stroke-linejoin="round"/>
<path d="M256.453 79.3765C256.117 78.6038 255.919 77.7778 255.87 76.9364C255.87 74.3099 257.589 72.1885 260.14 72.1885C262.691 72.1885 264.332 74.3798 264.908 76.9364C265.437 79.086 265.29 81.3463 264.488 83.4096C263.92 84.6762 263.033 85.4921 261.921 85.4921" fill="#BF792A"/>
<path d="M256.453 79.3765C256.117 78.6038 255.919 77.7778 255.87 76.9364C255.87 74.3099 257.589 72.1885 260.14 72.1885C262.691 72.1885 264.332 74.3798 264.908 76.9364C265.437 79.086 265.29 81.3463 264.488 83.4096C263.92 84.6762 263.033 85.4921 261.921 85.4921" stroke="#502A73" stroke-width="0.56" stroke-linecap="round" stroke-linejoin="round"/>
<path d="M258.274 85.2048C258.249 85.6691 258.117 86.1212 257.887 86.5257C257.658 86.9302 257.338 87.2761 256.952 87.5361C255.707 88.2355 253.701 87.5361 253.701 87.5361" stroke="#502A73" stroke-width="0.56" stroke-linecap="round" stroke-linejoin="round"/>
<path d="M259.176 87.5127C259.151 87.9771 259.019 88.4294 258.79 88.834C258.56 89.2386 258.24 89.5844 257.854 89.8439C256.609 90.5433 254.603 89.8439 254.603 89.8439" stroke="#502A73" stroke-width="0.56" stroke-linecap="round" stroke-linejoin="round"/>
<path d="M284.345 95.8821L270.469 109.706L280.775 121.883L294.775 103.536C294.775 103.536 286.033 97.3663 284.345 95.8821Z" fill="white" stroke="#502A73" stroke-width="0.56" stroke-linecap="round" stroke-linejoin="round"/>
<path d="M258.632 110.274L253.701 119.498C254.238 121.008 255.009 122.424 255.987 123.694C257.206 125.338 258.756 126.709 260.537 127.719L262.7 113.421L258.632 110.274Z" fill="white" stroke="#502A73" stroke-width="0.56" stroke-linecap="round" stroke-linejoin="round"/>
<path d="M258.64 78.6461C258.64 78.6461 258.025 75.8953 260.537 75.8953C262.163 75.8953 262.871 78.3198 261.968 79.5942C261.522 80.0675 260.926 80.3722 260.281 80.4567C260.527 80.5071 260.749 80.6388 260.911 80.8304C261.073 81.0221 261.166 81.2627 261.175 81.5136C261.175 82.5937 259.868 82.2906 259.868 82.2906" fill="#BF792A"/>
<path d="M258.64 78.6461C258.64 78.6461 258.025 75.8953 260.537 75.8953C262.163 75.8953 262.871 78.3198 261.968 79.5942C261.522 80.0675 260.926 80.3722 260.281 80.4567C260.527 80.5071 260.749 80.6388 260.911 80.8304C261.073 81.0221 261.166 81.2627 261.175 81.5136C261.175 82.5937 259.868 82.2906 259.868 82.2906" stroke="#502A73" stroke-width="0.56" stroke-linecap="round" stroke-linejoin="round"/>
<path d="M239.988 104.562C241.478 104.476 242.937 104.099 244.282 103.451C245.257 102.969 246.107 102.267 246.763 101.399" stroke="#502A73" stroke-width="0.56" stroke-linecap="round" stroke-linejoin="round"/>
<path d="M239.351 86.1283C239.973 85.6138 240.733 85.2927 241.536 85.2048" stroke="#502A73" stroke-width="1.11" stroke-linecap="round" stroke-linejoin="round"/>
<path d="M239.662 85.9665C239.633 86.5912 239.742 87.2145 239.981 87.7926C240.369 88.7484 240.898 89.067 241.318 88.8883C241.738 88.7096 241.909 88.1112 241.521 87.1399C241.304 86.551 240.955 86.0195 240.502 85.5857L239.662 85.9665Z" fill="#502A73"/>
<path d="M232.483 89.0269C233.105 88.5131 233.865 88.1944 234.668 88.1111" stroke="#502A73" stroke-width="1.11" stroke-linecap="round" stroke-linejoin="round"/>
<path d="M232.786 88.8651C232.76 89.4904 232.871 90.1138 233.113 90.6913C233.494 91.6471 234.023 91.9657 234.45 91.787C234.878 91.6082 235.034 91.0099 234.653 90.0385C234.431 89.4506 234.08 88.9196 233.626 88.4844L232.786 88.8651Z" fill="#502A73"/>
<path d="M235.788 84.1943C235.873 84.2589 235.97 84.3055 236.073 84.3312C236.176 84.3569 236.284 84.3611 236.389 84.3437C236.494 84.3262 236.594 84.2873 236.683 84.2295C236.773 84.1718 236.849 84.0963 236.908 84.0078C237.168 83.5438 237.517 83.1364 237.937 82.8094C238.356 82.4825 238.837 82.2426 239.35 82.1039C239.898 81.9579 240.464 81.8924 241.03 81.9097C241.146 81.9097 241.261 81.8807 241.362 81.8252C241.464 81.7697 241.55 81.6896 241.613 81.5921C241.676 81.4946 241.713 81.3829 241.721 81.2673C241.73 81.1518 241.709 81.0359 241.66 80.9305C241.621 80.8385 241.561 80.7565 241.486 80.6906C241.411 80.6247 241.321 80.5766 241.225 80.5498C240.115 80.1647 238.898 80.2347 237.839 80.7444C236.781 81.2542 235.968 82.1622 235.578 83.2696C235.506 83.4253 235.488 83.6004 235.526 83.7676C235.564 83.9349 235.656 84.0849 235.788 84.1943Z" fill="#502A73"/>
<path d="M249.251 99.0912C249.509 99.0622 249.757 98.9778 249.978 98.8436C250.2 98.7094 250.39 98.5287 250.535 98.3141C249.091 97.7562 247.61 97.3017 246.101 96.9542C245.23 96.9153 243.472 97.9411 240.952 99.4176C239.935 100.035 238.807 100.45 237.631 100.638C237.807 101.187 237.852 101.77 237.764 102.339C237.756 102.466 237.756 102.593 237.764 102.72C238.96 102.616 240.134 102.336 241.248 101.889C243.076 101.102 244.815 100.122 246.436 98.9669C247.371 99.0675 248.311 99.109 249.251 99.0912Z" fill="#502A73" stroke="#502A73" stroke-width="0.56" stroke-linecap="round" stroke-linejoin="round"/>
<path d="M249.251 99.0912C249.509 99.0622 249.757 98.9778 249.978 98.8436C250.2 98.7094 250.39 98.5287 250.535 98.3141C249.091 97.7562 247.61 97.3017 246.101 96.9542C245.23 96.9153 243.472 97.9411 240.952 99.4176C239.935 100.035 238.807 100.45 237.631 100.638C237.807 101.187 237.852 101.77 237.764 102.339C237.756 102.466 237.756 102.593 237.764 102.72C238.96 102.616 240.134 102.336 241.248 101.889C243.076 101.102 244.815 100.122 246.436 98.9669C247.371 99.0675 248.311 99.109 249.251 99.0912Z" stroke="#502A73" stroke-width="0.56" stroke-linecap="round" stroke-linejoin="round"/>
<path d="M232.078 83.907C231.729 83.9405 231.394 84.0636 231.106 84.2645L231.713 85.9663C231.853 85.8379 232.017 85.7377 232.195 85.671C232.611 85.5341 233.051 85.4865 233.486 85.5311C233.591 85.5364 233.697 85.5202 233.796 85.4835C233.894 85.4468 233.985 85.3904 234.061 85.3177C234.138 85.245 234.198 85.1576 234.24 85.0607C234.281 84.9638 234.303 84.8594 234.303 84.754C234.31 84.5816 234.26 84.4117 234.16 84.271C234.06 84.1303 233.916 84.0268 233.75 83.977C233.204 83.8381 232.634 83.8143 232.078 83.907Z" fill="#502A73"/>
<path d="M387.26 191.813C383.698 181.998 379.692 172.332 375.594 163.333C370.281 163.216 363.064 163.263 354.485 163.877C345.252 164.53 336.184 166.985 329.362 169.394C333.272 176.605 336.767 184.033 339.831 191.642L290.193 170.583C290.193 170.583 283.396 161.888 277.866 157.194C274.731 154.439 270.73 152.867 266.557 152.749L268.478 163.675C268.478 163.675 264.029 168.734 255.124 172.067C246.218 175.401 239.723 175.401 239.723 175.401L235.523 170.521C235.523 170.521 233.299 174.29 236.247 180.949C239.195 187.609 246.599 186.754 246.599 186.754C247.68 192.365 254.478 192.8 254.478 192.8C255.925 196.071 261.035 197.237 261.035 197.237C261.035 197.237 261.96 201.068 266.813 202.117C272.81 203.407 276.31 201.076 276.31 201.076C276.31 201.076 296.532 218.716 321.795 239.93C347.057 261.144 371.168 256.451 380.906 251.035C398.25 241.422 398.81 223.65 387.26 191.813Z" fill="#BF792A" stroke="#502A73" stroke-width="0.56" stroke-linecap="round" stroke-linejoin="round"/>
<path d="M301.635 187.049C302.503 189.73 302.972 192.524 303.027 195.341C303.027 202.995 301.635 206.616 301.635 206.616" stroke="#502A73" stroke-width="0.56" stroke-linecap="round" stroke-linejoin="round"/>
<path d="M319.267 197.913C320.731 200.313 321.835 202.916 322.542 205.637C324.315 213.066 323.794 216.928 323.794 216.928" stroke="#502A73" stroke-width="0.56" stroke-linecap="round" stroke-linejoin="round"/>
<path d="M334.076 200.205C334.076 200.205 335.694 204.192 335.686 212.374C335.686 217.48 334.076 226.525 334.076 226.525" stroke="#502A73" stroke-width="0.56" stroke-linecap="round" stroke-linejoin="round"/>
<path d="M343.06 206.453C343.06 206.453 345.79 210.074 348.193 218.304C349.598 222.842 350.409 227.544 350.604 232.291" stroke="#502A73" stroke-width="0.56" stroke-linecap="round" stroke-linejoin="round"/>
<path d="M367.046 203.182L290.217 170.583" stroke="#502A73" stroke-width="0.56" stroke-linecap="round" stroke-linejoin="round"/>
<path d="M262.847 181.447C262.847 181.447 257.636 185.472 246.607 186.754Z" fill="#BF792A"/>
<path d="M262.847 181.447C262.847 181.447 257.636 185.472 246.607 186.754" stroke="#502A73" stroke-width="0.56" stroke-linecap="round" stroke-linejoin="round"/>
<path d="M266.775 188.681C266.775 188.681 262.886 192.636 254.486 192.8Z" fill="#BF792A"/>
<path d="M266.775 188.681C266.775 188.681 262.886 192.636 254.486 192.8" stroke="#502A73" stroke-width="0.56" stroke-linecap="round" stroke-linejoin="round"/>
<path d="M271.511 195.76C271.511 195.76 267.825 198.473 261.042 197.237Z" fill="#BF792A"/>
<path d="M271.511 195.76C271.511 195.76 267.825 198.473 261.042 197.237" stroke="#502A73" stroke-width="0.56" stroke-linecap="round" stroke-linejoin="round"/>
<path d="M249.047 157.439C259.188 152.642 266.373 146.567 265.095 143.871C263.817 141.175 254.561 142.879 244.42 147.677C234.28 152.475 227.095 158.55 228.373 161.245C229.651 163.941 238.907 162.237 249.047 157.439Z" fill="#502A73" stroke="#502A73" stroke-width="0.56" stroke-linecap="round" stroke-linejoin="round"/>
<path d="M249.047 157.439C259.188 152.642 266.373 146.567 265.095 143.871C263.817 141.175 254.561 142.879 244.42 147.677C234.28 152.475 227.095 158.55 228.373 161.245C229.651 163.941 238.907 162.237 249.047 157.439Z" stroke="#502A73" stroke-width="0.56" stroke-linecap="round" stroke-linejoin="round"/>
<path d="M130.928 109.419C130.617 105.829 126.596 103.979 129.769 102.464C133.534 100.638 146.663 96.8535 151.547 95.8822C163.642 93.4655 165.508 96.3873 167.593 102.666C170.268 110.717 172.259 122.093 175.456 139.966C178.653 157.839 181.429 171.873 180.589 176.139C179.625 181.035 166.146 184.369 157.489 186.832C148.833 189.295 147.806 187.423 144.438 183.312C140.549 178.587 135.058 142.639 133.425 130.89C132.079 121.736 131.341 114.198 130.928 109.419Z" fill="#008056" stroke="#502A73" stroke-width="0.56" stroke-linecap="round" stroke-linejoin="round"/>
<path d="M123.228 111.393C123.066 109.655 123.433 107.909 124.281 106.384C125.129 104.859 126.419 103.625 127.981 102.845C131.745 101.011 138.963 98.8271 143.808 97.8558C155.903 95.4468 158.034 97.8557 159.854 104.236C161.55 110.18 164.521 124.067 167.717 141.979C170.914 159.89 173.652 173.878 172.851 178.152C172.05 182.426 166.107 184.368 157.451 186.871C148.794 189.373 141.327 190.243 137.952 186.094C133.472 180.654 129.07 149.812 126.822 133.687C125.538 124.533 123.641 116.172 123.228 111.393Z" fill="#008056" stroke="#502A73" stroke-width="0.56" stroke-linecap="round" stroke-linejoin="round"/>
<path d="M148.257 107.95C144.111 107.624 142.33 109.932 142.097 110.281C141.755 110.071 139.281 108.673 135.579 110.693C132.025 112.628 131.574 116.342 132.569 117.928C133.09 118.767 133.767 117.648 134.996 116.335C136.738 114.477 138.161 115.06 138.161 115.06C138.161 115.06 135.253 116.614 134.475 118.751C133.697 120.888 135.665 123.367 136.66 121.541C138.294 118.511 139.6 118.207 139.6 118.207C138.902 119.069 138.398 120.071 138.123 121.145C137.765 122.761 138.543 124.253 139.678 124.028C140.339 123.911 142.268 118.005 142.494 121.362C142.643 124.772 143.143 128.157 143.987 131.465C144.058 131.928 144.304 132.347 144.674 132.636C145.044 132.925 145.511 133.062 145.978 133.019L146.756 132.855C147.201 132.7 147.576 132.391 147.813 131.983C148.05 131.575 148.133 131.096 148.047 130.633C147.645 127.254 146.894 123.926 145.807 120.702C144.811 117.508 148.708 122.171 149.361 122C150.443 121.728 150.637 120.057 149.727 118.713C149.091 117.839 148.263 117.121 147.308 116.614C147.308 116.614 148.623 116.35 151.197 118.472C152.753 119.754 153.701 116.653 152.216 114.998C150.73 113.343 147.479 113.11 147.479 113.11C147.479 113.11 148.591 111.991 150.863 112.985C152.473 113.685 153.491 114.439 153.678 113.452C153.981 111.509 152.231 108.269 148.257 107.95Z" fill="#4BBEA5" stroke="#502A73" stroke-width="0.56" stroke-linecap="round" stroke-linejoin="round"/>
<path d="M173.612 141.248L170.027 122.683C169.987 122.461 169.903 122.249 169.78 122.059C169.657 121.869 169.498 121.705 169.311 121.577C169.124 121.449 168.914 121.36 168.693 121.313C168.471 121.267 168.242 121.265 168.02 121.308C167.57 121.405 167.176 121.676 166.924 122.061C166.672 122.447 166.582 122.916 166.675 123.367L170.26 141.924C170.299 142.148 170.383 142.362 170.506 142.553C170.629 142.745 170.789 142.91 170.977 143.038C171.164 143.167 171.376 143.257 171.598 143.304C171.821 143.35 172.051 143.351 172.275 143.307C172.725 143.21 173.118 142.939 173.369 142.553C173.619 142.168 173.707 141.698 173.612 141.248Z" fill="#502A73" stroke="#502A73" stroke-width="0.56" stroke-linecap="round" stroke-linejoin="round"/>
<path d="M167.414 118.184C167.865 118.089 168.26 117.819 168.513 117.433C168.765 117.047 168.854 116.576 168.759 116.125L167.857 111.587C167.816 111.364 167.731 111.152 167.607 110.962C167.484 110.772 167.324 110.608 167.136 110.48C166.949 110.352 166.738 110.263 166.516 110.217C166.294 110.17 166.065 110.169 165.843 110.211C165.393 110.31 165 110.581 164.749 110.967C164.497 111.352 164.407 111.82 164.497 112.271L165.376 116.809C165.415 117.035 165.499 117.251 165.624 117.444C165.748 117.637 165.911 117.802 166.101 117.931C166.291 118.059 166.506 118.148 166.731 118.192C166.957 118.235 167.189 118.233 167.414 118.184Z" fill="#502A73" stroke="#502A73" stroke-width="0.56" stroke-linecap="round" stroke-linejoin="round"/>
<path d="M173.612 141.248L170.027 122.683C169.987 122.461 169.903 122.249 169.78 122.059C169.657 121.869 169.498 121.705 169.311 121.577C169.124 121.449 168.914 121.36 168.693 121.313C168.471 121.267 168.242 121.265 168.02 121.308C167.57 121.405 167.176 121.676 166.924 122.061C166.672 122.447 166.582 122.916 166.675 123.367L170.26 141.924C170.299 142.148 170.383 142.362 170.506 142.553C170.629 142.745 170.789 142.91 170.977 143.038C171.164 143.167 171.376 143.257 171.598 143.304C171.821 143.35 172.051 143.351 172.275 143.307C172.725 143.21 173.118 142.939 173.369 142.553C173.619 142.168 173.707 141.698 173.612 141.248Z" stroke="#502A73" stroke-width="0.56" stroke-linecap="round" stroke-linejoin="round"/>
<path d="M167.414 118.184C167.865 118.089 168.26 117.819 168.513 117.433C168.765 117.047 168.854 116.576 168.759 116.125L167.857 111.587C167.816 111.364 167.731 111.152 167.607 110.962C167.484 110.772 167.324 110.608 167.136 110.48C166.949 110.352 166.738 110.263 166.516 110.217C166.294 110.17 166.065 110.169 165.843 110.211C165.393 110.31 165 110.581 164.749 110.967C164.497 111.352 164.407 111.82 164.497 112.271L165.376 116.809C165.415 117.035 165.499 117.251 165.624 117.444C165.748 117.637 165.911 117.802 166.101 117.931C166.291 118.059 166.506 118.148 166.731 118.192C166.957 118.235 167.189 118.233 167.414 118.184Z" stroke="#502A73" stroke-width="0.56" stroke-linecap="round" stroke-linejoin="round"/>
<path d="M162.358 176.224L147.059 180.506C146.732 180.589 146.384 180.539 146.093 180.367C145.802 180.196 145.59 179.916 145.504 179.589C145.416 179.257 145.461 178.905 145.627 178.605C145.794 178.305 146.07 178.081 146.398 177.98L161.697 173.699C162.025 173.616 162.372 173.666 162.664 173.838C162.955 174.009 163.167 174.289 163.253 174.616C163.34 174.947 163.296 175.3 163.129 175.6C162.963 175.9 162.686 176.123 162.358 176.224Z" fill="#4BBEA5" stroke="#502A73" stroke-width="0.56" stroke-linecap="round" stroke-linejoin="round"/>
<path d="M158.773 142.771C159.284 140.981 159.406 139.103 159.13 137.262C158.952 136.066 158.407 134.954 157.572 134.079C156.737 133.205 155.651 132.609 154.464 132.374C154.892 130.229 154.884 128.535 153.484 126.818C151.042 123.818 146.375 123.88 139.484 126.818C133.176 129.475 116.034 136.726 118.927 151.366C120.56 159.65 122.59 166.286 125.39 171.733C128.906 178.556 135.214 177.289 137.773 176.489C139.008 175.788 140.032 174.768 140.736 173.536C143.139 168.804 146.375 158.701 149.4 157.217C152.205 155.758 155.121 154.521 158.119 153.518C161.277 151.568 160.671 145.95 158.633 143.105C158.578 142.958 158.734 142.872 158.773 142.771Z" fill="#BF792A" stroke="#502A73" stroke-width="0.56" stroke-linecap="round" stroke-linejoin="round"/>
<path d="M134.265 154.373C134.265 154.373 145.449 143.844 158.656 143.067C159.269 141.196 159.432 139.207 159.13 137.262C158.952 136.066 158.407 134.955 157.572 134.08C156.737 133.205 155.651 132.609 154.464 132.374C138.403 135.172 131.589 144.186 131.589 144.186" fill="#BF792A"/>
<path d="M134.265 154.373C134.265 154.373 145.449 143.844 158.656 143.067C159.269 141.196 159.432 139.207 159.13 137.262C158.952 136.066 158.407 134.955 157.572 134.08C156.737 133.205 155.651 132.609 154.464 132.374C138.403 135.172 131.589 144.186 131.589 144.186" stroke="#502A73" stroke-width="0.56" stroke-linecap="round" stroke-linejoin="round"/>
<path d="M137.392 164.359L139.157 163.053C142.438 160.695 145.867 158.551 149.424 156.634C153.219 154.762 155.288 154.42 158.143 153.479C160.251 153.122 164.699 163.628 154.627 166.449C149.058 168.003 140.021 175.774 137.796 176.458" fill="#BF792A"/>
<path d="M137.392 164.359L139.157 163.053C142.438 160.695 145.867 158.551 149.424 156.634C153.219 154.762 155.288 154.42 158.143 153.479C160.251 153.122 164.699 163.628 154.627 166.449C149.058 168.003 140.021 175.774 137.796 176.458" stroke="#502A73" stroke-width="0.56" stroke-linecap="round" stroke-linejoin="round"/>
<path d="M343.821 244.717H439.488C460.418 244.717 477.389 263.942 477.389 287.658C477.389 311.375 460.418 330.6 439.488 330.6H343.821V244.717Z" fill="#A9D054" stroke="#502A73" stroke-width="0.56" stroke-linecap="round" stroke-linejoin="round"/>
<path d="M409.225 273.935C405.009 272.598 403.78 274.712 403.664 275.023C403.275 274.704 400.459 272.598 397.286 273.935C394.245 275.209 394.4 279.375 395.38 281.48C395.902 282.607 396.532 281.481 397.62 280.214C399.176 278.465 400.56 279.507 400.56 279.507C400.56 279.507 397.947 280.587 397.177 282.957C396.407 285.327 397.838 288.855 398.989 286.889C400.887 283.641 401.992 283.625 401.992 283.625C401.275 284.568 400.739 285.635 400.413 286.772C399.868 288.645 400.21 290.658 401.19 290.658C401.813 290.658 404.644 284.014 404.302 288.156C403.891 292.32 403.11 296.439 401.968 300.465C401.649 301.716 401.968 302.617 402.746 302.617H403.446C404.224 302.617 405.266 301.716 405.779 300.465C407.297 296.55 407.847 292.328 407.382 288.156C407.032 284.014 409.668 290.689 410.298 290.658C411.325 290.603 411.9 288.63 411.239 286.772C410.796 285.582 410.098 284.503 409.194 283.61C409.194 283.61 410.555 283.61 412.639 286.873C413.899 288.839 415.214 285.319 413.845 282.941C412.476 280.563 409.295 279.491 409.295 279.491C409.295 279.491 410.298 278.45 412.523 280.198C414.078 281.426 415.074 282.592 415.222 281.465C415.494 279.336 413.269 275.209 409.225 273.935Z" fill="#4BBEA5" stroke="#502A73" stroke-width="0.56" stroke-linecap="round" stroke-linejoin="round"/>
<path d="M433.569 273.935C429.354 272.598 428.172 274.712 428.008 275.023C427.627 274.704 424.811 272.598 421.638 273.935C418.589 275.209 418.753 279.375 419.733 281.48C420.246 282.607 420.876 281.481 421.973 280.214C423.528 278.465 424.913 279.507 424.913 279.507C424.913 279.507 422.299 280.587 421.529 282.957C420.759 285.327 422.19 288.855 423.334 286.889C425.239 283.641 426.336 283.625 426.336 283.625C425.61 284.572 425.064 285.644 424.726 286.788C424.189 288.661 424.524 290.673 425.55 290.673C426.165 290.673 429.004 284.029 428.662 288.171C428.243 292.334 427.463 296.453 426.328 300.48C426.009 301.731 426.328 302.633 427.106 302.633H427.814C428.592 302.633 429.634 301.731 430.147 300.48C431.669 296.567 432.218 292.343 431.749 288.171C431.399 284.029 434.083 290.704 434.666 290.673C435.693 290.619 436.268 288.645 435.615 286.788C435.167 285.598 434.466 284.519 433.562 283.625C433.562 283.625 434.923 283.625 437.007 286.889C438.267 288.855 439.582 285.335 438.22 282.957C436.859 280.579 433.67 279.507 433.67 279.507C433.67 279.507 434.666 278.465 436.898 280.214C438.454 281.442 439.442 282.607 439.589 281.48C439.846 279.336 437.614 275.209 433.569 273.935Z" fill="#4BBEA5" stroke="#502A73" stroke-width="0.56" stroke-linecap="round" stroke-linejoin="round"/>
<path d="M457.922 273.935C453.706 272.598 452.477 274.712 452.361 275.023C451.972 274.704 449.156 272.598 445.983 273.935C442.942 275.209 443.097 279.375 444.077 281.48C444.591 282.607 445.228 281.481 446.317 280.214C447.873 278.465 449.257 279.507 449.257 279.507C449.257 279.507 446.644 280.587 445.874 282.957C445.104 285.327 446.535 288.855 447.686 286.889C449.584 283.641 450.688 283.625 450.688 283.625C449.959 284.57 449.413 285.643 449.078 286.788C448.534 288.661 448.876 290.673 449.856 290.673C450.478 290.673 453.309 284.029 452.967 288.171C452.557 292.335 451.776 296.455 450.634 300.48C450.315 301.731 450.634 302.633 451.412 302.633H452.112C452.889 302.633 453.932 301.731 454.445 300.48C455.97 296.568 456.522 292.344 456.055 288.171C455.705 284.029 458.342 290.704 458.972 290.673C459.998 290.619 460.566 288.645 459.913 286.788C459.469 285.598 458.771 284.518 457.867 283.625C457.867 283.625 459.228 283.625 461.313 286.889C462.573 288.855 463.887 285.335 462.518 282.957C461.149 280.579 457.968 279.507 457.968 279.507C457.968 279.507 458.972 278.465 461.196 280.214C462.752 281.442 463.747 282.607 463.895 281.48C464.191 279.336 461.966 275.209 457.922 273.935Z" fill="#4BBEA5" stroke="#502A73" stroke-width="0.56" stroke-linecap="round" stroke-linejoin="round"/>
<path d="M343.822 330.6C364.754 330.6 381.723 311.374 381.723 287.658C381.723 263.942 364.754 244.717 343.822 244.717C322.889 244.717 305.92 263.942 305.92 287.658C305.92 311.374 322.889 330.6 343.822 330.6Z" fill="#A9D054" stroke="#502A73" stroke-width="0.56" stroke-linecap="round" stroke-linejoin="round"/>
<path d="M343.821 319.682C359.217 319.682 371.697 305.344 371.697 287.658C371.697 269.972 359.217 255.635 343.821 255.635C328.426 255.635 315.946 269.972 315.946 287.658C315.946 305.344 328.426 319.682 343.821 319.682Z" fill="#A9D054" stroke="#502A73" stroke-width="0.56" stroke-linecap="round" stroke-linejoin="round"/>
<path d="M350.604 325.207H337.047L339.979 293.417H347.664L350.604 325.207Z" fill="#4BBEA5" stroke="#502A73" stroke-width="0.56" stroke-linecap="round" stroke-linejoin="round"/>
<path d="M347.951 325.207H339.691L341.48 293.417H346.163L347.951 325.207Z" fill="#4BBEA5" stroke="#502A73" stroke-width="0.56" stroke-linecap="round" stroke-linejoin="round"/>
<path d="M345.385 325.207H342.258L342.935 293.417H344.708L345.385 325.207Z" fill="#4BBEA5" stroke="#502A73" stroke-width="0.56" stroke-linecap="round" stroke-linejoin="round"/>
<path d="M343.822 296.253C348.014 296.253 351.413 292.405 351.413 287.659C351.413 282.912 348.014 279.064 343.822 279.064C339.629 279.064 336.23 282.912 336.23 287.659C336.23 292.405 339.629 296.253 343.822 296.253Z" fill="#4BBEA5" stroke="#502A73" stroke-width="0.56" stroke-linecap="round" stroke-linejoin="round"/>
<path d="M72.6182 269.677C72.6182 269.677 71.0004 251.33 78.0626 246.52C83.8415 242.58 95.2904 242.891 99.1249 249.69C105.176 260.422 80.2327 278.683 80.2327 278.683L72.6182 269.677Z" fill="#4BBEA5" stroke="#502A73" stroke-width="0.56" stroke-linecap="round" stroke-linejoin="round"/>
<path d="M94.9092 252.169C93.5636 249.775 90.0792 248.928 87.2714 248.928C82.5057 248.967 77.8586 250.417 73.9169 253.093C71.7858 260.211 72.618 269.676 72.618 269.676L74.9514 272.466C75.3247 272.699 75.5503 272.932 75.558 273.189L80.8469 271.891C83.5389 269.66 86.0873 267.262 88.4769 264.711C92.3581 260.53 96.3558 254.733 94.9092 252.169Z" fill="#4BBEA5" stroke="#502A73" stroke-width="0.56" stroke-linecap="round" stroke-linejoin="round"/>
<path d="M112.674 319.682C118.46 310.458 115.855 303.363 109.912 301.358C101.357 298.499 96.3947 294.194 90.5458 287.076C85.4125 280.859 89.5814 276.663 78.0314 269.583C69.258 264.206 39.9202 242.152 20.888 242.152C17.3436 242.157 13.8172 242.656 10.4113 243.637C2.11246 245.968 -0.415326 252.892 1.75467 263.141C3.92467 273.391 19.7991 297.147 32.4769 313.994C45.1547 330.841 58.2991 348.512 65.5247 351.775C72.7502 355.039 83.5691 350.509 90.5458 345.45C101.512 337.5 108.746 325.914 112.674 319.682Z" fill="#4BBEA5" stroke="#502A73" stroke-width="0.56" stroke-linecap="round" stroke-linejoin="round"/>
<path d="M90.5459 334.462L84.6348 349.079C86.7035 348.024 88.6875 346.811 90.5692 345.45C101.536 337.5 108.785 325.914 112.697 319.682C118.274 310.8 116.057 303.884 110.581 301.607C105.014 305.258 100.329 310.1 96.8638 315.782C93.3988 321.464 91.2408 327.845 90.5459 334.462Z" fill="#4BBEA5" stroke="#502A73" stroke-width="0.56" stroke-linecap="round" stroke-linejoin="round"/>
<path d="M62.079 305.912C54.939 299.579 58.4468 293.082 54.9157 282.724C50.5991 270.05 39.1968 270.625 29.7313 264.369C20.2657 258.114 22.8324 248.905 22.8324 248.905L26.3635 242.766C24.5584 242.378 22.7188 242.172 20.8724 242.152C17.328 242.157 13.8016 242.656 10.3957 243.637C2.09683 245.968 -0.430951 252.892 1.73905 263.141C3.90905 273.391 19.7835 297.147 32.4613 313.994C45.139 330.841 58.2835 348.512 65.5091 351.775C72.7346 355.039 83.5535 350.509 90.5302 345.45L91.5335 344.673C97.1102 338.713 97.4291 328.564 90.4213 321.252C81.1735 311.639 70.129 313.038 62.079 305.912Z" fill="#008056" stroke="#502A73" stroke-width="0.56" stroke-linecap="round" stroke-linejoin="round"/>
<path d="M10.4117 243.636C7.51006 244.336 4.9567 246.054 3.21729 248.478L8.2495 253.14C13.4488 253.318 18.5673 251.819 22.8484 248.866C23.8622 248.192 24.6792 247.262 25.2161 246.17C25.7531 245.078 25.9908 243.863 25.9051 242.65C24.2527 242.32 22.5732 242.146 20.8884 242.129C17.3429 242.141 13.8165 242.648 10.4117 243.636Z" fill="#008056" stroke="#502A73" stroke-width="0.56" stroke-linecap="round" stroke-linejoin="round"/>
<path d="M78.0314 333.475C71.6537 325.456 53.3681 310.404 44.7037 299.665C36.0392 288.925 21.3703 256.226 12.457 250.297C6.55366 246.364 3.97921 247.647 2.91365 248.96C0.82143 252.418 0.502549 257.22 1.75477 263.142C3.91699 273.384 19.7992 297.147 32.477 313.994C45.1548 330.841 58.2992 348.512 65.5248 351.776C66.4199 352.173 67.3601 352.46 68.3248 352.631C68.7914 352.708 69.2503 352.763 69.6937 352.809H69.7637H70.0203C72.2094 352.912 74.4015 352.684 76.5226 352.133C77.9206 351.813 79.1909 351.082 80.1703 350.035C83.7948 346.064 82.2081 338.729 78.0314 333.475Z" fill="#502A73" stroke="#502A73" stroke-width="0.56" stroke-linecap="round" stroke-linejoin="round"/>
<path d="M78.0314 333.475C71.6537 325.456 53.3681 310.404 44.7037 299.665C36.0392 288.925 21.3703 256.226 12.457 250.297C6.55366 246.364 3.97921 247.647 2.91365 248.96C0.82143 252.418 0.502549 257.22 1.75477 263.142C3.91699 273.384 19.7992 297.147 32.477 313.994C45.1548 330.841 58.2992 348.512 65.5248 351.776C66.4199 352.173 67.3601 352.46 68.3248 352.631C68.7914 352.708 69.2503 352.763 69.6937 352.809H69.7637H70.0203C72.2094 352.912 74.4015 352.684 76.5226 352.133C77.9206 351.813 79.1909 351.082 80.1703 350.035C83.7948 346.064 82.2081 338.729 78.0314 333.475Z" stroke="#502A73" stroke-width="0.56" stroke-linecap="round" stroke-linejoin="round"/>
<path d="M76.5928 295.965C76.5928 295.965 86.455 299.074 92.2339 301.358L98.005 303.612H76.5928V295.965Z" fill="#008056" stroke="#502A73" stroke-width="0.56" stroke-linecap="round" stroke-linejoin="round"/>
<path d="M179.345 304.475C179.345 304.475 167.196 285.265 172.003 276.057C176.809 266.848 182.23 268.286 196.674 268.286C209.896 268.286 214.236 277.844 212.556 287.627C210.876 297.411 201.48 310.987 201.48 310.987L153.359 356.524L143.606 349.53L179.345 304.475Z" fill="#4BBEA5" stroke="#502A73" stroke-width="0.56" stroke-linecap="round" stroke-linejoin="round"/>
<path d="M200.469 306.363H175.969" stroke="#502A73" stroke-width="0.56" stroke-linecap="round" stroke-linejoin="round"/>
<path d="M169.833 314.312H194.34" stroke="#502A73" stroke-width="0.56" stroke-linecap="round" stroke-linejoin="round"/>
<path d="M163.704 322.27H188.204" stroke="#502A73" stroke-width="0.56" stroke-linecap="round" stroke-linejoin="round"/>
<path d="M157.567 330.219H182.075" stroke="#502A73" stroke-width="0.56" stroke-linecap="round" stroke-linejoin="round"/>
<path d="M151.438 338.169H175.946" stroke="#502A73" stroke-width="0.56" stroke-linecap="round" stroke-linejoin="round"/>
<path d="M197.825 307.754C200.454 303.869 206.614 293.681 207.796 286.773C208.496 282.693 207.796 279.002 205.921 276.671C204.047 274.339 200.936 273.213 196.674 273.213C194.745 273.213 192.948 273.213 191.369 273.166C190.024 273.166 188.779 273.166 187.613 273.166C180.193 273.166 178.606 273.896 176.265 278.372C173.924 282.848 178.124 294.108 182.394 300.908" fill="#4BBEA5"/>
<path d="M197.825 307.754C200.454 303.869 206.614 293.681 207.796 286.773C208.496 282.693 207.796 279.002 205.921 276.671C204.047 274.339 200.936 273.213 196.674 273.213C194.745 273.213 192.948 273.213 191.369 273.166C190.024 273.166 188.779 273.166 187.613 273.166C180.193 273.166 178.606 273.896 176.265 278.372C173.924 282.848 178.124 294.108 182.394 300.908" stroke="#502A73" stroke-width="0.56" stroke-linecap="round" stroke-linejoin="round"/>
<path d="M179.586 299.291C174.453 299.128 164.808 310.605 150.769 327.064C136.73 343.523 125.359 354.542 121.354 363.424C117.348 372.306 121.354 378.15 130.975 382.346C140.596 386.542 159.854 385.454 191.455 367.869C223.056 350.283 233.649 341.215 236.379 337.757C239.109 334.299 244.118 328.051 238.16 317.685C236.97 315.602 235.049 311.911 235.049 311.911L226.494 310.357C220.896 309.314 215.798 306.457 211.988 302.229C209.818 299.897 206.8 297.885 202.997 298.568C197.747 299.517 190.879 306.534 182.308 316.177C178.606 320.335 162.086 340.189 158.306 344.766C158.086 345.034 157.78 345.218 157.439 345.286C157.099 345.354 156.746 345.302 156.439 345.139C156.235 345.037 156.055 344.891 155.913 344.712C155.771 344.532 155.671 344.324 155.619 344.101C155.567 343.879 155.564 343.647 155.612 343.424C155.66 343.2 155.756 342.99 155.895 342.808C158.485 339.093 165.493 329.201 171.077 322.604C188.974 301.358 181.507 299.353 179.586 299.291Z" fill="#4BBEA5" stroke="#502A73" stroke-width="0.56" stroke-linecap="round" stroke-linejoin="round"/>
<path d="M238.16 317.685C236.97 315.603 235.049 311.911 235.049 311.911L227.178 310.497C229.386 316.228 232.864 321.385 237.352 325.58L240.82 328.906C241.256 325.86 240.727 322.153 238.16 317.685Z" fill="#4BBEA5" stroke="#502A73" stroke-width="0.56" stroke-linecap="round" stroke-linejoin="round"/>
<path d="M234.132 319.495C224.503 317.848 221.057 322.456 217.682 327.391C214.306 332.325 212.968 347.463 202.686 351.27C192.404 355.078 187.908 346.662 177.797 347.812C167.686 348.962 161.277 366.571 155.18 373.65C149.082 380.73 134.483 375.127 134.483 375.127L135.727 383.815C146.391 385.913 164.381 382.96 191.432 367.892C223.041 350.283 233.626 341.238 236.356 337.78C238.347 335.255 241.552 331.237 240.821 325.215C240.074 322.627 238.238 320.187 234.132 319.495Z" fill="#008056" stroke="#502A73" stroke-width="0.56" stroke-linecap="round" stroke-linejoin="round"/>
<path d="M126.961 367.372C125.42 367.368 123.921 367.872 122.696 368.807C121.471 369.741 120.589 371.053 120.187 372.539C121.346 376.627 125.118 379.79 130.975 382.346C134.249 383.776 138.651 384.592 144.267 384.351C141.498 376.192 135.517 366.944 126.961 367.372Z" fill="#008056" stroke="#502A73" stroke-width="0.56" stroke-linecap="round" stroke-linejoin="round"/>
<path d="M219.066 310.264L215.76 312.362C210.51 315.696 202.087 321.827 202.087 321.827L208.014 326.489L219.968 310.435L219.066 310.264Z" fill="#008056" stroke="#502A73" stroke-width="0.56" stroke-linecap="round" stroke-linejoin="round"/>
<path d="M304.411 180.825C307.831 180.825 310.602 177.979 310.602 174.468C310.602 170.958 307.831 168.112 304.411 168.112C300.992 168.112 298.22 170.958 298.22 174.468C298.22 177.979 300.992 180.825 304.411 180.825Z" fill="#EEC718" stroke="#502A73" stroke-width="0.56" stroke-linecap="round" stroke-linejoin="round"/>
<path d="M310.789 191.114C314.209 191.114 316.98 188.268 316.98 184.757C316.98 181.246 314.209 178.4 310.789 178.4C307.37 178.4 304.598 181.246 304.598 184.757C304.598 188.268 307.37 191.114 310.789 191.114Z" fill="#EEC718" stroke="#502A73" stroke-width="0.56" stroke-linecap="round" stroke-linejoin="round"/>
<path d="M313.457 202.63C316.876 202.63 319.648 199.784 319.648 196.273C319.648 192.762 316.876 189.917 313.457 189.917C310.038 189.917 307.266 192.762 307.266 196.273C307.266 199.784 310.038 202.63 313.457 202.63Z" fill="#EEC718" stroke="#502A73" stroke-width="0.56" stroke-linecap="round" stroke-linejoin="round"/>
<path d="M314.772 214.434C318.191 214.434 320.963 211.588 320.963 208.077C320.963 204.566 318.191 201.72 314.772 201.72C311.352 201.72 308.581 204.566 308.581 208.077C308.581 211.588 311.352 214.434 314.772 214.434Z" fill="#EEC718" stroke="#502A73" stroke-width="0.56" stroke-linecap="round" stroke-linejoin="round"/>
<path d="M314.173 225.725C317.592 225.725 320.364 222.879 320.364 219.368C320.364 215.858 317.592 213.012 314.173 213.012C310.753 213.012 307.981 215.858 307.981 219.368C307.981 222.879 310.753 225.725 314.173 225.725Z" fill="#EEC718" stroke="#502A73" stroke-width="0.56" stroke-linecap="round" stroke-linejoin="round"/>
<path d="M313.457 236.892C316.876 236.892 319.648 234.046 319.648 230.535C319.648 227.025 316.876 224.179 313.457 224.179C310.038 224.179 307.266 227.025 307.266 230.535C307.266 234.046 310.038 236.892 313.457 236.892Z" fill="#EEC718" stroke="#502A73" stroke-width="0.56" stroke-linecap="round" stroke-linejoin="round"/>
<path d="M299.302 300.325H291.524C289.424 289.64 290.801 280.221 293.204 269.715H297.598C299.994 280.221 301.371 289.64 299.302 300.325Z" fill="#EEC718" stroke="#502A73" stroke-width="0.56" stroke-linecap="round" stroke-linejoin="round"/>
<path d="M297.948 300.325H292.846C291.104 290.222 292.309 279.763 293.95 269.715H296.844C298.477 279.779 299.69 290.199 297.948 300.325Z" fill="#EEC718" stroke="#502A73" stroke-width="0.56" stroke-linecap="round" stroke-linejoin="round"/>
<path d="M296.385 300.325H294.41C293.733 290.137 294.192 279.895 294.837 269.715H295.957C296.595 279.895 297.062 290.137 296.385 300.325Z" fill="#EEC718" stroke="#502A73" stroke-width="0.56" stroke-linecap="round" stroke-linejoin="round"/>
<path d="M300.538 271.728C300.251 271.282 300.098 270.763 300.098 270.232C300.098 269.702 300.251 269.183 300.538 268.736C301.279 267.603 301.643 266.265 301.58 264.913C301.644 264.048 301.527 263.179 301.235 262.363C300.943 261.546 300.483 260.799 299.885 260.17C299.287 259.542 298.564 259.045 297.762 258.712C296.961 258.379 296.098 258.218 295.23 258.238C294.363 258.258 293.509 258.46 292.723 258.829C291.938 259.199 291.239 259.729 290.671 260.384C290.102 261.04 289.678 261.807 289.424 262.637C289.171 263.466 289.094 264.34 289.198 265.201C289.196 266.463 289.566 267.699 290.264 268.752C290.553 269.186 290.707 269.695 290.707 270.217C290.707 270.738 290.553 271.248 290.264 271.681L290.085 271.961C289.876 272.313 289.763 272.715 289.758 273.124C289.754 273.534 289.857 273.937 290.058 274.294C290.259 274.651 290.551 274.948 290.904 275.157C291.257 275.365 291.658 275.477 292.068 275.481L298.695 275.326C299.099 275.304 299.49 275.177 299.83 274.959C300.17 274.74 300.448 274.437 300.635 274.079C300.822 273.721 300.914 273.32 300.899 272.916C300.885 272.512 300.766 272.119 300.554 271.775L300.538 271.728Z" fill="#EEC718" stroke="#502A73" stroke-width="0.56" stroke-linecap="round" stroke-linejoin="round"/>
<path d="M310.626 246.527C314.045 246.527 316.817 243.681 316.817 240.171C316.817 236.66 314.045 233.814 310.626 233.814C307.207 233.814 304.435 236.66 304.435 240.171C304.435 243.681 307.207 246.527 310.626 246.527Z" fill="#EEC718" stroke="#502A73" stroke-width="0.56" stroke-linecap="round" stroke-linejoin="round"/>
<path d="M307.258 256.412C310.678 256.412 313.45 253.566 313.45 250.055C313.45 246.545 310.678 243.699 307.258 243.699C303.839 243.699 301.067 246.545 301.067 250.055C301.067 253.566 303.839 256.412 307.258 256.412Z" fill="#EEC718" stroke="#502A73" stroke-width="0.56" stroke-linecap="round" stroke-linejoin="round"/>
<path d="M302.724 264.369C306.143 264.369 308.915 261.523 308.915 258.012C308.915 254.502 306.143 251.656 302.724 251.656C299.305 251.656 296.533 254.502 296.533 258.012C296.533 261.523 299.305 264.369 302.724 264.369Z" fill="#EEC718" stroke="#502A73" stroke-width="0.56" stroke-linecap="round" stroke-linejoin="round"/>
</svg>
