<svg width="355" height="388" viewBox="0 0 355 388" fill="none" xmlns="http://www.w3.org/2000/svg">
<path d="M50.5186 205.479L160.994 325.559L354.07 139.074L296.973 6.45801L160.994 24.1604L50.5186 205.479Z" fill="#A9D054" stroke="#502A73" stroke-width="0.48" stroke-linecap="round" stroke-linejoin="round"/>
<path d="M160.994 325.559L335.403 157.103C294.243 86.4804 233.429 151.166 233.429 151.166C233.429 151.166 243.501 202.748 233.429 215.143C223.356 227.539 225.052 234.892 203.764 230.301C182.476 225.71 163.802 173.498 116.894 172.276C93.0165 171.638 66.1365 198.888 56.2976 211.759L160.994 325.559Z" fill="#EEC718" stroke="#502A73" stroke-width="0.48" stroke-linecap="round" stroke-linejoin="round"/>
<path d="M272.886 169.055C272.886 169.055 269.774 177.56 250.664 173.436C231.554 169.312 234.704 159.492 234.704 159.492L252.757 134.677L262.572 143.727L271.019 152.738C271.019 152.738 274.892 163.53 272.886 169.055Z" fill="#502A73" stroke="#502A73" stroke-width="0.48" stroke-linecap="round" stroke-linejoin="round"/>
<path d="M272.886 169.055C272.886 169.055 269.774 177.56 250.664 173.436C231.554 169.312 234.704 159.492 234.704 159.492L252.757 134.677L262.572 143.727L271.019 152.738C271.019 152.738 274.892 163.53 272.886 169.055Z" stroke="#502A73" stroke-width="0.48" stroke-linecap="round" stroke-linejoin="round"/>
<path d="M59.0352 262.477C59.0352 262.477 51.2574 268.453 58.1952 284.661C70.4374 313.179 110.773 342.546 116.684 329.232C123.855 313.094 114.351 266.282 114.351 266.282L89.0186 252.338L59.0352 262.477Z" fill="#502A73" stroke="#502A73" stroke-width="0.48" stroke-linecap="round" stroke-linejoin="round"/>
<path d="M112.842 320.712L127.177 286.536L82.5088 263.247L69.761 263.823L62.1077 282.334L82.1821 322.914" fill="#BF792A"/>
<path d="M112.842 320.712L127.177 286.536L82.5088 263.247L69.761 263.823L62.1077 282.334L82.1821 322.914" stroke="#502A73" stroke-width="0.48" stroke-linecap="round" stroke-linejoin="round"/>
<path d="M250.462 308.067L269.938 302.635L254.437 357.984L243.999 357.345L250.462 308.067Z" fill="#4BBEA5" stroke="#502A73" stroke-width="0.48" stroke-linecap="round" stroke-linejoin="round"/>
<path d="M271.19 303.266L251.092 310.915" stroke="#502A73" stroke-width="0.48" stroke-linecap="round" stroke-linejoin="round"/>
<path d="M248.486 319.194L268.576 311.545" stroke="#502A73" stroke-width="0.48" stroke-linecap="round" stroke-linejoin="round"/>
<path d="M245.873 327.466L265.971 319.817" stroke="#502A73" stroke-width="0.48" stroke-linecap="round" stroke-linejoin="round"/>
<path d="M243.26 335.745L263.358 328.096" stroke="#502A73" stroke-width="0.48" stroke-linecap="round" stroke-linejoin="round"/>
<path d="M240.654 344.016L260.752 336.367" stroke="#502A73" stroke-width="0.48" stroke-linecap="round" stroke-linejoin="round"/>
<path d="M248.315 304.184C244.426 306.425 241.953 307.118 238.865 325.559C235.777 344.001 232.643 369.415 233.615 377.694C234.587 385.973 240.226 388.424 249.303 387.031C258.38 385.639 272.279 376.005 287.974 348.615C303.67 321.225 307.52 309.756 308.002 305.982C308.484 302.208 309.425 295.345 300.325 290.536C298.498 289.571 295.394 287.774 295.394 287.774L288.332 290.59C283.716 292.412 278.634 292.685 273.85 291.369C271.174 290.645 268.032 290.591 265.496 292.839C261.996 295.952 260.052 304.223 257.944 315.203C257.05 319.941 252.134 342.001 251.349 347.106C251.303 347.405 251.158 347.679 250.936 347.884C250.714 348.089 250.429 348.213 250.128 348.234C249.936 348.25 249.743 348.225 249.562 348.159C249.381 348.094 249.216 347.99 249.08 347.854C248.943 347.719 248.837 347.555 248.77 347.375C248.702 347.195 248.674 347.002 248.689 346.81C248.953 342.919 250.789 331.248 251.979 323.793C255.79 300.068 249.785 303.336 248.315 304.184Z" fill="#4BBEA5" stroke="#502A73" stroke-width="0.48" stroke-linecap="round" stroke-linejoin="round"/>
<path d="M300.325 290.59C298.498 289.626 295.394 287.828 295.394 287.828L288.884 290.427C293.13 293.599 298.048 295.752 303.258 296.722L307.341 297.547C306.307 295.119 304.253 292.66 300.325 290.59Z" fill="#4BBEA5" stroke="#502A73" stroke-width="0.48" stroke-linecap="round" stroke-linejoin="round"/>
<path d="M298.124 293.765C290.199 297.002 289.693 301.951 289.39 307.094C289.086 312.238 294.873 323.902 288.9 331.388C282.926 338.873 275.81 334.835 268.779 340.328C261.747 345.822 264.89 361.61 263.482 369.57C262.074 377.53 248.704 380.215 248.704 380.215L253.534 385.973C262.44 382.58 274.534 372.146 287.99 348.701C303.693 321.311 307.535 309.841 308.017 306.067C308.375 303.313 308.966 298.909 305.684 294.855C303.973 293.314 301.507 292.388 298.124 293.765Z" fill="#008056" stroke="#502A73" stroke-width="0.48" stroke-linecap="round" stroke-linejoin="round"/>
<path d="M239.589 378.02C238.442 378.712 237.553 379.761 237.057 381.005C236.561 382.25 236.486 383.623 236.843 384.914C239.542 387.358 243.781 387.926 249.288 387.085C252.399 386.618 256.023 385.187 260.114 382.417C254.405 377.756 245.78 373.764 239.589 378.02Z" fill="#008056" stroke="#502A73" stroke-width="0.48" stroke-linecap="round" stroke-linejoin="round"/>
<path d="M282.732 293.983L281.176 297.033C278.75 301.881 275.211 310.261 275.211 310.261L281.721 310.915L283.448 293.726L282.732 293.983Z" fill="#008056" stroke="#502A73" stroke-width="0.48" stroke-linecap="round" stroke-linejoin="round"/>
<path d="M59.0352 262.477C59.0352 262.477 51.2574 268.453 58.1952 284.661C70.4374 313.179 110.773 342.546 116.684 329.232C123.855 313.094 114.351 266.282 114.351 266.282L89.0186 252.338L59.0352 262.477Z" stroke="#502A73" stroke-width="0.48" stroke-linecap="round" stroke-linejoin="round"/>
<path d="M143.432 149.182C143.432 149.182 85.6432 227.414 75.0887 241.569C64.5343 255.723 59.0354 262.477 59.0354 262.477C59.0354 262.477 74.6609 257.512 96.6254 283.183C123.63 314.743 116.684 329.232 116.684 329.232C116.684 329.232 134.635 290.575 145.4 270.095C156.164 249.614 203.088 158.955 203.088 158.955C203.088 158.955 195.232 197.636 198.615 218.544C202.815 244.409 215.26 270.499 222.68 287.618C230.1 304.737 237.255 313.6 237.255 313.6C237.255 313.6 264.913 313.81 283.704 302.612C302.495 291.415 308.414 282.545 308.414 282.545L259.897 202.063C258.163 199.182 257.188 195.908 257.065 192.547C256.762 184.478 256.194 169.086 256.047 162.978C255.837 154.528 257.252 128.74 257.252 128.74L182.99 116.508L143.432 149.182Z" fill="white" stroke="#502A73" stroke-width="0.48" stroke-linecap="round" stroke-linejoin="round"/>
<path d="M267.091 306.947C267.091 304.488 267.153 300.846 265.831 298.986C263.334 295.485 260.472 294.357 245.414 298.208C242.731 298.885 234.72 300.301 233.444 303.266C231.352 308.153 243.439 313.382 243.439 313.382C252.093 312.84 260.661 311.347 268.989 308.931C268.731 308.934 268.476 308.885 268.238 308.785C268 308.686 267.786 308.538 267.608 308.352C267.43 308.166 267.292 307.945 267.203 307.703C267.114 307.461 267.076 307.204 267.091 306.947Z" fill="#4BBEA5" stroke="#502A73" stroke-width="0.48" stroke-linecap="round" stroke-linejoin="round"/>
<path d="M264.166 310.23C263.91 309.988 263.67 309.728 263.451 309.452C262.938 308.806 262.984 307.989 262.852 306.184C262.852 304.791 263.124 299.873 259.127 300.021C256.56 300.114 252.531 300.737 246.464 302.285C246.068 302.386 245.57 302.495 244.994 302.628C242.744 303.146 240.958 303.629 239.635 304.075C239.427 304.146 239.24 304.266 239.089 304.426C238.939 304.586 238.829 304.78 238.771 304.992C238.713 305.204 238.707 305.427 238.755 305.641C238.803 305.856 238.902 306.055 239.044 306.223C241.336 308.991 244.127 311.303 247.273 313.039C252.964 312.508 258.61 311.57 264.166 310.23Z" fill="#4BBEA5" stroke="#502A73" stroke-width="0.48" stroke-linecap="round" stroke-linejoin="round"/>
<path d="M296.973 293.625C289.817 282.513 271.618 254.112 265.201 242.619C255.09 224.574 247.81 213.891 246.534 202.935C245.259 191.979 247.382 146.746 247.382 146.746L242.311 139.105C242.311 139.105 241.798 146.427 240.413 161.959C238.858 179.404 236.75 205.946 243.789 219.54C253.643 238.549 282.374 283.548 291.466 297.687C293.52 296.25 295.355 294.896 296.973 293.625Z" fill="#EEC718" stroke="#502A73" stroke-width="0.48" stroke-linecap="round" stroke-linejoin="round"/>
<path d="M203.087 158.947V156.371C203.09 155.891 202.988 155.416 202.789 154.979C202.59 154.542 202.298 154.153 201.934 153.839C201.571 153.525 201.143 153.295 200.682 153.162C200.22 153.03 199.735 152.999 199.261 153.072C194.835 153.811 186.925 157.834 177.289 174.564C162.293 200.584 116.739 285.595 108.922 299.749" stroke="#502A73" stroke-width="0.48" stroke-linecap="round" stroke-linejoin="round"/>
<path d="M203.056 132.086C203.056 132.086 199.471 140.747 198.39 144.972C197.309 149.197 203.056 149.828 203.056 149.828" fill="white"/>
<path d="M203.056 132.086C203.056 132.086 199.471 140.747 198.39 144.972C197.309 149.197 203.056 149.828 203.056 149.828" stroke="#502A73" stroke-width="0.48" stroke-linecap="round" stroke-linejoin="round"/>
<path d="M182.99 56.4055L91.4532 55.9854C87.3852 55.9798 83.4068 57.1801 80.02 59.4347C76.6333 61.6893 73.9901 64.8971 72.4241 68.6532C70.858 72.4094 70.4394 76.5455 71.2209 80.5395C72.0025 84.5335 73.9492 88.2063 76.8154 91.0944C77.8421 92.1293 120.029 126.227 120.029 126.227L120.993 127.005C123.82 129.367 126.405 132.005 128.709 134.879L132.403 139.494C132.59 139.727 132.777 139.953 132.971 140.171C134.864 142.292 137.404 143.731 140.197 144.264C140.197 144.264 138.011 147.485 138.898 149.578C140.453 153.243 147.834 156.27 153.535 152.309L169.682 139.774C170.874 138.847 171.826 137.647 172.459 136.276C173.091 134.904 173.384 133.4 173.314 131.891L173.135 127.884C173.085 126.774 172.913 125.673 172.622 124.6C172.037 122.46 170.984 120.477 169.538 118.794C168.091 117.112 166.289 115.773 164.261 114.874L155.371 110.983C153.477 110.145 151.722 109.022 150.168 107.653C146.528 104.439 139.52 98.1131 134.822 93.0475H175.593L182.99 56.4055Z" fill="#BF792A" stroke="#502A73" stroke-width="0.48" stroke-linecap="round" stroke-linejoin="round"/>
<path d="M132.815 56.4059C132.815 56.4059 139.465 61.4793 145.485 76.894C147.46 82.181 149.091 87.5898 150.37 93.0868H175.593L182.99 56.4371L132.932 56.2036L132.815 56.4059Z" fill="#4BBEA5" stroke="#502A73" stroke-width="0.48" stroke-linecap="round" stroke-linejoin="round"/>
<path d="M257.944 105.84C256.389 99.2729 259.212 92.6122 259.212 92.6122L279.131 66.2026C271.98 62.3866 264.039 60.2899 255.938 60.0788C242.529 59.7597 224.897 58.5225 224.897 58.5225L201.991 56.9274L182.99 56.3982C181.417 57.521 180.122 58.9904 179.207 60.693C178.291 62.3957 177.778 64.286 177.709 66.2181C177.499 74.2484 175.375 84.115 173.042 89.1962L161.593 113.73L164.261 114.905C166.286 115.802 168.087 117.137 169.533 118.815C170.979 120.494 172.034 122.472 172.622 124.609C172.913 125.681 173.085 126.782 173.136 127.892L173.314 131.9C173.399 133.751 172.937 135.586 171.984 137.175C179.505 135.316 185.207 133.145 190.27 134.779C196.819 136.895 202.411 143.12 210.018 143.649C213.665 143.906 224.539 140.07 232.254 142.093C240.584 144.241 238.305 151.174 248.448 152.302C253.62 152.878 259.788 150.435 266.461 153.29C271.773 155.555 274.519 163.725 272.886 169.078C272.886 169.078 276.105 164.48 271.252 150.326C267.215 138.553 259.531 112.408 257.944 105.84Z" fill="#4BBEA5" stroke="#502A73" stroke-width="0.48" stroke-linecap="round" stroke-linejoin="round"/>
<path d="M228.98 78.3878C220.292 75.5087 214.692 78.5746 213.93 79.0337C213.354 78.4734 209.084 74.6528 199.549 76.139C190.41 77.5708 186.622 83.8269 187.563 87.1573C188.061 88.9159 190.363 87.3285 194.011 85.71C199.175 83.4223 201.789 85.2276 201.789 85.2276C201.789 85.2276 194.322 86.3325 191.017 89.6628C187.711 92.9932 190.099 98.409 193.622 95.7556C199.448 91.3514 202.497 91.5459 202.497 91.5459C200.411 92.6055 198.559 94.0742 197.052 95.8645C195.045 98.5101 195.613 101.498 198.125 101.77C199.681 101.926 208.283 92.6353 206.222 98.658C203.383 106.945 202.092 112.96 201.797 117.17C201.746 117.623 201.787 118.082 201.917 118.519C202.047 118.956 202.264 119.363 202.554 119.715C202.844 120.067 203.202 120.357 203.606 120.568C204.011 120.779 204.453 120.907 204.908 120.943L206.65 121.076C207.642 121.109 208.618 120.815 209.426 120.238C210.234 119.662 210.83 118.835 211.122 117.885C212.429 113.746 213.455 107.715 213.821 99.2104C214.093 93.0633 218.962 103.381 220.51 103.451C223.053 103.568 224.733 100.751 223.784 97.8876C223.02 95.9368 221.776 94.2106 220.168 92.8687C220.168 92.8687 223.201 93.141 227.168 98.3156C229.579 101.428 233.958 96.5259 231.998 92.7909C230.038 89.0559 223.341 86.8616 223.341 86.8616C223.341 86.8616 226.592 85.5077 230.738 88.5034C233.67 90.6199 235.311 92.5108 236.454 90.8378C238.593 87.7953 237.318 81.1424 228.98 78.3878Z" fill="#EEC718" stroke="#502A73" stroke-width="0.48" stroke-linecap="round" stroke-linejoin="round"/>
<path d="M231.235 74.2562L243.929 72.77C245.853 72.5538 247.659 71.737 249.093 70.4356L250.524 68.7704C255.774 62.6849 262.397 57.9371 269.844 54.9198L270.925 54.484C272.313 53.7385 273.485 52.6483 274.33 51.3182C275.175 49.9881 275.663 48.463 275.748 46.8895L276.595 31.1091C271.41 33.9586 265.934 36.2438 260.262 37.9255C253.138 40.0731 247.716 38.8748 245.686 42.6565L235.754 56.8339" fill="#4BBEA5"/>
<path d="M231.235 74.2562L243.929 72.77C245.853 72.5538 247.659 71.737 249.093 70.4356L250.524 68.7704C255.774 62.6849 262.397 57.9371 269.844 54.9198L270.925 54.484C272.313 53.7385 273.485 52.6483 274.33 51.3182C275.175 49.9881 275.663 48.463 275.748 46.8895L276.595 31.1091C271.41 33.9586 265.934 36.2438 260.262 37.9255C253.138 40.0731 247.716 38.8748 245.686 42.6565L235.754 56.8339" stroke="#502A73" stroke-width="0.48" stroke-linecap="round" stroke-linejoin="round"/>
<path d="M260.285 37.8864C253.161 40.034 247.74 38.8357 245.71 42.6174L235.778 56.7948L231.235 74.2559L238.562 73.4C239.631 73.0875 240.635 72.584 241.525 71.9137C241.939 71.5944 242.313 71.226 242.638 70.8166L244.325 68.7312C249.578 62.6454 256.203 57.8977 263.653 54.8806L264.726 54.4449C266.115 53.6997 267.289 52.6098 268.135 51.2798C268.98 49.9497 269.47 48.4244 269.556 46.8504L270.233 34.2136C266.994 35.636 263.672 36.8625 260.285 37.8864Z" fill="#008056" stroke="#502A73" stroke-width="0.48" stroke-linecap="round" stroke-linejoin="round"/>
<path d="M260.285 37.8864C253.161 40.034 247.74 38.8357 245.71 42.6174L235.778 56.7948L231.235 74.2559L238.562 73.4C239.631 73.0875 240.635 72.584 241.525 71.9137C241.939 71.5944 242.313 71.226 242.638 70.8166L244.325 68.7312C249.578 62.6454 256.203 57.8977 263.653 54.8806L264.726 54.4449C266.115 53.6997 267.289 52.6098 268.135 51.2798C268.98 49.9497 269.47 48.4244 269.556 46.8504L270.233 34.2136C266.994 35.636 263.672 36.8625 260.285 37.8864Z" stroke="#502A73" stroke-width="0.48" stroke-linecap="round" stroke-linejoin="round"/>
<path d="M204.612 50.4919L203.546 51.3556C202.517 52.1837 201.768 53.3106 201.405 54.5814C201.041 55.8522 201.08 57.2044 201.516 58.4521L207.63 76.0922C208.098 77.4407 209.073 78.5535 210.348 79.1942C211.623 79.8349 213.098 79.9531 214.459 79.5238L231.235 74.2559L244.963 54.1802C245.796 52.9611 246.183 51.4915 246.058 50.0199C245.934 48.5482 245.305 47.1648 244.279 46.1033L239.176 40.8199C238.1 39.7056 236.811 38.8194 235.385 38.2138C233.959 37.6083 232.426 37.2958 230.878 37.2949H220.572" fill="#008056"/>
<path d="M204.612 50.4919L203.546 51.3556C202.517 52.1837 201.768 53.3106 201.405 54.5814C201.041 55.8522 201.08 57.2044 201.516 58.4521L207.63 76.0922C208.098 77.4407 209.073 78.5535 210.348 79.1942C211.623 79.8349 213.098 79.9531 214.459 79.5238L231.235 74.2559L244.963 54.1802C245.796 52.9611 246.183 51.4915 246.058 50.0199C245.934 48.5482 245.305 47.1648 244.279 46.1033L239.176 40.8199C238.1 39.7056 236.811 38.8194 235.385 38.2138C233.959 37.6083 232.426 37.2958 230.878 37.2949H220.572" stroke="#502A73" stroke-width="0.48" stroke-linecap="round" stroke-linejoin="round"/>
<path d="M204.612 50.4919L203.546 51.3556C202.517 52.1837 201.768 53.3106 201.405 54.5814C201.041 55.8522 201.08 57.2044 201.516 58.4521L207.63 76.0922C208.098 77.4407 209.073 78.5535 210.348 79.1942C211.623 79.8349 213.098 79.9531 214.459 79.5238L231.235 74.2559L244.963 54.1802C245.796 52.9611 246.183 51.4915 246.058 50.0199C245.934 48.5482 245.305 47.1648 244.279 46.1033L239.176 40.8199C238.1 39.7056 236.811 38.8194 235.385 38.2138C233.959 37.6083 232.426 37.2958 230.878 37.2949H220.572" stroke="#502A73" stroke-width="0.48" stroke-linecap="round" stroke-linejoin="round"/>
<path d="M214.536 60.8412L227.486 43.1C224.049 33.6457 217.251 15.2042 214.731 10.4187C210.671 2.72306 208.897 0.909999 203.173 1.00337C195.395 1.13566 185.619 12.2473 183.386 16.776C181.154 21.3047 182.974 23.6857 184.802 23.6935C186.63 23.7013 188.691 22.2695 188.691 22.2695C188.691 22.2695 189.204 25.6233 190.005 29.9885C190.122 30.5142 190.053 31.064 189.811 31.5448L187.127 36.8594C187.038 37.0868 187.003 37.3322 187.025 37.5757C187.048 37.8192 187.128 38.0539 187.258 38.2608C187.388 38.4677 187.566 38.641 187.775 38.7666C187.985 38.8922 188.221 38.9665 188.465 38.9837L191.654 39.3727C192.339 39.4894 192.432 40.1509 192.09 41.3648C191.607 43.0922 193.287 43.4968 193.645 43.5902C194.33 43.7536 193.451 44.0648 193.645 45.2476C193.801 46.2669 194.376 46.4459 194.594 47.0139C195.131 48.4379 195.426 48.9826 195.862 50.0408C196.171 50.7908 196.722 51.4165 197.426 51.8194C198.13 52.2223 198.948 52.3795 199.751 52.2663L208.439 50.9357L213.727 61.4637L214.536 60.8412Z" fill="#BF792A" stroke="#502A73" stroke-width="0.48" stroke-linecap="round" stroke-linejoin="round"/>
<path d="M195.201 17.9276C197.438 16.1831 199.505 14.2318 201.376 12.0994C201.376 12.0994 199.385 16.7682 200.373 17.5463C201.361 18.3244 204.752 15.6166 204.9 15.6944C205.047 15.7722 203.033 19.4294 203.577 20.5577C204.122 21.6859 205.623 20.5032 205.833 20.8067C206.043 21.1101 204.277 24.5417 204.705 25.2187C204.879 25.429 205.096 25.5996 205.342 25.7191C205.587 25.8385 205.856 25.904 206.129 25.9112C206.129 25.9112 206.183 29.3972 208.905 29.8018C211.627 30.2064 211.9 28.3623 210.904 23.997C210.593 22.6508 211.153 21.4214 212.149 21.5226C213.93 21.7093 216.916 24.4639 216.916 24.4639C216.916 24.4639 220.284 30.0041 222.75 30.1753C219.716 22.075 216.411 13.609 214.731 10.4187C210.671 2.72306 208.897 0.909999 203.173 1.00337C195.395 1.13566 185.619 12.2473 183.386 16.776C181.154 21.3047 182.974 23.6857 184.802 23.6935C186.63 23.7013 188.691 22.2695 188.691 22.2695C190.939 20.9438 193.113 19.4943 195.201 17.9276Z" fill="#502A73" stroke="#502A73" stroke-width="0.48" stroke-linecap="round" stroke-linejoin="round"/>
<path d="M195.201 17.9276C197.438 16.1831 199.505 14.2318 201.376 12.0994C201.376 12.0994 199.385 16.7682 200.373 17.5463C201.361 18.3244 204.752 15.6166 204.9 15.6944C205.047 15.7722 203.033 19.4294 203.577 20.5577C204.122 21.6859 205.623 20.5032 205.833 20.8067C206.043 21.1101 204.277 24.5417 204.705 25.2187C204.879 25.429 205.096 25.5996 205.342 25.7191C205.587 25.8385 205.856 25.904 206.129 25.9112C206.129 25.9112 206.183 29.3972 208.905 29.8018C211.627 30.2064 211.9 28.3623 210.904 23.997C210.593 22.6508 211.153 21.4214 212.149 21.5226C213.93 21.7093 216.916 24.4639 216.916 24.4639C216.916 24.4639 220.284 30.0041 222.75 30.1753C219.716 22.075 216.411 13.609 214.731 10.4187C210.671 2.72306 208.897 0.909999 203.173 1.00337C195.395 1.13566 185.619 12.2473 183.386 16.776C181.154 21.3047 182.974 23.6857 184.802 23.6935C186.63 23.7013 188.691 22.2695 188.691 22.2695C190.939 20.9438 193.113 19.4943 195.201 17.9276Z" stroke="#502A73" stroke-width="0.48" stroke-linecap="round" stroke-linejoin="round"/>
<path d="M211.814 25.0238C211.638 24.3222 211.593 23.5941 211.682 22.8762C212.086 20.6663 213.899 19.1489 216.107 19.5613C218.316 19.9738 219.382 22.0747 219.483 24.3157C219.607 26.2077 219.127 28.0902 218.114 29.6925C217.871 30.142 217.501 30.5097 217.05 30.7492C216.599 30.9887 216.087 31.0894 215.579 31.0387" fill="#BF792A"/>
<path d="M211.814 25.0238C211.638 24.3222 211.593 23.5941 211.682 22.8762C212.086 20.6663 213.899 19.1489 216.107 19.5613C218.316 19.9738 219.382 22.0747 219.483 24.3157C219.607 26.2077 219.127 28.0902 218.114 29.6925C217.871 30.142 217.501 30.5097 217.05 30.7492C216.599 30.9887 216.087 31.0894 215.579 31.0387" stroke="#502A73" stroke-width="0.48" stroke-linecap="round" stroke-linejoin="round"/>
<path d="M212.475 30.2219C212.377 30.6069 212.19 30.9635 211.929 31.2634C211.669 31.5633 211.342 31.7982 210.974 31.9493C209.8 32.3384 208.174 31.4358 208.174 31.4358" stroke="#502A73" stroke-width="0.48" stroke-linecap="round" stroke-linejoin="round"/>
<path d="M212.927 32.3074C212.828 32.6923 212.641 33.049 212.381 33.3489C212.12 33.6488 211.793 33.8836 211.426 34.0348C210.251 34.4239 208.625 33.5135 208.625 33.5135" stroke="#502A73" stroke-width="0.48" stroke-linecap="round" stroke-linejoin="round"/>
<path d="M213.805 24.7597C213.805 24.7597 213.704 22.3397 215.874 22.7444C217.282 23.0011 217.523 25.1566 216.535 26.0825C216.082 26.4029 215.535 26.5642 214.98 26.5416C215.184 26.6201 215.355 26.7648 215.466 26.9526C215.578 27.1403 215.623 27.3601 215.594 27.5765C215.4 28.4792 214.342 28.0434 214.342 28.0434" fill="#BF792A"/>
<path d="M213.805 24.7597C213.805 24.7597 213.704 22.3397 215.874 22.7444C217.282 23.0011 217.523 25.1566 216.535 26.0825C216.082 26.4029 215.535 26.5642 214.98 26.5416C215.184 26.6201 215.355 26.7648 215.466 26.9526C215.578 27.1403 215.623 27.3601 215.594 27.5765C215.4 28.4792 214.342 28.0434 214.342 28.0434" stroke="#502A73" stroke-width="0.48" stroke-linecap="round" stroke-linejoin="round"/>
<path d="M193.692 43.6057C194.993 43.7693 196.313 43.6821 197.581 43.3489C198.495 43.1039 199.339 42.6482 200.046 42.0183" stroke="#502A73" stroke-width="0.48" stroke-linecap="round" stroke-linejoin="round"/>
<path d="M196.002 27.9887C196.622 27.6512 197.328 27.5024 198.032 27.5607" stroke="#502A73" stroke-width="0.96" stroke-linecap="round" stroke-linejoin="round"/>
<path d="M196.297 27.8952C196.181 28.4074 196.181 28.9393 196.297 29.4515C196.484 30.323 196.889 30.6731 197.285 30.5875C197.682 30.502 197.907 30.0195 197.729 29.148C197.623 28.6236 197.403 28.1292 197.083 27.7007L196.297 27.8952Z" fill="#502A73"/>
<path d="M189.593 29.3349C190.215 29.0012 190.92 28.8527 191.623 28.9069" stroke="#502A73" stroke-width="0.96" stroke-linecap="round" stroke-linejoin="round"/>
<path d="M189.92 29.2805C189.802 29.7925 189.802 30.3247 189.92 30.8367C190.107 31.7082 190.511 32.0584 190.908 31.9728C191.304 31.8872 191.53 31.4047 191.351 30.5332C191.244 30.0094 191.024 29.5154 190.705 29.0859L189.92 29.2805Z" fill="#502A73"/>
<path d="M193.225 25.7865C193.287 25.8586 193.363 25.9166 193.449 25.9564C193.535 25.9962 193.628 26.0168 193.723 26.0168C193.818 26.0168 193.911 25.9962 193.997 25.9564C194.083 25.9166 194.16 25.8586 194.221 25.7865C194.523 25.4349 194.891 25.1465 195.305 24.9382C195.719 24.7298 196.17 24.6056 196.632 24.5726C197.124 24.5415 197.619 24.5755 198.102 24.6738C198.2 24.6972 198.303 24.6949 198.399 24.667C198.496 24.639 198.584 24.5864 198.655 24.5143C198.725 24.4422 198.776 24.353 198.802 24.2555C198.828 24.158 198.828 24.0554 198.802 23.9578C198.783 23.8714 198.745 23.7906 198.69 23.7217C198.634 23.6528 198.564 23.5978 198.483 23.561C197.591 23.0636 196.542 22.9307 195.554 23.1904C194.567 23.4501 193.718 24.0821 193.186 24.9539C193.098 25.0766 193.053 25.2258 193.061 25.377C193.068 25.5282 193.126 25.6725 193.225 25.7865Z" fill="#502A73"/>
<path d="M202.535 40.4696C202.761 40.4882 202.987 40.4575 203.199 40.3795C203.412 40.3016 203.604 40.1783 203.764 40.0183C202.601 39.3211 201.393 38.7024 200.147 38.1663C199.37 37.9951 197.729 38.5865 195.317 39.4269C194.342 39.7843 193.307 39.9533 192.269 39.9249C192.335 40.4154 192.282 40.9147 192.113 41.38C192.086 41.4849 192.065 41.5915 192.051 41.699C193.09 41.7972 194.137 41.7475 195.162 41.5512C196.861 41.1811 198.516 40.6334 200.101 39.9171C200.9 40.1517 201.713 40.3362 202.535 40.4696Z" fill="#502A73" stroke="#502A73" stroke-width="0.48" stroke-linecap="round" stroke-linejoin="round"/>
<path d="M202.535 40.4696C202.761 40.4882 202.987 40.4575 203.199 40.3795C203.412 40.3016 203.604 40.1783 203.764 40.0183C202.601 39.3211 201.393 38.7024 200.147 38.1663C199.37 37.9951 197.729 38.5865 195.317 39.4269C194.342 39.7843 193.307 39.9533 192.269 39.9249C192.335 40.4154 192.282 40.9147 192.113 41.38C192.086 41.4849 192.065 41.5915 192.051 41.699C193.09 41.7972 194.137 41.7475 195.162 41.5512C196.861 41.1811 198.516 40.6334 200.101 39.9171C200.9 40.1517 201.713 40.3362 202.535 40.4696Z" stroke="#502A73" stroke-width="0.48" stroke-linecap="round" stroke-linejoin="round"/>
<path d="M190.068 24.9542C189.762 24.9298 189.455 24.9806 189.173 25.102L189.438 26.6583C189.58 26.5697 189.739 26.5089 189.904 26.4793C190.283 26.4306 190.667 26.4624 191.032 26.5727C191.121 26.5968 191.214 26.6019 191.305 26.5879C191.397 26.5738 191.484 26.5407 191.561 26.4909C191.639 26.441 191.705 26.3755 191.756 26.2985C191.807 26.2214 191.841 26.1346 191.856 26.0436C191.882 25.9016 191.861 25.7552 191.796 25.6262C191.732 25.4972 191.627 25.3925 191.499 25.3277C191.052 25.1073 190.565 24.9803 190.068 24.9542Z" fill="#502A73"/>
<path d="M320.027 200.655C321.757 201.634 323.677 202.234 325.658 202.413C329.243 202.834 330.511 202.553 332.199 204.81C333.886 207.067 333.537 210.304 327.695 210.304C324.106 210.241 320.658 208.891 317.981 206.499" fill="#BF792A"/>
<path d="M320.027 200.655C321.757 201.634 323.677 202.234 325.658 202.413C329.243 202.834 330.511 202.553 332.199 204.81C333.886 207.067 333.537 210.304 327.695 210.304C324.106 210.241 320.658 208.891 317.981 206.499" stroke="#502A73" stroke-width="0.48" stroke-linecap="round" stroke-linejoin="round"/>
<path d="M279.131 66.2259C285.353 69.5251 297.992 101.296 303.623 111.855C309.254 122.414 315.29 136.926 315.733 146.785C316.176 156.644 314.745 192.414 314.745 192.414C314.745 192.414 319.956 196.359 321.504 199.877C323.052 203.394 324.46 206.639 330.06 211.284C335.66 215.929 340.614 216.497 340.754 219.594C340.894 222.691 335.722 224.528 335.722 224.528C335.386 225.697 334.756 226.76 333.893 227.617C333.03 228.473 331.962 229.095 330.791 229.422C329.356 229.807 327.899 230.101 326.427 230.301C324.92 231.894 322.847 232.83 320.656 232.908C317.915 232.774 315.198 232.325 312.56 231.57C312.56 231.57 300.986 235.966 291.809 223.08C282.631 210.195 284.49 197.402 282.53 182.735C280.974 170.938 277.863 149.991 279.66 142.07L261.475 109.902C253.977 96.6739 269.004 94.4952 280.406 84.3951C284.287 80.9869 275.786 64.444 279.131 66.2259Z" fill="#BF792A" stroke="#502A73" stroke-width="0.48" stroke-linecap="round" stroke-linejoin="round"/>
<path d="M302.721 110.104C296.732 98.16 284.995 69.3538 279.131 66.2257C273.461 63.2066 266.733 71.6259 261.009 79.3294C255.284 87.0328 253.931 96.5026 258.675 104.883L269.074 123.278C275.082 122.937 281.009 121.723 286.668 119.675C296.608 115.831 301.01 111.987 302.721 110.104Z" fill="#4BBEA5" stroke="#502A73" stroke-width="0.48" stroke-linecap="round" stroke-linejoin="round"/>
<path d="M279.691 142.108C282.756 143.803 286.132 144.862 289.615 145.221C293.06 145.571 296.538 145.355 299.913 144.583" fill="#BF792A"/>
<path d="M279.691 142.108C282.756 143.803 286.132 144.862 289.615 145.221C293.06 145.571 296.538 145.355 299.913 144.583" stroke="#502A73" stroke-width="0.48" stroke-linecap="round" stroke-linejoin="round"/>
<path d="M286.038 160.005C286.038 160.005 288.853 161.702 295.892 162.402C300.058 162.828 304.256 162.828 308.422 162.402C305.006 164.401 301.477 166.199 297.852 167.787C292.789 169.895 287.018 171.584 287.018 171.584C287.018 171.584 287.998 173.77 295.176 174.58C302.355 175.389 303.343 175.358 303.343 175.358L289.802 184.228" stroke="#502A73" stroke-width="0.48" stroke-linecap="round" stroke-linejoin="round"/>
<path d="M312.591 231.593C312.591 231.593 306.719 228.986 303.693 224.831L312.591 231.593Z" fill="#BF792A"/>
<path d="M312.591 231.593C312.591 231.593 306.719 228.986 303.693 224.831" stroke="#502A73" stroke-width="0.48" stroke-linecap="round" stroke-linejoin="round"/>
<path d="M326.482 230.301C323.934 229.54 321.516 228.396 319.311 226.909C317.031 225.42 315 223.582 313.291 221.462" fill="#BF792A"/>
<path d="M326.482 230.301C323.934 229.54 321.516 228.396 319.311 226.909C317.031 225.42 315 223.582 313.291 221.462" stroke="#502A73" stroke-width="0.48" stroke-linecap="round" stroke-linejoin="round"/>
<path d="M335.753 224.527C335.753 224.527 333.832 224.924 329.578 223.438C326.666 222.292 324.036 220.53 321.87 218.271" fill="#BF792A"/>
<path d="M335.753 224.527C335.753 224.527 333.832 224.924 329.578 223.438C326.666 222.292 324.036 220.53 321.87 218.271" stroke="#502A73" stroke-width="0.48" stroke-linecap="round" stroke-linejoin="round"/>
<path d="M103.26 335.861C103.26 335.861 122.346 371.087 161.017 381.771C161.017 381.771 118.73 392.299 75.6252 355.922C32.5208 319.544 103.26 335.861 103.26 335.861Z" fill="#EEC718" stroke="#502A73" stroke-width="0.48" stroke-linecap="round" stroke-linejoin="round"/>
<path d="M62.4187 273.876C62.4187 273.876 51.0321 260.282 56.3054 251.311C59.4165 246.058 69.5276 246.004 75.6176 248.914C86.5065 254.143 79.6776 277.347 79.6776 277.347L78.0676 290.909L62.4187 273.876Z" fill="#4BBEA5" stroke="#502A73" stroke-width="0.48" stroke-linecap="round" stroke-linejoin="round"/>
<path d="M62.9243 271.939C60.4354 268.919 54.2443 259.489 57.2776 254.291C58.0554 252.937 60.9799 251.178 66.5643 251.178C69.051 251.177 71.5092 251.708 73.7743 252.734C77.4376 254.501 77.6632 261.014 77.4921 264.741C77.2544 268.601 76.6211 272.426 75.6021 276.156L75.5088 276.498L74.941 281.253L62.9243 271.939Z" fill="#4BBEA5" stroke="#502A73" stroke-width="0.48" stroke-linecap="round" stroke-linejoin="round"/>
<path d="M112.189 305.67C108.753 303.279 105.049 301.299 101.152 299.772C99.8174 299.237 98.7003 298.27 97.9787 297.025L89.1743 281.875C87.7459 279.711 85.7925 277.944 83.4965 276.74L64.5732 267.651C64.5732 267.651 56.2665 262.336 41.6209 257.535C26.9754 252.734 13.4032 254.493 5.50871 263.216C-2.38574 271.938 50.5187 325.761 50.5187 325.761L86.6154 359.33C86.6154 359.33 99.3709 354.731 103.571 343.705C106.254 336.655 112.515 322.937 115.945 314.829C114.959 311.673 113.702 308.609 112.189 305.67Z" fill="#4BBEA5" stroke="#502A73" stroke-width="0.48" stroke-linecap="round" stroke-linejoin="round"/>
<path d="M103.571 343.736C106.254 336.686 112.515 322.968 115.945 314.86C115.387 313.008 114.722 311.189 113.954 309.413C110.065 315.467 101.401 329.03 97.1542 336.78L91.5931 347.028C91.5931 347.028 89.0342 353.548 87.2998 359.096C89.9209 357.991 99.9387 353.276 103.571 343.736Z" fill="#4BBEA5" stroke="#502A73" stroke-width="0.48" stroke-linecap="round" stroke-linejoin="round"/>
<path d="M92.6122 312.806C69.5511 301.912 74.9411 286.614 62.1077 275.752C55.7144 270.305 50.0988 270.491 42.1966 265.496C34.2944 260.5 30.9266 255.209 30.9266 255.209L20.5044 265.496C20.5044 265.496 46.0077 303.951 46.3344 304.332C46.6611 304.713 56.5077 326.065 61.6177 336.095L72.5066 346.211C75.4777 347.907 78.1066 349.323 78.1066 349.323L78.6744 351.946L86.6544 359.369C86.6544 359.369 99.41 354.77 103.61 343.744C104.707 340.849 106.41 336.834 108.277 332.539C108.907 330.991 108.922 320.525 92.6122 312.806Z" fill="#008056" stroke="#502A73" stroke-width="0.48" stroke-linecap="round" stroke-linejoin="round"/>
<path d="M20.4808 267.651C20.4808 267.651 32.5052 260.741 30.903 255.201C20.543 254.088 11.4586 256.695 5.50855 263.239C3.40078 265.574 5.61744 271.098 10.0041 277.961C14.0097 281.72 17.3541 284.801 17.3541 284.801L20.4808 267.651Z" fill="#008056" stroke="#502A73" stroke-width="0.48" stroke-linecap="round" stroke-linejoin="round"/>
<path d="M30.732 264.508C9.43649 253.085 -0.472398 263.73 1.17649 279.292C3.19871 298.255 18.5209 316.113 33.6954 331.162C45.7898 343.16 59.0743 355.284 69.4732 358.894C88.0387 365.353 95.9798 352.381 97.3332 350.047C102.7 340.779 103.353 327.559 65.8409 298.278C59.0743 292.964 43.892 271.558 30.732 264.508Z" fill="#502A73" stroke="#502A73" stroke-width="0.48" stroke-linecap="round" stroke-linejoin="round"/>
<path d="M30.732 264.508C9.43649 253.085 -0.472398 263.73 1.17649 279.292C3.19871 298.255 18.5209 316.113 33.6954 331.162C45.7898 343.16 59.0743 355.284 69.4732 358.894C88.0387 365.353 95.9798 352.381 97.3332 350.047C102.7 340.779 103.353 327.559 65.8409 298.278C59.0743 292.964 43.892 271.558 30.732 264.508Z" stroke="#502A73" stroke-width="0.48" stroke-linecap="round" stroke-linejoin="round"/>
<path d="M90.2009 296.769C90.2009 296.769 97.9087 301.538 102.334 304.674L106.752 307.787L88.5598 303.118L90.2009 296.769Z" fill="#008056" stroke="#502A73" stroke-width="0.48" stroke-linecap="round" stroke-linejoin="round"/>
<path d="M116.187 103.311C113.846 104.714 111.906 106.697 110.556 109.068C109.206 111.44 108.49 114.121 108.479 116.851L117.812 124.43C118.675 116.01 123.155 112.446 123.155 112.446L131.828 103.98C131.828 103.98 127.2 96.3314 116.187 103.311Z" fill="#A9D054" stroke="#502A73" stroke-width="0.48" stroke-linecap="round" stroke-linejoin="round"/>
<path d="M134.845 93.0866C133.236 91.1272 131.733 89.083 130.342 86.9628C128.786 84.5739 125.979 80.7377 123.863 77.9521C121.199 74.3768 118.282 70.9963 115.136 67.8364" fill="#BF792A"/>
<path d="M134.845 93.0866C133.236 91.1272 131.733 89.083 130.342 86.9628C128.786 84.5739 125.979 80.7377 123.863 77.9521C121.199 74.3768 118.282 70.9963 115.136 67.8364" stroke="#502A73" stroke-width="0.48" stroke-linecap="round" stroke-linejoin="round"/>
<path d="M155.06 139.074C155.06 139.074 158.676 148.871 155.06 151.166V139.074Z" fill="#BF792A"/>
<path d="M155.06 139.074C155.06 139.074 158.676 148.871 155.06 151.166" stroke="#502A73" stroke-width="0.48" stroke-linecap="round" stroke-linejoin="round"/>
<path d="M161.593 132.88C161.593 132.88 165.77 142.832 162.635 145.268L161.593 132.88Z" fill="#BF792A"/>
<path d="M161.593 132.88C161.593 132.88 165.77 142.832 162.635 145.268" stroke="#502A73" stroke-width="0.48" stroke-linecap="round" stroke-linejoin="round"/>
<path d="M166.796 128.616C167.726 130.473 168.428 132.435 168.889 134.46C169.472 137.37 169.262 140.117 168.111 141.035" fill="#BF792A"/>
<path d="M166.796 128.616C167.726 130.473 168.428 132.435 168.889 134.46C169.472 137.37 169.262 140.117 168.111 141.035" stroke="#502A73" stroke-width="0.48" stroke-linecap="round" stroke-linejoin="round"/>
<path d="M140.228 144.287H140.5C141.396 144.264 142.285 144.109 143.136 143.828L143.339 143.766C143.339 143.766 143.448 145.875 144.241 146.723" fill="#BF792A"/>
<path d="M140.228 144.287H140.5C141.396 144.264 142.285 144.109 143.136 143.828L143.339 143.766C143.339 143.766 143.448 145.875 144.241 146.723" stroke="#502A73" stroke-width="0.48" stroke-linecap="round" stroke-linejoin="round"/>
<path d="M116.894 78.886C116.894 78.886 113.005 78.2246 107.188 83.4925C101.37 88.7604 100.149 93.0868 100.149 93.0868" stroke="#502A73" stroke-width="0.48" stroke-linecap="round" stroke-linejoin="round"/>
<path d="M111.466 72.6298C107.063 72.4888 102.656 72.7649 98.3055 73.4546C93.5645 74.2545 89.0656 76.1165 85.1455 78.9014" stroke="#502A73" stroke-width="0.48" stroke-linecap="round" stroke-linejoin="round"/>
<path d="M113.799 102.354L122.704 115.356C123.61 116.661 124.993 117.556 126.554 117.847C128.115 118.138 129.727 117.802 131.042 116.913L144.521 107.871C145.25 107.38 145.863 106.735 146.318 105.983C146.773 105.23 147.058 104.387 147.153 103.513C147.249 102.639 147.152 101.754 146.871 100.921C146.59 100.088 146.13 99.3262 145.524 98.689L134.371 87.0016C133.379 85.9671 132.051 85.3205 130.626 85.1778C129.2 85.0352 127.77 85.406 126.593 86.2235L115.386 94.0047C114.073 94.905 113.169 96.2881 112.872 97.8522C112.575 99.4163 112.908 101.035 113.799 102.354Z" fill="#A9D054" stroke="#502A73" stroke-width="0.48" stroke-linecap="round" stroke-linejoin="round"/>
<path d="M127.705 113.738C127.413 113.737 127.126 113.666 126.868 113.531C126.609 113.395 126.387 113.199 126.22 112.96L117.26 99.9577C116.994 99.5654 116.894 99.0845 116.98 98.6187C117.065 98.1529 117.331 97.7395 117.719 97.4677L128.919 89.6864C129.272 89.4409 129.701 89.3294 130.128 89.3722C130.556 89.415 130.955 89.6092 131.252 89.9198L142.452 101.646C142.635 101.834 142.773 102.059 142.858 102.307C142.943 102.555 142.971 102.818 142.942 103.078C142.913 103.337 142.829 103.586 142.695 103.809C142.561 104.032 142.38 104.224 142.164 104.37L128.709 113.419C128.415 113.62 128.069 113.729 127.713 113.73L127.705 113.738Z" fill="#502A73" stroke="#502A73" stroke-width="0.48" stroke-linecap="round" stroke-linejoin="round"/>
<path d="M127.705 113.738C127.413 113.737 127.126 113.666 126.868 113.531C126.609 113.395 126.387 113.199 126.22 112.96L117.26 99.9577C116.994 99.5654 116.894 99.0845 116.98 98.6187C117.065 98.1529 117.331 97.7395 117.719 97.4677L128.919 89.6864C129.272 89.4409 129.701 89.3294 130.128 89.3722C130.556 89.415 130.955 89.6092 131.252 89.9198L142.452 101.646C142.635 101.834 142.773 102.059 142.858 102.307C142.943 102.555 142.971 102.818 142.942 103.078C142.913 103.337 142.829 103.586 142.695 103.809C142.561 104.032 142.38 104.224 142.164 104.37L128.709 113.419C128.415 113.62 128.069 113.729 127.713 113.73L127.705 113.738Z" stroke="#502A73" stroke-width="0.48" stroke-linecap="round" stroke-linejoin="round"/>
<path d="M129.58 105.404C132.118 105.404 134.176 103.345 134.176 100.805C134.176 98.2657 132.118 96.2068 129.58 96.2068C127.041 96.2068 124.983 98.2657 124.983 100.805C124.983 103.345 127.041 105.404 129.58 105.404Z" fill="#EEC718" stroke="#502A73" stroke-width="0.48" stroke-linecap="round" stroke-linejoin="round"/>
</svg>
