<svg width="453" height="388" viewBox="0 0 453 388" fill="none" xmlns="http://www.w3.org/2000/svg">
<path d="M432.746 81.9907L452.696 299.736L5.71454 188.573L432.746 81.9907Z" fill="#EEC718" stroke="#502A73" stroke-width="0.51" stroke-linecap="round" stroke-linejoin="round"/>
<path d="M423.778 279.111C422.16 278.391 420.387 277.671 418.333 276.858C425.396 274.776 429.883 267.687 432.427 262.021C432.803 261.185 432.972 260.271 432.917 259.357C432.863 258.442 432.587 257.554 432.113 256.768C431.64 255.983 430.983 255.322 430.198 254.844C429.413 254.365 428.523 254.082 427.605 254.019C425.271 253.864 422.673 253.647 420.231 253.353C408.199 251.914 398.275 245.614 397.536 245.118H397.489L349.733 213.997C344.599 210.655 340.802 205.631 339 199.795H367.661C371.286 199.795 376.349 200.082 380.883 196.761C389.066 190.817 390.925 172.591 392.076 168.226L395.638 158.636C400.896 159.851 414.95 137.608 417.042 112.632C418.839 91.0541 412.772 85.35 392.153 71.5658C389.68 69.9096 387.028 68.3075 384.267 66.7595C384.119 66.0031 383.805 65.2883 383.348 64.6663C382.891 64.0442 382.302 63.5301 381.622 63.1607L355.178 48.8347C353.949 48.1734 352.507 48.0236 351.167 48.4182C349.827 48.8127 348.699 49.7195 348.03 50.9398C341.31 48.618 336.441 47.2713 335.313 47.1861C335.313 47.1861 343.869 44.5238 340.952 34.5319C339.078 28.0462 331.215 23.7584 320.73 23.5727H279.78C279.329 19.8886 278.886 16.7618 278.489 14.8037C277.657 11.3519 276.933 7.45113 274.911 4.67262C273.402 2.70677 271.022 1.82445 268.541 1.32912C267.91 1.21403 267.27 1.15447 266.628 1.15112H219.915L219.845 44.0361C219.845 44.0361 237.733 45.9324 247.572 46.9617C247.37 48.022 247.977 48.5096 248.047 49.1365C248.195 50.5916 248.335 51.2572 248.475 52.2324C248.536 52.6685 248.683 53.0883 248.907 53.4679C249.131 53.8475 249.428 54.1794 249.781 54.4446C250.135 54.7098 250.537 54.9032 250.965 55.0136C251.394 55.1241 251.84 55.1494 252.278 55.0883L260.833 53.9196L261.845 58.7568C261.845 58.7568 261.51 59.167 261.005 59.8713C251.671 61.7675 241.436 64.0662 235.003 66.1714C210.356 74.1199 188.197 115.101 185.086 120.519L185.195 119.466C184.998 120.007 184.829 120.557 184.689 121.115C184.502 120.619 172.952 100.535 166.279 96.526C159.606 92.5169 154.332 93.8945 154.332 93.8945L149.961 85.5513C151.703 80.4741 150.086 73.3846 151.322 69.0814C152.248 65.6837 154.643 57.8281 149.036 57.3327C148.867 57.3173 148.698 57.3173 148.53 57.3327H139.321C138.746 53.997 138.046 50.2897 137.353 47.5112C136.257 43.1074 133.566 41.4666 131.318 41.722V41.6523H84.8534L83.4534 81.9756L90.7334 112.849L115.35 123.615L123.33 114.273L123.517 114.668L123.758 114.497C115.358 126.192 130.89 152.684 150.148 165.308C167.858 176.429 179.4 174.433 179.4 174.433C165.657 182.211 152.458 187.365 144.136 201.823L114.58 258.663C101.887 259.436 98.1456 267.648 104.041 277.787C97.1034 275.891 84.4645 273.097 76.0412 273.755C66.2179 274.242 55.6712 278.228 50.5067 287.013C47.3956 290.766 47.1779 296.695 49.4723 303.335C55.7412 321.492 75.139 337.181 93.8057 350.168L95.9523 351.592L89.8079 355.044L97.8267 374.091H143.622C147.398 374.055 151.11 373.112 154.441 371.343C155.079 371.273 165.96 364.586 167.835 353.681C168.822 348.798 171.311 339.619 173.575 331.19C182.628 332.204 195.088 326.724 204.258 321.732C205.451 321.087 206.465 320.157 207.209 319.026C207.953 317.895 208.403 316.598 208.519 315.251C208.636 313.905 208.415 312.55 207.876 311.31C207.337 310.069 206.498 308.98 205.432 308.142C204.588 307.49 203.79 306.782 203.045 306.021C201.526 304.368 200.198 302.55 199.086 300.603C195.69 294.829 194.563 288.008 195.92 281.456L205.253 235.699C206.189 231.119 208.796 227.047 212.572 224.268L274.017 179.045L286.858 233.842C289.236 243.993 294.416 253.281 301.815 260.659L351.203 309.937C353.918 312.646 357.62 314.062 361.89 314.326C361.773 315.727 361.665 317.22 361.571 318.776L359.603 317.847L327.87 387.503H373.533C384.679 386.993 391.5 381.242 399.706 370.941C406.628 361.823 411.831 351.491 416.303 340.973C420.838 330.138 423.856 322.568 427.247 312.615C430.459 303.242 432.162 295.426 431.913 292.693C432.061 286.571 429.541 281.85 423.778 279.111ZM335.259 128.46C328.796 116.51 325.537 100.667 327.193 90.4349C327.193 90.4349 333.898 99.2658 341.567 103.693C342.461 104.211 343.332 104.691 344.172 105.14C351.95 109.513 361.283 112.175 364.885 111.541C364.885 111.541 357.503 122.376 354.89 130.727C353.922 133.725 353.687 136.909 354.206 140.015C348.761 141.632 342.267 143.629 338.456 144.991C339.622 141.733 339.016 136.362 335.259 128.46Z" fill="#A9D054" stroke="#502A73" stroke-width="0.51" stroke-linecap="round" stroke-linejoin="round"/>
<path d="M406.853 292.647C407.001 286.571 404.52 281.811 398.718 279.11C397.108 278.391 395.35 277.678 393.336 276.866C396.571 275.179 399.612 272.71 401.16 270.272C404.497 265.04 400.997 258.91 394.16 256.34C384.313 252.61 373.751 245.931 371.605 244.522L324.728 214.02C321.072 211.639 318.07 208.388 315.993 204.563C315.73 204.07 315.599 203.517 315.614 202.959C315.629 202.401 315.789 201.856 316.079 201.378C316.369 200.9 316.779 200.505 317.268 200.231C317.758 199.958 318.31 199.816 318.871 199.818H342.656C350.231 199.818 355.232 198.533 358.561 194.161C364.356 186.545 366.082 172.095 367.117 168.248L370.679 158.659C375.937 159.874 389.999 137.631 392.083 112.655C393.888 91.0771 387.821 85.373 367.233 71.5888C364.768 69.9326 362.116 68.3305 359.355 66.7825C359.205 66.0266 358.891 65.3125 358.434 64.6907C357.977 64.0688 357.389 63.5543 356.71 63.1836L330.266 48.8576C329.037 48.1963 327.594 48.0466 326.255 48.4411C324.915 48.8357 323.787 49.7425 323.118 50.9628C316.398 48.6409 311.537 47.2943 310.409 47.2091C310.409 47.2091 318.965 44.5467 316.048 34.5549C314.166 28.0691 306.31 23.7814 295.826 23.5957H259.006C257.828 23.5936 256.69 23.168 255.802 22.3971C254.915 21.6262 254.337 20.5621 254.176 19.4008C253.919 17.551 253.67 15.9876 253.398 14.8267C252.573 11.3749 251.881 7.47408 249.82 4.69557C248.311 2.72972 245.892 1.84745 243.45 1.35211C242.821 1.23724 242.184 1.17764 241.545 1.17407H221.633L221.532 44.1365C221.532 44.1365 239.421 46.0327 249.26 47.0621C249.058 48.1224 249.665 48.61 249.727 49.2369C249.875 50.692 250.015 51.3576 250.162 52.3327C250.222 52.7685 250.369 53.1882 250.592 53.5677C250.815 53.9472 251.112 54.2792 251.465 54.5445C251.817 54.8098 252.219 55.0032 252.647 55.1138C253.075 55.2243 253.52 55.2498 253.958 55.1887L262.513 54.02L263.517 58.8262C263.517 58.8262 263.175 59.2364 262.669 59.9407C253.336 61.8369 243.1 64.1356 236.668 66.2408C212.106 74.1197 189.947 115.101 186.836 120.518L186.945 119.466C186.749 120.006 186.583 120.556 186.447 121.114C186.291 120.712 178.809 107.686 172.447 100.496C165.859 110.008 161.34 118.297 160.057 120.518L160.166 119.466C160.166 119.466 159.979 119.953 159.668 121.114C159.473 120.619 147.923 100.535 141.25 96.5257C134.577 92.5166 129.303 93.8943 129.303 93.8943L124.94 85.551C126.675 80.4739 125.057 73.3844 126.301 69.0812C127.219 65.6835 129.615 57.8278 124.007 57.3325C123.839 57.317 123.669 57.317 123.501 57.3325H114.269C113.693 53.9967 112.993 50.2895 112.301 47.511C111.197 43.1071 108.506 41.4664 106.258 41.7218V41.6521H86.6034L85.2034 81.9753L92.4756 112.833L97.5623 115.047L98.2701 114.218L98.4568 114.613L98.7057 114.443C98.5071 114.72 98.3228 115.007 98.1534 115.302L117.108 123.614L125.08 114.273L125.267 114.667L125.516 114.497C117.108 126.192 132.648 152.684 151.906 165.307C169.608 176.468 181.181 174.471 181.181 174.471C167.43 182.249 154.231 187.404 145.909 201.861L116.353 258.701C103.668 259.475 99.919 267.687 105.815 277.825C98.8768 275.929 86.2301 273.135 77.7757 273.793H77.1301C77.6251 275.178 78.2474 276.515 78.989 277.787C76.1656 277.013 72.409 276.1 68.3723 275.318C61.7768 277.26 55.749 281.022 52.2334 287.012C49.1223 290.766 48.8968 296.695 51.1912 303.335C57.4601 321.492 76.8579 337.18 95.5245 350.167C96.2401 350.632 96.9557 351.112 97.6712 351.591L91.5345 355.043L95.0501 374.09H118.539C122.315 374.054 126.026 373.112 129.358 371.343C129.996 371.273 140.869 364.586 142.743 353.681C143.739 348.797 146.22 339.618 148.483 331.19C170.743 331.538 172.952 313.01 171.117 308.405C170.572 307.05 169.911 305.2 169.242 303.258C168.063 299.843 167.824 296.177 168.55 292.639L180.217 235.699C181.156 231.118 183.766 227.046 187.543 224.268L248.988 179.045L252.931 195.871L275.845 179.045L288.678 233.841C291.056 243.992 296.236 253.28 303.635 260.659L353.023 309.937C355.746 312.646 359.44 314.062 363.71 314.325C363.593 315.726 363.492 317.22 363.391 318.776L361.4 317.878L327.178 387.534H348.442C359.588 387.023 366.409 381.273 374.615 370.971C381.537 361.854 386.74 351.522 391.212 341.004C395.755 330.168 398.772 322.599 402.163 312.646C405.407 303.173 407.102 295.379 406.853 292.647Z" fill="#A9D054" stroke="#502A73" stroke-width="0.51" stroke-linecap="round" stroke-linejoin="round"/>
<path d="M84.8379 318.551C61.4502 304.225 51.0357 283.971 59.5757 274.265C66.0857 266.859 86.0201 264.459 109.439 278.785C132.858 293.111 146.275 313.613 139.477 324.604C132.679 335.594 108.218 332.877 84.8379 318.551Z" fill="#502A73" stroke="#502A73" stroke-width="0.51" stroke-linecap="round" stroke-linejoin="round"/>
<path d="M84.838 318.551C61.4502 304.225 51.0357 283.971 59.5757 274.265C66.0857 266.859 86.0201 264.459 109.439 278.785C132.858 293.111 146.275 313.613 139.477 324.604C132.679 335.594 108.218 332.877 84.838 318.551Z" stroke="#502A73" stroke-width="0.51" stroke-linecap="round" stroke-linejoin="round"/>
<path d="M323.717 300.696L346.607 306.725L338.09 355.461L323.717 355.918L320.357 351.793L323.717 300.696Z" fill="#4BBEA5" stroke="#502A73" stroke-width="0.51" stroke-linecap="round" stroke-linejoin="round"/>
<path d="M345.642 295.364L325.397 306.021" stroke="#502A73" stroke-width="0.51" stroke-linecap="round" stroke-linejoin="round"/>
<path d="M322.037 324.109L342.282 313.451" stroke="#502A73" stroke-width="0.51" stroke-linecap="round" stroke-linejoin="round"/>
<path d="M320.357 333.148L340.602 322.491" stroke="#502A73" stroke-width="0.51" stroke-linecap="round" stroke-linejoin="round"/>
<path d="M318.677 342.188L338.93 331.531" stroke="#502A73" stroke-width="0.51" stroke-linecap="round" stroke-linejoin="round"/>
<path d="M321.578 299.303C317.743 302.167 315.231 303.173 314.383 323.017C313.536 342.861 313.505 369.942 315.643 378.564C317.782 387.186 324.036 388.989 333.447 386.358C342.858 383.726 356.298 371.776 369.318 340.926C382.338 310.076 384.912 297.523 384.928 293.491C384.943 289.458 385.045 282.113 374.817 278.244C372.763 277.47 369.24 275.976 369.24 275.976L362.147 279.846C357.5 282.352 352.163 283.294 346.933 282.531C344.009 282.113 340.711 282.469 338.292 285.163C334.995 288.893 333.991 297.848 333.229 309.666C332.902 314.759 330.585 338.605 330.421 344.061C330.41 344.382 330.29 344.689 330.081 344.934C329.872 345.178 329.586 345.345 329.27 345.408C329.069 345.447 328.862 345.442 328.663 345.395C328.464 345.348 328.277 345.26 328.115 345.135C327.953 345.011 327.82 344.853 327.724 344.673C327.628 344.493 327.572 344.295 327.559 344.092C327.341 339.959 327.746 327.405 328.033 319.457C328.951 294.025 323.017 298.227 321.578 299.303Z" fill="#4BBEA5" stroke="#502A73" stroke-width="0.51" stroke-linecap="round" stroke-linejoin="round"/>
<path d="M374.793 278.244C372.74 277.47 361.369 272.71 361.369 272.71L362.676 279.559C367.578 282.342 373.057 283.967 378.69 284.312L383.116 284.644C381.708 282.23 379.211 279.954 374.793 278.244Z" fill="#4BBEA5" stroke="#502A73" stroke-width="0.51" stroke-linecap="round" stroke-linejoin="round"/>
<path d="M372.88 281.866C364.924 286.3 365.032 291.571 365.382 297.028C365.732 302.484 373.378 313.985 368.042 322.638C362.707 331.291 354.649 327.963 347.929 334.65C341.209 341.337 346.568 357.543 346.156 366.096C345.744 374.648 331.899 379.183 331.899 379.183L337.756 384.601C346.731 379.88 358.172 367.326 369.318 340.919C382.346 310.076 384.912 297.515 384.928 293.483C384.928 290.534 384.99 285.828 381.039 281.989C379.009 280.635 376.279 279.954 372.88 281.866Z" fill="#008056" stroke="#502A73" stroke-width="0.51" stroke-linecap="round" stroke-linejoin="round"/>
<path d="M321.99 378.092C320.868 378.968 320.066 380.185 319.705 381.557C319.344 382.93 319.444 384.382 319.991 385.692C323.165 387.913 327.722 387.96 333.447 386.358C336.651 385.468 340.33 383.486 344.289 380.05C337.624 375.878 327.956 372.829 321.99 378.092Z" fill="#008056" stroke="#502A73" stroke-width="0.51" stroke-linecap="round" stroke-linejoin="round"/>
<path d="M356.632 284.095L355.419 287.508C353.49 292.926 350.838 302.167 350.838 302.167L357.838 302.004L357.418 283.7L356.632 284.095Z" fill="#008056" stroke="#502A73" stroke-width="0.51" stroke-linecap="round" stroke-linejoin="round"/>
<path d="M126.62 328.009L135.736 289.791L93.9691 241.426L71.4291 276.007L66.6146 296.695L94.7857 335.625" fill="#BF792A"/>
<path d="M126.62 328.009L135.736 289.791L93.9691 241.426L71.4291 276.007L66.6146 296.695L94.7857 335.625" stroke="#502A73" stroke-width="0.51" stroke-linecap="round" stroke-linejoin="round"/>
<path d="M126.511 313.598C122.296 311.423 113.678 308.822 110.676 308.18C109.179 307.849 107.836 307.032 106.857 305.858L94.9646 291.548C93.0887 289.533 90.7276 288.028 88.1046 287.175L66.6301 280.983C66.6301 280.983 56.9701 276.873 40.7534 274.42C24.5368 271.967 10.5601 276.138 3.7779 286.625C-3.00432 297.112 61.9868 344.2 61.9868 344.2L107.487 371.412C107.487 371.412 118.376 365.995 120.88 353.751C122.436 345.918 126.659 330.532 128.852 321.422C127.546 318.698 128.969 316.903 126.511 313.598Z" fill="#4BBEA5" stroke="#502A73" stroke-width="0.51" stroke-linecap="round" stroke-linejoin="round"/>
<path d="M120.896 353.681C122.35 346.491 127.048 329.975 129.506 320.3C129.837 319.025 129.731 317.676 129.204 316.467C128.677 315.258 127.759 314.259 126.597 313.629H126.527C123.478 320.641 116.058 338.751 112.947 347.598L108.84 359.207C108.84 359.207 108.358 365.236 107.502 371.343C109.758 370.182 118.734 364.315 120.896 353.681Z" fill="#4BBEA5" stroke="#502A73" stroke-width="0.51" stroke-linecap="round" stroke-linejoin="round"/>
<path d="M103.225 325.471C77.0835 318.064 80.0857 301.168 64.709 292.036C57.0401 287.485 51.1679 288.623 41.9979 284.768C36.6154 282.575 32.0875 278.713 29.0868 273.755L19.9557 286.316C19.9557 286.316 53.4623 322.081 53.8746 322.429C54.2868 322.777 68.3568 343.38 75.4813 352.985L88.6646 361.661C92.079 362.915 95.0968 363.983 95.0968 363.983L96.1546 366.622L107.533 371.382C107.533 371.382 118.422 365.964 120.927 353.72C121.58 350.508 122.669 345.981 123.882 341.205C124.279 339.441 121.712 330.718 103.225 325.471Z" fill="#008056" stroke="#502A73" stroke-width="0.51" stroke-linecap="round" stroke-linejoin="round"/>
<path d="M20.3057 288.568C20.3057 288.568 31.7312 279.281 29.0868 273.755C18.0034 274.382 8.86454 278.693 3.79343 286.556C1.98898 289.358 5.28676 294.752 11.089 301.169C15.9579 304.404 20.0101 307.043 20.0101 307.043L20.3057 288.568Z" fill="#008056" stroke="#502A73" stroke-width="0.51" stroke-linecap="round" stroke-linejoin="round"/>
<path d="M28.9857 285.929C4.9757 277.106 -2.63095 288.429 2.54127 303.335C8.81016 321.492 28.2079 337.181 46.8746 350.168C61.7379 360.515 77.8302 370.848 89.1157 373.263C109.26 377.574 114.362 364.176 115.202 361.777C118.547 352.234 116.26 339.332 71.9268 314.945C63.8846 310.518 43.8101 291.378 28.9857 285.929Z" fill="#502A73" stroke="#502A73" stroke-width="0.51" stroke-linecap="round" stroke-linejoin="round"/>
<path d="M28.9857 285.929C4.9757 277.106 -2.63096 288.429 2.54127 303.335C8.81016 321.492 28.2079 337.181 46.8746 350.168C61.7379 360.515 77.8302 370.848 89.1157 373.263C109.26 377.573 114.362 364.176 115.202 361.777C118.547 352.234 116.26 339.332 71.9268 314.945C63.8846 310.518 43.8101 291.378 28.9857 285.929Z" stroke="#502A73" stroke-width="0.51" stroke-linecap="round" stroke-linejoin="round"/>
<path d="M98.5113 308.405C98.5113 308.405 107.44 312.058 112.636 314.596L117.831 317.112L97.889 315.347L98.5113 308.405Z" fill="#008056" stroke="#502A73" stroke-width="0.51" stroke-linecap="round" stroke-linejoin="round"/>
<path d="M366.191 261.224C365.842 259.103 365.049 257.079 363.865 255.282C362.681 253.485 361.131 251.955 359.316 250.791L302.779 213.997C299.847 212.087 297.329 209.61 295.374 206.715C293.42 203.82 292.069 200.564 291.4 197.14V197.063C290.095 190.439 289.679 183.673 290.164 176.94C290.56 172.23 290.56 167.495 290.164 162.784C289.114 152.669 282.386 135.843 282.386 135.843L206.335 139.713L180.956 143.637L138.232 154.472L132.469 174.456L116.299 183.395C108.407 187.76 101.817 194.126 97.1969 201.846L59.5369 274.358C65.3858 268.453 86.4091 264.684 109.455 278.801C129.848 291.292 142.681 308.49 141.126 319.967L158.354 235.714C159.286 231.133 161.894 227.06 165.672 224.283L227.117 179.061L239.958 233.857C242.33 244.008 247.508 253.297 254.907 260.674L304.304 309.952C313.489 319.093 333.859 313.652 349.78 297.801C361.711 285.89 367.778 271.525 366.191 261.224Z" fill="white" stroke="#502A73" stroke-width="0.51" stroke-linecap="round" stroke-linejoin="round"/>
<path d="M360.366 284.164C361.573 282.094 362.638 279.946 363.555 277.733C352.152 270.597 327.948 255.543 315.628 248.516C298.221 238.578 283.055 226.233 279.578 219.167C275.619 211.126 274.483 206.01 272.407 174.146C271.629 162.537 269.078 137.46 269.055 137.213C269.033 136.95 268.981 136.69 268.899 136.439L261.985 136.787C261.905 137.156 261.884 137.534 261.922 137.909C261.922 138.165 264.497 163.102 265.251 174.587C267.398 207.511 268.743 213.363 273.138 222.279C275.378 226.829 280.457 232.34 288.227 238.594C295.742 244.558 303.709 249.935 312.058 254.676C324.502 261.805 349.282 277.23 360.366 284.164Z" fill="white" stroke="#502A73" stroke-width="0.51" stroke-linecap="round" stroke-linejoin="round"/>
<path d="M66.6224 280.914L84.3869 286.061C84.7991 279.668 84.978 262.308 74.9602 259.398C68.0846 257.401 57.4135 259.22 55.0802 265.249C53.4702 269.428 54.8624 273.917 57.0946 277.787C60.3308 278.638 63.5124 279.682 66.6224 280.914Z" fill="#4BBEA5" stroke="#502A73" stroke-width="0.51" stroke-linecap="round" stroke-linejoin="round"/>
<path d="M66.6223 280.914L79.9301 284.784C80.0937 281.73 80.0131 278.668 79.689 275.628C79.2301 271.696 77.8456 264.932 73.6923 263.724C71.1297 263.061 68.4546 262.947 65.8445 263.391C59.9723 264.359 57.2268 266.673 56.6201 268.229C55.4534 271.27 57.0323 275.07 59.2645 278.422C61.7579 279.128 64.2137 279.96 66.6223 280.914Z" fill="#4BBEA5" stroke="#502A73" stroke-width="0.51" stroke-linecap="round" stroke-linejoin="round"/>
<path d="M314.531 296.052C311.879 297.353 303.845 300.58 303.176 303.931C302.32 308.203 313.575 312.53 318.731 314.271C326.47 313.606 335.539 309.666 343.955 302.972C342.446 302.902 340.066 302.445 339.078 300.379C337.935 298.057 337.802 294.04 336.006 292.399C332.622 289.319 329.379 288.777 314.531 296.052Z" fill="#4BBEA5" stroke="#502A73" stroke-width="0.51" stroke-linecap="round" stroke-linejoin="round"/>
<path d="M340.843 305.286C337.561 305.084 335.142 303.908 334.473 300.518C334.162 299.078 333.361 293.924 329.231 294.953C326.579 295.619 322.519 297.151 316.53 300.085C316.141 300.278 315.643 300.503 315.076 300.766C312.843 301.795 311.086 302.693 309.81 303.444C309.615 303.564 309.453 303.729 309.335 303.924C309.218 304.12 309.15 304.341 309.136 304.568C309.122 304.796 309.164 305.023 309.256 305.232C309.349 305.44 309.491 305.623 309.67 305.765C313.028 308.614 316.812 310.925 320.886 312.615C322.436 313.237 324.153 313.317 325.754 312.839C331.153 311.13 336.246 308.58 340.843 305.286Z" fill="#4BBEA5" stroke="#502A73" stroke-width="0.51" stroke-linecap="round" stroke-linejoin="round"/>
<path d="M288.289 128.459C284.587 120.673 282.844 117.121 280.931 107.563C279.766 101.939 279.53 96.1647 280.231 90.4658C280.231 90.4658 269.039 72.1617 273.511 60.1499C277.983 48.1381 288.421 47.1706 288.421 47.1706C280.017 46.315 271.534 46.6198 263.213 48.0762C250.722 50.0343 235.524 55.8157 235.524 55.8157C235.524 55.8157 202.321 61.4889 187.987 66.1713C187.326 66.388 186.657 66.6356 185.996 66.8988C173.722 77.4091 170.969 90.3497 173.551 98.1977C175.984 105.456 176.35 113.244 174.609 120.697C173.053 127.763 170.798 136.656 168.955 141.594C167.111 146.531 168.076 151.578 174.298 153.203C174.298 153.203 179.913 154.07 197.787 155.115C215.66 156.159 230.57 153.721 244.415 151.632C258.259 149.542 282.845 149.565 282.845 149.565C285.285 149.81 287.729 149.124 289.681 147.646C292.66 145.208 293.36 139.148 288.289 128.459Z" fill="#008056" stroke="#502A73" stroke-width="0.51" stroke-linecap="round" stroke-linejoin="round"/>
<path d="M103.722 82.045C104.08 77.4786 103.427 72.5021 104.345 69.0967C105.262 65.6913 107.666 57.8433 102.05 57.348C97.7256 56.961 93.6656 65.6216 93.6656 65.6216C93.6656 65.6216 91.9934 54.0122 90.3756 47.5265C88.6645 40.6769 83.1034 40.5067 81.3456 43.7728C80.0078 46.2804 81.3456 53.7181 81.3456 53.7181C81.3456 53.7181 80.1867 43.9508 75.7845 44.6938C70.0445 45.6535 72.2301 55.4595 72.2301 55.4595C72.2301 55.4595 69.8967 49.0589 66.5678 50.3824C62.1501 52.1702 64.1723 61.7441 64.1723 61.7441C64.1723 61.7441 60.929 57.1003 58.5567 61.0475C56.1845 64.9947 57.6856 81.124 63.029 93.0275C67.5634 103.089 72.2301 105.341 72.2301 105.341C72.2301 105.341 102.4 98.8476 103.722 82.045Z" fill="#BF792A" stroke="#502A73" stroke-width="0.51" stroke-linecap="round" stroke-linejoin="round"/>
<path d="M81.3457 53.7183L83.1035 64.3292" stroke="#502A73" stroke-width="0.51" stroke-linecap="round" stroke-linejoin="round"/>
<path d="M72.2301 55.4597L74.7735 66.8911" stroke="#502A73" stroke-width="0.51" stroke-linecap="round" stroke-linejoin="round"/>
<path d="M64.1725 61.7443C64.8447 64.8843 65.6912 67.9849 66.708 71.0318L68.1158 74.9402" fill="#BF792A"/>
<path d="M64.1725 61.7443C64.8447 64.8843 65.6912 67.9849 66.708 71.0318L68.1158 74.9402" stroke="#502A73" stroke-width="0.51" stroke-linecap="round" stroke-linejoin="round"/>
<path d="M93.6656 65.6216C92.7931 66.6336 91.8066 67.5425 90.7256 68.3304C89.17 69.414 83.1034 74.2125 83.5389 81.627" fill="#BF792A"/>
<path d="M93.6656 65.6216C92.7931 66.6336 91.8066 67.5425 90.7256 68.3304C89.17 69.414 83.1034 74.2125 83.5389 81.627" stroke="#502A73" stroke-width="0.51" stroke-linecap="round" stroke-linejoin="round"/>
<path d="M168.993 141.632C170.837 136.656 173.069 127.763 174.648 120.735C176.389 113.282 176.023 105.495 173.59 98.2364C170.969 90.3884 173.722 77.4479 186.034 66.9375C160.111 77.2544 137.913 121.687 137.742 121.176C137.571 120.666 125.998 100.589 119.34 96.5801C112.682 92.571 107.246 94.1344 107.246 94.1344C107.246 94.1344 86.5567 106.518 81.3845 110.326C76.2123 114.133 74.3845 116.641 74.4389 123.94C74.4778 132.515 85.5067 154.124 103.217 165.308C120.927 176.491 132.492 174.471 132.492 174.471L174.383 153.273C168.114 151.616 167.15 146.601 168.993 141.632Z" fill="#008056" stroke="#502A73" stroke-width="0.51" stroke-linecap="round" stroke-linejoin="round"/>
<path d="M107.355 93.9099L102.952 85.5125L72.2301 105.341L76.5312 114.629L107.355 93.9099Z" fill="#008056" stroke="#502A73" stroke-width="0.51" stroke-linecap="round" stroke-linejoin="round"/>
<path d="M137.704 121.138C137.704 121.138 135.37 125.147 134.289 135.069C133.847 140.091 134.087 145.149 135.005 150.107" fill="#008056"/>
<path d="M137.704 121.138C137.704 121.138 135.37 125.147 134.289 135.069C133.847 140.091 134.087 145.149 135.005 150.107" stroke="#502A73" stroke-width="0.51" stroke-linecap="round" stroke-linejoin="round"/>
<path d="M345.16 168.187C345.16 168.187 342.695 181.878 340.252 187.536C337.919 193.015 334.31 199.919 325.794 198.371C324.767 198.185 321.57 200.29 319.175 199.648C317.067 199.091 316.989 197.729 315.885 197.427C314.329 196.993 313.17 198.975 309.079 197.303C306.505 196.243 307.065 194.478 305.968 194.091C304.871 193.704 299.264 194.579 298.33 189.989C298.133 188.21 298.337 186.409 298.929 184.718L300.524 180.539L298.641 178.07C296.518 175.276 296.938 171.793 299.116 168.783C304.226 161.654 313.894 157.467 313.894 157.467C313.894 157.467 319.268 156.012 330.896 156.376C347.525 156.895 345.16 168.187 345.16 168.187Z" fill="#BF792A" stroke="#502A73" stroke-width="0.51" stroke-linecap="round" stroke-linejoin="round"/>
<path d="M300.492 180.563C301.502 178.393 302.743 176.338 304.195 174.433L300.492 180.563Z" fill="#BF792A"/>
<path d="M300.492 180.563C301.502 178.393 302.743 176.338 304.195 174.433" stroke="#502A73" stroke-width="0.51" stroke-linecap="round" stroke-linejoin="round"/>
<path d="M294.589 103.693C310.448 112.849 317.922 111.541 317.922 111.541C317.922 111.541 310.549 122.376 307.936 130.727C304.218 142.546 312.509 150.657 312.509 150.657C312.509 150.657 343.48 157.375 348.738 158.598C353.996 159.82 368.058 137.569 370.142 112.593C371.947 91.0155 365.88 85.3115 345.3 71.5273C324.72 57.7431 291.634 47.3798 288.445 47.1476C288.445 47.1476 277.999 48.0918 273.535 60.1268C269.07 72.1619 280.239 90.4351 280.239 90.4351C280.239 90.4351 286.912 99.2659 294.589 103.693Z" fill="#008056" stroke="#502A73" stroke-width="0.51" stroke-linecap="round" stroke-linejoin="round"/>
<path d="M312.486 150.656L309.631 159.689L345.16 168.187L348.715 158.597L312.486 150.656Z" fill="#008056" stroke="#502A73" stroke-width="0.51" stroke-linecap="round" stroke-linejoin="round"/>
<path d="M339.724 91.7427C339.724 91.7427 333.151 94.3586 325.965 101.642C322.992 104.701 320.293 108.013 317.899 111.541C317.899 111.541 316.149 110.496 316.935 104.575C317.72 98.6541 323.157 92.9655 323.157 92.9655" fill="#008056"/>
<path d="M339.724 91.7427C339.724 91.7427 333.151 94.3586 325.965 101.642C322.992 104.701 320.293 108.013 317.899 111.541C317.899 111.541 316.149 110.496 316.935 104.575C317.72 98.6541 323.157 92.9655 323.157 92.9655" stroke="#502A73" stroke-width="0.51" stroke-linecap="round" stroke-linejoin="round"/>
<path d="M211.11 69.6074C211.11 69.6074 202.796 83.7554 207.945 88.4456C213.094 93.1358 222.256 87.0602 230.982 87.1298C243.427 87.2305 243.427 93.2364 243.427 93.2364" stroke="#502A73" stroke-width="2.56" stroke-linecap="round" stroke-linejoin="round"/>
<path d="M211.11 69.6074C211.11 69.6074 202.796 83.7554 207.945 88.4456C213.094 93.1358 222.256 87.0602 230.982 87.1298C243.427 87.2305 243.427 93.2364 243.427 93.2364" stroke="#EEC718" stroke-width="1.54" stroke-linecap="round" stroke-linejoin="round"/>
<path d="M243.466 96.9361C244.827 96.9361 245.931 95.8376 245.931 94.4826C245.931 93.1276 244.827 92.0292 243.466 92.0292C242.104 92.0292 241 93.1276 241 94.4826C241 95.8376 242.104 96.9361 243.466 96.9361Z" fill="#EEC718" stroke="#502A73" stroke-width="0.51" stroke-linecap="round" stroke-linejoin="round"/>
<path d="M214.836 58.7568C214.836 58.7568 203.667 72.4171 213.428 75.4278C221.097 77.7497 229.512 68.1139 234.661 63.8185C244.321 55.7074 254.028 51.0714 259.177 49.6241C268.671 46.9166 278.606 46.0831 288.421 47.1706C288.421 47.1706 296.977 44.5082 294.06 34.5164C291.144 24.5246 274.095 19.7415 255.07 27.1483C243.667 31.5668 233.655 38.9328 226.067 48.4864" fill="#008056"/>
<path d="M214.836 58.7568C214.836 58.7568 203.667 72.4171 213.428 75.4278C221.097 77.7497 229.512 68.1139 234.661 63.8185C244.321 55.7074 254.028 51.0714 259.177 49.6241C268.671 46.9166 278.606 46.0831 288.421 47.1706C288.421 47.1706 296.977 44.5082 294.06 34.5164C291.143 24.5246 274.095 19.7415 255.07 27.1483C243.667 31.5668 233.655 38.9328 226.067 48.4864" stroke="#502A73" stroke-width="0.51" stroke-linecap="round" stroke-linejoin="round"/>
<path d="M225.53 65.2346C225.53 65.2346 218.172 77.765 222.73 81.9212C227.288 86.0773 235.408 80.6906 243.131 80.7525C254.191 80.8453 254.191 86.1702 254.191 86.1702" stroke="#502A73" stroke-width="2.56" stroke-linecap="round" stroke-linejoin="round"/>
<path d="M225.53 65.2346C225.53 65.2346 218.172 77.765 222.73 81.9212C227.288 86.0773 235.408 80.6906 243.131 80.7525C254.191 80.8453 254.191 86.1702 254.191 86.1702" stroke="#EEC718" stroke-width="1.54" stroke-linecap="round" stroke-linejoin="round"/>
<path d="M254.121 90.3499C255.483 90.3499 256.587 89.2514 256.587 87.8964C256.587 86.5414 255.483 85.443 254.121 85.443C252.759 85.443 251.656 86.5414 251.656 87.8964C251.656 89.2514 252.759 90.3499 254.121 90.3499Z" fill="#EEC718" stroke="#502A73" stroke-width="0.51" stroke-linecap="round" stroke-linejoin="round"/>
<path d="M217.309 65.7222L235.525 51.1099C234.583 40.4834 232.662 19.7491 231.387 14.1689C229.333 5.18321 228.003 2.83034 222.053 1.35982C214.058 -0.629255 201.761 14.0759 201.761 14.0759C201.761 14.0759 200.921 22.7443 200.548 27.4267C200.524 27.9996 200.301 28.5465 199.918 28.9746L195.733 33.6803C195.573 33.8858 195.465 34.1265 195.418 34.3822C195.371 34.638 195.386 34.9012 195.462 35.1499C195.538 35.3986 195.673 35.6255 195.856 35.8115C196.038 35.9975 196.263 36.1372 196.511 36.2189L199.692 37.4959C200.361 37.8055 200.283 38.4944 199.591 39.6553C198.619 41.2961 200.229 42.132 200.602 42.31C200.941 42.51 201.312 42.6513 201.699 42.7279L201.769 45.9089C201.769 45.9089 200.633 46.172 200.532 47.0698C200.416 48.1533 200.96 48.5017 201.022 49.1363C201.178 50.5913 201.318 51.2569 201.458 52.2321C201.581 53.1113 202.05 53.9059 202.762 54.4413C203.474 54.9767 204.37 55.2093 205.253 55.088L213.809 53.9193L216.36 66.1401L217.309 65.7222Z" fill="#BF792A" stroke="#502A73" stroke-width="0.51" stroke-linecap="round" stroke-linejoin="round"/>
<path d="M210.566 41.5749C210.794 41.6527 211.036 41.6813 211.276 41.6586C211.516 41.6359 211.749 41.5625 211.958 41.4433C210.954 40.4094 209.878 39.4473 208.738 38.5642C208.022 38.1849 206.14 38.3243 203.426 38.5642C202.323 38.6592 201.213 38.549 200.151 38.2391C200.084 38.7592 199.892 39.2556 199.591 39.6864C199.529 39.787 199.482 39.8954 199.436 39.9883C200.485 40.3805 201.585 40.6203 202.702 40.7003C204.549 40.7869 206.4 40.6806 208.225 40.383C208.984 40.8203 209.765 41.2181 210.566 41.5749Z" fill="#502A73" stroke="#502A73" stroke-width="0.51" stroke-linecap="round" stroke-linejoin="round"/>
<path d="M210.566 41.5749C210.794 41.6527 211.036 41.6813 211.276 41.6586C211.516 41.6359 211.749 41.5625 211.958 41.4433C210.954 40.4094 209.878 39.4473 208.738 38.5642C208.022 38.1849 206.14 38.3243 203.426 38.5642C202.323 38.6592 201.213 38.549 200.151 38.2391C200.084 38.7592 199.892 39.2556 199.591 39.6864C199.529 39.787 199.482 39.8954 199.436 39.9883C200.485 40.3805 201.585 40.6203 202.702 40.7003C204.549 40.7869 206.4 40.6806 208.225 40.383C208.984 40.8203 209.765 41.2181 210.566 41.5749Z" stroke="#502A73" stroke-width="0.51" stroke-linecap="round" stroke-linejoin="round"/>
<path d="M212.409 16.2356C213.335 15.926 210.69 16.607 211.266 16.5993C212.128 16.6005 212.99 16.5566 213.848 16.4677L214.626 17.5281C215.404 18.5884 219.666 16.7541 219.798 16.878C219.93 17.0018 216.842 20.1905 217.091 21.483C217.34 22.7755 219.215 21.9938 219.355 22.3653C219.495 22.7368 216.679 25.7475 216.967 26.5679C217.097 26.8308 217.283 27.0629 217.511 27.2485C217.739 27.4341 218.004 27.5688 218.289 27.6437C218.289 27.6437 217.387 31.2349 220.07 32.3881C222.754 33.5413 223.555 31.7379 223.726 26.9704C223.78 25.5153 224.69 24.4008 225.686 24.78C227.475 25.4534 229.792 29.0987 229.792 29.0987C229.792 29.0987 231.729 35.6929 234.218 36.5442C233.324 27.4192 232.258 17.8454 231.402 14.0994C229.349 5.11377 228.019 2.76095 222.069 1.29043C217.402 0.129489 210.939 2.62164 205.681 5.702C204.569 6.35212 204.126 4.85064 200.237 4.92804C197.126 4.97448 195.391 10.7637 198.308 13.9911C200.4 16.3749 209.119 17.3578 212.409 16.2356Z" fill="#502A73" stroke="#502A73" stroke-width="0.51" stroke-linecap="round" stroke-linejoin="round"/>
<path d="M212.409 16.2356C213.335 15.926 210.69 16.607 211.266 16.5993C212.128 16.6005 212.99 16.5566 213.848 16.4677L214.626 17.5281C215.404 18.5884 219.666 16.7541 219.798 16.878C219.93 17.0018 216.842 20.1905 217.091 21.483C217.34 22.7755 219.215 21.9938 219.355 22.3653C219.495 22.7368 216.679 25.7475 216.967 26.5679C217.097 26.8308 217.283 27.0629 217.511 27.2485C217.739 27.4341 218.004 27.5688 218.289 27.6437C218.289 27.6437 217.387 31.2349 220.07 32.3881C222.754 33.5413 223.555 31.7379 223.726 26.9704C223.78 25.5153 224.69 24.4008 225.686 24.78C227.475 25.4534 229.792 29.0987 229.792 29.0987C229.792 29.0987 231.729 35.6929 234.218 36.5442C233.324 27.4192 232.258 17.8454 231.402 14.0994C229.349 5.11377 228.019 2.76095 222.069 1.29043C217.402 0.129489 210.939 2.62164 205.681 5.702C204.569 6.35212 204.126 4.85064 200.237 4.92804C197.126 4.97448 195.391 10.7637 198.308 13.9911C200.4 16.3749 209.119 17.3578 212.409 16.2356Z" stroke="#502A73" stroke-width="0.51" stroke-linecap="round" stroke-linejoin="round"/>
<path d="M224.364 28.3091C224.381 27.5422 224.536 26.7846 224.822 26.0723C225.849 23.9284 228.136 22.8682 230.267 23.8898C232.398 24.9114 232.95 27.3648 232.429 29.6867C232.036 31.6577 231.026 33.4541 229.544 34.8181C228.571 35.6307 227.506 35.9481 226.565 35.4992" fill="#BF792A"/>
<path d="M224.364 28.3091C224.381 27.5422 224.536 26.7846 224.822 26.0723C225.849 23.9284 228.136 22.8682 230.267 23.8898C232.398 24.9114 232.95 27.3648 232.429 29.6867C232.036 31.6577 231.026 33.4541 229.544 34.8181C228.571 35.6307 227.506 35.9481 226.565 35.4992" stroke="#502A73" stroke-width="0.51" stroke-linecap="round" stroke-linejoin="round"/>
<path d="M223.617 33.8353C223.411 34.2028 223.122 34.5173 222.772 34.7538C222.422 34.9903 222.022 35.1423 221.602 35.1975C220.28 35.2672 218.857 33.8973 218.857 33.8973" stroke="#502A73" stroke-width="0.51" stroke-linecap="round" stroke-linejoin="round"/>
<path d="M223.477 36.0566C223.271 36.4241 222.982 36.7387 222.632 36.9751C222.282 37.2116 221.882 37.3636 221.462 37.4188C220.14 37.4962 218.717 36.1186 218.717 36.1186" stroke="#502A73" stroke-width="0.51" stroke-linecap="round" stroke-linejoin="round"/>
<path d="M226.495 28.5877C226.495 28.5877 227.055 26.0801 229.178 27.0863C230.547 27.7364 230.212 30.0118 228.929 30.6852C228.365 30.8978 227.744 30.9115 227.171 30.7239C227.357 30.8603 227.492 31.0549 227.554 31.2765C227.616 31.4982 227.602 31.7342 227.514 31.9467C227.07 32.8213 226.098 32.086 226.098 32.086" fill="#BF792A"/>
<path d="M226.495 28.5877C226.495 28.5877 227.055 26.0801 229.178 27.0863C230.547 27.7364 230.212 30.0118 228.929 30.6852C228.365 30.8978 227.744 30.9115 227.171 30.7239C227.357 30.8603 227.492 31.0549 227.554 31.2765C227.616 31.4982 227.602 31.7342 227.514 31.9467C227.07 32.8213 226.098 32.086 226.098 32.086" stroke="#502A73" stroke-width="0.51" stroke-linecap="round" stroke-linejoin="round"/>
<path d="M208.388 42.9913C208.283 42.8158 208.125 42.6777 207.936 42.5971C207.748 42.5165 207.538 42.4973 207.338 42.5424C206.216 42.7608 205.08 42.9055 203.939 42.9758C203.182 43.0106 202.425 42.9323 201.691 42.7436L201.777 45.9788C201.786 46.2714 201.902 46.5508 202.102 46.7655C202.302 46.9803 202.573 47.1159 202.866 47.1475C203.566 47.2038 204.271 47.1142 204.935 46.8843C207.447 46.1103 208.699 43.5563 208.388 42.9913Z" fill="white" stroke="#502A73" stroke-width="0.51" stroke-linecap="round" stroke-linejoin="round"/>
<path d="M207.284 27.0088C208.016 26.8379 208.782 26.8782 209.492 27.125" stroke="#502A73" stroke-width="1.02" stroke-linecap="round" stroke-linejoin="round"/>
<path d="M207.602 27.0012C207.337 27.501 207.188 28.0539 207.167 28.6188C207.112 29.563 207.439 30.0274 207.867 30.0506C208.295 30.0738 208.645 29.6404 208.722 28.7039C208.759 28.1385 208.666 27.5722 208.45 27.0477L207.602 27.0012Z" fill="#502A73"/>
<path d="M200.346 26.6375C201.079 26.4651 201.846 26.5081 202.555 26.7613" stroke="#502A73" stroke-width="1.02" stroke-linecap="round" stroke-linejoin="round"/>
<path d="M200.672 26.6298C200.405 27.1293 200.254 27.682 200.229 28.2474C200.182 29.1916 200.501 29.6637 200.929 29.6869C201.357 29.7101 201.707 29.2767 201.785 28.3325C201.819 27.7678 201.729 27.2024 201.52 26.6762L200.672 26.6298Z" fill="#502A73"/>
<path d="M205.067 23.9984C205.109 24.0893 205.17 24.1702 205.246 24.2358C205.322 24.3013 205.411 24.35 205.508 24.3786C205.604 24.4071 205.706 24.415 205.805 24.4014C205.905 24.3879 206.001 24.3534 206.086 24.3002C206.491 24.019 206.95 23.8219 207.433 23.7209C207.917 23.6198 208.416 23.6168 208.901 23.712C209.418 23.813 209.918 23.9849 210.387 24.2228C210.482 24.2716 210.589 24.2953 210.696 24.2917C210.803 24.2881 210.908 24.2574 211 24.2023C211.091 24.1473 211.168 24.0698 211.221 23.9772C211.275 23.8847 211.303 23.78 211.305 23.6733C211.307 23.5811 211.288 23.4896 211.251 23.4053C211.213 23.321 211.157 23.246 211.087 23.1857C210.303 22.4356 209.258 22.0166 208.17 22.0166C207.083 22.0166 206.037 22.4356 205.254 23.1857C205.141 23.2845 205.062 23.4161 205.028 23.562C204.995 23.7079 205.008 23.8606 205.067 23.9984Z" fill="#502A73"/>
<path d="M202.01 22.2801C201.705 22.1687 201.375 22.1367 201.054 22.1873L200.898 23.828C201.066 23.7736 201.244 23.7552 201.419 23.7739C201.825 23.8252 202.215 23.9625 202.563 24.1763C202.648 24.2241 202.742 24.2541 202.839 24.2643C202.936 24.2745 203.034 24.2648 203.128 24.2358C203.221 24.2068 203.307 24.1591 203.381 24.0956C203.455 24.0321 203.515 23.9542 203.558 23.8667C203.623 23.7263 203.642 23.5688 203.611 23.4171C203.581 23.2654 203.502 23.1274 203.387 23.0231C202.978 22.6933 202.511 22.4414 202.01 22.2801Z" fill="#502A73"/>
<path d="M230.352 10.0671C229.855 10.338 229.302 10.7637 228.649 11.0656C215.66 16.9941 204.258 16.0034 201.645 15.6087C201.512 16.9941 201.31 19.1612 201.108 21.4134C205.747 22.0792 210.453 22.1416 215.108 21.5991C221.781 20.9413 228.33 18.4491 231.853 16.8857C231.682 15.7867 231.511 14.858 231.356 14.1692C231.029 12.6058 230.733 11.2513 230.352 10.0671Z" fill="#008056" stroke="#502A73" stroke-width="0.51" stroke-linecap="round" stroke-linejoin="round"/>
<path d="M214.478 68.6633C214.478 68.6633 223.384 55.653 237.5 48.8809C248.039 43.8192 259.768 41.6986 271.271 41.6986C284.494 41.6986 285.271 33.0767 278.987 30.987C272.702 28.8973 262.622 33.8352 262.622 33.8352" fill="#008056"/>
<path d="M214.478 68.6633C214.478 68.6633 223.384 55.653 237.5 48.8809C248.039 43.8192 259.768 41.6986 271.271 41.6986C284.494 41.6986 285.271 33.0767 278.987 30.987C272.702 28.8973 262.622 33.8352 262.622 33.8352" stroke="#502A73" stroke-width="0.51" stroke-linecap="round" stroke-linejoin="round"/>
<path d="M194.077 80.1954C193.192 80.0377 192.282 80.1039 191.43 80.3879C190.578 80.6719 189.811 81.1646 189.2 81.8207C188.982 81.635 187.365 80.4121 184.339 81.8749C181.438 83.2758 180.567 86.24 181.065 87.5557C181.329 88.2445 181.99 87.3777 183.087 86.3793C184.642 84.963 185.607 85.4893 185.607 85.4893C185.607 85.4893 183.235 86.6115 182.348 88.2987C181.461 89.986 182.558 92.0524 183.553 90.6206C185.202 88.2523 186.206 88.0666 186.206 88.0666C185.559 88.7397 185.045 89.5272 184.689 90.3884C184.191 91.6809 184.549 92.8806 185.381 92.7722C185.887 92.7026 188.173 88.0433 187.847 90.7522C187.459 93.4531 187.334 96.1849 187.473 98.9097C187.543 99.7688 188.08 100.326 188.71 100.218L189.286 100.117C189.653 99.9953 189.972 99.763 190.201 99.4524C190.429 99.1418 190.555 98.7683 190.561 98.3834C190.758 95.6953 190.693 92.9944 190.367 90.3188C190.102 87.7183 192.288 91.619 192.793 91.5107C193.633 91.3404 194.015 90.0092 193.571 88.887C193.247 88.1753 192.74 87.5613 192.101 87.1069C192.101 87.1069 193.112 86.9521 194.715 88.7554C195.679 89.8544 196.822 87.4087 195.967 86.0156C195.111 84.6224 192.762 84.2974 192.762 84.2974C193.131 84.0411 193.571 83.9068 194.021 83.9138C194.47 83.9207 194.906 84.0685 195.267 84.3361C196.348 84.9707 196.993 85.6131 197.273 84.8314C197.424 84.315 197.457 83.7718 197.371 83.2409C197.285 82.7101 197.082 82.2048 196.776 81.7615C196.471 81.3181 196.07 80.9477 195.603 80.6769C195.136 80.4061 194.615 80.2417 194.077 80.1954Z" fill="#EEC718" stroke="#502A73" stroke-width="0.51" stroke-linecap="round" stroke-linejoin="round"/>
<path d="M306.178 96.2784C308.457 86.511 311.879 82.0607 311.879 82.0607L305.657 77.208C305.657 77.208 300.99 82.2388 298.392 93.2367C297.416 97.1256 297.026 101.137 297.234 105.14C299.752 106.515 302.349 107.743 305.011 108.816C304.876 104.605 305.268 100.393 306.178 96.2784Z" fill="#4BBEA5" stroke="#502A73" stroke-width="0.51" stroke-linecap="round" stroke-linejoin="round"/>
<path d="M297.821 56.9654L294.371 63.2744C291.846 67.8926 293.561 73.6734 298.202 76.1862L317.113 86.4248C321.754 88.9376 327.564 87.2307 330.089 82.6125L333.538 76.3035C336.063 71.6852 334.348 65.9044 329.707 63.3917L310.796 53.153C306.155 50.6403 300.346 52.3471 297.821 56.9654Z" fill="#4BBEA5" stroke="#502A73" stroke-width="0.51" stroke-linecap="round" stroke-linejoin="round"/>
<path d="M299.083 54.6507L295.633 60.9597C293.108 65.5779 294.823 71.3587 299.464 73.8715L318.375 84.1101C323.016 86.6229 328.826 84.916 331.351 80.2978L334.8 73.9888C337.325 69.3705 335.61 63.5897 330.969 61.077L312.058 50.8383C307.417 48.3256 301.608 50.0324 299.083 54.6507Z" fill="#4BBEA5" stroke="#502A73" stroke-width="0.51" stroke-linecap="round" stroke-linejoin="round"/>
<path d="M327.737 66.4369L309.291 56.4497C307.563 55.5141 305.4 56.1496 304.459 57.8693L301.263 63.716C300.322 65.4356 300.961 67.5881 302.689 68.5238L321.136 78.5109C322.864 79.4465 325.027 78.811 325.967 77.0914L329.164 71.2447C330.104 69.525 329.465 67.3725 327.737 66.4369Z" fill="#502A73" stroke="#502A73" stroke-width="0.51" stroke-linecap="round" stroke-linejoin="round"/>
<path d="M327.737 66.4369L309.291 56.4497C307.563 55.5141 305.4 56.1496 304.459 57.8693L301.263 63.716C300.322 65.4356 300.961 67.5881 302.689 68.5238L321.136 78.5109C322.864 79.4465 325.027 78.811 325.967 77.0914L329.164 71.2447C330.104 69.525 329.465 67.3725 327.737 66.4369Z" stroke="#502A73" stroke-width="0.51" stroke-linecap="round" stroke-linejoin="round"/>
<path d="M227.101 179.045C222.249 178.466 217.497 177.234 212.977 175.384C207.837 173.41 202.467 172.091 196.994 171.46" fill="white"/>
<path d="M227.101 179.045C222.249 178.466 217.497 177.234 212.977 175.384C207.837 173.41 202.467 172.091 196.994 171.46" stroke="#502A73" stroke-width="0.51" stroke-linecap="round" stroke-linejoin="round"/>
<path d="M210.231 174.378L146.212 206.041C139.465 209.383 134.189 215.076 131.388 222.039L108.739 278.406" fill="white"/>
<path d="M210.231 174.378L146.212 206.041C139.465 209.383 134.189 215.076 131.388 222.039L108.739 278.406" stroke="#502A73" stroke-width="0.51" stroke-linecap="round" stroke-linejoin="round"/>
</svg>
