<svg width="176" height="92" viewBox="0 0 176 92" fill="none" xmlns="http://www.w3.org/2000/svg">
<path d="M157.524 19.1643C157.524 11.3023 151.157 4.90614 143.331 4.90614H19.0786C11.2521 4.90614 4.88499 11.3023 4.88499 19.1643V72.8357C4.88499 80.6966 11.2521 87.0939 19.0786 87.0939H143.331C151.157 87.0939 157.524 80.6966 157.524 72.8357V19.1643ZM0 72.8357V19.1643C0 8.59667 8.55881 -7.62939e-06 19.0786 -7.62939e-06H143.331C153.851 -7.62939e-06 162.409 8.59667 162.409 19.1643V72.8357C162.409 83.4033 153.851 92 143.331 92H19.0786C8.55881 92 0 83.4033 0 72.8357Z" fill="#263238"/>
<path d="M158.898 55.0807V36.9187C158.898 34.1825 161.127 31.9437 163.851 31.9437H165.477C171.265 31.9437 176 36.7012 176 42.5158V49.4847C176 55.2982 171.265 60.0557 165.477 60.0557H163.851C161.127 60.0557 158.898 57.8169 158.898 55.0807Z" fill="#263238"/>
</svg>
