<svg width="27" height="27" viewBox="0 0 27 27" fill="none" xmlns="http://www.w3.org/2000/svg">
<path d="M23.8933 25.4467C24.424 25.4467 24.8267 25.0427 24.8267 24.5133V3.10667C24.8267 2.576 24.424 2.17333 23.8933 2.17333H2.48667C1.956 2.17333 1.55333 2.576 1.55333 3.10667V24.5133C1.55333 25.0427 1.956 25.4467 2.48667 25.4467H11.988V18.44H8.55867V12.6067H11.988V10.8067C11.988 7.768 14.3627 5.168 17.3947 4.89867H22.5333V10.732H17.9027L17.836 12.6067H22.1013V18.44H17.8213V25.4467H23.8933ZM16.268 27V16.8867H20.5467V14.1533H16.268V10.8067C16.268 9.896 16.984 9.17867 17.9027 9.17867H20.9733V6.45333H17.4707C15.2813 6.64667 13.5413 8.56667 13.5413 10.8067V14.1533H10.1133V16.8867H13.5413V27H2.48667C1.09067 27 0 25.9093 0 24.5133V3.10667C0 1.70934 1.09067 0.612 2.48667 0.612H23.8933C25.2907 0.612 26.388 1.70934 26.388 3.10667V24.5133C26.388 25.9093 25.2907 27 23.8933 27H16.268Z" fill="#9B945F"/>
</svg>
