<?xml version="1.0" encoding="utf-8"?>
<!-- Generator: Adobe Illustrator 27.0.0, SVG Export Plug-In . SVG Version: 6.00 Build 0)  -->
<svg version="1.1" id="Layer_1" xmlns="http://www.w3.org/2000/svg" xmlns:xlink="http://www.w3.org/1999/xlink" 
	 viewBox="100 0 400 300" style="enable-background:new 0 0 0 0;" xml:space="preserve">
	 
<style type="text/css">
	.st0{fill:#0D9DDC;}
	.st1{fill:#12A4D9;}
	.st2{fill:#21B4D0;}
	.st3{fill:#16A9D6;}
	.st4{fill:#0999DF;}
	.st5{fill:#23B6CF;}
	.st6{fill:#22B6D0;}
	.st7{fill:#10A0DB;}
	.st8{fill:#16A7D7;}
	.st9{fill:#11A3D9;}
	.st10{fill:#21B5CF;}
	.st11{fill:#20B3D0;}
	.st12{fill:#1EB2D1;}
	.st13{fill:#22B6CF;}
	.st14{fill:#0899DF;}
	.st15{fill:#20B4D0;}
	.st16{fill:#109FDA;}
	.st17{fill:#12A3D8;}
	.st18{fill:#1EB1D2;}
	.st19{fill:#0B9CDC;}
	.st20{fill:#10A1DA;}
	.st21{fill:#13A5D8;}
	.st22{fill:#19ABD4;}
	.st23{fill:#24B2CF;}
	.st24{fill:#1BAED3;}
	.st25{fill:#1FB4D0;}
	.st26{fill:#1DB1D1;}
	.st27{fill:#21ABD2;}
	.st28{fill:#1FB0D5;}
	.st29{fill:#0D9BDC;}
	.st30{fill:#E8A4AF;}
	.st31{fill:#D481A6;}
	.st32{fill:#C09CB4;}
	.st33{fill:#CE96AF;}
	.st34{fill:#A690B3;}
	.st35{fill:#8498BD;}
	.st36{fill:#60A2C8;}
	.st37{fill:#908FB4;}
	.st38{fill:#E88AA7;}
	.st39{fill:#FAA89F;}
	.st40{fill:#1AB1CC;}
	.st41{fill:#F59EAC;}
	.st42{fill:#13AAD0;}
	.st43{fill:#099FD5;}
	.st44{fill:#95A1BF;}
	.st45{fill:#0197DB;}
	.st46{fill:#799FC1;}
	.st47{fill:#F698AB;}
	.st48{fill:#A589AE;}
	.st49{fill:#F38FA7;}
	.st50{fill:#BE7EA6;}
	.st51{fill:#E08DA9;}
	.st52{fill:#D0A4AB;}
	.st53{fill:#C3A4A7;}
	.st54{fill:#1AB2CB;}
	.st55{fill:#B592B2;}
	.st56{fill:#84A2BB;}
	.st57{fill:#E980A3;}
	.st58{fill:#39A5CE;}
	.st59{fill:#C182A8;}
	.st60{fill:#9AA3BA;}
	.st61{fill:#1CAAD9;}
	.st62{fill:#DA7CA3;}
	.st63{fill:#F2A994;}
	.st64{fill:#F5A788;}
	.st65{fill:#E378A0;}
	.st66{fill:#DDAA9D;}
	.st67{fill:#D781A7;}
	.st68{fill:#4DA1CA;}
	.st69{fill:#52A0CA;}
	.st70{fill:#7B98BE;}
	.st71{fill:#1FB3D0;}
</style>
<g id="unnamed-3.psd">
	<g>
		<path class="st0" d="M392.9,88.8c1.8,1.4,4.3,2.6,3,5.4c-1,2.2-3.1,3.1-5.8,3.1c-17.5-0.2-34.9-0.2-52.4-0.2
			c-1.3-3.6-0.6-6.6,3-8.5C358.2,88.7,375.6,88.2,392.9,88.8z"/>
		<path class="st1" d="M356.6,139.6c3.2,0.5,4,2.7,3.5,5.5c-0.5,2.8-2.6,3.1-4.9,3.1c-16.4-0.1-32.8-0.1-49.2-0.2
			c-0.7-2.6-3.5-4.1-3.2-7.2c0.6-1.1,1.6-1.4,2.8-1.4C322.6,139.6,339.6,139.4,356.6,139.6z"/>
		<path class="st2" d="M251.5,159c-1.4,2.1-3.6,2.1-5.8,2.1c-13.2,0-26.3,0-39.5,0c-3.2,0-6.3-0.3-6.3-4.5c0.1-4.2,3.3-4.4,6.4-4.5
			c11.8-0.3,23.6,0.6,35.4-0.5C246.7,151.9,249,155.6,251.5,159z"/>
		<path class="st3" d="M339.9,166c1.8,1.3,2.5,2.9,1.5,5c-1,2.2-2.8,3-5.2,2.9c-9.1-0.1-18.1-0.1-27.2-0.2
			c-5.8-0.8-11.6-0.3-17.4-0.3c-3,0-4.8-0.7-4.8-4c0-3.3,1.9-4.1,4.9-4c15.1,0.1,30.3,0,45.4,0.1C338,165.5,339,165.3,339.9,166z"/>
		<path class="st4" d="M373,63.1c5.5,0,11,0,16.5,0c3,0,5.5,0.9,5.5,4.3c0,3.6-2.5,4.7-5.7,4.7c-11.1,0-22.3-0.1-33.4,0
			c-3.2,0-5.4-1.4-5.5-4.4c-0.1-3.5,2.5-4.6,5.7-4.6C361.7,63.1,367.3,63.1,373,63.1z"/>
		<path class="st5" d="M245.1,173.8c-13.2,0.1-26.4,0.1-39.6,0.1c-2.7,0-5-0.8-5.4-3.9c-0.4-2.9,0.9-4.7,4.1-4.9
			c13.1,0.7,26.2,0.2,39.2,0.2c3.2,0,5.4,1,7.1,3.6c1.9,3.1,1.3,4.2-2.4,4.4C247,173.5,246,173.4,245.1,173.8z"/>
		<path class="st6" d="M294,211.8c-19,0.1-38,0.1-56.9,0.2c-2.8,0-4.9-1-5.2-4.1c-0.2-3.1,1.6-4.8,4.5-4.8c24.6-0.1,49.3,0,73.9,0
			c0.6,0,1.2,0.6,1.7,0.8c-1.7,1.7-3.9,1.5-6.1,1.6c-8.1,0-16.2,0.2-24.3-0.1c-8.6-0.2-17.2,0.7-25.5-0.6c-0.2-0.3-0.2-0.2-0.1-0.1
			c9,7.7,19.8,4,29.9,4.8C288.7,209.9,292.1,208.2,294,211.8z"/>
		<path class="st7" d="M330.7,100.1c1.4,1.8,3.4,0.9,5.1,0.9c14.4,0.1,28.9,0,43.3,0.1c1.8,0,3.7-0.6,5.3,0.8c-1.6,2-3.9,1.6-6,1.6
			c-7.1,0.1-14.3,0.1-21.6,0c1.3,3.2,3.6,4.2,6.8,4.1c5.1-0.1,10.3-0.1,15.4,0c2.1,0,4.4-0.3,6.1,1.4c-0.8,1.1-2,1-3.2,1
			c-18-0.1-36-0.1-54-0.2C326.2,105,327,102.4,330.7,100.1z"/>
		<path class="st8" d="M335,160.9c-15,0-29.9-0.1-44.9-0.1c-0.9-3.9-0.3-7.3,3.9-9c16.2,0.1,32.4,0.2,48.6,0.3c1.9,0,4-0.7,5.7,0.8
			c-1.7,1.9-3.9,1.5-6,1.5c-7.3,0.1-14.5,0.1-21.7,0c1.6,3.4,4.3,4.2,7.7,4.3C330.5,158.6,333.6,157.5,335,160.9z"/>
		<path class="st9" d="M369.9,122.8c-16.7,0.1-33.4,0.1-50.1,0.1c-1.1,0-2.3,0.1-3.3-0.9c0-3.9,0.5-7.6,4.2-9.9
			c0.9,2.8,3.3,1.7,5,1.7c15.1,0.1,30.1,0,45.2,0.1c1.7,0,3.7-0.7,5.2,0.9c-1.8,2-4.3,1.5-6.6,1.5c-6.6,0.1-13.3,0-19.9,0.1
			c-1.3,0-3.5-0.5-3.5,1.7c0,1.8,1.9,2.1,3.4,2.2c5,0.3,10,0,14.9,0.2C366.5,120.7,369,120,369.9,122.8z"/>
		<path class="st10" d="M257,236.9c-2.6-0.7-3.4-2.6-2.8-4.9c0.6-2.4,2.6-3.2,5-3.2c10.5,0,21,0,31.4,0c2.2,0,4,0.7,4.7,2.9
			c0.8,2.4,0.1,4.2-2.3,5.2C281,236.2,269,236.1,257,236.9z"/>
		<path class="st11" d="M297,216.1c1.1-0.1,2.3-0.2,3.4-0.2c3,0,4.7,1.6,4.6,4.5c-0.1,2.9-1.8,4.5-4.8,4.5
			c-8.7-0.1-17.5-0.1-26.2-0.2c-1-0.5-2.2-0.9-3-1.7c-1.5-1.4-2.9-3-2.3-5.1c0.7-2.5,3-1.4,4.6-1.5
			C281.2,216.2,289.1,216.9,297,216.1z"/>
		<path class="st12" d="M305,199c-10.7,0-21.3,0-32,0c-0.7-0.4-1.5-0.8-2.1-1.4c-1.3-1.2-2-2.7-1.5-4.5c0.5-2.1,2.4-2,4-2.1
			c11.6-1,23.3-0.3,34.9-0.5c0.9,0.1,2.6,0.7,1.5,1.2c-2.7,1.5-3.1,3.4-2.9,6.1C307,198.6,305.5,198.3,305,199z"/>
		<path class="st13" d="M297,216.1c-6.6,1.9-13.4,0.3-20,0.8c-1.1,0.1-2.3-0.1-3.5,0c-1.4,0.2-3.4-0.8-3.9,1
			c-0.4,1.4,0.8,2.7,1.8,3.8c0.9,1,1.7,2,2.6,3c-8.6,0.1-17.3,0.1-25.9,0.2c-3.1,0-5.2-1.3-5.2-4.6c0-3.4,2.2-4.5,5.3-4.4
			C264.4,216,280.7,216,297,216.1z"/>
		<path class="st14" d="M349.1,75.7c15.1,0.1,30.2,0.2,45.3,0.2c2.6,0,4.7,0.7,5.4,3.3c0.6,2.3-0.2,4.2-2.9,4.8
			c-10.4-1-20.8-0.2-31.2-0.5c-4.2-3.2-8.6-5.8-14.2-5.3C350.4,78.3,348.4,78,349.1,75.7z"/>
		<path class="st13" d="M251,198.9c-8.7,0.1-17.3,0.1-26,0.2c-3,0-4.9-1.3-4.9-4.3c0-3.1,2-4.2,5-4.2c8.6,0,17.3-0.7,25.9,0.2
			C248.1,193.5,251.3,196.2,251,198.9z"/>
		<path class="st15" d="M251,198.9c-0.5-0.7-0.9-1.3-1.4-2c-2-2.6-2.9-5,1.5-6.1c22.8-0.7,45.5-0.8,68.3,0c-3.1,2.4-6.2,2.2-9.4,0.3
			c-11.4,0.2-22.9-1.1-34.3,0.8c-6.7,1.1-6.7,1.1-2.6,7.1C265.7,198.9,258.3,198.9,251,198.9z"/>
		<path class="st16" d="M369.9,122.8c-6.2-1.8-12.5-0.4-18.7-0.8c-1.5-0.1-3,0.2-4.5-0.2c-2.9-0.7-3.1-3.5-3.2-5.6
			c0-2,2.4-1.2,3.7-1.2c9.6-0.1,19.3-0.1,28.9-0.1c2.9,1,2.2,3.3,1.7,5.3c-0.4,1.9-2.2,2.7-4.1,2.8
			C372.5,123,371.2,122.9,369.9,122.8z"/>
		<path class="st17" d="M335,160.9c-0.4-0.3-0.8-0.7-1.2-0.7c-6.5,0-13.5,1.2-16.2-7.2c9.9,0,20.3,0,30.7,0c3,0.5,3.1,2.7,2.7,4.9
			c-0.4,2.3-2.7,3-4.5,3.1C342.6,161.2,338.8,160.9,335,160.9z"/>
		<path class="st18" d="M294,211.8c-2.5-1.8-5.3-0.5-8-0.9c-2.2-1.9-4.9-3.5-5-7c10.3,0,20.6,0,31,0c2.7,1.1,2.4,3.4,1.7,5.4
			c-0.6,1.9-2.4,2.6-4.4,2.6C304.2,211.9,299.1,211.9,294,211.8z"/>
		<path class="st19" d="M385,109.1c-4.8,0-9.6,0-14.4,0c-6.6,0-13.9,1.8-17.4-7.2c10.2,0,20.7,0,31.1,0
			C388.1,103.9,388.2,106.3,385,109.1z"/>
		<path class="st20" d="M337,127.1c9.1-0.1,18.1-0.1,27.2-0.2c2.4,0,4.3,0.9,4.7,3.4c0.4,2.3-0.1,4.3-3,4.7
			c-7.9-1.1-15.8-0.2-23.7-0.5C338.7,133.3,337.2,130.6,337,127.1z"/>
		<path class="st15" d="M222.9,148.2c-2.7,0-5.3,0-8,0c-2.9,0-4.9-1.1-5-4.3c-0.1-3.2,1.9-4.3,4.8-4.3c5.6,0,11.3-0.1,16.9-0.1
			c2.8,0,4.4,1.3,4.4,4.2c0,2.8-1.4,4.3-4.2,4.4C228.8,148.2,225.9,148.2,222.9,148.2z"/>
		<path class="st21" d="M337,127.1c1.2,2.4,3.5,4.1,4,6.9c-7.6,1.1-15.2,0.2-22.8,0.5c-1.8,0.1-3.6-0.6-5.3,0.6
			c-1,0.7-2,1.4-3.2,0.3c-1-3.7,0.9-6.2,3.3-8.6C321,126.8,329,126.9,337,127.1z"/>
		<path class="st13" d="M213,186c-3.4-0.2-3.4-2.6-3.1-5c0.3-2.4,2-3.2,4.3-3.1c4.6,0.1,9.2,0.1,13.9,0.2c2.6,1,5.2,0.1,7.8,0.5
			c4,0.6,5.9,3.4,4.5,6.9C231.3,185.8,222.1,184.8,213,186z"/>
		<path class="st22" d="M298,178c9.6-0.1,19.2-0.1,28.7-0.2c2.4,0,4.3,0.7,5,3.1c0.6,2.4-0.2,4.2-2.7,5c-6.6-1-13.3-0.2-19.9-0.4
			C305.6,182.6,301.4,181,298,178z"/>
		<path class="st23" d="M245.1,173.8c0.1-0.1,0.3-0.2,0.4-0.3c1.3-1.6,5.6,1.1,4.7-2.1c-0.6-2.4-2.8-5.5-6.8-5.4
			c-11.3,0.2-22.6,0.1-33.9,0c-1.8,0-3.7,0.6-5.3-0.8c17.9-0.1,35.9-0.2,53.8-0.4c4.2,1,6.5,4.4,9.3,7.2c-0.9,1.6-2.3,2-4.1,2
			C257.1,173.9,251.1,173.9,245.1,173.8z"/>
		<path class="st24" d="M298,178c4,1.4,8.9,1.3,10,6.9c-7.5,1.1-15,0.2-22.5,0.5c-4-1.1-6.3-4.2-8.5-7.4C284,178,291,178,298,178z"
			/>
		<path class="st25" d="M241,185c-1.3-4-3.9-6.3-8.3-6c-1.6,0.1-3.3,0.6-4.6-0.9c9.3,0,18.7,0,28,0c3.4,0.5,6.2,2,7.8,5.1
			c0.6,1.2,0.6,2.2-1.2,2.3C255.5,185.2,248.2,186,241,185z"/>
		<path class="st26" d="M264,185c-2-3.1-4.7-5.3-8-6.9c7,0,14,0,21,0c3.2,1.4,5.8,3.5,7,6.9c-3,1-6,0.2-9.1,0.5
			C271.3,185.2,267.6,186,264,185z"/>
		<path class="st27" d="M339.9,166c-15.8,0-31.5,0-47.3,0c-2.4,0-4.6-0.4-4.7,3.3c-0.1,3.9,2.2,3.5,4.8,3.7
			c5.4,0.3,10.9-1.1,16.2,0.8c-8.6,0-17.2,0.1-25.8,0.1c-1.1,0-2.4,0.1-3.2-0.9c-0.5-4.3,0-8.3,4-11c0.4,3.4,3,2.9,5.3,2.9
			c15,0,30.1,0,45.1,0C336.1,165,338.3,164.3,339.9,166z"/>
		<path class="st28" d="M309.9,191.1c3.1-0.1,6.3-0.2,9.4-0.3c3.3,0,3.9,2.2,3.6,4.7c-0.3,2.5-2.1,3.7-4.5,3.6
			c-4.5,0-9-0.1-13.4-0.2c0.5-0.6,1.4-1.7,1.3-1.9C302.1,191.8,307.2,192.2,309.9,191.1z"/>
		<path class="st29" d="M349.1,75.7c2,2.7,4.9,1,7.3,1.3c4,0.5,7.2,1.9,8.6,6c-4.4,1-8.9,0.2-13.3,0.5c-1.6,0.1-3.3-0.6-4.8,0.6
			c-0.7,0-1.4-0.1-2.1-0.1c-0.7-4,0.2-7.6,3.2-10.5C348.4,74.3,348.7,75,349.1,75.7z"/>
		<path class="st30" d="M323.9,107.2c-2.1-3.8-2.7-8-3.8-12.1c-0.7-2.7,0.3-5.2,3.3-5.5c2.8-0.3,4.8,1,4.6,4.3
			c0.7,4-0.7,7.7-1.8,11.4C325.9,106.2,325.4,107.4,323.9,107.2z"/>
		<path class="st31" d="M283.9,162.1c-1.3,3.7-2.7,7.3-4,11c-3.4-2-3.3-5.6-4-8.9c-0.2-4,0.3-7.8,3.1-11
			C283.1,154.8,282.9,158.7,283.9,162.1z"/>
		<path class="st32" d="M320.8,112.2c-1.4,3.3-2.8,6.6-4.2,9.9c-3.7-1-3-4.4-3.8-7c1-4,0.3-8.8,5-11
			C318.8,106.8,319.8,109.5,320.8,112.2z"/>
		<path class="st33" d="M306.7,134.1c-2.7-2.5-2.6-6-3.6-9.1c1.7-3,2.1-6.8,4.9-9.2c2.9,2,2.4,5.5,3.8,8.2
			C310.4,127.5,310.6,131.8,306.7,134.1z"/>
		<path class="st34" d="M293.9,151.8c-2.7,2.4-2.7,6-3.9,9c-3.1-0.6-4-2.9-4.1-5.6c0.4-4.5,0.2-9.3,4.9-12.1
			C291.9,146,292.9,148.9,293.9,151.8z"/>
		<path class="st35" d="M356.6,139.6c-15.6,0.1-31.1,0.2-46.7,0.3c-2,0-4,0.1-6,0.1c-1.9,0.7-2,3.1-3.7,3.8
			c-0.9,0.3-1.9,0.8-2.6-0.3c0-3.2,0.5-6.2,4.5-6.8c1.1,2.5,3.1,2.4,5.4,2.4c14.8-0.1,29.5-0.1,44.3,0
			C353.4,139.2,355.1,138.8,356.6,139.6z"/>
		<path class="st36" d="M392.9,88.8c-17.6,0.1-35.3,0.2-52.9,0.3c-2.3,2.1-1.9,5.7-4.1,7.9c-0.3,0-0.7,0-1,0
			c-1.1-4.6,0.2-8.4,3.8-10.8c0.7,2.8,3.1,2.1,4.9,2.1c14.6,0,29.3,0,43.9,0C389.4,88.3,391.3,87.7,392.9,88.8z"/>
		<path class="st37" d="M251.5,159c-3.9-1.6-5.9-5.8-9.7-7.4c-0.8-2.4-1.8-4.8-1.6-7.5c5.2,1.1,8.1,4.9,10.9,8.9
			C252.6,154.9,252.4,156.9,251.5,159z"/>
		<path class="st38" d="M290.9,143.1c-2.8,3.6-2.9,8.2-4.9,12.1c-1-3-2.2-5.9-2.8-8.9c-0.5-2.1-0.5-4.4,2.1-5.4
			C287.8,139.8,289.7,140.5,290.9,143.1z"/>
		<path class="st39" d="M331.9,92.2c-1-2.9-2-5.8-3.2-8.7c-1-2.5-0.8-4.7,1.5-6c2.2-1.2,4.4-1,6,1.4
			C335.7,83.7,334.5,88.2,331.9,92.2z"/>
		<path class="st40" d="M264,185c3.7,0,7.3,0,11,0c0.3,0.3,0.4,0.5,0.3,0.7c-0.1,0.2-0.2,0.4-0.3,0.4c-20.7,0.4-41.3,0.5-62-0.1
			c2.7-2,5.8-0.9,8.6-0.9c6.4-0.2,12.9-0.1,19.4-0.1C248.7,185,256.3,185,264,185z"/>
		<path class="st41" d="M317.9,104.1c-2.9,3.1-2.3,7.8-5,11c-0.9-2.3-1.8-4.5-2.5-6.8c-0.7-2.2-0.4-4.3,1.7-5.6
			C314.3,101.4,316.3,101.9,317.9,104.1z"/>
		<path class="st42" d="M275,186.1c0-0.4,0-0.7,0-1.1c3,0,6,0,9,0c8,0,16,0,24,0c7,0.5,14.1-1.1,21,0.9c-10.7,1-21.5,0.3-32.2,0.4
			C289.5,186.4,282.3,186.2,275,186.1z"/>
		<path class="st43" d="M313,135.1c1.6-1.9,3.7-1,5.6-1.1c7.5-0.1,14.9,0,22.4,0c6.8,0,13.5,0,20.3,0c1.6,0,3.3-0.5,4.7,0.9
			c-10.9,1-21.8,0.2-32.7,0.4C326.5,135.5,319.7,135.2,313,135.1z"/>
		<path class="st44" d="M323.9,107.2c2.5-4.1,2.2-9.1,4.2-13.4c1.6,1.8,2,4.1,2.6,6.3c-2.5,2.8-2.5,6.4-2.8,9.8
			C326,109.8,324.4,109.3,323.9,107.2z"/>
		<path class="st45" d="M346.9,84.2c5.9-2.4,12-0.5,18-1.1c9.1,0,18.2,0,27.3,0c1.6,0,3.3-0.5,4.7,0.9c-10.9,1.1-21.8,0.2-32.7,0.4
			C358.5,84.5,352.7,84.3,346.9,84.2z"/>
		<path class="st46" d="M267.3,172c-4.2-1.1-6.2-4.9-9.3-7.2c-0.1-1.3-0.2-2.6-0.3-3.9c5.2,1,8.3,4.6,10.8,8.8
			C268.5,170.8,268.2,171.6,267.3,172z"/>
		<path class="st47" d="M308.1,115.8c-1.3,3.3-1.5,7.1-4.9,9.2c-0.4-1.3-0.9-2.5-1.2-3.8C300.8,116.2,302.8,114.4,308.1,115.8z"/>
		<path class="st48" d="M268.5,169.8c-3.6-2.9-7.2-5.9-10.8-8.8c-0.9-0.8-0.6-1.9-0.7-2.9c0-2.2,1.4-1.2,2.2-0.8
			c3.3,1.8,6.1,4.3,8,7.7C268.2,166.4,268.6,168,268.5,169.8z"/>
		<path class="st49" d="M293.9,138.1c-0.6-1.4-1.3-2.7-1.7-4.1c-0.6-2-0.6-4.1,1.2-5.5c1.8-1.4,3.7-0.8,5.5,0.5
			C298.7,132.9,296.6,135.7,293.9,138.1z"/>
		<path class="st50" d="M251.1,153c-3.6-3-7.3-6-10.9-8.9c0.3-1.2,0.5-2.4,1.8-3c2.9,1.3,5.4,3.2,7,6
			C250.1,148.9,251,150.8,251.1,153z"/>
		<path class="st51" d="M293.9,138.1c1.1-3.4,3.2-6.1,5-9c1.6,0.8,2,2.2,1.9,3.9c-1.5,3.1-1.4,7.4-6,8.1
			C293.8,140.4,294,139.2,293.9,138.1z"/>
		<path class="st52" d="M331.9,92.2c0.7-4.7,1.8-9.2,4.3-13.3c0.5,1.4,1.1,2.8,1.6,4.2c-1.4,4.1-1.9,8.6-4.9,12.1
			C331.8,94.4,332,93.3,331.9,92.2z"/>
		<path class="st53" d="M345.9,66.1c0.4,1.3,0.7,2.6,1.1,3.9c-1,4.3-0.4,9.1-4.8,12c-1.2-1.4-1.2-3.2-1.2-4.9
			c-0.3-0.4-0.3-0.9-0.1-1.3c0.9-2.1,1.1-4.4,2.1-6.5C343.4,67.9,343.6,66,345.9,66.1z"/>
		<path class="st54" d="M257,236.9c1.3-1.4,3.1-0.9,4.7-0.9c8.8,0,17.6,0,26.5,0c1.6,0,3.4-0.5,4.7,0.9
			C281,237.7,269,237.5,257,236.9z"/>
		<path class="st55" d="M294.9,141.1c3.4-1.7,2.9-6.3,6-8.1c0.8,1.1,1.3,2.4,1.2,3.8c-2.5,1.7-3.4,4.4-4.1,7.1c0.1,1.1,0,2.1-1,2.7
			C295.6,145.1,295,143.2,294.9,141.1z"/>
		<path class="st56" d="M342.1,82c1.6-4,3.2-8,4.8-12c0.8,1.1,1.4,2.2,1.1,3.6c-1.1,3.5-2.1,7-3.2,10.5
			C343.3,84.2,342.5,83.4,342.1,82z"/>
		<path class="st57" d="M279,153.2c-1,3.7-2.1,7.3-3.1,11c-1.4-2.1-2.2-4.5-1.9-7C274.2,154.1,275.9,152.7,279,153.2z"/>
		<path class="st58" d="M306.7,134.1c2.1-3.1,2.1-7.4,5.1-10.1c0.4,0.9,0.8,1.8,1.2,2.7c-1.1,2.9-2.2,5.8-3.3,8.6
			C308.6,135.2,307.5,135.1,306.7,134.1z"/>
		<path class="st59" d="M267.1,165c-3.7-1.9-5.5-6.5-10.2-6.9c-1.2-1.1-0.1-2.1,0.3-3.1c2.2-1.4,3.3,0.5,4.6,1.6
			c1.4,1.2,2.8,2.3,4.1,3.4C266.3,161.7,266.7,163.3,267.1,165z"/>
		<path class="st60" d="M332.9,95.2c1.3-4.1,2.1-8.5,4.9-12.1c0.3,1,0.6,2,1,3c-2.2,3.3-3.1,7-3.8,10.8
			C333.9,96.8,333.4,96,332.9,95.2z"/>
		<path class="st61" d="M303,142c1.7,1.6,4,3,3,6c-2,0-4,0-6.1,0C298.6,144.8,301.2,143.6,303,142z"/>
		<path class="st62" d="M249,147.1c-2.5-1.8-5.4-3.1-7-6C246.8,139.6,248.6,141.2,249,147.1z"/>
		<path class="st63" d="M341,76c0,0.4-0.1,0.7-0.1,1.1c-1.2-1.5-1.6-3.3-1.8-5.1c0.7-3.1-0.2-7.3,5.1-7C344,69,342.4,72.5,341,76z"
			/>
		<path class="st64" d="M344,65c-3.6,0.9-2.9,4.9-4.9,7c-2.3-5.7-0.9-7.9,4.9-7.7c0.3,0.2,0.4,0.3,0.3,0.5C344.2,65,344.1,65,344,65
			z"/>
		<path class="st65" d="M259.1,153.3c3.8-1,5.8,0.6,6.1,4.5c0.4,1.2-0.4,1.7-1.2,1.1C261.9,157.5,259.7,156.1,259.1,153.3z"/>
		<path class="st66" d="M344,65c0-0.2,0-0.5,0-0.7c1,0.3,1.7,0.7,1.9,1.8c-3.1,2.6-1.4,7.5-4.9,9.9C341.1,72.1,343.4,68.8,344,65z"
			/>
		<path class="st67" d="M259.1,153.3c2,1.5,2.6,4.9,6.1,4.5c0.2,0.7,0.5,1.5,0.7,2.2c-4.2,0.5-5-4.7-8.7-5
			C257.4,153.9,258.2,153.5,259.1,153.3z"/>
		<path class="st68" d="M303,142c-1,2-2.1,4-3.1,6c-0.9,0.1-1.7,0-2.3-0.9c0.3-1.7,1.5-2.8,2.4-4.1c1.4-0.9,1.6-3.3,4-2.9
			C303.7,140.7,303.3,141.4,303,142z"/>
		<path class="st69" d="M336,97c1-2.8,0.9-6.2,4.1-7.9c-0.7,2.7-1.5,5.3-2.2,8C337.2,97,336.6,97,336,97z"/>
		<path class="st70" d="M300,143c-0.2,1.7-0.7,3.2-2.3,4.1c-0.3,0-0.6-0.2-0.7-0.4c0.1-1,0-2.1,1-2.7
			C298.7,143.7,299.3,143.3,300,143z"/>
		<path class="st71" d="M281,204c1.5,2.5,4.1,4.1,5,7c-6.9,0-13.9-0.1-20.8,0c-2.6,0-4.8,0.1-5.9-3c-0.8-2.1-3.4-2.4-6.1-4
			C263.1,204,272.1,204,281,204z"/>
	</g>
</g>
</svg>
