<?xml version="1.0" encoding="UTF-8"?>
<svg id="Layer_2" data-name="Layer 2" xmlns="http://www.w3.org/2000/svg" viewBox="0 0 57.31 57.31">
  <defs>
    <style>
      .cls-1 {
        fill: #fe8900;
      }

      .cls-1, .cls-2, .cls-3, .cls-4, .cls-5, .cls-6, .cls-7, .cls-8, .cls-9, .cls-10, .cls-11, .cls-12, .cls-13, .cls-14, .cls-15, .cls-16 {
        stroke-width: 0px;
      }

      .cls-2 {
        fill: #fefefe;
      }

      .cls-3 {
        fill: #fe7900;
      }

      .cls-4 {
        fill: #f85a05;
      }

      .cls-5 {
        fill: #fe8100;
      }

      .cls-6 {
        fill: #fe6c00;
      }

      .cls-7 {
        fill: #f06231;
      }

      .cls-8 {
        fill: #fea500;
      }

      .cls-9 {
        fill: #f66b1d;
      }

      .cls-10 {
        fill: #f47702;
      }

      .cls-11 {
        fill: #e24c1b;
      }

      .cls-12 {
        fill: #f97701;
      }

      .cls-13 {
        fill: #fb730a;
      }

      .cls-14 {
        fill: #fe9000;
      }

      .cls-15 {
        fill: #f86f15;
      }

      .cls-16 {
        fill: #f36322;
      }
    </style>
  </defs>
  <g id="Layer_1-2" data-name="Layer 1">
    <g>
      <path class="cls-3" d="m42.69,57.3c-.76,0-1.52,0-2.28,0,0-.56-.04-1.12-.03-1.68,0-.42,0-.84.02-1.27.02-.35-.03-.7,0-1.05.08-.86.21-1.7.37-2.54.13-.65.32-1.27.49-1.91.13-.5.18-1.03.44-1.5.25-.46.35-.98.48-1.49.07-.26.01-.32-.25-.33-.33,0-.65.02-.98,0-.69-.02-1.39-.02-2.08-.06-.07,0-.14-.03-.21-.04-.15-.02-.2-.07-.05-.18.07-.05.15-.11.14-.21-.03-.29.12-.53.25-.77.1-.19.14-.38.06-.58-.19-.48-.18-.97-.12-1.48.06-.55.09-1.12-.04-1.66-.09-.38-.24-.75-.35-1.12-.36-1.17-.96-2.23-1.45-3.34-.39-.87-.9-1.67-1.34-2.51-.1-.19-.15-.43-.4-.51.23-.97.22-1.95.1-2.92-.11-.89-.55-1.62-1.28-2.17-.6-.45-1.28-.64-2.01-.69.02-.13-.08-.19-.15-.26-.71-.69-1.42-1.38-2.12-2.08-.07-.07-.17-.14-.15-.26,1.47,0,2.94,0,4.41,0,.18,0,.25-.04.24-.24-.01-.77-.01-1.53,0-2.3,0-.22-.07-.26-.27-.26-2.22,0-4.44,0-6.66,0-.1,0-.19,0-.29-.01,0-.08,0-.15-.05-.23-.3-.57-.58-1.14-.87-1.72-.04-.09-.05-.18.06-.18.2,0,.37-.11.57-.11.45,0,.9.01,1.35-.04.21-.03.24-.07.13-.25-.34-.58-.68-1.17-1.02-1.75-.57-.97-1.15-1.94-1.76-2.89-.13-.21-.32-.38-.58-.39-.31,0-.61-.06-.91-.07-.25,0-.55.02-.7-.28-.06-.11-.13-.22-.19-.34-.11-.19-.08-.26.14-.24.28.01.52-.06.76-.19.17-.09.23-.24.1-.38-.36-.42-.69-.87-1.02-1.31-.58-.78-1.16-1.56-1.76-2.33-.32-.41-.51-.89-.78-1.33-.46-.76-.95-1.51-1.42-2.27-.08-.14-.15-.27-.34-.26-.05,0-.12-.02-.13-.09-.01-.07.06-.08.1-.12.24-.2.26-.35.06-.6-.04-.04-.08-.08-.12-.12-.47-.39-.78-.94-1.34-1.25-.07-.04-.1-.11-.07-.19.06-.13.03-.25-.02-.38-.1-.29-.05-.52.19-.74.22-.19.32-.44.19-.74-.05-.12,0-.2.06-.29.17-.25.17-.25-.11-.35-.06-.02-.12-.04-.19-.05,0-.13,0-.26,0-.4.06,0,.13-.02.19-.02,1.84,0,3.69,0,5.53,0,.06,0,.13.01.19.02,0,.16.14.28.13.43-.02.34.15.6.3.88.06.1.08.21.12.31.07.2.08.42.26.59.47.43.97.82,1.32,1.38.3.49.74.9,1.13,1.35.09.1.13.28.32.26.18-.02.32.06.46.16.12.08.18.2.29.28.81.57,1.54,1.26,2.47,1.68.5.22.95.54,1.45.76.52.23,1.07.4,1.57.69.44.26.93.48,1.31.81.54.46,1.06.94,1.62,1.36.52.4,1.02.83,1.45,1.34.41.48.84.95,1.22,1.46.43.57.82,1.17,1.23,1.76.69,1,1.37,2,1.98,3.05.72,1.23,1.56,2.38,2.07,3.72.24.64.62,1.22.98,1.8-.11.18-.31.27-.46.42-.86.85-1.72,1.71-2.58,2.56-.37.37-.75.73-1.13,1.1-.08.08-.17.17-.29.12-.11-.05-.11-.17-.11-.27,0-.05,0-.1,0-.15,0-1.92,0-3.83,0-5.75,0-.2-.06-.26-.26-.25-.78.01-1.55.01-2.33,0-.19,0-.22.06-.22.23,0,1.27,0,2.54,0,3.81,0,.17,0,.33.04.5.17.85.7,1.38,1.43,1.76.36.19.75.3,1.13.44-.04.09-.12.09-.18.11-.38.1-.74.25-1.08.45-.78.45-1.3,1.08-1.32,2-.04,1.34-.01,2.68-.02,4.02,0,.17.07.18.2.18.78,0,1.57,0,2.35,0,.21,0,.25-.06.25-.26,0-1.95,0-3.9,0-5.84,0-.12-.03-.26.11-.32.14-.06.22.05.31.14,2.11,2.05,4.22,4.09,6.33,6.14.1.1.2.14.34.14,1.12,0,2.23,0,3.35,0,.06,0,.14.04.2-.06-.69-.67-1.38-1.34-2.07-2.01-1.56-1.52-3.12-3.04-4.69-4.56-.1-.1-.1-.15,0-.24.69-.66,1.38-1.34,2.07-2.01.81-.78,1.61-1.56,2.42-2.34.19.13.24.12.31-.09.03-.1.08-.19.2-.16.47.12.95.05,1.43.11.73.1,1.46.24,2.22.18.46-.04.93.02,1.39.07.46.05.94.1,1.42.03.46-.07.92.1,1.38.13,0,.06,0,.11,0,.17,0,4.38,0,8.76,0,13.15,0,.06,0,.11,0,.17-.2.06-.4.14-.53.32-.13.18-.33.24-.53.26-.14.01-.27.03-.41.05-1.08.17-2.16.36-3.21.69-.49.16-.98.31-1.48.43-.31.07-.54.21-.76.43-.42.43-.91.79-1.5.97-.69.22-1.22.7-1.68,1.22-.63.69-1.01,1.54-1.31,2.42-.23.69-.49,1.38-.78,2.05-.28.66-.59,1.3-.79,1.99-.17.58-.32,1.16-.5,1.74-.18.58-.31,1.17-.43,1.75-.16.83-.31,1.67-.42,2.51-.11.84-.23,1.68-.27,2.54Z"/>
      <path class="cls-7" d="m1.46,49.31c-.35-.64-.6-1.33-.82-2.02C.14,45.7,0,44.07,0,42.42c.02-3.03,0-6.06,0-9.09,0-.09,0-.18,0-.27.54-.11,1.07-.22,1.58-.43.54-.23,1.11-.31,1.66-.48.09-.03.2-.02.29,0,.39.07.79.14,1.18.22.58.12,1.15.31,1.71.51.08.03.14.05.18-.04.02.05.03.09.05.14.44,1.3,1.33,2.09,2.68,2.34.34.06.69.05,1.04.07.04.17.21.16.31.23.08.06.21.11.16.21-.16.27-.08.57-.15.84-.07.27.02.43.22.58.12.09.23.17.35.26.16.12.25.27.24.49-.02.33-.1.65-.12.98-.01.2.07.27.2.32.44.16.86.34,1.27.57.25.14.31.21.26.51-.03.14,0,.27.12.35.3.2.52.5.81.71.18.13.28.29.27.51,0,.13.04.23.16.3.17.09.23.24.16.43-.11.28-.11.58-.16.87-.02.12-.01.25.11.32.12.07.13.18.13.31,0,.17-.05.33-.1.49-.06.2-.15.42-.07.63.03.09.17.13.07.26-.07.08-.16.17-.26.16-.28-.05-.41.16-.59.3-.16.12-.27.34-.51.34-.13,0-.23.05-.33.12-.17.11-.34.27-.52.29-.23.02-.37.12-.5.27-.18,0-.37-.04-.53.02-.4.16-.82.06-1.21.04-.45-.02-.78.06-1.06.39-.12.14-.27.19-.45.19-.37,0-.76-.04-1.1.07-.43.13-.87.07-1.29.17-.32.08-.65.06-.97.18-1.26.47-2.51.95-3.82,1.23Z"/>
      <path class="cls-10" d="m.02,21.04c0-1.35,0-2.7,0-4.04,0-1.12-.03-2.25.01-3.37.1-2.57.87-4.94,2.26-7.1.01-.02.03-.03.05-.05.12.11.27.08.39.03.34-.14.62-.05.88.19.1.09.21.21.36.17.35-.11.71-.13,1.07-.17.44-.04.85-.24,1.29-.26,0,.06.03.11.07.15.28.24.54.5.8.76.13.13.17.26.13.4-.09.33-.01.61.19.86.47.6.95,1.2,1.46,1.76.58.64,1.17,1.28,1.81,1.86.62.57,1.26,1.12,1.91,1.66.21.17.44.31.58.56.67,1.24,1.26,2.52,2,3.73.31.5.5,1.06.84,1.55.27.39.2.5-.28.52-.06,0-.11.01-.16.03-.06.02-.1.07-.07.13.14.28.23.6.57.71.38.12.77.22,1.15.36.26.09.55.11.77.33.13.13.16.29.24.44.19.38.42.75.55,1.15-.53-.09-1.01-.33-1.53-.44,0-.28-.02-.57,0-.85.01-.2-.06-.25-.26-.25-2.26,0-4.52.02-6.79,0-.85,0-1.65.14-2.37.62-.21-.12-.44-.17-.69-.2-.56-.08-1.12-.13-1.66-.28-.52-.14-1.05-.19-1.58-.31-.35-.08-.77,0-1.03-.35-.03-.04-.11-.06-.17-.07-.92-.17-1.85-.2-2.78-.25Z"/>
      <path class="cls-8" d="m37.36.02c.1,0,.19-.02.29-.02,6.45,0,12.9,0,19.35,0,.24,0,.31.05.31.3,0,4.99,0,9.98,0,14.96,0,.08,0,.16,0,.24-.08,0-.14-.03-.21-.06-.24-.11-.46-.26-.72-.34-.7-.22-1.44-.35-2.06-.81-.12-.09-.25-.14-.39-.2-.32-.14-.68-.17-.97-.37-.45-.31-.88-.65-1.33-.97-.54-.38-1.04-.81-1.59-1.17-.2-.13-.41-.24-.55-.48-.54-.94-1.01-1.93-1.7-2.77-.06-.08-.1-.17-.09-.27.02-.17-.07-.29-.16-.41-.29-.39-.63-.73-.9-1.13-.15-.23-.35-.42-.58-.57-.8-.49-1.6-.99-2.42-1.46-.51-.3-1.07-.48-1.55-.84-.29-.22-.59-.42-.91-.6-.63-.34-1.27-.66-1.91-.99-.09-.04-.17-.09-.24-.16-.43-.36-.77-.8-1.14-1.21-.19-.21-.42-.41-.52-.69Z"/>
      <path class="cls-11" d="m1.46,49.31c1.31-.29,2.57-.77,3.82-1.23.31-.12.65-.1.97-.18.42-.1.86-.04,1.29-.17.34-.1.73-.06,1.1-.07.18,0,.33-.05.45-.19.28-.32.61-.41,1.06-.39.39.02.81.12,1.21-.04.15-.06.35-.01.53-.02,0,.09.01.16.1.23.16.13.32.28.42.45.09.16.22.27.35.37.14.1.3.15.22.38-.02.04.03.07.06.09.3.21.34.6.59.85.03.03.01.11,0,.16,0,.05-.03.09-.01.14.19.47.62.58,1.04.72.05.02.09-.02.13-.05.17-.13.33-.26.5-.38.22-.15.34-.51.71-.39.05.01.08-.04.11-.08.37-.38.68-.84,1.25-.95.03,0,.05-.04.08-.06.22-.17.45-.34.66-.52.1-.09.17-.07.27,0,.22.15.41.41.74.26.02-.01.06,0,.09.02.33.1.66.19.92.45.11.12.28.22.46.26,0,.09.03.15.09.21.06.06.09.14.03.2-.19.18-.12.41-.12.62,0,.28-.09.5-.26.71-.16.19-.34.37-.23.66.02.04-.02.11-.03.16-.07.23-.18.43-.32.62-.08.11-.11.23-.07.34.09.27.03.52-.09.75-.11.22-.16.4.07.56.03.02.05.07.05.1-.07.31,0,.57.21.81.01.02.03.05.02.07-.02.3.11.56.19.84.05.16.1.32.19.46.08.12.11.26.08.41-.03.15.01.29.12.4.12.12.18.25.16.41-.1,0-.19.01-.29.01-2.06,0-4.12,0-6.18,0-2.21,0-4.31-.51-6.29-1.49-2.2-1.09-3.97-2.66-5.38-4.66-.41-.58-.78-1.19-1.07-1.85Z"/>
      <path class="cls-14" d="m37.36.02c.11.28.33.47.52.69.37.41.71.85,1.14,1.21.08.06.16.11.24.16.64.33,1.28.64,1.91.99.32.17.62.38.91.6.48.35,1.04.54,1.55.84.81.48,1.61.97,2.42,1.46.23.14.43.34.58.57.27.4.61.75.9,1.13.09.12.18.24.16.41-.01.1.03.19.09.27.7.84,1.17,1.83,1.7,2.77.14.24.35.35.55.48.55.36,1.05.79,1.59,1.17.44.32.87.66,1.33.97.29.2.65.23.97.37.13.06.27.11.39.2.61.45,1.35.58,2.06.81.26.08.48.23.72.34.07.03.13.06.21.06,0,1.37,0,2.75,0,4.12-.19-.05-.39-.1-.58-.16-.59-.17-1.16-.4-1.79-.33-.04,0-.08-.02-.12-.03-.47-.1-.89-.32-1.36-.42-.22-.05-.45,0-.67-.08-.43-.18-.86-.36-1.3-.53-.91-.36-1.82-.72-2.71-1.14-.53-.25-1.05-.51-1.56-.8-.27-.15-.47-.38-.73-.54-.23-.14-.46-.32-.62-.52-.35-.45-.74-.87-1.04-1.36-.17-.28-.17-.36.04-.62.13-.15.16-.32.1-.52-.27-.76-.6-1.5-.99-2.2-.15-.27-.24-.59-.48-.8-.32-.27-.6-.56-.87-.87-.35-.41-.77-.75-1.12-1.17-.13-.16-.24-.34-.44-.44-.48-.25-.9-.6-1.41-.78-.27-.1-.56-.18-.8-.34-.67-.43-1.41-.72-2.08-1.13-.04-.02-.09-.05-.13-.05-.24,0-.45-.12-.62-.24-.55-.4-1.14-.75-1.68-1.17-.44-.35-.87-.71-1.35-1.01-.25-.16-.46-.34-.6-.61-.15-.29-.32-.55-.51-.82-.19-.27-.38-.56-.42-.91.06,0,.13-.02.19-.02,1.85,0,3.69,0,5.54,0,.06,0,.13.01.19.02Z"/>
      <path class="cls-5" d="m57.29,24.43c-.46-.03-.92-.2-1.38-.13-.48.07-.95.02-1.42-.03-.47-.05-.93-.11-1.39-.07-.75.06-1.49-.08-2.22-.18-.48-.07-.96.01-1.43-.11-.12-.03-.17.05-.2.16-.07.21-.13.23-.31.09.73-.76,1.47-1.52,2.18-2.27-1.17,0-2.38,0-3.59,0-.1,0-.18.04-.25.12-.49.48-1,.96-1.49,1.44-.22.22-.41.47-.67.66-.36-.58-.74-1.17-.98-1.8-.51-1.35-1.35-2.5-2.07-3.72-.61-1.05-1.29-2.05-1.98-3.05-.41-.59-.8-1.19-1.23-1.76-.38-.5-.81-.97-1.22-1.46-.43-.51-.93-.94-1.45-1.34-.57-.43-1.08-.91-1.62-1.36-.39-.33-.87-.55-1.31-.81-.49-.29-1.05-.45-1.57-.69-.5-.23-.95-.54-1.45-.76-.92-.42-1.65-1.11-2.47-1.68-.11-.08-.17-.2-.29-.28-.15-.1-.28-.18-.46-.16-.19.02-.23-.16-.32-.26-.39-.44-.83-.85-1.13-1.35-.35-.57-.85-.95-1.32-1.38-.18-.16-.19-.39-.26-.59-.04-.11-.06-.22-.12-.31-.16-.27-.32-.54-.3-.88,0-.15-.13-.27-.13-.43.23-.04.46-.02.7-.02.96,0,1.91,0,2.87,0,.09,0,.18.01.26.02.17.42.35.84.57,1.23.14.24.37.44.43.72.03.13.1.22.19.29.16.14.33.26.49.4.83.72,1.66,1.44,2.5,2.16.18.15.39.3.62.29.21-.01.38.06.54.15.85.46,1.62,1.04,2.49,1.48.65.33,1.28.68,1.93,1.01.18.09.34.21.5.34.45.39.9.78,1.36,1.16.36.29.75.55,1.11.85.3.24.56.54.94.66.04.01.08.06.1.1.3.61.71,1.15.98,1.77.28.65.55,1.31.84,1.95.09.19-.04.37.05.54.28.58.58,1.15.85,1.73.25.53.62,1,.88,1.52.24.48.59.89,1.03,1.19.42.29.89.47,1.39.57.59.12,1.15.34,1.74.46.88.19,1.77.31,2.65.5.78.16,1.55.29,2.35.29.17,0,.37,0,.52.08.45.21.93.16,1.4.2.53.05,1.06.05,1.56.25,0,.84,0,1.68,0,2.52Z"/>
      <path class="cls-4" d="m20.67,57.3c.02-.16-.04-.3-.16-.41-.11-.11-.15-.25-.12-.4.03-.15,0-.29-.08-.41-.09-.15-.14-.3-.19-.46-.08-.28-.22-.54-.19-.84,0-.02,0-.05-.02-.07-.21-.23-.28-.5-.21-.81,0-.03-.02-.09-.05-.1-.24-.16-.19-.34-.07-.56.12-.23.18-.48.09-.75-.04-.11,0-.23.07-.34.14-.19.25-.4.32-.62.02-.05.05-.12.03-.16-.11-.29.07-.47.23-.66.17-.2.27-.43.26-.71,0-.21-.07-.44.12-.62.05-.05.02-.14-.03-.2-.06-.06-.1-.13-.09-.21.35-.45.76-.85,1.15-1.26.45-.47,1.02-.8,1.51-1.23.1-.08.2-.17.32-.22.36-.14.62-.4.86-.69.96.2,1.9.46,2.86.63-.09.4-.43.68-.55,1.07-.09.28-.45.47-.24.84.03.05-.02.13-.06.17-.21.22-.3.51-.41.79-.1.25-.13.53-.32.75-.04.05-.03.13.01.18.23.28.42.6.73.8.46.3.94.55,1.36.91.09.08.24.13.28.07.16-.24.49-.25.62-.41.23-.28.6-.25.82-.52.09-.12.28-.29.49-.32.13-.02.22-.09.29-.2.03-.06.07-.11.14-.13.34-.09.57-.36.84-.55.1-.07.15-.14.19.03.07.27.27.45.44.65.3.36.67.66.91,1.06.55.91,1.15,1.79,1.43,2.83.06.2.17.33.41.34.14,0,.23.1.3.24.16.33.3.67.49.99.29.46.5.97.61,1.51-.06,0-.13.01-.19.01-5,0-9.99,0-14.99,0-.06,0-.13,0-.19,0Z"/>
      <path class="cls-5" d="m42.69,57.3c.03-.85.15-1.69.27-2.54.11-.84.27-1.68.42-2.51.11-.59.25-1.18.43-1.75.18-.58.33-1.16.5-1.74.2-.69.51-1.33.79-1.99.29-.67.54-1.36.78-2.05.3-.89.69-1.73,1.31-2.42.47-.52.99-1,1.68-1.22.59-.19,1.07-.54,1.5-.97.22-.22.45-.36.76-.43.5-.12.99-.27,1.48-.43,1.05-.34,2.13-.52,3.21-.69.14-.02.27-.04.41-.05.2-.02.39-.08.53-.26.13-.18.32-.26.53-.32,0,1.72,0,3.45,0,5.17,0,.28-.01.56-.02.84-.45.07-.9.12-1.26.46-.23.22-.52.39-.8.53-.49.25-1.03.42-1.43.82-.41.41-1,.59-1.34,1.08-.03.04-.08.06-.12.08-.22.13-.44.27-.67.38-.6.3-1.16.65-1.62,1.16-.3.33-.63.65-1.06.82-.07.03-.13.1-.19.15-.42.36-.79.76-1.1,1.23-.4.6-.84,1.18-1.12,1.85-.17.42-.24.87-.47,1.26-.37.66-.6,1.36-.77,2.09-.1.44-.2.87-.3,1.31-.77.13-1.55.17-2.33.13Z"/>
      <path class="cls-1" d="m57.29,21.91c-.5-.21-1.03-.2-1.56-.25-.47-.05-.95,0-1.4-.2-.15-.07-.35-.08-.52-.08-.8,0-1.57-.13-2.35-.29-.88-.18-1.77-.31-2.65-.5-.59-.12-1.15-.34-1.74-.46-.51-.11-.97-.29-1.39-.57-.45-.3-.79-.72-1.03-1.19-.26-.53-.63-.99-.88-1.52-.27-.58-.57-1.16-.85-1.73-.08-.17.04-.35-.05-.54-.29-.64-.56-1.3-.84-1.95-.27-.62-.68-1.16-.98-1.77-.02-.04-.06-.08-.1-.1-.39-.12-.65-.41-.94-.66-.36-.3-.75-.56-1.11-.85-.46-.38-.9-.77-1.36-1.16-.15-.13-.32-.25-.5-.34-.64-.33-1.28-.68-1.93-1.01-.86-.44-1.64-1.03-2.49-1.48-.17-.09-.33-.16-.54-.15-.24.01-.45-.14-.62-.29-.84-.71-1.67-1.44-2.5-2.16-.16-.14-.33-.26-.49-.4-.09-.08-.16-.16-.19-.29-.07-.28-.29-.47-.43-.72-.23-.4-.4-.81-.57-1.23.12,0,.24-.02.36-.02,1.18,0,2.35,0,3.53,0,.1,0,.19.01.29.02.04.35.23.64.42.91.19.26.36.53.51.82.14.27.35.45.6.61.48.3.91.66,1.35,1.01.54.43,1.13.77,1.68,1.17.17.12.38.24.62.24.04,0,.09.02.13.05.67.42,1.41.7,2.08,1.13.24.15.53.24.8.34.51.19.93.54,1.41.78.2.1.31.28.44.44.35.41.76.76,1.12,1.17.27.31.55.6.87.87.25.21.33.53.48.8.39.71.72,1.44.99,2.2.07.2.03.36-.1.52-.21.26-.21.34-.04.62.3.49.68.91,1.04,1.36.16.21.4.38.62.52.26.16.46.39.73.54.51.29,1.03.55,1.56.8.89.42,1.8.78,2.71,1.14.43.17.87.34,1.3.53.22.09.45.03.67.08.46.11.89.33,1.36.42.04,0,.08.03.12.03.63-.07,1.21.16,1.79.33.19.06.39.1.58.16,0,.76,0,1.52,0,2.28Z"/>
      <path class="cls-6" d="m36.05,57.3c-.11-.54-.32-1.05-.61-1.51-.2-.32-.33-.66-.49-.99-.07-.14-.16-.23-.3-.24-.24,0-.35-.14-.41-.34-.28-1.04-.89-1.92-1.43-2.83-.24-.4-.61-.71-.91-1.06-.17-.2-.37-.38-.44-.65-.04-.16-.09-.1-.19-.03-.27.19-.5.46-.84.55-.07.02-.11.07-.14.13-.06.12-.16.18-.29.2-.21.03-.39.21-.49.32-.22.28-.6.24-.82.52-.13.16-.46.17-.62.41-.04.06-.19.01-.28-.07-.42-.36-.9-.61-1.36-.91-.31-.2-.5-.52-.73-.8-.04-.05-.06-.13-.01-.18.19-.21.22-.49.32-.75.11-.28.2-.56.41-.79.04-.04.1-.12.06-.17-.21-.36.15-.56.24-.84.12-.38.46-.66.55-1.07.44-.09.9-.11,1.33-.26.26-.09.52-.15.8-.13.35,0,.7.04,1.05.12.53.12,1.06.22,1.6.04.13-.04.27-.05.4-.06.75-.08,1.49-.16,2.24-.24.2-.03.4.06.6.05.66-.03,1.31-.07,1.97-.14.66-.07,1.31.11,1.97.13.39.01.76.1,1.13.21.31.09.42.36.3.67-.18.47-.36.95-.55,1.42-.06.15-.07.29-.09.44-.02.24.08.48.05.72-.07.56-.04,1.12-.14,1.68-.06.34,0,.68-.06,1.01-.11.61-.11,1.23-.18,1.84-.03.24.09.45.13.66.06.36.04.74.06,1.11.03.6,0,1.21,0,1.82-1.28,0-2.55,0-3.83,0Z"/>
      <path class="cls-14" d="m45.02,57.16c.1-.44.2-.87.3-1.31.17-.73.4-1.44.77-2.09.22-.39.3-.85.47-1.26.28-.67.72-1.25,1.12-1.85.31-.47.68-.87,1.1-1.23.06-.05.12-.12.19-.15.43-.17.76-.49,1.06-.82.46-.51,1.02-.86,1.62-1.16.23-.12.45-.25.67-.38.04-.02.09-.05.12-.08.34-.49.93-.67,1.34-1.08.4-.4.94-.58,1.43-.82.29-.14.57-.31.8-.53.37-.34.81-.39,1.26-.46-.07,1.45-.37,2.86-.9,4.21-1.67,4.17-4.63,6.99-8.88,8.46-.8.28-1.62.47-2.47.56Z"/>
      <path class="cls-12" d="m39.88,57.3c0-.61.02-1.21,0-1.82-.02-.37,0-.75-.06-1.11-.03-.22-.16-.42-.13-.66.07-.61.07-1.23.18-1.84.06-.33,0-.67.06-1.01.1-.55.07-1.12.14-1.68.03-.24-.07-.48-.05-.72.01-.15.03-.3.09-.44.19-.47.36-.95.55-1.42.12-.31.02-.58-.3-.67-.37-.11-.74-.2-1.13-.21-.66-.02-1.31-.2-1.97-.13-.66.07-1.31.11-1.97.14-.2,0-.4-.08-.6-.05-.15-.29-.04-.48.23-.61.02-.01.04-.03.05-.05.15-.16.12-.31-.08-.4-.28-.13-.33-.23-.24-.53.05-.17.15-.33.13-.51-.06-.36.03-.72.1-1.06.07-.32.01-.56-.23-.78-.41-.38-.52-.87-.45-1.41.08-.6.06-1.18-.22-1.74-.27-.52-.57-1.02-.89-1.51-.26-.41-.5-.83-.74-1.24-.08-.14-.23-.26-.2-.45.41-.05.83-.09,1.22-.25.97-.39,1.62-1.09,1.97-2.07.25.08.3.32.4.51.44.84.95,1.64,1.34,2.51.49,1.11,1.1,2.17,1.45,3.34.11.38.27.74.35,1.12.13.55.1,1.12.04,1.66-.06.52-.07,1,.12,1.48.08.2.05.39-.06.58-.13.24-.27.48-.25.77,0,.1-.07.16-.14.21-.15.11-.1.16.05.18.07.01.14.03.21.04.69.04,1.39.04,2.08.06.33,0,.65-.01.98,0,.26,0,.31.07.25.33-.13.51-.23,1.02-.48,1.49-.26.47-.31.99-.44,1.5-.17.64-.36,1.26-.49,1.91-.17.84-.3,1.69-.37,2.54-.03.36.02.71,0,1.05-.03.42-.01.85-.02,1.27-.01.56.02,1.12.03,1.68-.18,0-.36,0-.53,0Z"/>
      <path class="cls-6" d="m6.32,6.44c-.44.02-.85.22-1.29.26-.36.04-.72.06-1.07.17-.15.04-.26-.08-.36-.17-.26-.25-.54-.33-.88-.19-.12.05-.27.07-.39-.03.29-.54.68-1.01,1.08-1.47,1.49-1.73,3.29-3.04,5.39-3.92,1.02-.43,2.08-.74,3.18-.9C12.93.05,13.88-.02,14.83,0c.9.02,1.79-.02,2.69.02,0,.13,0,.26,0,.4-.2.16-.44.35-.41.61.02.2-.02.33-.13.48-.09.12-.17.23-.27.34-.12.13-.25.26-.25.45,0,.15-.05.25-.16.33-.25.21-.51.4-.65.7-.07.15-.2.23-.36.29-.23.08-.42.21-.57.43-.16.23-.36.43-.54.65-.16.19-.35.28-.61.28-.17,0-.33.04-.5.06-.49.08-.97.29-1.49.17-.05-.01-.1,0-.14,0-.95.19-1.9.39-2.85.57-.27.05-.42.31-.71.34-.37.04-.73.1-1.09.2-.15.04-.31.1-.47.1Z"/>
      <path class="cls-13" d="m.02,21.04c.93.05,1.86.08,2.78.25.06.01.14.03.17.07.27.36.68.27,1.03.35.52.11,1.06.17,1.58.31.54.15,1.1.2,1.66.28.24.03.47.08.69.2-.02.02-.04.05-.07.07-.79.62-1.25,1.43-1.31,2.43-.03.46-.02.92-.03,1.38-.61-.16-1.22-.37-1.87-.29-.03,0-.06-.01-.1-.01-.53-.02-1.05-.11-1.57-.18-.49-.06-.99-.13-1.48-.17-.5-.04-.98-.17-1.48-.17,0-1.5,0-3.01,0-4.51Z"/>
      <path class="cls-9" d="m6.62,32.84c-.05.09-.11.07-.18.04-.56-.21-1.12-.39-1.71-.51-.39-.08-.79-.15-1.18-.22-.09-.02-.2-.02-.29,0-.55.17-1.13.25-1.66.48-.5.21-1.04.32-1.58.43,0-1.42,0-2.85,0-4.27.21.02.41-.08.62-.04.35.07.71.13,1.07.18,1.01.16,2.02.33,3.03.52.59.11,1.18.21,1.78.31,0,.14,0,.27.01.41.03.89-.07,1.78.09,2.67Z"/>
      <path class="cls-15" d="m6.52,29.77c-.59-.1-1.19-.2-1.78-.31-1.01-.19-2.02-.36-3.03-.52-.36-.06-.71-.12-1.07-.18-.21-.04-.41.07-.62.04,0-1.08,0-2.17,0-3.25.5,0,.99.13,1.48.17.49.04.99.11,1.48.17.52.07,1.04.16,1.57.18.03,0,.06.02.1.01.65-.08,1.26.14,1.87.29.02,1.13.02,2.26,0,3.4Z"/>
      <path class="cls-12" d="m6.32,6.44c.16,0,.32-.05.47-.1.36-.1.72-.16,1.09-.2.28-.03.44-.29.71-.34.95-.18,1.9-.38,2.85-.57.05,0,.1-.01.14,0,.52.11,1-.1,1.49-.17.17-.03.33-.07.5-.06.26,0,.45-.08.61-.28.18-.22.38-.42.54-.65.15-.21.34-.34.57-.43.16-.06.29-.14.36-.29.14-.3.4-.5.65-.7.1-.09.16-.19.16-.33,0-.19.13-.33.25-.45.1-.11.19-.22.27-.34.11-.14.15-.28.13-.48-.02-.26.21-.45.41-.61.06.02.12.03.19.05.28.09.28.09.11.35-.06.09-.12.17-.06.29.14.29.03.55-.19.74-.24.21-.29.45-.19.74.04.12.07.25.02.38-.04.08,0,.15.07.19.55.3.87.85,1.34,1.25.04.04.08.08.12.12.2.24.19.4-.06.6-.04.03-.12.04-.1.12.01.07.08.09.13.09.19,0,.25.12.34.26.47.76.96,1.51,1.42,2.27.27.44.46.92.78,1.33.6.77,1.18,1.55,1.76,2.33.33.45.66.89,1.02,1.31.12.14.07.29-.1.38-.24.13-.48.2-.76.19-.23-.01-.25.05-.14.24.06.11.13.22.19.34.15.3.45.27.7.28.31,0,.61.06.91.07.26,0,.44.18.58.39.61.95,1.19,1.91,1.76,2.89.34.58.68,1.17,1.02,1.75.11.18.08.22-.13.25-.45.06-.9.05-1.35.04-.2,0-.37.11-.57.11-.11,0-.1.1-.06.18.29.57.58,1.15.87,1.72.04.08.05.15.05.23-.22,0-.43,0-.65.02-1.01.05-1.74.74-1.83,1.74-.02.26-.02.52-.02.77,0,.18-.05.26-.24.27-.82.04-1.52.35-2.02,1.02-.11-.02-.19-.09-.27-.16-.45-.44-.96-.8-1.42-1.22-.53-.49-1.17-.74-1.85-.9-.14-.41-.37-.77-.55-1.15-.07-.15-.11-.32-.24-.44-.21-.22-.51-.24-.77-.33-.38-.13-.77-.24-1.15-.36-.35-.11-.44-.43-.57-.71-.03-.06.01-.11.07-.13.05-.02.11-.03.16-.03.48-.03.55-.13.28-.52-.34-.49-.54-1.05-.84-1.55-.74-1.21-1.33-2.49-2-3.73-.14-.26-.38-.39-.58-.56-.65-.54-1.29-1.09-1.91-1.66-.64-.59-1.22-1.22-1.81-1.86-.51-.57-.99-1.16-1.46-1.76-.2-.25-.28-.54-.19-.86.04-.15,0-.27-.13-.4-.26-.26-.53-.52-.8-.76-.04-.04-.07-.08-.07-.15Z"/>
      <path class="cls-2" d="m22.41,25.69c.51-.67,1.2-.98,2.02-1.02.2,0,.25-.09.24-.27,0-.26,0-.52.02-.77.09-1,.82-1.7,1.83-1.74.22,0,.43-.01.65-.02.1,0,.19.01.29.01,2.22,0,4.44,0,6.66,0,.21,0,.28.04.27.26-.02.77-.01,1.53,0,2.3,0,.2-.06.24-.24.24-1.47,0-2.94,0-4.41,0-1.49,0-2.99,0-4.48,0-.32,0-.5.19-.5.52,0,.43,0,.86,0,1.28,0,.51.29.8.79.8.52,0,1.03,0,1.55,0,1.69,0,3.38,0,5.07,0,.73.05,1.41.23,2.01.69.73.55,1.17,1.28,1.28,2.17.12.97.13,1.96-.1,2.92-.35.98-1,1.68-1.97,2.07-.39.16-.81.2-1.22.25-.09,0-.18-.01-.26-.01-1.5,0-3,0-4.49,0-.18,0-.35-.03-.53.01-.09,0-.18-.02-.26-.02-1.17,0-2.34,0-3.51,0-.35,0-.35,0-.35-.36,0-.63,0-1.26-.01-1.89,0-.05,0-.1.01-.14q0-.39.4-.39c2.93,0,5.86,0,8.8,0,.57,0,.85-.28.85-.85,0-.31,0-.61,0-.92,0-.64-.26-.89-.9-.89-2.16,0-4.31,0-6.47,0-.88,0-1.7-.19-2.4-.74-.53-.42-.89-.96-.98-1.64-.08-.65.02-1.28.37-1.85Z"/>
      <path class="cls-2" d="m45.12,24.11c.26-.19.44-.44.67-.66.49-.49.99-.96,1.49-1.44.07-.07.15-.12.25-.12,1.21,0,2.42,0,3.59,0-.72.75-1.45,1.51-2.18,2.27-.81.78-1.62,1.56-2.42,2.34-.69.67-1.38,1.34-2.07,2.01-.1.1-.1.15,0,.24,1.57,1.52,3.13,3.04,4.69,4.56.69.67,1.38,1.34,2.07,2.01-.06.1-.14.06-.2.06-1.12,0-2.23,0-3.35,0-.14,0-.24-.04-.34-.14-2.11-2.05-4.22-4.09-6.33-6.14-.09-.08-.17-.2-.31-.14-.14.06-.11.2-.11.32,0,1.95,0,3.9,0,5.84,0,.2-.04.26-.25.26-.78-.01-1.57,0-2.35,0-.13,0-.21,0-.2-.18.01-1.34-.01-2.68.02-4.02.02-.92.55-1.55,1.32-2,.34-.2.7-.34,1.08-.45.07-.02.15-.03.18-.11-.38-.14-.77-.25-1.13-.44-.73-.38-1.27-.92-1.43-1.76-.03-.17-.04-.33-.04-.5,0-1.27,0-2.54,0-3.81,0-.18.03-.23.22-.23.78.01,1.55.01,2.33,0,.2,0,.26.05.26.25,0,1.92,0,3.83,0,5.75,0,.05,0,.1,0,.15,0,.11,0,.22.11.27.13.06.21-.04.29-.12.38-.37.76-.73,1.13-1.1.86-.85,1.72-1.7,2.58-2.56.15-.15.35-.23.46-.42Z"/>
      <path class="cls-12" d="m32.17,27.28c-1.69,0-3.38,0-5.07,0-.52,0-1.03,0-1.55,0-.51,0-.79-.29-.79-.8,0-.43,0-.86,0-1.28,0-.33.18-.52.5-.52,1.49,0,2.99,0,4.48,0-.02.12.07.19.15.26.71.69,1.42,1.38,2.12,2.08.07.07.17.13.15.26Z"/>
      <path class="cls-2" d="m6.52,29.77c.02-1.13.02-2.26,0-3.4,0-.46,0-.92.03-1.38.07-1.01.52-1.81,1.31-2.43.02-.02.05-.04.07-.07.72-.48,1.51-.63,2.37-.62,2.26.02,4.52,0,6.79,0,.2,0,.27.05.26.25-.02.28,0,.56,0,.85,0,.49-.02.98,0,1.48,0,.18-.04.23-.23.23-1.24,0-2.48,0-3.73,0-1.08,0-2.16,0-3.24,0-.45,0-.81.3-.82.71,0,.48,0,.95,0,1.43,0,.97,0,1.94,0,2.91,0,.69,0,1.37,0,2.06,0,.48.33.8.81.8.57,0,1.15,0,1.72,0,1.39,0,2.78,0,4.16,0,.27,0,.53.01.8,0,.33,0,.53-.2.54-.53,0-.65,0-1.31,0-1.96,0-.14-.06-.18-.19-.17-.23,0-.47,0-.7,0-1.02,0-1.57-.38-1.92-1.32-.07-.36-.05-.72-.06-1.09,0-.18.05-.23.23-.23,1.69,0,3.38,0,5.07,0,.18,0,.23.04.23.23,0,.97-.01,1.94,0,2.91,0,.36-.04.71-.19,1.04-.1.14-.19.3-.32.42-.5.49-1.12.65-1.78.7-.31.02-.31.02-.29.34,0,.18,0,.35-.01.53-.03.74-.35,1.31-.99,1.69-.29.17-.62.2-.94.25-.99,0-1.98-.02-2.97-.02-.71,0-1.42.01-2.12.02-.35-.02-.7,0-1.04-.07-1.35-.25-2.24-1.04-2.68-2.34-.02-.05-.03-.09-.05-.14-.16-.89-.07-1.78-.09-2.67,0-.14,0-.27-.01-.41Z"/>
      <path class="cls-16" d="m10.39,35.39c.71,0,1.42-.02,2.12-.02.99,0,1.98.01,2.97.02,0,.1.07.14.14.17.33.16.54.49.89.65.12.05.15.19.17.31.02.12.07.2.17.28.16.13.22.29.2.51-.05.49-.09.99.42,1.31.15.1.17.27.15.44-.02.26,0,.52.19.73.18.2.36.42.56.6.17.16.25.32.22.55-.02.19,0,.4.17.51.43.3.51.81.74,1.22.11.19.18.39.37.51.09.06.18.12.17.25-.04.45.31.66.57.91.22.2.54.21.81.33.2.09.45.28.67,0,.01-.02.07-.01.09,0,.23.08.46.17.7.25.3.1.55.49.92.14.02-.02.08,0,.12,0,.19.15.28.39.49.53-.24.29-.5.54-.86.69-.12.05-.22.13-.32.22-.49.43-1.06.76-1.51,1.23-.39.41-.8.81-1.15,1.26-.18-.03-.34-.13-.46-.26-.26-.27-.58-.36-.92-.45-.03,0-.07-.03-.09-.02-.33.15-.52-.11-.74-.26-.1-.07-.16-.09-.27,0-.21.18-.44.35-.66.52-.03.02-.05.05-.08.06-.57.11-.88.58-1.25.95-.03.03-.07.09-.11.08-.37-.11-.49.24-.71.39-.17.12-.33.25-.5.38-.04.03-.08.06-.13.05-.41-.14-.85-.25-1.04-.72-.02-.05,0-.09.01-.14,0-.05.02-.13,0-.16-.25-.25-.29-.64-.59-.85-.03-.02-.08-.05-.06-.09.09-.22-.07-.27-.22-.38-.13-.09-.26-.21-.35-.37-.1-.17-.26-.32-.42-.45-.08-.07-.1-.14-.1-.23.13-.15.27-.25.5-.27.18-.02.35-.18.52-.29.1-.07.21-.11.33-.12.24,0,.35-.22.51-.34.18-.14.31-.35.59-.3.1.02.19-.08.26-.16.11-.12-.03-.17-.07-.26-.08-.21,0-.43.07-.63.05-.16.1-.32.1-.49,0-.13,0-.23-.13-.31-.12-.07-.13-.2-.11-.32.05-.29.06-.59.16-.87.07-.19.02-.34-.16-.43-.12-.07-.16-.16-.16-.3,0-.22-.09-.38-.27-.51-.3-.2-.51-.5-.81-.71-.11-.08-.15-.21-.12-.35.06-.3,0-.37-.26-.51-.41-.23-.83-.41-1.27-.57-.13-.05-.21-.12-.2-.32.02-.33.11-.65.12-.98.01-.23-.08-.37-.24-.49-.11-.09-.23-.17-.35-.26-.2-.15-.29-.32-.22-.58.07-.27,0-.57.15-.84.06-.09-.08-.15-.16-.21-.11-.08-.28-.06-.31-.23Z"/>
      <path class="cls-13" d="m19.82,31.46c.15-.33.19-.68.19-1.04,0-.97,0-1.94,0-2.91,0-.18-.05-.23-.23-.23-1.69,0-3.38,0-5.07,0-.18,0-.24.05-.23.23.01.36-.01.73.06,1.09-.24.02-.42-.16-.62-.24-1.04-.39-2.02-.91-3.1-1.19-.5-.13-.97-.32-1.49-.37,0-.48-.01-.95,0-1.43,0-.4.36-.7.82-.71,1.08,0,2.16,0,3.24,0,1.24,0,2.49,0,3.73,0,.18,0,.23-.05.23-.23,0-.49,0-.98,0-1.48.52.1,1.01.35,1.53.44.69.16,1.32.41,1.85.9.46.42.97.79,1.42,1.22.07.07.16.14.27.16-.36.57-.45,1.2-.37,1.85.08.68.44,1.22.98,1.64.7.55,1.53.74,2.4.74,2.16,0,4.31,0,6.47,0,.64,0,.9.26.9.89,0,.31,0,.61,0,.92,0,.57-.28.85-.85.85-2.93,0-5.86,0-8.8,0q-.39,0-.4.39s0,.1-.01.14c-.08,0-.16,0-.23-.05-.31-.2-.62-.4-.92-.61-.56-.39-1.11-.79-1.77-.99Z"/>
      <path class="cls-15" d="m19.82,31.46c.66.2,1.21.6,1.77.99.3.21.61.41.92.61.07.05.15.06.23.05,0,.63,0,1.26.01,1.89,0,.36,0,.36.35.36,1.17,0,2.34,0,3.51,0,.09,0,.18.01.26.02-.02.12.06.19.14.27.6.56,1.15,1.18,1.68,1.81.21.26.32.59.62.79.1.06.08.2.09.31.04.59-.1,1.18-.01,1.78.07.46.14.92.25,1.37.09.35.1.67.03,1.02-.05.24-.1.51.17.7.08.05.08.16.04.22-.15.27-.1.58-.21.86-.02.06-.04.13-.08.17-.11.11-.1.19.01.28.07.06.13.13.03.22-.21.16-.23.39-.22.63-.28-.02-.54.04-.8.13-.43.15-.89.17-1.33.26-.96-.17-1.91-.43-2.86-.63-.2-.14-.29-.38-.49-.53-.03-.3.19-.52.26-.79.05-.2.1-.37-.09-.52-.06-.05-.13-.14-.11-.21.1-.33.04-.66.07-1,.02-.18.09-.39-.06-.53-.26-.23-.23-.5-.19-.8.04-.29.12-.6-.22-.8-.06-.03-.11-.11-.12-.18-.04-.49-.01-.99-.1-1.48,0-.01.01-.03.01-.05.13-.62-.06-1.13-.53-1.53-.57-.49-1.25-.85-1.78-1.42-.46-.49-1.07-.81-1.57-1.27-.54-.5-1.23-.83-1.73-1.38-.09-.1-.21-.15-.34-.18-.02-.33-.02-.32.29-.34.66-.05,1.29-.21,1.78-.7.13-.13.21-.28.32-.42Z"/>
      <path class="cls-13" d="m29.4,45.82c-.01-.24,0-.47.22-.63.1-.08.05-.15-.03-.22-.11-.09-.12-.18-.01-.28.04-.04.06-.11.08-.17.11-.28.07-.59.21-.86.03-.06.03-.17-.04-.22-.27-.19-.22-.46-.17-.7.07-.35.06-.67-.03-1.02-.11-.45-.18-.91-.25-1.37-.09-.6.05-1.19.01-1.78,0-.12,0-.25-.09-.31-.3-.19-.41-.53-.62-.79-.53-.64-1.07-1.25-1.68-1.81-.08-.07-.16-.14-.14-.27.18-.04.35-.01.53-.01,1.5,0,3,0,4.49,0,.09,0,.18,0,.26.01-.03.19.12.31.2.45.24.42.48.84.74,1.24.32.49.62.99.89,1.51.29.56.31,1.14.22,1.74-.08.54.03,1.03.45,1.41.24.22.3.46.23.78-.08.35-.16.7-.1,1.06.03.18-.08.34-.13.51-.08.3-.04.39.24.53.2.09.22.24.08.4-.02.02-.03.04-.05.05-.27.13-.38.32-.23.61-.75.08-1.49.16-2.24.24-.13.01-.27.02-.4.06-.54.17-1.07.07-1.6-.04-.34-.07-.69-.11-1.05-.12Z"/>
      <path class="cls-9" d="m17.43,32.92c.13.03.25.08.34.18.5.55,1.19.88,1.73,1.38.5.46,1.11.79,1.57,1.27.53.56,1.2.92,1.78,1.42.47.41.66.92.53,1.53,0,.02-.02.03-.01.05.08.49.06.99.1,1.48,0,.06.06.14.12.18.34.19.26.51.22.8-.04.3-.07.57.19.8.16.14.08.35.06.53-.03.33.02.67-.07,1-.02.07.04.16.11.21.19.15.14.32.09.52-.07.27-.28.49-.26.79-.04,0-.1-.01-.12,0-.37.34-.62-.04-.92-.14-.23-.08-.47-.17-.7-.25-.03,0-.08-.01-.09,0-.23.27-.48.08-.67,0-.27-.12-.6-.13-.81-.33-.26-.25-.61-.46-.57-.91.01-.12-.08-.19-.17-.25-.19-.12-.27-.32-.37-.51-.23-.42-.31-.92-.74-1.22-.16-.11-.19-.32-.17-.51.02-.23-.05-.39-.22-.55-.2-.18-.38-.4-.56-.6-.19-.21-.21-.46-.19-.73.01-.17,0-.34-.15-.44-.51-.32-.46-.82-.42-1.31.02-.22-.04-.38-.2-.51-.09-.08-.15-.16-.17-.28-.02-.12-.06-.25-.17-.31-.34-.15-.55-.48-.89-.65-.08-.04-.14-.08-.14-.17.32-.05.65-.08.94-.25.64-.38.97-.94.99-1.69,0-.18,0-.35.01-.53Z"/>
      <path class="cls-15" d="m9.33,26.81c.52.04,1,.24,1.49.37,1.08.28,2.06.8,3.1,1.19.21.08.38.25.62.24.35.94.91,1.32,1.92,1.32.23,0,.47,0,.7,0,.13,0,.19.03.19.17,0,.65,0,1.31,0,1.96,0,.33-.21.52-.54.53-.27,0-.53,0-.8,0,0-.09-.06-.13-.13-.15-.19-.05-.34-.18-.51-.26-.94-.47-1.95-.79-2.91-1.23-.68-.32-1.4-.58-2.1-.86-.34-.13-.67-.28-1.03-.35,0-.97,0-1.94,0-2.91Z"/>
      <path class="cls-9" d="m9.33,29.72c.36.07.69.22,1.03.35.7.28,1.41.54,2.1.86.96.44,1.97.76,2.91,1.23.17.09.32.21.51.26.07.02.13.07.13.15-1.39,0-2.78,0-4.16,0-.57,0-1.15,0-1.72,0-.48,0-.81-.33-.81-.8,0-.69,0-1.37,0-2.06Z"/>
    </g>
  </g>
</svg>