<svg width="277" height="82" viewBox="0 0 277 82" fill="none" xmlns="http://www.w3.org/2000/svg">
<g clip-path="url(#clip0_34_805)">
<path d="M179.462 53.01V61.8974C179.462 73.0001 170.317 82 159.035 82H100.493V65.1376H158.009C160.604 65.1376 162.708 63.0666 162.708 60.5127V53.4901C162.708 50.9362 160.604 48.8651 158.009 48.8651H116.196C105.365 48.8651 96.0732 42.5289 96.0732 32.5662V31.4447C96.0732 23.4473 102.661 16.9642 110.787 16.9642H111.431C111.951 16.9642 112.371 16.5502 112.371 16.0384V11.2416C112.371 5.03358 117.486 0 123.794 0H172.467V16.9668H115.785C114.152 16.9668 112.828 18.2695 112.828 19.8764V28.4108C112.828 30.8945 114.874 32.9074 117.398 32.9074H159.034C170.316 32.9074 179.461 41.9073 179.461 53.01H179.462Z" fill="url(#paint0_radial_34_805)"/>
<path d="M83.4882 32.9074V53.1991C83.4882 59.7919 77.9569 65.1376 68.3913 65.1376H68.2811C67.7611 65.1376 67.3404 65.5516 67.3404 66.0634V70.7584C67.3404 76.9664 62.2257 82 55.9177 82H20.4964C9.21475 82 0.0698242 73.0001 0.0698242 61.8974V20.1568C0.0698242 9.05407 9.21475 0.0541992 20.4964 0.0541992H66.9252V16.9152H22.109C19.4374 16.9152 17.2712 19.0472 17.2712 21.6764V60.3765C17.2712 63.0057 19.4374 65.1376 22.109 65.1376H63.7335C65.5894 65.1376 67.0932 63.6577 67.0932 61.8313V48.8664H60.1696C54.1572 48.8664 49.2844 44.0709 49.2844 38.1539V32.9074H83.4882Z" fill="url(#paint1_radial_34_805)"/>
<path d="M233.973 41.0014L276.686 82.0001H253.206L215.492 45.9053L212.642 43.1769C211.881 42.4482 210.606 42.9786 210.606 44.0234V82.0001H193.404V57.6376C193.404 47.2768 202.619 43.1505 209.453 41.5145C209.908 41.4061 209.908 40.7673 209.453 40.6575C202.619 39.0202 193.404 34.8939 193.404 24.5331V0.00268555H210.606V38.0283C210.606 39.0718 211.881 39.6021 212.642 38.8747L215.472 36.1701L253.303 0.00268555H276.93L233.973 41.0014Z" fill="url(#paint2_radial_34_805)"/>
</g>
<defs>
<radialGradient id="paint0_radial_34_805" cx="0" cy="0" r="1" gradientUnits="userSpaceOnUse" gradientTransform="translate(169.346 1.29741) scale(104.147 102.495)">
<stop stop-color="#FFA300"/>
<stop offset="1" stop-color="#FA3C00"/>
</radialGradient>
<radialGradient id="paint1_radial_34_805" cx="0" cy="0" r="1" gradientUnits="userSpaceOnUse" gradientTransform="translate(0.84 28.992) rotate(10.5832) scale(139.786 53.7112)">
<stop stop-color="#FFA300"/>
<stop offset="1" stop-color="#FA3C00"/>
</radialGradient>
<radialGradient id="paint2_radial_34_805" cx="0" cy="0" r="1" gradientUnits="userSpaceOnUse" gradientTransform="translate(266.411 2.6968) rotate(160.559) scale(168.153 54.8069)">
<stop stop-color="#FFA300"/>
<stop offset="1" stop-color="#FA3C00"/>
</radialGradient>
<clipPath id="clip0_34_805">
<rect width="277" height="82" fill="white"/>
</clipPath>
</defs>
</svg>
