<svg width="49" height="110" viewBox="0 0 49 110" fill="none" xmlns="http://www.w3.org/2000/svg">
<path d="M17.7911 37.4071C20.7031 35.5526 24.5292 36.1808 24.5292 36.1808C25.3918 36.1058 26.2258 36.2455 26.9793 36.5533V36.2788C23.6434 31.8163 25.3273 26.4446 25.3273 26.4446L25.3252 25.8735L23.1866 22.3643L23.3785 20.2793C23.5012 18.9466 22.4502 17.7972 21.1117 17.8004L19.0793 17.8054C19.0793 17.8054 12.6308 16.2894 8.90482 13.4091H8.70373C7.73672 16.1678 7.56378 19.7639 7.56378 19.7639L6.18965 23.0123C5.96234 23.5496 6.25539 24.1647 6.81569 24.3267C7.36956 24.5746 8.99742 24.5177 9.28208 26.0463C9.59532 27.7287 10.5617 30.8145 13.4597 31.2285C16.2945 31.633 17.6326 34.6215 17.7911 37.4071Z" fill="#F4D44E"/>
<path d="M22.0834 36.1098C21.8512 33.3439 20.4799 30.4696 17.6757 30.0689C13.9751 29.5402 11.1905 23.8627 13.1997 15.8281C11.692 15.1767 10.147 14.3689 8.90482 13.4083H8.70373C7.73672 16.1671 7.56378 19.7631 7.56378 19.7631L6.18965 23.0115C5.96234 23.5489 6.25539 24.164 6.81569 24.3259C7.36719 24.5728 8.99763 24.5165 9.28208 26.0455C9.59532 27.728 10.5617 30.8137 13.4597 31.2277C16.2769 31.6301 17.6308 34.5917 17.7911 37.407C19.0615 36.5979 20.5926 36.2144 22.0834 36.1098Z" fill="#E8C842"/>
<path d="M24.5301 35.751C24.5301 35.751 17.8629 34.6532 15.4326 39.6192C13.282 44.0136 11.1697 55.5126 13.0985 64.1729H25.2771L24.5301 35.751Z" fill="#DB4E33"/>
<path d="M45.3866 89.4158L41.846 87.8131L35.9941 95.6606C35.9931 99.9934 37.9675 104.271 40.4081 105.768C41.7826 106.611 43.5639 105.724 43.7093 104.118L46.7214 91.8861C46.8823 90.8563 46.3362 89.8457 45.3866 89.4158Z" fill="#656566"/>
<path d="M39.3137 91.2091L35.9941 95.6606C35.9931 99.9933 37.9675 104.271 40.4081 105.768C41.7826 106.611 43.5639 105.724 43.7093 104.118L44.7135 100.04C42.3865 99.9721 39.7919 95.6129 39.3137 91.2091Z" fill="#545456"/>
<path d="M30.6682 80.7173C29.5849 80.0296 28.987 78.7792 29.1473 77.5061C29.8258 72.1094 27.0388 67.7552 27.0388 67.7552L26.7058 67.9581C26.1625 70.7482 24.746 75.4277 21.1219 78.6273C20.3727 79.2886 19.9639 80.255 19.9639 81.2542V86.2682L33.9359 95.3678C35.0698 96.1077 36.5885 95.7919 37.3336 94.6614L41.8464 87.8133L30.6682 80.7173Z" fill="#5085BA"/>
<path d="M36.0108 91.0868L20.3583 79.6205C19.7018 80.9029 20.0663 81.7128 19.9636 86.2679L33.9357 95.3675C35.0696 96.1075 36.5883 95.7916 37.3334 94.6611L39.2264 91.7887C38.1416 92.0093 36.9729 91.793 36.0108 91.0868Z" fill="#3A77AA"/>
<path d="M18.886 63.9579H13.0513C10.5634 70.2622 7.65727 73.5641 8.07922 79.7223L9.43938 99.798H20.3931V81.469C20.3931 80.4479 20.8357 79.4798 21.5981 78.8005C27.0182 73.971 27.4627 65.8251 27.4627 65.8251C21.5298 64.4099 20.7431 63.9579 18.886 63.9579Z" fill="#5085BA"/>
<path d="M18.7832 63.9579H13.0523C10.5644 70.2622 7.65824 73.5641 8.08019 79.7223L9.44036 99.798H15.1713L13.8111 79.7223C13.3894 73.563 16.2919 70.2714 18.7832 63.9579Z" fill="#3A77AA"/>
<path d="M9.4394 99.5831C5.2386 100.559 2.50925 103.281 1.65697 105.793C1.1768 107.207 2.4738 108.594 4.06664 108.361L19.4132 108.287C20.4511 108.198 20.7266 107.389 20.7266 106.295L20.3935 99.5831H9.4394Z" fill="#656566"/>
<path d="M10.0073 105.348C10.7079 103.284 12.4924 101.099 15.1936 99.5831H9.44038C5.23979 100.559 2.51022 103.281 1.65794 105.793C1.17777 107.207 2.47477 108.594 4.06761 108.361L11.838 108.324C10.4718 108.024 9.54909 106.697 10.0073 105.348Z" fill="#545456"/>
<path d="M30.7236 55.4463C30.8403 53.6066 30.9299 48.8332 29.5091 45.7638L21.3527 46.4736C21.3527 46.4736 21.2736 51.7673 22.6106 56.1282C22.8318 56.8498 22.7083 57.6327 22.2866 58.2586C14.6646 69.5754 15.7423 68.7074 15.0602 69.0924L11.8246 70.9177C11.0259 71.3682 10.7345 72.3754 11.1694 73.183C11.5357 73.8634 11.0418 74.4415 11.0501 74.4201C9.89449 75.8992 10.3644 78.0648 12.0292 78.9319C13.9567 79.9357 16.3316 79.3056 17.5078 77.4783C19.7199 74.0415 19.8174 73.7375 20.5876 73.1561C22.3261 71.8437 27.6424 67.437 29.6887 61.2438C29.8765 60.6758 30.0819 60.1144 30.3294 59.5693C31.1123 57.8465 30.628 56.9521 30.7236 55.4463Z" fill="#F4D44E"/>
<path d="M25.8128 60.7794C26.0006 60.2114 26.206 59.65 26.4535 59.105C27.2366 57.3817 26.7523 56.4875 26.8479 54.9817C26.9551 53.2905 27.0385 49.1204 25.9473 46.0737L21.3536 46.4736C21.3536 46.4736 21.2745 51.7673 22.6115 56.1281C22.8328 56.8498 22.7092 57.6327 22.2875 58.2585C14.6655 69.5753 15.7432 68.7073 15.0609 69.0923L11.8253 70.9176C11.0265 71.3681 10.7352 72.3753 11.1701 73.1829C11.5346 73.8599 11.0592 74.3985 11.0508 74.42C10.0009 75.7638 10.2961 77.671 11.6068 78.6595C12.4138 78.349 13.1316 77.7908 13.6319 77.0138C15.8439 73.5769 15.9415 73.2729 16.7117 72.6916C18.45 71.3791 23.7665 66.9727 25.8128 60.7794Z" fill="#E8C842"/>
<path d="M30.6463 44.8395L30.2755 40.5777C30.0931 38.4813 28.6979 36.7679 26.8438 36.0697C25.538 37.1564 24.7596 38.8833 24.9216 40.7447C25.4565 45.8411 25.1794 46.054 25.6873 46.5267L29.5087 46.1941C30.1968 46.134 30.7062 45.5275 30.6463 44.8395Z" fill="#ED694A"/>
<path d="M26.598 46.4472C26.1037 46.4902 25.6665 46.1075 25.6218 45.5924L25.2028 40.779C25.0424 38.9348 25.8635 37.2305 27.2138 36.2252C23.5705 34.5291 19.5858 37.3867 19.9212 41.2388L20.3399 46.0521C20.3848 46.5673 20.8388 46.9484 21.354 46.9037C26.164 46.4852 24.6922 46.6133 29.5104 46.1939L26.598 46.4472Z" fill="#DB4E33"/>
<path d="M25.2261 4.35519C25.2261 4.35519 16.1583 -2.52534 8.13417 5.49901C0.0365634 13.5966 18.8651 18.02 18.8651 18.02L20.8977 18.0151C22.2362 18.0118 23.2872 19.161 23.1645 20.4939C23.0573 21.6586 22.8775 22.4225 23.4576 23.3745L25.3284 26.4444C39.2628 11.4639 25.2261 4.35519 25.2261 4.35519Z" fill="#CC9D72"/>
<path d="M13.5056 8.66814C18.5035 3.67027 23.9055 4.45466 27.2697 5.75682C26.1402 4.81903 25.2261 4.35519 25.2261 4.35519C25.2261 4.35519 16.1583 -2.52534 8.13412 5.49901C3.0645 10.5688 8.54898 14.198 13.3595 16.2033C11.2233 14.2377 10.4611 11.7127 13.5056 8.66814Z" fill="#C19067"/>
<path d="M46.0003 87.9933L42.5712 86.4411L31.5159 79.4237C30.9597 79.0705 30.6526 78.426 30.7336 77.7815C31.2334 73.8071 30.3252 69.8173 29.0886 67.509C29.1524 67.1365 29.2646 66.3987 29.2824 66.0427C30.9427 63.2392 31.1152 61.8215 31.7812 60.3546C31.9524 59.9786 32.0968 59.5562 32.1987 59.1332C32.4073 58.2682 31.8751 57.3975 31.0099 57.1889C30.1448 56.9802 29.2742 57.5124 29.0656 58.3776C28.8978 59.0724 28.7118 59.1375 28.1454 60.8517C26.2379 66.6256 21.1418 70.8098 19.6255 71.9547C18.3403 72.925 18.0818 73.8507 16.1691 76.6808C15.021 78.4649 12.3997 78.0676 12.0899 76.6398C11.9373 75.9368 12.3606 75.4947 12.3683 75.4732C13.0337 74.6209 13.1323 73.4552 12.6199 72.5043C12.5574 72.3887 12.6044 72.4701 15.8741 70.5909C17.1354 69.8798 15.983 70.5522 24.3206 58.2545C25.313 56.791 23.3725 56.3304 23.006 48.5264L28.4325 48.0542C28.7326 48.9961 28.9421 50.1113 29.057 51.3845C29.1369 52.2709 29.9235 52.9247 30.8069 52.8445C31.6933 52.7646 32.3469 51.9811 32.267 51.0947C32.1297 49.5746 31.8665 48.2184 31.4862 47.0369C32.0128 46.4659 32.3095 45.686 32.2369 44.8529L31.8669 40.6011C31.6487 38.0933 30.1085 36.0123 27.9794 34.9789C25.898 31.8891 26.4914 28.3021 26.7339 27.2358C31.6416 21.8547 33.7086 16.7552 32.8743 12.0736C31.862 6.39421 26.9165 3.46871 26.0293 2.98553C25.4872 2.59839 23.1661 1.04229 19.9808 0.343835C16.6037 -0.397155 11.6009 -0.300691 6.94098 4.35902C3.81288 7.48711 3.53444 10.9976 6.62946 14.0106C6.01587 16.2449 5.91618 18.5626 5.90136 19.4313L4.65248 22.3836C4.36481 23.0636 4.38199 23.8357 4.69953 24.5024C5.55267 26.2927 7.56187 25.8965 7.64501 26.3404C8.33702 30.0565 10.354 32.4193 13.1791 32.8228C15.0828 33.0948 15.7729 35.2647 16.0116 36.4792C15.1806 37.1907 14.5051 38.0587 14.0067 39.0764C11.7642 43.6581 9.60265 55.0007 11.3957 63.8782L8.05729 71.2853C5.407 77.1657 6.90467 81.7103 6.93926 86.1457C6.99748 86.996 7.70538 87.6468 8.54542 87.6468C9.48406 87.6468 10.2184 86.8532 10.1548 85.925C9.71437 79.3997 9.71502 79.7069 9.6989 79.0282C11.6883 81.8059 16.6104 81.9522 18.8806 78.4243L20.9815 75.16C21.478 74.3893 21.9664 74.4366 24.3894 72.1165C23.5538 74.052 22.3168 76.0945 20.4928 77.7052C19.4123 78.6591 18.7925 80.0547 18.7925 81.5335C18.7925 84.2968 18.7925 93.2961 18.7925 97.9923H10.9815L10.67 93.4452C10.609 92.5572 9.83962 91.8873 8.95211 91.9477C8.06417 92.0085 7.39365 92.7774 7.45466 93.6656L7.77993 98.4127C4.1302 99.6369 1.22167 102.232 0.186778 105.281C-0.654973 107.762 1.46401 110.288 4.22366 109.972C20.4468 109.892 19.4439 109.903 19.5634 109.892C21.486 109.728 22.4373 108.135 22.346 106.22L22.0158 99.5623V89.5593L33.0333 96.7479C33.4744 97.0356 33.9515 97.2249 34.4395 97.3237C34.9557 102.492 38.7167 109.557 43.2041 107.305C44.3372 106.736 45.0958 105.661 45.2542 104.41C47.5008 95.2805 48.2448 92.2788 48.2611 92.1737C48.5307 90.4378 47.602 88.7186 46.0003 87.9933ZM12.7877 68.6313L14.1195 65.6762H15.5523C15.0061 66.5381 14.5481 67.2839 14.2548 67.8036L12.7877 68.6313ZM28.9945 44.7699C25.7334 45.0537 24.0828 45.1975 21.8951 45.388L21.5358 41.2613C21.2664 38.1653 24.9033 36.3286 27.3516 38.3853C28.1081 39.0203 28.5713 39.9065 28.6559 40.8806L28.9945 44.7699ZM9.21895 6.63849C16.125 -0.267176 23.8697 5.39305 24.2012 5.64162C24.2772 5.6992 24.3584 5.74969 24.4437 5.79266C24.4882 5.81521 28.8903 8.09254 29.7009 12.6392C30.2874 15.93 28.8785 19.6558 25.5098 23.7352L24.5718 22.1956C24.5438 21.3466 25.2896 19.3891 23.7137 17.6659C22.1062 15.9085 20.0186 16.5307 18.9996 16.4082C15.0036 15.4356 8.56625 12.8936 7.75028 10.0218C7.64501 9.65315 7.3264 8.53125 9.21895 6.63849ZM13.6337 29.6326C11.7579 29.3647 11.0608 27.0856 10.8122 25.7506C10.3658 23.3558 7.96105 22.9998 7.90411 22.9676L8.99379 20.3914C9.28168 19.7105 8.94653 18.8785 9.45506 16.1044C12.9071 18.1257 18.1675 19.6448 18.8144 19.6313C19.746 19.6291 20.574 19.6272 20.849 19.6265C21.2361 19.6265 21.541 19.9591 21.5053 20.3465C21.414 22.1166 21.0978 22.6883 21.5423 23.4174L23.548 26.709C23.2576 28.069 22.8539 31.0881 24.0147 34.251C22.3133 34.1243 20.5207 34.2977 18.9249 34.8429C18.1332 32.1411 16.4325 30.0324 13.6337 29.6326ZM16.9004 40.4935C17.3275 39.6206 17.9645 38.9301 18.8039 38.4269C17.8292 40.7852 18.5547 42.4172 18.7431 46.3419C18.8039 47.0412 19.1442 47.7034 19.7636 48.1646C19.822 49.9927 20.0826 53.7112 21.1981 57.1186C20.4838 58.1771 19.0469 60.3142 17.636 62.4598C17.5075 62.4506 18.1235 62.4576 14.4069 62.454C13.0837 54.6638 14.8813 44.6193 16.9004 40.4935ZM19.104 106.677C3.16105 106.76 4.09647 106.736 3.88227 106.767C3.52563 106.82 3.14644 106.584 3.23689 106.317C4.13579 103.669 7.08213 101.864 9.66668 101.216H18.8692C19.095 106.172 19.155 106.26 19.104 106.677ZM22.0141 85.7115C22.1651 82.1462 21.6241 81.0045 22.6244 80.1215C24.96 78.0595 26.4841 75.4758 27.4773 73.0882C27.6644 74.3184 27.7379 75.7742 27.5362 77.3795C27.3003 79.2555 28.1843 81.1257 29.7886 82.1445L39.5561 88.3446L35.9562 93.8078C35.7021 94.1937 35.1807 94.3026 34.7931 94.0495L22.0141 85.7115ZM45.0812 91.6282C41.9228 104.481 42.0784 103.755 42.0577 103.983C42.0208 104.392 41.5683 104.62 41.2119 104.401C39.1888 103.16 37.8615 99.6165 37.6185 96.6482C38.68 95.8913 38.7425 95.2898 42.3925 89.8983L44.6715 90.9298C44.9424 91.0522 45.1059 91.335 45.0812 91.6282Z" fill="black"/>
</svg>
