<svg width="96" height="96" viewBox="0 0 96 96" fill="none" xmlns="http://www.w3.org/2000/svg">
<path d="M77.7347 83.6757L60.2112 69.3384L55.0508 47.9312H41.7809L25.5378 85.0004C24.674 86.8718 25.4909 89.0892 27.3624 89.953C27.869 90.1866 28.4005 90.2974 28.924 90.2974C30.3348 90.2974 31.685 89.4935 32.315 88.1285L42.1017 66.9237L47.8983 57.1226L53.68 73.0709C53.9157 73.6368 54.2873 74.1359 54.7617 74.524L73.0078 89.4528C73.7014 90.0203 74.5378 90.2965 75.369 90.2965C76.4499 90.2965 77.5221 89.8294 78.2599 88.9276C79.5651 87.3323 79.3298 84.9809 77.7347 83.6757Z" fill="#72CCC5"/>
<path d="M72.1171 42.336C71.0534 40.4782 65.615 29.5725 64.9089 29.1311L51.3178 19.8015H44.6827C44.6827 19.8015 24.7778 38.4105 22.432 40.6781C21.1146 41.9514 21.1365 44.0741 22.432 45.3697C23.6678 46.6055 25.5508 46.5547 26.9378 45.5379C31.5685 42.1428 41.781 33.0716 41.781 33.0716V47.9313H55.0509V32.2416L59.8627 34.5725C59.8627 34.5725 65.2455 44.388 67.2142 46.652C68.5966 48.2416 70.8217 48.3236 72.1173 47.0281C73.4126 45.732 72.8467 43.6104 72.1171 42.336Z" fill="#F4F3EC"/>
<path d="M44.6827 26.4356C44.6827 24.1343 45.0064 21.9088 45.6099 19.8015H44.6827C44.6827 19.8015 24.7778 38.4105 22.432 40.6781C21.1146 41.9514 21.1365 44.0741 22.432 45.3697C23.6678 46.6055 25.5508 46.5547 26.9378 45.5379C31.5685 42.1428 41.781 33.0716 41.781 33.0716V47.9313H55.0509V46.2165C48.7864 41.8743 44.6827 34.6348 44.6827 26.4356Z" fill="#E8E6D9"/>
<path d="M47.9994 21.4601C53.496 21.4601 57.9518 17.0043 57.9518 11.5077C57.9518 6.01105 53.496 1.55518 47.9994 1.55518C42.5028 1.55518 38.0469 6.01105 38.0469 11.5077C38.0469 17.0043 42.5028 21.4601 47.9994 21.4601Z" fill="#FFE5BA"/>
<path d="M51.3168 20.6299C45.82 20.6299 41.3643 16.1742 41.3643 10.6775C41.3643 6.62165 43.7917 3.13509 47.2715 1.58447C42.1151 1.9576 38.0469 6.25603 38.0469 11.5077C38.0469 17.0044 42.5026 21.4602 47.9994 21.4602C49.4401 21.4602 50.8083 21.1514 52.0447 20.6007C51.8039 20.6181 51.5618 20.6299 51.3168 20.6299Z" fill="#FFD175"/>
<path d="M34.7305 8.19023H52.9766V19.8015H56.2941C58.1263 19.8015 59.6115 18.3163 59.6115 16.4841V8.19023C59.6115 4.52592 56.6409 1.55518 52.9764 1.55518H41.3651C37.701 1.55536 34.7305 4.52592 34.7305 8.19023Z" fill="#FC9C47"/>
<path d="M77.7532 57.9526C77.7532 57.0938 77.0572 56.3975 76.1981 56.3975H62.9282C62.0692 56.3975 61.373 57.0936 61.373 57.9526C61.373 58.8115 62.069 59.5077 62.9282 59.5077H76.1981C77.0572 59.5077 77.7532 58.8113 77.7532 57.9526Z" fill="black"/>
<path d="M19.8012 59.5077H31.4125C32.2713 59.5077 32.9676 58.8115 32.9676 57.9526C32.9676 57.0936 32.2714 56.3975 31.4125 56.3975H19.8012C18.9425 56.3975 18.2461 57.0936 18.2461 57.9526C18.2461 58.8115 18.9425 59.5077 19.8012 59.5077Z" fill="black"/>
<path d="M76.3027 76.1987C76.3027 77.0574 76.9987 77.7538 77.8579 77.7538H86.1515C87.0105 77.7538 87.7066 77.0576 87.7066 76.1987C87.7066 75.3397 87.0106 74.6436 86.1515 74.6436H77.8579C76.9987 74.6436 76.3027 75.3399 76.3027 76.1987Z" fill="black"/>
<path d="M44.6831 74.6436C43.8243 74.6436 43.1279 75.3397 43.1279 76.1987C43.1279 77.0576 43.8241 77.7538 44.6831 77.7538H49.6593C50.5182 77.7538 51.2144 77.0576 51.2144 76.1987C51.2144 75.3397 50.5184 74.6436 49.6593 74.6436H44.6831Z" fill="black"/>
<path d="M9.84809 77.7538H23.2564C24.1151 77.7538 24.8115 77.0576 24.8115 76.1987C24.8115 75.3397 24.1153 74.6436 23.2564 74.6436H9.84809C8.98934 74.6436 8.29297 75.3397 8.29297 76.1987C8.29297 77.0576 8.98934 77.7538 9.84809 77.7538Z" fill="black"/>
<path d="M94.4447 92.8899H1.55512C0.696374 92.8899 0 93.5861 0 94.445C0 95.304 0.696186 96 1.55512 96H94.4449C95.3038 96 96 95.3038 96 94.4448C96 93.5859 95.3038 92.8899 94.4447 92.8899Z" fill="black"/>
<path d="M27.857 46.7919C31.0869 44.4238 36.8714 39.4415 40.2256 36.5107V47.6051L32.5722 65.0714C32.2276 65.8582 32.5857 66.7752 33.3723 67.12C34.1592 67.4647 35.0761 67.1066 35.4209 66.32L42.7972 49.4863H53.8259L58.6992 69.7029C58.7787 70.0325 58.9636 70.3274 59.2263 70.5419L76.7498 84.8793C77.598 85.5734 77.7943 86.8366 77.1942 87.7546C76.4955 88.8226 74.9815 89.0583 73.9924 88.2492L55.7463 73.3205C55.4785 73.1015 55.2655 72.8191 55.1279 72.502L49.3604 56.5923C48.9217 55.3822 47.2158 55.2213 46.5599 56.3306L40.7632 66.1317C40.7364 66.1771 40.7118 66.2238 40.6898 66.2716L30.9031 87.4763C30.5484 88.2451 29.7714 88.742 28.9241 88.742C28.2222 88.742 27.5381 88.3835 27.1378 87.8069C26.6923 87.1647 26.651 86.332 26.9619 85.6242L32.8351 72.2208C33.1797 71.434 32.8216 70.517 32.0351 70.1722C31.2483 69.8276 30.3312 70.1859 29.9864 70.9722L24.119 84.3627C22.9199 86.9806 24.1021 90.1606 26.7108 91.3645C27.4119 91.6881 28.1564 91.8522 28.9242 91.8522C30.9806 91.8522 32.8657 90.6462 33.7271 88.7798L43.4806 67.6469L47.5595 60.7503L52.2181 73.601C52.2263 73.6239 52.2351 73.6464 52.2443 73.6689C52.577 74.4678 53.1068 75.1795 53.777 75.7278L72.0229 90.6565C72.9651 91.4271 74.1531 91.8518 75.369 91.8518C76.9626 91.8518 78.4549 91.1449 79.4635 89.9125C81.3094 87.6561 80.9757 84.3186 78.7193 82.4723L61.6004 68.4659L56.6061 47.747V34.7231L58.7393 35.7564C59.8969 37.8525 64.1959 45.551 66.0407 47.6724C66.925 48.6894 68.1672 49.3605 69.5172 49.4679C70.8835 49.5768 72.2445 49.0998 73.2165 48.1277C75.0979 46.2465 74.5272 43.416 73.4667 41.5639C73.1489 41.0083 72.3771 39.5209 71.4839 37.7987C66.8999 28.9611 66.3788 28.2294 65.7672 27.8342L56.3298 21.3559C58.9998 21.3362 61.1663 19.1584 61.1663 16.4837V8.19023C61.1661 3.6743 57.4921 0.000244141 52.9761 0.000244141H41.3649C36.8489 0.000244141 33.1749 3.6743 33.1749 8.19023C33.1749 9.04898 33.8711 9.74535 34.73 9.74535H36.6279C36.5384 10.3264 36.4925 10.9152 36.4925 11.5078C36.4925 15.3497 38.3868 18.7553 41.2883 20.8466C35.9439 25.8458 23.2001 37.7724 21.3511 39.5602C19.4295 41.4176 19.4521 44.5893 21.3322 46.4696C23.0392 48.1764 25.7833 48.312 27.857 46.7919ZM53.4955 40.6387H43.3357V37.1139H53.4955V40.6387ZM43.3355 46.376V43.749H53.4953V46.376H43.3355ZM41.3649 3.1103H52.9761C55.7774 3.1103 58.0561 5.38917 58.0561 8.19023V16.4839C58.0561 17.4557 57.2654 18.2464 56.2936 18.2464H54.5311V8.19023C54.5311 7.33148 53.8351 6.63511 52.976 6.63511H36.5283C37.1868 4.5923 39.1059 3.1103 41.3649 3.1103ZM39.6025 11.5078C39.6025 10.9118 39.6674 10.3221 39.7904 9.74535H51.4212V19.1755C50.351 19.6523 49.1815 19.905 48.0001 19.905C43.3696 19.9052 39.6025 16.1382 39.6025 11.5078ZM23.5124 41.7962C25.4446 39.9283 39.481 26.7951 44.2109 22.3714C45.3982 22.7867 46.6724 23.0154 47.9999 23.0154C49.4155 23.0154 50.8199 22.7511 52.1326 22.2473L63.8933 30.3206C64.597 31.2767 67.2677 36.4258 68.7227 39.2306C69.6692 41.0559 70.4174 42.4978 70.767 43.109C71.2163 43.8935 71.6534 45.2917 71.017 45.9283C70.7149 46.2303 70.3062 46.3888 69.849 46.3727C69.3053 46.3537 68.7863 46.0905 68.3871 45.6317C66.8627 43.8785 62.7008 36.5145 61.2257 33.825C61.0705 33.5417 60.8311 33.3141 60.5401 33.1732L55.7284 30.8422C54.7129 30.3497 53.4953 31.1169 53.4953 32.2417V34.0042H43.3355V33.0716C43.3355 31.7591 41.7314 31.0352 40.7478 31.9091C40.6462 31.9993 30.5373 40.9704 26.0178 44.2841C25.3308 44.7879 24.2596 44.9987 23.5312 44.2704C22.8639 43.6029 22.8221 42.4637 23.5124 41.7962Z" fill="black"/>
<path d="M47.9995 14.7216H48.2068C49.0658 14.7216 49.762 14.0254 49.762 13.1665C49.762 12.3075 49.066 11.6113 48.2068 11.6113H47.9995C47.1407 11.6113 46.4443 12.3075 46.4443 13.1665C46.4443 14.0254 47.1407 14.7216 47.9995 14.7216Z" fill="black"/>
<path d="M43.2312 14.7216C44.09 14.7216 44.7864 14.0254 44.7864 13.1665C44.7864 12.3075 44.0902 11.6113 43.2312 11.6113H43.0239C42.1651 11.6113 41.4688 12.3075 41.4688 13.1665C41.4688 14.0254 42.1649 14.7216 43.0239 14.7216H43.2312Z" fill="black"/>
<path d="M66.3124 11.4041H67.8972C68.76 11.4041 69.4598 10.7045 69.4598 9.84145V4.43396C69.4598 4.43059 69.462 4.42759 69.4654 4.42665L72.9756 3.54915C72.9803 3.54784 72.9848 3.5514 72.9848 3.55646V6.6279C72.9848 6.63202 72.9814 6.6354 72.9773 6.6354H72.9531C72.0977 6.6354 71.3485 7.29427 71.3265 8.14946C71.3039 9.02677 72.0087 9.74545 72.8811 9.74545H74.5324C75.3953 9.74545 76.095 9.04589 76.095 8.18283V1.55528C76.095 0.559844 75.1296 -0.194279 74.1628 0.0466579L67.5334 1.70397C66.8378 1.87797 66.3499 2.5029 66.3499 3.2199V8.28689C66.3499 8.29083 66.3467 8.29402 66.3428 8.29402C65.509 8.2972 64.7695 8.85014 64.6967 9.71676C64.6195 10.6342 65.3918 11.4041 66.3124 11.4041Z" fill="black"/>
<path d="M74.6436 18.1427C74.6436 19.0015 75.3396 19.6979 76.1987 19.6979H77.8575C78.7164 19.6979 79.4126 19.0017 79.4126 18.1427V12.7219L82.9374 11.8407V14.9288C82.0955 14.9288 81.348 15.4893 81.2831 16.3677C81.2173 17.2572 81.9414 18.0389 82.8339 18.0389H84.4927C85.3517 18.0389 86.0478 17.3427 86.0478 16.4838V9.84907C86.0478 8.85401 85.0822 8.09914 84.1157 8.34045L77.4806 9.99926C76.7884 10.1723 76.3027 10.7944 76.3027 11.5079V16.5878C75.4179 16.5878 74.6436 17.2152 74.6436 18.1427Z" fill="black"/>
</svg>
