<svg width="88" height="96" viewBox="0 0 88 96" fill="none" xmlns="http://www.w3.org/2000/svg">
<path d="M42.3295 60.8156L38.4302 74.6643L29.99 80.8831C27.8386 82.4687 27.3803 85.4959 28.9645 87.6445C29.9122 88.9311 31.3764 89.6119 32.8623 89.6119C33.8581 89.6119 34.8618 89.3065 35.7266 88.67L45.0032 81.8323L51.1245 67.0242L47.7795 59.5631L42.3295 60.8156Z" fill="#1895B7"/>
<path d="M54.6737 70.175V89.0838C54.6737 91.7546 52.5099 93.9192 49.8383 93.9192C47.1675 93.9192 45.0029 91.7546 45.0029 89.0838V68.8243" fill="#34ABE0"/>
<path d="M51.061 93.7628C50.6704 93.8647 50.2602 93.9192 49.8383 93.9192C47.1675 93.9192 45.0029 91.7546 45.0029 89.0838V68.8251L47.4475 69.1655V89.0838C47.4483 91.3335 48.9815 93.2232 51.061 93.7628Z" fill="#1895B7"/>
<path d="M59.8723 54.1604H59.8709V39.3233C59.8709 33.7824 55.3795 29.2888 49.8386 29.2888C44.297 29.2888 39.8034 33.7824 39.8034 39.3233V54.1604C39.8034 60.5276 35.2139 70.1758 35.2139 70.1758C35.2139 70.1758 41.9265 74.4206 49.8379 74.4206C57.7492 74.4206 64.4619 70.1758 64.4619 70.1758C64.4619 70.1758 59.8723 60.5276 59.8723 54.1604Z" fill="#4BC999"/>
<path d="M49.8389 29.2888C47.2648 29.2888 45.1795 33.7824 45.1795 39.3233V54.1604C45.1795 59.3558 43.7619 69.8333 43.2396 73.5158C38.5264 72.2699 35.2148 70.1751 35.2148 70.1751C35.2148 70.1751 39.8044 60.5276 39.8044 54.1604V39.3233C39.8044 33.7816 44.2979 29.2888 49.8389 29.2888Z" fill="#3AAF80"/>
<path d="M51.3911 37.1091L58.1568 46.1297L63.5588 45.339C63.5588 45.339 68.5957 46.4446 68.9819 49.0863C69.3689 51.7288 65.3328 54.8535 65.3328 54.8535L56.7131 56.1147C56.4789 56.1489 56.2446 56.1656 56.0119 56.1656C54.5041 56.1656 53.0654 55.4593 52.1446 54.2316L43.6543 42.9112" fill="#4BC999"/>
<path d="M65.3328 54.8543L56.7123 56.1155C56.4781 56.149 56.2446 56.1657 56.0126 56.1657C54.5034 56.1657 53.0669 55.4602 52.1439 54.2317L43.6543 42.9113L45.1417 41.7955L52.1439 51.1354C53.0669 52.3639 54.5034 53.0694 56.0126 53.0694C56.2446 53.0694 56.4781 53.0519 56.7123 53.017L64.7706 51.838L67.181 52.9377L65.3328 54.8543Z" fill="#3AAF80"/>
<path d="M67.2608 54.5713L65.3326 54.8535L63.5586 45.3391L65.8606 45.0031C68.5045 44.6161 70.9586 46.444 71.3456 49.0864C71.7325 51.7281 69.9032 54.1844 67.2608 54.5713Z" fill="#FFC48F"/>
<path d="M67.2614 54.5713L65.3325 54.8535L64.7695 51.8365L67.2607 51.4728C69.1198 51.2 70.5781 49.9024 71.1425 48.2368C71.2335 48.5096 71.3033 48.7925 71.3462 49.0864C71.7331 51.7281 69.9031 54.1843 67.2614 54.5713Z" fill="#E59A5C"/>
<path d="M74.4039 13.8159C73.8148 16.1529 72.2764 17.9989 70.3053 19.0462L62.5533 13.2158L61.7197 12.5889L64.9688 3.76179C66.0947 3.55232 67.2796 3.57559 68.4629 3.8738C70.3686 4.35385 71.9477 5.46596 73.0343 6.93084C74.4497 8.83503 75.0287 11.3342 74.4039 13.8159Z" fill="#E6E6E6"/>
<path d="M73.035 6.93084C70.2602 4.59606 67.7691 7.61527 65.2714 14.8109L61.7197 12.5889L64.9688 3.76179C66.0947 3.55232 67.2796 3.57559 68.4629 3.8738C70.3686 4.35385 71.9477 5.46596 73.035 6.93084Z" fill="#CCCCCC"/>
<path d="M45.7558 10.4796C42.3111 9.61186 38.8148 11.7008 37.9463 15.1462C37.0786 18.5909 39.1683 22.0873 42.613 22.9557C46.0584 23.8235 49.5548 21.7345 50.4225 18.2891C51.2902 14.8437 49.2013 11.3473 45.7558 10.4796Z" fill="#CCCCCC"/>
<path d="M61.4045 7.61247C55.0977 6.02322 48.6978 9.8476 47.1085 16.1544C45.52 22.4605 49.3444 28.8604 55.6505 30.4497C61.9573 32.0382 68.3572 28.2138 69.9457 21.9077C71.535 15.6009 67.7106 9.20099 61.4045 7.61247Z" fill="#FFC48F"/>
<path d="M58.7465 30.8068C57.7268 30.8249 56.6882 30.7107 55.651 30.4496C49.3456 28.8611 45.5205 22.4597 47.1097 16.1544C48.6983 9.84902 55.0989 6.02391 61.405 7.61316C62.4422 7.87428 63.4103 8.26559 64.2998 8.76527C59.1131 8.85619 54.4261 12.3925 53.098 17.6636C51.7706 22.9332 54.2217 28.2683 58.7465 30.8068Z" fill="#E59A5C"/>
<path d="M61.1021 17.4315C58.5615 19.3212 55.5096 20.034 52.5973 19.663C50.5753 19.407 48.6231 18.6302 46.956 17.3617C45.1638 12.5765 46.652 6.99485 50.9578 3.79162C54.5757 1.10117 59.227 0.799318 63.0369 2.60459C63.7599 2.94862 64.4545 3.3683 65.1054 3.86144C66.8954 8.64665 65.4073 14.2298 61.1021 17.4315Z" fill="#E6E6E6"/>
<path d="M63.037 2.60459L63.0341 2.60604C63.0341 2.60604 50.4088 7.12432 52.5974 19.663C50.5754 19.407 48.6232 18.6302 46.9561 17.3617C45.1639 12.5765 46.6514 6.99485 50.9573 3.79162C54.5751 1.10117 59.2272 0.799318 63.037 2.60459Z" fill="#CCCCCC"/>
<path d="M15.3722 61.6214L11.5682 75.1333L3.33321 81.2C1.23481 82.7478 0.787496 85.7009 2.33311 87.7971C3.25756 89.0525 4.68607 89.7165 6.13567 89.7165C7.1074 89.7165 8.08641 89.4183 8.93013 88.7972L17.9805 82.1267L23.9527 67.6794L20.6899 60.3994L15.3722 61.6214Z" fill="#3B3D4C"/>
<path d="M32.4859 40.6529V55.1285H12.9072V40.6529C12.9072 35.2458 17.2909 30.8621 22.6973 30.8621C28.1037 30.8621 32.4859 35.2458 32.4859 40.6529Z" fill="#E3F4FC"/>
<path d="M32.4859 55.1284C32.4859 57.8305 31.3891 60.2802 29.6194 62.0498C28.9685 62.7008 28.2266 63.2594 27.4149 63.7067V89.2017C27.4149 91.8077 25.3034 93.9192 22.6973 93.9192C20.0912 93.9192 17.9797 91.8077 17.9797 89.2017V63.7089C14.9569 62.0426 12.9072 58.8248 12.9072 55.1284H32.4859Z" fill="#5C5E70"/>
<path d="M24.3753 31.0061C19.7668 31.8003 16.2603 35.8175 16.2603 40.6529V55.1285H12.9072V40.6529C12.9072 35.2458 17.2909 30.8621 22.6973 30.8621C23.269 30.8621 23.832 30.9115 24.3753 31.0061Z" fill="#BDD9E5"/>
<path d="M24.3753 93.6116C23.8545 93.8094 23.2879 93.9192 22.6973 93.9192C20.0912 93.9192 17.9797 91.8077 17.9797 89.2017V63.7089C14.9569 62.0426 12.9072 58.8248 12.9072 55.1284H16.2603C16.2603 58.8248 18.31 62.0426 21.3328 63.7089V89.2017C21.3328 91.2171 22.5977 92.938 24.3753 93.6116Z" fill="#3B3D4C"/>
<path d="M28.6109 44.3557L30.814 47.2935L38.3311 46.1937C40.9096 45.8162 43.3047 47.6004 43.6822 50.1781C44.0597 52.7566 42.2755 55.1517 39.6971 55.5292L29.4059 57.0355C29.1775 57.069 28.9484 57.0857 28.7222 57.0857C27.2508 57.0857 25.847 56.3962 24.948 55.1983L21.0625 50.0174" fill="#FFC48F"/>
<path d="M39.6981 55.5299L29.4061 57.0362C29.1777 57.0682 28.9494 57.0849 28.7232 57.0849C27.251 57.0849 25.8487 56.3961 24.949 55.1982L21.0635 50.018L22.5145 48.9292L24.949 52.1768C25.8487 53.3755 27.251 54.0643 28.7232 54.0643C28.9494 54.0643 29.1777 54.0468 29.4061 54.0126L39.6981 52.507C41.5113 52.2408 42.9348 50.9745 43.4854 49.3496C43.5741 49.6158 43.6425 49.8915 43.6839 50.1781C44.0614 52.7565 42.2758 55.1531 39.6981 55.5299Z" fill="#E59A5C"/>
<path d="M31.3794 10.2526C34.1164 12.3525 35.8809 15.6561 35.8809 19.3721C35.8809 25.7182 30.7378 30.862 24.3917 30.862C18.0471 30.862 12.9033 25.7182 12.9033 19.3721V11.2055L20.3339 5.38306L31.3794 10.2526Z" fill="#FFC48F"/>
<path d="M26.9571 30.5754C26.1316 30.7631 25.2733 30.8627 24.391 30.8627C18.0471 30.8627 12.9033 25.7189 12.9033 19.3728V11.2055L20.3339 5.38306L23.6178 6.82975L18.0347 11.2055V19.3728C18.0347 24.8366 21.8468 29.4087 26.9571 30.5754Z" fill="#E59A5C"/>
<path d="M12.9033 11.2055V19.3728C16.1371 19.3728 18.7592 16.7508 18.7592 13.517V10.5618H29.0206C34.0713 10.5618 38.1662 6.46682 38.1662 1.41541H22.6934C17.2863 1.41541 12.9033 5.79839 12.9033 11.2055Z" fill="#FFCE33"/>
<path d="M29.0671 1.41541C23.8768 1.41541 19.6284 5.45508 19.2981 10.5618H18.7599V13.517C18.7599 15.1353 18.1038 16.5973 17.0441 17.6578C15.9844 18.7175 14.5217 19.3728 12.9033 19.3728V11.2055C12.9033 5.79912 17.2878 1.41541 22.6941 1.41541H29.0671Z" fill="#FF9D33"/>
<path d="M87.54 90.8222L78.5369 56.4929C77.7994 53.681 75.2493 51.8161 72.4687 51.8234C72.7858 50.9069 72.8956 49.9054 72.7458 48.882C72.2468 45.4722 69.0662 43.104 65.6556 43.6022L61.2865 44.2415V39.3239C61.2865 36.64 60.3569 34.1714 58.8055 32.217C64.5959 32.0934 69.8371 28.1352 71.3195 22.2539C71.5188 21.4611 71.6424 20.6624 71.6933 19.866C73.7132 18.5524 75.1824 16.5151 75.7759 14.1614C76.4029 11.6732 76.0232 9.09037 74.7067 6.88796C73.391 4.68629 71.2962 3.12831 68.8087 2.50134C67.6551 2.2104 66.4834 2.13767 65.316 2.27877C60.7257 -0.788443 54.5847 -0.669885 50.1123 2.65699C47.9251 4.28334 46.3577 6.51411 45.5154 8.98563C41.515 8.29538 37.583 10.7996 36.5749 14.8008C36.5603 14.8597 36.548 14.9193 36.5349 14.979C35.9727 13.4181 35.1093 11.9794 33.9826 10.7349C37.3117 8.95581 39.5825 5.44636 39.5825 1.41541C39.5825 0.633518 38.949 0 38.1671 0H22.6942C16.5154 0 11.4887 5.02669 11.4887 11.2055V19.367V19.3721C11.4887 24.1268 14.0745 28.2857 17.9119 30.5245C17.0675 30.9231 16.271 31.4257 15.5451 32.0287C14.9436 32.5276 14.8607 33.4201 15.3597 34.0216C15.8594 34.6231 16.7518 34.706 17.3526 34.2063C18.8517 32.9626 20.75 32.2781 22.6993 32.2781C27.3158 32.2781 31.0718 36.0349 31.0718 40.6528V45.278L25.3454 37.6431C24.8763 37.0175 23.9889 36.891 23.3641 37.3601C22.7386 37.8285 22.612 38.7159 23.0812 39.3414L26.6204 44.0604L21.2941 47.967L17.797 43.304C17.3279 42.6785 16.4412 42.5519 15.8157 43.021C15.1902 43.4902 15.0636 44.3775 15.5328 45.0023L22.0651 53.713H14.3239V40.6528C14.3239 39.804 14.4505 38.9646 14.7 38.1573C14.9313 37.4103 14.513 36.6175 13.7668 36.3869C13.0198 36.1556 12.227 36.5739 11.9957 37.3201C11.6618 38.3988 11.4931 39.5203 11.4931 40.6528V55.1284C11.4931 57.6363 12.3325 60.0235 13.8097 61.9495L10.3374 74.2816L2.49293 80.0611C-0.229525 82.0686 -0.812857 85.9155 1.19316 88.6365C2.34455 90.1989 4.19201 91.132 6.13548 91.132C7.45125 91.132 8.70737 90.7189 9.77002 89.9363L16.5656 84.9271V89.2017C16.5656 92.5831 19.3172 95.3347 22.6993 95.3347C25.9651 95.3347 28.6425 92.7679 28.8221 89.5457C29.9408 90.4891 31.3736 91.0266 32.8633 91.0266C34.2037 91.0266 35.4846 90.6055 36.5669 89.809L43.5887 84.6332V89.0838C43.5887 92.53 46.3926 95.3339 49.8395 95.3339C53.2857 95.3339 56.0903 92.53 56.0903 89.0838V75.065C61.2865 73.8241 65.009 71.5046 65.2192 71.3723C65.8244 70.9889 66.0484 70.2143 65.7407 69.5677C65.7342 69.5532 65.0527 68.1159 64.2271 66.0139C63.9413 65.2866 63.1201 64.9287 62.3928 65.2138C61.6647 65.4997 61.3068 66.3216 61.5927 67.0489C61.9934 68.0708 62.36 68.9378 62.6408 69.5786C60.5111 70.7009 55.4546 73.0044 49.8402 73.0044C44.2229 73.0044 39.1679 70.7009 37.0382 69.5793C38.1001 67.1566 40.3825 61.5393 41.0393 56.6508C42.1878 56.2522 43.1908 55.5205 43.9327 54.524C44.911 53.2104 45.319 51.5943 45.0819 49.973C44.751 47.7095 43.2141 45.9152 41.2197 45.142V39.3239C41.2197 34.5707 45.0863 30.7034 49.8395 30.7034C54.5905 30.7034 58.4564 34.5707 58.4564 39.3239V44.1702L52.5234 36.2596C52.0543 35.6341 51.1669 35.5076 50.5421 35.9767C49.9166 36.4451 49.79 37.3325 50.2585 37.958L57.0242 46.9785C57.3355 47.3938 57.849 47.6055 58.3618 47.5299L62.4175 46.9363L63.6714 53.6657L56.5078 54.7146C56.3442 54.7386 56.1776 54.7502 56.0125 54.7502C54.9418 54.7502 53.9192 54.2389 53.2769 53.3821L44.7866 42.0617C44.3175 41.4369 43.4301 41.3096 42.8053 41.7787C42.1798 42.2479 42.0533 43.1352 42.5224 43.76L51.012 55.0804C52.1866 56.6464 54.0559 57.5811 56.0118 57.5811C56.3143 57.5811 56.6191 57.5585 56.918 57.5149L58.7277 57.2501C58.9371 58.5702 59.2674 60.0191 59.7176 61.5807C59.8958 62.2011 60.4617 62.6048 61.0763 62.6048C61.2065 62.6048 61.3381 62.5866 61.469 62.5488C62.2204 62.3328 62.6539 61.548 62.4371 60.7974C62.0225 59.358 61.72 58.0342 61.5287 56.8399L66.5466 56.106C66.164 57.2472 66.1197 58.4757 66.4324 59.6678C66.6303 60.4235 67.4042 60.8759 68.1606 60.6774C68.9163 60.4788 69.3687 59.7056 69.1702 58.9492C68.9381 58.064 69.0647 57.1417 69.5266 56.3511C69.9884 55.5612 70.7303 54.9982 71.6155 54.7662C73.4426 54.2862 75.3199 55.3837 75.7992 57.2108L84.8023 91.5401C84.9688 92.1758 85.542 92.5962 86.1704 92.5962C86.289 92.5962 86.4097 92.5816 86.5305 92.5497C87.2862 92.3518 87.7386 91.5779 87.54 90.8222ZM68.5745 21.5622C67.3918 26.2557 63.1616 29.3928 58.5276 29.3928C57.6919 29.3928 56.8431 29.2902 55.9972 29.0771C53.4726 28.4414 51.2956 26.8929 49.8686 24.7181C48.8896 23.2256 48.3201 21.5294 48.1935 19.7853C50.0373 20.6988 52.055 21.1592 54.0741 21.1592C56.8475 21.1592 59.6223 20.2959 61.9462 18.5677C64.0867 16.9755 65.6316 14.8044 66.4863 12.3962C68.5803 14.9084 69.3949 18.3066 68.5745 21.5622ZM72.2767 8.34047C73.2055 9.89336 73.4731 11.7154 73.0309 13.4704C72.7538 14.5702 72.2039 15.5717 71.4511 16.3922C70.8816 13.605 69.416 11.0287 67.2056 9.09691C67.322 7.7586 67.2354 6.39628 66.9329 5.05796C67.3293 5.08633 67.7242 5.14743 68.117 5.24634C69.8713 5.68857 71.3486 6.78686 72.2767 8.34047ZM51.8019 4.92777C55.3702 2.27368 60.2929 2.21695 63.9151 4.74666C65.2956 8.94344 63.8264 13.6414 60.2573 16.2962C56.6882 18.9503 51.7662 19.007 48.1433 16.4773C46.7628 12.2805 48.2328 7.58258 51.8019 4.92777ZM39.3199 15.4925C39.9527 12.9824 42.3857 11.3917 44.8928 11.751C44.6783 13.6028 44.8492 15.5114 45.4492 17.345C45.2659 18.7524 45.3132 20.1664 45.5787 21.5382C44.7321 21.784 43.8309 21.8036 42.9595 21.584C41.6598 21.2567 40.5651 20.4428 39.8778 19.2921C39.1904 18.1415 38.9926 16.7922 39.3199 15.4925ZM14.3196 11.2055C14.3196 6.58757 18.0763 2.83083 22.6942 2.83083H36.6222C35.9552 6.41955 32.8007 9.14637 29.0214 9.14637H18.76C17.9781 9.14637 17.3446 9.77989 17.3446 10.5618V13.517C17.3446 15.4714 16.0761 17.1341 14.3196 17.7261V11.2055ZM14.401 20.6326C17.6945 19.9409 20.1747 17.0133 20.1747 13.517V11.9765H29.0214C29.7037 11.9765 30.3699 11.9096 31.0165 11.7852C33.216 13.701 34.4656 16.4307 34.4656 19.3721C34.4656 24.9276 29.9466 29.4466 24.3911 29.4466C19.2648 29.4466 15.0229 25.5946 14.401 20.6326ZM8.09058 87.6575C7.51889 88.0787 6.84246 88.3012 6.13548 88.3012C5.0721 88.3012 4.10109 87.8117 3.47194 86.9578C2.39183 85.4922 2.70604 83.4207 4.17237 82.3399L12.4074 76.2724C12.6612 76.0862 12.8452 75.82 12.9303 75.5167L16.1176 64.197C16.2645 64.3039 16.4136 64.4079 16.5656 64.5083V81.4111L8.09058 87.6575ZM26.0007 63.7075V89.2017C26.0007 91.0222 24.5191 92.5038 22.6986 92.5038C20.878 92.5038 19.3964 91.0222 19.3964 89.2017V63.7089C19.3964 63.1932 19.1157 62.7183 18.664 62.4695C16.4078 61.2258 14.876 59.0307 14.449 56.5439H24.2333C25.3854 57.7782 27.019 58.5004 28.7217 58.5004C29.0178 58.5004 29.3167 58.4786 29.6098 58.4357L30.447 58.3135C30.031 59.3281 29.4149 60.254 28.6192 61.0498C28.0599 61.6091 27.4256 62.0862 26.7332 62.4681C26.2815 62.7168 26.0007 63.1918 26.0007 63.7075ZM34.8882 87.5295C34.2961 87.9659 33.5957 88.1965 32.8625 88.1965C31.7613 88.1965 30.7561 87.6888 30.1044 86.8051C28.9858 85.2871 29.3116 83.1422 30.8296 82.022L39.2704 75.804C39.5243 75.617 39.7083 75.3516 39.7934 75.0483L40.0843 74.0154C41.1455 74.398 42.3231 74.7631 43.588 75.065V81.1172L34.8882 87.5295ZM53.2595 75.5959V89.0838C53.2595 90.9699 51.7248 92.5038 49.8388 92.5038C47.9528 92.5038 46.4188 90.9699 46.4188 89.0838V75.5959C47.5222 75.7458 48.6663 75.8352 49.8395 75.8352C51.0127 75.8352 52.1568 75.7458 53.2595 75.5959ZM34.4583 71.3723C34.5696 71.4428 35.6686 72.1272 37.447 72.9397L37.2004 73.8132L29.1509 79.744C29.0403 79.8247 28.9349 79.9106 28.8316 79.9971V64.5061C29.476 64.0843 30.0753 63.5969 30.6216 63.0507C32.0741 61.5982 33.0778 59.8191 33.5651 57.8567L38.0914 57.1948C37.0979 62.8667 33.9717 69.495 33.9368 69.5684C33.6291 70.215 33.8532 70.9897 34.4583 71.3723ZM42.2809 50.3832C42.4089 51.2561 42.1893 52.126 41.6619 52.8337C41.1354 53.5414 40.3644 54.0011 39.4923 54.1291L29.2003 55.6347C29.0418 55.6579 28.881 55.6696 28.7217 55.6696C27.6882 55.6696 26.7004 55.1757 26.08 54.3487L22.9924 50.2319L28.3188 46.3254L29.6818 48.143C29.9924 48.5576 30.5052 48.7693 31.0187 48.6936L38.5351 47.5939C40.3375 47.3306 42.0176 48.5816 42.2809 50.3832ZM38.3889 39.3239V44.7616C38.3016 44.7703 38.2136 44.7798 38.1256 44.7929L33.9019 45.4111V40.6528C33.9019 36.8211 31.9686 33.4339 29.0272 31.4126C33.5571 29.6626 36.8578 25.428 37.2528 20.3875C38.2572 22.2837 40.0283 23.7646 42.2678 24.329C42.9035 24.489 43.5487 24.5683 44.1917 24.5676C44.943 24.5676 45.6907 24.4563 46.4122 24.2417C46.7148 24.9429 47.077 25.6229 47.5025 26.271C47.8888 26.8601 48.3208 27.41 48.7885 27.9235C42.9654 28.4559 38.3889 33.3648 38.3889 39.3239ZM65.22 46.5269L66.0659 46.4025C67.9308 46.1297 69.672 47.4258 69.9448 49.2915C70.2183 51.1571 68.9221 52.8977 67.0565 53.1712L66.4746 53.2563L65.22 46.5269Z" fill="black"/>
<path d="M62.1588 19.2579C61.4002 19.0666 60.6314 19.527 60.4401 20.2849L60.1957 21.2574C60.0044 22.0153 60.4641 22.7848 61.222 22.9754C61.3384 23.0052 61.4547 23.019 61.5689 23.019C62.2017 23.019 62.7785 22.5906 62.9407 21.9491L63.1851 20.9759C63.3764 20.218 62.9167 19.4492 62.1588 19.2579Z" fill="black"/>
<path d="M66.3151 20.3054C65.5564 20.1148 64.7876 20.5745 64.5971 21.3324L64.3519 22.3041C64.1607 23.0628 64.6203 23.8316 65.3782 24.0229C65.4946 24.052 65.611 24.0658 65.7252 24.0658C66.3587 24.0658 66.9347 23.6381 67.0969 22.9958L67.3421 22.0234C67.5326 21.2655 67.0729 20.4967 66.3151 20.3054Z" fill="black"/>
<path d="M26.3441 18.8921C27.126 18.8921 27.7595 18.2586 27.7595 17.4767V14.8001C27.7595 14.0182 27.126 13.3846 26.3441 13.3846C25.563 13.3846 24.9287 14.0182 24.9287 14.8001V17.4767C24.9287 18.2586 25.563 18.8921 26.3441 18.8921Z" fill="black"/>
<path d="M31.0287 18.8921C31.8099 18.8921 32.4441 18.2586 32.4441 17.4767V14.8001C32.4441 14.0182 31.8099 13.3846 31.0287 13.3846C30.2468 13.3846 29.6133 14.0182 29.6133 14.8001V17.4767C29.6133 18.2586 30.2468 18.8921 31.0287 18.8921Z" fill="black"/>
</svg>
