<svg width="110" height="110" viewBox="0 0 110 110" fill="none" xmlns="http://www.w3.org/2000/svg">
<mask id="mask0_246_15281" style="mask-type:luminance" maskUnits="userSpaceOnUse" x="0" y="0" width="110" height="110">
<path d="M0 0H110V110H0V0Z" fill="white"/>
</mask>
<g mask="url(#mask0_246_15281)">
<path d="M76.6179 16.3871L75.8631 5.13726C75.8088 4.32709 76.5652 3.70232 77.3505 3.90879L84.6517 5.82842C85.452 6.03875 85.7975 6.98256 85.3223 7.65974L78.7755 16.99C78.1321 17.9071 76.6928 17.5052 76.6179 16.3871Z" fill="#FE7D43"/>
<path d="M85.3213 7.65915L78.775 16.9898C78.1326 17.9072 76.6932 17.5054 76.618 16.3861L76.4268 13.5201L82.2641 5.20134L84.651 5.82868C85.4523 6.03923 85.7982 6.9824 85.3213 7.65915Z" fill="#FD6930"/>
<path d="M85.8551 21.483L97.8729 8.38419C98.4463 7.75921 99.4711 7.91927 99.8269 8.68927L104.412 18.6166C104.736 19.3178 104.315 20.1368 103.556 20.2816L86.9534 23.4529C85.8298 23.6675 85.0817 22.3258 85.8551 21.483Z" fill="#FE7D43"/>
<path d="M103.557 20.2813L86.9541 23.4524C85.8304 23.6672 85.0828 22.3266 85.8562 21.4822L88.3656 18.7473L102.889 15.9736C102.984 15.9565 103.072 15.9264 103.153 15.8899L104.412 18.6162C104.737 19.3188 104.316 20.1373 103.557 20.2813Z" fill="#FD6930"/>
<path d="M18.5913 67.023L37.7023 62.3473C38.3672 62.1845 39.0321 62.6152 39.1557 63.2888L40.9174 75.0575C41.8756 80.2846 38.6551 85.3702 33.5201 86.7388C28.4414 88.0921 23.1668 85.3601 21.3423 80.4312L17.7581 68.592C17.5112 67.9251 17.9005 67.1921 18.5913 67.023Z" fill="#79CAA6"/>
<path d="M35.8364 54.0135C32.2107 54.9001 19.9232 58.2886 16.2715 59.2984C15.6862 59.4602 15.0729 59.1547 14.8494 58.5903C9.35049 44.697 4.77819 37.7491 5.56752 26.1901C6.24987 16.2029 10.9913 6.13359 20.9192 2.43849C28.9137 -0.536884 35.5842 4.61056 38.3563 11.9904C41.926 21.4938 38.7639 31.2684 37.3206 40.8354C36.916 43.5175 36.6584 46.0602 36.6223 48.7625C36.6167 49.1913 36.6934 51.4759 36.7405 52.8183C36.7603 53.3814 36.3836 53.8796 35.8364 54.0135Z" fill="#79CAA6"/>
<path d="M55.4251 75.0508C58.9771 76.1978 70.9868 80.4674 74.5558 81.7391C75.1277 81.9429 75.7615 81.6826 76.0254 81.1358C82.5162 67.6773 87.5799 61.0793 87.6297 49.4934C87.6722 39.6409 83.4226 28.982 74.0391 24.692C66.2809 21.1454 59.2553 25.7961 55.9559 32.9558C51.707 42.1756 54.1528 52.1534 54.8993 61.7998C55.1086 64.5041 55.1814 67.0588 55.0216 69.7566C54.996 70.1848 54.7539 72.458 54.6099 73.7933C54.5494 74.3536 54.8888 74.8776 55.4251 75.0508Z" fill="#79CAA6"/>
<path d="M71.6828 89.2754L52.9607 83.2275C52.309 83.0172 51.6149 83.3985 51.4428 84.0611L48.8331 95.6715C47.4989 100.815 50.3426 106.121 55.365 107.858C60.3322 109.576 65.7909 107.233 67.9677 102.449L72.4001 90.9007C72.6945 90.2533 72.3593 89.4941 71.6828 89.2754Z" fill="#79CAA6"/>
<path d="M36.6223 48.7631C36.6158 49.1906 36.6932 51.4766 36.7404 52.8193C36.7598 53.3822 36.3838 53.8807 35.8359 54.0139C35.0045 54.2158 33.7197 54.551 32.1879 54.957C32.4715 54.7293 32.6412 54.3748 32.6283 53.9924C32.5811 52.6496 32.5037 50.3658 32.5102 49.9361C32.5445 47.2334 32.8023 44.6918 33.2063 42.0105C34.65 32.4436 37.8125 22.6682 34.2439 13.1656C31.8377 6.76328 26.4988 2.04101 19.9053 2.84667C20.2361 2.70273 20.5756 2.56738 20.9193 2.43847C28.9137 -0.537117 35.5846 4.61054 38.3561 11.9904C41.9246 21.493 38.7643 31.2684 37.3205 40.8353C36.9145 43.5166 36.6588 46.0604 36.6223 48.7631Z" fill="#57BE92"/>
<path d="M33.5209 86.7389C32.7238 86.9516 31.9246 87.0633 31.1318 87.0826C35.2418 85.149 37.6523 80.6459 36.8059 76.0311L35.0441 64.2641C34.9367 63.6819 34.4275 63.2822 33.8646 63.2865L37.7039 62.3477C38.3678 62.1844 39.0338 62.6162 39.1562 63.2887L40.918 75.0578C41.8762 80.285 38.6557 85.3703 33.5209 86.7389Z" fill="#57BE92"/>
<path d="M87.6305 49.4936C87.5789 61.0801 82.515 67.678 76.0246 81.1358C75.7604 81.6837 75.1266 81.9436 74.5551 81.7395C73.7602 81.4559 72.5484 81.0241 71.1025 80.5106C71.4441 80.4333 71.7492 80.2055 71.9125 79.8682C78.4029 66.4104 83.4668 59.8104 83.5162 48.226C83.5592 38.4893 79.4084 27.9663 70.2539 23.5792C71.485 23.7403 72.7525 24.1034 74.0395 24.692C83.4217 28.9825 87.6713 39.6409 87.6305 49.4936Z" fill="#57BE92"/>
<path d="M72.4004 90.9005L67.9682 102.448C66.2709 106.174 62.5863 108.419 58.6912 108.419C57.5869 108.419 56.4633 108.238 55.3633 107.858C54.7811 107.656 54.2289 107.407 53.709 107.113C53.999 107.138 54.2891 107.151 54.5791 107.151C58.4742 107.151 62.1588 104.906 63.8539 101.181L68.2861 89.6329C68.5805 88.9862 68.2453 88.2257 67.5686 88.0065L71.6828 89.2762C72.3596 89.4932 72.6947 90.2538 72.4004 90.9005Z" fill="#57BE92"/>
<path d="M6.00416 34.7199C5.52978 32.0597 5.35576 29.2908 5.56759 26.19C6.24994 16.203 10.9913 6.13345 20.9193 2.43856C28.9138 -0.536808 35.5843 4.61064 38.3562 11.9905C41.926 21.4939 38.764 31.2685 37.3206 40.8354C36.9161 43.5173 36.6585 46.0602 36.6224 48.7625C36.6168 49.1911 36.6935 51.476 36.7406 52.8184C36.7603 53.3815 36.3837 53.8797 35.8365 54.0135C32.2106 54.9002 19.9232 58.2887 16.2715 59.2983C15.6863 59.46 15.0729 59.1547 14.8495 58.5901C12.1648 51.8071 9.70097 46.6796 7.97406 41.8628" stroke="black" stroke-width="5" stroke-miterlimit="10" stroke-linecap="round" stroke-linejoin="round"/>
<path d="M18.5913 67.023L37.7023 62.3473C38.3672 62.1845 39.0321 62.6152 39.1557 63.2888L40.9174 75.0575C41.8756 80.2846 38.6551 85.3702 33.5201 86.7388C28.4414 88.0921 23.1668 85.3601 21.3423 80.4312L17.7581 68.592C17.5112 67.9251 17.9005 67.1921 18.5913 67.023Z" stroke="black" stroke-width="5" stroke-miterlimit="10" stroke-linecap="round" stroke-linejoin="round"/>
<path d="M55.4251 75.0508C58.9771 76.1978 70.9868 80.4674 74.5558 81.7391C75.1277 81.9429 75.7615 81.6826 76.0254 81.1358C82.5162 67.6773 87.5799 61.0793 87.6297 49.4934C87.6722 39.6409 83.4226 28.982 74.0391 24.692C66.2809 21.1454 59.2553 25.7961 55.9559 32.9558C51.707 42.1756 54.1528 52.1534 54.8993 61.7998C55.1086 64.5041 55.1814 67.0588 55.0216 69.7566C54.996 70.1848 54.7539 72.458 54.6099 73.7933C54.5494 74.3536 54.8888 74.8776 55.4251 75.0508Z" stroke="black" stroke-width="5" stroke-miterlimit="10" stroke-linecap="round" stroke-linejoin="round"/>
<path d="M56.1672 84.2634L52.9607 83.2276C52.309 83.0171 51.6149 83.3984 51.443 84.0612L48.8331 95.6716C47.4989 100.815 50.3426 106.121 55.365 107.858C60.3322 109.576 65.7909 107.233 67.9677 102.449L72.4001 90.9008C72.6947 90.2534 72.3595 89.494 71.6828 89.2755L63.329 86.5768" stroke="black" stroke-width="5" stroke-miterlimit="10" stroke-linecap="round" stroke-linejoin="round"/>
<path d="M76.6179 16.3871L75.8631 5.13726C75.8088 4.32709 76.5652 3.70232 77.3505 3.90879L84.6517 5.82842C85.452 6.03875 85.7975 6.98256 85.3223 7.65974L78.7755 16.99C78.1321 17.9071 76.6928 17.5052 76.6179 16.3871Z" stroke="black" stroke-width="5" stroke-miterlimit="10" stroke-linecap="round" stroke-linejoin="round"/>
<path d="M85.8551 21.483L97.8729 8.38419C98.4463 7.75921 99.4711 7.91927 99.8269 8.68927L104.412 18.6166C104.736 19.3178 104.315 20.1368 103.556 20.2816L86.9534 23.4529C85.8298 23.6675 85.0817 22.3258 85.8551 21.483Z" stroke="black" stroke-width="5" stroke-miterlimit="10" stroke-linecap="round" stroke-linejoin="round"/>
</g>
</svg>
