<svg width="125" height="125" viewBox="0 0 125 125" fill="none" xmlns="http://www.w3.org/2000/svg">
<path d="M77.1918 58.2576H112.716C118.488 58.2576 123.167 53.5787 123.167 47.807V12.2826C123.167 6.51095 118.488 1.83203 112.716 1.83203H77.1918C71.4201 1.83203 66.7412 6.51095 66.7412 12.2826V47.8068C66.741 53.5785 71.4199 58.2576 77.1918 58.2576Z" fill="#6BBEF6"/>
<path d="M83.7675 58.2559H77.1904C71.4189 58.2559 66.7412 53.5782 66.7412 47.8068V12.2826C66.7412 6.5112 71.4189 1.83105 77.1904 1.83105H83.7675C77.996 1.83105 73.3159 6.5112 73.3159 12.2826V47.807C73.3159 53.5785 77.996 58.2559 83.7675 58.2559Z" fill="#5EA5EC"/>
<path d="M97.1574 8.78979H86.7693C86.0093 8.78979 85.2507 8.93848 84.5667 9.26953C82.7945 10.1272 81.7478 11.8852 81.7539 13.7487V47.6674C81.7539 49.6733 83.3801 51.2995 85.386 51.2995H88.0083C90.0141 51.2995 91.6403 49.6733 91.6403 47.6674V39.8985C93.6823 39.8882 95.8783 39.8789 97.1574 39.8789C105.843 39.8789 112.909 32.9056 112.909 24.3344C112.909 15.7631 105.843 8.78979 97.1574 8.78979ZM97.1574 29.9925C95.8822 29.9925 93.715 30.0016 91.6862 30.0118C91.6757 27.9073 91.6665 25.6412 91.6665 24.3346C91.6665 23.2167 91.6611 20.8761 91.655 18.6764H97.1574C100.337 18.6764 103.023 21.2675 103.023 24.3346C103.023 27.4017 100.337 29.9925 97.1574 29.9925Z" fill="#F6F9F9"/>
<path d="M84.3956 66.6062H7.34908C4.41258 66.6062 2.03223 64.2259 2.03223 61.2894C2.03223 58.3529 4.41258 55.9725 7.34908 55.9725H84.3959C87.3324 55.9725 89.7127 58.3529 89.7127 61.2894C89.7125 64.2256 87.3321 66.6062 84.3956 66.6062Z" fill="#DD636E"/>
<path d="M67.7672 45.1671H23.9763C21.8313 45.1671 20.0376 46.7972 19.833 48.9325L17.2539 75.8554H74.4898L71.9105 48.9325C71.7059 46.7972 69.9122 45.1671 67.7672 45.1671Z" fill="#F6F9F9"/>
<path d="M36.482 75.8549H17.2539L19.832 48.9315C20.0371 46.7977 21.8315 45.1669 23.975 45.1669H41.7142C35.5594 45.1669 30.4105 49.8446 29.8246 55.9725L28.7358 67.3322C28.2985 71.9023 31.8898 75.8549 36.482 75.8549Z" fill="#E7ECF6"/>
<path d="M76.614 51.0031C75.6399 44.7483 70.2566 40.1365 63.9261 40.1365H27.8182C21.4877 40.1365 16.1044 44.7483 15.1303 51.0031L10.1914 82.758H81.5527L76.614 51.0031ZM18.7436 75.4338L22.3691 52.1286C22.789 49.4235 25.0814 47.4606 27.8182 47.4606H63.9261C66.6629 47.4606 68.9554 49.4235 69.3753 52.1286L73.0008 75.4338H18.7436Z" fill="#DD636E"/>
<path d="M27.8182 40.1365C21.4877 40.1365 16.1044 44.7483 15.1303 51.0031L10.1914 82.758H15.062L20.0009 51.0031C20.975 44.7483 26.3583 40.1365 32.6888 40.1365H27.8182Z" fill="#DA4A54"/>
<path d="M17.9025 123.109C14.0466 123.109 10.9209 119.983 10.9209 116.127V109.145L16.4057 102.487L24.8844 109.145V116.127C24.8842 119.983 21.7585 123.109 17.9025 123.109Z" fill="#30579D"/>
<path d="M20.2153 122.714C19.4926 122.968 18.7138 123.107 17.9033 123.107C14.0459 123.107 10.9209 119.982 10.9209 116.127V109.145L16.4067 102.487L19.2119 104.689L15.5424 109.145V116.127C15.5424 119.174 17.4956 121.762 20.2153 122.714Z" fill="#26457D"/>
<path d="M73.1096 123.109C69.2536 123.109 66.1279 119.983 66.1279 116.127V109.145L75.3373 102.487L80.0915 109.145V116.127C80.0915 119.983 76.9655 123.109 73.1096 123.109Z" fill="#30579D"/>
<path d="M75.4223 122.714C74.6996 122.968 73.9208 123.107 73.1103 123.107C69.2529 123.107 66.1279 119.982 66.1279 116.127V109.145L71.6137 102.487L74.4189 104.689L70.7495 109.145V116.127C70.7495 119.174 72.7026 121.762 75.4223 122.714Z" fill="#26457D"/>
<path d="M75.3378 71.1121H16.4064C8.40034 71.1121 1.91016 77.6022 1.91016 85.6083V87.9906C1.91016 95.9966 8.40034 102.487 16.4064 102.487H75.3378C83.3439 102.487 89.8341 95.9966 89.8341 87.9906V85.6083C89.8341 77.6025 83.3439 71.1121 75.3378 71.1121Z" fill="#DD636E"/>
<path d="M28.8279 102.486H16.4061C8.39839 102.486 1.90918 95.9971 1.90918 87.9894V85.609C1.90918 77.6013 8.39839 71.1121 16.4061 71.1121H28.8279C20.8202 71.1121 14.331 77.6013 14.331 85.609V87.9894C14.331 95.9971 20.8202 102.486 28.8279 102.486Z" fill="#DA4A54"/>
<path d="M84.316 98.1091H7.42818C4.3806 98.1091 1.91016 100.58 1.91016 103.627C1.91016 106.675 4.3806 109.145 7.42818 109.145H84.316C87.3636 109.145 89.8341 106.675 89.8341 103.627C89.8341 100.58 87.3636 98.1091 84.316 98.1091Z" fill="#F6F9F9"/>
<path d="M15.704 107.529C16.7025 108.527 18.0819 109.145 19.6053 109.145H7.42769C5.90427 109.145 4.52488 108.527 3.52636 107.529C2.52783 106.53 1.91016 105.151 1.91016 103.627C1.91016 100.58 4.38084 98.1096 7.42769 98.1096H19.6053C16.5585 98.1096 14.0878 100.58 14.0878 103.627C14.0878 105.151 14.7055 106.53 15.704 107.529Z" fill="#E7ECF6"/>
<path d="M15.8786 92.9855C13.6367 92.9855 11.8193 91.1681 11.8193 88.9262V82.1855C11.8193 79.9436 13.6367 78.1262 15.8786 78.1262C18.1206 78.1262 19.9379 79.9436 19.9379 82.1855V88.9262C19.9379 91.1681 18.1206 92.9855 15.8786 92.9855Z" fill="#F6F9F9"/>
<path d="M75.8659 92.9855C73.624 92.9855 71.8066 91.1681 71.8066 88.9262V82.1855C71.8066 79.9436 73.624 78.1262 75.8659 78.1262C78.1079 78.1262 79.9252 79.9436 79.9252 82.1855V88.9262C79.9252 91.1681 78.1079 92.9855 75.8659 92.9855Z" fill="#F6F9F9"/>
<path d="M77.6782 92.559C77.1337 92.8324 76.5185 92.9862 75.8667 92.9862C73.6255 92.9862 71.8066 91.1698 71.8066 88.9262V82.1855C71.8066 79.9443 73.6255 78.1279 75.8667 78.1279C76.5185 78.1279 77.1337 78.2817 77.6782 78.5552C76.3452 79.2192 75.4297 80.5962 75.4297 82.1855V88.9262C75.4297 90.518 76.3452 91.8949 77.6782 92.559Z" fill="#E7ECF6"/>
<path d="M17.6909 92.559C17.1464 92.8324 16.5312 92.9862 15.8794 92.9862C13.6382 92.9862 11.8193 91.1698 11.8193 88.9262V82.1855C11.8193 79.9443 13.6382 78.1279 15.8794 78.1279C16.5312 78.1279 17.1464 78.2817 17.6909 78.5552C16.3579 79.2192 15.4424 80.5962 15.4424 82.1855V88.9262C15.4424 90.518 16.3579 91.8949 17.6909 92.559Z" fill="#E7ECF6"/>
<path d="M116.322 59.4483C116.532 59.4483 116.745 59.4122 116.953 59.3355C121.765 57.5677 124.999 52.9349 124.999 47.8073V12.2826C124.999 5.50997 119.489 0 112.716 0H77.1913C70.4199 0 64.9111 5.50997 64.9111 12.2826V38.3413C64.5852 38.32 64.2573 38.3054 63.926 38.3054H27.8182C20.5384 38.3054 14.4415 43.527 13.3212 50.7216L12.7892 54.1412H7.34809C5.43893 54.1412 3.64402 54.8849 2.29368 56.2352C0.943352 57.5855 0.199706 59.3804 0.199706 61.2896C0.199706 65.2312 3.40647 68.438 7.34809 68.438H10.5651L10.2458 70.4907C4.28903 72.9274 0.0798334 78.7839 0.0798334 85.608V87.9908C0.0798334 91.4984 1.18017 94.835 3.21409 97.6123C1.32079 98.9429 0.0798334 101.142 0.0798334 103.627C0.0798334 105.59 0.844232 107.435 2.23241 108.823C3.62033 110.211 5.46578 110.976 7.42841 110.976H9.09027V116.127C9.09027 118.075 9.72674 119.876 10.8009 121.337H1.83104C0.819818 121.337 0 122.157 0 123.168C0 124.179 0.819818 124.999 1.83104 124.999H123.167C124.179 124.999 124.998 124.179 124.998 123.168C124.998 122.157 124.179 121.337 123.167 121.337H96.7854V60.0874H109.054C110.065 60.0874 110.885 59.2676 110.885 58.2564C110.885 57.2452 110.065 56.4254 109.054 56.4254H89.627C88.3209 55.0216 86.4596 54.1412 84.3954 54.1412H78.955L78.423 50.7211C77.5522 45.1298 73.6748 40.7316 68.5732 39.0485V12.2826C68.5732 7.52924 72.4392 3.66208 77.1913 3.66208H112.716C117.469 3.66208 121.337 7.52924 121.337 12.2826V47.8073C121.337 51.4059 119.067 54.6573 115.691 55.898C114.741 56.2467 114.255 57.2989 114.603 58.2481C114.875 58.9891 115.576 59.4483 116.322 59.4483ZM7.34809 64.7759C5.42574 64.7759 3.86179 63.2119 3.86179 61.2896C3.86179 60.3587 4.22458 59.4832 4.88302 58.8245C5.54171 58.1658 6.41719 57.8033 7.34809 57.8033H12.2194L11.1347 64.7759H7.34809ZM3.74216 87.9911V85.6083C3.74216 78.6244 9.42303 72.9426 16.4056 72.9426H75.3381C82.3219 72.9426 88.0038 78.6244 88.0038 85.6083V87.9911C88.0038 91.0797 86.9029 93.9969 84.8915 96.303C84.7005 96.2884 84.5087 96.2788 84.3153 96.2788H7.42866C7.2353 96.2788 7.04438 96.2886 6.85469 96.3035C4.84323 93.9971 3.74216 91.0797 3.74216 87.9911ZM69.0954 69.2803C68.6299 63.1199 63.4722 58.2488 57.1949 58.2488C50.9174 58.2488 45.7597 63.1199 45.2941 69.2803H21.5531L24.1783 52.4093C24.4586 50.6027 25.9893 49.2916 27.8182 49.2916H63.926C65.7546 49.2916 67.2854 50.6029 67.5659 52.41L70.1911 69.2803H69.0954ZM65.4207 69.2803H48.9689C49.4222 65.1419 52.9376 61.9109 57.1949 61.9109C61.4519 61.9109 64.9673 65.1419 65.4207 69.2803ZM23.054 110.976V116.127C23.054 118.967 20.7435 121.277 17.9034 121.277C15.0634 121.277 12.7528 118.967 12.7528 116.127V110.976H23.054ZM26.7161 116.127V110.976H29.9553C30.9666 110.976 31.7864 110.156 31.7864 109.145C31.7864 108.133 30.9666 107.314 29.9553 107.314H7.42866C6.44405 107.314 5.51851 106.93 4.82199 106.234C4.12546 105.537 3.74216 104.612 3.74216 103.627C3.74216 101.594 5.39596 99.9407 7.42866 99.9407H84.3153C85.3014 99.9407 86.2279 100.324 86.9244 101.021C87.6209 101.717 88.0042 102.643 88.0042 103.627C88.0042 105.66 86.3495 107.314 84.3153 107.314H37.2795C36.2683 107.314 35.4485 108.133 35.4485 109.145C35.4485 110.156 36.2683 110.976 37.2795 110.976H64.2974V116.127C64.2974 118.075 64.9339 119.877 66.0081 121.337H25.0054C26.0799 119.877 26.7161 118.075 26.7161 116.127ZM78.2609 116.127C78.2609 118.967 75.9504 121.278 73.1101 121.278C70.27 121.278 67.9595 118.967 67.9595 116.127V110.976H78.2609V116.127ZM93.1233 60.0874V121.337H80.2123C81.2865 119.877 81.923 118.075 81.923 116.127V110.976H84.3153C88.3687 110.976 91.6663 107.679 91.6663 103.627C91.6663 101.665 90.9019 99.8193 89.5137 98.4312C89.2083 98.126 88.8797 97.8526 88.5338 97.6091C90.5662 94.8326 91.6656 91.4971 91.6656 87.9911V85.6083C91.6656 78.7841 87.4557 72.9274 81.4979 70.4907L81.1786 68.438H84.3951C86.3043 68.438 88.0992 67.6943 89.4495 66.344C90.7999 64.9937 91.5435 63.1985 91.5435 61.2896C91.5435 60.8797 91.5069 60.4786 91.4405 60.0874H93.1233ZM84.3954 57.8033C86.3177 57.8033 87.8817 59.3672 87.8817 61.2896C87.8817 62.2205 87.5189 63.096 86.8604 63.7547C86.2018 64.4133 85.3265 64.7759 84.3954 64.7759H80.6093L79.5248 57.8033H84.3954ZM74.8046 51.2845L77.6296 69.4443C76.8803 69.3386 76.1161 69.2803 75.3381 69.2803H73.8972L71.1845 51.8475C70.6252 48.2445 67.5727 45.6295 63.926 45.6295H27.8182C24.1715 45.6295 21.119 48.2445 20.5599 51.847L17.847 69.2803H16.4056C15.6278 69.2803 14.8639 69.3386 14.1149 69.4443L16.9396 51.285C17.7804 45.8861 22.3555 41.9675 27.8182 41.9675H63.926C69.3886 41.9675 73.9638 45.8861 74.8046 51.2845Z" fill="black"/>
<path d="M97.1576 6.95874H86.7695C85.687 6.95874 84.6777 7.18164 83.7691 7.62133C81.3882 8.77342 79.9143 11.1235 79.9229 13.7487V47.6674C79.9229 50.6799 82.3736 53.1305 85.386 53.1305H88.0085C91.0209 53.1305 93.4716 50.6799 93.4716 47.6674V41.7209C94.9052 41.7146 96.2585 41.71 97.1576 41.71C106.853 41.71 114.741 33.9153 114.741 24.3343C114.741 14.7534 106.853 6.95874 97.1576 6.95874ZM97.1576 38.0479C95.8764 38.0479 93.6767 38.0571 91.6315 38.0674C90.624 38.0725 89.8098 38.8909 89.8098 39.8984V47.6674C89.8098 48.6606 89.0019 49.4684 88.0088 49.4684H85.3862C84.3931 49.4684 83.5852 48.6606 83.5852 47.6674V13.7431C83.5813 12.5334 84.2632 11.4509 85.3647 10.9179C85.7661 10.7236 86.2519 10.6211 86.7698 10.6211H97.1576C104.834 10.6211 111.079 16.7729 111.079 24.3346C111.079 31.8963 104.834 38.0479 97.1576 38.0479Z" fill="black"/>
<path d="M97.1567 16.8453H91.6543C91.1677 16.8453 90.7014 17.0389 90.3577 17.3834C90.0139 17.7279 89.8218 18.1949 89.8233 18.6813C89.8291 20.8788 89.844 27.9129 89.8545 30.0208C89.8569 30.5064 90.0523 30.9712 90.3972 31.3128C90.7402 31.6524 91.2031 31.8425 91.6855 31.8425H91.6948C93.7202 31.8323 95.8838 31.8233 97.1567 31.8233C101.329 31.8233 104.853 28.3936 104.853 24.3341C104.853 20.2745 101.329 16.8453 97.1567 16.8453ZM97.1567 28.1614C96.2612 28.1614 94.9265 28.1658 93.508 28.1722C93.5015 26.6768 93.4939 22.0787 93.4902 20.5074H97.1567C99.3061 20.5074 101.191 22.2957 101.191 24.3345C101.191 26.3733 99.3058 28.1614 97.1567 28.1614Z" fill="black"/>
<path d="M15.8786 94.8166C19.1266 94.8166 21.769 92.1743 21.769 88.9263V82.1856C21.769 78.9376 19.1266 76.2953 15.8786 76.2953C12.6306 76.2953 9.98828 78.9376 9.98828 82.1856V88.9263C9.98828 92.1741 12.6306 94.8166 15.8786 94.8166ZM13.6504 82.1856C13.6504 80.9569 14.6499 79.9574 15.8786 79.9574C17.1074 79.9574 18.1069 80.9569 18.1069 82.1856V88.9263C18.1069 90.1551 17.1074 91.1546 15.8786 91.1546C14.6499 91.1546 13.6504 90.1551 13.6504 88.9263V82.1856Z" fill="black"/>
<path d="M75.8659 94.8166C79.1139 94.8166 81.7563 92.1743 81.7563 88.9263V82.1856C81.7563 78.9376 79.1139 76.2953 75.8659 76.2953C72.6179 76.2953 69.9756 78.9376 69.9756 82.1856V88.9263C69.9756 92.1741 72.6181 94.8166 75.8659 94.8166ZM73.6377 82.1856C73.6377 80.9569 74.6372 79.9574 75.8659 79.9574C77.0947 79.9574 78.0942 80.9569 78.0942 82.1856V88.9263C78.0942 90.1551 77.0947 91.1546 75.8659 91.1546C74.6372 91.1546 73.6377 90.1551 73.6377 88.9263V82.1856Z" fill="black"/>
<path d="M29.9189 84.5118H61.8249C62.8362 84.5118 63.656 83.692 63.656 82.6808C63.656 81.6695 62.8362 80.8497 61.8249 80.8497H29.9189C28.9077 80.8497 28.0879 81.6695 28.0879 82.6808C28.0879 83.692 28.9075 84.5118 29.9189 84.5118Z" fill="black"/>
<path d="M29.9189 91.0724H61.8249C62.8362 91.0724 63.656 90.2525 63.656 89.2413C63.656 88.2301 62.8362 87.4103 61.8249 87.4103H29.9189C28.9077 87.4103 28.0879 88.2301 28.0879 89.2413C28.0879 90.2525 28.9075 91.0724 29.9189 91.0724Z" fill="black"/>
</svg>
