<svg width="111" height="114" viewBox="0 0 111 114" fill="none" xmlns="http://www.w3.org/2000/svg">
<path d="M76.193 18.5827C79.2744 14.3206 78.6802 8.63001 74.8658 5.87234C71.0515 3.11466 65.4614 4.3342 62.3801 8.59624C59.2987 12.8583 59.8929 18.5489 63.7072 21.3066C67.5216 24.0642 73.1116 22.8447 76.193 18.5827Z" fill="#FFCDAC"/>
<path d="M51.7282 57.7197L65.9887 31.6986C68.1935 27.6753 66.6183 22.6254 62.5167 20.5698L60.6587 19.6386C56.7278 17.6682 51.9426 19.1957 49.8802 23.0794L36.6562 47.9816L51.7282 57.7197Z" fill="#F5B955"/>
<path d="M97.125 43.8447V75.2521L108.832 66.6084V38.1572L97.125 43.8447Z" fill="#D9996F"/>
<path d="M61.1517 33.0175L66.817 44.0663C67.4384 45.2782 68.7444 45.98 70.098 45.8291L83.6938 44.3135C85.7928 44.0795 87.7371 45.4464 88.227 47.5008C88.8087 49.9389 87.1305 52.338 84.6408 52.6276L66.9298 54.6876C63.835 55.0475 60.8419 53.4486 59.4206 50.676L55.5 43.0283L61.1517 33.0175Z" fill="#F5B955"/>
<path d="M32.4551 103.03H77.3965L83.2864 85.4695L108.832 66.6084V111.052H35.4631L32.4551 103.03Z" fill="#C88C64"/>
<path d="M22.3299 111.052L13.875 88.5046H2.16797V111.052H22.3299Z" fill="#D9996F"/>
<path d="M36.6567 47.9814L34.3881 50.4696C30.3832 54.8624 29.4735 61.2581 32.095 66.593L33.176 68.7931L31.3241 89.4413V103.03V106.913C31.3241 109.199 33.1771 111.052 35.4628 111.052H45.6897C47.3959 111.052 48.7791 109.669 48.7791 107.962C48.7791 106.256 47.3959 104.873 45.6897 104.873H43.4639C42.0796 104.873 40.7775 104.217 39.9535 103.105C39.3961 102.353 39.0954 101.441 39.0954 100.505V90.1309L46.3917 70.3564L45.0938 69.4268L51.8422 74.2581C53.5937 75.5121 54.6328 77.5337 54.6328 79.6878V100.031C54.6328 101.687 55.9755 103.03 57.6318 103.03H67.5865C68.9334 103.03 70.0254 101.938 70.0254 100.591C70.0254 99.244 68.9334 98.152 67.5865 98.152H66.5591C65.231 98.152 63.9495 97.6635 62.9583 96.7794C61.4411 95.4264 60.8107 93.3371 61.326 91.3708L65.0224 77.2673C66.5166 71.5664 64.1448 65.5544 59.1606 62.4093L46.0867 54.1593L36.6567 47.9814Z" fill="#9BBEFF"/>
<path d="M54.6318 92.7598V100.031C54.6318 101.687 55.9745 103.03 57.6308 103.03H67.5855C68.9324 103.03 70.0244 101.938 70.0244 100.591C70.0244 99.2442 68.9324 98.1522 67.5855 98.1522H66.5581C65.23 98.1522 63.9485 97.6637 62.9573 96.7796C61.795 95.7431 61.1557 94.2741 61.1507 92.7598H54.6318Z" fill="#5A55E1"/>
<path d="M35.4619 111.052H45.6889C47.3951 111.052 48.7782 109.668 48.7782 107.962C48.7782 106.256 47.3951 104.873 45.6889 104.873H43.463C42.0788 104.873 40.7767 104.217 39.9526 103.105C39.3952 102.352 39.0946 101.441 39.0946 100.504H31.3232V103.03V106.913C31.3232 109.199 33.1762 111.052 35.4619 111.052Z" fill="#5A55E1"/>
<path d="M54.1982 18.3883L46.6281 14.2176C41.5474 11.4185 35.1621 13.1681 32.218 18.1659L20.7943 37.5573C17.7203 42.7754 19.5757 49.502 24.89 52.4062L31.2736 55.8947L54.1982 18.3883Z" fill="#46C373"/>
<path d="M34.3778 40.0652C32.3059 38.6059 29.4409 39.1213 28.0074 41.2112L22.0811 50.1892C22.8659 51.0568 23.8048 51.8124 24.8912 52.406L31.2748 55.8946L38.9875 43.2758L34.3778 40.0652Z" fill="#A5DC69"/>
<path d="M32.2185 18.1659L29.2725 23.167C29.2725 23.167 37.6139 28.0291 46.5683 22.3791L52.6813 18.3883L51.9139 17.1294L46.6286 14.2176C41.5482 11.4185 35.1628 13.1681 32.2185 18.1659Z" fill="#A5DC69"/>
<path d="M109.808 64.6728C109.078 64.3042 108.202 64.3784 107.544 64.8642L90.5102 77.4408V23.4659C90.5102 22.2688 89.5394 21.298 88.3422 21.298C87.1451 21.298 86.1743 22.2688 86.1743 23.4659V42.4522C85.3212 42.1649 84.3972 42.0539 83.4532 42.1586L69.857 43.674C69.3994 43.7228 68.9547 43.4848 68.7455 43.077L65.5933 36.9297L67.8892 32.7405C69.2097 30.331 69.5076 27.5684 68.7401 24.9389C69.384 24.9139 70.035 24.8344 70.6882 24.6919C73.5686 24.0637 76.148 22.3438 77.9511 19.8493C79.7542 17.3551 80.5785 14.3665 80.272 11.4344C79.9561 8.41221 78.4871 5.81151 76.1355 4.1116C71.3581 0.658458 64.399 2.09777 60.6221 7.32215C58.819 9.8164 57.9948 12.8049 58.3013 15.7371C58.3358 16.0662 58.3863 16.3895 58.4477 16.7079C57.4983 16.5748 56.5333 16.5774 55.5766 16.716C55.4745 16.6321 55.3644 16.5551 55.2445 16.4892L47.6744 12.3185C44.7203 10.691 41.3018 10.286 38.0492 11.1768C34.7964 12.0681 32.0621 14.1593 30.3501 17.0652L18.9266 36.4564C17.1394 39.4905 16.6706 43.031 17.607 46.4254C18.5433 49.82 20.7609 52.6193 23.8507 54.3079L28.7439 56.9819C28.0503 60.4752 28.4913 64.1754 30.1487 67.5484L30.9619 69.2034L29.1642 89.2467C29.1586 89.3111 29.1555 89.3759 29.1555 89.4406V106.912C29.1555 110.39 31.9848 113.219 35.4622 113.219H45.6891C48.5879 113.219 50.9465 110.861 50.9465 107.962C50.9465 105.063 48.5879 102.704 45.6891 102.704H43.4633C42.7691 102.704 42.1083 102.372 41.6951 101.814C41.4122 101.432 41.2628 100.979 41.2628 100.504V90.5176L47.4411 73.7735L50.5797 76.0206C51.7595 76.8652 52.4641 78.236 52.4641 79.6873V100.031C52.4641 102.88 54.7818 105.198 57.631 105.198H64.8486H67.5857H77.3957C78.3275 105.198 79.1548 104.602 79.451 103.719L85.1235 86.8069L106.663 70.9031V108.883H102.327V93.9603C102.327 92.7632 101.356 91.7924 100.159 91.7924C98.962 91.7924 97.9912 92.7632 97.9912 93.9603V108.883H88.3418C87.1446 108.883 86.1738 109.854 86.1738 111.051C86.1738 112.248 87.1446 113.219 88.3418 113.219H108.831C110.028 113.219 110.999 112.248 110.999 111.051V66.6083C110.999 65.7899 110.539 65.0415 109.808 64.6728ZM64.1364 9.86258C65.6772 7.73103 68.0034 6.56011 70.223 6.56011C71.4258 6.56011 72.5976 6.90417 73.5957 7.62567C74.9344 8.59323 75.7739 10.106 75.9599 11.8853C76.1552 13.7545 75.6145 15.681 74.4375 17.3093C73.2605 18.9377 71.6007 20.0551 69.7645 20.4559C68.0273 20.8347 66.3391 20.5175 65.0042 19.5642C64.9711 19.5397 64.9386 19.5146 64.905 19.4905C63.6096 18.5212 62.7964 17.0329 62.6138 15.2868C62.4185 13.4172 62.9592 11.4909 64.1364 9.86258ZM59.6869 21.5763L61.5448 22.5079C61.8427 22.6573 62.1235 22.8299 62.3873 23.0215C62.4044 23.0341 62.4207 23.0477 62.4378 23.0601C62.4447 23.0651 62.4519 23.0699 62.4591 23.0748C63.4444 23.8139 64.172 24.8381 64.5477 26.0417C65.0313 27.5927 64.8681 29.2317 64.087 30.6565L63.2035 32.2686L63.0802 32.0279C62.5338 30.9624 61.227 30.5418 60.1619 31.0879C59.0963 31.6342 58.6757 32.9408 59.2218 34.0062L64.8874 45.0552C65.9133 47.0561 68.1051 48.232 70.3377 47.9833L83.9337 46.4679C84.9422 46.3545 85.8825 47.0153 86.1179 48.0037C86.2536 48.5719 86.1437 49.1484 85.809 49.6271C85.474 50.1055 84.9702 50.4065 84.39 50.4739L66.6788 52.5339C64.4954 52.7864 62.3526 51.6437 61.3493 49.6869L57.4287 42.0392C56.8824 40.9734 55.576 40.5522 54.5106 41.0989C53.4451 41.6452 53.0243 42.9517 53.5704 44.017L55.1144 47.029L50.9467 54.634L39.5044 47.2406L51.7948 24.096C53.2922 21.2759 56.8323 20.1455 59.6869 21.5763ZM45.5827 16.1163L49.169 18.0922L45.383 20.5639C41.5171 23.0879 36.6877 23.647 32.383 22.1582L34.0864 19.2666C36.4514 15.2517 41.5004 13.8673 45.5827 16.1163ZM22.6629 38.6578L30.1483 25.9515C32.4277 26.858 34.8393 27.308 37.2475 27.308C40.4134 27.308 43.5715 26.5289 46.4093 24.9928L38.3337 40.2003L35.6259 38.2929C34.1464 37.2508 32.3505 36.8529 30.5691 37.1738C28.7876 37.4944 27.2427 38.4928 26.2192 39.9855L22.0483 46.067C21.9496 45.8084 21.8621 45.5439 21.7873 45.2733C21.1659 43.0206 21.4768 40.671 22.6629 38.6578ZM25.9305 50.5036C25.5231 50.2809 25.1396 50.0281 24.7799 49.7498L29.7949 42.4374C30.1578 41.9084 30.7052 41.5546 31.3365 41.4408C31.9678 41.327 32.6046 41.4681 33.1288 41.8375L36.2838 44.0599L34.8697 46.7231L32.7856 49.0088C31.7209 50.1766 30.8485 51.461 30.1693 52.8201L25.9305 50.5036ZM43.4637 107.041H45.6896C46.1978 107.041 46.611 107.454 46.611 107.962C46.611 108.47 46.1978 108.884 45.6896 108.884H35.4626C34.376 108.884 33.4919 107.999 33.4919 106.913V102.672H37.3036C37.5198 103.287 37.8229 103.87 38.2114 104.395C39.4382 106.052 41.402 107.041 43.4637 107.041ZM46.3554 67.6639C45.3815 66.9667 44.0272 67.1911 43.3306 68.1647C42.6449 69.1228 42.8526 70.4476 43.7865 71.1539L37.0613 89.3805C36.9726 89.6207 36.9273 89.8748 36.9273 90.1311V98.3368H33.4919V89.5385L35.3351 68.987C35.3707 68.5914 35.2968 68.1938 35.1216 67.8372L34.0406 65.6373C32.6442 62.7957 32.4138 59.6394 33.2643 56.7541C33.3256 56.6123 33.3716 56.4672 33.4009 56.3205C33.9348 54.7303 34.8022 53.2331 35.9899 51.9303L37.0216 50.7989L58.0032 64.2435C62.2076 66.8963 64.1854 71.9095 62.9249 76.7182L59.2884 90.5922H56.8002V79.6877C56.8002 76.841 55.4184 74.1522 53.1036 72.4953L46.3554 67.6639ZM64.8488 100.862H57.6312C57.1731 100.862 56.8002 100.489 56.8002 100.031V94.9277H59.2971C59.6919 96.2397 60.4452 97.4436 61.5147 98.3973C62.9046 99.6374 64.696 100.32 66.5587 100.32H67.5861C67.7355 100.32 67.8571 100.442 67.8571 100.591C67.8571 100.74 67.7355 100.862 67.5861 100.862H64.8488ZM81.9983 83.7253C81.6402 83.9898 81.372 84.358 81.2306 84.7801L75.8365 100.862H72.1791C72.1843 100.772 72.1928 100.683 72.1928 100.591C72.1928 98.0506 70.1263 95.9841 67.5859 95.9841H66.5585C65.7615 95.9841 64.9956 95.6921 64.4007 95.1614C63.7165 94.5513 63.3347 93.7015 63.3163 92.8159C63.3167 92.797 63.3191 92.7788 63.3191 92.7597C63.3191 92.748 63.3176 92.7367 63.3173 92.725C63.3193 92.4575 63.3527 92.1876 63.4227 91.9205L67.1193 77.817C68.8613 71.1713 66.1279 64.2427 60.3175 60.5762L54.6088 56.9739L57.5048 51.6895C59.1646 54.903 62.5141 56.9047 66.0793 56.9045C66.4444 56.9045 66.8121 56.8835 67.18 56.8406L84.891 54.7805C85.3314 54.7294 85.7608 54.632 86.1745 54.4933V80.6418L81.9983 83.7253Z" fill="black"/>
<path d="M88.3428 18.2628C88.913 18.2628 89.4723 18.0308 89.8753 17.6274C90.2786 17.2244 90.5107 16.665 90.5107 16.0949C90.5107 15.5247 90.2788 14.9653 89.8753 14.5621C89.4723 14.1589 88.913 13.9269 88.3428 13.9269C87.7724 13.9269 87.2133 14.1586 86.81 14.5621C86.4068 14.9656 86.1748 15.5247 86.1748 16.0949C86.1748 16.665 86.4066 17.2244 86.81 17.6274C87.2133 18.0308 87.7724 18.2628 88.3428 18.2628Z" fill="black"/>
<path d="M15.9049 87.7433C15.5875 86.8973 14.7788 86.3367 13.875 86.3367H2.16797C0.970817 86.3367 0 87.3075 0 88.5046C0 89.7018 0.970817 90.6726 2.16797 90.6726H12.3726L20.3 111.813C20.6265 112.683 21.4523 113.22 22.3303 113.22C22.5831 113.22 22.8404 113.175 23.0913 113.081C24.2123 112.661 24.7803 111.411 24.36 110.29L15.9049 87.7433Z" fill="black"/>
<path d="M97.124 65.6666C98.3212 65.6666 99.292 64.6958 99.292 63.4987V45.2018L109.778 40.1073C110.856 39.584 111.304 38.2869 110.781 37.2098C110.258 36.1326 108.96 35.6845 107.884 36.2072L96.1766 41.8946C95.4302 42.2575 94.9561 43.0146 94.9561 43.8447V63.4984C94.9561 64.696 95.9269 65.6666 97.124 65.6666Z" fill="black"/>
<path d="M100.159 87.8237C100.729 87.8237 101.289 87.592 101.692 87.1885C102.095 86.7831 102.327 86.2262 102.327 85.6558C102.327 85.0856 102.095 84.5263 101.692 84.1232C101.289 83.7178 100.729 83.4878 100.159 83.4878C99.589 83.4878 99.0297 83.7178 98.6264 84.1232C98.2232 84.5263 97.9912 85.0856 97.9912 85.6558C97.9912 86.2262 98.223 86.7831 98.6264 87.1885C99.0297 87.592 99.589 87.8237 100.159 87.8237Z" fill="black"/>
</svg>
