<svg width="121" height="121" viewBox="0 0 121 121" fill="none" xmlns="http://www.w3.org/2000/svg">
<mask id="mask0_246_15323" style="mask-type:luminance" maskUnits="userSpaceOnUse" x="0" y="0" width="121" height="121">
<path d="M0 8.39233e-05H121V121H0V8.39233e-05Z" fill="white"/>
</mask>
<g mask="url(#mask0_246_15323)">
<path d="M103.968 78.9644C100.461 78.9644 97.6186 76.1216 97.6186 72.6145C97.6186 69.1076 100.461 66.2646 103.968 66.2646C107.475 66.2646 110.318 69.1076 110.318 72.6145C110.318 76.1216 107.475 78.9644 103.968 78.9644ZM103.968 57.4968C95.5415 57.4968 88.71 64.3281 88.71 72.7553C88.71 85.7569 103.968 103.535 103.968 103.535C103.968 103.535 119.227 85.7569 119.227 72.7553C119.227 64.3281 112.395 57.4968 103.968 57.4968Z" fill="#FD3581"/>
<path d="M103.969 57.4967C102.937 57.4967 101.93 57.6004 100.956 57.7957C107.94 59.1947 113.201 65.3598 113.201 72.7552C113.201 82.0509 105.402 93.787 100.956 99.7228C102.729 102.089 103.969 103.535 103.969 103.535C103.969 103.535 119.228 85.757 119.228 72.7552C119.228 64.3282 112.396 57.4967 103.969 57.4967Z" fill="#FE0364"/>
<path d="M107.317 17.4649H13.6834C7.1052 17.4649 1.77246 22.7974 1.77246 29.3756C1.77246 35.9538 7.1052 41.2863 13.6834 41.2863H54.5079L58.5261 49.3226C59.3394 50.9493 61.6608 50.9493 62.4742 49.3226L66.4923 41.2863H107.317C113.895 41.2863 119.227 35.9538 119.227 29.3756C119.227 22.7974 113.895 17.4649 107.317 17.4649Z" fill="#FAF8F8"/>
<path d="M57.4873 47.2445L58.5264 49.3228C59.3399 50.9494 61.6611 50.9494 62.4748 49.3225L66.4926 41.2864H62.7009C61.3317 41.2864 60.0796 42.0602 59.467 43.2851L57.4873 47.2445Z" fill="#F0EAE8"/>
<path d="M107.317 17.465H101.291C107.869 17.465 113.201 22.7975 113.201 29.3757C113.201 35.9539 107.869 41.2864 101.291 41.2864H107.317C113.895 41.2864 119.228 35.9539 119.228 29.3757C119.228 22.7975 113.895 17.465 107.317 17.465Z" fill="#F0EAE8"/>
<path d="M14.015 34.4329C11.222 34.4329 8.95801 32.1686 8.95801 29.3757C8.95801 26.5825 11.222 24.3185 14.015 24.3185C16.8079 24.3185 19.0721 26.5825 19.0721 29.3757C19.0721 32.1686 16.8079 34.4329 14.015 34.4329Z" fill="#FCCD7F"/>
<path d="M14.0156 24.3185C13.0783 24.3185 12.2036 24.578 11.4512 25.0225C12.9412 25.9021 13.944 27.5198 13.944 29.3757C13.944 31.2316 12.9412 32.8492 11.4512 33.7291C12.2036 34.1734 13.0783 34.4329 14.0156 34.4329C16.8085 34.4329 19.0727 32.1688 19.0727 29.3757C19.0727 26.5828 16.8085 24.3185 14.0156 24.3185Z" fill="#F7BF63"/>
<path d="M60.5005 34.4329C57.7076 34.4329 55.4434 32.1686 55.4434 29.3757C55.4434 26.5825 57.7076 24.3185 60.5005 24.3185C63.2935 24.3185 65.5577 26.5825 65.5577 29.3757C65.5577 32.1686 63.2935 34.4329 60.5005 34.4329Z" fill="#FD3581"/>
<path d="M60.4992 24.3185C59.5619 24.3185 58.6873 24.578 57.9346 25.0225C59.4249 25.9021 60.4276 27.5198 60.4276 29.3757C60.4276 31.2316 59.4249 32.8492 57.9346 33.7291C58.6873 34.1734 59.5619 34.4329 60.4992 34.4329C63.2921 34.4329 65.5564 32.1688 65.5564 29.3757C65.5564 26.5828 63.2921 24.3185 60.4992 24.3185Z" fill="#FE0364"/>
<path d="M14.627 65.9566L8.16559 77.1467L6.7169 79.6565C6.19249 80.5664 5.02976 80.8784 4.11966 80.3514C1.87454 79.0563 1.10648 76.1873 2.40179 73.9421L8.16559 63.962L8.91735 62.6598C9.52708 61.6035 10.6352 61.0103 11.7746 61.0103C12.3321 61.0103 12.8992 61.1544 13.4194 61.4546C14.9978 62.3644 15.5369 64.3803 14.627 65.9566Z" fill="#FCCD7F"/>
<path d="M22.5845 55.3663C22.5845 58.4839 20.0575 61.0112 16.9396 61.0112C13.8222 61.0112 11.2949 58.4839 11.2949 55.3663C11.2949 52.2489 13.8222 49.7216 16.9396 49.7216C20.0575 49.7216 22.5845 52.2489 22.5845 55.3663Z" fill="#FCCD7F"/>
<path d="M14.6265 65.9566L8.16504 77.1467V63.962L8.9168 62.6598C9.52652 61.6034 10.6347 61.0103 11.774 61.0103C12.3315 61.0103 12.8987 61.1544 13.4188 61.4546C14.9973 62.3644 15.5363 64.3803 14.6265 65.9566Z" fill="#F7BF63"/>
<path d="M16.9382 49.7215C15.9335 49.7215 14.9911 49.985 14.1738 50.4451C15.8926 51.4126 17.0542 53.2534 17.0542 55.3662C17.0542 57.4792 15.8926 59.3197 14.1738 60.2875C14.9911 60.7474 15.9335 61.0111 16.9382 61.0111C20.0558 61.0111 22.5831 58.4838 22.5831 55.3662C22.5831 52.2488 20.0558 49.7215 16.9382 49.7215Z" fill="#F7BF63"/>
<path d="M11.7783 61.0113H22.1004V76.3074H11.7783V61.0113Z" fill="#FCCD7F"/>
<path d="M22.0995 61.0102V65.0822L18.2216 61.7948C17.9449 61.5585 17.5904 61.2844 17.1934 61.0102H22.0995Z" fill="#F7BF63"/>
<path d="M36.4756 74.7054C37.155 73.9045 37.0562 72.7044 36.2553 72.0252L24.1915 61.7939C22.8028 60.616 20.7222 60.7869 19.5443 62.1758C18.3665 63.5644 18.5376 65.6451 19.9265 66.8229L29.8617 75.249C31.8381 76.9255 34.7993 76.6818 36.4756 74.7054Z" fill="#FCCD7F"/>
<path d="M31.2984 92.7402L22.1001 76.3071H18.1565L15.7266 79.6247L27.2487 101.988L35.9832 98.2282L35.0355 96.0265C34.3464 94.4254 32.9742 93.219 31.2984 92.7402Z" fill="#FCCD7F"/>
<path d="M35.0347 96.0264C34.3456 94.4255 32.9732 93.2189 31.2976 92.7401L22.0993 76.3072L19.335 82.0391L25.3249 92.7401C27.0007 93.2189 28.3731 94.4255 29.0622 96.0264L30.0097 98.2281L26.1639 99.8835L27.2479 101.988L35.9824 98.2281L35.0347 96.0264Z" fill="#F7BF63"/>
<path d="M36.2549 72.025L24.1911 61.7937C22.8022 60.6158 20.7216 60.7869 19.5439 62.1756C19.4194 62.3226 19.313 62.4783 19.2188 62.639L30.286 72.025C31.0869 72.7045 31.1857 73.9043 30.5062 74.7052C30.3229 74.9212 30.1222 75.1127 29.9112 75.2873C31.8873 76.9187 34.8126 76.6656 36.4752 74.7052C37.1546 73.9043 37.0558 72.7045 36.2549 72.025Z" fill="#F7BF63"/>
<path d="M15.5118 96.321L18.1927 84.411L18.8844 76.3071H11.778L6.51855 100.908L15.6578 103.535L16.32 101.232C16.8014 99.5563 16.5046 97.7536 15.5118 96.321Z" fill="#FCCD7F"/>
<path d="M103.968 78.9644C100.461 78.9644 97.6186 76.1216 97.6186 72.6145C97.6186 69.1076 100.461 66.2646 103.968 66.2646C107.475 66.2646 110.318 69.1076 110.318 72.6145C110.318 76.1216 107.475 78.9644 103.968 78.9644ZM103.968 57.4968C95.5415 57.4968 88.71 64.3281 88.71 72.7553C88.71 85.7569 103.968 103.535 103.968 103.535C103.968 103.535 119.227 85.7569 119.227 72.7553C119.227 64.3281 112.395 57.4968 103.968 57.4968Z" stroke="black" stroke-width="4" stroke-miterlimit="10" stroke-linecap="round" stroke-linejoin="round"/>
<path d="M74.7891 41.2863H107.317C113.895 41.2863 119.227 35.9538 119.227 29.3757C119.227 22.7975 113.895 17.465 107.317 17.465H13.6834C7.10521 17.465 1.77246 22.7975 1.77246 29.3757C1.77246 35.9538 7.10521 41.2863 13.6834 41.2863H54.5079L58.5262 49.3224C59.3394 50.9493 61.6606 50.9493 62.4742 49.3224L66.4923 41.2863" stroke="black" stroke-width="4" stroke-miterlimit="10" stroke-linecap="round" stroke-linejoin="round"/>
<path d="M52.7119 103.535H119.228" stroke="black" stroke-width="4" stroke-miterlimit="10" stroke-linecap="round" stroke-linejoin="round"/>
<path d="M1.77246 103.535H44.4356" stroke="black" stroke-width="4" stroke-miterlimit="10" stroke-linecap="round" stroke-linejoin="round"/>
<path d="M14.015 34.4329C11.222 34.4329 8.95801 32.1686 8.95801 29.3757C8.95801 26.5825 11.222 24.3185 14.015 24.3185C16.8079 24.3185 19.0721 26.5825 19.0721 29.3757C19.0721 32.1686 16.8079 34.4329 14.015 34.4329Z" stroke="black" stroke-width="4" stroke-miterlimit="10" stroke-linecap="round" stroke-linejoin="round"/>
<path d="M60.5005 34.4329C57.7076 34.4329 55.4434 32.1686 55.4434 29.3757C55.4434 26.5825 57.7076 24.3185 60.5005 24.3185C63.2935 24.3185 65.5577 26.5825 65.5577 29.3757C65.5577 32.1686 63.2935 34.4329 60.5005 34.4329Z" stroke="black" stroke-width="4" stroke-miterlimit="10" stroke-linecap="round" stroke-linejoin="round"/>
<path d="M96.7725 34.426L98.6588 23.9736C98.7061 23.729 99.0476 23.7061 99.1268 23.9424L102.196 34.3444C102.27 34.5661 102.584 34.5644 102.656 34.3421L105.62 23.9441C105.697 23.7071 106.039 23.7264 106.089 23.9706L108.087 34.426" stroke="black" stroke-width="4" stroke-miterlimit="10" stroke-linecap="round" stroke-linejoin="round"/>
<path d="M84.3135 23.7766V34.5099" stroke="black" stroke-width="4" stroke-miterlimit="10" stroke-linecap="round" stroke-linejoin="round"/>
<path d="M90.0866 23.9119L84.6562 28.9034L90.4676 34.5098" stroke="black" stroke-width="4" stroke-miterlimit="10" stroke-linecap="round" stroke-linejoin="round"/>
<path d="M22.5845 55.3663C22.5845 58.4839 20.0575 61.0112 16.9396 61.0112C13.8222 61.0112 11.2949 58.4839 11.2949 55.3663C11.2949 52.2489 13.8222 49.7216 16.9396 49.7216C20.0575 49.7216 22.5845 52.2489 22.5845 55.3663Z" stroke="black" stroke-width="4" stroke-miterlimit="10" stroke-linecap="round" stroke-linejoin="round"/>
<path d="M11.7783 76.3077V61.0102H22.0988V61.0126" stroke="black" stroke-width="4" stroke-miterlimit="10" stroke-linecap="round" stroke-linejoin="round"/>
<path d="M22.0986 68.6674V76.3079" stroke="black" stroke-width="4" stroke-miterlimit="10" stroke-linecap="round" stroke-linejoin="round"/>
<path d="M11.779 70.8888L6.71681 79.6565C6.19216 80.5664 5.02943 80.8784 4.1198 80.3514C1.87468 79.0563 1.10662 76.1873 2.40146 73.9421L8.91726 62.6598C9.52698 61.6035 10.6351 61.0103 11.7742 61.0103H11.779" stroke="black" stroke-width="4" stroke-miterlimit="10" stroke-linecap="round" stroke-linejoin="round"/>
<path d="M22.099 61.0126C22.8413 61.022 23.581 61.2773 24.1908 61.7948L36.2551 72.0255C36.6994 72.4012 36.9262 72.9377 36.9262 73.4765C36.9262 73.9114 36.7797 74.3486 36.4748 74.7054C34.7993 76.6811 31.8381 76.9245 29.8603 75.249L20.375 67.2058" stroke="black" stroke-width="4" stroke-miterlimit="10" stroke-linecap="round" stroke-linejoin="round"/>
<path d="M11.778 76.3071L6.51855 100.908L15.6578 103.535L16.32 101.231C16.8014 99.5563 16.5046 97.7534 15.5118 96.321L18.1927 84.411" stroke="black" stroke-width="4" stroke-miterlimit="10" stroke-linecap="round" stroke-linejoin="round"/>
<path d="M22.0996 76.3078L31.3001 92.7397C32.9757 93.2194 34.3461 94.4247 35.0362 96.027L35.9839 98.2272L27.2492 101.987L18.1934 84.411L22.0996 76.3078Z" stroke="black" stroke-width="4" stroke-miterlimit="10" stroke-linecap="round" stroke-linejoin="round"/>
<path d="M28.1953 30.448H45.5553L41.3798 26.2728" stroke="black" stroke-width="4" stroke-miterlimit="10" stroke-linecap="round" stroke-linejoin="round"/>
</g>
</svg>
