<svg width="109" height="98" viewBox="0 0 109 98" fill="none" xmlns="http://www.w3.org/2000/svg">
<path d="M100.975 14.3802C98.7967 11.4075 95.6014 9.61896 92.9927 8.61569C92.6879 8.4985 92.5073 8.17918 92.5701 7.8586C92.7661 6.85829 93.1268 5.92163 93.5125 5.12787C94.1326 3.85144 93.3165 2.35245 91.9064 2.19374C81.0001 0.966001 74.5794 5.86219 71.6853 8.94892C71.4935 9.15336 71.2248 9.26043 70.9447 9.25685C64.9584 9.17866 60.2951 13.0575 58.2292 15.1382C57.4898 15.8828 57.1572 16.9384 57.337 17.9724L59.1521 34.4182H99.6904L101.575 16.6197C101.658 15.8251 101.447 15.0246 100.975 14.3802Z" fill="#EAAB24"/>
<path d="M49.1301 34.6866H9.44678V27.1901C9.44678 16.5627 18.062 7.94727 28.6897 7.94727H29.8875C40.5149 7.94727 49.1303 16.5625 49.1303 27.1901V34.6866H49.1301Z" fill="#8AA2AD"/>
<path d="M15.5476 40.9502H13.0424C10.0716 40.9502 7.66309 38.5417 7.66309 35.5709V35.3005C7.66309 33.4718 9.14543 31.9895 10.9741 31.9895H15.5476V40.9502Z" fill="#C28336"/>
<path d="M43.0293 40.9502H45.5345C48.5053 40.9502 50.9138 38.5417 50.9138 35.5709V35.3005C50.9138 33.4718 49.4314 31.9895 47.6028 31.9895H43.0293V40.9502Z" fill="#C28336"/>
<path d="M65.7234 40.9502H63.2181C60.2473 40.9502 57.8389 38.5417 57.8389 35.5709V35.3005C57.8389 33.4718 59.3212 31.9895 61.1499 31.9895H65.7234V40.9502Z" fill="#F5DDB1"/>
<path d="M93.2053 40.9502H95.7105C98.6813 40.9502 101.09 38.5417 101.09 35.5709V35.3005C101.09 33.4718 99.6075 31.9895 97.7788 31.9895H93.2053V40.9502Z" fill="#F5DDB1"/>
<path d="M5.65054 75.0356C3.33375 77.9225 2 81.5629 2 85.4149V94.1252C2 94.8939 2.62304 95.5169 3.39193 95.5169H42.8458C43.6144 95.5169 44.2377 94.8939 44.2377 94.1252L44.3859 82.1033C44.4004 80.9198 45.364 79.9682 46.5475 79.9682H81.0048V65.749H21.9218L11.8002 70.2846C10.9952 70.6452 10.2289 71.0653 9.50552 71.538" fill="#54AFFF"/>
<path d="M65.0082 73.6455H40.2242C39.0407 73.6455 38.0773 74.5971 38.0625 75.7806L37.9194 95.5175H42.8456C43.6142 95.5175 44.2375 94.8945 44.2375 94.1258L44.3856 82.1039C44.4002 80.9204 45.3638 79.9688 46.5473 79.9688H65.0082V73.6455Z" fill="#429CFF"/>
<path d="M96.9526 70.2846L86.8308 65.749H72.0976L61.976 70.2846C56.0133 72.9565 52.1758 78.881 52.1758 85.4149V94.1252C52.1758 94.8939 52.799 95.5171 53.5677 95.5171H79.4642H105.361C106.129 95.5171 106.752 94.8939 106.752 94.1252V85.4149C106.753 78.881 102.915 72.9565 96.9526 70.2846Z" fill="#79C69B"/>
<path d="M96.9527 70.2846L86.8309 65.749H80.5078L90.6296 70.2846C96.5923 72.9565 100.43 78.881 100.43 85.4149V94.1252C100.43 94.8939 99.8066 95.5171 99.0379 95.5171H105.361C106.13 95.5171 106.753 94.8939 106.753 94.1252V85.4149C106.753 78.881 102.915 72.9565 96.9527 70.2846Z" fill="#57BC88"/>
<path d="M84.5573 52.0459H79.4643H74.3712L72.0977 65.7495C72.0977 65.7495 75.5865 68.5001 79.4643 68.5001C83.7931 68.5001 86.8309 65.7495 86.8309 65.7495L84.5573 52.0459Z" fill="#F5DDB1"/>
<path d="M79.4639 18.931C74.9819 18.931 70.3759 15.5515 66.9368 18.2909C62.9712 21.4497 63.8187 27.965 63.8187 37.699C63.8187 54.1169 72.1241 57.8562 79.4639 57.8562C86.8038 57.8562 95.1092 54.1167 95.1092 37.699C95.1092 27.965 95.6618 21.7878 91.991 18.2909C88.9323 15.3772 83.9459 18.931 79.4639 18.931Z" fill="#F5DDB1"/>
<path d="M34.3815 52.0459H29.2885H24.1955L21.9219 65.7495C21.9219 65.7495 25.4108 68.5001 29.2885 68.5001C33.6173 68.5001 36.6551 65.7495 36.6551 65.7495L34.3815 52.0459Z" fill="#C28336"/>
<path d="M13.5304 31.9892C13.4059 33.6402 13.345 35.414 13.345 37.3148C13.345 54.0457 21.8089 57.8562 29.2885 57.8562C36.7681 57.8562 45.2319 54.0455 45.2319 37.3148C45.2319 20.5838 40.508 13.6948 29.2885 13.6948C19.3435 13.6948 14.5021 19.1076 13.5304 31.9892Z" fill="#C28336"/>
<path d="M91.9909 18.291C90.1905 16.576 87.722 17.1019 85.0817 17.8248C85.2838 17.9574 85.4796 18.1117 85.6678 18.291C89.3386 21.7879 88.7859 27.9652 88.7859 37.6992C88.7859 51.7835 82.6736 56.537 76.3022 57.6039C77.3578 57.7807 78.4205 57.8564 79.4638 57.8564C86.8034 57.8564 95.109 54.1169 95.109 37.6992C95.109 27.9652 95.6617 21.7879 91.9909 18.291Z" fill="#F2CC94"/>
<path d="M29.2885 13.6948C28.1736 13.6948 27.1262 13.7669 26.1379 13.9058C35.0818 15.1727 38.9091 22.2576 38.9091 37.3148C38.9091 51.712 32.6417 56.5416 26.1272 57.609C27.1832 57.782 28.2454 57.8564 29.2887 57.8564C36.7683 57.8564 45.2322 54.0457 45.2322 37.315C45.232 20.5838 40.508 13.6948 29.2885 13.6948Z" fill="#AC742C"/>
<path d="M88.8598 76.8524L90.2515 77.7172C92.5914 79.1711 95.6672 78.453 97.1211 76.1129L100.478 70.7108C101.465 69.122 100.977 67.0337 99.3886 66.0465L95.2764 63.4913C93.6877 62.5041 91.5993 62.9918 90.6121 64.5806L87.2554 69.9826C85.8015 72.3228 86.5196 75.3983 88.8598 76.8524Z" fill="#C28336"/>
<path d="M45.0456 31.989C44.0735 19.1085 39.233 13.6948 29.2884 13.6948C19.3439 13.6948 14.5031 19.1085 13.5312 31.9892V31.9895C20.9719 31.9895 25.9665 26.645 28.1062 23.7854C28.6983 22.9942 29.8784 22.9942 30.4704 23.7854C32.6102 26.645 37.6048 31.9895 45.0454 31.9895L45.0456 31.989Z" fill="#8AA2AD"/>
<path d="M78.575 4.04932C75.3599 5.49646 73.1009 7.43913 71.6853 8.94888C71.4935 9.15332 71.2248 9.2604 70.9447 9.25681C64.9584 9.17862 60.2951 13.0574 58.2292 15.1381C57.4898 15.8828 57.1572 16.9383 57.337 17.9724L58.884 31.9894" stroke="black" stroke-width="3" stroke-miterlimit="10" stroke-linecap="round" stroke-linejoin="round"/>
<path d="M99.9817 31.6662L101.575 16.6195C101.658 15.8249 101.447 15.0246 100.975 14.3801C98.7968 11.4074 95.6015 9.61881 92.9928 8.61554C92.688 8.49836 92.5074 8.17904 92.5702 7.85846C92.7662 6.85814 93.1269 5.92148 93.5126 5.12772C94.1327 3.8513 93.3165 2.3523 91.9065 2.19359C89.1496 1.88313 86.6794 1.96406 84.4802 2.30825" stroke="black" stroke-width="3" stroke-miterlimit="10" stroke-linecap="round" stroke-linejoin="round"/>
<path d="M9.44678 31.6663V27.1901C9.44678 16.5627 18.062 7.94727 28.6897 7.94727H29.8875C40.5149 7.94727 49.1303 16.5625 49.1303 27.1901V31.6663" stroke="black" stroke-width="3" stroke-miterlimit="10" stroke-linecap="round" stroke-linejoin="round"/>
<path d="M10.9739 31.9895H13.5303" stroke="black" stroke-width="3" stroke-miterlimit="10" stroke-linecap="round" stroke-linejoin="round"/>
<path d="M13.0424 40.9502C10.0716 40.9502 7.66309 38.5417 7.66309 35.5709V35.3005C7.66309 33.4718 9.14543 31.9895 10.9741 31.9895" stroke="black" stroke-width="3" stroke-miterlimit="10" stroke-linecap="round" stroke-linejoin="round"/>
<path d="M45.5346 40.9502C48.5054 40.9502 50.9139 38.5417 50.9139 35.5709V35.3005C50.9139 33.4718 49.4315 31.9895 47.6029 31.9895H45.2319" stroke="black" stroke-width="3" stroke-miterlimit="10" stroke-linecap="round" stroke-linejoin="round"/>
<path d="M63.2181 40.9502C60.2473 40.9502 57.8389 38.5417 57.8389 35.5709V35.3005C57.8389 33.4718 59.3212 31.9895 61.1499 31.9895H62.8573" stroke="black" stroke-width="3" stroke-miterlimit="10" stroke-linecap="round" stroke-linejoin="round"/>
<path d="M96.223 40.9262C98.9536 40.6682 101.09 38.3691 101.09 35.5709V35.3005C101.09 33.4718 99.6074 31.9895 97.7787 31.9895H95.9756" stroke="black" stroke-width="3" stroke-miterlimit="10" stroke-linecap="round" stroke-linejoin="round"/>
<path d="M71.5428 65.7495H37.3694" stroke="black" stroke-width="3" stroke-miterlimit="10" stroke-linecap="round" stroke-linejoin="round"/>
<path d="M5.65054 75.0356C3.33375 77.9226 2 81.563 2 85.415V94.1253C2 94.894 2.62304 95.517 3.39171 95.517H42.8458C43.6144 95.517 44.2375 94.894 44.2375 94.1253L44.3856 82.1034C44.4002 80.9199 45.3636 79.9683 46.5473 79.9683H53.0968" stroke="black" stroke-width="3" stroke-miterlimit="10" stroke-linecap="round" stroke-linejoin="round"/>
<path d="M21.9219 65.7495L11.8001 70.2849C11.5199 70.4105 11.2443 70.5431 10.9736 70.6828" stroke="black" stroke-width="3" stroke-miterlimit="10" stroke-linecap="round" stroke-linejoin="round"/>
<path d="M88.839 66.6274L86.8308 65.7495" stroke="black" stroke-width="3" stroke-miterlimit="10" stroke-linecap="round" stroke-linejoin="round"/>
<path d="M72.0976 65.7495L61.9757 70.2851C56.0131 72.957 52.1758 78.8815 52.1758 85.4154V94.1257C52.1758 94.8944 52.7988 95.5174 53.5675 95.5174H79.4642H105.361C106.129 95.5174 106.752 94.8944 106.752 94.1257V85.4154C106.752 80.2381 104.343 75.4432 100.376 72.3462" stroke="black" stroke-width="3" stroke-miterlimit="10" stroke-linecap="round" stroke-linejoin="round"/>
<path d="M73.4647 57.5099L72.0977 65.7493C72.0977 65.7493 75.5865 68.4998 79.4643 68.4998C83.7931 68.4998 86.8309 65.7493 86.8309 65.7493L85.3612 56.8906" stroke="black" stroke-width="3" stroke-miterlimit="10" stroke-linecap="round" stroke-linejoin="round"/>
<path d="M79.4639 18.931C74.9819 18.931 70.3759 15.5515 66.9368 18.2909C62.9712 21.4497 63.8187 27.965 63.8187 37.699C63.8187 54.1169 72.1241 57.8562 79.4639 57.8562C86.8038 57.8562 95.1092 54.1167 95.1092 37.699C95.1092 27.965 95.6618 21.7878 91.991 18.2909C88.9323 15.3772 83.9459 18.931 79.4639 18.931Z" stroke="black" stroke-width="3" stroke-miterlimit="10" stroke-linecap="round" stroke-linejoin="round"/>
<path d="M23.3882 56.9116L21.9219 65.7494C21.9219 65.7494 25.4108 68.5 29.2885 68.5C33.6173 68.5 36.6551 65.7494 36.6551 65.7494L35.3456 57.8565" stroke="black" stroke-width="3" stroke-miterlimit="10" stroke-linecap="round" stroke-linejoin="round"/>
<path d="M13.5235 32.0835C13.4038 33.7077 13.345 35.4501 13.345 37.3148C13.345 54.0457 21.8089 57.8562 29.2885 57.8562C36.7681 57.8562 45.2319 54.0455 45.2319 37.3148C45.2319 35.4141 45.171 33.6402 45.0465 31.9893" stroke="black" stroke-width="3" stroke-miterlimit="10" stroke-linecap="round" stroke-linejoin="round"/>
<path d="M88.8785 76.7186L90.2702 77.5834C92.6102 79.0373 95.686 78.3192 97.1398 75.9791L100.497 70.577C101.484 68.9882 100.996 66.8999 99.4073 65.9127L95.2952 63.3575C93.7064 62.3703 91.6181 62.858 90.6308 64.4468L87.2741 69.8488C85.8202 72.189 86.5385 75.2645 88.8785 76.7186Z" stroke="black" stroke-width="3" stroke-miterlimit="10" stroke-linecap="round" stroke-linejoin="round"/>
<path d="M15.7649 94.7222V89.1667" stroke="black" stroke-width="3" stroke-miterlimit="10" stroke-linecap="round" stroke-linejoin="round"/>
<path d="M66.2483 94.2274V88.6719" stroke="black" stroke-width="3" stroke-miterlimit="10" stroke-linecap="round" stroke-linejoin="round"/>
<path d="M92.6802 94.2274V88.6719" stroke="black" stroke-width="3" stroke-miterlimit="10" stroke-linecap="round" stroke-linejoin="round"/>
<path d="M16.6606 31.6663C22.3822 30.468 26.2821 26.2235 28.1063 23.7856C28.6984 22.9943 29.8785 22.9943 30.4705 23.7856C32.6102 26.6451 37.6049 31.9896 45.0455 31.9896V31.9892" stroke="black" stroke-width="3" stroke-miterlimit="10" stroke-linecap="round" stroke-linejoin="round"/>
<path d="M13.5312 31.9891C14.6279 31.9893 15.6714 31.8732 16.6606 31.666" stroke="black" stroke-width="3" stroke-miterlimit="10" stroke-linecap="round" stroke-linejoin="round"/>
</svg>
