<svg width="99" height="99" viewBox="0 0 99 99" fill="none" xmlns="http://www.w3.org/2000/svg">
<path d="M49.5001 40.5939C59.3377 40.5939 67.3126 32.6189 67.3126 22.7813C67.3126 12.9437 59.3377 4.96875 49.5001 4.96875C39.6625 4.96875 31.6875 12.9437 31.6875 22.7813C31.6875 32.6189 39.6625 40.5939 49.5001 40.5939Z" fill="#FFE177"/>
<path d="M84.1339 40.6026C77.0609 40.348 71.1592 45.594 70.3708 52.3987C70.3312 52.7408 70.1077 53.0317 69.7904 53.1657C66.5366 54.5386 64.269 57.7894 64.3456 61.5603C64.4403 66.2197 68.1871 70.0648 72.8427 70.2722C75.8484 70.4062 78.544 69.0494 80.2523 66.879C81.3344 67.1619 82.4698 67.3125 83.6405 67.3125C91.1258 67.3125 97.1731 61.1564 96.9961 53.631C96.831 46.6096 91.1528 40.8553 84.1339 40.6026Z" fill="#3EC3A4"/>
<path d="M97 61.3749H70.2814C69.9211 61.3749 69.5927 61.1716 69.4298 60.8501C68.6954 59.4002 67.1911 58.4062 65.4547 58.4062C63.7183 58.4062 62.214 59.4002 61.4796 60.8501C61.3168 61.1716 60.9884 61.3749 60.6281 61.3749H55.4375L70.2812 82.1562L88.0937 96.9999L97 61.3749Z" fill="#6FD7A3"/>
<path d="M14.866 40.6026C21.939 40.348 27.8407 45.594 28.6292 52.3987C28.6687 52.7408 28.8922 53.0317 29.2095 53.1657C32.4634 54.5386 34.7309 57.7894 34.6543 61.5603C34.5597 66.2197 30.8128 70.0648 26.1572 70.2722C23.1515 70.4062 20.4559 69.0494 18.7476 66.879C17.6656 67.1619 16.5302 67.3125 15.3594 67.3125C7.87409 67.3125 1.82679 61.1564 2.00379 53.631C2.16894 46.6096 7.84714 40.8553 14.866 40.6026Z" fill="#3EC3A4"/>
<path d="M2 61.3749H28.7186C29.079 61.3749 29.4073 61.1716 29.5702 60.8501C30.3046 59.4002 31.8089 58.4062 33.5453 58.4062C35.2817 58.4062 36.786 59.4002 37.5204 60.8501C37.6832 61.1716 38.0116 61.3749 38.3719 61.3749H43.5625L28.7188 82.1562L10.9063 96.9999L2 61.3749Z" fill="#6FD7A3"/>
<path d="M43.5625 61.375L10.9062 96.9999H88.0935L55.4373 61.375H43.5625Z" fill="#3EC3A4"/>
<path d="M55.4373 61.375H50.77L77.4407 90.4702C78.5916 91.7258 77.7011 93.7504 75.9977 93.7504H13.8849L10.9062 96.9999H88.0935L55.4373 61.375Z" fill="#0BB494"/>
<path d="M88.0938 97H96.0443C96.5721 97 97 96.572 97 96.0442V64.3438H88.0938V97Z" fill="#FECA9C"/>
<path d="M94.1328 64.3438V93.177C94.1328 93.7048 93.7049 94.1328 93.1771 94.1328H88.0938V97H96.0443C96.5721 97 97 96.572 97 96.0442V64.3438H94.1328Z" fill="#FDB97E"/>
<path d="M88.0938 71.6576C90.7084 71.982 93.3432 72.1452 95.9829 72.1452H97V64.3438H88.0938V71.6576Z" fill="#FDB97E"/>
<path d="M10.9063 97H2.95573C2.42798 97 2 96.572 2 96.0442V64.3438H10.9063V97Z" fill="#FECA9C"/>
<path d="M7.84794 64.3438V93.177C7.84794 93.7048 7.41996 94.1328 6.8922 94.1328H2V96.0442C2 96.572 2.42798 97 2.95573 97H10.9063V64.3438H7.84794Z" fill="#FDB97E"/>
<path d="M10.9063 71.6576C8.29159 71.982 5.65682 72.1452 3.01709 72.1452H2V64.3438H10.9063V71.6576Z" fill="#FDB97E"/>
<path d="M3.67349 2.42745L16.3157 22.6551C16.5988 23.108 16.4304 23.7063 15.9527 23.9452L11.3134 26.2648C11.0854 26.3789 10.9869 26.6518 11.09 26.8852L19.4071 45.7214C19.6308 46.1686 19.4496 46.7127 19.0021 46.9363L13.875 49.5001L22.2762 64.3438C22.5354 64.862 22.248 65.4869 21.6858 65.6274L18.5596 66.409C13.4764 67.6797 8.25661 68.3223 3.0169 68.3223H2V2.90742C2 1.99756 3.19142 1.65599 3.67349 2.42745Z" fill="#9BE69D"/>
<path d="M95.3268 2.42721L82.6845 22.6549C82.4014 23.1077 82.5698 23.706 83.0475 23.945L87.6868 26.2645C87.9149 26.3786 88.0133 26.6516 87.9103 26.885L79.5931 45.7211C79.3695 46.1684 79.5507 46.7124 79.9982 46.9361L85.1253 49.4999L76.724 64.3436C76.465 64.8618 76.7523 65.4866 77.3145 65.6271L80.4407 66.4087C85.5238 67.6795 90.7436 68.3221 95.9834 68.3221H97.0004V2.90718C97.0003 1.99732 95.8088 1.65574 95.3268 2.42721Z" fill="#9BE69D"/>
<path d="M3.67349 2.42745L16.3157 22.6551C16.5988 23.108 16.4304 23.7063 15.9527 23.9452L11.3134 26.2648C11.0854 26.3789 10.9869 26.6518 11.09 26.8852L19.4071 45.7214C19.6308 46.1686 19.4496 46.7127 19.0021 46.9363L13.875 49.5001L22.2762 64.3438C22.5354 64.862 22.248 65.4869 21.6858 65.6274L18.5596 66.409C13.4764 67.6797 8.25661 68.3223 3.0169 68.3223H2V2.90742C2 1.99756 3.19142 1.65599 3.67349 2.42745Z" fill="#9BE69D"/>
<path d="M58.4062 37.625L63.8007 43.0195C64.9205 44.1393 64.9205 45.9546 63.8007 47.0743L58.4062 52.4689L55.4375 43.5626L58.4062 37.625Z" fill="#AF66DA"/>
<path d="M40.5937 37.625L35.1992 43.0195C34.0794 44.1393 34.0794 45.9546 35.1992 47.0743L40.5937 52.4689L43.5624 43.5626L40.5937 37.625Z" fill="#AF66DA"/>
<path d="M49.4999 28.7188C52.779 28.7188 55.4373 26.0605 55.4373 22.7814C55.4373 19.5023 52.779 16.844 49.4999 16.844C46.2208 16.844 43.5625 19.5023 43.5625 22.7814C43.5625 26.0605 46.2208 28.7188 49.4999 28.7188Z" fill="#AF66DA"/>
<path d="M52.1425 17.4629C52.5388 18.2588 52.7614 19.1561 52.7614 20.1053C52.7614 23.3844 50.1032 26.0427 46.8241 26.0427C45.8746 26.0427 44.9774 25.8198 44.1816 25.4238C45.1538 27.3769 47.1702 28.7187 49.5001 28.7187C52.7792 28.7187 55.4375 26.0605 55.4375 22.7814C55.4375 20.4515 54.0956 18.4351 52.1425 17.4629Z" fill="#9857BD"/>
<path d="M43.5625 55.4374V78.7095C43.5625 78.9735 43.7764 79.1874 44.0404 79.1874H49.4999V84.6469C49.4999 84.9109 49.7138 85.1248 49.9778 85.1248H54.9594C55.2234 85.1248 55.4373 84.9109 55.4373 84.6469V55.4374L49.4999 52.4688L43.5625 55.4374Z" fill="#AF66DA"/>
<path d="M49.4999 52.4688L43.5625 55.4374V58.6869H55.4373V55.4374L49.4999 52.4688Z" fill="#9857BD"/>
<path d="M56.4947 55.4373H42.5052C41.4495 55.4373 40.5938 54.5815 40.5938 53.5258V36.5675C40.5938 35.5118 41.4495 34.656 42.5052 34.656H56.4947C57.5504 34.656 58.4061 35.5118 58.4061 36.5675V53.5258C58.4061 54.5815 57.5504 55.4373 56.4947 55.4373Z" fill="#FEA95C"/>
<path d="M56.4947 34.6562H55.1566V50.2766C55.1566 51.3323 54.3009 52.188 53.2452 52.188H40.5938V53.526C40.5938 54.5817 41.4495 55.4375 42.5052 55.4375H56.4947C57.5504 55.4375 58.4061 54.5817 58.4061 53.526V36.5677C58.4061 35.512 57.5504 34.6562 56.4947 34.6562Z" fill="#FE9738"/>
<path d="M3.67349 2.42745L16.3157 22.6551C16.5988 23.108 16.4304 23.7063 15.9527 23.9452L11.3134 26.2648C11.0854 26.3789 10.9869 26.6518 11.09 26.8852L19.4071 45.7214C19.6308 46.1686 19.4496 46.7127 19.0021 46.9363L13.875 49.5001L22.2762 64.3438C22.5354 64.862 22.248 65.4869 21.6858 65.6274L18.5596 66.409C13.4764 67.6797 8.25661 68.3223 3.0169 68.3223H2V2.90742C2 1.99756 3.19142 1.65599 3.67349 2.42745Z" stroke="black" stroke-width="4" stroke-miterlimit="10" stroke-linecap="round" stroke-linejoin="round"/>
<path d="M83.6882 36.4462L79.5927 45.7212C79.3691 46.1685 79.5503 46.7125 79.9978 46.9361L85.1253 49.5L76.724 64.3437C76.465 64.8619 76.7523 65.4867 77.3145 65.6272L80.4407 66.4088C85.5238 67.6795 90.7436 68.3222 95.9834 68.3222H97.0004V2.90726C97.0004 1.9974 95.809 1.65563 95.327 2.42729L82.6847 22.655C82.4016 23.1078 82.57 23.7061 83.0477 23.945L87.687 26.2646C87.9151 26.3787 88.0135 26.6517 87.9105 26.8851L86.4342 30.2282" stroke="black" stroke-width="4" stroke-miterlimit="10" stroke-linecap="round" stroke-linejoin="round"/>
<path d="M58.4062 37.625L63.8008 43.0195C64.9205 44.1393 64.9205 45.9546 63.8008 47.0743L58.4062 52.4689" stroke="black" stroke-width="4" stroke-miterlimit="10" stroke-linecap="round" stroke-linejoin="round"/>
<path d="M40.5937 37.625L35.1992 43.0195C34.0794 44.1393 34.0794 45.9546 35.1992 47.0743L40.5937 52.4689" stroke="black" stroke-width="4" stroke-miterlimit="10" stroke-linecap="round" stroke-linejoin="round"/>
<path d="M49.4999 28.7188C52.779 28.7188 55.4373 26.0605 55.4373 22.7814C55.4373 19.5023 52.779 16.844 49.4999 16.844C46.2208 16.844 43.5625 19.5023 43.5625 22.7814C43.5625 26.0605 46.2208 28.7188 49.4999 28.7188Z" stroke="black" stroke-width="4" stroke-miterlimit="10" stroke-linecap="round" stroke-linejoin="round"/>
<path d="M43.5625 55.4375V78.7096C43.5625 78.9736 43.7764 79.1875 44.0404 79.1875H49.4999V84.647C49.4999 84.9109 49.7138 85.1248 49.9778 85.1248H54.9594C55.2234 85.1248 55.4373 84.9109 55.4373 84.647V55.4375" stroke="black" stroke-width="4" stroke-miterlimit="10" stroke-linecap="round" stroke-linejoin="round"/>
<path d="M49.5 79.1874V61.375" stroke="black" stroke-width="4" stroke-miterlimit="10" stroke-linecap="round" stroke-linejoin="round"/>
<path d="M21.1205 85.8569L10.9062 96.9999H88.0935L55.4373 61.375" stroke="black" stroke-width="4" stroke-miterlimit="10" stroke-linecap="round" stroke-linejoin="round"/>
<path d="M43.5625 61.375L25.7021 80.8589" stroke="black" stroke-width="4" stroke-miterlimit="10" stroke-linecap="round" stroke-linejoin="round"/>
<path d="M78.4039 61.3749H70.2814C69.921 61.3749 69.5927 61.1716 69.4298 60.8501C68.6954 59.4002 67.1911 58.4062 65.4547 58.4062C63.7183 58.4062 62.214 59.4002 61.4796 60.8501C61.3168 61.1716 60.9884 61.3749 60.6281 61.3749H55.4375" stroke="black" stroke-width="4" stroke-miterlimit="10" stroke-linecap="round" stroke-linejoin="round"/>
<path d="M56.4947 55.4373H42.5052C41.4495 55.4373 40.5938 54.5815 40.5938 53.5258V36.5675C40.5938 35.5118 41.4495 34.656 42.5052 34.656H56.4947C57.5504 34.656 58.4061 35.5118 58.4061 36.5675V53.5258C58.4061 54.5815 57.5504 55.4373 56.4947 55.4373Z" stroke="black" stroke-width="4" stroke-miterlimit="10" stroke-linecap="round" stroke-linejoin="round"/>
<path d="M40.5938 40.5938L42.7227 42.7227C43.2604 43.2604 43.9897 43.5624 44.7502 43.5624H54.25C55.0104 43.5624 55.7398 43.2604 56.2775 42.7227L58.4065 40.5938" stroke="black" stroke-width="4" stroke-miterlimit="10" stroke-linecap="round" stroke-linejoin="round"/>
<path d="M49.5 40.5938V46.5313" stroke="black" stroke-width="4" stroke-miterlimit="10" stroke-linecap="round" stroke-linejoin="round"/>
<path d="M81.8005 40.7195C75.7995 41.546 71.0702 46.3583 70.3702 52.3987C70.3306 52.7409 70.1074 53.0318 69.7899 53.1658C67.4779 54.1412 65.664 56.0647 64.835 58.4491" stroke="black" stroke-width="4" stroke-miterlimit="10" stroke-linecap="round" stroke-linejoin="round"/>
<path d="M20.5967 61.3749H28.7193C29.0796 61.3749 29.408 61.1716 29.5708 60.8501C30.3052 59.4002 31.8095 58.4062 33.5459 58.4062C35.2823 58.4062 36.7866 59.4002 37.521 60.8501C37.6838 61.1716 38.0122 61.3749 38.3725 61.3749H43.5631" stroke="black" stroke-width="4" stroke-miterlimit="10" stroke-linecap="round" stroke-linejoin="round"/>
<path d="M17.1992 40.7195C23.2003 41.546 27.9296 46.3583 28.6296 52.3987C28.6692 52.7409 28.8924 53.0318 29.2099 53.1658C31.5218 54.1412 33.3358 56.0647 34.1648 58.4491" stroke="black" stroke-width="4" stroke-miterlimit="10" stroke-linecap="round" stroke-linejoin="round"/>
<path d="M88.0938 67.8347V96.9998H96.0443C96.5721 96.9998 97 96.5719 97 96.0441V68.3223" stroke="black" stroke-width="4" stroke-miterlimit="10" stroke-linecap="round" stroke-linejoin="round"/>
<path d="M10.9063 67.8347V96.9998H2.95573C2.42798 96.9998 2 96.5719 2 96.0441V68.3223" stroke="black" stroke-width="4" stroke-miterlimit="10" stroke-linecap="round" stroke-linejoin="round"/>
<path d="M33.1526 15.6953C32.2101 17.8669 31.6875 20.2631 31.6875 22.7813C31.6875 29.3743 35.2696 35.1309 40.5938 38.2106" stroke="black" stroke-width="4" stroke-miterlimit="10" stroke-linecap="round" stroke-linejoin="round"/>
<path d="M58.4068 38.2107C63.731 35.1307 67.313 29.3743 67.313 22.7813C67.313 12.9438 59.3382 4.96875 49.5005 4.96875C44.5817 4.96875 40.1286 6.96241 36.9053 10.1859" stroke="black" stroke-width="4" stroke-miterlimit="10" stroke-linecap="round" stroke-linejoin="round"/>
</svg>
