<svg width="100" height="109" viewBox="0 0 100 109" fill="none" xmlns="http://www.w3.org/2000/svg">
<path d="M59.9248 68.5947H70.4819L80.8625 79.4314C81.8167 80.4267 82.3494 81.7528 82.3494 83.1307V97.5084C82.3494 100.463 79.9538 102.857 77.0007 102.857C74.046 102.857 71.6521 100.463 71.6521 97.5084V85.2814L66.5541 79.96" fill="#34ABE0"/>
<path d="M78.3535 102.684C77.9214 102.797 77.4679 102.857 77.0011 102.857C74.0464 102.857 71.6525 100.463 71.6525 97.5085V85.2815L66.5545 79.9601L60.3408 69.3057L74.3573 83.2785V97.5085C74.3573 99.9965 76.0536 102.087 78.3535 102.684Z" fill="#1895B7"/>
<path d="M17.4279 69.8655L13.115 85.185L3.77757 92.0633C1.39847 93.8174 0.891308 97.1662 2.64368 99.5429C3.69263 100.966 5.31223 101.719 6.95492 101.719C8.05665 101.719 9.16745 101.381 10.124 100.677L20.3851 93.1139L27.1563 76.734L23.4561 68.481L17.4279 69.8655Z" fill="#3B3D4C"/>
<path d="M36.8317 46.0919V62.504H14.6348V46.0919C14.6348 39.9623 19.6049 34.9922 25.7345 34.9922C31.8641 34.9922 36.8317 39.9623 36.8317 46.0919Z" fill="#E3F4FC"/>
<path d="M36.8317 62.5039C36.8317 65.5675 35.589 68.3449 33.5818 70.3512C32.8438 71.0893 32.0034 71.7226 31.0831 72.2298V101.135C31.0831 104.089 28.6892 106.484 25.7345 106.484C22.7798 106.484 20.3858 104.089 20.3858 101.135V72.2322C16.9578 70.343 14.6348 66.6948 14.6348 62.5039H36.8317Z" fill="#5C5E70"/>
<path d="M27.6361 35.1546C22.412 36.0552 18.4364 40.6105 18.4364 46.0919V62.504H14.6348V46.0919C14.6348 39.9623 19.6049 34.9922 25.7345 34.9922C26.3827 34.9922 27.0201 35.0474 27.6361 35.1546Z" fill="#BDD9E5"/>
<path d="M27.6361 106.135C27.0457 106.359 26.4041 106.484 25.7345 106.484C22.7798 106.484 20.3858 104.089 20.3858 101.135V72.2322C16.9578 70.343 14.6348 66.6948 14.6348 62.5039H18.4364C18.4364 66.6948 20.7602 70.343 24.1875 72.2322V101.135C24.1875 103.419 25.6207 105.371 27.6361 106.135Z" fill="#3B3D4C"/>
<path d="M32.438 50.29L34.9359 53.6208L43.4578 52.3739C46.3811 51.9459 49.0975 53.9688 49.5247 56.8913C49.9527 59.8147 47.9298 62.5302 45.0073 62.9582L33.3386 64.6661C33.0796 64.704 32.8207 64.7222 32.5634 64.7222C30.8951 64.7222 29.3036 63.9412 28.2851 62.583L23.8799 56.7091" fill="#FFC48F"/>
<path d="M45.0073 62.9601L33.3386 64.6671C33.0796 64.7034 32.8207 64.7223 32.5642 64.7223C30.8951 64.7223 29.306 63.9414 28.2851 62.5832L23.8799 56.7101L25.525 55.4756L28.2851 59.1576C29.306 60.5166 30.8951 61.2976 32.5642 61.2976C32.8207 61.2976 33.0796 61.2778 33.3386 61.2399L45.0073 59.532C47.064 59.2302 48.677 57.7945 49.302 55.9531C49.4018 56.2541 49.4793 56.5666 49.5263 56.8923C49.9543 59.8149 47.9307 62.5321 45.0073 62.9601Z" fill="#E59A5C"/>
<path d="M72.3033 46.0919V62.504H50.1055V46.0919C50.1055 39.9623 55.0756 34.9922 61.2052 34.9922C67.3356 34.9922 72.3033 39.9623 72.3033 46.0919Z" fill="#4BC999"/>
<path d="M71.0484 11.625C74.1515 14.0058 76.1521 17.7513 76.1521 21.9652C76.1521 29.1594 70.321 34.9913 63.126 34.9913C55.9326 34.9913 50.1016 29.1594 50.1016 21.9652V12.7053L58.5253 6.104L71.0484 11.625Z" fill="#FFC48F"/>
<path d="M66.0354 34.6672C65.1002 34.88 64.1263 34.9921 63.126 34.9921C55.9335 34.9921 50.1016 29.1603 50.1016 21.9661V12.7061L58.527 6.104L62.2494 7.74505L55.9203 12.7061V21.9661C55.9203 28.1608 60.2414 33.3437 66.0354 34.6672Z" fill="#E59A5C"/>
<path d="M50.1016 12.7054V21.9654C53.7688 21.9654 56.7408 18.9934 56.7408 15.327V11.9756H73.7235C73.9618 11.9756 74.1985 11.9674 74.4335 11.9517C81.0422 11.5048 80.6209 1.60571 73.9965 1.60571H61.2013C55.0709 1.60571 50.1016 6.57585 50.1016 12.7054Z" fill="#5C5E70"/>
<path d="M68.4268 1.60556C62.5422 1.60556 57.7262 6.18564 57.351 11.9755H56.7408V15.3252C56.7408 17.16 55.9978 18.8184 54.7963 20.0199C53.5939 21.2214 51.9364 21.9652 50.1016 21.9652V12.7053C50.1016 6.57487 55.0717 1.60474 61.2013 1.60474H68.4268V1.60556Z" fill="#3B3D4C"/>
<path d="M72.3033 62.5039C72.3033 65.5675 71.0605 68.3449 69.0533 70.3512C68.3153 71.0893 67.4741 71.7226 66.5547 72.2298V101.135C66.5547 104.089 64.1599 106.484 61.2052 106.484C58.2505 106.484 55.8565 104.089 55.8565 101.135V72.2322C52.4293 70.343 50.1055 66.6948 50.1055 62.5039H72.3033Z" fill="#34ABE0"/>
<path d="M63.1076 35.1546C57.8827 36.0552 53.9079 40.6105 53.9079 46.0919V62.504H50.1055V46.0919C50.1055 39.9623 55.0756 34.9922 61.2052 34.9922C61.8542 34.9922 62.4916 35.0474 63.1076 35.1546Z" fill="#3AAF80"/>
<path d="M63.1076 106.135C62.5172 106.359 61.8748 106.484 61.2052 106.484C58.2505 106.484 55.8565 104.089 55.8565 101.135V72.2322C52.4293 70.343 50.1055 66.6948 50.1055 62.5039H53.9079C53.9079 66.6948 56.2309 70.343 59.659 72.2322V101.135C59.659 103.419 61.0922 105.371 63.1076 106.135Z" fill="#1895B7"/>
<path d="M67.9088 50.29L70.4066 53.6208L78.9293 52.3739C81.8527 51.9459 84.5682 53.9688 84.9962 56.8913C85.4242 59.8147 83.4014 62.5302 80.478 62.9582L68.8101 64.6661C68.5512 64.704 68.2922 64.7222 68.0349 64.7222C66.3667 64.7222 64.7751 63.9412 63.7567 62.583L59.3506 56.7091" fill="#FFC48F"/>
<path d="M80.478 62.9583L68.8093 64.6661C68.5503 64.7024 68.2914 64.7214 68.0349 64.7214C66.3658 64.7214 64.7759 63.9404 63.7558 62.5822L59.3506 56.7091L60.9958 55.4746L63.7558 59.1566C64.7759 60.5157 66.3658 61.2966 68.0349 61.2966C68.2914 61.2966 68.5503 61.2768 68.8093 61.2389L80.478 59.531C82.5338 59.2292 84.1477 57.7935 84.7719 55.9521C84.8725 56.2531 84.9492 56.5656 84.997 56.8913C85.4242 59.8131 83.4005 62.5311 80.478 62.9583Z" fill="#E59A5C"/>
<path d="M69.4894 19.8253C69.4894 21.6065 68.0455 23.0505 66.2642 23.0505C64.483 23.0505 63.0391 21.6065 63.0391 19.8253C63.0391 18.0441 64.483 16.6001 66.2642 16.6001C68.0455 16.6001 69.4894 18.0441 69.4894 19.8253Z" fill="#3B3D4C"/>
<path d="M80.4631 19.8253C80.4631 21.6065 79.0191 23.0505 77.2379 23.0505C75.4566 23.0505 74.0127 21.6065 74.0127 19.8253C74.0127 18.0441 75.4566 16.6001 77.2379 16.6001C79.0191 16.6001 80.4631 18.0441 80.4631 19.8253Z" fill="#3B3D4C"/>
<path d="M35.5775 11.625C38.6807 14.0058 40.6804 17.7513 40.6804 21.9652C40.6804 29.1594 34.8494 34.9913 27.6543 34.9913C20.4618 34.9913 14.6299 29.1594 14.6299 21.9652V12.7053L23.0545 6.104L35.5775 11.625Z" fill="#FFC48F"/>
<path d="M30.5637 34.6672C29.6285 34.88 28.6546 34.9921 27.6543 34.9921C20.4618 34.9921 14.6299 29.1603 14.6299 21.9661V12.7061L23.0553 6.104L26.7777 7.74505L20.4486 12.7061V21.9661C20.4486 28.1608 24.7705 33.3437 30.5637 34.6672Z" fill="#E59A5C"/>
<path d="M14.6299 12.7054V21.9654C18.2971 21.9654 21.2691 18.9934 21.2691 15.327V11.9756H32.9032C38.6304 11.9756 43.2723 7.33287 43.2723 1.60571H25.7296C19.5992 1.60571 14.6299 6.57585 14.6299 12.7054Z" fill="#FFCE33"/>
<path d="M32.9551 1.60571C27.0705 1.60571 22.2546 6.18662 21.8802 11.9764H21.2691V15.3262C21.2691 17.161 20.5261 18.8194 19.3246 20.0209C18.1223 21.2224 16.4647 21.9662 14.6299 21.9662V12.7063C14.6299 6.57585 19.6 1.60571 25.7304 1.60571H32.9551Z" fill="#FF9D33"/>
<path d="M99.9473 105.489L89.7399 66.5686C89.2591 64.7355 88.0931 63.2 86.457 62.2434C86.0991 62.0347 85.728 61.8607 85.3478 61.7189C86.363 60.3055 86.8553 58.5135 86.584 56.6589C86.029 52.8663 82.4913 50.2316 78.6971 50.7858L73.9075 51.4867V46.0911C73.9075 41.746 71.7148 37.9056 68.3783 35.6139C73.0318 33.8129 76.5678 29.6955 77.5055 24.6478C80.0445 24.5084 82.0674 22.399 82.0674 19.8253C82.0674 17.1617 79.901 14.9953 77.2374 14.9953C76.8342 14.9953 76.4425 15.0456 76.0681 15.1397C75.7679 14.5715 75.4306 14.0231 75.0579 13.4986C78.9535 12.9791 80.8873 9.7069 80.7834 6.60706C80.6721 3.32414 78.3054 0.00164929 73.9974 0.00164929H61.2014C54.196 0.00164929 48.4969 5.69995 48.4969 12.7053V21.9652C48.4969 21.9735 48.4986 21.9809 48.4986 21.9892C48.5085 27.3683 51.436 32.0729 55.7777 34.6079C51.4805 36.6472 48.501 41.0277 48.501 46.0919V52.1852C47.0563 51.0604 45.1752 50.5013 43.2258 50.7866L38.4371 51.4867V46.0919C38.4371 41.7477 36.2452 37.9073 32.9103 35.6156C38.3876 33.4996 42.2849 28.1798 42.2849 21.9652C42.2849 18.2865 40.9399 14.8362 38.5278 12.1718C42.3022 10.1547 44.8759 6.17494 44.8759 1.60476C44.8759 0.718266 44.1576 0 43.2711 0H25.7301C24.207 0 22.7193 0.26636 21.3067 0.791659C20.4755 1.1009 20.0524 2.0245 20.3617 2.85492C20.6701 3.68534 21.5945 4.10838 22.4249 3.79996C23.4788 3.40743 24.5905 3.20869 25.7301 3.20869H41.5196C40.7642 7.27914 37.1877 10.3699 32.9037 10.3699H21.2688C20.3823 10.3699 19.664 11.0882 19.664 11.9747V15.3252C19.664 16.671 19.1404 17.936 18.1887 18.8877C17.6304 19.4468 16.9633 19.8583 16.2343 20.1024V12.7045C16.2343 10.6726 16.8676 8.73464 18.0659 7.10019C18.5903 6.38523 18.4353 5.38081 17.7203 4.85716C17.0054 4.33351 16.0018 4.48772 15.4781 5.20269C13.8734 7.39129 13.0248 9.9848 13.0248 12.7045V21.9611V21.9652C13.0248 27.3543 15.9564 32.0696 20.3056 34.6079C16.0092 36.648 13.0298 41.0277 13.0298 46.0919V62.504C13.0298 65.3473 13.9822 68.0538 15.6571 70.2375L11.7202 84.2193L2.82642 90.772C-0.260229 93.048 -0.921595 97.4104 1.35278 100.495C2.65736 102.266 4.75196 103.324 6.95542 103.324C8.4472 103.324 9.87136 102.855 11.0762 101.969L18.7808 96.2897V101.135C18.7808 104.969 21.9005 108.089 25.7342 108.089C29.5688 108.089 32.6876 104.969 32.6876 101.135V73.1361C33.4183 72.657 34.0986 72.1053 34.7163 71.486C36.3623 69.8408 37.5003 67.8238 38.0544 65.598L45.2387 64.5466C46.4798 64.3652 47.5964 63.8622 48.5184 63.1373C48.7204 67.1978 50.8579 70.9153 54.2521 73.1378V101.134C54.2521 104.969 57.3709 108.088 61.2055 108.088C65.0393 108.088 68.1589 104.969 68.1589 101.134V94.7863C68.1589 93.9007 67.4407 93.1824 66.5542 93.1824C65.6677 93.1824 64.9494 93.9007 64.9494 94.7863V101.134C64.9494 103.199 63.2696 104.879 61.2055 104.879C59.1406 104.879 57.4608 103.199 57.4608 101.134V72.2323C57.4608 71.6476 57.1433 71.1091 56.6312 70.8271C54.0723 69.417 52.3365 66.9274 51.8524 64.1087H62.9463C64.2526 65.5081 66.1047 66.327 68.0352 66.327C68.3709 66.327 68.7098 66.3031 69.0421 66.2536L69.9896 66.1151C69.5179 67.2663 68.8195 68.3161 67.9181 69.2174C67.2848 69.8507 66.5649 70.3917 65.7798 70.8246C65.2677 71.1067 64.9494 71.6452 64.9494 72.2298V88.3681C64.9494 89.2546 65.6677 89.9729 66.5542 89.9729C67.4407 89.9729 68.1589 89.2546 68.1589 88.3681V83.9546L70.0474 85.9255V97.5085C70.0474 101.342 73.1662 104.462 77.0008 104.462C80.8354 104.462 83.9542 101.342 83.9542 97.5085V83.1308C83.9542 81.329 83.2673 79.6211 82.0212 78.3215L72.4809 68.3622C72.9353 67.4889 73.2849 66.5629 73.5249 65.598L76.5588 65.1535C75.7968 66.6503 75.5568 68.42 76.0153 70.1682C76.2404 71.025 77.1187 71.538 77.9747 71.3128C78.8323 71.0885 79.3444 70.2111 79.1201 69.3543C78.5767 67.282 79.8202 65.1544 81.8917 64.6109C82.8953 64.3479 83.9418 64.4905 84.8382 65.0142C85.7338 65.5378 86.372 66.379 86.6351 67.3826L96.8426 106.303C97.0314 107.025 97.682 107.502 98.3937 107.502C98.5281 107.502 98.665 107.484 98.8019 107.449C99.6587 107.224 100.172 106.347 99.9473 105.489ZM79.7048 80.5423C80.376 81.2415 80.7447 82.161 80.7447 83.1308V97.5085C80.7447 99.5734 79.0649 101.252 77.0008 101.252C74.9367 101.252 73.2569 99.5734 73.2569 97.5085V85.2815C73.2569 84.8675 73.0969 84.4692 72.8108 84.1707L68.1589 79.316V73.1353C68.8896 72.657 69.5691 72.1045 70.1876 71.486C70.3319 71.3417 70.4704 71.1941 70.6065 71.0448L79.7048 80.5423ZM70.8192 18.2205C70.1562 16.3445 68.3651 14.9953 66.2639 14.9953C64.4596 14.9953 62.8845 15.9907 62.0549 17.4602L58.3424 15.4332C58.3432 15.3978 58.3456 15.3623 58.3456 15.326V13.5803H70.8761C71.9102 14.5377 72.758 15.6757 73.3748 16.9291C73.0829 17.3184 72.8487 17.7538 72.6829 18.2205H70.8192ZM64.6435 19.8253C64.6435 18.9314 65.3708 18.2049 66.2639 18.2049C67.1578 18.2049 67.8851 18.9314 67.8851 19.8253C67.8851 20.7192 67.1578 21.4457 66.2639 21.4457C65.3725 21.4457 64.6468 20.7217 64.6435 19.8302C64.6435 19.8286 64.6435 19.8269 64.6435 19.8253ZM78.8587 19.8253C78.8587 20.7192 78.1314 21.4457 77.2383 21.4457C76.3444 21.4457 75.617 20.7192 75.617 19.8253C75.617 18.9314 76.3444 18.2049 77.2383 18.2049C78.1314 18.2049 78.8587 18.9314 78.8587 19.8253ZM51.7064 12.7053C51.7064 7.46963 55.9657 3.21034 61.2014 3.21034H73.9974C76.3872 3.21034 77.517 4.97096 77.5756 6.71508C77.6292 8.28686 76.8095 10.1827 74.3256 10.3501C74.1269 10.3641 56.7409 10.3707 56.7409 10.3707C55.8544 10.3707 55.1361 11.089 55.1361 11.9755V13.6833L54.8492 13.5258C54.0707 13.1011 53.0968 13.3881 52.6713 14.1658C52.2474 14.9434 52.5336 15.9181 53.3112 16.3428L54.7906 17.151C54.2505 18.5331 53.119 19.6224 51.7064 20.0982V12.7053ZM51.7996 23.3935C54.403 22.846 56.5553 21.0672 57.6216 18.6964L61.5411 20.8363C62.0071 23.0158 63.9475 24.6552 66.2639 24.6552C68.3651 24.6552 70.1554 23.3069 70.8184 21.43H72.6829C73.0128 22.3627 73.6206 23.1651 74.4073 23.7358C73.5538 29.2221 68.7799 33.3874 63.1253 33.3874C57.3148 33.3874 52.5063 29.0193 51.7996 23.3935ZM61.2055 36.5961C66.4395 36.5961 70.6988 40.8562 70.6988 46.0919V51.335L64.2064 42.6795C63.6753 41.9711 62.6693 41.8268 61.9601 42.3587C61.2517 42.8906 61.1074 43.8967 61.6393 44.605L65.652 49.9562L59.614 54.3853L55.6491 49.0985C55.1172 48.3893 54.1111 48.2459 53.4019 48.7778C52.6935 49.3088 52.5492 50.3149 53.0811 51.0241L60.4881 60.8992H51.7106V46.0919C51.7106 40.8562 55.9698 36.5961 61.2055 36.5961ZM16.3267 23.396C17.8828 23.0719 19.3111 22.3058 20.4582 21.1563C22.0159 19.5993 22.8735 17.5287 22.8735 15.3252V13.5794H32.9037C33.6764 13.5794 34.4326 13.5036 35.1657 13.3625C37.6586 15.5347 39.0762 18.6304 39.0762 21.9652C39.0762 28.2631 33.9518 33.3866 27.654 33.3866C21.8419 33.3866 17.0334 29.0209 16.3267 23.396ZM25.7342 36.5961C30.9691 36.5961 35.2275 40.8562 35.2275 46.0919V51.3366L28.7351 42.6795C28.2032 41.9711 27.1972 41.8268 26.4888 42.3587C25.7796 42.8906 25.6361 43.8967 26.1672 44.605L30.1807 49.9562L24.1418 54.3853L20.1769 49.0985C19.6451 48.3893 18.639 48.2459 17.9306 48.7778C17.2214 49.3088 17.0779 50.3149 17.6098 51.0241L25.016 60.8992H16.2393V46.0919C16.2393 40.8562 20.4994 36.5961 25.7342 36.5961ZM9.17289 99.3846C8.52471 99.862 7.75779 100.114 6.95542 100.114C5.74978 100.114 4.64971 99.5594 3.93639 98.5913C2.71179 96.9296 3.06804 94.581 4.73052 93.3556L14.0672 86.4764C14.355 86.2645 14.5628 85.9635 14.6601 85.6196L18.2737 72.7856C18.4394 72.906 18.6085 73.0248 18.7817 73.1378V92.3025L9.17289 99.3846ZM32.4477 69.2166C31.8135 69.8507 31.0936 70.3917 30.3085 70.8246C29.7964 71.1067 29.4789 71.6452 29.4789 72.2298V101.134C29.4789 103.199 27.7991 104.878 25.7342 104.878C23.6701 104.878 21.9903 103.199 21.9903 101.134V72.2315C21.9903 71.6468 21.672 71.1091 21.1599 70.8263C18.6019 69.4161 16.8652 66.9274 16.3811 64.1079H27.4751C28.7805 65.5081 30.6334 66.327 32.5631 66.327C32.8988 66.327 33.2377 66.3023 33.5708 66.2536L34.5192 66.1151C34.0475 67.2655 33.349 68.3152 32.4477 69.2166ZM44.7745 61.3709L33.1066 63.0787C32.9268 63.1051 32.7445 63.1183 32.5631 63.1183C31.3913 63.1183 30.2723 62.5584 29.5688 61.6208L26.0682 56.9533L32.1063 52.5241L33.6516 54.5841C34.0046 55.0541 34.586 55.2941 35.1682 55.2092L43.6901 53.9623C45.7335 53.6629 47.6385 55.0822 47.937 57.124C48.2355 59.1666 46.8171 61.0724 44.7745 61.3709ZM68.5779 63.0787C68.3981 63.1051 68.2158 63.1183 68.0352 63.1183C66.8634 63.1183 65.7435 62.5584 65.0401 61.6208L61.5395 56.9533L67.5784 52.5241L69.1238 54.5841C69.4767 55.0541 70.0573 55.2941 70.6395 55.2092L79.1613 53.9623C81.2048 53.6629 83.1097 55.0822 83.4091 57.124C83.7076 59.1675 82.2892 61.0724 80.2466 61.3709L68.5779 63.0787Z" fill="black"/>
<path d="M29.8684 21.4202C30.7549 21.4202 31.4732 20.702 31.4732 19.8155V16.7808C31.4732 15.8951 30.7549 15.176 29.8684 15.176C28.9819 15.176 28.2637 15.8951 28.2637 16.7808V19.8163C28.2637 20.702 28.9819 21.4202 29.8684 21.4202Z" fill="black"/>
<path d="M35.179 21.4202C36.0655 21.4202 36.7837 20.702 36.7837 19.8155V16.7808C36.7837 15.8951 36.0655 15.176 35.179 15.176C34.2925 15.176 33.5742 15.8951 33.5742 16.7808V19.8163C33.5742 20.702 34.2925 21.4202 35.179 21.4202Z" fill="black"/>
</svg>
