<svg width="361" height="333" viewBox="0 0 361 333" fill="none" xmlns="http://www.w3.org/2000/svg">
<path d="M330.161 0.999817H146.774C129.982 0.999817 116.371 14.6081 116.371 31.396V259.816C116.371 276.603 129.982 290.212 146.774 290.212H330.161C346.952 290.212 360.564 276.603 360.564 259.816V31.396C360.564 14.6081 346.952 0.999817 330.161 0.999817Z" fill="#EEC718"/>
<path d="M330.161 0.999818H146.774C129.982 0.999818 116.371 14.6081 116.371 31.396V259.816C116.371 276.603 129.982 290.212 146.774 290.212H330.161C346.952 290.212 360.564 276.603 360.564 259.816V31.396C360.564 14.6081 346.952 0.999818 330.161 0.999818Z" stroke="#502A73" stroke-width="0.509333" stroke-miterlimit="10" stroke-linecap="round" stroke-linejoin="round"/>
<path d="M195.161 39.6474V16.6074H201.593V36.6714C201.593 39.5034 203.321 41.3274 206.201 41.3274H209.417V47.7114H206.585C203.897 47.7114 202.025 46.7514 200.729 45.5514C198.617 52.0314 192.809 55.9674 185.849 55.9674C177.401 55.9674 170.441 48.9114 170.441 39.7914C170.441 36.6234 170.633 34.9914 171.449 32.4474H178.169C178.169 32.4474 176.729 35.3754 176.729 39.7914C176.729 44.9754 181.193 49.4874 185.849 49.4874C190.793 49.4874 195.161 45.5994 195.161 39.6474ZM214.868 47.7114H209.156V41.3274H214.58C216.308 41.3274 217.316 40.2234 217.316 38.3514V36.1434C217.316 30.6234 221.108 24.7194 228.5 24.7194C235.892 24.7194 239.876 30.6234 239.876 36.1434C239.876 41.7114 235.892 48.2394 228.5 48.2394C224.804 48.2394 222.308 46.7034 220.58 45.1674C219.716 46.2714 217.748 47.7114 214.868 47.7114ZM233.204 36.1434C233.204 32.7354 232.004 29.9514 228.5 29.9514C225.14 29.9514 223.94 33.0714 223.94 36.1434C223.94 39.5514 225.14 42.7194 228.5 42.7194C232.004 42.7194 233.204 39.9834 233.204 36.1434ZM260.067 47.7114H255.411C247.347 47.7114 246.771 40.7994 246.771 38.0634V16.6074H253.203V38.4474C253.203 40.3194 254.259 41.3274 255.939 41.3274H260.067V47.7114ZM272.26 15.9354H278.836V21.5034H272.26V15.9354ZM268.42 35.7594H262.324C262.468 28.3674 268.804 25.1034 274.564 25.1034C283.3 25.1034 290.74 32.1594 290.74 41.3274V47.7114H259.828V41.3274H284.212C284.26 35.3754 280.564 30.8634 274.564 30.8634C271.348 30.8634 268.708 32.2074 268.42 35.7594Z" fill="white"/>
<path d="M106.511 171.459C106.511 171.459 131.528 207.188 133.535 210.7C135.541 214.213 104.79 234.559 104.79 234.559C104.79 234.559 94.356 199.437 91.9963 188.764C89.6353 178.091 87.8092 166.13 89.1349 159.59C90.4617 153.05 99.1433 161.043 99.1433 161.043" fill="#BF792A"/>
<path d="M106.511 171.459C106.511 171.459 131.528 207.188 133.535 210.7C135.541 214.213 104.79 234.559 104.79 234.559C104.79 234.559 94.356 199.437 91.9963 188.764C89.6353 178.091 87.8092 166.13 89.1349 159.59C90.4617 153.05 99.1433 161.043 99.1433 161.043" stroke="#502A73" stroke-width="0.369333" stroke-miterlimit="10" stroke-linecap="round" stroke-linejoin="round"/>
<path d="M90.2256 192.432C90.2256 192.432 92.5854 195.46 97.0697 197.277C101.554 199.093 103.008 199.365 103.008 199.365" stroke="#502A73" stroke-width="0.369333" stroke-miterlimit="10" stroke-linecap="round" stroke-linejoin="round"/>
<path d="M92.5859 202.242C92.5859 202.242 95.3004 205.271 98.7218 206.117C102.144 206.965 103.009 206.845 103.009 206.845" stroke="#502A73" stroke-width="0.369333" stroke-miterlimit="10" stroke-linecap="round" stroke-linejoin="round"/>
<path d="M287.679 145.379V138.013C287.679 129.962 294.693 123.434 303.345 123.434C311.997 123.434 319.011 129.962 319.011 138.013V147.972" fill="#008056"/>
<path d="M287.679 145.379V138.013C287.679 129.962 294.693 123.434 303.345 123.434C311.997 123.434 319.011 129.962 319.011 138.013V147.972" stroke="#502A73" stroke-width="0.369333" stroke-miterlimit="10" stroke-linecap="round" stroke-linejoin="round"/>
<path d="M300.772 141.121C300.772 141.121 310.88 140.77 316.207 138.041C330.079 130.936 341.346 136.276 336.805 142.382C335.327 144.368 331.849 147.014 322.29 146.651" fill="#502A73"/>
<path d="M300.772 141.121C300.772 141.121 310.88 140.77 316.207 138.041C330.079 130.936 341.346 136.276 336.805 142.382C335.327 144.368 331.849 147.014 322.29 146.651" stroke="#502A73" stroke-width="0.369333" stroke-miterlimit="10" stroke-linecap="round" stroke-linejoin="round"/>
<path d="M300.772 141.121C300.772 141.121 310.88 140.77 316.207 138.041C330.079 130.936 341.346 136.276 336.805 142.382C335.327 144.368 331.849 147.014 322.29 146.651" stroke="#502A73" stroke-width="0.369333" stroke-miterlimit="10" stroke-linecap="round" stroke-linejoin="round"/>
<path d="M247.178 289.444H114.744C114.744 289.444 100.552 291.2 100.611 277.515C100.67 263.829 115.539 264.737 115.539 264.737L123.858 252.262L130.409 264.725H258.153" fill="#A9D054"/>
<path d="M247.178 289.444H114.744C114.744 289.444 100.552 291.2 100.611 277.515C100.67 263.829 115.539 264.737 115.539 264.737L123.858 252.262L130.409 264.725H258.153" stroke="#502A73" stroke-width="0.369333" stroke-miterlimit="10" stroke-linecap="round" stroke-linejoin="round"/>
<path d="M251.042 135.75C251.042 135.75 316.095 142.472 328.839 144.653C341.584 146.832 343.974 155.729 341.054 165.588C338.133 175.446 316.095 256.652 316.095 256.652L276.674 241.665L223.428 223.407L251.042 135.75Z" fill="#A9D054"/>
<path d="M251.042 135.75C251.042 135.75 316.095 142.472 328.839 144.653C341.584 146.832 343.974 155.729 341.054 165.588C338.133 175.446 316.095 256.652 316.095 256.652L276.674 241.665L223.428 223.407L251.042 135.75Z" stroke="#502A73" stroke-width="0.369333" stroke-miterlimit="10" stroke-linecap="round" stroke-linejoin="round"/>
<path d="M328.84 144.652C324.71 143.945 315.087 142.762 303.966 141.485C305.671 141.69 323.266 144.084 321.573 155.55C320.017 166.086 294.854 238.697 294.854 238.697L320.685 239.758C327.31 215.405 338.984 172.574 341.054 165.587C343.974 155.729 341.584 146.832 328.84 144.652Z" fill="#A9D054"/>
<path d="M328.84 144.652C324.71 143.945 315.087 142.762 303.966 141.485C305.671 141.69 323.266 144.084 321.573 155.55C320.017 166.086 294.854 238.697 294.854 238.697L320.685 239.758C327.31 215.405 338.984 172.574 341.054 165.587C343.974 155.729 341.584 146.832 328.84 144.652Z" stroke="#502A73" stroke-width="0.369333" stroke-miterlimit="10" stroke-linecap="round" stroke-linejoin="round"/>
<path d="M310.741 238.376C317.365 214.023 329.039 171.192 331.109 164.205C334.03 154.347 331.641 145.449 318.896 143.27" stroke="#502A73" stroke-width="0.369333" stroke-miterlimit="10" stroke-linecap="round" stroke-linejoin="round"/>
<path d="M276.551 169.292C269.816 154.425 262.825 142.062 258.742 136.655C252.842 128.838 249.184 121.459 238.209 122.065C227.234 122.669 208.706 130.231 208.706 130.231C208.706 130.231 192.573 123.472 195.336 129.21C198.099 134.949 193.49 132.552 193.49 132.552L190.182 137.567C190.182 137.567 176.844 143.381 168.819 147.256C160.795 151.132 153.715 154.159 151.59 158.641C149.466 163.122 129.641 203.574 129.641 203.574L178.614 209.145L270.602 207.51C270.602 207.51 277.683 177.535 276.551 169.292Z" fill="white"/>
<path d="M276.551 169.292C269.816 154.425 262.825 142.062 258.742 136.655C252.842 128.838 249.184 121.459 238.209 122.065C227.234 122.669 208.706 130.231 208.706 130.231C208.706 130.231 192.573 123.472 195.336 129.21C198.099 134.949 193.49 132.552 193.49 132.552L190.182 137.567C190.182 137.567 176.844 143.381 168.819 147.256C160.795 151.132 153.715 154.159 151.59 158.641C149.466 163.122 129.641 203.574 129.641 203.574L178.614 209.145L270.602 207.51C270.602 207.51 277.683 177.535 276.551 169.292Z" stroke="#502A73" stroke-width="0.369333" stroke-miterlimit="10" stroke-linecap="round" stroke-linejoin="round"/>
<path d="M200.728 156.885C200.728 156.885 204.712 149.503 211.677 147.878C218.315 146.33 219.657 149.607 219.125 150.937C218.593 152.267 217.315 153.352 214.151 154.547C208.874 156.543 207.139 158.784 207.139 158.784C207.139 158.784 216 156.655 220.907 158.784C225.813 160.912 224.517 165.473 220.907 164.712C217.297 163.952 209.985 162.45 209.985 162.45C209.985 162.45 214.891 165.092 216.556 167.847C218.222 170.602 215.816 177.347 210.17 175.067C204.523 172.787 201.931 169.218 201.931 169.218L193.277 161.339L185.456 162.185C185.456 162.185 180.394 162.296 182.262 158.49C184.132 154.683 195.174 152.288 200.728 156.885Z" fill="#4BBEA5"/>
<path d="M200.728 156.885C200.728 156.885 204.712 149.503 211.677 147.878C218.315 146.33 219.657 149.607 219.125 150.937C218.593 152.267 217.315 153.352 214.151 154.547C208.874 156.543 207.139 158.784 207.139 158.784C207.139 158.784 216 156.655 220.907 158.784C225.813 160.912 224.517 165.473 220.907 164.712C217.297 163.952 209.985 162.45 209.985 162.45C209.985 162.45 214.891 165.092 216.556 167.847C218.222 170.602 215.816 177.347 210.17 175.067C204.523 172.787 201.931 169.218 201.931 169.218L193.277 161.339L185.456 162.185C185.456 162.185 180.394 162.296 182.262 158.49C184.132 154.683 195.174 152.288 200.728 156.885Z" stroke="#502A73" stroke-width="0.369333" stroke-miterlimit="10" stroke-linecap="round" stroke-linejoin="round"/>
<path d="M156.63 153.571C154.269 155.117 152.487 156.749 151.59 158.641C149.466 163.122 129.641 203.574 129.641 203.574L167.643 207.898L175.05 185.771C175.05 185.771 158.907 160.458 157.254 157.672C156.436 156.291 156.429 154.762 156.63 153.571Z" fill="white"/>
<path d="M156.63 153.571C154.269 155.117 152.487 156.749 151.59 158.641C149.466 163.122 129.641 203.574 129.641 203.574L167.643 207.898L175.05 185.771C175.05 185.771 158.907 160.458 157.254 157.672C156.436 156.291 156.429 154.762 156.63 153.571Z" stroke="#502A73" stroke-width="0.369333" stroke-miterlimit="10" stroke-linecap="round" stroke-linejoin="round"/>
<path d="M258.742 136.655C253.569 129.803 250.119 123.286 241.952 122.192C241.241 122.782 240.431 123.639 239.507 124.865C236.774 128.49 234.304 136.176 232.576 142.646C230.824 149.206 231.841 156.22 235.361 161.984L242.547 173.752C242.547 173.752 276.773 170.91 276.551 169.292C269.816 154.426 262.825 142.062 258.742 136.655Z" fill="white"/>
<path d="M258.742 136.655C253.569 129.803 250.119 123.286 241.952 122.192C241.241 122.782 240.431 123.639 239.507 124.865C236.774 128.49 234.304 136.176 232.576 142.646C230.824 149.206 231.841 156.22 235.361 161.984L242.547 173.752C242.547 173.752 276.773 170.91 276.551 169.292C269.816 154.426 262.825 142.062 258.742 136.655Z" stroke="#502A73" stroke-width="0.369333" stroke-miterlimit="10" stroke-linecap="round" stroke-linejoin="round"/>
<path d="M58.7175 247.478C58.7175 247.478 55.1766 249.113 61.0187 262.739C66.8596 276.364 84.915 293.077 97.8376 286.538C98.6444 286.128 99.9827 278.169 100.611 277.514C110.032 267.695 99.6074 239.666 99.6074 239.666L58.7175 247.478Z" fill="#502A73"/>
<path d="M58.7175 247.478C58.7175 247.478 55.1766 249.113 61.0187 262.739C66.8596 276.364 84.915 293.077 97.8376 286.538C98.6444 286.128 99.9827 278.169 100.611 277.514C110.032 267.695 99.6074 239.666 99.6074 239.666L58.7175 247.478Z" stroke="#502A73" stroke-width="0.369333" stroke-miterlimit="10" stroke-linecap="round" stroke-linejoin="round"/>
<path d="M58.7175 247.478C58.7175 247.478 55.1766 249.113 61.0187 262.739C66.8596 276.364 84.915 293.077 97.8376 286.538C98.6444 286.128 99.9827 278.169 100.611 277.514C110.032 267.695 99.6074 239.666 99.6074 239.666L58.7175 247.478Z" stroke="#502A73" stroke-width="0.369333" stroke-miterlimit="10" stroke-linecap="round" stroke-linejoin="round"/>
<path d="M79.0739 285.538L99.5188 263.919L85.3578 241.938L66.5943 240.938L56.6812 252.474" fill="#BF792A"/>
<path d="M79.0739 285.538L99.5188 263.919L85.3578 241.938L66.5943 240.938L56.6812 252.474" stroke="#502A73" stroke-width="0.369333" stroke-miterlimit="10" stroke-linecap="round" stroke-linejoin="round"/>
<path d="M162.447 182.878C162.447 182.878 133.24 189.162 127.398 191.705C121.557 194.249 116.423 198.246 108.458 205.694C100.493 213.142 58.7178 247.478 58.7178 247.478C58.7178 247.478 69.2611 244.589 82.9687 257.47C97.6611 271.277 97.8379 286.538 97.8379 286.538L137.843 245.116L181.919 218.774" fill="white"/>
<path d="M162.447 182.878C162.447 182.878 133.24 189.162 127.398 191.705C121.557 194.249 116.423 198.246 108.458 205.694C100.493 213.142 58.7178 247.478 58.7178 247.478C58.7178 247.478 69.2611 244.589 82.9687 257.47C97.6611 271.277 97.8379 286.538 97.8379 286.538L137.843 245.116L181.919 218.774" stroke="#502A73" stroke-width="0.369333" stroke-miterlimit="10" stroke-linecap="round" stroke-linejoin="round"/>
<path d="M89.6235 265.04C89.6235 265.04 119.866 235.812 129.415 226.157C141.36 214.081 144.872 214.213 154.251 213.081C163.63 211.949 170.251 211.497 170.251 211.497" stroke="#502A73" stroke-width="0.369333" stroke-miterlimit="10" stroke-linecap="round" stroke-linejoin="round"/>
<path d="M201.567 185.528C201.567 185.528 181.682 176.748 169.645 179.109C157.609 181.471 151.633 193.489 147.342 206.602C144.159 216.326 134.73 245.398 130.067 259.773C128.612 264.262 131.147 269.079 135.604 270.29C144.018 272.576 157.075 275.96 165.81 277.454C179.617 279.815 181.411 279.679 181.411 279.679L187.111 265.827H222.155C231.447 265.827 240.65 263.717 248.963 259.455C260.473 253.554 271.782 242.855 264.406 224.587C251.13 191.705 217.676 185.892 217.676 185.892L201.567 185.528Z" fill="white"/>
<path d="M201.567 185.528C201.567 185.528 181.682 176.748 169.645 179.109C157.609 181.471 151.633 193.489 147.342 206.602C144.159 216.326 134.73 245.398 130.067 259.773C128.612 264.262 131.147 269.079 135.604 270.29C144.018 272.576 157.075 275.96 165.81 277.454C179.617 279.815 181.411 279.679 181.411 279.679L187.111 265.827H222.155C231.447 265.827 240.65 263.717 248.963 259.455C260.473 253.554 271.782 242.855 264.406 224.587C251.13 191.705 217.676 185.892 217.676 185.892L201.567 185.528Z" stroke="#502A73" stroke-width="0.369333" stroke-miterlimit="10" stroke-linecap="round" stroke-linejoin="round"/>
<path d="M208.938 195.898C197.85 195.702 192.362 199.572 188.999 206.902C186.394 212.579 167.721 256.625 159.429 276.206C161.426 276.634 163.333 277.015 165.086 277.326C169.048 267.682 188.866 219.55 193.602 210.393C198.869 200.206 209.271 198.13 216.571 204.546L223.871 210.962L226.801 207.898C226.801 207.898 220.027 196.095 208.938 195.898Z" fill="white"/>
<path d="M208.938 195.898C197.85 195.702 192.362 199.572 188.999 206.902C186.394 212.579 167.721 256.625 159.429 276.206C161.426 276.634 163.333 277.015 165.086 277.326C169.048 267.682 188.866 219.55 193.602 210.393C198.869 200.206 209.271 198.13 216.571 204.546L223.871 210.962L226.801 207.898C226.801 207.898 220.027 196.095 208.938 195.898Z" stroke="#502A73" stroke-width="0.369333" stroke-miterlimit="10" stroke-linecap="round" stroke-linejoin="round"/>
<path d="M187.111 265.827L202.887 229.193" stroke="#502A73" stroke-width="0.369333" stroke-miterlimit="10" stroke-linecap="round" stroke-linejoin="round"/>
<path d="M168.239 167.726L168.354 167.924L173.51 174.583L176.372 180.733L193.896 175.052L199.974 172.024L196.344 161.502L195.358 155.345L195.101 155.137L187.286 158.737" fill="#008056"/>
<path d="M168.239 167.726L168.354 167.924L173.51 174.583L176.372 180.733L193.896 175.052L199.974 172.024L196.344 161.502L195.358 155.345L195.101 155.137L187.286 158.737" stroke="#502A73" stroke-width="0.369333" stroke-miterlimit="10" stroke-linecap="round" stroke-linejoin="round"/>
<path d="M220.567 175.709C220.567 178.292 218.527 180.386 216.011 180.386C213.494 180.386 211.454 178.292 211.454 175.709C211.454 173.126 213.494 171.032 216.011 171.032C218.527 171.032 220.567 173.126 220.567 175.709Z" fill="#EEC718"/>
<path d="M220.567 175.709C220.567 178.292 218.527 180.386 216.011 180.386C213.494 180.386 211.454 178.292 211.454 175.709C211.454 173.126 213.494 171.032 216.011 171.032C218.527 171.032 220.567 173.126 220.567 175.709Z" stroke="#502A73" stroke-width="0.369333" stroke-miterlimit="10" stroke-linecap="round" stroke-linejoin="round"/>
<path d="M207.697 199.023C207.482 201.596 205.276 203.504 202.768 203.284C200.261 203.064 198.402 200.799 198.617 198.226C198.83 195.652 201.038 193.744 203.544 193.964C206.052 194.185 207.911 196.449 207.697 199.023Z" fill="#EEC718"/>
<path d="M207.697 199.023C207.482 201.596 205.276 203.504 202.768 203.284C200.261 203.064 198.402 200.799 198.617 198.226C198.83 195.652 201.038 193.744 203.544 193.964C206.052 194.185 207.911 196.449 207.697 199.023Z" stroke="#502A73" stroke-width="0.369333" stroke-miterlimit="10" stroke-linecap="round" stroke-linejoin="round"/>
<path d="M207.697 207.218C207.482 209.792 205.276 211.699 202.768 211.48C200.261 211.26 198.402 208.995 198.617 206.422C198.83 203.848 201.038 201.94 203.544 202.16C206.052 202.38 207.911 204.644 207.697 207.218Z" fill="#EEC718"/>
<path d="M207.697 207.218C207.482 209.792 205.276 211.699 202.768 211.48C200.261 211.26 198.402 208.995 198.617 206.422C198.83 203.848 201.038 201.94 203.544 202.16C206.052 202.38 207.911 204.644 207.697 207.218Z" stroke="#502A73" stroke-width="0.369333" stroke-miterlimit="10" stroke-linecap="round" stroke-linejoin="round"/>
<path d="M208.143 215.469C207.928 218.042 205.722 219.95 203.214 219.73C200.706 219.51 198.848 217.245 199.063 214.672C199.276 212.098 201.483 210.19 203.99 210.41C206.498 210.631 208.357 212.895 208.143 215.469Z" fill="#EEC718"/>
<path d="M208.143 215.469C207.928 218.042 205.722 219.95 203.214 219.73C200.706 219.51 198.848 217.245 199.063 214.672C199.276 212.098 201.483 210.19 203.99 210.41C206.498 210.631 208.357 212.895 208.143 215.469Z" stroke="#502A73" stroke-width="0.369333" stroke-miterlimit="10" stroke-linecap="round" stroke-linejoin="round"/>
<path d="M210.124 223.343C209.909 225.917 207.703 227.824 205.196 227.605C202.688 227.384 200.83 225.119 201.044 222.546C201.258 219.973 203.465 218.064 205.972 218.285C208.479 218.505 210.339 220.769 210.124 223.343Z" fill="#EEC718"/>
<path d="M210.124 223.343C209.909 225.917 207.703 227.824 205.196 227.605C202.688 227.384 200.83 225.119 201.044 222.546C201.258 219.973 203.465 218.064 205.972 218.285C208.479 218.505 210.339 220.769 210.124 223.343Z" stroke="#502A73" stroke-width="0.369333" stroke-miterlimit="10" stroke-linecap="round" stroke-linejoin="round"/>
<path d="M213.478 231.233C213.263 233.807 211.057 235.714 208.55 235.495C206.042 235.274 204.184 233.009 204.398 230.436C204.612 227.863 206.819 225.954 209.327 226.175C211.833 226.395 213.693 228.659 213.478 231.233Z" fill="#EEC718"/>
<path d="M213.478 231.233C213.263 233.807 211.057 235.714 208.55 235.495C206.042 235.274 204.184 233.009 204.398 230.436C204.612 227.863 206.819 225.954 209.327 226.175C211.833 226.395 213.693 228.659 213.478 231.233Z" stroke="#502A73" stroke-width="0.369333" stroke-miterlimit="10" stroke-linecap="round" stroke-linejoin="round"/>
<path d="M218.38 238.405C218.38 240.988 216.339 243.082 213.823 243.082C211.306 243.082 209.267 240.988 209.267 238.405C209.267 235.822 211.306 233.729 213.823 233.729C216.339 233.729 218.38 235.822 218.38 238.405Z" fill="#EEC718"/>
<path d="M218.38 238.405C218.38 240.988 216.339 243.082 213.823 243.082C211.306 243.082 209.267 240.988 209.267 238.405C209.267 235.822 211.306 233.729 213.823 233.729C216.339 233.729 218.38 235.822 218.38 238.405Z" stroke="#502A73" stroke-width="0.369333" stroke-miterlimit="10" stroke-linecap="round" stroke-linejoin="round"/>
<path d="M209.414 119.642L202.982 120.248L203.927 125.94L207.703 124.608L209.414 119.642Z" fill="white"/>
<path d="M209.414 119.642L202.982 120.248L203.927 125.94L207.703 124.608L209.414 119.642Z" stroke="#502A73" stroke-width="0.369333" stroke-miterlimit="10" stroke-linecap="round" stroke-linejoin="round"/>
<path d="M189.088 94.6928C184.574 88.8188 182.836 87.5565 178.13 88.5307C171.77 89.8481 165.368 100.779 164.217 104.957C163.067 109.135 164.925 110.861 166.43 110.589C167.935 110.316 169.44 108.772 169.44 108.772C169.44 108.772 170.372 111.531 171.7 115.095C171.875 115.523 171.9 116.001 171.773 116.447L170.369 121.363C170.18 122.256 170.912 123.071 171.794 122.95L174.484 122.784C175.066 122.773 175.243 123.306 175.148 124.396C175.014 125.936 176.457 126.012 176.785 126.031C177.374 126.067 176.697 126.463 177.028 127.439C177.313 128.277 177.816 128.338 178.078 128.782C178.742 129.901 179.067 130.318 179.588 131.146C180.354 132.362 181.828 132.89 183.162 132.415L190.121 129.937L197.614 135.75L199.207 129.816L206.79 124.215C206.79 124.215 193.07 99.8761 189.088 94.6928Z" fill="#BF792A"/>
<path d="M189.088 94.6928C184.574 88.8188 182.836 87.5565 178.13 88.5307C171.77 89.8481 165.368 100.779 164.217 104.957C163.067 109.135 164.925 110.861 166.43 110.589C167.935 110.316 169.44 108.772 169.44 108.772C169.44 108.772 170.372 111.531 171.7 115.095C171.875 115.523 171.9 116.001 171.773 116.447L170.369 121.363C170.18 122.256 170.912 123.071 171.794 122.95L174.484 122.784C175.066 122.773 175.243 123.306 175.148 124.396C175.014 125.936 176.457 126.012 176.785 126.031C177.374 126.067 176.697 126.463 177.028 127.439C177.313 128.277 177.816 128.338 178.078 128.782C178.742 129.901 179.067 130.318 179.588 131.146C180.354 132.362 181.828 132.89 183.162 132.415L190.121 129.937L197.614 135.75L199.207 129.816L206.79 124.215C206.79 124.215 193.07 99.8761 189.088 94.6928Z" stroke="#502A73" stroke-width="0.369333" stroke-miterlimit="10" stroke-linecap="round" stroke-linejoin="round"/>
<path d="M174.13 104.079C176.431 101.535 178.334 98.1902 178.334 98.1902C178.334 98.1902 177.405 102.459 178.334 102.959C179.264 103.458 181.654 100.642 181.786 100.688C181.919 100.733 180.812 104.14 181.432 105.003C182.052 105.866 183.114 104.639 183.335 104.866C183.555 105.094 182.582 108.272 183.069 108.771C183.555 109.272 184.353 109.135 184.353 109.135C184.353 109.135 184.928 112.077 187.229 111.992C189.531 111.906 189.48 110.307 187.996 106.773C187.538 105.683 187.811 104.554 188.645 104.485C190.146 104.361 193.027 106.228 193.027 106.228C193.027 106.228 196.642 110.388 198.701 110.148C194.969 103.774 190.956 97.1253 189.088 94.6926C184.574 88.8185 182.836 87.5563 178.13 88.5305C171.77 89.8478 165.368 100.779 164.217 104.957C163.067 109.135 164.925 110.862 166.43 110.589C167.935 110.317 169.44 108.771 169.44 108.771C169.44 108.771 171.451 107.04 174.13 104.079Z" fill="#502A73"/>
<path d="M174.13 104.079C176.431 101.535 178.334 98.1902 178.334 98.1902C178.334 98.1902 177.405 102.459 178.334 102.959C179.264 103.458 181.654 100.642 181.786 100.688C181.919 100.733 180.812 104.14 181.432 105.003C182.052 105.866 183.114 104.639 183.335 104.866C183.555 105.094 182.582 108.272 183.069 108.771C183.555 109.272 184.353 109.135 184.353 109.135C184.353 109.135 184.928 112.077 187.229 111.992C189.531 111.906 189.48 110.307 187.996 106.773C187.538 105.683 187.811 104.554 188.645 104.485C190.146 104.361 193.027 106.228 193.027 106.228C193.027 106.228 196.642 110.388 198.701 110.148C194.969 103.774 190.956 97.1253 189.088 94.6926C184.574 88.8185 182.836 87.5563 178.13 88.5305C171.77 89.8478 165.368 100.779 164.217 104.957C163.067 109.135 164.925 110.862 166.43 110.589C167.935 110.317 169.44 108.771 169.44 108.771C169.44 108.771 171.451 107.04 174.13 104.079Z" stroke="#502A73" stroke-width="0.369333" stroke-miterlimit="10" stroke-linecap="round" stroke-linejoin="round"/>
<path d="M174.13 104.079C176.431 101.535 178.334 98.1902 178.334 98.1902C178.334 98.1902 177.405 102.459 178.334 102.959C179.264 103.458 181.654 100.642 181.786 100.688C181.919 100.733 180.812 104.14 181.432 105.003C182.052 105.866 183.114 104.639 183.335 104.866C183.555 105.094 182.582 108.272 183.069 108.771C183.555 109.272 184.353 109.135 184.353 109.135C184.353 109.135 184.928 112.077 187.229 111.992C189.531 111.906 189.48 110.307 187.996 106.773C187.538 105.683 187.811 104.554 188.645 104.485C190.146 104.361 193.027 106.228 193.027 106.228C193.027 106.228 196.642 110.388 198.701 110.148C194.969 103.774 190.956 97.1253 189.088 94.6926C184.574 88.8185 182.836 87.5563 178.13 88.5305C171.77 89.8478 165.368 100.779 164.217 104.957C163.067 109.135 164.925 110.862 166.43 110.589C167.935 110.317 169.44 108.771 169.44 108.771C169.44 108.771 171.451 107.04 174.13 104.079Z" stroke="#502A73" stroke-width="0.369333" stroke-miterlimit="10" stroke-linecap="round" stroke-linejoin="round"/>
<path d="M188.9 107.493C188.629 106.813 188.468 106.177 188.468 105.695C188.468 103.764 189.731 102.2 191.612 102.2C193.493 102.2 194.694 103.813 195.115 105.695C195.509 107.451 195.357 109.239 194.808 110.459C194.39 111.392 193.738 111.992 192.923 111.992" fill="#BF792A"/>
<path d="M188.9 107.493C188.629 106.813 188.468 106.177 188.468 105.695C188.468 103.764 189.731 102.2 191.612 102.2C193.493 102.2 194.694 103.813 195.115 105.695C195.509 107.451 195.357 109.239 194.808 110.459C194.39 111.392 193.738 111.992 192.923 111.992" stroke="#502A73" stroke-width="0.369333" stroke-miterlimit="10" stroke-linecap="round" stroke-linejoin="round"/>
<path d="M190.238 111.783C190.238 111.783 190.179 112.964 189.265 113.479C188.35 113.994 186.875 113.479 186.875 113.479" stroke="#502A73" stroke-width="0.369333" stroke-miterlimit="10" stroke-linecap="round" stroke-linejoin="round"/>
<path d="M190.901 113.479C190.901 113.479 190.842 114.66 189.928 115.175C189.013 115.689 187.538 115.175 187.538 115.175" stroke="#502A73" stroke-width="0.369333" stroke-miterlimit="10" stroke-linecap="round" stroke-linejoin="round"/>
<path d="M209.415 119.642L199.207 129.816L206.789 138.778L217.087 125.272C217.087 125.272 210.654 120.732 209.415 119.642Z" fill="white"/>
<path d="M209.415 119.642L199.207 129.816L206.789 138.778L217.087 125.272C217.087 125.272 210.654 120.732 209.415 119.642Z" stroke="#502A73" stroke-width="0.369333" stroke-miterlimit="10" stroke-linecap="round" stroke-linejoin="round"/>
<path d="M190.5 130.232L186.875 137.022C186.875 137.022 187.355 138.546 188.557 140.111C190.182 142.23 191.902 143.078 191.902 143.078L193.49 132.551L190.5 130.232Z" fill="white"/>
<path d="M190.5 130.232L186.875 137.022C186.875 137.022 187.355 138.546 188.557 140.111C190.182 142.23 191.902 143.078 191.902 143.078L193.49 132.551L190.5 130.232Z" stroke="#502A73" stroke-width="0.369333" stroke-miterlimit="10" stroke-linecap="round" stroke-linejoin="round"/>
<path d="M190.504 106.955C190.504 106.955 190.055 104.927 191.902 104.927C193.1 104.927 193.631 106.713 192.952 107.652C192.576 108.172 191.713 108.288 191.713 108.288C191.713 108.288 192.385 108.431 192.371 109.064C192.354 109.86 191.41 109.658 191.41 109.658" fill="#BF792A"/>
<path d="M190.504 106.955C190.504 106.955 190.055 104.927 191.902 104.927C193.1 104.927 193.631 106.713 192.952 107.652C192.576 108.172 191.713 108.288 191.713 108.288C191.713 108.288 192.385 108.431 192.371 109.064C192.354 109.86 191.41 109.658 191.41 109.658" stroke="#502A73" stroke-width="0.369333" stroke-miterlimit="10" stroke-linecap="round" stroke-linejoin="round"/>
<path d="M176.785 126.031C176.785 126.031 178.635 125.943 179.941 125.214C181.299 124.457 181.771 123.699 181.771 123.699" stroke="#502A73" stroke-width="0.369333" stroke-miterlimit="10" stroke-linecap="round" stroke-linejoin="round"/>
<path d="M176.319 112.463C176.78 112.082 177.338 111.845 177.927 111.783" stroke="#502A73" stroke-width="0.737333" stroke-miterlimit="10" stroke-linecap="round" stroke-linejoin="round"/>
<path d="M176.544 112.343C176.509 112.704 176.602 113.236 176.781 113.683C177.064 114.39 177.454 114.623 177.766 114.491C178.08 114.358 178.197 113.912 177.913 113.206C177.733 112.757 177.436 112.313 177.163 112.081L176.544 112.343Z" fill="#502A73"/>
<path d="M171.265 114.598C171.727 114.217 172.284 113.98 172.873 113.918" stroke="#502A73" stroke-width="0.737333" stroke-miterlimit="10" stroke-linecap="round" stroke-linejoin="round"/>
<path d="M171.491 114.478C171.455 114.839 171.548 115.371 171.727 115.818C172.011 116.525 172.401 116.758 172.713 116.626C173.027 116.493 173.144 116.047 172.86 115.34C172.68 114.892 172.383 114.448 172.11 114.216L171.491 114.478Z" fill="#502A73"/>
<path d="M173.695 111.038C173.955 111.256 174.346 111.196 174.52 110.903C174.818 110.401 175.377 109.73 176.319 109.499C176.833 109.373 177.238 109.34 177.552 109.355C177.918 109.373 178.168 108.979 178.018 108.636C177.956 108.496 177.839 108.394 177.695 108.352C176.963 108.14 174.685 107.728 173.539 110.356C173.437 110.593 173.5 110.874 173.695 111.038Z" fill="#502A73"/>
<path d="M183.6 122.003C184.268 121.909 184.545 121.428 184.545 121.428C184.545 121.428 181.919 120.458 181.281 120.428C180.643 120.399 179.353 121.155 177.493 122.245C176.495 122.831 175.635 123.057 175.051 123.142C175.17 123.409 175.198 123.823 175.148 124.395C175.139 124.495 175.138 124.588 175.141 124.676C175.752 124.625 176.678 124.475 177.7 124.062C179.499 123.336 181.373 122.033 181.521 121.912C181.601 121.847 182.81 122.114 183.6 122.003Z" fill="#502A73"/>
<path d="M183.6 122.003C184.268 121.909 184.545 121.428 184.545 121.428C184.545 121.428 181.919 120.458 181.281 120.428C180.643 120.399 179.353 121.155 177.493 122.245C176.495 122.831 175.635 123.057 175.051 123.142C175.17 123.409 175.198 123.823 175.148 124.395C175.139 124.495 175.138 124.588 175.141 124.676C175.752 124.625 176.678 124.475 177.7 124.062C179.499 123.336 181.373 122.033 181.521 121.912C181.601 121.847 182.81 122.114 183.6 122.003Z" stroke="#502A73" stroke-width="0.369333" stroke-miterlimit="10" stroke-linecap="round" stroke-linejoin="round"/>
<path d="M183.6 122.003C184.268 121.909 184.545 121.428 184.545 121.428C184.545 121.428 181.919 120.458 181.281 120.428C180.643 120.399 179.353 121.155 177.493 122.245C176.495 122.831 175.635 123.057 175.051 123.142C175.17 123.409 175.198 123.823 175.148 124.395C175.139 124.495 175.138 124.588 175.141 124.676C175.752 124.625 176.678 124.475 177.7 124.062C179.499 123.336 181.373 122.033 181.521 121.912C181.601 121.847 182.81 122.114 183.6 122.003Z" stroke="#502A73" stroke-width="0.369333" stroke-miterlimit="10" stroke-linecap="round" stroke-linejoin="round"/>
<path d="M170.966 110.825C170.67 110.859 170.438 110.957 170.251 111.087L170.7 112.344C170.796 112.255 170.91 112.176 171.054 112.123C171.367 112.008 171.714 111.997 172.001 112.02C172.327 112.046 172.604 111.783 172.604 111.448C172.604 111.191 172.437 110.966 172.196 110.895C171.934 110.817 171.534 110.76 170.966 110.825Z" fill="#502A73"/>
<path d="M285.117 190.252C282.499 183.031 279.551 175.914 276.552 169.293C272.644 169.202 267.337 169.241 261.028 169.689C254.232 170.172 247.566 172.01 242.547 173.753C246.942 181.706 250.246 190.131 250.246 190.131L213.737 174.629C213.737 174.629 208.737 168.224 204.665 164.773C200.593 161.321 196.345 161.502 196.345 161.502L197.762 169.542C197.762 169.542 194.487 173.265 187.937 175.719C181.388 178.171 176.609 178.171 176.609 178.171L173.511 174.583C173.511 174.583 171.873 177.353 174.042 182.258C176.21 187.164 181.653 186.528 181.653 186.528C182.449 190.66 187.45 190.978 187.45 190.978C188.513 193.386 192.274 194.249 192.274 194.249C192.274 194.249 192.953 197.064 196.522 197.837C200.933 198.79 203.511 197.069 203.511 197.069C203.511 197.069 218.383 210.054 236.97 225.677C255.556 241.302 273.286 237.839 280.456 233.852C293.201 226.768 293.614 213.687 285.117 190.252Z" fill="#BF792A"/>
<path d="M285.117 190.252C282.499 183.031 279.551 175.914 276.552 169.293C272.644 169.202 267.337 169.241 261.028 169.689C254.232 170.172 247.566 172.01 242.547 173.753C246.942 181.706 250.246 190.131 250.246 190.131L213.737 174.629C213.737 174.629 208.737 168.224 204.665 164.773C200.593 161.321 196.345 161.502 196.345 161.502L197.762 169.542C197.762 169.542 194.487 173.265 187.937 175.719C181.388 178.171 176.609 178.171 176.609 178.171L173.511 174.583C173.511 174.583 171.873 177.353 174.042 182.258C176.21 187.164 181.653 186.528 181.653 186.528C182.449 190.66 187.45 190.978 187.45 190.978C188.513 193.386 192.274 194.249 192.274 194.249C192.274 194.249 192.953 197.064 196.522 197.837C200.933 198.79 203.511 197.069 203.511 197.069C203.511 197.069 218.383 210.054 236.97 225.677C255.556 241.302 273.286 237.839 280.456 233.852C293.201 226.768 293.614 213.687 285.117 190.252Z" stroke="#502A73" stroke-width="0.369333" stroke-miterlimit="10" stroke-linecap="round" stroke-linejoin="round"/>
<path d="M222.104 186.745C222.104 186.745 223.127 189.704 223.128 192.853C223.132 198.485 222.104 201.149 222.104 201.149" stroke="#502A73" stroke-width="0.369333" stroke-miterlimit="10" stroke-linecap="round" stroke-linejoin="round"/>
<path d="M235.102 194.745C235.102 194.745 236.78 197.37 237.508 200.43C238.813 205.9 238.431 208.739 238.431 208.739" stroke="#502A73" stroke-width="0.369333" stroke-miterlimit="10" stroke-linecap="round" stroke-linejoin="round"/>
<path d="M245.998 196.428C245.998 196.428 247.185 199.365 247.177 205.39C247.173 209.147 245.998 215.806 245.998 215.806" stroke="#502A73" stroke-width="0.369333" stroke-miterlimit="10" stroke-linecap="round" stroke-linejoin="round"/>
<path d="M252.605 201.031C252.605 201.031 254.612 203.696 256.382 209.751C258.151 215.808 258.151 220.046 258.151 220.046" stroke="#502A73" stroke-width="0.369333" stroke-miterlimit="10" stroke-linecap="round" stroke-linejoin="round"/>
<path d="M270.248 198.624L213.737 174.628" stroke="#502A73" stroke-width="0.369333" stroke-miterlimit="10" stroke-linecap="round" stroke-linejoin="round"/>
<path d="M193.601 182.621C193.601 182.621 189.766 185.589 181.653 186.528L193.601 182.621Z" fill="#BF792A"/>
<path d="M193.601 182.621C193.601 182.621 189.766 185.589 181.653 186.528" stroke="#502A73" stroke-width="0.369333" stroke-miterlimit="10" stroke-linecap="round" stroke-linejoin="round"/>
<path d="M196.493 187.95C196.493 187.95 193.631 190.858 187.451 190.978L196.493 187.95Z" fill="#BF792A"/>
<path d="M196.493 187.95C196.493 187.95 193.631 190.858 187.451 190.978" stroke="#502A73" stroke-width="0.369333" stroke-miterlimit="10" stroke-linecap="round" stroke-linejoin="round"/>
<path d="M199.974 193.158C199.974 193.158 197.259 195.158 192.273 194.249L199.974 193.158Z" fill="#BF792A"/>
<path d="M199.974 193.158C199.974 193.158 197.259 195.158 192.273 194.249" stroke="#502A73" stroke-width="0.369333" stroke-miterlimit="10" stroke-linecap="round" stroke-linejoin="round"/>
<path d="M195.265 154.981C196.163 156.987 190.842 161.466 183.378 164.986C175.915 168.506 169.138 169.732 168.239 167.727C167.341 165.721 172.663 161.242 180.126 157.723C187.589 154.203 194.368 152.975 195.265 154.981Z" fill="#502A73"/>
<path d="M195.265 154.981C196.163 156.987 190.842 161.466 183.378 164.986C175.915 168.506 169.138 169.732 168.239 167.727C167.341 165.721 172.663 161.242 180.126 157.723C187.589 154.203 194.368 152.975 195.265 154.981Z" stroke="#502A73" stroke-width="0.369333" stroke-miterlimit="10" stroke-linecap="round" stroke-linejoin="round"/>
<path d="M195.265 154.981C196.163 156.987 190.842 161.466 183.378 164.986C175.915 168.506 169.138 169.732 168.239 167.727C167.341 165.721 172.663 161.242 180.126 157.723C187.589 154.203 194.368 152.975 195.265 154.981Z" stroke="#502A73" stroke-width="0.369333" stroke-miterlimit="10" stroke-linecap="round" stroke-linejoin="round"/>
<path d="M96.5617 129.607C96.3321 126.962 93.3755 125.625 95.7123 124.486C98.4784 123.14 108.137 120.355 111.703 119.643C120.598 117.864 121.97 120.015 123.503 124.634C125.47 130.557 126.927 138.931 129.286 152.117C131.646 165.302 133.68 175.602 133.063 178.746C132.354 182.349 122.441 184.802 116.069 186.618C109.697 188.435 108.951 187.052 106.473 184.024C103.625 180.545 99.5711 154.085 98.3683 145.44C97.4259 138.672 96.8681 133.125 96.5617 129.607Z" fill="#008056"/>
<path d="M96.5617 129.607C96.3321 126.962 93.3755 125.625 95.7123 124.486C98.4784 123.14 108.137 120.355 111.703 119.643C120.598 117.864 121.97 120.015 123.503 124.634C125.47 130.557 126.927 138.931 129.286 152.117C131.646 165.302 133.68 175.602 133.063 178.746C132.354 182.349 122.441 184.802 116.069 186.618C109.697 188.435 108.951 187.052 106.473 184.024C103.625 180.545 99.5711 154.085 98.3683 145.44C97.4259 138.672 96.8681 133.125 96.5617 129.607Z" stroke="#502A73" stroke-width="0.369333" stroke-miterlimit="10" stroke-linecap="round" stroke-linejoin="round"/>
<path d="M90.8977 131.06C90.6681 128.415 92.0603 125.902 94.3972 124.765C97.1621 123.419 102.473 121.809 106.039 121.096C114.934 119.318 116.501 121.103 117.839 125.787C119.09 130.164 121.263 140.386 123.622 153.571C125.982 166.755 127.989 177.051 127.399 180.2C126.809 183.348 122.443 184.802 116.07 186.619C109.697 188.435 104.209 189.101 101.731 186.074C98.4361 182.047 95.1937 159.367 93.5421 147.497C92.5998 140.729 91.2041 134.578 90.8977 131.06Z" fill="#008056"/>
<path d="M90.8977 131.06C90.6681 128.415 92.0603 125.902 94.3972 124.765C97.1621 123.419 102.473 121.809 106.039 121.096C114.934 119.318 116.501 121.103 117.839 125.787C119.09 130.164 121.263 140.386 123.622 153.571C125.982 166.755 127.989 177.051 127.399 180.2C126.809 183.348 122.443 184.802 116.07 186.619C109.697 188.435 104.209 189.101 101.731 186.074C98.4361 182.047 95.1937 159.367 93.5421 147.497C92.5998 140.729 91.2041 134.578 90.8977 131.06Z" stroke="#502A73" stroke-width="0.369333" stroke-miterlimit="10" stroke-linecap="round" stroke-linejoin="round"/>
<path d="M109.31 128.525C106.261 128.281 104.952 129.981 104.777 130.23C104.527 130.073 102.71 129.045 99.9831 130.531C97.3685 131.956 97.0379 134.69 97.7679 135.858C98.1524 136.473 98.6505 135.65 99.555 134.685C100.835 133.32 101.885 133.744 101.885 133.744C101.885 133.744 99.7432 134.887 99.1693 136.466C98.5954 138.045 100.05 139.863 100.777 138.515C101.981 136.286 102.942 136.063 102.942 136.063C102.942 136.063 102.119 137.029 101.856 138.223C101.592 139.416 102.163 140.49 102.968 140.348C103.46 140.261 104.874 135.912 105.04 138.386C105.268 141.794 105.67 144.19 106.14 145.81C106.365 146.586 106.994 147.063 107.602 146.932L108.153 146.813C108.762 146.682 109.172 145.982 109.101 145.173C108.954 143.483 108.466 141.105 107.456 137.866C106.724 135.515 109.588 138.942 110.071 138.821C110.866 138.619 111.007 137.391 110.337 136.398C109.667 135.406 108.561 134.855 108.561 134.855C108.561 134.855 109.528 134.663 111.438 136.223C112.591 137.165 113.282 134.886 112.187 133.666C111.092 132.446 108.706 132.278 108.706 132.278C108.706 132.278 109.524 131.451 111.194 132.182C112.374 132.699 113.128 133.252 113.263 132.525C113.519 131.145 112.234 128.759 109.31 128.525Z" fill="#4BBEA5"/>
<path d="M109.31 128.525C106.261 128.281 104.952 129.981 104.777 130.23C104.527 130.073 102.71 129.045 99.9831 130.531C97.3685 131.956 97.0379 134.69 97.7679 135.858C98.1524 136.473 98.6505 135.65 99.555 134.685C100.835 133.32 101.885 133.744 101.885 133.744C101.885 133.744 99.7432 134.887 99.1693 136.466C98.5954 138.045 100.05 139.863 100.777 138.515C101.981 136.286 102.942 136.063 102.942 136.063C102.942 136.063 102.119 137.029 101.856 138.223C101.592 139.416 102.163 140.49 102.968 140.348C103.46 140.261 104.874 135.912 105.04 138.386C105.268 141.794 105.67 144.19 106.14 145.81C106.365 146.586 106.994 147.063 107.602 146.932L108.153 146.813C108.762 146.682 109.172 145.982 109.101 145.173C108.954 143.483 108.466 141.105 107.456 137.866C106.724 135.515 109.588 138.942 110.071 138.821C110.866 138.619 111.007 137.391 110.337 136.398C109.667 135.406 108.561 134.855 108.561 134.855C108.561 134.855 109.528 134.663 111.438 136.223C112.591 137.165 113.282 134.886 112.187 133.666C111.092 132.446 108.706 132.278 108.706 132.278C108.706 132.278 109.524 131.451 111.194 132.182C112.374 132.699 113.128 133.252 113.263 132.525C113.519 131.145 112.234 128.759 109.31 128.525Z" stroke="#502A73" stroke-width="0.369333" stroke-miterlimit="10" stroke-linecap="round" stroke-linejoin="round"/>
<path d="M127.964 153.031L125.326 139.371C125.191 138.671 124.529 138.217 123.847 138.356C123.166 138.494 122.723 139.174 122.857 139.873L125.496 153.532C125.63 154.232 126.293 154.687 126.974 154.548C127.656 154.41 128.099 153.73 127.964 153.031Z" fill="#502A73"/>
<path d="M127.964 153.031L125.326 139.371C125.191 138.671 124.529 138.217 123.847 138.356C123.166 138.494 122.723 139.174 122.857 139.873L125.496 153.532C125.63 154.232 126.293 154.687 126.974 154.548C127.656 154.41 128.099 153.73 127.964 153.031Z" stroke="#502A73" stroke-width="0.369333" stroke-miterlimit="10" stroke-linecap="round" stroke-linejoin="round"/>
<path d="M123.404 136.059C124.086 135.92 124.529 135.241 124.393 134.541L123.748 131.203C123.614 130.504 122.952 130.05 122.27 130.188C121.588 130.326 121.145 131.006 121.281 131.706L121.926 135.044C122.06 135.743 122.722 136.198 123.404 136.059Z" fill="#502A73"/>
<path d="M123.404 136.059C124.086 135.92 124.529 135.241 124.393 134.541L123.748 131.203C123.614 130.504 122.952 130.05 122.27 130.188C121.588 130.326 121.145 131.006 121.281 131.706L121.926 135.044C122.06 135.743 122.722 136.198 123.404 136.059Z" stroke="#502A73" stroke-width="0.369333" stroke-miterlimit="10" stroke-linecap="round" stroke-linejoin="round"/>
<path d="M127.964 153.031L125.326 139.371C125.191 138.671 124.529 138.217 123.847 138.356C123.166 138.494 122.723 139.174 122.857 139.873L125.496 153.532C125.63 154.232 126.293 154.687 126.974 154.548C127.656 154.41 128.099 153.73 127.964 153.031Z" stroke="#502A73" stroke-width="0.369333" stroke-miterlimit="10" stroke-linecap="round" stroke-linejoin="round"/>
<path d="M123.404 136.059C124.086 135.92 124.529 135.241 124.393 134.541L123.748 131.203C123.614 130.504 122.952 130.05 122.27 130.188C121.588 130.326 121.145 131.006 121.281 131.706L121.926 135.044C122.06 135.743 122.722 136.198 123.404 136.059Z" stroke="#502A73" stroke-width="0.369333" stroke-miterlimit="10" stroke-linecap="round" stroke-linejoin="round"/>
<path d="M119.681 178.777L108.426 181.93C107.929 182.07 107.41 181.765 107.275 181.255C107.139 180.744 107.435 180.213 107.932 180.074L119.187 176.921C119.684 176.782 120.203 177.085 120.338 177.595C120.474 178.106 120.178 178.638 119.681 178.777Z" fill="#4BBEA5"/>
<path d="M119.681 178.777L108.426 181.93C107.929 182.07 107.41 181.765 107.275 181.255C107.139 180.744 107.435 180.213 107.932 180.074L119.187 176.921C119.684 176.782 120.203 177.085 120.338 177.595C120.474 178.106 120.178 178.638 119.681 178.777Z" stroke="#502A73" stroke-width="0.369333" stroke-miterlimit="10" stroke-linecap="round" stroke-linejoin="round"/>
<path d="M117.043 154.155C117.382 153.178 117.53 151.372 117.308 150.103C116.987 148.262 115.774 146.949 113.896 146.501C114.211 144.925 114.207 143.676 113.178 142.412C111.378 140.201 107.948 140.249 102.871 142.39C98.2338 144.346 85.6257 149.682 87.7491 160.461C88.9508 166.558 90.4452 171.442 92.5065 175.448C95.0936 180.471 99.7351 179.537 101.615 178.95C101.615 178.95 103.097 178.159 103.796 176.778C105.561 173.296 107.94 165.858 110.169 164.759C112.962 163.382 114.481 162.73 116.58 162.037C118.904 160.602 118.458 156.468 116.959 154.37C116.903 154.292 117.017 154.233 117.043 154.155Z" fill="#BF792A"/>
<path d="M117.043 154.155C117.382 153.178 117.53 151.372 117.308 150.103C116.987 148.262 115.774 146.949 113.896 146.501C114.211 144.925 114.207 143.676 113.178 142.412C111.378 140.201 107.948 140.249 102.871 142.39C98.2338 144.346 85.6257 149.682 87.7491 160.461C88.9508 166.558 90.4452 171.442 92.5065 175.448C95.0936 180.471 99.7351 179.537 101.615 178.95C101.615 178.95 103.097 178.159 103.796 176.778C105.561 173.296 107.94 165.858 110.169 164.759C112.962 163.382 114.481 162.73 116.58 162.037C118.904 160.602 118.458 156.468 116.959 154.37C116.903 154.292 117.017 154.233 117.043 154.155Z" stroke="#502A73" stroke-width="0.369333" stroke-miterlimit="10" stroke-linecap="round" stroke-linejoin="round"/>
<path d="M99.0174 162.694C99.0174 162.694 107.242 154.947 116.959 154.37C117.356 153.468 117.548 151.473 117.309 150.103C116.988 148.262 115.775 146.95 113.896 146.501C102.085 148.558 97.0708 155.199 97.0708 155.199" fill="#BF792A"/>
<path d="M99.0174 162.694C99.0174 162.694 107.242 154.947 116.959 154.37C117.356 153.468 117.548 151.473 117.309 150.103C116.988 148.262 115.775 146.95 113.896 146.501C102.085 148.558 97.0708 155.199 97.0708 155.199" stroke="#502A73" stroke-width="0.369333" stroke-miterlimit="10" stroke-linecap="round" stroke-linejoin="round"/>
<path d="M101.318 170.047L102.616 169.083C102.616 169.083 107.057 165.893 110.169 164.358C112.962 162.981 114.481 162.73 116.579 162.036C118.132 161.775 121.403 169.509 113.996 171.585C109.897 172.734 103.249 178.44 101.614 178.95" fill="#BF792A"/>
<path d="M101.318 170.047L102.616 169.083C102.616 169.083 107.057 165.893 110.169 164.358C112.962 162.981 114.481 162.73 116.579 162.036C118.132 161.775 121.403 169.509 113.996 171.585C109.897 172.734 103.249 178.44 101.614 178.95" stroke="#502A73" stroke-width="0.369333" stroke-miterlimit="10" stroke-linecap="round" stroke-linejoin="round"/>
<path d="M253.167 229.193H323.523C338.921 229.193 351.403 243.345 351.403 260.803C351.403 278.261 338.921 292.415 323.523 292.415H253.167V229.193Z" fill="#A9D054"/>
<path d="M253.167 229.193H323.523C338.921 229.193 351.403 243.345 351.403 260.803C351.403 278.261 338.921 292.415 323.523 292.415H253.167V229.193Z" stroke="#502A73" stroke-width="0.369333" stroke-miterlimit="10" stroke-linecap="round" stroke-linejoin="round"/>
<path d="M301.272 250.7C298.171 249.721 297.299 251.27 297.181 251.504C296.898 251.27 294.827 249.721 292.492 250.7C290.253 251.64 290.371 254.68 291.092 256.256C291.471 257.085 291.937 256.23 292.739 255.323C293.875 254.039 294.901 254.806 294.901 254.806C294.901 254.806 292.981 255.597 292.413 257.342C291.846 259.088 292.898 261.682 293.743 260.236C295.141 257.844 295.953 257.833 295.953 257.833C295.953 257.833 295.164 258.782 294.767 260.163C294.37 261.543 294.619 262.997 295.371 263.034C295.828 263.056 297.912 258.144 297.636 261.192C297.256 265.393 296.432 268.327 295.943 270.255C295.71 271.177 295.922 271.835 296.495 271.835H297.013C297.587 271.835 298.353 271.177 298.731 270.255C299.523 268.327 300.268 265.393 299.911 261.192C299.653 258.144 301.597 263.056 302.056 263.034C302.813 262.997 303.234 261.543 302.752 260.163C302.27 258.782 301.244 257.833 301.244 257.833C301.244 257.833 302.247 257.844 303.78 260.236C304.707 261.682 305.672 259.088 304.67 257.342C303.667 255.597 301.322 254.806 301.322 254.806C301.322 254.806 302.056 254.039 303.697 255.323C304.857 256.23 305.57 257.085 305.679 256.256C305.886 254.68 304.247 251.64 301.272 250.7Z" fill="#4BBEA5"/>
<path d="M301.272 250.7C298.171 249.721 297.299 251.27 297.181 251.504C296.898 251.27 294.827 249.721 292.492 250.7C290.253 251.64 290.371 254.68 291.092 256.256C291.471 257.085 291.937 256.23 292.739 255.323C293.875 254.039 294.901 254.806 294.901 254.806C294.901 254.806 292.981 255.597 292.413 257.342C291.846 259.088 292.898 261.682 293.743 260.236C295.141 257.844 295.953 257.833 295.953 257.833C295.953 257.833 295.164 258.782 294.767 260.163C294.37 261.543 294.619 262.997 295.371 263.034C295.828 263.056 297.912 258.144 297.636 261.192C297.256 265.393 296.432 268.327 295.943 270.255C295.71 271.177 295.922 271.835 296.495 271.835H297.013C297.587 271.835 298.353 271.177 298.731 270.255C299.523 268.327 300.268 265.393 299.911 261.192C299.653 258.144 301.597 263.056 302.056 263.034C302.813 262.997 303.234 261.543 302.752 260.163C302.27 258.782 301.244 257.833 301.244 257.833C301.244 257.833 302.247 257.844 303.78 260.236C304.707 261.682 305.672 259.088 304.67 257.342C303.667 255.597 301.322 254.806 301.322 254.806C301.322 254.806 302.056 254.039 303.697 255.323C304.857 256.23 305.57 257.085 305.679 256.256C305.886 254.68 304.247 251.64 301.272 250.7Z" stroke="#502A73" stroke-width="0.369333" stroke-miterlimit="10" stroke-linecap="round" stroke-linejoin="round"/>
<path d="M319.183 250.7C316.081 249.721 315.208 251.27 315.091 251.504C314.809 251.27 312.737 249.721 310.402 250.7C308.163 251.64 308.281 254.68 309.002 256.256C309.381 257.085 309.846 256.23 310.649 255.323C311.785 254.039 312.811 254.806 312.811 254.806C312.811 254.806 310.891 255.597 310.323 257.342C309.756 259.088 310.809 261.682 311.653 260.236C313.051 257.844 313.863 257.833 313.863 257.833C313.863 257.833 313.074 258.782 312.677 260.163C312.28 261.543 312.529 262.997 313.281 263.034C313.738 263.056 315.822 258.144 315.547 261.192C315.167 265.393 314.341 268.327 313.854 270.255C313.619 271.177 313.832 271.835 314.405 271.835H314.923C315.497 271.835 316.263 271.177 316.641 270.255C317.432 268.327 318.178 265.393 317.821 261.192C317.563 258.144 319.506 263.056 319.967 263.034C320.723 262.997 321.144 261.543 320.662 260.163C320.18 258.782 319.154 257.833 319.154 257.833C319.154 257.833 320.156 257.844 321.69 260.236C322.617 261.682 323.582 259.088 322.579 257.342C321.577 255.597 319.232 254.806 319.232 254.806C319.232 254.806 319.967 254.039 321.607 255.323C322.766 256.23 323.48 257.085 323.589 256.256C323.797 254.68 322.158 251.64 319.183 250.7Z" fill="#4BBEA5"/>
<path d="M319.183 250.7C316.081 249.721 315.208 251.27 315.091 251.504C314.809 251.27 312.737 249.721 310.402 250.7C308.163 251.64 308.281 254.68 309.002 256.256C309.381 257.085 309.846 256.23 310.649 255.323C311.785 254.039 312.811 254.806 312.811 254.806C312.811 254.806 310.891 255.597 310.323 257.342C309.756 259.088 310.809 261.682 311.653 260.236C313.051 257.844 313.863 257.833 313.863 257.833C313.863 257.833 313.074 258.782 312.677 260.163C312.28 261.543 312.529 262.997 313.281 263.034C313.738 263.056 315.822 258.144 315.547 261.192C315.167 265.393 314.341 268.327 313.854 270.255C313.619 271.177 313.832 271.835 314.405 271.835H314.923C315.497 271.835 316.263 271.177 316.641 270.255C317.432 268.327 318.178 265.393 317.821 261.192C317.563 258.144 319.506 263.056 319.967 263.034C320.723 262.997 321.144 261.543 320.662 260.163C320.18 258.782 319.154 257.833 319.154 257.833C319.154 257.833 320.156 257.844 321.69 260.236C322.617 261.682 323.582 259.088 322.579 257.342C321.577 255.597 319.232 254.806 319.232 254.806C319.232 254.806 319.967 254.039 321.607 255.323C322.766 256.23 323.48 257.085 323.589 256.256C323.797 254.68 322.158 251.64 319.183 250.7Z" stroke="#502A73" stroke-width="0.369333" stroke-miterlimit="10" stroke-linecap="round" stroke-linejoin="round"/>
<path d="M337.093 250.7C333.992 249.721 333.119 251.27 333.001 251.504C332.719 251.27 330.647 249.721 328.312 250.7C326.073 251.64 326.191 254.68 326.912 256.256C327.291 257.085 327.756 256.23 328.559 255.323C329.695 254.039 330.722 254.806 330.722 254.806C330.722 254.806 328.801 255.597 328.233 257.342C327.666 259.088 328.719 261.682 329.563 260.236C330.961 257.844 331.773 257.833 331.773 257.833C331.773 257.833 330.984 258.782 330.587 260.163C330.19 261.543 330.439 262.997 331.191 263.034C331.648 263.056 333.732 258.144 333.457 261.192C333.077 265.393 332.252 268.327 331.764 270.255C331.53 271.177 331.742 271.835 332.315 271.835H332.833C333.407 271.835 334.173 271.177 334.552 270.255C335.342 268.327 336.088 265.393 335.732 261.192C335.473 258.144 337.416 263.056 337.877 263.034C338.633 262.997 339.054 261.543 338.572 260.163C338.09 258.782 337.064 257.833 337.064 257.833C337.064 257.833 338.066 257.844 339.601 260.236C340.527 261.682 341.492 259.088 340.489 257.342C339.487 255.597 337.142 254.806 337.142 254.806C337.142 254.806 337.877 254.039 339.517 255.323C340.676 256.23 341.39 257.085 341.499 256.256C341.707 254.68 340.068 251.64 337.093 250.7Z" fill="#4BBEA5"/>
<path d="M337.093 250.7C333.992 249.721 333.119 251.27 333.001 251.504C332.719 251.27 330.647 249.721 328.312 250.7C326.073 251.64 326.191 254.68 326.912 256.256C327.291 257.085 327.756 256.23 328.559 255.323C329.695 254.039 330.722 254.806 330.722 254.806C330.722 254.806 328.801 255.597 328.233 257.342C327.666 259.088 328.719 261.682 329.563 260.236C330.961 257.844 331.773 257.833 331.773 257.833C331.773 257.833 330.984 258.782 330.587 260.163C330.19 261.543 330.439 262.997 331.191 263.034C331.648 263.056 333.732 258.144 333.457 261.192C333.077 265.393 332.252 268.327 331.764 270.255C331.53 271.177 331.742 271.835 332.315 271.835H332.833C333.407 271.835 334.173 271.177 334.552 270.255C335.342 268.327 336.088 265.393 335.732 261.192C335.473 258.144 337.416 263.056 337.877 263.034C338.633 262.997 339.054 261.543 338.572 260.163C338.09 258.782 337.064 257.833 337.064 257.833C337.064 257.833 338.066 257.844 339.601 260.236C340.527 261.682 341.492 259.088 340.489 257.342C339.487 255.597 337.142 254.806 337.142 254.806C337.142 254.806 337.877 254.039 339.517 255.323C340.676 256.23 341.39 257.085 341.499 256.256C341.707 254.68 340.068 251.64 337.093 250.7Z" stroke="#502A73" stroke-width="0.369333" stroke-miterlimit="10" stroke-linecap="round" stroke-linejoin="round"/>
<path d="M281.046 260.804C281.046 278.262 268.564 292.414 253.167 292.414C237.769 292.414 225.287 278.262 225.287 260.804C225.287 243.345 237.769 229.193 253.167 229.193C268.564 229.193 281.046 243.345 281.046 260.804Z" fill="#A9D054"/>
<path d="M281.046 260.804C281.046 278.262 268.564 292.414 253.167 292.414C237.769 292.414 225.287 278.262 225.287 260.804C225.287 243.345 237.769 229.193 253.167 229.193C268.564 229.193 281.046 243.345 281.046 260.804Z" stroke="#502A73" stroke-width="0.369333" stroke-miterlimit="10" stroke-linecap="round" stroke-linejoin="round"/>
<path d="M253.167 284.378C241.859 284.378 232.659 273.803 232.659 260.804C232.659 247.805 241.859 237.229 253.167 237.229C264.474 237.229 273.674 247.805 273.674 260.804C273.674 273.803 264.474 284.378 253.167 284.378Z" fill="#A9D054"/>
<path d="M253.167 284.378C241.859 284.378 232.659 273.803 232.659 260.804C232.659 247.805 241.859 237.229 253.167 237.229C264.474 237.229 273.674 247.805 273.674 260.804C273.674 273.803 264.474 284.378 253.167 284.378Z" stroke="#502A73" stroke-width="0.369333" stroke-miterlimit="10" stroke-linecap="round" stroke-linejoin="round"/>
<path d="M258.152 288.445H248.181L250.34 265.039H255.993L258.152 288.445Z" fill="#4BBEA5"/>
<path d="M258.152 288.445H248.181L250.34 265.039H255.993L258.152 288.445Z" stroke="#502A73" stroke-width="0.369333" stroke-miterlimit="10" stroke-linecap="round" stroke-linejoin="round"/>
<path d="M256.205 288.445H250.127L251.443 265.039H254.889L256.205 288.445Z" fill="#4BBEA5"/>
<path d="M256.205 288.445H250.127L251.443 265.039H254.889L256.205 288.445Z" stroke="#502A73" stroke-width="0.369333" stroke-miterlimit="10" stroke-linecap="round" stroke-linejoin="round"/>
<path d="M254.317 288.445H252.016L252.514 265.039H253.819L254.317 288.445Z" fill="#4BBEA5"/>
<path d="M254.317 288.445H252.016L252.514 265.039H253.819L254.317 288.445Z" stroke="#502A73" stroke-width="0.369333" stroke-miterlimit="10" stroke-linecap="round" stroke-linejoin="round"/>
<path d="M258.748 260.804C258.748 264.299 256.249 267.132 253.166 267.132C250.084 267.132 247.584 264.299 247.584 260.804C247.584 257.308 250.084 254.475 253.166 254.475C256.249 254.475 258.748 257.308 258.748 260.804Z" fill="#4BBEA5"/>
<path d="M258.748 260.804C258.748 264.299 256.249 267.132 253.166 267.132C250.084 267.132 247.584 264.299 247.584 260.804C247.584 257.308 250.084 254.475 253.166 254.475C256.249 254.475 258.748 257.308 258.748 260.804Z" stroke="#502A73" stroke-width="0.369333" stroke-miterlimit="10" stroke-linecap="round" stroke-linejoin="round"/>
<path d="M303.833 141.47H303.832H303.833Z" stroke="#502A73" stroke-width="0.369333" stroke-miterlimit="10" stroke-linecap="round" stroke-linejoin="round"/>
<path d="M53.6729 247.569C53.6729 247.569 52.4781 234.062 57.6545 230.525C61.9035 227.621 70.3245 227.85 73.1446 232.853C77.599 240.756 59.2487 254.2 59.2487 254.2L53.6729 247.569Z" fill="#4BBEA5"/>
<path d="M53.6729 247.569C53.6729 247.569 52.4781 234.062 57.6545 230.525C61.9035 227.621 70.3245 227.85 73.1446 232.853C77.599 240.756 59.2487 254.2 59.2487 254.2L53.6729 247.569Z" stroke="#502A73" stroke-width="0.369333" stroke-miterlimit="10" stroke-linecap="round" stroke-linejoin="round"/>
<path d="M70.0675 234.68C69.0758 232.921 66.5152 232.293 64.4504 232.293C62.5898 232.293 58.7173 232.626 54.6267 235.364C53.0566 240.601 53.6729 247.569 53.6729 247.569L55.398 249.621C55.6712 249.79 55.8376 249.966 55.8456 250.153L59.7377 249.2C61.3239 247.873 63.4208 246.003 65.3502 243.913C68.192 240.835 71.1326 236.57 70.0675 234.68Z" fill="#4BBEA5"/>
<path d="M70.0675 234.68C69.0758 232.921 66.5152 232.293 64.4504 232.293C62.5898 232.293 58.7173 232.626 54.6267 235.364C53.0566 240.601 53.6729 247.569 53.6729 247.569L55.398 249.621C55.6712 249.79 55.8376 249.966 55.8456 250.153L59.7377 249.2C61.3239 247.873 63.4208 246.003 65.3502 243.913C68.192 240.835 71.1326 236.57 70.0675 234.68Z" stroke="#502A73" stroke-width="0.369333" stroke-miterlimit="10" stroke-linecap="round" stroke-linejoin="round"/>
<path d="M83.136 284.376C87.3931 277.589 85.4763 272.357 81.1033 270.89C74.832 268.786 71.1581 265.615 66.8597 260.377C63.0836 255.774 66.1515 252.708 57.6547 247.499C51.1986 243.543 29.599 227.308 15.6193 227.308C12.9473 227.308 10.4567 227.684 7.91441 228.403C1.80721 230.129 -0.0510042 235.215 1.54208 242.755C3.13517 250.294 14.8182 267.786 24.1414 280.19C33.4635 292.593 43.1402 305.598 48.4508 307.997C53.7615 310.396 61.7269 307.066 66.8597 303.342C74.9273 297.489 80.2563 288.966 83.136 284.376Z" fill="#4BBEA5"/>
<path d="M83.136 284.376C87.3931 277.589 85.4763 272.357 81.1033 270.89C74.832 268.786 71.158 265.615 66.8597 260.377C63.0836 255.774 66.1515 252.708 57.6547 247.499C51.1986 243.543 29.599 227.308 15.6193 227.308C12.9473 227.308 10.4567 227.684 7.91441 228.403C1.80721 230.129 -0.0510042 235.215 1.54208 242.755C3.13517 250.294 14.8182 267.786 24.1414 280.19C33.4635 292.593 43.1402 305.598 48.4508 307.997C53.7615 310.396 61.7269 307.066 66.8597 303.342C74.9273 297.489 80.2563 288.966 83.136 284.376Z" stroke="#502A73" stroke-width="0.369333" stroke-miterlimit="10" stroke-linecap="round" stroke-linejoin="round"/>
<path d="M66.8599 295.258L62.4927 306.015C64.0708 305.207 65.5572 304.288 66.8599 303.342C74.9275 297.49 80.2565 288.966 83.1362 284.376C87.236 277.84 85.6085 272.749 81.5776 271.07C67.521 280.398 66.8599 295.258 66.8599 295.258Z" fill="#4BBEA5"/>
<path d="M66.8599 295.258L62.4927 306.015C64.0708 305.207 65.5572 304.288 66.8599 303.342C74.9275 297.49 80.2565 288.966 83.1362 284.376C87.236 277.84 85.6085 272.749 81.5776 271.07C67.521 280.398 66.8599 295.258 66.8599 295.258Z" stroke="#502A73" stroke-width="0.369333" stroke-miterlimit="10" stroke-linecap="round" stroke-linejoin="round"/>
<path d="M45.932 274.24C40.681 269.578 43.26 264.8 40.6627 257.169C37.4857 247.84 29.0967 248.265 22.1344 243.66C15.1722 239.057 17.0602 232.278 17.0602 232.278L19.6599 227.757C18.2378 227.468 16.8823 227.307 15.6198 227.307C12.9467 227.307 10.4572 227.685 7.9149 228.403C1.8077 230.129 -0.0505164 235.215 1.54257 242.755C3.13565 250.294 14.8187 267.787 24.1407 280.19C33.4639 292.593 43.1407 305.598 48.4502 307.997C53.7608 310.397 61.7263 307.067 66.8602 303.342C67.1092 303.162 67.3549 302.978 67.5993 302.792C71.698 298.407 71.9321 290.936 66.7775 285.551C59.9645 278.436 51.8418 279.488 45.932 274.24Z" fill="#008056"/>
<path d="M45.932 274.24C40.681 269.578 43.26 264.8 40.6627 257.169C37.4857 247.84 29.0967 248.265 22.1344 243.66C15.1722 239.057 17.0602 232.278 17.0602 232.278L19.6599 227.757C18.2378 227.468 16.8823 227.307 15.6198 227.307C12.9467 227.307 10.4572 227.685 7.9149 228.403C1.8077 230.129 -0.0505164 235.215 1.54257 242.755C3.13565 250.294 14.8187 267.787 24.1407 280.19C33.4639 292.593 43.1407 305.598 48.4502 307.997C53.7608 310.397 61.7263 307.067 66.8602 303.342C67.1092 303.162 67.3549 302.978 67.5993 302.792C71.698 298.407 71.9321 290.936 66.7775 285.551C59.9645 278.436 51.8418 279.488 45.932 274.24Z" stroke="#502A73" stroke-width="0.369333" stroke-miterlimit="10" stroke-linecap="round" stroke-linejoin="round"/>
<path d="M7.91454 228.403C5.50311 229.085 3.75737 230.292 2.62109 231.965L6.32146 235.428C6.32146 235.428 12.1188 235.866 17.0599 232.278C18.8928 230.948 19.3978 229.272 19.3083 227.689C18.0136 227.444 16.7775 227.308 15.6194 227.308C12.9463 227.308 10.4568 227.685 7.91454 228.403Z" fill="#008056"/>
<path d="M7.91454 228.403C5.50311 229.085 3.75737 230.292 2.62109 231.965L6.32146 235.428C6.32146 235.428 12.1188 235.866 17.0599 232.278C18.8928 230.948 19.3978 229.272 19.3083 227.689C18.0136 227.444 16.7775 227.308 15.6194 227.308C12.9463 227.308 10.4568 227.685 7.91454 228.403Z" stroke="#502A73" stroke-width="0.369333" stroke-miterlimit="10" stroke-linecap="round" stroke-linejoin="round"/>
<path d="M57.6545 294.531C52.9625 288.627 39.5119 277.544 33.1396 269.642C26.7661 261.739 15.9692 237.668 9.41891 233.303C5.07351 230.405 3.17857 231.353 2.39465 232.319C0.856657 234.862 0.621367 238.399 1.54187 242.754C3.13495 250.294 14.818 267.786 24.1412 280.189C33.4632 292.593 43.14 305.597 48.4506 307.997C49.1014 308.292 49.7924 308.498 50.5132 308.63C50.8586 308.683 51.1949 308.728 51.5186 308.762C51.5358 308.763 51.5519 308.766 51.5679 308.767C51.6334 308.774 51.6931 308.776 51.7573 308.782C53.2827 308.88 54.9068 308.689 56.5458 308.286C57.5604 308.037 58.513 307.524 59.2246 306.74C61.892 303.797 60.727 298.398 57.6545 294.531Z" fill="#502A73"/>
<path d="M57.6545 294.531C52.9625 288.627 39.5119 277.544 33.1396 269.642C26.7661 261.739 15.9692 237.668 9.41891 233.303C5.07351 230.405 3.17857 231.353 2.39465 232.319C0.856657 234.862 0.621367 238.399 1.54187 242.754C3.13495 250.294 14.818 267.786 24.1412 280.189C33.4632 292.593 43.14 305.597 48.4506 307.997C49.1014 308.292 49.7924 308.498 50.5132 308.63C50.8586 308.683 51.1949 308.728 51.5186 308.762C51.5358 308.763 51.5519 308.766 51.5679 308.767C51.6334 308.774 51.693 308.776 51.7573 308.782C53.2827 308.88 54.9068 308.689 56.5458 308.286C57.5604 308.037 58.513 307.524 59.2246 306.74C61.892 303.797 60.727 298.398 57.6545 294.531Z" stroke="#502A73" stroke-width="0.369333" stroke-miterlimit="10" stroke-linecap="round" stroke-linejoin="round"/>
<path d="M57.6545 294.531C52.9625 288.627 39.5119 277.544 33.1396 269.642C26.7661 261.739 15.9692 237.668 9.41891 233.303C5.07351 230.405 3.17857 231.353 2.39465 232.319C0.856657 234.862 0.621367 238.399 1.54187 242.754C3.13495 250.294 14.818 267.786 24.1412 280.189C33.4632 292.593 43.14 305.597 48.4506 307.997C49.1014 308.292 49.7924 308.498 50.5132 308.63C50.8586 308.683 51.1949 308.728 51.5186 308.762C51.5358 308.763 51.5519 308.766 51.5679 308.767C51.6334 308.774 51.693 308.776 51.7573 308.782C53.2827 308.88 54.9068 308.689 56.5458 308.286C57.5604 308.037 58.513 307.524 59.2246 306.74C61.892 303.797 60.727 298.398 57.6545 294.531Z" stroke="#502A73" stroke-width="0.369333" stroke-miterlimit="10" stroke-linecap="round" stroke-linejoin="round"/>
<path d="M56.5933 266.917C56.5933 266.917 63.8505 269.23 68.0995 270.89L72.3474 272.549H56.5933V266.917Z" fill="#008056"/>
<path d="M56.5933 266.917C56.5933 266.917 63.8505 269.23 68.0995 270.89L72.3474 272.549H56.5933V266.917Z" stroke="#502A73" stroke-width="0.369333" stroke-miterlimit="10" stroke-linecap="round" stroke-linejoin="round"/>
<path d="M132.178 273.185C132.178 273.185 123.239 259.045 126.779 252.262C130.32 245.479 134.302 246.57 144.923 246.57C154.659 246.57 157.845 253.6 156.606 260.804C155.367 268.007 148.463 277.999 148.463 277.999L113.061 311.517L105.892 306.34L132.178 273.185Z" fill="#4BBEA5"/>
<path d="M132.178 273.185C132.178 273.185 123.239 259.045 126.779 252.262C130.32 245.479 134.302 246.57 144.923 246.57C154.659 246.57 157.845 253.6 156.606 260.804C155.367 268.007 148.463 277.999 148.463 277.999L113.061 311.517L105.892 306.34L132.178 273.185Z" stroke="#502A73" stroke-width="0.369333" stroke-miterlimit="10" stroke-linecap="round" stroke-linejoin="round"/>
<path d="M147.718 274.573H129.694" stroke="#502A73" stroke-width="0.369333" stroke-miterlimit="10" stroke-linecap="round" stroke-linejoin="round"/>
<path d="M125.183 280.426H143.207" stroke="#502A73" stroke-width="0.369333" stroke-miterlimit="10" stroke-linecap="round" stroke-linejoin="round"/>
<path d="M120.672 286.278H138.696" stroke="#502A73" stroke-width="0.369333" stroke-miterlimit="10" stroke-linecap="round" stroke-linejoin="round"/>
<path d="M116.161 292.13H134.185" stroke="#502A73" stroke-width="0.369333" stroke-miterlimit="10" stroke-linecap="round" stroke-linejoin="round"/>
<path d="M111.65 297.983H129.675" stroke="#502A73" stroke-width="0.369333" stroke-miterlimit="10" stroke-linecap="round" stroke-linejoin="round"/>
<path d="M145.772 275.584C147.705 272.723 152.236 265.224 153.105 260.169C153.623 257.165 153.12 254.465 151.727 252.76C150.347 251.073 148.058 250.218 144.923 250.218C143.504 250.218 142.185 250.199 141.022 250.181C140.032 250.167 139.115 250.153 138.261 250.153C132.802 250.153 131.632 250.69 129.912 253.984C128.182 257.301 131.279 265.569 134.418 270.551" fill="#4BBEA5"/>
<path d="M145.772 275.584C147.705 272.723 152.236 265.224 153.105 260.169C153.623 257.165 153.12 254.465 151.727 252.76C150.347 251.073 148.058 250.218 144.923 250.218C143.504 250.218 142.185 250.199 141.022 250.181C140.032 250.167 139.115 250.153 138.261 250.153C132.802 250.153 131.632 250.69 129.912 253.984C128.182 257.301 131.279 265.569 134.418 270.551" stroke="#502A73" stroke-width="0.369333" stroke-miterlimit="10" stroke-linecap="round" stroke-linejoin="round"/>
<path d="M132.355 269.37C128.579 269.249 121.471 277.696 111.159 289.808C100.847 301.918 92.4682 310.034 89.5173 316.573C86.5676 323.114 89.5173 327.413 96.5978 330.502C103.678 333.591 117.84 332.804 141.087 319.844C164.335 306.885 172.124 300.224 174.13 297.68C176.136 295.137 179.823 290.534 175.442 282.904C174.564 281.375 173.14 278.655 173.14 278.655L166.863 277.529C162.762 276.794 159.044 274.663 156.194 271.549C154.602 269.808 152.38 268.351 149.584 268.855C145.719 269.551 140.67 274.717 134.361 281.814C131.639 284.876 119.504 299.486 116.705 302.858C116.367 303.267 115.8 303.38 115.336 303.135C114.725 302.812 114.536 302.01 114.935 301.438C116.841 298.707 121.992 291.423 126.101 286.537C139.259 270.89 133.771 269.415 132.355 269.37Z" fill="#4BBEA5"/>
<path d="M132.355 269.37C128.579 269.249 121.471 277.696 111.159 289.808C100.847 301.918 92.4682 310.034 89.5173 316.573C86.5676 323.114 89.5173 327.413 96.5978 330.502C103.678 333.591 117.84 332.804 141.087 319.844C164.335 306.885 172.124 300.224 174.13 297.68C176.136 295.137 179.823 290.534 175.442 282.904C174.564 281.375 173.14 278.655 173.14 278.655L166.863 277.529C162.762 276.794 159.044 274.663 156.194 271.549C154.602 269.808 152.38 268.351 149.584 268.855C145.719 269.551 140.67 274.717 134.361 281.814C131.639 284.876 119.504 299.486 116.705 302.858C116.367 303.267 115.8 303.38 115.336 303.135C114.725 302.812 114.536 302.01 114.935 301.438C116.841 298.707 121.992 291.423 126.101 286.537C139.259 270.89 133.771 269.415 132.355 269.37Z" stroke="#502A73" stroke-width="0.369333" stroke-miterlimit="10" stroke-linecap="round" stroke-linejoin="round"/>
<path d="M175.442 282.904C174.564 281.374 173.141 278.655 173.141 278.655L167.353 277.617C168.57 280.881 170.788 284.831 174.839 288.717C175.779 289.62 176.623 290.432 177.388 291.165C177.718 288.923 177.332 286.196 175.442 282.904Z" fill="#4BBEA5"/>
<path d="M175.442 282.904C174.564 281.374 173.141 278.655 173.141 278.655L167.353 277.617C168.57 280.881 170.788 284.831 174.839 288.717C175.779 289.62 176.623 290.432 177.388 291.165C177.718 288.923 177.332 286.196 175.442 282.904Z" stroke="#502A73" stroke-width="0.369333" stroke-miterlimit="10" stroke-linecap="round" stroke-linejoin="round"/>
<path d="M172.478 284.237C165.397 283.025 162.859 286.417 160.381 290.05C157.903 293.684 156.901 304.826 149.348 307.611C141.796 310.397 138.492 304.22 131.057 305.068C123.623 305.916 118.902 318.875 114.418 324.082C109.933 329.291 99.1948 325.173 99.1948 325.173L100.111 331.568C107.953 333.108 121.189 330.937 141.088 319.844C164.336 306.885 172.124 300.224 174.129 297.681C175.595 295.823 177.953 292.865 177.413 288.433C176.85 286.545 175.496 284.753 172.478 284.237Z" fill="#008056"/>
<path d="M172.478 284.237C165.397 283.025 162.859 286.417 160.381 290.05C157.903 293.684 156.901 304.826 149.348 307.611C141.796 310.397 138.492 304.22 131.057 305.068C123.623 305.916 118.902 318.875 114.418 324.082C109.933 329.291 99.1948 325.173 99.1948 325.173L100.111 331.568C107.953 333.108 121.189 330.937 141.088 319.844C164.336 306.885 172.124 300.224 174.129 297.681C175.595 295.823 177.953 292.865 177.413 288.433C176.85 286.545 175.496 284.753 172.478 284.237Z" stroke="#502A73" stroke-width="0.369333" stroke-miterlimit="10" stroke-linecap="round" stroke-linejoin="round"/>
<path d="M93.6483 319.48C90.7364 319.627 89.3189 321.321 88.6636 323.284C89.5141 326.293 92.2893 328.621 96.598 330.502C99.0094 331.553 102.242 332.153 106.372 331.98C104.341 325.973 99.9414 319.163 93.6483 319.48Z" fill="#008056"/>
<path d="M93.6483 319.48C90.7364 319.627 89.3189 321.321 88.6636 323.284C89.5141 326.293 92.2893 328.621 96.598 330.502C99.0094 331.553 102.242 332.153 106.372 331.98C104.341 325.973 99.9414 319.163 93.6483 319.48Z" stroke="#502A73" stroke-width="0.369333" stroke-miterlimit="10" stroke-linecap="round" stroke-linejoin="round"/>
<path d="M161.396 277.442C160.835 277.799 160.054 278.296 158.967 278.987C155.102 281.444 148.904 285.957 148.904 285.957L153.265 289.376L162.055 277.571C161.837 277.53 161.618 277.486 161.396 277.442Z" fill="#008056"/>
<path d="M161.396 277.442C160.835 277.799 160.054 278.296 158.967 278.987C155.102 281.444 148.904 285.957 148.904 285.957L153.265 289.376L162.055 277.571C161.837 277.53 161.618 277.486 161.396 277.442Z" stroke="#502A73" stroke-width="0.369333" stroke-miterlimit="10" stroke-linecap="round" stroke-linejoin="round"/>
<path d="M228.734 177.486C228.734 180.069 226.695 182.164 224.178 182.164C221.661 182.164 219.621 180.069 219.621 177.486C219.621 174.903 221.661 172.809 224.178 172.809C226.695 172.809 228.734 174.903 228.734 177.486Z" fill="#EEC718"/>
<path d="M228.734 177.486C228.734 180.069 226.695 182.164 224.178 182.164C221.661 182.164 219.621 180.069 219.621 177.486C219.621 174.903 221.661 172.809 224.178 172.809C226.695 172.809 228.734 174.903 228.734 177.486Z" stroke="#502A73" stroke-width="0.369333" stroke-miterlimit="10" stroke-linecap="round" stroke-linejoin="round"/>
<path d="M233.424 185.063C233.424 187.646 231.385 189.74 228.868 189.74C226.351 189.74 224.311 187.646 224.311 185.063C224.311 182.479 226.351 180.385 228.868 180.385C231.385 180.385 233.424 182.479 233.424 185.063Z" fill="#EEC718"/>
<path d="M233.424 185.063C233.424 187.646 231.385 189.74 228.868 189.74C226.351 189.74 224.311 187.646 224.311 185.063C224.311 182.479 226.351 180.385 228.868 180.385C231.385 180.385 233.424 182.479 233.424 185.063Z" stroke="#502A73" stroke-width="0.369333" stroke-miterlimit="10" stroke-linecap="round" stroke-linejoin="round"/>
<path d="M235.383 193.536C235.383 196.119 233.344 198.213 230.827 198.213C228.31 198.213 226.27 196.119 226.27 193.536C226.27 190.953 228.31 188.859 230.827 188.859C233.344 188.859 235.383 190.953 235.383 193.536Z" fill="#EEC718"/>
<path d="M235.383 193.536C235.383 196.119 233.344 198.213 230.827 198.213C228.31 198.213 226.27 196.119 226.27 193.536C226.27 190.953 228.31 188.859 230.827 188.859C233.344 188.859 235.383 190.953 235.383 193.536Z" stroke="#502A73" stroke-width="0.369333" stroke-miterlimit="10" stroke-linecap="round" stroke-linejoin="round"/>
<path d="M236.355 202.225C236.355 204.808 234.315 206.902 231.798 206.902C229.281 206.902 227.242 204.808 227.242 202.225C227.242 199.642 229.281 197.548 231.798 197.548C234.315 197.548 236.355 199.642 236.355 202.225Z" fill="#EEC718"/>
<path d="M236.355 202.225C236.355 204.808 234.315 206.902 231.798 206.902C229.281 206.902 227.242 204.808 227.242 202.225C227.242 199.642 229.281 197.548 231.798 197.548C234.315 197.548 236.355 199.642 236.355 202.225Z" stroke="#502A73" stroke-width="0.369333" stroke-miterlimit="10" stroke-linecap="round" stroke-linejoin="round"/>
<path d="M235.914 210.539C235.914 213.122 233.873 215.216 231.357 215.216C228.84 215.216 226.801 213.122 226.801 210.539C226.801 207.956 228.84 205.861 231.357 205.861C233.873 205.861 235.914 207.956 235.914 210.539Z" fill="#EEC718"/>
<path d="M235.914 210.539C235.914 213.122 233.873 215.216 231.357 215.216C228.84 215.216 226.801 213.122 226.801 210.539C226.801 207.956 228.84 205.861 231.357 205.861C233.873 205.861 235.914 207.956 235.914 210.539Z" stroke="#502A73" stroke-width="0.369333" stroke-miterlimit="10" stroke-linecap="round" stroke-linejoin="round"/>
<path d="M235.383 218.758C235.383 221.341 233.344 223.435 230.827 223.435C228.31 223.435 226.27 221.341 226.27 218.758C226.27 216.175 228.31 214.081 230.827 214.081C233.344 214.081 235.383 216.175 235.383 218.758Z" fill="#EEC718"/>
<path d="M235.383 218.758C235.383 221.341 233.344 223.435 230.827 223.435C228.31 223.435 226.27 221.341 226.27 218.758C226.27 216.175 228.31 214.081 230.827 214.081C233.344 214.081 235.383 216.175 235.383 218.758Z" stroke="#502A73" stroke-width="0.369333" stroke-miterlimit="10" stroke-linecap="round" stroke-linejoin="round"/>
<path d="M220.394 270.127H214.69C213.144 262.262 214.158 255.332 215.925 247.599H219.159C220.926 255.332 221.94 262.262 220.394 270.127Z" fill="#EEC718"/>
<path d="M220.394 270.127H214.69C213.144 262.262 214.158 255.332 215.925 247.599H219.159C220.926 255.332 221.94 262.262 220.394 270.127Z" stroke="#502A73" stroke-width="0.369333" stroke-miterlimit="10" stroke-linecap="round" stroke-linejoin="round"/>
<path d="M219.419 270.127H215.666C214.384 262.677 215.274 254.991 216.478 247.599H218.606C219.81 254.991 220.701 262.676 219.419 270.127Z" fill="#EEC718"/>
<path d="M219.419 270.127H215.666C214.384 262.677 215.274 254.991 216.478 247.599H218.606C219.81 254.991 220.701 262.676 219.419 270.127Z" stroke="#502A73" stroke-width="0.369333" stroke-miterlimit="10" stroke-linecap="round" stroke-linejoin="round"/>
<path d="M218.269 270.127H216.816C216.318 262.628 216.659 255.089 217.13 247.599H217.954C218.426 255.089 218.767 262.628 218.269 270.127Z" fill="#EEC718"/>
<path d="M218.269 270.127H216.816C216.318 262.628 216.659 255.089 217.13 247.599H217.954C218.426 255.089 218.767 262.628 218.269 270.127Z" stroke="#502A73" stroke-width="0.369333" stroke-miterlimit="10" stroke-linecap="round" stroke-linejoin="round"/>
<path d="M221.327 249.077C220.894 248.417 220.892 247.536 221.324 246.877C221.849 246.078 222.139 245.106 222.095 244.061C221.991 241.678 220.091 239.718 217.769 239.602C215.15 239.472 212.985 241.613 212.985 244.273C212.985 245.243 213.274 246.143 213.768 246.888C214.201 247.544 214.216 248.389 213.78 249.043C213.734 249.11 213.692 249.179 213.649 249.249C212.965 250.397 213.794 251.87 215.106 251.84L219.984 251.726C221.274 251.695 222.06 250.217 221.35 249.112C221.342 249.1 221.335 249.088 221.327 249.077Z" fill="#EEC718"/>
<path d="M221.327 249.077C220.894 248.417 220.892 247.536 221.324 246.877C221.849 246.078 222.139 245.106 222.095 244.061C221.991 241.678 220.091 239.718 217.769 239.602C215.15 239.472 212.985 241.613 212.985 244.273C212.985 245.243 213.274 246.143 213.768 246.888C214.201 247.544 214.216 248.389 213.78 249.043C213.734 249.11 213.692 249.179 213.649 249.249C212.965 250.397 213.794 251.87 215.106 251.84L219.984 251.726C221.274 251.695 222.06 250.217 221.35 249.112C221.342 249.1 221.335 249.088 221.327 249.077Z" stroke="#502A73" stroke-width="0.369333" stroke-miterlimit="10" stroke-linecap="round" stroke-linejoin="round"/>
<path d="M233.302 225.848C233.302 228.431 231.262 230.525 228.745 230.525C226.228 230.525 224.188 228.431 224.188 225.848C224.188 223.265 226.228 221.171 228.745 221.171C231.262 221.171 233.302 223.265 233.302 225.848Z" fill="#EEC718"/>
<path d="M233.302 225.848C233.302 228.431 231.262 230.525 228.745 230.525C226.228 230.525 224.188 228.431 224.188 225.848C224.188 223.265 226.228 221.171 228.745 221.171C231.262 221.171 233.302 223.265 233.302 225.848Z" stroke="#502A73" stroke-width="0.369333" stroke-miterlimit="10" stroke-linecap="round" stroke-linejoin="round"/>
<path d="M230.827 233.126C230.827 235.709 228.786 237.803 226.27 237.803C223.753 237.803 221.713 235.709 221.713 233.126C221.713 230.543 223.753 228.449 226.27 228.449C228.786 228.449 230.827 230.543 230.827 233.126Z" fill="#EEC718"/>
<path d="M230.827 233.126C230.827 235.709 228.786 237.803 226.27 237.803C223.753 237.803 221.713 235.709 221.713 233.126C221.713 230.543 223.753 228.449 226.27 228.449C228.786 228.449 230.827 230.543 230.827 233.126Z" stroke="#502A73" stroke-width="0.369333" stroke-miterlimit="10" stroke-linecap="round" stroke-linejoin="round"/>
<path d="M227.494 238.984C227.494 241.567 225.454 243.662 222.937 243.662C220.42 243.662 218.38 241.567 218.38 238.984C218.38 236.401 220.42 234.307 222.937 234.307C225.454 234.307 227.494 236.401 227.494 238.984Z" fill="#EEC718"/>
<path d="M227.494 238.984C227.494 241.567 225.454 243.662 222.937 243.662C220.42 243.662 218.38 241.567 218.38 238.984C218.38 236.401 220.42 234.307 222.937 234.307C225.454 234.307 227.494 236.401 227.494 238.984Z" stroke="#502A73" stroke-width="0.369333" stroke-miterlimit="10" stroke-linecap="round" stroke-linejoin="round"/>
</svg>
