<svg width="27" height="27" viewBox="0 0 27 27" fill="none" xmlns="http://www.w3.org/2000/svg">
<path d="M19.9887 4.66499C19.1447 4.66499 18.458 5.35166 18.458 6.19566C18.458 7.03966 19.1447 7.72766 19.9887 7.72766C20.8327 7.72766 21.5193 7.03966 21.5193 6.19566C21.5193 5.35166 20.8327 4.66499 19.9887 4.66499Z" fill="#9B945F"/>
<path d="M13.176 17.19C10.9053 17.19 9.0533 15.338 9.0533 13.0673C9.0533 10.7966 10.9053 8.94465 13.176 8.94465C15.4466 8.94465 17.2986 10.7966 17.2986 13.0673C17.2986 15.338 15.4466 17.19 13.176 17.19ZM13.176 6.62865C9.62797 6.62865 6.7373 9.51932 6.7373 13.0673C6.7373 16.6153 9.62797 19.506 13.176 19.506C16.724 19.506 19.6146 16.6153 19.6146 13.0673C19.6146 9.51932 16.724 6.62865 13.176 6.62865Z" fill="#9B945F"/>
<path d="M7.85067 2.45731C4.87733 2.45731 2.45867 4.87731 2.45867 7.85064V18.284C2.45867 21.2573 4.87733 23.6773 7.85067 23.6773H18.2853C21.2573 23.6773 23.6773 21.2573 23.6773 18.284V7.85064C23.6773 4.87731 21.2573 2.45731 18.2853 2.45731H7.85067ZM18.2853 26.1346H7.85067C3.51867 26.1346 0 22.616 0 18.284V7.85064C0 3.51731 3.51867 -2.28882e-05 7.85067 -2.28882e-05H18.2853C22.6173 -2.28882e-05 26.1347 3.51731 26.1347 7.85064V18.284C26.1347 22.616 22.6173 26.1346 18.2853 26.1346Z" fill="#9B945F"/>
</svg>
