<svg width="346" height="352" viewBox="0 0 346 352" fill="none" xmlns="http://www.w3.org/2000/svg">
<path d="M160.499 189.362C160.369 190.783 159.757 192.534 158.661 194.608L158.36 188.559L158.42 183.705L160.499 189.362ZM152.807 173.376L158.42 183.705L158.088 170.985L155.277 174.767L152.807 173.376ZM159.695 203.35C158.618 205.831 158.12 207.879 158.199 209.489L158.336 218.277L154.044 222.437C154.21 221.822 154.856 220.68 155.973 219.004C157.09 217.331 157.637 216.294 157.617 215.889L157.603 215.585L157.826 214.058L158.139 208.281L158.199 203.425C158.099 201.413 157.591 199.316 156.686 197.134C157.124 197.923 157.723 198.953 158.49 200.227C159.251 201.506 159.655 202.546 159.695 203.35ZM168.13 282.671C168.211 284.287 168.255 286.205 168.267 288.426C168.275 290.652 168.056 293.242 167.602 296.193C167.15 299.147 166.199 302.177 164.755 305.282C160.947 313.16 158.882 317.912 158.564 319.545L156.877 333.882C162.038 325.13 165.383 317.939 166.903 312.299C168.422 306.664 168.947 299.108 168.476 289.628C168.186 283.783 167.611 278.254 166.753 273.038C165.176 265.437 164.101 259.935 163.534 256.524C165.037 258.674 166.096 260.842 166.707 263.033C167.313 265.231 167.71 268.138 167.89 271.768C167.98 273.581 168.018 275.399 168.011 277.219C167.998 279.039 168.04 280.857 168.13 282.671ZM171.504 320.405C169.719 324.74 168.291 328.201 167.22 330.78C166.149 333.364 164.688 336.214 162.846 339.341L156.863 339.644C157.829 338.99 159.304 337.45 161.282 335.023C163.262 332.602 164.515 330.666 165.044 329.222C165.573 327.784 166.862 323.572 168.915 316.594C170.44 311.058 171.809 306.441 173.026 302.739L171.504 320.405ZM156.142 246.59L157.205 249.869L159.675 257.326L159.029 244.321L148.676 235.142L156.142 246.59ZM149.437 147.774L143.963 152.296C145.657 154.234 148 157.146 150.996 161.036C153.987 164.931 156.349 168.245 158.088 170.985C156.199 165.222 154.909 161.345 154.212 159.357C151.955 154.217 150.363 150.355 149.437 147.774ZM154.349 331.282L153.527 338.903L141.037 341.053C142.802 340.358 145.131 338.923 148.023 336.757C149.557 335.467 151.664 333.644 154.349 331.282ZM113.919 350.617L141.127 342.869C139.538 343.148 137.052 343.378 133.663 343.55C130.27 343.723 127.778 343.849 126.183 343.93L121.697 344.157L113.919 350.617ZM75.8785 267.037L77.808 263.603C78.2354 264.188 84.2896 264.288 95.9677 263.895C107.645 263.506 113.7 263.704 114.142 264.489L75.8785 267.037ZM107.834 209.923L103.408 217.426C97.2835 218.951 91.1546 220.374 85.0249 221.695L67.9717 222.56L64.2166 219.415L74.0891 218.913C76.081 218.813 78.4255 218.646 81.112 218.406C83.7999 218.17 86.8213 217.662 90.1845 216.883L103.63 209.833L107.922 199.609L107.834 209.923ZM61.2492 189.848L60.6224 195.339C69.7542 194.07 76.4159 193.277 80.5984 192.96C84.7816 192.647 88.0709 192.429 90.464 192.308L107.099 195.103L103.178 188.631C102.197 189.088 101.114 189.342 99.9176 189.403C98.7203 189.464 97.8233 189.509 97.225 189.539L84.3158 189.285L76.8517 189.967L61.2492 189.848ZM113.25 294.857C107.745 296.757 102.572 298.279 97.7317 299.434C92.887 300.59 88.0763 301.289 83.2894 301.532C80.6954 301.663 78.3501 301.734 76.2512 301.737C74.1522 301.744 69.7919 301.511 63.1702 301.036C70.4864 299.453 78.7204 298.124 87.8661 297.054C97.0079 295.985 105.472 295.252 113.25 294.857ZM67.1425 266.266L71.3157 265.752L76.9118 269.712L65.5279 269.987L60.4854 265.089C60.095 257.225 60.0118 249.497 60.2343 241.904C60.4576 234.311 61.2784 228.765 62.7075 225.253C62.9431 226.05 63.3797 232.752 64.0049 245.352C64.6308 257.955 65.6749 264.93 67.1425 266.266ZM100.395 344.026L97.7478 345.069L92.6922 345.932C84.7524 347.14 77.8088 348.204 71.8554 349.112C65.9021 350.022 60.9288 350.577 56.942 350.779C66.9523 351.077 73.7064 351.189 77.2036 351.116C80.6954 351.037 84.4374 350.901 88.4297 350.698C91.6382 350.938 94.9482 351.172 98.3623 351.406C99.5588 351.345 101.714 350.479 104.832 348.804C107.944 347.129 110.575 345.732 112.721 344.612L100.395 344.026ZM43.6578 349.028L43.8079 345.987L87.2617 345.299C80.6808 345.633 72.1665 346.316 61.7211 347.353C51.2742 348.385 45.2524 348.947 43.6578 349.028ZM108.614 141.05C100.036 141.486 93.001 141.743 87.5081 141.818C82.0097 141.898 76.9657 141.95 72.369 141.981C68.7794 142.163 65.6387 142.322 62.9462 142.459C60.2528 142.596 56.4315 143.196 51.4875 144.252C46.2333 147.15 42.2379 149.271 39.5069 150.622C30.7423 155.312 26.0656 157.777 25.4781 158.006C30.2103 152.713 35.0911 148.32 40.119 144.829C45.913 140.699 51.9972 138.467 58.3826 138.142C71.9432 137.454 84.3273 137.232 95.5396 137.469C106.747 137.711 121.182 138.493 138.845 139.819C139.841 139.768 140.719 140.383 141.486 141.656C142.247 142.935 142.902 145.072 143.454 148.078C140.161 146.226 137.29 144.75 134.837 143.661C130.117 141.276 127.06 140.114 125.667 140.185L108.614 141.05ZM51.6269 289.189C54.1824 289.06 56.3391 290.984 56.6471 293.553C57.0652 297.039 57.7466 299.659 58.6906 301.415C60.0118 303.879 61.9683 305.039 64.5623 304.907C67.3527 304.766 70.2485 304.673 73.2452 304.618C76.2419 304.572 79.3349 304.463 82.5279 304.301C98.8782 303.471 109.85 300.943 115.442 296.717C121.029 292.492 123.64 286.649 123.27 279.186C122.809 269.915 120.459 263.918 116.228 261.198C111.993 258.485 105.788 257.332 97.6115 257.747C95.8168 257.838 92.9794 258.085 89.0996 258.482C85.2205 258.882 82.2815 259.131 80.2904 259.232C77.4947 259.374 75.3095 259.636 73.7311 260.019L73.6833 260.031C71.2094 260.639 68.7871 258.858 68.5992 256.291L66.5688 228.59C66.4025 226.315 68.1511 224.373 70.4079 224.343C72.9588 224.309 75.9763 224.329 79.4604 224.403C85.0619 224.525 89.0642 224.521 91.4572 224.4C98.4362 224.046 103.457 222.479 106.52 219.693C110.337 216.066 112.038 210.015 111.617 201.544C111.357 196.304 110.25 192.115 108.294 188.978C106.339 185.846 102.968 184.397 98.1813 184.639L66.17 186.264C61.9822 186.477 59.3566 187.973 58.2956 190.757C57.2338 193.54 56.818 197.251 57.0482 201.888C57.173 204.399 55.2711 206.542 52.788 206.688L24.7505 208.342C22.2388 208.49 20.0891 206.541 19.9628 204L19.1859 188.343C18.5653 175.843 21.9763 166.02 29.4195 158.866C36.862 151.718 46.964 147.818 59.7308 147.17C63.7177 146.968 67.7053 146.765 71.6976 146.563C75.6845 146.36 79.7699 146.054 83.9485 145.638C111.87 144.221 130.652 148.019 140.3 157.031C148.896 165.084 153.627 177.784 154.487 195.124C155.018 205.814 154.5 213.522 152.936 218.249C150.661 224.835 145.646 230.548 137.891 235.386C146.745 236.557 152.936 242.407 156.458 252.941C158.79 259.697 160.255 269.023 160.846 280.919C161.807 300.278 160.285 313.999 156.292 322.085C150.658 333.492 139.064 339.637 121.517 340.527L65.2268 342.475C65.0366 342.684 64.3945 342.868 63.305 343.027C62.2116 343.182 61.0736 343.391 59.8871 343.655C49.3139 344.191 40.6395 341.652 33.8653 336.031C27.0865 330.413 23.4284 322.157 22.8879 311.267L22.3382 295.568C22.2435 292.86 24.317 290.576 26.9941 290.44L51.6269 289.189ZM22.3605 288.552L36.1229 287.854C39.3097 287.692 42.4397 287.282 45.5087 286.62C48.574 285.963 52.2706 284.912 56.6001 283.48L49.2847 281.121C45.2932 281.324 40.072 281.892 33.6236 282.827C27.1705 283.76 22.0725 284.83 18.3367 286.028L22.3605 288.552ZM20.8437 336.54L26.3351 344.448L36.2076 343.948C35.9773 343.354 33.8291 341.34 29.7599 337.908C25.6898 334.475 23.4153 331.965 22.9372 330.369C21.6367 324.371 20.6327 318.206 19.9189 311.874C19.2021 305.543 18.6831 299.049 18.3528 292.395L19.2853 317.211L20.8437 336.54ZM16.391 204.556L16.7367 211.514C20.9245 211.302 25.1193 211.193 29.3171 211.179C33.515 211.169 37.7136 211.161 41.9115 211.146C48.2729 210.42 54.7306 209.587 61.283 208.648L60.9073 201.086L64.6786 210.598C59.5799 212.676 54.4488 213.997 49.28 214.563C44.1059 215.128 36.9336 215.643 27.7618 216.109L13.9548 215.901C13.6145 213.09 13.3172 210.123 13.0639 207.001C12.8052 203.881 12.6366 201.413 12.5465 199.597L12.0807 190.221C11.9305 187.197 11.9837 184.312 12.2508 181.571C12.5126 178.829 12.8761 176.034 13.3342 173.177L21.5289 163.057C18.9842 168.243 17.3911 174.388 16.7459 181.494C16.0961 188.606 15.9806 196.291 16.391 204.556Z" fill="white"/>
<path d="M345.218 243.06L345.759 253.948C346.119 261.208 346.074 267.378 345.628 272.451C345.178 277.53 343.875 282.447 341.711 287.207L338.253 187.315C338.563 193.567 340.036 205.116 342.671 221.962C344.137 231.392 344.988 238.424 345.218 243.06ZM314.685 147.576C316.706 148.079 318.783 148.579 320.908 149.08C323.032 149.577 324.409 150.114 325.036 150.69C326.922 152.412 329.63 158.643 333.162 169.38C335.037 174.946 337.188 182.016 339.614 190.583C333.845 179.152 330.08 171.763 328.316 168.412C324.356 161.137 319.812 154.19 314.685 147.576ZM314.719 329.512L329.331 315.73L342.791 296.854C342.831 297.662 340.446 302.029 335.642 309.953C332.312 315.382 329.346 320.08 326.745 324.049L314.719 329.512ZM324.679 312.632C326.192 310.939 328.885 306.761 332.754 300.094C334.967 296.342 336.534 293.737 337.464 292.273C336.417 295.357 335.543 297.933 334.848 299.987C334.149 302.045 333.155 304.219 331.872 306.506L322.555 318.197L314.045 321.965L309.647 324.008L324.679 312.632ZM296.369 267.978C296.179 264.148 295.668 258.969 294.847 252.438C294.022 245.913 293.576 241.941 293.506 240.528C292.815 226.614 291.948 217.259 290.913 212.46C289.214 206.481 287.738 200.899 286.482 195.704C285.492 195.958 283.923 194.574 281.777 191.546C279.626 188.523 278.218 186.32 277.549 184.937L283.653 187.053C288.142 192.89 291.394 197.984 293.409 202.326C295.425 206.674 296.587 211.972 296.898 218.22C297.088 222.053 297.607 228.548 298.464 237.699C299.317 246.858 299.766 251.838 299.806 252.64C300.106 258.69 299.869 264.009 299.098 268.596C298.324 273.185 296.53 277.271 293.708 280.848L296.369 267.978ZM305.699 329.059L301.796 335.019L278.7 334.979C277.242 333.839 275.176 332.527 272.507 331.048L305.699 329.059ZM310.391 145.671C302.739 144.647 294.315 143.051 285.11 140.89C275.902 138.732 268.334 136.282 262.402 133.55C264.866 134.842 270.001 135.592 277.81 135.801C285.618 136.011 290.75 136.661 293.203 137.749L310.391 145.671ZM244.153 134.476C245.158 134.63 247.523 134.964 251.25 135.481C254.974 136.003 257.137 136.245 257.736 136.214C258.731 136.164 259.221 135.94 259.201 135.532C262.082 137.205 263.849 138.533 264.497 139.508L244.153 134.476ZM270.329 287.19C267.136 287.352 264.64 287.379 262.834 287.267C256.791 286.36 252.465 285.874 249.865 285.803L255.025 280.991C256.031 281.145 257.743 281.362 260.157 281.642C262.57 281.925 264.271 282.039 265.272 281.987L272.751 281.608L291.688 276.402L287.59 284.494C284.02 285.082 280.348 285.671 276.581 286.265C272.811 286.864 270.727 287.17 270.329 287.19ZM272.703 183.971C268.545 184.788 264.296 185.867 259.966 187.195C255.632 188.528 252.909 190.03 251.792 191.703L245.18 191.433C248.631 188.427 251.086 186.537 252.547 185.751C254.007 184.971 256.631 184.484 260.422 184.291L272.703 183.971ZM243.14 234.897C243.29 237.923 243.804 242.245 244.683 247.858C245.562 253.476 246.071 257.695 246.211 260.516C245.03 256.937 243.898 253.204 242.805 249.317C241.713 245.43 241.097 242.08 240.957 239.252L239.392 195.668L245.436 196.574C244.756 203.081 244.139 209.731 243.577 216.529C243.015 223.334 242.869 229.452 243.14 234.897ZM246.513 278.695C244.438 277.184 242.929 273.978 241.986 269.069C241.041 264.166 240.462 259.495 240.241 255.057L240.643 245.03L246.513 278.695ZM272.035 291.348C284.601 290.711 292.948 287.71 297.082 282.345C301.21 276.98 302.96 267.846 302.319 254.941C302.099 250.507 301.943 244.345 301.853 236.466C301.761 228.588 301.71 224.549 301.7 224.344C300.759 205.393 296.926 192.649 290.205 186.114C284.736 180.736 276.621 178.314 265.851 178.861C250.691 179.63 241.208 185.976 237.403 197.891C235.149 204.88 234.49 217.748 235.421 236.502L236.007 248.299C236.947 267.254 240.555 279.503 246.828 285.046C252.263 289.826 260.667 291.925 272.035 291.348ZM225.246 146.353C223.1 147.476 219.041 150.307 213.072 154.854C210.191 157.227 206.245 160.355 201.243 164.248C206.614 159.73 211.254 155.504 215.158 151.564C219.06 147.627 223.385 143.111 228.133 138.019L250.437 140.222C248.461 140.73 244.062 141.711 237.236 143.167C230.41 144.626 226.414 145.687 225.246 146.353ZM271.132 339.608L247.646 337.766C241.141 335.671 232.044 331.584 220.345 325.506C215.006 322.746 209.671 319.983 204.337 317.223L204.588 298.107C205.317 300.698 206.035 303.087 206.743 305.274C207.452 307.466 208.587 310.237 210.156 313.591L247.751 333.819L268.961 332.137L271.132 339.608ZM337.824 214.932L339.656 251.832C340.787 274.622 337.356 292.179 329.374 304.51C320.089 318.93 304.681 326.685 283.141 327.778L266.986 328.598C246.241 329.651 230.712 324.98 220.402 314.588C208.202 302.472 201.159 277.357 199.267 239.245C198.086 215.456 198.167 198.972 199.512 189.808C201.763 174.734 207.303 163.537 216.139 156.215C226.318 147.815 242.077 143.073 263.42 141.99C289.547 140.664 308.307 145.98 319.698 157.934C330.451 169.115 336.492 188.116 337.824 214.932ZM187.743 206.476C186.941 190.346 187.269 179.868 188.731 175.041C190.189 170.22 195.226 161.928 203.842 150.167C200.749 156.389 198.399 161.361 196.785 165.08C193.545 172.323 192.015 177.756 192.196 181.384C192.786 193.286 194.368 211.094 196.948 234.815C199.522 258.54 201.109 276.351 201.699 288.247C201.859 291.474 201.738 295.067 201.335 299.029C200.932 302.992 200.521 306.804 200.103 310.464C193.584 275.822 189.464 241.16 187.743 206.476Z" fill="white"/>
<path d="M208.933 80.1867C207.604 78.6415 206.705 76.8518 206.055 74.9283C205.602 73.587 205.288 72.2099 205.063 70.8087C204.86 69.5507 204.728 68.2849 204.675 67.0152C204.563 64.3405 204.756 61.6914 205.499 59.1046C205.891 57.7384 206.424 56.4344 207.168 55.2224C208.748 52.6457 210.985 50.9852 213.918 50.3251C215.126 50.0527 216.354 49.9561 217.599 50.0425C218.526 50.1079 219.44 50.2193 220.336 50.4676C223.106 51.2336 225.187 52.9158 226.687 55.3664C227.581 56.8291 228.177 58.4164 228.602 60.0745C229.098 62.0105 229.328 63.9863 229.455 66.0001C229.532 68.5496 229.48 71.113 228.978 73.6477C228.712 74.9929 228.323 76.2999 227.738 77.5423C226.232 80.7426 223.781 82.7455 220.352 83.524C218.57 83.9288 216.782 84.0456 214.981 83.7147C212.552 83.2687 210.547 82.0636 208.933 80.1867ZM224.56 94.9969C233.025 92.3828 239.739 85.8547 242.685 77.4006C243.815 74.1545 244.374 70.8063 244.414 67.3772C244.443 64.9243 244.236 62.4885 243.683 60.0854C242.865 56.5395 241.488 53.2436 239.463 50.234C236.339 45.5905 232.205 42.2253 226.988 40.2488C223.863 39.0639 220.619 38.5338 217.294 38.5206C214.458 38.5089 211.656 38.8343 208.914 39.612C201.971 41.5807 196.748 45.7532 193.297 52.1475C190.785 56.8042 189.693 61.8222 189.844 67.1141C189.904 69.2019 190.043 71.2882 190.143 73.3752C190.194 74.4363 190.126 75.4895 189.873 76.521C189.228 79.1498 187.666 80.9325 185.085 81.76C184.285 82.0161 183.459 82.0862 182.627 82.1282C175.817 82.4715 169.008 82.8187 162.198 83.1636C161.914 83.1784 161.628 83.1854 161.344 83.1978C160.222 83.2461 159.111 83.1379 158.02 82.8895C154.287 82.0402 151.619 79.8699 150.115 76.289C149.459 74.7266 149.126 73.0849 149.041 71.3941C148.684 64.3179 148.336 57.2409 147.984 50.1648C147.971 49.9009 147.967 49.6362 147.941 49.3731C147.81 47.9905 147.071 47.0751 145.808 46.5784C145.336 46.3931 144.841 46.3643 144.336 46.3916C141.869 46.5231 139.401 46.6454 136.934 46.7699C136.838 46.7754 136.744 46.7785 136.649 46.7863C135.148 46.9046 133.968 47.9508 133.687 49.4493C133.622 49.7973 133.631 50.1663 133.648 50.5229C133.88 55.3205 134.12 60.1181 134.358 64.9157C134.575 69.2813 134.783 73.6477 135.013 78.0133C135.087 79.4309 135.078 80.8445 134.93 82.2559C134.771 83.7676 134.449 85.2405 133.831 86.6331C132.751 89.0674 130.972 90.7271 128.438 91.5187C127.873 91.6955 127.294 91.8473 126.711 91.9391C125.511 92.1275 124.304 92.1976 123.096 91.9625C121.098 91.574 119.401 90.6227 117.967 89.1787C116.594 87.7969 115.653 86.1435 115.008 84.311C114.391 82.5579 114.068 80.7472 113.977 78.8875C113.6 71.1387 113.211 63.3907 112.826 55.6428C112.813 55.3789 112.812 55.1134 112.782 54.8518C112.553 52.8621 111.013 51.7528 109.405 51.8275C109.263 51.8338 109.12 51.8384 108.978 51.8462C106.605 51.9661 104.233 52.0852 101.86 52.2082C101.599 52.2222 101.339 52.2471 101.08 52.2814C99.8608 52.4433 98.6566 53.495 98.4618 54.9554C98.4079 55.3563 98.4017 55.7696 98.4218 56.1744C98.8114 64.1381 99.2056 72.1025 99.606 80.0661C99.6776 81.4844 99.6737 82.8973 99.4997 84.3079C99.3365 85.6227 99.0547 86.9072 98.5542 88.1371C97.4855 90.7613 95.6275 92.5237 92.9381 93.3652C91.8663 93.7008 90.7637 93.8541 89.6426 93.8969C87.6538 93.9732 85.8397 93.4462 84.1897 92.3291C82.592 91.2486 81.4117 89.7921 80.5201 88.0912C79.3212 85.8072 78.7029 83.3527 78.5713 80.7807C78.1701 72.986 77.7921 65.189 77.4048 57.3927C77.3917 57.1288 77.384 56.8649 77.3616 56.6018C77.2431 55.2372 76.3176 54.1108 75.014 53.7355C74.5721 53.6087 74.1224 53.6149 73.6712 53.6375C71.2743 53.7589 68.8782 53.8788 66.482 54.0033C66.1979 54.0181 65.9138 54.0485 65.6328 54.0921C64.1359 54.3272 63.0002 55.7938 63.0418 57.2565C63.0503 57.5687 63.0642 57.8808 63.0803 58.193C63.4869 66.3722 63.8919 74.5523 64.3023 82.7323C64.3692 84.0767 64.3469 85.4188 64.2568 86.7616C64.0944 89.1717 63.6247 91.5172 62.8247 93.7895C61.1038 98.6806 58.2126 102.698 53.9824 105.681C50.2003 108.348 45.9794 109.703 41.3842 109.911C40.1454 109.967 38.9157 109.899 37.6922 109.718C34.7887 109.286 32.0846 108.279 29.5714 106.762C24.669 103.801 21.0748 99.656 18.758 94.3881C17.5207 91.5748 16.8431 88.619 16.7176 85.5363C16.6529 83.9514 16.6699 82.3695 16.7353 80.7854C16.8054 79.1047 16.9509 77.4326 17.2135 75.7729C17.4006 74.5896 17.6269 73.4118 17.8394 72.2325C18.0712 70.9464 17.7501 69.8519 16.7392 69.0042C16.0893 68.4601 15.3309 68.2219 14.4901 68.2639C11.856 68.3954 9.22274 68.5293 6.58946 68.6679C6.37772 68.6788 6.16137 68.7061 5.9581 68.7629C4.64531 69.1311 3.84145 70.0022 3.54963 71.3388C3.03068 73.7108 2.71576 76.1131 2.62721 78.5387C2.56639 80.193 2.56255 81.8526 2.60181 83.5076C2.64724 85.4273 2.71886 87.3462 2.95139 89.2581C3.11385 90.5932 3.31403 91.9189 3.57736 93.2376C4.27726 96.7375 5.40063 100.093 6.98522 103.284C10.8528 111.066 16.5705 117.002 24.3233 120.864C29.258 123.323 34.5038 124.531 39.9967 124.578C43.1374 124.606 46.2535 124.276 49.3295 123.589C51.9104 123.012 54.4197 122.22 56.8359 121.139C63.4884 118.162 68.8212 113.617 72.738 107.401C73.8506 105.635 74.7992 103.78 75.583 101.843C76.5031 99.568 78.8839 98.4883 80.962 98.8752C81.7951 99.0301 82.5451 99.371 83.2142 99.8957C86.0561 102.124 89.3346 103.104 92.8734 103.317C93.8674 103.377 94.8661 103.375 95.8632 103.399C96.9604 103.426 98.0491 103.315 99.1224 103.108C100.571 102.827 101.973 102.378 103.328 101.783C106.215 100.517 108.816 98.8362 110.933 96.4479C111.028 96.3405 111.129 96.2378 111.235 96.1412C112.427 95.0646 113.813 94.6629 115.389 94.9362C116.328 95.0989 117.137 95.5262 117.851 96.1545C118.46 96.6908 119.06 97.2396 119.693 97.7464C122.675 100.133 126.089 101.372 129.874 101.553C131.344 101.623 132.814 101.608 134.283 101.401C135.557 101.221 136.812 100.986 138.036 100.588C140.817 99.6824 143.175 98.1395 145.013 95.8197C145.132 95.6695 145.251 95.5185 145.385 95.383C146.453 94.3041 147.734 93.8043 149.25 93.9141C150.15 93.9795 150.953 94.2986 151.714 94.7711C153.448 95.8501 155.316 96.5935 157.303 97.0435C159.379 97.5144 161.48 97.6647 163.6 97.5588C170.505 97.2132 177.409 96.8582 184.313 96.5102C185.359 96.4573 186.391 96.3094 187.415 96.0883C190.4 95.4437 193.058 94.1328 195.384 92.1329C195.583 91.9617 195.778 91.7826 195.993 91.6355C197.037 90.9263 198.173 90.6118 199.439 90.7987C200.256 90.9193 200.991 91.2222 201.677 91.6729C203.035 92.5642 204.456 93.3333 205.944 93.9779C209.331 95.4461 212.881 96.1116 216.551 96.1436C219.274 96.1677 221.95 95.8034 224.56 94.9969Z" fill="white"/>
<path d="M320.179 43.8129C319.948 46.2463 319.739 48.6813 319.519 51.1156C319.429 52.1182 319.352 53.1217 319.238 54.1212C319.01 56.1374 317.311 58.184 314.702 58.3521C312.452 58.4977 310.2 58.6191 307.947 58.6939C305.224 58.7834 302.996 56.6691 302.882 53.8448C302.864 53.4167 302.922 52.9839 302.961 52.5542C303.131 50.6929 303.309 48.8324 303.479 46.9711C303.584 45.8252 303.69 44.6801 303.776 43.5334C303.946 41.2603 305.45 39.4582 307.643 38.9389C307.919 38.8743 308.206 38.8533 308.49 38.837C309.58 38.7755 310.67 38.7241 311.76 38.6688C311.76 38.6704 311.76 38.6719 311.76 38.6727C312.898 38.6151 314.036 38.5458 315.174 38.5022C317.524 38.4127 319.385 40.0942 319.924 41.8325C320.125 42.4778 320.245 43.1263 320.179 43.8129ZM333.377 57.4203C332.617 57.4366 331.859 57.4904 331.1 57.5269C330.123 57.5744 329.201 57.3557 328.379 56.8318C326.664 55.7396 325.838 54.1663 325.993 52.1011C326.061 51.1926 326.137 50.2842 326.218 49.3757C326.427 47.0341 326.64 44.6933 326.851 42.3525C326.99 40.8135 327.62 39.5454 328.864 38.6182C329.628 38.0492 330.484 37.7222 331.436 37.6716C332.764 37.6 334.093 37.5284 335.422 37.4677C335.805 37.4505 336.178 37.3937 336.538 37.2653C338.008 36.7421 338.951 35.0817 338.63 33.5878C338.27 31.9149 336.926 30.8586 335.229 30.9216C334.611 30.945 333.996 30.9862 333.378 31.0111C333.142 31.0205 332.901 31.0267 332.667 31.0002C330.011 30.6974 328.096 28.3947 328.274 25.7931C328.385 24.1654 328.54 22.5415 328.685 20.9169C328.819 19.4121 328.968 17.9081 329.106 16.4034C329.254 14.8036 329.407 13.2031 329.538 11.6019C329.597 10.8865 329.704 10.1734 329.65 9.44786C329.52 7.68855 327.693 5.9596 325.43 6.69602C324.048 7.14519 323.316 8.18598 323.159 9.6308C323.065 10.4894 323.014 11.352 322.936 12.2122C322.796 13.7411 322.648 15.2684 322.511 16.7981C322.373 18.327 322.247 19.8566 322.111 21.3863C321.938 23.3215 321.744 25.2544 321.588 27.1912C321.359 30.0233 319.096 31.7779 316.9 31.8526C315.808 31.89 314.717 31.9601 313.626 32.0153C312.534 32.0714 311.443 32.1407 310.351 32.1749C309.928 32.1882 309.492 32.1687 309.079 32.0815C306.48 31.5366 305.027 29.1133 305.19 26.9406C305.315 25.2902 305.469 23.6423 305.617 21.9935C305.754 20.4646 305.901 18.9365 306.041 17.4076C306.187 15.8312 306.338 14.2548 306.47 12.6777C306.526 12.0098 306.599 11.3348 306.567 10.6685C306.478 8.81654 304.573 7.13118 302.332 7.87305C300.975 8.323 300.261 9.34744 300.109 10.7635C299.989 11.8844 299.911 13.0101 299.811 14.1326C299.677 15.614 299.54 17.0954 299.403 18.5761C299.264 20.0808 299.12 21.5856 298.984 23.0903C298.847 24.5951 298.723 26.1014 298.58 27.6062C298.528 28.1542 298.489 28.7116 298.362 29.244C297.783 31.6534 295.719 32.9487 293.87 33.0227C292.114 33.0919 290.358 33.1963 288.603 33.2866C288.39 33.2975 288.173 33.2943 287.964 33.3302C286.601 33.5637 285.663 34.3242 285.253 35.6702C284.863 36.9476 285.32 38.3232 286.369 39.1491C287.012 39.6559 287.75 39.8816 288.564 39.8419C289.679 39.7882 290.794 39.7361 291.909 39.673C292.387 39.645 292.86 39.6777 293.324 39.789C295.499 40.3121 297.265 42.3431 297.096 44.8755C297.01 46.1685 296.9 47.4592 296.79 48.7498C296.618 50.7816 296.429 52.8118 296.263 54.8436C296.078 57.1042 294.623 58.8534 292.435 59.3991C292.116 59.4785 291.781 59.5175 291.451 59.5361C289.743 59.6319 288.034 59.6911 286.328 59.8102C285.063 59.8981 284.131 60.5583 283.612 61.7291C283.08 62.9279 283.236 64.08 284.036 65.1138C284.692 65.9608 285.579 66.378 286.644 66.3508C287.617 66.3258 288.589 66.2589 289.562 66.2091C290.512 66.16 291.41 66.3702 292.228 66.8466C293.922 67.8345 294.743 69.3369 294.695 71.3119C294.68 71.9346 294.616 72.5566 294.562 73.1778C294.425 74.7308 294.278 76.2831 294.143 77.8369C294.007 79.3899 293.885 80.9445 293.748 82.4975C293.613 84.0272 293.465 85.5553 293.331 87.0842C293.31 87.3224 293.318 87.5645 293.334 87.8043C293.445 89.5021 294.881 90.834 296.569 90.8091C298.284 90.7842 299.647 89.4811 299.813 87.6906C300.004 85.637 300.184 83.5819 300.363 81.5268C300.528 79.6382 300.682 77.7497 300.849 75.8619C301.02 73.9267 301.233 71.9946 301.371 70.057C301.554 67.4422 303.643 65.4742 306.11 65.3668C308.269 65.2726 310.427 65.141 312.587 65.0484C313.032 65.0289 313.496 65.0538 313.929 65.1535C316.755 65.8012 317.912 68.1903 317.766 70.236C317.648 71.9113 317.488 73.5834 317.341 75.2555C317.209 76.7611 317.067 78.2658 316.93 79.7706C316.782 81.3952 316.629 83.0191 316.492 84.6437C316.438 85.2883 316.381 85.9375 316.396 86.5829C316.431 88.2005 317.877 89.7294 319.801 89.629C321.423 89.5441 322.724 88.2558 322.883 86.5782C323.043 84.8827 323.192 83.1865 323.341 81.4894C323.506 79.6017 323.66 77.7131 323.825 75.8254C324.031 73.4838 324.238 71.1422 324.455 68.8013C324.6 67.2296 325.299 65.9678 326.59 65.0647C327.348 64.5338 328.197 64.2489 329.121 64.2022C330.639 64.1244 332.158 64.0605 333.676 63.9656C335.495 63.8511 337.26 61.9883 336.451 59.5595C336.011 58.2385 334.76 57.3907 333.377 57.4203Z" fill="white"/>
<path d="M271.849 15.2278C271.16 15.2582 270.473 15.2963 269.785 15.3313C267.863 15.4294 265.942 15.5369 264.019 15.6217C262.741 15.6778 261.273 16.71 261.044 18.3533C260.988 18.7527 260.985 19.166 261.005 19.5708C261.571 31.0616 262.143 42.5517 262.712 54.0417C263.285 65.5559 263.856 77.07 264.428 88.5842C264.439 88.8006 264.44 89.0178 264.465 89.2319C264.565 90.0975 264.902 90.8479 265.559 91.431C266.232 92.0296 267.02 92.3091 267.916 92.2647C269.767 92.1729 271.617 92.0787 273.468 91.9837C274.274 91.9432 275.083 91.9214 275.887 91.8537C277.398 91.7268 278.596 90.5692 278.793 89.0528C278.842 88.6745 278.847 88.286 278.828 87.9046C277.689 64.8763 276.546 41.8479 275.402 18.8196C275.395 18.6756 275.391 18.5316 275.379 18.3876C275.219 16.4142 273.799 15.143 271.849 15.2278Z" fill="white"/>
<path d="M157.338 80.9697C158.755 81.4236 160.211 81.5832 161.696 81.5069C166.772 81.2461 171.849 80.9915 176.925 80.7315C177.185 80.7183 177.45 80.7035 177.702 80.6451C179.095 80.3228 180.508 80.1516 181.93 80.0558C182.949 79.9881 183.964 79.9064 184.978 79.7624C185.781 79.6479 186.407 79.3023 186.941 78.7177C187.727 77.8598 188.148 76.8315 188.341 75.6973C188.507 74.7218 188.497 73.7379 188.447 72.7531C188.365 71.1223 188.278 69.4922 188.207 67.8605C188.157 66.71 188.124 65.5602 188.179 64.4057C188.271 62.4822 188.507 60.5827 188.932 58.7074C190.141 53.3758 192.633 48.7657 196.528 44.9482C196.716 44.7645 196.905 44.58 197.07 44.3768C197.949 43.301 198.891 42.2874 199.924 41.3611C199.982 41.3089 200.023 41.2365 200.071 41.1735C199.868 41.1719 199.723 41.2396 199.586 41.3198C193.051 45.1358 188.359 50.5539 185.724 57.7281C184.428 61.2545 183.849 64.9071 184.053 68.6771C184.095 69.468 184.391 70.1173 184.948 70.6505C185.223 70.9144 185.53 71.1441 185.817 71.3947C186.123 71.661 186.44 71.9163 186.721 72.2074C187.201 72.7064 187.469 73.3113 187.49 74.0166C187.498 74.2563 187.519 74.4969 187.506 74.7359C187.43 76.1768 186.783 77.2495 185.477 77.8754C184.852 78.1751 184.189 78.372 183.499 78.4382C182.554 78.5277 181.607 78.6063 180.659 78.6507C179.449 78.7075 178.237 78.7387 177.026 78.7558C176.03 78.7698 175.032 78.755 174.035 78.7418C173.418 78.7332 172.802 78.7029 172.184 78.6819C170.713 78.6336 169.243 78.5472 167.772 78.5449C165.587 78.5402 163.402 78.562 161.22 78.7075C159.819 78.8017 158.421 78.7792 157.023 78.6344C155.67 78.4943 154.355 78.2039 153.114 77.6193C153.009 77.5702 152.899 77.5305 152.792 77.4861C152.762 77.5157 152.733 77.5453 152.703 77.5749C152.782 77.6901 152.858 77.81 152.944 77.9213C154.089 79.4082 155.571 80.4038 157.338 80.9697Z" fill="white"/>
<path d="M88.2847 36.8878C91.0835 36.7531 93.8823 36.6091 96.6804 36.4619C97.5805 36.4145 98.3189 36.0174 98.9133 35.341C99.4769 34.6987 99.7341 33.9281 99.7025 33.0873C99.6294 31.1443 99.527 29.202 99.413 27.2606C99.3922 26.9079 99.3006 26.546 99.1751 26.2143C98.6846 24.912 97.448 24.0961 96.0529 24.1522C94.6762 24.2075 93.301 24.2892 91.9259 24.3585C90.5268 24.4301 89.1278 24.5056 87.728 24.5702C85.9571 24.6527 84.5942 26.2416 84.6882 27.9168C84.7998 29.9065 84.9007 31.8971 84.9846 33.8876C85.0539 35.5208 86.5346 36.9718 88.2847 36.8878Z" fill="white"/>
<path d="M119.679 22.9541C116.952 23.0763 114.226 23.2258 111.499 23.3651C109.764 23.4539 108.396 25.0014 108.482 26.7358C108.58 28.7014 108.675 30.667 108.779 32.6326C108.792 32.8701 108.828 33.1122 108.896 33.3387C109.34 34.8263 110.621 35.741 112.179 35.6749C113.507 35.6188 114.835 35.5425 116.163 35.4748C117.514 35.4071 118.866 35.3456 120.217 35.2677C121.918 35.1696 123.151 33.9918 123.341 32.2901C123.365 32.0768 123.357 31.8589 123.347 31.644C123.26 29.8458 123.17 28.0483 123.081 26.2501C123.075 26.1302 123.07 26.0095 123.056 25.8912C122.845 24.1327 121.422 22.8755 119.679 22.9541Z" fill="white"/>
<path d="M243.909 51.5213C241.097 47.0249 237.372 43.5048 232.762 40.9397C232.538 40.816 232.335 40.6525 232.123 40.5069L232.127 40.5108C232.133 40.6938 232.224 40.8214 232.368 40.9242C232.717 41.1741 233.067 41.4216 233.407 41.684C234.275 42.3534 235.18 42.9816 235.995 43.7126C241.612 48.7562 244.776 55.124 245.826 62.5956C246.106 64.5924 246.142 66.6109 246.044 68.6318C245.948 70.5787 245.709 72.5031 245.281 74.401C243.965 80.237 241.238 85.2877 236.987 89.4711C236.153 90.2908 235.266 91.056 234.382 91.8189C229.613 95.9346 224.089 98.1455 217.83 98.488C215.91 98.5931 214.038 98.3323 212.223 97.708C211.503 97.4604 210.778 97.2479 210.036 97.0805C209.389 96.935 208.753 96.7388 208.111 96.5652C207.957 96.5232 207.803 96.4835 207.649 96.443C207.676 96.4741 207.712 96.4827 207.742 96.5091C207.652 96.4873 207.558 96.4718 207.467 96.4539L207.817 96.5629C207.891 96.6181 207.96 96.6874 208.043 96.7232C208.632 96.977 209.218 97.2401 209.817 97.469C211.967 98.2918 214.193 98.7573 216.493 98.7573C218.632 98.7573 220.764 98.5713 222.882 98.2731C224.81 98.0014 226.722 97.641 228.607 97.1436C230.976 96.5177 233.285 95.719 235.485 94.6214C237.131 93.8017 238.678 92.8286 240.083 91.6282C241.538 90.3866 242.644 88.867 243.595 87.2183C245.089 84.6299 246.134 81.8562 246.889 78.9674C247.588 76.2942 248.019 73.5758 248.229 70.8169C248.348 69.2585 248.366 67.7 248.343 66.1415C248.316 64.2647 248.059 62.4073 247.643 60.5802C246.905 57.3504 245.662 54.3238 243.909 51.5213Z" fill="white"/>
<path d="M198.737 92.9354C198.329 93.2367 197.889 93.3823 197.409 93.1394C197.072 92.9697 196.819 93.0779 196.576 93.3114C196.473 93.4111 196.36 93.5006 196.252 93.594C194.845 94.796 193.293 95.7605 191.605 96.5016C189.635 97.3672 187.585 97.8763 185.463 98.0834C186.885 98.1931 188.306 98.3278 189.726 98.4656C191.335 98.6221 191.6 97.881 193.216 97.7401C193.908 97.6794 196.922 95.6764 196.779 95.3837C197.136 94.8216 198.833 95.1291 199.169 94.5803C199.516 94.0121 199.847 93.4337 200.192 92.8498C199.924 92.5914 199.629 92.5408 199.319 92.5081C199.121 92.6536 198.928 92.7938 198.737 92.9354Z" fill="white"/>
<path d="M183.188 98.2413C183.603 98.2211 184.018 98.1993 184.433 98.1791C184.781 98.1627 185.121 98.1168 185.464 98.0833C185.113 98.0568 184.762 98.0094 184.41 97.9891C183.874 97.9588 183.54 98.0958 183.188 98.2413Z" fill="white"/>
<path d="M172.03 99.0707C171.048 99.4973 170.033 99.832 169 100.113C167.55 100.508 166.068 100.699 164.583 100.877C161.592 101.236 158.773 100.664 156.094 99.3019C155.011 98.7507 153.975 98.1186 152.945 97.4733C152.118 96.9548 151.272 96.4667 150.425 95.9825C149.296 95.3395 147.501 95.4228 146.472 96.6956C146.402 96.782 146.355 96.8871 146.275 97.021C146.968 97.5418 147.629 98.04 148.305 98.5483C148.334 99.066 154.024 101.462 156.963 102.117C158.497 102.459 160.048 102.696 161.616 102.722C163.208 102.748 164.971 102.858 166.548 102.596C168.269 102.31 169.77 101.995 171.346 101.244C172.291 100.795 173.099 100.47 174.029 99.9877C175.15 99.4062 176.46 99.8771 177.655 99.4724C179.125 98.9757 180.641 98.6791 182.178 98.525C182.61 98.4814 182.903 98.3584 183.187 98.2416C179.995 98.3989 176.805 98.5678 173.613 98.7204C173.059 98.7468 172.541 98.848 172.03 99.0707Z" fill="white"/>
<path d="M128.177 72.0749C127.908 74.5138 127.91 76.9636 127.98 79.4119C128.029 81.1642 128.115 82.9149 128.051 84.6688C128.022 85.4605 127.965 86.2506 127.746 87.0182C127.501 87.8768 126.967 88.4194 126.083 88.6039C124.836 88.8647 123.586 88.874 122.332 88.6802C121.39 88.5346 120.476 88.2808 119.582 87.9547C119.474 87.9158 119.357 87.8659 119.26 88.045C119.304 88.1057 119.347 88.189 119.411 88.2497C120.951 89.7187 122.773 90.4621 124.897 90.4309C125.637 90.42 126.366 90.3142 127.085 90.1569C128.186 89.9164 129.208 89.4851 130.132 88.818C130.517 88.5401 130.708 88.21 130.701 87.7336C130.687 86.7971 130.714 85.8598 130.688 84.9249C130.628 82.644 130.345 80.3764 130.341 78.0908C130.339 76.7215 130.342 75.3561 130.43 73.9892C130.555 72.0438 130.835 70.1241 131.306 68.2364C131.666 66.7946 132.064 65.3623 132.457 63.9299C132.566 63.5314 132.615 63.1359 132.589 62.7225C132.529 61.716 132.486 60.7079 132.436 59.7006C132.281 56.5821 132.134 53.4628 131.969 50.3458C131.898 49.0053 132.301 47.8423 133.147 46.8233C133.752 46.3796 133.943 45.7459 134.024 45.0274C134.093 44.4078 134.286 43.8099 134.595 43.2588C134.912 42.6944 135.36 42.3908 136.027 42.3581C137.295 42.295 138.542 42.3923 139.776 42.6796C141.033 42.9715 142.303 43.1116 143.591 43.0229C144.232 42.9785 144.755 43.2113 145.191 43.6605C145.389 43.8652 145.587 44.0847 145.721 44.333C145.927 44.7145 146.219 44.9254 146.613 45.0952C148.023 45.7008 148.987 46.7517 149.422 48.2471C149.547 48.6792 149.59 49.1431 149.614 49.5954C149.787 52.8844 149.946 56.1749 150.115 59.5869C150.122 59.6679 150.143 59.7496 150.128 59.8275L150.158 59.5651C150.201 59.4725 150.228 59.4203 150.231 59.3861C150.336 58.216 150.469 57.0476 150.533 55.8745C150.595 54.7488 150.612 53.6193 150.599 52.4913C150.587 51.4116 150.609 50.317 150.443 49.2568C150.048 46.7175 148.993 44.4506 147.392 42.4507C146.927 41.8692 146.393 41.357 145.775 40.9405C145.234 40.5747 144.649 40.3248 143.993 40.2672C143.2 40.1971 142.433 40.373 141.667 40.5279C140.94 40.6751 140.265 40.9802 139.6 41.2971C138.468 41.835 137.286 42.1565 136.033 42.1993C134.792 42.2421 133.804 42.7925 133.008 43.7321C132.525 44.3019 132.151 44.9426 131.859 45.63C131.168 47.2647 130.839 48.9703 130.914 50.7514C130.986 52.4788 131.003 54.2062 130.939 55.9352C130.875 57.7139 130.725 59.4826 130.373 61.2248C130.022 62.9631 129.613 64.6897 129.206 66.4163C128.766 68.2846 128.387 70.1646 128.177 72.0749Z" fill="white"/>
<path d="M98.5327 15.8265C98.9923 16.0328 99.4866 16.1076 99.994 16.0795C101.109 16.0188 102.224 15.9651 103.339 15.9083C104.501 15.8491 105.665 15.8032 106.826 15.7285C108.745 15.6039 109.857 14.0719 109.909 12.7026C109.92 12.4153 109.935 12.1273 109.922 11.8401C109.865 10.5688 109.804 9.29762 109.732 8.0264C109.713 7.69322 109.674 7.35537 109.599 7.02998C109.311 5.77355 108.534 4.95773 107.316 4.60976C106.913 4.49532 106.469 4.47119 106.048 4.48909C103.912 4.58017 101.778 4.69772 99.6429 4.80671C99.5236 4.81293 99.405 4.81605 99.2872 4.82928C97.4524 5.04336 96.2228 6.46793 96.2982 8.31833C96.3621 9.87757 96.4299 11.4376 96.5346 12.9953C96.6254 14.3366 97.3215 15.2832 98.5327 15.8265Z" fill="white"/>
<path d="M99.0617 18.7811C99.3227 18.7764 99.5837 18.7881 99.8448 18.7904C100.808 18.799 101.653 19.1438 102.413 19.7207C102.794 20.0079 103.164 20.3092 103.542 20.6003C104.321 21.199 105.191 21.5376 106.178 21.5493C106.291 21.5508 106.405 21.5765 106.503 21.589C106.604 21.8474 106.485 22.0428 106.44 22.2491C106.247 23.114 106.057 23.9796 105.877 24.8476C105.844 25.0041 105.865 25.1714 105.86 25.4143C106.014 25.3077 106.11 25.2485 106.199 25.18C106.483 24.962 106.754 24.7277 107.047 24.5245C107.267 24.372 107.437 24.1875 107.585 23.9633C108.554 22.5107 109.897 21.7478 111.641 21.6723C114.228 21.5609 116.813 21.4232 119.399 21.2791C120.27 21.2301 121.1 21.3453 121.894 21.7221C121.976 21.761 122.081 21.8809 122.207 21.7104C121.741 21.1063 121.154 20.693 120.425 20.475C119.963 20.3364 119.489 20.3325 119.015 20.317C118.564 20.3022 108.441 20.6439 108.177 20.5964C108.099 19.0162 111.219 15.4905 111.247 14.4949C110.902 14.9775 110.671 15.3699 110.372 15.6999C110.07 16.0323 109.722 16.3336 109.355 16.5913C108.988 16.8474 108.573 17.0334 108.205 17.2366C108.063 17.5752 107.952 17.8929 107.802 18.1902C107.51 18.7741 107.013 19.0675 106.38 19.1353C106.215 19.1524 106.048 19.154 105.882 19.1469C104.946 19.1072 104.048 18.9111 103.215 18.4596C102.985 18.335 102.745 18.2276 102.519 18.096C101.945 17.7636 101.345 17.6266 100.676 17.706C100.185 17.7644 99.6746 17.7831 99.1857 17.7208C98.2093 17.5955 97.3816 17.2094 96.7148 16.6746C97.6149 17.9115 98.4711 18.7927 99.0617 18.7811Z" fill="white"/>
<path d="M94.8672 13.0169C94.8518 12.2727 94.7887 11.53 94.7618 10.7866C94.7518 10.504 94.6493 10.3001 94.4507 10.0961C93.6545 9.27952 93.643 8.28154 94.4237 7.48673C94.6201 7.28745 94.7271 7.07726 94.7964 6.81648C94.9581 6.20851 95.2299 5.65035 95.608 5.14669C95.6888 5.03848 95.755 4.91705 95.8505 4.76602C94.721 4.97154 93.7185 5.59742 93.1525 6.42647C92.8368 6.88888 92.6367 7.39955 92.5735 7.9577C92.5342 8.31423 92.5027 8.67544 92.5112 9.03353C92.5188 9.33713 93.6553 11.7278 95.0312 14.0647C94.9396 13.7159 94.8742 13.3649 94.8672 13.0169Z" fill="white"/>
<path d="M96.7167 16.6738C96.1531 15.8993 95.5741 14.9869 95.0312 14.0644C95.2884 15.0437 95.8597 15.9849 96.7167 16.6738Z" fill="white"/>
<path d="M18.6898 77.6625C18.6498 77.8354 18.609 77.9506 18.5989 78.0681C18.5335 78.8326 18.4765 79.5986 18.4118 80.363C18.3911 80.6137 18.4611 80.8332 18.5758 81.0512C18.7653 81.4108 18.9539 81.772 19.1241 82.1418C19.7585 83.5228 20.2182 84.9489 20.2728 86.4926C20.2983 87.2103 20.4045 87.9257 20.4823 88.6411C20.694 90.5818 21.146 92.468 21.7951 94.3044C23.0332 97.802 24.9281 100.867 27.7261 103.313C31.0385 106.21 34.9191 107.636 39.271 107.74C41.1235 107.783 42.9668 107.59 44.7939 107.226C47.3518 106.717 49.7872 105.871 52.0817 104.627C53.2528 103.991 54.4016 103.309 55.374 102.372C60.1686 97.7483 62.4138 92.0002 62.6464 85.3879C62.698 83.9027 62.5955 82.4119 62.5447 80.9243C62.5109 79.9263 62.4516 78.9392 62.4023 77.9872C62.3853 77.7474 62.353 77.5068 62.3661 77.2671L62.3607 78.2946C62.3083 79.2117 62.3476 80.1606 62.3746 81.1204C62.4161 82.6314 62.5463 84.1385 62.4931 85.655C62.4346 87.3427 62.2175 89.0015 61.7794 90.6277C60.6106 94.9645 58.2452 98.5197 54.7943 101.325C50.7142 104.64 46.0421 106.462 40.814 106.799C39.5559 106.88 38.3008 106.815 37.0558 106.576C33.7072 105.933 30.9538 104.255 28.714 101.686C26.8984 99.6026 25.6364 97.1964 24.741 94.587C23.8262 91.9176 23.3258 89.1635 23.1687 86.3439C23.1464 85.9383 23.1025 85.5304 23.0316 85.1303C22.8053 83.8598 22.2571 82.7171 21.6103 81.6187C20.818 80.275 19.8802 79.0357 18.92 77.8136C18.8731 77.7544 18.7884 77.7256 18.6898 77.6625Z" fill="white"/>
<path d="M298.529 92.0704C297.681 92.4456 296.795 92.5647 295.882 92.4417C293.443 92.114 291.505 89.9421 291.653 87.3086C291.725 86.0405 291.846 84.7739 291.958 83.5082C292.125 81.6453 292.305 79.784 292.474 77.9212C292.512 77.5133 292.5 77.1061 292.4 76.7052C292.019 75.1974 292.003 73.6661 292.125 72.1271C292.219 70.947 292.138 69.7816 291.863 68.6311C291.227 68.0714 290.48 67.8783 289.676 67.8869C289.106 67.8931 288.538 67.9445 287.968 67.9655C287.745 67.9733 287.555 68.0356 287.432 68.1632C287.175 68.115 286.946 68.0293 286.72 68.0371C285.868 68.0667 285.07 67.8783 284.318 67.486C284.052 67.3474 283.794 67.3015 283.497 67.3544C283.101 67.426 282.696 67.4579 282.297 67.5124C282.188 67.5272 282.054 67.4969 281.977 67.6891C282.085 67.8386 282.2 68.0161 282.333 68.178C282.971 68.9572 287.082 69.545 287.196 69.1052C287.249 68.8996 287.247 68.677 287.443 68.4762C287.535 68.6264 290.847 68.663 291.214 69.464C291.884 70.1895 291.373 83.9176 291.406 85.4769C291.416 85.9323 291.432 86.3885 291.432 86.8446C291.432 87.599 291.289 88.3245 290.944 88.9994C290.629 89.6175 290.298 90.227 289.979 90.8443C289.682 91.4181 292.643 94.3069 293.374 94.3731C294.419 94.4665 295.463 94.3949 296.505 94.3256C297.159 94.282 297.683 93.9667 298.077 93.4491C298.263 93.2046 298.421 92.9298 298.549 92.6488C298.867 91.9443 299.09 92.8886 299.185 92.1249C299.197 92.0377 299.161 91.9435 299.139 91.8034C298.911 91.903 298.719 91.9856 298.529 92.0704Z" fill="white"/>
<path d="M78.8928 55.6956C79.0044 56.1572 79.0252 56.6453 79.0491 57.1225C79.4248 64.6019 79.7952 72.0821 80.1663 79.5615C80.2094 80.4241 80.2625 81.2835 80.3865 82.1413C80.6044 83.6461 80.9878 85.0979 81.603 86.4859C82.1312 87.6785 82.8165 88.766 83.712 89.7126C83.9252 89.9384 84.1424 90.1579 84.445 90.2676C85.1279 90.5136 85.824 90.6935 86.614 90.7557C86.5916 90.7402 86.5755 90.7285 86.5531 90.7137C86.6117 90.7254 86.6694 90.7371 86.7272 90.7487L86.5416 90.7051C86.1851 90.4615 85.8571 90.2599 85.5676 90.0248C84.7329 89.3475 84.1801 88.4562 83.7612 87.4761C82.9605 85.6024 82.6186 83.6188 82.4685 81.6042C82.2783 79.0423 82.2282 76.4765 82.3276 73.906C82.3961 72.1312 82.5462 70.3641 82.721 68.5985C82.9012 66.7839 83.0359 64.9662 83.0791 63.1446C83.126 61.1292 83.0729 59.1138 82.9705 57.0991C82.9235 56.1813 82.5786 55.4247 81.9372 54.8043C81.63 54.5077 81.292 54.2344 80.9332 54.0048C79.5911 53.1454 78.0981 52.704 76.5059 52.5288C76.6414 52.6207 76.7769 52.7102 76.9109 52.8044C77.9264 53.519 78.6002 54.4843 78.8928 55.6956Z" fill="white"/>
<path d="M87.9167 39.6098C89.2472 39.5639 90.4507 39.8799 91.5594 40.6086C91.9575 40.8694 92.3525 41.1348 92.7544 41.3909C93.8101 42.0659 94.9558 42.3531 96.2093 42.2854C97.1879 42.2332 97.9933 41.8518 98.6809 41.173C99.1267 40.7331 99.4816 40.2256 99.7773 39.6737C100.349 38.6087 100.694 37.4667 100.901 36.2788C100.953 35.9768 100.984 35.6701 101.025 35.3657C100.761 35.607 100.595 35.8927 100.395 36.1511C100.191 36.4143 99.9713 36.6727 99.7234 36.8922C99.4578 37.1281 99.1621 37.3352 98.8587 37.5204C98.5777 37.6933 98.2689 37.8209 97.9671 37.9704C97.8839 38.2024 97.8108 38.4297 97.7215 38.65C97.4019 39.4354 96.8437 39.8589 95.979 39.8908C94.7748 39.9344 93.6168 39.7531 92.5011 39.293C91.9737 39.075 91.447 38.8578 90.9196 38.6422C90.5847 38.5044 90.2382 38.4593 89.8748 38.4865C89.3543 38.5254 88.8322 38.5465 88.311 38.5659C87.2684 38.6048 86.3422 38.3075 85.5137 37.7454C86.3653 38.85 87.2238 39.634 87.9167 39.6098Z" fill="white"/>
<path d="M85.5126 37.7462C84.7465 36.7513 83.9896 35.5011 83.3613 34.3265C83.543 35.5082 84.0443 36.5388 84.9783 37.3531C85.1492 37.5026 85.3317 37.6232 85.5126 37.7462Z" fill="white"/>
<path d="M81.8469 30.7631C81.7291 30.9001 82.389 32.5146 83.3576 34.3253C83.3283 34.1354 83.2868 33.9517 83.2752 33.7539C83.2275 32.963 83.1767 32.1729 83.1597 31.3812C83.1482 30.816 83.0257 30.3412 82.6569 29.8694C82.0286 29.0637 82.0879 27.6859 82.8733 27.13C83.0619 26.9969 83.1089 26.786 83.1643 26.5727C83.3045 26.0355 83.5293 25.5342 83.8404 25.0741C83.9589 24.8998 84.0806 24.7269 84.2007 24.5533C83.5008 24.6374 82.9187 24.885 82.3967 25.2687C81.6113 25.8456 81.1124 26.6085 80.9738 27.5862C80.9199 27.963 80.8945 28.3491 80.9045 28.7298C80.926 29.5378 82.3659 30.1598 81.8469 30.7631Z" fill="white"/>
<path d="M121.774 36.6672C121.528 36.763 121.288 36.833 121.125 37.0712C120.77 37.5866 120.244 37.7804 119.648 37.8022C118.644 37.8403 117.651 37.7485 116.707 37.3865C116.249 37.2113 115.797 37.1623 115.315 37.1934C114.249 37.2627 113.182 37.3188 112.114 37.3554C110.624 37.4083 109.38 36.8385 108.375 35.7455C107.606 34.9094 107.174 33.9138 107.117 32.764C107.08 32.0447 107.042 31.3254 107.006 30.6061C106.996 30.4107 106.97 30.2216 106.806 30.0892C106.583 29.9094 106.351 29.7413 106.137 29.5513C105.925 29.3645 105.731 29.1574 105.518 28.9472C105.246 29.3147 105.005 29.6681 104.734 29.9958C104.444 30.3446 104.126 30.6692 103.82 31.0047C103.804 31.0218 103.789 31.0405 103.773 31.0592C102.616 32.3865 102.77 34.1178 103.615 35.3119C103.978 35.8265 104.436 36.2422 104.952 36.5925C105.526 36.9809 106.143 37.2884 106.793 37.5243C108.375 38.098 110.007 38.3689 111.685 38.2786C113.042 38.2062 114.326 38.4506 115.558 39.0197C115.968 39.2089 116.382 39.3941 116.806 39.5452C118.283 40.0691 119.802 40.1601 121.282 39.6682C123.873 38.8064 125.809 37.1055 127.113 34.6814C127.376 34.194 127.559 33.6709 127.642 33.1221C127.786 32.1662 127.722 31.2538 127.034 30.4878C126.623 30.0293 125.637 29.2968 124.893 28.9402C124.894 29.1823 124.889 29.3474 124.897 29.5116C124.932 30.2792 124.966 31.0467 125.01 31.8127C125.052 32.5468 124.917 33.249 124.631 33.9177C124.066 35.2411 123.1 36.1511 121.774 36.6672Z" fill="white"/>
<path d="M117.433 69.5171C117.16 64.9639 116.896 60.4099 116.628 55.8559C116.615 55.6403 116.6 55.4247 116.586 55.209C116.56 54.8229 116.377 54.524 116.071 54.3052C115.559 53.9394 114.986 53.7525 114.371 53.7027C114.342 53.7798 114.309 53.8249 114.313 53.8662C114.372 54.51 114.461 55.1522 114.495 55.7975C114.872 63.2793 115.241 70.761 115.613 78.2436C115.657 79.1302 115.715 80.013 115.866 80.8927C116.153 82.5625 116.641 84.1591 117.449 85.6436C117.745 86.1877 118.121 86.6875 118.469 87.2021C118.559 87.336 118.658 87.4878 118.883 87.4278C118.891 87.3655 118.913 87.2986 118.905 87.2348C118.783 86.3068 118.636 85.382 118.537 84.4526C118.357 82.7586 118.166 81.0639 118.047 79.3653C117.817 76.0841 117.629 72.8006 117.433 69.5171Z" fill="white"/>
<path d="M340.015 36.0653C340.026 36.0124 340.055 35.9657 340.041 35.9042L339.961 36.1587C339.919 36.2288 339.89 36.2801 339.869 36.3198C338.941 38.1134 337.487 39.0608 335.478 39.1394C334.22 39.1892 332.963 39.2741 331.705 39.327C330.19 39.3909 328.645 40.4605 328.495 42.5592C328.41 43.7557 328.305 44.9506 328.2 46.1455C328.032 48.0574 327.849 49.9678 327.691 51.8797C327.656 52.3078 327.658 52.7476 327.715 53.1719C327.875 54.3769 328.859 55.4512 330.025 55.7377C330.208 55.7828 330.396 55.8264 330.582 55.6933C330.606 55.6365 330.639 55.5742 330.66 55.5073C330.951 54.5957 330.037 52.0509 330.118 50.7221C330.173 49.7825 330.001 42.5716 330.493 41.5472C330.47 41.3339 330.469 41.1136 330.496 40.9011C330.537 40.5726 330.746 40.3966 331.076 40.3818C331.496 40.3639 331.885 40.4776 332.202 40.7524C332.47 40.9859 339.111 40.0191 339.386 39.2212C339.731 38.2208 339.946 37.1925 340.049 36.0069C340.033 36.0342 340.028 36.0427 340.015 36.0653Z" fill="white"/>
<path d="M326.863 4.83095C327.072 4.87299 327.281 4.90802 327.488 4.95862C329.322 5.40467 330.541 6.53188 331.132 8.34257C331.391 9.13504 331.354 9.95087 331.28 10.7659C331.197 11.6728 331.117 12.5797 331.035 13.4866C330.927 14.68 330.819 15.8741 330.713 17.0675C330.608 18.2368 330.502 19.4068 330.398 20.576C330.288 21.8169 330.172 23.0578 330.073 24.3002C330.018 24.9922 329.975 25.6858 329.961 26.3802C329.953 26.7881 330.059 27.182 330.335 27.5596C330.411 27.4615 330.478 27.3977 330.517 27.3206C330.749 26.8636 330.819 26.3678 330.871 25.8641C331.07 23.9647 331.533 22.1376 332.393 20.4281C332.758 19.7018 333.165 6.03133 331.897 4.62466C331.632 4.3304 331.303 4.14358 330.913 4.09298C330.656 4.06028 330.394 4.04238 330.136 4.05327C329.011 4.10154 327.96 4.49544 326.863 4.83095Z" fill="white"/>
<path d="M296.872 28.0881C296.936 27.2505 297.014 26.4152 297.087 25.5783C297.201 24.2884 297.301 22.9962 297.439 21.7086C297.485 21.2781 297.391 20.913 297.2 20.5402C296.795 19.7524 298.914 18.8346 298.55 18.0273C297.832 16.4385 297.418 14.7695 297.377 13.0179C297.361 12.371 297.405 11.7234 297.41 11.0757C297.413 10.6335 297.513 10.2147 297.711 9.82781C297.907 9.44559 298.118 9.06648 298.362 8.71462C299.463 7.1289 298.278 5.90049 299.781 4.70634C299.928 4.58957 300.079 4.47514 300.226 4.35993C300.209 4.33424 300.192 4.30933 300.174 4.28364C300.106 4.29687 300.034 4.29921 299.971 4.3249C298.302 5.00216 299.312 5.80786 297.976 7.02614C297.446 7.50957 296.97 8.04436 296.565 8.643C296.054 9.3981 295.787 10.2279 295.776 11.1426C295.774 11.3349 295.766 11.5264 295.754 11.7187C295.647 13.5543 295.788 15.3696 296.312 17.1336C296.652 18.2811 296.812 28.8759 296.872 28.0881Z" fill="white"/>
<path d="M292.615 55.3613C293.162 55.5302 293.671 55.847 294.294 55.8595C294.357 55.7007 294.431 55.5738 294.457 55.4368C294.516 55.1316 294.566 54.8226 294.594 54.5128C294.671 53.6767 294.729 52.8399 294.805 52.0038C295.007 49.7829 295.221 47.5635 295.415 45.3418C295.449 44.9377 295.437 44.5244 295.395 44.1211C295.371 43.8931 295.285 43.6439 295.151 43.461C294.915 43.1372 294.698 42.8149 294.632 42.3626C294.26 42.4934 293.963 42.4046 293.658 42.2567C292.956 41.9181 292.201 41.8527 291.433 41.8932C290.934 41.9189 290.513 42.1096 290.179 42.4856C290.02 42.6639 289.872 42.8515 289.713 43.0297C289.554 43.208 289.404 43.4003 289.222 43.549C288.715 43.9623 292.245 43.0733 291.601 42.8273L294.403 43.9234C294.51 44.0176 295.182 52.4755 293.16 54.3742C293.138 54.6801 292.597 55.0094 292.615 55.3613Z" fill="white"/>
<path d="M320.392 18.9011C320.425 18.9766 320.46 19.0879 320.626 19.042C320.64 18.9704 320.664 18.8839 320.672 18.7952C320.742 18.0074 320.806 17.2196 320.877 16.4318C321.085 14.1175 321.285 11.8023 321.509 9.48952C321.706 7.45074 322.741 6.00203 324.604 5.18933C325.035 5.00094 325.506 4.90674 325.958 4.76584C325.983 4.75806 325.997 4.7168 326.023 4.68255C325.838 4.61327 325.667 4.54866 325.469 4.4747C325.31 3.22684 318.893 7.34332 318.699 10.4758C318.625 11.6778 318.668 12.8774 318.835 14.0637C319.076 15.7623 319.69 17.3488 320.392 18.9011Z" fill="white"/>
<path d="M12.0959 114.085C10.6114 112.36 9.30862 110.502 8.06821 108.594C6.39353 106.017 4.99682 103.297 3.90654 100.417C2.96334 97.9245 2.25035 95.3665 1.77374 92.7392C1.40877 90.7293 1.16392 88.7076 1.06306 86.6673C0.933705 84.0291 0.83053 81.3917 0.950644 78.7177C0.927545 78.7566 0.917536 78.7737 0.903676 78.7971C0.912146 78.7013 0.937555 78.6095 0.917536 78.5098L0.850549 78.9286C0.822061 79.0143 0.792801 79.0999 0.772782 79.1879C0.186838 81.7739 -0.104979 84.3903 0.0343853 87.0441C0.0898228 88.0981 0.196848 89.1498 0.292324 90.2007C0.473266 92.1881 0.838229 94.1428 1.30329 96.0804C2.35891 100.479 4.05977 104.6 6.4944 108.403C9.18851 112.61 12.5918 116.118 16.7026 118.921C16.912 119.064 17.1292 119.194 17.3609 119.343C17.3617 119.276 17.3709 119.246 17.3609 119.236C17.2731 119.156 17.1838 119.078 17.093 119.003C15.2882 117.507 13.6274 115.864 12.0959 114.085Z" fill="white"/>
<path d="M117.003 97.6368C116.846 97.4897 116.69 97.3402 116.521 97.211C115.804 96.6645 114.994 96.4567 114.107 96.5571C113.951 96.5758 113.802 96.652 113.525 96.7423C114.062 97.9567 113.882 99.1719 114.01 100.345C113.404 101.078 112.708 101.658 111.959 102.167C111.2 102.684 110.414 103.159 109.5 103.741C110.361 103.721 111.048 103.583 111.731 103.439C112.454 103.289 113.144 103.036 113.8 102.688C114.435 102.352 114.95 101.861 115.463 101.369C115.605 101.436 115.715 101.479 115.817 101.537C117.198 102.321 118.703 102.611 120.264 102.628C121.5 102.641 122.728 102.51 123.943 102.277C123.977 102.271 124.001 102.211 124.052 102.149C123.944 102.091 123.847 102.026 123.741 101.985C121.191 101.016 118.987 99.5004 117.003 97.6368Z" fill="white"/>
<path d="M325.495 76.2986C325.487 76.2114 325.473 76.1234 325.478 76.0362L325.473 76.2799C325.466 76.2776 325.468 76.2705 325.46 76.269C325.36 77.4367 325.265 78.5818 325.164 79.7253C324.956 82.0646 324.755 84.4046 324.533 86.7424C324.376 88.3997 323.596 89.695 322.198 90.5778C320.478 91.6638 318.308 91.5571 316.652 90.3077C316.301 90.0422 315.938 89.8616 315.518 89.7488C314.692 89.5277 313.893 89.2217 313.126 88.8372C313.009 88.7788 312.882 88.7422 312.684 88.6659C312.74 88.8395 312.76 88.9283 312.796 89.0092C313.305 90.1395 314.003 91.1313 314.962 91.9129C316.313 93.0152 317.877 93.5336 319.601 93.3546C321.529 93.1545 323.111 92.2398 324.314 90.6922C325.002 89.8071 325.443 88.8099 325.557 87.6796C325.601 87.2507 325.657 86.8218 325.678 86.392C325.741 85.1232 325.852 83.8527 325.829 82.5854C325.793 80.5474 325.666 78.5109 325.574 76.4745C325.571 76.4185 325.571 76.3445 325.495 76.2986Z" fill="white"/>
<path d="M95.9772 22.4711C96.6271 22.4361 97.2607 22.5186 97.8598 22.767C99.8201 23.5797 100.912 25.0603 101.075 27.1987C101.177 28.5377 101.213 29.8813 101.286 31.2218C101.292 31.316 101.225 31.4615 101.391 31.5028C101.655 31.0669 101.907 30.634 102.176 30.2121C102.584 29.573 102.805 28.8779 102.863 28.1204C102.914 27.4611 102.801 26.8243 102.596 26.2109L97.7504 20.3319C97.4017 20.135 97.0205 19.9762 96.6348 19.8719C95.1595 19.4733 93.7666 19.6671 92.5024 20.5678C91.7039 21.1369 91.0841 21.8966 90.4512 22.7249C90.6822 22.7218 90.9139 22.7265 91.1441 22.7148C92.7549 22.6362 94.3664 22.5576 95.9772 22.4711Z" fill="white"/>
<path d="M107.252 103.912C106.116 103.839 104.98 103.766 103.847 103.657C103.501 103.624 103.192 103.667 102.878 103.786C100.703 104.609 98.4588 105.059 96.1335 105.088C94.3526 105.112 92.5763 105.08 90.8108 104.806C90.5336 104.764 90.2556 104.731 89.9199 104.686C89.9938 104.798 90.0192 104.867 90.0685 104.905C91.0156 105.635 92.0188 106.272 93.1276 106.723C94.2648 107.185 95.4413 107.412 96.6733 107.343C97.6943 107.287 98.7068 107.172 99.7085 106.969C101.57 106.59 103.397 106.078 105.183 105.424C106.296 105.016 107.397 104.581 108.445 103.925C108.046 103.922 107.648 103.938 107.252 103.912Z" fill="white"/>
<path d="M336.091 64.9031C336.024 64.9257 335.953 64.9451 335.893 64.9817C335.118 65.4457 334.275 65.6364 333.38 65.6675C332.074 65.7127 330.77 65.7851 329.466 65.8668C329.09 65.8902 328.708 65.947 328.348 66.0568C327.139 66.4234 326.289 67.5101 326.162 68.8662C327.19 68.6833 336.207 66.3059 336.262 65.2176C336.267 65.1125 336.227 65.0043 336.211 64.9093C336.138 64.9046 336.112 64.8961 336.091 64.9031Z" fill="white"/>
<path d="M106.193 2.79565C107.243 2.74661 108.22 3.00428 109.098 3.58656C110.502 4.51682 111.255 5.84954 111.373 7.5349C111.455 8.70648 111.494 9.88117 111.555 11.1104C111.649 11.0777 111.678 11.0769 111.689 11.0629C111.989 10.6612 112.289 10.2595 112.587 9.85704C112.63 9.79943 112.669 9.73949 112.707 9.67877C112.923 9.32846 113.05 8.95247 113.12 8.54144C113.234 7.87742 113.107 7.24142 112.91 6.62955C112.056 3.97891 110.389 1.99228 107.988 0.638547C107.64 0.442375 107.25 0.307702 106.864 0.195604C105.256 -0.27147 103.865 0.0897341 102.739 1.36874C102.345 1.81635 101.969 2.28031 101.589 2.7396C101.536 2.80421 101.507 2.88829 101.428 3.03542C101.746 3.01907 101.979 3.00739 102.212 2.99572C103.539 2.92877 104.866 2.85793 106.193 2.79565Z" fill="white"/>
<path d="M45.4303 125.961C43.1666 126.22 40.8929 126.339 38.6092 126.224C36.8775 126.138 35.1613 125.947 33.4543 125.644C31.6764 125.329 29.9502 124.815 28.2154 124.318C25.8039 123.627 23.4563 122.777 21.1933 121.688C21.2087 121.732 21.2434 121.752 21.2673 121.786C21.2642 121.785 21.2619 121.782 21.2588 121.78C21.151 121.716 21.0193 121.691 20.8984 121.649L21.2734 121.796C21.392 121.961 21.5729 122.057 21.74 122.159C24.0584 123.585 26.5053 124.732 29.0778 125.608C32.153 126.655 35.3137 127.253 38.5522 127.393C40.3524 127.47 42.1518 127.423 43.9504 127.195C45.9331 126.944 47.8803 126.551 49.7876 125.961C51.262 125.504 52.6957 124.934 54.0801 124.243C54.2572 124.154 54.4705 124.102 54.5367 123.873C54.3665 123.93 54.1964 123.987 54.027 124.045C51.2289 124.993 48.3577 125.626 45.4303 125.961Z" fill="white"/>
<path d="M54.5514 123.854C54.5491 123.863 54.5394 123.864 54.5371 123.872C54.5469 123.869 54.5559 123.866 54.5657 123.863C54.5724 123.861 54.5792 123.859 54.586 123.857C54.5739 123.853 54.5657 123.859 54.5536 123.855L54.5514 123.854Z" fill="white"/>
<path d="M270.686 93.7958C270.369 93.8036 270.087 93.8838 269.816 94.0558C269.139 94.4855 268.377 94.6677 267.594 94.7502C266.71 94.8428 265.959 94.5556 265.374 93.8651C265.267 93.7382 265.176 93.5973 265.068 93.4696C265.003 93.3918 264.983 93.2275 264.801 93.31C264.835 94.4801 264.855 95.654 265.096 96.81C265.229 97.4475 271.923 94.8942 272.463 93.911C272.474 93.8915 272.471 93.8643 272.481 93.7942C272.403 93.76 272.361 93.7249 272.321 93.7265C271.776 93.7475 271.232 93.7826 270.686 93.7958Z" fill="white"/>
<path d="M93.6931 54.2536C92.6814 54.7114 92.2464 55.3995 92.2856 56.5174C92.3488 58.3187 92.5559 60.1061 92.8593 61.8786C93.1996 63.8668 93.7586 65.7989 94.4585 67.689C95.1145 69.4616 95.8082 71.2209 96.3056 73.0495C96.3295 73.1382 96.368 73.2223 96.3996 73.3087C96.3742 72.5925 96.2856 71.8904 96.167 71.1936C95.849 69.3277 95.4918 67.468 95.2007 65.5981C94.9582 64.0357 94.7511 62.4656 94.5963 60.8915C94.4546 59.46 94.4146 58.019 94.3114 56.5836C94.2668 55.9546 94.4284 55.3949 94.7672 54.8826C94.9382 54.6242 95.1414 54.3875 95.3278 54.14C95.3932 54.0512 95.4525 53.9586 95.5718 53.7835C94.8589 53.8924 94.2591 53.9975 93.6931 54.2536Z" fill="white"/>
<path d="M280.309 79.2878C280.267 79.2146 280.207 79.1523 280.072 78.974C280.082 79.3384 280.082 79.5696 280.094 79.7992C280.228 82.5277 280.351 85.257 280.505 87.9839C280.581 89.3299 280.288 90.5481 279.478 91.6294C279.418 91.7096 279.399 91.8201 279.338 91.9758C280.17 91.8645 280.895 91.6676 281.564 91.2916C282.498 90.7669 282.976 89.9721 282.921 88.8783C282.872 87.8975 282.8 86.9221 282.65 85.9475C282.283 83.5747 281.485 81.3655 280.309 79.2878Z" fill="white"/>
<path d="M259.566 35.9727C258.899 44.131 259.686 52.4029 259.887 61.4836C259.971 65.2116 259.901 68.8447 260.086 72.5727C260.292 76.7297 260.133 80 261.18 81.7601C261.931 83.0219 261.276 84.03 262.124 84.2488C262.026 83.6758 261.981 83.2601 261.903 82.9729C260.846 79.0705 261.684 74.0868 261.44 68.97C260.944 58.5994 260.416 48.2296 259.9 37.859C259.857 36.9847 259.803 36.1105 259.726 34.7257C259.634 35.4333 259.59 35.6847 259.566 35.9727Z" fill="white"/>
<path d="M279.061 67.873C279.012 68.1673 279.008 68.5853 278.968 69.1653C279.79 68.8617 279.039 67.9252 279.66 66.5933C280.528 64.7359 280.046 61.4983 279.839 57.3413C279.654 53.6133 279.225 50.0051 278.939 46.2872C278.24 37.2322 278.204 28.9222 276.731 20.8729C276.679 20.5888 276.61 20.3428 276.449 19.6484C276.509 21.0333 276.542 21.909 276.586 22.784C277.1 33.1538 277.602 43.5252 278.135 53.8935C278.398 59.0103 279.726 63.8835 279.061 67.873Z" fill="white"/>
<path d="M65.915 51.534C66.0343 51.1277 66.36 51.3534 66.7742 51.3145C66.9606 51.2974 67.5357 51.5722 67.7228 51.5963C68.4274 51.6858 68.1078 51.6485 68.6191 52.1397C68.9964 52.5017 70.7942 52.0478 71.6889 52.0019C71.6728 51.9926 71.672 51.9918 71.6574 51.9824C71.7097 51.9731 71.7629 51.9599 71.8129 51.97L71.5965 51.9443C71.5188 51.8937 71.441 51.8384 71.3863 51.8135C70.9274 51.6002 70.5263 51.3021 70.1675 50.9486C69.8449 50.631 68.7584 50.8545 68.4451 50.5267C68.0324 50.0955 65.4799 49.6478 64.8509 51.1261C64.73 51.4118 62.9306 51.8696 62.859 52.1716C62.5818 53.3447 62.4062 52.5274 62.4447 53.7316C62.447 53.8087 62.4986 53.8842 62.5371 53.9885C62.8567 53.7223 65.8287 51.8283 65.915 51.534Z" fill="white"/>
<path d="M6.28371 67.0163L6.58169 66.9891C9.24038 66.8552 11.8975 66.7018 14.557 66.592C16.2702 66.5212 17.6353 67.2452 18.6725 68.6137C18.8018 68.7834 18.9173 68.9648 19.0921 69.2178C19.7058 68.7351 20.2278 68.2533 20.5843 67.6212C20.8846 67.0895 20.8099 66.7571 20.3548 66.3523C19.9891 66.0269 19.5479 65.8486 19.0829 65.7388C18.4345 65.5855 17.7747 65.5006 17.1071 65.531C15.9452 65.5847 14.7841 65.6524 13.6223 65.7085C12.3611 65.7684 11.1229 65.9646 9.90178 66.2877C8.56666 66.6411 7.21075 66.8598 5.83097 66.9307C5.59459 66.9423 5.35744 66.968 5.12337 67.0046C4.6175 67.084 4.17323 67.2981 3.81058 67.6679C3.75514 67.7255 3.72665 67.8095 3.59961 68.0337C3.92838 67.8438 4.10625 67.7395 4.28565 67.6383C4.90932 67.2888 5.57072 67.0685 6.28371 67.0163Z" fill="white"/>
<path d="M106.299 47.9538C105.666 48.5828 105.212 49.3426 104.804 50.1319C104.786 50.1677 104.806 50.223 104.811 50.3102C104.994 50.3125 105.177 50.3258 105.358 50.3164C106.591 50.2573 107.825 50.1981 109.057 50.1288C109.875 50.0829 110.664 50.1981 111.423 50.5165C111.551 50.5694 111.688 50.6029 111.835 50.6504C111.856 50.55 111.894 50.4768 111.881 50.4145C111.662 49.4165 111.292 48.4894 110.576 47.7421C110.169 47.3178 109.673 47.0625 109.08 46.9815C107.986 46.8321 107.07 47.1863 106.299 47.9538Z" fill="white"/>
<path d="M261.877 14.2791C262.256 13.601 262.839 13.3052 263.582 13.3091C264.389 13.3138 265.199 13.3566 265.969 13.6244C266.407 13.7762 266.842 13.8073 267.297 13.7809C268.956 13.6867 270.615 13.6088 272.274 13.5247C272.274 13.5232 272.274 13.5209 272.275 13.5193C272.37 13.5115 272.465 13.4952 272.56 13.5014L272.28 13.4998L272.281 13.4975C271.832 13.4757 271.381 13.4189 270.934 13.4383C269.784 13.4882 268.729 13.1892 267.739 12.6186C267.348 12.3921 266.964 12.1531 266.574 11.925C265.423 11.2517 264.184 11.0376 262.871 11.1979C262.102 11.2914 261.54 11.6829 261.205 12.382C261.072 12.6599 260.973 12.9611 260.91 13.2632C260.778 13.8883 260.67 14.5196 260.791 15.1766C261.413 14.8832 261.621 14.7353 261.877 14.2791Z" fill="white"/>
<path d="M313.817 85.4908C313.988 83.7486 314.169 82.0072 314.368 80.2681C314.539 78.7673 314.738 77.2695 314.927 75.7702C315.013 75.0821 315.104 74.3955 315.193 73.7081C315.066 73.8007 315.044 73.9369 315.018 74.0825C314.782 75.4292 314.483 76.762 314.116 78.0791C313.897 78.8646 313.692 79.6539 313.503 80.4464C313.096 82.152 312.894 83.8903 312.676 85.6286C312.566 86.5168 311.156 87.2634 311.805 87.8091C311.921 87.9064 312.019 88.0761 312.241 87.9935C312.186 87.6899 313.774 87.3023 313.766 86.9971C313.753 86.4958 313.768 85.9898 313.817 85.4908Z" fill="white"/>
<path d="M313.272 30.0306C313.301 30.0679 313.331 30.1053 313.36 30.1427C313.51 30.3427 313.723 30.3365 313.94 30.3248C314.909 30.2742 315.879 30.2446 316.845 30.166C317.215 30.1364 317.591 30.0344 317.94 29.9006C318.376 29.7324 318.783 29.4926 319.083 29.0287C318.039 28.7936 317.049 28.5624 316.03 28.6075C314.884 28.6589 313.767 28.5414 312.667 28.2144C312.423 28.142 312.169 28.1078 311.867 28.0455C311.874 28.1755 311.866 28.2058 311.877 28.2214C312.341 28.8255 312.807 29.428 313.272 30.0306Z" fill="white"/>
<path d="M302.655 6.04792C302.874 6.03702 303.085 6.01055 303.296 6.01912C303.626 6.03235 303.962 6.03546 304.283 6.10008C305.816 6.40834 306.958 7.26075 307.711 8.64952C307.79 8.79509 307.806 9.01073 308.088 9.10181C308.072 8.77563 308.058 8.51329 308.046 8.25173C308.023 7.75196 307.837 7.31992 307.5 6.95871C306.685 6.08684 305.822 5.27024 304.836 4.59142C304.32 4.23567 303.744 4.02627 303.162 3.82932C302.968 3.76392 302.753 3.76159 302.436 3.71333C302.455 4.18429 302.456 4.54082 302.486 4.89502C302.519 5.26557 302.442 5.65558 302.655 6.04792Z" fill="white"/>
<path d="M308.151 17.5704C308.253 17.4895 308.278 17.4786 308.289 17.4591C309.277 15.8049 309.714 13.9833 309.872 12.0815C309.908 11.644 309.7 11.2922 309.312 11.0765C309.022 10.9154 308.711 10.8197 308.338 10.8197C308.306 10.945 308.263 11.0532 308.253 11.1653C308.111 12.7829 307.981 14.4021 307.831 16.0197C307.781 16.5616 307.947 17.0411 308.151 17.5704Z" fill="white"/>
<path d="M283.267 38.8582C283.258 38.6674 283.247 38.4767 283.239 38.286C283.21 37.6157 283.154 36.9447 283.159 36.2752C283.164 35.5933 283.287 34.9402 283.839 34.4513C283.978 34.3291 284.07 34.1508 284.174 33.9905C285.119 32.5231 286.448 31.7244 288.184 31.6325C288.587 31.6115 288.991 31.5975 289.392 31.5656C289.72 31.5399 289.736 31.5087 289.793 31.0502C288.482 30.2282 286.822 30.1893 285.677 31.3476C285.576 31.4488 285.465 31.5407 285.369 31.6465C284.136 32.9948 283.297 34.5572 282.895 36.35C282.701 37.2179 282.808 38.0579 283.267 38.8582Z" fill="white"/>
<path d="M76.9506 103.116C76.8375 103.325 76.7173 103.531 76.6188 103.747C74.4305 108.537 71.4261 112.721 67.5155 116.223C66.6285 117.017 65.6776 117.738 64.7536 118.49C64.6481 118.575 64.5396 118.657 64.4518 118.757L64.0137 119.028C64.1654 118.988 64.2955 118.911 64.4187 118.824C64.3833 118.877 64.3409 118.926 64.3309 119.001C64.7043 118.725 65.0731 118.443 65.452 118.175C70.6924 114.477 74.4606 109.583 76.9768 103.672C77.033 103.541 77.0808 103.404 77.11 103.265C77.12 103.216 77.0638 103.152 77.0415 103.1C76.9945 103.108 76.9576 103.104 76.9506 103.116Z" fill="white"/>
<path d="M135.725 102.901C133.123 103.341 130.597 103.384 128.022 103.073C128.03 103.078 128.044 103.08 128.052 103.086C128.012 103.07 127.933 103.087 127.871 103.09L128.176 103.143C128.17 103.139 128.163 103.136 128.156 103.131C128.166 103.136 128.178 103.14 128.188 103.145L128.176 103.143C128.225 103.172 128.275 103.203 128.328 103.206C130.244 104.092 134.185 103.979 135.725 102.901Z" fill="white"/>
<path d="M105.491 28.3004C105.697 27.68 105.558 27.0697 105.551 26.3091C105.226 26.7443 105.204 27.0743 105.21 27.4114C105.219 27.8948 105.257 28.0147 105.491 28.3004Z" fill="white"/>
<path d="M97.1426 53.4409C97.2751 53.2159 97.4083 52.9949 97.5353 52.7699C97.5761 52.6967 97.6454 52.6111 97.5037 52.5223C97.1064 52.78 96.6883 53.026 96.2656 53.465C96.6421 53.5662 96.8901 53.5382 97.1426 53.4409Z" fill="white"/>
<path d="M96.2076 87.5922C96.0297 87.8157 95.8704 88.0554 95.6933 88.2796C95.5208 88.4968 95.3345 88.7031 95.1543 88.9141C95.7094 88.5801 96.0636 88.0749 96.3624 87.5237C96.3054 87.5424 96.2392 87.5525 96.2076 87.5922Z" fill="white"/>
<path d="M79.0137 104.188C79.1076 104.247 79.1715 104.301 79.2454 104.33C79.3509 104.37 79.4695 104.408 79.4957 104.229C79.3555 104.158 79.2231 104.065 79.0137 104.188Z" fill="white"/>
<path d="M315.194 73.7042C315.195 73.5439 315.197 73.3851 315.197 73.2255C315.177 73.2263 315.156 73.2263 315.135 73.227C315.155 73.3874 315.174 73.547 315.193 73.7074C315.193 73.7074 315.194 73.705 315.194 73.7042Z" fill="white"/>
<path d="M54.9655 123.718L54.9794 123.706C54.8485 123.756 54.7168 123.805 54.5859 123.854C54.7422 123.895 54.8662 123.846 54.9655 123.718Z" fill="white"/>
<path d="M231.963 40.5404C231.964 40.5428 231.964 40.5444 231.964 40.5468C232.018 40.5341 232.071 40.5222 232.123 40.5096C232.123 40.5096 232.12 40.5056 232.118 40.5064C232.066 40.5175 232.015 40.5293 231.963 40.5404Z" fill="white"/>
<path d="M229.151 39.0364C229.117 39.0372 229.083 39.0387 229.048 39.0419L229.046 39.0443C229.034 39.0395 229.022 39.0364 229.01 39.0316C229.014 39.0443 229.028 39.0459 229.031 39.0593C229.072 39.0514 229.111 39.0443 229.151 39.0364Z" fill="white"/>
<path d="M96.3929 87.465C96.4214 87.3868 96.4508 87.3095 96.481 87.2329C96.3882 87.286 96.3674 87.3665 96.3929 87.465Z" fill="white"/>
<path d="M96.3808 87.4943C96.3746 87.5052 96.3668 87.5138 96.3613 87.5239C96.3738 87.52 96.3831 87.5146 96.394 87.5099C96.3878 87.4928 96.394 87.4811 96.3893 87.4647C96.3862 87.4741 96.3823 87.4826 96.3785 87.492L96.3808 87.4943Z" fill="white"/>
<path d="M96.79 86.6423L96.8092 86.629C96.8085 86.6298 96.8077 86.6298 96.8069 86.6298C96.7954 86.5979 96.7877 86.566 96.7784 86.5333C96.7823 86.5683 96.7861 86.6018 96.7892 86.6368C96.6976 86.6711 96.606 86.7053 96.5136 86.7403C96.5143 86.7411 96.5136 86.745 96.5136 86.745C96.5074 86.8914 96.5005 87.0393 96.4951 87.188C96.4951 87.1887 96.4959 87.1895 96.4966 87.1903C96.4912 87.2043 96.4859 87.2191 96.4805 87.2339C96.4936 87.2261 96.4928 87.2129 96.5097 87.2059C96.5113 87.0541 96.5128 86.9023 96.5143 86.7481C96.5136 86.7466 96.5136 86.7458 96.5136 86.745C96.6052 86.7108 96.6984 86.6765 96.79 86.6423Z" fill="white"/>
<path d="M64.3009 119.017C64.2205 119.01 64.2528 119.013 64.3009 119.017V119.017Z" fill="white"/>
<path d="M64.3052 119.016C64.3075 119.016 64.306 119.016 64.3083 119.016C64.3083 119.016 64.3067 119.016 64.3052 119.016C64.3083 119.017 64.3083 119.017 64.3113 119.018C64.3144 119.019 64.3197 119.021 64.3197 119.021C64.3205 119.012 64.3289 119.009 64.3304 119.001C64.3235 119.005 64.3167 119.011 64.3098 119.016C64.2266 118.996 64.2571 119.004 64.3052 119.016Z" fill="white"/>
<path d="M21.0508 121.685C21.0847 121.682 21.1195 121.679 21.1558 121.673L21.1573 121.671C21.1697 121.677 21.1828 121.681 21.1944 121.687C21.1897 121.673 21.1751 121.671 21.172 121.655C21.1311 121.665 21.0909 121.675 21.0508 121.685Z" fill="white"/>
<path d="M55.0263 123.704C55.0171 123.704 55.0072 123.708 54.998 123.711C55.0232 123.715 55.0484 123.719 55.0736 123.723C55.0576 123.716 55.0423 123.704 55.0263 123.704Z" fill="white"/>
<path d="M54.9992 123.71C54.993 123.709 54.9875 123.707 54.9813 123.707L54.9688 123.719C54.9789 123.715 54.9891 123.713 54.9992 123.71Z" fill="white"/>
<path d="M221.148 54.6242C221.639 55.1185 222.048 55.6759 222.4 56.2792C223.103 57.4889 223.555 58.799 223.891 60.1543C224.395 62.1884 224.614 64.2638 224.738 66.3493C224.799 67.3784 224.783 68.4122 224.794 69.4444C224.812 71.2248 224.66 72.9911 224.323 74.7387C224.044 76.1836 223.609 77.5739 222.859 78.8482C222.016 80.2814 220.856 81.3299 219.278 81.8756C219.17 81.913 219.066 81.9667 218.96 82.0126C218.965 82.0352 218.971 82.057 218.977 82.0796C219.365 82.0017 219.756 81.9395 220.14 81.8437C222.56 81.2435 224.466 79.9155 225.739 77.7288C226.075 77.152 226.356 76.5378 226.607 75.9181C227.102 74.6897 227.371 73.399 227.554 72.0889C227.846 70.0119 227.846 67.9265 227.738 65.8379C227.645 64.0131 227.435 62.204 226.974 60.4315C226.574 58.8917 226.008 57.422 225.166 56.069C224.859 55.5747 224.483 55.1527 224.023 54.7986C223.111 54.0917 222.117 53.5406 221.034 53.1529C219.816 52.7177 218.56 52.5068 217.272 52.4336C215.328 52.3238 213.437 52.5581 211.594 53.1996C211.113 53.367 210.685 53.6052 210.319 53.9602C210.131 54.1431 209.938 54.3221 209.758 54.5136C208.676 55.665 207.946 57.0288 207.421 58.5133C206.676 60.6136 206.36 62.7972 206.327 65.0119C206.285 67.7568 206.545 70.4775 207.266 73.1382C207.706 74.7668 208.298 76.3291 209.193 77.763C209.923 78.9338 210.815 79.9505 211.959 80.7266C212.065 80.799 212.184 80.8535 212.298 80.9166C212.262 80.7188 212.167 80.5935 212.06 80.4775C211.524 79.889 211.11 79.2195 210.788 78.4925C210.476 77.7911 210.24 77.0624 210.062 76.3136C209.711 74.8384 209.518 73.3383 209.442 71.8281C209.302 69.0708 209.185 66.3127 208.983 63.5585C208.962 63.2713 208.961 62.9833 208.946 62.6952C208.888 61.589 208.95 60.4875 209.096 59.3922C209.266 58.1241 209.58 56.8981 210.203 55.7693C211.008 54.3112 212.206 53.346 213.794 52.91C215.12 52.5457 216.465 52.52 217.814 52.8041C219.106 53.0766 220.215 53.6838 221.148 54.6242Z" fill="white"/>
<path d="M317.347 41.1902C316.484 41.0173 315.624 40.8484 314.739 40.8858C313.944 40.9185 313.178 40.8188 312.453 40.4592C312.29 40.3782 312.089 40.3346 311.908 40.3416C310.745 40.3891 309.579 40.4132 308.422 40.5269C307.112 40.6554 306.178 41.3676 305.659 42.6069C305.618 42.7066 305.613 42.8218 305.58 42.9845C305.73 42.958 305.82 42.9471 305.906 42.9253C306.621 42.7408 307.343 42.621 308.083 42.5875C308.899 42.5509 309.635 42.7681 310.298 43.2336C310.589 43.4391 316.29 43.8252 316.784 43.7793C317.285 43.7326 317.428 43.8774 317.466 44.3709C317.608 46.1731 317.568 47.9658 317.211 49.7454C316.947 51.0618 316.728 52.3867 316.614 53.7264C316.54 54.6092 316.343 54.7221 315.526 54.3508C315.181 54.1935 314.84 54.023 314.496 53.8627C314.069 53.6642 313.635 53.6509 313.175 53.7498C312.433 53.9094 311.792 54.2472 311.249 54.775C310.975 55.0412 310.714 55.3207 310.452 55.5978C310.04 56.0322 309.609 56.444 309.092 56.7515C309.018 56.7959 308.905 56.8115 308.937 56.9695C309.831 56.9236 310.73 56.8839 311.627 56.8278C311.786 56.8177 311.965 56.7733 312.096 56.6853C312.888 56.1583 313.77 56.0556 314.687 56.0711C315.114 56.0781 315.541 56.0501 315.968 56.0369C316.297 56.026 316.557 55.8789 316.775 55.6352C317.182 55.1798 317.478 54.6629 317.572 54.0542C317.653 53.5334 317.705 53.0079 317.751 52.4825C317.967 50.0459 318.177 47.6085 318.385 45.1712C318.434 44.5975 318.474 44.023 318.496 43.4477C318.52 42.8343 318.369 42.2598 318.058 41.7296C317.893 41.4502 317.687 41.2579 317.347 41.1902Z" fill="white"/>
<path d="M202.415 39.6653C202.411 39.6902 202.388 39.7004 202.398 39.7369C202.568 39.67 202.723 39.6132 202.875 39.5478C206.531 37.9652 210.359 37.1268 214.316 36.8512C215.856 36.743 217.396 36.7757 218.937 36.8644C220.716 36.9672 222.472 37.221 224.214 37.5954C225.852 37.948 227.443 38.4564 229.014 39.0332C228.992 38.9772 228.951 38.9445 228.914 38.9071C229.039 38.9764 229.138 39.1041 229.306 39.0721L228.903 38.8931C228.801 38.7989 228.676 38.7335 228.555 38.6689C224.482 36.5024 220.136 35.4975 215.543 35.5683C213.711 35.5963 211.903 35.8314 210.116 36.2424C207.405 36.866 204.885 37.9356 202.569 39.4925C202.51 39.5322 202.438 39.575 202.417 39.6583L202.223 39.7253C202.287 39.705 202.35 39.6856 202.415 39.6653Z" fill="white"/>
<path d="M231.803 40.5327L232.166 40.6588C232.118 40.637 232.07 40.6113 232.02 40.595C231.948 40.5708 231.875 40.5529 231.803 40.5327Z" fill="white"/>
<path d="M135.434 103.067L135.857 102.973C135.718 103.015 135.548 102.91 135.434 103.067Z" fill="white"/>
</svg>
