<svg width="175" height="146" viewBox="0 0 175 146" fill="none" xmlns="http://www.w3.org/2000/svg">
<path d="M162.922 84.9745C144.061 83.1801 136.712 69.6317 129.981 54.5029C124.989 43.2757 112.925 27.077 98.9746 27.6696C86.6339 28.1799 78.0978 22.6157 69.6268 15.2735C54.9448 2.54821 39.5311 -6.71997 19.9389 6.26872C26.1661 15.0102 20.8169 25.0357 8.76885 26.2704C5.33818 26.6161 1.74496 24.0973 0.688116 30.1389C-0.0760629 34.452 -1.32809 37.5634 4.16749 39.7858C6.68766 40.8393 8.42742 44.6915 9.79319 47.6218C18.1992 65.5656 36.4257 78.1591 37.5638 100.218C37.6939 102.836 40.9132 106.375 43.5471 107.61C49.4004 110.343 51.189 115.676 54.1319 120.566C58.473 127.793 63.5947 134.559 71.4153 146C69.6105 130.575 77.1872 133.275 82.9267 133.39C88.5849 133.522 94.6171 133.39 99.7875 135.283C104.226 136.946 106.633 136.584 108.762 132.764C113.575 124.089 122.079 121.669 130.598 121.307C142.744 120.796 153.54 116.039 164.743 112.401C174.628 109.19 174.401 99.6753 174.97 92.1027C175.555 84.5795 167.523 85.4025 162.922 84.9745Z" fill="#008755"/>
</svg>
