<?xml version="1.0" encoding="UTF-8"?>
<svg id="Layer_2" data-name="Layer 2" xmlns="http://www.w3.org/2000/svg" viewBox="0 0 84.92 60.91">
  <defs>
    <style>
      .cls-1 {
        fill: #de6519;
      }

      .cls-1, .cls-2, .cls-3, .cls-4, .cls-5, .cls-6, .cls-7, .cls-8, .cls-9, .cls-10, .cls-11, .cls-12 {
        stroke-width: 0px;
      }

      .cls-2 {
        fill: #dd491b;
      }

      .cls-3 {
        fill: #1f2447;
      }

      .cls-4 {
        fill: #de5c18;
      }

      .cls-5 {
        fill: #dc6e18;
      }

      .cls-6 {
        fill: #222749;
      }

      .cls-7 {
        fill: #df4f1b;
      }

      .cls-8 {
        fill: #e0281e;
      }

      .cls-9 {
        fill: #e03a1b;
      }

      .cls-10 {
        fill: #e1251e;
      }

      .cls-11 {
        fill: #de5f13;
      }

      .cls-12 {
        fill: #1f2547;
      }
    </style>
  </defs>
  <g id="Layer_1-2" data-name="Layer 1">
    <g>
      <path class="cls-3" d="m30.24,32.63c4.58,0,9.15.01,13.72,0,1.21,0,2.07-1.01,2.06-2.29-.01-1.26-.87-2.2-2.09-2.2-3.04-.01-6.08-.01-9.12,0-.44,0-.5-.13-.56-.55-.19-1.41.31-2.5,1.26-3.54,1.3-1.42,2.47-2.96,3.68-4.46.21-.27.42-.4.78-.39,1.02.03,2.05,0,3.19,0-1.58,1.93-3.1,3.8-4.64,5.69.2.16.38.1.54.1,1.63,0,3.27-.01,4.9,0,2.68.03,4.88,1.72,5.45,4.14.27,1.17.14,2.3-.35,3.5,1.29-.05,2.52.13,3.73-.11.96-.19,1.48-.85,1.67-1.78.18-.93.08-1.87.1-2.81.02-.85.01-1.7,0-2.55,0-.27.03-.41.36-.4.92.02,1.84,0,2.76.01.14,0,.33-.05.32.21-.03,2.07.15,4.14-.07,6.2-.24,2.23-1.69,3.64-4,4.15-.77.17-1.54.22-2.33.22-7.75,0-15.5,0-23.24-.02-.51,0-.82.16-1.12.54-.98,1.24-1.99,2.45-2.99,3.68-.12.14-.21.31-.44.31-1.19,0-2.38,0-3.68,0,.79-.97,1.52-1.86,2.25-2.76.37-.46.75-.91,1.12-1.37.09-.11.29-.21.2-.38-.06-.13-.25-.08-.39-.1-2.01-.32-3.63-1.27-4.7-3.03-2.25-3.69-.17-8.39,4.11-9.37,3.5-.8,6.97,1.01,8,4.23.51,1.58.4,3.15-.33,4.66-.06.12-.12.25-.18.38,0,.01,0,.03.02.1Zm-2.77-3.18c.01-1.92-1.3-3.34-3.1-3.35-1.78,0-3.14,1.44-3.13,3.34.01,1.87,1.34,3.28,3.12,3.29,1.77.01,3.1-1.39,3.11-3.28Z"/>
      <path class="cls-3" d="m73.21,32.63c2.03,0,4,.04,5.96-.01,1.42-.04,2.25-.97,2.28-2.51.04-1.54.03-3.09,0-4.64,0-.39.09-.5.49-.48.85.03,1.7.02,2.55,0,.35-.01.43.11.42.44-.02,1.63-.05,3.27,0,4.9.09,3.15-1.88,5.01-4.86,5.36-1.56.18-3.12.06-4.69.08-1.42.02-2.85.01-4.27,0-.27,0-.44.08-.61.29-1.06,1.31-2.13,2.61-3.19,3.92-.18.22-.36.32-.65.32-1.12-.02-2.25,0-3.48,0,.34-.43.63-.78.92-1.14.8-.98,1.61-1.96,2.41-2.94.1-.13.32-.24.24-.42-.06-.15-.28-.09-.43-.11-4.37-.54-6.9-5.24-4.85-9.12,1.27-2.41,3.43-3.47,6.1-3.46,2.93.01,5.44,1.84,6.24,4.49.48,1.59.37,3.16-.4,4.65-.05.11-.1.21-.19.4Zm-2.69-3.18c0-1.9-1.33-3.35-3.1-3.34-1.79,0-3.13,1.43-3.13,3.32,0,1.88,1.36,3.32,3.14,3.31,1.77,0,3.09-1.41,3.09-3.29Z"/>
      <path class="cls-3" d="m45.31,54.86c.06-1.59-.12-3.56.09-5.51.33-3.12,2.46-5.13,5.59-5.35,1.83-.13,3.55.18,4.99,1.38,2.11,1.75,2.57,4.08,1.98,6.61-.59,2.51-2.3,4.02-4.79,4.61-1.39.33-2.77.2-4.07-.4-.38-.18-.42-.05-.42.29.01,1.3-.02,2.61.02,3.91.01.43-.13.51-.52.5-.82-.03-1.63-.02-2.45,0-.32,0-.41-.09-.41-.41.01-1.75,0-3.51,0-5.63Zm6.43-1.16c1.59-.01,2.78-1.19,3-2.95.26-2.09-1.24-3.82-3.21-3.73-1.59.08-2.76,1.39-2.85,3.21-.1,1.94,1.26,3.48,3.06,3.47Z"/>
      <path class="cls-3" d="m78.1,43.98c3.22,0,5.84,1.91,6.6,4.72.93,3.43-1.11,6.88-4.62,7.81-3.16.84-6.5-.53-7.91-3.23-1.96-3.77.29-8.34,4.52-9.17.5-.1,1-.14,1.4-.13Zm.15,3.04c-1.83-.03-3.17,1.36-3.2,3.31-.03,1.88,1.28,3.33,3.03,3.37,1.83.04,3.22-1.34,3.26-3.26.04-1.92-1.29-3.39-3.1-3.42Z"/>
      <path class="cls-3" d="m17.71,52.2c0-1.01,0-2.01,0-3.02.02-2.71,1.35-4.41,4.01-5,1.89-.42,3.77-.33,5.51.65,1.39.79,2.18,2.02,2.22,3.6.08,2.55.03,5.1.06,7.65,0,.31-.13.33-.38.33-.87,0-1.74-.02-2.6,0-.37.01-.42-.13-.42-.45.01-2,0-3.99,0-5.99,0-.12,0-.24,0-.36-.06-2.05-1.61-3.1-3.55-2.42-.92.32-1.45,1.16-1.45,2.41-.01,2.07-.02,4.13,0,6.2,0,.51-.13.64-.63.61-.76-.05-1.53-.04-2.29,0-.44.02-.51-.14-.5-.53.02-1.23,0-2.47,0-3.7Z"/>
      <path class="cls-3" d="m31.52,48.46c0-1.25.01-2.5,0-3.75,0-.31.07-.42.4-.41.83.02,1.67.03,2.5,0,.39-.02.49.09.49.48-.02,1.94-.01,3.89,0,5.83,0,.29.01.59.05.88.2,1.52,1.1,2.26,2.63,2.19,1.45-.07,2.3-.93,2.32-2.46.03-2.14.02-4.27,0-6.41,0-.41.09-.54.51-.52.85.03,1.7.02,2.55,0,.26,0,.36.06.36.34-.01,2.47.02,4.93-.03,7.4-.04,2.21-1.44,3.86-3.71,4.44-1.65.42-3.3.39-4.92-.18-1.91-.67-3.08-2.27-3.12-4.3-.03-1.18,0-2.36,0-3.54,0,0,0,0,0,0Z"/>
      <path class="cls-12" d="m66.89,43.99c1.23.04,2.58.36,3.85,1.04.29.16.37.28.18.58-.39.61-.75,1.25-1.09,1.89-.14.27-.26.28-.52.15-.78-.4-1.62-.64-2.51-.58-1.85.13-3.11,1.73-2.9,3.63.24,2.2,1.98,3.39,4.17,2.85.44-.11.87-.25,1.27-.47.23-.13.35-.11.48.14.36.67.75,1.33,1.13,1.99.09.15.2.27-.05.41-3.17,1.83-7.56,1.55-9.93-1.7-2.13-2.9-1.29-6.87,1.79-8.8,1.2-.76,2.52-1.15,4.14-1.13Z"/>
      <path class="cls-8" d="m.05,4.54c-.05-.3.15-.44.37-.56C2.63,2.7,4.84,1.41,7.05.12c.25-.15.48-.17.72,0,.44.29.89.56,1.34.85-.04.41-.53.33-.68.63-.14.26-.34.27-.56.11-.14-.1-.29-.18-.39,0-.08.13-.09.35.06.42.21.1.39.3.32.43-.1.18-.39.12-.61.08-.18-.04-.32.07-.47.16-.23.14,0,.22.03.32-1.43.85-2.86,1.69-4.29,2.54-.03,0-.05,0-.08,0-.24,0-.34.21-.49.34-.17.14-.28.34-.53.39-.66.13-1.06.5-1.06,1.21,0,.14-.06.23-.2.24-.05-.31.08-.63-.08-.92-.01-.79-.02-1.58-.03-2.37Z"/>
      <path class="cls-10" d="m21.72,19.47c-.03.21-.22.25-.36.34-2.17,1.27-4.35,2.52-6.51,3.8-.34.2-.62.21-.95,0-.3-.2-.64-.33-.92-.57-.05-.1-.11-.18-.24-.16,0,0,.01,0,.01,0-.02-.07-.03-.13-.05-.2-.03-.13-.08-.29.03-.39.13-.11.25.04.37.09.06.03.12.07.17.11.28.22.43.18.44-.2,0-.12-.01-.3.05-.34.31-.22.46-.72,1-.58.26.07.46-.06.57-.34-.14-.14-.46.02-.48-.29,0,0,0,0,0,0,.04-.02.08-.05.11-.07v-.03s.04,0,.04,0c.02,0,.03-.02.05-.03,1.34-.82,2.69-1.63,4.08-2.37.18.36.37.23.5-.02.12-.23.12-.5.13-.76.01-.38-.08-.77.07-1.17.41.51.3,1.12.44,1.67.2-.68.01-1.39.24-2.06.07.38.06.77.08,1.15.01.22-.12.6.21.6.35,0,.18-.37.19-.58.03-.5,0-1,0-1.5.04,0,.09,0,.13,0,.2.7.32,1.42.33,2.21.25-.17.07-.38.26-.5v2.14Z"/>
      <path class="cls-5" d="m14.55,4.16c.24.07.29.23.29.47,0,2.41,0,4.81,0,7.22,0,.61-.28.77-.83.48-.43-.22-.85-.46-1.29-.67-.27-.13-.39-.32-.39-.61.01-1.66.02-3.32.03-4.99.15.16.08.36.08.55,0,.24.13.31.33.27.36-.07.72-.16,1.17-.26-.2-.18-.5-.19-.43-.46.05-.17.19-.29.34-.37.32-.16.18.31.46.31-.04-.67.04-1.31.23-1.94Zm.06.77s-.03,0-.04,0v1.33h.04v-1.33Z"/>
      <path class="cls-5" d="m7.04,19.5c-.13-.15-.09-.33-.09-.5,0-2.3,0-4.61,0-6.91,0-.82.19-.85.99-.58,1.24.43,1.67,1.18,1.53,2.48-.13,1.2-.02,2.42-.02,3.63,0,.23,0,.45.17.63-.09,0-.19,0-.28,0,0-.1,0-.21,0-.31,0-.65.06-1.29-.2-1.92-.07-.17-.1-.31-.3-.25-.38.12-.76.22-1.16.2-.12,0-.2.06-.2.18,0,.12.04.2.17.22.14.02.37-.02.31.22-.05.19-.2.41-.44.36-.25-.04-.25.08-.26.25-.06.76-.14,1.53-.2,2.29Z"/>
      <path class="cls-9" d="m21.72,19.47v-2.14c-.19.11-.01.33-.26.5,0-.79-.12-1.51-.33-2.21-.04,0-.09,0-.13,0,0,.5.02,1,0,1.5-.01.2.16.58-.19.58-.33,0-.2-.38-.21-.6-.02-.38,0-.77-.08-1.15-.23.67-.05,1.37-.24,2.06-.14-.55-.03-1.16-.44-1.67-.15.39-.06.79-.07,1.17,0,.26,0,.53-.13.76-.14.26-.32.39-.5.02,0,0,0,0,0,0,.03-.03.07-.06.1-.09,0,0,0,0,0,0,.16-.14.1-.32.1-.49,0-.73-.01-1.46,0-2.19.01-.43-.06-.96.16-1.26.33-.46.31-.81.08-1.25-.06-.11-.07-.25.09-.3.14-.05.21.01.28.15.15.28.23.56.22.88,0,.21-.08.46.14.65-.07-.79.3-1.5.36-2.27.2.61.01,1.25.17,1.85.06,0,.12,0,.19,0v-2.67c.27.57.07,1.18.25,1.79.27-.32-.03-.72.33-1.06v4.3s.07,0,.11,0v-4.77c.02,2.19.04,4.39.05,6.58,0,.46.09.93-.06,1.39Z"/>
      <path class="cls-6" d="m50.41,41.13c-.94,0-1.73-.76-1.74-1.7-.02-.95.79-1.76,1.74-1.75.94,0,1.71.79,1.71,1.73,0,.94-.77,1.72-1.72,1.72Z"/>
      <path class="cls-6" d="m79.07,23.73c0,.94-.78,1.72-1.72,1.72-.97,0-1.75-.79-1.73-1.76.02-.95.8-1.7,1.74-1.69.95.01,1.71.78,1.7,1.73Z"/>
      <path class="cls-1" d="m17.46,11.77c-.45-.17-.81-.5-1.21-.76-.29-.19-.33-2.3-.07-2.53.29-.27.56-.07.81.07.9.51,1.78,1.04,2.67,1.57.24.14.47.29.7.44-.33.21-.79.2-1.02.57-.19.3-.41.43-.77.27-.09-.04-.25-.02-.32.19.29-.03.51.06.61.35-.36.24-.67-.03-.87-.19-.25-.21-.37-.21-.53.03Z"/>
      <path class="cls-4" d="m2.44,5.65s.05,0,.08,0c0,1.66,0,3.32-.01,4.98,0,.25.08.41.3.54.55.35,1.16.6,1.67,1.02-.18.03-.46.04-.34.31.25.54-.12.51-.45.56-.19.02-.37-.06-.54.18-.39.59-.54.57-.83-.01-.14.09-.29.18-.44.27-.61-.3-1.24-.59-1.75-1.05l.03-.03c.34-.14.59-.35.61-.75,0-.13.03-.24.19-.26.68-.11.85-.87,1.43-1.13.05-.02.05-.19.05-.29,0-.68-.01-1.35-.02-2.03,0-.76.01-1.52.02-2.28Z"/>
      <path class="cls-7" d="m9.33,18.26c.09,0,.19,0,.28,0,.97.51,1.94,1.04,2.85,1.66-.02.11-.08.24-.19.2-.57-.21-.84.11-1.04.56-.02.04-.07.07-.11.11-.51.4-.51.41.02.72-.02.23-.41-.08-.36.25-1.2-.63-2.37-1.3-3.5-2.04.12,0,.27-.03.36.03.48.35.69.1.87-.33.1-.23.32-.45.56-.36.39.13.56-.17.91-.27-.34-.12-.59-.04-.83.06-.05-.26.2-.37.18-.57Z"/>
      <path class="cls-7" d="m17.46,11.77c.17-.25.28-.24.53-.03.2.16.51.43.87.19-.1-.29-.33-.38-.61-.35.07-.21.23-.24.32-.19.35.17.58.04.77-.27.23-.37.69-.36,1.02-.57.48.29,1.07.41,1.39.95,0,1.59,0,3.18,0,4.77-.04,0-.07,0-.11,0v-4.3c-.36.34-.06.74-.33,1.06-.19-.62.01-1.22-.25-1.79v2.67c-.06,0-.12,0-.19,0-.15-.6.03-1.25-.17-1.85-.06.77-.43,1.48-.36,2.27-.22-.19-.15-.44-.14-.65.01-.32-.07-.6-.22-.88-.07-.13-.15-.19-.28-.15-.16.05-.15.19-.09.3.23.44.25.79-.08,1.25-.22.3-.15.83-.16,1.26-.02.73,0,1.46,0,2.19,0,.17.06.35-.1.49.09-1.69.03-3.39.03-5.08,0-.18-.06-.33-.23-.43-.53-.29-1.05-.58-1.58-.88Z"/>
      <path class="cls-11" d="m9.33,18.26c.02.2-.23.31-.18.57.24-.1.48-.17.83-.06-.35.1-.52.41-.91.27-.24-.08-.47.13-.56.36-.18.44-.39.68-.87.33-.08-.06-.24-.02-.36-.03-.14,0-.24-.05-.24-.21.07-.76.14-1.53.2-2.29.01-.17,0-.29.26-.25.24.04.39-.17.44-.36.07-.24-.16-.2-.31-.22-.12-.02-.18-.1-.17-.22,0-.13.09-.19.2-.18.4.03.78-.07,1.16-.2.19-.06.23.09.3.25.26.63.19,1.27.2,1.92,0,.1,0,.21,0,.31Z"/>
      <path class="cls-4" d="m14.84,15.53c0,.31.02.62,0,.93-.03.39-.3.56-.65.4-.53-.25-1.04-.54-1.56-.81-.2-.1-.26-.28-.26-.47,0-.61-.02-1.21,0-1.82.02-.48.26-.63.69-.43.49.23.95.49,1.43.73.24.12.36.3.35.58,0,.29,0,.59,0,.88h0Z"/>
      <path class="cls-9" d="m10.78,21.76c-.05-.34.34-.02.36-.25-.53-.31-.53-.32-.02-.72.04-.03.09-.06.11-.11.21-.45.47-.77,1.04-.56.11.04.17-.09.19-.2.46.25.93.47,1.37.76.35.23.66.29,1.02.07.02.31.34.15.48.29-.11.27-.31.4-.57.34-.53-.14-.69.36-1,.58-.07.05-.05.23-.05.34-.01.38-.17.42-.44.2-.05-.04-.11-.09-.17-.11-.12-.05-.24-.2-.37-.09-.11.1-.06.26-.03.39.02.07.03.13.05.2-.69-.32-1.33-.72-1.96-1.13Z"/>
      <path class="cls-7" d="m10.8,1.97c.31-.05.5.19.73.33,1,.58,1.98,1.17,2.97,1.76-.33,0-.73.18-.88-.33-.01-.04-.15-.05-.23-.06-.42-.04-.88.37-.94.83h0q-.67.36-.23.95s.01.06.02.1c-.73-.39-1.5-.74-2.16-1.26.1,0,.23.03.28-.08.07-.16-.11-.14-.17-.18-.29-.18-.59-.34-.88-.51-.1-.06-.24-.13-.16-.28.07-.12.19-.02.28,0,.31.06.58.32.93.22.01.07.01.14.1.15.02,0,.06-.04.06-.06-.01-.09-.09-.09-.15-.1-.52-.39-.23-.57.19-.72.08-.03.15-.08.22-.11.01.08.01.16.12.16.01,0,.03-.02.03-.03,0-.11-.08-.11-.16-.12,0-.22,0-.43.01-.65Z"/>
      <path class="cls-5" d="m1.9,13.48c.15-.09.29-.18.44-.27.29.58.44.6.83.01.16-.24.35-.16.54-.18.33-.04.69-.01.45-.56-.12-.27.16-.28.34-.31.05.01.1.02.15.04.89.32,1.32.91,1.13,1.89-.05.25,0,.52-.01.78-.01.48-.3.69-.71.45-1.06-.6-2.15-1.17-3.15-1.86Z"/>
      <path class="cls-9" d="m10.8,1.97c0,.22,0,.43-.01.65h0c-.07.04-.15.09-.22.11-.42.15-.71.32-.19.72h0c-.35.1-.62-.16-.93-.22-.09-.02-.21-.12-.28,0-.08.15.05.21.16.28.29.17.59.33.88.51.07.04.25.02.17.18-.05.11-.18.08-.28.08,0,0-.03-.01-.03-.01-.04-.03-.08-.05-.12-.08,0,0,0,0,0,0,0-.04,0-.08.01-.12,0-.02.02-.03.02-.05,0,.01-.02.03-.03.04-.05,0-.11.02-.16.03-.19-.03-.33-.12-.46-.25-.06-.03-.12-.07-.18-.1h-.03s0-.02,0-.02c-.04-.02-.08-.05-.11-.07-.14-.02-.25-.09-.34-.2,0,0-.03-.02-.03-.02h-.03s-.01-.02-.01-.02c-.06-.1-.15-.18-.28-.16-.06-.02-.14-.02-.19-.06-.42-.35-.85-.43-1.32-.1-.03-.1-.26-.18-.03-.32.15-.09.29-.19.47-.16.22.04.5.1.61-.08.07-.13-.11-.33-.32-.43-.15-.07-.14-.29-.06-.42.11-.17.25-.1.39,0,.21.16.42.15.56-.11.15-.29.64-.22.68-.63.61.26,1.2.54,1.68,1.01Z"/>
      <path class="cls-11" d="m12.46,4.5c.06-.46.52-.88.94-.83.08,0,.22.02.23.06.14.52.55.33.88.33.02.03.04.06.05.09-.19.63-.27,1.28-.23,1.94-.28,0-.15-.47-.46-.31-.15.08-.29.2-.34.37-.07.27.23.28.43.46-.45.1-.8.19-1.17.26-.2.04-.33-.04-.33-.27,0-.18.06-.38-.08-.55-.06-.17,0-.37-.13-.53,0-.03,0-.07-.02-.1q-.43-.59.23-.95c.01.07.01.16.12.16.01,0,.03-.02.03-.03,0-.11-.08-.11-.16-.12Z"/>
      <path class="cls-4" d="m.05,4.54c.01.79.02,1.58.03,2.37,0,1.76-.01,3.53-.02,5.29h0c-.1-.39-.05-.79-.05-1.18,0-2.16.02-4.32.03-6.48Z"/>
      <path class="cls-7" d="m8.33,3.27c.13-.01.21.06.28.16-.12,0-.21-.07-.28-.16Z"/>
      <path class="cls-9" d="m12.73,22.88c.13-.02.19.06.24.16-.11,0-.19-.06-.24-.16Z"/>
      <path class="cls-4" d="m.14,12.43c-.1-.05-.11-.13-.08-.23,0,0,0,0,0,0,.04.06.07.13.11.19l-.03.03Z"/>
      <path class="cls-7" d="m9.15,3.76c.06.03.12.07.18.1-.08,0-.15,0-.18-.1Z"/>
      <path class="cls-7" d="m19.23,18.16s-.07.06-.1.09c.03-.03.07-.06.1-.09Z"/>
      <path class="cls-9" d="m15.04,20.63s-.03.02-.05.03c0,0,0-.05,0-.05h.04Z"/>
      <path class="cls-9" d="m14.96,20.69s-.08.05-.11.07c.02-.06.05-.09.11-.07Z"/>
      <path class="cls-7" d="m9.94,4.2s.08.05.12.08c-.04-.03-.08-.05-.12-.08Z"/>
      <path class="cls-7" d="m9.79,4.11c.05,0,.11-.02.16-.03h0s0,.08-.01.12c-.05-.03-.1-.06-.15-.1Z"/>
      <polygon class="cls-7" points="8.64 3.45 8.67 3.47 8.65 3.48 8.64 3.45"/>
      <path class="cls-7" d="m9.01,3.67s.08.05.11.07c-.04-.02-.08-.05-.11-.07Z"/>
      <path class="cls-2" d="m.17,12.4c-.04-.06-.07-.13-.11-.19,0-1.76.01-3.53.02-5.29.16.3.03.62.08.92,0,.67,0,1.35,0,2.02.08.03.17.07.25.1-.27-.82.25-1.05.75-1.3.06-.03.11-.09.15-.14.29-.35.68-.52,1.12-.57,0,.68.01,1.35.02,2.03,0,.1,0,.27-.05.29-.57.26-.74,1.02-1.43,1.13-.16.02-.18.13-.19.26-.02.4-.27.61-.61.75Z"/>
      <path class="cls-9" d="m2.43,7.94c-.45.05-.83.22-1.12.57-.04.05-.09.11-.15.14-.49.25-1.02.48-.75,1.3-.08-.03-.17-.07-.25-.1,0-.67,0-1.35,0-2.02.15-.02.2-.1.2-.24,0-.71.4-1.08,1.06-1.21.25-.05.36-.25.53-.39.15-.13.25-.34.49-.34,0,.76-.01,1.52-.02,2.28Z"/>
      <path class="cls-11" d="m14.62,4.92v1.32h-.04v-1.32s.03,0,.04,0Z"/>
      <path class="cls-9" d="m10.79,2.62c.07.01.16.01.16.12,0,.01-.02.03-.03.03-.11,0-.11-.08-.12-.16h0Z"/>
      <path class="cls-9" d="m10.37,3.46c.07.01.14.01.15.1,0,.02-.04.06-.06.06-.09-.01-.09-.09-.1-.15,0,0,0,0,0,0Z"/>
      <path class="cls-7" d="m9.95,4.08s.02-.03.03-.04c0,.02-.02.03-.02.05,0,0,0,0,0,0Z"/>
      <path class="cls-7" d="m12.46,4.5c.07.01.16.01.16.12,0,.01-.02.03-.03.03-.11,0-.11-.08-.12-.16h0Z"/>
    </g>
  </g>
</svg>