<svg width="24" height="26" viewBox="0 0 24 26" fill="none" xmlns="http://www.w3.org/2000/svg">
<path d="M3.50016 0.905567V19.0963C2.6214 19.191 1.80793 19.5306 1.17193 20.0818C1.11088 20.1341 1.05622 20.1901 1.00015 20.2455V3.46663C1.00015 2.18087 2.08406 1.11289 3.50016 0.905567ZM22.9999 1.29991V19.0667H4.50031V0.86681H22.5001C22.7755 0.86681 22.9999 1.06059 22.9999 1.29991ZM4.08293 23.4002C3.51294 23.4002 3.02813 23.0317 3.00186 22.5789C2.98767 22.3371 3.08491 22.1083 3.27515 21.9354C3.46538 21.7625 3.72305 21.6666 3.99988 21.6666H22.5001V23.4002H4.08293ZM22.9999 25.1332H4.14469C3.28579 25.1332 2.44678 24.8231 1.84271 24.283C1.27556 23.7755 0.977434 23.124 1.00157 22.4485C1.02499 21.7878 1.33661 21.1646 1.87821 20.6946C2.44536 20.2036 3.19849 19.9329 3.99988 19.9329H22.9991V20.7998H3.99988C3.44622 20.7998 2.93088 20.9911 2.55041 21.3381C2.16923 21.685 1.97545 22.1415 2.00243 22.6226C2.05637 23.5448 2.96992 24.2664 4.08293 24.2664H22.9999V25.1332ZM0 22.5334H0.00496911C0.0070986 23.4045 0.398924 24.2368 1.12508 24.8865C1.91654 25.5946 3.01677 26 4.14469 26H22.9999C23.5514 26 24 25.6112 24 25.1332V24.2664C24 23.9471 23.797 23.6709 23.4996 23.5201V21.5454C23.797 21.3953 24 21.119 24 20.7998V1.29991C24 0.583204 23.3271 0 22.5001 0H3.99988C1.79445 0 0 1.55521 0 3.46663V22.5334Z" fill="#008056"/>
<path d="M8.99996 15.1658H17.9999C18.276 15.1658 18.4996 14.972 18.4996 14.7327C18.4996 14.4927 18.276 14.299 17.9999 14.299H8.99996C8.72313 14.299 8.50024 14.4927 8.50024 14.7327C8.50024 14.972 8.72313 15.1658 8.99996 15.1658Z" fill="#008056"/>
<path d="M15.9997 16.4667H10.9997C10.7236 16.4667 10.5 16.6605 10.5 16.8998C10.5 17.1397 10.7236 17.3335 10.9997 17.3335H15.9997C16.2766 17.3335 16.4995 17.1397 16.4995 16.8998C16.4995 16.6605 16.2766 16.4667 15.9997 16.4667Z" fill="#008056"/>
</svg>
