<svg width="27" height="27" viewBox="0 0 27 27" fill="none" xmlns="http://www.w3.org/2000/svg">
<path d="M5.28939 2.26267C4.97606 2.26267 4.64672 2.412 4.35606 2.696L2.34672 4.70534C1.85339 5.19867 1.57739 5.78 1.51739 6.49067C1.42806 7.56533 1.64406 8.75334 2.18939 10.2093C3.08539 12.6227 4.43739 14.8707 6.44006 17.2907C8.87472 20.204 11.8094 22.504 15.1641 24.124C16.3961 24.7067 18.0321 25.3947 19.7867 25.5067H19.8547C21.0267 25.5067 21.7214 25.2 22.3107 24.5573C22.6481 24.1613 23.0214 23.804 23.3801 23.452C23.7001 23.1467 23.9321 22.9147 24.1641 22.668C24.7907 22.0187 24.7987 21.376 24.1787 20.756L20.9227 17.5067C20.7654 17.3347 20.4441 17.052 20.0334 17.052C19.7201 17.052 19.3987 17.208 19.1067 17.5067L17.0827 19.5307C16.8294 19.7853 16.5374 19.92 16.2174 19.92C16.0227 19.92 15.8427 19.8667 15.6561 19.7773C15.4107 19.628 15.2161 19.5307 14.9987 19.4187C14.6627 19.248 14.4694 19.1507 14.2827 19.0227C12.3854 17.8213 10.6747 16.2667 9.05339 14.2653C8.16539 13.1453 7.57472 12.1893 7.14939 11.1587C7.01472 10.7627 6.94006 10.3067 7.41872 9.82134C7.94139 9.35867 8.38939 8.90267 8.86672 8.424L9.19606 8.208L9.13606 8.148L9.44272 7.84267C9.75606 7.52133 9.92006 7.2 9.92006 6.89334C9.92006 6.58667 9.75606 6.26667 9.44272 5.94534L7.08139 3.57734C6.78272 3.27067 6.49872 2.98667 6.20006 2.71067C5.91739 2.42 5.60272 2.26267 5.28939 2.26267ZM19.8094 26.9933C17.6881 26.8587 15.8654 26.104 14.5067 25.4547C10.9587 23.736 7.85072 21.3013 5.28139 18.232C3.16006 15.684 1.72672 13.2947 0.777391 10.7173C0.157391 9.052 -0.0812757 7.66267 0.0240576 6.36267C0.113391 5.31067 0.532057 4.39867 1.28539 3.644L3.30272 1.628C3.90006 1.06 4.58006 0.761335 5.28939 0.761335C5.99872 0.761335 6.67872 1.06 7.25339 1.62C7.62006 1.956 7.99339 2.33734 8.35206 2.71067L10.5107 4.87734C11.1081 5.47467 11.4294 6.16934 11.4294 6.88667C11.4294 7.596 11.1081 8.28267 10.5107 8.888L10.0094 9.388C9.55472 9.85867 9.07606 10.344 8.56806 10.8067C8.94139 11.524 9.44939 12.3307 10.2267 13.3173C11.7574 15.192 13.3481 16.64 15.0894 17.7467C15.2681 17.8587 15.4694 17.9627 15.6787 18.0667L16.2174 18.3507L18.0467 16.432C18.6294 15.8493 19.3161 15.5347 20.0334 15.5347C20.7507 15.5347 21.4307 15.8493 21.9907 16.4387L25.2387 19.68C26.4347 20.876 26.4347 22.452 25.2467 23.692C25.0001 23.9453 24.7387 24.2067 24.4854 24.4453C24.0961 24.8187 23.7534 25.156 23.4547 25.5213C22.5281 26.5227 21.4307 27 20.0561 27L19.8094 26.9933Z" fill="white"/>
</svg>
