<svg width="487" height="418" viewBox="0 0 487 418" fill="none" xmlns="http://www.w3.org/2000/svg">
<path d="M464.87 87.5591L486.314 322.587L6.07495 202.604L464.87 87.5591Z" fill="#A9D054" stroke="#502A73" stroke-width="0.51" stroke-linecap="round" stroke-linejoin="round"/>
<path d="M464.537 281.88C464.943 280.978 465.125 279.991 465.067 279.004C465.009 278.017 464.712 277.058 464.204 276.209C463.695 275.361 462.988 274.648 462.144 274.132C461.301 273.616 460.344 273.311 459.357 273.244C456.863 273.077 454.061 272.836 451.441 272.52C431.095 269.486 422.082 259.595 407.373 250.775L375.71 230.044C372.553 227.981 369.842 225.307 367.737 222.179C365.631 219.05 364.175 215.532 363.454 211.831C361.904 203.773 361.503 195.537 362.265 187.367C362.839 187.026 380.965 175.73 361.068 141.482C353.252 128.024 378.662 136.644 378.013 133.436L369.699 112.546C378.013 117.268 388.124 120.136 391.949 119.454C384.366 131.549 373.315 147.609 386.129 161.673L383.052 171.424C377.731 174.583 365.466 183.386 371.212 191.291L373.232 193.959L371.52 198.464C370.414 201.873 370.031 206.261 373.873 207.741L370.322 214.699H394.111C394.316 214.715 394.521 214.715 394.726 214.699C398.508 214.801 402.279 214.256 405.876 213.086C417.475 209.695 419.862 185.863 421.25 180.601L425.067 170.243C430.721 171.565 445.854 147.55 448.066 120.593C450.003 97.3179 443.484 91.1417 421.375 76.2623C418.714 74.4751 415.871 72.7461 412.902 71.0753C412.743 70.2592 412.405 69.4882 411.914 68.8173C411.422 68.1464 410.789 67.5919 410.059 67.1934L381.622 51.7239C380.302 51.0112 378.753 50.8506 377.314 51.2775C375.876 51.7045 374.665 52.684 373.947 54.0015C366.697 51.5077 361.517 50.0364 360.27 49.945C360.27 49.945 369.416 47.0689 366.331 36.2875C364.261 29.0972 355.405 24.409 343.673 24.4588H309.333C308.35 24.4572 307.387 24.1798 306.553 23.6581C305.72 23.1365 305.049 22.3915 304.618 21.5079C301.964 16.0249 299.002 10.6964 295.747 5.54789C294.482 3.60935 292.525 2.22673 290.275 1.68261C288.992 1.24678 287.648 1.01672 286.293 1.00098H262.487L262.221 4.55043C257.997 6.21293 256.692 12.1896 258.496 15.7141C260.217 19.0391 263.261 21.0507 266.495 22.1812C266.362 23.6026 266.154 25.9218 265.946 28.6649L265.622 28.7231H265.938C265.621 29.3625 265.472 30.072 265.506 30.7847C265.413 30.9285 265.313 31.0672 265.206 31.2003L262.013 35.5228C261.813 35.7925 261.672 36.101 261.598 36.4286C261.524 36.7562 261.519 37.0957 261.584 37.4251C261.649 37.7546 261.782 38.0669 261.975 38.3419C262.168 38.617 262.416 38.8487 262.704 39.0223L264.982 40.4022C265.888 41.0173 265.622 41.4745 264.89 42.7297C263.859 44.5086 265.597 45.4313 265.996 45.6474C266.133 45.7719 266.236 45.9293 266.296 46.1046C266.417 46.6455 266.596 47.1721 266.828 47.6756C266.828 47.6756 265.572 48.7729 265.497 49.4712C265.381 50.6432 265.963 51.009 266.038 51.6906C266.162 52.713 266.221 53.245 266.379 54.0347C266.775 55.6434 267.757 57.0463 269.134 57.9688C270.51 58.8913 272.181 59.267 273.82 59.0222L275.866 58.7313C275.384 59.1885 274.319 61.7487 273.654 65.0654C265.672 66.7944 257.764 68.698 252.352 70.4685C234.708 76.0795 217.995 98.1575 207.95 113.694C206.687 115.664 205.531 117.526 204.491 119.238C201.581 124.018 199.586 127.625 198.754 129.08L198.871 127.991C198.661 128.574 198.483 129.168 198.339 129.77C198.339 129.687 197.956 129.063 197.374 128.058C195.711 125.223 192.194 119.371 188.327 113.976C188.236 113.835 188.136 113.702 188.036 113.569C184.769 109.039 181.293 104.907 178.574 103.261C171.415 98.9305 165.736 100.418 165.736 100.418L161.047 91.3911C162.917 85.9132 161.18 78.2656 162.51 73.619C163.499 69.9448 166.077 61.4661 160.016 60.9341C159.836 60.9175 159.655 60.9175 159.475 60.9341H149.58C148.965 57.3265 148.209 53.3281 147.468 50.3356C146.288 45.5809 143.394 43.8104 140.983 44.0847V44.0098H91.094L89.589 87.5341L97.405 120.842L123.863 132.422L132.435 122.33L132.627 122.762L132.893 122.58C126.848 131.033 132.344 146.686 142.87 160.135L143.211 160.568L143.386 160.784C148.45 167.222 154.487 172.831 161.279 177.409C180.304 189.462 192.734 187.309 192.734 187.309C177.959 195.696 163.782 201.266 154.844 216.877L123.123 278.223C108.929 279.054 105.761 288.672 111.798 298.863C101.371 296.12 88.6661 293.31 77.8485 294.873C68.6025 296.086 59.082 300.517 54.2511 308.829C48.8049 315.87 52.3969 326.119 56.2383 333.551C65.9999 351.589 84.3341 365.321 100.772 376.992C110.177 383.218 120.213 390.466 130.182 395.695L119.647 402.844H154.686C158.607 402.745 162.451 401.732 165.911 399.885C166.593 399.801 178.283 392.594 180.295 380.824C181.526 374.814 184.528 363.808 186.465 356.543C196.193 357.632 209.58 351.722 219.433 346.335C220.714 345.637 221.802 344.633 222.6 343.411C223.398 342.19 223.88 340.79 224.005 339.337C224.129 337.884 223.891 336.422 223.313 335.083C222.734 333.744 221.833 332.569 220.689 331.664C217.892 329.437 215.573 326.669 213.871 323.526C210.225 317.293 209.016 309.932 210.478 302.861L220.522 253.485C221.532 248.535 224.337 244.133 228.397 241.124L292.762 193.535C293.427 193.635 294.092 193.735 294.757 193.818L308.061 250.775C310.545 261.995 316.171 272.276 324.283 280.417L377.348 333.617C380.267 336.535 384.241 338.064 388.831 338.347C388.698 339.943 388.59 341.547 388.482 343.152L386.37 342.146L375.161 366.859H387.634C387.409 383.908 387.958 401.057 389.546 407.69C390.377 411.082 376.916 417.283 376.916 417.283C376.916 417.283 398.31 417.341 401.262 417.283C413.227 416.734 420.577 410.516 429.382 399.394C441.563 383.268 449.205 362.819 456.181 344.407C458.742 337.508 462.134 327.192 463.257 321.24C463.765 319.176 464.011 317.056 463.989 314.931C464.238 308.389 461.128 303.019 455.25 300.317C453.637 299.594 452.073 298.954 450.261 298.214L449.471 297.89C457.054 295.654 461.843 287.998 464.537 281.88Z" fill="#EEC718" stroke="#502A73" stroke-width="0.51" stroke-linecap="round" stroke-linejoin="round"/>
<path d="M437.232 314.939C437.389 308.381 434.687 303.302 428.493 300.326C426.738 299.536 424.818 298.763 422.614 297.832C426.056 296.012 429.266 293.368 430.929 290.75C434.504 285.106 430.746 278.489 423.396 275.688C416.349 272.834 409.554 269.395 403.083 265.405L348.961 230.044C345.805 227.979 343.094 225.304 340.988 222.176C338.882 219.049 337.423 215.531 336.697 211.831C335.154 203.773 334.756 195.537 335.516 187.367C336.09 187.026 354.216 175.73 334.319 141.482C326.503 128.024 351.913 136.644 351.273 133.436L342.958 112.546C351.273 117.268 361.384 120.136 365.209 119.454C357.634 131.549 346.575 147.609 359.388 161.673L356.312 171.424C350.999 174.583 338.734 183.386 344.471 191.291L346.5 193.959L344.804 198.464C344.164 200.29 343.942 202.236 344.155 204.158C344.294 204.967 344.644 205.724 345.169 206.353C345.695 206.982 346.378 207.461 347.149 207.741L343.607 214.699H367.362C367.567 214.715 367.773 214.715 367.977 214.699H369.042C372.319 214.699 375.577 214.2 378.704 213.219L379.128 213.086C390.768 209.695 393.121 185.863 394.502 180.601L398.327 170.243C403.972 171.565 419.114 147.55 421.317 120.593C423.263 97.3179 416.736 91.1417 394.626 76.2623C391.974 74.4751 389.122 72.7462 386.154 71.0753C385.996 70.2586 385.659 69.4869 385.167 68.8157C384.675 68.1446 384.041 67.5906 383.31 67.1934L354.882 51.7239C353.56 51.0108 352.01 50.85 350.57 51.2769C349.13 51.7037 347.918 52.6834 347.199 54.0015C339.948 51.5077 334.726 50.0364 333.521 49.945C333.521 49.945 342.667 47.0689 339.574 36.2875C337.504 29.0972 328.648 24.409 316.924 24.4588H282.601C281.618 24.4562 280.655 24.1784 279.822 23.6569C278.989 23.1353 278.318 22.3909 277.886 21.5079C275.217 16.0216 272.236 10.6929 268.956 5.54789C268.538 4.87945 268.029 4.27238 267.443 3.74409C266.29 2.77652 264.939 2.07292 263.485 1.68261C262.202 1.2461 260.858 1.01602 259.502 1.00098H235.772L235.514 4.55043C231.29 6.21293 229.976 12.1896 231.781 15.7141C233.502 19.0391 236.545 21.0507 239.788 22.1812C239.647 23.6026 239.439 25.9218 239.231 28.665L238.907 28.7231H239.223C238.906 29.3625 238.757 30.072 238.79 30.7847C238.701 30.9304 238.601 31.0693 238.491 31.2003L235.298 35.5228C235.099 35.7929 234.959 36.1015 234.885 36.4289C234.812 36.7563 234.808 37.0953 234.873 37.4244C234.938 37.7535 235.07 38.0655 235.262 38.3406C235.454 38.6157 235.701 38.8478 235.988 39.0223L238.266 40.4022C239.173 41.0173 238.915 41.4745 238.175 42.7297C237.144 44.5086 238.882 45.4313 239.281 45.6474C239.421 45.7709 239.527 45.9284 239.588 46.1046C239.702 46.6477 239.881 47.1751 240.121 47.6756C240.121 47.6756 238.857 48.7729 238.79 49.4712C238.665 50.6432 239.256 51.009 239.331 51.6906C239.447 52.713 239.505 53.245 239.663 54.0347C240.059 55.6434 241.042 57.0463 242.418 57.9688C243.795 58.8913 245.466 59.267 247.105 59.0222L249.159 58.7313C248.676 59.1885 247.612 61.7487 246.947 65.0654C238.956 66.7944 231.049 68.698 225.636 70.4685C197.441 79.4294 171.59 130.46 171.59 129.803C171.44 129.354 168.763 144.982 161.986 137.143L156.889 176.503H133.125C133.583 176.827 134.048 177.135 134.514 177.442C153.53 189.495 165.961 187.342 165.961 187.342C151.194 195.73 137.008 201.299 128.07 216.91L96.349 278.256C82.7211 279.087 78.6967 287.948 85.0326 298.896C76.0276 296.402 87.7266 327.159 77.2499 328.996C68.1701 330.284 32.2169 300.733 27.4774 308.854C24.1515 312.903 23.9021 319.303 26.3632 326.469C33.0982 346.061 53.9767 363.044 74.0071 377.017C83.4029 383.243 93.4472 390.491 103.408 395.72V402.869H127.912C131.834 402.772 135.678 401.759 139.137 399.91C139.827 399.826 151.51 392.619 153.522 380.849C154.594 375.571 157.263 365.662 159.691 356.568C183.447 356.842 185.8 336.926 183.804 331.971C183.222 330.509 182.507 328.513 181.792 326.419C180.823 323.594 180.444 320.601 180.678 317.624L193.732 253.493C194.738 248.548 197.54 244.15 201.598 241.149L265.963 193.56C266.628 193.66 267.293 193.76 267.959 193.843L281.404 251.49C283.961 262.446 289.524 272.473 297.468 280.442L350.533 333.642C353.46 336.56 357.426 338.089 362.016 338.372C360.353 359.303 360.186 397.067 362.739 407.715C363.571 411.107 350.109 417.308 350.109 417.308C350.109 417.308 371.503 417.366 374.455 417.308C386.42 416.759 393.77 410.541 402.575 399.419C410.059 389.577 415.605 378.422 420.411 367.075C425.291 355.379 428.526 347.2 432.176 336.46C435.652 326.352 437.514 317.874 437.232 314.939Z" fill="#EEC718" stroke="#502A73" stroke-width="0.51" stroke-linecap="round" stroke-linejoin="round"/>
<path d="M171.615 129.205C171.565 129.387 171.507 129.579 171.448 129.803C171.241 129.271 158.835 107.592 151.659 103.261C144.484 98.9305 138.829 100.418 138.829 100.418L134.132 91.391C136.002 85.9131 134.265 78.2656 135.595 73.6189C136.584 69.9448 139.162 61.466 133.101 60.934C132.921 60.9174 132.74 60.9174 132.56 60.934H122.707C122.083 57.3264 121.335 53.3281 120.587 50.3356C119.406 45.5808 116.512 43.8103 114.101 44.0846V44.0098H92.9816L91.4766 87.534L99.2925 120.842L104.755 123.236L105.52 122.33L105.72 122.762L105.986 122.58C105.771 122.88 105.571 123.19 105.387 123.511L125.75 132.422L134.323 122.33L134.522 122.762L134.788 122.58C131.546 127.11 131.621 133.685 133.957 140.867H171.582L171.615 129.205Z" fill="#EEC718" stroke="#502A73" stroke-width="0.51" stroke-linecap="round" stroke-linejoin="round"/>
<path d="M91.0857 342.902C65.9583 327.441 54.7665 305.571 63.9378 295.097C70.9389 287.1 92.3911 284.515 117.518 299.976C142.646 315.438 157.089 337.582 149.788 349.436C142.488 361.289 116.205 358.363 91.0857 342.902Z" fill="#502A73" stroke="#502A73" stroke-width="0.51" stroke-linecap="round" stroke-linejoin="round"/>
<path d="M91.0857 342.902C65.9583 327.441 54.7665 305.571 63.9378 295.097C70.9389 287.1 92.3911 284.515 117.518 299.976C142.646 315.438 157.089 337.582 149.788 349.436C142.488 361.289 116.205 358.363 91.0857 342.902Z" stroke="#502A73" stroke-width="0.51" stroke-linecap="round" stroke-linejoin="round"/>
<path d="M347.731 323.626L372.326 330.135L363.18 382.736L347.731 383.235L344.122 378.779L347.731 323.626Z" fill="#EAE7DA" stroke="#502A73" stroke-width="0.51" stroke-linecap="round" stroke-linejoin="round"/>
<path d="M371.287 317.873L349.535 329.378" stroke="#502A73" stroke-width="0.51" stroke-linecap="round" stroke-linejoin="round"/>
<path d="M345.927 348.896L367.686 337.391" stroke="#502A73" stroke-width="0.51" stroke-linecap="round" stroke-linejoin="round"/>
<path d="M344.122 358.655L365.882 347.15" stroke="#502A73" stroke-width="0.51" stroke-linecap="round" stroke-linejoin="round"/>
<path d="M342.326 368.414L364.078 356.909" stroke="#502A73" stroke-width="0.51" stroke-linecap="round" stroke-linejoin="round"/>
<path d="M345.436 322.121C341.278 325.213 338.618 326.344 337.703 347.715C336.788 369.087 336.764 398.372 339.058 407.682C341.353 416.992 348.08 418.928 358.182 416.094C368.285 413.259 382.736 400.35 396.722 367.05C410.707 333.75 413.476 320.193 413.493 315.837C413.509 311.481 413.617 303.568 402.6 299.386C400.397 298.555 396.614 296.893 396.614 296.893L388.989 301.049C383.999 303.762 378.261 304.781 372.642 303.95C369.499 303.501 365.924 303.883 363.363 306.793C359.82 310.816 358.74 320.492 357.916 333.243C357.567 338.746 355.081 364.473 354.898 370.367C354.89 370.712 354.764 371.044 354.542 371.308C354.32 371.573 354.014 371.754 353.676 371.821C353.459 371.865 353.236 371.861 353.021 371.811C352.806 371.76 352.605 371.665 352.43 371.53C352.255 371.395 352.111 371.225 352.007 371.03C351.904 370.835 351.844 370.62 351.83 370.4C351.589 365.936 352.03 352.395 352.345 343.8C353.352 316.427 346.982 320.957 345.436 322.121Z" fill="#EAE7DA" stroke="#502A73" stroke-width="0.51" stroke-linecap="round" stroke-linejoin="round"/>
<path d="M402.609 299.395C400.405 298.563 388.191 293.426 388.191 293.426L389.588 300.808C394.856 303.814 400.745 305.571 406.799 305.945L411.555 306.302C410.042 303.692 407.365 301.198 402.609 299.395Z" fill="#4BBEA5" stroke="#502A73" stroke-width="0.51" stroke-linecap="round" stroke-linejoin="round"/>
<path d="M400.563 303.302C392.007 308.09 392.124 313.776 392.506 319.661C392.889 325.546 401.087 337.948 395.358 347.308C389.629 356.668 380.965 353.052 373.74 360.284C366.514 367.516 372.268 384.989 371.827 394.216C371.386 403.443 356.511 408.347 356.511 408.347L362.806 414.166C372.442 409.07 384.74 395.521 396.713 367.025C410.707 333.726 413.468 320.168 413.484 315.812C413.484 312.637 413.551 307.55 409.327 303.418C407.165 301.972 404.205 301.265 400.563 303.302Z" fill="#4BBEA5" stroke="#502A73" stroke-width="0.51" stroke-linecap="round" stroke-linejoin="round"/>
<path d="M345.876 407.166C344.673 408.113 343.813 409.427 343.426 410.908C343.038 412.389 343.146 413.956 343.731 415.371C347.14 417.773 352.046 417.814 358.191 416.094C361.633 415.13 365.583 412.993 369.831 409.286C362.672 404.772 352.287 401.447 345.876 407.166Z" fill="#4BBEA5" stroke="#502A73" stroke-width="0.51" stroke-linecap="round" stroke-linejoin="round"/>
<path d="M383.102 305.712C382.794 306.543 382.379 307.74 381.797 309.386C379.718 315.205 376.874 325.18 376.874 325.18L384.358 325.005L383.9 305.247L383.102 305.712Z" fill="#4BBEA5" stroke="#502A73" stroke-width="0.51" stroke-linecap="round" stroke-linejoin="round"/>
<path d="M135.977 353.11L145.772 311.855L100.897 259.652L76.6762 296.984L71.5044 319.311L101.77 361.331" fill="#BF792A"/>
<path d="M135.977 353.11L145.772 311.855L100.897 259.652L76.6762 296.984L71.5044 319.311L101.77 361.331" stroke="#502A73" stroke-width="0.51" stroke-linecap="round" stroke-linejoin="round"/>
<path d="M135.878 337.557C131.346 335.205 122.083 332.395 118.857 331.672C117.254 331.313 115.814 330.437 114.758 329.178L102.011 313.717C99.995 311.539 97.4567 309.912 94.6361 308.987L71.5625 302.279C71.5625 302.279 61.1856 297.832 43.7578 295.189C26.3299 292.545 11.33 297.042 4.0379 308.364C-3.25419 319.686 66.582 370.516 66.582 370.516L115.465 399.884C115.465 399.884 127.172 394.066 129.849 380.824C131.554 372.362 136.061 355.712 138.414 345.911C136.975 343.052 138.497 341.123 135.878 337.557Z" fill="#EAE7DA" stroke="#502A73" stroke-width="0.51" stroke-linecap="round" stroke-linejoin="round"/>
<path d="M129.824 380.824C131.388 373.052 136.435 355.23 139.079 344.781C139.435 343.405 139.321 341.949 138.752 340.645C138.184 339.342 137.195 338.266 135.944 337.591H135.878C132.601 345.155 124.628 364.706 121.277 374.257L116.878 386.817C116.878 386.817 116.354 393.326 115.44 399.918C117.859 398.629 127.513 392.304 129.824 380.824Z" fill="#4BBEA5" stroke="#502A73" stroke-width="0.51" stroke-linecap="round" stroke-linejoin="round"/>
<path d="M110.842 350.375C82.7543 342.37 85.9804 324.133 69.4589 314.282C61.2189 309.37 54.9079 310.591 45.0549 306.435C39.2717 304.066 34.4077 299.894 31.1858 294.54L21.3577 308.106C21.3577 308.106 57.3525 346.709 57.7932 347.092C58.2339 347.474 73.3585 369.702 81.0081 380.067L95.1433 389.436C98.8185 390.782 102.053 391.929 102.053 391.929L103.192 394.78L115.423 399.918C115.423 399.918 127.13 394.099 129.808 380.857C130.506 377.382 131.679 372.545 132.976 367.341C133.466 365.446 130.706 356.028 110.842 350.375Z" fill="#4BBEA5" stroke="#502A73" stroke-width="0.51" stroke-linecap="round" stroke-linejoin="round"/>
<path d="M21.7484 310.533C21.7484 310.533 34.0294 300.483 31.1857 294.54C19.2789 295.222 9.47573 299.877 4.0129 308.364C2.07555 311.381 5.60935 317.217 11.8538 324.157C17.0755 327.657 21.4324 330.5 21.4324 330.5L21.7484 310.533Z" fill="#4BBEA5" stroke="#502A73" stroke-width="0.51" stroke-linecap="round" stroke-linejoin="round"/>
<path d="M31.0777 307.691C5.30175 298.165 -2.88834 310.384 2.64101 326.477C9.37601 346.07 30.2545 363.052 50.2849 377.025C66.2493 388.197 83.5442 399.353 95.6672 401.963C117.286 406.609 122.79 392.146 123.696 389.552C127.28 379.261 124.827 365.371 77.2 339.004C68.5775 334.232 47.0089 313.576 31.0777 307.691Z" fill="#502A73" stroke="#502A73" stroke-width="0.51" stroke-linecap="round" stroke-linejoin="round"/>
<path d="M31.0777 307.691C5.30175 298.165 -2.88834 310.384 2.64101 326.477C9.37601 346.07 30.2545 363.052 50.2849 377.025C66.2493 388.197 83.5442 399.353 95.6672 401.963C117.286 406.609 122.79 392.146 123.696 389.552C127.28 379.261 124.827 365.371 77.2 339.004C68.5775 334.232 47.0089 313.576 31.0777 307.691Z" stroke="#502A73" stroke-width="0.51" stroke-linecap="round" stroke-linejoin="round"/>
<path d="M105.803 331.946C105.803 331.946 115.406 335.886 120.986 338.596L126.573 341.306L105.146 339.403L105.803 331.946Z" fill="#4BBEA5" stroke="#502A73" stroke-width="0.51" stroke-linecap="round" stroke-linejoin="round"/>
<path d="M111.374 87.6089C111.756 82.6879 111.05 77.3098 112.039 73.6439C113.029 69.9781 115.606 61.4911 109.545 60.9591C104.905 60.5434 100.531 69.8867 100.531 69.8867C100.531 69.8867 98.7437 57.4179 96.9976 50.3606C95.1683 42.9625 89.1817 42.7796 87.3025 46.3124C85.8557 49.014 87.3025 57.0439 87.3025 57.0439C87.3025 57.0439 86.0886 46.5036 81.3574 47.3349C75.1878 48.3739 77.5409 58.9724 77.5409 58.9724C77.5409 58.9724 74.9966 52.0647 71.4545 53.4944C66.7067 55.4146 68.8769 65.7471 68.8769 65.7471C68.8769 65.7471 65.393 60.7596 62.8487 64.9989C60.3043 69.2383 61.9091 86.6696 67.6546 99.5208C72.5271 110.418 77.5409 112.821 77.5409 112.821C77.5409 112.821 109.96 105.73 111.374 87.6089Z" fill="#BF792A" stroke="#502A73" stroke-width="0.51" stroke-linecap="round" stroke-linejoin="round"/>
<path d="M87.3357 57.0437L89.2148 68.49" stroke="#502A73" stroke-width="0.51" stroke-linecap="round" stroke-linejoin="round"/>
<path d="M77.541 58.9224L80.2766 71.2581" stroke="#502A73" stroke-width="0.51" stroke-linecap="round" stroke-linejoin="round"/>
<path d="M68.877 65.697C69.6029 69.0702 70.5162 72.4004 71.6125 75.672L73.1175 79.8947" fill="#BF792A"/>
<path d="M68.877 65.697C69.6029 69.0702 70.5162 72.4004 71.6125 75.672L73.1175 79.8947" stroke="#502A73" stroke-width="0.51" stroke-linecap="round" stroke-linejoin="round"/>
<path d="M100.565 69.8867C99.6304 70.9801 98.5729 71.962 97.4133 72.8127C95.7503 73.9848 89.2149 79.1635 89.6888 87.1684" fill="#BF792A"/>
<path d="M100.565 69.8867C99.6304 70.9801 98.5729 71.962 97.4133 72.8127C95.7503 73.9848 89.2149 79.1635 89.6888 87.1684" stroke="#502A73" stroke-width="0.51" stroke-linecap="round" stroke-linejoin="round"/>
<path d="M393.363 281.024C392.992 278.734 392.143 276.547 390.871 274.606C389.599 272.665 387.932 271.014 385.979 269.761L325.281 230.044C322.125 227.979 319.414 225.304 317.307 222.176C315.201 219.049 313.742 215.531 313.016 211.831V211.748C311.617 204.584 311.173 197.266 311.694 189.986C312.118 184.902 312.118 179.791 311.694 174.707C310.564 163.785 303.321 145.614 303.321 145.614L221.612 149.77L194.306 154.101L148.408 165.738L142.205 187.309L124.861 196.96C116.375 201.678 109.294 208.562 104.34 216.91L63.8713 295.172C70.149 288.805 92.7404 284.732 117.502 299.968C139.403 313.451 153.197 332.013 151.526 344.407L170.052 253.485C171.057 248.54 173.859 244.142 177.917 241.141L243.929 192.338L257.723 251.482C260.283 262.439 265.849 272.465 273.795 280.434L326.861 333.634C336.722 343.501 358.607 337.624 375.718 320.509C388.557 307.649 395.075 292.138 393.363 281.024Z" fill="#4BBEA5" stroke="#502A73" stroke-width="0.51" stroke-linecap="round" stroke-linejoin="round"/>
<path d="M225.802 187.276L157.03 221.457C149.778 225.061 144.104 231.206 141.091 238.722L116.762 299.519" fill="#4BBEA5"/>
<path d="M225.802 187.276L157.03 221.457C149.778 225.061 144.104 231.206 141.091 238.722L116.762 299.519" stroke="#502A73" stroke-width="0.51" stroke-linecap="round" stroke-linejoin="round"/>
<path d="M387.11 305.787C388.405 303.549 389.549 301.227 390.536 298.838C378.288 291.14 352.287 274.889 339.042 267.3C320.342 256.577 304.053 243.252 300.311 235.621C296.063 226.951 294.84 221.423 292.604 187.026C291.772 174.491 289.037 147.434 289.012 147.126C288.981 146.844 288.922 146.566 288.837 146.295L281.412 146.677C281.327 147.073 281.304 147.48 281.345 147.883C281.345 148.157 284.114 175.073 284.921 187.467C287.224 223.011 288.679 229.32 293.394 238.954C295.797 243.859 301.251 249.761 309.607 256.56C317.678 263.004 326.237 268.809 335.209 273.925C348.579 281.647 375.203 298.297 387.11 305.787Z" fill="#4BBEA5" stroke="#502A73" stroke-width="0.51" stroke-linecap="round" stroke-linejoin="round"/>
<path d="M71.5376 302.279L90.6201 307.832C91.0691 300.933 91.2603 282.188 80.4926 279.046C73.1091 276.893 61.6429 278.863 59.1402 285.363C57.4107 289.877 58.9074 294.723 61.302 298.896C64.7798 299.814 68.198 300.944 71.5376 302.279Z" fill="#EAE7DA" stroke="#502A73" stroke-width="0.51" stroke-linecap="round" stroke-linejoin="round"/>
<path d="M71.5377 302.279L85.8391 306.435C86.015 303.139 85.926 299.834 85.5731 296.552C85.0908 292.312 83.6024 285.006 79.1374 283.701C76.3838 282.987 73.5103 282.865 70.7062 283.343C64.3952 284.391 61.4435 286.884 60.7949 288.572C59.5311 291.847 61.2356 295.953 63.6386 299.569C66.3178 300.332 68.9546 301.236 71.5377 302.279Z" fill="#EAE7DA" stroke="#502A73" stroke-width="0.51" stroke-linecap="round" stroke-linejoin="round"/>
<path d="M337.87 318.613C335.018 320.018 326.387 323.501 325.663 327.117C324.749 331.73 336.839 336.402 342.351 338.28C350.666 337.565 360.411 333.293 369.458 326.086C367.836 326.011 365.3 325.521 364.219 323.284C362.989 320.791 362.839 316.443 360.893 314.673C357.276 311.348 353.817 310.758 337.87 318.613Z" fill="#EAE7DA" stroke="#502A73" stroke-width="0.51" stroke-linecap="round" stroke-linejoin="round"/>
<path d="M366.132 328.58C362.606 328.364 360.012 327.092 359.288 323.443C358.956 321.88 358.099 316.311 353.659 317.433C350.807 318.148 346.45 319.802 340.015 322.969L338.452 323.7C336.057 324.809 334.172 325.773 332.797 326.593C332.581 326.722 332.4 326.901 332.269 327.116C332.138 327.331 332.062 327.574 332.047 327.825C332.032 328.076 332.079 328.327 332.184 328.556C332.289 328.784 332.448 328.984 332.648 329.137C336.256 332.21 340.321 334.703 344.696 336.527C346.358 337.199 348.2 337.284 349.918 336.768C355.722 334.913 361.194 332.149 366.132 328.58Z" fill="#EAE7DA" stroke="#502A73" stroke-width="0.51" stroke-linecap="round" stroke-linejoin="round"/>
<path d="M191.67 152.903C193.649 147.542 202.122 136.802 203.818 129.18C205.514 121.557 189.267 113.51 186.44 105.032C183.613 96.553 186.582 82.588 199.744 71.2498C171.889 82.3885 148.042 130.343 147.859 129.795C147.676 129.246 135.271 107.592 128.112 103.261C120.953 98.9304 115.116 100.626 115.116 100.626C115.116 100.626 92.8902 113.993 87.3359 118.082C81.7816 122.172 79.8525 124.899 79.8525 132.779C79.8941 142.039 91.7427 165.38 110.767 177.425C129.791 189.47 142.214 187.325 142.214 187.325L187.23 164.433C180.562 162.712 189.691 158.29 191.67 152.903Z" fill="#008056" stroke="#502A73" stroke-width="0.51" stroke-linecap="round" stroke-linejoin="round"/>
<path d="M370.771 180.601C370.771 180.601 368.127 195.372 365.5 201.507C363.005 207.425 359.114 214.873 349.968 213.202C348.862 213.003 345.428 215.272 342.85 214.582C340.588 213.984 340.505 212.512 339.316 212.18C337.653 211.714 336.406 213.884 332.007 212.055C329.239 210.9 329.837 208.996 328.632 208.581C327.426 208.165 321.423 209.113 320.425 204.158C320.212 202.236 320.434 200.29 321.074 198.464L322.786 193.959L320.758 191.291C318.479 188.273 318.928 184.516 321.273 181.232C326.761 173.535 337.154 169.021 337.154 169.021C337.154 169.021 342.975 167.45 355.447 167.841C373.315 168.406 370.771 180.601 370.771 180.601Z" fill="#BF792A" stroke="#502A73" stroke-width="0.51" stroke-linecap="round" stroke-linejoin="round"/>
<path d="M322.786 193.959C323.863 191.603 325.196 189.373 326.761 187.309L322.786 193.959Z" fill="#BF792A"/>
<path d="M322.786 193.959C323.863 191.603 325.196 189.373 326.761 187.309" stroke="#502A73" stroke-width="0.51" stroke-linecap="round" stroke-linejoin="round"/>
<path d="M316.442 110.984C333.479 120.867 341.478 119.454 341.478 119.454C341.478 119.454 333.554 131.183 330.744 140.169C326.761 152.903 335.658 161.673 335.658 161.673C335.658 161.673 368.917 168.922 374.579 170.243C380.242 171.565 395.366 147.55 397.578 120.593C399.515 97.3178 392.988 91.1416 370.879 76.2622C348.77 61.3828 313.208 50.2025 309.815 49.9448C309.815 49.9448 298.59 50.9672 293.793 63.9597C288.995 76.9521 300.993 96.6694 300.993 96.6694C300.993 96.6694 308.219 106.204 316.442 110.984Z" fill="#008056" stroke="#502A73" stroke-width="0.51" stroke-linecap="round" stroke-linejoin="round"/>
<path d="M335.674 161.673L332.598 171.424L370.771 180.601L374.596 170.244L335.674 161.673Z" fill="#008056" stroke="#502A73" stroke-width="0.51" stroke-linecap="round" stroke-linejoin="round"/>
<path d="M364.934 98.0825C364.934 98.0825 357.866 100.909 350.15 108.772C346.954 112.073 344.052 115.648 341.478 119.454C341.478 119.454 339.59 118.323 340.439 111.923C341.287 105.522 347.09 99.4042 347.09 99.4042" fill="#008056"/>
<path d="M364.934 98.0825C364.934 98.0825 357.866 100.909 350.15 108.772C346.954 112.073 344.052 115.648 341.478 119.454C341.478 119.454 339.59 118.323 340.439 111.923C341.287 105.522 347.09 99.4042 347.09 99.4042" stroke="#502A73" stroke-width="0.51" stroke-linecap="round" stroke-linejoin="round"/>
<path d="M328.865 102.979C331.317 92.4385 334.993 87.6339 334.993 87.6339L328.291 82.3887C328.291 82.3887 323.302 87.8251 320.483 99.6953C319.433 103.894 319.013 108.225 319.236 112.546C321.957 114.029 324.761 115.352 327.634 116.511C327.48 111.967 327.893 107.421 328.865 102.979Z" fill="#EAE7DA" stroke="#502A73" stroke-width="0.51" stroke-linecap="round" stroke-linejoin="round"/>
<path d="M319.563 61.1704L316.546 66.7124C313.643 72.0476 315.615 78.7257 320.952 81.6285L340 91.9895C345.337 94.8922 352.017 92.9204 354.92 87.5853L357.936 82.0433C360.84 76.7081 358.868 70.03 353.531 67.1272L334.483 56.7662C329.146 53.8634 322.466 55.8353 319.563 61.1704Z" fill="#EAE7DA" stroke="#502A73" stroke-width="0.51" stroke-linecap="round" stroke-linejoin="round"/>
<path d="M320.921 58.6804L317.905 64.2224C315.002 69.5576 316.974 76.2357 322.311 79.1385L341.359 89.4995C346.695 92.4023 353.375 90.4304 356.279 85.0953L359.295 79.5533C362.199 74.2181 360.226 67.54 354.89 64.6372L335.842 54.2762C330.505 51.3734 323.825 53.3453 320.921 58.6804Z" fill="#EAE7DA" stroke="#502A73" stroke-width="0.51" stroke-linecap="round" stroke-linejoin="round"/>
<path d="M351.829 70.6416L332.474 60.1138C330.489 59.0343 328.005 59.7676 326.925 61.7516L323.742 67.6003C322.663 69.5843 323.396 72.0678 325.381 73.1473L344.736 83.6751C346.72 84.7546 349.204 84.0213 350.284 82.0373L353.467 76.1886C354.547 74.2046 353.814 71.7211 351.829 70.6416Z" fill="#502A73" stroke="#502A73" stroke-width="0.51" stroke-linecap="round" stroke-linejoin="round"/>
<path d="M351.829 70.6416L332.474 60.1138C330.489 59.0343 328.005 59.7676 326.925 61.7516L323.742 67.6003C322.663 69.5843 323.396 72.0678 325.381 73.1473L344.736 83.6751C346.72 84.7546 349.204 84.0213 350.284 82.0373L353.467 76.1886C354.547 74.2046 353.814 71.7211 351.829 70.6416Z" stroke="#502A73" stroke-width="0.51" stroke-linecap="round" stroke-linejoin="round"/>
<path d="M310.597 141.482C302.781 128.024 302.39 118.332 301.75 115.123C300.499 109.054 300.244 102.821 300.993 96.6695C300.993 96.6695 288.987 76.9522 293.793 63.9598C298.599 50.9674 309.815 49.9449 309.815 49.9449C300.784 49.026 291.668 49.3533 282.726 50.9175C269.306 53.0372 252.975 59.2965 252.975 59.2965C252.975 59.2965 217.313 65.4311 201.914 70.4768C201.191 70.7179 200.484 70.9839 199.769 71.2665C186.581 82.6047 183.048 96.5199 185.359 105.148C188.469 116.728 191.803 124.683 192.094 131.175C192.377 137.525 187.879 144.184 176.836 153.485C154.386 172.405 163.707 176.403 163.707 176.403C163.707 176.403 189.691 167.75 222.601 186.81C240.453 197.151 263.992 195.705 287.149 190.343C310.306 184.981 311.786 187.375 311.786 187.375C311.786 187.375 330.819 176.303 310.597 141.482Z" fill="#008056" stroke="#502A73" stroke-width="0.51" stroke-linecap="round" stroke-linejoin="round"/>
<path d="M226.734 74.1841C226.734 74.1841 217.803 89.4625 223.333 94.5248C228.862 99.5871 238.707 93.0285 248.086 93.1033C261.498 93.2114 261.498 99.6951 261.498 99.6951" stroke="#502A73" stroke-width="2.57" stroke-linecap="round" stroke-linejoin="round"/>
<path d="M226.734 74.1841C226.734 74.1841 217.803 89.4625 223.333 94.5248C228.862 99.5871 238.707 93.0285 248.086 93.1033C261.498 93.2114 261.498 99.6951 261.498 99.6951" stroke="#EEC718" stroke-width="1.54" stroke-linecap="round" stroke-linejoin="round"/>
<path d="M261.514 103.694C262.979 103.694 264.167 102.506 264.167 101.042C264.167 99.5773 262.979 98.3901 261.514 98.3901C260.05 98.3901 258.862 99.5773 258.862 101.042C258.862 102.506 260.05 103.694 261.514 103.694Z" fill="#EEC718" stroke="#502A73" stroke-width="0.51" stroke-linecap="round" stroke-linejoin="round"/>
<path d="M230.75 62.48C230.75 62.48 218.76 77.2596 229.228 80.4682C237.468 83.0202 246.506 72.5797 252.036 67.9164C262.421 59.155 272.823 54.1509 278.377 52.5881C288.579 49.6701 299.253 48.7722 309.799 49.9448C309.799 49.9448 318.945 47.0686 315.86 36.2873C312.775 25.506 294.408 20.344 273.962 28.3406C261.719 33.1197 250.973 41.0766 242.831 51.3911" fill="#008056"/>
<path d="M230.75 62.48C230.75 62.48 218.76 77.2596 229.228 80.4682C237.468 83.0202 246.506 72.5797 252.036 67.9164C262.421 59.155 272.823 54.1509 278.377 52.5881C288.579 49.6701 299.253 48.7722 309.799 49.9448C309.799 49.9448 318.945 47.0686 315.86 36.2873C312.775 25.506 294.408 20.344 273.962 28.3406C261.719 33.1197 250.973 41.0766 242.831 51.3911" stroke="#502A73" stroke-width="0.51" stroke-linecap="round" stroke-linejoin="round"/>
<path d="M242.249 69.4626C242.249 69.4626 234.333 82.9954 239.206 87.4841C244.078 91.9729 252.834 86.1542 261.132 86.2207C273.014 86.3204 273.014 92.0394 273.014 92.0394" stroke="#502A73" stroke-width="2.57" stroke-linecap="round" stroke-linejoin="round"/>
<path d="M242.249 69.4626C242.249 69.4626 234.333 82.9954 239.206 87.4841C244.078 91.9729 252.834 86.1542 261.132 86.2207C273.014 86.3204 273.014 92.0394 273.014 92.0394" stroke="#EEC718" stroke-width="1.54" stroke-linecap="round" stroke-linejoin="round"/>
<path d="M272.964 96.5863C274.429 96.5863 275.616 95.3991 275.616 93.9346C275.616 92.4702 274.429 91.283 272.964 91.283C271.499 91.283 270.312 92.4702 270.312 93.9346C270.312 95.3991 271.499 96.5863 272.964 96.5863Z" fill="#EEC718" stroke="#502A73" stroke-width="0.51" stroke-linecap="round" stroke-linejoin="round"/>
<path d="M115.274 100.419L110.551 91.3579L77.541 112.763L82.1641 122.787L115.274 100.419Z" fill="#008056" stroke="#502A73" stroke-width="0.51" stroke-linecap="round" stroke-linejoin="round"/>
<path d="M147.884 129.811C147.884 129.811 145.34 134.142 144.209 144.874C143.737 150.296 144 155.756 144.991 161.108" fill="#008056"/>
<path d="M147.884 129.811C147.884 129.811 145.34 134.142 144.209 144.874C143.737 150.296 144 155.756 144.991 161.108" stroke="#502A73" stroke-width="0.51" stroke-linecap="round" stroke-linejoin="round"/>
<path d="M230.375 73.1035C230.375 73.1035 239.938 59.0637 255.104 51.7487C266.429 46.2874 279.034 44.0014 291.39 44.0014C305.616 44.0014 306.456 34.6997 299.704 32.4387C292.953 30.1777 282.094 35.5227 282.094 35.5227" fill="#008056"/>
<path d="M230.375 73.1035C230.375 73.1035 239.938 59.0637 255.104 51.7487C266.429 46.2874 279.034 44.0014 291.39 44.0014C305.616 44.0014 306.456 34.6997 299.704 32.4387C292.953 30.1777 282.094 35.5227 282.094 35.5227" stroke="#502A73" stroke-width="0.51" stroke-linecap="round" stroke-linejoin="round"/>
<path d="M212.79 87.11C211.885 86.7806 210.912 86.6841 209.96 86.8294C209.008 86.9746 208.109 87.357 207.343 87.9413C207.144 87.7085 205.681 86.1209 202.18 87.11C198.854 88.0992 197.407 91.1001 197.707 92.588C197.865 93.3694 198.713 92.588 200.06 91.6902C201.955 90.4517 202.887 91.1832 202.887 91.1832C202.887 91.1832 200.176 91.9645 198.937 93.6021C197.698 95.2397 198.488 97.6337 199.769 96.2954C201.939 94.0676 203.036 94.0427 203.036 94.0427C202.238 94.6399 201.556 95.378 201.024 96.2206C200.268 97.5007 200.434 98.8473 201.34 98.8723C201.889 98.8723 205.132 94.3336 204.309 97.1516C203.419 99.9617 202.804 102.851 202.471 105.78C202.396 106.703 202.862 107.393 203.552 107.384H204.184C204.595 107.319 204.975 107.128 205.273 106.838C205.571 106.548 205.771 106.172 205.847 105.763C206.533 102.959 206.945 100.094 207.077 97.2098C207.26 94.3918 208.89 98.9304 209.447 98.8723C210.362 98.8723 211.002 97.484 210.703 96.2039C210.481 95.3901 210.051 94.6482 209.455 94.051C209.455 94.051 210.545 94.051 211.95 96.2704C212.781 97.6004 214.444 95.1981 213.771 93.5689C213.097 91.9396 210.669 91.1749 210.669 91.1749C211.106 90.9677 211.597 90.9028 212.073 90.9893C212.549 91.0758 212.986 91.3093 213.322 91.657C214.361 92.4883 214.927 93.3195 215.359 92.5381C215.597 92.018 215.719 91.452 215.715 90.8798C215.712 90.3077 215.583 89.7433 215.338 89.2262C215.093 88.709 214.739 88.2516 214.298 87.8861C213.858 87.5206 213.343 87.2557 212.79 87.11Z" fill="#EEC718" stroke="#502A73" stroke-width="0.51" stroke-linecap="round" stroke-linejoin="round"/>
<path d="M233.643 70.7925L253.773 61.9729C253.591 59.9613 252.709 50.5433 252.46 48.008C251.304 36.0961 249.608 20.0281 248.444 15.0655C246.174 5.37314 244.744 2.84614 238.374 1.30001C232.995 -0.0133613 225.47 3.19525 219.666 6.84444C216.182 9.03894 216.207 20.6515 216.207 20.6515C216.207 20.6515 215.8 24.5085 215.434 29.5708C215.405 30.1854 215.167 30.7717 214.76 31.2333L211.567 35.5558C211.369 35.826 211.228 36.1346 211.155 36.4619C211.082 36.7893 211.077 37.1283 211.142 37.4574C211.207 37.7865 211.34 38.0985 211.532 38.3736C211.724 38.6487 211.971 38.8809 212.258 39.0554L214.536 40.4353C215.45 41.0504 215.184 41.5076 214.453 42.7628C213.413 44.5416 215.159 45.4643 215.55 45.6805C215.941 45.8966 216.382 47.7087 216.382 47.7087C216.382 47.7087 215.118 48.8059 215.051 49.5042C214.927 50.6763 215.517 51.042 215.592 51.7237C215.667 52.4053 215.758 53.1035 215.841 53.6189C215.841 53.7685 215.891 53.9181 215.924 54.0677C216.321 55.6764 217.303 57.0794 218.679 58.0019C220.056 58.9244 221.727 59.3 223.366 59.0552L229.827 58.1409L232.646 71.3162L233.643 70.7925Z" fill="#BF792A" stroke="#502A73" stroke-width="0.51" stroke-linecap="round" stroke-linejoin="round"/>
<path d="M240.993 30.3774C241.003 29.5489 241.163 28.7292 241.467 27.9584C242.557 25.6309 245.001 24.4755 247.288 25.5644C249.574 26.6534 250.19 29.2968 249.649 31.8071C249.235 33.9365 248.161 35.8818 246.581 37.3682C245.533 38.2493 244.394 38.5901 243.388 38.1246" fill="#BF792A"/>
<path d="M240.993 30.3774C241.003 29.5489 241.163 28.7292 241.467 27.9584C242.557 25.6309 245.001 24.4755 247.288 25.5644C249.574 26.6534 250.19 29.2968 249.649 31.8071C249.235 33.9365 248.161 35.8818 246.581 37.3682C245.533 38.2493 244.394 38.5901 243.388 38.1246" stroke="#502A73" stroke-width="0.51" stroke-linecap="round" stroke-linejoin="round"/>
<path d="M239.206 31.4414C238.985 31.839 238.675 32.1797 238.3 32.4365C237.925 32.6934 237.495 32.8592 237.044 32.921C235.622 33.0124 234.084 31.5412 234.084 31.5412" stroke="#502A73" stroke-width="0.51" stroke-linecap="round" stroke-linejoin="round"/>
<path d="M243.28 30.6516C243.28 30.6516 243.87 27.95 246.149 28.9891C247.629 29.679 247.279 32.1395 245.916 32.8793C245.307 33.1084 244.64 33.126 244.02 32.9292C244.222 33.0736 244.368 33.2821 244.436 33.5206C244.504 33.7591 244.489 34.0136 244.394 34.2426C243.929 35.1902 242.873 34.4005 242.873 34.4005" fill="#BF792A"/>
<path d="M243.28 30.6516C243.28 30.6516 243.87 27.95 246.149 28.9891C247.629 29.679 247.279 32.1395 245.916 32.8793C245.307 33.1084 244.64 33.126 244.02 32.9292C244.222 33.0736 244.368 33.2821 244.436 33.5206C244.504 33.7591 244.489 34.0136 244.394 34.2426C243.929 35.1902 242.873 34.4005 242.873 34.4005" stroke="#502A73" stroke-width="0.51" stroke-linecap="round" stroke-linejoin="round"/>
<path d="M215.791 45.8054C219.633 46.4039 222.934 43.2036 222.934 43.2036C223.006 43.9498 222.926 44.7028 222.699 45.4172C222.471 46.1315 222.102 46.7924 221.612 47.3599C219.949 49.3798 216.856 48.6732 216.39 47.684C216.104 47.0888 215.902 46.4564 215.791 45.8054Z" fill="white" stroke="#502A73" stroke-width="0.51" stroke-linecap="round" stroke-linejoin="round"/>
<path d="M222.626 29.0474C223.413 28.8569 224.239 28.8973 225.004 29.1638" stroke="#502A73" stroke-width="1.03" stroke-linecap="round" stroke-linejoin="round"/>
<path d="M222.975 29.0474C222.693 29.5906 222.534 30.1895 222.51 30.8013C222.468 31.8154 222.817 32.3225 223.275 32.3391C223.732 32.3558 224.106 31.8902 224.181 30.8761C224.219 30.2661 224.12 29.6553 223.89 29.0889L222.975 29.0474Z" fill="#502A73"/>
<path d="M215.176 28.7229C215.96 28.5281 216.783 28.5657 217.546 28.831" stroke="#502A73" stroke-width="1.03" stroke-linecap="round" stroke-linejoin="round"/>
<path d="M215.525 28.7065C215.243 29.2498 215.084 29.8487 215.06 30.4605C215.01 31.4746 215.359 31.9816 215.825 32.0066C216.29 32.0315 216.656 31.5577 216.731 30.5436C216.763 29.9304 216.661 29.3177 216.432 28.7481L215.525 28.7065Z" fill="#502A73"/>
<path d="M220.19 25.8387C220.235 25.9368 220.302 26.024 220.384 26.0944C220.466 26.1648 220.562 26.2167 220.667 26.2467C220.771 26.2766 220.88 26.2839 220.987 26.268C221.094 26.2521 221.196 26.2134 221.287 26.1546C221.722 25.8511 222.213 25.6375 222.731 25.5261C223.249 25.4148 223.785 25.408 224.306 25.5062C224.862 25.6128 225.402 25.7946 225.91 26.0465C226.013 26.0992 226.127 26.1246 226.243 26.1204C226.358 26.1161 226.47 26.0824 226.569 26.0223C226.667 25.9622 226.749 25.8779 226.805 25.7773C226.862 25.6767 226.891 25.5633 226.891 25.448C226.89 25.3487 226.868 25.2507 226.827 25.1605C226.785 25.0702 226.725 24.9897 226.65 24.9243C225.808 24.1146 224.684 23.6624 223.516 23.6624C222.347 23.6624 221.224 24.1146 220.381 24.9243C220.253 25.0342 220.164 25.1835 220.129 25.3489C220.095 25.5143 220.116 25.6866 220.19 25.8387Z" fill="#502A73"/>
<path d="M216.93 24.0015C216.599 23.8877 216.245 23.8563 215.899 23.9101L215.75 25.6806C215.932 25.6218 216.125 25.6019 216.315 25.6224C216.748 25.6748 217.165 25.8194 217.537 26.0464C217.63 26.0976 217.731 26.1294 217.836 26.1399C217.941 26.1504 218.047 26.1393 218.147 26.1074C218.248 26.0755 218.341 26.0234 218.42 25.9543C218.5 25.8852 218.564 25.8005 218.61 25.7056C218.68 25.5541 218.7 25.384 218.665 25.2207C218.631 25.0574 218.544 24.9097 218.419 24.7995C217.976 24.4439 217.472 24.1734 216.93 24.0015Z" fill="#502A73"/>
<path d="M243.089 24.8911C243.579 22.3974 237.767 20.419 233.942 19.4215C234.18 18.7792 234.274 18.0924 234.217 17.4099L233.061 8.7233L219.35 7.11899C218.986 6.27023 218.387 5.54275 217.624 5.02164C216.862 4.50052 215.966 4.20733 215.043 4.17638C208.3 3.46982 205.847 11.4332 208.05 15.7474C212.099 23.6526 223.474 23.9103 227.44 23.4531C228.515 23.3434 229.57 23.086 230.575 22.6883C230.259 24.6999 230.525 26.7448 232.238 28.0333C236.636 31.2918 242.357 28.6317 243.089 24.8911Z" fill="#502A73" stroke="#502A73" stroke-width="0.51" stroke-linecap="round" stroke-linejoin="round"/>
<path d="M243.089 24.8911C243.579 22.3974 237.767 20.419 233.942 19.4215C234.18 18.7792 234.274 18.0924 234.217 17.4099L233.061 8.7233L219.35 7.11899C218.986 6.27023 218.387 5.54275 217.624 5.02164C216.862 4.50052 215.966 4.20733 215.043 4.17638C208.3 3.46982 205.847 11.4332 208.05 15.7474C212.099 23.6526 223.474 23.9103 227.44 23.4531C228.515 23.3434 229.57 23.086 230.575 22.6883C230.259 24.6999 230.525 26.7448 232.238 28.0333C236.636 31.2918 242.357 28.6317 243.089 24.8911Z" stroke="#502A73" stroke-width="0.51" stroke-linecap="round" stroke-linejoin="round"/>
<path d="M242.166 49.0639C245.821 49.0639 248.785 46.1014 248.785 42.4471C248.785 38.7928 245.821 35.8303 242.166 35.8303C238.511 35.8303 235.547 38.7928 235.547 42.4471C235.547 46.1014 238.511 49.0639 242.166 49.0639Z" fill="#EEC718" stroke="#502A73" stroke-width="0.51" stroke-linecap="round" stroke-linejoin="round"/>
<path d="M262.886 46.5449C259.752 27.7753 245.716 6.32075 245.226 5.54769C243.762 3.2285 241.767 2.12295 238.374 1.30001C232.995 -0.0133613 225.47 3.19525 219.666 6.84444C219.555 6.91744 219.45 6.99801 219.35 7.08553C219.35 7.08553 231.415 9.28 235.73 25.2899C244.669 58.4817 238.466 64.1009 232.479 70.4933L254.455 59.3794C259.353 54.4169 263.319 49.0636 262.886 46.5449Z" fill="#008056" stroke="#502A73" stroke-width="0.51" stroke-linecap="round" stroke-linejoin="round"/>
<path d="M259.652 55.3481C258.272 55.9329 256.935 56.6162 255.653 57.3929C248.901 61.491 241.434 65.3064 237.36 65.082C231.631 64.7578 229.827 58.1161 229.827 58.1161L225.42 58.7313C223.815 60.2441 215.708 85.2065 237.568 83.5856C243.317 82.9831 248.933 81.459 254.197 79.0719C267.85 71.4244 272.124 60.6265 272.939 54.6415C269.139 53.2283 263.668 53.644 259.652 55.3481Z" fill="#008056" stroke="#502A73" stroke-width="0.51" stroke-linecap="round" stroke-linejoin="round"/>
<path d="M206.221 134.425C213.826 137.634 221.855 139.725 230.06 140.634C244.195 142.297 265.98 140.219 265.98 140.219C265.98 140.219 268.175 162.604 257.465 168.872C248.951 173.859 235.664 169.903 223.374 166.17C207.194 161.233 198.754 162.346 196.268 157.159C195.071 154.666 195.029 150.144 197.673 146.004C200.633 141.474 206.221 134.425 206.221 134.425Z" fill="#008056" stroke="#502A73" stroke-width="0.51" stroke-linecap="round" stroke-linejoin="round"/>
<path d="M232.912 118.889C232.912 118.889 254.098 125.946 272.465 125.946L232.912 118.889Z" fill="#008056"/>
<path d="M232.912 118.889C232.912 118.889 254.098 125.946 272.465 125.946" stroke="#502A73" stroke-width="0.51" stroke-linecap="round" stroke-linejoin="round"/>
<path d="M239.538 22.7961C239.538 22.7961 244.245 20.8261 247.138 19.8369L250.023 18.8394L241.9 25.6224L239.538 22.7961Z" fill="#4BBEA5" stroke="#502A73" stroke-width="0.51" stroke-linecap="round" stroke-linejoin="round"/>
</svg>
