<svg width="259" height="318" viewBox="0 0 259 318" fill="none" xmlns="http://www.w3.org/2000/svg">
<path d="M228.365 0H52.6134C36.0011 0 22.5342 13.467 22.5342 30.0793V249.389C22.5342 266.001 36.0011 279.468 52.6134 279.468H228.365C244.978 279.468 258.445 266.001 258.445 249.389V30.0793C258.445 13.467 244.978 0 228.365 0Z" fill="#EEC718"/>
<path d="M54.9187 272.008C39.7258 262.651 32.9582 249.423 38.4994 243.087C42.7348 238.25 55.7135 236.683 70.9065 246.039C86.0994 255.396 94.8427 268.794 90.4257 275.959C86.0086 283.136 70.1116 281.364 54.9187 272.008Z" fill="#502A73" stroke="#502A73" stroke-width="0.228" stroke-miterlimit="10" stroke-linecap="round" stroke-linejoin="round"/>
<path d="M54.9187 272.008C39.7258 262.651 32.9582 249.423 38.4994 243.087C42.7348 238.25 55.7135 236.683 70.9065 246.039C86.0994 255.396 94.8427 268.794 90.4257 275.959C86.0086 283.136 70.1116 281.364 54.9187 272.008Z" stroke="#502A73" stroke-width="0.228" stroke-miterlimit="10" stroke-linecap="round" stroke-linejoin="round"/>
<path d="M210.152 260.346L225.027 264.286L219.497 296.114L210.152 296.41L207.972 293.718L210.152 260.346Z" fill="#4BBEA5" stroke="#502A73" stroke-width="0.228" stroke-miterlimit="10" stroke-linecap="round" stroke-linejoin="round"/>
<path d="M224.403 256.872L211.243 263.832" stroke="#502A73" stroke-width="0.228" stroke-miterlimit="10" stroke-linecap="round" stroke-linejoin="round"/>
<path d="M209.062 275.642L222.223 268.681" stroke="#502A73" stroke-width="0.228" stroke-miterlimit="10" stroke-linecap="round" stroke-linejoin="round"/>
<path d="M207.972 281.546L221.133 274.585" stroke="#502A73" stroke-width="0.228" stroke-miterlimit="10" stroke-linecap="round" stroke-linejoin="round"/>
<path d="M206.882 287.451L220.043 280.49" stroke="#502A73" stroke-width="0.228" stroke-miterlimit="10" stroke-linecap="round" stroke-linejoin="round"/>
<path d="M208.767 259.438C206.269 261.312 204.645 261.993 204.089 274.926C203.532 287.859 203.521 305.573 204.906 311.205C206.292 316.837 210.357 318.007 216.477 316.292C222.597 314.578 231.329 306.765 239.789 286.622C248.248 266.478 249.917 258.268 249.929 255.645C249.94 253.011 249.997 248.219 243.343 245.687C242.003 245.176 239.721 244.211 239.721 244.211L235.11 246.743C232.101 248.401 228.627 248.98 225.22 248.492C223.324 248.219 221.155 248.458 219.6 250.218C217.453 252.648 216.806 258.507 216.307 266.217C216.091 269.544 214.592 285.112 214.478 288.677C214.467 289.108 214.161 289.472 213.729 289.563C213.173 289.676 212.65 289.267 212.616 288.7C212.469 285.997 212.73 277.81 212.923 272.61C213.559 255.997 209.698 258.734 208.767 259.438Z" fill="#4BBEA5" stroke="#502A73" stroke-width="0.228" stroke-miterlimit="10" stroke-linecap="round" stroke-linejoin="round"/>
<path d="M243.343 245.687C242.003 245.176 234.622 242.076 234.622 242.076L235.474 246.55C237.904 247.97 241.322 249.31 245.886 249.65C246.942 249.73 247.896 249.809 248.759 249.866C247.839 248.288 246.216 246.777 243.343 245.687Z" fill="#4BBEA5" stroke="#502A73" stroke-width="0.228" stroke-miterlimit="10" stroke-linecap="round" stroke-linejoin="round"/>
<path d="M242.105 248.049C236.928 250.945 237.007 254.385 237.234 257.951C237.461 261.516 242.423 269.022 238.96 274.676C235.497 280.331 230.262 278.151 225.891 282.523C221.53 286.894 225.005 297.466 224.732 303.052C224.46 308.639 215.467 311.603 215.467 311.603L219.271 315.145C225.096 312.068 232.533 303.859 239.778 286.622C248.237 266.478 249.906 258.268 249.918 255.645C249.929 253.726 249.963 250.649 247.385 248.14C246.08 247.243 244.308 246.823 242.105 248.049Z" fill="#008056" stroke="#502A73" stroke-width="0.228" stroke-miterlimit="10" stroke-linecap="round" stroke-linejoin="round"/>
<path d="M209.028 310.899C207.223 312.5 207.166 314.294 207.734 315.861C209.8 317.315 212.753 317.337 216.477 316.293C218.555 315.713 220.951 314.419 223.517 312.171C219.191 309.446 212.923 307.447 209.028 310.899Z" fill="#008056" stroke="#502A73" stroke-width="0.228" stroke-miterlimit="10" stroke-linecap="round" stroke-linejoin="round"/>
<path d="M231.545 249.514C231.363 250.025 231.113 250.74 230.761 251.739C229.512 255.282 227.786 261.311 227.786 261.311L232.317 261.209L232.045 249.252C231.874 249.332 231.704 249.423 231.545 249.514Z" fill="#008056" stroke="#502A73" stroke-width="0.228" stroke-miterlimit="10" stroke-linecap="round" stroke-linejoin="round"/>
<path d="M82.0684 278.185L87.9956 253.227L60.8573 221.649L46.2094 244.234L43.0754 257.735L61.3796 283.159" fill="#BF792A"/>
<path d="M82.0684 278.185L87.9956 253.227L60.8573 221.649L46.2094 244.234L43.0754 257.735L61.3796 283.159" stroke="#502A73" stroke-width="0.228" stroke-miterlimit="10" stroke-linecap="round" stroke-linejoin="round"/>
<path d="M82.0116 268.772C79.275 267.352 73.6657 265.649 71.724 265.218C70.7474 265.002 69.8845 264.468 69.2486 263.696L61.5159 254.351C60.3009 253.034 58.7566 252.046 57.0533 251.489L43.0981 247.436C43.0981 247.436 36.8188 244.744 26.2814 243.143C15.744 241.542 6.66008 244.268 2.25436 251.115C-2.15137 257.962 40.0777 288.711 40.0777 288.711L69.646 306.481C69.646 306.481 76.7315 302.95 78.3439 294.956C79.3772 289.835 82.1024 279.763 83.5217 273.836C82.6815 272.099 83.6012 270.94 82.0116 268.772Z" fill="#4BBEA5" stroke="#502A73" stroke-width="0.228" stroke-miterlimit="10" stroke-linecap="round" stroke-linejoin="round"/>
<path d="M78.3553 294.956C79.3091 290.255 82.3522 279.468 83.9532 273.155C84.3847 271.44 83.624 269.635 82.057 268.806C82.0456 268.795 82.0343 268.795 82.0116 268.783C80.0358 273.359 75.21 285.191 73.1888 290.971C70.5204 298.567 70.5203 298.567 70.5203 298.567C70.5203 298.567 70.2024 302.507 69.646 306.493C71.1221 305.721 76.9586 301.871 78.3553 294.956Z" fill="#4BBEA5" stroke="#502A73" stroke-width="0.228" stroke-miterlimit="10" stroke-linecap="round" stroke-linejoin="round"/>
<path d="M66.8642 276.527C49.8772 271.69 51.8302 260.653 41.8379 254.692C36.853 251.717 33.0378 252.466 27.0764 249.945C21.1151 247.436 18.6851 242.746 18.6851 242.746L12.7351 250.956C12.7351 250.956 34.5026 274.313 34.7751 274.54C34.9908 274.722 44.1884 288.223 48.8098 294.491L57.3828 300.157C59.6084 300.974 61.5614 301.644 61.5614 301.644L62.2541 303.37L69.6461 306.47C69.6461 306.47 76.7316 302.939 78.344 294.945C78.7642 292.844 79.4795 289.915 80.263 286.769C80.5583 285.645 78.8891 279.956 66.8642 276.527Z" fill="#008056" stroke="#502A73" stroke-width="0.228" stroke-miterlimit="10" stroke-linecap="round" stroke-linejoin="round"/>
<path d="M12.9848 252.432C12.9848 252.432 20.4109 246.346 18.6963 242.758C11.4973 243.167 5.55866 245.983 2.25437 251.115C1.08481 252.943 3.21952 256.463 6.98937 260.653C10.146 262.765 12.7804 264.491 12.7804 264.491L12.9848 252.432Z" fill="#008056" stroke="#502A73" stroke-width="0.228" stroke-miterlimit="10" stroke-linecap="round" stroke-linejoin="round"/>
<path d="M18.6283 250.706C3.02662 244.938 -1.91278 252.341 1.42558 262.072C5.502 273.927 18.1287 284.169 30.2445 292.651C39.9075 299.408 50.3541 306.164 57.6894 307.742C70.7816 310.558 74.0973 301.803 74.6423 300.236C76.8111 294.003 75.3236 285.6 46.5161 269.658C41.3042 266.762 28.2573 254.272 18.6283 250.706Z" fill="#502A73" stroke="#502A73" stroke-width="0.228" stroke-miterlimit="10" stroke-linecap="round" stroke-linejoin="round"/>
<path d="M18.6283 250.706C3.02662 244.938 -1.91278 252.341 1.42558 262.072C5.502 273.927 18.1287 284.169 30.2445 292.651C39.9075 299.408 50.3541 306.164 57.6894 307.742C70.7816 310.558 74.0973 301.803 74.6423 300.236C76.8111 294.003 75.3236 285.6 46.5161 269.658C41.3042 266.762 28.2573 254.272 18.6283 250.706Z" stroke="#502A73" stroke-width="0.228" stroke-miterlimit="10" stroke-linecap="round" stroke-linejoin="round"/>
<path d="M63.821 265.388C63.821 265.388 69.6234 267.772 73.0072 269.419C76.3796 271.054 76.3796 271.054 76.3796 271.054L63.4236 269.907L63.821 265.388Z" fill="#008056" stroke="#502A73" stroke-width="0.228" stroke-miterlimit="10" stroke-linecap="round" stroke-linejoin="round"/>
<path d="M237.756 234.571C237.325 231.766 235.667 229.313 233.294 227.758L196.549 203.731C192.688 201.21 190.02 197.236 189.134 192.705L189.123 192.66C188.271 188.322 187.999 183.894 188.317 179.488C188.521 176.672 188.623 173.265 188.305 170.245C187.624 163.636 183.241 152.645 183.241 152.645L133.813 155.154L117.348 157.777L89.5852 164.84L85.8381 177.887L75.3348 183.723C70.2023 186.573 65.9215 190.729 62.9238 195.771L38.4425 243.121H38.4538C42.2464 239.272 55.9178 236.808 70.895 246.028C84.1462 254.181 92.4807 265.411 91.4815 272.917L102.678 217.902C103.291 214.915 104.983 212.247 107.435 210.43L147.359 180.896L155.705 216.675C157.249 223.307 160.622 229.37 165.425 234.185L197.525 266.365C203.498 272.337 216.727 268.783 227.082 258.428C234.849 250.684 238.789 241.304 237.756 234.571Z" fill="white" stroke="#502A73" stroke-width="0.228" stroke-miterlimit="10" stroke-linecap="round" stroke-linejoin="round"/>
<path d="M233.963 249.559C234.77 248.151 235.474 246.743 236.041 245.358C228.627 240.702 212.9 230.869 204.895 226.281C193.585 219.798 183.729 211.736 181.469 207.114C178.903 201.868 178.165 198.53 176.814 177.716C176.326 170.131 174.657 153.757 174.634 153.598C174.611 153.428 174.577 153.269 174.532 153.11L170.046 153.337C169.99 153.576 169.978 153.814 170.001 154.075C170.012 154.234 171.681 170.529 172.158 178.023C173.555 199.529 174.429 203.344 177.279 209.17C178.733 212.145 182.037 215.721 187.09 219.82C191.507 223.397 197.003 227.133 202.578 230.324C210.663 234.957 226.764 245.028 233.963 249.559Z" fill="white" stroke="#502A73" stroke-width="0.228" stroke-miterlimit="10" stroke-linecap="round" stroke-linejoin="round"/>
<path d="M43.0984 247.436L54.635 250.797C54.9075 246.63 55.0211 235.286 48.5033 233.378C44.0408 232.073 37.103 233.265 35.5928 237.205C34.5481 239.93 35.4451 242.871 36.8986 245.392C40.8955 246.493 43.0984 247.436 43.0984 247.436Z" fill="#4BBEA5" stroke="#502A73" stroke-width="0.228" stroke-miterlimit="10" stroke-linecap="round" stroke-linejoin="round"/>
<path d="M43.0981 247.436L51.7505 249.956C51.83 248.435 51.8527 246.232 51.5915 243.973C51.2963 241.406 50.3993 236.989 47.6968 236.194C46.2434 235.774 44.3357 235.683 42.5984 235.979C38.7832 236.614 37.0004 238.125 36.603 239.135C35.8422 241.122 36.8642 243.598 38.3176 245.789C41.4061 246.709 43.0981 247.436 43.0981 247.436Z" fill="#4BBEA5" stroke="#502A73" stroke-width="0.228" stroke-miterlimit="10" stroke-linecap="round" stroke-linejoin="round"/>
<path d="M204.191 257.315C202.465 258.166 197.242 260.267 196.81 262.458C196.254 265.252 203.567 268.079 206.905 269.215C211.935 268.783 217.828 266.205 223.29 261.834C222.314 261.788 220.781 261.493 220.122 260.142C219.373 258.609 219.293 256.009 218.124 254.93C215.932 252.92 213.832 252.568 204.191 257.315Z" fill="#4BBEA5" stroke="#502A73" stroke-width="0.228" stroke-miterlimit="10" stroke-linecap="round" stroke-linejoin="round"/>
<path d="M221.28 263.344C219.146 263.208 217.579 262.447 217.136 260.233C216.931 259.29 216.42 255.918 213.729 256.599C212.003 257.031 209.369 258.03 205.474 259.949C205.224 260.074 204.895 260.221 204.532 260.392C203.078 261.062 201.943 261.652 201.114 262.14C200.546 262.481 200.501 263.276 201.023 263.673C202.136 264.525 204.532 266.637 208.313 268.147C209.324 268.545 210.436 268.613 211.47 268.295C214.66 267.33 218.021 265.66 221.28 263.344Z" fill="#4BBEA5" stroke="#502A73" stroke-width="0.228" stroke-miterlimit="10" stroke-linecap="round" stroke-linejoin="round"/>
<path d="M187.124 147.875C184.717 142.788 183.593 140.472 182.344 134.204C181.095 127.936 181.89 123.042 181.89 123.042C181.89 123.042 174.623 111.108 177.529 103.25C180.436 95.3927 187.215 94.7682 187.215 94.7682C182.912 94.4502 178.949 94.0755 170.83 95.3586C162.711 96.6417 152.832 100.423 152.832 100.423C152.832 100.423 131.258 104.136 121.947 107.191C121.515 107.338 121.084 107.497 120.652 107.667C112.681 114.526 110.887 122.985 112.59 128.106C114.294 133.227 114.294 138.19 113.272 142.8C112.25 147.41 110.796 153.223 109.593 156.471C108.4 159.718 109.025 162.989 113.067 164.045C113.067 164.045 116.712 164.613 128.328 165.294C139.945 165.975 149.63 164.385 158.623 163.011C167.628 161.649 183.57 161.649 183.57 161.649C183.57 161.649 186.08 161.99 188.01 160.4C189.974 158.81 190.429 154.847 187.124 147.875Z" fill="#008056" stroke="#502A73" stroke-width="0.228" stroke-miterlimit="10" stroke-linecap="round" stroke-linejoin="round"/>
<path d="M67.1935 117.558C67.4206 114.572 67.0004 111.324 67.6023 109.11C68.2041 106.896 69.7597 101.763 66.1148 101.434C63.3101 101.184 60.6644 106.839 60.6644 106.839C60.6644 106.839 59.5857 99.265 58.5297 95.0182C57.4169 90.5444 53.806 90.4309 52.6591 92.5656C51.7848 94.2007 52.6591 99.0606 52.6591 99.0606C52.6591 99.0606 51.9097 92.6791 49.0369 93.1674C45.3011 93.7919 46.7318 100.196 46.7318 100.196C46.7318 100.196 45.1876 96.0175 43.0528 96.8805C40.18 98.0387 41.4972 104.295 41.4972 104.295C41.4972 104.295 39.3852 101.275 37.8523 103.841C36.3193 106.407 37.2845 116.956 40.7591 124.734C43.7001 131.32 46.7432 132.773 46.7432 132.773C46.7432 132.773 66.3419 128.527 67.1935 117.558Z" fill="#BF792A" stroke="#502A73" stroke-width="0.228" stroke-miterlimit="10" stroke-linecap="round" stroke-linejoin="round"/>
<path d="M52.6479 99.0605L53.7948 105.987" stroke="#502A73" stroke-width="0.228" stroke-miterlimit="10" stroke-linecap="round" stroke-linejoin="round"/>
<path d="M46.7321 100.196L48.3785 107.668" stroke="#502A73" stroke-width="0.228" stroke-miterlimit="10" stroke-linecap="round" stroke-linejoin="round"/>
<path d="M41.4858 104.307C41.4858 104.307 42.2239 107.804 43.1323 110.359C44.0407 112.914 44.0407 112.914 44.0407 112.914" fill="#BF792A"/>
<path d="M41.4858 104.307C41.4858 104.307 42.2239 107.804 43.1323 110.359C44.0407 112.914 44.0407 112.914 44.0407 112.914" stroke="#502A73" stroke-width="0.228" stroke-miterlimit="10" stroke-linecap="round" stroke-linejoin="round"/>
<path d="M60.6532 106.839C60.6532 106.839 59.7676 107.895 58.7456 108.599C57.7237 109.314 53.7948 112.448 54.0787 117.285" fill="#BF792A"/>
<path d="M60.6532 106.839C60.6532 106.839 59.7676 107.895 58.7456 108.599C57.7237 109.314 53.7948 112.448 54.0787 117.285" stroke="#502A73" stroke-width="0.228" stroke-miterlimit="10" stroke-linecap="round" stroke-linejoin="round"/>
<path d="M109.604 156.472C110.797 153.224 112.25 147.41 113.283 142.8C114.305 138.19 114.305 133.228 112.602 128.107C110.899 122.986 112.682 114.526 120.664 107.668C103.813 114.401 89.3925 143.425 89.279 143.084C89.1655 142.743 81.6485 129.64 77.3222 127.028C72.996 124.417 69.4646 125.439 69.4646 125.439C69.4646 125.439 56.0203 133.523 52.6593 136.01C49.2982 138.497 48.1286 140.132 48.14 144.901C48.1627 150.499 55.3277 164.624 66.8303 171.914C78.3328 179.204 85.8498 177.898 85.8498 177.898L113.079 164.045C109.037 162.989 108.412 159.719 109.604 156.472Z" fill="#008056" stroke="#502A73" stroke-width="0.228" stroke-miterlimit="10" stroke-linecap="round" stroke-linejoin="round"/>
<path d="M69.5555 125.302L66.6941 119.829L46.7321 132.773L49.5254 138.837L69.5555 125.302Z" fill="#008056" stroke="#502A73" stroke-width="0.228" stroke-miterlimit="10" stroke-linecap="round" stroke-linejoin="round"/>
<path d="M89.2792 143.084C89.2792 143.084 87.7463 145.707 87.0536 152.202C86.5313 157.164 87.5192 162.024 87.5192 162.024" fill="#008056"/>
<path d="M89.2792 143.084C89.2792 143.084 87.7463 145.707 87.0536 152.202C86.5313 157.164 87.5192 162.024 87.5192 162.024" stroke="#502A73" stroke-width="0.228" stroke-miterlimit="10" stroke-linecap="round" stroke-linejoin="round"/>
<path d="M224.085 173.81C224.085 173.81 222.484 182.747 220.894 186.46C219.361 190.037 217.033 194.545 211.504 193.534C210.834 193.409 208.756 194.783 207.2 194.374C205.837 194.011 205.781 193.125 205.065 192.921C204.066 192.637 203.305 193.954 200.648 192.841C198.968 192.149 199.331 190.99 198.604 190.741C197.889 190.491 194.244 191.059 193.642 188.061C193.461 187.153 193.699 185.483 194.04 184.62L195.073 181.895L193.847 180.283C192.461 178.455 192.745 176.184 194.153 174.196C197.469 169.541 203.76 166.804 203.76 166.804C203.76 166.804 207.257 165.851 214.808 166.089C225.629 166.441 224.085 173.81 224.085 173.81Z" fill="#BF792A" stroke="#502A73" stroke-width="0.228" stroke-miterlimit="10" stroke-linecap="round" stroke-linejoin="round"/>
<path d="M195.062 181.895C195.062 181.895 195.868 180.021 197.469 177.898L195.062 181.895Z" fill="#BF792A"/>
<path d="M195.062 181.895C195.062 181.895 195.868 180.021 197.469 177.898" stroke="#502A73" stroke-width="0.228" stroke-miterlimit="10" stroke-linecap="round" stroke-linejoin="round"/>
<path d="M191.224 131.695C201.534 137.679 206.371 136.816 206.371 136.816C206.371 136.816 201.579 143.913 199.876 149.34C197.457 157.062 202.851 162.353 202.851 162.353C202.851 162.353 222.972 166.736 226.39 167.531C229.808 168.326 238.937 153.803 240.3 137.486C241.469 123.394 237.529 119.67 224.153 110.665C210.822 101.695 189.282 94.8932 187.204 94.7456C187.204 94.7456 180.414 95.3587 177.518 103.228C174.611 111.085 181.878 123.019 181.878 123.019C181.878 123.019 186.239 128.799 191.224 131.695Z" fill="#008056" stroke="#502A73" stroke-width="0.228" stroke-miterlimit="10" stroke-linecap="round" stroke-linejoin="round"/>
<path d="M202.862 162.365L201 168.269L224.085 173.81L226.401 167.554L202.862 162.365Z" fill="#008056" stroke="#502A73" stroke-width="0.228" stroke-miterlimit="10" stroke-linecap="round" stroke-linejoin="round"/>
<path d="M220.553 123.894C220.553 123.894 216.284 125.597 211.617 130.355C208.597 133.432 206.382 136.816 206.382 136.816C206.382 136.816 205.247 136.134 205.758 132.262C206.269 128.39 209.8 124.688 209.8 124.688" fill="#008056"/>
<path d="M220.553 123.894C220.553 123.894 216.284 125.597 211.617 130.355C208.597 133.432 206.382 136.816 206.382 136.816C206.382 136.816 205.247 136.134 205.758 132.262C206.269 128.39 209.8 124.688 209.8 124.688" stroke="#502A73" stroke-width="0.228" stroke-miterlimit="10" stroke-linecap="round" stroke-linejoin="round"/>
<path d="M136.981 109.439C136.981 109.439 131.576 118.682 134.926 121.748C138.276 124.814 144.226 120.839 149.892 120.885C157.999 120.953 157.999 124.87 157.999 124.87" stroke="#502A73" stroke-width="1.1399" stroke-miterlimit="10" stroke-linecap="round" stroke-linejoin="round"/>
<path d="M136.981 109.439C136.981 109.439 131.576 118.682 134.926 121.748C138.276 124.814 144.226 120.839 149.892 120.885C157.999 120.953 157.999 124.87 157.999 124.87" stroke="#EEC718" stroke-width="0.6839" stroke-miterlimit="10" stroke-linecap="round" stroke-linejoin="round"/>
<path d="M157.999 127.289C158.883 127.289 159.6 126.572 159.6 125.688C159.6 124.803 158.883 124.087 157.999 124.087C157.115 124.087 156.398 124.803 156.398 125.688C156.398 126.572 157.115 127.289 157.999 127.289Z" fill="#EEC718" stroke="#502A73" stroke-width="0.228" stroke-miterlimit="10" stroke-linecap="round" stroke-linejoin="round"/>
<path d="M139.4 102.353C139.4 102.353 132.144 111.278 138.491 113.243C143.476 114.787 148.938 108.474 152.288 105.646C158.567 100.355 164.869 97.3231 168.219 96.3806C178.631 93.4397 187.227 94.7796 187.227 94.7796C187.227 94.7796 192.768 93.0423 190.894 86.5132C189.01 79.9841 177.927 76.8615 165.562 81.6987C153.196 86.5359 146.735 95.6425 146.735 95.6425" fill="#008056"/>
<path d="M139.4 102.353C139.4 102.353 132.144 111.278 138.491 113.243C143.476 114.787 148.938 108.474 152.288 105.646C158.567 100.355 164.869 97.3231 168.219 96.3806C178.631 93.4397 187.227 94.7796 187.227 94.7796C187.227 94.7796 192.768 93.0423 190.894 86.5132C189.01 79.9841 177.927 76.8615 165.562 81.6987C153.196 86.5359 146.735 95.6425 146.735 95.6425" stroke="#502A73" stroke-width="0.228" stroke-miterlimit="10" stroke-linecap="round" stroke-linejoin="round"/>
<path d="M146.349 106.577C146.349 106.577 141.569 114.764 144.521 117.478C147.485 120.192 152.765 116.672 157.783 116.717C164.971 116.774 164.971 120.249 164.971 120.249" stroke="#502A73" stroke-width="1.1399" stroke-miterlimit="10" stroke-linecap="round" stroke-linejoin="round"/>
<path d="M146.349 106.577C146.349 106.577 141.569 114.764 144.521 117.478C147.485 120.192 152.765 116.672 157.783 116.717C164.971 116.774 164.971 120.249 164.971 120.249" stroke="#EEC718" stroke-width="0.6839" stroke-miterlimit="10" stroke-linecap="round" stroke-linejoin="round"/>
<path d="M164.926 122.985C165.81 122.985 166.527 122.268 166.527 121.384C166.527 120.5 165.81 119.783 164.926 119.783C164.042 119.783 163.325 120.5 163.325 121.384C163.325 122.268 164.042 122.985 164.926 122.985Z" fill="#EEC718" stroke="#502A73" stroke-width="0.228" stroke-miterlimit="10" stroke-linecap="round" stroke-linejoin="round"/>
<path d="M141.001 106.896L152.833 97.3576C152.231 90.4197 150.982 76.8846 150.142 73.2397C148.802 67.3692 147.939 65.8363 144.101 64.8711C138.9 63.5766 130.918 73.1716 130.918 73.1716C130.918 73.1716 130.373 78.8263 130.134 81.8922C130.112 82.2669 129.975 82.6189 129.725 82.9028L126.978 85.98C126.523 86.5591 126.796 87.4107 127.489 87.6378L129.555 88.4667C129.998 88.6597 129.941 89.1139 129.498 89.8747C128.863 90.9421 129.907 91.4985 130.157 91.612C130.713 91.8845 130.872 91.8845 130.872 91.8845L130.918 93.9625C130.918 93.9625 130.18 94.1328 130.112 94.7232C130.032 95.4273 130.384 95.6544 130.429 96.0745C130.532 97.0283 130.623 97.4598 130.713 98.1184C130.884 99.3106 131.985 100.151 133.177 99.9806L138.753 99.2198L140.411 107.202L141.001 106.896Z" fill="#BF792A" stroke="#502A73" stroke-width="0.228" stroke-miterlimit="10" stroke-linecap="round" stroke-linejoin="round"/>
<path d="M136.629 91.1347C137.163 91.3051 137.537 91.0553 137.537 91.0553C137.537 91.0553 135.914 89.4202 135.448 89.1704C134.982 88.9206 133.756 89.0114 131.996 89.1476C131.054 89.2158 130.327 89.0795 129.861 88.9319C129.861 89.1703 129.737 89.4769 129.498 89.8744C129.453 89.9425 129.419 90.0106 129.396 90.0787C129.873 90.2604 130.611 90.4761 131.519 90.5443C133.109 90.6578 134.96 90.374 135.107 90.3399C135.187 90.3172 135.993 90.9417 136.629 91.1347Z" fill="#502A73" stroke="#502A73" stroke-width="0.228" stroke-miterlimit="10" stroke-linecap="round" stroke-linejoin="round"/>
<path d="M136.629 91.1347C137.163 91.3051 137.537 91.0553 137.537 91.0553C137.537 91.0553 135.914 89.4202 135.448 89.1704C134.982 88.9206 133.756 89.0114 131.996 89.1476C131.054 89.2158 130.327 89.0795 129.861 88.9319C129.861 89.1703 129.737 89.4769 129.498 89.8744C129.453 89.9425 129.419 90.0106 129.396 90.0787C129.873 90.2604 130.611 90.4761 131.519 90.5443C133.109 90.6578 134.96 90.374 135.107 90.3399C135.187 90.3172 135.993 90.9417 136.629 91.1347Z" stroke="#502A73" stroke-width="0.228" stroke-miterlimit="10" stroke-linecap="round" stroke-linejoin="round"/>
<path d="M137.822 74.5908C138.423 74.3864 136.709 74.8293 137.084 74.8293C138.355 74.8065 138.764 74.7384 138.764 74.7384C138.764 74.7384 138.764 74.7384 139.286 75.431C139.809 76.1237 142.557 74.9201 142.647 74.9995C142.727 75.079 140.728 77.1684 140.887 78.0086C141.046 78.8603 142.273 78.3379 142.352 78.5877C142.443 78.8262 140.615 80.7906 140.808 81.3356C141.001 81.8693 141.637 82.051 141.637 82.051C141.637 82.051 141.046 84.3901 142.795 85.1509C144.544 85.9003 145.055 84.7194 145.168 81.6309C145.202 80.677 145.793 79.9503 146.44 80.2001C147.598 80.643 149.108 83.0161 149.108 83.0161C149.108 83.0161 150.369 87.3197 151.993 87.8761C151.414 81.9261 150.721 75.6695 150.164 73.2395C148.825 67.369 147.962 65.8361 144.124 64.8709C141.081 64.1102 136.891 65.7452 133.473 67.7437C132.746 68.1638 132.473 67.1874 129.919 67.2328C127.886 67.2669 126.762 71.048 128.67 73.1487C130.009 74.6702 135.687 75.3175 137.822 74.5908Z" fill="#502A73" stroke="#502A73" stroke-width="0.228" stroke-miterlimit="10" stroke-linecap="round" stroke-linejoin="round"/>
<path d="M137.822 74.5908C138.423 74.3864 136.709 74.8293 137.084 74.8293C138.355 74.8065 138.764 74.7384 138.764 74.7384C138.764 74.7384 138.764 74.7384 139.286 75.431C139.809 76.1237 142.557 74.9201 142.647 74.9995C142.727 75.079 140.728 77.1684 140.887 78.0086C141.046 78.8603 142.273 78.3379 142.352 78.5877C142.443 78.8262 140.615 80.7906 140.808 81.3356C141.001 81.8693 141.637 82.051 141.637 82.051C141.637 82.051 141.046 84.3901 142.795 85.1509C144.544 85.9003 145.055 84.7194 145.168 81.6309C145.202 80.677 145.793 79.9503 146.44 80.2001C147.598 80.643 149.108 83.0161 149.108 83.0161C149.108 83.0161 150.369 87.3197 151.993 87.8761C151.414 81.9261 150.721 75.6695 150.164 73.2395C148.825 67.369 147.962 65.8361 144.124 64.8709C141.081 64.1102 136.891 65.7452 133.473 67.7437C132.746 68.1638 132.473 67.1874 129.919 67.2328C127.886 67.2669 126.762 71.048 128.67 73.1487C130.009 74.6702 135.687 75.3175 137.822 74.5908Z" stroke="#502A73" stroke-width="0.228" stroke-miterlimit="10" stroke-linecap="round" stroke-linejoin="round"/>
<path d="M145.588 82.4712C145.622 81.8808 145.725 81.3585 145.883 81.0065C146.553 79.5985 148.03 78.9172 149.438 79.5757C150.846 80.2457 151.175 81.8467 150.846 83.3569C150.528 84.7763 149.801 86.014 148.972 86.7066C148.336 87.2403 147.644 87.4447 147.042 87.1495" fill="#BF792A"/>
<path d="M145.588 82.4712C145.622 81.8808 145.725 81.3585 145.883 81.0065C146.553 79.5985 148.03 78.9172 149.438 79.5757C150.846 80.2457 151.175 81.8467 150.846 83.3569C150.528 84.7763 149.801 86.014 148.972 86.7066C148.336 87.2403 147.644 87.4447 147.042 87.1495" stroke="#502A73" stroke-width="0.228" stroke-miterlimit="10" stroke-linecap="round" stroke-linejoin="round"/>
<path d="M145.112 86.0593C145.112 86.0593 144.657 86.8996 143.794 86.945C142.931 86.9905 142.012 86.0934 142.012 86.0934" stroke="#502A73" stroke-width="0.228" stroke-miterlimit="10" stroke-linecap="round" stroke-linejoin="round"/>
<path d="M145.021 87.5354C145.021 87.5354 144.566 88.3756 143.703 88.4211C142.84 88.4665 141.921 87.5694 141.921 87.5694" stroke="#502A73" stroke-width="0.228" stroke-miterlimit="10" stroke-linecap="round" stroke-linejoin="round"/>
<path d="M146.974 82.6529C146.974 82.6529 147.337 81.0178 148.722 81.6764C149.619 82.0965 149.392 83.584 148.563 84.0269C148.098 84.2767 147.417 84.0496 147.417 84.0496C147.417 84.0496 147.871 84.3902 147.644 84.8444C147.36 85.4122 146.724 84.9352 146.724 84.9352" fill="#BF792A"/>
<path d="M146.974 82.6529C146.974 82.6529 147.337 81.0178 148.722 81.6764C149.619 82.0965 149.392 83.584 148.563 84.0269C148.098 84.2767 147.417 84.0496 147.417 84.0496C147.417 84.0496 147.871 84.3902 147.644 84.8444C147.36 85.4122 146.724 84.9352 146.724 84.9352" stroke="#502A73" stroke-width="0.228" stroke-miterlimit="10" stroke-linecap="round" stroke-linejoin="round"/>
<path d="M135.21 92.0546C135.074 91.8048 134.79 91.6912 134.529 91.748C134.188 91.8161 133.302 91.9751 132.314 92.0319C131.747 92.0659 131.236 91.9751 130.85 91.8843L130.906 93.9963C130.918 94.3937 131.224 94.723 131.61 94.7571C131.962 94.7912 132.405 94.7571 132.95 94.5867C134.597 94.0985 135.414 92.4293 135.21 92.0546Z" fill="white" stroke="#502A73" stroke-width="0.228" stroke-miterlimit="10" stroke-linecap="round" stroke-linejoin="round"/>
<path d="M134.495 81.6192C134.972 81.5057 135.471 81.5284 135.925 81.6987" stroke="#502A73" stroke-width="0.456" stroke-miterlimit="10" stroke-linecap="round" stroke-linejoin="round"/>
<path d="M134.699 81.6079C134.551 81.8577 134.438 82.2778 134.415 82.6639C134.381 83.2771 134.597 83.5837 134.869 83.595C135.142 83.6064 135.391 83.3225 135.426 82.7094C135.448 82.3233 135.38 81.8918 135.255 81.6306L134.699 81.6079Z" fill="#502A73"/>
<path d="M129.987 81.3807C130.464 81.2672 130.963 81.2899 131.417 81.4602" stroke="#502A73" stroke-width="0.456" stroke-miterlimit="10" stroke-linecap="round" stroke-linejoin="round"/>
<path d="M130.191 81.3696C130.043 81.6194 129.93 82.0396 129.907 82.4257C129.873 83.0389 130.089 83.3454 130.361 83.3567C130.645 83.3681 130.883 83.0843 130.917 82.4711C130.94 82.085 130.872 81.6535 130.747 81.3924L130.191 81.3696Z" fill="#502A73"/>
<path d="M133.029 79.6549C133.143 79.9047 133.461 79.9956 133.688 79.848C134.085 79.5868 134.733 79.3029 135.516 79.4619C135.948 79.5527 136.254 79.6776 136.481 79.7912C136.754 79.9388 137.072 79.7344 137.072 79.4278C137.072 79.3029 137.026 79.1893 136.924 79.1099C136.447 78.7011 134.892 77.5883 133.132 79.0872C132.984 79.2348 132.939 79.4619 133.029 79.6549Z" fill="#502A73"/>
<path d="M131.065 78.5309C130.838 78.4514 130.622 78.44 130.441 78.4627L130.339 79.5301C130.441 79.496 130.554 79.4847 130.679 79.4961C130.952 79.5188 131.213 79.6437 131.417 79.7572C131.656 79.8935 131.951 79.8026 132.064 79.5528C132.155 79.3711 132.11 79.1441 131.951 79.0078C131.792 78.8716 131.508 78.6898 131.065 78.5309Z" fill="#502A73"/>
<path d="M149.483 70.5598C149.154 70.7415 148.802 71.014 148.37 71.2071C139.933 75.0791 132.53 74.4318 130.827 74.1707C130.736 75.0791 130.611 76.4871 130.475 77.9632C131.894 78.2017 135.005 78.5424 139.593 78.0882C143.93 77.6567 148.166 76.0329 150.482 75.0109C150.368 74.2842 150.255 73.6824 150.153 73.2396C149.926 72.2176 149.71 71.332 149.483 70.5598Z" fill="#008056" stroke="#502A73" stroke-width="0.228" stroke-miterlimit="10" stroke-linecap="round" stroke-linejoin="round"/>
<path d="M139.173 108.803C139.173 108.803 144.964 100.31 154.139 95.8814C160.986 92.5771 168.605 91.1918 176.088 91.1918C184.695 91.1918 185.206 85.5598 181.095 84.1972C177.042 82.846 170.444 86.0594 170.444 86.0594" fill="#008056"/>
<path d="M139.173 108.803C139.173 108.803 144.964 100.31 154.139 95.8814C160.986 92.5771 168.605 91.1918 176.088 91.1918C184.695 91.1918 185.206 85.5598 181.095 84.1972C177.042 82.846 170.444 86.0594 170.444 86.0594" stroke="#502A73" stroke-width="0.228" stroke-miterlimit="10" stroke-linecap="round" stroke-linejoin="round"/>
<path d="M125.91 116.354C123.957 116.071 122.89 117.229 122.742 117.399C122.594 117.274 121.55 116.479 119.585 117.433C117.7 118.353 117.133 120.283 117.462 121.146C117.632 121.6 118.064 121.033 118.779 120.374C119.79 119.454 120.414 119.795 120.414 119.795C120.414 119.795 118.87 120.533 118.291 121.634C117.712 122.736 118.427 124.087 119.074 123.156C120.142 121.612 120.8 121.487 120.8 121.487C120.8 121.487 120.142 122.145 119.812 122.986C119.483 123.826 119.722 124.609 120.267 124.541C120.596 124.496 122.083 121.453 121.868 123.224C121.572 125.654 121.527 127.38 121.629 128.55C121.675 129.106 122.027 129.469 122.435 129.401L122.81 129.333C123.219 129.265 123.582 128.777 123.639 128.198C123.764 126.994 123.753 125.279 123.514 122.929C123.344 121.226 124.763 123.78 125.093 123.701C125.638 123.587 125.887 122.713 125.581 121.986C125.274 121.26 124.627 120.817 124.627 120.817C124.627 120.817 125.286 120.715 126.319 121.896C126.943 122.611 127.693 121.01 127.136 120.102C126.58 119.193 125.047 118.977 125.047 118.977C125.047 118.977 125.683 118.421 126.682 119C127.386 119.409 127.806 119.829 127.988 119.318C128.306 118.376 127.784 116.627 125.91 116.354Z" fill="#EEC718" stroke="#502A73" stroke-width="0.228" stroke-miterlimit="10" stroke-linecap="round" stroke-linejoin="round"/>
<path d="M198.741 126.858C200.217 120.476 202.443 117.569 202.443 117.569L198.389 114.401C198.389 114.401 195.38 117.683 193.665 124.87C192.87 128.22 192.791 130.866 192.905 132.649C194.801 133.67 196.493 134.454 197.98 135.044C197.935 133.08 198.014 129.992 198.741 126.858Z" fill="#4BBEA5" stroke="#502A73" stroke-width="0.228" stroke-miterlimit="10" stroke-linecap="round" stroke-linejoin="round"/>
<path d="M215.41 115.866C213.162 119.999 207.938 121.544 203.794 119.295L195.629 114.856C191.496 112.607 189.952 107.384 192.2 103.239C194.449 99.1062 199.672 97.562 203.816 99.8103L211.981 104.25C216.125 106.51 217.658 111.733 215.41 115.866Z" fill="#4BBEA5" stroke="#502A73" stroke-width="0.228" stroke-miterlimit="10" stroke-linecap="round" stroke-linejoin="round"/>
<path d="M216.239 114.356C213.99 118.489 208.767 120.033 204.623 117.785L196.458 113.345C192.325 111.097 190.781 105.874 193.029 101.729C195.277 97.5958 200.501 96.0515 204.645 98.2998L212.809 102.74C216.943 104.999 218.487 110.222 216.239 114.356Z" fill="#4BBEA5" stroke="#502A73" stroke-width="0.228" stroke-miterlimit="10" stroke-linecap="round" stroke-linejoin="round"/>
<path d="M206.564 114.208L198.4 109.768C196.22 108.587 195.414 105.862 196.606 103.682C197.787 101.502 200.512 100.696 202.692 101.888L210.856 106.328C213.037 107.509 213.843 110.234 212.65 112.414C211.47 114.594 208.744 115.4 206.564 114.208Z" fill="#502A73" stroke="#502A73" stroke-width="0.228" stroke-miterlimit="10" stroke-linecap="round" stroke-linejoin="round"/>
<path d="M206.564 114.208L198.4 109.768C196.22 108.587 195.414 105.862 196.606 103.682C197.787 101.502 200.512 100.696 202.692 101.888L210.856 106.328C213.037 107.509 213.843 110.234 212.65 112.414C211.47 114.594 208.744 115.4 206.564 114.208Z" stroke="#502A73" stroke-width="0.228" stroke-miterlimit="10" stroke-linecap="round" stroke-linejoin="round"/>
<path d="M147.371 180.907C147.371 180.907 143.283 180.567 138.196 178.511C133.109 176.456 127.806 175.945 127.806 175.945" fill="white"/>
<path d="M147.371 180.907C147.371 180.907 143.283 180.567 138.196 178.511C133.109 176.456 127.806 175.945 127.806 175.945" stroke="#502A73" stroke-width="0.228" stroke-miterlimit="10" stroke-linecap="round" stroke-linejoin="round"/>
<path d="M136.402 177.853L94.7974 198.53C90.4144 200.71 86.9852 204.423 85.1684 208.977L70.4524 245.755" fill="white"/>
<path d="M136.402 177.853L94.7974 198.53C90.4144 200.71 86.9852 204.423 85.1684 208.977L70.4524 245.755" stroke="#502A73" stroke-width="0.228" stroke-miterlimit="10" stroke-linecap="round" stroke-linejoin="round"/>
<path d="M87.1926 37.2175C88.8748 37.2175 89.9028 36.2363 89.9028 34.4139V32.1242V32.0775C88.4542 33.8064 86.5384 34.554 84.1085 34.554C80.8843 34.554 77.0993 32.2644 77.2395 28.1523C77.5199 19.788 86.0244 20.4889 96.2578 20.4889L96.2111 34.04C96.2111 36.7035 95.6036 43.4324 87.7533 43.4324H70.6508C64.95 43.4324 60.4174 38.8063 60.1838 33.9933C60.0903 32.4046 60.1838 29.3205 62.6603 26.0495C65.3238 28.4794 67.193 30.0682 67.193 30.0682C67.193 30.0682 65.8379 31.8905 66.2584 33.9933C66.5855 35.6288 68.2677 37.2175 70.4172 37.2175H87.1926ZM89.9495 24.0402C87.7533 23.9935 83.2674 23.9468 83.2674 27.3579C83.2674 29.0869 84.5758 30.3485 86.3047 30.3485C89.8093 30.3485 89.9495 26.5168 89.9495 24.0402ZM84.8562 10.9564V16.3768H91.2112V10.9564H84.8562ZM115.807 41.9838C115.106 48.5257 109.826 51.8434 104.592 51.4229C101.695 51.1892 99.4054 50.1145 99.4054 50.1145L98.3774 44.9277C98.3774 44.9277 101.041 46.0024 103.751 46.0024C105.994 46.0024 109.499 44.6006 109.545 40.1614V24.087H115.9V32.9186C115.994 35.5353 117.629 37.2175 120.386 37.2175H123.564V43.4324H120.76C118.611 43.4324 116.975 42.8249 115.807 41.9838ZM129.55 43.4324H123.148V37.2175H127.774C130.204 37.2175 131.512 36.1428 131.512 33.4793V24.087H137.821V32.6849C137.821 35.4419 139.503 37.2175 142.306 37.2175H145.437V43.4324H142.68C139.269 43.4324 137.213 41.8436 135.998 40.1614C134.877 42.124 132.447 43.4324 129.55 43.4324ZM131.419 13.1526H137.774V18.5731H131.419V13.1526ZM122.167 13.1526H128.522V18.5731H122.167V13.1526ZM153.557 31.7971H147.623C147.763 24.601 153.931 21.4235 159.539 21.4235C168.043 21.4235 175.286 28.2925 175.286 37.2175H182.155V43.4324H145.006V37.2175H168.931C168.978 31.4233 165.38 27.0308 159.539 27.0308C156.408 27.0308 153.838 28.3392 153.557 31.7971ZM187.534 43.4324H181.973V37.2175H187.253C188.936 37.2175 189.917 36.1428 189.917 34.3204V32.1709C189.917 26.7972 193.608 21.0496 200.804 21.0496C208.001 21.0496 211.879 26.7972 211.879 32.1709C211.879 37.5914 208.001 43.9464 200.804 43.9464C197.206 43.9464 194.777 42.4511 193.094 40.9558C192.253 42.0305 190.337 43.4324 187.534 43.4324ZM205.384 32.1709C205.384 28.8532 204.216 26.143 200.804 26.143C197.534 26.143 196.365 29.1803 196.365 32.1709C196.365 35.4886 197.534 38.5727 200.804 38.5727C204.216 38.5727 205.384 35.9092 205.384 32.1709Z" fill="white"/>
</svg>
