<svg width="277" height="332" viewBox="0 0 277 332" fill="none" xmlns="http://www.w3.org/2000/svg">
<path d="M247.482 3H79.3724C63.3101 3 50.2891 16.467 50.2891 33.0793V250.152C50.2891 266.764 63.3101 280.231 79.3724 280.231H247.482C263.545 280.231 276.566 266.764 276.566 250.152V33.0793C276.566 16.467 263.545 3 247.482 3Z" fill="#4BBEA5"/>
<path d="M239.565 14.4351L263.841 14.4351V35.5151H260.033V19.5351H253.913V34.8691H250.105V19.5351H243.373V35.7871H239.565V14.4351ZM239.565 39.0583H257.585V43.7503H254.865V43.8183C256.803 45.3483 258.061 47.7283 258.061 50.9243C258.061 54.8003 256.667 58.5743 251.805 58.5743H239.565V53.8823H250.309C252.247 53.8823 254.457 53.2363 254.457 49.3603C254.457 46.9123 253.097 43.7503 249.255 43.7503H239.565V39.0583ZM244.597 63.8289H254.185V60.0889H257.585V63.8289H263.161V68.5209H257.585V73.4169H254.185V68.5209H245.957C243.883 68.5209 242.761 68.6229 242.761 70.2209C242.761 71.3769 242.795 72.4649 242.829 73.5869H239.429C239.259 72.3289 239.157 71.4109 239.157 69.9829C239.157 64.2709 241.197 63.8289 244.597 63.8289ZM239.565 76.2126H264.249V80.9046H254.865V80.9726C256.803 82.5026 258.061 84.8826 258.061 88.0786C258.061 91.9546 256.667 95.7286 251.805 95.7286H239.565V91.0366H250.309C252.247 91.0366 254.457 90.3906 254.457 86.5146C254.457 84.0666 253.097 80.9046 249.255 80.9046H239.565V76.2126ZM245.549 99.5212H257.585V104.213H247.317C244.563 104.213 242.489 104.859 242.489 108.871C242.489 110.945 243.849 114.345 247.691 114.345H257.585V119.037H239.565V114.345H242.081V114.277C240.143 112.747 238.885 110.367 238.885 107.171C238.885 103.295 240.279 99.5212 245.549 99.5212ZM245.209 121.912V127.012C242.489 127.148 242.081 130.276 242.081 131.976C242.081 134.322 242.693 136.872 244.393 136.872C245.787 136.872 246.263 136.09 246.943 131.024C247.691 125.448 248.337 122.524 252.451 122.524C257.585 122.524 258.265 128.508 258.265 131.534C258.265 134.322 257.857 141.02 252.077 141.292V136.396C254.763 136.022 255.069 132.894 255.069 131.296C255.069 128.644 253.947 127.216 252.995 127.216C251.533 127.216 251.295 127.658 250.649 132.18C249.799 138.096 249.221 141.972 245.039 141.972C240.449 141.972 238.885 137.586 238.885 132.01C238.885 128.168 239.701 122.082 245.209 121.912ZM239.565 145.013H257.585V149.705H239.565V145.013ZM260.441 145.013H264.249V149.705H260.441V145.013ZM252.213 172.988H243.679C242.693 172.988 242.659 173.702 242.659 174.008C242.659 174.45 242.693 175.164 242.761 175.538H239.463C239.293 174.62 239.055 173.804 239.055 172.206C239.055 169.146 240.687 168.806 241.367 168.67C240.483 167.752 238.885 165.474 238.885 160.204C238.885 155.512 240.993 152.86 244.529 152.86C249.493 152.86 249.935 157.96 250.207 160.952C250.853 167.684 251.091 168.398 252.485 168.398C254.559 168.398 255.069 166.018 255.069 163.298C255.069 160.204 254.083 158.538 252.077 158.368V153.778C256.803 154.458 258.265 157.96 258.265 163.298C258.265 172.716 254.559 172.988 252.213 172.988ZM246.807 168.296H248.541C247.963 166.936 247.793 165.474 247.419 162.142C247.011 158.606 246.229 157.756 244.699 157.756C242.319 157.756 241.877 159.932 241.877 161.53C241.877 164.046 242.829 168.296 246.807 168.296ZM245.209 176.664V181.764C242.489 181.9 242.081 185.028 242.081 186.728C242.081 189.074 242.693 191.624 244.393 191.624C245.787 191.624 246.263 190.842 246.943 185.776C247.691 180.2 248.337 177.276 252.451 177.276C257.585 177.276 258.265 183.26 258.265 186.286C258.265 189.074 257.857 195.772 252.077 196.044V191.148C254.763 190.774 255.069 187.646 255.069 186.048C255.069 183.396 253.947 181.968 252.995 181.968C251.533 181.968 251.295 182.41 250.649 186.932C249.799 192.848 249.221 196.724 245.039 196.724C240.449 196.724 238.885 192.338 238.885 186.762C238.885 182.92 239.701 176.834 245.209 176.664ZM244.597 201.091H254.185V197.351H257.585V201.091H263.161V205.783H257.585V210.679H254.185V205.783H245.957C243.883 205.783 242.761 205.885 242.761 207.483C242.761 208.639 242.795 209.727 242.829 210.849H239.429C239.259 209.591 239.157 208.673 239.157 207.245C239.157 201.533 241.197 201.091 244.597 201.091ZM239.565 213.61H257.585V218.302H239.565V213.61ZM260.441 213.61H264.249V218.302H260.441V213.61ZM251.261 242.504V237.608C253.131 237.268 254.661 235.296 254.661 232.61C254.661 228.258 251.703 226.354 248.575 226.354C245.447 226.354 242.489 228.054 242.489 232.1C242.489 235.738 243.917 236.724 246.467 237.71V242.606C238.987 241.518 238.885 233.868 238.885 232.61C238.885 224.552 243.611 221.458 248.575 221.458C254.389 221.458 258.265 225.64 258.265 232.61C258.265 235.33 257.347 241.518 251.261 242.504Z" fill="white"/>
<path d="M207.471 123.385C206.143 121.478 204.11 119.036 201.726 116.357C200.272 116.811 184.171 111.974 178.312 118.014C171.987 124.532 174.326 142.371 174.326 142.371L177.108 164.74C177.108 164.74 199.761 153.499 206.722 145.527C211.684 139.85 214.182 133.003 207.471 123.385Z" fill="#BF792A" stroke="#502A73" stroke-width="0.2532" stroke-miterlimit="10" stroke-linecap="round" stroke-linejoin="round"/>
<path d="M166.286 125.418C165.969 125.929 174.326 142.371 174.326 142.371C174.326 142.371 178.141 132.787 184.375 126.178C193.504 116.504 200.283 116.822 201.737 116.368C192.051 105.512 176.358 90.6261 176.358 90.6261L159.53 96.1333V101.493C162.528 111.61 166.491 125.1 166.286 125.418Z" fill="white" stroke="#502A73" stroke-width="0.2532" stroke-miterlimit="10" stroke-linecap="round" stroke-linejoin="round"/>
<path d="M42.9261 291.393C42.9261 291.393 31.7755 281.208 35.6135 274.917C38.0548 270.92 45.481 268.331 49.5574 271.499C56.007 276.507 44.9359 293.971 44.9359 293.971L42.9261 291.393Z" fill="#4BBEA5" stroke="#502A73" stroke-width="0.2532" stroke-miterlimit="10" stroke-linecap="round" stroke-linejoin="round"/>
<path d="M62.8765 287.305C60.2308 285.068 50.4315 286.919 36.2832 289.508C22.1463 292.097 11.6088 292.994 5.85187 295.89C0.0949114 298.785 -0.177569 303.475 3.19485 309.675C6.56728 315.874 17.1728 323.414 41.075 327.615C64.9772 331.817 74.2769 331.601 77.127 330.965C79.9771 330.329 85.189 329.216 86.2904 321.37C86.5062 319.803 87.6984 311.071 87.6984 311.071L89.8445 292.574C87.3124 289.724 77.831 298.025 75.5373 296.775C72.3693 295.061 63.8644 288.146 62.8765 287.305Z" fill="#4BBEA5" stroke="#502A73" stroke-width="0.2532" stroke-miterlimit="10" stroke-linecap="round" stroke-linejoin="round"/>
<path d="M88.7768 292.018C85.6997 291.484 82.0774 296.185 79.2387 296.537C75.923 302.782 74.0835 315.988 76.5589 320.882C78.4211 324.561 81.1463 326.582 83.6557 327.684C84.8821 326.31 85.87 324.311 86.2901 321.37C86.5059 319.803 87.6981 311.071 87.6981 311.071L89.8328 292.642L88.7768 292.018Z" fill="#4BBEA5" stroke="#502A73" stroke-width="0.2532" stroke-miterlimit="10" stroke-linecap="round" stroke-linejoin="round"/>
<path d="M77.1267 330.954C79.9768 330.318 85.1888 329.205 86.2902 321.359C86.4151 320.473 86.8466 317.294 87.1986 314.705C86.733 314.421 86.2448 314.114 85.677 314.024C72.9822 311.946 64.2275 325.901 47.0702 321.631C39.9279 319.849 39.8825 312.161 34.4661 307.949C29.0498 303.736 17.8538 310.152 11.6767 309.482C5.06815 308.766 2.13857 300.761 2.16128 298.876C0.253642 301.647 0.810074 305.28 3.19462 309.663C6.56704 315.863 17.1726 323.403 41.0747 327.604C64.9769 331.805 74.2766 331.59 77.1267 330.954Z" fill="#008056" stroke="#502A73" stroke-width="0.2532" stroke-miterlimit="10" stroke-linecap="round" stroke-linejoin="round"/>
<path d="M65.9427 307.563C65.3409 307.495 64.5006 307.392 63.3424 307.256C59.1979 306.768 52.2373 306.393 52.2373 306.393L53.4637 311.276L66.3401 308.028C66.2152 307.881 66.079 307.722 65.9427 307.563Z" fill="#008056" stroke="#502A73" stroke-width="0.2532" stroke-miterlimit="10" stroke-linecap="round" stroke-linejoin="round"/>
<path d="M8.78181 294.698C7.70309 295.061 6.72655 295.447 5.85221 295.879C2.16185 297.73 0.731162 300.33 1.06046 303.577C6.61303 299.694 8.77046 294.72 8.78181 294.698Z" fill="#008056" stroke="#502A73" stroke-width="0.2532" stroke-miterlimit="10" stroke-linecap="round" stroke-linejoin="round"/>
<path d="M179.129 168.181C179.129 168.181 179.129 172.734 177.993 176.663C176.858 180.58 176.347 180.455 176.597 183.873C176.846 187.291 181.4 207.787 181.4 207.787C181.4 207.787 193.039 217.086 217.077 222.332C226.888 224.479 234.62 227.76 234.62 227.76L190.54 284.978C190.54 284.978 192.539 287.056 191.517 286.147C188.19 283.184 177.653 271.965 166.332 263.574C151.65 252.696 143.554 243.578 139.42 228.01C136.741 217.915 137.104 190.493 137.104 190.493L124.682 183.657L113.77 177.151L112.248 156.769" fill="#008056"/>
<path d="M179.129 168.181C179.129 168.181 179.129 172.734 177.993 176.663C176.858 180.58 176.347 180.455 176.597 183.873C176.846 187.291 181.4 207.787 181.4 207.787C181.4 207.787 193.039 217.086 217.077 222.332C226.888 224.479 234.62 227.76 234.62 227.76L190.54 284.978C190.54 284.978 192.539 287.056 191.517 286.147C188.19 283.184 177.653 271.965 166.332 263.574C151.65 252.696 143.554 243.578 139.42 228.01C136.741 217.915 137.104 190.493 137.104 190.493L124.682 183.657L113.77 177.151L112.248 156.769" stroke="#502A73" stroke-width="0.2532" stroke-miterlimit="10" stroke-linecap="round" stroke-linejoin="round"/>
<path d="M145.223 187.416C145.223 187.416 147.244 210.443 148.64 216.643C150.037 222.843 151.298 230.303 159.643 237.264C165.423 242.078 183.784 251.673 194.56 257.135" fill="#008056"/>
<path d="M145.223 187.416C145.223 187.416 147.244 210.443 148.64 216.643C150.037 222.843 151.298 230.303 159.643 237.264C165.423 242.078 183.784 251.673 194.56 257.135" stroke="#502A73" stroke-width="0.2532" stroke-miterlimit="10" stroke-linecap="round" stroke-linejoin="round"/>
<path d="M110.93 154.827C110.93 154.827 94.4882 173.199 78.5345 199.055C55.6996 236.06 40.3818 285.591 40.3818 285.591C40.3818 285.591 42.4712 300.159 68.0085 303.986C84.3937 306.439 98.5987 302.01 99.7342 294.232C99.7683 294.005 99.791 293.778 99.8023 293.562C100.279 288.702 103.64 258.362 115.302 232.086C128.019 203.426 139.022 191.469 139.022 191.469L160.79 181.602" fill="#008056"/>
<path d="M110.93 154.827C110.93 154.827 94.4882 173.199 78.5345 199.055C55.6996 236.06 40.3818 285.591 40.3818 285.591C40.3818 285.591 42.4712 300.159 68.0085 303.986C84.3937 306.439 98.5987 302.01 99.7342 294.232C99.7683 294.005 99.791 293.778 99.8023 293.562C100.279 288.702 103.64 258.362 115.302 232.086C128.019 203.426 139.022 191.469 139.022 191.469L160.79 181.602" stroke="#502A73" stroke-width="0.2532" stroke-miterlimit="10" stroke-linecap="round" stroke-linejoin="round"/>
<path d="M66.9532 274.383C63.6716 284.705 60.7875 294.266 58.5732 301.794C60.1062 302.294 61.7753 302.76 63.5694 303.157C70.8933 278.267 85.5526 231.144 98.2361 206.526C100.984 201.189 101.983 199.259 104.561 194.649C111.59 182.079 121.741 166.875 130.109 161.992L123.842 159.63C116.915 166.114 108.138 177.696 101.279 189.88C98.4291 194.922 96.8053 198.033 93.6487 204.153C86.109 218.767 77.1272 242.397 66.9532 274.383Z" fill="#4BBEA5" stroke="#502A73" stroke-width="0.2532" stroke-miterlimit="10" stroke-linecap="round" stroke-linejoin="round"/>
<path d="M164.957 90.6149C164.957 90.6149 171.407 97.3257 174.825 112.757C178.243 128.188 181.661 145.403 184.817 151.228C187.985 157.053 193.038 165.024 193.038 165.024C193.038 165.024 188.735 173.506 180.389 172.745C172.043 171.985 172.543 170.179 166.286 172.791C160.018 175.402 151.797 177.776 144.212 172.791C136.616 167.806 136.877 165.274 129.405 165.535C121.945 165.785 113.588 165.41 106.377 160.096C99.1669 154.782 97.3955 146.686 97.3955 146.686L110.681 93.2947L126.987 90.6376H164.957V90.6149Z" fill="white" stroke="#502A73" stroke-width="0.2532" stroke-miterlimit="10" stroke-linecap="round" stroke-linejoin="round"/>
<path d="M119.413 102.64C115.745 93.9077 110.681 93.2718 110.681 93.2718L107.206 94.3278C104.152 95.259 101.54 97.2688 99.8708 100.005L81.453 130.141L76.877 128.018C71.1995 125.384 65.9422 121.898 61.3207 117.674L54.8824 111.803L53.9172 102.878C53.8832 102.537 53.8264 102.208 53.7242 101.879C52.9861 99.3921 50.7492 97.8138 48.3192 97.8138H46.1618L44.2315 95.2476C43.6183 94.43 42.2216 93.181 41.2905 92.7722C38.202 91.3983 36.7145 94.7593 36.0899 95.2021C35.4541 95.645 34.6024 94.623 33.0354 95.5769C30.5487 97.0871 31.3323 98.5291 30.526 99.1877C29.9469 99.6533 29.1067 99.1423 28.0166 100.039C26.7789 101.061 26.8811 103.639 26.4042 104.116C22.4186 108.056 25.2687 112.802 27.6987 116.311C30.2195 119.945 38.202 126.054 38.202 126.054C38.202 126.054 58.2889 153.601 74.5833 162.787C78.9209 164.956 83.9284 165.353 88.5499 163.877C92.4105 162.651 95.7716 160.198 98.1107 156.894L118.129 128.677C120.457 125.395 121.729 121.478 121.763 117.458C121.774 113.052 121.354 107.273 119.413 102.64Z" fill="#BF792A" stroke="#502A73" stroke-width="0.2532" stroke-miterlimit="10" stroke-linecap="round" stroke-linejoin="round"/>
<path d="M118.107 128.677C120.434 125.395 121.706 121.478 121.74 117.458C121.774 113.064 121.354 107.284 119.412 102.64C115.745 93.9078 110.68 93.2719 110.68 93.2719L107.206 94.3279C104.151 95.259 101.54 97.2688 99.8705 100.005L83.3604 127.007C83.9054 129.267 85.6541 132.73 90.5594 137.306C95.9644 142.337 101.528 145.232 105.275 146.776L118.107 128.677Z" fill="white" stroke="#502A73" stroke-width="0.2532" stroke-miterlimit="10" stroke-linecap="round" stroke-linejoin="round"/>
<path d="M81.4417 130.141C78.989 134.116 77.0928 138.419 75.821 142.916L75.6279 143.574" fill="#BF792A"/>
<path d="M81.4417 130.141C78.989 134.116 77.0928 138.419 75.821 142.916L75.6279 143.574" stroke="#502A73" stroke-width="0.2532" stroke-miterlimit="10" stroke-linecap="round" stroke-linejoin="round"/>
<path d="M66.8963 124.532C66.8963 124.532 63.5239 125.395 60.4921 130.198C57.4603 135.001 56.4043 140.474 56.4043 140.474L70.0643 132.503L67.4073 144.528" fill="#BF792A"/>
<path d="M66.8963 124.532C66.8963 124.532 63.5239 125.395 60.4921 130.198C57.4603 135.001 56.4043 140.474 56.4043 140.474L70.0643 132.503L67.4073 144.528" stroke="#502A73" stroke-width="0.2532" stroke-miterlimit="10" stroke-linecap="round" stroke-linejoin="round"/>
<path d="M64.0454 120.024C64.0454 120.024 63.3641 119.57 62.3421 119.763C53.701 121.421 47.4445 131.811 46.9222 134.854C46.5929 136.773 47.0243 137.215 47.0243 137.215C47.0243 137.215 44.9804 139.418 40.0978 133.014C38.3037 130.664 34.7269 128.268 36.7708 123.044C38.8147 117.821 44.5944 112.655 49.9199 111.042C53.6784 109.895 56.0856 110.895 60.355 114.176C64.6245 117.446 64.0454 120.024 64.0454 120.024Z" fill="#008056" stroke="#502A73" stroke-width="0.2532" stroke-miterlimit="10" stroke-linecap="round" stroke-linejoin="round"/>
<path d="M55.6994 116.618C55.6994 116.618 53.3716 117.662 51.5662 119.15C48.7728 121.466 47.5352 122.817 47.5352 122.817V114.653C47.5352 114.653 51.6229 114.472 55.6994 116.618Z" fill="#EEC718" stroke="#502A73" stroke-width="0.2532" stroke-miterlimit="10" stroke-linecap="round" stroke-linejoin="round"/>
<path d="M46.1504 97.8139C46.1504 97.8139 47.4221 99.6533 48.4895 102.31L46.1504 97.8139Z" fill="#BF792A"/>
<path d="M46.1504 97.8139C46.1504 97.8139 47.4221 99.6533 48.4895 102.31" stroke="#502A73" stroke-width="0.2532" stroke-miterlimit="10" stroke-linecap="round" stroke-linejoin="round"/>
<path d="M228.384 268.509C240.727 252.551 244.596 234.868 237.026 229.013C229.456 223.158 213.314 231.348 200.971 247.306C188.629 263.264 184.76 280.947 192.329 286.802C199.899 292.657 216.041 284.466 228.384 268.509Z" fill="#502A73" stroke="#502A73" stroke-width="0.2532" stroke-miterlimit="10" stroke-linecap="round" stroke-linejoin="round"/>
<path d="M228.384 268.509C240.727 252.551 244.596 234.868 237.026 229.013C229.456 223.158 213.314 231.348 200.971 247.306C188.629 263.264 184.76 280.947 192.329 286.802C199.899 292.657 216.041 284.466 228.384 268.509Z" stroke="#502A73" stroke-width="0.2532" stroke-miterlimit="10" stroke-linecap="round" stroke-linejoin="round"/>
<path d="M163.947 215.372C163.947 215.372 165.73 216.178 172.872 214.168C183.228 211.261 181.411 207.775 181.411 207.775" fill="#008056"/>
<path d="M163.947 215.372C163.947 215.372 165.73 216.178 172.872 214.168C183.228 211.261 181.411 207.775 181.411 207.775" stroke="#502A73" stroke-width="0.2532" stroke-miterlimit="10" stroke-linecap="round" stroke-linejoin="round"/>
<path d="M200.987 247.37C195.025 255.08 191.04 263.199 189.359 270.182L190.733 272.6L207.641 274.236L221.392 235.186L215.941 232.949C210.866 236.412 205.654 241.329 200.987 247.37Z" fill="#BF792A" stroke="#502A73" stroke-width="0.2532" stroke-miterlimit="10" stroke-linecap="round" stroke-linejoin="round"/>
<path d="M202.031 279.709C202.031 279.709 202.236 293.323 195.832 295.901C192.085 297.411 186.873 292.335 184.988 287.612C181.593 279.13 194.639 269.046 194.639 269.046L201.055 261.972L202.031 279.709Z" fill="#4BBEA5" stroke="#502A73" stroke-width="0.2532" stroke-miterlimit="10" stroke-linecap="round" stroke-linejoin="round"/>
<path d="M200.975 280.583C200.998 283.581 200.26 292.188 196.581 293.675C195.616 294.061 193.413 293.619 190.563 290.814C189.269 289.542 188.122 287.85 187.509 286.317C186.362 283.456 188.928 279.55 190.563 277.483C193.152 274.201 196.206 271.817 196.24 271.783L196.434 271.635L198.682 269.16L200.975 280.583Z" fill="#4BBEA5" stroke="#502A73" stroke-width="0.2532" stroke-miterlimit="10" stroke-linecap="round" stroke-linejoin="round"/>
<path d="M211.025 243.463C210.582 245.621 210.343 247.699 210.218 249.073C210.116 250.174 209.662 251.208 208.901 252.014L199.738 261.881C198.466 263.414 197.603 265.254 197.24 267.207L194.81 283.16C194.81 283.16 192.766 290.462 192.539 302.305C192.312 314.148 196.638 323.743 204.825 327.592C213.012 331.442 240.718 280.458 240.718 280.458L255.479 244.917C255.479 244.917 251.051 238.013 242.001 237.4C237.107 237.071 228.125 235.924 221.403 235.152C219.075 234.879 216.736 235.572 214.931 237.059C214.885 237.093 214.84 237.127 214.806 237.162C212.864 238.797 211.536 241.011 211.025 243.463Z" fill="#4BBEA5" stroke="#502A73" stroke-width="0.2532" stroke-miterlimit="10" stroke-linecap="round" stroke-linejoin="round"/>
<path d="M242.001 237.434C237.107 237.105 228.125 235.958 221.403 235.186C219.075 234.913 216.736 235.606 214.931 237.094C214.885 237.128 214.84 237.162 214.806 237.196C214.783 237.207 214.772 237.23 214.749 237.241C216.384 237.786 218.689 238.433 221.403 238.82C226.808 239.58 238.765 241.102 238.765 241.102L244.567 237.798C243.75 237.616 242.898 237.491 242.001 237.434Z" fill="#4BBEA5" stroke="#502A73" stroke-width="0.2532" stroke-miterlimit="10" stroke-linecap="round" stroke-linejoin="round"/>
<path d="M255.48 244.94C255.48 244.94 251.051 238.036 242.002 237.423C239.787 237.275 236.744 236.957 233.451 236.583C231.305 236.935 224.799 240.012 222.971 252.468C220.121 271.874 207.687 271.34 202.577 283.217C200.034 289.133 201.408 293.232 199.5 300.159C197.604 307.086 194.47 310.776 194.47 310.776L204.371 316.135C204.371 316.135 226.922 288.759 227.127 288.429C227.263 288.213 236.971 279.516 243.728 273.202L255.48 244.94Z" fill="#008056" stroke="#502A73" stroke-width="0.2532" stroke-miterlimit="10" stroke-linecap="round" stroke-linejoin="round"/>
<path d="M204.7 315.613C204.7 315.613 196.922 308.323 193.209 310.742C194.719 318.611 198.682 324.731 204.814 327.627C206.994 328.649 210.571 325.776 214.624 321.018C216.487 317.226 218.008 314.08 218.008 314.08L204.7 315.613Z" fill="#008056" stroke="#502A73" stroke-width="0.2532" stroke-miterlimit="10" stroke-linecap="round" stroke-linejoin="round"/>
<path d="M212.183 257.112C212.183 257.112 213.965 250.368 215.271 246.416C216.588 242.453 216.588 242.453 216.588 242.453L217.213 256.897L212.183 257.112Z" fill="#008056" stroke="#502A73" stroke-width="0.2532" stroke-miterlimit="10" stroke-linecap="round" stroke-linejoin="round"/>
<path d="M202.758 310.004C198.5 327.933 206.891 332.089 216.782 326.821C228.818 320.416 238.163 304.974 245.691 290.371C251.698 278.732 257.603 266.242 258.409 257.987C259.84 243.282 250.211 241.125 248.496 240.796C241.66 239.467 235.233 241.499 221.766 275.508C219.325 281.662 205.381 298.933 202.758 310.004Z" fill="#502A73" stroke="#502A73" stroke-width="0.2532" stroke-miterlimit="10" stroke-linecap="round" stroke-linejoin="round"/>
<path d="M202.758 310.004C198.5 327.933 206.891 332.089 216.782 326.821C228.818 320.416 238.163 304.974 245.691 290.371C251.698 278.732 257.603 266.242 258.409 257.987C259.84 243.282 250.211 241.125 248.496 240.796C241.66 239.467 235.233 241.499 221.766 275.508C219.325 281.662 205.381 298.933 202.758 310.004Z" stroke="#502A73" stroke-width="0.2532" stroke-miterlimit="10" stroke-linecap="round" stroke-linejoin="round"/>
<path d="M146.573 69.2673H146.017C143.36 69.2673 141.18 67.0985 141.18 64.43V60.206C141.18 57.5489 143.348 55.3688 146.017 55.3688H146.573C149.23 55.3688 151.41 57.5375 151.41 60.206V64.43C151.399 67.0871 149.23 69.2673 146.573 69.2673Z" fill="#EEC718" stroke="#502A73" stroke-width="0.2532" stroke-miterlimit="10" stroke-linecap="round" stroke-linejoin="round"/>
<path d="M145.211 69.2673H144.655C141.998 69.2673 139.817 67.0985 139.817 64.43V60.206C139.817 57.5489 141.986 55.3688 144.655 55.3688H145.211C147.868 55.3688 150.048 57.5375 150.048 60.206V64.43C150.048 67.0871 147.868 69.2673 145.211 69.2673Z" fill="#EEC718" stroke="#502A73" stroke-width="0.2532" stroke-miterlimit="10" stroke-linecap="round" stroke-linejoin="round"/>
<path d="M146.812 50.5885C145.347 44.0594 144.405 42.3561 140.136 41.2774C134.367 39.8126 125.124 54.1426 125.124 54.1426C125.124 54.1426 124.636 59.593 124.511 61.4438C124.488 61.7618 124.352 62.0684 124.136 62.3182L122.024 64.6573C121.525 65.3045 121.809 66.247 122.592 66.4968L124.148 67.1327C124.057 68.0638 123.966 68.4499 123.807 68.9949C123.41 70.3234 124.261 70.8117 124.534 70.9593C125.011 71.2204 124.295 71.2772 124.193 72.1856C124.102 72.9691 124.5 73.2189 124.545 73.6845C124.659 74.8541 124.772 75.3196 124.874 76.1939C125.033 77.477 126.055 78.4876 127.339 78.6352L134.049 79.396L135.855 88.2642L136.525 87.935L150.514 85.8797C150.469 85.2893 149.606 76.1598 149.549 75.4899C148.856 67.4392 147.653 54.3243 146.812 50.5885Z" fill="#BF792A" stroke="#502A73" stroke-width="0.2532" stroke-miterlimit="10" stroke-linecap="round" stroke-linejoin="round"/>
<path d="M125.079 54.5627C122.353 54.6649 119.038 52.6665 123.546 48.4538C126.373 45.7967 134.378 39.8126 140.147 41.2774C144.416 42.3562 145.359 44.0708 146.823 50.5885C147.346 52.939 148.016 58.9798 148.617 65.1456C148.697 65.9631 148.061 66.6785 147.243 66.6898C147.221 66.6898 147.198 66.6898 147.175 66.6898C144.382 66.7353 141.861 64.9866 140.941 62.3409C140.76 61.8072 140.646 61.4552 140.646 61.4552C140.646 61.4552 138.988 58.8095 137.694 58.3099C136.979 58.0374 136.32 58.8322 136.275 59.8996C136.138 63.3401 135.559 64.646 133.618 63.7943C131.676 62.9541 132.346 60.3538 132.346 60.3538C132.346 60.3538 131.63 60.1494 131.426 59.5476C131.222 58.9458 133.254 56.777 133.152 56.5045C133.05 56.232 131.699 56.7997 131.528 55.8572C131.347 54.9148 132.8 52.0987 132.709 52.0079C132.607 51.917 129.371 54.4038 125.079 54.5627Z" fill="#502A73" stroke="#502A73" stroke-width="0.2532" stroke-miterlimit="10" stroke-linecap="round" stroke-linejoin="round"/>
<path d="M125.079 54.5627C122.353 54.6649 119.038 52.6665 123.546 48.4538C126.373 45.7967 134.378 39.8126 140.147 41.2774C144.416 42.3562 145.359 44.0708 146.823 50.5885C147.346 52.939 148.016 58.9798 148.617 65.1456C148.697 65.9631 148.061 66.6785 147.243 66.6898C147.221 66.6898 147.198 66.6898 147.175 66.6898C144.382 66.7353 141.861 64.9866 140.941 62.3409C140.76 61.8072 140.646 61.4552 140.646 61.4552C140.646 61.4552 138.988 58.8095 137.694 58.3099C136.979 58.0374 136.32 58.8322 136.275 59.8996C136.138 63.3401 135.559 64.646 133.618 63.7943C131.676 62.9541 132.346 60.3538 132.346 60.3538C132.346 60.3538 131.63 60.1494 131.426 59.5476C131.222 58.9458 133.254 56.777 133.152 56.5045C133.05 56.232 131.699 56.7997 131.528 55.8572C131.347 54.9148 132.8 52.0987 132.709 52.0079C132.607 51.917 129.371 54.4038 125.079 54.5627Z" stroke="#502A73" stroke-width="0.2532" stroke-miterlimit="10" stroke-linecap="round" stroke-linejoin="round"/>
<path d="M140.362 41.3341C140.282 41.3114 140.214 41.2887 140.135 41.2774C138.874 40.9594 137.5 40.9935 136.104 41.2774C131.448 47.0684 134.037 57.0834 134.037 57.0834H138.409C138.42 57.0721 135.354 46.4552 140.362 41.3341Z" fill="#EEC718" stroke="#502A73" stroke-width="0.2532" stroke-miterlimit="10" stroke-linecap="round" stroke-linejoin="round"/>
<path d="M124.534 70.9594C124.534 70.9594 125.749 71.5839 126.794 70.9594" stroke="#502A73" stroke-width="0.2532" stroke-miterlimit="10" stroke-linecap="round" stroke-linejoin="round"/>
<path d="M125.953 59.8315C126.487 59.7065 127.032 59.7406 127.543 59.9222" stroke="#502A73" stroke-width="0.5065" stroke-miterlimit="10" stroke-linecap="round" stroke-linejoin="round"/>
<path d="M126.191 59.8313C126.021 60.1038 125.896 60.5694 125.874 61.0009C125.839 61.6822 126.067 62.0228 126.373 62.0456C126.68 62.0683 126.952 61.7503 126.986 61.069C127.009 60.6375 126.941 60.1606 126.805 59.8654L126.191 59.8313Z" fill="#502A73"/>
<path d="M125.17 57.6399C125.295 57.9237 125.647 58.0259 125.908 57.8556C126.351 57.5717 127.066 57.2538 127.941 57.4355C128.417 57.5377 128.758 57.6739 129.019 57.8101C129.315 57.9691 129.678 57.7534 129.678 57.4127C129.678 57.2765 129.621 57.1516 129.519 57.0607C128.997 56.5952 127.271 55.3575 125.306 57.0266C125.136 57.1856 125.079 57.4355 125.17 57.6399Z" fill="#502A73"/>
<path d="M129.269 70.2327C129.269 70.2327 127.475 68.4046 126.953 68.1321C126.51 67.8936 125.59 67.6211 124.08 67.6325C124 68.2116 123.921 68.5522 123.796 68.9837C123.751 69.1427 123.716 69.2903 123.705 69.4266C125.113 69.5742 125.681 69.2789 126.578 69.4152C126.828 69.4493 127.566 70.0851 128.258 70.3122C128.86 70.5053 129.269 70.2327 129.269 70.2327Z" fill="#502A73" stroke="#502A73" stroke-width="0.2532" stroke-miterlimit="10" stroke-linecap="round" stroke-linejoin="round"/>
<path d="M129.269 70.2327C129.269 70.2327 127.475 68.4046 126.953 68.1321C126.51 67.8936 125.59 67.6211 124.08 67.6325C124 68.2116 123.921 68.5522 123.796 68.9837C123.751 69.1427 123.716 69.2903 123.705 69.4266C125.113 69.5742 125.681 69.2789 126.578 69.4152C126.828 69.4493 127.566 70.0851 128.258 70.3122C128.86 70.5053 129.269 70.2327 129.269 70.2327Z" stroke="#502A73" stroke-width="0.2532" stroke-miterlimit="10" stroke-linecap="round" stroke-linejoin="round"/>
<path d="M126.51 88.6504L126.464 86.0728C126.442 84.8124 127.384 83.7337 128.644 83.5974L152.853 80.9971C154.307 80.8382 155.749 81.3832 156.737 82.4619L166.297 92.9425L146.937 96.1106L126.51 88.6504Z" fill="#008056" stroke="#502A73" stroke-width="0.2532" stroke-miterlimit="10" stroke-linecap="round" stroke-linejoin="round"/>
<path d="M126.51 88.6504L126.464 86.0728C126.442 84.8124 127.384 83.7337 128.644 83.5974L152.853 80.9971C154.307 80.8382 155.749 81.3832 156.737 82.4619L166.297 92.9425L146.937 96.1106L126.51 88.6504Z" stroke="#502A73" stroke-width="0.2532" stroke-miterlimit="10" stroke-linecap="round" stroke-linejoin="round"/>
<path d="M126.509 88.6501L153.148 91.1255C155.794 91.3753 158.451 90.9325 160.881 89.8651L172.02 84.9484C174.654 83.7902 177.607 83.5858 180.377 84.3693L204.064 91.1255L182.546 96.4737C179.798 97.155 177.209 98.3813 174.927 100.062L168.454 104.854C166.025 106.648 163.084 107.624 160.063 107.624H148.072C144.734 107.624 141.509 106.409 139.011 104.206L125.044 91.2731C124.579 90.8417 124.613 90.0809 125.124 89.7062L126.509 88.6501Z" fill="#008056" stroke="#502A73" stroke-width="0.2532" stroke-miterlimit="10" stroke-linecap="round" stroke-linejoin="round"/>
<path d="M126.509 88.6501L153.148 91.1255C155.794 91.3753 158.451 90.9325 160.881 89.8651L172.02 84.9484C174.654 83.7902 177.607 83.5858 180.377 84.3693L204.064 91.1255L182.546 96.4737C179.798 97.155 177.209 98.3813 174.927 100.062L168.454 104.854C166.025 106.648 163.084 107.624 160.063 107.624H148.072C144.734 107.624 141.509 106.409 139.011 104.206L125.044 91.2731C124.579 90.8417 124.613 90.0809 125.124 89.7062L126.509 88.6501Z" stroke="#502A73" stroke-width="0.2532" stroke-miterlimit="10" stroke-linecap="round" stroke-linejoin="round"/>
<path d="M180.672 165.841C180.672 165.841 193.969 167.17 206.209 161.481C218.45 155.792 227.193 141.769 225.468 129.506C223.56 115.936 212.92 105.308 195.581 113.154C181.524 119.513 179.855 128.154 166.285 133.468C150.843 139.521 136.138 131.379 136.558 114.971C136.91 101.22 143.7 96.86 142.894 87.9464C142.202 80.3613 135.479 78.5558 135.479 69.2788V64.0329" stroke="#502A73" stroke-width="1.2662" stroke-miterlimit="10" stroke-linecap="round" stroke-linejoin="round"/>
<path d="M180.672 165.841C180.672 165.841 193.969 167.17 206.209 161.481C218.45 155.792 227.193 141.769 225.468 129.506C223.56 115.936 212.92 105.308 195.581 113.154C181.524 119.513 179.855 128.154 166.285 133.468C150.843 139.521 136.138 131.379 136.558 114.971C136.91 101.22 143.7 96.86 142.894 87.9464C142.202 80.3613 135.479 78.5558 135.479 69.2788V64.0329" stroke="#EEC718" stroke-width="0.7597" stroke-miterlimit="10" stroke-linecap="round" stroke-linejoin="round"/>
<path d="M136.831 69.2673H136.275C133.618 69.2673 131.438 67.0985 131.438 64.43V60.206C131.438 57.5489 133.606 55.3688 136.275 55.3688H136.831C139.488 55.3688 141.668 57.5375 141.668 60.206V64.43C141.668 67.0871 139.488 69.2673 136.831 69.2673Z" fill="#EEC718" stroke="#502A73" stroke-width="0.2532" stroke-miterlimit="10" stroke-linecap="round" stroke-linejoin="round"/>
<path d="M135.469 69.2673H134.912C132.255 69.2673 130.075 67.0985 130.075 64.43V60.206C130.075 57.5489 132.244 55.3688 134.912 55.3688H135.469C138.126 55.3688 140.306 57.5375 140.306 60.206V64.43C140.306 67.0871 138.126 69.2673 135.469 69.2673Z" fill="#EEC718" stroke="#502A73" stroke-width="0.2532" stroke-miterlimit="10" stroke-linecap="round" stroke-linejoin="round"/>
<path d="M137.047 59.559C135.923 59.2411 135.299 59.7634 135.208 59.8429C135.128 59.7634 134.515 59.2524 133.38 59.5817C132.289 59.8996 131.96 60.8761 132.142 61.3644C132.244 61.6142 132.494 61.353 132.903 61.0692C133.482 60.6717 133.845 60.8989 133.845 60.8989C133.845 60.8989 132.948 61.1487 132.619 61.6937C132.289 62.2388 132.698 63.0109 133.073 62.568C133.697 61.8413 134.072 61.83 134.072 61.83C134.072 61.83 133.686 62.1252 133.504 62.534C133.311 62.9541 133.448 63.3856 133.766 63.397C133.959 63.397 134.81 61.9208 134.697 62.8405C134.526 64.1123 134.504 65.0207 134.56 65.6452C134.583 65.9518 134.788 66.1675 135.026 66.1675H135.242C135.48 66.1675 135.685 65.9405 135.719 65.6339C135.787 64.998 135.787 64.0896 135.651 62.8292C135.548 61.9095 136.377 63.3856 136.559 63.3743C136.877 63.3629 137.013 62.92 136.843 62.5113C136.661 62.0911 136.286 61.8073 136.286 61.8073C136.286 61.8073 136.661 61.8073 137.263 62.534C137.626 62.9655 138.058 62.182 137.74 61.6483C137.422 61.1146 136.536 60.8762 136.536 60.8762C136.536 60.8762 136.911 60.6377 137.479 61.0351C137.887 61.319 138.126 61.5802 138.228 61.319C138.432 60.8421 138.126 59.8769 137.047 59.559Z" fill="#EEC718" stroke="#502A73" stroke-width="0.2532" stroke-miterlimit="10" stroke-linecap="round" stroke-linejoin="round"/>
<path d="M195.956 88.8093C190.415 89.8993 180.911 91.2279 174.382 94.43C167.421 97.8478 165.025 107.624 157.52 107.624H160.04C163.061 107.624 166.002 106.648 168.432 104.854L174.904 100.062C177.186 98.3702 179.775 97.1552 182.523 96.4739L204.041 91.1257L195.956 88.8093Z" fill="#4BBEA5" stroke="#502A73" stroke-width="0.2532" stroke-miterlimit="10" stroke-linecap="round" stroke-linejoin="round"/>
<path d="M139.829 140.781C139.829 140.781 145.098 147.617 154.204 150.274C163.311 152.931 172.997 152.931 172.997 152.931" fill="white"/>
<path d="M139.829 140.781C139.829 140.781 145.098 147.617 154.204 150.274C163.311 152.931 172.997 152.931 172.997 152.931" stroke="#502A73" stroke-width="0.2532" stroke-miterlimit="10" stroke-linecap="round" stroke-linejoin="round"/>
<path d="M184.829 151.227C187.997 157.052 193.05 165.024 193.05 165.024C193.05 165.024 188.747 173.506 180.401 172.745C172.055 171.984 172.554 170.179 166.298 172.79" fill="white"/>
<path d="M184.829 151.227C187.997 157.052 193.05 165.024 193.05 165.024C193.05 165.024 188.747 173.506 180.401 172.745C172.055 171.984 172.554 170.179 166.298 172.79" stroke="#502A73" stroke-width="0.2532" stroke-miterlimit="10" stroke-linecap="round" stroke-linejoin="round"/>
</svg>
