<svg width="144" height="147" viewBox="0 0 144 147" fill="none" xmlns="http://www.w3.org/2000/svg">
<path d="M3.74028 82.6427L3.69721 85.5474C5.46378 85.569 7.21956 85.6446 8.98613 85.7526C10.7419 85.8605 12.5085 85.9685 14.2643 86.0765C16.9465 85.9469 19.6825 85.7742 22.4509 85.5582L22.494 82.4051L23.8189 86.4652C21.6214 87.1887 19.4348 87.5991 17.2589 87.6962C15.0722 87.7934 12.0561 87.815 8.18903 87.761L2.40458 87.2967C2.33995 86.1197 2.29686 84.8779 2.26455 83.5713C2.243 82.2647 2.23228 81.2389 2.24305 80.483L2.29689 76.574C2.31844 75.3106 2.41535 74.112 2.59847 72.9782C2.78159 71.8444 3.0078 70.689 3.2771 69.5228L6.98259 65.5382C5.77615 67.6223 4.94672 70.1383 4.48353 73.0754C4.04189 76.0017 3.78336 79.198 3.74028 82.6427ZM2.08144 137.649L4.17117 141.083L8.32906 141.137C8.24289 140.888 7.40271 139.992 5.78694 138.448C4.17117 136.915 3.28792 135.802 3.12634 135.133C2.73856 132.606 2.48 130.015 2.35074 127.358C2.22148 124.702 2.17839 121.991 2.2107 119.216L1.94141 129.561L2.08144 137.649ZM3.99885 117.737L9.79401 117.823C11.1405 117.845 12.4546 117.759 13.7688 117.564C15.0722 117.37 16.6557 117.035 18.5084 116.56L15.5031 115.383C13.8227 115.361 11.6145 115.459 8.88922 115.664C6.15319 115.88 3.98803 116.182 2.3938 116.582L3.99885 117.737ZM16.2571 118.795C17.3343 118.806 18.1853 119.67 18.2499 120.75C18.3361 122.207 18.5515 123.32 18.8962 124.076C19.3809 125.134 20.178 125.674 21.266 125.684C22.4401 125.706 23.6573 125.738 24.9176 125.803C26.1779 125.868 27.4813 125.9 28.817 125.922C35.7002 126.019 40.3644 125.263 42.8203 123.665C45.2763 122.056 46.5258 119.702 46.5689 116.592C46.6227 112.727 45.7933 110.167 44.0914 108.926C42.3895 107.684 39.815 107.036 36.3788 106.982C35.6248 106.971 34.4291 106.993 32.7918 107.057C31.1545 107.122 29.9157 107.144 29.0755 107.133C27.9014 107.111 26.975 107.165 26.3072 107.284H26.2857C25.23 107.468 24.2606 106.669 24.2498 105.589L24.142 94.0132C24.1313 93.063 24.9176 92.3071 25.8656 92.3503C26.932 92.4043 28.203 92.4907 29.6572 92.6202C32.0054 92.8254 33.6859 92.9334 34.6876 92.9442C37.6283 92.9874 39.7719 92.4691 41.1292 91.4C42.8311 89.9963 43.7036 87.5235 43.7575 83.9924C43.7898 81.8112 43.4343 80.0295 42.7019 78.6797C41.9694 77.3299 40.5906 76.628 38.5762 76.6064L25.1115 76.4121C23.3449 76.3905 22.2031 76.9412 21.6861 78.0642C21.1691 79.1872 20.889 80.7206 20.8674 82.6535C20.8567 83.7009 19.9949 84.5431 18.95 84.5323L7.1442 84.4568C6.08856 84.446 5.23758 83.5821 5.24835 82.5239L5.34533 75.9909C5.42073 70.7754 7.11187 66.78 10.4296 64.0049C13.7473 61.2297 18.0776 59.8908 23.4527 59.9663C25.1331 59.9879 26.8135 60.0095 28.4831 60.0419C30.1635 60.0635 31.8869 60.0527 33.6427 59.9879C45.3948 60.1499 53.172 62.2448 56.9745 66.2509C60.3676 69.8359 62.0048 75.2459 61.9079 82.4807C61.8433 86.9404 61.4232 90.1366 60.6368 92.0587C59.5058 94.7367 57.2545 96.9719 53.8722 98.7752C57.5561 99.4987 59.9905 102.101 61.1862 106.582C61.9833 109.455 62.3496 113.374 62.2742 118.331C62.1557 126.408 61.1539 132.077 59.2689 135.327C56.5975 139.917 51.5778 142.163 44.1884 142.055L20.5227 141.342C20.4366 141.428 20.1672 141.482 19.7041 141.515C19.2409 141.547 18.7562 141.601 18.2499 141.687C13.8012 141.623 10.2357 140.338 7.54275 137.811C4.8498 135.295 3.53561 131.764 3.60024 127.218L3.79419 120.674C3.8265 119.54 4.75288 118.655 5.88391 118.666L16.2571 118.795ZM44.113 58.7353C40.5044 58.6814 37.5422 58.595 35.237 58.487C32.9319 58.3682 30.8098 58.2602 28.8816 58.1414C27.3736 58.1198 26.0487 58.0982 24.9176 58.0874C23.7866 58.0767 22.1708 58.217 20.0595 58.5194C17.7759 59.5776 16.0417 60.3551 14.8675 60.841C11.0651 62.5579 9.04005 63.4542 8.78153 63.5298C10.9036 61.4565 13.0687 59.7612 15.2769 58.4438C17.819 56.878 20.4258 56.1222 23.1188 56.1546C28.8278 56.2409 34.0198 56.4785 38.7163 56.878C43.4128 57.2776 49.445 58.0011 56.8129 59.0269C57.233 59.0377 57.5884 59.3077 57.8685 59.8584C58.1485 60.4091 58.3748 61.3161 58.5256 62.5795C57.1899 61.7157 56.0265 61.0246 55.0355 60.5063C53.1181 59.3832 51.8686 58.8217 51.2869 58.8109L44.113 58.7353ZM11.3129 143.458L11.4529 142.195L29.7003 143.08C26.932 143.037 23.345 143.091 18.9285 143.242C14.5229 143.404 11.9807 143.469 11.3129 143.458ZM35.237 142.918L34.0952 143.286L31.9516 143.502C28.5908 143.793 25.6501 144.041 23.1295 144.257C20.6089 144.473 18.5084 144.571 16.828 144.549C21.0182 144.949 23.8512 145.175 25.3162 145.24C26.7811 145.305 28.3538 145.348 30.0342 145.37C31.3699 145.553 32.7595 145.748 34.1813 145.931C34.6876 145.942 35.614 145.64 36.9605 145.024C38.3069 144.409 39.4487 143.901 40.3859 143.491L35.237 142.918ZM23.3773 109.681L25.1438 109.584L27.3843 111.388L22.6017 111.193L20.6197 109.023C20.6628 105.74 20.8351 102.522 21.1367 99.3691C21.4383 96.2161 21.9231 93.9376 22.6232 92.5122C22.6986 92.847 22.7094 95.6437 22.634 100.902C22.5371 106.161 22.7956 109.088 23.3773 109.681ZM41.9478 122.823C39.5888 123.46 37.3805 123.957 35.3124 124.302C33.255 124.648 31.2083 124.81 29.194 124.788C28.1061 124.777 27.115 124.734 26.2318 124.68C25.3485 124.626 23.5281 124.41 20.7597 124.032C23.8728 123.568 27.3628 123.244 31.2191 123.05C35.1077 122.845 38.6732 122.769 41.9478 122.823ZM22.9464 77.7403L22.537 80.0079C26.4041 79.7271 29.2156 79.576 30.9822 79.5544C32.7487 79.5328 34.1275 79.5328 35.14 79.5544L42.0447 81.1633L40.569 78.3666C40.1489 78.5285 39.6857 78.6041 39.1795 78.6041C38.6732 78.5933 38.2962 78.5933 38.0484 78.5933L32.641 78.1398L29.4956 78.2262L22.9464 77.7403ZM41.9478 87.3507L39.8904 90.3526C37.2836 90.8169 34.6769 91.2489 32.0701 91.6268L24.8961 91.5296L23.4096 90.1151L27.5674 90.169C28.4076 90.1798 29.3879 90.1798 30.5297 90.1474C31.6607 90.1259 32.9426 89.9963 34.3752 89.7587L40.2028 87.1887L42.271 83.053L41.9478 87.3507ZM27.0181 110.243L27.9229 108.872C28.0845 109.131 30.6267 109.336 35.5278 109.487C40.4397 109.638 42.9711 109.887 43.1327 110.221L27.0181 110.243ZM40.7414 146.028L52.3641 143.545C51.6855 143.62 50.6406 143.642 49.2188 143.631C47.7861 143.61 46.7413 143.599 46.0734 143.588L44.1884 143.566L40.7414 146.028ZM58.2132 139.074L57.6638 142.217L52.3641 142.767C53.1181 142.53 54.1415 141.99 55.4125 141.169C56.0912 140.694 57.0175 139.992 58.2132 139.074ZM61.0569 62.6335L58.6441 64.3612C59.3012 65.2143 60.206 66.4885 61.3586 68.1838C62.5112 69.8899 63.4159 71.3261 64.0622 72.5139C63.4267 70.0627 62.9851 68.4214 62.7481 67.5683C61.9402 65.3871 61.3693 63.7349 61.0569 62.6335ZM61.2293 103.904L61.5848 105.297L62.425 108.461L62.5004 103.041L58.4071 98.948L61.2293 103.904ZM65.6996 135.025C64.8378 136.785 64.1485 138.178 63.6206 139.225C63.1036 140.273 62.4142 141.418 61.5525 142.67L59.0318 142.638C59.4519 142.389 60.1091 141.795 61.0139 140.834C61.9079 139.884 62.4896 139.107 62.7481 138.524C63.0066 137.94 63.6637 136.224 64.7086 133.373C65.4949 131.116 66.1951 129.226 66.7983 127.725L65.6996 135.025ZM65.2902 119.238C65.2795 119.907 65.2472 120.706 65.1933 121.635C65.1395 122.564 64.9779 123.633 64.7086 124.842C64.4393 126.062 63.9653 127.293 63.2759 128.546C61.4663 131.721 60.4753 133.643 60.3029 134.312L59.2149 140.23C61.6171 136.731 63.2113 133.826 63.9976 131.526C64.784 129.226 65.2041 126.095 65.258 122.143C65.2903 119.702 65.2041 117.391 64.9779 115.199C64.5147 111.992 64.2131 109.681 64.073 108.245C64.6439 109.185 65.0317 110.113 65.2256 111.042C65.4195 111.971 65.5057 113.191 65.4841 114.703C65.4734 115.459 65.4411 116.214 65.3872 116.97C65.3334 117.726 65.301 118.482 65.2902 119.238ZM63.8684 86.0225C63.3513 87.0267 63.082 87.8582 63.082 88.5385L62.9097 92.1991L61.0031 93.8081C61.0893 93.5597 61.3909 93.0954 61.9079 92.4367C62.4249 91.7672 62.6835 91.3568 62.6835 91.1841V91.0545L62.8128 90.4282L63.1036 88.031L63.2544 86.0117C63.2651 85.1695 63.1143 84.284 62.7912 83.3553C62.9528 83.6901 63.179 84.1436 63.4698 84.6943C63.7391 85.245 63.8791 85.6878 63.8684 86.0225ZM61.7786 73.3778L63.8576 77.8266L64.0622 72.5247L62.7804 74.0257L61.7786 73.3778ZM64.5793 80.2239C64.4824 80.807 64.1807 81.5196 63.6637 82.3511L63.696 79.8243L63.8469 77.805L64.5793 80.2239Z" fill="#008056"/>
<path d="M75.5486 88.0848C75.6456 81.3574 76.0656 77.0058 76.7981 75.0405C77.5414 73.0752 79.8681 69.7601 83.7998 65.1061C82.3348 67.6113 81.2146 69.609 80.439 71.1207C78.8879 74.047 78.1015 76.2607 78.08 77.7724C78.0153 82.7396 78.1985 90.1904 78.6401 100.125C79.0818 110.059 79.2756 117.51 79.211 122.477C79.1894 123.827 79.0494 125.317 78.7694 126.948C78.4893 128.589 78.22 130.155 77.9507 131.666C76.1518 117.078 75.344 102.554 75.5486 88.0848ZM138.273 95.6651L138.057 111.063C137.928 120.577 136.011 127.779 132.337 132.692C128.061 138.437 121.393 141.245 112.324 141.115L105.527 141.018C96.8014 140.888 90.4137 138.534 86.3635 133.934C81.57 128.567 79.2864 117.931 79.5126 102.025C79.6527 92.1017 80.1266 85.2448 80.9345 81.4762C82.281 75.2672 84.9093 70.7644 88.8087 67.9568C93.3005 64.7389 100.033 63.1948 109.017 63.3244C120.015 63.4755 127.738 66.1967 132.197 71.477C136.409 76.4118 138.434 84.4781 138.273 95.6651ZM106.97 145.704L97.1676 144.3C94.4962 143.253 90.7907 141.309 86.0403 138.459C83.8752 137.163 81.71 135.878 79.5449 134.582L80.1589 126.634C80.3959 127.736 80.6329 128.74 80.8699 129.669C81.1069 130.597 81.5162 131.785 82.0763 133.221L97.3076 142.648L106.248 142.519L106.97 145.704ZM92.8912 64.1018C91.9648 64.5122 90.1874 65.5812 87.5591 67.3089C86.2881 68.216 84.5431 69.4146 82.3456 70.8939C84.7154 69.1554 86.7728 67.5249 88.5178 65.9915C90.2629 64.4582 92.191 62.6981 94.3238 60.7112L103.62 62.2337C102.78 62.3957 100.905 62.6765 98.0078 63.0976C95.0994 63.5187 93.3974 63.8535 92.8912 64.1018ZM108.64 125.663C113.928 125.738 117.505 124.712 119.39 122.596C121.264 120.479 122.244 116.722 122.32 111.344C122.341 109.498 122.449 106.928 122.621 103.645C122.794 100.362 122.88 98.6886 122.88 98.6023C122.988 90.6979 121.727 85.288 119.077 82.3941C116.923 80.0077 113.584 78.7875 109.06 78.7227C102.683 78.6363 98.5356 81.0119 96.6182 85.8711C95.4872 88.7111 94.8624 94.0454 94.7547 101.874L94.6901 106.798C94.5824 114.702 95.7673 119.896 98.2448 122.369C100.388 124.496 103.857 125.587 108.64 125.663ZM98.2771 119.702C97.4476 119.022 96.8983 117.64 96.6398 115.577C96.3705 113.515 96.252 111.549 96.2843 109.703L96.7259 105.546L98.2771 119.702ZM98.0293 101.399C98.0078 102.662 98.1155 104.476 98.3309 106.831C98.5463 109.195 98.6541 110.955 98.6325 112.132C98.234 110.61 97.857 109.033 97.5015 107.381C97.1461 105.74 96.9737 104.325 96.9952 103.148L97.5015 84.9857L100.011 85.5256C99.5481 88.2143 99.1173 90.9571 98.6972 93.7754C98.2878 96.5938 98.0616 99.1314 98.0293 101.399ZM111.785 81.0227C110.018 81.2495 108.209 81.5842 106.356 82.0161C104.503 82.4481 103.318 83.0096 102.812 83.6683L100.044 83.3767C101.573 82.2213 102.65 81.4978 103.286 81.2171C103.921 80.9363 105.031 80.7959 106.625 80.8283L111.785 81.0227ZM108.036 123.881C106.69 123.859 105.645 123.805 104.891 123.708C102.381 123.168 100.582 122.844 99.4943 122.747L101.789 120.89C102.209 120.976 102.92 121.117 103.921 121.3C104.923 121.484 105.634 121.581 106.054 121.581L109.2 121.624L117.278 119.972L115.34 123.222C113.832 123.373 112.27 123.514 110.675 123.665C109.081 123.816 108.198 123.892 108.036 123.881ZM101.132 59.6746C101.552 59.7609 102.532 59.9661 104.083 60.2901C105.634 60.6032 106.528 60.7652 106.787 60.7652C107.207 60.776 107.422 60.6896 107.422 60.5168C108.586 61.2943 109.297 61.8882 109.534 62.3093L101.132 59.6746ZM128.621 66.1211C125.444 65.484 121.953 64.5986 118.151 63.4432C114.349 62.2985 111.236 61.0675 108.823 59.7717C109.824 60.3765 111.957 60.83 115.221 61.1215C118.485 61.4239 120.628 61.8342 121.63 62.3525L128.621 66.1211ZM121.749 142.249L119.95 144.624L110.266 143.987C109.684 143.469 108.855 142.875 107.778 142.184L121.749 142.249ZM119.465 116.603C119.487 115.005 119.411 112.834 119.239 110.102C119.067 107.37 118.991 105.708 118.991 105.114C119.077 99.3041 118.959 95.3952 118.657 93.3759C118.108 90.8383 117.634 88.4843 117.246 86.2922C116.826 86.3678 116.201 85.7523 115.383 84.4349C114.564 83.1176 114.025 82.1673 113.788 81.5734L116.288 82.6208C118.011 85.1692 119.239 87.3721 119.971 89.2402C120.704 91.1083 121.049 93.3327 121.006 95.9459C120.984 97.544 121.027 100.265 121.146 104.088C121.264 107.921 121.318 110.005 121.307 110.34C121.275 112.867 121.027 115.07 120.585 116.959C120.133 118.849 119.282 120.501 118 121.905L119.465 116.603ZM130.151 135.932C130.829 135.273 132.068 133.599 133.878 130.932C134.901 129.431 135.634 128.395 136.064 127.812C135.547 129.064 135.106 130.112 134.761 130.954C134.416 131.796 133.942 132.671 133.339 133.589L129.117 138.199L125.444 139.538L123.548 140.273L130.151 135.932ZM125.519 142.691L132.014 137.357L138.165 129.874C138.165 130.209 137.045 131.958 134.815 135.133C133.275 137.303 131.907 139.171 130.711 140.759L125.519 142.691ZM130.366 67.0282C131.196 67.2873 132.057 67.5573 132.941 67.8272C133.824 68.0972 134.384 68.3564 134.632 68.6047C135.375 69.3714 136.345 72.0386 137.54 76.5954C138.176 78.9602 138.887 81.9622 139.684 85.5904C137.573 80.6772 136.194 77.5025 135.537 76.0663C134.061 72.9348 132.337 69.9221 130.366 67.0282ZM140.621 107.565L140.556 112.111C140.513 115.145 140.33 117.704 140.007 119.799C139.684 121.894 139.005 123.913 137.971 125.825L139.188 84.1866C139.156 86.7998 139.458 91.6374 140.115 98.7102C140.481 102.684 140.653 105.632 140.621 107.565Z" fill="#008056"/>
<path d="M93.9657 42.7211C97.585 41.868 100.58 39.3304 102.034 35.8966C102.594 34.5792 102.917 33.197 103.025 31.7716C103.1 30.7566 103.079 29.7308 102.917 28.7157C102.669 27.2148 102.185 25.811 101.409 24.5044C100.224 22.4851 98.576 20.9734 96.4432 20.0124C95.1613 19.44 93.8149 19.1269 92.4253 19.0297C91.2404 18.9433 90.0555 19.0081 88.8814 19.2565C85.9192 19.8828 83.614 21.4809 81.9982 24.0509C80.8241 25.919 80.2317 27.9815 80.1455 30.1843C80.1132 31.059 80.1131 31.9228 80.1024 32.7975C80.0916 33.2402 80.0378 33.6721 79.9085 34.0933C79.5638 35.1731 78.8636 35.8642 77.7649 36.1449C77.4202 36.2313 77.0755 36.2421 76.72 36.2313C73.8547 36.1881 70.9894 36.1449 68.1242 36.1125C68.0057 36.1125 67.8872 36.1017 67.7687 36.1017C67.2947 36.0909 66.8315 36.0154 66.3791 35.8858C64.8388 35.4322 63.7724 34.4604 63.2446 32.9271C63.0076 32.2576 62.9106 31.5665 62.9214 30.8646C62.9645 27.9167 63.0075 24.9579 63.0506 22.01C63.0506 21.902 63.0614 21.7941 63.0506 21.6753C63.0291 21.0922 62.7491 20.6926 62.232 20.4551C62.0381 20.3687 61.8335 20.3363 61.618 20.3363C60.5839 20.3255 59.5391 20.3039 58.505 20.2931C58.4619 20.2931 58.4296 20.2931 58.3865 20.2931C57.7509 20.3039 57.2339 20.7034 57.0723 21.3189C57.04 21.4593 57.0292 21.6105 57.0292 21.7617C56.9969 23.7593 56.9754 25.7678 56.943 27.7655C56.9215 29.5904 56.8892 31.4045 56.8676 33.2294C56.8569 33.8233 56.8246 34.4064 56.7169 34.9895C56.6092 35.6158 56.4368 36.2205 56.1352 36.782C55.6181 37.7647 54.8318 38.4018 53.7439 38.6717C53.5069 38.7257 53.2591 38.7797 53.0114 38.8013C52.5051 38.8445 51.9988 38.8445 51.4925 38.7149C50.6631 38.499 49.9737 38.0562 49.4136 37.4191C48.875 36.8036 48.5195 36.0909 48.304 35.3135C48.0886 34.5684 48.0025 33.8017 48.0133 33.035C48.0671 29.8064 48.1102 26.5669 48.1533 23.3382C48.1533 23.2302 48.1641 23.1222 48.1533 23.0035C48.1102 22.172 47.4962 21.6645 46.8176 21.6537C46.753 21.6537 46.6991 21.6537 46.6344 21.6537C45.6327 21.6429 44.6417 21.6213 43.6399 21.6105C43.5322 21.6105 43.4245 21.6105 43.306 21.6213C42.7889 21.6537 42.2611 22.064 42.1318 22.6579C42.0995 22.8199 42.0888 22.9927 42.078 23.1654C42.0241 26.4913 41.981 29.8064 41.938 33.1322C41.9272 33.7261 41.8948 34.3092 41.7763 34.8923C41.6686 35.4322 41.5179 35.9614 41.2809 36.4581C40.7638 37.5163 39.9344 38.2074 38.7818 38.4774C38.3186 38.5853 37.8555 38.6177 37.3815 38.6069C36.5413 38.5853 35.798 38.3154 35.141 37.8079C34.4947 37.3111 34.0422 36.674 33.7191 35.9506C33.2774 34.9679 33.0835 33.9313 33.0943 32.8623C33.1374 29.612 33.1805 26.3617 33.2343 23.1007C33.2343 22.9927 33.2451 22.8847 33.2343 22.7659C33.2236 22.1936 32.8681 21.6969 32.3295 21.5133C32.1464 21.4485 31.9633 21.4377 31.7694 21.4377C30.7568 21.4269 29.7551 21.4053 28.7425 21.3945C28.624 21.3945 28.5055 21.3945 28.387 21.4053C27.7515 21.4593 27.2345 22.0424 27.2129 22.6471C27.2129 22.7767 27.2022 22.9063 27.2022 23.0359C27.1591 26.4481 27.1052 29.8604 27.0621 33.2726C27.0514 33.8341 27.0083 34.3956 26.9329 34.9463C26.8036 35.9398 26.5451 36.9116 26.1465 37.8295C25.2956 39.8163 23.9706 41.4145 22.1178 42.5375C20.459 43.5417 18.6494 43.9953 16.7212 43.9521C16.2042 43.9413 15.6871 43.8765 15.1808 43.7685C13.9744 43.5093 12.8649 43.0234 11.8524 42.3215C9.87036 40.9609 8.48078 39.1361 7.65135 36.8792C7.20971 35.6806 7.00504 34.428 7.03735 33.143C7.04812 32.4843 7.10204 31.8256 7.16667 31.1669C7.24208 30.4651 7.34979 29.774 7.5006 29.0937C7.60831 28.6078 7.73753 28.1218 7.85602 27.6359C7.98528 27.1068 7.87759 26.6425 7.47903 26.2645C7.22051 26.0162 6.90814 25.8974 6.55267 25.8974C5.44318 25.8758 4.33366 25.865 3.22416 25.8542C3.13799 25.8542 3.04104 25.8542 2.95487 25.8758C2.39474 25.9946 2.03927 26.3293 1.87769 26.88C1.59763 27.8519 1.40376 28.8453 1.29604 29.8496C1.23141 30.5406 1.17754 31.2209 1.156 31.912C1.12369 32.7111 1.10213 33.5102 1.14522 34.3092C1.17753 34.8707 1.23142 35.4215 1.30682 35.983C1.51149 37.4623 1.88845 38.8877 2.47013 40.2483C3.88123 43.5849 6.12176 46.2089 9.26712 48.0338C11.2707 49.1892 13.4358 49.8371 15.741 49.9991C17.0551 50.0963 18.3693 50.0423 19.6835 49.8371C20.7822 49.6643 21.8594 49.4052 22.8934 49.0164C25.7587 47.9582 28.1177 46.2089 29.9274 43.7361C30.4444 43.0342 30.8861 42.2891 31.2739 41.5009C31.7155 40.583 32.7496 40.1943 33.6114 40.4102C33.9561 40.4966 34.2577 40.6586 34.527 40.8962C35.658 41.9004 37.0045 42.3971 38.491 42.5807C38.9111 42.6347 39.3204 42.6563 39.7405 42.6995C40.2037 42.7427 40.6561 42.7211 41.1193 42.6671C41.7333 42.5915 42.3365 42.4403 42.9182 42.2351C44.1677 41.7924 45.2987 41.1553 46.2467 40.2267C46.2898 40.1835 46.3328 40.1403 46.3759 40.1079C46.9037 39.6868 47.4962 39.568 48.1533 39.7192C48.5411 39.8163 48.875 40.0107 49.1551 40.2915C49.392 40.529 49.629 40.7774 49.8875 41.0041C51.0724 42.0732 52.4728 42.6887 54.0562 42.8614C54.6702 42.9262 55.2842 42.9586 55.909 42.9154C56.4476 42.8722 56.9861 42.8074 57.5032 42.6779C58.6989 42.3755 59.7221 41.8032 60.5623 40.8854C60.6162 40.8314 60.6701 40.7666 60.7347 40.7126C61.2087 40.2915 61.758 40.1187 62.3936 40.2051C62.7706 40.2591 63.0937 40.4102 63.4061 40.6262C64.1063 41.1229 64.8711 41.4793 65.6897 41.7276C66.5515 41.976 67.424 42.0948 68.318 42.1164C71.2264 42.1596 74.1241 42.2027 77.0324 42.2459C77.4741 42.2567 77.9049 42.2243 78.3466 42.1596C79.6176 41.976 80.7702 41.5009 81.7935 40.7342C81.8797 40.6694 81.9659 40.6046 82.0628 40.5398C82.5153 40.2699 83 40.1727 83.5278 40.2807C83.8725 40.3562 84.1634 40.4966 84.4434 40.7018C84.9928 41.1121 85.5637 41.4685 86.1669 41.7708C87.5457 42.4727 89.0214 42.8506 90.5618 42.9586C91.7252 43.0666 92.8562 42.991 93.9657 42.7211ZM87.815 36.1449C87.298 35.4646 86.9748 34.698 86.7485 33.8773C86.5977 33.305 86.5008 32.7219 86.447 32.1388C86.3931 31.6097 86.3716 31.0806 86.3823 30.5514C86.4039 29.4392 86.5547 28.3378 86.9425 27.2796C87.1472 26.7181 87.4057 26.1997 87.7504 25.7138C88.4829 24.688 89.4631 24.0509 90.7126 23.8565C91.2297 23.7809 91.7467 23.7701 92.2638 23.8349C92.6515 23.8889 93.0285 23.9537 93.4056 24.0833C94.5474 24.472 95.3768 25.2279 95.9369 26.2969C96.2708 26.934 96.4755 27.6035 96.6155 28.3054C96.7771 29.1261 96.8202 29.9467 96.8202 30.789C96.7879 31.8472 96.6909 32.9163 96.4109 33.9529C96.2601 34.5036 96.0662 35.0327 95.7861 35.5402C95.0644 36.8252 93.9872 37.5919 92.5331 37.8295C91.779 37.9482 91.025 37.9482 90.2709 37.7647C89.2476 37.5163 88.4398 36.9656 87.815 36.1449Z" fill="#008056"/>
<path d="M140.611 30.0436C140.288 30.0328 139.976 30.0328 139.652 30.022C139.243 30.0112 138.855 29.9032 138.532 29.6548C137.843 29.1581 137.541 28.4778 137.66 27.6248C137.714 27.2468 137.767 26.8689 137.832 26.5018C137.983 25.5299 138.134 24.5689 138.284 23.597C138.381 22.9599 138.683 22.4524 139.232 22.0961C139.566 21.8801 139.933 21.7721 140.331 21.7721C140.891 21.7829 141.451 21.7829 142.011 21.7937C142.173 21.7937 142.335 21.7829 142.485 21.7397C143.121 21.567 143.552 20.8975 143.466 20.2712C143.358 19.5693 142.819 19.0942 142.108 19.0726C141.85 19.0618 141.591 19.0618 141.333 19.0618C141.236 19.0618 141.128 19.051 141.031 19.0402C139.922 18.8458 139.178 17.8308 139.329 16.7509C139.415 16.0814 139.523 15.4012 139.631 14.7317C139.728 14.1054 139.836 13.4899 139.933 12.8636C140.04 12.2049 140.148 11.5354 140.245 10.8767C140.288 10.5851 140.353 10.2828 140.353 9.98043C140.342 9.24615 139.62 8.47948 138.661 8.71704C138.069 8.86821 137.735 9.27855 137.627 9.87245C137.563 10.2288 137.52 10.5851 137.466 10.9415C137.369 11.5678 137.261 12.2049 137.164 12.842C137.067 13.4791 136.97 14.1054 136.873 14.7425C136.744 15.5415 136.615 16.3406 136.496 17.1397C136.324 18.3167 135.333 18.9754 134.407 18.9538C133.943 18.943 133.491 18.943 133.028 18.9322C132.565 18.9214 132.112 18.9214 131.649 18.9106C131.477 18.8998 131.294 18.889 131.121 18.835C130.044 18.5434 129.505 17.496 129.624 16.589C129.721 15.9087 129.829 15.2284 129.936 14.5481C130.033 13.911 130.141 13.2847 130.238 12.6476C130.346 11.9997 130.443 11.341 130.54 10.6931C130.583 10.4124 130.626 10.1424 130.637 9.86165C130.647 9.08418 129.893 8.3391 128.935 8.58746C128.353 8.73863 128.03 9.14896 127.922 9.73207C127.847 10.1964 127.782 10.6607 127.707 11.125C127.61 11.7405 127.513 12.3453 127.416 12.9608C127.319 13.587 127.222 14.2025 127.114 14.8288C127.017 15.4551 126.92 16.0706 126.823 16.6969C126.791 16.9237 126.759 17.1505 126.683 17.3664C126.371 18.3491 125.477 18.835 124.701 18.8134C123.958 18.7918 123.226 18.7918 122.482 18.781C122.396 18.781 122.299 18.7702 122.213 18.781C121.631 18.8458 121.222 19.1374 121.017 19.6773C120.823 20.1956 120.974 20.7787 121.394 21.1566C121.653 21.3834 121.954 21.5022 122.299 21.5022C122.773 21.513 123.236 21.5238 123.71 21.5238C123.915 21.5238 124.109 21.5562 124.303 21.6101C125.197 21.8909 125.886 22.7764 125.746 23.8238C125.671 24.3637 125.595 24.8928 125.509 25.4219C125.38 26.2642 125.251 27.0957 125.121 27.9379C124.981 28.8774 124.324 29.5577 123.398 29.7304C123.258 29.752 123.118 29.7628 122.978 29.7628C122.256 29.752 121.545 29.7304 120.823 29.7412C120.296 29.7412 119.886 29.9896 119.638 30.4647C119.38 30.9506 119.423 31.4366 119.725 31.8793C119.972 32.2464 120.339 32.4516 120.78 32.4624C121.19 32.4732 121.599 32.4732 122.008 32.484C122.407 32.4948 122.784 32.6028 123.107 32.8187C123.796 33.2723 124.098 33.9202 124.023 34.7408C124.001 35 123.958 35.2591 123.915 35.5183C123.818 36.1662 123.71 36.8033 123.613 37.4404C123.516 38.0775 123.419 38.7254 123.322 39.3733C123.225 40.0104 123.118 40.6367 123.021 41.2738C123.01 41.3709 122.999 41.4681 122.999 41.5761C122.999 42.2888 123.57 42.8827 124.27 42.9151C124.992 42.9475 125.595 42.4508 125.714 41.7057C125.843 40.8526 125.983 40.0104 126.112 39.1573C126.231 38.3798 126.349 37.5916 126.468 36.8141C126.586 36.015 126.737 35.2159 126.845 34.4169C126.996 33.337 127.922 32.5704 128.956 32.592C129.861 32.6136 130.777 32.6136 131.681 32.6352C131.864 32.6352 132.058 32.6568 132.241 32.7108C133.405 33.0563 133.836 34.0821 133.717 34.9244C133.62 35.6155 133.513 36.3066 133.405 36.9976C133.308 37.6239 133.211 38.2395 133.114 38.8657C133.006 39.5352 132.899 40.2047 132.802 40.885C132.758 41.155 132.715 41.4249 132.705 41.6841C132.672 42.3536 133.243 43.0339 134.051 43.0447C134.73 43.0555 135.311 42.548 135.43 41.8569C135.538 41.155 135.645 40.4531 135.753 39.7512C135.872 38.9737 135.99 38.1855 136.109 37.408C136.259 36.4361 136.41 35.4751 136.561 34.5033C136.669 33.8554 136.992 33.3478 137.552 33.0023C137.886 32.7971 138.252 32.7108 138.64 32.7108C139.275 32.7215 139.922 32.7323 140.557 32.7323C141.322 32.7323 142.108 32.0089 141.839 30.9722C141.699 30.4539 141.193 30.0652 140.611 30.0436ZM135.441 24.029C135.279 25.0332 135.128 26.0374 134.967 27.0525C134.902 27.4628 134.837 27.8839 134.773 28.2943C134.622 29.1257 133.857 29.9356 132.759 29.9356C131.811 29.9356 130.863 29.9248 129.915 29.8924C128.773 29.86 127.89 28.9206 127.922 27.7435C127.922 27.56 127.965 27.3872 127.987 27.2036C128.105 26.437 128.234 25.6703 128.353 24.8928C128.428 24.4177 128.504 23.9426 128.568 23.4674C128.698 22.528 129.376 21.8153 130.313 21.6641C130.432 21.6425 130.55 21.6425 130.669 21.6425C131.132 21.6425 131.584 21.6533 132.048 21.6641C132.522 21.6749 133.006 21.6749 133.48 21.6857C134.471 21.7073 135.204 22.4632 135.387 23.1975C135.462 23.4674 135.495 23.7482 135.441 24.029Z" fill="#008056"/>
<path d="M115.939 10.8335C115.648 10.8227 115.357 10.8227 115.066 10.8227C114.259 10.8119 113.451 10.8011 112.644 10.7903C112.105 10.7795 111.459 11.1682 111.319 11.8485C111.287 12.0105 111.276 12.1832 111.266 12.356C111.201 17.1504 111.126 21.9448 111.061 26.7393C110.996 31.5445 110.921 36.3497 110.856 41.1549C110.856 41.2413 110.846 41.3385 110.856 41.4249C110.878 41.792 110.996 42.1052 111.255 42.3643C111.524 42.6343 111.847 42.7639 112.224 42.7747C112.999 42.7855 113.785 42.7963 114.56 42.8071C114.905 42.8071 115.239 42.8287 115.583 42.8179C116.218 42.8071 116.757 42.3535 116.875 41.7272C116.908 41.5761 116.918 41.4141 116.918 41.2521C117.058 31.6417 117.188 22.042 117.328 12.4316C117.328 12.3668 117.328 12.3128 117.328 12.248C117.317 11.4166 116.757 10.8443 115.939 10.8335Z" fill="#008056"/>
<path d="M66.1545 35.065C66.7362 35.2918 67.3394 35.3997 67.9642 35.4105C70.097 35.4429 72.2406 35.4753 74.3734 35.4969C74.4811 35.4969 74.5888 35.4969 74.6965 35.4861C75.289 35.3889 75.8815 35.3565 76.4847 35.3565C76.9156 35.3565 77.3464 35.3457 77.7665 35.3134C78.1112 35.2918 78.3805 35.1622 78.6175 34.9354C78.9729 34.6007 79.1776 34.1795 79.2853 33.7152C79.3823 33.3157 79.4039 32.9053 79.4039 32.495C79.4146 31.8147 79.4254 31.1344 79.4361 30.4541C79.4469 29.979 79.4577 29.4931 79.5223 29.018C79.6085 28.2189 79.7593 27.4414 79.9855 26.664C80.6318 24.4827 81.8059 22.6254 83.5402 21.1461C83.6264 21.0705 83.7126 21.0057 83.7772 20.9193C84.1758 20.4982 84.5959 20.0986 85.059 19.7423C85.0806 19.7207 85.1021 19.6883 85.1237 19.6667C85.0375 19.6559 84.9729 19.6883 84.919 19.7099C82.0753 21.1245 79.9639 23.2409 78.6713 26.1564C78.0358 27.5926 77.6911 29.0936 77.6803 30.6593C77.6803 30.9941 77.788 31.264 78.0035 31.5016C78.1112 31.6204 78.2297 31.7175 78.3482 31.8363C78.4667 31.9551 78.5959 32.0739 78.7037 32.2035C78.8868 32.4194 78.9837 32.6786 78.973 32.9809C78.973 33.0781 78.9729 33.1861 78.9622 33.2833C78.8868 33.8772 78.5959 34.3091 78.025 34.5359C77.7557 34.6439 77.4757 34.7087 77.1849 34.7195C76.7863 34.7303 76.3877 34.741 75.9892 34.7302C75.4829 34.7194 74.9659 34.6979 74.4596 34.6763C74.0395 34.6547 73.6194 34.6223 73.2101 34.5899C72.9516 34.5683 72.693 34.5359 72.4345 34.5143C71.8205 34.4495 71.2065 34.3739 70.5818 34.3415C69.6662 34.2767 68.7505 34.2335 67.8349 34.2335C67.2425 34.2335 66.6608 34.1903 66.0791 34.0932C65.519 33.996 64.9696 33.8448 64.4633 33.564C64.4202 33.5424 64.3772 33.5208 64.3341 33.4992C64.3233 33.51 64.3126 33.5208 64.291 33.5316C64.3233 33.5856 64.3449 33.6288 64.388 33.6828C64.8296 34.3307 65.4328 34.7842 66.1545 35.065Z" fill="#008056"/>
<path d="M38.3738 14.8617C39.5474 14.8833 40.7318 14.8941 41.9055 14.9157C42.2823 14.9157 42.6053 14.7753 42.8745 14.5054C43.1329 14.257 43.2513 13.9439 43.2621 13.5875C43.2836 12.7777 43.2944 11.9678 43.2944 11.1579C43.2944 11.0068 43.2621 10.8556 43.219 10.7152C43.0468 10.1645 42.5515 9.78655 41.9701 9.77575C41.3886 9.76496 40.8179 9.75416 40.2365 9.75416C39.6443 9.74336 39.0629 9.74336 38.4707 9.73256C37.7277 9.72176 37.114 10.3481 37.1032 11.0392C37.0925 11.8706 37.0817 12.7021 37.0709 13.5335C37.0494 14.2138 37.6308 14.8509 38.3738 14.8617Z" fill="#008056"/>
<path d="M51.9107 9.92644C50.7693 9.90485 49.6172 9.89405 48.4651 9.87246C47.733 9.86166 47.1192 10.4664 47.1084 11.1898C47.0977 12.0105 47.0869 12.8312 47.0762 13.6518C47.0762 13.749 47.0869 13.857 47.1084 13.9434C47.2592 14.5697 47.7653 14.9908 48.4221 15.0016C48.982 15.0124 49.5419 15.0232 50.1018 15.0232C50.6724 15.034 51.2431 15.0448 51.803 15.0448C52.5136 15.0556 53.0628 14.5913 53.192 13.8894C53.2028 13.803 53.2135 13.7058 53.2135 13.6194C53.2243 12.8744 53.235 12.1185 53.2458 11.3734C53.2458 11.3194 53.2458 11.2762 53.2458 11.2222C53.2027 10.4988 52.6429 9.93724 51.9107 9.92644Z" fill="#008056"/>
<path d="M103.252 25.1628C102.197 23.2192 100.721 21.6534 98.8575 20.4656C98.7713 20.4116 98.6851 20.336 98.5989 20.2712C98.5989 20.3468 98.6312 20.4008 98.6851 20.4548C98.8251 20.5628 98.9652 20.6816 99.1052 20.8004C99.4499 21.1027 99.8161 21.3835 100.139 21.7182C102.358 23.9642 103.522 26.707 103.759 29.8385C103.823 30.6808 103.78 31.5122 103.694 32.3545C103.597 33.1644 103.446 33.9526 103.22 34.7301C102.509 37.1165 101.238 39.1466 99.3421 40.7771C98.9759 41.0903 98.5774 41.3926 98.1896 41.6842C96.0783 43.2715 93.7085 44.0382 91.0694 44.0058C90.2615 43.995 89.486 43.8438 88.7427 43.5307C88.4519 43.4119 88.1503 43.3039 87.8379 43.2067C87.5686 43.1311 87.3101 43.0339 87.0408 42.9368C86.9761 42.9152 86.9115 42.8936 86.8469 42.872C86.8577 42.8828 86.8684 42.8936 86.89 42.9044C86.8469 42.8936 86.8146 42.8828 86.7715 42.872L86.9115 42.926C86.9438 42.9476 86.9654 42.98 86.9977 43.0016C87.2347 43.1203 87.4717 43.2499 87.7194 43.3579C88.6027 43.7574 89.5183 44.0166 90.4878 44.0706C91.3818 44.1246 92.2867 44.1138 93.1807 44.0382C93.9994 43.9734 94.8073 43.8762 95.6151 43.725C96.6277 43.5307 97.6187 43.2607 98.5666 42.8612C99.2775 42.5696 99.9561 42.2025 100.57 41.7382C101.216 41.263 101.723 40.6583 102.164 39.9996C102.865 38.963 103.371 37.84 103.769 36.663C104.136 35.5724 104.383 34.4493 104.545 33.3155C104.642 32.6676 104.685 32.0197 104.717 31.3718C104.76 30.5944 104.696 29.8061 104.577 29.0394C104.351 27.668 103.909 26.383 103.252 25.1628Z" fill="#008056"/>
<path d="M83.1939 41.1661C83.0109 41.2848 82.8279 41.328 82.6341 41.2201C82.4941 41.1445 82.3864 41.1769 82.2787 41.2741C82.2357 41.3172 82.1818 41.3496 82.1387 41.382C81.5142 41.8464 80.8359 42.2027 80.1145 42.4619C79.2639 42.7642 78.3917 42.9262 77.498 42.9586C78.0902 43.045 78.6824 43.1422 79.2746 43.2285C79.9422 43.3365 80.0714 43.0342 80.7605 43.0234C81.0512 43.0126 82.3648 42.2675 82.3218 42.1379C82.4833 41.9111 83.1939 42.0839 83.3447 41.868C83.5062 41.6412 83.6569 41.4144 83.8184 41.1769C83.7108 41.0581 83.5923 41.0365 83.4631 41.0149C83.3662 41.0581 83.2801 41.1121 83.1939 41.1661Z" fill="#008056"/>
<path d="M76.5391 42.9469C76.7101 42.9469 76.8812 42.9469 77.063 42.9575C77.2126 42.9575 77.3517 42.9469 77.4907 42.9469C77.341 42.9255 77.2019 42.8935 77.0522 42.8828C76.8277 42.8508 76.6887 42.9042 76.5391 42.9469Z" fill="#008056"/>
<path d="M71.8283 42.9907C71.4082 43.1418 70.9666 43.2498 70.5249 43.347C69.9109 43.4766 69.2754 43.509 68.6507 43.5414C67.3904 43.6062 66.2163 43.293 65.1283 42.6559C64.6867 42.3968 64.2665 42.1052 63.8572 41.8137C63.5233 41.5761 63.1786 41.3493 62.8446 41.1226C62.3922 40.8202 61.6382 40.8094 61.1643 41.3169C61.1319 41.3493 61.1104 41.3925 61.0781 41.4465C61.3582 41.6841 61.6167 41.9108 61.886 42.1376C61.886 42.3536 64.2019 43.509 65.4191 43.8545C66.0547 44.0381 66.7009 44.1785 67.358 44.2325C68.0259 44.2865 68.7584 44.3836 69.4263 44.3189C70.1587 44.2433 70.7942 44.1569 71.4729 43.8869C71.8822 43.725 72.2269 43.617 72.6362 43.4334C73.121 43.2174 73.6595 43.455 74.1658 43.3146C74.7906 43.1526 75.4369 43.0663 76.0832 43.0447C76.2663 43.0339 76.3956 42.9907 76.514 42.9583C75.1676 42.9367 73.8319 42.9259 72.4854 42.8935C72.27 42.8827 72.0546 42.9151 71.8283 42.9907Z" fill="#008056"/>
<path d="M54.1648 30.5834C53.9924 31.5876 53.9171 32.6134 53.8848 33.6285C53.8632 34.3627 53.8524 35.0862 53.777 35.8205C53.7447 36.1444 53.7016 36.4792 53.5831 36.7923C53.4539 37.1487 53.2169 37.3539 52.8399 37.4078C52.312 37.4834 51.7842 37.451 51.2672 37.343C50.8794 37.2567 50.5024 37.1271 50.1361 36.9651C50.093 36.9435 50.0392 36.9219 49.9961 36.9975C50.0176 37.0191 50.0285 37.0623 50.05 37.0839C50.6532 37.7318 51.3964 38.0989 52.2905 38.1421C52.6029 38.1529 52.9153 38.1313 53.2169 38.0881C53.6909 38.0233 54.1217 37.8614 54.531 37.613C54.7034 37.505 54.7896 37.3754 54.8003 37.1811C54.8219 36.7923 54.8542 36.4036 54.8757 36.0149C54.9081 35.0646 54.8542 34.1144 54.908 33.1641C54.9403 32.5918 54.9834 32.0303 55.0588 31.458C55.1666 30.6481 55.3281 29.8599 55.5759 29.0932C55.7698 28.4993 55.9745 27.9162 56.1684 27.3331C56.2222 27.1711 56.2545 27.0091 56.2545 26.8364C56.2545 26.4152 56.2653 25.9941 56.2761 25.573C56.2976 24.2772 56.3191 22.9706 56.3299 21.6748C56.3407 21.1133 56.5346 20.6382 56.9223 20.2386C57.1916 20.0659 57.2886 19.8175 57.3425 19.5151C57.3855 19.256 57.4825 19.0184 57.6333 18.7917C57.7841 18.5649 57.978 18.4461 58.2581 18.4569C58.7859 18.4677 59.3137 18.5433 59.82 18.6945C60.337 18.8457 60.8649 18.9428 61.4142 18.9428C61.6835 18.9428 61.8989 19.0508 62.0713 19.256C62.1467 19.3424 62.2221 19.4396 62.2759 19.5475C62.3514 19.7095 62.4699 19.8067 62.6314 19.8931C63.2023 20.1846 63.5793 20.649 63.7301 21.2753C63.7732 21.4588 63.7732 21.6532 63.7732 21.8368C63.7625 23.2081 63.7409 24.5795 63.7194 26.0049C63.7194 26.0373 63.7302 26.0697 63.7194 26.1021L63.7409 25.9941C63.7624 25.9617 63.7732 25.9401 63.7732 25.9185C63.8486 25.4326 63.9348 24.9575 63.9887 24.4715C64.0426 24.0072 64.0856 23.5321 64.1072 23.0678C64.1287 22.6142 64.1718 22.1607 64.1287 21.718C64.0317 20.649 63.644 19.6771 63.03 18.8025C62.8469 18.5433 62.6422 18.3165 62.3944 18.133C62.179 17.971 61.942 17.8414 61.662 17.809C61.328 17.755 61.0049 17.809 60.6817 17.8522C60.3694 17.8954 60.0785 18.0034 59.7985 18.1114C59.3137 18.3057 58.8074 18.4029 58.2796 18.3921C57.7625 18.3813 57.3317 18.5757 56.9655 18.9428C56.75 19.1696 56.5777 19.418 56.4377 19.6987C56.1037 20.3574 55.9206 21.0593 55.8991 21.8044C55.8775 22.5279 55.8452 23.2405 55.7698 23.964C55.6944 24.6983 55.5867 25.4326 55.3928 26.1453C55.1989 26.858 54.9834 27.5706 54.768 28.2725C54.5095 29.0176 54.3048 29.7951 54.1648 30.5834Z" fill="#008056"/>
<path d="M43.2293 6.38498C43.4124 6.48217 43.6169 6.52536 43.8323 6.52536C44.306 6.52536 44.769 6.53616 45.2428 6.54696C45.7273 6.55776 46.2226 6.56855 46.7071 6.56855C47.5147 6.56855 48.0208 5.96385 48.0854 5.39155C48.0961 5.27276 48.1069 5.15398 48.1176 5.0352C48.1284 4.50609 48.1392 3.97698 48.1392 3.44786C48.1392 3.30748 48.1284 3.16711 48.1069 3.02673C48.0207 2.49762 47.7193 2.14127 47.2132 1.9577C47.0517 1.90371 46.8578 1.88212 46.6856 1.87132C45.7919 1.84972 44.8874 1.83892 43.9937 1.82812C43.9399 1.82812 43.8969 1.82812 43.8431 1.82812C43.0678 1.87132 42.5187 2.42203 42.4971 3.1995C42.4864 3.8474 42.4648 4.49529 42.4756 5.15398C42.4756 5.71549 42.734 6.12582 43.2293 6.38498Z" fill="#008056"/>
<path d="M43.3688 7.62695C43.4765 7.62695 43.5842 7.64855 43.6919 7.64855C44.0905 7.68094 44.4351 7.84291 44.7475 8.10207C44.8983 8.23165 45.0492 8.37203 45.2 8.50161C45.5124 8.77157 45.8678 8.93354 46.2772 8.96594C46.3202 8.96594 46.374 8.98753 46.4171 8.98753C46.4494 9.09552 46.3956 9.1711 46.3741 9.25749C46.2664 9.61383 46.1694 9.97017 46.0725 10.3265C46.051 10.3913 46.0617 10.4561 46.0509 10.5641C46.1156 10.5209 46.1587 10.4993 46.2018 10.4777C46.331 10.3913 46.4495 10.3049 46.5787 10.2293C46.6757 10.1753 46.7511 10.0997 46.8157 10.0134C47.2574 9.43026 47.8498 9.1495 48.5823 9.1711C49.6702 9.1927 50.7582 9.2035 51.8462 9.2143C52.2124 9.2143 52.557 9.28988 52.8802 9.46265C52.9125 9.48425 52.9557 9.53824 53.0095 9.46265C52.8264 9.20349 52.5894 9.00913 52.2985 8.90114C52.1047 8.83636 51.9108 8.81476 51.7061 8.79316C51.523 8.77157 47.2682 8.64199 47.1497 8.62039C47.1604 7.9617 48.5607 6.57952 48.6038 6.16919C48.4423 6.36356 48.3345 6.51473 48.2053 6.64431C48.0653 6.77389 47.9145 6.89267 47.7529 6.98985C47.5913 7.08704 47.4082 7.15183 47.2574 7.22742C47.1927 7.36779 47.1389 7.49737 47.0635 7.61615C46.9234 7.85372 46.708 7.9617 46.4387 7.97249C46.3741 7.97249 46.2987 7.9725 46.234 7.9617C45.8462 7.91851 45.4693 7.81052 45.1354 7.60535C45.0384 7.55136 44.9415 7.49737 44.8553 7.43258C44.6183 7.28141 44.3813 7.20582 44.0905 7.21662C43.8858 7.22741 43.6703 7.22742 43.4657 7.18422C43.0563 7.10864 42.7224 6.92507 42.4531 6.6875C42.7871 7.22742 43.121 7.61615 43.3688 7.62695Z" fill="#008056"/>
<path d="M41.7638 5.12191C41.7746 4.80876 41.7745 4.50641 41.7745 4.19326C41.7745 4.07448 41.7422 3.98809 41.6669 3.90171C41.3546 3.54536 41.3761 3.12423 41.7207 2.81108C41.8068 2.7355 41.8607 2.64911 41.893 2.54113C41.9791 2.29277 42.1083 2.06601 42.2806 1.87164C42.3129 1.82844 42.3452 1.78525 42.3882 1.72046C41.9145 1.77445 41.4731 2.01201 41.2146 2.33596C41.0747 2.51953 40.967 2.7247 40.9347 2.96226C40.9131 3.11343 40.8809 3.25381 40.8809 3.40499C40.8809 3.53457 41.29 4.5604 41.8068 5.56464C41.7745 5.41346 41.7638 5.26229 41.7638 5.12191Z" fill="#008056"/>
<path d="M42.436 6.68107C42.2227 6.34809 42.0093 5.95066 41.8066 5.55322C41.892 5.97214 42.0947 6.38031 42.436 6.68107Z" fill="#008056"/>
<path d="M8.09116 29.9358C8.06962 30.0114 8.04809 30.0546 8.03732 30.0978C7.99423 30.4109 7.94036 30.7349 7.89728 31.048C7.88651 31.156 7.90804 31.2424 7.95112 31.3396C8.02653 31.4907 8.09116 31.6527 8.15579 31.8039C8.382 32.3978 8.54354 33.0025 8.52199 33.6396C8.51122 33.9419 8.54357 34.2335 8.55434 34.5358C8.58666 35.3457 8.72668 36.1448 8.95289 36.9223C9.38376 38.4124 10.0947 39.7406 11.2042 40.8312C12.5184 42.127 14.1018 42.8181 15.933 42.9801C16.7086 43.0449 17.4842 43.0125 18.2597 42.9153C19.3477 42.7749 20.3925 42.4834 21.3835 42.0298C21.8898 41.7923 22.3961 41.5439 22.827 41.1768C24.9598 39.3843 26.0585 37.0518 26.3278 34.3091C26.3924 33.6936 26.3816 33.0673 26.4032 32.4518C26.414 32.0306 26.4139 31.6203 26.4247 31.2316C26.4247 31.1344 26.4139 31.0264 26.4247 30.9292L26.3924 31.3612C26.3493 31.7391 26.3386 32.1386 26.3278 32.5382C26.3062 33.1645 26.317 33.8016 26.2524 34.4279C26.1877 35.1297 26.0477 35.81 25.8215 36.4795C25.2183 38.2504 24.1303 39.665 22.6115 40.734C20.8126 41.9974 18.7983 42.6345 16.6008 42.6345C16.073 42.6345 15.5452 42.5697 15.0282 42.4402C13.6386 42.0838 12.5291 41.3063 11.6566 40.1833C10.9457 39.2655 10.4825 38.2288 10.1809 37.1274C9.86851 35.9936 9.72844 34.8382 9.73921 33.6612C9.73921 33.4884 9.72848 33.3156 9.71771 33.1537C9.65308 32.6138 9.45915 32.1278 9.2114 31.6527C8.92056 31.0696 8.55431 30.5297 8.18807 30.0006C8.16653 29.979 8.13425 29.9682 8.09116 29.9358Z" fill="#008056"/>
<path d="M125.078 43.5093C124.712 43.6388 124.335 43.6712 123.958 43.5956C122.945 43.3905 122.191 42.4402 122.32 41.3496C122.385 40.8205 122.471 40.3022 122.546 39.7731C122.665 39.0064 122.794 38.2289 122.913 37.4622C122.934 37.2895 122.945 37.1275 122.913 36.9547C122.794 36.3176 122.826 35.6805 122.923 35.0434C122.999 34.5575 122.988 34.0716 122.902 33.5857C122.654 33.3373 122.342 33.2401 122.008 33.2185C121.771 33.2077 121.534 33.2077 121.286 33.2077C121.189 33.2077 121.114 33.2293 121.06 33.2725C120.952 33.2401 120.855 33.2077 120.769 33.1969C120.414 33.1861 120.08 33.089 119.778 32.9054C119.67 32.8406 119.563 32.819 119.433 32.8298C119.261 32.8514 119.099 32.8514 118.927 32.8622C118.884 32.8622 118.83 32.8514 118.787 32.927C118.83 32.9918 118.873 33.0674 118.927 33.1429C119.175 33.4885 120.888 33.8448 120.941 33.6613C120.974 33.5749 120.974 33.4885 121.06 33.4021C121.092 33.4669 122.482 33.5749 122.611 33.9204C122.87 34.2444 122.288 39.935 122.266 40.5829C122.256 40.7773 122.256 40.9609 122.245 41.1552C122.223 41.4684 122.148 41.7707 121.986 42.0407C121.835 42.2891 121.685 42.5374 121.534 42.7858C121.394 43.0125 122.557 44.2975 122.859 44.3407C123.29 44.4055 123.731 44.4055 124.173 44.4055C124.453 44.4055 124.679 44.2867 124.852 44.0816C124.938 43.9844 125.013 43.8764 125.067 43.7576C125.218 43.4769 125.282 43.8764 125.347 43.5525C125.358 43.5201 125.336 43.4769 125.336 43.4229C125.239 43.4445 125.153 43.4769 125.078 43.5093Z" fill="#008056"/>
<path d="M33.925 22.4305C33.9573 22.6249 33.9573 22.8301 33.9573 23.0244C33.9142 26.1451 33.8712 29.2658 33.8281 32.3865C33.8173 32.7428 33.8173 33.11 33.8496 33.4663C33.9034 34.0926 34.0219 34.7081 34.248 35.302C34.4418 35.8095 34.7002 36.2847 35.0447 36.7058C35.1309 36.803 35.217 36.9002 35.3355 36.9542C35.6154 37.0729 35.9062 37.1701 36.2292 37.2133C36.2184 37.2025 36.2184 37.2025 36.2076 37.1917C36.2292 37.2025 36.2507 37.2025 36.283 37.2133L36.2076 37.1917C36.0676 37.0837 35.9277 36.9866 35.82 36.8786C35.4862 36.5762 35.2816 36.1875 35.1309 35.7663C34.8402 34.9673 34.7541 34.1358 34.7433 33.2935C34.7325 32.2245 34.7756 31.1555 34.894 30.0865C34.9694 29.3522 35.0771 28.6179 35.1955 27.8944C35.3247 27.1493 35.4216 26.3935 35.4862 25.6376C35.5616 24.8061 35.5939 23.9639 35.6047 23.1216C35.6047 22.7437 35.4862 22.4197 35.2278 22.139C35.1094 22.0094 34.9694 21.8798 34.8294 21.7826C34.2911 21.3939 33.6773 21.1671 33.0098 21.0483C33.0636 21.0915 33.1174 21.1347 33.1712 21.1779C33.5804 21.5019 33.8388 21.923 33.925 22.4305Z" fill="#008056"/>
<path d="M38.1461 15.9844C38.7063 16.006 39.2018 16.168 39.6434 16.5027C39.805 16.6215 39.9666 16.7403 40.1282 16.8591C40.5483 17.1722 41.0222 17.3234 41.5501 17.3234C41.9594 17.3234 42.3148 17.1938 42.6165 16.9238C42.8103 16.7511 42.9827 16.5567 43.112 16.3299C43.3813 15.898 43.5536 15.4337 43.6721 14.9478C43.7044 14.8182 43.7259 14.6994 43.7475 14.5698C43.629 14.667 43.5536 14.775 43.4674 14.883C43.3705 14.991 43.2735 15.0881 43.1658 15.1745C43.0473 15.2609 42.918 15.3473 42.7888 15.4121C42.6703 15.4769 42.5303 15.5201 42.401 15.5741C42.3579 15.6712 42.3256 15.7576 42.2825 15.8548C42.1317 16.168 41.884 16.3299 41.5177 16.3191C41.0114 16.3083 40.5267 16.2004 40.0743 15.9736C39.8589 15.8656 39.6434 15.7684 39.428 15.6604C39.288 15.5957 39.148 15.5633 38.9972 15.5633C38.7817 15.5633 38.5555 15.5633 38.34 15.5525C37.8984 15.5417 37.5214 15.3905 37.1875 15.1313C37.5107 15.628 37.8553 15.9844 38.1461 15.9844Z" fill="#008056"/>
<path d="M37.1809 15.1454C36.8929 14.7157 36.6049 14.1787 36.3809 13.6738C36.4235 14.1679 36.6048 14.6083 36.9675 14.9735C37.0315 15.0272 37.1062 15.081 37.1809 15.1454Z" fill="#008056"/>
<path d="M35.828 12.1408C35.7742 12.1948 36.011 12.8859 36.3664 13.6634C36.3556 13.5878 36.3448 13.5014 36.3448 13.4258C36.3448 13.091 36.3448 12.7671 36.3556 12.4323C36.3663 12.1948 36.3232 12.0004 36.1833 11.7845C35.9464 11.4281 36.0003 10.8558 36.3448 10.6506C36.4309 10.5967 36.4525 10.5103 36.4848 10.4239C36.5602 10.2079 36.6678 10.0027 36.8078 9.81917C36.8616 9.75439 36.9155 9.6788 36.9693 9.61401C36.6786 9.62481 36.4202 9.72199 36.194 9.86237C35.8495 10.0783 35.6234 10.3807 35.5373 10.791C35.505 10.9422 35.4834 11.1042 35.4727 11.2661C35.4834 11.6117 36.0649 11.914 35.828 12.1408Z" fill="#008056"/>
<path d="M52.4176 15.6825C52.3099 15.7149 52.213 15.7365 52.1376 15.8336C51.976 16.0388 51.7498 16.1036 51.502 16.0928C51.0819 16.082 50.6618 16.0172 50.2848 15.8444C50.1017 15.7581 49.9078 15.7257 49.7032 15.7257C49.2507 15.7257 48.8091 15.7149 48.3567 15.7041C47.7319 15.6825 47.2256 15.4125 46.827 14.9374C46.5254 14.5702 46.3746 14.1383 46.3746 13.6632C46.3746 13.3608 46.3854 13.0585 46.3854 12.7669C46.3854 12.6806 46.3854 12.605 46.3208 12.551C46.2346 12.4646 46.1377 12.389 46.0515 12.3134C45.9653 12.227 45.8899 12.1406 45.8038 12.0435C45.6745 12.1838 45.5668 12.3242 45.4483 12.4538C45.319 12.5942 45.179 12.7129 45.039 12.8533C45.0282 12.8641 45.0282 12.8641 45.0174 12.8749C44.5003 13.3932 44.5111 14.1167 44.8343 14.635C44.9743 14.8618 45.1574 15.0454 45.3621 15.2073C45.5883 15.3801 45.8468 15.5313 46.1054 15.6393C46.7517 15.92 47.4303 16.082 48.1412 16.082C48.7121 16.0928 49.2399 16.2224 49.7462 16.4923C49.9078 16.5787 50.0802 16.6651 50.2525 16.7407C50.8557 16.9999 51.4913 17.0754 52.1268 16.9135C53.2363 16.6219 54.098 15.974 54.7012 15.0022C54.8197 14.8078 54.9167 14.5918 54.9598 14.3651C55.046 13.9763 55.0459 13.5876 54.7766 13.2529C54.615 13.0477 54.2273 12.7237 53.9149 12.551C53.9041 12.6482 53.9041 12.7237 53.9041 12.7885C53.8933 13.1125 53.8933 13.4256 53.8933 13.7496C53.8933 14.0519 53.818 14.3435 53.6779 14.6134C53.4194 15.1533 52.9885 15.4989 52.4176 15.6825Z" fill="#008056"/>
<path d="M49.7146 29.2235C49.7253 27.323 49.736 25.4225 49.7467 23.522C49.7467 23.4356 49.7467 23.3384 49.7467 23.2521C49.7467 23.0901 49.6827 22.9605 49.5547 22.8633C49.352 22.7014 49.1173 22.6042 48.8613 22.5718C48.8507 22.6042 48.8294 22.6258 48.8294 22.6366C48.84 22.9065 48.8613 23.1765 48.8507 23.4464C48.808 26.5671 48.7653 29.6878 48.7227 32.8085C48.7227 33.1757 48.7227 33.5428 48.7547 33.9207C48.8294 34.6226 48.9894 35.3029 49.288 35.94C49.3947 36.1776 49.544 36.3935 49.672 36.6203C49.704 36.6743 49.7466 36.7391 49.8426 36.7283C49.8426 36.7067 49.864 36.6743 49.8533 36.6527C49.832 36.2639 49.7893 35.8752 49.7786 35.4865C49.7466 34.7738 49.7146 34.0719 49.7146 33.3592C49.6933 31.9662 49.704 30.5949 49.7146 29.2235Z" fill="#008056"/>
<path d="M143.969 21.3402C143.98 21.3186 143.991 21.297 143.98 21.2754L143.937 21.3834C143.916 21.4158 143.905 21.4374 143.894 21.4482C143.453 22.1716 142.817 22.528 141.977 22.5064C141.45 22.4956 140.922 22.4956 140.395 22.4848C139.759 22.474 139.081 22.8735 138.963 23.7374C138.898 24.2341 138.823 24.7308 138.747 25.2168C138.629 26.005 138.5 26.7933 138.381 27.5924C138.36 27.7651 138.349 27.9487 138.36 28.1323C138.392 28.6398 138.78 29.1149 139.264 29.2661C139.339 29.2877 139.415 29.3093 139.501 29.2661C139.512 29.2445 139.533 29.2229 139.533 29.1905C139.684 28.8234 139.361 27.7327 139.436 27.182C139.49 26.7933 139.609 23.7914 139.835 23.3811C139.835 23.2947 139.835 23.1975 139.856 23.1111C139.878 22.9707 139.975 22.9059 140.115 22.9059C140.287 22.9059 140.449 22.9707 140.578 23.0895C140.685 23.1975 143.496 22.9707 143.636 22.6468C143.808 22.2364 143.926 21.8153 144.002 21.3294C143.98 21.3294 143.969 21.3294 143.969 21.3402Z" fill="#008056"/>
<path d="M139.285 7.99421C139.371 8.01581 139.457 8.0374 139.544 8.059C140.297 8.29656 140.782 8.79328 140.986 9.55996C141.073 9.8947 141.04 10.2294 140.986 10.575C140.933 10.9529 140.868 11.3201 140.814 11.698C140.739 12.1947 140.663 12.6806 140.588 13.1774C140.513 13.6633 140.437 14.1492 140.362 14.6243C140.287 15.1427 140.2 15.6502 140.125 16.1685C140.082 16.4492 140.05 16.7408 140.028 17.0323C140.017 17.2051 140.05 17.3671 140.157 17.5291C140.19 17.4859 140.222 17.4643 140.243 17.4319C140.351 17.2483 140.394 17.0431 140.426 16.838C140.556 16.0497 140.803 15.3046 141.212 14.6243C141.385 14.3328 141.923 8.6529 141.428 8.0374C141.32 7.90782 141.191 7.82144 141.029 7.78904C140.922 7.76745 140.814 7.75665 140.706 7.74585C140.211 7.75665 139.759 7.88623 139.285 7.99421Z" fill="#008056"/>
<path d="M126.087 16.859C126.14 16.5135 126.194 16.1679 126.248 15.8224C126.334 15.2933 126.41 14.7533 126.496 14.2242C126.528 14.0515 126.496 13.8895 126.431 13.7275C126.28 13.3928 127.196 13.0688 127.067 12.7233C126.808 12.043 126.679 11.3411 126.711 10.6068C126.722 10.3369 126.754 10.0669 126.776 9.79696C126.787 9.61338 126.84 9.44061 126.937 9.28944C127.034 9.13826 127.131 8.98709 127.239 8.84671C127.745 8.22041 127.282 7.6697 127.939 7.21617C128.003 7.17298 128.068 7.12979 128.132 7.08659C128.122 7.07579 128.122 7.065 128.111 7.0542C128.079 7.0542 128.046 7.0542 128.025 7.065C127.303 7.30256 127.713 7.6589 127.12 8.13402C126.883 8.31759 126.668 8.53356 126.485 8.77112C126.248 9.07347 126.119 9.40822 126.087 9.78615C126.076 9.86174 126.076 9.94813 126.065 10.0237C125.968 10.7796 125.979 11.5463 126.151 12.2913C126.259 12.7773 126.044 17.183 126.087 16.859Z" fill="#008056"/>
<path d="M123.579 28.0786C123.805 28.165 124.009 28.3054 124.268 28.327C124.3 28.2622 124.332 28.2082 124.343 28.1542C124.375 28.0246 124.408 27.9059 124.429 27.7763C124.483 27.4307 124.526 27.0852 124.58 26.7397C124.72 25.8218 124.871 24.904 125.011 23.9861C125.032 23.8241 125.043 23.6514 125.032 23.4786C125.032 23.3814 125 23.2734 124.946 23.1978C124.86 23.0574 124.774 22.9171 124.763 22.7227C124.601 22.7659 124.483 22.7227 124.354 22.6471C124.074 22.4851 123.751 22.442 123.428 22.4312C123.223 22.4312 123.04 22.4959 122.889 22.6471C122.814 22.7119 122.749 22.7875 122.674 22.8631C122.599 22.9279 122.534 23.0035 122.459 23.0683C122.233 23.2302 123.74 22.9495 123.471 22.8307L124.612 23.3598C124.655 23.403 124.709 26.934 123.815 27.6683C123.815 27.8195 123.579 27.9383 123.579 28.0786Z" fill="#008056"/>
<path d="M136.204 13.6738C136.215 13.7062 136.226 13.7494 136.301 13.7386C136.312 13.7062 136.323 13.6738 136.323 13.6414C136.377 13.3175 136.42 12.9935 136.474 12.6696C136.624 11.7085 136.764 10.7583 136.926 9.79725C137.066 8.95498 137.539 8.38267 138.336 8.09112C138.519 8.02633 138.724 7.99394 138.918 7.95074C138.929 7.95074 138.939 7.92915 138.95 7.91835C138.875 7.88595 138.799 7.85356 138.724 7.82116C138.692 7.30285 135.892 8.8362 135.731 10.132C135.666 10.6287 135.655 11.1254 135.688 11.6329C135.731 12.3348 135.946 13.0043 136.204 13.6738Z" fill="#008056"/>
<path d="M4.35289 44.9026C3.77146 44.1467 3.27617 43.3368 2.81318 42.5054C2.17791 41.3932 1.67187 40.2162 1.28424 38.996C0.950457 37.9377 0.724328 36.8471 0.59512 35.7457C0.498215 34.9034 0.444373 34.0504 0.45514 33.1973C0.465908 32.0959 0.498236 30.9944 0.616676 29.893C0.605909 29.9038 0.605888 29.9146 0.59512 29.9254C0.605888 29.8822 0.616666 29.8498 0.605898 29.8066L0.562853 29.9794C0.552085 30.0118 0.530509 30.0442 0.519742 30.0874C0.20749 31.1456 0.0136998 32.2254 0.00293254 33.3377C-0.00783475 33.7804 0.0137209 34.2231 0.0244882 34.6551C0.0460227 35.4865 0.142928 36.3072 0.29367 37.1279C0.616689 38.9851 1.21963 40.7453 2.14561 42.3974C3.15774 44.2223 4.49291 45.7665 6.1403 47.0514C6.22644 47.1162 6.31258 47.181 6.40948 47.2458C6.40948 47.2134 6.42025 47.2026 6.40948 47.2026C6.37718 47.1702 6.34484 47.1378 6.30177 47.0946C5.6019 46.4143 4.9451 45.6909 4.35289 44.9026Z" fill="#008056"/>
<path d="M48.788 40.9068C48.7234 40.842 48.6696 40.7772 48.5942 40.7124C48.3142 40.4641 47.9697 40.3561 47.6036 40.3777C47.539 40.3777 47.4744 40.4101 47.356 40.4425C47.5498 40.9608 47.4421 41.4683 47.4636 41.9542C47.1945 42.2458 46.8822 42.4618 46.5592 42.6561C46.2254 42.8505 45.8808 43.0233 45.4824 43.2392C45.8485 43.25 46.1392 43.2176 46.4299 43.1744C46.7422 43.1312 47.0329 43.0449 47.3129 42.9153C47.5928 42.7965 47.8189 42.6021 48.045 42.4078C48.0989 42.4402 48.1527 42.4618 48.185 42.4833C48.7449 42.8505 49.3694 43.0125 50.0155 43.0557C50.5323 43.0988 51.0491 43.0772 51.566 43.0125C51.5767 43.0125 51.5875 42.9909 51.6198 42.9585C51.5767 42.9369 51.5337 42.9045 51.4906 42.8829C50.4569 42.4294 49.574 41.7383 48.788 40.9068Z" fill="#008056"/>
<path d="M136.805 37.678C136.805 37.6457 136.805 37.6025 136.805 37.5701V37.678C136.794 37.6673 136.794 37.6672 136.794 37.6672C136.719 38.1532 136.654 38.6283 136.579 39.0926C136.428 40.0645 136.288 41.0255 136.127 41.9973C136.019 42.6776 135.653 43.196 135.05 43.5307C134.296 43.941 133.392 43.833 132.735 43.2715C132.595 43.1528 132.444 43.0664 132.272 43.0124C131.928 42.8936 131.605 42.7532 131.292 42.5697C131.249 42.5373 131.196 42.5265 131.109 42.4833C131.131 42.5589 131.131 42.5912 131.152 42.6344C131.335 43.1204 131.605 43.5523 131.982 43.8978C132.52 44.3946 133.155 44.6537 133.887 44.6213C134.706 44.5889 135.384 44.2542 135.933 43.6387C136.245 43.2931 136.461 42.8828 136.536 42.4185C136.568 42.2457 136.601 42.0621 136.622 41.8894C136.687 41.3603 136.762 40.8419 136.784 40.3128C136.827 39.4598 136.827 38.6175 136.838 37.7644C136.827 37.732 136.838 37.6996 136.805 37.678Z" fill="#008056"/>
<path d="M41.978 9.08417C42.2472 9.08417 42.5165 9.13817 42.7641 9.25695C43.5609 9.64569 43.9808 10.2936 43.9915 11.1898C44.0023 11.7513 43.9808 12.3129 43.97 12.8636C43.97 12.9068 43.9377 12.9607 44.0023 12.9823C44.1207 12.8096 44.2392 12.6368 44.3684 12.464C44.5515 12.2049 44.6699 11.9241 44.713 11.611C44.7561 11.341 44.7238 11.071 44.6484 10.8119L42.7749 8.23112C42.6349 8.14473 42.4734 8.05834 42.3226 8.00435C41.7196 7.79918 41.1274 7.84238 40.5675 8.17713C40.2122 8.39309 39.9431 8.69544 39.6523 9.01939C39.7492 9.03019 39.8462 9.03018 39.9431 9.03018C40.6214 9.06258 41.2997 9.07338 41.978 9.08417Z" fill="#008056"/>
<path d="M44.5327 43.249C44.0587 43.1846 43.5848 43.1309 43.1109 43.0557C42.9708 43.0342 42.8308 43.0449 42.7015 43.0879C41.7644 43.3672 40.8164 43.4961 39.8362 43.4424C39.093 43.3994 38.3497 43.3457 37.6064 43.1846C37.4879 43.1631 37.3803 43.1416 37.2402 43.1094C37.2725 43.1523 37.2725 43.1846 37.2941 43.206C37.6711 43.5283 38.0804 43.829 38.5329 44.0439C38.996 44.2694 39.4808 44.3876 40.0086 44.3983C40.4395 44.3983 40.8703 44.3769 41.2904 44.3231C42.0768 44.2157 42.8631 44.0546 43.6279 43.829C44.1018 43.6894 44.5758 43.539 45.039 43.292C44.8666 43.2812 44.6943 43.2705 44.5327 43.249Z" fill="#008056"/>
<path d="M141.556 33.2292C141.524 33.24 141.502 33.24 141.47 33.2615C141.136 33.4333 140.77 33.487 140.393 33.4763C139.844 33.4548 139.295 33.4548 138.746 33.4548C138.584 33.4548 138.423 33.4656 138.272 33.5085C137.755 33.6267 137.367 34.0563 137.281 34.6149C137.712 34.5719 141.556 33.8308 141.61 33.3796C141.61 33.3367 141.599 33.2937 141.599 33.2507C141.567 33.2293 141.567 33.2292 141.556 33.2292Z" fill="#008056"/>
<path d="M46.7947 1.17861C47.2362 1.18941 47.6346 1.31899 47.9899 1.58894C48.5498 2.01008 48.8297 2.59318 48.8405 3.29507C48.8405 3.78099 48.8298 4.27771 48.819 4.78522C48.8621 4.77443 48.8728 4.77443 48.8728 4.77443C49.0128 4.61245 49.142 4.46128 49.282 4.29931C49.3035 4.27771 49.3143 4.25611 49.3358 4.22372C49.4327 4.08334 49.4973 3.93217 49.5404 3.75939C49.605 3.48944 49.5727 3.21948 49.5081 2.96032C49.2174 1.83731 48.5713 0.962647 47.6023 0.336349C47.4623 0.249963 47.3008 0.174374 47.1393 0.120383C46.4717 -0.117179 45.8795 -0.00919371 45.3734 0.498324C45.2012 0.671096 45.0289 0.854666 44.8566 1.03824C44.8351 1.05983 44.8136 1.10303 44.7812 1.15702C44.9105 1.15702 45.0181 1.15702 45.115 1.15702C45.6749 1.15702 46.2348 1.16781 46.7947 1.17861Z" fill="#008056"/>
<path d="M18.0123 50.7442C17.0536 50.7874 16.095 50.7766 15.147 50.6686C14.4253 50.5822 13.7036 50.4634 13.0035 50.2906C12.271 50.1071 11.56 49.8479 10.8383 49.5996C9.84733 49.2432 8.87789 48.8329 7.96229 48.3146C7.96229 48.3362 7.9838 48.347 7.99457 48.3578C7.95148 48.3254 7.89761 48.3146 7.84375 48.293L7.99457 48.3686C8.03766 48.4441 8.11304 48.4873 8.17767 48.5305C9.11482 49.1892 10.1058 49.7291 11.1615 50.1611C12.4218 50.6794 13.7359 51.0141 15.0824 51.1653C15.8364 51.2517 16.5905 51.2733 17.3553 51.2301C18.1954 51.1761 19.0249 51.0681 19.8327 50.8737C20.4683 50.7226 21.0823 50.5282 21.6747 50.2798C21.7501 50.2474 21.8471 50.2367 21.8794 50.1395C21.804 50.1611 21.7394 50.1827 21.664 50.1935C20.4683 50.4958 19.2511 50.6902 18.0123 50.7442Z" fill="#008056"/>
<path d="M113.342 43.4746C113.213 43.4639 113.084 43.4961 112.966 43.5606C112.675 43.7217 112.341 43.7754 112.018 43.7861C111.641 43.7969 111.34 43.6572 111.114 43.3565C111.071 43.3028 111.038 43.2383 110.995 43.1846C110.974 43.1524 110.963 43.0772 110.888 43.1094C110.866 43.5928 110.844 44.0762 110.92 44.5703C110.963 44.8388 113.838 43.958 114.085 43.5713C114.085 43.5606 114.085 43.5498 114.096 43.5176C114.064 43.5069 114.042 43.4854 114.032 43.4854C113.805 43.4854 113.579 43.4746 113.342 43.4746Z" fill="#008056"/>
<path d="M40.173 22.2366C39.7316 22.3985 39.5378 22.6685 39.527 23.1436C39.5055 23.8887 39.5485 24.6446 39.6239 25.3897C39.71 26.2211 39.8931 27.0418 40.1408 27.8517C40.3669 28.6075 40.6145 29.3526 40.776 30.1301C40.7868 30.1625 40.7976 30.2057 40.8083 30.2381C40.8191 29.9357 40.7975 29.6442 40.7652 29.3526C40.6791 28.5643 40.5822 27.7869 40.5068 26.9986C40.4422 26.3399 40.3992 25.6812 40.3776 25.0225C40.3561 24.4286 40.3776 23.8239 40.3776 23.2192C40.3776 22.9601 40.4638 22.7225 40.6145 22.5281C40.6899 22.4201 40.7868 22.3337 40.8729 22.2366C40.9052 22.2042 40.9268 22.161 40.9806 22.0962C40.6791 22.1178 40.4207 22.1394 40.173 22.2366Z" fill="#008056"/>
<path d="M117.771 37.6999C117.76 37.6675 117.728 37.646 117.685 37.5596C117.674 37.7107 117.674 37.8079 117.674 37.9051C117.653 39.0389 117.642 40.1835 117.631 41.3174C117.631 41.8789 117.47 42.3756 117.104 42.8075C117.082 42.8399 117.061 42.8831 117.039 42.9479C117.394 42.9263 117.696 42.8615 117.987 42.7211C118.396 42.5268 118.611 42.2136 118.622 41.7601C118.633 41.3498 118.622 40.9394 118.589 40.5291C118.482 39.5356 118.213 38.5962 117.771 37.6999Z" fill="#008056"/>
<path d="M110.225 19.1264C109.735 22.4955 109.841 25.9617 109.681 29.7411C109.617 31.296 109.489 32.8078 109.468 34.3627C109.447 36.1013 109.287 37.451 109.681 38.2177C109.959 38.7576 109.66 39.168 110.012 39.2759C109.991 39.0384 109.98 38.8656 109.959 38.736C109.617 37.0839 110.108 35.0322 110.14 32.905C110.204 28.5749 110.268 24.2556 110.321 19.9255C110.332 19.5583 110.332 19.1912 110.332 18.6189C110.268 18.8997 110.247 19.0076 110.225 19.1264Z" fill="#008056"/>
<path d="M117.557 32.9164C117.525 33.0352 117.514 33.208 117.482 33.4564C117.834 33.3484 117.546 32.938 117.834 32.4089C118.24 31.6638 118.133 30.3033 118.154 28.5648C118.176 27.0098 118.09 25.4981 118.069 23.9431C118.016 20.1637 118.229 16.6975 117.824 13.3176C117.813 13.1988 117.792 13.0909 117.738 12.7993C117.728 13.3824 117.717 13.7388 117.717 14.1059C117.653 18.436 117.589 22.7553 117.536 27.0854C117.514 29.2126 117.941 31.2751 117.557 32.9164Z" fill="#008056"/>
<path d="M28.6002 20.3437C28.6648 20.1826 28.794 20.2793 28.9663 20.2793C29.0417 20.2793 29.2785 20.4081 29.3539 20.4189C29.6446 20.4726 29.5154 20.4511 29.72 20.6659C29.8707 20.8271 30.6352 20.6874 31.012 20.6874C31.0013 20.6874 31.0013 20.6874 31.0013 20.6767C31.0228 20.6767 31.0443 20.6659 31.0659 20.6767L30.9798 20.6552C30.9475 20.6337 30.9152 20.6122 30.8936 20.5908C30.7106 20.4941 30.5491 20.3544 30.4091 20.2041C30.2799 20.0644 29.8169 20.1289 29.6985 19.9785C29.537 19.7851 28.4817 19.5381 28.1802 20.1289C28.1264 20.247 27.3512 20.3867 27.3189 20.5048C27.1681 20.9774 27.1143 20.6445 27.1035 21.1386C27.1035 21.1708 27.1251 21.203 27.1358 21.246C27.2543 21.1708 28.5463 20.4726 28.6002 20.3437Z" fill="#008056"/>
<path d="M3.16915 25.1717H3.29841C4.41867 25.1825 5.53893 25.1932 6.6592 25.2255C7.38091 25.2469 7.93025 25.5799 8.32881 26.1707C8.38267 26.2459 8.42578 26.3211 8.49041 26.4285C8.75971 26.2459 8.99668 26.0633 9.15826 25.8055C9.29829 25.5907 9.27675 25.451 9.09363 25.2792C8.9536 25.1395 8.7705 25.0536 8.57661 24.9891C8.30731 24.9032 8.03801 24.8602 7.75794 24.8495C7.27321 24.8388 6.77766 24.8388 6.29293 24.828C5.76511 24.8173 5.23733 24.871 4.72029 24.9677C4.14938 25.0751 3.57844 25.1288 2.99676 25.1288C2.89982 25.1288 2.79214 25.1288 2.69519 25.1395C2.47975 25.161 2.28583 25.2362 2.12425 25.3758C2.10271 25.3973 2.0812 25.4295 2.02734 25.5262C2.16738 25.4618 2.24275 25.4188 2.32892 25.3866C2.58744 25.2469 2.86754 25.1717 3.16915 25.1717Z" fill="#008056"/>
<path d="M45.6353 19.9566C45.3554 20.2036 45.14 20.5044 44.9462 20.8159C44.9354 20.8266 44.9462 20.8481 44.9462 20.8911C45.0216 20.9018 45.097 20.9125 45.1723 20.9125C45.6892 20.9233 46.206 20.934 46.7228 20.934C47.0674 20.934 47.3904 21.0092 47.7026 21.1596C47.7565 21.1811 47.8103 21.2026 47.8749 21.224C47.8857 21.1811 47.9073 21.1489 47.8965 21.1274C47.8319 20.7085 47.7027 20.311 47.4227 19.9888C47.2612 19.8062 47.0674 19.688 46.8198 19.6343C46.3675 19.5376 45.9799 19.6558 45.6353 19.9566Z" fill="#008056"/>
<path d="M111.781 10.1576C111.953 9.88909 112.212 9.78167 112.524 9.80315C112.858 9.82464 113.202 9.8676 113.515 9.9965C113.698 10.0717 113.881 10.0932 114.064 10.0932C114.764 10.1039 115.464 10.1147 116.153 10.1254C116.196 10.1254 116.228 10.1254 116.271 10.1254L116.153 10.1147C115.97 10.0932 115.776 10.061 115.593 10.0502C115.108 10.0395 114.678 9.88909 114.279 9.62055C114.118 9.51314 113.967 9.40573 113.805 9.29831C113.342 8.98681 112.826 8.86865 112.276 8.90088C111.953 8.92236 111.706 9.062 111.544 9.34128C111.48 9.4487 111.437 9.57759 111.394 9.69574C111.318 9.95354 111.264 10.2113 111.297 10.4799C111.566 10.3939 111.663 10.3402 111.781 10.1576Z" fill="#008056"/>
<path d="M131.656 41.1874C131.775 40.4639 131.893 39.7512 132.022 39.0277C132.13 38.4122 132.259 37.7859 132.378 37.1704C132.431 36.8897 132.485 36.5981 132.539 36.3174C132.485 36.3498 132.474 36.4038 132.453 36.4686C132.313 37.0193 132.162 37.57 131.968 38.1099C131.861 38.4338 131.753 38.7578 131.645 39.0817C131.43 39.7836 131.301 40.4963 131.161 41.209C131.096 41.5761 130.482 41.8461 130.741 42.0944C130.784 42.1376 130.827 42.2132 130.913 42.1808C130.902 42.0513 131.57 41.9325 131.581 41.8029C131.602 41.5977 131.624 41.3926 131.656 41.1874Z" fill="#008056"/>
<path d="M132.919 18.1071C132.93 18.1286 132.941 18.1393 132.951 18.1608C133.005 18.2468 133.102 18.2468 133.188 18.2468C133.598 18.2575 134.007 18.2682 134.405 18.2575C134.567 18.2575 134.717 18.2253 134.868 18.1823C135.051 18.1286 135.234 18.0319 135.374 17.8493C134.943 17.7204 134.534 17.6023 134.104 17.5915C133.619 17.5808 133.156 17.5056 132.704 17.3337C132.607 17.3015 132.499 17.28 132.37 17.2371C132.37 17.2908 132.359 17.3015 132.37 17.3123C132.553 17.5808 132.736 17.8386 132.919 18.1071Z" fill="#008056"/>
<path d="M129.105 7.85392C129.202 7.85392 129.288 7.85392 129.374 7.86472C129.514 7.87552 129.654 7.88631 129.783 7.92951C130.418 8.10228 130.87 8.48022 131.15 9.08492C131.183 9.14971 131.183 9.2361 131.301 9.27929C131.301 9.13891 131.301 9.03093 131.301 8.92295C131.301 8.71778 131.237 8.53421 131.107 8.37224C130.784 7.9835 130.451 7.62716 130.052 7.31401C129.848 7.15203 129.611 7.04405 129.374 6.94687C129.298 6.91447 129.202 6.90368 129.072 6.88208C129.072 7.07645 129.062 7.22762 129.062 7.3788C129.062 7.51918 129.018 7.68115 129.105 7.85392Z" fill="#008056"/>
<path d="M131.098 12.788C131.141 12.7556 131.152 12.7556 131.162 12.7448C131.621 12.0861 131.845 11.341 131.962 10.5527C131.984 10.3691 131.909 10.218 131.76 10.1208C131.642 10.0452 131.514 10.002 131.365 9.99121C131.344 10.0452 131.333 10.0884 131.322 10.1316C131.216 10.8011 131.12 11.4706 131.024 12.1401C130.97 12.356 131.034 12.5612 131.098 12.788Z" fill="#008056"/>
<path d="M120.098 20.9624C120.098 20.8868 120.098 20.8004 120.098 20.7248C120.108 20.4441 120.098 20.1633 120.119 19.8826C120.141 19.6018 120.205 19.3319 120.453 19.1375C120.518 19.0943 120.561 19.0187 120.604 18.9539C121.034 18.3708 121.616 18.0685 122.348 18.0793C122.52 18.0793 122.682 18.0901 122.854 18.0793C122.994 18.0793 123.005 18.0685 123.037 17.8741C122.51 17.4962 121.81 17.4314 121.304 17.8849C121.261 17.9281 121.207 17.9605 121.164 18.0037C120.614 18.5328 120.216 19.1591 120.001 19.8934C119.904 20.2713 119.925 20.6169 120.098 20.9624Z" fill="#008056"/>
<path d="M31.8408 42.1053C31.7869 42.1917 31.7331 42.2672 31.6792 42.3536C30.6348 44.2865 29.2674 45.9494 27.5339 47.2992C27.1355 47.6016 26.7263 47.8823 26.3171 48.1631C26.2741 48.1955 26.2202 48.2279 26.1879 48.2711L25.9941 48.3683C26.0587 48.3575 26.1126 48.3251 26.1664 48.2927C26.1449 48.3143 26.1341 48.3359 26.1233 48.3683C26.2849 48.2603 26.4464 48.1523 26.6187 48.0551C28.9121 46.6621 30.6241 44.7292 31.8408 42.332C31.8623 42.278 31.8946 42.224 31.9054 42.1701C31.9161 42.1485 31.8946 42.1161 31.8838 42.1053C31.8623 42.0945 31.8408 42.0945 31.8408 42.1053Z" fill="#008056"/>
<path d="M56.4979 43.6055C55.3997 43.7129 54.3337 43.6699 53.2677 43.4658C53.2677 43.4658 53.2785 43.4658 53.2785 43.4766C53.257 43.4658 53.2247 43.4766 53.2031 43.4766L53.3323 43.5088C53.3323 43.5088 53.3215 43.5088 53.3215 43.498C53.3215 43.498 53.3323 43.498 53.3323 43.5088C53.3539 43.5195 53.3754 43.541 53.3969 43.541C54.1722 43.9492 55.8196 44.0029 56.4979 43.6055Z" fill="#008056"/>
<path d="M45.8151 11.7607C45.9215 11.513 45.8789 11.2545 45.8896 10.9314C45.7406 11.1037 45.73 11.2437 45.7193 11.3837C45.7087 11.5884 45.7299 11.6314 45.8151 11.7607Z" fill="#008056"/>
<path d="M41.6418 21.9875C41.7059 21.9014 41.7594 21.8045 41.8236 21.7183C41.845 21.686 41.877 21.6537 41.8129 21.6106C41.6418 21.7075 41.46 21.7937 41.2676 21.966C41.428 22.0306 41.5348 22.0199 41.6418 21.9875Z" fill="#008056"/>
<path d="M40.3268 36.1668C40.2413 36.253 40.1771 36.3499 40.0916 36.4361C40.0168 36.5222 39.9312 36.5976 39.8457 36.6838C40.0809 36.5653 40.2413 36.3607 40.391 36.1345C40.3696 36.1453 40.3482 36.1561 40.3268 36.1668Z" fill="#008056"/>
<path d="M32.6836 42.6024C32.7158 42.6239 32.748 42.6563 32.7802 42.6671C32.8232 42.6886 32.8768 42.7102 32.8876 42.6347C32.8232 42.6024 32.7695 42.5592 32.6836 42.6024Z" fill="#008056"/>
<path d="M132.552 36.3199C132.552 36.2544 132.563 36.1888 132.563 36.1233C132.552 36.1233 132.541 36.1233 132.541 36.1233C132.541 36.1888 132.552 36.2544 132.552 36.3199C132.552 36.3309 132.552 36.3309 132.552 36.3199Z" fill="#008056"/>
<path d="M22.0774 50.0747C22.023 50.0856 21.9685 50.1075 21.9141 50.1184C21.9794 50.1403 22.0338 50.1184 22.0774 50.0747Z" fill="#008056"/>
<path d="M98.5332 20.2825C98.5556 20.2825 98.578 20.2825 98.6005 20.2712C98.578 20.2712 98.5556 20.2712 98.5332 20.2825Z" fill="#008056"/>
<path d="M97.3511 19.5806C97.3511 19.5806 97.3398 19.5806 97.3398 19.5693L97.3511 19.5806Z" fill="#008056"/>
<path d="M40.416 36.1239C40.4269 36.0912 40.4486 36.0585 40.4594 36.0259C40.416 36.0477 40.4052 36.0803 40.416 36.1239Z" fill="#008056"/>
<path d="M40.4092 36.136L40.3965 36.1486C40.4091 36.1486 40.4218 36.136 40.4092 36.136C40.4092 36.136 40.4218 36.1233 40.4092 36.1233C40.4218 36.1233 40.4218 36.1233 40.4092 36.136Z" fill="#008056"/>
<path d="M40.6038 35.7888C40.6146 35.778 40.6146 35.778 40.6038 35.7888C40.5607 35.7997 40.5285 35.8105 40.4854 35.8213C40.4747 35.8861 40.4747 35.9402 40.4639 36.005C40.4639 36.0159 40.4531 36.0159 40.4531 36.0267C40.4639 36.0267 40.4639 36.0159 40.4639 36.0159C40.4639 35.951 40.4747 35.8861 40.4747 35.8213C40.5285 35.8105 40.5715 35.7997 40.6038 35.7888Z" fill="#008056"/>
<path d="M26.1182 48.3706C26.1311 48.3706 26.1311 48.3706 26.1182 48.3706C26.0794 48.3577 26.0924 48.3706 26.1182 48.3706Z" fill="#008056"/>
<path d="M22.0962 50.064H22.084C22.0962 50.064 22.1084 50.064 22.1207 50.0762C22.1207 50.0762 22.1085 50.064 22.0962 50.064Z" fill="#008056"/>
<path d="M22.0841 50.0756C22.0841 50.0637 22.0841 50.0637 22.0841 50.0756C22.0723 50.0756 22.0723 50.0756 22.0723 50.0756C22.0841 50.0756 22.0841 50.0756 22.0841 50.0756Z" fill="#008056"/>
<path d="M93.6232 25.8437C93.8171 26.0597 93.9679 26.308 94.108 26.5672C94.3665 27.0855 94.5281 27.647 94.625 28.2193C94.7866 29.0832 94.819 29.947 94.819 30.8217C94.819 31.2536 94.7866 31.6856 94.765 32.1067C94.722 32.8518 94.6143 33.5752 94.4204 34.2987C94.2696 34.8926 94.0433 35.4541 93.6986 35.9725C93.3109 36.5448 92.7938 36.9443 92.1152 37.1387C92.0721 37.1495 92.0183 37.1711 91.9752 37.1819C91.9752 37.1927 91.9752 37.2035 91.986 37.2143C92.1475 37.1927 92.3199 37.1819 92.4814 37.1495C93.5155 36.9659 94.345 36.4692 94.9374 35.5945C95.0882 35.3678 95.2283 35.1194 95.3468 34.8602C95.5837 34.3635 95.7345 33.8344 95.8422 33.2945C96.0146 32.4414 96.0792 31.5668 96.09 30.7029C96.1008 29.9362 96.0577 29.1804 95.9176 28.4353C95.7884 27.7874 95.5945 27.1611 95.2713 26.5672C95.1529 26.3512 95.0128 26.1677 94.8297 26.0057C94.4634 25.6925 94.0649 25.4334 93.6232 25.239C93.1277 25.023 92.6 24.9043 92.0614 24.8395C91.2535 24.7423 90.4456 24.7855 89.6592 25.0015C89.4546 25.0554 89.2715 25.1418 89.0991 25.2822C89.013 25.3578 88.9267 25.4226 88.8513 25.4982C88.3666 25.9517 88.0219 26.4916 87.7634 27.0963C87.3971 27.9494 87.2033 28.8456 87.1279 29.7743C87.0417 30.9189 87.074 32.0527 87.3002 33.1757C87.4402 33.8668 87.6449 34.5255 87.9896 35.1518C88.2697 35.6593 88.6144 36.102 89.0668 36.4584C89.1099 36.4908 89.153 36.5124 89.2068 36.5448C89.1961 36.4584 89.1637 36.4044 89.1206 36.3504C88.916 36.0912 88.7544 35.7997 88.6359 35.4865C88.5282 35.1842 88.442 34.8818 88.3882 34.5579C88.2804 33.9316 88.2374 33.3053 88.2481 32.679C88.2589 31.5236 88.2912 30.379 88.2805 29.2236C88.2805 29.1048 88.2913 28.986 88.2913 28.8672C88.302 28.4029 88.3558 27.9494 88.442 27.4958C88.5497 26.9775 88.7113 26.47 89.0022 26.0165C89.3792 25.4334 89.907 25.0662 90.5856 24.9259C91.1565 24.8071 91.7166 24.8395 92.2768 24.9906C92.8046 25.1418 93.257 25.4226 93.6232 25.8437Z" fill="#008056"/>
<path d="M134.329 22.8633C133.974 22.7661 133.618 22.6689 133.242 22.6689C132.908 22.6581 132.585 22.6041 132.294 22.4314C132.229 22.3882 132.143 22.3666 132.068 22.3666C131.583 22.3558 131.088 22.3342 130.604 22.345C130.054 22.3666 129.634 22.6365 129.387 23.1333C129.365 23.1765 129.365 23.2196 129.344 23.2844C129.408 23.2736 129.441 23.2736 129.484 23.2736C129.785 23.2196 130.097 23.1873 130.41 23.1873C130.754 23.1981 131.056 23.306 131.325 23.5112C131.443 23.6084 133.823 23.9215 134.027 23.9107C134.243 23.8999 134.297 23.9647 134.297 24.1807C134.307 24.9366 134.243 25.6816 134.049 26.4051C133.898 26.945 133.78 27.485 133.694 28.0465C133.64 28.4136 133.554 28.4568 133.22 28.2732C133.08 28.1976 132.94 28.1221 132.8 28.0465C132.628 27.9493 132.445 27.9385 132.251 27.9601C131.939 28.0033 131.659 28.1328 131.411 28.338C131.293 28.446 131.174 28.554 131.056 28.662C130.873 28.8347 130.679 28.9859 130.453 29.1047C130.42 29.1263 130.377 29.1263 130.377 29.1911C130.754 29.2019 131.131 29.2019 131.508 29.2019C131.573 29.2019 131.648 29.1911 131.713 29.1587C132.057 28.9643 132.434 28.9427 132.811 28.9751C132.994 28.9859 133.166 28.9859 133.349 28.9967C133.489 28.9967 133.597 28.9427 133.694 28.8563C133.877 28.6836 134.017 28.4676 134.071 28.2192C134.114 28.0033 134.157 27.7873 134.189 27.5713C134.34 26.5671 134.501 25.5521 134.652 24.5478C134.684 24.3103 134.717 24.0727 134.749 23.8351C134.77 23.576 134.727 23.3384 134.609 23.1117C134.544 22.9821 134.469 22.8957 134.329 22.8633Z" fill="#008056"/>
<path d="M86.1682 19.1089C86.1682 19.1196 86.1574 19.1196 86.1574 19.1411C86.2328 19.1196 86.2975 19.0982 86.3621 19.0767C87.9348 18.5181 89.5613 18.2818 91.231 18.2711C91.8773 18.2711 92.5236 18.3248 93.1699 18.4C93.9131 18.4859 94.6456 18.647 95.3673 18.8404C96.0459 19.0337 96.703 19.2808 97.3386 19.56C97.3278 19.5385 97.317 19.5171 97.2955 19.5063C97.3493 19.5386 97.3816 19.5923 97.457 19.5815L97.2955 19.4956C97.2524 19.4526 97.2093 19.4204 97.1555 19.3989C95.5074 18.3892 93.7085 17.8629 91.7803 17.7662C91.0155 17.734 90.2507 17.777 89.486 17.8951C88.3334 18.0777 87.2454 18.4537 86.2329 19.0337C86.2113 19.0552 86.179 19.0659 86.1682 19.1089L86.082 19.1304C86.1036 19.1196 86.1359 19.1089 86.1682 19.1089Z" fill="#008056"/>
<path d="M98.4688 20.2712L98.6212 20.3368C98.5994 20.3259 98.5776 20.3149 98.5559 20.304C98.5232 20.2931 98.4905 20.2822 98.4688 20.2712Z" fill="#008056"/>
<path d="M56.373 43.6612L56.5581 43.6284C56.5037 43.6503 56.4275 43.6066 56.373 43.6612Z" fill="#008056"/>
</svg>
