<svg width="428" height="260" viewBox="0 0 428 260" fill="none" xmlns="http://www.w3.org/2000/svg">
<path d="M-62.4067 259.836C-68.6272 259.478 -74.9186 258.543 -81.2717 257.031C-101.732 252.165 -123.018 241.29 -144.537 224.711C-164.975 208.964 -184.239 189.971 -202.868 171.602C-222.027 152.711 -241.839 133.176 -262.937 117.167C-316.672 76.393 -367.526 83.1754 -414.475 96.5765L-414.508 96.376C-384.028 87.6751 -359.363 84.6276 -336.885 86.7875C-310.517 89.3196 -286.303 99.1986 -262.86 116.987C-241.754 133.002 -221.938 152.541 -202.776 171.434C-184.149 189.799 -164.89 208.79 -144.459 224.531C-97.9373 260.375 -54.1409 269.003 -14.2854 250.173C21.1821 233.418 48.9864 198.557 75.8753 164.846C79.6529 160.109 83.5584 155.212 87.3993 150.477C106.254 127.232 122.532 110.64 138.631 98.2618C158.368 83.0833 178.237 73.9611 199.37 70.3715C220.984 66.7022 244.21 67.5019 270.376 72.8178C295 77.8207 319.33 86.27 339.883 93.8746C383.337 109.953 427.12 128.13 469.461 145.708C480.597 150.33 492.113 155.112 503.444 159.779C528.218 169.986 557.578 181.976 587.497 193.507C589.877 194.426 595.326 196.041 602.227 198.087C625.349 204.943 664.047 216.419 664.999 224.271L664.847 224.304C664.443 220.974 656.664 216.48 641.725 210.95C629.011 206.241 613.51 201.644 602.191 198.287C595.288 196.24 589.837 194.622 587.452 193.704C557.533 182.17 528.172 170.18 503.398 159.974C492.067 155.304 480.55 150.524 469.413 145.902C427.073 128.324 383.291 110.149 339.839 94.0709C308.538 82.4882 273.468 70.709 237.692 68.6453C224.966 67.911 212.158 68.4039 199.387 70.572C151.403 78.7206 115.9 115.612 87.501 150.625C83.6602 155.36 79.7546 160.256 75.977 164.993C49.0774 198.721 21.2607 233.596 -14.2376 250.366C-29.6133 257.629 -45.7518 260.793 -62.4082 259.831L-62.4067 259.836Z" fill="white"/>
<path d="M-68.1368 250.799C-73.673 250.48 -79.2601 249.754 -84.8918 248.619C-105.593 244.449 -126.877 234.795 -148.158 219.927C-149.873 218.728 -151.647 217.464 -153.43 216.172C-173.319 201.748 -192.347 184.303 -210.751 167.429C-228.958 150.737 -247.785 133.474 -267.809 118.728C-295.938 97.908 -323.508 89.5978 -349.665 88.0863C-374.544 86.6504 -398.142 91.363 -419.756 97.3129L-419.791 97.0858C-389.505 88.7469 -364.782 85.9838 -341.987 88.385C-315.671 91.1564 -291.381 101.015 -267.724 118.523C-247.692 133.276 -228.863 150.541 -210.653 167.237C-192.253 184.105 -173.228 201.55 -153.347 215.967C-151.564 217.26 -149.79 218.524 -148.076 219.72C-102.784 251.366 -57.7734 258.927 -17.9071 241.589C16.6002 226.58 43.6031 194.303 69.7167 163.087C73.6608 158.372 77.7405 153.496 81.7539 148.792C82.8189 147.544 83.8777 146.313 84.9042 145.131C102.828 124.45 118.345 109.71 133.738 98.7364C152.558 85.321 171.425 77.4199 191.416 74.583C208.64 72.1409 227.297 72.5049 248.452 75.7018C268.052 78.6634 287.181 83.6131 304.93 88.5199C312.972 90.7473 321.411 93.216 332.294 96.5233C357.259 104.136 382.795 112.348 410.363 121.63C435.737 130.173 463.375 140.39 494.86 152.862C527.265 165.736 554.129 176.551 579.403 186.903C582.132 188.022 588.047 189.885 595.535 192.243C606.671 195.751 621.921 200.556 634.222 205.362C648.852 211.079 656.31 215.581 657.02 219.125L656.852 219.185C655.271 211.3 617.851 199.512 595.493 192.468C588.001 190.108 582.084 188.245 579.349 187.124C554.077 176.772 527.212 165.954 494.809 153.083C463.327 140.611 435.689 130.396 410.319 121.853C382.752 112.571 357.216 104.359 332.254 96.7463C321.372 93.4369 312.934 90.9703 304.893 88.7429C270.165 79.14 229.895 69.3531 191.433 74.81C145.9 81.2692 112.088 114.07 85.0168 145.303C83.9919 146.483 82.933 147.714 81.868 148.962C77.8546 153.664 73.7764 158.54 69.8323 163.255C43.7049 194.487 16.688 226.783 -17.8531 241.806C-33.9162 248.793 -50.7699 251.799 -68.1383 250.797L-68.1368 250.799Z" fill="#9C9C9C" fill-opacity="0.13"/>
<path d="M-74.3734 241.796C-104.758 240.044 -131.739 227.702 -151.779 215.14C-153.468 214.08 -155.245 212.949 -157.059 211.775C-178.704 197.771 -198.556 180.866 -219.574 162.967C-236.537 148.523 -254.078 133.584 -272.684 120.285C-317.181 88.1771 -362.745 81.5256 -425.04 98.0479L-425.078 97.7943C-394.991 89.8154 -370.209 87.3344 -347.09 89.9811C-320.838 92.9898 -296.471 102.828 -272.592 120.058C-253.98 133.363 -236.435 148.302 -219.469 162.75C-198.457 180.643 -178.61 197.545 -156.974 211.544C-155.162 212.718 -153.385 213.849 -151.697 214.906C-120.614 234.392 -72.7997 253.349 -21.5297 232.999C12.0297 219.68 38.262 189.923 63.6312 161.145C67.7186 156.508 71.9447 151.714 76.1061 147.101C77.1388 145.958 78.1776 144.815 79.1948 143.706C96.8916 124.361 112.096 110.662 127.042 100.59C145.531 88.1301 163.986 80.9999 183.458 78.793C218.432 74.8271 254.487 83.0413 289.357 90.9854C292.072 91.6051 294.779 92.2207 297.474 92.8282C306.548 94.8817 315.171 96.9148 324.699 99.1687C356.053 106.642 379.026 112.361 401.516 118.299C427.757 125.224 456.272 134.527 486.27 145.944C518.246 158.179 546.06 169.416 571.303 180.299C574.371 181.623 580.652 183.717 588.605 186.368C611.775 194.093 646.787 205.77 649.038 213.976L648.856 214.064C647.896 210.562 640.364 205.89 626.467 200.184C614.513 195.273 600.121 190.475 588.557 186.617C580.601 183.965 574.317 181.87 571.242 180.543C546.003 169.661 518.189 158.424 486.216 146.191C456.223 134.774 427.713 125.474 401.477 118.55C378.989 112.615 356.016 106.894 324.664 99.4224C315.137 97.1684 306.512 95.1354 297.441 93.0818C294.745 92.4744 292.038 91.8566 289.323 91.2389C254.466 83.2969 218.423 75.0869 183.474 79.0508C139.404 84.0475 106.091 114.642 79.3166 143.909C78.2993 145.017 77.2621 146.158 76.2295 147.302C72.0696 151.912 67.8434 156.706 63.756 161.343C38.3715 190.137 12.1222 219.913 -21.4757 233.249C-39.7458 240.5 -57.5829 242.766 -74.3764 241.798L-74.3734 241.796Z" fill="#9C9C9C" fill-opacity="0.13"/>
<path d="M-81.538 232.773C-85.0721 232.569 -88.6186 232.238 -92.1789 231.779C-113.448 229.037 -134.719 221.829 -155.398 210.352C-157.069 209.426 -158.797 208.452 -160.685 207.378C-184.739 193.681 -206.892 176.173 -230.345 157.64C-245.46 145.695 -261.09 133.343 -277.556 121.842C-323.157 89.9902 -368.843 83.0933 -430.319 98.7811L-430.359 98.5009C-400.542 90.8923 -375.712 88.7139 -352.217 91.647C-326.092 94.9072 -301.636 104.702 -277.455 121.591C-260.986 133.096 -245.353 145.448 -230.234 157.394C-206.787 175.923 -184.639 193.425 -160.599 207.117C-158.712 208.191 -156.983 209.164 -155.314 210.091C-124.863 226.989 -77.5616 243.19 -25.1479 224.41C7.47592 212.721 32.9669 185.432 57.6194 159.041C61.827 154.537 66.1779 149.878 70.4642 145.411C71.4845 144.347 72.5018 143.296 73.4913 142.281C90.963 124.289 105.855 111.634 120.355 102.457C138.514 90.9659 156.553 84.6008 175.504 83.0013C204.932 80.5183 235.63 86.5786 265.32 92.4405C273.467 94.0482 281.89 95.7131 290.021 97.1366C298.078 98.5561 307.596 100.221 317.108 101.816C323.035 102.825 328.972 103.823 334.713 104.79C354.426 108.108 373.046 111.241 392.671 114.968C419.159 119.997 447.762 128.093 477.685 139.027C509.25 150.649 537.226 161.988 563.208 173.696C566.605 175.226 573.5 177.654 581.482 180.462C604.058 188.408 638.175 200.416 641.058 208.829L640.862 208.947C638.023 200.66 603.964 188.672 581.426 180.738C573.439 177.928 566.542 175.5 563.138 173.966C537.158 162.262 509.187 150.923 477.625 139.303C447.711 128.373 419.118 120.282 392.639 115.252C373.015 111.526 354.397 108.392 334.684 105.075C328.943 104.109 323.006 103.109 317.078 102.101C307.567 100.505 298.048 98.8404 289.992 97.421C281.859 95.9974 273.434 94.3345 265.287 92.7249C235.609 86.865 204.921 80.8066 175.517 83.2876C132.907 86.8854 100.096 115.244 73.6207 142.511C72.6312 143.525 71.614 144.576 70.5952 145.64C66.3105 150.107 61.961 154.764 57.7534 159.268C33.084 185.677 7.57617 212.985 -25.0924 224.69C-43.2269 231.188 -62.169 233.898 -81.538 232.78V232.773Z" fill="#9C9C9C" fill-opacity="0.13"/>
<path d="M-89.8117 223.807C-91.82 223.69 -93.8283 223.541 -95.8412 223.355C-117.464 221.353 -138.717 215.368 -159.016 205.569C-160.653 204.779 -162.384 203.932 -164.309 202.985C-191.167 189.756 -216.029 171.465 -242.35 152.102C-255.218 142.634 -268.524 132.845 -282.429 123.403C-329.022 91.7599 -374.831 84.6175 -435.601 99.5178L-435.645 99.211C-421.292 95.691 -408.202 93.48 -395.624 92.4471C-382.174 91.3426 -369.646 91.6105 -357.325 93.2632C-331.303 96.7546 -306.77 106.523 -282.323 123.127C-268.415 132.573 -255.107 142.364 -242.238 151.832C-215.924 171.191 -191.071 189.476 -164.228 202.697C-162.303 203.644 -160.573 204.489 -158.937 205.28C-117.06 225.501 -70.8327 229.248 -28.7701 215.826C2.92746 205.712 27.7017 180.847 51.6621 156.798C55.9715 152.472 60.4273 148.001 64.8184 143.726C65.8156 142.754 66.8128 141.791 67.7853 140.862C85.2709 124.009 99.4227 112.745 113.67 104.343C131.498 93.8298 149.122 88.2276 167.55 87.2151C192.814 85.8284 219.404 90.6636 245.117 95.3372C257.511 97.5911 270.329 99.9208 282.566 101.447C291.74 102.602 300.805 103.617 309.512 104.464C319.527 105.47 329.417 106.362 338.982 107.223C353.524 108.534 368.561 109.888 383.822 111.636C410.306 114.674 438.996 121.561 469.097 132.108C499.821 142.981 528.761 154.75 555.112 167.09C558.826 168.828 565.945 171.467 574.188 174.523C597.56 183.185 629.569 195.048 633.075 203.679L632.869 203.826C629.408 195.311 596.14 182.98 574.125 174.821C565.878 171.765 558.756 169.125 555.033 167.382C528.687 155.045 499.755 143.278 469.037 132.407C438.95 121.865 410.273 114.981 383.802 111.945C368.542 110.197 353.507 108.841 338.967 107.532C329.402 106.67 319.512 105.779 309.495 104.772C300.787 103.926 291.72 102.911 282.545 101.755C270.302 100.23 257.482 97.8979 245.086 95.644C219.382 90.9704 192.805 86.1392 167.56 87.5239C126.52 89.7759 95.4186 114.61 67.924 141.112C66.953 142.04 65.9558 143.004 64.9586 143.975C60.5691 148.248 56.1148 152.721 51.8055 157.045C27.8265 181.113 3.03229 205.998 -28.7131 216.127C-48.4797 222.433 -69.0047 225.012 -89.8117 223.811V223.807Z" fill="#9C9C9C" fill-opacity="0.13"/>
<path d="M-99.8831 214.898C-121.558 213.646 -142.81 208.926 -162.631 200.783C-164.178 200.147 -165.861 199.452 -167.93 198.591C-198.253 185.969 -226.521 166.505 -256.449 145.899C-266.395 139.051 -276.68 131.97 -287.299 124.96C-334.292 93.9387 -381.658 86.3178 -440.881 100.251L-440.926 99.9173C-411.95 93.1001 -386.274 91.4495 -362.429 94.8734C-336.527 98.5919 -311.914 108.334 -287.186 124.658C-276.566 131.669 -266.281 138.75 -256.334 145.6C-226.416 166.199 -198.157 185.656 -167.854 198.27C-165.786 199.131 -164.103 199.826 -162.555 200.462C-122.255 217.015 -76.026 219.42 -32.3851 207.234C-1.6077 198.64 22.4745 176.157 45.763 154.415C50.1556 150.314 54.6992 146.072 59.1781 142.033C60.126 141.178 61.077 140.331 62.0264 139.484L62.0834 139.433C89.4254 115.073 120.163 92.3965 159.597 91.4209C181.599 90.8769 204.9 94.9736 227.431 98.9354C243.262 101.719 259.63 104.597 275.113 105.751C284.128 106.436 292.897 106.88 301.918 107.105C313.398 107.438 324.619 107.52 335.471 107.6C348.254 107.692 361.472 107.788 374.975 108.301C401.35 109.307 430.13 114.987 460.51 125.183C490.862 135.494 519.966 147.369 547.017 160.478C551.033 162.425 558.314 165.26 566.745 168.543C589.625 177.452 620.962 189.657 625.094 198.523L624.878 198.701C620.797 189.945 589.515 177.763 566.674 168.868C558.24 165.583 550.955 162.746 546.93 160.797C519.887 147.692 490.792 135.821 460.449 125.513C430.086 115.321 401.326 109.641 374.969 108.639C361.469 108.123 348.251 108.029 335.469 107.937C324.617 107.859 313.395 107.777 301.913 107.444C292.887 107.217 284.118 106.773 275.1 106.088C259.607 104.934 243.234 102.055 227.399 99.2709C204.877 95.3111 181.587 91.2164 159.604 91.7584C120.234 92.732 89.5363 115.382 62.2267 139.713L62.1697 139.765C61.2202 140.611 60.2693 141.458 59.323 142.313C54.8456 146.351 50.3035 150.591 45.9109 154.691C22.6009 176.454 -1.50131 198.957 -32.3312 207.566C-54.5515 213.769 -77.4424 216.195 -99.8816 214.9L-99.8831 214.898Z" fill="#9C9C9C" fill-opacity="0.13"/>
<path d="M-112.352 206.139C-131.507 205.035 -149.596 201.633 -166.247 195.998C-168.025 195.397 -169.793 194.796 -171.553 194.196C-187.354 188.817 -203.422 181.348 -222.117 170.689C-238.795 161.181 -255.513 150.306 -273.212 138.792C-279.361 134.792 -285.719 130.656 -292.171 126.518C-340.232 95.6888 -387.724 87.8121 -446.163 100.984L-446.209 100.624C-417.448 94.1425 -391.713 92.7885 -367.534 96.4824C-341.768 100.42 -317.077 110.137 -292.052 126.191C-285.6 130.331 -279.241 134.466 -273.091 138.465C-237.114 161.868 -206.042 182.08 -171.484 193.843C-169.724 194.442 -167.956 195.043 -166.179 195.645C-128.107 208.53 -81.8749 209.594 -36.0038 198.643C-6.14038 191.513 17.2683 171.381 39.9063 151.911C44.3698 148.072 48.9844 144.104 53.5357 140.339C54.3249 139.686 55.1155 139.038 55.9062 138.391L56.3793 138.005C67.9373 128.547 83.3776 116.611 100.335 108.176C117.515 99.6281 134.298 95.5231 151.642 95.6295C170.986 95.7481 191.559 99.3807 211.456 102.895C230.163 106.198 249.506 109.613 267.654 110.059C276.549 110.293 285.269 110.192 294.318 109.753C306.383 109.223 318.07 108.292 329.371 107.392C341.237 106.447 353.507 105.472 366.122 104.971C392.339 103.927 421.205 108.401 451.919 118.265C481.934 128.042 511.204 140.022 538.917 153.873C543.221 156.024 550.603 159.039 559.153 162.531C581.603 171.7 612.348 184.256 617.107 193.372L616.881 193.581C612.177 184.567 581.482 172.031 559.072 162.878C550.518 159.385 543.133 156.368 538.82 154.214C511.118 140.367 481.857 128.392 451.855 118.619C421.165 108.763 392.323 104.291 366.13 105.335C353.519 105.836 341.251 106.811 329.388 107.756C318.084 108.656 306.397 109.585 294.327 110.117C285.274 110.556 276.547 110.657 267.648 110.423C249.484 109.978 230.132 106.562 211.418 103.257C191.529 99.7447 170.964 96.1122 151.639 95.9956C113.781 95.7645 83.5502 116.202 56.5211 138.318L56.048 138.704C55.2573 139.351 54.4666 139.997 53.679 140.649C49.1308 144.413 44.5163 148.381 40.0543 152.218C17.3931 171.708 -6.03864 191.861 -35.9576 199.003C-58.5695 204.401 -81.1936 206.921 -103.206 206.493C-106.281 206.434 -109.332 206.315 -112.355 206.141L-112.352 206.139Z" fill="#9C9C9C" fill-opacity="0.13"/>
<path d="M-127.844 197.647C-142.966 196.774 -157.034 194.622 -169.859 191.211L-170.46 191.051C-172.038 190.632 -173.609 190.214 -175.172 189.799C-214.961 179.247 -251.288 156.599 -293.353 130.374L-297.042 128.075C-346.222 97.4276 -393.841 89.2994 -451.444 101.717L-451.492 101.33C-393.827 88.8985 -346.155 97.039 -296.918 127.721L-293.228 130.02C-251.182 156.233 -214.87 178.873 -175.115 189.415C-173.552 189.83 -171.981 190.247 -170.403 190.667L-169.802 190.826C-134.597 200.19 -89.5809 199.92 -39.6194 190.051C-10.6668 184.33 12.0853 166.521 34.0884 149.297C38.6104 145.759 43.2851 142.098 47.8965 138.643C48.5716 138.136 49.2497 137.635 49.9263 137.132L50.6785 136.575C62.8268 127.558 77.4348 117.362 93.6674 110.101C110.521 102.561 126.885 99.2051 143.691 99.835C160.795 100.479 179.041 103.805 196.685 107.02C217.875 110.884 239.785 114.878 260.199 114.363C269.038 114.156 277.712 113.512 286.721 112.395C298.999 110.937 310.786 108.931 322.186 106.99C333.489 105.065 345.177 103.075 357.271 101.637C383.301 98.5382 412.255 101.805 443.333 111.344C473.04 120.61 502.476 132.695 530.823 147.266C535.391 149.615 542.823 152.793 551.427 156.47C573.502 165.91 603.734 178.836 609.125 188.222L608.891 188.46C603.557 179.172 573.376 166.268 551.337 156.845C542.729 153.163 535.294 149.985 530.717 147.633C502.382 133.068 472.959 120.988 443.267 111.727C412.221 102.197 383.297 98.9351 357.299 102.03C345.209 103.47 333.525 105.458 322.224 107.382C310.822 109.323 299.031 111.33 286.749 112.79C277.734 113.907 269.051 114.553 260.205 114.76C239.768 115.275 217.847 111.279 196.645 107.415C179.009 104.2 160.772 100.872 143.683 100.232C105.538 98.8001 75.7502 118.419 50.8234 136.921L50.0712 137.479C49.3946 137.981 48.718 138.484 48.043 138.989C43.4346 142.441 38.7599 146.101 34.2394 149.639C12.2117 166.881 -10.565 184.713 -39.5746 190.444C-63.287 195.13 -85.9389 197.688 -106.9 198.052C-114.081 198.177 -121.067 198.042 -127.844 197.651V197.647Z" fill="#9C9C9C" fill-opacity="0.13"/>
<path d="M-146.293 189.714C-156.024 189.151 -165.044 188.059 -173.475 186.427C-175.261 186.081 -177.032 185.742 -178.793 185.406C-198.047 181.737 -217.242 175.135 -239.202 164.63C-258.552 155.373 -278.267 143.945 -301.916 129.634C-352.267 99.1627 -400.014 90.7788 -456.728 102.452L-456.775 102.038C-436.398 97.8455 -417.17 96.2378 -398.57 97.3116C-365.343 99.2301 -334.103 109.696 -301.785 129.256C-259.173 155.043 -220.505 177.035 -178.749 184.993C-176.987 185.329 -175.215 185.67 -173.428 186.016C-133.775 193.69 -85.3638 188.022 -43.2365 181.465C-15.1932 177.1 6.91766 161.588 28.2996 146.588C32.8694 143.381 37.5965 140.065 42.2573 136.954C42.843 136.562 43.4317 136.175 44.0189 135.787L44.9776 135.152C57.0148 127.176 71.421 118.193 87.0001 112.048C103.53 105.532 119.473 102.912 135.738 104.049C150.899 105.106 167.099 108.215 182.765 111.222C206.158 115.712 230.347 120.352 252.74 118.675C261.341 118.049 269.971 116.861 279.121 115.047C291.299 112.631 302.898 109.567 314.116 106.606C325.14 103.693 336.539 100.682 348.418 98.3098C374.242 93.1535 403.287 95.2111 434.744 104.425C463.758 113.077 494.181 125.607 522.725 140.663C527.534 143.199 534.957 146.516 543.552 150.36C566.52 160.625 595.105 173.402 601.139 183.075L600.895 183.341C594.92 173.76 565.172 160.464 543.451 150.754C534.851 146.911 527.425 143.592 522.607 141.051C494.078 126.004 463.67 113.48 434.673 104.834C403.253 95.6304 374.248 93.5747 348.463 98.7228C336.592 101.093 325.196 104.104 314.174 107.015C302.952 109.978 291.35 113.042 279.164 115.46C270.005 117.276 261.366 118.465 252.755 119.092C230.33 120.772 206.124 116.127 182.717 111.635C167.058 108.631 150.865 105.524 135.718 104.466C135.302 104.438 134.884 104.411 134.469 104.386C98.5333 102.313 69.5237 119.348 45.1148 135.525L44.1545 136.159C43.5673 136.547 42.9801 136.934 42.3944 137.327C37.7367 140.438 33.0112 143.751 28.4429 146.956C7.03479 161.975 -15.1023 177.505 -43.2041 181.878C-70.8898 186.188 -91.6814 188.569 -110.616 189.601C-123.522 190.305 -135.359 190.346 -146.296 189.714H-146.293Z" fill="#9C9C9C" fill-opacity="0.13"/>
<path d="M-165.407 182.667C-169.378 182.438 -173.274 182.1 -177.086 181.64C-178.876 181.423 -180.651 181.215 -182.411 181.008C-201.938 178.736 -221.87 173.23 -243.344 164.177C-261.208 156.646 -280.772 146.472 -306.786 131.192C-340.364 111.464 -372.379 100.917 -406.012 98.9756C-424.048 97.9346 -442.543 99.3663 -462.009 103.183L-462.059 102.743C-433.938 97.2289 -408.025 96.7544 -382.839 101.293C-357.618 105.838 -332.696 115.484 -306.652 130.785C-260.369 157.976 -223.436 175.786 -182.383 180.566C-180.621 180.771 -178.847 180.982 -177.056 181.196C-145.548 185.003 -108.185 180.376 -72.0517 175.901C-63.7798 174.876 -55.2257 173.817 -46.8536 172.872C-19.7213 169.808 1.75778 156.574 22.5309 143.777C27.1454 140.934 31.9156 137.995 36.6196 135.256C37.1405 134.951 37.663 134.651 38.1855 134.35C38.5492 134.139 38.9145 133.93 39.2798 133.718C51.8241 126.447 65.4812 119.026 80.3359 114.001C96.5422 108.517 112.064 106.637 127.787 108.253C141.214 109.634 154.931 112.44 169.453 115.412C194.849 120.609 221.109 125.982 245.283 122.98C253.894 121.928 262.478 120.198 271.522 117.691C283.656 114.328 295.115 110.168 306.197 106.147C316.895 102.265 327.958 98.2496 339.565 94.977C365.172 87.7611 394.305 88.6098 426.158 97.503C454.927 105.69 485.521 118.329 514.632 134.053C519.649 136.763 527.009 140.197 535.53 144.172C558.224 154.758 586.466 167.936 593.158 177.92L592.909 178.216C586.275 168.319 558.078 155.163 535.421 144.593C526.896 140.615 519.532 137.181 514.508 134.466C485.415 118.752 454.839 106.122 426.09 97.9407C394.285 89.0619 365.198 88.211 339.638 95.4147C328.04 98.6831 316.981 102.696 306.288 106.578C295.202 110.601 283.738 114.764 271.593 118.128C262.536 120.638 253.94 122.37 245.317 123.424C221.101 126.432 194.821 121.055 169.405 115.854C154.89 112.884 141.179 110.078 127.764 108.699C92.9049 105.118 65.0065 119.296 39.4169 134.127C39.0517 134.338 38.6864 134.548 38.3227 134.759C37.8017 135.06 37.2792 135.36 36.7583 135.663C32.0574 138.402 27.2872 141.341 22.6758 144.182C1.87646 156.996 -19.6303 170.246 -46.8212 173.316C-55.1918 174.261 -63.7443 175.32 -72.0163 176.345C-103.796 180.28 -136.527 184.334 -165.404 182.667H-165.407Z" fill="#9C9C9C" fill-opacity="0.13"/>
<path d="M-188.681 176.48C-207.828 175.375 -227.094 171.194 -247.488 163.729C-266.224 156.871 -286.615 147.027 -311.657 132.75C-364.539 102.602 -412.537 93.7087 -467.291 103.917L-467.34 103.451C-412.519 93.2301 -364.461 102.133 -311.517 132.317C-261.008 161.111 -225.169 173.902 -188.778 176.001C-187.857 176.054 -186.94 176.101 -186.016 176.14C-184.256 176.216 -182.478 176.293 -180.684 176.381C-157.309 177.504 -131.326 174.007 -103.819 170.303C-86.3292 167.948 -68.2426 165.514 -50.4687 164.281C-24.2519 162.463 -3.39859 151.492 16.7688 140.882C21.4234 138.434 26.2383 135.9 30.9839 133.56C31.4478 133.331 31.9132 133.104 32.3787 132.877C32.7794 132.681 33.1817 132.486 33.5825 132.288C45.2082 126.563 58.8545 120.11 73.6737 115.972C89.5595 111.536 104.659 110.388 119.834 112.462C131.673 114.08 143.763 116.741 156.561 119.56C183.82 125.561 212.007 131.766 237.824 127.287C246.446 125.81 254.983 123.538 263.919 120.339C275.952 116.034 287.215 110.781 298.109 105.701C308.534 100.839 319.315 95.8113 330.71 91.647C356.09 82.3714 385.315 82.0114 417.568 90.5794C446.112 98.3189 476.877 111.067 506.535 127.445C511.72 130.308 518.955 133.826 527.332 137.9C549.816 148.835 577.799 162.444 585.172 172.767L584.915 173.09C577.6 162.847 549.66 149.26 527.21 138.342C518.828 134.266 511.591 130.746 506.4 127.878C476.763 111.511 446.021 98.773 417.498 91.0396C385.3 82.486 356.131 82.8418 330.804 92.099C319.422 96.2592 308.647 101.283 298.226 106.142C287.326 111.225 276.057 116.48 264.01 120.791C255.057 123.996 246.506 126.273 237.869 127.751C211.999 132.239 183.786 126.027 156.503 120.022C143.71 117.206 131.627 114.545 119.798 112.929C86.6573 108.402 59.0965 120.227 33.7057 132.728C33.305 132.924 32.9027 133.12 32.5005 133.317C32.035 133.544 31.5711 133.771 31.1072 134C26.3647 136.34 21.5529 138.87 16.8998 141.318C-3.29376 151.942 -24.1748 162.927 -50.4502 164.75C-68.2148 165.981 -86.2969 168.415 -103.784 170.769C-131.303 174.473 -157.297 177.973 -180.696 176.85C-182.492 176.764 -184.269 176.686 -186.029 176.61C-186.912 176.572 -187.798 176.529 -188.683 176.477L-188.681 176.48Z" fill="#9C9C9C" fill-opacity="0.13"/>
<path d="M-205.136 172.005C-220.417 171.123 -235.754 168.241 -251.632 163.289C-271.171 157.196 -291.793 147.988 -316.529 134.309C-370.778 104.308 -418.904 95.1612 -472.574 104.652L-472.623 104.159C-418.884 94.6559 -370.698 103.815 -316.384 133.851C-266.274 161.563 -228.373 172.888 -189.652 171.72C-187.978 171.669 -186.172 171.616 -184.312 171.571C-165.949 171.115 -145.871 167.74 -124.615 164.165C-101.558 160.289 -77.7149 156.28 -54.0828 155.695C-28.7891 155.069 -8.56161 146.344 10.9985 137.907C15.6994 135.88 20.559 133.783 25.3507 131.867C25.7669 131.701 26.183 131.536 26.6007 131.372C27.0292 131.202 27.4592 131.032 27.8877 130.861C40.039 125.991 53.0688 120.981 67.011 117.961C82.584 114.586 97.2614 114.164 111.883 116.674C122.228 118.449 132.778 120.961 143.948 123.622C172.977 130.537 202.995 137.688 230.363 131.599C238.999 129.697 247.488 126.88 256.315 122.992C268.213 117.75 279.25 111.409 289.925 105.277C300.108 99.4277 310.637 93.3797 321.852 88.3257C347.129 76.9331 376.442 75.3663 408.978 83.6663C437.068 90.8311 468.004 103.688 498.438 120.844C503.737 123.831 511.116 127.568 518.929 131.523C541.282 142.84 569.102 156.924 577.185 167.623L576.92 167.975C568.892 157.352 541.114 143.288 518.795 131.987C510.979 128.03 503.596 124.293 498.291 121.303C467.881 104.159 436.972 91.3139 408.907 84.1552C376.436 75.8716 347.188 77.4342 321.973 88.7981C310.771 93.846 300.249 99.8899 290.073 105.736C279.391 111.872 268.344 118.216 256.432 123.467C247.587 127.365 239.079 130.186 230.423 132.092C220.599 134.278 210.435 134.761 200.107 134.166C181.591 133.098 162.534 128.558 143.88 124.115C132.715 121.456 122.171 118.944 111.834 117.171C80.4739 111.792 54.2818 120.804 27.994 131.341C27.564 131.513 27.134 131.683 26.7055 131.853C26.2894 132.016 25.8733 132.182 25.4571 132.348C20.67 134.262 15.8119 136.356 11.1126 138.383C-8.47531 146.833 -28.729 155.568 -54.0781 156.196C-77.6902 156.781 -101.523 160.788 -124.571 164.662C-145.839 168.237 -165.926 171.614 -184.309 172.07C-186.167 172.115 -187.974 172.17 -189.647 172.219C-194.817 172.375 -199.975 172.305 -205.139 172.007L-205.136 172.005Z" fill="#9C9C9C" fill-opacity="0.13"/>
<path d="M-220.722 168.45C-232.312 167.781 -243.925 165.922 -255.773 162.856C-275.665 157.708 -297.131 148.88 -321.398 135.87C-377.093 106.006 -425.347 96.6056 -477.855 105.388L-477.904 104.869C-450.417 100.271 -424.324 100.67 -398.135 106.088C-373.761 111.13 -348.612 120.714 -321.25 135.385C-271.827 161.887 -233.557 171.432 -193.289 167.299L-193.13 167.282C-191.422 167.106 -189.693 166.931 -187.942 166.759C-172.993 165.294 -156.866 161.842 -139.79 158.185C-113.038 152.456 -85.3758 146.532 -57.6948 147.109C-33.3413 147.616 -13.7503 141.124 5.19794 134.845C9.95581 133.268 14.8755 131.638 19.7228 130.176C20.1004 130.061 20.478 129.949 20.8556 129.836C21.3026 129.703 21.7511 129.57 22.198 129.433C32.9714 126.153 46.3805 122.068 60.352 119.965C75.6166 117.669 89.8733 117.969 103.936 120.886C112.841 122.733 121.899 125.077 131.492 127.56C162.24 135.516 194.035 143.743 222.906 135.911C231.558 133.583 240 130.225 248.716 125.645C260.458 119.475 271.254 112.05 281.691 104.871C291.648 98.023 301.942 90.9441 313 84.9983C325.814 78.1116 339.927 73.9862 354.95 72.7385C369.091 71.5645 384.381 72.9123 400.393 76.7432C428.555 83.634 459.66 96.5974 490.345 114.236C495.686 117.306 502.774 121.037 510.277 124.987C532.591 136.733 560.362 151.349 569.204 162.472L568.933 162.852C560.146 151.799 532.414 137.203 510.132 125.473C502.625 121.522 495.535 117.791 490.188 114.717C459.529 97.0944 428.453 84.1412 400.32 77.2587C367.317 69.3636 337.989 72.131 313.147 85.483C302.103 91.4185 291.817 98.4934 281.87 105.335C271.423 112.52 260.62 119.949 248.857 126.13C240.122 130.722 231.657 134.089 222.981 136.422C210.024 139.936 195.218 140.499 177.721 138.138C162.248 136.052 146.572 131.996 131.413 128.073C121.825 125.592 112.77 123.25 103.873 121.403C72.0208 114.795 45.5975 122.843 22.2844 129.943C21.8358 130.08 21.3873 130.213 20.9388 130.346C20.5612 130.458 20.1836 130.571 19.8075 130.683C14.9649 132.143 10.0467 133.774 5.29193 135.348C-13.6794 141.636 -33.2982 148.136 -57.7025 147.629C-85.3481 147.052 -112.994 152.973 -139.728 158.698C-156.812 162.357 -172.949 165.812 -187.914 167.278C-189.665 167.45 -191.393 167.628 -193.101 167.802L-193.26 167.818C-202.464 168.763 -211.587 168.976 -220.723 168.448L-220.722 168.45Z" fill="#9C9C9C" fill-opacity="0.13"/>
<path d="M-235.232 165.712C-243.424 165.239 -251.624 164.147 -259.913 162.431C-280.314 158.209 -302.018 150.032 -326.269 137.429C-384.268 107.289 -431.182 97.925 -483.138 106.121L-483.188 105.573C-455.91 101.269 -429.758 101.958 -403.233 107.677C-379.246 112.85 -354.022 122.414 -326.119 136.913C-277.13 162.372 -238.494 170.136 -196.927 162.873L-195.824 162.68C-194.423 162.435 -193.007 162.188 -191.573 161.942C-179.078 159.803 -165.745 156.229 -151.628 152.444C-137.264 148.592 -122.411 144.61 -107.238 141.828C-90.0333 138.672 -75.006 137.592 -61.3072 138.515C-37.9294 140.096 -18.995 135.817 -0.686371 131.679C4.15628 130.585 9.16382 129.454 14.0943 128.476C14.4288 128.409 14.7632 128.345 15.0977 128.28C15.5678 128.188 16.0378 128.096 16.5095 128.002L18.0461 127.689C29.6534 125.324 41.6567 122.878 54.5509 121.911C69.1852 120.812 82.739 121.853 95.9861 125.093C103.466 126.922 111.05 129.061 119.079 131.323C151.529 140.47 185.082 149.928 215.445 140.216C224.113 137.461 232.508 133.563 241.11 128.294C252.688 121.203 263.227 112.703 273.418 104.482C283.155 96.6282 293.226 88.5062 304.143 81.6707C316.869 73.7041 330.979 68.7318 346.084 66.8951C360.234 65.1729 375.617 66.1567 391.805 69.822C406.267 73.1723 421.551 78.2365 437.234 84.8777C451.99 91.1262 467.137 98.782 482.251 107.63C487.533 110.723 494.216 114.374 501.29 118.241C523.685 130.481 551.555 145.71 561.221 157.322L560.942 157.731C551.33 146.183 523.497 130.974 501.133 118.751C494.055 114.883 487.37 111.23 482.083 108.135C450.94 89.9052 419.699 76.8457 391.733 70.3681C358.323 62.8065 328.912 66.7785 304.32 82.1738C293.423 88.995 283.362 97.111 273.633 104.957C263.433 113.185 252.885 121.694 241.284 128.797C232.658 134.082 224.236 137.993 215.542 140.756C201.92 145.113 186.289 145.952 167.757 143.323C151.405 141.002 134.928 136.359 118.994 131.867C110.967 129.605 103.386 127.468 95.9122 125.639C66.3431 118.409 40.718 123.631 18.1093 128.237L16.5727 128.55C16.101 128.646 15.6294 128.738 15.1593 128.83C14.8249 128.896 14.492 128.961 14.1575 129.026C9.23166 130.004 4.22562 131.135 -0.615479 132.229C-18.565 136.285 -37.1141 140.474 -59.8693 139.163C-60.3548 139.134 -60.8387 139.106 -61.3273 139.071C-91.9214 137.013 -123.596 145.496 -151.545 152.99C-165.669 156.778 -179.01 160.353 -191.519 162.494C-192.951 162.74 -194.367 162.987 -195.768 163.233L-196.872 163.427C-209.803 165.687 -222.505 166.45 -235.234 165.716L-235.232 165.712Z" fill="#9C9C9C" fill-opacity="0.13"/>
<path d="M-248.611 163.661C-253.747 163.365 -258.884 162.813 -264.047 162.007C-284.888 158.753 -306.834 151.222 -331.138 138.987C-373.187 117.819 -408.976 106.797 -444.156 104.766C-458.879 103.915 -473.49 104.641 -488.419 106.854L-488.467 106.279C-461.399 102.267 -435.185 103.244 -408.326 109.268C-384.472 114.618 -359.896 123.89 -330.982 138.447C-282.252 162.978 -243.247 168.961 -200.562 158.454C-199.887 158.288 -199.209 158.121 -198.526 157.951C-197.429 157.679 -196.321 157.405 -195.203 157.133C-184.535 154.525 -173.251 150.829 -161.305 146.916C-131.543 137.17 -97.8095 126.127 -64.9174 129.928C-42.5815 132.511 -24.3638 130.423 -6.74411 128.404C-1.75812 127.833 3.39746 127.242 8.46976 126.786C8.77185 126.76 9.07547 126.733 9.37909 126.706C9.85995 126.665 10.3409 126.622 10.8233 126.575C12.3923 126.424 13.9721 126.267 15.5627 126.107C36.7673 123.994 60.8017 121.601 88.0373 129.306C94.0744 131.014 100.164 132.889 106.613 134.873C139.187 144.902 176.11 156.268 207.983 144.529C216.668 141.349 225.015 136.906 233.505 130.95C244.912 122.945 255.187 113.375 265.124 104.12C274.649 95.2469 284.497 86.0736 295.283 78.3483C307.918 69.2977 322.024 63.4767 337.208 61.0468C351.371 58.7806 366.848 59.4044 383.212 62.8999C397.683 66.064 413.054 71.0915 428.896 77.8391C443.651 84.1224 458.879 91.9233 474.153 101.021C479.229 104.044 485.354 107.515 491.839 111.188C514.477 124.013 542.649 139.972 553.233 152.169L552.948 152.604C542.417 140.467 514.278 124.528 491.667 111.72C485.182 108.045 479.055 104.576 473.974 101.549C442.364 82.7213 410.955 69.5534 383.141 63.4705C349.321 56.2444 319.831 61.4211 295.488 78.8555C284.725 86.5644 274.886 95.7276 265.372 104.59C255.424 113.855 245.138 123.436 233.705 131.458C225.188 137.434 216.811 141.891 208.095 145.084C193.802 150.348 177.326 151.465 157.725 148.499C140.476 145.89 123.209 140.574 106.509 135.434C100.064 133.45 93.9743 131.574 87.9418 129.868C60.7678 122.18 36.7673 124.571 15.5903 126.682C13.9982 126.839 12.4185 126.997 10.8495 127.15C10.367 127.197 9.88461 127.238 9.40219 127.281C9.1001 127.308 8.79645 127.332 8.49438 127.361C3.42517 127.817 -1.72876 128.408 -6.71167 128.979C-21.5463 130.678 -36.8095 132.427 -54.5972 131.402C-57.9586 131.208 -61.4065 130.916 -64.9622 130.504C-97.7833 126.706 -131.478 137.743 -161.208 147.477C-173.16 151.392 -184.451 155.087 -195.132 157.699C-196.25 157.973 -197.358 158.247 -198.455 158.517C-199.138 158.687 -199.818 158.855 -200.493 159.021C-216.823 163.04 -232.696 164.578 -248.62 163.659L-248.611 163.661Z" fill="#9C9C9C" fill-opacity="0.13"/>
<path d="M-260.92 162.19C-263.34 162.051 -265.756 161.852 -268.181 161.592C-289.41 159.33 -311.598 152.446 -336.01 140.548C-381.505 118.372 -432.098 99.0336 -493.704 107.591L-493.752 106.99C-466.894 103.259 -440.619 104.525 -413.426 110.86C-390.135 116.286 -365.485 125.539 -335.854 139.981C-309.109 153.016 -284.649 160.134 -260.783 161.513C-241.834 162.607 -223.265 160.085 -204.204 154.037C-203.246 153.732 -202.278 153.423 -201.302 153.112C-200.487 152.853 -199.665 152.589 -198.838 152.325C-189.559 149.374 -179.816 145.567 -169.5 141.538C-138.408 129.393 -103.167 115.625 -68.5304 121.344C-47.4059 124.831 -30.0266 124.885 -13.2176 124.934C-7.70914 124.95 -2.5058 124.966 2.84698 125.095C3.11673 125.101 3.38794 125.11 3.65921 125.116C4.15088 125.128 4.64407 125.142 5.13882 125.151C7.8869 125.194 10.6088 125.212 13.4894 125.234C33.1251 125.38 55.3793 125.543 80.0873 133.518C84.6216 134.98 89.1653 136.512 93.9771 138.134C128.238 149.682 167.07 162.772 200.52 148.842C209.296 145.203 217.597 140.221 225.898 133.606C237.182 124.692 247.219 114.018 256.924 103.693C266.204 93.822 275.798 83.6158 286.425 75.0274C298.965 64.8928 313.064 58.2208 328.332 55.1978C342.51 52.3916 358.085 52.6554 374.622 55.9832C389.109 58.9653 404.564 63.9539 420.563 70.8078C435.317 77.13 450.623 85.0742 466.058 94.4193C470.705 97.2317 476.045 100.363 481.7 103.679C504.82 117.231 533.596 134.097 545.248 147.023L544.955 147.488C533.352 134.616 504.609 117.769 481.515 104.233C475.859 100.917 470.516 97.7859 465.866 94.9715C433.346 75.279 402.622 62.3627 374.553 56.5846C340.322 49.6979 310.749 56.0773 286.661 75.549C276.06 84.1169 266.477 94.3109 257.207 104.169C247.49 114.507 237.441 125.196 226.131 134.13C217.799 140.769 209.465 145.77 200.654 149.423C167.081 163.405 128.182 150.292 93.863 138.725C89.0528 137.103 84.5092 135.574 79.9778 134.109C55.3223 126.151 33.0942 125.987 13.4847 125.842C10.6026 125.821 7.87918 125.801 5.1311 125.758C4.63638 125.75 4.14163 125.738 3.64844 125.723C3.37717 125.717 3.10745 125.709 2.83774 125.703C-2.51199 125.572 -7.71371 125.558 -13.2206 125.541C-30.042 125.49 -47.4367 125.439 -68.5874 121.945C-103.132 116.243 -138.323 129.99 -169.372 142.119C-179.694 146.15 -189.442 149.958 -198.733 152.914C-199.561 153.178 -200.382 153.44 -201.198 153.699C-202.173 154.012 -203.141 154.321 -204.1 154.626C-223.503 160.782 -242.167 163.274 -260.921 162.192L-260.92 162.19Z" fill="#9C9C9C" fill-opacity="0.13"/>
<path d="M-272.269 161.181C-272.281 161.181 -272.293 161.181 -272.306 161.179C-293.891 159.928 -316.321 153.689 -340.878 142.106C-395.056 116.552 -442.678 101.028 -498.985 108.324L-499.031 107.696C-472.383 104.243 -446.046 105.796 -418.519 112.445C-395.602 117.98 -371.607 126.944 -340.719 141.513C-292.73 164.147 -251.75 166.646 -207.842 149.617C-206.595 149.134 -205.333 148.637 -204.055 148.136L-202.469 147.514C-194.264 144.299 -185.698 140.388 -176.629 136.247C-144.529 121.588 -108.147 104.973 -72.1373 112.756C-52.7714 116.943 -36.6375 118.994 -21.0353 120.978C-14.767 121.776 -8.84854 122.528 -2.76981 123.408L-2.07626 123.508C-1.56454 123.584 -1.05286 123.657 -0.539612 123.727C3.57248 124.279 7.69534 124.76 12.0602 125.271C29.9203 127.36 50.1617 129.724 72.1432 137.731C75.0716 138.797 77.9815 139.875 81.061 141.016C117.089 154.356 157.925 169.477 193.061 153.155C201.842 149.093 210.097 143.569 218.296 136.265C229.397 126.451 239.159 114.721 248.598 103.376C257.672 92.4701 267.054 81.1962 277.57 71.7079C290.01 60.4851 304.101 52.9602 319.454 49.3441C333.649 45.9999 349.322 45.9059 366.035 49.0639C380.54 51.8681 396.082 56.8177 412.229 63.776C426.983 70.135 442.371 78.2222 457.963 87.8128C461.802 90.1732 465.997 92.7114 470.439 95.399C494.43 109.913 524.289 127.973 537.265 141.873L536.966 142.364C524.038 128.515 494.21 110.471 470.242 95.9737C465.8 93.2862 461.603 90.748 457.762 88.3856C424.796 68.1081 393.911 55.0895 365.966 49.6877C331.32 43.1426 301.668 50.7267 277.835 72.2294C267.347 81.6912 257.976 92.9528 248.915 103.842C239.463 115.202 229.688 126.948 218.558 136.786C210.325 144.119 202.034 149.668 193.215 153.749C177.479 161.059 159.161 162.705 137.218 158.784C118.03 155.356 99.1693 148.373 80.9315 141.62C77.8521 140.48 74.9437 139.402 72.0153 138.337C50.0754 130.346 29.8557 127.983 12.0171 125.897C7.65067 125.386 3.52625 124.905 -0.588898 124.353C-1.1037 124.283 -1.61694 124.208 -2.13019 124.134L-2.8222 124.034C-8.89786 123.154 -14.8163 122.402 -21.0815 121.604C-36.6914 119.618 -52.8346 117.566 -72.2159 113.378C-108.107 105.62 -144.43 122.207 -176.476 136.842C-185.551 140.986 -194.122 144.9 -202.337 148.118L-203.923 148.739C-205.201 149.241 -206.464 149.738 -207.711 150.22C-229.89 158.821 -251.008 162.406 -272.272 161.179L-272.269 161.181Z" fill="#9C9C9C" fill-opacity="0.13"/>
<path d="M-282.839 160.549C-302.769 159.399 -323.419 153.848 -345.748 143.664C-403.233 117.443 -449.804 102.506 -504.268 109.057L-504.312 108.403C-477.872 105.222 -451.475 107.063 -423.612 114.027C-395.506 121.053 -368.396 132.638 -345.586 143.042C-297.494 164.979 -256.134 165.644 -211.481 145.198C-209.905 144.476 -208.339 143.748 -206.681 142.975L-206.103 142.705C-198.737 139.275 -191.082 135.258 -182.978 131.004C-150.101 113.749 -112.838 94.1915 -75.7448 104.167C-62.6009 107.701 -51.0707 110.644 -39.9212 113.491C-29.0352 116.271 -18.7535 118.895 -8.38391 121.718L-7.77203 121.883C-7.25418 122.025 -6.7363 122.168 -6.21536 122.301C-0.486481 123.788 5.34717 125.117 11.5215 126.524C28.0885 130.3 45.2181 134.202 64.1987 141.936C65.3624 142.41 66.5337 142.889 67.7112 143.37C103.754 158.09 148.611 176.41 185.601 157.46C194.388 152.973 202.595 146.906 210.694 138.915C221.612 128.206 231.097 115.426 240.269 103.068C249.136 91.1214 258.305 78.7697 268.715 68.3814C281.051 56.0705 295.134 47.6928 310.571 43.4814C324.789 39.6035 340.561 39.1514 357.448 42.1376C385.331 47.1773 416.426 60.3207 449.872 81.2016C452.191 82.6497 454.617 84.1571 457.12 85.7136C481.336 100.767 514.501 121.384 529.284 136.718L528.978 137.238C514.241 121.951 481.105 101.352 456.911 86.3109C454.406 84.7544 451.982 83.2469 449.66 81.7988C416.261 60.9445 385.214 47.8216 357.382 42.79C322.32 36.5906 292.589 45.3795 269.012 68.9071C258.633 79.2667 249.477 91.6021 240.622 103.531C231.436 115.907 221.938 128.705 210.988 139.443C202.854 147.471 194.608 153.566 185.78 158.074C169.229 166.554 149.857 168.433 126.557 163.821C106.269 159.806 85.707 151.408 67.5663 144C66.3889 143.519 65.2175 143.04 64.0538 142.566C45.104 134.845 27.9899 130.944 11.4382 127.175C5.25934 125.768 -0.575897 124.436 -6.31094 122.947C-6.8334 122.812 -7.35281 122.669 -7.87222 122.528L-8.48254 122.362C-18.8506 119.541 -29.1308 116.915 -40.0137 114.138C-51.1647 111.291 -62.6949 108.345 -75.8418 104.811C-112.792 94.8746 -149.981 114.393 -182.795 131.615C-190.903 135.872 -198.562 139.891 -205.938 143.325L-206.516 143.595C-208.176 144.368 -209.744 145.098 -211.319 145.82C-233.77 156.1 -255.067 160.99 -276.426 160.767C-278.556 160.745 -280.694 160.673 -282.839 160.549Z" fill="#9C9C9C" fill-opacity="0.13"/>
<path d="M-292.76 160.226C-311.185 159.162 -330.23 154.215 -350.619 145.225C-401.301 122.882 -451.593 103.357 -509.553 109.792L-509.596 109.111C-495.727 107.571 -482.181 107.423 -468.182 108.657C-455.345 109.79 -442.434 112.064 -428.709 115.611C-402.056 122.497 -375.347 133.602 -350.456 144.577C-302.182 165.861 -260.443 164.689 -215.122 140.783C-213.333 139.838 -211.48 138.842 -209.737 137.901C-203.04 134.287 -196.106 130.163 -188.765 125.797C-171.853 115.74 -154.364 105.339 -135.902 98.7102C-114.78 91.1281 -96.2834 90.1054 -79.3542 95.5849C-53.7384 103.875 -33.5371 112.093 -14.0001 120.041L-13.5269 120.233C-12.9829 120.454 -12.4388 120.677 -11.8932 120.892C-4.12677 123.944 3.93713 126.674 12.4727 129.564C26.3717 134.27 40.744 139.136 56.2506 146.158C91.2048 161.983 139.075 183.655 178.135 161.782C186.93 156.871 195.09 150.263 203.085 141.583C213.821 129.983 223.031 116.163 231.936 102.799C240.595 89.8027 249.548 76.3669 259.854 65.0725C272.083 51.6735 286.154 42.4408 301.678 37.6342C315.921 33.2244 331.794 32.4145 348.856 35.2268C376.642 39.9025 407.903 53.1523 441.774 74.6058C464.902 89.2546 503.611 113.772 521.297 131.579L520.986 132.125C503.343 114.361 464.663 89.862 441.552 75.2255C407.732 53.8026 376.523 40.5754 348.793 35.9079C313.315 30.0583 283.502 40.0478 260.184 65.6022C249.909 76.8618 240.969 90.2792 232.324 103.255C223.405 116.642 214.182 130.482 203.413 142.116C195.38 150.84 187.178 157.479 178.337 162.416C161.189 172.019 141.077 174.187 116.851 169.047C94.927 164.394 72.477 154.231 56.0841 146.81C40.596 139.799 26.233 134.935 12.3447 130.233C3.80304 127.341 -4.26392 124.608 -12.0396 121.555C-12.5867 121.34 -13.1339 121.117 -13.678 120.894L-14.1511 120.702C-33.6804 112.758 -53.8741 104.541 -79.476 96.2578C-117.258 84.0307 -155.135 106.556 -188.554 126.429C-195.9 130.798 -202.837 134.923 -209.543 138.541C-211.288 139.482 -213.14 140.48 -214.931 141.425C-237.622 153.394 -259.084 159.59 -280.544 160.367C-284.59 160.514 -288.661 160.469 -292.759 160.232L-292.76 160.226Z" fill="#9C9C9C" fill-opacity="0.13"/>
<path d="M-302.116 160.154C-319.181 159.17 -336.788 154.746 -355.487 146.784C-400.595 127.576 -440.051 112.267 -482.445 109.82C-493.017 109.211 -503.763 109.399 -514.833 110.526L-514.875 109.816C-501.025 108.407 -487.447 108.403 -473.361 109.808C-460.586 111.082 -447.645 113.496 -433.802 117.19C-407.671 124.16 -381.77 134.845 -355.324 146.107C-306.799 166.771 -264.681 163.766 -218.763 136.365C-216.868 135.234 -214.975 134.076 -213.372 133.092C-207.208 129.308 -200.846 125.073 -194.111 120.587C-177.784 109.718 -159.28 97.397 -140.51 89.9459C-119.01 81.4086 -100.186 80.4452 -82.9612 86.9985C-61.5222 95.1553 -43.9766 104.875 -27.0073 114.275C-24.5859 115.617 -22.0829 117.004 -19.6139 118.36L-19.2732 118.548C-18.706 118.859 -18.1389 119.172 -17.5686 119.476C-7.05563 125.093 4.13702 130.077 15.9863 135.357C26.3558 139.975 37.0768 144.753 48.3049 150.369C87.6394 170.045 132.778 189.112 170.672 166.092C179.474 160.756 187.589 153.607 195.48 144.237C206.035 131.755 214.968 116.899 223.605 102.533C232.053 88.4834 240.788 73.9554 250.995 61.7488C263.111 47.2617 277.17 37.176 292.781 31.7702C307.053 26.8287 323.029 25.6608 340.263 28.3013C367.961 32.6231 399.389 45.9771 433.676 67.9952C472.166 92.7111 498.957 112.371 513.308 126.425L512.991 126.997C498.666 112.97 471.902 93.333 433.443 68.6355C399.21 46.6521 367.841 33.3206 340.203 29.007C304.308 23.5091 274.416 34.7012 251.354 62.2744C241.178 74.4401 232.458 88.9457 224.024 102.973C215.372 117.362 206.426 132.241 195.836 144.765C187.905 154.184 179.745 161.371 170.894 166.736C161.794 172.263 151.639 175.646 140.71 176.785C131.046 177.793 120.405 177.083 109.08 174.672C88.1142 170.209 67.3873 160.672 48.1138 151.03C36.895 145.418 26.1771 140.644 15.8136 136.025C3.95667 130.742 -7.24213 125.754 -17.7705 120.131C-18.3423 119.826 -18.911 119.513 -19.4797 119.2L-19.8203 119.012C-22.2895 117.656 -24.794 116.269 -27.2153 114.928C-44.1707 105.535 -61.7026 95.8221 -83.1107 87.6775C-121.534 73.0595 -159.966 98.6447 -193.872 121.219C-200.612 125.707 -206.979 129.945 -213.148 133.733C-214.751 134.716 -216.647 135.876 -218.544 137.009C-241.451 150.678 -263.078 158.18 -284.657 159.948C-290.427 160.42 -296.241 160.49 -302.118 160.15L-302.116 160.154Z" fill="#9C9C9C" fill-opacity="0.13"/>
<path d="M-311.001 160.289C-326.837 159.375 -343.149 155.415 -360.355 148.342L-361.841 147.731C-416.317 125.338 -463.365 106 -520.118 111.258L-520.156 110.522C-494.181 108.114 -468.589 110.671 -439.613 118.568C-413.78 125.608 -388.471 136.011 -361.678 147.025L-360.192 147.637C-311.363 167.705 -268.867 162.866 -222.403 131.947C-220.845 130.91 -219.131 129.746 -217.007 128.284C-211.28 124.342 -205.38 119.99 -199.135 115.382C-182.643 103.214 -163.951 89.422 -144.924 81.1363C-123.104 71.6337 -104.016 70.742 -86.5671 78.412C-66.6509 87.1681 -50.2488 98.8695 -34.3862 110.186C-31.3869 112.326 -28.2859 114.539 -25.2264 116.682L-25.1093 116.764C-24.4882 117.2 -23.867 117.633 -23.2428 118.061C-8.54999 128.118 7.64246 136.86 24.7859 146.115C29.8444 148.845 35.077 151.67 40.3619 154.578C77.5526 175.042 125.125 195.336 163.211 170.401C172.021 164.642 180.09 156.953 187.878 146.894C198.253 133.532 206.909 117.648 215.28 102.285C223.515 87.1743 232.029 71.5478 242.141 58.427C254.141 42.8558 268.187 31.9153 283.887 25.9101C298.192 20.4389 314.272 18.9131 331.679 21.3797C359.3 25.3538 390.894 38.8142 425.586 61.3886C459.033 83.1531 488.843 105.539 505.33 121.274L505.004 121.873C488.542 106.161 458.76 83.7995 425.341 62.0514C390.708 39.5158 359.175 26.0779 331.619 22.114C295.307 16.972 265.332 29.3667 242.529 58.9567C232.452 72.0325 223.951 87.6323 215.73 102.719C207.345 118.106 198.674 134.017 188.264 147.424C180.435 157.538 172.32 165.272 163.456 171.064C154.32 177.044 144.12 180.773 133.137 182.144C123.371 183.363 112.659 182.753 101.3 180.333C78.7501 175.529 56.7733 164.41 40.1476 155.262C34.8642 152.355 29.6332 149.531 24.5748 146.8C7.42053 137.539 -8.78275 128.791 -23.4987 118.719C-24.1245 118.292 -24.7471 117.854 -25.3698 117.419L-25.4869 117.337C-28.5479 115.191 -31.6504 112.978 -34.6497 110.837C-50.4908 99.5363 -66.8713 87.8492 -86.7412 79.1136C-125.647 62.0084 -164.546 90.7066 -198.863 116.028C-205.113 120.638 -211.016 124.995 -216.75 128.94C-218.877 130.405 -220.594 131.568 -222.153 132.607C-245.26 147.982 -267.047 156.794 -288.762 159.54C-296.097 160.469 -303.497 160.721 -311.002 160.287L-311.001 160.289Z" fill="#9C9C9C" fill-opacity="0.13"/>
<path d="M109.091 188.161C104.051 187.871 98.8446 187.157 93.5042 186.02C75.4714 182.183 55.4134 173.506 32.1804 159.494C8.13672 144.992 -11.5082 132.268 -29.2249 117.304C-29.8676 116.76 -30.5042 116.214 -31.1515 115.656C-34.4529 112.809 -37.7959 109.851 -41.0295 106.992C-56.0475 93.7073 -71.5773 79.9708 -90.373 70.5479C-129.624 50.8697 -168.931 82.728 -203.609 110.835C-209.455 115.574 -214.978 120.049 -220.351 124.146C-222.382 125.696 -224.151 127.024 -225.762 128.204C-249.024 145.272 -270.969 155.374 -292.85 159.091C-315.915 163.008 -339.587 160.003 -365.221 149.905C-368.235 148.702 -371.231 147.504 -374.212 146.309C-424.071 126.333 -471.165 107.464 -525.399 111.997L-525.436 111.234C-500.627 109.162 -476.131 111.661 -448.34 119.098C-423.617 125.717 -399.539 135.363 -374.047 145.577C-371.066 146.772 -368.071 147.97 -365.058 149.173C-349.397 155.342 -334.376 158.878 -319.677 159.727C-288.115 161.549 -258.01 150.991 -226.041 127.537C-224.433 126.357 -222.667 125.032 -220.639 123.485C-215.272 119.393 -209.754 114.92 -203.911 110.183C-187.277 96.6997 -168.424 81.4189 -149.181 72.2905C-127.084 61.8082 -107.783 61.0044 -90.171 69.8341C-71.3137 79.2877 -55.7562 93.0487 -40.712 106.358C-37.4799 109.217 -34.1385 112.173 -30.8387 115.016C-30.1913 115.574 -29.5563 116.118 -28.9152 116.66C-11.2261 131.601 8.39722 144.311 32.4193 158.798C66.1313 179.129 115.594 202.9 155.75 174.719C164.569 168.536 172.589 160.306 180.274 149.557C190.471 135.322 198.852 118.413 206.956 102.063C214.976 85.8839 223.268 69.1571 233.286 55.1138C245.167 38.4586 259.197 26.6631 274.988 20.0567C289.329 14.0556 305.514 12.1739 323.09 14.4626C350.644 18.0931 382.404 31.6599 417.493 54.7866C446.587 73.9617 477.932 98.0394 497.345 116.128L497.014 116.754C477.62 98.6857 446.305 74.6304 417.235 55.4717C382.209 32.388 350.516 18.8458 323.032 15.2255C286.305 10.4415 256.247 24.0389 233.703 55.6415C223.721 69.6357 215.443 86.3339 207.437 102.486C199.319 118.865 190.924 135.8 180.692 150.087C172.964 160.897 164.894 169.176 156.019 175.398C146.847 181.835 136.599 185.913 125.559 187.517C120.314 188.28 114.811 188.495 109.094 188.165L109.091 188.161Z" fill="#9C9C9C" fill-opacity="0.13"/>
<path d="M100.497 193.77C78.1257 192.479 52.6348 182.457 24.2109 163.722C1.21368 148.566 -18.1399 132.917 -34.9535 115.883C-35.5777 115.249 -36.1989 114.609 -36.82 113.969C-40.2416 110.43 -43.7018 106.734 -47.0463 103.159C-61.3353 87.8907 -76.1098 72.1047 -94.0085 61.9762C-133.488 39.639 -174.911 76.2425 -208.194 105.652C-213.697 110.514 -218.894 115.106 -223.955 119.346C-225.944 121.011 -227.716 122.467 -229.374 123.795C-252.817 142.585 -274.922 154 -296.954 158.696C-307.037 160.844 -317.231 161.625 -327.636 161.024C-341.332 160.234 -355.397 157.054 -370.093 151.458C-375.901 149.232 -381.714 146.962 -387.335 144.77C-434.604 126.319 -479.253 108.894 -530.685 112.725L-530.719 111.936C-479.185 108.097 -434.489 125.541 -387.167 144.011C-381.546 146.205 -375.734 148.474 -369.928 150.699C-320.304 169.592 -277.05 161.087 -229.683 123.118C-228.027 121.79 -226.258 120.338 -224.274 118.675C-219.219 114.441 -214.025 109.852 -208.526 104.992C-191.761 90.1774 -172.761 73.3872 -153.324 63.4038C-130.977 51.9254 -111.499 51.2197 -93.7758 61.246C-75.8 71.4154 -60.9931 87.2382 -46.6733 102.539C-43.3303 106.113 -39.8717 109.806 -36.4532 113.341C-35.8336 113.981 -35.2125 114.619 -34.5913 115.251C-17.8085 132.252 1.5127 147.874 24.476 163.01C75.7183 196.783 117.374 202.172 148.286 179.031C157.114 172.425 165.088 163.654 172.668 152.217C182.688 137.11 190.793 119.186 198.632 101.852C206.433 84.6018 214.5 66.7643 224.425 51.7944C236.185 34.0593 250.2 21.4088 266.078 14.199C280.458 7.66825 296.749 5.4266 314.495 7.54148C329.183 9.30252 345.234 14.0354 362.2 21.6114C376.986 28.2117 392.864 37.1519 409.394 48.1803C435.199 65.398 465.092 88.8724 489.357 110.978L489.02 111.631C464.774 89.5453 434.908 66.0893 409.125 48.888C373.715 25.2623 341.86 11.6178 314.443 8.33095C277.295 3.90892 247.16 18.7091 224.872 52.3202C214.982 67.2368 206.929 85.0415 199.143 102.261C191.29 119.626 183.17 137.58 173.114 152.742C165.489 164.247 157.464 173.073 148.577 179.724C134.667 190.137 118.602 194.815 100.496 193.772L100.497 193.77Z" fill="#9C9C9C" fill-opacity="0.13"/>
<path d="M91.9022 199.378C87.34 199.114 82.6561 198.476 77.852 197.463C67.6365 195.307 56.8369 191.423 45.7522 185.923C36.09 181.127 26.1612 175.081 16.2386 167.951C-4.13074 153.317 -23.2809 135.32 -40.6818 114.463C-44.7846 109.546 -48.9044 104.327 -52.8885 99.2787C-66.4855 82.0508 -80.5464 64.238 -97.6468 53.4099C-115.268 42.2526 -134.728 42.858 -157.139 55.2609C-176.69 66.0808 -195.804 84.3722 -212.666 100.512C-219.816 107.356 -226.569 113.817 -232.986 119.395C-256.596 139.909 -278.861 152.64 -301.052 158.311C-312.352 161.199 -323.781 162.312 -335.479 161.637C-348.25 160.901 -361.343 158.035 -374.963 153.024C-383.232 149.983 -391.457 146.833 -399.412 143.787C-444.444 126.543 -486.98 110.256 -535.969 113.465L-536 112.647C-486.908 109.432 -444.324 125.737 -399.241 143C-391.288 146.045 -383.064 149.195 -374.798 152.235C-324.801 170.624 -281.169 160.285 -233.324 118.709C-226.919 113.142 -220.171 106.685 -213.027 99.8473C-196.136 83.6829 -176.994 65.3608 -157.377 54.5041C-134.794 42.0071 -115.169 41.4058 -97.3801 52.6715C-80.1904 63.5547 -66.0941 81.4147 -52.4616 98.6856C-48.4805 103.729 -44.3638 108.945 -40.2672 113.856C-22.9018 134.669 -3.79169 152.627 16.5345 167.231C44.8983 187.611 98.7607 216.804 140.822 183.348C164.226 164.734 177.488 132.669 190.315 101.66C197.895 83.3332 205.734 64.3831 215.57 48.4785C223.95 34.9282 233.59 24.0797 244.222 16.2318C254.149 8.90331 265.203 3.99853 277.077 1.65252C288.057 -0.515537 300.029 -0.55026 312.663 1.54826C324.206 3.46474 336.613 7.21585 349.539 12.6974C371.541 22.0241 395.062 36.1718 421.452 55.942C443.401 72.3886 463.224 89.637 481.376 105.826L481.032 106.505C439.742 69.6785 395.212 32.9197 349.353 13.4747C290.823 -11.3394 245.974 0.611489 216.048 48.9961C206.248 64.8413 198.423 83.7566 190.856 102.052C184.433 117.58 177.792 133.636 169.944 147.843C161.128 163.803 151.706 175.646 141.139 184.05C126.972 195.318 110.459 200.447 91.9037 199.378H91.9022Z" fill="#9C9C9C" fill-opacity="0.13"/>
</svg>
