<svg width="840" height="1236" viewBox="0 0 840 1236" fill="none" xmlns="http://www.w3.org/2000/svg">
<path d="M625.901 498.946L645.851 716.692L198.87 605.528L625.901 498.946Z" fill="#EEC718" stroke="#502A73" stroke-width="0.51" stroke-linecap="round" stroke-linejoin="round"/>
<path d="M616.933 696.066C615.315 695.346 613.542 694.626 611.489 693.814C618.551 691.732 623.039 684.642 625.582 678.977C625.959 678.141 626.127 677.227 626.073 676.312C626.018 675.397 625.742 674.51 625.269 673.724C624.795 672.938 624.138 672.278 623.353 671.799C622.568 671.32 621.678 671.037 620.76 670.974C618.427 670.819 615.829 670.603 613.387 670.308C601.354 668.869 591.43 662.569 590.691 662.074H590.644L542.889 630.953C537.755 627.61 533.958 622.586 532.155 616.751H560.817C564.441 616.751 569.504 617.037 574.039 613.717C582.221 607.773 584.08 589.546 585.231 585.181L588.793 575.591C594.051 576.807 608.105 554.563 610.198 529.587C611.994 508.009 605.928 502.305 585.309 488.521C582.835 486.865 580.183 485.263 577.422 483.715C577.274 482.958 576.961 482.244 576.504 481.622C576.047 481 575.457 480.485 574.778 480.116L548.333 465.79C547.104 465.129 545.662 464.979 544.322 465.374C542.983 465.768 541.855 466.675 541.185 467.895C534.465 465.573 529.597 464.227 528.469 464.141C528.469 464.141 537.024 461.479 534.108 451.487C532.233 445.002 524.37 440.714 513.885 440.528H472.935C472.484 436.844 472.041 433.717 471.644 431.759C470.812 428.307 470.089 424.406 468.067 421.628C466.558 419.662 464.178 418.78 461.697 418.284C461.065 418.169 460.425 418.11 459.783 418.106H413.07L413 460.991C413 460.991 430.889 462.888 440.728 463.917C440.525 464.977 441.132 465.465 441.202 466.092C441.35 467.547 441.49 468.213 441.63 469.188C441.691 469.624 441.838 470.044 442.062 470.423C442.286 470.803 442.584 471.135 442.937 471.4C443.29 471.665 443.692 471.859 444.121 471.969C444.549 472.079 444.995 472.105 445.433 472.044L453.989 470.875L455 475.712C455 475.712 454.665 476.122 454.16 476.827C444.827 478.723 434.591 481.022 428.159 483.127C403.511 491.075 381.352 532.056 378.241 537.474L378.35 536.421C378.153 536.962 377.985 537.512 377.844 538.07C377.658 537.575 366.108 517.49 359.434 513.481C352.761 509.472 347.488 510.85 347.488 510.85L343.117 502.507C344.859 497.429 343.241 490.34 344.478 486.037C345.403 482.639 347.799 474.783 342.191 474.288C342.023 474.273 341.854 474.273 341.685 474.288H332.477C331.901 470.952 331.201 467.245 330.509 464.467C329.412 460.063 326.721 458.422 324.473 458.677V458.608H278.009L276.609 498.931L283.889 529.804L308.505 540.57L316.485 531.228L316.672 531.623L316.913 531.453C308.513 543.147 324.045 569.64 343.303 582.263C361.013 593.385 372.555 591.388 372.555 591.388C358.812 599.166 345.613 604.321 337.291 618.778L307.735 675.618C295.042 676.392 291.301 684.603 297.197 694.742C290.259 692.846 277.62 690.052 269.197 690.71C259.373 691.198 248.827 695.184 243.662 703.968C240.551 707.722 240.333 713.65 242.628 720.291C248.897 738.448 268.294 754.136 286.961 767.123L289.108 768.547L282.963 771.999L290.982 791.046H336.778C340.554 791.01 344.265 790.067 347.597 788.298C348.234 788.229 359.115 781.542 360.99 770.637C361.978 765.753 364.467 756.574 366.73 748.145C375.783 749.159 388.243 743.68 397.413 738.688C398.607 738.042 399.621 737.112 400.364 735.981C401.108 734.85 401.558 733.553 401.675 732.207C401.791 730.86 401.57 729.506 401.031 728.265C400.493 727.024 399.653 725.936 398.588 725.097C397.744 724.446 396.946 723.737 396.2 722.976C394.682 721.323 393.354 719.506 392.241 717.559C388.846 711.784 387.718 704.963 389.075 698.411L398.409 652.655C399.344 648.075 401.952 644.002 405.728 641.223L467.172 596.001L480.013 650.797C482.392 660.948 487.572 670.236 494.97 677.615L544.359 726.893C547.073 729.601 550.775 731.018 555.046 731.281C554.929 732.682 554.82 734.176 554.727 735.731L552.759 734.802L521.025 804.459H566.689C577.834 803.948 584.655 798.197 592.861 787.896C599.783 778.779 604.987 768.446 609.459 757.928C613.993 747.093 617.011 739.524 620.402 729.57C623.614 720.198 625.318 712.381 625.069 709.649C625.217 703.527 622.697 698.806 616.933 696.066ZM528.414 545.415C521.951 533.465 518.692 517.622 520.349 507.39C520.349 507.39 527.053 516.221 534.722 520.648C535.617 521.167 536.488 521.647 537.328 522.095C545.105 526.468 554.439 529.131 558.04 528.496C558.04 528.496 550.659 539.332 548.046 547.683C547.077 550.68 546.842 553.864 547.361 556.97C541.917 558.588 535.422 560.584 531.611 561.947C532.778 558.688 532.171 553.317 528.414 545.415Z" fill="#A9D054" stroke="#502A73" stroke-width="0.51" stroke-linecap="round" stroke-linejoin="round"/>
<path d="M600.009 709.602C600.157 703.527 597.676 698.767 591.873 696.066C590.263 695.346 588.505 694.634 586.491 693.821C589.727 692.134 592.768 689.665 594.315 687.227C597.652 681.995 594.152 675.865 587.315 673.296C577.469 669.565 566.907 662.886 564.76 661.477L517.883 630.976C514.228 628.594 511.226 625.343 509.149 621.518C508.885 621.025 508.754 620.472 508.769 619.914C508.784 619.356 508.945 618.811 509.235 618.333C509.525 617.855 509.934 617.46 510.424 617.187C510.913 616.913 511.465 616.771 512.027 616.774H535.811C543.387 616.774 548.388 615.489 551.717 611.116C557.511 603.5 559.238 589.05 560.272 585.204L563.834 575.614C569.092 576.83 583.154 554.586 585.239 529.61C587.043 508.032 580.977 502.328 560.389 488.544C557.923 486.888 555.271 485.286 552.51 483.738C552.361 482.982 552.047 482.268 551.59 481.646C551.133 481.024 550.544 480.51 549.865 480.139L523.421 465.813C522.192 465.152 520.75 465.002 519.41 465.396C518.071 465.791 516.943 466.698 516.273 467.918C509.553 465.596 504.692 464.25 503.564 464.164C503.564 464.164 512.12 461.502 509.203 451.51C507.321 445.024 499.466 440.737 488.981 440.551H452.161C450.983 440.549 449.845 440.123 448.958 439.352C448.07 438.582 447.492 437.517 447.331 436.356C447.074 434.506 446.826 432.943 446.553 431.782C445.729 428.33 445.037 424.429 442.975 421.651C441.467 419.685 439.048 418.803 436.605 418.307C435.977 418.193 435.339 418.133 434.7 418.129H414.789L414.688 461.092C414.688 461.092 432.577 462.988 442.416 464.017C442.213 465.078 442.82 465.565 442.882 466.192C443.03 467.647 443.17 468.313 443.318 469.288C443.378 469.724 443.524 470.143 443.747 470.523C443.971 470.903 444.267 471.234 444.62 471.5C444.973 471.765 445.374 471.959 445.802 472.069C446.23 472.18 446.676 472.205 447.113 472.144L455.669 470.975L456.672 475.782C456.672 475.782 456.33 476.192 455.824 476.896C446.491 478.792 436.255 481.091 429.823 483.196C405.261 491.075 383.102 532.056 379.991 537.474L380.1 536.421C379.904 536.961 379.738 537.512 379.602 538.07C379.447 537.667 371.964 524.642 365.602 517.451C359.014 526.963 354.495 535.253 353.212 537.474L353.321 536.421C353.321 536.421 353.134 536.909 352.823 538.07C352.629 537.574 341.079 517.49 334.406 513.481C327.732 509.472 322.459 510.85 322.459 510.85L318.095 502.506C319.83 497.429 318.212 490.34 319.457 486.036C320.374 482.639 322.77 474.783 317.162 474.288C316.994 474.272 316.825 474.272 316.657 474.288H307.424C306.849 470.952 306.149 467.245 305.457 464.466C304.352 460.062 301.661 458.422 299.413 458.677V458.607H279.759L278.359 498.931L285.631 529.788L290.718 532.002L291.425 531.174L291.612 531.568L291.861 531.398C291.662 531.675 291.478 531.962 291.309 532.257L310.263 540.57L318.235 531.228L318.422 531.623L318.671 531.452C310.263 543.147 325.803 569.639 345.061 582.263C362.763 593.423 374.337 591.426 374.337 591.426C360.585 599.205 347.387 604.359 339.064 618.817L309.509 675.656C296.823 676.43 293.074 684.642 298.97 694.781C292.032 692.885 279.385 690.091 270.931 690.749H270.285C270.781 692.134 271.403 693.471 272.144 694.742C269.321 693.968 265.564 693.055 261.528 692.273C254.932 694.216 248.904 697.977 245.389 703.968C242.278 707.721 242.052 713.65 244.347 720.29C250.615 738.448 270.013 754.136 288.68 767.123C289.395 767.587 290.111 768.067 290.827 768.547L284.69 771.999L288.205 791.046H311.694C315.47 791.01 319.182 790.067 322.513 788.298C323.151 788.229 334.024 781.542 335.899 770.636C336.894 765.753 339.375 756.574 341.639 748.145C363.899 748.493 366.108 729.965 364.272 725.36C363.728 724.005 363.067 722.156 362.398 720.213C361.218 716.799 360.979 713.132 361.705 709.594L373.372 652.654C374.311 648.074 376.921 644.002 380.699 641.223L442.143 596.001L446.087 612.826L469 596.001L481.833 650.797C484.212 660.948 489.392 670.236 496.79 677.614L546.179 726.892C548.901 729.601 552.595 731.018 556.865 731.281C556.749 732.682 556.648 734.175 556.547 735.731L554.556 734.833L520.333 804.489H541.598C552.743 803.979 559.564 798.228 567.77 787.927C574.692 778.809 579.896 768.477 584.368 757.959C588.91 747.124 591.928 739.554 595.319 729.601C598.562 720.128 600.258 712.334 600.009 709.602Z" fill="#A9D054" stroke="#502A73" stroke-width="0.51" stroke-linecap="round" stroke-linejoin="round"/>
<path d="M277.993 735.507C254.606 721.181 244.191 700.926 252.731 691.221C259.241 683.814 279.176 681.415 302.594 695.741C326.013 710.067 339.43 730.569 332.632 741.559C325.834 752.549 301.373 749.833 277.993 735.507Z" fill="#502A73" stroke="#502A73" stroke-width="0.51" stroke-linecap="round" stroke-linejoin="round"/>
<path d="M277.993 735.507C254.606 721.181 244.191 700.926 252.731 691.221C259.241 683.814 279.176 681.415 302.594 695.741C326.013 710.067 339.43 730.569 332.632 741.559C325.834 752.549 301.373 749.833 277.993 735.507Z" stroke="#502A73" stroke-width="0.51" stroke-linecap="round" stroke-linejoin="round"/>
<path d="M516.872 717.651L539.762 723.68L531.246 772.417L516.872 772.873L513.512 768.748L516.872 717.651Z" fill="#4BBEA5" stroke="#502A73" stroke-width="0.51" stroke-linecap="round" stroke-linejoin="round"/>
<path d="M538.798 712.319L518.552 722.977" stroke="#502A73" stroke-width="0.51" stroke-linecap="round" stroke-linejoin="round"/>
<path d="M515.192 741.064L535.438 730.406" stroke="#502A73" stroke-width="0.51" stroke-linecap="round" stroke-linejoin="round"/>
<path d="M513.512 750.103L533.758 739.446" stroke="#502A73" stroke-width="0.51" stroke-linecap="round" stroke-linejoin="round"/>
<path d="M511.832 759.144L532.086 748.486" stroke="#502A73" stroke-width="0.51" stroke-linecap="round" stroke-linejoin="round"/>
<path d="M514.733 716.258C510.899 719.122 508.387 720.128 507.539 739.972C506.691 759.817 506.66 786.897 508.799 795.519C510.938 804.141 517.191 805.945 526.602 803.313C536.013 800.682 549.453 788.732 562.473 757.882C575.493 727.032 578.068 714.478 578.083 710.446C578.099 706.414 578.2 699.069 567.972 695.199C565.919 694.425 562.395 692.931 562.395 692.931L555.302 696.801C550.655 699.307 545.318 700.249 540.089 699.487C537.164 699.069 533.867 699.425 531.448 702.118C528.15 705.849 527.147 714.803 526.384 726.622C526.058 731.714 523.74 755.56 523.577 761.016C523.565 761.337 523.445 761.645 523.236 761.889C523.028 762.133 522.742 762.3 522.425 762.363C522.225 762.402 522.018 762.398 521.819 762.351C521.619 762.304 521.433 762.215 521.271 762.091C521.109 761.966 520.975 761.809 520.879 761.629C520.783 761.449 520.727 761.251 520.714 761.047C520.497 756.914 520.901 744.361 521.189 736.412C522.107 710.98 516.172 715.182 514.733 716.258Z" fill="#4BBEA5" stroke="#502A73" stroke-width="0.51" stroke-linecap="round" stroke-linejoin="round"/>
<path d="M567.949 695.199C565.895 694.425 554.524 689.665 554.524 689.665L555.831 696.515C560.734 699.297 566.212 700.923 571.845 701.267L576.271 701.6C574.863 699.185 572.367 696.91 567.949 695.199Z" fill="#4BBEA5" stroke="#502A73" stroke-width="0.51" stroke-linecap="round" stroke-linejoin="round"/>
<path d="M566.036 698.821C558.079 703.256 558.188 708.526 558.538 713.983C558.888 719.439 566.533 730.94 561.198 739.593C555.862 748.246 547.804 744.918 541.084 751.605C534.364 758.292 539.723 774.499 539.311 783.051C538.899 791.603 525.055 796.138 525.055 796.138L530.911 801.556C539.887 796.835 551.328 784.281 562.473 757.874C575.501 727.032 578.068 714.47 578.083 710.438C578.083 707.489 578.146 702.784 574.194 698.945C572.165 697.59 569.435 696.909 566.036 698.821Z" fill="#008056" stroke="#502A73" stroke-width="0.51" stroke-linecap="round" stroke-linejoin="round"/>
<path d="M515.146 795.047C514.024 795.923 513.221 797.14 512.86 798.512C512.499 799.885 512.6 801.337 513.147 802.648C516.32 804.869 520.878 804.915 526.602 803.313C529.807 802.423 533.486 800.442 537.444 797.005C530.779 792.834 521.111 789.784 515.146 795.047Z" fill="#008056" stroke="#502A73" stroke-width="0.51" stroke-linecap="round" stroke-linejoin="round"/>
<path d="M549.788 701.05L548.574 704.463C546.646 709.881 543.993 719.122 543.993 719.122L550.993 718.959L550.573 700.655L549.788 701.05Z" fill="#008056" stroke="#502A73" stroke-width="0.51" stroke-linecap="round" stroke-linejoin="round"/>
<path d="M319.776 744.964L328.891 706.746L287.124 658.382L264.584 692.962L259.77 713.65L287.941 752.58" fill="#BF792A"/>
<path d="M319.776 744.964L328.891 706.746L287.124 658.382L264.584 692.962L259.77 713.65L287.941 752.58" stroke="#502A73" stroke-width="0.51" stroke-linecap="round" stroke-linejoin="round"/>
<path d="M319.667 730.553C315.451 728.378 306.833 725.778 303.831 725.135C302.334 724.805 300.991 723.988 300.012 722.813L288.12 708.503C286.244 706.489 283.883 704.984 281.26 704.13L259.786 697.938C259.786 697.938 250.126 693.829 233.909 691.375C217.692 688.922 203.716 693.094 196.933 703.581C190.151 714.068 255.142 761.155 255.142 761.155L300.642 788.368C300.642 788.368 311.531 782.95 314.036 770.706C315.591 762.874 319.814 747.487 322.008 738.378C320.701 735.653 322.124 733.858 319.667 730.553Z" fill="#4BBEA5" stroke="#502A73" stroke-width="0.51" stroke-linecap="round" stroke-linejoin="round"/>
<path d="M314.051 770.636C315.506 763.446 320.203 746.93 322.661 737.256C322.993 735.98 322.886 734.631 322.359 733.422C321.832 732.214 320.915 731.215 319.752 730.584H319.682C316.633 737.596 309.213 755.707 306.102 764.553L301.996 776.163C301.996 776.163 301.513 782.192 300.658 788.298C302.913 787.137 311.889 781.271 314.051 770.636Z" fill="#4BBEA5" stroke="#502A73" stroke-width="0.51" stroke-linecap="round" stroke-linejoin="round"/>
<path d="M296.38 742.426C270.239 735.019 273.241 718.124 257.864 708.991C250.196 704.44 244.323 705.578 235.153 701.724C229.771 699.53 225.243 695.668 222.242 690.71L213.111 703.272C213.111 703.272 246.618 739.036 247.03 739.384C247.442 739.733 261.512 760.335 268.637 769.94L281.82 778.616C285.234 779.87 288.252 780.938 288.252 780.938L289.31 783.577L300.689 788.337C300.689 788.337 311.578 782.92 314.082 770.676C314.736 767.464 315.824 762.936 317.038 758.161C317.434 756.396 314.868 747.674 296.38 742.426Z" fill="#008056" stroke="#502A73" stroke-width="0.51" stroke-linecap="round" stroke-linejoin="round"/>
<path d="M213.461 705.524C213.461 705.524 224.887 696.236 222.242 690.71C211.159 691.337 202.02 695.648 196.949 703.512C195.144 706.313 198.442 711.708 204.244 718.124C209.113 721.359 213.165 723.998 213.165 723.998L213.461 705.524Z" fill="#008056" stroke="#502A73" stroke-width="0.51" stroke-linecap="round" stroke-linejoin="round"/>
<path d="M222.141 702.884C198.131 694.061 190.524 705.384 195.697 720.291C201.966 738.448 221.363 754.136 240.03 767.123C254.893 777.471 270.986 787.803 282.271 790.218C302.416 794.529 307.518 781.132 308.358 778.732C311.702 769.189 309.416 756.287 265.082 731.9C257.04 727.473 236.966 708.333 222.141 702.884Z" fill="#502A73" stroke="#502A73" stroke-width="0.51" stroke-linecap="round" stroke-linejoin="round"/>
<path d="M222.141 702.884C198.131 694.061 190.524 705.384 195.697 720.291C201.966 738.448 221.363 754.136 240.03 767.123C254.893 777.471 270.986 787.803 282.271 790.218C302.416 794.529 307.518 781.132 308.358 778.732C311.702 769.189 309.416 756.287 265.082 731.9C257.04 727.473 236.966 708.333 222.141 702.884Z" stroke="#502A73" stroke-width="0.51" stroke-linecap="round" stroke-linejoin="round"/>
<path d="M291.667 725.36C291.667 725.36 300.596 729.013 305.791 731.552L310.987 734.067L291.044 732.302L291.667 725.36Z" fill="#008056" stroke="#502A73" stroke-width="0.51" stroke-linecap="round" stroke-linejoin="round"/>
<path d="M559.347 678.179C558.997 676.059 558.205 674.035 557.021 672.238C555.836 670.44 554.286 668.91 552.471 667.746L495.935 630.952C493.002 629.042 490.484 626.566 488.53 623.67C486.575 620.775 485.224 617.519 484.556 614.096V614.018C483.251 607.395 482.835 600.628 483.319 593.895C483.716 589.185 483.716 584.45 483.319 579.74C482.269 569.624 475.541 552.798 475.541 552.798L399.49 556.668L374.111 560.592L331.388 571.427L325.625 591.411L309.455 600.35C301.563 604.716 294.972 611.082 290.352 618.801L252.692 691.313C258.541 685.408 279.565 681.639 302.61 695.756C323.003 708.248 335.837 725.445 334.281 736.923L351.509 652.67C352.442 648.089 355.05 644.015 358.828 641.238L420.272 596.016L433.113 650.812C435.486 660.964 440.664 670.253 448.062 677.63L497.459 726.908C506.645 736.048 527.015 730.607 542.936 714.757C554.867 702.845 560.933 688.481 559.347 678.179Z" fill="white" stroke="#502A73" stroke-width="0.51" stroke-linecap="round" stroke-linejoin="round"/>
<path d="M553.521 701.12C554.728 699.05 555.794 696.901 556.71 694.688C545.308 687.552 521.103 672.499 508.783 665.471C491.377 655.533 476.21 643.189 472.733 636.123C468.774 628.081 467.639 622.965 465.562 591.101C464.784 579.492 462.233 554.416 462.21 554.168C462.188 553.905 462.136 553.645 462.054 553.394L455.14 553.742C455.061 554.111 455.04 554.49 455.078 554.865C455.078 555.12 457.652 580.057 458.407 591.543C460.553 624.467 461.899 630.318 466.293 639.234C468.533 643.785 473.612 649.295 481.382 655.549C488.897 661.514 496.865 666.891 505.213 671.632C517.658 678.76 542.438 694.185 553.521 701.12Z" fill="white" stroke="#502A73" stroke-width="0.51" stroke-linecap="round" stroke-linejoin="round"/>
<path d="M259.778 697.869L277.542 703.016C277.954 696.623 278.133 679.263 268.116 676.353C261.24 674.356 250.569 676.175 248.236 682.204C246.626 686.384 248.018 690.873 250.25 694.742C253.486 695.594 256.668 696.638 259.778 697.869Z" fill="#4BBEA5" stroke="#502A73" stroke-width="0.51" stroke-linecap="round" stroke-linejoin="round"/>
<path d="M259.778 697.869L273.085 701.739C273.249 698.685 273.169 695.624 272.844 692.583C272.385 688.651 271.001 681.887 266.848 680.679C264.285 680.016 261.61 679.902 259 680.347C253.128 681.314 250.382 683.628 249.775 685.184C248.609 688.226 250.188 692.026 252.42 695.377C254.913 696.083 257.369 696.915 259.778 697.869Z" fill="#4BBEA5" stroke="#502A73" stroke-width="0.51" stroke-linecap="round" stroke-linejoin="round"/>
<path d="M507.687 713.008C505.034 714.308 497 717.535 496.331 720.887C495.475 725.159 506.73 729.485 511.887 731.227C519.625 730.561 528.694 726.622 537.11 719.927C535.601 719.857 533.221 719.401 532.233 717.334C531.09 715.012 530.958 710.995 529.161 709.355C525.778 706.274 522.534 705.732 507.687 713.008Z" fill="#4BBEA5" stroke="#502A73" stroke-width="0.51" stroke-linecap="round" stroke-linejoin="round"/>
<path d="M533.999 722.241C530.717 722.04 528.298 720.863 527.629 717.473C527.318 716.034 526.517 710.879 522.387 711.909C519.734 712.574 515.674 714.107 509.685 717.04C509.297 717.233 508.799 717.458 508.231 717.721C505.999 718.75 504.241 719.648 502.965 720.399C502.771 720.519 502.608 720.684 502.491 720.88C502.373 721.075 502.305 721.296 502.291 721.524C502.278 721.751 502.319 721.979 502.412 722.187C502.505 722.395 502.647 722.578 502.825 722.721C506.184 725.57 509.968 727.88 514.041 729.57C515.591 730.193 517.308 730.272 518.91 729.795C524.309 728.085 529.401 725.536 533.999 722.241Z" fill="#4BBEA5" stroke="#502A73" stroke-width="0.51" stroke-linecap="round" stroke-linejoin="round"/>
<path d="M481.444 545.415C477.742 537.629 476 534.076 474.087 524.518C472.921 518.895 472.685 513.12 473.387 507.421C473.387 507.421 462.194 489.117 466.667 477.105C471.139 465.093 481.577 464.126 481.577 464.126C473.172 463.27 464.689 463.575 456.369 465.031C443.878 466.99 428.68 472.771 428.68 472.771C428.68 472.771 395.477 478.444 381.142 483.127C380.481 483.343 379.812 483.591 379.151 483.854C366.878 494.364 364.124 507.305 366.707 515.153C369.139 522.412 369.505 530.199 367.764 537.652C366.209 544.718 363.953 553.611 362.11 558.549C360.267 563.487 361.231 568.533 367.453 570.158C367.453 570.158 373.069 571.025 390.942 572.07C408.815 573.115 423.725 570.677 437.57 568.587C451.414 566.497 476 566.521 476 566.521C478.441 566.766 480.884 566.08 482.837 564.601C485.815 562.163 486.515 556.103 481.444 545.415Z" fill="#008056" stroke="#502A73" stroke-width="0.51" stroke-linecap="round" stroke-linejoin="round"/>
<path d="M296.878 499C297.235 494.434 296.582 489.457 297.5 486.052C298.418 482.647 300.821 474.799 295.205 474.303C290.881 473.916 286.821 482.577 286.821 482.577C286.821 482.577 285.149 470.968 283.531 464.482C281.82 457.632 276.259 457.462 274.501 460.728C273.163 463.236 274.501 470.673 274.501 470.673C274.501 470.673 273.342 460.906 268.94 461.649C263.2 462.609 265.385 472.415 265.385 472.415C265.385 472.415 263.052 466.014 259.723 467.338C255.305 469.126 257.328 478.699 257.328 478.699C257.328 478.699 254.084 474.056 251.712 478.003C249.34 481.95 250.841 498.079 256.184 509.983C260.719 520.044 265.385 522.296 265.385 522.296C265.385 522.296 295.555 515.803 296.878 499Z" fill="#BF792A" stroke="#502A73" stroke-width="0.51" stroke-linecap="round" stroke-linejoin="round"/>
<path d="M274.501 470.674L276.259 481.285" stroke="#502A73" stroke-width="0.51" stroke-linecap="round" stroke-linejoin="round"/>
<path d="M265.385 472.415L267.929 483.846" stroke="#502A73" stroke-width="0.51" stroke-linecap="round" stroke-linejoin="round"/>
<path d="M257.328 478.7C258 481.84 258.847 484.94 259.863 487.987L261.271 491.896" fill="#BF792A"/>
<path d="M257.328 478.7C258 481.84 258.847 484.94 259.863 487.987L261.271 491.896" stroke="#502A73" stroke-width="0.51" stroke-linecap="round" stroke-linejoin="round"/>
<path d="M286.821 482.577C285.948 483.589 284.962 484.498 283.881 485.286C282.325 486.369 276.259 491.168 276.694 498.582" fill="#BF792A"/>
<path d="M286.821 482.577C285.948 483.589 284.962 484.498 283.881 485.286C282.325 486.369 276.259 491.168 276.694 498.582" stroke="#502A73" stroke-width="0.51" stroke-linecap="round" stroke-linejoin="round"/>
<path d="M362.149 558.588C363.992 553.611 366.224 544.718 367.803 537.691C369.544 530.238 369.178 522.45 366.745 515.192C364.124 507.344 366.878 494.403 379.19 483.893C353.267 494.21 331.069 538.643 330.898 538.132C330.727 537.621 319.153 517.545 312.495 513.535C305.838 509.526 300.401 511.09 300.401 511.09C300.401 511.09 279.712 523.473 274.54 527.281C269.368 531.089 267.54 533.596 267.594 540.895C267.633 549.47 278.662 571.079 296.372 582.263C314.082 593.447 325.648 591.427 325.648 591.427L367.539 570.228C361.27 568.572 360.305 563.556 362.149 558.588Z" fill="#008056" stroke="#502A73" stroke-width="0.51" stroke-linecap="round" stroke-linejoin="round"/>
<path d="M300.51 510.865L296.108 502.468L265.385 522.297L269.687 531.584L300.51 510.865Z" fill="#008056" stroke="#502A73" stroke-width="0.51" stroke-linecap="round" stroke-linejoin="round"/>
<path d="M330.859 538.093C330.859 538.093 328.526 542.102 327.444 552.024C327.002 557.046 327.243 562.104 328.16 567.062" fill="#008056"/>
<path d="M330.859 538.093C330.859 538.093 328.526 542.102 327.444 552.024C327.002 557.046 327.243 562.104 328.16 567.062" stroke="#502A73" stroke-width="0.51" stroke-linecap="round" stroke-linejoin="round"/>
<path d="M538.316 585.142C538.316 585.142 535.85 598.833 533.408 604.491C531.074 609.971 527.466 616.874 518.949 615.326C517.922 615.141 514.726 617.246 512.33 616.603C510.222 616.046 510.144 614.684 509.04 614.382C507.484 613.949 506.326 615.93 502.234 614.258C499.66 613.198 500.22 611.433 499.123 611.046C498.027 610.659 492.419 611.534 491.486 606.944C491.288 605.165 491.493 603.364 492.084 601.674L493.679 597.494L491.797 595.025C489.673 592.231 490.093 588.749 492.271 585.738C497.381 578.61 507.049 574.423 507.049 574.423C507.049 574.423 512.423 572.968 524.051 573.331C540.68 573.85 538.316 585.142 538.316 585.142Z" fill="#BF792A" stroke="#502A73" stroke-width="0.51" stroke-linecap="round" stroke-linejoin="round"/>
<path d="M493.648 597.518C494.657 595.348 495.898 593.293 497.35 591.388L493.648 597.518Z" fill="#BF792A"/>
<path d="M493.648 597.518C494.657 595.348 495.898 593.293 497.35 591.388" stroke="#502A73" stroke-width="0.51" stroke-linecap="round" stroke-linejoin="round"/>
<path d="M487.744 520.648C503.603 529.804 511.078 528.496 511.078 528.496C511.078 528.496 503.704 539.332 501.091 547.683C497.373 559.501 505.664 567.612 505.664 567.612C505.664 567.612 536.636 574.33 541.893 575.553C547.151 576.776 561.213 554.524 563.298 529.549C565.102 507.971 559.036 502.267 538.456 488.483C517.876 474.698 484.789 464.335 481.6 464.103C481.6 464.103 471.155 465.047 466.69 477.082C462.226 489.117 473.395 507.39 473.395 507.39C473.395 507.39 480.068 516.221 487.744 520.648Z" fill="#008056" stroke="#502A73" stroke-width="0.51" stroke-linecap="round" stroke-linejoin="round"/>
<path d="M505.641 567.612L502.787 576.644L538.316 585.142L541.87 575.553L505.641 567.612Z" fill="#008056" stroke="#502A73" stroke-width="0.51" stroke-linecap="round" stroke-linejoin="round"/>
<path d="M532.879 508.698C532.879 508.698 526.307 511.314 519.12 518.597C516.147 521.657 513.448 524.969 511.055 528.496C511.055 528.496 509.305 527.451 510.09 521.53C510.876 515.609 516.312 509.921 516.312 509.921" fill="#008056"/>
<path d="M532.879 508.698C532.879 508.698 526.307 511.314 519.12 518.597C516.147 521.657 513.448 524.969 511.055 528.496C511.055 528.496 509.305 527.451 510.09 521.53C510.876 515.609 516.312 509.921 516.312 509.921" stroke="#502A73" stroke-width="0.51" stroke-linecap="round" stroke-linejoin="round"/>
<path d="M404.266 486.563C404.266 486.563 395.951 500.711 401.1 505.401C406.249 510.091 415.411 504.016 424.138 504.085C436.582 504.186 436.582 510.192 436.582 510.192" stroke="#502A73" stroke-width="2.56" stroke-linecap="round" stroke-linejoin="round"/>
<path d="M404.266 486.563C404.266 486.563 395.951 500.711 401.1 505.401C406.249 510.091 415.411 504.016 424.138 504.085C436.582 504.186 436.582 510.192 436.582 510.192" stroke="#EEC718" stroke-width="1.54" stroke-linecap="round" stroke-linejoin="round"/>
<path d="M436.621 513.891C437.983 513.891 439.087 512.793 439.087 511.438C439.087 510.083 437.983 508.984 436.621 508.984C435.259 508.984 434.156 510.083 434.156 511.438C434.156 512.793 435.259 513.891 436.621 513.891Z" fill="#EEC718" stroke="#502A73" stroke-width="0.51" stroke-linecap="round" stroke-linejoin="round"/>
<path d="M407.991 475.712C407.991 475.712 396.822 489.372 406.583 492.383C414.252 494.705 422.668 485.069 427.817 480.774C437.477 472.663 447.183 468.027 452.332 466.579C461.826 463.872 471.761 463.038 481.577 464.126C481.577 464.126 490.132 461.464 487.216 451.472C484.299 441.48 467.25 436.697 448.226 444.104C436.822 448.522 426.81 455.888 419.222 465.442" fill="#008056"/>
<path d="M407.991 475.712C407.991 475.712 396.822 489.372 406.583 492.383C414.252 494.705 422.668 485.069 427.817 480.774C437.477 472.663 447.183 468.027 452.332 466.579C461.826 463.872 471.761 463.038 481.577 464.126C481.577 464.126 490.132 461.464 487.216 451.472C484.299 441.48 467.25 436.697 448.226 444.104C436.822 448.522 426.81 455.888 419.222 465.442" stroke="#502A73" stroke-width="0.51" stroke-linecap="round" stroke-linejoin="round"/>
<path d="M418.686 482.19C418.686 482.19 411.328 494.72 415.886 498.876C420.443 503.033 428.563 497.646 436.287 497.708C447.347 497.801 447.347 503.126 447.347 503.126" stroke="#502A73" stroke-width="2.56" stroke-linecap="round" stroke-linejoin="round"/>
<path d="M418.686 482.19C418.686 482.19 411.328 494.72 415.886 498.876C420.443 503.033 428.563 497.646 436.287 497.708C447.347 497.801 447.347 503.126 447.347 503.126" stroke="#EEC718" stroke-width="1.54" stroke-linecap="round" stroke-linejoin="round"/>
<path d="M447.277 507.305C448.638 507.305 449.742 506.207 449.742 504.852C449.742 503.497 448.638 502.398 447.277 502.398C445.915 502.398 444.811 503.497 444.811 504.852C444.811 506.207 445.915 507.305 447.277 507.305Z" fill="#EEC718" stroke="#502A73" stroke-width="0.51" stroke-linecap="round" stroke-linejoin="round"/>
<path d="M410.464 482.678L428.68 468.065C427.739 457.439 425.818 436.704 424.542 431.124C422.489 422.139 421.159 419.786 415.209 418.315C407.213 416.326 394.917 431.031 394.917 431.031C394.917 431.031 394.077 439.7 393.703 444.382C393.679 444.955 393.456 445.502 393.073 445.93L388.889 450.636C388.729 450.841 388.621 451.082 388.573 451.338C388.526 451.593 388.541 451.857 388.618 452.105C388.694 452.354 388.829 452.581 389.011 452.767C389.194 452.953 389.419 453.093 389.667 453.174L392.848 454.451C393.517 454.761 393.439 455.45 392.747 456.611C391.774 458.251 393.384 459.087 393.758 459.265C394.097 459.465 394.468 459.607 394.854 459.683L394.924 462.864C394.924 462.864 393.789 463.127 393.688 464.025C393.571 465.109 394.115 465.457 394.178 466.092C394.333 467.547 394.473 468.212 394.613 469.187C394.737 470.067 395.206 470.861 395.917 471.397C396.629 471.932 397.525 472.165 398.409 472.043L406.964 470.875L409.515 483.095L410.464 482.678Z" fill="#BF792A" stroke="#502A73" stroke-width="0.51" stroke-linecap="round" stroke-linejoin="round"/>
<path d="M403.721 458.53C403.949 458.608 404.191 458.637 404.431 458.614C404.672 458.591 404.904 458.518 405.113 458.399C404.109 457.365 403.033 456.403 401.893 455.52C401.178 455.14 399.296 455.28 396.581 455.52C395.479 455.615 394.368 455.504 393.307 455.194C393.239 455.715 393.047 456.211 392.747 456.642C392.684 456.742 392.638 456.851 392.591 456.944C393.64 457.336 394.74 457.576 395.858 457.656C397.705 457.742 399.555 457.636 401.38 457.338C402.139 457.776 402.921 458.173 403.721 458.53Z" fill="#502A73" stroke="#502A73" stroke-width="0.51" stroke-linecap="round" stroke-linejoin="round"/>
<path d="M403.721 458.53C403.949 458.608 404.191 458.637 404.431 458.614C404.672 458.591 404.904 458.518 405.113 458.399C404.109 457.365 403.033 456.403 401.893 455.52C401.178 455.14 399.296 455.28 396.581 455.52C395.479 455.615 394.368 455.504 393.307 455.194C393.239 455.715 393.047 456.211 392.747 456.642C392.684 456.742 392.638 456.851 392.591 456.944C393.64 457.336 394.74 457.576 395.858 457.656C397.705 457.742 399.555 457.636 401.38 457.338C402.139 457.776 402.921 458.173 403.721 458.53Z" stroke="#502A73" stroke-width="0.51" stroke-linecap="round" stroke-linejoin="round"/>
<path d="M405.565 433.191C406.49 432.881 403.846 433.562 404.421 433.555C405.284 433.556 406.146 433.512 407.003 433.423L407.781 434.483C408.559 435.544 412.821 433.709 412.953 433.833C413.086 433.957 409.998 437.146 410.247 438.438C410.496 439.731 412.37 438.949 412.51 439.321C412.65 439.692 409.835 442.703 410.122 443.523C410.253 443.786 410.438 444.018 410.666 444.204C410.894 444.389 411.16 444.524 411.445 444.599C411.445 444.599 410.542 448.19 413.226 449.343C415.909 450.497 416.71 448.693 416.881 443.926C416.936 442.471 417.846 441.356 418.841 441.735C420.63 442.409 422.948 446.054 422.948 446.054C422.948 446.054 424.885 452.648 427.373 453.5C426.479 444.375 425.413 434.801 424.558 431.055C422.505 422.069 421.175 419.716 415.225 418.246C410.558 417.085 404.095 419.577 398.837 422.657C397.725 423.307 397.281 421.806 393.392 421.883C390.281 421.93 388.547 427.719 391.463 430.946C393.556 433.33 402.275 434.313 405.565 433.191Z" fill="#502A73" stroke="#502A73" stroke-width="0.51" stroke-linecap="round" stroke-linejoin="round"/>
<path d="M405.565 433.191C406.49 432.881 403.846 433.562 404.421 433.555C405.284 433.556 406.146 433.512 407.003 433.423L407.781 434.483C408.559 435.544 412.821 433.709 412.953 433.833C413.086 433.957 409.998 437.146 410.247 438.438C410.496 439.731 412.37 438.949 412.51 439.321C412.65 439.692 409.835 442.703 410.122 443.523C410.253 443.786 410.438 444.018 410.666 444.204C410.894 444.389 411.16 444.524 411.445 444.599C411.445 444.599 410.542 448.19 413.226 449.343C415.909 450.497 416.71 448.693 416.881 443.926C416.936 442.471 417.846 441.356 418.841 441.735C420.63 442.409 422.948 446.054 422.948 446.054C422.948 446.054 424.885 452.648 427.373 453.5C426.479 444.375 425.413 434.801 424.558 431.055C422.505 422.069 421.175 419.716 415.225 418.246C410.558 417.085 404.095 419.577 398.837 422.657C397.725 423.307 397.281 421.806 393.392 421.883C390.281 421.93 388.547 427.719 391.463 430.946C393.556 433.33 402.275 434.313 405.565 433.191Z" stroke="#502A73" stroke-width="0.51" stroke-linecap="round" stroke-linejoin="round"/>
<path d="M417.519 445.264C417.536 444.497 417.692 443.74 417.978 443.028C419.004 440.884 421.291 439.823 423.422 440.845C425.553 441.867 426.106 444.32 425.584 446.642C425.192 448.613 424.182 450.409 422.699 451.773C421.727 452.586 420.661 452.903 419.72 452.454" fill="#BF792A"/>
<path d="M417.519 445.264C417.536 444.497 417.692 443.74 417.978 443.028C419.004 440.884 421.291 439.823 423.422 440.845C425.553 441.867 426.106 444.32 425.584 446.642C425.192 448.613 424.182 450.409 422.699 451.773C421.727 452.586 420.661 452.903 419.72 452.454" stroke="#502A73" stroke-width="0.51" stroke-linecap="round" stroke-linejoin="round"/>
<path d="M416.772 450.791C416.566 451.158 416.277 451.473 415.927 451.709C415.577 451.946 415.177 452.098 414.758 452.153C413.436 452.222 412.012 450.853 412.012 450.853" stroke="#502A73" stroke-width="0.51" stroke-linecap="round" stroke-linejoin="round"/>
<path d="M416.632 453.012C416.426 453.379 416.137 453.694 415.787 453.93C415.437 454.167 415.037 454.319 414.618 454.374C413.296 454.452 411.872 453.074 411.872 453.074" stroke="#502A73" stroke-width="0.51" stroke-linecap="round" stroke-linejoin="round"/>
<path d="M419.65 445.543C419.65 445.543 420.21 443.035 422.333 444.042C423.702 444.692 423.368 446.967 422.084 447.64C421.52 447.853 420.9 447.867 420.327 447.679C420.513 447.816 420.648 448.01 420.71 448.232C420.772 448.454 420.757 448.689 420.669 448.902C420.226 449.777 419.253 449.041 419.253 449.041" fill="#BF792A"/>
<path d="M419.65 445.543C419.65 445.543 420.21 443.035 422.333 444.042C423.702 444.692 423.368 446.967 422.084 447.64C421.52 447.853 420.9 447.867 420.327 447.679C420.513 447.816 420.648 448.01 420.71 448.232C420.772 448.454 420.757 448.689 420.669 448.902C420.226 449.777 419.253 449.041 419.253 449.041" stroke="#502A73" stroke-width="0.51" stroke-linecap="round" stroke-linejoin="round"/>
<path d="M401.543 459.947C401.438 459.771 401.28 459.633 401.092 459.552C400.903 459.472 400.694 459.453 400.493 459.498C399.371 459.716 398.236 459.861 397.094 459.931C396.338 459.966 395.58 459.888 394.847 459.699L394.932 462.934C394.942 463.227 395.057 463.506 395.257 463.721C395.457 463.936 395.729 464.071 396.021 464.103C396.722 464.159 397.426 464.069 398.09 463.84C400.602 463.066 401.854 460.512 401.543 459.947Z" fill="white" stroke="#502A73" stroke-width="0.51" stroke-linecap="round" stroke-linejoin="round"/>
<path d="M400.439 443.964C401.171 443.793 401.938 443.834 402.648 444.08" stroke="#502A73" stroke-width="1.02" stroke-linecap="round" stroke-linejoin="round"/>
<path d="M400.758 443.957C400.492 444.456 400.343 445.009 400.322 445.574C400.268 446.518 400.594 446.983 401.022 447.006C401.45 447.029 401.8 446.596 401.878 445.659C401.914 445.094 401.821 444.527 401.606 444.003L400.758 443.957Z" fill="#502A73"/>
<path d="M393.501 443.593C394.234 443.42 395.001 443.463 395.71 443.717" stroke="#502A73" stroke-width="1.02" stroke-linecap="round" stroke-linejoin="round"/>
<path d="M393.828 443.585C393.561 444.085 393.409 444.637 393.384 445.203C393.338 446.147 393.657 446.619 394.084 446.642C394.512 446.665 394.862 446.232 394.94 445.288C394.975 444.723 394.884 444.158 394.676 443.632L393.828 443.585Z" fill="#502A73"/>
<path d="M398.222 440.954C398.264 441.045 398.325 441.126 398.402 441.191C398.478 441.257 398.567 441.305 398.663 441.334C398.76 441.362 398.861 441.37 398.961 441.357C399.06 441.343 399.156 441.309 399.241 441.256C399.647 440.974 400.105 440.777 400.589 440.676C401.073 440.575 401.572 440.572 402.057 440.667C402.573 440.768 403.073 440.94 403.542 441.178C403.638 441.227 403.744 441.251 403.851 441.247C403.958 441.243 404.063 441.213 404.155 441.158C404.247 441.103 404.323 441.025 404.377 440.933C404.43 440.84 404.459 440.735 404.46 440.629C404.462 440.536 404.444 440.445 404.406 440.361C404.368 440.276 404.312 440.201 404.242 440.141C403.458 439.391 402.413 438.972 401.326 438.972C400.238 438.972 399.193 439.391 398.409 440.141C398.296 440.24 398.217 440.371 398.184 440.517C398.15 440.663 398.164 440.816 398.222 440.954Z" fill="#502A73"/>
<path d="M395.166 439.235C394.86 439.124 394.531 439.092 394.209 439.143L394.053 440.783C394.221 440.729 394.399 440.71 394.575 440.729C394.98 440.781 395.37 440.918 395.718 441.132C395.803 441.179 395.897 441.209 395.994 441.22C396.091 441.23 396.19 441.22 396.283 441.191C396.376 441.162 396.463 441.114 396.537 441.051C396.611 440.987 396.671 440.91 396.713 440.822C396.779 440.682 396.797 440.524 396.767 440.372C396.736 440.221 396.657 440.083 396.542 439.978C396.133 439.649 395.667 439.397 395.166 439.235Z" fill="#502A73"/>
<path d="M423.508 427.022C423.01 427.293 422.458 427.719 421.804 428.021C408.815 433.949 397.413 432.959 394.8 432.564C394.668 433.949 394.465 436.116 394.263 438.369C398.902 439.034 403.608 439.097 408.263 438.554C414.937 437.897 421.485 435.404 425.009 433.841C424.838 432.742 424.667 431.813 424.511 431.124C424.184 429.561 423.889 428.207 423.508 427.022Z" fill="#008056" stroke="#502A73" stroke-width="0.51" stroke-linecap="round" stroke-linejoin="round"/>
<path d="M407.633 485.619C407.633 485.619 416.539 472.608 430.656 465.836C441.195 460.775 452.923 458.654 464.427 458.654C477.649 458.654 478.427 450.032 472.142 447.942C465.858 445.853 455.778 450.79 455.778 450.79" fill="#008056"/>
<path d="M407.633 485.619C407.633 485.619 416.539 472.608 430.656 465.836C441.195 460.775 452.923 458.654 464.427 458.654C477.649 458.654 478.427 450.032 472.142 447.942C465.858 445.853 455.778 450.79 455.778 450.79" stroke="#502A73" stroke-width="0.51" stroke-linecap="round" stroke-linejoin="round"/>
<path d="M387.232 497.151C386.348 496.993 385.437 497.059 384.585 497.343C383.733 497.627 382.966 498.12 382.356 498.776C382.138 498.59 380.52 497.367 377.494 498.83C374.593 500.231 373.722 503.195 374.22 504.511C374.484 505.2 375.146 504.333 376.242 503.335C377.798 501.918 378.762 502.445 378.762 502.445C378.762 502.445 376.39 503.567 375.503 505.254C374.617 506.941 375.713 509.008 376.709 507.576C378.358 505.208 379.361 505.022 379.361 505.022C378.714 505.695 378.2 506.482 377.844 507.344C377.347 508.636 377.704 509.836 378.537 509.728C379.042 509.658 381.329 504.999 381.002 507.707C380.615 510.408 380.49 513.14 380.629 515.865C380.699 516.724 381.236 517.281 381.866 517.173L382.441 517.072C382.808 516.951 383.128 516.718 383.356 516.408C383.585 516.097 383.711 515.724 383.717 515.339C383.914 512.651 383.849 509.95 383.522 507.274C383.258 504.674 385.443 508.574 385.949 508.466C386.789 508.296 387.17 506.965 386.727 505.842C386.402 505.131 385.895 504.517 385.257 504.062C385.257 504.062 386.268 503.907 387.87 505.711C388.834 506.81 389.978 504.364 389.122 502.971C388.267 501.578 385.918 501.253 385.918 501.253C386.286 500.996 386.727 500.862 387.176 500.869C387.626 500.876 388.062 501.024 388.422 501.291C389.503 501.926 390.149 502.568 390.429 501.787C390.579 501.27 390.613 500.727 390.527 500.196C390.441 499.665 390.238 499.16 389.932 498.717C389.626 498.273 389.225 497.903 388.759 497.632C388.292 497.361 387.771 497.197 387.232 497.151Z" fill="#EEC718" stroke="#502A73" stroke-width="0.51" stroke-linecap="round" stroke-linejoin="round"/>
<path d="M499.333 513.234C501.612 503.466 505.035 499.016 505.035 499.016L498.812 494.163C498.812 494.163 494.146 499.194 491.548 510.192C490.572 514.081 490.181 518.092 490.389 522.096C492.908 523.47 495.505 524.698 498.167 525.772C498.031 521.56 498.423 517.349 499.333 513.234Z" fill="#4BBEA5" stroke="#502A73" stroke-width="0.51" stroke-linecap="round" stroke-linejoin="round"/>
<path d="M490.976 473.921L487.526 480.23C485.001 484.848 486.717 490.629 491.358 493.141L510.269 503.38C514.91 505.893 520.719 504.186 523.244 499.568L526.694 493.259C529.219 488.641 527.503 482.86 522.862 480.347L503.951 470.108C499.31 467.596 493.501 469.302 490.976 473.921Z" fill="#4BBEA5" stroke="#502A73" stroke-width="0.51" stroke-linecap="round" stroke-linejoin="round"/>
<path d="M492.238 471.606L488.788 477.915C486.263 482.533 487.979 488.314 492.62 490.827L511.531 501.065C516.172 503.578 521.981 501.871 524.506 497.253L527.956 490.944C530.481 486.326 528.765 480.545 524.124 478.032L505.213 467.794C500.572 465.281 494.763 466.988 492.238 471.606Z" fill="#4BBEA5" stroke="#502A73" stroke-width="0.51" stroke-linecap="round" stroke-linejoin="round"/>
<path d="M520.893 483.392L502.446 473.405C500.718 472.469 498.555 473.105 497.615 474.825L494.418 480.671C493.478 482.391 494.116 484.543 495.845 485.479L514.291 495.466C516.019 496.402 518.182 495.766 519.122 494.047L522.319 488.2C523.26 486.48 522.621 484.328 520.893 483.392Z" fill="#502A73" stroke="#502A73" stroke-width="0.51" stroke-linecap="round" stroke-linejoin="round"/>
<path d="M520.893 483.392L502.446 473.405C500.718 472.469 498.555 473.105 497.615 474.825L494.418 480.671C493.478 482.391 494.116 484.543 495.845 485.479L514.291 495.466C516.019 496.402 518.182 495.766 519.122 494.047L522.319 488.2C523.26 486.48 522.621 484.328 520.893 483.392Z" stroke="#502A73" stroke-width="0.51" stroke-linecap="round" stroke-linejoin="round"/>
<path d="M420.257 596.001C415.404 595.421 410.653 594.189 406.132 592.34C400.993 590.365 395.622 589.047 390.149 588.416" fill="white"/>
<path d="M420.257 596.001C415.404 595.421 410.653 594.189 406.132 592.34C400.993 590.365 395.622 589.047 390.149 588.416" stroke="#502A73" stroke-width="0.51" stroke-linecap="round" stroke-linejoin="round"/>
<path d="M403.387 591.334L339.368 622.996C332.621 626.338 327.344 632.032 324.543 638.994L301.894 695.361" fill="white"/>
<path d="M403.387 591.334L339.368 622.996C332.621 626.338 327.344 632.032 324.543 638.994L301.894 695.361" stroke="#502A73" stroke-width="0.51" stroke-linecap="round" stroke-linejoin="round"/>
</svg>
