<svg width="489" height="313" viewBox="0 0 489 313" fill="none" xmlns="http://www.w3.org/2000/svg">
<path d="M320.482 69.1103C363.065 69.1103 397.585 34.5869 397.585 -7.99989C397.585 -50.5867 363.065 -85.1101 320.482 -85.1101C277.899 -85.1101 243.378 -50.5867 243.378 -7.99989C243.378 34.5869 277.899 69.1103 320.482 69.1103Z" stroke="#048057" stroke-width="0.7541" stroke-miterlimit="10"/>
<path d="M320.483 79.237C368.658 79.237 407.712 40.1798 407.712 -7.99976C407.712 -56.1793 368.658 -95.2366 320.483 -95.2366C272.307 -95.2366 233.253 -56.1793 233.253 -7.99976C233.253 40.1798 272.307 79.237 320.483 79.237Z" stroke="#048057" stroke-width="0.7541" stroke-miterlimit="10"/>
<path d="M320.483 89.3535C374.245 89.3535 417.828 45.7668 417.828 -8.00002C417.828 -61.7669 374.245 -105.354 320.483 -105.354C266.721 -105.354 223.138 -61.7669 223.138 -8.00002C223.138 45.7668 266.721 89.3535 320.483 89.3535Z" stroke="#048057" stroke-width="0.7541" stroke-miterlimit="10"/>
<path d="M320.482 99.47C379.831 99.47 427.943 51.3539 427.943 -8.00024C427.943 -67.3544 379.831 -115.47 320.482 -115.47C261.133 -115.47 213.021 -67.3544 213.021 -8.00024C213.021 51.3539 261.133 99.47 320.482 99.47Z" stroke="#048057" stroke-width="0.7541" stroke-miterlimit="10"/>
<path d="M320.483 109.597C385.424 109.597 438.069 56.947 438.069 -7.9999C438.069 -72.9468 385.424 -125.597 320.483 -125.597C255.541 -125.597 202.896 -72.9468 202.896 -7.9999C202.896 56.947 255.541 109.597 320.483 109.597Z" stroke="#048057" stroke-width="0.7541" stroke-miterlimit="10"/>
<path d="M320.482 119.714C391.01 119.714 448.185 62.5343 448.185 -7.99987C448.185 -78.5341 391.01 -135.713 320.482 -135.713C249.954 -135.713 192.78 -78.5341 192.78 -7.99987C192.78 62.5343 249.954 119.714 320.482 119.714Z" stroke="#048057" stroke-width="0.7541" stroke-miterlimit="10"/>
<path d="M320.481 129.83C396.596 129.83 458.3 68.1216 458.3 -7.99988C458.3 -84.1214 396.596 -145.83 320.481 -145.83C244.366 -145.83 182.663 -84.1214 182.663 -7.99988C182.663 68.1216 244.366 129.83 320.481 129.83Z" stroke="#048057" stroke-width="0.7541" stroke-miterlimit="10"/>
<path d="M320.482 139.957C402.189 139.957 468.426 73.7143 468.426 -8C468.426 -89.7143 402.189 -155.957 320.482 -155.957C238.775 -155.957 172.538 -89.7143 172.538 -8C172.538 73.7143 238.775 139.957 320.482 139.957Z" stroke="#048057" stroke-width="0.7541" stroke-miterlimit="10"/>
<path d="M320.482 150.074C407.776 150.074 478.542 79.3018 478.542 -7.99976C478.542 -95.3013 407.776 -166.073 320.482 -166.073C233.188 -166.073 162.422 -95.3013 162.422 -7.99976C162.422 79.3018 233.188 150.074 320.482 150.074Z" stroke="#048057" stroke-width="0.7541" stroke-miterlimit="10"/>
<path d="M320.482 160.19C413.363 160.19 488.658 84.8889 488.658 -8C488.658 -100.889 413.363 -176.19 320.482 -176.19C227.601 -176.19 152.307 -100.889 152.307 -8C152.307 84.8889 227.601 160.19 320.482 160.19Z" stroke="#048057" stroke-width="0.7541" stroke-miterlimit="10"/>
<path d="M320.482 170.317C418.955 170.317 498.783 90.4818 498.783 -7.99988C498.783 -106.482 418.955 -186.317 320.482 -186.317C222.009 -186.317 142.181 -106.482 142.181 -7.99988C142.181 90.4818 222.009 170.317 320.482 170.317Z" stroke="#048057" stroke-width="0.7541" stroke-miterlimit="10"/>
<path d="M320.482 180.434C424.542 180.434 508.899 96.0691 508.899 -7.99986C508.899 -112.069 424.542 -196.433 320.482 -196.433C216.422 -196.433 132.065 -112.069 132.065 -7.99986C132.065 96.0691 216.422 180.434 320.482 180.434Z" stroke="#048057" stroke-width="0.7541" stroke-miterlimit="10"/>
<path d="M320.482 190.56C430.134 190.56 519.025 101.662 519.025 -8C519.025 -117.662 430.134 -206.56 320.482 -206.56C210.83 -206.56 121.939 -117.662 121.939 -8C121.939 101.662 210.83 190.56 320.482 190.56Z" stroke="#048057" stroke-width="0.7541" stroke-miterlimit="10"/>
<path d="M320.482 200.677C435.721 200.677 529.141 107.249 529.141 -8C529.141 -123.249 435.721 -216.677 320.482 -216.677C205.243 -216.677 111.823 -123.249 111.823 -8C111.823 107.249 205.243 200.677 320.482 200.677Z" stroke="#048057" stroke-width="0.7541" stroke-miterlimit="10"/>
<path d="M320.482 210.793C441.308 210.793 539.257 112.836 539.257 -8.00002C539.257 -128.836 441.308 -226.793 320.482 -226.793C199.656 -226.793 101.708 -128.836 101.708 -8.00002C101.708 112.836 199.656 210.793 320.482 210.793Z" stroke="#048057" stroke-width="0.7541" stroke-miterlimit="10"/>
<path d="M320.482 220.92C446.9 220.92 549.382 118.429 549.382 -7.99988C549.382 -134.429 446.9 -236.92 320.482 -236.92C194.064 -236.92 91.5815 -134.429 91.5815 -7.99988C91.5815 118.429 194.064 220.92 320.482 220.92Z" stroke="#048057" stroke-width="0.7541" stroke-miterlimit="10"/>
<path d="M320.482 231.037C452.487 231.037 559.498 124.016 559.498 -8.00014C559.498 -140.016 452.487 -247.037 320.482 -247.037C188.477 -247.037 81.4658 -140.016 81.4658 -8.00014C81.4658 124.016 188.477 231.037 320.482 231.037Z" stroke="#048057" stroke-width="0.7541" stroke-miterlimit="10"/>
<path d="M320.481 241.153C458.073 241.153 569.613 129.604 569.613 -8.00012C569.613 -145.604 458.073 -257.154 320.481 -257.154C182.89 -257.154 71.3496 -145.604 71.3496 -8.00012C71.3496 129.604 182.89 241.153 320.481 241.153Z" stroke="#048057" stroke-width="0.7541" stroke-miterlimit="10"/>
<path d="M320.482 251.28C463.666 251.28 579.74 135.196 579.74 -8C579.74 -151.196 463.666 -267.28 320.482 -267.28C177.298 -267.28 61.2246 -151.196 61.2246 -8C61.2246 135.196 177.298 251.28 320.482 251.28Z" stroke="#048057" stroke-width="0.7541" stroke-miterlimit="10"/>
<path d="M320.482 261.397C469.253 261.397 589.856 140.784 589.856 -7.99976C589.856 -156.783 469.253 -277.396 320.482 -277.396C171.711 -277.396 51.1089 -156.783 51.1089 -7.99976C51.1089 140.784 171.711 261.397 320.482 261.397Z" stroke="#048057" stroke-width="0.7541" stroke-miterlimit="10"/>
<path d="M320.481 271.513C474.839 271.513 599.971 146.371 599.971 -8.00024C599.971 -162.371 474.839 -287.514 320.481 -287.514C166.124 -287.514 40.9922 -162.371 40.9922 -8.00024C40.9922 146.371 166.124 271.513 320.481 271.513Z" stroke="#048057" stroke-width="0.7541" stroke-miterlimit="10"/>
<path d="M320.482 281.64C480.432 281.64 610.097 151.964 610.097 -7.99991C610.097 -167.964 480.432 -297.64 320.482 -297.64C160.532 -297.64 30.8672 -167.964 30.8672 -7.99991C30.8672 151.964 160.532 281.64 320.482 281.64Z" stroke="#048057" stroke-width="0.7541" stroke-miterlimit="10"/>
<path d="M320.482 291.757C486.019 291.757 620.213 157.551 620.213 -7.99985C620.213 -173.551 486.019 -307.757 320.482 -307.757C154.946 -307.757 20.7515 -173.551 20.7515 -7.99985C20.7515 157.551 154.946 291.757 320.482 291.757Z" stroke="#048057" stroke-width="0.7541" stroke-miterlimit="10"/>
<path d="M320.481 301.873C491.605 301.873 630.328 163.138 630.328 -8.00012C630.328 -179.138 491.605 -317.874 320.481 -317.874C149.358 -317.874 10.6348 -179.138 10.6348 -8.00012C10.6348 163.138 149.358 301.873 320.481 301.873Z" stroke="#048057" stroke-width="0.7541" stroke-miterlimit="10"/>
<path d="M320.482 312C497.198 312 640.454 168.731 640.454 -8C640.454 -184.731 497.198 -328 320.482 -328C143.766 -328 0.509766 -184.731 0.509766 -8C0.509766 168.731 143.766 312 320.482 312Z" stroke="#048057" stroke-width="0.7541" stroke-miterlimit="10"/>
</svg>
