<svg width="54" height="54" viewBox="0 0 54 54" fill="none" xmlns="http://www.w3.org/2000/svg">
<circle cx="27" cy="27" r="27" fill="#F3F3F3"/>
<path d="M40.7862 15.2126C40.7272 14.1317 39.8675 13.2721 38.7866 13.2131C36.6054 13.0939 32.3373 13.2098 28.2561 15.3208C26.1755 16.397 23.9751 18.2215 22.2191 20.3267C22.1975 20.3526 22.1764 20.3787 22.155 20.4047L18.1698 20.7125C17.5138 20.7632 16.9296 21.1071 16.5668 21.6558L13.848 25.768C13.5728 26.1842 13.5291 26.705 13.7309 27.1612C13.9327 27.6174 14.3475 27.9354 14.8405 28.0117L18.198 28.5318C18.1861 28.597 18.1742 28.6622 18.1633 28.7275C18.0516 29.3961 18.2731 30.0836 18.756 30.5664L23.4327 35.2432C23.8331 35.6436 24.3741 35.8643 24.9285 35.8643C25.0426 35.8643 25.1574 35.8549 25.2717 35.8358C25.337 35.8249 25.4022 35.813 25.4675 35.8012L25.9875 39.1587C26.0639 39.6517 26.3818 40.0665 26.8379 40.2683C27.0277 40.3523 27.2286 40.3937 27.4285 40.3937C27.7093 40.3937 27.9881 40.312 28.2311 40.1513L32.3434 37.4324C32.8922 37.0696 33.236 36.4853 33.2866 35.8294L33.5944 31.8443C33.6204 31.8228 33.6465 31.8018 33.6725 31.7801C35.7777 30.0241 37.6023 27.8238 38.6784 25.7432C40.7895 21.6618 40.9052 17.3936 40.7862 15.2126ZM31.4641 36.1023L27.5304 38.7031L27.0236 35.4309C28.6861 34.9421 30.3307 34.1592 31.8975 33.1104L31.697 35.7065C31.6845 35.8684 31.5995 36.0127 31.4641 36.1023ZM24.5602 34.1157L19.8834 29.439C19.7641 29.3196 19.7089 29.1519 19.736 28.9904C19.875 28.159 20.0911 27.3675 20.3585 26.6219L27.3757 33.6392C26.4803 33.9599 25.6782 34.1512 25.0088 34.2632C24.847 34.2901 24.6795 34.2351 24.5602 34.1157ZM18.2926 22.3023L20.8887 22.1017C19.8398 23.6685 19.0569 25.3131 18.5681 26.9756L15.296 26.4689L17.8968 22.5352C17.9864 22.3996 18.1307 22.3148 18.2926 22.3023ZM32.6513 30.5556C31.3633 31.6299 30.1131 32.407 28.9607 32.9693L21.0296 25.0382C21.7662 23.5339 22.6651 22.2812 23.4435 21.348C25.0686 19.3998 27.0897 17.7192 28.9887 16.737C32.7343 14.7995 36.6807 14.6952 38.6998 14.8051C38.967 14.8197 39.1796 15.0322 39.1941 15.2995C39.3042 17.3186 39.1997 21.2649 37.2622 25.0106C36.2801 26.9095 34.5994 28.9306 32.6513 30.5556Z" fill="#EEC718"/>
<path d="M32.2949 25.7406C33.3285 25.7405 34.3626 25.3468 35.1495 24.5595C35.912 23.7966 36.3319 22.7824 36.3319 21.7036C36.3319 20.6247 35.912 19.6105 35.1495 18.8476C33.5754 17.2727 31.0142 17.2729 29.4403 18.8476C28.6777 19.6105 28.2578 20.6247 28.2578 21.7036C28.2578 22.7824 28.6778 23.7966 29.4403 24.5595C30.2274 25.3469 31.2609 25.7407 32.2949 25.7406ZM30.582 19.99C31.0542 19.5175 31.6745 19.2813 32.2948 19.2813C32.9151 19.2813 33.5354 19.5175 34.0075 19.99C34.465 20.4477 34.717 21.0562 34.717 21.7035C34.717 22.3508 34.465 22.9594 34.0075 23.4171C33.0632 24.362 31.5264 24.3619 30.582 23.4171C30.1245 22.9594 29.8725 22.3508 29.8725 21.7036C29.8725 21.0563 30.1245 20.4477 30.582 19.99Z" fill="#EEC718"/>
<path d="M14.4006 35.6089C14.6042 35.6089 14.8077 35.5313 14.9629 35.376L17.5591 32.7798C17.8697 32.4693 17.8697 31.9658 17.5591 31.6553C17.2486 31.3447 16.7451 31.3447 16.4345 31.6553L13.8384 34.2514C13.5278 34.562 13.5278 35.0654 13.8384 35.376C13.9936 35.5313 14.1971 35.6089 14.4006 35.6089Z" fill="#EEC718"/>
<path d="M19.9515 34.0478C19.6412 33.7373 19.1379 33.7373 18.8275 34.0478L13.8383 39.037C13.5279 39.3474 13.5279 39.8506 13.8383 40.161C13.9935 40.3162 14.1969 40.3938 14.4003 40.3938C14.6037 40.3938 14.8071 40.3162 14.9623 40.161L19.9515 35.1718C20.2619 34.8614 20.2619 34.3582 19.9515 34.0478Z" fill="#EEC718"/>
<path d="M21.2198 36.4399L18.6235 39.0361C18.313 39.3466 18.313 39.8501 18.6235 40.1606C18.7788 40.3159 18.9823 40.3936 19.1858 40.3936C19.3893 40.3936 19.5928 40.316 19.7481 40.1606L22.3443 37.5645C22.6548 37.2539 22.6548 36.7505 22.3443 36.4399C22.0338 36.1294 21.5302 36.1294 21.2198 36.4399Z" fill="#EEC718"/>
</svg>
