<svg width="127" height="127" viewBox="0 0 127 127" fill="none" xmlns="http://www.w3.org/2000/svg">
<circle cx="63.5" cy="63.5" r="63.5" fill="#EEC718"/>
<path d="M95.925 35.7777C95.7864 33.2355 93.7645 31.2139 91.2223 31.0751C86.0925 30.7949 76.0545 31.0675 66.456 36.0321C61.5629 38.5631 56.3879 42.8542 52.258 47.8052C52.2071 47.8662 52.1576 47.9275 52.1071 47.9887L42.7347 48.7127C41.1919 48.8319 39.8178 49.6405 38.9645 50.931L32.5703 60.6025C31.9232 61.5812 31.8203 62.8061 32.2949 63.879C32.7697 64.952 33.7452 65.6997 34.9045 65.8794L42.8009 67.1024C42.773 67.2559 42.745 67.4092 42.7194 67.5627C42.4565 69.1352 42.9775 70.752 44.1133 71.8876L55.1123 82.8867C56.0539 83.8283 57.3263 84.3474 58.63 84.3474C58.8985 84.3474 59.1685 84.3253 59.4373 84.2804C59.5908 84.2548 59.7441 84.2268 59.8976 84.1989L61.1206 92.0954C61.3003 93.2548 62.048 94.2304 63.1208 94.705C63.5671 94.9025 64.0395 95 64.5098 95C65.1701 94.9999 65.8259 94.8076 66.3974 94.4298L76.0689 88.0354C77.3595 87.182 78.168 85.8079 78.287 84.2653L79.011 74.8929C79.0721 74.8424 79.1336 74.7929 79.1946 74.7421C84.1458 70.6122 88.437 65.4372 90.9679 60.544C95.9328 50.9452 96.2049 40.9071 95.925 35.7777ZM74.0008 84.9072L64.7494 91.0238L63.5574 83.3282C67.4674 82.1785 71.3353 80.3373 75.0201 77.8707L74.5485 83.9763C74.5191 84.3572 74.3194 84.6965 74.0008 84.9072ZM57.7639 80.2351L46.7648 69.236C46.4842 68.9552 46.3544 68.5608 46.418 68.181C46.745 66.2256 47.2532 64.3642 47.8822 62.6107L64.3856 79.1142C62.2796 79.8686 60.3933 80.3186 58.8189 80.5818C58.4384 80.6451 58.0445 80.5157 57.7639 80.2351ZM43.0235 52.4515L49.129 51.9799C46.6623 55.6648 44.821 59.5326 43.6714 63.4426L35.9759 62.2507L42.0927 52.9993C42.3034 52.6805 42.6428 52.4809 43.0235 52.4515ZM76.7929 71.8622C73.7638 74.3888 70.8234 76.2163 68.1131 77.5387L49.4605 58.8861C51.1928 55.3481 53.3069 52.402 55.1376 50.2073C58.9595 45.6254 63.7129 41.6728 68.179 39.3628C76.9883 34.8062 86.2696 34.5608 91.0181 34.8193C91.6466 34.8536 92.1465 35.3535 92.1808 35.9821C92.4396 40.7306 92.1938 50.0118 87.6371 58.8211C85.3273 63.2871 81.3746 68.0403 76.7929 71.8622Z" fill="#008056"/>
<path d="M75.9565 60.5383C78.3874 60.5381 80.8194 59.6122 82.6701 57.7606C84.4635 55.9665 85.4509 53.5811 85.4509 51.0439C85.4509 48.5067 84.4633 46.1212 82.6701 44.3271C78.9681 40.6233 72.9446 40.6235 69.2429 44.3271C67.4495 46.1212 66.4619 48.5067 66.4619 51.0439C66.4619 53.5811 67.4496 55.9665 69.2429 57.7606C71.094 59.6126 73.5247 60.5386 75.9565 60.5383ZM71.9281 47.0138C73.0387 45.9026 74.4974 45.3471 75.9562 45.3471C77.4151 45.3471 78.8739 45.9026 79.9844 47.0138C81.0604 48.0902 81.6529 49.5214 81.6529 51.0437C81.6529 52.566 81.0604 53.9974 79.9844 55.0738C77.7634 57.296 74.1492 57.2959 71.928 55.0738C70.8521 53.9974 70.2595 52.5661 70.2595 51.0439C70.2595 49.5216 70.8522 48.0902 71.9281 47.0138Z" fill="#008056"/>
<path d="M33.8701 83.747C34.3488 83.747 34.8274 83.5645 35.1925 83.1992L41.2984 77.0934C42.0287 76.3631 42.0287 75.179 41.2984 74.4486C40.5681 73.7183 39.3839 73.7183 38.6536 74.4486L32.5478 80.5544C31.8174 81.2848 31.8174 82.4689 32.5478 83.1992C32.9128 83.5644 33.3915 83.747 33.8701 83.747Z" fill="#008056"/>
<path d="M46.925 80.0749C46.1951 79.3448 45.0114 79.3448 44.2814 80.0749L32.5475 91.8088C31.8175 92.5388 31.8175 93.7224 32.5475 94.4524C32.9126 94.8174 33.3909 94.9999 33.8693 94.9999C34.3477 94.9999 34.8262 94.8174 35.1911 94.4523L46.9249 82.7185C47.6551 81.9885 47.6551 80.8049 46.925 80.0749Z" fill="#008056"/>
<path d="M49.9066 85.7016L43.8007 91.8074C43.0703 92.5377 43.0703 93.7218 43.8007 94.4521C44.1659 94.8173 44.6445 95 45.1231 95C45.6016 95 46.0803 94.8174 46.4454 94.4521L52.5513 88.3463C53.2817 87.616 53.2817 86.4319 52.5513 85.7016C51.8211 84.9712 50.6369 84.9712 49.9066 85.7016Z" fill="#008056"/>
</svg>
