<svg width="165" height="167" viewBox="0 0 165 167" fill="none" xmlns="http://www.w3.org/2000/svg">
<path d="M4.28679 94.5111L4.23744 97.833C6.26163 97.8577 8.27345 97.9441 10.2976 98.0676C12.3095 98.1911 14.3337 98.3146 16.3456 98.4381C19.4189 98.2899 22.5539 98.0923 25.7259 97.8453L25.7754 94.2394L27.2935 98.8826C24.7756 99.71 22.2701 100.179 19.7769 100.29C17.2713 100.402 13.8153 100.426 9.3843 100.365L2.75631 99.8335C2.68225 98.4875 2.63288 97.0673 2.59585 95.5731C2.57116 94.0789 2.55887 92.9057 2.57122 92.0413L2.63291 87.5709C2.6576 86.1261 2.76864 84.7553 2.97847 83.4587C3.18829 82.1621 3.4475 80.8407 3.75606 79.507L8.00193 74.9502C6.61956 77.3336 5.66916 80.2109 5.13843 83.5698C4.63238 86.9164 4.33616 90.5717 4.28679 94.5111ZM2.38605 157.417L4.78052 161.344L9.54476 161.406C9.44602 161.122 8.48331 160.097 6.63192 158.331C4.78052 156.577 3.76846 155.305 3.58332 154.54C3.13899 151.65 2.84272 148.686 2.69461 145.648C2.5465 142.611 2.49712 139.511 2.53415 136.337L2.22559 148.168L2.38605 157.417ZM4.58307 134.645L11.2233 134.744C12.7662 134.769 14.272 134.67 15.7778 134.448C17.2712 134.226 19.0856 133.843 21.2086 133.299L17.765 131.953C15.8396 131.929 13.3093 132.04 10.1866 132.274C7.05157 132.521 4.57067 132.867 2.74396 133.324L4.58307 134.645ZM18.6289 135.856C19.8632 135.868 20.8383 136.856 20.9124 138.091C21.0111 139.758 21.2579 141.03 21.6529 141.894C22.2083 143.105 23.1217 143.722 24.3683 143.734C25.7136 143.759 27.1084 143.796 28.5525 143.87C29.9965 143.944 31.49 143.981 33.0205 144.006C40.9074 144.117 46.2518 143.253 49.0659 141.425C51.88 139.585 53.3118 136.893 53.3611 133.336C53.4228 128.915 52.4725 125.989 50.5223 124.569C48.5722 123.148 45.6223 122.408 41.685 122.346C40.8211 122.333 39.451 122.358 37.5749 122.432C35.6988 122.506 34.2794 122.531 33.3167 122.519C31.9713 122.494 30.9099 122.556 30.1446 122.692H30.12C28.9104 122.902 27.7996 121.988 27.7872 120.753L27.6637 107.515C27.6514 106.428 28.5525 105.563 29.6386 105.613C30.8605 105.675 32.3169 105.773 33.9832 105.922C36.6739 106.156 38.5994 106.28 39.7472 106.292C43.1168 106.341 45.5729 105.749 47.1281 104.526C49.0783 102.921 50.078 100.093 50.1397 96.0547C50.1767 93.5602 49.7695 91.5226 48.9302 89.979C48.0909 88.4354 46.511 87.6327 44.2029 87.608L28.7746 87.3857C26.7504 87.361 25.4421 87.9908 24.8497 89.2751C24.2572 90.5594 23.9363 92.313 23.9116 94.5234C23.8993 95.7213 22.9118 96.6845 21.7146 96.6722L8.1871 96.5857C6.97752 96.5734 6.00244 95.5854 6.01479 94.3752L6.1259 86.9041C6.2123 80.9395 8.15006 76.3704 11.9516 73.1967C15.7531 70.023 20.7149 68.4917 26.8739 68.5781C28.7993 68.6028 30.7248 68.6275 32.6379 68.6646C34.5633 68.6893 36.5381 68.6769 38.55 68.6028C52.0158 68.7881 60.9272 71.1838 65.2842 75.7653C69.1721 79.8651 71.0481 86.052 70.937 94.3259C70.863 99.426 70.3816 103.081 69.4806 105.279C68.1846 108.342 65.6051 110.898 61.7295 112.961C65.9507 113.788 68.7401 116.764 70.1101 121.889C71.0235 125.174 71.4431 129.656 71.3567 135.325C71.2209 144.562 70.0731 151.045 67.9131 154.762C64.8522 160.01 59.1005 162.579 50.6335 162.455L23.5166 161.64C23.4179 161.739 23.1093 161.801 22.5786 161.838C22.0479 161.875 21.4925 161.937 20.9124 162.036C15.8148 161.962 11.7294 160.492 8.64377 157.602C5.55811 154.725 4.05227 150.687 4.12633 145.488L4.34856 138.004C4.38559 136.708 5.44706 135.695 6.74303 135.707L18.6289 135.856ZM50.547 67.1703C46.4123 67.1086 43.0181 67.0098 40.3767 66.8863C37.7354 66.7505 35.3039 66.627 33.0945 66.4911C31.3666 66.4664 29.8484 66.4417 28.5525 66.4294C27.2565 66.417 25.4051 66.5776 22.9859 66.9233C20.3693 68.1336 18.3821 69.0227 17.0368 69.5784C12.6798 71.5419 10.3594 72.5669 10.0632 72.6533C12.4947 70.2823 14.9755 68.3435 17.5058 66.8369C20.4186 65.0463 23.4056 64.1819 26.4913 64.2189C33.0329 64.3177 38.982 64.5894 44.3634 65.0463C49.7448 65.5032 56.6566 66.3306 65.099 67.5038C65.5804 67.5161 65.9876 67.8248 66.3085 68.4546C66.6295 69.0844 66.8887 70.1217 67.0615 71.5666C65.531 70.5787 64.1979 69.7883 63.0624 69.1956C60.8654 67.9113 59.4337 67.2691 58.7672 67.2568L50.547 67.1703ZM12.9637 164.061L13.1242 162.616L34.0326 163.629C30.8605 163.579 26.7504 163.641 21.69 163.814C16.6418 163.999 13.7289 164.073 12.9637 164.061ZM40.3767 163.443L39.0684 163.863L36.6122 164.11C32.7613 164.444 29.3917 164.728 26.5035 164.975C23.6154 165.222 21.2086 165.333 19.2831 165.308C24.0844 165.765 27.3305 166.024 29.0091 166.098C30.6877 166.173 32.4898 166.222 34.4152 166.247C35.9457 166.457 37.5379 166.679 39.1671 166.889C39.7472 166.901 40.8087 166.555 42.3515 165.851C43.8943 165.148 45.2027 164.567 46.2765 164.098L40.3767 163.443ZM26.7875 125.433L28.8116 125.322L31.3789 127.384L25.8988 127.162L23.6278 124.68C23.6771 120.926 23.8746 117.246 24.2202 113.64C24.5658 110.034 25.1212 107.428 25.9235 105.798C26.0099 106.181 26.0222 109.379 25.9358 115.393C25.8247 121.407 26.121 124.754 26.7875 125.433ZM48.0662 140.462C45.3631 141.19 42.8328 141.758 40.4631 142.154C38.1056 142.549 35.7605 142.734 33.4524 142.709C32.2058 142.697 31.0703 142.648 30.0582 142.586C29.0461 142.524 26.9603 142.277 23.7882 141.845C27.3552 141.314 31.3542 140.943 35.7729 140.721C40.2286 140.487 44.314 140.4 48.0662 140.462ZM26.2937 88.9046L25.8247 91.4979C30.2557 91.1769 33.4772 91.004 35.5014 90.9793C37.5256 90.9546 39.1054 90.9546 40.2656 90.9793L48.1772 92.8193L46.4863 89.6209C46.0049 89.8061 45.4742 89.8926 44.8941 89.8926C44.314 89.8802 43.882 89.8802 43.5981 89.8802L37.4021 89.3615L33.7981 89.4603L26.2937 88.9046ZM48.0662 99.8953L45.7087 103.328C42.7218 103.859 39.7349 104.353 36.748 104.785L28.5277 104.674L26.8245 103.057L31.5887 103.118C32.5514 103.131 33.6746 103.131 34.9829 103.094C36.2789 103.069 37.7477 102.921 39.3893 102.649L46.0667 99.71L48.4364 94.9804L48.0662 99.8953ZM30.9593 126.075L31.996 124.507C32.1812 124.803 35.094 125.038 40.7099 125.211C46.3382 125.384 49.2387 125.668 49.4238 126.051L30.9593 126.075ZM46.6838 167L60.0015 164.16C59.2239 164.246 58.0267 164.271 56.3974 164.258C54.7559 164.234 53.5587 164.221 52.7934 164.209L50.6335 164.184L46.6838 167ZM66.7035 159.047L66.074 162.641L60.0015 163.271C60.8655 162.999 62.038 162.381 63.4945 161.443C64.272 160.899 65.3335 160.097 66.7035 159.047ZM69.962 71.6283L67.1973 73.6042C67.9502 74.5798 68.987 76.0369 70.3076 77.9757C71.6283 79.9269 72.665 81.5693 73.4056 82.9277C72.6773 80.1245 72.1713 78.2474 71.8998 77.2718C70.9741 74.7773 70.3199 72.8879 69.962 71.6283ZM70.1594 118.826L70.5668 120.419L71.5295 124.038L71.6159 117.838L66.9257 113.158L70.1594 118.826ZM75.2817 154.416C74.2943 156.429 73.5043 158.022 72.8996 159.22C72.3071 160.418 71.5172 161.727 70.5298 163.159L67.6416 163.122C68.1229 162.838 68.8759 162.159 69.9127 161.06C70.9371 159.973 71.6036 159.084 71.8998 158.417C72.196 157.75 72.9489 155.787 74.1462 152.527C75.0472 149.946 75.8495 147.785 76.5406 146.068L75.2817 154.416ZM74.8126 136.362C74.8003 137.128 74.7633 138.041 74.7016 139.103C74.6399 140.165 74.4547 141.388 74.1462 142.771C73.8376 144.167 73.2945 145.574 72.5046 147.007C70.431 150.637 69.2955 152.836 69.098 153.601L67.8514 160.368C70.6038 156.367 72.4305 153.045 73.3315 150.415C74.2325 147.785 74.7139 144.204 74.7757 139.684C74.8127 136.893 74.7139 134.25 74.4547 131.743C73.924 128.076 73.5784 125.433 73.4179 123.791C74.0721 124.865 74.5164 125.927 74.7386 126.989C74.9608 128.051 75.0595 129.446 75.0348 131.175C75.0225 132.04 74.9855 132.904 74.9238 133.769C74.862 134.633 74.825 135.498 74.8126 136.362ZM73.1834 98.3763C72.591 99.5248 72.2824 100.476 72.2824 101.254L72.085 105.44L69.9003 107.28C69.999 106.996 70.3446 106.465 70.937 105.712C71.5295 104.946 71.8257 104.477 71.8257 104.279V104.131L71.9739 103.415L72.3071 100.673L72.4799 98.364C72.4922 97.4008 72.3194 96.3881 71.9491 95.3261C72.1343 95.7089 72.3935 96.2276 72.7267 96.8574C73.0353 97.4872 73.1957 97.9935 73.1834 98.3763ZM70.7889 83.9156L73.1711 89.0034L73.4056 82.94L71.9368 84.6566L70.7889 83.9156ZM73.9981 91.7449C73.887 92.4118 73.5413 93.2268 72.9489 94.1777L72.986 91.288L73.1588 88.9787L73.9981 91.7449Z" fill="#008056"/>
<path d="M86.5639 100.735C86.675 93.0413 87.1563 88.0646 87.9956 85.8171C88.8473 83.5695 91.5133 79.7784 96.0183 74.456C94.3397 77.3209 93.0561 79.6055 92.1674 81.3344C90.3901 84.681 89.4891 87.2125 89.4644 88.9414C89.3903 94.6219 89.6002 103.143 90.1062 114.504C90.6123 125.865 90.8344 134.386 90.7604 140.066C90.7357 141.61 90.5752 143.314 90.2543 145.179C89.9334 147.056 89.6248 148.847 89.3163 150.575C87.2551 133.892 86.3294 117.282 86.5639 100.735ZM158.435 109.404L158.188 127.013C158.04 137.893 155.843 146.13 151.634 151.749C146.734 158.318 139.094 161.529 128.702 161.381L120.913 161.27C110.916 161.121 103.597 158.429 98.9559 153.169C93.4634 147.031 90.8468 134.867 91.106 116.677C91.2664 105.329 91.8095 97.4869 92.7352 93.1771C94.278 86.0764 97.2896 80.9269 101.758 77.7161C106.905 74.0361 114.619 72.2702 124.912 72.4184C137.514 72.5913 146.364 75.7032 151.474 81.7419C156.3 87.3854 158.62 96.6101 158.435 109.404ZM122.567 166.629L111.336 165.024C108.275 163.826 104.029 161.603 98.5856 158.343C96.1047 156.861 93.6238 155.392 91.143 153.91L91.8465 144.821C92.118 146.08 92.3896 147.229 92.6612 148.291C92.9327 149.353 93.4017 150.711 94.0435 152.354L111.496 163.134L121.74 162.986L122.567 166.629ZM106.436 73.3075C105.374 73.7768 103.338 74.9993 100.326 76.9752C98.8695 78.0125 96.87 79.3832 94.3521 81.075C97.0675 79.0868 99.4249 77.2221 101.424 75.4686C103.424 73.715 105.633 71.7021 108.077 69.4299L118.729 71.1711C117.766 71.3563 115.618 71.6774 112.298 72.159C108.966 72.6406 107.016 73.0235 106.436 73.3075ZM124.48 143.709C130.541 143.796 134.639 142.623 136.798 140.202C138.946 137.782 140.069 133.484 140.156 127.335C140.18 125.223 140.304 122.284 140.501 118.53C140.699 114.776 140.797 112.861 140.797 112.763C140.921 103.723 139.477 97.5363 136.44 94.2268C133.972 91.4976 130.146 90.1022 124.962 90.0281C117.655 89.9293 112.903 92.6461 110.706 98.2031C109.41 101.451 108.694 107.551 108.571 116.504L108.497 122.136C108.373 131.175 109.731 137.115 112.57 139.943C115.026 142.376 119 143.623 124.48 143.709ZM112.607 136.893C111.656 136.115 111.027 134.534 110.731 132.175C110.422 129.817 110.286 127.569 110.323 125.457L110.829 120.703L112.607 136.893ZM112.323 115.961C112.298 117.406 112.422 119.481 112.669 122.173C112.915 124.877 113.039 126.89 113.014 128.236C112.557 126.495 112.126 124.692 111.718 122.802C111.311 120.925 111.113 119.308 111.138 117.962L111.718 97.1905L114.594 97.808C114.063 100.883 113.57 104.02 113.088 107.243C112.619 110.466 112.36 113.368 112.323 115.961ZM128.085 92.6584C126.06 92.9178 123.987 93.3006 121.864 93.7945C119.741 94.2885 118.383 94.9307 117.803 95.684L114.631 95.3505C116.384 94.0292 117.618 93.2018 118.346 92.8807C119.074 92.5596 120.346 92.3991 122.172 92.4361L128.085 92.6584ZM123.789 141.672C122.246 141.647 121.049 141.585 120.185 141.474C117.309 140.857 115.248 140.486 114.002 140.375L116.631 138.251C117.112 138.35 117.927 138.51 119.074 138.72C120.222 138.93 121.037 139.041 121.518 139.041L125.122 139.091L134.379 137.201L132.158 140.918C130.43 141.091 128.64 141.252 126.813 141.425C124.987 141.598 123.974 141.684 123.789 141.672ZM115.878 68.2444C116.359 68.3432 117.482 68.5778 119.26 68.9483C121.037 69.3064 122.061 69.4916 122.358 69.4916C122.839 69.504 123.086 69.4052 123.086 69.2076C124.419 70.0967 125.233 70.7759 125.505 71.2576L115.878 68.2444ZM147.376 75.6168C143.735 74.8882 139.736 73.8756 135.379 72.5542C131.022 71.2452 127.455 69.8374 124.69 68.3555C125.838 69.0471 128.282 69.5657 132.022 69.8992C135.762 70.2449 138.218 70.7142 139.366 71.3069L147.376 75.6168ZM139.502 162.677L137.44 165.394L126.344 164.666C125.678 164.073 124.727 163.394 123.493 162.603L139.502 162.677ZM136.885 133.349C136.91 131.521 136.823 129.039 136.626 125.914C136.428 122.79 136.342 120.888 136.342 120.209C136.441 113.565 136.305 109.095 135.959 106.786C135.33 103.884 134.787 101.192 134.342 98.6848C133.861 98.7712 133.145 98.0673 132.207 96.5607C131.269 95.0541 130.652 93.9674 130.38 93.2882L133.244 94.4861C135.219 97.4005 136.626 99.9197 137.465 102.056C138.304 104.192 138.699 106.736 138.65 109.725C138.625 111.552 138.675 114.664 138.81 119.036C138.946 123.42 139.008 125.803 138.995 126.186C138.958 129.076 138.675 131.595 138.168 133.756C137.65 135.917 136.675 137.806 135.206 139.412L136.885 133.349ZM149.129 155.453C149.906 154.7 151.326 152.786 153.399 149.736C154.572 148.019 155.411 146.834 155.905 146.167C155.312 147.599 154.806 148.797 154.411 149.76C154.016 150.724 153.473 151.724 152.782 152.774L147.944 158.047L143.735 159.578L141.563 160.418L149.129 155.453ZM143.821 163.184L151.264 157.083L158.312 148.525C158.312 148.908 157.028 150.909 154.473 154.539C152.708 157.022 151.141 159.158 149.771 160.973L143.821 163.184ZM149.376 76.6541C150.326 76.9505 151.313 77.2592 152.325 77.5679C153.338 77.8766 153.979 78.173 154.263 78.457C155.115 79.3338 156.226 82.384 157.596 87.5953C158.324 90.2998 159.139 93.7328 160.052 97.8821C157.633 92.2633 156.053 88.6326 155.3 86.9902C153.609 83.409 151.634 79.9636 149.376 76.6541ZM161.126 123.012L161.052 128.211C161.002 131.681 160.792 134.608 160.422 137.004C160.052 139.4 159.274 141.709 158.09 143.895L159.484 96.2767C159.447 99.2652 159.793 104.798 160.546 112.886C160.965 117.431 161.163 120.802 161.126 123.012Z" fill="#008056"/>
<path d="M107.669 48.8558C111.816 47.8802 115.248 44.9782 116.914 41.0512C117.556 39.5446 117.926 37.9639 118.05 36.3338C118.136 35.173 118.111 33.9999 117.926 32.8391C117.642 31.1225 117.087 29.5172 116.198 28.0229C114.84 25.7137 112.952 23.9848 110.508 22.8857C109.039 22.2312 107.497 21.8731 105.904 21.762C104.547 21.6632 103.189 21.7373 101.844 22.0213C98.4494 22.7375 95.8081 24.5652 93.9567 27.5043C92.6113 29.6407 91.9325 31.9993 91.8338 34.5185C91.7967 35.5188 91.7967 36.5067 91.7843 37.507C91.772 38.0133 91.7103 38.5073 91.5622 38.9889C91.1672 40.2238 90.365 41.0141 89.106 41.3352C88.7111 41.434 88.316 41.4463 87.9087 41.434C84.6256 41.3846 81.3425 41.3352 78.0593 41.2981C77.9236 41.2981 77.7878 41.2858 77.652 41.2858C77.1089 41.2735 76.5782 41.187 76.0598 41.0388C74.2948 40.5202 73.0729 39.4087 72.4682 37.6552C72.1966 36.8895 72.0855 36.0992 72.0978 35.2965C72.1472 31.9252 72.1965 28.5416 72.2459 25.1703C72.2459 25.0468 72.2583 24.9233 72.2459 24.7875C72.2212 24.1206 71.9004 23.6637 71.3079 23.392C71.0858 23.2933 70.8513 23.2562 70.6044 23.2562C69.4195 23.2439 68.2223 23.2192 67.0374 23.2068C66.988 23.2068 66.951 23.2068 66.9016 23.2068C66.1734 23.2192 65.5809 23.6761 65.3958 24.38C65.3587 24.5405 65.3464 24.7134 65.3464 24.8863C65.3094 27.1709 65.2847 29.4678 65.2477 31.7523C65.223 33.8393 65.1859 35.914 65.1613 38.001C65.1489 38.6801 65.1119 39.347 64.9885 40.0139C64.8651 40.7301 64.6676 41.4216 64.322 42.0638C63.7295 43.1875 62.8285 43.9161 61.5819 44.2249C61.3104 44.2866 61.0265 44.3484 60.7426 44.3731C60.1625 44.4225 59.5824 44.4225 59.0023 44.2743C58.0519 44.0273 57.262 43.521 56.6202 42.7924C56.003 42.0885 55.5957 41.2734 55.3488 40.3843C55.102 39.5322 55.0033 38.6555 55.0156 37.7787C55.0774 34.0863 55.1267 30.3816 55.1761 26.6892C55.1761 26.5658 55.1884 26.4423 55.1761 26.3064C55.1267 25.3555 54.4232 24.7751 53.6456 24.7628C53.5716 24.7628 53.5098 24.7628 53.4357 24.7628C52.2879 24.7504 51.1524 24.7257 50.0045 24.7134C49.8811 24.7134 49.7577 24.7134 49.6219 24.7257C49.0295 24.7628 48.4246 25.2321 48.2765 25.9112C48.2395 26.0965 48.2272 26.2941 48.2148 26.4917C48.1531 30.2952 48.1037 34.0863 48.0544 37.8898C48.042 38.569 48.005 39.2359 47.8692 39.9027C47.7458 40.5202 47.573 41.1253 47.3015 41.6933C46.709 42.9035 45.7587 43.6939 44.438 44.0026C43.9073 44.1261 43.3765 44.1631 42.8335 44.1508C41.8707 44.1261 41.0191 43.8173 40.2662 43.2369C39.5256 42.6689 39.0072 41.9403 38.6369 41.1129C38.1309 39.9892 37.9087 38.8036 37.921 37.5811C37.9704 33.864 38.0198 30.147 38.0815 26.4176C38.0815 26.2941 38.0938 26.1706 38.0815 26.0347C38.0692 25.3802 37.6619 24.8122 37.0448 24.6023C36.8349 24.5282 36.6251 24.5158 36.4029 24.5158C35.2427 24.5035 34.0948 24.4788 32.9346 24.4664C32.7989 24.4664 32.6631 24.4664 32.5273 24.4788C31.7991 24.5405 31.2067 25.2074 31.182 25.8989C31.182 26.0471 31.1697 26.1953 31.1697 26.3435C31.1203 30.2458 31.0586 34.1481 31.0092 38.0504C30.9968 38.6925 30.9475 39.3347 30.8611 39.9645C30.713 41.1006 30.4168 42.212 29.9601 43.2616C28.985 45.5339 27.4668 47.3615 25.3439 48.6458C23.4431 49.7943 21.3696 50.3129 19.1603 50.2635C18.5678 50.2512 17.9753 50.1771 17.3952 50.0536C16.0128 49.7572 14.7416 49.2015 13.5814 48.3988C11.3103 46.8429 9.71811 44.7559 8.76773 42.1749C8.26168 40.8042 8.02716 39.3717 8.06419 37.9022C8.07653 37.1489 8.13831 36.3956 8.21237 35.6423C8.29877 34.8396 8.42219 34.0493 8.59499 33.2713C8.71841 32.7156 8.86647 32.1599 9.00224 31.6042C9.15035 30.9991 9.02696 30.468 8.57028 30.0358C8.27406 29.7518 7.91614 29.616 7.50883 29.616C6.23754 29.5913 4.96621 29.5789 3.69492 29.5666C3.59618 29.5666 3.4851 29.5666 3.38635 29.5913C2.74454 29.7271 2.33723 30.1099 2.15209 30.7397C1.83118 31.8511 1.60904 32.9872 1.48561 34.1357C1.41156 34.926 1.34984 35.704 1.32515 36.4944C1.28813 37.4082 1.26343 38.322 1.3128 39.2359C1.34983 39.878 1.41157 40.5078 1.49797 41.15C1.73248 42.8418 2.16442 44.4718 2.83092 46.0278C4.44781 49.8437 7.01507 52.8445 10.6191 54.9315C12.9149 56.2528 15.3957 56.9938 18.0371 57.179C19.5429 57.2901 21.0487 57.2284 22.5545 56.9938C23.8135 56.7962 25.0477 56.4998 26.2326 56.0552C29.5157 54.845 32.2187 52.8445 34.2923 50.0166C34.8847 49.2139 35.3908 48.3618 35.8351 47.4603C36.3412 46.4107 37.5261 45.9661 38.5135 46.2131C38.9085 46.3119 39.2541 46.4971 39.5626 46.7688C40.8586 47.9172 42.4014 48.4853 44.1047 48.6952C44.5861 48.757 45.0551 48.7817 45.5365 48.8311C46.0672 48.8805 46.5856 48.8558 47.1163 48.794C47.8199 48.7076 48.511 48.5347 49.1775 48.3001C50.6093 47.7937 51.9053 47.0651 52.9914 46.0031C53.0408 45.9537 53.0902 45.9043 53.1395 45.8673C53.7443 45.3857 54.4232 45.2498 55.1761 45.4227C55.6204 45.5339 56.0031 45.7561 56.324 46.0772C56.5955 46.3489 56.867 46.6329 57.1632 46.8923C58.5209 48.1148 60.1255 48.8187 61.9398 49.0163C62.6434 49.0904 63.3469 49.1274 64.0628 49.078C64.68 49.0286 65.2971 48.9545 65.8895 48.8064C67.2595 48.4606 68.4321 47.8061 69.3948 46.7564C69.4565 46.6947 69.5182 46.6206 69.5923 46.5588C70.1354 46.0772 70.7648 45.8796 71.493 45.9784C71.925 46.0402 72.2953 46.2131 72.6533 46.46C73.4555 47.0281 74.3318 47.4356 75.2699 47.7196C76.2573 48.0037 77.257 48.1395 78.2815 48.1642C81.614 48.2136 84.9342 48.263 88.2667 48.3124C88.7728 48.3247 89.2664 48.2877 89.7725 48.2136C91.2289 48.0037 92.5496 47.4603 93.7222 46.5835C93.8209 46.5094 93.9196 46.4353 94.0307 46.3613C94.5491 46.0525 95.1045 45.9414 95.7093 46.0649C96.1043 46.1513 96.4376 46.3119 96.7585 46.5465C97.3879 47.0157 98.0421 47.4233 98.7333 47.769C100.313 48.5717 102.004 49.0039 103.769 49.1274C105.102 49.2509 106.398 49.1645 107.669 48.8558ZM100.622 41.3352C100.029 40.5572 99.6589 39.6804 99.3997 38.7419C99.2269 38.0874 99.1159 37.4205 99.0542 36.7537C98.9925 36.1486 98.9678 35.5435 98.9801 34.9384C99.0048 33.6664 99.1776 32.4068 99.622 31.1966C99.8565 30.5545 100.153 29.9617 100.548 29.406C101.387 28.2329 102.51 27.5043 103.942 27.282C104.534 27.1955 105.127 27.1832 105.719 27.2573C106.164 27.319 106.596 27.3931 107.028 27.5413C108.336 27.9859 109.286 28.8503 109.928 30.0729C110.311 30.8015 110.545 31.5671 110.706 32.3698C110.891 33.3083 110.94 34.2468 110.94 35.2101C110.903 36.4203 110.792 37.6428 110.471 38.8283C110.298 39.4581 110.076 40.0632 109.755 40.6436C108.928 42.1132 107.694 42.99 106.028 43.2616C105.164 43.3975 104.3 43.3975 103.436 43.1876C102.263 42.9035 101.338 42.2737 100.622 41.3352Z" fill="#008056"/>
<path d="M161.114 34.3588C160.744 34.3464 160.386 34.3464 160.016 34.3341C159.547 34.3217 159.102 34.1983 158.732 33.9142C157.942 33.3462 157.597 32.5682 157.732 31.5926C157.794 31.1604 157.856 30.7282 157.93 30.3083C158.103 29.1969 158.275 28.0978 158.448 26.9864C158.559 26.2578 158.905 25.6774 159.534 25.2699C159.917 25.0229 160.337 24.8994 160.793 24.8994C161.435 24.9118 162.077 24.9118 162.719 24.9241C162.904 24.9241 163.089 24.9118 163.262 24.8624C163.99 24.6648 164.484 23.8992 164.385 23.1829C164.262 22.3802 163.645 21.8369 162.83 21.8122C162.534 21.7998 162.237 21.7998 161.941 21.7998C161.83 21.7998 161.707 21.7875 161.596 21.7751C160.324 21.5528 159.473 20.392 159.645 19.1571C159.744 18.3915 159.868 17.6135 159.991 16.8479C160.102 16.1316 160.226 15.4277 160.337 14.7115C160.46 13.9582 160.584 13.1925 160.695 12.4392C160.744 12.1058 160.818 11.76 160.818 11.4143C160.806 10.5745 159.979 9.69776 158.88 9.96944C158.201 10.1423 157.819 10.6116 157.695 11.2908C157.621 11.6983 157.572 12.1058 157.51 12.5133C157.399 13.2296 157.276 13.9582 157.165 14.6868C157.054 15.4154 156.942 16.1316 156.831 16.8602C156.683 17.774 156.535 18.6879 156.399 19.6017C156.202 20.9477 155.066 21.701 154.005 21.6763C153.474 21.664 152.956 21.664 152.425 21.6516C151.894 21.6393 151.376 21.6393 150.845 21.6269C150.648 21.6146 150.438 21.6022 150.24 21.5405C149.006 21.2071 148.389 20.0092 148.525 18.9719C148.636 18.1939 148.759 17.4159 148.883 16.6379C148.994 15.9093 149.117 15.1931 149.228 14.4645C149.352 13.7235 149.463 12.9703 149.574 12.2293C149.623 11.9082 149.673 11.5995 149.685 11.2784C149.697 10.3893 148.833 9.53722 147.735 9.82125C147.068 9.99414 146.698 10.4634 146.575 11.1302C146.488 11.6613 146.414 12.1923 146.328 12.7233C146.217 13.4272 146.106 14.1187 145.995 14.8226C145.883 15.5389 145.772 16.2427 145.649 16.959C145.538 17.6752 145.427 18.3791 145.316 19.0954C145.279 19.3547 145.242 19.614 145.155 19.861C144.797 20.9848 143.773 21.5405 142.884 21.5158C142.033 21.4911 141.193 21.4911 140.342 21.4787C140.243 21.4787 140.132 21.4664 140.033 21.4787C139.367 21.5528 138.897 21.8863 138.663 22.5037C138.441 23.0965 138.614 23.7633 139.095 24.1955C139.391 24.4549 139.737 24.5907 140.132 24.5907C140.675 24.603 141.206 24.6154 141.749 24.6154C141.983 24.6154 142.205 24.6524 142.428 24.7142C143.452 25.0353 144.242 26.0479 144.081 27.2457C143.995 27.8632 143.909 28.4683 143.81 29.0734C143.662 30.0366 143.514 30.9875 143.366 31.9507C143.205 33.0251 142.452 33.8031 141.391 34.0007C141.23 34.0254 141.07 34.0377 140.909 34.0377C140.082 34.0254 139.268 34.0007 138.441 34.013C137.836 34.013 137.367 34.297 137.083 34.8404C136.787 35.3961 136.836 35.9518 137.182 36.4581C137.466 36.878 137.885 37.1126 138.391 37.125C138.861 37.1373 139.33 37.1373 139.799 37.1497C140.255 37.162 140.687 37.2855 141.057 37.5325C141.847 38.0512 142.193 38.7921 142.107 39.7306C142.082 40.027 142.033 40.3234 141.983 40.6198C141.872 41.3607 141.749 42.0893 141.638 42.8179C141.527 43.5465 141.415 44.2874 141.304 45.0284C141.193 45.757 141.07 46.4732 140.959 47.2018C140.946 47.3129 140.934 47.4241 140.934 47.5476C140.934 48.3626 141.588 49.0418 142.39 49.0788C143.217 49.1159 143.909 48.5478 144.044 47.6957C144.193 46.7202 144.353 45.7569 144.501 44.7814C144.637 43.8922 144.773 42.9908 144.908 42.1016C145.044 41.1878 145.217 40.274 145.34 39.3601C145.513 38.1252 146.575 37.2485 147.76 37.2732C148.796 37.2979 149.845 37.2979 150.882 37.3226C151.092 37.3226 151.314 37.3473 151.524 37.409C152.857 37.8042 153.351 38.9773 153.215 39.9406C153.104 40.7309 152.98 41.5212 152.857 42.3116C152.746 43.0278 152.635 43.7317 152.524 44.448C152.4 45.2136 152.277 45.9792 152.166 46.7572C152.116 47.066 152.067 47.3747 152.055 47.6711C152.018 48.4367 152.672 49.2147 153.598 49.227C154.375 49.2394 155.042 48.659 155.177 47.8686C155.301 47.0659 155.424 46.2633 155.548 45.4606C155.684 44.5714 155.819 43.67 155.955 42.7808C156.128 41.6694 156.301 40.5704 156.473 39.4589C156.597 38.718 156.967 38.1376 157.609 37.7424C157.992 37.5078 158.411 37.409 158.856 37.409C159.584 37.4214 160.324 37.4337 161.053 37.4337C161.929 37.4337 162.83 36.6063 162.521 35.4208C162.361 34.8281 161.781 34.3835 161.114 34.3588ZM155.19 27.4804C155.005 28.6288 154.832 29.7773 154.647 30.9381C154.573 31.4074 154.499 31.889 154.425 32.3582C154.252 33.3091 153.375 34.2353 152.116 34.2353C151.03 34.2353 149.944 34.223 148.858 34.1859C147.55 34.1489 146.538 33.0745 146.575 31.7284C146.575 31.5185 146.624 31.3209 146.649 31.111C146.784 30.2342 146.933 29.3574 147.068 28.4683C147.155 27.9249 147.241 27.3816 147.315 26.8382C147.463 25.7639 148.241 24.9488 149.315 24.7759C149.45 24.7512 149.586 24.7512 149.722 24.7512C150.253 24.7512 150.771 24.7636 151.302 24.7759C151.845 24.7883 152.4 24.7883 152.943 24.8006C154.079 24.8253 154.918 25.6898 155.128 26.5295C155.214 26.8382 155.252 27.1593 155.19 27.4804Z" fill="#008056"/>
<path d="M132.847 12.3888C132.514 12.3764 132.181 12.3764 131.848 12.3764C130.923 12.3641 129.997 12.3517 129.072 12.3394C128.455 12.327 127.715 12.7716 127.555 13.5496C127.518 13.7348 127.505 13.9324 127.493 14.13C127.419 19.6129 127.332 25.0959 127.258 30.5789C127.184 36.0742 127.098 41.5695 127.024 47.0648C127.024 47.1636 127.012 47.2748 127.024 47.3736C127.049 47.7934 127.184 48.1516 127.481 48.4479C127.789 48.7567 128.159 48.9049 128.591 48.9172C129.479 48.9296 130.38 48.9419 131.268 48.9543C131.663 48.9543 132.045 48.979 132.44 48.9666C133.168 48.9543 133.785 48.4356 133.921 47.7193C133.958 47.5465 133.97 47.3612 133.97 47.176C134.13 36.1853 134.278 25.2071 134.439 14.2164C134.439 14.1423 134.439 14.0806 134.439 14.0065C134.427 13.0556 133.785 12.4011 132.847 12.3888Z" fill="#008056"/>
<path d="M75.8003 40.1007C76.4668 40.36 77.158 40.4835 77.8738 40.4959C80.3177 40.5329 82.7739 40.57 85.2177 40.5947C85.3412 40.5947 85.4646 40.5947 85.588 40.5823C86.2668 40.4712 86.9457 40.4341 87.6369 40.4341C88.1306 40.4341 88.6243 40.4218 89.1057 40.3847C89.5007 40.36 89.8092 40.2118 90.0807 39.9525C90.488 39.5697 90.7225 39.0881 90.846 38.5571C90.9571 38.1002 90.9818 37.6309 90.9818 37.1616C90.9941 36.3836 91.0064 35.6057 91.0188 34.8277C91.0311 34.2843 91.0435 33.7286 91.1175 33.1852C91.2163 32.2714 91.3891 31.3823 91.6483 30.4931C92.3888 27.9986 93.7342 25.8746 95.7213 24.1828C95.8201 24.0963 95.9189 24.0223 95.9929 23.9235C96.4496 23.4418 96.931 22.9849 97.4617 22.5774C97.4864 22.5527 97.5111 22.5157 97.5357 22.491C97.437 22.4786 97.3629 22.5157 97.3012 22.5404C94.0428 24.1581 91.6236 26.5785 90.1424 29.9128C89.4142 31.5552 89.0193 33.2717 89.0069 35.0623C89.0069 35.4451 89.1303 35.7538 89.3772 36.0255C89.5006 36.1614 89.6364 36.2725 89.7722 36.4083C89.9079 36.5442 90.0561 36.68 90.1795 36.8282C90.3893 37.0752 90.5004 37.3716 90.4881 37.7173C90.4881 37.8285 90.4881 37.952 90.4757 38.0631C90.3893 38.7423 90.0561 39.2363 89.4019 39.4956C89.0933 39.6191 88.7725 39.6932 88.4392 39.7055C87.9825 39.7179 87.5258 39.7302 87.0691 39.7179C86.489 39.7055 85.8966 39.6808 85.3165 39.6561C84.8351 39.6314 84.3538 39.5944 83.8848 39.5573C83.5886 39.5326 83.2923 39.4956 82.9961 39.4709C82.2925 39.3968 81.589 39.3104 80.8732 39.2733C79.824 39.1992 78.7749 39.1498 77.7257 39.1498C77.0469 39.1498 76.3804 39.1004 75.7139 38.9893C75.0721 38.8781 74.4426 38.7053 73.8625 38.3842C73.8131 38.3595 73.7638 38.3348 73.7144 38.3101C73.702 38.3224 73.6897 38.3348 73.665 38.3471C73.7021 38.4089 73.7268 38.4583 73.7762 38.52C74.2822 39.261 74.9733 39.7796 75.8003 40.1007Z" fill="#008056"/>
<path d="M43.9672 16.9953C45.3119 17.02 46.6691 17.0324 48.0139 17.0571C48.4457 17.0571 48.8158 16.8966 49.1242 16.5878C49.4203 16.3038 49.556 15.9457 49.5684 15.5382C49.593 14.612 49.6054 13.6858 49.6054 12.7596C49.6054 12.5867 49.5684 12.4139 49.519 12.2533C49.3216 11.6235 48.7541 11.1913 48.0879 11.1789C47.4217 11.1666 46.7677 11.1543 46.1015 11.1543C45.423 11.1419 44.7568 11.1419 44.0782 11.1296C43.2269 11.1172 42.5237 11.8335 42.5113 12.6238C42.499 13.5747 42.4866 14.5255 42.4743 15.4764C42.4496 16.2544 43.1159 16.983 43.9672 16.9953Z" fill="#008056"/>
<path d="M59.48 11.3512C58.1722 11.3265 56.8521 11.3142 55.5319 11.2895C54.693 11.2771 53.9897 11.9687 53.9774 12.7961C53.9651 13.7346 53.9528 14.6731 53.9404 15.6116C53.9404 15.7228 53.9527 15.8463 53.9774 15.9451C54.1501 16.6613 54.73 17.1429 55.4826 17.1553C56.1242 17.1676 56.7657 17.18 57.4073 17.18C58.0612 17.1923 58.715 17.2047 59.3565 17.2047C60.1708 17.217 60.8001 16.686 60.9481 15.8833C60.9605 15.7845 60.9728 15.6734 60.9728 15.5746C60.9852 14.7225 60.9975 13.8581 61.0098 13.006C61.0098 12.9442 61.0098 12.8948 61.0098 12.8331C60.9604 12.0057 60.3189 11.3636 59.48 11.3512Z" fill="#008056"/>
<path d="M118.307 28.777C117.097 26.5541 115.407 24.7635 113.271 23.4051C113.173 23.3434 113.074 23.257 112.975 23.1829C112.975 23.2693 113.012 23.331 113.074 23.3928C113.234 23.5163 113.395 23.6521 113.555 23.788C113.95 24.1337 114.37 24.4548 114.74 24.8376C117.283 27.4062 118.616 30.5429 118.887 34.1241C118.961 35.0873 118.912 36.0382 118.813 37.0014C118.702 37.9276 118.529 38.8291 118.27 39.7182C117.455 42.4474 115.999 44.769 113.827 46.6337C113.407 46.9918 112.95 47.3376 112.506 47.671C110.087 49.4863 107.371 50.3631 104.348 50.326C103.422 50.3137 102.533 50.1408 101.682 49.7827C101.348 49.6468 101.003 49.5234 100.645 49.4122C100.336 49.3258 100.04 49.2146 99.7314 49.1035C99.6574 49.0788 99.5833 49.0541 99.5093 49.0294C99.5216 49.0417 99.5339 49.0541 99.5586 49.0664C99.5092 49.0541 99.4722 49.0417 99.4229 49.0294L99.5833 49.0911C99.6203 49.1158 99.645 49.1529 99.6821 49.1776C99.9536 49.3134 100.225 49.4616 100.509 49.5851C101.521 50.042 102.57 50.3384 103.681 50.4001C104.706 50.4619 105.742 50.4495 106.767 50.3631C107.705 50.289 108.63 50.1779 109.556 50.005C110.716 49.7827 111.852 49.474 112.938 49.017C113.753 48.6836 114.53 48.2638 115.234 47.7327C115.974 47.1894 116.554 46.4978 117.06 45.7446C117.863 44.559 118.443 43.2747 118.9 41.9287C119.319 40.6814 119.603 39.3971 119.788 38.1005C119.899 37.3596 119.949 36.6186 119.986 35.8777C120.035 34.9885 119.961 34.0871 119.825 33.2103C119.566 31.642 119.06 30.1724 118.307 28.777Z" fill="#008056"/>
<path d="M95.3234 47.0774C95.1136 47.2133 94.904 47.2627 94.6819 47.1392C94.5215 47.0527 94.3981 47.0898 94.2747 47.2009C94.2254 47.2503 94.1637 47.2874 94.1143 47.3244C93.3988 47.8554 92.6215 48.2629 91.7949 48.5593C90.8202 48.9051 89.8209 49.0903 88.7969 49.1274C89.4754 49.2262 90.154 49.3373 90.8325 49.4361C91.5974 49.5596 91.7455 49.2138 92.5351 49.2015C92.8682 49.1891 94.3734 48.337 94.3241 48.1888C94.5091 47.9295 95.3234 48.1271 95.4961 47.8801C95.6812 47.6208 95.8539 47.3615 96.039 47.0898C95.9156 46.9539 95.7799 46.9292 95.6318 46.9045C95.5208 46.9539 95.4221 47.0157 95.3234 47.0774Z" fill="#008056"/>
<path d="M87.7002 49.1153C87.8962 49.1153 88.0922 49.1153 88.3005 49.1276C88.472 49.1276 88.6313 49.1153 88.7906 49.1153C88.619 49.0907 88.4597 49.0538 88.2882 49.0415C88.0309 49.0046 87.8717 49.0661 87.7002 49.1153Z" fill="#008056"/>
<path d="M82.3062 49.1654C81.8248 49.3383 81.3188 49.4618 80.8127 49.5729C80.1092 49.7211 79.381 49.7582 78.6651 49.7952C77.221 49.8693 75.8757 49.5112 74.6291 48.7826C74.1231 48.4862 73.6416 48.1528 73.1726 47.8194C72.79 47.5477 72.395 47.2883 72.0124 47.029C71.494 46.6832 70.63 46.6709 70.087 47.2513C70.0499 47.2883 70.0253 47.3377 69.9883 47.3995C70.3092 47.6712 70.6054 47.9305 70.914 48.1898C70.914 48.4368 73.5676 49.7582 74.9623 50.1533C75.6905 50.3633 76.4311 50.5238 77.184 50.5855C77.9492 50.6473 78.7886 50.7584 79.5538 50.6843C80.3931 50.5979 81.1213 50.4991 81.8989 50.1904C82.3679 50.0051 82.7629 49.8817 83.2319 49.6717C83.7873 49.4247 84.4044 49.6964 84.9845 49.5359C85.7004 49.3506 86.441 49.2518 87.1816 49.2272C87.3914 49.2148 87.5395 49.1654 87.6752 49.1284C86.1324 49.1037 84.6019 49.0913 83.0591 49.0543C82.8122 49.0419 82.5654 49.079 82.3062 49.1654Z" fill="#008056"/>
<path d="M62.0618 34.9759C61.8643 36.1243 61.7779 37.2975 61.7409 38.4583C61.7162 39.298 61.7038 40.1254 61.6174 40.9651C61.5804 41.3356 61.531 41.7184 61.3953 42.0766C61.2472 42.4841 60.9756 42.7187 60.5436 42.7805C59.9388 42.8669 59.334 42.8298 58.7416 42.7064C58.2972 42.6076 57.8653 42.4594 57.4456 42.2741C57.3962 42.2494 57.3345 42.2247 57.2852 42.3112C57.3098 42.3359 57.3222 42.3853 57.3469 42.41C58.0381 43.1509 58.8897 43.5708 59.9141 43.6202C60.2721 43.6325 60.6301 43.6078 60.9757 43.5584C61.5187 43.4843 62.0124 43.2991 62.4814 43.0151C62.6789 42.8916 62.7777 42.7434 62.79 42.5211C62.8147 42.0766 62.8517 41.632 62.8764 41.1874C62.9134 40.1007 62.8517 39.014 62.9134 37.9273C62.9504 37.2728 62.9998 36.6306 63.0862 35.9761C63.2096 35.05 63.3948 34.1485 63.6786 33.2717C63.9008 32.5925 64.1354 31.9257 64.3575 31.2588C64.4193 31.0736 64.4562 30.8883 64.4562 30.6908C64.4562 30.2091 64.4686 29.7275 64.4809 29.2459C64.5056 27.764 64.5303 26.2698 64.5426 24.7879C64.555 24.1458 64.7771 23.6024 65.2215 23.1455C65.53 22.9479 65.6411 22.6639 65.7028 22.3181C65.7522 22.0217 65.8633 21.7501 66.0361 21.4907C66.2089 21.2314 66.4311 21.0956 66.752 21.1079C67.3568 21.1202 67.9615 21.2067 68.5416 21.3796C69.1341 21.5525 69.7389 21.6636 70.3684 21.6636C70.677 21.6636 70.9238 21.7871 71.1213 22.0217C71.2077 22.1205 71.2941 22.2317 71.3558 22.3552C71.4422 22.5404 71.578 22.6515 71.7631 22.7503C72.4173 23.0837 72.8492 23.6148 73.022 24.331C73.0714 24.5409 73.0714 24.7632 73.0714 24.9732C73.0591 26.5415 73.0344 28.1098 73.0097 29.7399C73.0097 29.7769 73.0221 29.814 73.0097 29.851L73.0344 29.7275C73.0591 29.6905 73.0714 29.6658 73.0714 29.6411C73.1578 29.0854 73.2566 28.542 73.3183 27.9863C73.38 27.4553 73.4294 26.912 73.4541 26.3809C73.4787 25.8623 73.5281 25.3436 73.4787 24.8373C73.3676 23.6148 72.9233 22.5033 72.2198 21.5031C72.01 21.2067 71.7754 20.9474 71.4915 20.7374C71.2447 20.5522 70.9732 20.404 70.6523 20.367C70.2696 20.3052 69.8994 20.367 69.5291 20.4164C69.1712 20.4658 68.8379 20.5892 68.517 20.7127C67.9616 20.935 67.3814 21.0462 66.7766 21.0338C66.1842 21.0215 65.6905 21.2437 65.2709 21.6636C65.024 21.9229 64.8266 22.207 64.6661 22.528C64.2835 23.2813 64.0737 24.084 64.049 24.9361C64.0243 25.7635 63.9873 26.5785 63.9009 27.4059C63.8145 28.2456 63.691 29.0854 63.4688 29.9004C63.2467 30.7155 62.9998 31.5305 62.7529 32.3332C62.4567 33.1853 62.2222 34.0744 62.0618 34.9759Z" fill="#008056"/>
<path d="M49.533 7.3026C49.7428 7.41374 49.9772 7.46314 50.2239 7.46314C50.7668 7.46314 51.2973 7.47549 51.8401 7.48784C52.3953 7.50018 52.9628 7.51253 53.518 7.51253C54.4433 7.51253 55.0232 6.82099 55.0972 6.16649C55.1096 6.03065 55.1219 5.89481 55.1342 5.75897C55.1465 5.15387 55.1589 4.54877 55.1589 3.94366C55.1589 3.78313 55.1465 3.62259 55.1219 3.46205C55.0232 2.85695 54.6778 2.44943 54.0979 2.2395C53.9128 2.17775 53.6907 2.15305 53.4933 2.14071C52.4693 2.11601 51.4329 2.10366 50.4089 2.09131C50.3472 2.09131 50.2979 2.09131 50.2363 2.09131C49.348 2.1407 48.7187 2.77051 48.6941 3.65964C48.6817 4.40058 48.657 5.14152 48.6694 5.89481C48.6694 6.53696 48.9655 7.00622 49.533 7.3026Z" fill="#008056"/>
<path d="M49.6957 8.72229C49.8191 8.72229 49.9425 8.74699 50.0659 8.74699C50.5226 8.78404 50.9175 8.96927 51.2755 9.26565C51.4483 9.41384 51.6211 9.57438 51.7939 9.72257C52.1519 10.0313 52.5592 10.2165 53.0282 10.2536C53.0776 10.2536 53.1392 10.2783 53.1886 10.2783C53.2256 10.4018 53.1639 10.4882 53.1392 10.587C53.0158 10.9945 52.9048 11.402 52.7937 11.8096C52.769 11.8836 52.7813 11.9577 52.769 12.0812C52.843 12.0318 52.8924 12.0071 52.9418 11.9824C53.0899 11.8836 53.2256 11.7849 53.3737 11.6984C53.4848 11.6367 53.5713 11.5502 53.6453 11.4514C54.1514 10.7846 54.8302 10.4635 55.6694 10.4882C56.9161 10.5129 58.1627 10.5253 59.4093 10.5376C59.829 10.5376 60.2239 10.624 60.5942 10.8216C60.6312 10.8463 60.6806 10.9081 60.7423 10.8216C60.5325 10.5252 60.2609 10.303 59.9277 10.1795C59.7055 10.1054 59.4834 10.0807 59.2488 10.056C59.039 10.0313 54.1637 9.88311 54.0279 9.85841C54.0403 9.10512 55.6448 7.52444 55.6942 7.05518C55.509 7.27746 55.3856 7.45034 55.2375 7.59853C55.077 7.74672 54.9043 7.88256 54.7191 7.9937C54.534 8.10484 54.3241 8.17894 54.1513 8.26538C54.0773 8.42592 54.0156 8.57411 53.9292 8.70995C53.7687 8.98163 53.5218 9.10511 53.2133 9.11746C53.1392 9.11746 53.0528 9.11746 52.9788 9.10512C52.5344 9.05572 52.1025 8.93223 51.7199 8.69759C51.6088 8.63585 51.4977 8.5741 51.3989 8.50001C51.1274 8.32712 50.8558 8.24068 50.5226 8.25303C50.2881 8.26538 50.0412 8.26538 49.8067 8.21598C49.3377 8.12954 48.9551 7.91961 48.6465 7.64793C49.0291 8.26538 49.4118 8.70994 49.6957 8.72229Z" fill="#008056"/>
<path d="M47.8554 5.85845C47.8678 5.50033 47.8677 5.15456 47.8677 4.79644C47.8677 4.6606 47.8307 4.5618 47.7444 4.46301C47.3866 4.05549 47.4112 3.57388 47.806 3.21576C47.9047 3.12932 47.9665 3.03053 48.0035 2.90704C48.1022 2.62301 48.2502 2.36368 48.4476 2.1414C48.4846 2.092 48.5216 2.0426 48.571 1.96851C48.0281 2.03025 47.5223 2.30193 47.2262 2.6724C47.0658 2.88233 46.9424 3.11697 46.9054 3.38865C46.8807 3.56153 46.8438 3.72207 46.8438 3.89496C46.8438 4.04315 47.3126 5.2163 47.9048 6.36476C47.8677 6.19188 47.8554 6.01899 47.8554 5.85845Z" fill="#008056"/>
<path d="M48.6284 7.63992C48.3839 7.25912 48.1394 6.80461 47.9072 6.3501C48.005 6.82918 48.2373 7.29597 48.6284 7.63992Z" fill="#008056"/>
<path d="M9.27218 34.2354C9.24749 34.3218 9.22282 34.3712 9.21048 34.4206C9.16111 34.7787 9.09939 35.1492 9.05002 35.5073C9.03768 35.6308 9.06235 35.7296 9.11172 35.8407C9.19812 36.0136 9.27218 36.1988 9.34623 36.3717C9.60543 37.0509 9.79053 37.7425 9.76584 38.4711C9.7535 38.8168 9.79056 39.1503 9.8029 39.496C9.83993 40.4222 10.0004 41.336 10.2596 42.2252C10.7533 43.9293 11.5679 45.4483 12.8392 46.6955C14.345 48.1774 16.1593 48.9677 18.2576 49.153C19.1463 49.2271 20.035 49.19 20.9236 49.0789C22.1702 48.9184 23.3674 48.5849 24.503 48.0663C25.0831 47.7946 25.6632 47.5106 26.1569 47.0907C28.6007 45.0408 29.8597 42.3734 30.1683 39.2367C30.2423 38.5328 30.23 37.8166 30.2547 37.1127C30.267 36.6311 30.267 36.1618 30.2793 35.7172C30.2793 35.6061 30.267 35.4826 30.2793 35.3715L30.2423 35.8654C30.1929 36.2976 30.1806 36.7546 30.1683 37.2115C30.1436 37.9277 30.1559 38.6563 30.0819 39.3725C30.0078 40.1752 29.8473 40.9532 29.5881 41.7189C28.8969 43.7441 27.6503 45.3618 25.91 46.5844C23.8488 48.0292 21.5407 48.7578 19.0228 48.7578C18.418 48.7578 17.8133 48.6837 17.2208 48.5355C15.6286 48.128 14.3573 47.2389 13.3576 45.9546C12.543 44.9049 12.0122 43.7194 11.6667 42.4598C11.3087 41.1632 11.1482 39.8418 11.1606 38.4958C11.1606 38.2982 11.1483 38.1006 11.1359 37.9154C11.0619 37.2979 10.8397 36.7422 10.5558 36.1988C10.2225 35.532 9.80287 34.9145 9.38322 34.3094C9.35854 34.2847 9.32155 34.2724 9.27218 34.2354Z" fill="#008056"/>
<path d="M143.316 49.757C142.897 49.9052 142.465 49.9422 142.033 49.8558C140.873 49.6212 140.009 48.5344 140.157 47.2872C140.231 46.6821 140.33 46.0893 140.416 45.4842C140.552 44.6074 140.7 43.7183 140.836 42.8415C140.86 42.6439 140.873 42.4587 140.836 42.2611C140.7 41.5325 140.737 40.8039 140.848 40.0754C140.934 39.5196 140.922 38.9639 140.823 38.4082C140.539 38.1242 140.181 38.0131 139.799 37.9884C139.527 37.976 139.256 37.976 138.972 37.976C138.861 37.976 138.774 38.0007 138.713 38.0501C138.589 38.0131 138.478 37.976 138.379 37.9637C137.972 37.9513 137.589 37.8402 137.244 37.6302C137.12 37.5562 136.997 37.5315 136.849 37.5438C136.651 37.5685 136.466 37.5685 136.269 37.5808C136.219 37.5808 136.158 37.5685 136.108 37.6549C136.158 37.729 136.207 37.8155 136.269 37.9019C136.553 38.2971 138.515 38.7046 138.577 38.4947C138.614 38.3959 138.614 38.2971 138.713 38.1983C138.75 38.2724 140.342 38.3959 140.49 38.791C140.786 39.1615 140.12 45.6695 140.095 46.4104C140.083 46.6327 140.083 46.8426 140.07 47.0649C140.046 47.423 139.959 47.7688 139.774 48.0775C139.601 48.3616 139.429 48.6456 139.256 48.9296C139.095 49.1889 140.428 50.6585 140.774 50.7079C141.268 50.782 141.774 50.782 142.28 50.782C142.601 50.782 142.86 50.6461 143.057 50.4115C143.156 50.3004 143.242 50.1769 143.304 50.041C143.477 49.7199 143.551 50.1769 143.625 49.8064C143.637 49.7693 143.613 49.72 143.613 49.6582C143.502 49.6829 143.403 49.72 143.316 49.757Z" fill="#008056"/>
<path d="M38.8709 25.6529C38.9079 25.8752 38.908 26.1099 38.908 26.3321C38.8586 29.901 38.8093 33.4699 38.7599 37.0388C38.7476 37.4463 38.7475 37.8661 38.7846 38.2737C38.8462 38.9899 38.9819 39.6938 39.241 40.373C39.4631 40.9534 39.7592 41.4968 40.154 41.9784C40.2527 42.0895 40.3514 42.2007 40.4871 42.2624C40.8079 42.3982 41.141 42.5094 41.5112 42.5588C41.4988 42.5464 41.4988 42.5464 41.4865 42.5341C41.5111 42.5464 41.5358 42.5464 41.5728 42.5588L41.4865 42.5341C41.3261 42.4106 41.1657 42.2994 41.0423 42.176C40.6599 41.8302 40.4254 41.3856 40.2527 40.904C39.9196 39.9902 39.8209 39.0393 39.8086 38.0761C39.7962 36.8535 39.8456 35.631 39.9813 34.4084C40.0677 33.5687 40.191 32.7289 40.3267 31.9015C40.4748 31.0495 40.5858 30.185 40.6599 29.3206C40.7462 28.3697 40.7832 27.4065 40.7956 26.4433C40.7956 26.0111 40.6599 25.6406 40.3638 25.3195C40.2281 25.1713 40.0677 25.0231 39.9073 24.912C39.2904 24.4674 38.5872 24.2081 37.8223 24.0723C37.884 24.1217 37.9456 24.1711 38.0073 24.2205C38.4761 24.5909 38.7722 25.0725 38.8709 25.6529Z" fill="#008056"/>
<path d="M43.7098 18.2796C44.3516 18.3043 44.9194 18.4895 45.4254 18.8723C45.6106 19.0082 45.7957 19.144 45.9808 19.2799C46.4622 19.638 47.0053 19.8109 47.6101 19.8109C48.0791 19.8109 48.4864 19.6627 48.832 19.354C49.0542 19.1564 49.2517 18.9341 49.3998 18.6748C49.7083 18.1808 49.9058 17.6498 50.0415 17.0941C50.0786 16.9459 50.1033 16.8101 50.128 16.6619C49.9922 16.773 49.9058 16.8965 49.807 17.02C49.6959 17.1435 49.5849 17.2546 49.4615 17.3534C49.3257 17.4522 49.1776 17.551 49.0294 17.6251C48.8937 17.6992 48.7332 17.7486 48.5851 17.8103C48.5358 17.9215 48.4987 18.0203 48.4494 18.1314C48.2766 18.4895 47.9927 18.6748 47.573 18.6624C46.9929 18.6501 46.4375 18.5266 45.9191 18.2672C45.6723 18.1438 45.4254 18.0326 45.1785 17.9091C45.0181 17.835 44.8577 17.798 44.6849 17.798C44.438 17.798 44.1788 17.798 43.9319 17.7856C43.4259 17.7733 42.9939 17.6004 42.6113 17.304C42.9816 17.8721 43.3765 18.2796 43.7098 18.2796Z" fill="#008056"/>
<path d="M42.6012 17.3201C42.2712 16.8288 41.9412 16.2146 41.6846 15.6372C41.7335 16.2023 41.9412 16.7059 42.3568 17.1236C42.4301 17.185 42.5157 17.2464 42.6012 17.3201Z" fill="#008056"/>
<path d="M41.0566 13.8838C40.9949 13.9456 41.2663 14.7359 41.6734 15.625C41.6611 15.5386 41.6487 15.4398 41.6487 15.3533C41.6487 14.9705 41.6488 14.6 41.6611 14.2172C41.6734 13.9456 41.624 13.7233 41.4637 13.4763C41.1922 13.0688 41.2539 12.4143 41.6487 12.1796C41.7474 12.1179 41.7721 12.0191 41.8091 11.9203C41.8955 11.6733 42.0189 11.4387 42.1793 11.2288C42.2409 11.1547 42.3027 11.0682 42.3643 10.9941C42.0312 11.0065 41.7351 11.1176 41.476 11.2782C41.0812 11.5251 40.8221 11.8709 40.7234 12.3402C40.6864 12.5131 40.6618 12.6983 40.6494 12.8835C40.6618 13.2787 41.328 13.6245 41.0566 13.8838Z" fill="#008056"/>
<path d="M60.0624 17.9355C59.939 17.9726 59.828 17.9973 59.7416 18.1084C59.5564 18.3431 59.2972 18.4172 59.0133 18.4048C58.532 18.3925 58.0506 18.3184 57.6186 18.1208C57.4088 18.022 57.1866 17.9849 56.9521 17.9849C56.4337 17.9849 55.9277 17.9726 55.4093 17.9602C54.6934 17.9355 54.1133 17.6268 53.6566 17.0835C53.311 16.6636 53.1382 16.1696 53.1382 15.6263C53.1382 15.2805 53.1506 14.9347 53.1506 14.6013C53.1506 14.5025 53.1506 14.4161 53.0765 14.3543C52.9778 14.2555 52.8667 14.1691 52.768 14.0827C52.6692 13.9839 52.5828 13.8851 52.4841 13.7739C52.336 13.9345 52.2125 14.095 52.0768 14.2432C51.9287 14.4037 51.7682 14.5396 51.6077 14.7001C51.5954 14.7125 51.5954 14.7124 51.583 14.7248C50.9906 15.3176 51.003 16.1449 51.3732 16.7377C51.5337 16.997 51.7435 17.2069 51.978 17.3922C52.2372 17.5898 52.5334 17.7627 52.8297 17.8861C53.5702 18.2072 54.3478 18.3925 55.1624 18.3925C55.8166 18.4048 56.4214 18.553 57.0015 18.8617C57.1866 18.9605 57.3841 19.0593 57.5816 19.1458C58.2728 19.4421 59.001 19.5286 59.7292 19.3433C61.0005 19.0099 61.9879 18.269 62.6791 17.1576C62.8148 16.9353 62.926 16.6883 62.9753 16.429C63.0741 15.9844 63.074 15.5398 62.7655 15.157C62.5803 14.9224 62.136 14.5519 61.7781 14.3543C61.7657 14.4655 61.7657 14.5519 61.7657 14.626C61.7534 14.9965 61.7534 15.3546 61.7534 15.7251C61.7534 16.0708 61.667 16.4043 61.5066 16.713C61.2103 17.3304 60.7166 17.7256 60.0624 17.9355Z" fill="#008056"/>
<path d="M56.9667 33.4202C56.979 31.2468 56.9912 29.0734 57.0034 26.8999C57.0034 26.8012 57.0034 26.69 57.0034 26.5912C57.0034 26.406 56.9301 26.2578 56.7834 26.1467C56.5512 25.9614 56.2823 25.8503 55.989 25.8132C55.9768 25.8503 55.9523 25.875 55.9523 25.8873C55.9646 26.196 55.989 26.5048 55.9767 26.8135C55.9278 30.3824 55.879 33.9512 55.8301 37.5201C55.8301 37.94 55.8301 38.3598 55.8668 38.7921C55.9523 39.5947 56.1357 40.3727 56.4779 41.1013C56.6001 41.373 56.7712 41.62 56.9179 41.8793C56.9545 41.9411 57.0034 42.0152 57.1134 42.0028C57.1134 41.9781 57.1378 41.9411 57.1256 41.9164C57.1012 41.4718 57.0523 41.0272 57.0401 40.5827C57.0034 39.7676 56.9667 38.965 56.9667 38.1499C56.9423 36.5569 56.9545 34.9886 56.9667 33.4202Z" fill="#008056"/>
<path d="M164.963 24.4059C164.975 24.3812 164.988 24.3565 164.975 24.3318L164.926 24.4553C164.901 24.4923 164.889 24.517 164.877 24.5294C164.371 25.3568 163.643 25.7643 162.68 25.7396C162.076 25.7272 161.471 25.7272 160.867 25.7149C160.139 25.7025 159.362 26.1594 159.226 27.1474C159.152 27.7154 159.066 28.2835 158.979 28.8392C158.844 29.7407 158.696 30.6421 158.56 31.556C158.535 31.7536 158.523 31.9635 158.535 32.1734C158.572 32.7538 159.016 33.2972 159.571 33.4701C159.658 33.4948 159.744 33.5195 159.843 33.4701C159.855 33.4454 159.88 33.4207 159.88 33.3836C160.053 32.9638 159.682 31.7165 159.769 31.0867C159.831 30.6421 159.966 27.2091 160.225 26.7399C160.225 26.6411 160.225 26.5299 160.25 26.4311C160.275 26.2706 160.386 26.1965 160.546 26.1965C160.744 26.1965 160.929 26.2706 161.077 26.4064C161.2 26.5299 164.42 26.2706 164.58 25.9001C164.778 25.4309 164.914 24.9492 165 24.3935C164.975 24.3935 164.963 24.3935 164.963 24.4059Z" fill="#008056"/>
<path d="M159.595 9.14169C159.693 9.16639 159.792 9.19109 159.891 9.21579C160.754 9.48747 161.31 10.0555 161.544 10.9323C161.643 11.3151 161.606 11.6979 161.544 12.0931C161.482 12.5253 161.408 12.9452 161.347 13.3774C161.26 13.9455 161.174 14.5012 161.088 15.0692C161.001 15.6249 160.915 16.1806 160.828 16.724C160.742 17.3168 160.643 17.8972 160.557 18.4899C160.508 18.811 160.471 19.1444 160.446 19.4778C160.434 19.6754 160.471 19.8607 160.594 20.0459C160.631 19.9965 160.668 19.9718 160.693 19.9348C160.816 19.7248 160.865 19.4902 160.902 19.2556C161.051 18.3541 161.334 17.502 161.803 16.724C162.001 16.3906 162.617 9.89499 162.05 9.19109C161.927 9.0429 161.778 8.94411 161.593 8.90706C161.47 8.88237 161.347 8.87002 161.223 8.85767C160.656 8.87002 160.138 9.0182 159.595 9.14169Z" fill="#008056"/>
<path d="M144.476 19.2808C144.537 18.8856 144.599 18.4905 144.661 18.0953C144.759 17.4902 144.846 16.8727 144.944 16.2676C144.982 16.07 144.944 15.8848 144.87 15.6996C144.698 15.3168 145.746 14.9463 145.598 14.5511C145.302 13.7731 145.154 12.9704 145.191 12.1307C145.204 11.822 145.241 11.5133 145.265 11.2045C145.278 10.9946 145.339 10.797 145.45 10.6241C145.561 10.4512 145.672 10.2783 145.796 10.1178C146.376 9.40157 145.845 8.77176 146.598 8.2531C146.672 8.20371 146.746 8.15431 146.82 8.10492C146.807 8.09257 146.807 8.08022 146.795 8.06787C146.758 8.06787 146.721 8.06787 146.696 8.08022C145.87 8.3519 146.339 8.75942 145.66 9.30277C145.389 9.51271 145.142 9.75969 144.932 10.0314C144.661 10.3771 144.513 10.76 144.476 11.1922C144.463 11.2786 144.463 11.3774 144.451 11.4639C144.34 12.3283 144.352 13.2051 144.55 14.0572C144.673 14.6129 144.426 19.6513 144.476 19.2808Z" fill="#008056"/>
<path d="M141.599 32.1114C141.858 32.2102 142.092 32.3707 142.388 32.3954C142.425 32.3213 142.462 32.2596 142.475 32.1978C142.512 32.0496 142.549 31.9138 142.573 31.7656C142.635 31.3704 142.684 30.9753 142.746 30.5801C142.907 29.5304 143.079 28.4808 143.24 27.4311C143.264 27.2459 143.277 27.0483 143.264 26.8507C143.264 26.7395 143.227 26.6161 143.166 26.5296C143.067 26.3691 142.968 26.2085 142.956 25.9863C142.771 26.0357 142.635 25.9863 142.487 25.8998C142.166 25.7146 141.796 25.6652 141.426 25.6528C141.192 25.6528 140.982 25.7269 140.809 25.8998C140.723 25.9739 140.649 26.0604 140.562 26.1468C140.476 26.2209 140.402 26.3073 140.316 26.3814C140.057 26.5667 141.784 26.2456 141.475 26.1097L142.783 26.7148C142.833 26.7642 142.894 30.8024 141.87 31.6421C141.87 31.815 141.599 31.9508 141.599 32.1114Z" fill="#008056"/>
<path d="M156.066 15.6381C156.079 15.6751 156.091 15.7245 156.177 15.7122C156.19 15.6751 156.202 15.6381 156.202 15.601C156.264 15.2306 156.313 14.8601 156.375 14.4896C156.548 13.3906 156.708 12.3038 156.893 11.2048C157.053 10.2416 157.596 9.58705 158.509 9.25363C158.719 9.17953 158.953 9.14248 159.176 9.09309C159.188 9.09309 159.2 9.06839 159.213 9.05604C159.126 9.01899 159.04 8.98195 158.953 8.9449C158.916 8.35215 155.709 10.1057 155.524 11.5876C155.45 12.1556 155.437 12.7237 155.474 13.3041C155.524 14.1068 155.77 14.8724 156.066 15.6381Z" fill="#008056"/>
<path d="M4.98768 51.3506C4.32146 50.4862 3.75394 49.56 3.22343 48.6091C2.49552 47.3372 1.91567 45.9911 1.47153 44.5957C1.08906 43.3855 0.829957 42.1382 0.681907 40.8786C0.57087 39.9154 0.509176 38.9398 0.521514 37.9643C0.533851 36.7047 0.570894 35.4451 0.706606 34.1855C0.694269 34.1978 0.694245 34.2102 0.681907 34.2225C0.694245 34.1731 0.706594 34.1361 0.694257 34.0867L0.644934 34.2842C0.632597 34.3213 0.607873 34.3584 0.595536 34.4077C0.237749 35.618 0.0156977 36.8528 0.00336019 38.1248C-0.0089773 38.6311 0.0157218 39.1374 0.0280593 39.6314C0.0527343 40.5823 0.163772 41.5208 0.336497 42.4593C0.706622 44.5833 1.39749 46.5962 2.45851 48.4856C3.61823 50.5726 5.14811 52.3385 7.03575 53.8081C7.13445 53.8822 7.23315 53.9563 7.34418 54.0304C7.34418 53.9933 7.35652 53.981 7.34418 53.981C7.30717 53.9439 7.27011 53.9069 7.22076 53.8575C6.41883 53.0795 5.66624 52.2521 4.98768 51.3506Z" fill="#008056"/>
<path d="M55.9029 46.7815C55.8288 46.7074 55.7672 46.6333 55.6808 46.5592C55.36 46.2752 54.9652 46.1517 54.5458 46.1764C54.4717 46.1764 54.3977 46.2135 54.262 46.2505C54.4841 46.8433 54.3607 47.4237 54.3854 47.9794C54.0769 48.3128 53.7191 48.5598 53.349 48.7821C52.9665 49.0043 52.5717 49.2019 52.1152 49.4489C52.5347 49.4613 52.8678 49.4242 53.2009 49.3748C53.5587 49.3254 53.8918 49.2266 54.2126 49.0784C54.5334 48.9426 54.7925 48.7203 55.0516 48.498C55.1133 48.5351 55.1749 48.5598 55.212 48.5845C55.8535 49.0043 56.5691 49.1896 57.3093 49.239C57.9015 49.2884 58.4938 49.2637 59.086 49.1896C59.0983 49.1896 59.1106 49.1649 59.1476 49.1278C59.0983 49.1031 59.0489 49.0661 58.9996 49.0414C57.8152 48.5227 56.8035 47.7324 55.9029 46.7815Z" fill="#008056"/>
<path d="M156.754 43.0893C156.754 43.0523 156.754 43.0029 156.754 42.9658V43.0893C156.742 43.077 156.742 43.077 156.742 43.077C156.655 43.6327 156.581 44.176 156.495 44.707C156.322 45.8184 156.162 46.9175 155.977 48.0289C155.853 48.8069 155.434 49.3997 154.743 49.7825C153.879 50.2517 152.843 50.1283 152.09 49.4861C151.93 49.3503 151.757 49.2515 151.56 49.1897C151.165 49.0539 150.795 48.8934 150.437 48.6834C150.388 48.6464 150.326 48.634 150.228 48.5846C150.252 48.6711 150.252 48.7081 150.277 48.7575C150.487 49.3132 150.795 49.8072 151.227 50.2024C151.844 50.7704 152.572 51.0668 153.411 51.0297C154.348 50.9927 155.126 50.6099 155.755 49.906C156.113 49.5108 156.359 49.0415 156.446 48.5105C156.483 48.3129 156.52 48.103 156.544 47.9054C156.618 47.3003 156.705 46.7076 156.729 46.1025C156.779 45.1269 156.779 44.1637 156.791 43.1881C156.779 43.1511 156.791 43.114 156.754 43.0893Z" fill="#008056"/>
<path d="M48.1024 10.3889C48.4108 10.3889 48.7193 10.4507 49.0031 10.5865C49.916 11.0311 50.3971 11.772 50.4095 12.797C50.4218 13.4391 50.3972 14.0813 50.3848 14.7111C50.3848 14.7605 50.3478 14.8222 50.4218 14.8469C50.5575 14.6493 50.6933 14.4518 50.8413 14.2542C51.0511 13.9578 51.1868 13.6367 51.2361 13.2786C51.2855 12.9699 51.2485 12.6611 51.1621 12.3648L49.0154 9.41336C48.855 9.31457 48.6699 9.21577 48.4972 9.15403C47.8063 8.91939 47.1277 8.96879 46.4862 9.35161C46.079 9.59859 45.7706 9.94437 45.4375 10.3148C45.5485 10.3272 45.6596 10.3272 45.7706 10.3272C46.5479 10.3642 47.3251 10.3766 48.1024 10.3889Z" fill="#008056"/>
<path d="M51.0278 49.4614C50.4847 49.3877 49.9417 49.3263 49.3986 49.2403C49.2382 49.2157 49.0777 49.228 48.9296 49.2772C47.8558 49.5966 46.7696 49.744 45.6464 49.6825C44.7948 49.6334 43.9431 49.572 43.0915 49.3877C42.9557 49.3632 42.8323 49.3386 42.6719 49.3017C42.7089 49.3509 42.7089 49.3877 42.7336 49.4123C43.1656 49.7808 43.6346 50.1248 44.153 50.3704C44.6837 50.6284 45.2392 50.7635 45.8439 50.7758C46.3376 50.7758 46.8314 50.7512 47.3127 50.6898C48.2137 50.567 49.1147 50.3827 49.991 50.1248C50.5341 49.9651 51.0772 49.7931 51.6079 49.5106C51.4104 49.4983 51.2129 49.486 51.0278 49.4614Z" fill="#008056"/>
<path d="M162.199 38.0015C162.162 38.0137 162.137 38.0137 162.1 38.0383C161.718 38.2349 161.298 38.2963 160.866 38.284C160.237 38.2594 159.608 38.2594 158.979 38.2594C158.794 38.2594 158.609 38.2717 158.436 38.3209C157.844 38.456 157.399 38.9473 157.301 39.5861C157.794 39.537 162.199 38.6894 162.26 38.1734C162.26 38.1243 162.248 38.0752 162.248 38.026C162.211 38.0015 162.211 38.0015 162.199 38.0015Z" fill="#008056"/>
<path d="M53.6196 1.34788C54.1254 1.36023 54.5819 1.50841 54.9891 1.81714C55.6306 2.29875 55.9513 2.9656 55.9637 3.76829C55.9637 4.324 55.9514 4.89205 55.9391 5.47245C55.9884 5.4601 56.0007 5.46011 56.0007 5.46011C56.1611 5.27487 56.3092 5.10199 56.4696 4.91675C56.4942 4.89205 56.5066 4.86735 56.5312 4.8303C56.6423 4.66977 56.7163 4.49688 56.7657 4.2993C56.8397 3.99057 56.8027 3.68185 56.7287 3.38547C56.3956 2.10117 55.6553 1.1009 54.5449 0.384653C54.3845 0.285861 54.1995 0.199417 54.0144 0.137672C53.2495 -0.134007 52.5709 -0.0105141 51.991 0.569891C51.7936 0.767475 51.5963 0.977409 51.3989 1.18734C51.3742 1.21204 51.3495 1.26144 51.3125 1.32318C51.4605 1.32318 51.5839 1.32318 51.695 1.32318C52.3365 1.32318 52.9781 1.33553 53.6196 1.34788Z" fill="#008056"/>
<path d="M20.6407 58.031C19.5422 58.0804 18.4438 58.0681 17.3576 57.9446C16.5306 57.8458 15.7037 57.7099 14.9014 57.5124C14.0621 57.3024 13.2475 57.006 12.4205 56.722C11.285 56.3145 10.1742 55.8452 9.12508 55.2525C9.12508 55.2772 9.14973 55.2895 9.16207 55.3019C9.1127 55.2648 9.05097 55.2525 8.98926 55.2278L9.16207 55.3142C9.21144 55.4007 9.29782 55.4501 9.37188 55.4995C10.4457 56.2527 11.5812 56.8702 12.7908 57.3642C14.2349 57.9569 15.7407 58.3397 17.2836 58.5126C18.1475 58.6114 19.0115 58.6361 19.8878 58.5867C20.8506 58.525 21.8009 58.4015 22.7266 58.1792C23.4548 58.0063 24.1584 57.784 24.8372 57.5C24.9236 57.463 25.0347 57.4506 25.0718 57.3395C24.9854 57.3642 24.9113 57.3889 24.8249 57.4012C23.4549 57.747 22.0601 57.9693 20.6407 58.031Z" fill="#008056"/>
<path d="M129.874 49.7179C129.726 49.7056 129.578 49.7425 129.442 49.8162C129.109 50.0004 128.727 50.0619 128.357 50.0741C127.925 50.0864 127.58 49.9267 127.32 49.5828C127.271 49.5214 127.234 49.4477 127.185 49.3862C127.16 49.3494 127.148 49.2634 127.061 49.3002C127.037 49.853 127.012 50.4058 127.098 50.9709C127.148 51.278 130.442 50.2707 130.726 49.8285C130.726 49.8162 130.726 49.8039 130.738 49.767C130.701 49.7548 130.676 49.7302 130.664 49.7302C130.405 49.7302 130.146 49.7179 129.874 49.7179Z" fill="#008056"/>
<path d="M46.0288 25.4291C45.523 25.6143 45.3009 25.9231 45.2886 26.4664C45.2639 27.3185 45.3132 28.1829 45.3996 29.035C45.4983 29.9859 45.7081 30.9244 45.9918 31.8506C46.2509 32.715 46.5346 33.5671 46.7197 34.4562C46.732 34.4933 46.7444 34.5427 46.7567 34.5797C46.7691 34.234 46.7444 33.9005 46.7073 33.5671C46.6086 32.6656 46.4976 31.7765 46.4113 30.875C46.3372 30.1217 46.2879 29.3684 46.2632 28.6151C46.2385 27.9359 46.2632 27.2444 46.2632 26.5529C46.2632 26.2565 46.362 25.9848 46.5347 25.7625C46.621 25.639 46.7321 25.5402 46.8308 25.4291C46.8678 25.392 46.8924 25.3426 46.9541 25.2686C46.6087 25.2933 46.3126 25.3179 46.0288 25.4291Z" fill="#008056"/>
<path d="M134.947 43.1141C134.935 43.0771 134.898 43.0524 134.849 42.9536C134.836 43.1265 134.836 43.2376 134.836 43.3488C134.812 44.6454 134.799 45.9544 134.787 47.2511C134.787 47.8932 134.602 48.4613 134.182 48.9552C134.158 48.9923 134.133 49.0417 134.108 49.1158C134.516 49.0911 134.861 49.017 135.194 48.8565C135.663 48.6342 135.91 48.276 135.922 47.7574C135.934 47.2881 135.922 46.8189 135.885 46.3496C135.762 45.2135 135.453 44.1391 134.947 43.1141Z" fill="#008056"/>
<path d="M126.299 21.8734C125.737 25.7263 125.859 29.6903 125.676 34.0125C125.602 35.7907 125.456 37.5196 125.431 39.2979C125.407 41.2861 125.224 42.8297 125.676 43.7065C125.994 44.3239 125.651 44.7932 126.055 44.9167C126.03 44.645 126.018 44.4474 125.994 44.2992C125.602 42.4098 126.165 40.0635 126.201 37.6307C126.275 32.6788 126.348 27.7392 126.409 22.7872C126.421 22.3673 126.421 21.9475 126.421 21.293C126.348 21.614 126.324 21.7375 126.299 21.8734Z" fill="#008056"/>
<path d="M134.701 37.6439C134.664 37.7798 134.652 37.9774 134.615 38.2614C135.019 38.1379 134.689 37.6686 135.019 37.0635C135.483 36.2115 135.361 34.6555 135.385 32.6673C135.41 30.889 135.312 29.1602 135.287 27.3819C135.226 23.0597 135.471 19.0957 135.006 15.2304C134.994 15.0946 134.97 14.9711 134.909 14.6377C134.896 15.3045 134.884 15.7121 134.884 16.1319C134.811 21.0839 134.737 26.0235 134.676 30.9755C134.652 33.4082 135.141 35.7669 134.701 37.6439Z" fill="#008056"/>
<path d="M32.7725 23.2651C32.8466 23.0809 32.9947 23.1914 33.1921 23.1914C33.2784 23.1914 33.5498 23.3388 33.6362 23.3511C33.9693 23.4125 33.8212 23.388 34.0556 23.6337C34.2283 23.8179 35.1043 23.6582 35.5361 23.6582C35.5238 23.6582 35.5238 23.6582 35.5238 23.6459C35.5485 23.6459 35.5731 23.6337 35.5978 23.6459L35.4992 23.6214C35.4621 23.5968 35.4251 23.5722 35.4004 23.5477C35.1907 23.4371 35.0056 23.2774 34.8452 23.1054C34.6972 22.9458 34.1667 23.0195 34.031 22.8475C33.8459 22.6264 32.6368 22.3438 32.2914 23.0195C32.2297 23.1546 31.3414 23.3143 31.3044 23.4494C31.1317 23.9899 31.07 23.6091 31.0576 24.1742C31.0576 24.211 31.0823 24.2479 31.0947 24.297C31.2304 24.211 32.7109 23.4125 32.7725 23.2651Z" fill="#008056"/>
<path d="M3.63156 28.7875H3.77966C5.0633 28.7997 6.34693 28.812 7.63056 28.8489C8.45752 28.8735 9.08698 29.2543 9.54366 29.9299C9.60537 30.0159 9.65477 30.1019 9.72883 30.2247C10.0374 30.0159 10.3089 29.807 10.4941 29.5122C10.6545 29.2665 10.6298 29.1068 10.42 28.9103C10.2596 28.7506 10.0498 28.6523 9.82759 28.5786C9.51902 28.4804 9.21044 28.4312 8.88954 28.4189C8.33412 28.4067 7.7663 28.4067 7.21088 28.3944C6.60609 28.3821 6.00135 28.4435 5.4089 28.5541C4.75474 28.6769 4.10054 28.7383 3.43403 28.7383C3.32295 28.7383 3.19956 28.7383 3.08848 28.7506C2.84163 28.7752 2.61942 28.8612 2.43428 29.0209C2.4096 29.0454 2.38496 29.0823 2.32324 29.1928C2.4837 29.1191 2.57006 29.07 2.6688 29.0331C2.96502 28.8734 3.28597 28.7875 3.63156 28.7875Z" fill="#008056"/>
<path d="M52.2873 22.8237C51.9665 23.1063 51.7197 23.4502 51.4977 23.8065C51.4853 23.8188 51.4977 23.8433 51.4977 23.8925C51.584 23.9047 51.6704 23.917 51.7568 23.917C52.349 23.9293 52.9412 23.9416 53.5334 23.9416C53.9282 23.9416 54.2983 24.0276 54.6561 24.1996C54.7178 24.2241 54.7795 24.2487 54.8535 24.2733C54.8658 24.2241 54.8905 24.1873 54.8782 24.1627C54.8042 23.6836 54.6561 23.2291 54.3354 22.8606C54.1503 22.6518 53.9282 22.5166 53.6445 22.4552C53.1263 22.3447 52.6821 22.4798 52.2873 22.8237Z" fill="#008056"/>
<path d="M128.085 11.6164C128.282 11.3093 128.578 11.1865 128.936 11.2111C129.318 11.2356 129.713 11.2848 130.071 11.4322C130.281 11.5182 130.491 11.5427 130.7 11.5427C131.502 11.555 132.304 11.5673 133.094 11.5796C133.143 11.5796 133.18 11.5796 133.229 11.5796L133.094 11.5673C132.884 11.5427 132.662 11.5059 132.452 11.4936C131.897 11.4813 131.403 11.3093 130.947 11.0022C130.762 10.8794 130.589 10.7566 130.404 10.6337C129.874 10.2775 129.281 10.1424 128.652 10.1792C128.282 10.2038 127.998 10.3635 127.813 10.6829C127.739 10.8057 127.69 10.9531 127.641 11.0882C127.554 11.383 127.493 11.6779 127.53 11.985C127.838 11.8867 127.949 11.8253 128.085 11.6164Z" fill="#008056"/>
<path d="M150.857 47.1029C150.993 46.2755 151.129 45.4604 151.277 44.6331C151.4 43.9292 151.548 43.2129 151.684 42.509C151.746 42.1879 151.807 41.8545 151.869 41.5334C151.807 41.5705 151.795 41.6322 151.77 41.7063C151.61 42.3361 151.437 42.9659 151.215 43.5834C151.092 43.9539 150.968 44.3243 150.845 44.6948C150.598 45.4975 150.45 46.3125 150.29 47.1276C150.216 47.5474 149.513 47.8562 149.809 48.1402C149.858 48.1896 149.907 48.276 150.006 48.239C149.994 48.0908 150.759 47.9549 150.771 47.8068C150.796 47.5721 150.82 47.3375 150.857 47.1029Z" fill="#008056"/>
<path d="M152.302 20.7072C152.314 20.7317 152.326 20.744 152.339 20.7686C152.4 20.8669 152.511 20.8669 152.61 20.8669C153.079 20.8791 153.548 20.8914 154.004 20.8791C154.189 20.8791 154.362 20.8423 154.535 20.7932C154.745 20.7317 154.954 20.6212 155.115 20.4123C154.621 20.2649 154.152 20.1298 153.659 20.1175C153.104 20.1052 152.573 20.0193 152.055 19.8227C151.944 19.7859 151.821 19.7613 151.672 19.7122C151.672 19.7736 151.66 19.7859 151.672 19.7981C151.882 20.1052 152.092 20.4001 152.302 20.7072Z" fill="#008056"/>
<path d="M147.931 8.98202C148.042 8.98202 148.141 8.98202 148.239 8.99437C148.4 9.00672 148.56 9.01906 148.708 9.06846C149.436 9.26604 149.954 9.69826 150.275 10.3898C150.312 10.4639 150.312 10.5627 150.448 10.6121C150.448 10.4516 150.448 10.3281 150.448 10.2046C150.448 9.96994 150.374 9.76 150.226 9.57477C149.856 9.1302 149.473 8.72269 149.017 8.36456C148.782 8.17933 148.511 8.05584 148.239 7.9447C148.153 7.90765 148.042 7.8953 147.894 7.87061C147.894 8.09289 147.881 8.26577 147.881 8.43866C147.881 8.5992 147.832 8.78443 147.931 8.98202Z" fill="#008056"/>
<path d="M150.214 14.6254C150.263 14.5884 150.275 14.5883 150.287 14.576C150.813 13.8227 151.069 12.9706 151.204 12.0691C151.228 11.8592 151.143 11.6863 150.972 11.5752C150.837 11.4887 150.69 11.4394 150.519 11.427C150.495 11.4887 150.483 11.5381 150.47 11.5875C150.348 12.3532 150.238 13.1188 150.128 13.8845C150.067 14.1314 150.14 14.3661 150.214 14.6254Z" fill="#008056"/>
<path d="M137.614 23.9732C137.614 23.8867 137.614 23.7879 137.614 23.7015C137.627 23.3804 137.614 23.0593 137.639 22.7383C137.664 22.4172 137.738 22.1085 138.021 21.8862C138.095 21.8368 138.145 21.7504 138.194 21.6763C138.688 21.0094 139.354 20.6636 140.193 20.676C140.39 20.676 140.575 20.6883 140.773 20.676C140.933 20.676 140.945 20.6636 140.982 20.4414C140.378 20.0091 139.576 19.935 138.996 20.4537C138.947 20.5031 138.885 20.5401 138.836 20.5895C138.206 21.1946 137.75 21.9109 137.503 22.7506C137.392 23.1828 137.417 23.578 137.614 23.9732Z" fill="#008056"/>
<path d="M36.4854 48.1518C36.4237 48.2506 36.362 48.3371 36.3003 48.4359C35.1036 50.6463 33.5367 52.5481 31.5504 54.0917C31.0939 54.4375 30.6251 54.7586 30.1562 55.0796C30.1069 55.1167 30.0452 55.1537 30.0082 55.2031L29.7861 55.3143C29.8602 55.3019 29.9218 55.2649 29.9835 55.2278C29.9588 55.2525 29.9465 55.2772 29.9342 55.3143C30.1192 55.1908 30.3043 55.0673 30.5017 54.9562C33.1296 53.3631 35.0912 51.1527 36.4854 48.4112C36.5101 48.3494 36.5471 48.2877 36.5594 48.2259C36.5717 48.2012 36.547 48.1642 36.5347 48.1518C36.51 48.1395 36.4854 48.1395 36.4854 48.1518Z" fill="#008056"/>
<path d="M64.7401 49.8682C63.4817 49.9912 62.2603 49.942 61.0389 49.7083C61.0389 49.7083 61.0512 49.7082 61.0512 49.7205C61.0265 49.7082 60.9895 49.7205 60.9648 49.7205L61.1129 49.7575C61.1129 49.7575 61.1005 49.7575 61.1005 49.7452C61.1005 49.7452 61.1129 49.7452 61.1129 49.7575C61.1376 49.7698 61.1622 49.7944 61.1869 49.7944C62.0752 50.2618 63.9629 50.3233 64.7401 49.8682Z" fill="#008056"/>
<path d="M52.4959 13.4491C52.6185 13.1658 52.5695 12.8702 52.5817 12.5007C52.4102 12.6978 52.398 12.8579 52.3857 13.018C52.3735 13.252 52.3979 13.3013 52.4959 13.4491Z" fill="#008056"/>
<path d="M47.7168 25.1463C47.7903 25.0476 47.8517 24.9366 47.9252 24.8379C47.9497 24.8009 47.9864 24.7639 47.9129 24.7146C47.7169 24.8256 47.5086 24.9243 47.2881 25.1216C47.4719 25.1956 47.5943 25.1833 47.7168 25.1463Z" fill="#008056"/>
<path d="M46.2085 41.361C46.1105 41.4596 46.037 41.5706 45.939 41.6693C45.8532 41.768 45.7552 41.8543 45.6572 41.953C45.9267 41.8173 46.1105 41.583 46.282 41.324C46.2575 41.3363 46.233 41.3486 46.2085 41.361Z" fill="#008056"/>
<path d="M37.4521 48.7208C37.4892 48.7457 37.5263 48.7829 37.5634 48.7953C37.6128 48.8201 37.6746 48.845 37.687 48.7581C37.6128 48.7208 37.551 48.6712 37.4521 48.7208Z" fill="#008056"/>
<path d="M151.882 41.5367C151.882 41.4612 151.894 41.3858 151.894 41.3103C151.882 41.3103 151.869 41.3103 151.869 41.3103C151.869 41.3858 151.882 41.4612 151.882 41.5367C151.882 41.5493 151.882 41.5493 151.882 41.5367Z" fill="#008056"/>
<path d="M25.2964 57.2654C25.2338 57.278 25.1711 57.3031 25.1084 57.3157C25.1836 57.3408 25.2463 57.3157 25.2964 57.2654Z" fill="#008056"/>
<path d="M112.901 23.1956C112.927 23.1956 112.952 23.1956 112.978 23.1829C112.952 23.1829 112.927 23.1829 112.901 23.1956Z" fill="#008056"/>
<path d="M111.546 22.3926C111.546 22.3926 111.533 22.3926 111.533 22.3799L111.546 22.3926Z" fill="#008056"/>
<path d="M46.3131 41.313C46.3256 41.2754 46.3506 41.2378 46.3631 41.2002C46.3131 41.2253 46.3006 41.2629 46.3131 41.313Z" fill="#008056"/>
<path d="M46.3013 41.3226L46.2891 41.3348C46.3013 41.3348 46.3136 41.3226 46.3013 41.3226C46.3013 41.3226 46.3136 41.3103 46.3013 41.3103C46.3136 41.3103 46.3136 41.3103 46.3013 41.3226Z" fill="#008056"/>
<path d="M46.5231 40.9287C46.5354 40.9162 46.5354 40.9162 46.5231 40.9287C46.4735 40.9411 46.4364 40.9536 46.3868 40.966C46.3744 41.0407 46.3744 41.1029 46.362 41.1776C46.362 41.19 46.3496 41.19 46.3496 41.2025C46.362 41.2025 46.362 41.19 46.362 41.19C46.362 41.1154 46.3744 41.0407 46.3744 40.966C46.4363 40.9536 46.4859 40.9411 46.5231 40.9287Z" fill="#008056"/>
<path d="M29.9221 55.315C29.9347 55.315 29.9347 55.315 29.9221 55.315C29.8846 55.3025 29.8971 55.315 29.9221 55.315Z" fill="#008056"/>
<path d="M25.32 57.2537H25.3066C25.3199 57.2537 25.3332 57.2537 25.3465 57.267C25.3465 57.267 25.3333 57.2537 25.32 57.2537Z" fill="#008056"/>
<path d="M25.3051 57.2652C25.3051 57.254 25.3051 57.254 25.3051 57.2652C25.294 57.2652 25.2939 57.2652 25.2939 57.2652C25.3051 57.2652 25.3051 57.2652 25.3051 57.2652Z" fill="#008056"/>
<path d="M107.276 29.5548C107.498 29.8018 107.671 30.0858 107.832 30.3822C108.128 30.975 108.313 31.6171 108.424 32.2716C108.609 33.2595 108.646 34.2474 108.646 35.2477C108.646 35.7417 108.609 36.2356 108.584 36.7172C108.535 37.5693 108.412 38.3967 108.189 39.2241C108.017 39.9033 107.757 40.5455 107.362 41.1382C106.918 41.7927 106.326 42.2496 105.548 42.4719C105.499 42.4843 105.437 42.509 105.388 42.5213C105.388 42.5336 105.388 42.546 105.4 42.5583C105.585 42.5336 105.783 42.5213 105.968 42.4843C107.153 42.2743 108.103 41.7063 108.782 40.706C108.955 40.4467 109.115 40.1626 109.251 39.8663C109.522 39.2982 109.695 38.6931 109.819 38.0756C110.016 37.1001 110.09 36.0998 110.103 35.1119C110.115 34.2351 110.066 33.3707 109.905 32.5186C109.757 31.7776 109.535 31.0614 109.165 30.3822C109.029 30.1352 108.868 29.9253 108.658 29.74C108.239 29.3819 107.782 29.0855 107.276 28.8633C106.708 28.6163 106.104 28.4804 105.486 28.4064C104.561 28.2952 103.635 28.3446 102.734 28.5916C102.499 28.6533 102.29 28.7521 102.092 28.9127C101.993 28.9991 101.895 29.0732 101.808 29.1596C101.253 29.6783 100.858 30.2958 100.562 30.9873C100.142 31.9629 99.9199 32.9878 99.8335 34.0499C99.7348 35.3589 99.7718 36.6555 100.031 37.9398C100.191 38.7301 100.426 39.4834 100.821 40.1997C101.142 40.7801 101.537 41.2864 102.055 41.6939C102.105 41.731 102.154 41.7557 102.216 41.7927C102.203 41.6939 102.166 41.6322 102.117 41.5704C101.882 41.274 101.697 40.9406 101.561 40.5825C101.438 40.2367 101.339 39.891 101.278 39.5205C101.154 38.8042 101.105 38.088 101.117 37.3717C101.129 36.0504 101.167 34.7414 101.154 33.4201C101.154 33.2842 101.167 33.1484 101.167 33.0125C101.179 32.4815 101.241 31.9629 101.339 31.4442C101.463 30.8515 101.648 30.2711 101.981 29.7524C102.413 29.0855 103.018 28.6657 103.795 28.5051C104.45 28.3693 105.091 28.4064 105.733 28.5792C106.338 28.7521 106.856 29.0732 107.276 29.5548Z" fill="#008056"/>
<path d="M153.915 26.1476C153.508 26.0365 153.101 25.9254 152.669 25.9254C152.287 25.913 151.917 25.8513 151.584 25.6537C151.51 25.6043 151.411 25.5796 151.324 25.5796C150.769 25.5672 150.202 25.5425 149.647 25.5549C149.017 25.5796 148.536 25.8883 148.252 26.4564C148.228 26.5058 148.228 26.5552 148.203 26.6292C148.277 26.6169 148.314 26.6169 148.364 26.6169C148.709 26.5552 149.067 26.5181 149.425 26.5181C149.819 26.5305 150.165 26.6539 150.473 26.8886C150.609 26.9997 153.335 27.3578 153.57 27.3455C153.817 27.3331 153.878 27.4072 153.878 27.6542C153.891 28.5187 153.817 29.3707 153.595 30.1981C153.422 30.8156 153.286 31.433 153.187 32.0752C153.126 32.495 153.027 32.5444 152.645 32.3345C152.484 32.2481 152.324 32.1616 152.163 32.0752C151.966 31.964 151.756 31.9517 151.534 31.9764C151.176 32.0258 150.856 32.174 150.572 32.4086C150.436 32.5321 150.3 32.6556 150.165 32.7791C149.955 32.9767 149.733 33.1495 149.474 33.2854C149.437 33.3101 149.387 33.3101 149.387 33.3842C149.819 33.3965 150.251 33.3965 150.683 33.3965C150.757 33.3965 150.843 33.3842 150.917 33.3471C151.312 33.1248 151.744 33.1001 152.176 33.1372C152.386 33.1495 152.583 33.1495 152.793 33.1619C152.953 33.1619 153.076 33.1001 153.187 33.0014C153.397 32.8038 153.558 32.5568 153.619 32.2728C153.669 32.0258 153.718 31.7788 153.755 31.5318C153.928 30.3834 154.113 29.2225 154.286 28.0741C154.323 27.8024 154.359 27.5307 154.396 27.2591C154.421 26.9627 154.372 26.691 154.236 26.4317C154.162 26.2835 154.076 26.1847 153.915 26.1476Z" fill="#008056"/>
<path d="M98.7335 21.8533C98.7335 21.8655 98.7212 21.8655 98.7212 21.8901C98.8076 21.8655 98.8816 21.841 98.9557 21.8164C100.758 21.1776 102.621 20.9074 104.535 20.8951C105.275 20.8951 106.016 20.9565 106.756 21.0425C107.608 21.1408 108.447 21.325 109.274 21.5462C110.052 21.7673 110.805 22.0498 111.533 22.3692C111.52 22.3446 111.508 22.3201 111.483 22.3078C111.545 22.3446 111.582 22.406 111.669 22.3938L111.483 22.2955C111.434 22.2463 111.385 22.2095 111.323 22.1849C109.435 21.0302 107.373 20.4283 105.164 20.3178C104.288 20.2809 103.411 20.33 102.535 20.4652C101.214 20.674 99.9678 21.1039 98.8076 21.7673C98.7829 21.7918 98.7459 21.8041 98.7335 21.8533L98.6348 21.8778C98.6595 21.8655 98.6965 21.8533 98.7335 21.8533Z" fill="#008056"/>
<path d="M112.83 23.1829L113.006 23.2583C112.981 23.2457 112.955 23.2332 112.93 23.2206C112.893 23.208 112.855 23.1954 112.83 23.1829Z" fill="#008056"/>
<path d="M64.5928 49.9318L64.8058 49.894C64.7432 49.9192 64.6554 49.8689 64.5928 49.9318Z" fill="#008056"/>
</svg>
