<svg width="379" height="329" viewBox="0 0 379 329" fill="none" xmlns="http://www.w3.org/2000/svg">
<path d="M326.195 0.952393H144.765C128.153 0.952393 114.686 14.4194 114.686 31.0317V257.063C114.686 273.676 128.153 287.143 144.765 287.143H326.195C342.807 287.143 356.274 273.676 356.274 257.063V31.0317C356.274 14.4194 342.807 0.952393 326.195 0.952393Z" fill="#EEC718"/>
<path d="M177.049 40.0097V14.3231H184.22V36.6918C184.22 39.8492 186.146 41.8827 189.357 41.8827H192.942V49H189.785C186.788 49 184.701 47.9297 183.256 46.5919C180.902 53.8162 174.426 58.2044 166.667 58.2044C157.249 58.2044 149.489 50.3378 149.489 40.1702C149.489 36.6383 149.703 34.8189 150.613 31.9826H158.105C158.105 31.9826 156.499 35.247 156.499 40.1702C156.499 45.9497 161.476 50.98 166.667 50.98C172.179 50.98 177.049 46.6454 177.049 40.0097ZM199.019 49H192.651V41.8827H198.698C200.625 41.8827 201.749 40.6519 201.749 38.5648V36.1032C201.749 29.9491 205.976 23.3669 214.217 23.3669C222.458 23.3669 226.9 29.9491 226.9 36.1032C226.9 42.3108 222.458 49.5887 214.217 49.5887C210.097 49.5887 207.314 47.8762 205.388 46.1638C204.424 47.3946 202.23 49 199.019 49ZM219.462 36.1032C219.462 32.3037 218.124 29.1999 214.217 29.1999C210.471 29.1999 209.133 32.6783 209.133 36.1032C209.133 39.9027 210.471 43.4346 214.217 43.4346C218.124 43.4346 219.462 40.3843 219.462 36.1032ZM249.41 49H244.22C235.229 49 234.587 41.294 234.587 38.2437V14.3231H241.758V38.6719C241.758 40.7589 242.935 41.8827 244.808 41.8827H249.41V49ZM263.004 13.5739H270.335V19.7815H263.004V13.5739ZM258.723 35.6751H251.926C252.087 27.434 259.151 23.795 265.572 23.795C275.312 23.795 283.607 31.6616 283.607 41.8827V49H249.144V41.8827H276.329C276.382 35.247 272.262 30.2167 265.572 30.2167C261.987 30.2167 259.044 31.7151 258.723 35.6751Z" fill="white"/>
<path d="M104.932 169.63C104.932 169.63 129.686 204.99 131.673 208.464C133.66 211.939 103.24 232.071 103.24 232.071C103.24 232.071 92.9184 197.314 90.5793 186.754C88.2402 176.194 86.4347 164.362 87.7519 157.889C89.0691 151.417 97.6534 159.331 97.6534 159.331" fill="#BF792A"/>
<path d="M104.932 169.63C104.932 169.63 129.686 204.99 131.673 208.464C133.66 211.939 103.24 232.071 103.24 232.071C103.24 232.071 92.9184 197.314 90.5793 186.754C88.2402 176.194 86.4347 164.362 87.7519 157.889C89.0691 151.417 97.6534 159.331 97.6534 159.331" stroke="#502A73" stroke-width="0.2767" stroke-miterlimit="10" stroke-linecap="round" stroke-linejoin="round"/>
<path d="M88.8195 190.387C88.8195 190.387 91.1586 193.385 95.587 195.179C100.015 196.973 101.458 197.246 101.458 197.246" stroke="#502A73" stroke-width="0.2767" stroke-miterlimit="10" stroke-linecap="round" stroke-linejoin="round"/>
<path d="M91.1473 200.096C91.1473 200.096 93.8271 203.094 97.2222 203.934C100.617 204.774 101.458 204.649 101.458 204.649" stroke="#502A73" stroke-width="0.2767" stroke-miterlimit="10" stroke-linecap="round" stroke-linejoin="round"/>
<path d="M284.159 143.821V136.531C284.159 128.56 291.097 122.099 299.658 122.099C308.22 122.099 315.158 128.56 315.158 136.531V146.387" fill="#008056"/>
<path d="M284.159 143.821V136.531C284.159 128.56 291.097 122.099 299.658 122.099C308.22 122.099 315.158 128.56 315.158 136.531V146.387" stroke="#502A73" stroke-width="0.2767" stroke-miterlimit="10" stroke-linecap="round" stroke-linejoin="round"/>
<path d="M297.115 139.608C297.115 139.608 307.118 139.256 312.387 136.565C326.115 129.536 337.255 134.816 332.769 140.857C331.305 142.822 327.864 145.445 318.405 145.081" fill="#502A73"/>
<path d="M297.115 139.608C297.115 139.608 307.118 139.256 312.387 136.565C326.115 129.536 337.255 134.816 332.769 140.857C331.305 142.822 327.864 145.445 318.405 145.081" stroke="#502A73" stroke-width="0.2767" stroke-miterlimit="10" stroke-linecap="round" stroke-linejoin="round"/>
<path d="M297.115 139.608C297.115 139.608 307.118 139.256 312.387 136.565C326.115 129.536 337.255 134.816 332.769 140.857C331.305 142.822 327.864 145.445 318.405 145.081" stroke="#502A73" stroke-width="0.2767" stroke-miterlimit="10" stroke-linecap="round" stroke-linejoin="round"/>
<path d="M244.098 286.382H113.074C113.074 286.382 99.039 288.119 99.0958 274.573C99.1525 261.026 113.868 261.923 113.868 261.923L122.101 249.581L128.585 261.912H254.965" fill="#A9D054"/>
<path d="M244.098 286.382H113.074C113.074 286.382 99.039 288.119 99.0958 274.573C99.1525 261.026 113.868 261.923 113.868 261.923L122.101 249.581L128.585 261.912H254.965" stroke="#502A73" stroke-width="0.2767" stroke-miterlimit="10" stroke-linecap="round" stroke-linejoin="round"/>
<path d="M247.914 134.294C247.914 134.294 312.274 140.948 324.878 143.105C337.482 145.263 339.855 154.063 336.959 163.817C334.075 173.571 312.262 253.93 312.262 253.93L273.258 239.1L220.582 221.034L247.914 134.294Z" fill="#A9D054" stroke="#502A73" stroke-width="0.2767" stroke-miterlimit="10" stroke-linecap="round" stroke-linejoin="round"/>
<path d="M324.877 143.105C320.79 142.401 311.274 141.232 300.271 139.971C301.963 140.176 319.37 142.538 317.69 153.893C316.145 164.316 291.255 236.171 291.255 236.171L316.815 237.227C323.367 213.131 334.915 170.743 336.97 163.828C339.855 154.063 337.493 145.263 324.877 143.105Z" fill="#A9D054" stroke="#502A73" stroke-width="0.2767" stroke-miterlimit="10" stroke-linecap="round" stroke-linejoin="round"/>
<path d="M306.982 235.853C313.534 211.758 325.082 169.37 327.137 162.454C330.021 152.7 327.659 143.9 315.055 141.743" stroke="#502A73" stroke-width="0.2767" stroke-miterlimit="10" stroke-linecap="round" stroke-linejoin="round"/>
<path d="M273.156 167.484C266.491 152.768 259.576 140.539 255.533 135.191C249.697 127.458 246.075 120.157 235.219 120.759C224.364 121.36 206.037 128.843 206.037 128.843C206.037 128.843 190.072 122.155 192.808 127.833C195.545 133.51 190.98 131.137 190.98 131.137L187.71 136.099C187.71 136.099 174.516 141.856 166.579 145.683C158.641 149.521 151.635 152.518 149.535 156.947C147.434 161.387 127.824 201.413 127.824 201.413L176.276 206.931L267.286 205.319C267.263 205.308 274.269 175.637 273.156 167.484Z" fill="white" stroke="#502A73" stroke-width="0.2767" stroke-miterlimit="10" stroke-linecap="round" stroke-linejoin="round"/>
<path d="M198.145 155.21C198.145 155.21 202.085 147.909 208.978 146.296C215.541 144.763 216.87 148.011 216.347 149.328C215.825 150.645 214.553 151.713 211.431 152.905C206.207 154.881 204.493 157.095 204.493 157.095C204.493 157.095 213.259 154.994 218.119 157.095C222.967 159.195 221.695 163.715 218.119 162.965C214.542 162.216 207.309 160.728 207.309 160.728C207.309 160.728 212.157 163.34 213.815 166.065C215.473 168.79 213.077 175.467 207.502 173.207C201.915 170.948 199.349 167.416 199.349 167.416L190.787 159.616L183.055 160.456C183.055 160.456 178.047 160.569 179.898 156.8C181.726 153.03 192.649 150.657 198.145 155.21Z" fill="#4BBEA5" stroke="#502A73" stroke-width="0.2767" stroke-miterlimit="10" stroke-linecap="round" stroke-linejoin="round"/>
<path d="M154.508 151.928C152.169 153.461 150.409 155.073 149.523 156.947C147.422 161.386 127.812 201.413 127.812 201.413L165.409 205.693L172.733 183.801C172.733 183.801 156.756 158.752 155.121 155.993C154.326 154.619 154.315 153.109 154.508 151.928Z" fill="white" stroke="#502A73" stroke-width="0.2767" stroke-miterlimit="10" stroke-linecap="round" stroke-linejoin="round"/>
<path d="M255.533 135.191C250.412 128.412 247.005 121.963 238.92 120.884C238.216 121.463 237.422 122.315 236.502 123.53C233.799 127.118 231.358 134.725 229.643 141.118C227.906 147.613 228.917 154.551 232.403 160.251L239.511 171.902C239.511 171.902 273.371 169.086 273.156 167.485C266.49 152.78 259.575 140.539 255.533 135.191Z" fill="white" stroke="#502A73" stroke-width="0.2767" stroke-miterlimit="10" stroke-linecap="round" stroke-linejoin="round"/>
<path d="M57.6503 244.857C57.6503 244.857 54.153 246.469 59.9213 259.959C65.7009 273.437 83.5622 289.981 96.3479 283.509C97.1428 283.1 98.4713 275.231 99.0959 274.584C108.418 264.864 98.1079 237.135 98.1079 237.135L57.6503 244.857Z" fill="#502A73" stroke="#502A73" stroke-width="0.2767" stroke-miterlimit="10" stroke-linecap="round" stroke-linejoin="round"/>
<path d="M57.6503 244.857C57.6503 244.857 54.153 246.469 59.9213 259.959C65.7009 273.437 83.5622 289.981 96.3479 283.509C97.1428 283.1 98.4713 275.231 99.0959 274.584C108.418 264.864 98.1079 237.135 98.1079 237.135L57.6503 244.857Z" stroke="#502A73" stroke-width="0.2767" stroke-miterlimit="10" stroke-linecap="round" stroke-linejoin="round"/>
<path d="M77.7826 282.521L98.0171 261.129L84.0051 239.372L65.4397 238.385L55.629 249.796" fill="#BF792A"/>
<path d="M77.7826 282.521L98.0171 261.129L84.0051 239.372L65.4397 238.385L55.629 249.796" stroke="#502A73" stroke-width="0.2767" stroke-miterlimit="10" stroke-linecap="round" stroke-linejoin="round"/>
<path d="M160.265 180.928C160.265 180.928 131.366 187.151 125.587 189.66C119.807 192.181 114.731 196.133 106.851 203.502C98.9708 210.871 57.6388 244.845 57.6388 244.845C57.6388 244.845 68.074 241.984 81.6318 254.735C96.1662 268.395 96.3364 283.498 96.3364 283.498L135.909 242.506L179.511 216.435" fill="white"/>
<path d="M160.265 180.928C160.265 180.928 131.366 187.151 125.587 189.66C119.807 192.181 114.731 196.133 106.851 203.502C98.9708 210.871 57.6388 244.845 57.6388 244.845C57.6388 244.845 68.074 241.984 81.6318 254.735C96.1662 268.395 96.3364 283.498 96.3364 283.498L135.909 242.506L179.511 216.435" stroke="#502A73" stroke-width="0.2767" stroke-miterlimit="10" stroke-linecap="round" stroke-linejoin="round"/>
<path d="M88.2175 262.23C88.2175 262.23 118.138 233.309 127.585 223.759C139.406 211.814 142.88 211.939 152.157 210.815C161.434 209.69 167.986 209.248 167.986 209.248" stroke="#502A73" stroke-width="0.2767" stroke-miterlimit="10" stroke-linecap="round" stroke-linejoin="round"/>
<path d="M198.974 183.552C198.974 183.552 179.307 174.865 167.396 177.204C155.485 179.543 149.58 191.432 145.333 204.411C142.188 214.028 132.854 242.802 128.244 257.03C126.802 261.47 129.311 266.239 133.717 267.442C142.04 269.702 154.962 273.052 163.603 274.528C177.263 276.867 179.035 276.731 179.035 276.731L184.678 263.025H219.345C228.542 263.025 237.638 260.936 245.87 256.723C257.259 250.887 268.444 240.292 261.154 222.215C248.016 189.672 214.916 183.927 214.916 183.927L198.974 183.552Z" fill="white" stroke="#502A73" stroke-width="0.2767" stroke-miterlimit="10" stroke-linecap="round" stroke-linejoin="round"/>
<path d="M206.264 193.817C195.295 193.623 189.867 197.45 186.54 204.706C183.963 210.327 165.488 253.907 157.29 273.29C159.266 273.71 161.15 274.085 162.888 274.403C166.805 264.853 186.415 217.23 191.093 208.169C196.305 198.086 206.593 196.031 213.815 202.378C221.036 208.726 221.036 208.726 221.036 208.726L223.932 205.694C223.932 205.682 217.233 194.01 206.264 193.817Z" fill="white" stroke="#502A73" stroke-width="0.2767" stroke-miterlimit="10" stroke-linecap="round" stroke-linejoin="round"/>
<path d="M184.667 263.014L200.28 226.758" stroke="#502A73" stroke-width="0.2767" stroke-miterlimit="10" stroke-linecap="round" stroke-linejoin="round"/>
<path d="M165.999 165.94L166.113 166.133L171.211 172.719L174.038 178.805L191.377 173.185L197.395 170.187L193.807 159.775L192.831 153.688L192.57 153.484L184.837 157.038" fill="#008056"/>
<path d="M165.999 165.94L166.113 166.133L171.211 172.719L174.038 178.805L191.377 173.185L197.395 170.187L193.807 159.775L192.831 153.688L192.57 153.484L184.837 157.038" stroke="#502A73" stroke-width="0.2767" stroke-miterlimit="10" stroke-linecap="round" stroke-linejoin="round"/>
<path d="M213.259 178.465C215.748 178.465 217.767 176.391 217.767 173.832C217.767 171.273 215.748 169.199 213.259 169.199C210.769 169.199 208.751 171.273 208.751 173.832C208.751 176.391 210.769 178.465 213.259 178.465Z" fill="#EEC718" stroke="#502A73" stroke-width="0.2767" stroke-miterlimit="10" stroke-linecap="round" stroke-linejoin="round"/>
<path d="M200.541 201.14C203.03 201.14 205.049 199.066 205.049 196.508C205.049 193.949 203.03 191.875 200.541 191.875C198.051 191.875 196.033 193.949 196.033 196.508C196.033 199.066 198.051 201.14 200.541 201.14Z" fill="#EEC718" stroke="#502A73" stroke-width="0.2767" stroke-miterlimit="10" stroke-linecap="round" stroke-linejoin="round"/>
<path d="M200.541 209.259C203.03 209.259 205.049 207.185 205.049 204.626C205.049 202.068 203.03 199.993 200.541 199.993C198.051 199.993 196.033 202.068 196.033 204.626C196.033 207.185 198.051 209.259 200.541 209.259Z" fill="#EEC718" stroke="#502A73" stroke-width="0.2767" stroke-miterlimit="10" stroke-linecap="round" stroke-linejoin="round"/>
<path d="M200.984 217.423C203.473 217.423 205.491 215.349 205.491 212.791C205.491 210.232 203.473 208.158 200.984 208.158C198.494 208.158 196.476 210.232 196.476 212.791C196.476 215.349 198.494 217.423 200.984 217.423Z" fill="#EEC718" stroke="#502A73" stroke-width="0.2767" stroke-miterlimit="10" stroke-linecap="round" stroke-linejoin="round"/>
<path d="M202.948 225.213C205.438 225.213 207.456 223.139 207.456 220.58C207.456 218.021 205.438 215.947 202.948 215.947C200.458 215.947 198.44 218.021 198.44 220.58C198.44 223.139 200.458 225.213 202.948 225.213Z" fill="#EEC718" stroke="#502A73" stroke-width="0.2767" stroke-miterlimit="10" stroke-linecap="round" stroke-linejoin="round"/>
<path d="M206.264 233.014C208.754 233.014 210.772 230.94 210.772 228.381C210.772 225.822 208.754 223.748 206.264 223.748C203.774 223.748 201.756 225.822 201.756 228.381C201.756 230.94 203.774 233.014 206.264 233.014Z" fill="#EEC718" stroke="#502A73" stroke-width="0.2767" stroke-miterlimit="10" stroke-linecap="round" stroke-linejoin="round"/>
<path d="M211.09 240.508C213.579 240.508 215.598 238.434 215.598 235.875C215.598 233.317 213.579 231.242 211.09 231.242C208.6 231.242 206.582 233.317 206.582 235.875C206.582 238.434 208.6 240.508 211.09 240.508Z" fill="#EEC718" stroke="#502A73" stroke-width="0.2767" stroke-miterlimit="10" stroke-linecap="round" stroke-linejoin="round"/>
<path d="M206.73 118.352L200.371 118.953L201.302 124.585L205.038 123.268L206.73 118.352Z" fill="white" stroke="#502A73" stroke-width="0.2767" stroke-miterlimit="10" stroke-linecap="round" stroke-linejoin="round"/>
<path d="M186.62 93.6657C182.158 87.852 180.432 86.6029 175.776 87.5681C169.485 88.8739 163.149 99.6838 162.014 103.817C160.878 107.95 162.718 109.665 164.205 109.392C165.693 109.12 167.18 107.598 167.18 107.598C167.18 107.598 168.1 110.323 169.417 113.855C169.588 114.275 169.61 114.752 169.485 115.195L168.1 120.055C167.918 120.94 168.634 121.747 169.508 121.622L172.165 121.463C172.744 121.451 172.915 121.985 172.824 123.064C172.688 124.585 174.118 124.665 174.448 124.676C175.027 124.71 174.357 125.108 174.686 126.073C174.97 126.902 175.469 126.958 175.731 127.401C176.389 128.514 176.707 128.923 177.218 129.74C177.979 130.944 179.432 131.466 180.75 131.001L187.631 128.548L195.045 134.305L196.624 128.435L204.129 122.893C204.141 122.882 190.56 98.7981 186.62 93.6657Z" fill="#BF792A" stroke="#502A73" stroke-width="0.2767" stroke-miterlimit="10" stroke-linecap="round" stroke-linejoin="round"/>
<path d="M171.824 102.954C174.095 100.433 175.98 97.1289 175.98 97.1289C175.98 97.1289 175.061 101.353 175.98 101.853C176.9 102.352 179.262 99.5588 179.398 99.6043C179.534 99.6497 178.433 103.022 179.046 103.874C179.659 104.725 180.715 103.51 180.931 103.737C181.147 103.965 180.182 107.11 180.67 107.598C181.147 108.098 181.942 107.961 181.942 107.961C181.942 107.961 182.509 110.868 184.792 110.789C187.074 110.709 187.017 109.12 185.552 105.622C185.098 104.544 185.371 103.431 186.2 103.363C187.687 103.238 190.537 105.089 190.537 105.089C190.537 105.089 194.114 109.199 196.147 108.972C192.456 102.67 188.482 96.0842 186.631 93.6769C182.169 87.8632 180.443 86.6141 175.787 87.5793C169.497 88.8851 163.161 99.6951 162.025 103.828C160.89 107.961 162.729 109.676 164.217 109.404C165.704 109.131 167.192 107.609 167.192 107.609C167.192 107.609 169.179 105.884 171.824 102.954Z" fill="#502A73" stroke="#502A73" stroke-width="0.2767" stroke-miterlimit="10" stroke-linecap="round" stroke-linejoin="round"/>
<path d="M171.824 102.954C174.095 100.433 175.98 97.1289 175.98 97.1289C175.98 97.1289 175.061 101.353 175.98 101.853C176.9 102.352 179.262 99.5588 179.398 99.6043C179.534 99.6497 178.433 103.022 179.046 103.874C179.659 104.725 180.715 103.51 180.931 103.737C181.147 103.965 180.182 107.11 180.67 107.598C181.147 108.098 181.942 107.961 181.942 107.961C181.942 107.961 182.509 110.868 184.792 110.789C187.074 110.709 187.017 109.12 185.552 105.622C185.098 104.544 185.371 103.431 186.2 103.363C187.687 103.238 190.537 105.089 190.537 105.089C190.537 105.089 194.114 109.199 196.147 108.972C192.456 102.67 188.482 96.0842 186.631 93.6769C182.169 87.8632 180.443 86.6141 175.787 87.5793C169.497 88.8851 163.161 99.6951 162.025 103.828C160.89 107.961 162.729 109.676 164.217 109.404C165.704 109.131 167.192 107.609 167.192 107.609C167.192 107.609 169.179 105.884 171.824 102.954Z" stroke="#502A73" stroke-width="0.2767" stroke-miterlimit="10" stroke-linecap="round" stroke-linejoin="round"/>
<path d="M186.439 106.338C186.166 105.668 186.007 105.032 186.007 104.555C186.007 102.647 187.256 101.092 189.118 101.092C190.981 101.092 192.173 102.693 192.582 104.555C192.968 106.292 192.82 108.064 192.275 109.267C191.855 110.187 191.219 110.789 190.413 110.789" fill="#BF792A"/>
<path d="M186.439 106.338C186.166 105.668 186.007 105.032 186.007 104.555C186.007 102.647 187.256 101.092 189.118 101.092C190.981 101.092 192.173 102.693 192.582 104.555C192.968 106.292 192.82 108.064 192.275 109.267C191.855 110.187 191.219 110.789 190.413 110.789" stroke="#502A73" stroke-width="0.2767" stroke-miterlimit="10" stroke-linecap="round" stroke-linejoin="round"/>
<path d="M187.767 110.585C187.767 110.585 187.71 111.754 186.802 112.265C185.893 112.776 184.44 112.265 184.44 112.265" stroke="#502A73" stroke-width="0.2767" stroke-miterlimit="10" stroke-linecap="round" stroke-linejoin="round"/>
<path d="M188.414 112.254C188.414 112.254 188.357 113.423 187.449 113.934C186.541 114.445 185.087 113.934 185.087 113.934" stroke="#502A73" stroke-width="0.2767" stroke-miterlimit="10" stroke-linecap="round" stroke-linejoin="round"/>
<path d="M206.73 118.352L196.635 128.423L204.141 137.292L214.326 123.927C214.326 123.927 207.956 119.43 206.73 118.352Z" fill="white" stroke="#502A73" stroke-width="0.2767" stroke-miterlimit="10" stroke-linecap="round" stroke-linejoin="round"/>
<path d="M188.017 128.832L184.429 135.554C184.429 135.554 184.906 137.065 186.098 138.609C187.71 140.71 189.402 141.55 189.402 141.55L190.969 131.137L188.017 128.832Z" fill="white" stroke="#502A73" stroke-width="0.2767" stroke-miterlimit="10" stroke-linecap="round" stroke-linejoin="round"/>
<path d="M188.028 105.804C188.028 105.804 187.585 103.794 189.413 103.794C190.594 103.794 191.128 105.566 190.458 106.485C190.083 106.996 189.232 107.11 189.232 107.11C189.232 107.11 189.89 107.257 189.879 107.882C189.868 108.665 188.925 108.472 188.925 108.472" fill="#BF792A"/>
<path d="M188.028 105.804C188.028 105.804 187.585 103.794 189.413 103.794C190.594 103.794 191.128 105.566 190.458 106.485C190.083 106.996 189.232 107.11 189.232 107.11C189.232 107.11 189.89 107.257 189.879 107.882C189.868 108.665 188.925 108.472 188.925 108.472" stroke="#502A73" stroke-width="0.2767" stroke-miterlimit="10" stroke-linecap="round" stroke-linejoin="round"/>
<path d="M174.448 124.676C174.448 124.676 176.276 124.585 177.57 123.87C178.91 123.121 179.376 122.371 179.376 122.371" stroke="#502A73" stroke-width="0.2767" stroke-miterlimit="10" stroke-linecap="round" stroke-linejoin="round"/>
<path d="M173.993 111.255C174.448 110.88 175.004 110.641 175.583 110.585" stroke="#502A73" stroke-width="0.5534" stroke-miterlimit="10" stroke-linecap="round" stroke-linejoin="round"/>
<path d="M174.221 111.13C174.187 111.493 174.277 112.015 174.459 112.458C174.743 113.162 175.129 113.389 175.436 113.253C175.742 113.117 175.856 112.685 175.583 111.981C175.402 111.538 175.106 111.096 174.845 110.868L174.221 111.13Z" fill="#502A73"/>
<path d="M168.997 113.367C169.452 112.992 170.008 112.754 170.587 112.697" stroke="#502A73" stroke-width="0.5534" stroke-miterlimit="10" stroke-linecap="round" stroke-linejoin="round"/>
<path d="M169.213 113.242C169.179 113.606 169.27 114.128 169.451 114.571C169.735 115.275 170.121 115.502 170.428 115.366C170.734 115.229 170.848 114.798 170.575 114.094C170.394 113.651 170.099 113.208 169.837 112.981L169.213 113.242Z" fill="#502A73"/>
<path d="M171.393 109.847C171.654 110.062 172.04 110.006 172.211 109.71C172.506 109.211 173.062 108.552 173.993 108.325C174.504 108.2 174.902 108.166 175.208 108.189C175.572 108.212 175.822 107.814 175.674 107.474C175.617 107.337 175.492 107.235 175.356 107.19C174.629 106.985 172.381 106.576 171.246 109.177C171.143 109.404 171.2 109.676 171.393 109.847Z" fill="#502A73"/>
<path d="M181.192 120.691C181.851 120.6 182.123 120.123 182.123 120.123C182.123 120.123 179.523 119.169 178.899 119.135C178.263 119.101 176.991 119.85 175.152 120.929C174.164 121.508 173.312 121.735 172.733 121.815C172.846 122.076 172.881 122.485 172.824 123.053C172.812 123.155 172.812 123.246 172.812 123.325C173.414 123.268 174.334 123.132 175.345 122.723C177.127 122.008 178.978 120.713 179.126 120.6C179.217 120.543 180.409 120.804 181.192 120.691Z" fill="#502A73" stroke="#502A73" stroke-width="0.2767" stroke-miterlimit="10" stroke-linecap="round" stroke-linejoin="round"/>
<path d="M181.192 120.691C181.851 120.6 182.123 120.123 182.123 120.123C182.123 120.123 179.523 119.169 178.899 119.135C178.263 119.101 176.991 119.85 175.152 120.929C174.164 121.508 173.312 121.735 172.733 121.815C172.846 122.076 172.881 122.485 172.824 123.053C172.812 123.155 172.812 123.246 172.812 123.325C173.414 123.268 174.334 123.132 175.345 122.723C177.127 122.008 178.978 120.713 179.126 120.6C179.217 120.543 180.409 120.804 181.192 120.691Z" stroke="#502A73" stroke-width="0.2767" stroke-miterlimit="10" stroke-linecap="round" stroke-linejoin="round"/>
<path d="M168.691 109.631C168.395 109.665 168.168 109.767 167.987 109.892L168.429 111.13C168.52 111.039 168.634 110.959 168.781 110.914C169.088 110.8 169.429 110.789 169.724 110.812C170.042 110.834 170.314 110.573 170.314 110.244C170.314 109.994 170.155 109.767 169.906 109.699C169.656 109.619 169.258 109.563 168.691 109.631Z" fill="#502A73"/>
<path d="M281.627 188.23C279.038 181.088 276.12 174.036 273.156 167.484C269.295 167.394 264.038 167.428 257.804 167.882C251.082 168.359 244.485 170.176 239.523 171.901C243.872 179.77 247.142 188.105 247.142 188.105L211.022 172.764C211.022 172.764 206.071 166.428 202.051 163.011C198.02 159.593 193.819 159.774 193.819 159.774L195.216 167.734C195.216 167.734 191.98 171.425 185.496 173.843C179.012 176.273 174.289 176.273 174.289 176.273L171.223 172.719C171.223 172.719 169.599 175.456 171.745 180.315C173.891 185.164 179.273 184.54 179.273 184.54C180.057 188.627 185.008 188.945 185.008 188.945C186.064 191.33 189.777 192.181 189.777 192.181C189.777 192.181 190.447 194.963 193.978 195.736C198.338 196.678 200.893 194.975 200.893 194.975C200.893 194.975 215.609 207.829 233.993 223.283C252.377 238.737 269.92 235.319 277.017 231.367C289.621 224.361 290.03 211.417 281.627 188.23Z" fill="#BF792A" stroke="#502A73" stroke-width="0.2767" stroke-miterlimit="10" stroke-linecap="round" stroke-linejoin="round"/>
<path d="M219.288 184.755C219.288 184.755 220.299 187.685 220.299 190.796C220.299 196.371 219.288 199.006 219.288 199.006" stroke="#502A73" stroke-width="0.2767" stroke-miterlimit="10" stroke-linecap="round" stroke-linejoin="round"/>
<path d="M232.142 192.67C232.142 192.67 233.8 195.27 234.527 198.29C235.821 203.707 235.435 206.511 235.435 206.511" stroke="#502A73" stroke-width="0.2767" stroke-miterlimit="10" stroke-linecap="round" stroke-linejoin="round"/>
<path d="M242.929 194.339C242.929 194.339 244.099 197.246 244.099 203.207C244.099 206.92 242.929 213.517 242.929 213.517" stroke="#502A73" stroke-width="0.2767" stroke-miterlimit="10" stroke-linecap="round" stroke-linejoin="round"/>
<path d="M249.458 198.892C249.458 198.892 251.445 201.526 253.194 207.522C254.943 213.517 254.943 217.707 254.943 217.707" stroke="#502A73" stroke-width="0.2767" stroke-miterlimit="10" stroke-linecap="round" stroke-linejoin="round"/>
<path d="M266.922 196.508L211.01 172.764" stroke="#502A73" stroke-width="0.2767" stroke-miterlimit="10" stroke-linecap="round" stroke-linejoin="round"/>
<path d="M191.094 180.679C191.094 180.679 187.301 183.62 179.273 184.539L191.094 180.679Z" fill="#BF792A"/>
<path d="M191.094 180.679C191.094 180.679 187.301 183.62 179.273 184.539" stroke="#502A73" stroke-width="0.2767" stroke-miterlimit="10" stroke-linecap="round" stroke-linejoin="round"/>
<path d="M193.955 185.948C193.955 185.948 191.128 188.821 185.008 188.945L193.955 185.948Z" fill="#BF792A"/>
<path d="M193.955 185.948C193.955 185.948 191.128 188.821 185.008 188.945" stroke="#502A73" stroke-width="0.2767" stroke-miterlimit="10" stroke-linecap="round" stroke-linejoin="round"/>
<path d="M197.396 191.103C197.396 191.103 194.716 193.078 189.777 192.181L197.396 191.103Z" fill="#BF792A"/>
<path d="M197.396 191.103C197.396 191.103 194.716 193.078 189.777 192.181" stroke="#502A73" stroke-width="0.2767" stroke-miterlimit="10" stroke-linecap="round" stroke-linejoin="round"/>
<path d="M181.07 163.204C188.449 159.709 193.677 155.282 192.745 153.315C191.814 151.348 185.076 152.587 177.697 156.081C170.317 159.576 165.09 164.003 166.021 165.97C166.953 167.937 173.69 166.698 181.07 163.204Z" fill="#502A73" stroke="#502A73" stroke-width="0.2767" stroke-miterlimit="10" stroke-linecap="round" stroke-linejoin="round"/>
<path d="M181.07 163.204C188.449 159.709 193.677 155.282 192.745 153.315C191.814 151.348 185.076 152.587 177.697 156.081C170.317 159.576 165.09 164.003 166.021 165.97C166.953 167.937 173.69 166.698 181.07 163.204Z" stroke="#502A73" stroke-width="0.2767" stroke-miterlimit="10" stroke-linecap="round" stroke-linejoin="round"/>
<path d="M95.0879 128.219C94.8608 125.607 91.9312 124.279 94.2476 123.154C96.9842 121.826 106.534 119.067 110.065 118.363C118.865 116.603 120.216 118.726 121.738 123.302C123.68 129.161 125.122 137.45 127.461 150.497C129.8 163.544 131.81 173.741 131.197 176.852C130.493 180.417 120.693 182.847 114.38 184.642C108.067 186.436 107.34 185.073 104.887 182.075C102.071 178.635 98.0629 152.45 96.8706 143.9C95.9395 137.189 95.3945 131.693 95.0879 128.219Z" fill="#008056" stroke="#502A73" stroke-width="0.2767" stroke-miterlimit="10" stroke-linecap="round" stroke-linejoin="round"/>
<path d="M89.4783 129.649C89.2512 127.038 90.6251 124.551 92.9415 123.416C95.6781 122.087 100.935 120.486 104.455 119.782C113.256 118.022 114.8 119.793 116.128 124.426C117.366 128.752 119.512 138.87 121.851 151.916C124.19 164.963 126.166 175.149 125.587 178.271C125.008 181.394 120.682 182.825 114.38 184.619C108.078 186.413 102.65 187.071 100.197 184.085C96.9385 180.099 93.725 157.662 92.0899 145.91C91.1701 139.222 89.7848 133.135 89.4783 129.649Z" fill="#008056" stroke="#502A73" stroke-width="0.2767" stroke-miterlimit="10" stroke-linecap="round" stroke-linejoin="round"/>
<path d="M107.703 127.14C104.682 126.902 103.388 128.582 103.218 128.832C102.968 128.673 101.174 127.662 98.4713 129.127C95.8824 130.535 95.5531 133.238 96.2798 134.396C96.6659 135.009 97.1541 134.191 98.0512 133.238C99.3116 131.886 100.356 132.307 100.356 132.307C100.356 132.307 98.2329 133.442 97.6651 134.998C97.0974 136.565 98.5394 138.359 99.2548 137.03C100.447 134.827 101.401 134.6 101.401 134.6C101.401 134.6 100.583 135.554 100.322 136.735C100.061 137.916 100.629 138.983 101.424 138.836C101.912 138.745 103.309 134.441 103.467 136.894C103.695 140.266 104.092 142.64 104.558 144.241C104.785 145.013 105.398 145.478 106 145.353L106.545 145.24C107.147 145.115 107.555 144.422 107.487 143.616C107.34 141.947 106.863 139.585 105.863 136.383C105.137 134.055 107.975 137.45 108.452 137.325C109.236 137.121 109.383 135.906 108.713 134.93C108.055 133.942 106.953 133.397 106.953 133.397C106.953 133.397 107.907 133.204 109.804 134.748C110.95 135.679 111.632 133.431 110.542 132.216C109.463 131.012 107.101 130.842 107.101 130.842C107.101 130.842 107.907 130.024 109.565 130.751C110.735 131.262 111.484 131.807 111.609 131.092C111.859 129.74 110.587 127.378 107.703 127.14Z" fill="#4BBEA5" stroke="#502A73" stroke-width="0.2767" stroke-miterlimit="10" stroke-linecap="round" stroke-linejoin="round"/>
<path d="M126.155 151.394L123.543 137.882C123.407 137.189 122.759 136.735 122.078 136.871C121.408 137.008 120.965 137.678 121.102 138.37L123.713 151.883C123.85 152.575 124.497 153.029 125.178 152.893C125.848 152.757 126.291 152.087 126.155 151.394Z" fill="#502A73" stroke="#502A73" stroke-width="0.2767" stroke-miterlimit="10" stroke-linecap="round" stroke-linejoin="round"/>
<path d="M121.647 134.6C122.317 134.464 122.759 133.794 122.623 133.101L121.987 129.797C121.851 129.104 121.204 128.65 120.523 128.798C119.853 128.934 119.41 129.604 119.546 130.297L120.182 133.601C120.307 134.294 120.965 134.737 121.647 134.6Z" fill="#502A73" stroke="#502A73" stroke-width="0.2767" stroke-miterlimit="10" stroke-linecap="round" stroke-linejoin="round"/>
<path d="M126.155 151.394L123.543 137.882C123.407 137.189 122.759 136.735 122.078 136.871C121.408 137.008 120.965 137.678 121.102 138.37L123.713 151.883C123.85 152.575 124.497 153.029 125.178 152.893C125.848 152.757 126.291 152.087 126.155 151.394Z" stroke="#502A73" stroke-width="0.2767" stroke-miterlimit="10" stroke-linecap="round" stroke-linejoin="round"/>
<path d="M121.647 134.6C122.317 134.464 122.759 133.794 122.623 133.101L121.987 129.797C121.851 129.104 121.204 128.65 120.523 128.798C119.853 128.934 119.41 129.604 119.546 130.297L120.182 133.601C120.307 134.294 120.965 134.737 121.647 134.6Z" stroke="#502A73" stroke-width="0.2767" stroke-miterlimit="10" stroke-linecap="round" stroke-linejoin="round"/>
<path d="M117.957 176.875L106.817 179.997C106.329 180.134 105.818 179.838 105.682 179.328C105.546 178.828 105.841 178.294 106.329 178.158L117.468 175.035C117.957 174.899 118.468 175.194 118.604 175.705C118.74 176.205 118.456 176.739 117.957 176.875Z" fill="#4BBEA5" stroke="#502A73" stroke-width="0.2767" stroke-miterlimit="10" stroke-linecap="round" stroke-linejoin="round"/>
<path d="M115.345 152.508C115.674 151.543 115.821 149.748 115.606 148.499C115.288 146.683 114.084 145.377 112.233 144.934C112.54 143.378 112.54 142.141 111.518 140.892C109.735 138.7 106.34 138.757 101.321 140.869C96.7337 142.799 84.2546 148.079 86.3667 158.753C87.5589 164.782 89.0351 169.62 91.0676 173.582C93.6225 178.556 98.2213 177.625 100.083 177.046C100.083 177.046 101.548 176.262 102.241 174.9C103.99 171.459 106.34 164.09 108.543 163.011C111.302 161.648 112.812 161.001 114.89 160.32C117.195 158.901 116.753 154.813 115.265 152.735C115.208 152.644 115.322 152.587 115.345 152.508Z" fill="#BF792A" stroke="#502A73" stroke-width="0.2767" stroke-miterlimit="10" stroke-linecap="round" stroke-linejoin="round"/>
<path d="M97.5174 160.955C97.5174 160.955 105.659 153.291 115.265 152.723C115.663 151.826 115.844 149.85 115.606 148.499C115.288 146.682 114.084 145.376 112.233 144.934C100.549 146.966 95.587 153.541 95.587 153.541" fill="#BF792A"/>
<path d="M97.5174 160.955C97.5174 160.955 105.659 153.291 115.265 152.723C115.663 151.826 115.844 149.85 115.606 148.499C115.288 146.682 114.084 145.376 112.233 144.934C100.549 146.966 95.587 153.541 95.587 153.541" stroke="#502A73" stroke-width="0.2767" stroke-miterlimit="10" stroke-linecap="round" stroke-linejoin="round"/>
<path d="M99.7886 168.234L101.072 167.28C101.072 167.28 105.466 164.123 108.543 162.602C111.302 161.239 112.813 160.989 114.891 160.308C116.424 160.047 119.66 167.7 112.336 169.755C108.282 170.891 101.708 176.534 100.084 177.045" fill="#BF792A"/>
<path d="M99.7886 168.234L101.072 167.28C101.072 167.28 105.466 164.123 108.543 162.602C111.302 161.239 112.813 160.989 114.891 160.308C116.424 160.047 119.66 167.7 112.336 169.755C108.282 170.891 101.708 176.534 100.084 177.045" stroke="#502A73" stroke-width="0.2767" stroke-miterlimit="10" stroke-linecap="round" stroke-linejoin="round"/>
<path d="M250.015 226.758H319.621C334.859 226.758 347.202 240.758 347.202 258.04C347.202 275.323 334.848 289.323 319.621 289.323H250.015V226.758Z" fill="#A9D054" stroke="#502A73" stroke-width="0.2767" stroke-miterlimit="10" stroke-linecap="round" stroke-linejoin="round"/>
<path d="M297.614 248.048C294.548 247.083 293.685 248.616 293.572 248.843C293.288 248.616 291.244 247.083 288.928 248.048C286.713 248.979 286.827 251.988 287.542 253.544C287.917 254.362 288.382 253.521 289.177 252.624C290.301 251.352 291.312 252.113 291.312 252.113C291.312 252.113 289.416 252.897 288.848 254.623C288.292 256.349 289.325 258.915 290.165 257.484C291.55 255.111 292.357 255.111 292.357 255.111C292.357 255.111 291.573 256.053 291.187 257.416C290.79 258.779 291.039 260.221 291.789 260.255C292.243 260.277 294.298 255.418 294.026 258.438C293.651 262.594 292.834 265.501 292.357 267.408C292.13 268.317 292.334 268.975 292.902 268.975C293.106 268.975 293.208 268.975 293.413 268.975C293.98 268.975 294.741 268.328 295.116 267.408C295.899 265.501 296.638 262.594 296.285 258.438C296.024 255.418 297.955 260.277 298.409 260.255C299.158 260.221 299.578 258.779 299.102 257.416C298.625 256.053 297.614 255.111 297.614 255.111C297.614 255.111 298.602 255.122 300.123 257.484C301.043 258.915 301.997 256.349 300.998 254.623C300.01 252.897 297.682 252.113 297.682 252.113C297.682 252.113 298.409 251.352 300.033 252.624C301.179 253.521 301.884 254.373 301.997 253.544C302.179 251.977 300.555 248.968 297.614 248.048Z" fill="#4BBEA5" stroke="#502A73" stroke-width="0.2767" stroke-miterlimit="10" stroke-linecap="round" stroke-linejoin="round"/>
<path d="M315.328 248.048C312.262 247.083 311.399 248.616 311.286 248.843C311.002 248.616 308.958 247.083 306.641 248.048C304.427 248.979 304.541 251.988 305.256 253.544C305.631 254.362 306.096 253.521 306.891 252.624C308.015 251.352 309.026 252.113 309.026 252.113C309.026 252.113 307.13 252.897 306.562 254.623C306.005 256.349 307.039 258.915 307.879 257.484C309.264 255.111 310.071 255.111 310.071 255.111C310.071 255.111 309.287 256.053 308.901 257.416C308.504 258.779 308.753 260.221 309.503 260.255C309.957 260.277 312.012 255.418 311.74 258.438C311.365 262.594 310.547 265.501 310.071 267.408C309.843 268.317 310.048 268.975 310.616 268.975C310.82 268.975 310.922 268.975 311.127 268.975C311.694 268.975 312.455 268.328 312.83 267.408C313.613 265.501 314.351 262.594 313.999 258.438C313.738 255.418 315.668 260.277 316.123 260.255C316.872 260.221 317.292 258.779 316.815 257.416C316.338 256.053 315.328 255.111 315.328 255.111C315.328 255.111 316.316 255.122 317.837 257.484C318.757 258.915 319.711 256.349 318.712 254.623C317.724 252.897 315.396 252.113 315.396 252.113C315.396 252.113 316.123 251.352 317.747 252.624C318.893 253.521 319.597 254.373 319.711 253.544C319.893 251.977 318.269 248.968 315.328 248.048Z" fill="#4BBEA5" stroke="#502A73" stroke-width="0.2767" stroke-miterlimit="10" stroke-linecap="round" stroke-linejoin="round"/>
<path d="M333.053 248.048C329.987 247.083 329.124 248.616 329.011 248.843C328.727 248.616 326.683 247.083 324.366 248.048C322.152 248.979 322.266 251.988 322.981 253.544C323.356 254.362 323.821 253.521 324.616 252.624C325.74 251.352 326.751 252.113 326.751 252.113C326.751 252.113 324.855 252.897 324.287 254.623C323.731 256.349 324.764 258.915 325.604 257.484C326.989 255.111 327.796 255.111 327.796 255.111C327.796 255.111 327.012 256.053 326.626 257.416C326.229 258.779 326.478 260.221 327.228 260.255C327.682 260.277 329.737 255.418 329.465 258.438C329.09 262.594 328.273 265.501 327.796 267.408C327.569 268.317 327.773 268.975 328.341 268.975C328.545 268.975 328.647 268.975 328.852 268.975C329.419 268.975 330.18 268.328 330.555 267.408C331.338 265.501 332.076 262.594 331.724 258.438C331.463 255.418 333.394 260.277 333.848 260.255C334.597 260.221 335.017 258.779 334.54 257.416C334.064 256.053 333.053 255.111 333.053 255.111C333.053 255.111 334.041 255.122 335.562 257.484C336.482 258.915 337.436 256.349 336.448 254.623C335.46 252.897 333.132 252.113 333.132 252.113C333.132 252.113 333.859 251.352 335.483 252.624C336.63 253.521 337.334 254.373 337.447 253.544C337.618 251.977 335.994 248.968 333.053 248.048Z" fill="#4BBEA5" stroke="#502A73" stroke-width="0.2767" stroke-miterlimit="10" stroke-linecap="round" stroke-linejoin="round"/>
<path d="M250.014 289.323C265.247 289.323 277.595 275.318 277.595 258.04C277.595 240.763 265.247 226.758 250.014 226.758C234.782 226.758 222.433 240.763 222.433 258.04C222.433 275.318 234.782 289.323 250.014 289.323Z" fill="#A9D054" stroke="#502A73" stroke-width="0.2767" stroke-miterlimit="10" stroke-linecap="round" stroke-linejoin="round"/>
<path d="M250.014 281.364C261.221 281.364 270.306 270.922 270.306 258.041C270.306 245.16 261.221 234.718 250.014 234.718C238.808 234.718 229.723 245.16 229.723 258.041C229.723 270.922 238.808 281.364 250.014 281.364Z" fill="#A9D054" stroke="#502A73" stroke-width="0.2767" stroke-miterlimit="10" stroke-linecap="round" stroke-linejoin="round"/>
<path d="M254.954 285.395H245.086L247.221 262.23H252.819L254.954 285.395Z" fill="#4BBEA5" stroke="#502A73" stroke-width="0.2767" stroke-miterlimit="10" stroke-linecap="round" stroke-linejoin="round"/>
<path d="M253.023 285.395H247.017L248.311 262.23H251.718L253.023 285.395Z" fill="#4BBEA5" stroke="#502A73" stroke-width="0.2767" stroke-miterlimit="10" stroke-linecap="round" stroke-linejoin="round"/>
<path d="M251.161 285.395H248.879L249.367 262.23H250.662L251.161 285.395Z" fill="#4BBEA5" stroke="#502A73" stroke-width="0.2767" stroke-miterlimit="10" stroke-linecap="round" stroke-linejoin="round"/>
<path d="M250.014 264.297C253.062 264.297 255.533 261.496 255.533 258.041C255.533 254.585 253.062 251.784 250.014 251.784C246.967 251.784 244.496 254.585 244.496 258.041C244.496 261.496 246.967 264.297 250.014 264.297Z" fill="#4BBEA5" stroke="#502A73" stroke-width="0.2767" stroke-miterlimit="10" stroke-linecap="round" stroke-linejoin="round"/>
<path d="M52.654 244.948C52.654 244.948 51.4731 231.583 56.5942 228.086C60.7955 225.213 69.13 225.44 71.9234 230.391C76.3291 238.214 58.1725 251.511 58.1725 251.511L52.654 244.948Z" fill="#4BBEA5" stroke="#502A73" stroke-width="0.2767" stroke-miterlimit="10" stroke-linecap="round" stroke-linejoin="round"/>
<path d="M68.8802 232.185C67.9037 230.448 65.3716 229.823 63.3277 229.823C61.4882 229.823 57.6616 230.152 53.6079 232.866C52.0523 238.044 52.6654 244.948 52.6654 244.948L54.3687 246.98C54.6412 247.151 54.8002 247.321 54.8115 247.503L58.6608 246.56C60.2278 245.243 62.3057 243.392 64.2134 241.326C67.0181 238.282 69.9249 234.058 68.8802 232.185Z" fill="#4BBEA5" stroke="#502A73" stroke-width="0.2767" stroke-miterlimit="10" stroke-linecap="round" stroke-linejoin="round"/>
<path d="M81.8022 281.363C86.0149 274.652 84.1186 269.475 79.7924 268.021C73.5926 265.943 69.9476 262.798 65.7009 257.62C61.9651 253.067 64.9968 250.035 56.5942 244.88C50.2127 240.962 28.8427 224.895 15.0123 224.895C12.3666 224.895 9.90264 225.27 7.39319 225.974C1.35235 227.677 -0.487134 232.719 1.0912 240.179C2.66954 247.639 14.2288 264.944 23.449 277.219C32.6693 289.493 42.2416 302.359 47.4989 304.732C52.7563 307.105 60.6366 303.812 65.7122 300.122C73.6834 294.342 78.9521 285.905 81.8022 281.363Z" fill="#4BBEA5" stroke="#502A73" stroke-width="0.2767" stroke-miterlimit="10" stroke-linecap="round" stroke-linejoin="round"/>
<path d="M65.701 292.139L61.3861 302.779C62.9531 301.984 64.4179 301.075 65.701 300.133C73.6835 294.342 78.9522 285.905 81.8023 281.363C85.856 274.891 84.2436 269.861 80.258 268.191C66.3596 277.423 65.701 292.139 65.701 292.139Z" fill="#4BBEA5" stroke="#502A73" stroke-width="0.2767" stroke-miterlimit="10" stroke-linecap="round" stroke-linejoin="round"/>
<path d="M45.0008 271.337C39.8002 266.727 42.3551 261.992 39.7888 254.441C36.6435 245.209 28.343 245.629 21.4619 241.076C14.5695 236.522 16.4431 229.812 16.4431 229.812L19.0093 225.338C17.6013 225.054 16.2614 224.895 15.0123 224.895C12.3666 224.895 9.90264 225.27 7.39319 225.974C1.35235 227.677 -0.487134 232.719 1.0912 240.179C2.66954 247.639 14.2288 264.944 23.449 277.219C32.6693 289.493 42.2416 302.359 47.4989 304.732C52.7563 307.105 60.6366 303.812 65.7122 300.122C65.962 299.94 66.2005 299.758 66.439 299.577C70.4927 295.239 70.7311 287.847 65.6214 282.521C58.8765 275.481 50.8486 276.526 45.0008 271.337Z" fill="#008056" stroke="#502A73" stroke-width="0.2767" stroke-miterlimit="10" stroke-linecap="round" stroke-linejoin="round"/>
<path d="M7.38196 225.974C4.99742 226.644 3.27148 227.847 2.14734 229.494L5.8036 232.923C5.8036 232.923 11.5378 233.354 16.4318 229.812C18.2486 228.495 18.7483 226.837 18.6574 225.27C17.3743 225.031 16.1593 224.895 15.0125 224.895C12.3667 224.895 9.90276 225.27 7.38196 225.974Z" fill="#008056" stroke="#502A73" stroke-width="0.2767" stroke-miterlimit="10" stroke-linecap="round" stroke-linejoin="round"/>
<path d="M56.5943 291.412C51.9501 285.564 38.6421 274.607 32.3401 266.783C26.0381 258.96 15.3531 235.148 8.86943 230.822C4.56591 227.961 2.69234 228.892 1.92021 229.846C0.398642 232.366 0.171554 235.864 1.07995 240.167C2.65829 247.627 14.2176 264.932 23.4379 277.207C32.6581 289.482 42.2303 302.347 47.4877 304.72C48.1349 305.015 48.8162 305.22 49.5315 305.345C49.8722 305.401 50.2015 305.447 50.5308 305.481C50.5421 305.481 50.5648 305.481 50.5762 305.481C50.6443 305.492 50.7011 305.492 50.7579 305.492C52.2681 305.595 53.8691 305.401 55.4929 305.004C56.4921 304.754 57.4346 304.255 58.1386 303.471C60.7843 300.587 59.6374 295.239 56.5943 291.412Z" fill="#502A73" stroke="#502A73" stroke-width="0.2767" stroke-miterlimit="10" stroke-linecap="round" stroke-linejoin="round"/>
<path d="M56.5943 291.412C51.9501 285.564 38.6421 274.607 32.3401 266.783C26.0381 258.96 15.3531 235.148 8.86943 230.822C4.56591 227.961 2.69234 228.892 1.92021 229.846C0.398642 232.366 0.171554 235.864 1.07995 240.167C2.65829 247.627 14.2176 264.932 23.4379 277.207C32.6581 289.482 42.2303 302.347 47.4877 304.72C48.1349 305.015 48.8162 305.22 49.5315 305.345C49.8722 305.401 50.2015 305.447 50.5308 305.481C50.5421 305.481 50.5648 305.481 50.5762 305.481C50.6443 305.492 50.7011 305.492 50.7579 305.492C52.2681 305.595 53.8691 305.401 55.4929 305.004C56.4921 304.754 57.4346 304.255 58.1386 303.471C60.7843 300.587 59.6374 295.239 56.5943 291.412Z" stroke="#502A73" stroke-width="0.2767" stroke-miterlimit="10" stroke-linecap="round" stroke-linejoin="round"/>
<path d="M55.5496 264.092C55.5496 264.092 62.7259 266.386 66.9273 268.021C71.1286 269.668 71.1286 269.668 71.1286 269.668H55.5382V264.092H55.5496Z" fill="#008056" stroke="#502A73" stroke-width="0.2767" stroke-miterlimit="10" stroke-linecap="round" stroke-linejoin="round"/>
<path d="M130.322 270.292C130.322 270.292 121.476 256.303 124.985 249.592C128.482 242.881 132.423 243.96 142.937 243.96C152.566 243.96 155.723 250.921 154.497 258.04C153.27 265.171 146.446 275.05 146.446 275.05L111.416 308.218L104.319 303.097L130.322 270.292Z" fill="#4BBEA5" stroke="#502A73" stroke-width="0.2767" stroke-miterlimit="10" stroke-linecap="round" stroke-linejoin="round"/>
<path d="M145.697 271.666H127.87" stroke="#502A73" stroke-width="0.2767" stroke-miterlimit="10" stroke-linecap="round" stroke-linejoin="round"/>
<path d="M123.407 277.457H141.234" stroke="#502A73" stroke-width="0.2767" stroke-miterlimit="10" stroke-linecap="round" stroke-linejoin="round"/>
<path d="M118.944 283.248H136.772" stroke="#502A73" stroke-width="0.2767" stroke-miterlimit="10" stroke-linecap="round" stroke-linejoin="round"/>
<path d="M114.482 289.039H132.309" stroke="#502A73" stroke-width="0.2767" stroke-miterlimit="10" stroke-linecap="round" stroke-linejoin="round"/>
<path d="M110.019 294.83H127.847" stroke="#502A73" stroke-width="0.2767" stroke-miterlimit="10" stroke-linecap="round" stroke-linejoin="round"/>
<path d="M143.766 272.665C145.674 269.838 150.159 262.412 151.022 257.416C151.533 254.441 151.033 251.772 149.659 250.08C148.297 248.411 146.026 247.56 142.926 247.56C141.518 247.56 140.212 247.537 139.065 247.526C138.089 247.514 137.18 247.503 136.34 247.503C130.935 247.503 129.777 248.037 128.085 251.295C126.37 254.577 129.436 262.764 132.547 267.692" fill="#4BBEA5"/>
<path d="M143.766 272.665C145.674 269.838 150.159 262.412 151.022 257.416C151.533 254.441 151.033 251.772 149.659 250.08C148.297 248.411 146.026 247.56 142.926 247.56C141.518 247.56 140.212 247.537 139.065 247.526C138.089 247.514 137.18 247.503 136.34 247.503C130.935 247.503 129.777 248.037 128.085 251.295C126.37 254.577 129.436 262.764 132.547 267.692" stroke="#502A73" stroke-width="0.2767" stroke-miterlimit="10" stroke-linecap="round" stroke-linejoin="round"/>
<path d="M130.492 266.511C126.757 266.386 119.728 274.755 109.52 286.734C99.323 298.714 91.0338 306.753 88.1043 313.225C85.186 319.698 88.1043 323.956 95.1103 327.01C102.116 330.065 116.128 329.293 139.122 316.461C162.116 303.642 169.826 297.045 171.813 294.535C173.8 292.014 177.445 287.461 173.108 279.91C172.233 278.4 170.825 275.709 170.825 275.709L164.614 274.596C160.56 273.869 156.881 271.757 154.054 268.68C152.476 266.954 150.284 265.512 147.513 266.011C143.687 266.704 138.691 271.814 132.457 278.831C129.766 281.863 117.763 296.318 114.993 299.656C114.652 300.065 114.096 300.167 113.642 299.929C113.04 299.611 112.847 298.816 113.244 298.248C115.129 295.546 120.228 288.335 124.293 283.509C137.328 268.021 131.9 266.556 130.492 266.511Z" fill="#4BBEA5" stroke="#502A73" stroke-width="0.2767" stroke-miterlimit="10" stroke-linecap="round" stroke-linejoin="round"/>
<path d="M173.119 279.91C172.244 278.4 170.836 275.709 170.836 275.709L165.114 274.687C166.317 277.912 168.509 281.829 172.517 285.667C173.448 286.564 174.288 287.359 175.038 288.086C175.378 285.86 174.992 283.169 173.119 279.91Z" fill="#4BBEA5" stroke="#502A73" stroke-width="0.2767" stroke-miterlimit="10" stroke-linecap="round" stroke-linejoin="round"/>
<path d="M170.189 281.227C163.183 280.023 160.674 283.384 158.221 286.984C155.768 290.583 154.78 301.609 147.309 304.357C139.837 307.116 136.567 300.996 129.209 301.836C121.851 302.677 117.184 315.496 112.744 320.651C108.305 325.807 97.6876 321.73 97.6876 321.73L98.5961 328.055C106.352 329.576 119.455 327.43 139.133 316.45C162.127 303.63 169.837 297.033 171.824 294.524C173.278 292.684 175.605 289.755 175.072 285.372C174.515 283.509 173.175 281.738 170.189 281.227Z" fill="#008056" stroke="#502A73" stroke-width="0.2767" stroke-miterlimit="10" stroke-linecap="round" stroke-linejoin="round"/>
<path d="M92.2034 316.098C89.3192 316.246 87.9225 317.915 87.2753 319.856C88.1155 322.831 90.8635 325.137 95.1216 326.999C97.5061 328.043 100.708 328.634 104.796 328.464C102.786 322.525 98.4259 315.791 92.2034 316.098Z" fill="#008056" stroke="#502A73" stroke-width="0.2767" stroke-miterlimit="10" stroke-linecap="round" stroke-linejoin="round"/>
<path d="M159.232 274.505C158.675 274.857 157.903 275.345 156.824 276.038C152.998 278.468 146.866 282.931 146.866 282.931L151.181 286.314L159.879 274.63C159.663 274.596 159.447 274.551 159.232 274.505Z" fill="#008056" stroke="#502A73" stroke-width="0.2767" stroke-miterlimit="10" stroke-linecap="round" stroke-linejoin="round"/>
<path d="M221.344 180.225C223.833 180.225 225.851 178.151 225.851 175.592C225.851 173.033 223.833 170.959 221.344 170.959C218.854 170.959 216.836 173.033 216.836 175.592C216.836 178.151 218.854 180.225 221.344 180.225Z" fill="#EEC718" stroke="#502A73" stroke-width="0.2767" stroke-miterlimit="10" stroke-linecap="round" stroke-linejoin="round"/>
<path d="M225.976 187.719C228.466 187.719 230.484 185.645 230.484 183.086C230.484 180.528 228.466 178.454 225.976 178.454C223.487 178.454 221.469 180.528 221.469 183.086C221.469 185.645 223.487 187.719 225.976 187.719Z" fill="#EEC718" stroke="#502A73" stroke-width="0.2767" stroke-miterlimit="10" stroke-linecap="round" stroke-linejoin="round"/>
<path d="M227.918 196.11C230.408 196.11 232.426 194.036 232.426 191.477C232.426 188.919 230.408 186.844 227.918 186.844C225.429 186.844 223.41 188.919 223.41 191.477C223.41 194.036 225.429 196.11 227.918 196.11Z" fill="#EEC718" stroke="#502A73" stroke-width="0.2767" stroke-miterlimit="10" stroke-linecap="round" stroke-linejoin="round"/>
<path d="M228.883 204.706C231.373 204.706 233.391 202.632 233.391 200.073C233.391 197.515 231.373 195.44 228.883 195.44C226.394 195.44 224.375 197.515 224.375 200.073C224.375 202.632 226.394 204.706 228.883 204.706Z" fill="#EEC718" stroke="#502A73" stroke-width="0.2767" stroke-miterlimit="10" stroke-linecap="round" stroke-linejoin="round"/>
<path d="M228.441 212.939C230.93 212.939 232.948 210.864 232.948 208.306C232.948 205.747 230.93 203.673 228.441 203.673C225.951 203.673 223.933 205.747 223.933 208.306C223.933 210.864 225.951 212.939 228.441 212.939Z" fill="#EEC718" stroke="#502A73" stroke-width="0.2767" stroke-miterlimit="10" stroke-linecap="round" stroke-linejoin="round"/>
<path d="M227.918 221.069C230.408 221.069 232.426 218.994 232.426 216.436C232.426 213.877 230.408 211.803 227.918 211.803C225.429 211.803 223.41 213.877 223.41 216.436C223.41 218.994 225.429 221.069 227.918 221.069Z" fill="#EEC718" stroke="#502A73" stroke-width="0.2767" stroke-miterlimit="10" stroke-linecap="round" stroke-linejoin="round"/>
<path d="M217.596 267.26C215.337 267.26 214.213 267.26 211.953 267.26C210.42 259.482 211.431 252.624 213.179 244.97C214.462 244.97 215.098 244.97 216.381 244.97C218.119 252.624 219.129 259.482 217.596 267.26Z" fill="#EEC718" stroke="#502A73" stroke-width="0.2767" stroke-miterlimit="10" stroke-linecap="round" stroke-linejoin="round"/>
<path d="M216.631 267.26C215.143 267.26 214.405 267.26 212.918 267.26C211.646 259.891 212.532 252.283 213.724 244.97C214.564 244.97 214.984 244.97 215.825 244.97C217.017 252.283 217.903 259.891 216.631 267.26Z" fill="#EEC718" stroke="#502A73" stroke-width="0.2767" stroke-miterlimit="10" stroke-linecap="round" stroke-linejoin="round"/>
<path d="M215.495 267.26C214.916 267.26 214.633 267.26 214.053 267.26C213.565 259.845 213.894 252.374 214.36 244.97C214.689 244.97 214.848 244.97 215.178 244.97C215.654 252.385 215.984 259.845 215.495 267.26Z" fill="#EEC718" stroke="#502A73" stroke-width="0.2767" stroke-miterlimit="10" stroke-linecap="round" stroke-linejoin="round"/>
<path d="M218.516 246.436C218.085 245.789 218.085 244.914 218.516 244.256C219.039 243.461 219.322 242.507 219.277 241.474C219.175 239.112 217.29 237.181 214.996 237.057C212.407 236.932 210.261 239.044 210.261 241.678C210.261 242.643 210.545 243.529 211.033 244.267C211.465 244.914 211.476 245.754 211.045 246.402C210.999 246.47 210.954 246.538 210.92 246.606C210.239 247.742 211.067 249.195 212.362 249.172L217.188 249.059C218.46 249.025 219.243 247.571 218.539 246.47C218.539 246.458 218.528 246.447 218.516 246.436Z" fill="#EEC718" stroke="#502A73" stroke-width="0.2767" stroke-miterlimit="10" stroke-linecap="round" stroke-linejoin="round"/>
<path d="M225.863 228.086C228.353 228.086 230.371 226.012 230.371 223.453C230.371 220.894 228.353 218.82 225.863 218.82C223.373 218.82 221.355 220.894 221.355 223.453C221.355 226.012 223.373 228.086 225.863 228.086Z" fill="#EEC718" stroke="#502A73" stroke-width="0.2767" stroke-miterlimit="10" stroke-linecap="round" stroke-linejoin="round"/>
<path d="M223.41 235.285C225.9 235.285 227.918 233.211 227.918 230.652C227.918 228.094 225.9 226.02 223.41 226.02C220.92 226.02 218.902 228.094 218.902 230.652C218.902 233.211 220.92 235.285 223.41 235.285Z" fill="#EEC718" stroke="#502A73" stroke-width="0.2767" stroke-miterlimit="10" stroke-linecap="round" stroke-linejoin="round"/>
<path d="M224.613 236.454C224.613 239.009 222.592 241.087 220.106 241.087C217.619 241.087 215.598 239.021 215.598 236.454C215.598 233.888 217.619 231.822 220.106 231.822C222.604 231.822 224.613 233.888 224.613 236.454Z" fill="#EEC718" stroke="#502A73" stroke-width="0.2767" stroke-miterlimit="10" stroke-linecap="round" stroke-linejoin="round"/>
</svg>
