<svg width="357" height="329" viewBox="0 0 357 329" fill="none" xmlns="http://www.w3.org/2000/svg">
<path d="M326.195 0.952148H144.766C128.153 0.952148 114.687 14.4191 114.687 31.0314V257.063C114.687 273.675 128.153 287.142 144.766 287.142H326.195C342.808 287.142 356.275 273.675 356.275 257.063V31.0314C356.275 14.4191 342.808 0.952148 326.195 0.952148Z" fill="#EEC718"/>
<path d="M154.922 63.6772V35.1172H160.922V63.6772H154.922ZM166.078 63.6772V42.4772H171.598V45.6772H171.678C173.478 43.3972 176.278 41.9172 180.038 41.9172C184.598 41.9172 189.038 43.5572 189.038 49.2772V63.6772H183.518V51.0372C183.518 48.7572 182.758 46.1572 178.198 46.1572C175.318 46.1572 171.598 47.7572 171.598 52.2772V63.6772H166.078ZM216.26 48.7972V58.8372C216.26 59.9972 217.1 60.0372 217.46 60.0372C217.98 60.0372 218.82 59.9972 219.26 59.9172V63.7972C218.18 63.9972 217.22 64.2772 215.34 64.2772C211.74 64.2772 211.34 62.3572 211.18 61.5572C210.1 62.5972 207.42 64.4772 201.22 64.4772C195.7 64.4772 192.58 61.9972 192.58 57.8372C192.58 51.9972 198.58 51.4772 202.1 51.1572C210.02 50.3972 210.86 50.1172 210.86 48.4772C210.86 46.0372 208.06 45.4372 204.86 45.4372C201.22 45.4372 199.26 46.5972 199.06 48.9572H193.66C194.46 43.3972 198.58 41.6772 204.86 41.6772C215.94 41.6772 216.26 46.0372 216.26 48.7972ZM210.74 55.1572V53.1172C209.14 53.7972 207.42 53.9972 203.5 54.4372C199.34 54.9172 198.34 55.8372 198.34 57.6372C198.34 60.4372 200.9 60.9572 202.78 60.9572C205.74 60.9572 210.74 59.8372 210.74 55.1572ZM245.504 49.9172H239.744C239.344 47.7172 237.024 45.9172 233.864 45.9172C228.744 45.9172 226.504 49.3972 226.504 53.0772C226.504 56.7572 228.504 60.2372 233.264 60.2372C237.544 60.2372 238.704 58.5572 239.864 55.5572H245.624C244.344 64.3572 235.344 64.4772 233.864 64.4772C224.384 64.4772 220.744 58.9172 220.744 53.0772C220.744 46.2372 225.664 41.6772 233.864 41.6772C237.064 41.6772 244.344 42.7572 245.504 49.9172ZM250.767 57.7572V46.4772H246.367V42.4772H250.767V35.9172H256.287V42.4772H262.047V46.4772H256.287V56.1572C256.287 58.5972 256.407 59.9172 258.287 59.9172C259.647 59.9172 260.927 59.8772 262.247 59.8372V63.8372C260.767 64.0372 259.687 64.1572 258.007 64.1572C251.287 64.1572 250.767 61.7572 250.767 57.7572ZM265.496 63.6772V42.4772H271.016V63.6772H265.496ZM265.496 39.1172V34.6372H271.016V39.1172H265.496ZM283.048 63.6772L273.368 42.4772H279.608L285.928 58.2372L292.488 42.4772H298.728L289.048 63.6772H283.048ZM325.924 54.4772H305.924C306.044 56.8372 307.644 60.4772 313.124 60.4772C316.764 60.4772 318.364 59.1972 319.444 57.4372H325.444C324.244 59.7972 321.364 64.4772 313.284 64.4772C303.724 64.4772 300.164 58.9172 300.164 53.2772C300.164 46.1972 305.404 41.6772 312.924 41.6772C322.324 41.6772 325.924 47.4772 325.924 53.6772V54.4772ZM305.924 50.9572H320.164C319.484 46.7172 315.724 45.4372 313.004 45.4372C310.444 45.4372 306.844 46.6372 305.924 50.9572Z" fill="white"/>
<path d="M104.933 169.63C104.933 169.63 129.686 204.989 131.674 208.464C133.661 211.939 103.241 232.071 103.241 232.071C103.241 232.071 92.9191 197.314 90.5799 186.753C88.2408 176.193 86.4353 164.361 87.7525 157.889C89.0697 151.417 97.6541 159.331 97.6541 159.331" fill="#BF792A"/>
<path d="M104.933 169.63C104.933 169.63 129.686 204.989 131.674 208.464C133.661 211.939 103.241 232.071 103.241 232.071C103.241 232.071 92.9191 197.314 90.5799 186.753C88.2408 176.193 86.4353 164.361 87.7525 157.889C89.0697 151.417 97.6541 159.331 97.6541 159.331" stroke="#502A73" stroke-width="0.2767" stroke-miterlimit="10" stroke-linecap="round" stroke-linejoin="round"/>
<path d="M88.8203 190.387C88.8203 190.387 91.1595 193.385 95.5879 195.179C100.016 196.973 101.458 197.246 101.458 197.246" stroke="#502A73" stroke-width="0.2767" stroke-miterlimit="10" stroke-linecap="round" stroke-linejoin="round"/>
<path d="M91.1475 200.096C91.1475 200.096 93.8272 203.093 97.2223 203.934C100.617 204.774 101.458 204.649 101.458 204.649" stroke="#502A73" stroke-width="0.2767" stroke-miterlimit="10" stroke-linecap="round" stroke-linejoin="round"/>
<path d="M284.159 143.821V136.531C284.159 128.559 291.097 122.099 299.659 122.099C308.22 122.099 315.158 128.559 315.158 136.531V146.387" fill="#008056"/>
<path d="M284.159 143.821V136.531C284.159 128.559 291.097 122.099 299.659 122.099C308.22 122.099 315.158 128.559 315.158 136.531V146.387" stroke="#502A73" stroke-width="0.2767" stroke-miterlimit="10" stroke-linecap="round" stroke-linejoin="round"/>
<path d="M297.115 139.608C297.115 139.608 307.119 139.256 312.388 136.565C326.116 129.536 337.255 134.816 332.77 140.857C331.305 142.821 327.864 145.444 318.406 145.081" fill="#502A73"/>
<path d="M297.115 139.608C297.115 139.608 307.119 139.256 312.388 136.565C326.116 129.536 337.255 134.816 332.77 140.857C331.305 142.821 327.864 145.444 318.406 145.081" stroke="#502A73" stroke-width="0.2767" stroke-miterlimit="10" stroke-linecap="round" stroke-linejoin="round"/>
<path d="M297.115 139.608C297.115 139.608 307.119 139.256 312.388 136.565C326.116 129.536 337.255 134.816 332.77 140.857C331.305 142.821 327.864 145.444 318.406 145.081" stroke="#502A73" stroke-width="0.2767" stroke-miterlimit="10" stroke-linecap="round" stroke-linejoin="round"/>
<path d="M244.099 286.382H113.074C113.074 286.382 99.0391 288.119 99.0959 274.573C99.1526 261.026 113.869 261.923 113.869 261.923L122.101 249.58L128.585 261.912H254.965" fill="#A9D054"/>
<path d="M244.099 286.382H113.074C113.074 286.382 99.0391 288.119 99.0959 274.573C99.1526 261.026 113.869 261.923 113.869 261.923L122.101 249.58L128.585 261.912H254.965" stroke="#502A73" stroke-width="0.2767" stroke-miterlimit="10" stroke-linecap="round" stroke-linejoin="round"/>
<path d="M247.914 134.294C247.914 134.294 312.274 140.948 324.878 143.105C337.482 145.263 339.855 154.063 336.96 163.817C334.076 173.571 312.263 253.93 312.263 253.93L273.259 239.1L220.583 221.034L247.914 134.294Z" fill="#A9D054" stroke="#502A73" stroke-width="0.2767" stroke-miterlimit="10" stroke-linecap="round" stroke-linejoin="round"/>
<path d="M324.878 143.105C320.79 142.401 311.275 141.232 300.272 139.971C301.964 140.176 319.371 142.537 317.69 153.892C316.146 164.316 291.256 236.17 291.256 236.17L316.816 237.226C323.368 213.131 334.916 170.743 336.971 163.828C339.855 154.063 337.493 145.263 324.878 143.105Z" fill="#A9D054" stroke="#502A73" stroke-width="0.2767" stroke-miterlimit="10" stroke-linecap="round" stroke-linejoin="round"/>
<path d="M306.982 235.852C313.534 211.757 325.082 169.369 327.137 162.454C330.022 152.7 327.66 143.9 315.056 141.743" stroke="#502A73" stroke-width="0.2767" stroke-miterlimit="10" stroke-linecap="round" stroke-linejoin="round"/>
<path d="M273.156 167.484C266.491 152.768 259.576 140.539 255.533 135.191C249.697 127.458 246.075 120.157 235.219 120.758C224.364 121.36 206.037 128.843 206.037 128.843C206.037 128.843 190.072 122.155 192.809 127.833C195.545 133.51 190.98 131.137 190.98 131.137L187.71 136.099C187.71 136.099 174.516 141.856 166.579 145.683C158.642 149.521 151.636 152.518 149.535 156.947C147.434 161.387 127.824 201.413 127.824 201.413L176.276 206.931L267.286 205.319C267.263 205.307 274.269 175.637 273.156 167.484Z" fill="white" stroke="#502A73" stroke-width="0.2767" stroke-miterlimit="10" stroke-linecap="round" stroke-linejoin="round"/>
<path d="M198.145 155.21C198.145 155.21 202.085 147.908 208.978 146.296C215.541 144.763 216.87 148.011 216.347 149.328C215.825 150.645 214.553 151.712 211.431 152.905C206.207 154.88 204.493 157.095 204.493 157.095C204.493 157.095 213.259 154.994 218.119 157.095C222.967 159.195 221.695 163.715 218.119 162.965C214.542 162.216 207.309 160.728 207.309 160.728C207.309 160.728 212.157 163.34 213.815 166.065C215.473 168.79 213.077 175.467 207.502 173.207C201.915 170.948 199.349 167.416 199.349 167.416L190.787 159.615L183.055 160.456C183.055 160.456 178.047 160.569 179.898 156.799C181.726 153.03 192.649 150.656 198.145 155.21Z" fill="#4BBEA5" stroke="#502A73" stroke-width="0.2767" stroke-miterlimit="10" stroke-linecap="round" stroke-linejoin="round"/>
<path d="M154.508 151.928C152.169 153.46 150.409 155.073 149.523 156.947C147.423 161.386 127.812 201.412 127.812 201.412L165.409 205.693L172.733 183.801C172.733 183.801 156.756 158.752 155.121 155.993C154.326 154.619 154.315 153.108 154.508 151.928Z" fill="white" stroke="#502A73" stroke-width="0.2767" stroke-miterlimit="10" stroke-linecap="round" stroke-linejoin="round"/>
<path d="M255.532 135.191C250.411 128.412 247.005 121.962 238.92 120.884C238.216 121.463 237.421 122.314 236.502 123.529C233.799 127.117 231.358 134.725 229.643 141.118C227.906 147.613 228.916 154.551 232.402 160.251L239.511 171.901C239.511 171.901 273.371 169.085 273.155 167.484C266.49 152.78 259.575 140.539 255.532 135.191Z" fill="white" stroke="#502A73" stroke-width="0.2767" stroke-miterlimit="10" stroke-linecap="round" stroke-linejoin="round"/>
<path d="M57.651 244.857C57.651 244.857 54.1537 246.469 59.922 259.959C65.7017 273.437 83.563 289.981 96.3487 283.509C97.1435 283.1 98.4721 275.231 99.0966 274.584C108.419 264.864 98.1087 237.135 98.1087 237.135L57.651 244.857Z" fill="#502A73" stroke="#502A73" stroke-width="0.2767" stroke-miterlimit="10" stroke-linecap="round" stroke-linejoin="round"/>
<path d="M57.651 244.857C57.651 244.857 54.1537 246.469 59.922 259.959C65.7017 273.437 83.563 289.981 96.3487 283.509C97.1435 283.1 98.4721 275.231 99.0966 274.584C108.419 264.864 98.1087 237.135 98.1087 237.135L57.651 244.857Z" stroke="#502A73" stroke-width="0.2767" stroke-miterlimit="10" stroke-linecap="round" stroke-linejoin="round"/>
<path d="M77.7824 282.521L98.017 261.128L84.0049 239.372L65.4396 238.384L55.6289 249.796" fill="#BF792A"/>
<path d="M77.7824 282.521L98.017 261.128L84.0049 239.372L65.4396 238.384L55.6289 249.796" stroke="#502A73" stroke-width="0.2767" stroke-miterlimit="10" stroke-linecap="round" stroke-linejoin="round"/>
<path d="M160.265 180.928C160.265 180.928 131.366 187.151 125.587 189.66C119.807 192.181 114.731 196.132 106.851 203.502C98.9707 210.871 57.6387 244.845 57.6387 244.845C57.6387 244.845 68.0739 241.984 81.6317 254.735C96.166 268.395 96.3363 283.497 96.3363 283.497L135.908 242.506L179.511 216.435" fill="white"/>
<path d="M160.265 180.928C160.265 180.928 131.366 187.151 125.587 189.66C119.807 192.181 114.731 196.132 106.851 203.502C98.9707 210.871 57.6387 244.845 57.6387 244.845C57.6387 244.845 68.0739 241.984 81.6317 254.735C96.166 268.395 96.3363 283.497 96.3363 283.497L135.908 242.506L179.511 216.435" stroke="#502A73" stroke-width="0.2767" stroke-miterlimit="10" stroke-linecap="round" stroke-linejoin="round"/>
<path d="M88.2178 262.23C88.2178 262.23 118.138 233.309 127.585 223.759C139.406 211.814 142.881 211.939 152.158 210.814C161.435 209.69 167.986 209.247 167.986 209.247" stroke="#502A73" stroke-width="0.2767" stroke-miterlimit="10" stroke-linecap="round" stroke-linejoin="round"/>
<path d="M198.974 183.552C198.974 183.552 179.307 174.865 167.396 177.204C155.485 179.543 149.58 191.432 145.333 204.411C142.188 214.028 132.854 242.802 128.244 257.029C126.802 261.469 129.311 266.238 133.717 267.442C142.04 269.702 154.962 273.051 163.603 274.527C177.263 276.867 179.035 276.73 179.035 276.73L184.678 263.025H219.345C228.542 263.025 237.638 260.936 245.87 256.723C257.259 250.886 268.444 240.292 261.154 222.215C248.016 189.672 214.917 183.926 214.917 183.926L198.974 183.552Z" fill="white" stroke="#502A73" stroke-width="0.2767" stroke-miterlimit="10" stroke-linecap="round" stroke-linejoin="round"/>
<path d="M206.264 193.816C195.295 193.623 189.867 197.45 186.54 204.706C183.963 210.327 165.488 253.907 157.29 273.29C159.266 273.71 161.151 274.085 162.888 274.403C166.805 264.853 186.415 217.23 191.094 208.169C196.306 198.086 206.593 196.031 213.815 202.378C221.037 208.725 221.037 208.725 221.037 208.725L223.932 205.694C223.932 205.682 217.233 194.009 206.264 193.816Z" fill="white" stroke="#502A73" stroke-width="0.2767" stroke-miterlimit="10" stroke-linecap="round" stroke-linejoin="round"/>
<path d="M184.667 263.014L200.28 226.757" stroke="#502A73" stroke-width="0.2767" stroke-miterlimit="10" stroke-linecap="round" stroke-linejoin="round"/>
<path d="M165.999 165.94L166.113 166.133L171.211 172.719L174.038 178.805L191.377 173.184L197.395 170.187L193.807 159.774L192.831 153.688L192.57 153.484L184.837 157.038" fill="#008056"/>
<path d="M165.999 165.94L166.113 166.133L171.211 172.719L174.038 178.805L191.377 173.184L197.395 170.187L193.807 159.774L192.831 153.688L192.57 153.484L184.837 157.038" stroke="#502A73" stroke-width="0.2767" stroke-miterlimit="10" stroke-linecap="round" stroke-linejoin="round"/>
<path d="M213.259 178.465C215.749 178.465 217.767 176.39 217.767 173.832C217.767 171.273 215.749 169.199 213.259 169.199C210.769 169.199 208.751 171.273 208.751 173.832C208.751 176.39 210.769 178.465 213.259 178.465Z" fill="#EEC718" stroke="#502A73" stroke-width="0.2767" stroke-miterlimit="10" stroke-linecap="round" stroke-linejoin="round"/>
<path d="M200.541 201.14C203.031 201.14 205.049 199.066 205.049 196.507C205.049 193.949 203.031 191.875 200.541 191.875C198.051 191.875 196.033 193.949 196.033 196.507C196.033 199.066 198.051 201.14 200.541 201.14Z" fill="#EEC718" stroke="#502A73" stroke-width="0.2767" stroke-miterlimit="10" stroke-linecap="round" stroke-linejoin="round"/>
<path d="M200.541 209.259C203.031 209.259 205.049 207.185 205.049 204.626C205.049 202.067 203.031 199.993 200.541 199.993C198.051 199.993 196.033 202.067 196.033 204.626C196.033 207.185 198.051 209.259 200.541 209.259Z" fill="#EEC718" stroke="#502A73" stroke-width="0.2767" stroke-miterlimit="10" stroke-linecap="round" stroke-linejoin="round"/>
<path d="M200.984 217.423C203.473 217.423 205.491 215.349 205.491 212.79C205.491 210.232 203.473 208.157 200.984 208.157C198.494 208.157 196.476 210.232 196.476 212.79C196.476 215.349 198.494 217.423 200.984 217.423Z" fill="#EEC718" stroke="#502A73" stroke-width="0.2767" stroke-miterlimit="10" stroke-linecap="round" stroke-linejoin="round"/>
<path d="M202.948 225.213C205.438 225.213 207.456 223.139 207.456 220.58C207.456 218.021 205.438 215.947 202.948 215.947C200.459 215.947 198.44 218.021 198.44 220.58C198.44 223.139 200.459 225.213 202.948 225.213Z" fill="#EEC718" stroke="#502A73" stroke-width="0.2767" stroke-miterlimit="10" stroke-linecap="round" stroke-linejoin="round"/>
<path d="M206.264 233.014C208.753 233.014 210.772 230.939 210.772 228.381C210.772 225.822 208.753 223.748 206.264 223.748C203.774 223.748 201.756 225.822 201.756 228.381C201.756 230.939 203.774 233.014 206.264 233.014Z" fill="#EEC718" stroke="#502A73" stroke-width="0.2767" stroke-miterlimit="10" stroke-linecap="round" stroke-linejoin="round"/>
<path d="M211.09 240.508C213.58 240.508 215.598 238.434 215.598 235.875C215.598 233.317 213.58 231.242 211.09 231.242C208.6 231.242 206.582 233.317 206.582 235.875C206.582 238.434 208.6 240.508 211.09 240.508Z" fill="#EEC718" stroke="#502A73" stroke-width="0.2767" stroke-miterlimit="10" stroke-linecap="round" stroke-linejoin="round"/>
<path d="M206.73 118.351L200.371 118.953L201.302 124.585L205.038 123.268L206.73 118.351Z" fill="white" stroke="#502A73" stroke-width="0.2767" stroke-miterlimit="10" stroke-linecap="round" stroke-linejoin="round"/>
<path d="M186.62 93.6654C182.158 87.8517 180.432 86.6027 175.776 87.5678C169.486 88.8737 163.15 99.6836 162.014 103.817C160.879 107.95 162.718 109.665 164.206 109.392C165.693 109.12 167.181 107.598 167.181 107.598C167.181 107.598 168.1 110.323 169.418 113.855C169.588 114.275 169.611 114.752 169.486 115.194L168.1 120.054C167.919 120.94 168.634 121.746 169.508 121.621L172.165 121.462C172.745 121.451 172.915 121.985 172.824 123.063C172.688 124.585 174.118 124.664 174.448 124.676C175.027 124.71 174.357 125.107 174.686 126.073C174.97 126.901 175.47 126.958 175.731 127.401C176.389 128.514 176.707 128.923 177.218 129.74C177.979 130.944 179.433 131.466 180.75 131.001L187.631 128.548L195.046 134.305L196.624 128.434L204.13 122.893C204.141 122.882 190.56 98.7979 186.62 93.6654Z" fill="#BF792A" stroke="#502A73" stroke-width="0.2767" stroke-miterlimit="10" stroke-linecap="round" stroke-linejoin="round"/>
<path d="M171.824 102.954C174.095 100.433 175.98 97.1286 175.98 97.1286C175.98 97.1286 175.06 101.353 175.98 101.852C176.9 102.352 179.262 99.5586 179.398 99.604C179.534 99.6494 178.433 103.022 179.046 103.873C179.659 104.725 180.715 103.51 180.931 103.737C181.147 103.964 180.181 107.11 180.67 107.598C181.147 108.097 181.941 107.961 181.941 107.961C181.941 107.961 182.509 110.868 184.791 110.789C187.074 110.709 187.017 109.119 185.552 105.622C185.098 104.543 185.371 103.431 186.199 103.362C187.687 103.238 190.537 105.088 190.537 105.088C190.537 105.088 194.114 109.199 196.146 108.972C192.456 102.67 188.482 96.0839 186.631 93.6767C182.168 87.8629 180.443 86.6139 175.787 87.579C169.496 88.8849 163.16 99.6948 162.025 103.828C160.889 107.961 162.729 109.676 164.216 109.403C165.704 109.131 167.191 107.609 167.191 107.609C167.191 107.609 169.178 105.883 171.824 102.954Z" fill="#502A73" stroke="#502A73" stroke-width="0.2767" stroke-miterlimit="10" stroke-linecap="round" stroke-linejoin="round"/>
<path d="M171.824 102.954C174.095 100.433 175.98 97.1286 175.98 97.1286C175.98 97.1286 175.06 101.353 175.98 101.852C176.9 102.352 179.262 99.5586 179.398 99.604C179.534 99.6494 178.433 103.022 179.046 103.873C179.659 104.725 180.715 103.51 180.931 103.737C181.147 103.964 180.181 107.11 180.67 107.598C181.147 108.097 181.941 107.961 181.941 107.961C181.941 107.961 182.509 110.868 184.791 110.789C187.074 110.709 187.017 109.119 185.552 105.622C185.098 104.543 185.371 103.431 186.199 103.362C187.687 103.238 190.537 105.088 190.537 105.088C190.537 105.088 194.114 109.199 196.146 108.972C192.456 102.67 188.482 96.0839 186.631 93.6767C182.168 87.8629 180.443 86.6139 175.787 87.579C169.496 88.8849 163.16 99.6948 162.025 103.828C160.889 107.961 162.729 109.676 164.216 109.403C165.704 109.131 167.191 107.609 167.191 107.609C167.191 107.609 169.178 105.883 171.824 102.954Z" stroke="#502A73" stroke-width="0.2767" stroke-miterlimit="10" stroke-linecap="round" stroke-linejoin="round"/>
<path d="M186.438 106.338C186.166 105.668 186.007 105.032 186.007 104.555C186.007 102.647 187.256 101.092 189.118 101.092C190.98 101.092 192.173 102.693 192.581 104.555C192.967 106.292 192.82 108.064 192.275 109.267C191.855 110.187 191.219 110.789 190.413 110.789" fill="#BF792A"/>
<path d="M186.438 106.338C186.166 105.668 186.007 105.032 186.007 104.555C186.007 102.647 187.256 101.092 189.118 101.092C190.98 101.092 192.173 102.693 192.581 104.555C192.967 106.292 192.82 108.064 192.275 109.267C191.855 110.187 191.219 110.789 190.413 110.789" stroke="#502A73" stroke-width="0.2767" stroke-miterlimit="10" stroke-linecap="round" stroke-linejoin="round"/>
<path d="M187.766 110.584C187.766 110.584 187.71 111.754 186.801 112.265C185.893 112.776 184.439 112.265 184.439 112.265" stroke="#502A73" stroke-width="0.2767" stroke-miterlimit="10" stroke-linecap="round" stroke-linejoin="round"/>
<path d="M188.415 112.253C188.415 112.253 188.358 113.423 187.45 113.934C186.541 114.445 185.088 113.934 185.088 113.934" stroke="#502A73" stroke-width="0.2767" stroke-miterlimit="10" stroke-linecap="round" stroke-linejoin="round"/>
<path d="M206.73 118.351L196.636 128.423L204.141 137.291L214.327 123.927C214.327 123.927 207.957 119.43 206.73 118.351Z" fill="white" stroke="#502A73" stroke-width="0.2767" stroke-miterlimit="10" stroke-linecap="round" stroke-linejoin="round"/>
<path d="M188.017 128.832L184.429 135.554C184.429 135.554 184.906 137.064 186.098 138.609C187.71 140.709 189.402 141.55 189.402 141.55L190.969 131.137L188.017 128.832Z" fill="white" stroke="#502A73" stroke-width="0.2767" stroke-miterlimit="10" stroke-linecap="round" stroke-linejoin="round"/>
<path d="M188.029 105.804C188.029 105.804 187.586 103.794 189.414 103.794C190.595 103.794 191.129 105.565 190.459 106.485C190.084 106.996 189.232 107.11 189.232 107.11C189.232 107.11 189.891 107.257 189.879 107.882C189.868 108.665 188.926 108.472 188.926 108.472" fill="#BF792A"/>
<path d="M188.029 105.804C188.029 105.804 187.586 103.794 189.414 103.794C190.595 103.794 191.129 105.565 190.459 106.485C190.084 106.996 189.232 107.11 189.232 107.11C189.232 107.11 189.891 107.257 189.879 107.882C189.868 108.665 188.926 108.472 188.926 108.472" stroke="#502A73" stroke-width="0.2767" stroke-miterlimit="10" stroke-linecap="round" stroke-linejoin="round"/>
<path d="M174.448 124.676C174.448 124.676 176.276 124.585 177.571 123.87C178.911 123.12 179.376 122.371 179.376 122.371" stroke="#502A73" stroke-width="0.2767" stroke-miterlimit="10" stroke-linecap="round" stroke-linejoin="round"/>
<path d="M173.994 111.254C174.448 110.88 175.005 110.641 175.584 110.584" stroke="#502A73" stroke-width="0.5534" stroke-miterlimit="10" stroke-linecap="round" stroke-linejoin="round"/>
<path d="M174.221 111.129C174.187 111.492 174.278 112.015 174.459 112.458C174.743 113.162 175.129 113.389 175.436 113.252C175.742 113.116 175.856 112.685 175.584 111.981C175.402 111.538 175.107 111.095 174.845 110.868L174.221 111.129Z" fill="#502A73"/>
<path d="M168.997 113.367C169.451 112.992 170.008 112.753 170.587 112.697" stroke="#502A73" stroke-width="0.5534" stroke-miterlimit="10" stroke-linecap="round" stroke-linejoin="round"/>
<path d="M169.213 113.242C169.179 113.605 169.27 114.128 169.452 114.57C169.735 115.274 170.121 115.502 170.428 115.365C170.735 115.229 170.848 114.798 170.576 114.094C170.394 113.651 170.099 113.208 169.838 112.981L169.213 113.242Z" fill="#502A73"/>
<path d="M171.393 109.846C171.654 110.062 172.04 110.005 172.211 109.71C172.506 109.211 173.062 108.552 173.993 108.325C174.504 108.2 174.902 108.166 175.208 108.189C175.572 108.211 175.821 107.814 175.674 107.473C175.617 107.337 175.492 107.235 175.356 107.189C174.629 106.985 172.381 106.576 171.245 109.176C171.143 109.404 171.2 109.676 171.393 109.846Z" fill="#502A73"/>
<path d="M181.193 120.69C181.851 120.6 182.124 120.123 182.124 120.123C182.124 120.123 179.524 119.169 178.899 119.135C178.263 119.101 176.992 119.85 175.152 120.929C174.164 121.508 173.313 121.735 172.733 121.815C172.847 122.076 172.881 122.484 172.824 123.052C172.813 123.154 172.813 123.245 172.813 123.325C173.415 123.268 174.334 123.132 175.345 122.723C177.128 122.008 178.979 120.713 179.126 120.6C179.217 120.543 180.409 120.804 181.193 120.69Z" fill="#502A73" stroke="#502A73" stroke-width="0.2767" stroke-miterlimit="10" stroke-linecap="round" stroke-linejoin="round"/>
<path d="M181.193 120.69C181.851 120.6 182.124 120.123 182.124 120.123C182.124 120.123 179.524 119.169 178.899 119.135C178.263 119.101 176.992 119.85 175.152 120.929C174.164 121.508 173.313 121.735 172.733 121.815C172.847 122.076 172.881 122.484 172.824 123.052C172.813 123.154 172.813 123.245 172.813 123.325C173.415 123.268 174.334 123.132 175.345 122.723C177.128 122.008 178.979 120.713 179.126 120.6C179.217 120.543 180.409 120.804 181.193 120.69Z" stroke="#502A73" stroke-width="0.2767" stroke-miterlimit="10" stroke-linecap="round" stroke-linejoin="round"/>
<path d="M168.69 109.631C168.395 109.665 168.168 109.767 167.986 109.892L168.429 111.129C168.52 111.039 168.634 110.959 168.781 110.914C169.088 110.8 169.428 110.789 169.724 110.812C170.042 110.834 170.314 110.573 170.314 110.244C170.314 109.994 170.155 109.767 169.905 109.699C169.656 109.619 169.258 109.562 168.69 109.631Z" fill="#502A73"/>
<path d="M281.628 188.23C279.039 181.087 276.121 174.036 273.157 167.484C269.296 167.393 264.039 167.427 257.805 167.882C251.083 168.359 244.486 170.175 239.524 171.901C243.872 179.77 247.143 188.105 247.143 188.105L211.023 172.764C211.023 172.764 206.072 166.428 202.052 163.01C198.021 159.592 193.82 159.774 193.82 159.774L195.216 167.734C195.216 167.734 191.98 171.424 185.497 173.843C179.013 176.273 174.289 176.273 174.289 176.273L171.223 172.719C171.223 172.719 169.6 175.455 171.746 180.315C173.892 185.164 179.274 184.539 179.274 184.539C180.058 188.627 185.008 188.945 185.008 188.945C186.064 191.33 189.777 192.181 189.777 192.181C189.777 192.181 190.447 194.963 193.979 195.735C198.339 196.678 200.894 194.975 200.894 194.975C200.894 194.975 215.61 207.828 233.994 223.282C252.377 238.737 269.921 235.319 277.018 231.367C289.622 224.361 290.03 211.417 281.628 188.23Z" fill="#BF792A" stroke="#502A73" stroke-width="0.2767" stroke-miterlimit="10" stroke-linecap="round" stroke-linejoin="round"/>
<path d="M219.289 184.755C219.289 184.755 220.3 187.685 220.3 190.796C220.3 196.371 219.289 199.006 219.289 199.006" stroke="#502A73" stroke-width="0.2767" stroke-miterlimit="10" stroke-linecap="round" stroke-linejoin="round"/>
<path d="M232.143 192.669C232.143 192.669 233.8 195.27 234.527 198.29C235.822 203.706 235.435 206.511 235.435 206.511" stroke="#502A73" stroke-width="0.2767" stroke-miterlimit="10" stroke-linecap="round" stroke-linejoin="round"/>
<path d="M242.93 194.339C242.93 194.339 244.099 197.246 244.099 203.207C244.099 206.92 242.93 213.517 242.93 213.517" stroke="#502A73" stroke-width="0.2767" stroke-miterlimit="10" stroke-linecap="round" stroke-linejoin="round"/>
<path d="M249.459 198.892C249.459 198.892 251.446 201.526 253.195 207.522C254.943 213.517 254.943 217.707 254.943 217.707" stroke="#502A73" stroke-width="0.2767" stroke-miterlimit="10" stroke-linecap="round" stroke-linejoin="round"/>
<path d="M266.923 196.507L211.011 172.764" stroke="#502A73" stroke-width="0.2767" stroke-miterlimit="10" stroke-linecap="round" stroke-linejoin="round"/>
<path d="M191.095 180.679C191.095 180.679 187.302 183.62 179.274 184.539L191.095 180.679Z" fill="#BF792A"/>
<path d="M191.095 180.679C191.095 180.679 187.302 183.62 179.274 184.539" stroke="#502A73" stroke-width="0.2767" stroke-miterlimit="10" stroke-linecap="round" stroke-linejoin="round"/>
<path d="M193.957 185.947C193.957 185.947 191.129 188.82 185.009 188.945L193.957 185.947Z" fill="#BF792A"/>
<path d="M193.957 185.947C193.957 185.947 191.129 188.82 185.009 188.945" stroke="#502A73" stroke-width="0.2767" stroke-miterlimit="10" stroke-linecap="round" stroke-linejoin="round"/>
<path d="M197.396 191.102C197.396 191.102 194.717 193.078 189.777 192.181L197.396 191.102Z" fill="#BF792A"/>
<path d="M197.396 191.102C197.396 191.102 194.717 193.078 189.777 192.181" stroke="#502A73" stroke-width="0.2767" stroke-miterlimit="10" stroke-linecap="round" stroke-linejoin="round"/>
<path d="M181.07 163.203C188.449 159.709 193.677 155.281 192.745 153.315C191.814 151.348 185.076 152.586 177.697 156.081C170.317 159.576 165.09 164.003 166.021 165.97C166.953 167.937 173.69 166.698 181.07 163.203Z" fill="#502A73" stroke="#502A73" stroke-width="0.2767" stroke-miterlimit="10" stroke-linecap="round" stroke-linejoin="round"/>
<path d="M181.07 163.203C188.449 159.709 193.677 155.281 192.745 153.315C191.814 151.348 185.076 152.586 177.697 156.081C170.317 159.576 165.09 164.003 166.021 165.97C166.953 167.937 173.69 166.698 181.07 163.203Z" stroke="#502A73" stroke-width="0.2767" stroke-miterlimit="10" stroke-linecap="round" stroke-linejoin="round"/>
<path d="M95.088 128.219C94.8609 125.607 91.9313 124.279 94.2477 123.154C96.9843 121.826 106.534 119.067 110.065 118.363C118.865 116.603 120.217 118.726 121.738 123.302C123.68 129.161 125.122 137.45 127.461 150.497C129.8 163.544 131.81 173.741 131.197 176.852C130.493 180.417 120.693 182.847 114.38 184.641C108.067 186.436 107.34 185.073 104.887 182.075C102.071 178.635 98.063 152.45 96.8707 143.9C95.9396 137.189 95.3946 131.693 95.088 128.219Z" fill="#008056" stroke="#502A73" stroke-width="0.2767" stroke-miterlimit="10" stroke-linecap="round" stroke-linejoin="round"/>
<path d="M89.4785 129.649C89.2514 127.038 90.6253 124.551 92.9417 123.415C95.6783 122.087 100.936 120.486 104.456 119.782C113.256 118.022 114.8 119.793 116.129 124.426C117.366 128.752 119.512 138.87 121.851 151.916C124.191 164.963 126.166 175.149 125.587 178.271C125.008 181.394 120.682 182.825 114.38 184.619C108.078 186.413 102.65 187.071 100.198 184.085C96.9387 180.099 93.7252 157.662 92.0901 145.91C91.1704 139.222 89.7851 133.135 89.4785 129.649Z" fill="#008056" stroke="#502A73" stroke-width="0.2767" stroke-miterlimit="10" stroke-linecap="round" stroke-linejoin="round"/>
<path d="M107.703 127.14C104.683 126.901 103.388 128.582 103.218 128.832C102.968 128.673 101.174 127.662 98.4714 129.127C95.8825 130.535 95.5532 133.238 96.2799 134.396C96.666 135.009 97.1542 134.191 98.0513 133.238C99.3117 131.886 100.356 132.306 100.356 132.306C100.356 132.306 98.233 133.442 97.6652 134.998C97.0975 136.565 98.5395 138.359 99.2549 137.03C100.447 134.827 101.401 134.6 101.401 134.6C101.401 134.6 100.583 135.554 100.322 136.735C100.061 137.916 100.629 138.983 101.424 138.835C101.912 138.745 103.309 134.441 103.468 136.894C103.695 140.266 104.092 142.639 104.558 144.24C104.785 145.013 105.398 145.478 106 145.353L106.545 145.24C107.147 145.115 107.555 144.422 107.487 143.616C107.34 141.947 106.863 139.585 105.863 136.383C105.137 134.055 107.976 137.45 108.452 137.325C109.236 137.121 109.384 135.906 108.714 134.929C108.055 133.942 106.954 133.396 106.954 133.396C106.954 133.396 107.907 133.203 109.804 134.748C110.951 135.679 111.632 133.431 110.542 132.216C109.463 131.012 107.101 130.842 107.101 130.842C107.101 130.842 107.907 130.024 109.565 130.751C110.735 131.262 111.484 131.807 111.609 131.091C111.859 129.74 110.587 127.378 107.703 127.14Z" fill="#4BBEA5" stroke="#502A73" stroke-width="0.2767" stroke-miterlimit="10" stroke-linecap="round" stroke-linejoin="round"/>
<path d="M126.155 151.394L123.543 137.882C123.407 137.189 122.76 136.735 122.078 136.871C121.408 137.007 120.966 137.677 121.102 138.37L123.713 151.882C123.85 152.575 124.497 153.029 125.178 152.893C125.848 152.757 126.291 152.087 126.155 151.394Z" fill="#502A73" stroke="#502A73" stroke-width="0.2767" stroke-miterlimit="10" stroke-linecap="round" stroke-linejoin="round"/>
<path d="M121.647 134.6C122.317 134.464 122.76 133.794 122.623 133.101L121.987 129.797C121.851 129.104 121.204 128.65 120.523 128.798C119.853 128.934 119.41 129.604 119.546 130.297L120.182 133.601C120.307 134.294 120.966 134.736 121.647 134.6Z" fill="#502A73" stroke="#502A73" stroke-width="0.2767" stroke-miterlimit="10" stroke-linecap="round" stroke-linejoin="round"/>
<path d="M126.155 151.394L123.543 137.882C123.407 137.189 122.76 136.735 122.078 136.871C121.408 137.007 120.966 137.677 121.102 138.37L123.713 151.882C123.85 152.575 124.497 153.029 125.178 152.893C125.848 152.757 126.291 152.087 126.155 151.394Z" stroke="#502A73" stroke-width="0.2767" stroke-miterlimit="10" stroke-linecap="round" stroke-linejoin="round"/>
<path d="M121.647 134.6C122.317 134.464 122.76 133.794 122.623 133.101L121.987 129.797C121.851 129.104 121.204 128.65 120.523 128.798C119.853 128.934 119.41 129.604 119.546 130.297L120.182 133.601C120.307 134.294 120.966 134.736 121.647 134.6Z" stroke="#502A73" stroke-width="0.2767" stroke-miterlimit="10" stroke-linecap="round" stroke-linejoin="round"/>
<path d="M117.957 176.875L106.818 179.997C106.33 180.133 105.819 179.838 105.683 179.327C105.546 178.828 105.842 178.294 106.33 178.158L117.469 175.035C117.957 174.899 118.468 175.194 118.605 175.705C118.741 176.205 118.457 176.738 117.957 176.875Z" fill="#4BBEA5" stroke="#502A73" stroke-width="0.2767" stroke-miterlimit="10" stroke-linecap="round" stroke-linejoin="round"/>
<path d="M115.344 152.507C115.674 151.542 115.821 149.748 115.606 148.499C115.288 146.682 114.084 145.376 112.233 144.934C112.54 143.378 112.54 142.14 111.518 140.891C109.735 138.7 106.34 138.757 101.321 140.869C96.7336 142.799 84.2545 148.079 86.3665 158.753C87.5588 164.782 89.035 169.619 91.0675 173.582C93.6224 178.556 98.2211 177.625 100.083 177.045C100.083 177.045 101.548 176.262 102.241 174.899C103.989 171.459 106.34 164.089 108.543 163.011C111.302 161.648 112.812 161.001 114.89 160.32C117.195 158.9 116.752 154.812 115.265 152.734C115.208 152.644 115.322 152.587 115.344 152.507Z" fill="#BF792A" stroke="#502A73" stroke-width="0.2767" stroke-miterlimit="10" stroke-linecap="round" stroke-linejoin="round"/>
<path d="M97.5173 160.955C97.5173 160.955 105.659 153.291 115.265 152.723C115.662 151.826 115.844 149.85 115.606 148.499C115.288 146.682 114.084 145.376 112.233 144.933C100.549 146.966 95.5869 153.54 95.5869 153.54" fill="#BF792A"/>
<path d="M97.5173 160.955C97.5173 160.955 105.659 153.291 115.265 152.723C115.662 151.826 115.844 149.85 115.606 148.499C115.288 146.682 114.084 145.376 112.233 144.933C100.549 146.966 95.5869 153.54 95.5869 153.54" stroke="#502A73" stroke-width="0.2767" stroke-miterlimit="10" stroke-linecap="round" stroke-linejoin="round"/>
<path d="M99.7881 168.234L101.071 167.28C101.071 167.28 105.466 164.123 108.543 162.601C111.302 161.239 112.812 160.989 114.89 160.308C116.423 160.047 119.659 167.7 112.335 169.755C108.282 170.891 101.707 176.534 100.083 177.045" fill="#BF792A"/>
<path d="M99.7881 168.234L101.071 167.28C101.071 167.28 105.466 164.123 108.543 162.601C111.302 161.239 112.812 160.989 114.89 160.308C116.423 160.047 119.659 167.7 112.335 169.755C108.282 170.891 101.707 176.534 100.083 177.045" stroke="#502A73" stroke-width="0.2767" stroke-miterlimit="10" stroke-linecap="round" stroke-linejoin="round"/>
<path d="M250.015 226.757H319.621C334.859 226.757 347.202 240.758 347.202 258.04C347.202 275.322 334.848 289.323 319.621 289.323H250.015V226.757Z" fill="#A9D054" stroke="#502A73" stroke-width="0.2767" stroke-miterlimit="10" stroke-linecap="round" stroke-linejoin="round"/>
<path d="M297.615 248.048C294.549 247.083 293.686 248.616 293.573 248.843C293.289 248.616 291.245 247.083 288.928 248.048C286.714 248.979 286.828 251.988 287.543 253.544C287.918 254.361 288.383 253.521 289.178 252.624C290.302 251.352 291.313 252.113 291.313 252.113C291.313 252.113 289.417 252.896 288.849 254.622C288.293 256.348 289.326 258.915 290.166 257.484C291.551 255.111 292.358 255.111 292.358 255.111C292.358 255.111 291.574 256.053 291.188 257.416C290.791 258.778 291.04 260.22 291.79 260.255C292.244 260.277 294.299 255.417 294.027 258.438C293.652 262.594 292.835 265.5 292.358 267.408C292.131 268.317 292.335 268.975 292.903 268.975C293.107 268.975 293.209 268.975 293.414 268.975C293.981 268.975 294.742 268.328 295.117 267.408C295.9 265.5 296.638 262.594 296.286 258.438C296.025 255.417 297.956 260.277 298.41 260.255C299.159 260.22 299.579 258.778 299.102 257.416C298.626 256.053 297.615 255.111 297.615 255.111C297.615 255.111 298.603 255.122 300.124 257.484C301.044 258.915 301.998 256.348 300.999 254.622C300.011 252.896 297.683 252.113 297.683 252.113C297.683 252.113 298.41 251.352 300.034 252.624C301.18 253.521 301.885 254.373 301.998 253.544C302.18 251.977 300.556 248.968 297.615 248.048Z" fill="#4BBEA5" stroke="#502A73" stroke-width="0.2767" stroke-miterlimit="10" stroke-linecap="round" stroke-linejoin="round"/>
<path d="M315.329 248.048C312.263 247.083 311.4 248.616 311.287 248.843C311.003 248.616 308.959 247.083 306.642 248.048C304.428 248.979 304.542 251.988 305.257 253.544C305.632 254.361 306.097 253.521 306.892 252.624C308.016 251.352 309.027 252.113 309.027 252.113C309.027 252.113 307.131 252.897 306.563 254.622C306.006 256.348 307.04 258.915 307.88 257.484C309.265 255.111 310.072 255.111 310.072 255.111C310.072 255.111 309.288 256.053 308.902 257.416C308.505 258.778 308.754 260.22 309.504 260.255C309.958 260.277 312.013 255.417 311.741 258.438C311.366 262.594 310.548 265.501 310.072 267.408C309.844 268.317 310.049 268.975 310.617 268.975C310.821 268.975 310.923 268.975 311.128 268.975C311.695 268.975 312.456 268.328 312.831 267.408C313.614 265.501 314.352 262.594 314 258.438C313.739 255.417 315.669 260.277 316.124 260.255C316.873 260.22 317.293 258.778 316.816 257.416C316.339 256.053 315.329 255.111 315.329 255.111C315.329 255.111 316.317 255.122 317.838 257.484C318.758 258.915 319.712 256.348 318.713 254.622C317.725 252.897 315.397 252.113 315.397 252.113C315.397 252.113 316.124 251.352 317.747 252.624C318.894 253.521 319.598 254.373 319.712 253.544C319.894 251.977 318.27 248.968 315.329 248.048Z" fill="#4BBEA5" stroke="#502A73" stroke-width="0.2767" stroke-miterlimit="10" stroke-linecap="round" stroke-linejoin="round"/>
<path d="M333.053 248.048C329.988 247.083 329.125 248.616 329.011 248.843C328.727 248.616 326.683 247.083 324.367 248.048C322.153 248.979 322.266 251.988 322.982 253.544C323.356 254.361 323.822 253.521 324.617 252.624C325.741 251.352 326.751 252.113 326.751 252.113C326.751 252.113 324.855 252.897 324.287 254.622C323.731 256.348 324.764 258.915 325.605 257.484C326.99 255.111 327.796 255.111 327.796 255.111C327.796 255.111 327.013 256.053 326.627 257.416C326.229 258.778 326.479 260.22 327.228 260.255C327.683 260.277 329.738 255.417 329.465 258.438C329.091 262.594 328.273 265.501 327.796 267.408C327.569 268.317 327.773 268.975 328.341 268.975C328.546 268.975 328.648 268.975 328.852 268.975C329.42 268.975 330.181 268.328 330.555 267.408C331.339 265.501 332.077 262.594 331.725 258.438C331.464 255.417 333.394 260.277 333.848 260.255C334.598 260.22 335.018 258.778 334.541 257.416C334.064 256.053 333.053 255.111 333.053 255.111C333.053 255.111 334.041 255.122 335.563 257.484C336.483 258.915 337.436 256.348 336.449 254.622C335.461 252.897 333.133 252.113 333.133 252.113C333.133 252.113 333.86 251.352 335.483 252.624C336.63 253.521 337.334 254.373 337.448 253.544C337.618 251.977 335.994 248.968 333.053 248.048Z" fill="#4BBEA5" stroke="#502A73" stroke-width="0.2767" stroke-miterlimit="10" stroke-linecap="round" stroke-linejoin="round"/>
<path d="M250.015 289.323C265.247 289.323 277.596 275.317 277.596 258.04C277.596 240.763 265.247 226.757 250.015 226.757C234.782 226.757 222.434 240.763 222.434 258.04C222.434 275.317 234.782 289.323 250.015 289.323Z" fill="#A9D054" stroke="#502A73" stroke-width="0.2767" stroke-miterlimit="10" stroke-linecap="round" stroke-linejoin="round"/>
<path d="M250.015 281.364C261.222 281.364 270.306 270.921 270.306 258.041C270.306 245.16 261.222 234.717 250.015 234.717C238.808 234.717 229.724 245.16 229.724 258.041C229.724 270.921 238.808 281.364 250.015 281.364Z" fill="#A9D054" stroke="#502A73" stroke-width="0.2767" stroke-miterlimit="10" stroke-linecap="round" stroke-linejoin="round"/>
<path d="M254.954 285.394H245.087L247.222 262.23H252.82L254.954 285.394Z" fill="#4BBEA5" stroke="#502A73" stroke-width="0.2767" stroke-miterlimit="10" stroke-linecap="round" stroke-linejoin="round"/>
<path d="M253.024 285.394H247.018L248.312 262.23H251.719L253.024 285.394Z" fill="#4BBEA5" stroke="#502A73" stroke-width="0.2767" stroke-miterlimit="10" stroke-linecap="round" stroke-linejoin="round"/>
<path d="M251.162 285.394H248.88L249.368 262.23H250.663L251.162 285.394Z" fill="#4BBEA5" stroke="#502A73" stroke-width="0.2767" stroke-miterlimit="10" stroke-linecap="round" stroke-linejoin="round"/>
<path d="M250.015 264.297C253.062 264.297 255.533 261.496 255.533 258.041C255.533 254.585 253.062 251.784 250.015 251.784C246.967 251.784 244.496 254.585 244.496 258.041C244.496 261.496 246.967 264.297 250.015 264.297Z" fill="#4BBEA5" stroke="#502A73" stroke-width="0.2767" stroke-miterlimit="10" stroke-linecap="round" stroke-linejoin="round"/>
<path d="M52.6548 244.948C52.6548 244.948 51.4738 231.583 56.5949 228.085C60.7962 225.213 69.1308 225.44 71.9241 230.391C76.3298 238.214 58.1733 251.511 58.1733 251.511L52.6548 244.948Z" fill="#4BBEA5" stroke="#502A73" stroke-width="0.2767" stroke-miterlimit="10" stroke-linecap="round" stroke-linejoin="round"/>
<path d="M68.8809 232.185C67.9043 230.447 65.3722 229.823 63.3283 229.823C61.4888 229.823 57.6622 230.152 53.6085 232.866C52.0529 238.044 52.666 244.948 52.666 244.948L54.3693 246.98C54.6418 247.15 54.8008 247.321 54.8121 247.502L58.6614 246.56C60.2284 245.243 62.3064 243.392 64.214 241.325C67.0187 238.282 69.9255 234.058 68.8809 232.185Z" fill="#4BBEA5" stroke="#502A73" stroke-width="0.2767" stroke-miterlimit="10" stroke-linecap="round" stroke-linejoin="round"/>
<path d="M81.8021 281.363C86.0148 274.652 84.1185 269.475 79.7923 268.021C73.5925 265.943 69.9475 262.798 65.7007 257.62C61.965 253.067 64.9967 250.035 56.594 244.88C50.2126 240.962 28.8425 224.895 15.0122 224.895C12.3665 224.895 9.90252 225.27 7.39307 225.974C1.35223 227.677 -0.487257 232.718 1.09108 240.179C2.66942 247.639 14.2287 264.944 23.4489 277.219C32.6691 289.493 42.2414 302.358 47.4988 304.732C52.7561 307.105 60.6364 303.812 65.7121 300.121C73.6833 294.342 78.952 285.905 81.8021 281.363Z" fill="#4BBEA5" stroke="#502A73" stroke-width="0.2767" stroke-miterlimit="10" stroke-linecap="round" stroke-linejoin="round"/>
<path d="M65.7016 292.139L61.3867 302.778C62.9537 301.984 64.4185 301.075 65.7016 300.133C73.6841 294.342 78.9528 285.905 81.8029 281.363C85.8566 274.891 84.2442 269.86 80.2587 268.191C66.3602 277.423 65.7016 292.139 65.7016 292.139Z" fill="#4BBEA5" stroke="#502A73" stroke-width="0.2767" stroke-miterlimit="10" stroke-linecap="round" stroke-linejoin="round"/>
<path d="M45.0007 271.337C39.8001 266.727 42.3549 261.992 39.7887 254.441C36.6434 245.209 28.3429 245.629 21.4618 241.076C14.5693 236.522 16.4429 229.812 16.4429 229.812L19.0092 225.338C17.6012 225.054 16.2612 224.895 15.0122 224.895C12.3665 224.895 9.90252 225.27 7.39307 225.974C1.35223 227.677 -0.487257 232.718 1.09108 240.179C2.66942 247.639 14.2287 264.944 23.4489 277.219C32.6691 289.493 42.2414 302.358 47.4988 304.732C52.7561 307.105 60.6364 303.812 65.7121 300.121C65.9619 299.94 66.2004 299.758 66.4388 299.576C70.4926 295.239 70.731 287.847 65.6212 282.521C58.8764 275.481 50.8485 276.526 45.0007 271.337Z" fill="#008056" stroke="#502A73" stroke-width="0.2767" stroke-miterlimit="10" stroke-linecap="round" stroke-linejoin="round"/>
<path d="M7.38208 225.974C4.99754 226.644 3.2716 227.847 2.14746 229.494L5.80372 232.923C5.80372 232.923 11.538 233.354 16.4319 229.812C18.2487 228.494 18.7484 226.837 18.6575 225.27C17.3744 225.031 16.1594 224.895 15.0126 224.895C12.3669 224.895 9.90288 225.27 7.38208 225.974Z" fill="#008056" stroke="#502A73" stroke-width="0.2767" stroke-miterlimit="10" stroke-linecap="round" stroke-linejoin="round"/>
<path d="M56.5945 291.412C51.9503 285.564 38.6424 274.607 32.3404 266.783C26.0384 258.96 15.3534 235.148 8.86968 230.822C4.56615 227.961 2.69259 228.892 1.92045 229.845C0.398886 232.366 0.171798 235.864 1.08019 240.167C2.65853 247.627 14.2179 264.932 23.4381 277.207C32.6583 289.482 42.2306 302.347 47.4879 304.72C48.1351 305.015 48.8164 305.22 49.5318 305.345C49.8724 305.401 50.2017 305.447 50.531 305.481C50.5424 305.481 50.5651 305.481 50.5764 305.481C50.6445 305.492 50.7014 305.492 50.7581 305.492C52.2683 305.594 53.8694 305.401 55.4931 305.004C56.4924 304.754 57.4348 304.254 58.1389 303.471C60.7846 300.587 59.6377 295.239 56.5945 291.412Z" fill="#502A73" stroke="#502A73" stroke-width="0.2767" stroke-miterlimit="10" stroke-linecap="round" stroke-linejoin="round"/>
<path d="M56.5945 291.412C51.9503 285.564 38.6424 274.607 32.3404 266.783C26.0384 258.96 15.3534 235.148 8.86968 230.822C4.56615 227.961 2.69259 228.892 1.92045 229.845C0.398886 232.366 0.171798 235.864 1.08019 240.167C2.65853 247.627 14.2179 264.932 23.4381 277.207C32.6583 289.482 42.2306 302.347 47.4879 304.72C48.1351 305.015 48.8164 305.22 49.5318 305.345C49.8724 305.401 50.2017 305.447 50.531 305.481C50.5424 305.481 50.5651 305.481 50.5764 305.481C50.6445 305.492 50.7014 305.492 50.7581 305.492C52.2683 305.594 53.8694 305.401 55.4931 305.004C56.4924 304.754 57.4348 304.254 58.1389 303.471C60.7846 300.587 59.6377 295.239 56.5945 291.412Z" stroke="#502A73" stroke-width="0.2767" stroke-miterlimit="10" stroke-linecap="round" stroke-linejoin="round"/>
<path d="M55.5495 264.092C55.5495 264.092 62.7258 266.386 66.9271 268.021C71.1285 269.667 71.1285 269.667 71.1285 269.667H55.5381V264.092H55.5495Z" fill="#008056" stroke="#502A73" stroke-width="0.2767" stroke-miterlimit="10" stroke-linecap="round" stroke-linejoin="round"/>
<path d="M130.322 270.292C130.322 270.292 121.477 256.303 124.985 249.592C128.483 242.881 132.423 243.96 142.938 243.96C152.567 243.96 155.723 250.92 154.497 258.04C153.271 265.171 146.446 275.05 146.446 275.05L111.416 308.218L104.319 303.096L130.322 270.292Z" fill="#4BBEA5" stroke="#502A73" stroke-width="0.2767" stroke-miterlimit="10" stroke-linecap="round" stroke-linejoin="round"/>
<path d="M145.697 271.666H127.87" stroke="#502A73" stroke-width="0.2767" stroke-miterlimit="10" stroke-linecap="round" stroke-linejoin="round"/>
<path d="M123.407 277.457H141.235" stroke="#502A73" stroke-width="0.2767" stroke-miterlimit="10" stroke-linecap="round" stroke-linejoin="round"/>
<path d="M118.944 283.248H136.772" stroke="#502A73" stroke-width="0.2767" stroke-miterlimit="10" stroke-linecap="round" stroke-linejoin="round"/>
<path d="M114.482 289.039H132.31" stroke="#502A73" stroke-width="0.2767" stroke-miterlimit="10" stroke-linecap="round" stroke-linejoin="round"/>
<path d="M110.02 294.83H127.847" stroke="#502A73" stroke-width="0.2767" stroke-miterlimit="10" stroke-linecap="round" stroke-linejoin="round"/>
<path d="M143.767 272.665C145.675 269.838 150.16 262.412 151.023 257.416C151.534 254.441 151.034 251.772 149.66 250.08C148.298 248.411 146.027 247.56 142.927 247.56C141.519 247.56 140.213 247.537 139.066 247.525C138.089 247.514 137.181 247.503 136.341 247.503C130.936 247.503 129.778 248.036 128.086 251.295C126.371 254.577 129.437 262.764 132.548 267.692" fill="#4BBEA5"/>
<path d="M143.767 272.665C145.675 269.838 150.16 262.412 151.023 257.416C151.534 254.441 151.034 251.772 149.66 250.08C148.298 248.411 146.027 247.56 142.927 247.56C141.519 247.56 140.213 247.537 139.066 247.525C138.089 247.514 137.181 247.503 136.341 247.503C130.936 247.503 129.778 248.036 128.086 251.295C126.371 254.577 129.437 262.764 132.548 267.692" stroke="#502A73" stroke-width="0.2767" stroke-miterlimit="10" stroke-linecap="round" stroke-linejoin="round"/>
<path d="M130.493 266.511C126.757 266.386 119.728 274.755 109.52 286.734C99.3235 298.714 91.0343 306.753 88.1048 313.225C85.1865 319.698 88.1048 323.956 95.1108 327.01C102.117 330.065 116.129 329.292 139.123 316.461C162.116 303.642 169.826 297.044 171.814 294.535C173.801 292.014 177.446 287.461 173.108 279.91C172.234 278.4 170.826 275.708 170.826 275.708L164.614 274.596C160.561 273.869 156.882 271.757 154.054 268.68C152.476 266.954 150.285 265.512 147.514 266.011C143.687 266.704 138.691 271.814 132.457 278.831C129.766 281.863 117.764 296.318 114.993 299.656C114.653 300.065 114.096 300.167 113.642 299.929C113.04 299.611 112.847 298.816 113.245 298.248C115.13 295.546 120.228 288.335 124.293 283.509C137.329 268.021 131.901 266.556 130.493 266.511Z" fill="#4BBEA5" stroke="#502A73" stroke-width="0.2767" stroke-miterlimit="10" stroke-linecap="round" stroke-linejoin="round"/>
<path d="M173.12 279.91C172.245 278.4 170.837 275.708 170.837 275.708L165.114 274.686C166.318 277.911 168.509 281.829 172.518 285.667C173.449 286.564 174.289 287.359 175.038 288.085C175.379 285.86 174.993 283.169 173.12 279.91Z" fill="#4BBEA5" stroke="#502A73" stroke-width="0.2767" stroke-miterlimit="10" stroke-linecap="round" stroke-linejoin="round"/>
<path d="M170.189 281.227C163.183 280.023 160.673 283.384 158.221 286.984C155.768 290.583 154.78 301.609 147.309 304.357C139.837 307.116 136.567 300.996 129.209 301.836C121.851 302.676 117.184 315.496 112.744 320.651C108.304 325.806 97.6875 321.73 97.6875 321.73L98.596 328.055C106.351 329.576 119.455 327.43 139.133 316.45C162.127 303.63 169.837 297.033 171.824 294.524C173.277 292.684 175.605 289.754 175.072 285.371C174.515 283.509 173.175 281.738 170.189 281.227Z" fill="#008056" stroke="#502A73" stroke-width="0.2767" stroke-miterlimit="10" stroke-linecap="round" stroke-linejoin="round"/>
<path d="M92.2035 316.098C89.3193 316.245 87.9226 317.915 87.2754 319.856C88.1157 322.831 90.8636 325.136 95.1217 326.999C97.5062 328.043 100.708 328.634 104.796 328.463C102.786 322.525 98.426 315.791 92.2035 316.098Z" fill="#008056" stroke="#502A73" stroke-width="0.2767" stroke-miterlimit="10" stroke-linecap="round" stroke-linejoin="round"/>
<path d="M159.232 274.505C158.675 274.857 157.903 275.345 156.825 276.038C152.998 278.468 146.866 282.93 146.866 282.93L151.181 286.314L159.879 274.63C159.663 274.596 159.448 274.55 159.232 274.505Z" fill="#008056" stroke="#502A73" stroke-width="0.2767" stroke-miterlimit="10" stroke-linecap="round" stroke-linejoin="round"/>
<path d="M221.344 180.225C223.833 180.225 225.852 178.15 225.852 175.592C225.852 173.033 223.833 170.959 221.344 170.959C218.854 170.959 216.836 173.033 216.836 175.592C216.836 178.15 218.854 180.225 221.344 180.225Z" fill="#EEC718" stroke="#502A73" stroke-width="0.2767" stroke-miterlimit="10" stroke-linecap="round" stroke-linejoin="round"/>
<path d="M225.977 187.719C228.466 187.719 230.485 185.645 230.485 183.086C230.485 180.528 228.466 178.453 225.977 178.453C223.487 178.453 221.469 180.528 221.469 183.086C221.469 185.645 223.487 187.719 225.977 187.719Z" fill="#EEC718" stroke="#502A73" stroke-width="0.2767" stroke-miterlimit="10" stroke-linecap="round" stroke-linejoin="round"/>
<path d="M227.919 196.11C230.409 196.11 232.427 194.036 232.427 191.477C232.427 188.918 230.409 186.844 227.919 186.844C225.429 186.844 223.411 188.918 223.411 191.477C223.411 194.036 225.429 196.11 227.919 196.11Z" fill="#EEC718" stroke="#502A73" stroke-width="0.2767" stroke-miterlimit="10" stroke-linecap="round" stroke-linejoin="round"/>
<path d="M228.884 204.706C231.374 204.706 233.392 202.632 233.392 200.073C233.392 197.514 231.374 195.44 228.884 195.44C226.394 195.44 224.376 197.514 224.376 200.073C224.376 202.632 226.394 204.706 228.884 204.706Z" fill="#EEC718" stroke="#502A73" stroke-width="0.2767" stroke-miterlimit="10" stroke-linecap="round" stroke-linejoin="round"/>
<path d="M228.441 212.938C230.93 212.938 232.948 210.864 232.948 208.305C232.948 205.747 230.93 203.672 228.441 203.672C225.951 203.672 223.933 205.747 223.933 208.305C223.933 210.864 225.951 212.938 228.441 212.938Z" fill="#EEC718" stroke="#502A73" stroke-width="0.2767" stroke-miterlimit="10" stroke-linecap="round" stroke-linejoin="round"/>
<path d="M227.919 221.068C230.409 221.068 232.427 218.994 232.427 216.436C232.427 213.877 230.409 211.803 227.919 211.803C225.429 211.803 223.411 213.877 223.411 216.436C223.411 218.994 225.429 221.068 227.919 221.068Z" fill="#EEC718" stroke="#502A73" stroke-width="0.2767" stroke-miterlimit="10" stroke-linecap="round" stroke-linejoin="round"/>
<path d="M217.597 267.26C215.337 267.26 214.213 267.26 211.954 267.26C210.421 259.482 211.431 252.624 213.18 244.97C214.463 244.97 215.099 244.97 216.382 244.97C218.119 252.624 219.13 259.482 217.597 267.26Z" fill="#EEC718" stroke="#502A73" stroke-width="0.2767" stroke-miterlimit="10" stroke-linecap="round" stroke-linejoin="round"/>
<path d="M216.632 267.26C215.144 267.26 214.406 267.26 212.919 267.26C211.647 259.891 212.533 252.283 213.725 244.97C214.565 244.97 214.985 244.97 215.826 244.97C217.018 252.283 217.904 259.891 216.632 267.26Z" fill="#EEC718" stroke="#502A73" stroke-width="0.2767" stroke-miterlimit="10" stroke-linecap="round" stroke-linejoin="round"/>
<path d="M215.496 267.26C214.917 267.26 214.633 267.26 214.054 267.26C213.566 259.845 213.895 252.374 214.36 244.97C214.69 244.97 214.849 244.97 215.178 244.97C215.655 252.385 215.984 259.845 215.496 267.26Z" fill="#EEC718" stroke="#502A73" stroke-width="0.2767" stroke-miterlimit="10" stroke-linecap="round" stroke-linejoin="round"/>
<path d="M218.517 246.435C218.085 245.788 218.085 244.914 218.517 244.255C219.039 243.46 219.323 242.507 219.278 241.473C219.175 239.111 217.29 237.181 214.997 237.056C212.408 236.931 210.262 239.043 210.262 241.678C210.262 242.643 210.546 243.528 211.034 244.267C211.465 244.914 211.477 245.754 211.045 246.401C211 246.469 210.954 246.538 210.92 246.606C210.239 247.741 211.068 249.195 212.362 249.172L217.188 249.058C218.46 249.024 219.244 247.571 218.54 246.469C218.54 246.458 218.528 246.447 218.517 246.435Z" fill="#EEC718" stroke="#502A73" stroke-width="0.2767" stroke-miterlimit="10" stroke-linecap="round" stroke-linejoin="round"/>
<path d="M225.863 228.086C228.353 228.086 230.371 226.011 230.371 223.453C230.371 220.894 228.353 218.82 225.863 218.82C223.374 218.82 221.355 220.894 221.355 223.453C221.355 226.011 223.374 228.086 225.863 228.086Z" fill="#EEC718" stroke="#502A73" stroke-width="0.2767" stroke-miterlimit="10" stroke-linecap="round" stroke-linejoin="round"/>
<path d="M223.41 235.285C225.9 235.285 227.918 233.211 227.918 230.652C227.918 228.093 225.9 226.019 223.41 226.019C220.921 226.019 218.902 228.093 218.902 230.652C218.902 233.211 220.921 235.285 223.41 235.285Z" fill="#EEC718" stroke="#502A73" stroke-width="0.2767" stroke-miterlimit="10" stroke-linecap="round" stroke-linejoin="round"/>
<path d="M224.614 236.454C224.614 239.009 222.593 241.087 220.107 241.087C217.62 241.087 215.599 239.02 215.599 236.454C215.599 233.888 217.62 231.821 220.107 231.821C222.605 231.821 224.614 233.888 224.614 236.454Z" fill="#EEC718" stroke="#502A73" stroke-width="0.2767" stroke-miterlimit="10" stroke-linecap="round" stroke-linejoin="round"/>
</svg>
