<svg width="362" height="419" viewBox="0 0 362 419" fill="none" xmlns="http://www.w3.org/2000/svg">
<path d="M59.646 101.681L153.486 1L302.953 149.086L231.245 169.303H58.7561" fill="#EEC718"/>
<path d="M59.646 101.681L153.486 1L302.953 149.086L231.245 169.303H58.7561" stroke="#502A73" stroke-width="0.57" stroke-linecap="round" stroke-linejoin="round"/>
<path d="M51.4027 163.679C51.4027 163.679 78.02 204.633 80.6397 209.097C81.6577 210.834 78.8458 226.894 71.8053 232.333C60.7569 240.875 39.4004 243.723 39.4004 243.723L14.449 165.238C14.449 165.238 17.2538 156.745 18.9837 148.437C20.7135 140.13 32.0325 150.281 32.0325 150.281" fill="#008056"/>
<path d="M51.4027 163.679C51.4027 163.679 78.02 204.633 80.6397 209.097C81.6577 210.834 78.8458 226.894 71.8053 232.333C60.7569 240.875 39.4004 243.723 39.4004 243.723L14.449 165.238C14.449 165.238 17.2538 156.745 18.9837 148.437C20.7135 140.13 32.0325 150.281 32.0325 150.281" stroke="#502A73" stroke-width="0.57" stroke-linecap="round" stroke-linejoin="round"/>
<path d="M40.8306 179.797C50.4627 175.815 54.5281 163.533 49.9108 152.364C45.2936 141.195 33.7422 135.369 24.1101 139.35C14.478 143.332 10.4127 155.615 15.0299 166.784C19.6471 177.953 31.1985 183.779 40.8306 179.797Z" fill="#502A73" stroke="#502A73" stroke-width="0.57" stroke-linecap="round" stroke-linejoin="round"/>
<path d="M40.8306 179.797C50.4627 175.815 54.5281 163.533 49.9108 152.364C45.2936 141.195 33.7422 135.369 24.1101 139.35C14.478 143.332 10.4127 155.615 15.0299 166.784C19.6471 177.953 31.1985 183.779 40.8306 179.797Z" stroke="#502A73" stroke-width="0.57" stroke-linecap="round" stroke-linejoin="round"/>
<path d="M225.08 313.437H52.3779C52.3779 313.437 33.869 315.665 33.9473 298.274C34.0256 280.883 53.4172 282.043 53.4172 282.043L64.2663 266.189L72.8089 282.022H239.389" fill="#A9D054"/>
<path d="M225.08 313.437H52.3779C52.3779 313.437 33.869 315.665 33.9473 298.274C34.0256 280.883 53.4172 282.043 53.4172 282.043L64.2663 266.189L72.8089 282.022H239.389" stroke="#502A73" stroke-width="0.57" stroke-linecap="round" stroke-linejoin="round"/>
<path d="M230.121 118.147C230.121 118.147 314.955 126.69 331.578 129.459C348.2 132.228 351.311 143.533 347.503 156.062C343.694 168.591 314.955 271.771 314.955 271.771L263.543 252.728L194.142 229.528L230.121 118.147Z" fill="#A9D054" stroke="#502A73" stroke-width="0.57" stroke-linecap="round" stroke-linejoin="round"/>
<path d="M331.578 129.459C326.189 128.562 313.639 127.06 299.138 125.437C301.359 125.693 324.31 128.74 322.096 143.305C320.067 156.695 287.256 248.927 287.256 248.927L320.943 250.272C329.578 219.334 344.805 164.911 347.503 156.033C351.311 143.568 348.193 132.228 331.578 129.459Z" fill="#A9D054" stroke="#502A73" stroke-width="0.57" stroke-linecap="round" stroke-linejoin="round"/>
<path d="M121.53 211.816C108.488 221.462 67.4271 226.581 67.4271 226.581L29.9964 240.968C11.2098 248.165 0.211252 267.962 1.04415 288.073C1.30755 294.295 2.15468 300.04 3.99846 304.041C10.6973 318.549 27.3909 322.429 44.9174 323.845C57.9092 324.892 96.721 327.924 115.913 329.419C117.332 329.529 118.758 329.348 120.104 328.885C121.45 328.423 122.687 327.69 123.739 326.732C124.79 325.773 125.635 324.61 126.22 323.313C126.805 322.015 127.118 320.612 127.14 319.189C127.311 307.842 127.382 290.28 126.478 278.769C125.054 260.566 124.342 258.338 124.342 258.338L150.198 258.53L219.207 219.519" fill="#008056"/>
<path d="M121.53 211.816C108.488 221.462 67.4271 226.581 67.4271 226.581L29.9964 240.968C11.2098 248.165 0.211252 267.962 1.04415 288.073C1.30755 294.295 2.15468 300.04 3.99846 304.041C10.6973 318.549 27.3909 322.429 44.9174 323.845C57.9092 324.892 96.721 327.924 115.913 329.419C117.332 329.529 118.758 329.348 120.104 328.885C121.45 328.423 122.687 327.69 123.739 326.732C124.79 325.773 125.635 324.61 126.22 323.313C126.805 322.015 127.118 320.612 127.14 319.189C127.311 307.842 127.382 290.28 126.478 278.769C125.054 260.566 124.342 258.338 124.342 258.338L150.198 258.53L219.207 219.519" stroke="#502A73" stroke-width="0.57" stroke-linecap="round" stroke-linejoin="round"/>
<path d="M29.9961 240.968L29.8751 241.011C20.9979 244.449 20.0796 256.765 28.3374 261.492C30.4424 262.674 32.6984 263.565 35.0434 264.14C47.8216 267.322 113.407 277.666 126.549 279.723" fill="#008056"/>
<path d="M29.9961 240.968L29.8751 241.011C20.9979 244.449 20.0796 256.765 28.3374 261.492C30.4424 262.674 32.6984 263.565 35.0434 264.14C47.8216 267.322 113.407 277.666 126.549 279.723" stroke="#502A73" stroke-width="0.57" stroke-linecap="round" stroke-linejoin="round"/>
<path d="M105.441 255.369L55.3108 246.627" stroke="#502A73" stroke-width="0.57" stroke-linecap="round" stroke-linejoin="round"/>
<path d="M155.024 100.919L180.851 123.066L143.648 137.161C143.648 137.161 111.258 145.39 122.142 140.777C128.3 138.165 119.046 135.495 132.03 118.56C138.245 110.451 151.636 108.921 151.636 108.921L155.024 100.919Z" fill="#008056" stroke="#502A73" stroke-width="0.57" stroke-linecap="round" stroke-linejoin="round"/>
<path d="M307.972 248.549C316.586 217.604 331.834 163.18 334.532 154.303C338.341 141.774 335.244 130.469 318.608 127.7" stroke="#502A73" stroke-width="0.57" stroke-linecap="round" stroke-linejoin="round"/>
<path d="M263.387 160.767C254.602 141.874 245.49 126.169 240.165 119.293C232.47 109.362 227.7 99.9865 213.385 100.784C199.069 101.581 174.943 111.163 174.943 111.163L160.477 118.175L150.789 120.482C150.789 120.482 133.39 127.871 122.926 132.797C112.461 137.723 109.229 141.859 105.022 146.693C99.0706 153.527 75.0588 200.333 75.0588 200.333L75.849 225.698L164.663 220.907L255.656 209.353C255.656 209.353 264.861 171.239 263.387 160.767Z" fill="#008056" stroke="#502A73" stroke-width="0.57" stroke-linecap="round" stroke-linejoin="round"/>
<path d="M164.506 144.992C164.506 144.992 169.703 135.617 178.787 133.552C187.443 131.58 189.194 135.745 188.497 137.439C187.799 139.133 186.14 140.507 182.012 142.023C175.128 144.558 172.871 147.405 172.871 147.405C172.871 147.405 184.425 144.7 190.825 147.405C197.224 150.11 195.53 155.905 190.825 154.937C186.119 153.969 176.587 152.089 176.587 152.089C176.587 152.089 182.994 155.45 185.13 158.952C187.265 162.454 184.161 171.018 176.801 168.128C169.44 165.238 166.08 160.653 166.08 160.653L154.789 150.687L144.595 151.762C144.595 151.762 137.989 151.904 140.431 147.071C142.872 142.237 157.267 139.162 164.506 144.992Z" fill="#4BBEA5" stroke="#502A73" stroke-width="0.57" stroke-linecap="round" stroke-linejoin="round"/>
<path d="M197.573 209.773C221.578 202.363 234.505 213.888 242.421 228.688C248.117 239.366 230.056 232.959 230.384 245.061L219.421 275.765L200.549 281.21C201.389 260.915 196.882 242.534 183.713 232.454C170.044 221.989 146.296 226.011 136.109 229.969C125.922 233.927 116.44 229.072 108.061 220.715C106.808 219.472 105.429 218.362 103.946 217.405C103.464 217.091 103.087 216.641 102.861 216.112C102.636 215.583 102.573 214.999 102.68 214.434C102.788 213.869 103.061 213.349 103.466 212.94C103.87 212.531 104.386 212.251 104.95 212.137H105.035" fill="#008056"/>
<path d="M197.573 209.773C221.578 202.363 234.505 213.888 242.421 228.688C248.117 239.366 230.056 232.959 230.384 245.061L219.421 275.765L200.549 281.21C201.389 260.915 196.882 242.534 183.713 232.454C170.044 221.989 146.296 226.011 136.109 229.969C125.922 233.927 116.44 229.072 108.061 220.715C106.808 219.472 105.429 218.362 103.946 217.405C103.464 217.091 103.087 216.641 102.861 216.112C102.636 215.583 102.573 214.999 102.68 214.434C102.788 213.869 103.061 213.349 103.466 212.94C103.87 212.531 104.386 212.251 104.95 212.137H105.035" stroke="#502A73" stroke-width="0.57" stroke-linecap="round" stroke-linejoin="round"/>
<path d="M201.097 289.39C201.536 290.68 202.238 291.866 203.158 292.872C204.078 293.877 205.197 294.682 206.443 295.234C206.596 294.016 206.667 292.789 206.656 291.561L201.097 289.39Z" fill="#008056" stroke="#502A73" stroke-width="0.57" stroke-linecap="round" stroke-linejoin="round"/>
<path d="M117.643 200.732C116.736 203.263 114.974 205.398 112.66 206.769C101.854 213.176 84.783 220.181 67.406 226.581C79.6108 226.58 91.4872 230.534 101.256 237.85L103.078 239.21C103.751 239.714 104.562 240 105.403 240.028C106.243 240.056 107.072 239.825 107.777 239.366C119.694 231.621 142.887 217.604 145.848 207.061C149.443 194.382 136.857 177.781 128.614 161.543C122.014 148.551 129.048 132.356 135.483 127.074C131.141 128.989 126.585 131.032 122.897 132.769C112.433 137.688 109.201 141.831 104.993 146.665C103.311 154.112 103.354 161.846 105.121 169.274C106.89 176.724 110.451 183.63 115.494 189.392C116.821 190.924 117.719 192.781 118.094 194.774C118.469 196.766 118.309 198.822 117.629 200.732H117.643Z" fill="#EAE7DA" stroke="#502A73" stroke-width="0.57" stroke-linecap="round" stroke-linejoin="round"/>
<path d="M145.848 207.061C149.443 194.382 136.857 177.781 128.613 161.543C122.014 148.551 129.048 132.356 135.483 127.074C131.532 128.811 127.417 130.633 123.929 132.285L118.234 139.525C117.325 140.675 116.853 142.111 116.904 143.577C116.955 145.042 117.525 146.442 118.512 147.526L122.164 151.541L118.647 160.198C118.08 161.591 118.04 163.142 118.534 164.562C119.028 165.983 120.022 167.174 121.331 167.915L130.379 173.04L126.3 181.298C125.69 182.548 125.52 183.968 125.817 185.327C126.114 186.686 126.861 187.905 127.937 188.787L136.7 196.027L130.564 201.11C129.635 201.879 128.951 202.904 128.597 204.058C128.243 205.211 128.233 206.443 128.571 207.602L130.386 213.852L123.36 213.418C122.392 213.355 121.424 213.52 120.532 213.901C119.64 214.281 118.85 214.867 118.227 215.609C117.603 216.351 117.163 217.23 116.941 218.174C116.72 219.117 116.724 220.1 116.953 221.042L117.501 223.327L104.018 223.961C102.592 224.03 101.234 224.588 100.173 225.543C99.1116 226.498 98.4129 227.79 98.1947 229.2C97.917 230.994 97.6181 233.08 97.3689 235.159C98.7072 235.999 100.024 236.896 101.298 237.85L103.121 239.21C103.793 239.714 104.605 240 105.445 240.028C106.286 240.056 107.115 239.825 107.819 239.366C119.693 231.621 142.887 217.604 145.848 207.061Z" fill="#4BBEA5" stroke="#502A73" stroke-width="0.57" stroke-linecap="round" stroke-linejoin="round"/>
<path d="M232.89 236.875H324.644C344.719 236.875 361 254.864 361 277.046C361 299.228 344.719 317.211 324.644 317.211H232.89V236.875Z" fill="#A9D054" stroke="#502A73" stroke-width="0.57" stroke-linecap="round" stroke-linejoin="round"/>
<path d="M232.889 317.21C252.968 317.21 269.245 299.228 269.245 277.046C269.245 254.864 252.968 236.882 232.889 236.882C212.811 236.882 196.534 254.864 196.534 277.046C196.534 299.228 212.811 317.21 232.889 317.21Z" fill="#A9D054" stroke="#502A73" stroke-width="0.57" stroke-linecap="round" stroke-linejoin="round"/>
<path d="M232.889 307.002C247.66 307.002 259.635 293.59 259.635 277.046C259.635 260.502 247.66 247.09 232.889 247.09C218.118 247.09 206.144 260.502 206.144 277.046C206.144 293.59 218.118 307.002 232.889 307.002Z" fill="#A9D054" stroke="#502A73" stroke-width="0.57" stroke-linecap="round" stroke-linejoin="round"/>
<path d="M239.397 312.163H226.391L229.203 282.428H236.578L239.397 312.163Z" fill="#4BBEA5" stroke="#502A73" stroke-width="0.57" stroke-linecap="round" stroke-linejoin="round"/>
<path d="M236.855 312.163H228.932L230.647 282.428H235.139L236.855 312.163Z" fill="#4BBEA5" stroke="#502A73" stroke-width="0.57" stroke-linecap="round" stroke-linejoin="round"/>
<path d="M234.392 312.163H231.395L232.043 282.428H233.744L234.392 312.163Z" fill="#4BBEA5" stroke="#502A73" stroke-width="0.57" stroke-linecap="round" stroke-linejoin="round"/>
<path d="M232.89 285.09C236.908 285.09 240.165 281.489 240.165 277.046C240.165 272.603 236.908 269.002 232.89 269.002C228.872 269.002 225.614 272.603 225.614 277.046C225.614 281.489 228.872 285.09 232.89 285.09Z" fill="#4BBEA5" stroke="#502A73" stroke-width="0.57" stroke-linecap="round" stroke-linejoin="round"/>
<path d="M295.628 264.204C291.585 262.958 290.446 264.916 290.289 265.229C289.919 264.93 287.221 262.958 284.174 264.204C281.255 265.4 281.412 269.265 282.351 271.266C282.843 272.319 283.448 271.266 284.487 270.077C285.968 268.447 287.335 269.422 287.335 269.422C287.335 269.422 284.829 270.426 284.088 272.647C283.348 274.868 284.722 278.157 285.825 276.32C287.648 273.28 288.673 273.273 288.673 273.273C287.977 274.152 287.453 275.155 287.128 276.228C286.609 277.986 286.936 279.83 287.918 279.88C288.509 279.88 291.229 273.665 290.873 277.537C290.482 281.435 289.743 285.29 288.666 289.056C288.36 290.223 288.666 291.063 289.378 291.063H290.09C290.802 291.063 291.834 290.223 292.325 289.056C293.785 285.403 294.313 281.445 293.863 277.537C293.528 273.665 296.062 279.908 296.66 279.88C297.65 279.83 298.198 277.986 297.571 276.228C297.138 275.11 296.465 274.102 295.6 273.273C295.6 273.273 296.909 273.273 298.91 276.32C300.12 278.157 301.38 274.861 300.07 272.647C298.76 270.433 295.706 269.422 295.706 269.422C295.706 269.422 296.66 268.447 298.803 270.077C300.312 271.23 301.245 272.319 301.387 271.266C301.636 269.265 299.501 265.4 295.628 264.204Z" fill="#4BBEA5" stroke="#502A73" stroke-width="0.57" stroke-linecap="round" stroke-linejoin="round"/>
<path d="M318.984 264.204C314.934 262.958 313.802 264.916 313.645 265.229C313.275 264.93 310.577 262.958 307.53 264.204C304.612 265.4 304.768 269.265 305.708 271.266C306.199 272.319 306.804 271.266 307.844 270.077C309.331 268.447 310.691 269.422 310.691 269.422C310.691 269.422 308.192 270.426 307.452 272.647C306.712 274.868 308.086 278.157 309.182 276.32C311.004 273.28 312.029 273.273 312.029 273.273C311.334 274.152 310.81 275.155 310.485 276.228C309.965 277.986 310.292 279.83 311.268 279.88C311.866 279.88 314.585 273.665 314.229 277.537C313.84 281.436 313.099 285.291 312.015 289.056C311.716 290.223 312.015 291.063 312.727 291.063H313.403C314.151 291.063 315.155 290.223 315.646 289.056C317.106 285.403 317.634 281.445 317.183 277.537C316.849 273.665 319.383 279.908 319.981 279.88C320.971 279.83 321.519 277.986 320.892 276.228C320.459 275.11 319.786 274.102 318.92 273.273C318.92 273.273 320.23 273.273 322.231 276.32C323.441 278.157 324.701 274.861 323.391 272.647C322.081 270.433 319.027 269.422 319.027 269.422C319.027 269.422 319.981 268.447 322.124 270.077C323.633 271.23 324.566 272.319 324.708 271.266C325 269.265 322.864 265.4 318.984 264.204Z" fill="#4BBEA5" stroke="#502A73" stroke-width="0.57" stroke-linecap="round" stroke-linejoin="round"/>
<path d="M342.342 264.204C338.291 262.958 337.159 264.916 337.002 265.229C336.632 264.93 333.934 262.958 330.887 264.204C327.969 265.4 328.125 269.265 329.058 271.266C329.556 272.319 330.161 271.266 331.194 270.077C332.674 268.447 334.041 269.422 334.041 269.422C334.041 269.422 331.542 270.426 330.802 272.647C330.062 274.868 331.436 278.157 332.532 276.32C334.354 273.28 335.379 273.273 335.379 273.273C334.684 274.152 334.16 275.155 333.835 276.228C333.315 277.986 333.642 279.83 334.618 279.88C335.216 279.88 337.935 273.665 337.572 277.537C337.188 281.436 336.45 285.291 335.365 289.056C335.066 290.223 335.365 291.063 336.077 291.063H336.789C337.501 291.063 338.54 290.223 339.031 289.056C340.488 285.402 341.016 281.445 340.569 277.537C340.234 273.665 342.769 279.908 343.367 279.88C344.356 279.83 344.904 277.986 344.271 276.228C343.842 275.11 343.171 274.101 342.306 273.273C342.306 273.273 343.616 273.273 345.616 276.32C346.826 278.157 348.079 274.861 346.777 272.647C345.474 270.433 342.413 269.422 342.413 269.422C342.413 269.422 343.367 268.447 345.509 270.077C347.019 271.23 347.951 272.319 348.094 271.266C348.357 269.265 346.221 265.4 342.342 264.204Z" fill="#4BBEA5" stroke="#502A73" stroke-width="0.57" stroke-linecap="round" stroke-linejoin="round"/>
<mask id="mask0_641_1188" style="mask-type:luminance" maskUnits="userSpaceOnUse" x="32" y="104" width="273" height="315">
<path d="M232.89 291.284C220.233 291.284 211.533 290.949 204.941 287.789C202.514 286.614 198.264 288.081 197.253 284.699C196.581 282.205 196.269 279.628 196.328 277.046C196.328 254.786 212.701 236.676 232.89 236.676H304.79V112.431L32.4739 104.522V418.17H304.769V317.417L232.89 291.284Z" fill="white"/>
</mask>
<g mask="url(#mask0_641_1188)">
<path d="M86.349 268.575C86.349 268.575 75.9128 294.808 79.3441 310.412C82.7753 326.017 98.2588 333.392 115.066 338.524C127.531 342.333 164.791 353.609 183.222 359.169C184.583 359.582 186.016 359.712 187.429 359.55C188.843 359.388 190.209 358.938 191.442 358.227C192.675 357.517 193.749 356.561 194.598 355.419C195.447 354.277 196.052 352.973 196.377 351.587C198.983 340.539 202.784 323.397 204.393 311.957C206.899 293.882 206.657 291.547 206.657 291.547L188.86 284.599L219.414 275.708L230.377 245.005C230.049 232.903 248.124 239.31 242.415 228.631C234.506 213.831 221.578 202.292 197.566 209.717C94.2366 241.666 86.349 268.575 86.349 268.575Z" fill="#008056" stroke="#502A73" stroke-width="0.57" stroke-linecap="round" stroke-linejoin="round"/>
<path d="M109.969 248.357L112.817 244.798C110.617 246.122 108.602 247.41 106.752 248.649C104.375 250.232 102.454 252.409 101.179 254.964C99.9042 257.519 99.3195 260.363 99.4832 263.214C99.4832 263.342 99.4832 263.463 99.4832 263.563C100.672 274.725 105.62 280.577 113.899 284.208C121.203 287.404 177.819 310.206 202.991 320.328C203.105 319.709 203.212 319.097 203.318 318.485C203.318 318.421 203.318 318.349 203.318 318.278C203.525 317.082 203.717 315.908 203.895 314.783C203.891 314.719 203.891 314.655 203.895 314.591C203.98 314.021 204.066 313.466 204.144 312.918C191.75 308.091 129.909 283.937 118.106 278.085C105.093 271.579 102.082 258.096 109.969 248.357Z" fill="#008056" stroke="#502A73" stroke-width="0.57" stroke-linecap="round" stroke-linejoin="round"/>
<path d="M188.86 284.613L141.762 265.329" stroke="#502A73" stroke-width="0.57" stroke-linecap="round" stroke-linejoin="round"/>
<path d="M200.179 355.966C200.179 355.966 182.538 368.11 173.796 363.739C165.054 359.368 166.3 354.129 165.916 340.247C165.567 327.554 174.38 323.162 183.578 324.522C192.775 325.881 205.71 334.531 205.71 334.531L249.555 379.507L243.262 389.075L200.179 355.966Z" fill="#EAE7DA" stroke="#502A73" stroke-width="0.57" stroke-linecap="round" stroke-linejoin="round"/>
<path d="M201.382 335.663L202.03 359.155" stroke="#502A73" stroke-width="0.57" stroke-linecap="round" stroke-linejoin="round"/>
<path d="M209.625 364.829L208.978 341.336" stroke="#502A73" stroke-width="0.57" stroke-linecap="round" stroke-linejoin="round"/>
<path d="M217.222 370.509L216.574 347.01" stroke="#502A73" stroke-width="0.57" stroke-linecap="round" stroke-linejoin="round"/>
<path d="M224.817 376.183L224.169 352.684" stroke="#502A73" stroke-width="0.57" stroke-linecap="round" stroke-linejoin="round"/>
<path d="M232.412 381.857L231.765 358.365" stroke="#502A73" stroke-width="0.57" stroke-linecap="round" stroke-linejoin="round"/>
<path d="M202.741 338.161C199.032 335.741 189.351 330.096 182.894 329.142C179.064 328.572 175.654 329.32 173.533 331.199C171.411 333.078 170.436 336.068 170.55 340.154C170.6 342.005 170.621 343.714 170.642 345.244C170.642 346.533 170.643 347.729 170.707 348.804C170.906 355.923 171.625 357.432 175.875 359.553C180.125 361.675 190.54 357.368 196.754 353.104" fill="#EAE7DA"/>
<path d="M202.741 338.161C199.032 335.741 189.351 330.096 182.894 329.142C179.064 328.572 175.654 329.32 173.533 331.199C171.411 333.078 170.436 336.068 170.55 340.154C170.6 342.005 170.621 343.714 170.642 345.244C170.642 346.533 170.643 347.729 170.707 348.804C170.906 355.923 171.625 357.432 175.875 359.553C180.125 361.675 190.54 357.368 196.754 353.104" stroke="#502A73" stroke-width="0.57" stroke-linecap="round" stroke-linejoin="round"/>
<path d="M195.324 355.866C195.324 360.799 206.294 369.762 222.048 382.782C237.802 395.802 248.387 406.445 256.823 410.061C265.259 413.678 270.591 409.677 274.257 400.344C277.923 391.011 276.393 372.581 259.122 342.682C241.852 312.783 233.089 302.909 229.786 300.389C226.483 297.869 220.531 293.213 210.971 299.193C209.063 300.389 205.66 302.339 205.66 302.339L204.45 310.562C203.641 315.925 201.11 320.879 197.239 324.678C195.103 326.814 193.316 329.761 194.056 333.392C195.082 338.375 201.823 344.782 211.063 352.783C215.05 356.222 234.043 371.534 238.428 375.058C238.684 375.268 238.862 375.557 238.934 375.879C239.006 376.202 238.968 376.539 238.827 376.838C238.735 377.026 238.604 377.193 238.442 377.326C238.281 377.46 238.093 377.558 237.891 377.613C237.689 377.668 237.477 377.68 237.27 377.647C237.063 377.614 236.866 377.537 236.691 377.422C233.132 375.03 223.721 368.573 217.363 363.383C196.989 346.818 195.331 354.022 195.324 355.866Z" fill="#EAE7DA" stroke="#502A73" stroke-width="0.57" stroke-linecap="round" stroke-linejoin="round"/>
<path d="M210.97 299.229C209.063 300.425 205.66 302.375 205.66 302.375L204.549 309.957C209.863 307.674 214.583 304.204 218.346 299.812L221.364 296.402C218.531 296.047 215.085 296.623 210.97 299.229Z" fill="#4BBEA5" stroke="#502A73" stroke-width="0.57" stroke-linecap="round" stroke-linejoin="round"/>
<path d="M212.772 303.03C211.483 312.285 215.883 315.495 220.603 318.599C225.322 321.703 239.496 322.614 243.304 332.367C247.113 342.12 239.389 346.604 240.727 356.3C242.066 365.996 258.702 371.663 265.48 377.322C272.257 382.982 267.409 397.127 267.409 397.127L275.503 395.703C277.176 385.43 273.944 368.253 259.13 342.696C241.838 312.847 233.096 302.923 229.793 300.403C227.38 298.552 223.543 295.584 217.933 296.445C215.548 297.264 213.32 299.093 212.772 303.03Z" fill="#4BBEA5" stroke="#502A73" stroke-width="0.57" stroke-linecap="round" stroke-linejoin="round"/>
<path d="M260.347 404.573C260.632 408.367 262.839 410.154 265.33 410.937C269.125 409.727 271.979 406.025 274.215 400.344C275.468 397.162 276.108 392.926 275.745 387.53C268.228 390.406 259.735 396.379 260.347 404.573Z" fill="#4BBEA5" stroke="#502A73" stroke-width="0.57" stroke-linecap="round" stroke-linejoin="round"/>
<path d="M204.535 317.73L206.585 320.841C209.846 325.824 215.804 333.712 215.804 333.712L219.99 327.91L204.678 316.862C204.635 317.154 204.585 317.438 204.535 317.73Z" fill="#4BBEA5" stroke="#502A73" stroke-width="0.57" stroke-linecap="round" stroke-linejoin="round"/>
<path d="M196.534 277.046C196.534 254.864 212.815 236.875 232.89 236.875C245.505 236.875 256.617 243.994 263.138 254.743L271.538 249.952L247.569 175.639L215.079 104.315L211.384 103.276C205.905 101.733 200.054 102.212 194.899 104.626C189.745 107.04 185.63 111.228 183.308 116.425C179.663 124.604 176.609 136.912 180.068 147.292C186.796 167.452 193.302 182.053 188.86 194.432C184.966 205.296 189.28 213.013 165.987 229.784C162.165 232.532 134.067 247.382 138.075 248.55C151.864 252.558 157.125 256.145 161.816 260.317C164.179 262.453 167.511 266.532 170.529 270.433C175.456 276.858 182.021 281.837 189.536 284.849C192.341 285.966 194.975 286.984 194.975 286.984L197.951 288.137C197.007 284.516 196.531 280.789 196.534 277.046Z" fill="#EAE7DA" stroke="#502A73" stroke-width="0.57" stroke-linecap="round" stroke-linejoin="round"/>
<path d="M180.068 147.292C186.796 167.452 193.302 182.053 188.86 194.433C184.966 205.296 189.28 213.013 165.987 229.785C162.165 232.532 134.067 247.382 138.075 248.55C143.231 249.958 148.238 251.865 153.024 254.245L165.076 254.957C166.085 255.013 167.095 254.85 168.035 254.479C168.975 254.108 169.824 253.537 170.522 252.807C171.221 252.076 171.752 251.202 172.08 250.246C172.408 249.29 172.525 248.274 172.423 247.268L171.597 239.203L183.336 240.15C184.495 240.238 185.658 240.037 186.719 239.563C187.78 239.088 188.707 238.357 189.414 237.434C190.121 236.511 190.586 235.427 190.768 234.279C190.95 233.131 190.842 231.955 190.455 230.859L186.575 219.875L201.14 217.298L209.412 181.256C209.788 179.62 209.564 177.904 208.78 176.421C207.996 174.938 206.704 173.786 205.141 173.176L195.217 169.353L201.012 159.244C201.811 157.85 202.106 156.224 201.847 154.638C201.588 153.052 200.79 151.604 199.588 150.538L189.622 141.753L193.302 132.065C193.789 130.785 193.89 129.39 193.591 128.054C193.292 126.717 192.608 125.498 191.622 124.547L183.236 116.474C179.663 124.604 176.609 136.912 180.068 147.292Z" fill="#4BBEA5" stroke="#502A73" stroke-width="0.57" stroke-linecap="round" stroke-linejoin="round"/>
</g>
<path d="M122.142 158.774L122.292 159.03L129.012 167.487L132.749 175.304L155.601 168.085L163.524 164.234L158.79 150.865L157.509 143.041L157.174 142.778L146.98 147.355" fill="#008056"/>
<path d="M122.142 158.774L122.292 159.03L129.012 167.487L132.749 175.304L155.601 168.085L163.524 164.234L158.79 150.865L157.509 143.041L157.174 142.778L146.98 147.355" stroke="#502A73" stroke-width="0.57" stroke-linecap="round" stroke-linejoin="round"/>
<path d="M171.632 207.915C174.915 207.915 177.576 205.254 177.576 201.971C177.576 198.688 174.915 196.027 171.632 196.027C168.349 196.027 165.688 198.688 165.688 201.971C165.688 205.254 168.349 207.915 171.632 207.915Z" fill="#EEC718" stroke="#502A73" stroke-width="0.57" stroke-linecap="round" stroke-linejoin="round"/>
<path d="M184.439 174.862C187.722 174.862 190.383 172.201 190.383 168.918C190.383 165.635 187.722 162.974 184.439 162.974C181.156 162.974 178.495 165.635 178.495 168.918C178.495 172.201 181.156 174.862 184.439 174.862Z" fill="#EEC718" stroke="#502A73" stroke-width="0.57" stroke-linecap="round" stroke-linejoin="round"/>
<path d="M274.585 187.399C271.175 178.222 267.324 169.181 263.415 160.767C254.631 141.874 245.519 126.17 240.194 119.293C233.445 110.587 228.946 102.307 218.296 100.919C217.106 101.924 216.036 103.064 215.107 104.315C211.548 108.921 208.323 118.688 206.066 126.91C204.939 131.034 204.68 135.346 205.306 139.575C205.932 143.804 207.43 147.857 209.704 151.477L219.072 166.426C222.819 173.162 226.171 180.11 229.11 187.235L201.062 175.631C201.062 175.631 204.13 183.775 197.396 201.109C190.063 220.01 180.88 224.986 180.88 224.986L201.19 231.82C210.124 234.831 218.866 238.376 227.473 242.221C245.526 250.293 261.209 246.741 268.505 242.79C285.099 233.799 285.64 217.177 274.585 187.399Z" fill="#008056" stroke="#502A73" stroke-width="0.57" stroke-linecap="round" stroke-linejoin="round"/>
<path d="M201.033 175.638L200.051 181.419C200.051 181.419 197.118 199.5 191.957 205.032C189.059 208.128 185.187 208.392 182.332 208.022C181.018 207.86 179.73 207.538 178.495 207.061C178.495 207.061 176.879 210.186 178.118 216.315C179.306 222.259 180.851 224.957 180.851 224.957C180.851 224.957 190.035 219.974 197.367 201.081C204.108 183.782 201.033 175.638 201.033 175.638Z" fill="#502A73" stroke="#502A73" stroke-width="0.57" stroke-linecap="round" stroke-linejoin="round"/>
<path d="M201.033 175.638L200.051 181.419C200.051 181.419 197.118 199.5 191.957 205.032C189.059 208.128 185.187 208.392 182.332 208.022C181.018 207.86 179.73 207.538 178.495 207.061C178.495 207.061 176.879 210.186 178.118 216.315C179.306 222.259 180.851 224.957 180.851 224.957C180.851 224.957 190.035 219.974 197.367 201.081C204.108 183.782 201.033 175.638 201.033 175.638Z" stroke="#502A73" stroke-width="0.57" stroke-linecap="round" stroke-linejoin="round"/>
<path d="M191.957 205.032C197.118 199.501 200.051 181.419 200.051 181.419L201.033 175.638L181.471 167.544C181.471 167.544 174.95 159.408 169.639 155.022C166.604 152.437 162.775 150.97 158.79 150.865L160.641 161.08C160.641 161.08 156.37 165.814 147.827 168.911C139.284 172.008 133.055 172.043 133.055 172.043L129.012 167.48C129.012 167.48 126.876 171.004 129.724 177.233C132.571 183.462 139.648 182.658 139.648 182.658C140.687 187.911 147.208 188.353 147.208 188.353C148.631 191.407 153.501 192.503 153.501 192.503C153.501 192.503 154.383 196.062 159.039 197.066C164.791 198.276 168.151 196.091 168.151 196.091C168.151 196.091 173.611 200.732 182.346 208.05C185.187 208.392 189.059 208.129 191.957 205.032Z" fill="#BF792A" stroke="#502A73" stroke-width="0.57" stroke-linecap="round" stroke-linejoin="round"/>
<path d="M159.039 120.261L172.935 104.521L166.186 92.9462C160.391 83.0938 152.461 69.8457 149.457 66.0158C143.605 58.5268 141.342 56.9179 135.219 58.1281C130.037 59.1603 124.805 64.955 121.245 70.4579C119.11 73.7539 123.794 83.8057 123.794 83.8057C123.794 83.8057 124.997 87.3152 126.712 91.8499C126.936 92.3978 126.966 93.0054 126.798 93.5727L125.773 98.5986C125.71 98.9122 125.712 99.2356 125.78 99.5482C125.848 99.8608 125.981 100.156 126.169 100.415C126.357 100.674 126.596 100.891 126.872 101.052C127.149 101.214 127.455 101.317 127.773 101.354L130.307 101.638C131.34 101.802 131.29 102.3 131.162 103.689C130.984 105.646 132.863 105.746 133.297 105.774C134.066 105.824 133.183 106.322 133.611 107.561C133.974 108.629 134.629 108.707 134.97 109.277C135.312 109.846 135.682 110.402 135.953 110.814C136.737 111.985 137.886 112.864 139.22 113.315C140.555 113.767 142.001 113.766 143.335 113.313L150.667 110.8L158.405 121.087L159.039 120.261Z" fill="#BF792A" stroke="#502A73" stroke-width="0.57" stroke-linecap="round" stroke-linejoin="round"/>
<path d="M149.158 82.2749C148.83 81.5551 148.642 80.7797 148.603 79.9897C148.603 77.5337 150.261 75.5547 152.717 75.5618C155.173 75.5689 156.725 77.6263 157.266 80.0253C157.765 82.0363 157.618 84.1535 156.846 86.0763C156.291 87.258 155.422 88.0197 154.383 88.0126" fill="#BF792A"/>
<path d="M149.158 82.2749C148.83 81.5551 148.642 80.7797 148.603 79.9897C148.603 77.5337 150.261 75.5547 152.717 75.5618C155.173 75.5689 156.725 77.6263 157.266 80.0253C157.765 82.0363 157.618 84.1535 156.846 86.0763C156.291 87.258 155.422 88.0197 154.383 88.0126" stroke="#502A73" stroke-width="0.57" stroke-linecap="round" stroke-linejoin="round"/>
<path d="M148.04 83.9197C148.008 84.3501 147.876 84.7671 147.655 85.1377C147.434 85.5084 147.13 85.8225 146.766 86.0553C145.57 86.7031 143.648 86.0553 143.648 86.0553" stroke="#502A73" stroke-width="0.57" stroke-linecap="round" stroke-linejoin="round"/>
<path d="M151.251 81.6343C151.251 81.6343 150.675 79.0573 153.081 79.0645C154.647 79.0645 155.331 81.3425 154.441 82.5313C154.007 82.9761 153.434 83.2599 152.818 83.3358C152.818 83.3358 153.693 83.5209 153.672 84.3253C153.672 85.3362 152.419 85.0372 152.419 85.0372" fill="#BF792A"/>
<path d="M151.251 81.6343C151.251 81.6343 150.675 79.0573 153.081 79.0645C154.647 79.0645 155.331 81.3425 154.441 82.5313C154.007 82.9761 153.434 83.2599 152.818 83.3358C152.818 83.3358 153.693 83.5209 153.672 84.3253C153.672 85.3362 152.419 85.0372 152.419 85.0372" stroke="#502A73" stroke-width="0.57" stroke-linecap="round" stroke-linejoin="round"/>
<path d="M133.525 105.774C135.037 105.382 136.351 104.443 137.213 103.14" stroke="#502A73" stroke-width="0.57" stroke-linecap="round" stroke-linejoin="round"/>
<path d="M132.728 88.5327C133.328 88.0471 134.059 87.7499 134.828 87.6785" stroke="#502A73" stroke-width="1.15" stroke-linecap="round" stroke-linejoin="round"/>
<path d="M133.02 88.3829C132.992 88.9658 133.096 89.5476 133.326 90.0843C133.689 90.9812 134.194 91.2802 134.607 91.1165C135.02 90.9528 135.169 90.4046 134.799 89.4792C134.585 88.9377 134.251 88.4512 133.824 88.0554L133.02 88.3829Z" fill="#502A73"/>
<path d="M126.122 91.2163C126.737 90.7326 127.478 90.436 128.257 90.3621" stroke="#502A73" stroke-width="1.15" stroke-linecap="round" stroke-linejoin="round"/>
<path d="M126.421 91.0669C126.394 91.6515 126.496 92.2349 126.72 92.7755C127.09 93.6724 127.595 93.9714 128.001 93.8006C128.407 93.6297 128.571 93.0887 128.2 92.1703C127.988 91.628 127.654 91.1411 127.225 90.7466L126.421 91.0669Z" fill="#502A73"/>
<path d="M129.311 86.7098C129.39 86.7776 129.482 86.8274 129.582 86.8558C129.681 86.8842 129.786 86.8905 129.888 86.8742C129.991 86.858 130.088 86.8195 130.174 86.7616C130.26 86.7037 130.333 86.6277 130.386 86.539C130.641 86.1012 130.98 85.7189 131.385 85.4144C131.79 85.11 132.251 84.8897 132.742 84.7664C133.267 84.6287 133.809 84.5688 134.351 84.5884C134.461 84.5926 134.57 84.5685 134.668 84.5185C134.766 84.4684 134.849 84.3941 134.91 84.3026C134.97 84.2111 135.007 84.1056 135.015 83.996C135.023 83.8865 135.003 83.7767 134.956 83.6772C134.918 83.5894 134.86 83.5112 134.787 83.4484C134.715 83.3856 134.629 83.3398 134.536 83.3141C133.481 82.9539 132.327 83.0157 131.316 83.4867C130.305 83.9577 129.515 84.8014 129.112 85.8413C129.041 85.9872 129.023 86.1527 129.059 86.3106C129.095 86.4685 129.184 86.6094 129.311 86.7098Z" fill="#502A73"/>
<path d="M125.752 86.4255C125.419 86.4564 125.098 86.5689 124.819 86.753L125.396 88.3547C125.532 88.2302 125.692 88.1335 125.866 88.0699C126.264 87.9468 126.683 87.9056 127.097 87.9489C127.197 87.96 127.298 87.9498 127.394 87.919C127.489 87.8882 127.577 87.8375 127.652 87.7703C127.727 87.703 127.786 87.6208 127.827 87.5289C127.867 87.437 127.888 87.3375 127.887 87.237C127.892 87.0754 127.842 86.9168 127.745 86.7874C127.648 86.658 127.51 86.5655 127.353 86.5252C126.831 86.3888 126.287 86.3549 125.752 86.4255Z" fill="#502A73"/>
<path d="M148.766 76.6514C148.176 74.2595 142.359 74.9144 138.651 75.5907C138.597 74.9312 138.397 74.2917 138.067 73.7185L133.568 66.6851L122.413 70.6858C122.413 70.6858 118.718 70.4296 114.318 74.3378C109.471 78.6091 112.453 84.8879 116.789 86.5039C121.124 88.1198 128.435 85.5001 134.621 81.7057C135.508 81.1823 136.318 80.5378 137.027 79.7908C137.568 81.6559 138.615 83.3502 140.622 83.7488C145.734 84.8238 149.642 80.2108 148.766 76.6514Z" fill="#502A73" stroke="#502A73" stroke-width="0.57" stroke-linecap="round" stroke-linejoin="round"/>
<path d="M148.766 76.6514C148.176 74.2595 142.359 74.9144 138.651 75.5907C138.597 74.9312 138.397 74.2917 138.067 73.7185L133.568 66.6851L122.413 70.6858C122.413 70.6858 118.718 70.4296 114.318 74.3378C109.471 78.6091 112.453 84.8879 116.789 86.5039C121.124 88.1198 128.435 85.5001 134.621 81.7057C135.508 81.1823 136.318 80.5378 137.027 79.7908C137.568 81.6559 138.615 83.3502 140.622 83.7488C145.734 84.8238 149.642 80.2108 148.766 76.6514Z" stroke="#502A73" stroke-width="0.57" stroke-linecap="round" stroke-linejoin="round"/>
<path d="M155.024 98.591C158.515 98.591 161.345 95.7608 161.345 92.2695C161.345 88.7782 158.515 85.948 155.024 85.948C151.532 85.948 148.702 88.7782 148.702 92.2695C148.702 95.7608 151.532 98.591 155.024 98.591Z" fill="#EEC718" stroke="#502A73" stroke-width="0.57" stroke-linecap="round" stroke-linejoin="round"/>
<path d="M174.622 87.4931C164.364 72.4867 143.598 59.566 142.887 59.0606C140.68 57.6368 138.508 57.4802 135.234 58.128C130.051 59.1603 124.819 64.955 121.26 70.4578C121.191 70.5652 121.129 70.677 121.074 70.7924C121.074 70.7924 132.415 67.8452 142.588 79.9899C163.681 105.162 160.563 112.523 157.943 120.468L172.515 102.001C174.729 95.7367 176.003 89.5078 174.622 87.4931Z" fill="#008056" stroke="#502A73" stroke-width="0.57" stroke-linecap="round" stroke-linejoin="round"/>
<path d="M150.639 110.822C150.639 110.822 154.868 115.855 159.965 113.833C163.581 112.409 168.849 106.629 173.049 100.371C173.127 100.258 181.485 90.4905 189.693 95.9151C194.192 98.8907 196.883 100.272 201.731 100.371C206.991 100.485 208.18 99.2894 217.307 99.5599C238.279 100.179 240.165 119.315 240.165 119.315C235.702 129.281 219.471 119.784 198.506 119.065C185.315 118.617 158.804 130.626 151.187 130.626C139.085 130.626 143.648 118.168 146.752 112.153L150.639 110.822Z" fill="#008056" stroke="#502A73" stroke-width="0.57" stroke-linecap="round" stroke-linejoin="round"/>
<path d="M255.164 198.034L181.47 167.544" stroke="#502A73" stroke-width="0.57" stroke-linecap="round" stroke-linejoin="round"/>
<path d="M155.217 177.739C155.217 177.739 150.233 181.511 139.634 182.722L155.217 177.739Z" fill="#BF792A"/>
<path d="M155.217 177.739C155.217 177.739 150.233 181.511 139.634 182.722" stroke="#502A73" stroke-width="0.57" stroke-linecap="round" stroke-linejoin="round"/>
<path d="M158.982 184.473C158.982 184.473 155.252 188.168 147.193 188.324L158.982 184.473Z" fill="#BF792A"/>
<path d="M158.982 184.473C158.982 184.473 155.252 188.168 147.193 188.324" stroke="#502A73" stroke-width="0.57" stroke-linecap="round" stroke-linejoin="round"/>
<path d="M163.531 191.093C163.531 191.093 159.971 193.628 153.493 192.474L163.531 191.093Z" fill="#BF792A"/>
<path d="M163.531 191.093C163.531 191.093 159.971 193.628 153.493 192.474" stroke="#502A73" stroke-width="0.57" stroke-linecap="round" stroke-linejoin="round"/>
<path d="M141.885 155.284C151.617 150.813 158.557 145.123 157.386 142.575C156.216 140.028 147.378 141.588 137.647 146.06C127.915 150.532 120.975 156.222 122.146 158.769C123.316 161.316 132.154 159.756 141.885 155.284Z" fill="#502A73" stroke="#502A73" stroke-width="0.57" stroke-linecap="round" stroke-linejoin="round"/>
<path d="M141.885 155.284C151.617 150.813 158.557 145.123 157.386 142.575C156.216 140.028 147.378 141.588 137.647 146.06C127.915 150.532 120.975 156.222 122.146 158.769C123.316 161.316 132.154 159.756 141.885 155.284Z" stroke="#502A73" stroke-width="0.57" stroke-linecap="round" stroke-linejoin="round"/>
<path d="M195.089 177.119C198.372 177.119 201.033 174.458 201.033 171.175C201.033 167.892 198.372 165.23 195.089 165.23C191.806 165.23 189.145 167.892 189.145 171.175C189.145 174.458 191.806 177.119 195.089 177.119Z" fill="#EEC718" stroke="#502A73" stroke-width="0.57" stroke-linecap="round" stroke-linejoin="round"/>
<path d="M201.204 186.751C204.487 186.751 207.148 184.089 207.148 180.806C207.148 177.524 204.487 174.862 201.204 174.862C197.921 174.862 195.26 177.524 195.26 180.806C195.26 184.089 197.921 186.751 201.204 186.751Z" fill="#EEC718" stroke="#502A73" stroke-width="0.57" stroke-linecap="round" stroke-linejoin="round"/>
<path d="M198.506 197.514C201.789 197.514 204.45 194.853 204.45 191.57C204.45 188.287 201.789 185.626 198.506 185.626C195.223 185.626 192.562 188.287 192.562 191.57C192.562 194.853 195.223 197.514 198.506 197.514Z" fill="#EEC718" stroke="#502A73" stroke-width="0.57" stroke-linecap="round" stroke-linejoin="round"/>
<path d="M194.113 207.061C197.396 207.061 200.057 204.4 200.057 201.117C200.057 197.834 197.396 195.173 194.113 195.173C190.83 195.173 188.169 197.834 188.169 201.117C188.169 204.4 190.83 207.061 194.113 207.061Z" fill="#EEC718" stroke="#502A73" stroke-width="0.57" stroke-linecap="round" stroke-linejoin="round"/>
<path d="M177.306 213.852C180.589 213.852 183.25 211.191 183.25 207.908C183.25 204.625 180.589 201.964 177.306 201.964C174.023 201.964 171.362 204.625 171.362 207.908C171.362 211.191 174.023 213.852 177.306 213.852Z" fill="#EEC718" stroke="#502A73" stroke-width="0.57" stroke-linecap="round" stroke-linejoin="round"/>
<path d="M186.012 214.863C189.295 214.863 191.956 212.202 191.956 208.919C191.956 205.636 189.295 202.975 186.012 202.975C182.729 202.975 180.068 205.636 180.068 208.919C180.068 212.202 182.729 214.863 186.012 214.863Z" fill="#EEC718" stroke="#502A73" stroke-width="0.57" stroke-linecap="round" stroke-linejoin="round"/>
<path d="M28.6722 110.338C28.3661 106.978 24.5148 105.284 27.5617 103.838C31.1709 102.123 43.7641 98.5847 48.4127 97.6806C60.0164 95.4239 61.8032 98.1505 63.8036 104.023C66.3663 111.548 68.2671 122.191 71.3424 138.906C74.4177 155.621 77.073 168.748 76.2686 172.741C75.3432 177.319 62.4154 180.437 54.1077 182.743C45.8001 185.05 44.8533 183.299 41.5929 179.447C37.8768 175.027 32.5947 141.412 31.0214 130.42C29.797 121.856 29.0709 114.808 28.6722 110.338Z" fill="#EAE7DA" stroke="#502A73" stroke-width="0.57" stroke-linecap="round" stroke-linejoin="round"/>
<path d="M21.2832 112.188C21.135 110.548 21.493 108.902 22.3088 107.471C23.1247 106.041 24.3592 104.895 25.8463 104.187C29.4556 102.478 36.3751 100.428 41.0308 99.5241C52.6273 97.2674 54.6704 99.5241 56.4145 105.49C58.0447 111.049 60.878 123.999 63.9605 140.792C67.0429 157.585 69.6555 170.627 68.8796 174.628C68.1036 178.628 62.4157 180.472 54.108 182.779C45.8004 185.085 38.646 185.939 35.414 182.067C31.1427 176.948 26.8714 148.131 24.7358 133.054C23.5042 124.475 21.6818 116.659 21.2832 112.188Z" fill="#EAE7DA" stroke="#502A73" stroke-width="0.57" stroke-linecap="round" stroke-linejoin="round"/>
<path d="M45.2947 108.964C41.3153 108.658 39.5997 110.815 39.3861 111.135C39.0587 110.936 36.6881 109.626 33.1287 111.512C29.7188 113.328 29.2917 116.802 30.2385 118.282C30.7439 119.066 31.3917 118.019 32.5734 116.795C34.2392 115.058 35.6132 115.599 35.6132 115.599C35.6132 115.599 32.8155 117.022 32.0538 119.058C31.292 121.094 33.1999 123.372 34.1538 121.657C35.7199 118.809 37.0013 118.546 37.0013 118.546C36.3342 119.346 35.8484 120.281 35.5776 121.287C35.2359 122.803 35.9833 124.134 37.0013 123.992C37.642 123.878 39.4858 118.354 39.7065 121.493C39.845 124.681 40.3223 127.846 41.1302 130.933C41.2133 131.365 41.4551 131.751 41.8081 132.014C42.1611 132.278 42.5998 132.4 43.0381 132.356L43.75 132.207C44.1712 132.064 44.5276 131.775 44.7547 131.393C44.9819 131.01 45.0648 130.559 44.9886 130.121C44.604 126.97 43.8882 123.868 42.853 120.867C41.8991 117.877 45.6364 122.233 46.2629 122.077C47.3022 121.821 47.4873 120.262 46.6117 119.001C45.9995 118.18 45.2084 117.508 44.2981 117.037C44.2981 117.037 45.5581 116.795 48.0497 118.774C49.5518 119.97 50.4488 117.079 49.025 115.528C47.6012 113.976 44.4832 113.762 44.4832 113.762C44.4832 113.762 45.551 112.716 47.7294 113.641C49.267 114.296 50.2494 115.001 50.4274 114.075C50.7833 112.296 49.1033 109.263 45.2947 108.964Z" fill="#4BBEA5" stroke="#502A73" stroke-width="0.57" stroke-linecap="round" stroke-linejoin="round"/>
<path d="M55.3748 141.532C55.868 139.863 55.9871 138.106 55.7236 136.385C55.5429 135.257 55.0187 134.212 54.2225 133.393C53.4263 132.574 52.3968 132.02 51.2743 131.808C51.6872 129.807 51.6801 128.248 50.3347 126.611C47.9926 123.799 43.5219 123.863 36.8943 126.611C30.8505 129.096 14.406 135.866 17.1752 149.576C18.7414 157.322 20.6919 163.529 23.3828 168.619C26.7572 175.026 32.8081 173.816 35.257 173.069C36.4364 172.419 37.4198 171.465 38.1045 170.306C40.4039 165.878 43.5077 156.432 46.4122 155.037C49.1064 153.673 51.9002 152.517 54.7697 151.577C57.8023 149.754 57.2257 144.501 55.268 141.831C55.1968 141.71 55.325 141.632 55.3748 141.532Z" fill="#BF792A" stroke="#502A73" stroke-width="0.57" stroke-linecap="round" stroke-linejoin="round"/>
<path d="M31.8688 152.381C31.8688 152.381 42.5968 142.536 55.2683 141.803C55.8583 140.061 56.0147 138.201 55.7239 136.385C55.5432 135.258 55.019 134.213 54.2228 133.394C53.4266 132.574 52.3971 132.021 51.2747 131.808C35.8695 134.421 29.3345 142.857 29.3345 142.857" fill="#BF792A"/>
<path d="M31.8688 152.381C31.8688 152.381 42.5968 142.536 55.2683 141.803C55.8583 140.061 56.0147 138.201 55.7239 136.385C55.5432 135.258 55.019 134.213 54.2228 133.394C53.4266 132.574 52.3971 132.021 51.2747 131.808C35.8695 134.421 29.3345 142.857 29.3345 142.857" stroke="#502A73" stroke-width="0.57" stroke-linecap="round" stroke-linejoin="round"/>
<path d="M34.8728 161.728L36.5671 160.504C39.7178 158.294 43.0063 156.287 46.4124 154.496C50.0572 152.744 52.0363 152.431 54.7699 151.548C56.7988 151.214 61.0629 161.038 51.4027 163.65C46.0565 165.074 37.3858 172.364 35.2572 173.012" fill="#BF792A"/>
<path d="M34.8728 161.728L36.5671 160.504C39.7178 158.294 43.0063 156.287 46.4124 154.496C50.0572 152.744 52.0363 152.431 54.7699 151.548C56.7988 151.214 61.0629 161.038 51.4027 163.65C46.0565 165.074 37.3858 172.364 35.2572 173.012" stroke="#502A73" stroke-width="0.57" stroke-linecap="round" stroke-linejoin="round"/>
<path d="M54.8157 168.443L40.2113 172.399C39.5622 172.575 39.178 173.242 39.3533 173.889C39.5286 174.536 40.197 174.919 40.8462 174.743L55.4506 170.787C56.0998 170.612 56.4839 169.944 56.3086 169.297C56.1333 168.65 55.4649 168.268 54.8157 168.443Z" fill="#4BBEA5" stroke="#502A73" stroke-width="0.566914" stroke-linecap="round" stroke-linejoin="round"/>
<path d="M69.6198 140.101L66.1814 122.745C66.1393 122.534 66.0561 122.333 65.9364 122.154C65.8166 121.975 65.6628 121.821 65.4837 121.702C65.3045 121.582 65.1036 121.499 64.8923 121.457C64.681 121.415 64.4635 121.415 64.2522 121.457C64.0409 121.499 63.84 121.582 63.6609 121.702C63.4818 121.822 63.3281 121.975 63.2084 122.155C63.0888 122.334 63.0056 122.535 62.9636 122.746C62.9216 122.957 62.9216 123.175 62.9637 123.386L66.4021 140.72C66.4871 141.147 66.738 141.523 67.0998 141.764C67.4616 142.006 67.9046 142.094 68.3313 142.009C68.758 141.924 69.1335 141.673 69.3751 141.311C69.6167 140.949 69.7047 140.506 69.6198 140.08V140.101Z" fill="#502A73" stroke="#502A73" stroke-width="0.57" stroke-linecap="round" stroke-linejoin="round"/>
<path d="M63.6753 118.538C64.1015 118.452 64.4763 118.201 64.7178 117.84C64.9592 117.478 65.0477 117.036 64.9638 116.609L64.1238 112.338C64.0388 111.911 63.7879 111.536 63.4261 111.294C63.0643 111.052 62.6213 110.964 62.1946 111.049C61.7679 111.134 61.3925 111.385 61.1508 111.747C60.9092 112.109 60.8211 112.552 60.9061 112.979L61.7461 117.25C61.7878 117.461 61.8708 117.663 61.9905 117.842C62.1101 118.021 62.2639 118.175 62.4431 118.295C62.6224 118.414 62.8235 118.498 63.0349 118.539C63.2464 118.581 63.464 118.581 63.6753 118.538Z" fill="#502A73" stroke="#502A73" stroke-width="0.57" stroke-linecap="round" stroke-linejoin="round"/>
<path d="M69.6198 140.101L66.1814 122.745C66.1393 122.534 66.0561 122.333 65.9364 122.154C65.8166 121.975 65.6628 121.821 65.4837 121.702C65.3045 121.582 65.1036 121.499 64.8923 121.457C64.681 121.415 64.4635 121.415 64.2522 121.457C64.0409 121.499 63.84 121.582 63.6609 121.702C63.4818 121.822 63.3281 121.975 63.2084 122.155C63.0888 122.334 63.0056 122.535 62.9636 122.746C62.9216 122.957 62.9216 123.175 62.9637 123.386L66.4021 140.72C66.4871 141.147 66.738 141.523 67.0998 141.764C67.4616 142.006 67.9046 142.094 68.3313 142.009C68.758 141.924 69.1335 141.673 69.3751 141.311C69.6167 140.949 69.7047 140.506 69.6198 140.08V140.101Z" stroke="#502A73" stroke-width="0.57" stroke-linecap="round" stroke-linejoin="round"/>
<path d="M63.6753 118.538C64.1015 118.452 64.4763 118.201 64.7178 117.84C64.9592 117.478 65.0477 117.036 64.9638 116.609L64.1238 112.338C64.0388 111.911 63.7879 111.536 63.4261 111.294C63.0643 111.052 62.6213 110.964 62.1946 111.049C61.7679 111.134 61.3925 111.385 61.1508 111.747C60.9092 112.109 60.8211 112.552 60.9061 112.979L61.7461 117.25C61.7878 117.461 61.8708 117.663 61.9905 117.842C62.1101 118.021 62.2639 118.175 62.4431 118.295C62.6224 118.414 62.8235 118.498 63.0349 118.539C63.2464 118.581 63.464 118.581 63.6753 118.538Z" stroke="#502A73" stroke-width="0.57" stroke-linecap="round" stroke-linejoin="round"/>
</svg>
