<svg width="28" height="27" viewBox="0 0 28 27" fill="none" xmlns="http://www.w3.org/2000/svg">
<path d="M7.58133 23.056C8.29867 23.056 8.87333 23.16 9.352 23.3773C9.76933 23.572 10.18 23.8173 10.6067 24.064C11.5627 24.632 12.5627 25.2147 13.684 25.2147C14.8107 25.2147 15.812 24.624 16.776 24.064C17.1867 23.8173 17.6053 23.572 18.0227 23.3773C18.4933 23.16 19.076 23.056 19.7933 23.056C20.1587 23.056 20.5173 23.0853 20.8387 23.108C21.0933 23.1227 21.324 23.1453 21.5187 23.1453C21.7427 23.1453 21.8627 23.116 21.9147 23.0933C22.176 22.9813 22.22 22.496 22.2507 22.108C22.28 21.764 22.3107 21.4947 22.46 21.3387C22.5787 21.2187 22.8787 21.1587 23.4987 21.0467C24.2293 20.912 25.5813 20.6587 25.5813 20.248C25.544 20.18 25.224 20.076 24.9693 19.9933C23.796 19.62 21.3693 18.8507 20.3387 15.0413C20.196 14.504 20.4733 13.944 20.988 13.7267L22.7133 13.032C23.0427 12.92 23.2213 12.592 23.1467 12.2627C23.1027 12.0613 22.916 11.912 22.6987 11.912L21.4587 12.196H21.392C20.6747 12.196 20.264 11.792 20.2267 11.2773C20.1813 10.5533 20.152 9.76134 20.152 8.90933C20.144 5.392 17.1787 2.42667 13.676 2.42667C10.1213 2.42667 7.22267 5.332 7.22267 8.90933C7.21467 9.768 7.19333 10.5533 7.14133 11.2773C7.11067 11.808 6.67067 12.2187 6.14 12.2187C6.14 12.2187 4.75867 11.92 4.74267 11.92C4.444 11.92 4.26533 12.0693 4.228 12.2627C4.15333 12.592 4.332 12.92 4.64533 13.032L6.38667 13.7267C6.90133 13.944 7.17867 14.504 7.036 15.0413C6.00533 18.8507 3.57733 19.62 2.40533 19.9933C2.152 20.076 1.82267 20.18 1.79333 20.2547C1.79333 20.6587 3.14533 20.912 3.876 21.0467C4.48933 21.1587 4.796 21.2187 4.91467 21.3387C5.064 21.4947 5.08667 21.764 5.124 22.108C5.15333 22.496 5.19867 22.9813 5.46 23.0933C5.54267 23.1227 5.66933 23.1453 5.848 23.1453C6.05067 23.1453 6.28133 23.1227 6.536 23.108C6.85733 23.0853 7.21467 23.056 7.58133 23.056ZM13.684 27C12.0773 27 10.816 26.268 9.71067 25.6173C9.31467 25.3787 8.94133 25.1627 8.604 25.0053C8.37333 24.9013 8.03733 24.848 7.58133 24.848C7.27467 24.848 6.96933 24.8707 6.67067 24.8933C6.37867 24.916 6.10933 24.9307 5.848 24.9307C5.58 24.9307 5.16933 24.916 4.76533 24.744C4.332 24.5653 3.76533 24.1613 3.496 23.2573C3.436 23.056 3.39867 22.8467 3.376 22.652C3.30933 22.66 3.24933 22.66 3.17467 22.66C2.79333 22.66 2.29333 22.556 1.84533 22.4067C1.44933 22.264 1.12133 22.1 0.852 21.8907C0.298667 21.472 0 20.8893 0 20.248C0 19.912 0.105333 19.068 1.09867 18.5747C1.32933 18.4627 1.576 18.38 1.868 18.2907C2.92133 17.9467 4.36267 17.492 5.176 15.004L4.01067 14.7053C2.876 14.28 2.21067 13.0627 2.472 11.8747C2.584 11.3747 2.876 10.9187 3.28667 10.5973C3.68267 10.292 4.176 10.12 4.676 10.12C4.848 10.12 5.02 10.1413 5.184 10.1787L5.60933 10.276C5.41467 9.948 5.43067 9.44 5.43067 8.90933C5.43067 7.79733 5.64667 6.72133 6.088 5.69733C6.50533 4.712 7.104 3.83067 7.85733 3.076C8.604 2.32134 9.48667 1.71733 10.472 1.29867C11.488 0.857334 12.5627 0.633335 13.676 0.633335C14.7813 0.633335 15.8573 0.857334 16.88 1.29867C17.8587 1.70933 18.74 2.30667 19.5027 3.076C20.264 3.83067 20.8613 4.712 21.28 5.69733C21.72 6.72133 21.944 7.804 21.944 8.90933C21.944 9.44 21.952 9.948 21.9747 10.4413L22.1907 10.1787C22.3547 10.1413 22.5267 10.12 22.6987 10.12C23.1987 10.12 23.692 10.292 24.088 10.5973C24.4987 10.9187 24.7893 11.3747 24.8947 11.8827C25.164 13.0693 24.4987 14.2867 23.356 14.7053L22.0933 15.2213C23.0053 17.492 24.4547 17.9467 25.5067 18.2907C25.7907 18.38 26.0373 18.4627 26.276 18.5747C27.2627 19.068 27.3747 19.912 27.3747 20.248C27.3747 20.8893 27.076 21.472 26.5227 21.8907C26.2547 22.1 25.9333 22.264 25.5227 22.4067C24.992 22.5933 24.372 22.7053 23.856 22.8027C23.968 22.8467 23.9387 23.056 23.872 23.2653C23.6027 24.1613 23.0347 24.5653 22.6093 24.744C22.2053 24.916 21.7947 24.9307 21.5187 24.9307C21.2653 24.9307 20.988 24.916 20.704 24.8933C20.4053 24.8707 20.092 24.848 19.7933 24.848C19.3373 24.848 19.0013 24.9013 18.7693 25.0053C18.4413 25.1627 18.0907 25.364 17.724 25.58C16.552 26.268 15.2893 27 13.684 27Z" fill="#9B945F"/>
</svg>
