<svg width="54" height="54" viewBox="0 0 54 54" fill="none" xmlns="http://www.w3.org/2000/svg">
<circle cx="27" cy="27" r="27" fill="#F3F3F3"/>
<path d="M29.1204 20.6935C28.5023 20.5241 27.8606 20.4382 27.213 20.4382C23.2431 20.4382 20.0133 23.6679 20.0133 27.6379C20.0133 31.6078 23.2431 34.8376 27.213 34.8376C31.183 34.8376 34.4128 31.6078 34.4128 27.6379C34.4128 26.9904 34.3269 26.3486 34.1574 25.7305C34.041 25.3059 34.2909 24.8673 34.7156 24.7509C35.14 24.6345 35.5788 24.8844 35.6952 25.309C35.9022 26.0645 36.0073 26.848 36.0073 27.6379C36.0073 32.487 32.0622 36.4321 27.213 36.4321C22.3639 36.4321 18.4188 32.487 18.4188 27.6379C18.4188 22.7887 22.3639 18.8437 27.213 18.8437C28.003 18.8437 28.7865 18.9486 29.5419 19.1557C29.896 19.2528 30.1286 19.574 30.1286 19.9243C30.1286 19.994 30.1193 20.0648 30.1 20.1353C29.9837 20.56 29.5451 20.81 29.1204 20.6935ZM38.4552 23.4742C38.033 23.5993 37.792 24.0428 37.917 24.465C38.2206 25.4905 38.3745 26.5579 38.3745 27.6379C38.3745 33.7923 33.3675 38.7994 27.213 38.7994C21.0586 38.7994 16.0515 33.7923 16.0515 27.6379C16.0515 21.4834 21.0586 16.4764 27.213 16.4764C28.293 16.4764 29.3605 16.6303 30.3857 16.9338C30.808 17.0589 31.2515 16.8178 31.3765 16.3957C31.3989 16.3202 31.4095 16.2441 31.4095 16.1692C31.4096 15.8252 31.1851 15.5076 30.8384 15.4049C29.666 15.0578 28.4463 14.8819 27.213 14.8819C23.8058 14.8819 20.6024 16.2087 18.1931 18.618C15.7839 21.0273 14.457 24.2306 14.457 27.6379C14.457 31.0451 15.7839 34.2485 18.1931 36.6578C20.6024 39.0671 23.8058 40.3939 27.213 40.3939C30.6203 40.3939 33.8236 39.067 36.2329 36.6578C38.6422 34.2485 39.9691 31.0451 39.9691 27.6379C39.9691 26.4047 39.7931 25.1849 39.446 24.0124C39.321 23.5902 38.8773 23.3494 38.4552 23.4742ZM27.213 24.4489C27.3303 24.4489 27.4487 24.4553 27.565 24.4681C28.0029 24.5163 28.3965 24.2002 28.4444 23.7626C28.4924 23.3249 28.1766 22.9312 27.7389 22.8832C27.565 22.864 27.3881 22.8544 27.213 22.8544C24.5754 22.8544 22.4295 25.0002 22.4295 27.6379C22.4295 30.2755 24.5754 32.4214 27.213 32.4214C29.8507 32.4214 31.9965 30.2755 31.9965 27.6379C31.9965 27.1975 31.6396 26.8406 31.1993 26.8406C30.759 26.8406 30.402 27.1975 30.402 27.6379C30.402 29.3963 28.9715 30.8269 27.213 30.8269C25.4546 30.8269 24.024 29.3963 24.024 27.6379C24.024 25.8794 25.4546 24.4489 27.213 24.4489ZM31.2837 22.4398L31.6808 18.4562C31.6991 18.273 31.7802 18.1018 31.9104 17.9716L34.7667 15.1154C34.9867 14.8954 35.3145 14.8235 35.6064 14.9311C35.8983 15.0388 36.1009 15.3065 36.1253 15.6167L36.3517 18.4992L39.2342 18.7257C39.5444 18.75 39.8121 18.9526 39.9198 19.2445C40.0274 19.5364 39.9555 19.8642 39.7356 20.0842L36.8793 22.9404C36.7492 23.0706 36.5779 23.1517 36.3947 23.17L32.4112 23.5673L27.7768 28.2016C27.6211 28.3573 27.4171 28.4351 27.213 28.4351C27.0089 28.4351 26.805 28.3573 26.6493 28.2016C26.338 27.8903 26.338 27.3854 26.6493 27.0741L31.2837 22.4398ZM32.9387 21.9123L35.9531 21.6117L37.3849 20.1798L35.5478 20.0355C35.1568 20.0048 34.8462 19.6942 34.8155 19.3032L34.6712 17.466L33.2393 18.8978L32.9387 21.9123Z" fill="#EEC718"/>
</svg>
