<svg width="127" height="127" viewBox="0 0 127 127" fill="none" xmlns="http://www.w3.org/2000/svg">
<circle cx="63.5" cy="63.5" r="63.5" fill="#F3F3F3"/>
<path d="M68.4861 48.6681C67.0324 48.2697 65.5231 48.0676 64.0002 48.0676C54.6635 48.0676 47.0676 55.6636 47.0676 65.0003C47.0676 74.3371 54.6635 81.933 64.0002 81.933C73.337 81.933 80.9329 74.3371 80.9329 65.0003C80.9329 63.4774 80.7309 61.9682 80.3324 60.5145C80.0587 59.5158 80.6464 58.4843 81.6451 58.2105C82.6432 57.9369 83.6752 58.5245 83.949 59.5232C84.4359 61.2998 84.6829 63.1426 84.6829 65.0003C84.6829 76.4047 75.4047 85.683 64.0002 85.683C52.5958 85.683 43.3175 76.4047 43.3175 65.0003C43.3175 53.5959 52.5958 44.3176 64.0002 44.3176C65.858 44.3176 67.7007 44.5645 69.4774 45.0516C70.3103 45.2798 70.8573 46.0352 70.8572 46.8591C70.8572 47.023 70.8354 47.1897 70.79 47.3555C70.5164 48.3542 69.485 48.9422 68.4861 48.6681ZM90.4401 55.208C89.4471 55.5021 88.8804 56.5452 89.1744 57.5382C89.8885 59.95 90.2505 62.4605 90.2505 65.0003C90.2505 79.4747 78.4747 91.2505 64.0002 91.2505C49.5258 91.2505 37.75 79.4747 37.75 65.0003C37.75 50.5259 49.5258 38.7501 64.0002 38.7501C66.5402 38.7501 69.0507 39.1121 71.462 39.826C72.455 40.1201 73.4981 39.5532 73.7922 38.5604C73.8447 38.3828 73.8697 38.2039 73.8697 38.0277C73.87 37.2186 73.342 36.4717 72.5265 36.2302C69.7693 35.4139 66.9008 35.0001 64.0002 35.0001C55.9869 35.0001 48.4531 38.1207 42.7868 43.7869C37.1206 49.4533 34 56.987 34 65.0003C34 73.0137 37.1206 80.5475 42.7868 86.2138C48.453 91.8801 55.9869 95.0005 64.0002 95.0005C72.0136 95.0005 79.5473 91.8799 85.2137 86.2138C90.8799 80.5475 94.0005 73.0137 94.0005 65.0003C94.0005 62.1 93.5866 59.2312 92.7702 56.4737C92.4763 55.4807 91.4329 54.9145 90.4401 55.208ZM64.0002 57.5002C64.276 57.5002 64.5544 57.5155 64.8279 57.5455C65.8578 57.6588 66.7835 56.9155 66.8962 55.8862C67.0092 54.8568 66.2663 53.9308 65.2369 53.818C64.8279 53.773 64.412 53.7502 64.0002 53.7502C57.7969 53.7502 52.7502 58.7969 52.7502 65.0003C52.7502 71.2037 57.7969 76.2504 64.0002 76.2504C70.2036 76.2504 75.2503 71.2037 75.2503 65.0003C75.2503 63.9647 74.4109 63.1253 73.3753 63.1253C72.3397 63.1253 71.5003 63.9647 71.5003 65.0003C71.5003 69.1359 68.1358 72.5004 64.0002 72.5004C59.8647 72.5004 56.5002 69.1359 56.5002 65.0003C56.5002 60.8647 59.8647 57.5002 64.0002 57.5002ZM73.5738 52.7753L74.5078 43.4065C74.5507 42.9754 74.7415 42.5728 75.0477 42.2666L81.7653 35.5492C82.2828 35.0318 83.0537 34.8627 83.7403 35.116C84.4267 35.3692 84.9031 35.9987 84.9605 36.7282L85.4931 43.5076L92.2723 44.0401C93.0018 44.0974 93.6313 44.5739 93.8846 45.2603C94.1378 45.9468 93.9687 46.7179 93.4513 47.2352L86.7339 53.9526C86.4278 54.2588 86.025 54.4496 85.5941 54.4925L76.2255 55.427L65.3261 66.3262C64.9599 66.6923 64.4801 66.8753 64.0002 66.8753C63.5202 66.8753 63.0406 66.6923 62.6745 66.3261C61.9422 65.5939 61.9422 64.4066 62.6745 63.6744L73.5738 52.7753ZM77.4661 51.5347L84.5556 50.8275L87.923 47.4601L83.6025 47.1207C82.6828 47.0484 81.9523 46.3179 81.88 45.3983L81.5407 41.0775L78.173 44.445L77.4661 51.5347Z" fill="#EEC718"/>
</svg>
