<svg width="322" height="100" viewBox="0 0 322 100" fill="none" xmlns="http://www.w3.org/2000/svg">
<g clip-path="url(#clip0_34_803)">
<path d="M35.6641 29.2716C36.2745 20.7189 40.8861 13.6147 47.1275 10.9883C46.5723 9.65126 46.2899 8.2152 46.2974 6.7658C46.3008 6.2803 46.3344 5.79546 46.3981 5.31421C39.0214 8.58644 33.6345 17.6866 33.3477 28.5028C33.6925 28.6074 34.0466 28.7181 34.3945 28.8319C34.8187 28.9703 35.2369 29.1148 35.658 29.2716" fill="#2B2523"/>
<path d="M71.5833 28.509C71.3025 17.6805 65.9279 8.58957 58.542 5.30811C58.6025 5.78966 58.6351 6.27433 58.6397 6.7597C58.6469 8.21086 58.3689 9.64909 57.8218 10.9915C64.0601 13.6179 68.6778 20.7128 69.279 29.2686C69.6972 29.1118 70.1183 28.9611 70.5487 28.8258C70.8905 28.715 71.2415 28.6105 71.5833 28.5182" fill="#2B2523"/>
<path d="M52.4656 13.5318C54.9682 13.5318 56.9917 10.5087 56.9917 6.7659C56.9917 3.02313 54.9682 0 52.4656 0C49.9629 0 47.9395 3.02313 47.9395 6.7659C47.9395 10.5087 49.9721 13.5318 52.4656 13.5318Z" fill="#2B2523"/>
<path d="M95.4988 46.5985C94.9556 53.3398 89.7519 59.915 81.957 63.1627C82.2317 63.5194 82.5033 63.8792 82.7811 64.2452C82.9856 64.5528 83.19 64.8388 83.3915 65.1432C93.4235 61.4958 100.269 53.5828 101.075 45.5344C100.638 45.7423 100.188 45.922 99.7289 46.0726C98.3656 46.5301 96.9254 46.7089 95.4927 46.5985" fill="#0083C6"/>
<path d="M71.562 30.9631C79.7658 28.9764 87.8109 31.2153 92.1875 36.3482C93.2809 35.4038 94.5527 34.6925 95.9263 34.2569C96.3865 34.1075 96.8554 33.9863 97.3302 33.894C91.9892 27.8723 81.8229 25.5258 71.5864 28.5089C71.5864 28.8165 71.6017 29.1056 71.6017 29.41C71.6017 29.9267 71.5864 30.4464 71.562 30.9631Z" fill="#0083C6"/>
<path d="M69.3403 31.609C69.4227 31.5844 69.4868 31.5568 69.557 31.5322C70.2346 31.3138 70.8938 31.1262 71.5622 30.9601C71.5897 30.4496 71.608 29.933 71.608 29.4224C71.608 29.1149 71.608 28.8258 71.5897 28.5244C71.2479 28.6259 70.8938 28.7274 70.552 28.832C70.1217 28.9703 69.7035 29.118 69.2793 29.2748C69.3251 29.9145 69.3464 30.5419 69.3464 31.2C69.3464 31.3384 69.3464 31.4768 69.3464 31.6152" fill="#2B2523"/>
<path d="M104.219 38.0736C103.447 35.6809 99.9612 34.6691 96.4391 35.8285C92.9171 36.9879 90.6769 39.8634 91.4582 42.2561C92.2396 44.6488 95.7097 45.6606 99.2348 44.5104C102.76 43.3602 104.994 40.4755 104.219 38.0736Z" fill="#0083C6"/>
<path d="M81.0751 65.8968C85.4822 73.1363 85.8606 81.5353 82.3569 87.3171C83.5857 88.0762 84.6548 89.071 85.5036 90.2448C85.7795 90.6403 86.0332 91.051 86.2635 91.475C90.2983 84.4938 89.3857 74.0282 83.3977 65.1372L82.36 65.5063C81.9327 65.6446 81.5024 65.7738 81.0659 65.8968" fill="#F4C40E"/>
<path d="M52.3926 87.6892C58.9422 96.245 68.5683 100.394 76.4486 98.6745C76.1147 98.3205 75.8009 97.9478 75.5085 97.5581C74.6605 96.3879 74.0497 95.0607 73.7109 93.6524C67.1491 95.2178 59.3023 92.2346 53.8209 85.7117C53.6012 86.0469 53.3601 86.3852 53.1159 86.7235C52.8717 87.0618 52.6398 87.3724 52.3926 87.6892Z" fill="#F4C40E"/>
<path d="M76.5612 88.4333C74.5347 89.9095 74.6598 93.5631 76.8328 96.5893C79.0059 99.6155 82.4241 100.858 84.4629 99.3818C86.5016 97.9056 86.3673 94.2397 84.1851 91.2227C82.0029 88.2057 78.5999 86.9448 76.5765 88.4333" fill="#F4C40E"/>
<path d="M21.4356 65.1064C15.5452 73.9636 14.6632 84.3493 18.6705 91.2905C18.9007 90.863 19.1597 90.452 19.4457 90.0603C20.2802 88.8836 21.3409 87.8879 22.5649 87.1325C19.113 81.3846 19.4549 73.0718 23.7613 65.8661C23.3675 65.7523 22.9708 65.6323 22.5649 65.4939C22.1589 65.3555 21.811 65.2448 21.4356 65.1064Z" fill="#009E3D"/>
<path d="M50.976 85.6872C45.4977 92.0871 37.7364 95.0087 31.2264 93.4526C30.8934 94.866 30.2775 96.1961 29.4166 97.3614C29.1359 97.7542 28.83 98.1282 28.501 98.4809C36.3141 100.185 45.8578 96.1066 52.3952 87.6892C52.206 87.4309 52.0076 87.1695 51.8245 86.9142C51.5193 86.5052 51.2446 86.0993 50.9791 85.6841" fill="#009E3D"/>
<path d="M28.3789 88.2397C26.3524 86.7604 22.9433 88.0059 20.7641 91.0291C18.585 94.0522 18.466 97.6996 20.4895 99.1881C22.5129 100.677 25.9159 99.4127 28.0951 96.3957C30.2742 93.3787 30.4024 89.719 28.3789 88.2397Z" fill="#009E3D"/>
<path d="M33.3541 28.5029C23.1146 25.5259 12.9544 27.8725 7.61035 33.8972C8.0833 33.9889 8.55015 34.1101 9.00817 34.2601C10.3808 34.6999 11.6543 35.4073 12.7561 36.3421C17.1204 31.2093 25.1747 28.9796 33.3816 30.9663C33.3541 30.4466 33.3388 29.9299 33.3388 29.4009C33.3388 29.0934 33.3388 28.8074 33.3541 28.5029Z" fill="#DF0826"/>
<path d="M22.867 63.1136C15.1423 59.8475 9.9844 53.3061 9.43809 46.6017C7.51516 46.7384 5.59029 46.3641 3.85596 45.5161C4.65864 53.546 11.4585 61.4344 21.4356 65.088C21.6675 64.7436 21.9147 64.3868 22.165 64.0424C22.4153 63.6979 22.6381 63.4119 22.867 63.1013" fill="#DF0826"/>
<path d="M35.5878 31.6091C35.5878 31.4707 35.5878 31.3323 35.5878 31.1939C35.5878 30.5358 35.6153 29.8992 35.6672 29.2687C35.246 29.1119 34.8279 28.9612 34.3975 28.8259C34.0496 28.7121 33.7017 28.6013 33.3599 28.5183C33.3599 28.8259 33.3599 29.1119 33.3599 29.4163C33.3599 29.9422 33.3599 30.4589 33.3995 30.954C34.0649 31.1201 34.7272 31.3077 35.4078 31.5261L35.6123 31.6029" fill="#2B2523"/>
<path d="M13.4853 42.2562C14.2574 39.8635 12.0325 36.9757 8.50438 35.8194C4.97625 34.663 1.5 35.6748 0.718683 38.0736C-0.0626329 40.4725 2.18365 43.3633 5.70873 44.5105C9.23381 45.6576 12.7131 44.6489 13.4853 42.2562Z" fill="#DF0826"/>
<path d="M90.0327 42.7143C87.643 35.2841 78.1909 31.6889 68.9738 34.7182C68.0663 35.0104 67.1801 35.366 66.3216 35.7823C66.4626 34.7746 66.534 33.7583 66.5352 32.7407C66.5352 22.9794 60.2237 15.0264 52.4624 15.0264C44.7011 15.0264 38.4109 22.9732 38.4109 32.7346C38.4107 33.7526 38.4851 34.7692 38.6337 35.7762C37.7739 35.363 36.8879 35.0075 35.9815 34.7121C26.7553 31.6889 17.3154 35.2841 14.9226 42.7266C12.5298 50.1691 18.0692 58.6603 27.2924 61.6742C28.1334 61.9553 28.9919 62.1803 29.8622 62.3477C29.2778 62.9906 28.7287 63.6651 28.2172 64.3682C22.4916 72.272 22.9738 82.4209 29.2549 87.034C35.5359 91.6471 45.2688 88.9346 50.97 81.0369C51.5015 80.3026 51.9867 79.5353 52.4227 78.7396C52.8915 79.6033 53.4123 80.4373 53.9823 81.2368C59.6774 89.1314 69.4163 91.8193 75.6913 87.2247C81.9662 82.63 82.4362 72.4627 76.7381 64.5681C76.1879 63.7988 75.5873 63.0673 74.9405 62.3784C75.8708 62.2088 76.7885 61.9756 77.6873 61.6803C86.9105 58.6664 92.4499 50.1629 90.0541 42.7204M74.6841 62.0955C74.5407 62.1232 74.4125 62.1478 74.2782 62.1662C74.3759 62.2677 74.4644 62.3631 74.5529 62.4738C75.2516 63.1982 75.8992 63.971 76.4909 64.7865C82.0731 72.5365 81.6336 82.4824 75.5112 86.9694C69.3889 91.4564 59.8544 88.8147 54.2722 81.0493C53.659 80.2083 53.1111 79.321 52.6333 78.3952C52.5662 78.2752 52.5021 78.1461 52.438 78.0354C52.3769 78.1461 52.3159 78.2752 52.2549 78.3859C51.7943 79.24 51.2773 80.062 50.7075 80.8463C45.1284 88.5963 35.5939 91.2504 29.4777 86.7664C23.3614 82.2825 22.8823 72.312 28.4644 64.5835C29.0091 63.831 29.5982 63.1121 30.2285 62.4307C30.3231 62.3262 30.4238 62.2308 30.5337 62.1232C30.3963 62.0986 30.2559 62.0801 30.1308 62.0555C29.2021 61.8774 28.2848 61.6433 27.384 61.3543C18.3287 58.3896 12.8839 50.0799 15.2156 42.8281C17.5473 35.5762 26.8133 32.0641 35.8625 35.035C36.8247 35.3512 37.764 35.7345 38.6734 36.1821C38.7894 36.2436 38.9145 36.3051 39.0427 36.3636C39.0152 36.2282 39 36.096 38.9725 35.9576C38.8185 34.8903 38.742 33.8131 38.7436 32.7346C38.7436 23.1608 44.8903 15.3585 52.4777 15.3585C60.065 15.3585 66.2117 23.1608 66.2117 32.7346C66.2113 33.8136 66.1297 34.891 65.9676 35.9576C65.9462 36.096 65.9279 36.2282 65.9157 36.3636L66.2728 36.1821C67.1839 35.7313 68.1265 35.3479 69.0928 35.035C78.1268 32.0703 87.3775 35.5701 89.7245 42.8188C92.0715 50.0676 86.6114 58.3896 77.5744 61.3543C76.6249 61.6641 75.655 61.9066 74.6719 62.0801" fill="#009E3D"/>
<path d="M82.775 64.2484C82.5095 63.8763 82.2348 63.5226 81.951 63.1689C81.3192 63.4273 80.663 63.6795 79.9946 63.8947C79.9214 63.9224 79.8512 63.9409 79.7749 63.9655L79.9214 64.1377C80.3334 64.7159 80.718 65.3033 81.0781 65.8907C81.5146 65.7707 81.9357 65.6416 82.3752 65.5032C82.714 65.3894 83.0589 65.2694 83.3946 65.1464C83.1932 64.8389 82.9795 64.5313 82.7842 64.2484" fill="#4D7341"/>
<path d="M52.5936 84.14C52.5234 84.0447 52.4655 83.9493 52.4014 83.854C52.3861 83.8888 52.3655 83.921 52.3403 83.9493C51.9069 84.5644 51.443 85.1272 50.9761 85.6869C51.2447 86.1021 51.5285 86.5081 51.8215 86.9171C52.0107 87.1754 52.1969 87.4368 52.3953 87.6952C52.6425 87.3876 52.8836 87.0586 53.1216 86.7172C53.3597 86.3758 53.5947 86.0529 53.8267 85.7177C53.3994 85.2072 52.9843 84.6874 52.6059 84.1431" fill="#348939"/>
<path d="M24.9454 63.8946C24.2342 63.6609 23.5384 63.4026 22.8669 63.1196C22.6289 63.4272 22.3878 63.7347 22.165 64.0607C21.9422 64.3867 21.6675 64.7588 21.4355 65.1063C21.814 65.2417 22.1894 65.3739 22.5678 65.5031C22.9463 65.6322 23.3583 65.7522 23.7612 65.866C24.1457 65.2171 24.5639 64.5774 25.0217 63.9469C25.0299 63.9411 25.0354 63.9323 25.0369 63.9223L24.9454 63.8946Z" fill="#663839"/>
<path d="M49.2671 46.8262C49.4014 47.4997 49.9088 48.0349 50.5703 48.2009V48.2593L51.3272 51.796H50.2712L51.3272 56.7444H50.2712L51.3272 61.7081H53.427L54.483 56.7444H53.427L54.483 51.796H53.427L54.1931 48.2009C54.8593 48.0422 55.3709 47.5038 55.4993 46.8262C57.5564 47.4566 60.0773 49.0558 61.405 53.0846C61.405 53.0846 64.0785 46.2049 58.9634 42.3207C58.131 41.702 57.2029 41.226 56.2165 40.9122C57.5381 40.5339 59.2686 40.5247 61.4752 41.4319C61.4752 41.4319 59.0122 36.4713 53.6742 37.8706C53.2207 37.9857 52.7859 38.166 52.3832 38.4057C51.9812 38.1689 51.5489 37.9889 51.0983 37.8706C45.7664 36.4743 43.2943 41.435 43.2943 41.435C45.507 40.5277 47.2375 40.537 48.5499 40.9152C47.5678 41.2258 46.6452 41.7021 45.8214 42.3238C40.6879 46.2049 43.3614 53.0877 43.3614 53.0877C44.6891 49.0589 47.2192 47.4597 49.261 46.8292" fill="#009E3D"/>
<path d="M71.3117 60.0413C71.153 60.0413 71.0278 60.0413 70.8996 60.0597C67.7636 60.1618 64.6584 60.718 61.6795 61.7112C59.6516 62.4003 57.7317 63.3779 55.9783 64.6144C55.2394 65.1432 54.5359 65.7205 53.8724 66.3428C53.7839 66.4381 53.7565 66.4812 53.8724 66.5857C55.0597 67.6806 56.2225 68.7785 57.3975 69.8856C57.5227 70.0056 57.5593 69.9533 57.6203 69.8334C57.7298 69.6029 57.8186 69.3631 57.8858 69.1168C57.9831 68.727 58.175 68.3676 58.4444 68.0711C58.8716 67.6076 59.4937 67.3788 60.1169 67.4561C60.7523 67.5856 61.2183 68.135 61.2461 68.7877C61.2468 69.4311 60.7997 69.9869 60.1749 70.1194C59.7325 70.202 59.2754 70.1154 58.893 69.8764C58.719 69.7811 58.658 69.7903 58.5695 69.9625C58.4105 70.2155 58.4302 70.5427 58.6183 70.7744C58.9617 71.1986 59.4058 71.5286 59.9093 71.734C60.1146 71.8813 60.3987 71.8393 60.5533 71.6386C60.974 71.2356 61.6033 71.1488 62.1159 71.4233C62.588 71.6468 62.8865 72.128 62.8789 72.6535C62.8718 73.1542 62.5529 73.5963 62.0824 73.7576C61.2475 74.038 60.3363 73.9728 59.5492 73.5761C58.8022 73.2395 58.1049 72.8007 57.4769 72.2722C57.3823 72.1953 57.3395 72.186 57.2541 72.2998C56.7292 73.0554 55.9563 73.6 55.0719 73.8375C54.4989 74.004 53.8812 73.8675 53.4299 73.4746C53.1254 73.2482 52.9346 72.8988 52.9076 72.5185C52.8805 72.1381 53.0201 71.7649 53.2895 71.4972C53.848 70.8821 54.5866 70.9436 55.194 71.3157C55.4284 71.4489 55.5607 71.7107 55.5297 71.98C55.5297 72.266 55.5877 72.3091 55.8502 72.2137C56.045 72.1407 56.2117 72.0072 56.3263 71.8324C56.3873 71.7555 56.3537 71.6971 56.3263 71.6171C56.0165 71.0701 55.6277 70.5726 55.1726 70.1409C54.5195 69.5074 53.787 68.9845 53.0942 68.4033C52.8989 68.2311 52.6913 68.065 52.5051 67.8836C52.4319 67.8251 52.4014 67.8159 52.322 67.8836C51.5712 68.5847 50.7624 69.1875 49.9994 69.8703C49.4386 70.3597 48.9403 70.9175 48.5162 71.531C48.4616 71.5933 48.4344 71.6752 48.4407 71.758C48.4471 71.8409 48.4864 71.9176 48.5497 71.9708C48.6736 72.0997 48.8313 72.1904 49.0045 72.2322C49.0668 72.2551 49.1358 72.25 49.1941 72.2182C49.2524 72.1865 49.2945 72.1311 49.3097 72.0661C49.3494 71.9369 49.3707 71.8078 49.4104 71.6786C49.4588 71.4401 49.6355 71.2489 49.8682 71.1835C50.0307 71.1367 50.1958 71.0997 50.3626 71.0728C51.1409 70.959 51.6384 71.4633 51.8398 72.0938C52.0371 72.7222 51.7333 73.3994 51.1348 73.6653C50.544 73.9539 49.8567 73.9641 49.2578 73.693C48.5635 73.4092 47.9723 72.9175 47.5639 72.2845C47.4998 72.1707 47.4571 72.1799 47.3594 72.2568C46.7392 72.7643 46.0633 73.1987 45.3451 73.5515C44.6826 73.8807 43.9457 74.0282 43.2087 73.979C42.6161 73.9146 42.1349 73.4674 42.0231 72.8775C41.9113 72.2875 42.1953 71.6932 42.7226 71.4133C43.25 71.1334 43.897 71.2336 44.3166 71.6602C44.4399 71.8297 44.6738 71.8717 44.8476 71.7555C45.393 71.5499 45.8714 71.1966 46.2302 70.7345C46.4164 70.4998 46.4164 70.1665 46.2302 69.9318C46.198 69.8713 46.1429 69.8264 46.0774 69.8073C46.012 69.7882 45.9416 69.7965 45.8823 69.8303C45.6997 69.9137 45.5122 69.9856 45.3207 70.0456C44.5211 70.3131 43.9961 69.9595 43.697 69.2244C43.4786 68.713 43.6216 68.1177 44.048 67.7636C44.4351 67.3897 45.0086 67.2899 45.4977 67.5114C45.5496 67.5299 45.5984 67.5576 45.6534 67.5822C46.2768 67.8236 46.7484 68.3503 46.923 68.9999C46.9893 69.2995 47.0918 69.5897 47.2282 69.8641C47.2679 69.9502 47.3045 69.9656 47.39 69.8887C48.5864 68.7662 49.7705 67.6529 50.9822 66.5365C51.0768 66.4504 51.0341 66.4074 50.9639 66.3459C50.0972 65.5183 49.155 64.7748 48.1499 64.1254C45.5979 62.5112 42.7772 61.3756 39.824 60.7732C38.1545 60.4169 36.4611 60.1856 34.7577 60.0812C34.4097 60.0566 34.0527 60.0474 33.7017 60.032C33.633 60.0444 33.5624 60.0277 33.5063 59.9859C33.8634 59.9275 34.19 59.866 34.5349 59.8137C36.0402 59.6032 37.5632 59.5506 39.0793 59.6568C40.5092 59.7616 41.9281 59.9848 43.3216 60.3242C45.3718 60.8273 47.3343 61.6413 49.1418 62.7384C50.2498 63.4092 51.3234 64.1359 52.3586 64.9158C52.5112 65.0357 52.5662 64.9342 52.6638 64.8635C54.2733 63.4672 56.0846 62.3264 58.0354 61.4806C59.7647 60.7385 61.5796 60.2178 63.4375 59.9305C65.3364 59.6253 67.2651 59.553 69.1814 59.7153C69.8408 59.769 70.4969 59.8584 71.1469 59.9828C71.2072 59.9805 71.2661 60.0014 71.3117 60.0413Z" fill="#009E3D"/>
<path d="M149.428 47.7334C149.428 47.7334 151.897 50.5658 150.109 50.5658H147.13C145.089 50.5753 143.196 49.4984 142.149 47.7334C140.688 48.0019 139.206 48.146 137.721 48.1639C132.654 48.1639 127.844 45.6328 127.844 39.8388C127.844 33.405 133.292 31.1323 139.039 31.1323C140.79 31.1115 142.54 31.2143 144.276 31.4398V41.8655C144.276 45.556 145.384 47.7426 148.11 47.7426H149.428L149.428 47.7334ZM140.882 34.0047C139.999 33.8344 139.099 33.7632 138.2 33.7925C134.369 33.7925 131.388 35.7208 131.388 39.7527C131.388 43.8307 134.708 45.4176 138.157 45.4176C139.051 45.4176 140.031 45.3315 140.882 45.2453L140.882 34.0047ZM133.762 25.8118C133.797 24.763 134.666 23.9394 135.707 23.9674C136.748 23.9954 137.572 24.8646 137.551 25.9138C137.531 26.963 136.674 27.7992 135.633 27.7862C135.122 27.7833 134.634 27.5714 134.282 27.1992C133.929 26.8269 133.741 26.3261 133.762 25.8118C138.995 25.2872 139.201 24.7835 139.569 24.4128C139.938 24.0421 140.438 23.835 140.959 23.8374C142.041 23.8493 142.909 24.7429 142.897 25.8334C142.885 26.9238 141.998 27.7981 140.916 27.7863C140.4 27.7864 139.906 27.577 139.545 27.2054C139.185 26.8339 138.988 26.3315 138.999 25.8118" fill="#333333"/>
<path d="M149.001 47.7335H152.053V40.5709L155.41 39.3407L154.693 47.1769C156.015 39.5837 161.761 31.3016 170.744 31.3016C175.767 31.3016 180.876 34.3493 180.876 40.0542C180.876 45.0302 176.832 50.566 169.977 50.566H150.237L149.001 47.7335ZM170.713 34.091C163.306 34.091 158.505 40.2418 156.674 47.7335H169.797C173.83 47.7786 177.168 44.5876 177.336 40.5278C177.336 38.6826 176.271 34.091 170.734 34.091L170.713 34.091ZM168.628 26.67C167.55 26.6112 166.712 25.7007 166.735 24.6124C166.758 23.5241 167.634 22.6505 168.714 22.6382C169.231 22.6433 169.724 22.8613 170.078 23.2418C170.432 23.6222 170.616 24.1319 170.588 24.6526C170.608 25.1786 170.415 25.6903 170.054 26.0705C169.692 26.4508 169.194 26.6671 168.671 26.67H168.628Z" fill="#333333"/>
<path d="M194.598 47.7333C194.598 47.7333 197.067 50.5658 195.278 50.5658H192.51C189.999 50.5658 186.04 48.8927 186.04 42.2837V23.8312L189.489 22.6011V41.8562C189.489 45.5467 190.554 47.7333 193.319 47.7333H194.598Z" fill="#333333"/>
<path d="M194.299 58.7587C193.191 58.7587 192.425 57.8576 192.425 56.7412C192.415 56.2221 192.612 55.7205 192.972 55.3496C193.333 54.9787 193.827 54.7697 194.342 54.7699C194.855 54.764 195.348 54.9726 195.703 55.3461C196.058 55.7197 196.244 56.2247 196.216 56.7412C196.216 57.8576 195.493 58.7587 194.342 58.7587H194.299ZM193.994 47.7333C196.716 47.7333 198.081 45.5467 198.081 41.8562V32.2917L201.529 31.0923V42.2868C201.529 48.8958 197.824 50.5688 195.27 50.5688L193.994 47.7333ZM199.57 58.7587C198.462 58.7587 197.696 57.8576 197.696 56.7412C197.688 56.2153 197.892 55.7085 198.261 55.3369C198.63 54.9653 199.134 54.7606 199.655 54.7699C200.168 54.7649 200.661 54.9738 201.016 55.3471C201.37 55.7204 201.556 56.225 201.529 56.7412C201.556 57.2691 201.366 57.7849 201.003 58.1667C200.64 58.5486 200.137 58.7628 199.613 58.7587H199.57Z" fill="#333333"/>
<path d="M217.458 47.7334C217.458 47.7334 219.927 50.5658 218.141 50.5658C215.944 50.6345 213.849 49.6272 212.52 47.8625V49.2065C212.52 55.385 210.136 58.7403 204.432 58.9032L204.004 56.1569C207.243 55.8494 209.327 55.0405 209.113 47.921V36.2375L212.52 35.0073V43.4155C212.52 45.5191 214.479 47.7057 216.905 47.7487L217.458 47.7334Z" fill="#333333"/>
<path d="M216.862 47.7335C219.588 47.7335 220.949 45.5469 220.949 41.8564V23.8376L224.398 22.6074V42.29C224.398 48.8991 220.693 50.5721 218.138 50.5721L216.862 47.7335Z" fill="#333333"/>
<path d="M229.507 23.8374L232.956 22.595V50.5658H229.507V23.8374Z" fill="#333333"/>
<path d="M257.347 50.5659C252.281 50.5659 248.28 46.7893 248.28 40.74C248.28 34.3924 252.452 30.6158 257.646 30.6158C263.094 30.6158 266.757 34.6138 266.757 40.3986C266.757 47.4721 261.873 50.5659 257.39 50.5659H257.347ZM257.518 47.9488C260.796 47.9488 263.222 44.8734 263.222 40.5278C263.222 37.3078 261.648 33.2329 257.561 33.2329C253.557 33.2329 251.814 37.0095 251.814 40.6539C251.814 44.818 254.155 47.9488 257.476 47.9488H257.518ZM255.104 26.5839C253.996 26.5839 253.23 25.6828 253.23 24.5664C253.219 24.0473 253.417 23.5457 253.777 23.1748C254.138 22.8039 254.632 22.595 255.147 22.5951C255.657 22.598 256.144 22.8095 256.497 23.1811C256.85 23.5527 257.038 24.0526 257.018 24.5664C257.018 25.6828 256.252 26.5839 255.147 26.5839H255.104ZM258.461 24.5664C258.46 24.0434 258.666 23.5415 259.033 23.1716C259.4 22.8017 259.899 22.5943 260.418 22.5951C260.931 22.5892 261.424 22.7979 261.779 23.1714C262.134 23.5449 262.319 24.05 262.292 24.5664C262.292 25.6828 261.568 26.5839 260.375 26.5839C259.853 26.5801 259.355 26.3634 258.994 25.9833C258.634 25.6031 258.441 25.0919 258.461 24.5664Z" fill="#333333"/>
<path d="M269.226 56.1415C272.461 55.834 274.546 55.0252 274.335 47.9056V36.2375L277.738 35.0073V49.2065C277.738 55.385 275.355 58.7403 269.65 58.9032L269.226 56.1415Z" fill="#333333"/>
<path d="M282.847 23.8374L286.296 22.595V50.5658H282.847V23.8374Z" fill="#333333"/>
<path d="M288.981 56.1417C292.217 55.8341 294.301 55.0253 294.091 47.9057V36.2376L297.497 35.0075V49.2066C297.497 55.3851 295.11 58.7404 289.406 58.9034L288.981 56.1417ZM295.58 30.5297C294.472 30.5297 293.706 29.6286 293.706 28.5153C293.694 27.9956 293.891 27.4932 294.252 27.1217C294.613 26.7501 295.107 26.5407 295.623 26.5409C296.136 26.5358 296.629 26.7452 296.984 27.1192C297.339 27.4932 297.524 27.9985 297.497 28.5153C297.497 29.6286 296.77 30.5297 295.623 30.5297H295.58Z" fill="#333333"/>
<path d="M312.787 56.1416C316.108 55.6711 317.557 54.6408 317.768 50.5659C316.525 50.8423 315.253 50.9714 313.98 50.9503C308.182 50.9503 304.699 47.0477 304.699 41.3428C304.699 35.5918 308.056 31.0894 313.596 31.0894C319.77 31.0894 321.345 35.0351 321.345 40.0542V48.8991C321.345 55.0745 319.047 58.765 313.214 58.8941L312.787 56.1416ZM307.977 41.0414C308.02 46.3618 310.999 48.2471 314.447 48.2471C315.606 48.2645 316.763 48.15 317.896 47.9057V38.7687C317.896 36.5359 316.874 33.5405 313.3 33.5405C309.68 33.5405 307.849 36.9726 307.977 41.0475" fill="#333333"/>
<path d="M145.134 65.128C145.862 65.1698 146.544 65.5017 147.029 66.0507C147.522 66.5954 147.788 67.3098 147.774 68.0466V87.3417H145.973V68.0589C145.973 67.4274 145.63 67.0481 144.945 66.921C144.488 66.8363 144.081 67.1438 143.724 67.8436L140.122 85.6195C140.002 86.157 139.712 86.6405 139.295 86.9973C138.89 87.3617 138.364 87.5602 137.821 87.5539C137.266 87.5619 136.726 87.3736 136.295 87.0219C135.856 86.6736 135.561 86.1741 135.465 85.6195L131.891 67.8344C131.747 67.0922 131.34 66.7847 130.67 66.9118C130.224 66.9965 129.88 67.3758 129.639 68.0497V87.3417H127.835V68.0589C127.821 67.3226 128.086 66.6086 128.577 66.063C129.063 65.5157 129.744 65.1841 130.472 65.1403C131.985 64.94 133.388 65.9709 133.661 67.4838L137.211 85.2935C137.255 85.5896 137.527 85.7951 137.821 85.7548C138.098 85.7763 138.342 85.5718 138.371 85.2935L141.944 67.4838C142.221 65.9727 143.622 64.9433 145.134 65.1403" fill="#333333"/>
<path d="M152.208 68.0527H150.42V65.3218H152.218L152.208 68.0527ZM152.208 87.3356H150.42V70.879H152.218L152.208 87.3356Z" fill="#333333"/>
<path d="M161.371 70.5161C164.948 70.5693 167.832 73.486 167.871 77.0913V87.3417H166.095V77.0913C166.094 75.1623 164.939 73.4242 163.169 72.6882C161.4 71.9522 159.364 72.3634 158.013 73.7299C157.104 74.6053 156.599 75.8241 156.622 77.0913V87.3417H154.848V77.0913C154.815 75.3547 155.502 73.6827 156.744 72.4782C157.947 71.2032 159.624 70.493 161.371 70.5192" fill="#333333"/>
<path d="M172.309 68.0527H170.508V65.3218H172.309V68.0527ZM172.309 87.3356H170.508V70.879H172.309V87.3356Z" fill="#333333"/>
<path d="M179.576 70.5161C182.133 70.5585 184.198 72.6303 184.252 75.2061V76.3655H182.421V75.2061C182.431 74.4441 182.133 73.7108 181.594 73.1763C181.072 72.6237 180.345 72.3159 179.588 72.3275C178.838 72.3215 178.117 72.6183 177.586 73.1517C177.039 73.6518 176.729 74.3632 176.735 75.1077C176.674 76.2443 177.385 77.278 178.462 77.6203L181.365 78.7582C182.207 79.0791 182.928 79.6577 183.428 80.4127C183.934 81.1646 184.201 82.0538 184.194 82.9623C184.195 83.7688 183.984 84.5613 183.583 85.2596C182.784 86.7244 181.234 87.6114 179.576 87.5538C178.341 87.5604 177.154 87.0687 176.28 86.1883C175.406 85.3079 174.918 84.112 174.925 82.8669V81.7044H176.723V82.8669C176.712 83.6313 177.016 84.3659 177.562 84.8967C178.082 85.4432 178.803 85.7492 179.555 85.7424C180.304 85.7496 181.025 85.4539 181.557 84.9213C182.104 84.4198 182.414 83.7075 182.408 82.9623C182.408 81.769 181.833 80.9315 180.681 80.4496L177.779 79.2902C176.935 78.9636 176.211 78.3852 175.703 77.6326C175.201 76.8886 174.938 76.0072 174.949 75.1077C174.944 74.3015 175.155 73.5088 175.56 72.8134C176.358 71.3469 177.908 70.4584 179.567 70.5161" fill="#333333"/>
<path d="M188.375 65.3218V70.5161C188.354 70.6173 188.386 70.7222 188.458 70.7952C188.531 70.8682 188.635 70.8997 188.735 70.879H191.396V72.6905H188.735C188.497 72.6905 188.375 72.8042 188.375 73.0288V83.0115C188.366 83.6818 188.636 84.3252 189.12 84.786C189.586 85.2656 190.226 85.5322 190.893 85.5241H191.396V87.3417H190.893C189.749 87.3532 188.648 86.9022 187.837 86.0895C187.026 85.2768 186.572 84.1703 186.577 83.0177V65.3218H188.375Z" fill="#333333"/>
<path d="M200.534 72.3274H199.359C198.339 72.3148 197.358 72.7264 196.649 73.4653C195.927 74.176 195.529 75.1551 195.547 76.1716V87.3415H193.758V76.1778C193.735 74.6864 194.325 73.2517 195.388 72.2136C196.423 71.1232 197.859 70.5112 199.356 70.5221H200.531L200.534 72.3274Z" fill="#333333"/>
<path d="M210.801 92.9204H208.97L210.099 87.7475C210.116 87.6749 210.098 87.5983 210.05 87.5415C210.003 87.4858 209.928 87.463 209.858 87.483C209.766 87.489 209.674 87.5003 209.583 87.5169C209.476 87.5366 209.368 87.549 209.26 87.5538C208.48 87.5562 207.724 87.2831 207.123 86.7818C206.507 86.2981 206.076 85.6147 205.902 84.8474L202.915 70.8789H204.746L207.67 84.4599C207.831 85.2995 208.365 85.7178 209.278 85.7178C210.123 85.7178 210.661 85.2903 210.883 84.4353L213.884 70.8789H215.733L210.801 92.9204Z" fill="#333333"/>
<path d="M231.955 70.5161C236.629 70.5177 240.418 74.3368 240.418 79.0473C240.418 83.7578 236.629 87.5768 231.955 87.5785C227.28 87.5768 223.491 83.7578 223.491 79.0473C223.491 74.3368 227.28 70.5177 231.955 70.5161C228.77 72.335 226.035 74.6081 225.421 77.7566C224.807 80.9052 226.485 84.0523 229.43 85.2733C232.375 86.4944 235.766 85.4493 237.529 82.7772C239.292 80.1051 238.936 76.5503 236.679 74.2866C235.439 73.0057 233.73 72.2969 231.955 72.3275" fill="#333333"/>
<path d="M247.59 67.1578H247.087C246.421 67.1521 245.781 67.4141 245.309 67.8859C244.836 68.3576 244.57 69 244.569 69.6704V70.5161C244.548 70.6173 244.579 70.7222 244.652 70.7952C244.724 70.8682 244.828 70.8997 244.929 70.879H247.59V72.6659H244.929C244.828 72.6452 244.724 72.6767 244.652 72.7497C244.579 72.8227 244.548 72.9276 244.569 73.0287V87.3417H242.768V69.6704C242.781 67.2731 244.708 65.3335 247.087 65.3218H247.59V67.1578Z" fill="#333333"/>
<path d="M260.973 65.128C262.465 65.121 263.896 65.7222 264.941 66.7949C266.013 67.8287 266.611 69.264 266.595 70.7591V72.1122H264.809V70.7591C264.767 68.6456 263.071 66.9458 260.973 66.9148C258.866 66.9148 257.158 68.6359 257.158 70.7591C257.152 71.6061 257.399 72.4353 257.866 73.1394C258.325 73.8444 258.968 74.4084 259.725 74.7694L262.987 76.2702C265.186 77.2686 266.602 79.471 266.607 81.9013C266.536 84.9793 264.039 87.4371 260.984 87.4371C257.928 87.4371 255.432 84.9793 255.36 81.9013V80.5481H257.158V81.9013C257.146 82.9244 257.545 83.909 258.263 84.6324C258.981 85.3559 259.958 85.7572 260.973 85.7455C263.08 85.7372 264.789 84.0244 264.809 81.9013C264.817 81.0559 264.574 80.2273 264.114 79.5209C263.669 78.8192 263.033 78.2618 262.282 77.9155L258.974 76.4147C257.903 75.9163 256.996 75.1204 256.358 74.1205C255.708 73.1237 255.366 71.9549 255.376 70.7621C255.353 69.2707 255.942 67.836 257.005 66.7979C258.047 65.7114 259.489 65.108 260.988 65.1311" fill="#333333"/>
<path d="M277.402 70.516C282.077 70.5176 285.866 74.3367 285.866 79.0472C285.866 83.7576 282.077 87.5767 277.402 87.5783C274.875 87.5783 272.739 86.5799 270.993 84.5829C270.963 84.5183 270.898 84.4999 270.804 84.5337C270.766 84.5636 270.74 84.6061 270.731 84.6536V92.9203H268.954V78.9272C268.926 76.6924 269.821 74.5465 271.426 73.004C272.991 71.3796 275.153 70.4792 277.399 70.516C274.215 72.3349 271.479 74.608 270.865 77.7565C270.251 80.905 271.93 84.0521 274.875 85.2732C277.82 86.4942 281.21 85.4492 282.973 82.7771C284.736 80.105 284.381 76.5501 282.124 74.2864C280.884 73.0056 279.175 72.2968 277.399 72.3274" fill="#333333"/>
<path d="M296.661 70.5161C301.335 70.5177 305.124 74.3368 305.124 79.0473C305.124 83.7578 301.335 87.5768 296.661 87.5785C291.986 87.5768 288.197 83.7578 288.197 79.0473C288.197 74.3368 291.986 70.5177 296.661 70.5161C294.891 72.3193 293.192 73.0234 291.939 74.2834C290.687 75.5434 289.986 77.255 289.992 79.0381C289.975 80.8173 290.677 82.5271 291.936 83.7742C294.066 85.9389 297.374 86.3889 299.997 84.8707C302.62 83.3525 303.901 80.2461 303.119 77.3017C302.336 74.3574 299.686 72.3121 296.661 72.3183" fill="#333333"/>
<path d="M314.262 72.3274H313.093C312.072 72.3148 311.092 72.7264 310.382 73.4653C309.661 74.176 309.262 75.1551 309.281 76.1716V87.3415H307.483V76.1778C307.46 74.6864 308.05 73.2517 309.113 72.2136C310.148 71.1232 311.583 70.5112 313.08 70.5221H314.255L314.262 72.3274Z" fill="#333333"/>
<path d="M318.412 65.3218V70.5161C318.392 70.6173 318.423 70.7222 318.495 70.7952C318.568 70.8682 318.672 70.8997 318.772 70.879H321.434V72.6905H318.772C318.531 72.6905 318.412 72.8042 318.412 73.0288V83.0115C318.403 83.6814 318.671 84.3249 319.154 84.786C319.621 85.2663 320.263 85.533 320.93 85.5241H321.434V87.3417H320.93C319.786 87.3541 318.684 86.9034 317.872 86.0906C317.061 85.2778 316.606 84.1708 316.611 83.0177V65.3218H318.412Z" fill="#333333"/>
</g>
<defs>
<clipPath id="clip0_34_803">
<rect width="322" height="100" fill="white"/>
</clipPath>
</defs>
</svg>
