<?xml version="1.0" encoding="utf-8"?>
<!-- Generator: Adobe Illustrator 28.0.0, SVG Export Plug-In . SVG Version: 6.00 Build 0)  -->
<svg version="1.1" id="Layer_1" xmlns="http://www.w3.org/2000/svg" xmlns:xlink="http://www.w3.org/1999/xlink" x="0px" y="0px"
	 viewBox="0 0 841.9 595.3" style="enable-background:new 0 0 841.9 595.3;" xml:space="preserve">
<style type="text/css">
	.st0{fill:#414042;}
	.st1{fill:#FDC05B;}
	.st2{fill:#0B6E80;}
	.st3{fill:#00ACBC;}
	.st4{fill:#719A54;}
	.st5{fill:#003B4A;}
	.st6{opacity:0.91;}
	.st7{fill:#FFFFFF;}
</style>
<g>
	<g>
		<path class="st0" d="M420,383.8c-4.8-9.3-9.2-16.2-11.7-19.9c-2.5,3.7-6.9,10.6-11.7,19.9l-4.9-4.2c7.6-14.8,14.2-23.6,14.4-23.9
			l2.1-2.8l2.1,2.8c0.3,0.4,6.8,9.2,14.4,23.9L420,383.8z"/>
		<polygon class="st0" points="572,359 572,383.8 565.3,383.8 565.3,359 553.9,359 553.9,352.8 565.3,352.8 572,352.8 583.4,352.8 
			583.4,359 		"/>
		<path class="st0" d="M505.1,383.8c-8.7,0-15.9-7-15.9-15.5c0-8.6,7.2-15.5,15.9-15.5c4.4,0,8.3,1.8,12.2,5.5l-4.5,4.5
			c-2.8-2.7-5.1-3.7-7.7-3.7c-5.2,0-9.3,4.1-9.3,9.2c0,5.1,4.1,9.2,9.3,9.2c2.6,0,5-1.1,7.8-3.8l4.5,4.4
			C513.4,382,509.4,383.8,505.1,383.8"/>
		<rect x="532.7" y="352.8" class="st0" width="6.7" height="31"/>
		<polygon class="st0" points="616.5,352.8 607.7,370.9 598.9,352.8 591.5,352.8 604.2,378 598.7,388.7 605.8,388.7 623.8,352.8 		
			"/>
		<path class="st0" d="M226.7,383.8h-8.7v-6.4h8.7c5.4,0,9.6-3.8,9.6-9c0-5.3-4.3-9-9.6-9h-8.7v-6.4h8.7c9.1,0,16.6,6.6,16.6,15.5
			C243.3,377.1,235.8,383.8,226.7,383.8"/>
		<rect x="259.9" y="352.8" class="st0" width="6.7" height="31"/>
		<rect x="331.5" y="352.8" class="st0" width="6.7" height="31"/>
		<polygon class="st0" points="372.2,359 372.2,383.8 365.5,383.8 365.5,359 354.1,359 354.1,352.8 365.5,352.8 372.2,352.8 
			383.6,352.8 383.6,359 		"/>
		<polygon class="st0" points="437.1,383.8 437.1,352.8 443.7,352.8 443.7,377.6 460.6,377.6 460.6,383.8 		"/>
		<path class="st0" d="M300.9,365.2v6.2h7.3c-1.3,3.6-4.7,6.1-8.7,6.1c-3.7,0-6.9-2.1-8.4-5.2h0c0,0-0.1-0.2-0.2-0.5
			c-0.1-0.2-0.1-0.3-0.2-0.5h0c-0.2-0.8-0.5-1.9-0.5-3.3c0-1.3,0.3-2.3,0.5-3h0c1.3-3.5,4.7-6.1,10.2-6.1v-6.3
			c-10.2,0-17.4,6.9-17.4,15.5c0,8.5,7.2,15.5,15.9,15.5c8.7,0,16-7,16-15.5v-3.1H300.9z"/>
		<path class="st0" d="M392.7,316.7h-30.1v-12.3H356v30.1c0,1.5-1.3,2.5-3.3,2.5h-0.5v6.1h0.5c5.5,0,9.9-3.8,9.9-8.6V329v-5.7h36.8
			v-44.6h-6.7V316.7z"/>
		<path class="st0" d="M501.6,316.7h-21.2v-21.5h-6.7v21.5h-21.2v-15v-6.6h-6.7H438h-2.8c-2.2,0-3.9,1.7-3.9,3.8v2.7v14.7v0.2v0v6.6
			h6.7h7.8h6.7h55.8v-28.1h-6.7V316.7z M445.8,316.7H438V304c0-1.2,1-2.2,2.3-2.2h5.5V316.7z"/>
		<rect x="617.1" y="278.7" class="st0" width="6.7" height="44.6"/>
		<rect x="473.7" y="285.6" class="st0" width="6.7" height="6.6"/>
		<rect x="260.4" y="326.2" class="st0" width="6.7" height="6.6"/>
		<rect x="251.5" y="326.2" class="st0" width="6.7" height="6.6"/>
		<rect x="501.6" y="326.2" class="st0" width="6.7" height="6.6"/>
		<rect x="492.6" y="326.2" class="st0" width="6.7" height="6.6"/>
		<path class="st0" d="M605.1,278.7v38h-26.3c0.1-0.6,0.1-1.3,0.1-2c0-8.9-7.5-15.5-16.6-15.5h-8.7v1.7v4.7v10.8v0.2h-14
			c1.1-2.1,1.6-4.3,1.6-6.6c0-8.2-6.8-14.9-15.3-14.9c-4.2,0-7.9,1.7-11.8,5.3l-0.2,0.2l4.6,4.5l0.2-0.2c2.5-2.4,4.7-3.5,7.1-3.5
			c4.7,0,8.5,3.8,8.5,8.5c0,2.5-1.1,4.9-3.1,6.5c-0.1,0-0.1,0.1-0.1,0.1h-10.6H517h-2.9v6.6h5.2h13.7h20.7v0.5v6.5h8.7
			c5.8,0,10.9-2.7,13.9-7h35.5l0-44.6H605.1z M562.4,323.8h-1.9v-18.1h1.9c5.4,0,9.6,3.7,9.6,9C572,320,567.8,323.8,562.4,323.8"/>
		<rect x="445.7" y="285.6" class="st0" width="6.7" height="6.6"/>
		<rect x="436.8" y="285.6" class="st0" width="6.7" height="6.6"/>
		<rect x="405.1" y="278.7" class="st0" width="6.7" height="44.6"/>
		<rect x="232.5" y="285.6" class="st0" width="6.7" height="6.6"/>
		<rect x="223.6" y="285.6" class="st0" width="6.7" height="6.6"/>
		<path class="st0" d="M473.1,248.1c-21.4-42.4-41-73.9-52.1-90.7c-11.1,16.8-30.8,48.3-52.1,90.7l-21.9-19.3
			c34-67.5,63.4-107.7,64.6-109.4l9.4-12.9l9.4,12.9c1.2,1.7,30.6,41.9,64.6,109.4L473.1,248.1z"/>
		<rect x="347.6" y="68.4" class="st1" width="146.6" height="25.3"/>
		<path class="st0" d="M349.8,295.2h-19.1c-2.2,0-4,1.8-4,4v13.3h16.7v4.3h-0.3h-14.5h-18.2c0.1-0.6,0.1-1.3,0.1-2
			c0-8.9-7.5-15.5-16.6-15.5h-8.7v1.7v4.7v10.8v0.2h-18.1v-21.5h-6.7v21.5h-21.2v-15v-6.6h-6.7h-7.8H222c-2.2,0-3.9,1.7-3.9,3.8v2.7
			v15v6.6h0h6.7h7.8h6.7h46v0.5v6.5h8.7c5.8,0,10.9-2.7,13.9-6.9h20.8h17.1v0h4.1V295.2z M232.6,316.7h-7.8V304c0-1.2,1-2.2,2.3-2.2
			h5.5V316.7z M293.9,323.8H292v-18.1h1.9c5.4,0,9.6,3.7,9.6,9C303.6,320,299.3,323.8,293.9,323.8z M333.1,306v-2.3c0-1.1,0.9-2,2-2
			h8.2v4.3H333.1z"/>
	</g>
	<rect x="343.1" y="285.8" class="st0" width="6.7" height="6.6"/>
	<rect x="334.1" y="285.8" class="st0" width="6.7" height="6.6"/>
</g>
<g>
	<g>
		<polygon class="st2" points="450.3,503.6 450.3,518.7 463.4,526.2 463.4,511.1 476.4,503.6 463.4,496 		"/>
		<polygon class="st3" points="476.4,488.5 476.4,503.6 489.5,511.1 489.5,496 502.6,488.5 489.5,480.9 		"/>
		<polygon class="st3" points="476.4,518.7 476.4,556.2 463.4,548.6 463.4,526.2 		"/>
		<polygon class="st4" points="450.3,518.7 450.3,548.3 437.2,540.7 437.2,526.2 		"/>
		<polygon class="st2" points="489.5,511.1 489.5,547.8 502.6,540.3 502.6,518.7 		"/>
		<path class="st5" d="M334.6,539.2c0-5.8,3.9-10,9.3-10c5.2,0,8.9,3.9,8.9,9.6c0,5.8-3.9,10-9.3,10
			C338.3,548.8,334.6,544.9,334.6,539.2 M349.5,539.7c0-4.8-2.4-8.4-6.2-8.4c-3.2,0-5.4,2.9-5.4,7.1c0,4.8,2.4,8.3,6.2,8.3
			C347.5,546.8,349.5,543.8,349.5,539.7"/>
		<path class="st5" d="M355.6,547.5l0.9-2.3c1.7,1.1,3.2,1.4,4.6,1.4c2.3,0,3.9-1.1,3.9-3.1c0-1.1-0.6-2-2.1-2.8L359,539
			c-2.1-1-3.2-2.4-3.2-4.4c0-3.2,2.4-5.3,6.4-5.3c1.5,0,3.3,0.3,4.9,1.2l-0.9,2.3c-1.4-0.9-2.8-1.3-4.1-1.3c-2,0-3.2,1-3.2,2.6
			c0,1.3,0.8,2,1.9,2.5l3.9,1.9c1.9,0.8,3.3,2.4,3.3,4.7c0,3.5-2.8,5.8-6.9,5.8C359.9,548.8,357.4,548.6,355.6,547.5"/>
		<path class="st5" d="M370.7,539.2c0-5.8,3.9-10,9.3-10c5.2,0,8.9,3.9,8.9,9.6c0,5.8-3.9,10-9.3,10
			C374.4,548.8,370.7,544.9,370.7,539.2 M385.6,539.7c0-4.8-2.4-8.4-6.2-8.4c-3.2,0-5.4,2.9-5.4,7.1c0,4.8,2.4,8.3,6.2,8.3
			C383.5,546.8,385.6,543.8,385.6,539.7"/>
		<path class="st5" d="M391.8,539.2c0-5.8,3.9-10,9.3-10c5.2,0,8.9,3.9,8.9,9.6c0,5.8-3.9,10-9.3,10
			C395.5,548.8,391.8,544.9,391.8,539.2 M406.7,539.7c0-4.8-2.4-8.4-6.2-8.4c-3.2,0-5.4,2.9-5.4,7.1c0,4.8,2.4,8.3,6.2,8.3
			C404.6,546.8,406.7,543.8,406.7,539.7"/>
		<path class="st5" d="M424.6,546.1l-0.6,2.2h-10.3v-16.6c0-0.4-0.2-0.6-0.5-0.7l-1-0.3l0.2-1h4.5v16.3H424.6z"/>
		<path class="st5" d="M348.3,497.7l1.1,0.3c0.4,0.1,0.5,0.4,0.5,0.7v13.8v1.1c0,3.1-2.8,6.2-6.3,6.2c-3,0-5.7-2-5.8-5.4
			c0-1.3,0.3-2.4,0.9-3.3l-2.8-1.2c-0.9,1.3-1.3,2.9-1.3,4.5c0,4.6,4.3,8.4,9,8.4c5.3,0,9.5-4.3,9.5-9.5v-0.8v-15.7h-4.6
			L348.3,497.7z"/>
		<path class="st5" d="M419.3,497.7l1.1,0.3c0.4,0.1,0.5,0.4,0.5,0.7v18.6h3.2v-20.6h-4.6L419.3,497.7z"/>
		<path class="st5" d="M422.2,492.6c-0.7,0-1.2-0.5-1.2-1.4c0-1,0.5-1.6,1.2-1.6c0.4,0,0.7,0.1,1.1,0.4l0.2,0.2l0.7-1l-0.2-0.2
			c-0.6-0.5-1.3-0.7-2.1-0.7c-1.6,0-2.8,1.1-2.8,2.7c0,0.7,0.2,1.3,0.6,1.8c-0.3,0.1-0.6,0.2-0.8,0.4l-0.2,0.1l0.6,1.3l0.3-0.1
			c0.5-0.3,0.9-0.4,1.3-0.4h3.7l0.3-1.5L422.2,492.6z"/>
		<path class="st5" d="M407.1,501.5c-7.7,0-12.1,5.1-14.2,13.3h-1.7c-0.6,0-1-0.4-1-1v-4.9l-3.2,0.6v4.4c0,0.6-0.4,1-1,1h-12.7v-1.6
			v-4.3c0-4.1-2.9-7.6-7.5-7.6c-5.2,0-8.4,3.5-8.4,8.1c0,4.3,3.7,7.9,8,7.9h4.6c-0.5,3-3.1,3.8-5.3,3.8c-1.3,0-2.4-0.3-3.7-0.8
			l-0.8,2.1c1.1,0.6,3.1,1,4.6,1.1c2.8,0.2,7.5-0.9,8.3-6.3h13.1c1.2,0,2.1-0.6,2.3-1.3h0.1c0.2,0.8,1.2,1.3,2.3,1.3h17.3
			c3.9,0,7.2-3,7.5-6.8C416.1,505.4,413.3,501.5,407.1,501.5 M370.2,513.2v1.6h-4c-2.8,0-5.2-2.2-5.4-5c-0.2-3.1,2.2-5.6,5.2-5.6
			c2.3,0,4.2,1.9,4.2,4.2V513.2z M407.3,514.8h-11c1.2-4.9,3.8-10.5,10.9-10.5c3.5,0,5.1,2.3,5.1,5.6
			C412.2,512.6,410,514.8,407.3,514.8"/>
	</g>
	<g>
		<g>
			<path class="st5" d="M475.3,464.1c-2.1,0-3.2-1.2-3.2-3.2c0-2,1.3-3.9,3.4-3.9c2,0,3.2,2,3.2,3.8
				C478.6,462.3,477.8,464.1,475.3,464.1z M475.3,458.6c-1.4,0-2.1,1.2-2.1,2.1c0,1.1,0.9,1.7,2.2,1.7c1.2,0,2-0.6,2-1.5
				C477.5,460.1,477,458.6,475.3,458.6z M474.5,454.1c0.4,0,0.8,0.4,0.8,0.8c0,0.4-0.3,0.8-0.8,0.8c-0.4,0-0.8-0.3-0.8-0.8
				C473.7,454.5,474.1,454.1,474.5,454.1z M476.5,454.1c0.4,0,0.8,0.4,0.8,0.8c0,0.4-0.4,0.8-0.8,0.8c-0.4,0-0.8-0.3-0.8-0.8
				C475.7,454.5,476,454.1,476.5,454.1z"/>
			<path class="st5" d="M479.3,467.3c-0.6,0-1.1-0.1-1.3-0.2l0.1-1.5c0.4,0,0.7,0.1,1,0.1c2.2,0,3.1-1.5,3.1-2.7
				c0-1.1-0.3-2.5-0.7-4.3l1.3-0.3c0.4,1.6,0.7,3.2,0.7,4.4C483.6,465.2,482,467.3,479.3,467.3z"/>
			<path class="st5" d="M485.2,464.1v-10.8h1.3v10.8H485.2z"/>
			<path class="st5" d="M487.8,460.7l1.1-0.1c-0.1,1.6,0.8,1.9,2.2,1.9c1.6,0,2.3-0.5,2.3-1.3c0-1-1.1-2.4-3-4.1l1-1.2
				c1.5,1.3,3.2,3.2,3.2,5.2c0,2-1.2,3.1-3.7,3.1C488,464.2,487.7,462.5,487.8,460.7z"/>
			<path class="st5" d="M497.3,467.1h1.1v0.9h-2.8v-0.9h0.4c-0.1-0.2-0.2-0.4-0.2-0.6c0-0.7,0.5-1.3,1.3-1.3c0.5,0,0.9,0.3,1.1,0.6
				l-0.4,0.7c-0.2-0.1-0.4-0.3-0.7-0.3c-0.4,0-0.7,0.2-0.7,0.5C496.5,466.9,496.8,467.1,497.3,467.1z M499.1,462.4l0.3,0l-0.1,1.6
				l-0.3,0h0c-1.8,0-3-0.8-3-2.6v-8.2h1.3v7.7C497.3,462.2,498,462.4,499.1,462.4L499.1,462.4z"/>
			<path class="st5" d="M498.8,462.5l0.3-0.1h2.6l0.3,0.1l-0.1,1.5l-0.2,0.1H499l-0.3-0.1L498.8,462.5z"/>
			<path class="st5" d="M501.4,464l0.1-1.5l0.3-0.1c1.2,0,1.8-0.4,1.8-1.4c0-0.8-0.2-2-0.4-3l1.2-0.3c0.2,0.9,0.5,2.1,0.5,3.1
				c0,2.1-1.3,3.2-3.1,3.2L501.4,464z M502.4,466c0-0.4,0.4-0.8,0.8-0.8c0.5,0,0.8,0.4,0.8,0.8c0,0.5-0.4,0.8-0.8,0.8
				C502.7,466.9,502.4,466.5,502.4,466z"/>
		</g>
	</g>
	<g>
		<path class="st5" d="M343.7,453.4h1.5v10.7h-1.6v-7.9l-3.2,5.7h-1.2l-3.1-5.6v7.7h-1.5v-10.7h1.5v0l3.8,6.8L343.7,453.4z"/>
		<path class="st5" d="M353.6,456.1h1.5v8h-1.5v-1.6c-0.7,1.1-1.6,1.7-3,1.7c-2.1,0-3.9-1.5-3.9-4.2c0-2.7,1.8-4.2,3.9-4.2
			c1.3,0,2.3,0.6,3,1.6V456.1z M353.6,460.1L353.6,460.1c-0.3-1.7-1.5-2.9-2.8-2.9c-1.4,0-2.5,0.9-2.5,2.9c0,1.8,1.1,2.8,2.5,2.8
			C352.3,463,353.3,461.8,353.6,460.1z"/>
		<path class="st5" d="M364.5,459.2v4.9H363v-4.7c0-1.5-0.6-2.1-1.6-2.1c-1.3,0-2.1,0.8-2.8,2.6v4.3h-1.5v-8h1.5v1.7
			c0.8-1.3,1.8-1.9,3.1-1.9C363.2,455.9,364.5,456.7,364.5,459.2z"/>
		<path class="st5" d="M372.7,456.1h1.5v8h-1.5v-1.6c-0.7,1.1-1.6,1.7-3,1.7c-2.1,0-3.9-1.5-3.9-4.2c0-2.7,1.8-4.2,3.9-4.2
			c1.3,0,2.3,0.6,3,1.6V456.1z M372.7,460.1L372.7,460.1c-0.3-1.7-1.5-2.9-2.8-2.9c-1.4,0-2.5,0.9-2.5,2.9c0,1.8,1.1,2.8,2.5,2.8
			C371.4,463,372.4,461.8,372.7,460.1z"/>
		<path class="st5" d="M382.6,456.1h1.5v8c0,2.1-1.8,3.4-4.2,3.4c-1.3,0-2.8-0.4-3.7-1l0.3-1.4c1,0.7,2.4,1,3.4,1
			c1.5,0,2.7-0.7,2.7-2.2v-1.5c-0.7,1.1-1.7,1.6-3,1.6c-2.1,0-3.9-1.3-3.9-4c0-2.7,1.8-4.1,3.9-4.1c1.3,0,2.3,0.6,3,1.6V456.1z
			 M382.6,460.1L382.6,460.1c-0.3-1.7-1.5-2.8-2.8-2.8c-1.4,0-2.5,0.8-2.5,2.7c0,1.8,1.1,2.7,2.5,2.7
			C381.2,462.7,382.2,461.7,382.6,460.1z"/>
		<path class="st5" d="M387.1,460.6c0.2,1.6,1.1,2.4,2.8,2.4c0.9,0,1.8-0.2,2.7-0.7l0.3,1.1c-0.8,0.5-2,0.8-3.2,0.8
			c-2.7,0-4.2-1.5-4.2-4.1c0-2.7,1.8-4.3,4-4.3c2.1,0,3.8,1.4,3.8,4.2c0,0.2,0,0.4,0,0.5H387.1z M387.1,459.5h4.6
			c-0.2-1.6-1-2.3-2.3-2.3C388.2,457.2,387.3,458,387.1,459.5z"/>
		<path class="st5" d="M401.1,453.4h1.5v10.7h-1.5v-1.6c-0.7,1.1-1.7,1.7-3,1.7c-2.1,0-3.9-1.5-3.9-4.2c0-2.7,1.8-4.2,3.9-4.2
			c1.3,0,2.3,0.6,3,1.6V453.4z M401.1,460.1L401.1,460.1c-0.3-1.7-1.5-2.9-2.8-2.9c-1.4,0-2.4,0.9-2.4,2.9c0,1.8,1.1,2.8,2.5,2.8
			C399.7,463,400.7,461.8,401.1,460.1z"/>
		<path class="st5" d="M416.2,460.2c0,2.7-1.8,4.2-3.9,4.2c-1.3,0-2.3-0.6-3-1.7v1.6h-1.5v-10.7h1.5v4.2c0.7-1.1,1.7-1.7,3-1.7
			C414.4,455.9,416.2,457.3,416.2,460.2z M414.6,460.1c0-1.9-1.1-2.9-2.5-2.9c-1.4,0-2.5,1.2-2.8,2.8v0.1c0.3,1.6,1.4,2.8,2.8,2.8
			C413.5,463,414.6,461.9,414.6,460.1z"/>
		<path class="st5" d="M423,456.1h1.7l-4.5,11.2h-1.6l1.4-3.1l-3.3-8.1h1.8l2.3,6.3L423,456.1z"/>
	</g>
</g>
</svg>
