<svg width="277" height="329" viewBox="0 0 277 329" fill="none" xmlns="http://www.w3.org/2000/svg">
<path d="M246.67 0H72.8028C56.1905 0 42.7235 13.467 42.7235 30.0793V247.152C42.7235 263.764 56.1905 277.231 72.8028 277.231H246.67C263.282 277.231 276.749 263.764 276.749 247.152V30.0793C276.749 13.467 263.282 0 246.67 0Z" fill="#4BBEA5"/>
<path d="M206.905 120.385C205.577 118.477 203.544 116.036 201.159 113.356C199.706 113.811 183.605 108.973 177.746 115.014C171.421 121.532 173.76 139.371 173.76 139.371L176.542 161.74C176.542 161.74 199.195 150.498 206.156 142.527C211.118 136.85 213.616 130.003 206.905 120.385Z" fill="#BF792A" stroke="#502A73" stroke-width="0.2532" stroke-miterlimit="10" stroke-linecap="round" stroke-linejoin="round"/>
<path d="M165.72 122.418C165.403 122.929 173.76 139.371 173.76 139.371C173.76 139.371 177.575 129.787 183.809 123.178C192.938 113.504 199.717 113.822 201.171 113.368C191.485 102.512 175.792 87.626 175.792 87.626L158.964 93.1331V98.4927C161.962 108.61 165.925 122.1 165.72 122.418Z" fill="white" stroke="#502A73" stroke-width="0.2532" stroke-miterlimit="10" stroke-linecap="round" stroke-linejoin="round"/>
<path d="M42.36 288.393C42.36 288.393 31.2095 278.208 35.0474 271.917C37.4888 267.92 44.9149 265.331 48.9914 268.499C55.441 273.507 44.3699 290.971 44.3699 290.971L42.36 288.393Z" fill="#4BBEA5" stroke="#502A73" stroke-width="0.2532" stroke-miterlimit="10" stroke-linecap="round" stroke-linejoin="round"/>
<path d="M62.3108 284.305C59.6651 282.068 49.8658 283.919 35.7175 286.508C21.5806 289.097 11.0432 289.994 5.2862 292.89C-0.470762 295.785 -0.743243 300.475 2.62918 306.675C6.0016 312.874 16.6071 320.414 40.5093 324.615C64.4115 328.817 73.7112 328.601 76.5613 327.965C79.4114 327.329 84.6233 326.216 85.7247 318.37C85.9405 316.803 87.1327 308.071 87.1327 308.071L89.2788 289.574C86.7467 286.724 77.2653 295.024 74.9716 293.775C71.8036 292.061 63.2987 285.145 62.3108 284.305Z" fill="#4BBEA5" stroke="#502A73" stroke-width="0.2532" stroke-miterlimit="10" stroke-linecap="round" stroke-linejoin="round"/>
<path d="M88.2115 289.018C85.1343 288.484 81.5121 293.185 78.6733 293.537C75.3577 299.782 73.5182 312.988 75.9936 317.882C77.8558 321.561 80.581 323.582 83.0904 324.684C84.3168 323.31 85.3047 321.311 85.7248 318.37C85.9405 316.803 87.1328 308.071 87.1328 308.071L89.2675 289.642L88.2115 289.018Z" fill="#4BBEA5" stroke="#502A73" stroke-width="0.2532" stroke-miterlimit="10" stroke-linecap="round" stroke-linejoin="round"/>
<path d="M76.5612 327.954C79.4113 327.318 84.6232 326.205 85.7246 318.359C85.8495 317.473 86.281 314.294 86.633 311.705C86.1675 311.421 85.6792 311.114 85.1115 311.023C72.4167 308.945 63.662 322.901 46.5046 318.631C39.3624 316.848 39.3169 309.161 33.9006 304.949C28.4843 300.736 17.2883 307.151 11.1112 306.481C4.5026 305.766 1.57301 297.761 1.59572 295.876C-0.311909 298.647 0.244523 302.28 2.62906 306.663C6.00149 312.863 16.607 320.403 40.5092 324.604C64.4114 328.805 73.7111 328.59 76.5612 327.954Z" fill="#008056" stroke="#502A73" stroke-width="0.2532" stroke-miterlimit="10" stroke-linecap="round" stroke-linejoin="round"/>
<path d="M65.377 304.563C64.7751 304.495 63.9348 304.392 62.7766 304.256C58.6321 303.768 51.6715 303.393 51.6715 303.393L52.8979 308.276L65.7743 305.028C65.6494 304.88 65.5132 304.722 65.377 304.563Z" fill="#008056" stroke="#502A73" stroke-width="0.2532" stroke-miterlimit="10" stroke-linecap="round" stroke-linejoin="round"/>
<path d="M8.21602 291.698C7.1373 292.061 6.16075 292.447 5.28642 292.879C1.59606 294.73 0.165366 297.33 0.49466 300.577C6.04723 296.694 8.20466 291.72 8.21602 291.698Z" fill="#008056" stroke="#502A73" stroke-width="0.2532" stroke-miterlimit="10" stroke-linecap="round" stroke-linejoin="round"/>
<path d="M178.563 165.181C178.563 165.181 178.563 169.734 177.427 173.663C176.292 177.58 175.781 177.455 176.031 180.873C176.281 184.291 180.834 204.787 180.834 204.787C180.834 204.787 192.473 214.086 216.511 219.332C226.322 221.478 234.055 224.76 234.055 224.76L189.975 281.978C189.975 281.978 191.973 284.055 190.951 283.147C187.624 280.183 177.087 268.965 165.766 260.573C151.084 249.695 142.988 240.577 138.855 225.01C136.175 214.915 136.538 187.493 136.538 187.493L124.116 180.657L113.204 174.151L111.682 153.769" fill="#008056"/>
<path d="M178.563 165.181C178.563 165.181 178.563 169.734 177.427 173.663C176.292 177.58 175.781 177.455 176.031 180.873C176.281 184.291 180.834 204.787 180.834 204.787C180.834 204.787 192.473 214.086 216.511 219.332C226.322 221.478 234.055 224.76 234.055 224.76L189.975 281.978C189.975 281.978 191.973 284.055 190.951 283.147C187.624 280.183 177.087 268.965 165.766 260.573C151.084 249.695 142.988 240.577 138.855 225.01C136.175 214.915 136.538 187.493 136.538 187.493L124.116 180.657L113.204 174.151L111.682 153.769" stroke="#502A73" stroke-width="0.2532" stroke-miterlimit="10" stroke-linecap="round" stroke-linejoin="round"/>
<path d="M144.657 184.416C144.657 184.416 146.678 207.443 148.075 213.643C149.472 219.843 150.732 227.303 159.078 234.264C164.858 239.078 183.219 248.673 193.994 254.135" fill="#008056"/>
<path d="M144.657 184.416C144.657 184.416 146.678 207.443 148.075 213.643C149.472 219.843 150.732 227.303 159.078 234.264C164.858 239.078 183.219 248.673 193.994 254.135" stroke="#502A73" stroke-width="0.2532" stroke-miterlimit="10" stroke-linecap="round" stroke-linejoin="round"/>
<path d="M110.365 151.827C110.365 151.827 93.9229 170.199 77.9692 196.054C55.1343 233.06 39.8165 282.591 39.8165 282.591C39.8165 282.591 41.9059 297.159 67.4432 300.986C83.8284 303.438 98.0334 299.01 99.1689 291.232C99.203 291.005 99.2257 290.777 99.237 290.562C99.7139 285.702 103.075 255.361 114.737 229.086C127.454 200.426 138.457 188.469 138.457 188.469L160.224 178.602" fill="#008056"/>
<path d="M110.365 151.827C110.365 151.827 93.9229 170.199 77.9692 196.054C55.1343 233.06 39.8165 282.591 39.8165 282.591C39.8165 282.591 41.9059 297.159 67.4432 300.986C83.8284 303.438 98.0334 299.01 99.1689 291.232C99.203 291.005 99.2257 290.778 99.237 290.562C99.7139 285.702 103.075 255.361 114.737 229.086C127.454 200.426 138.457 188.469 138.457 188.469L160.224 178.602" stroke="#502A73" stroke-width="0.2532" stroke-miterlimit="10" stroke-linecap="round" stroke-linejoin="round"/>
<path d="M66.3872 271.383C63.1056 281.705 60.2214 291.266 58.0072 298.794C59.5401 299.294 61.2093 299.759 63.0033 300.157C70.3273 275.267 84.9866 228.144 97.6701 203.526C100.418 198.189 101.417 196.259 103.995 191.649C111.023 179.079 121.175 163.875 129.543 158.992L123.275 156.63C116.349 163.114 107.572 174.696 100.713 186.88C97.8631 191.921 96.2393 195.033 93.0826 201.153C85.5429 215.767 76.5612 239.396 66.3872 271.383Z" fill="#4BBEA5" stroke="#502A73" stroke-width="0.2532" stroke-miterlimit="10" stroke-linecap="round" stroke-linejoin="round"/>
<path d="M164.392 87.6147C164.392 87.6147 170.842 94.3255 174.26 109.757C177.677 125.188 181.095 142.402 184.252 148.228C187.42 154.053 192.473 162.024 192.473 162.024C192.473 162.024 188.169 170.506 179.823 169.745C171.478 168.984 171.977 167.179 165.721 169.791C159.453 172.402 151.232 174.775 143.647 169.791C136.05 164.806 136.311 162.274 128.84 162.535C121.379 162.785 113.022 162.41 105.812 157.096C98.6014 151.782 96.8301 143.686 96.8301 143.686L110.115 90.2945L126.421 87.6375H164.392V87.6147Z" fill="white" stroke="#502A73" stroke-width="0.2532" stroke-miterlimit="10" stroke-linecap="round" stroke-linejoin="round"/>
<path d="M118.847 99.6396C115.18 90.9077 110.115 90.2718 110.115 90.2718L106.641 91.3278C103.586 92.2589 100.975 94.2687 99.3056 97.0053L80.8878 127.141L76.3118 125.018C70.6343 122.384 65.377 118.898 60.7555 114.674L54.3173 108.803L53.352 99.878C53.318 99.5374 53.2612 99.2081 53.159 98.8788C52.421 96.3921 50.184 94.8138 47.7541 94.8138H45.5966L43.6663 92.2475C43.0531 91.43 41.6564 90.181 40.7253 89.7722C37.6368 88.3982 36.1493 91.7592 35.5247 92.2021C34.8889 92.6449 34.0372 91.623 32.4703 92.5768C29.9835 94.087 30.7671 95.5291 29.9609 96.1877C29.3818 96.6532 28.5415 96.1423 27.4514 97.0393C26.2137 98.0613 26.3159 100.639 25.839 101.116C21.8534 105.056 24.7035 109.802 27.1335 113.311C29.6543 116.945 37.6368 123.054 37.6368 123.054C37.6368 123.054 57.7237 150.601 74.0181 159.787C78.3557 161.956 83.3632 162.353 87.9847 160.877C91.8454 159.651 95.2064 157.198 97.5455 153.894L117.564 125.677C119.892 122.395 121.164 118.477 121.198 114.458C121.209 110.052 120.789 104.272 118.847 99.6396Z" fill="#BF792A" stroke="#502A73" stroke-width="0.2532" stroke-miterlimit="10" stroke-linecap="round" stroke-linejoin="round"/>
<path d="M117.541 125.676C119.869 122.395 121.141 118.477 121.175 114.458C121.209 110.063 120.789 104.284 118.847 99.6396C115.18 90.9076 110.115 90.2717 110.115 90.2717L106.641 91.3277C103.586 92.2588 100.974 94.2687 99.3053 97.0052L82.7952 124.007C83.3402 126.267 85.0889 129.73 89.9942 134.306C95.3992 139.336 100.963 142.232 104.71 143.776L117.541 125.676Z" fill="white" stroke="#502A73" stroke-width="0.2532" stroke-miterlimit="10" stroke-linecap="round" stroke-linejoin="round"/>
<path d="M80.8764 127.141C78.4237 131.116 76.5275 135.419 75.2557 139.916L75.0626 140.574" fill="#BF792A"/>
<path d="M80.8764 127.141C78.4237 131.116 76.5275 135.419 75.2557 139.916L75.0626 140.574" stroke="#502A73" stroke-width="0.2532" stroke-miterlimit="10" stroke-linecap="round" stroke-linejoin="round"/>
<path d="M66.3307 121.532C66.3307 121.532 62.9583 122.395 59.9266 127.198C56.8948 132.001 55.8387 137.474 55.8387 137.474L69.4988 129.503L66.8417 141.528" fill="#BF792A"/>
<path d="M66.3307 121.532C66.3307 121.532 62.9583 122.395 59.9266 127.198C56.8948 132.001 55.8387 137.474 55.8387 137.474L69.4988 129.503L66.8417 141.528" stroke="#502A73" stroke-width="0.2532" stroke-miterlimit="10" stroke-linecap="round" stroke-linejoin="round"/>
<path d="M63.4806 117.024C63.4806 117.024 62.7993 116.57 61.7773 116.763C53.1362 118.421 46.8797 128.811 46.3573 131.854C46.028 133.773 46.4595 134.215 46.4595 134.215C46.4595 134.215 44.4156 136.418 39.533 130.014C37.7389 127.664 34.1621 125.268 36.206 120.044C38.2499 114.821 44.0296 109.655 49.3551 108.042C53.1135 106.895 55.5207 107.895 59.7902 111.176C64.0597 114.446 63.4806 117.024 63.4806 117.024Z" fill="#008056" stroke="#502A73" stroke-width="0.2532" stroke-miterlimit="10" stroke-linecap="round" stroke-linejoin="round"/>
<path d="M55.1346 113.618C55.1346 113.618 52.8068 114.662 51.0013 116.15C48.208 118.466 46.9703 119.817 46.9703 119.817V111.653C46.9703 111.653 51.0581 111.472 55.1346 113.618Z" fill="#EEC718" stroke="#502A73" stroke-width="0.2532" stroke-miterlimit="10" stroke-linecap="round" stroke-linejoin="round"/>
<path d="M45.5852 94.8137C45.5852 94.8137 46.857 96.6532 47.9243 99.3102L45.5852 94.8137Z" fill="#BF792A"/>
<path d="M45.5852 94.8137C45.5852 94.8137 46.857 96.6532 47.9243 99.3102" stroke="#502A73" stroke-width="0.2532" stroke-miterlimit="10" stroke-linecap="round" stroke-linejoin="round"/>
<path d="M227.819 265.508C240.161 249.551 244.031 231.868 236.461 226.013C228.891 220.158 212.749 228.348 200.406 244.306C188.064 260.264 184.194 277.947 191.764 283.802C199.334 289.657 215.476 281.466 227.819 265.508Z" fill="#502A73" stroke="#502A73" stroke-width="0.2532" stroke-miterlimit="10" stroke-linecap="round" stroke-linejoin="round"/>
<path d="M227.819 265.508C240.161 249.551 244.031 231.868 236.461 226.013C228.891 220.158 212.749 228.348 200.406 244.306C188.064 260.264 184.194 277.947 191.764 283.802C199.334 289.657 215.476 281.466 227.819 265.508Z" stroke="#502A73" stroke-width="0.2532" stroke-miterlimit="10" stroke-linecap="round" stroke-linejoin="round"/>
<path d="M163.381 212.372C163.381 212.372 165.164 213.178 172.306 211.168C182.662 208.261 180.845 204.775 180.845 204.775" fill="#008056"/>
<path d="M163.381 212.372C163.381 212.372 165.164 213.178 172.306 211.168C182.662 208.261 180.845 204.775 180.845 204.775" stroke="#502A73" stroke-width="0.2532" stroke-miterlimit="10" stroke-linecap="round" stroke-linejoin="round"/>
<path d="M200.421 244.37C194.46 252.08 190.474 260.199 188.794 267.182L190.168 269.601L207.075 271.236L220.826 232.186L215.376 229.949C210.3 233.412 205.088 238.329 200.421 244.37Z" fill="#BF792A" stroke="#502A73" stroke-width="0.2532" stroke-miterlimit="10" stroke-linecap="round" stroke-linejoin="round"/>
<path d="M201.466 276.709C201.466 276.709 201.67 290.323 195.266 292.901C191.519 294.411 186.307 289.336 184.422 284.612C181.027 276.13 194.074 266.047 194.074 266.047L200.489 258.972L201.466 276.709Z" fill="#4BBEA5" stroke="#502A73" stroke-width="0.2532" stroke-miterlimit="10" stroke-linecap="round" stroke-linejoin="round"/>
<path d="M200.41 277.583C200.433 280.581 199.694 289.188 196.015 290.675C195.05 291.061 192.847 290.619 189.997 287.814C188.703 286.542 187.556 284.85 186.943 283.317C185.796 280.456 188.362 276.55 189.997 274.483C192.586 271.201 195.641 268.817 195.675 268.783L195.868 268.635L198.116 266.16L200.41 277.583Z" fill="#4BBEA5" stroke="#502A73" stroke-width="0.2532" stroke-miterlimit="10" stroke-linecap="round" stroke-linejoin="round"/>
<path d="M210.459 240.463C210.016 242.621 209.778 244.699 209.653 246.073C209.551 247.174 209.096 248.208 208.336 249.014L199.172 258.881C197.9 260.414 197.038 262.254 196.674 264.207L194.244 280.16C194.244 280.16 192.2 287.462 191.973 299.305C191.746 311.148 196.072 320.743 204.259 324.592C212.446 328.442 240.152 277.458 240.152 277.458L254.914 241.917C254.914 241.917 250.485 235.013 241.435 234.4C236.541 234.071 227.56 232.924 220.838 232.152C218.51 231.879 216.171 232.572 214.365 234.059C214.32 234.093 214.274 234.127 214.24 234.162C212.299 235.797 210.97 238.011 210.459 240.463Z" fill="#4BBEA5" stroke="#502A73" stroke-width="0.2532" stroke-miterlimit="10" stroke-linecap="round" stroke-linejoin="round"/>
<path d="M241.435 234.434C236.541 234.105 227.56 232.958 220.837 232.186C218.51 231.913 216.171 232.606 214.365 234.094C214.32 234.128 214.274 234.162 214.24 234.196C214.218 234.207 214.206 234.23 214.183 234.241C215.819 234.786 218.124 235.433 220.837 235.82C226.242 236.58 238.199 238.102 238.199 238.102L244.002 234.798C243.184 234.616 242.332 234.491 241.435 234.434Z" fill="#4BBEA5" stroke="#502A73" stroke-width="0.2532" stroke-miterlimit="10" stroke-linecap="round" stroke-linejoin="round"/>
<path d="M254.914 241.94C254.914 241.94 250.485 235.036 241.435 234.423C239.221 234.275 236.178 233.957 232.885 233.583C230.739 233.935 224.233 237.012 222.404 249.468C219.554 268.874 207.121 268.34 202.011 280.217C199.467 286.133 200.841 290.232 198.934 297.159C197.038 304.085 193.904 307.776 193.904 307.776L203.805 313.135C203.805 313.135 226.356 285.758 226.56 285.429C226.697 285.213 236.405 276.516 243.161 270.202L254.914 241.94Z" fill="#008056" stroke="#502A73" stroke-width="0.2532" stroke-miterlimit="10" stroke-linecap="round" stroke-linejoin="round"/>
<path d="M204.134 312.613C204.134 312.613 196.356 305.323 192.643 307.742C194.153 315.611 198.116 321.731 204.248 324.627C206.428 325.648 210.005 322.776 214.058 318.018C215.921 314.225 217.442 311.08 217.442 311.08L204.134 312.613Z" fill="#008056" stroke="#502A73" stroke-width="0.2532" stroke-miterlimit="10" stroke-linecap="round" stroke-linejoin="round"/>
<path d="M211.617 254.112C211.617 254.112 213.4 247.368 214.706 243.416C216.023 239.453 216.023 239.453 216.023 239.453L216.647 253.897L211.617 254.112Z" fill="#008056" stroke="#502A73" stroke-width="0.2532" stroke-miterlimit="10" stroke-linecap="round" stroke-linejoin="round"/>
<path d="M202.193 307.004C197.935 324.933 206.326 329.089 216.216 323.821C228.252 317.416 237.597 301.974 245.126 287.371C251.133 275.732 257.037 263.242 257.843 254.987C259.274 240.282 249.645 238.125 247.93 237.795C241.095 236.467 234.668 238.499 221.201 272.507C218.76 278.662 204.816 295.933 202.193 307.004Z" fill="#502A73" stroke="#502A73" stroke-width="0.2532" stroke-miterlimit="10" stroke-linecap="round" stroke-linejoin="round"/>
<path d="M202.193 307.004C197.935 324.933 206.326 329.089 216.216 323.821C228.252 317.416 237.597 301.974 245.126 287.371C251.133 275.732 257.037 263.242 257.843 254.987C259.274 240.282 249.645 238.125 247.93 237.795C241.095 236.467 234.668 238.499 221.201 272.507C218.76 278.662 204.816 295.933 202.193 307.004Z" stroke="#502A73" stroke-width="0.2532" stroke-miterlimit="10" stroke-linecap="round" stroke-linejoin="round"/>
<path d="M146.008 66.2671H145.452C142.795 66.2671 140.615 64.0983 140.615 61.4299V57.2058C140.615 54.5487 142.783 52.3687 145.452 52.3687H146.008C148.665 52.3687 150.845 54.5374 150.845 57.2058V61.4299C150.834 64.0869 148.665 66.2671 146.008 66.2671Z" fill="#EEC718" stroke="#502A73" stroke-width="0.2532" stroke-miterlimit="10" stroke-linecap="round" stroke-linejoin="round"/>
<path d="M144.646 66.2671H144.089C141.432 66.2671 139.252 64.0983 139.252 61.4299V57.2058C139.252 54.5487 141.421 52.3687 144.089 52.3687H144.646C147.303 52.3687 149.483 54.5374 149.483 57.2058V61.4299C149.483 64.0869 147.303 66.2671 144.646 66.2671Z" fill="#EEC718" stroke="#502A73" stroke-width="0.2532" stroke-miterlimit="10" stroke-linecap="round" stroke-linejoin="round"/>
<path d="M146.247 47.5883C144.782 41.0592 143.839 39.3559 139.57 38.2772C133.802 36.8124 124.559 51.1424 124.559 51.1424C124.559 51.1424 124.07 56.5928 123.945 58.4436C123.923 58.7616 123.787 59.0682 123.571 59.318L121.459 61.6571C120.959 62.3043 121.243 63.2468 122.027 63.4966L123.582 64.1325C123.491 65.0636 123.4 65.4497 123.241 65.9947C122.844 67.3232 123.696 67.8115 123.968 67.9591C124.445 68.2203 123.73 68.2771 123.628 69.1855C123.537 69.9689 123.934 70.2188 123.98 70.6843C124.093 71.8539 124.207 72.3194 124.309 73.1937C124.468 74.4768 125.49 75.4874 126.773 75.6351L133.484 76.3958L135.289 85.264L135.959 84.9348L149.948 82.8795C149.903 82.2891 149.04 73.1597 148.983 72.4897C148.291 64.4391 147.087 51.3241 146.247 47.5883Z" fill="#BF792A" stroke="#502A73" stroke-width="0.2532" stroke-miterlimit="10" stroke-linecap="round" stroke-linejoin="round"/>
<path d="M124.513 51.5627C121.788 51.6649 118.472 49.6664 122.98 45.4537C125.808 42.7966 133.813 36.8126 139.581 38.2774C143.851 39.3561 144.793 41.0707 146.258 47.5884C146.78 49.9389 147.45 55.9798 148.052 62.1455C148.131 62.9631 147.496 63.6784 146.678 63.6898C146.655 63.6898 146.633 63.6898 146.61 63.6898C143.817 63.7352 141.296 61.9865 140.376 59.3408C140.194 58.8071 140.081 58.4551 140.081 58.4551C140.081 58.4551 138.423 55.8094 137.129 55.3098C136.413 55.0373 135.755 55.8322 135.709 56.8995C135.573 60.3401 134.994 61.6459 133.052 60.7943C131.11 59.954 131.78 57.3537 131.78 57.3537C131.78 57.3537 131.065 57.1493 130.861 56.5475C130.656 55.9457 132.689 53.7769 132.587 53.5044C132.484 53.2319 131.133 53.7996 130.963 52.8572C130.781 51.9147 132.235 49.0986 132.144 49.0078C132.042 48.917 128.805 51.4037 124.513 51.5627Z" fill="#502A73" stroke="#502A73" stroke-width="0.2532" stroke-miterlimit="10" stroke-linecap="round" stroke-linejoin="round"/>
<path d="M124.513 51.5627C121.788 51.6649 118.472 49.6664 122.98 45.4537C125.808 42.7966 133.813 36.8126 139.581 38.2774C143.851 39.3561 144.793 41.0707 146.258 47.5884C146.78 49.9389 147.45 55.9798 148.052 62.1455C148.131 62.9631 147.496 63.6784 146.678 63.6898C146.655 63.6898 146.633 63.6898 146.61 63.6898C143.817 63.7352 141.296 61.9865 140.376 59.3408C140.194 58.8071 140.081 58.4551 140.081 58.4551C140.081 58.4551 138.423 55.8094 137.129 55.3098C136.413 55.0373 135.755 55.8322 135.709 56.8995C135.573 60.3401 134.994 61.6459 133.052 60.7943C131.11 59.954 131.78 57.3537 131.78 57.3537C131.78 57.3537 131.065 57.1493 130.861 56.5475C130.656 55.9457 132.689 53.7769 132.587 53.5044C132.484 53.2319 131.133 53.7996 130.963 52.8572C130.781 51.9147 132.235 49.0986 132.144 49.0078C132.042 48.917 128.805 51.4037 124.513 51.5627Z" stroke="#502A73" stroke-width="0.2532" stroke-miterlimit="10" stroke-linecap="round" stroke-linejoin="round"/>
<path d="M139.797 38.3341C139.717 38.3114 139.649 38.2887 139.57 38.2774C138.309 37.9594 136.935 37.9935 135.539 38.2774C130.883 44.0684 133.472 54.0835 133.472 54.0835H137.844C137.855 54.0721 134.789 43.4552 139.797 38.3341Z" fill="#EEC718" stroke="#502A73" stroke-width="0.2532" stroke-miterlimit="10" stroke-linecap="round" stroke-linejoin="round"/>
<path d="M123.968 67.9592C123.968 67.9592 125.183 68.5838 126.228 67.9592" stroke="#502A73" stroke-width="0.2532" stroke-miterlimit="10" stroke-linecap="round" stroke-linejoin="round"/>
<path d="M125.388 56.8312C125.921 56.7063 126.466 56.7403 126.977 56.922" stroke="#502A73" stroke-width="0.5065" stroke-miterlimit="10" stroke-linecap="round" stroke-linejoin="round"/>
<path d="M125.626 56.8311C125.455 57.1036 125.331 57.5691 125.308 58.0006C125.274 58.6819 125.501 59.0226 125.807 59.0453C126.114 59.068 126.387 58.75 126.421 58.0687C126.443 57.6372 126.375 57.1603 126.239 56.8651L125.626 56.8311Z" fill="#502A73"/>
<path d="M124.604 54.6399C124.729 54.9237 125.081 55.0259 125.342 54.8556C125.785 54.5717 126.501 54.2538 127.375 54.4355C127.852 54.5377 128.193 54.6739 128.454 54.8102C128.749 54.9691 129.112 54.7534 129.112 54.4128C129.112 54.2765 129.056 54.1516 128.953 54.0608C128.431 53.5952 126.705 52.3575 124.741 54.0267C124.57 54.1856 124.514 54.4355 124.604 54.6399Z" fill="#502A73"/>
<path d="M128.703 67.2327C128.703 67.2327 126.909 65.4046 126.387 65.132C125.944 64.8936 125.024 64.6211 123.514 64.6324C123.435 65.2115 123.355 65.5522 123.23 65.9837C123.185 66.1426 123.151 66.2903 123.139 66.4265C124.547 66.5741 125.115 66.2789 126.012 66.4152C126.262 66.4492 127 67.0851 127.693 67.3122C128.295 67.5052 128.703 67.2327 128.703 67.2327Z" fill="#502A73" stroke="#502A73" stroke-width="0.2532" stroke-miterlimit="10" stroke-linecap="round" stroke-linejoin="round"/>
<path d="M128.703 67.2327C128.703 67.2327 126.909 65.4046 126.387 65.132C125.944 64.8936 125.024 64.6211 123.514 64.6324C123.435 65.2115 123.355 65.5522 123.23 65.9837C123.185 66.1426 123.151 66.2903 123.139 66.4265C124.547 66.5741 125.115 66.2789 126.012 66.4152C126.262 66.4492 127 67.0851 127.693 67.3122C128.295 67.5052 128.703 67.2327 128.703 67.2327Z" stroke="#502A73" stroke-width="0.2532" stroke-miterlimit="10" stroke-linecap="round" stroke-linejoin="round"/>
<path d="M125.944 85.6504L125.898 83.0728C125.876 81.8124 126.818 80.7337 128.079 80.5974L152.287 77.9971C153.741 77.8382 155.183 78.3832 156.171 79.4619L165.732 89.9425L146.371 93.1106L125.944 85.6504Z" fill="#008056" stroke="#502A73" stroke-width="0.2532" stroke-miterlimit="10" stroke-linecap="round" stroke-linejoin="round"/>
<path d="M125.944 85.6504L125.898 83.0728C125.876 81.8124 126.818 80.7337 128.079 80.5974L152.287 77.9971C153.741 77.8382 155.183 78.3832 156.171 79.4619L165.732 89.9425L146.371 93.1106L125.944 85.6504Z" stroke="#502A73" stroke-width="0.2532" stroke-miterlimit="10" stroke-linecap="round" stroke-linejoin="round"/>
<path d="M125.944 85.6501L152.583 88.1255C155.229 88.3753 157.886 87.9325 160.316 86.8651L171.455 81.9484C174.089 80.7902 177.041 80.5858 179.812 81.3693L203.498 88.1255L181.981 93.4737C179.233 94.155 176.644 95.3813 174.362 97.0619L167.889 101.854C165.459 103.648 162.518 104.624 159.498 104.624H147.507C144.169 104.624 140.944 103.409 138.446 101.206L124.479 88.2731C124.014 87.8417 124.048 87.0809 124.559 86.7062L125.944 85.6501Z" fill="#008056" stroke="#502A73" stroke-width="0.2532" stroke-miterlimit="10" stroke-linecap="round" stroke-linejoin="round"/>
<path d="M125.944 85.6501L152.583 88.1255C155.229 88.3753 157.886 87.9325 160.316 86.8651L171.455 81.9484C174.089 80.7902 177.041 80.5858 179.812 81.3693L203.498 88.1255L181.981 93.4737C179.233 94.155 176.644 95.3813 174.362 97.0619L167.889 101.854C165.459 103.648 162.518 104.624 159.498 104.624H147.507C144.169 104.624 140.944 103.409 138.446 101.206L124.479 88.2731C124.014 87.8417 124.048 87.0809 124.559 86.7062L125.944 85.6501Z" stroke="#502A73" stroke-width="0.2532" stroke-miterlimit="10" stroke-linecap="round" stroke-linejoin="round"/>
<path d="M180.107 162.841C180.107 162.841 193.404 164.17 205.644 158.481C217.885 152.792 226.628 138.769 224.902 126.505C222.995 112.936 212.355 102.308 195.016 110.154C180.959 116.513 179.289 125.154 165.72 130.468C150.277 136.52 135.573 128.379 135.993 111.971C136.345 98.2202 143.135 93.8599 142.329 84.9463C141.636 77.3611 134.914 75.5557 134.914 66.2787V61.0327" stroke="#502A73" stroke-width="1.2662" stroke-miterlimit="10" stroke-linecap="round" stroke-linejoin="round"/>
<path d="M180.107 162.841C180.107 162.841 193.404 164.17 205.644 158.481C217.885 152.792 226.628 138.769 224.902 126.505C222.995 112.936 212.355 102.308 195.016 110.154C180.959 116.513 179.289 125.154 165.72 130.468C150.277 136.52 135.573 128.379 135.993 111.971C136.345 98.2202 143.135 93.8599 142.329 84.9463C141.636 77.3611 134.914 75.5557 134.914 66.2787V61.0327" stroke="#EEC718" stroke-width="0.7597" stroke-miterlimit="10" stroke-linecap="round" stroke-linejoin="round"/>
<path d="M136.266 66.2671H135.709C133.052 66.2671 130.872 64.0983 130.872 61.4299V57.2058C130.872 54.5487 133.041 52.3687 135.709 52.3687H136.266C138.923 52.3687 141.103 54.5374 141.103 57.2058V61.4299C141.103 64.0869 138.923 66.2671 136.266 66.2671Z" fill="#EEC718" stroke="#502A73" stroke-width="0.2532" stroke-miterlimit="10" stroke-linecap="round" stroke-linejoin="round"/>
<path d="M134.903 66.2671H134.347C131.69 66.2671 129.51 64.0983 129.51 61.4299V57.2058C129.51 54.5487 131.678 52.3687 134.347 52.3687H134.903C137.56 52.3687 139.74 54.5374 139.74 57.2058V61.4299C139.74 64.0869 137.56 66.2671 134.903 66.2671Z" fill="#EEC718" stroke="#502A73" stroke-width="0.2532" stroke-miterlimit="10" stroke-linecap="round" stroke-linejoin="round"/>
<path d="M136.481 56.5589C135.357 56.241 134.733 56.7633 134.642 56.8428C134.562 56.7633 133.949 56.2523 132.814 56.5816C131.724 56.8995 131.394 57.8761 131.576 58.3643C131.678 58.6141 131.928 58.3529 132.337 58.0691C132.916 57.6717 133.279 57.8988 133.279 57.8988C133.279 57.8988 132.382 58.1486 132.053 58.6937C131.724 59.2387 132.132 60.0108 132.507 59.5679C133.132 58.8412 133.506 58.8299 133.506 58.8299C133.506 58.8299 133.12 59.1251 132.939 59.5339C132.746 59.954 132.882 60.3855 133.2 60.3969C133.393 60.3969 134.244 58.9207 134.131 59.8404C133.96 61.1122 133.938 62.0206 133.995 62.6452C134.017 62.9517 134.222 63.1674 134.46 63.1674H134.676C134.914 63.1674 135.119 62.9404 135.153 62.6338C135.221 61.9979 135.221 61.0895 135.085 59.8291C134.982 58.9094 135.811 60.3855 135.993 60.3742C136.311 60.3628 136.447 59.92 136.277 59.5112C136.095 59.091 135.721 58.8072 135.721 58.8072C135.721 58.8072 136.095 58.8072 136.697 59.5339C137.06 59.9654 137.492 59.1819 137.174 58.6482C136.856 58.1145 135.97 57.8761 135.97 57.8761C135.97 57.8761 136.345 57.6376 136.913 58.035C137.322 58.3189 137.56 58.5801 137.662 58.3189C137.867 57.842 137.56 56.8769 136.481 56.5589Z" fill="#EEC718" stroke="#502A73" stroke-width="0.2532" stroke-miterlimit="10" stroke-linecap="round" stroke-linejoin="round"/>
<path d="M195.391 85.8091C189.85 86.8992 180.346 88.2277 173.817 91.4298C166.856 94.8476 164.46 104.624 156.954 104.624H159.475C162.496 104.624 165.437 103.648 167.867 101.854L174.339 97.0619C176.621 95.37 179.21 94.155 181.958 93.4737L203.476 88.1255L195.391 85.8091Z" fill="#4BBEA5" stroke="#502A73" stroke-width="0.2532" stroke-miterlimit="10" stroke-linecap="round" stroke-linejoin="round"/>
<path d="M139.264 137.781C139.264 137.781 144.532 144.616 153.639 147.273C162.746 149.931 172.431 149.931 172.431 149.931" fill="white"/>
<path d="M139.264 137.781C139.264 137.781 144.532 144.616 153.639 147.273C162.746 149.931 172.431 149.931 172.431 149.931" stroke="#502A73" stroke-width="0.2532" stroke-miterlimit="10" stroke-linecap="round" stroke-linejoin="round"/>
<path d="M184.263 148.227C187.431 154.052 192.484 162.024 192.484 162.024C192.484 162.024 188.181 170.506 179.835 169.745C171.489 168.984 171.989 167.179 165.732 169.79" fill="white"/>
<path d="M184.263 148.227C187.431 154.052 192.484 162.024 192.484 162.024C192.484 162.024 188.181 170.506 179.835 169.745C171.489 168.984 171.989 167.179 165.732 169.79" stroke="#502A73" stroke-width="0.2532" stroke-miterlimit="10" stroke-linecap="round" stroke-linejoin="round"/>
<path d="M229.728 59.3068C223.721 56.275 220.247 50.2682 220.247 43.2054C220.247 33.497 228.354 25.5144 238.824 25.5144C242.457 25.5144 244.331 25.7302 247.26 26.6726V34.394C247.26 34.394 243.899 32.7361 238.824 32.7361C232.874 32.7361 227.684 37.8686 227.684 43.2168C227.684 45.5332 228.4 47.7929 229.728 49.6097C229.342 42.5015 235.292 38.3114 240.867 38.1411C247.431 38.0276 256.855 43.319 253.653 61.2939C238.108 61.2939 237.609 61.2939 237.064 61.2371V68.1296H229.728V59.3068ZM265.451 49.3825H259.058V41.8882H265.451V49.3825ZM237.064 53.9132H248.805C249.577 48.951 246.272 45.4196 241.855 45.3175C239.982 45.2607 237.109 46.2599 237.064 49.5074V53.9132ZM265.451 60.306H259.058V52.8117H265.451V60.306Z" fill="white"/>
<path d="M229.729 67.6868H237.064V73.1485C237.064 76.0099 238.336 77.5542 241.47 77.5542H265.451V84.9917H242.401C239.153 84.9917 237.052 86.9788 237.052 90.2831V93.9734H229.717V90.7373C229.717 86.7177 231.591 84.2877 233.578 82.857C231.261 81.5284 229.717 78.667 229.717 75.2491V67.6868H229.729Z" fill="white"/>
<path d="M237.007 135.555V144.208H229.728V93.4854H237.064V100.435H265.451V107.872L248.248 107.27C253.324 111.46 254.914 118.08 254.914 121.555C254.914 128.391 250.61 136.657 242.014 136.657C240.141 136.657 238.483 136.214 236.996 135.612V135.555H237.007ZM237.064 123.269C237.064 126.244 239.21 129.004 241.912 129.004C246.488 129.004 247.817 124.314 247.976 121.998C248.578 113.618 241.583 108.383 237.064 107.384V123.269Z" fill="white"/>
<path d="M229.728 143.719H237.064V149.181C237.064 152.043 238.335 153.587 241.469 153.587H252.552V161.024H242.412C239.164 161.024 237.064 163.012 237.064 166.316V170.006H229.728V166.747C229.728 162.728 231.602 160.298 233.589 158.867C231.273 157.538 229.728 154.677 229.728 151.259V143.719ZM265.451 160.979H259.058V153.485H265.451V160.979Z" fill="white"/>
<path d="M229.728 169.745H237.064V175.979C237.064 177.966 238.335 179.124 240.481 179.124H243.014C249.35 179.124 256.14 183.485 256.14 191.967C256.14 200.449 249.361 205.036 243.014 205.036C236.621 205.036 229.115 200.46 229.115 191.967C229.115 187.72 230.875 184.859 232.647 182.871C231.375 181.872 229.728 179.613 229.728 176.308V169.745ZM250.122 191.955C250.122 188.095 246.534 186.721 243.014 186.721C239.096 186.721 235.463 188.095 235.463 191.955C235.463 195.975 238.608 197.36 243.014 197.36C246.931 197.36 250.122 195.986 250.122 191.955Z" fill="white"/>
</svg>
