<svg width="309" height="353" viewBox="0 0 309 353" fill="none" xmlns="http://www.w3.org/2000/svg">
<path d="M278.139 -9.15527e-05H102.396C85.6039 -9.15527e-05 71.9927 13.6093 71.9927 30.3961V249.762C71.9927 266.549 85.6039 280.158 102.396 280.158H278.139C294.929 280.158 308.542 266.549 308.542 249.762V30.3961C308.542 13.6093 294.929 -9.15527e-05 278.139 -9.15527e-05Z" fill="#4BBEA5"/>
<path d="M263.512 213.528H268.996V207.099H263.512V213.528Z" fill="white"/>
<path d="M263.512 204.168H268.996V197.741H263.512V204.168Z" fill="white"/>
<path d="M262 182.993H267.437V176.565H262V182.993Z" fill="white"/>
<path d="M262 173.635H267.437V167.206H262V173.635Z" fill="white"/>
<path d="M264.08 87.7039H269.564V81.2755H264.08V87.7039Z" fill="white"/>
<path d="M289.799 54.7117C289.799 58.0204 286.678 59.2022 283.321 59.2022C280.296 59.2022 277.223 58.0204 277.223 54.7117C277.223 51.2617 279.965 50.0799 283.321 50.0799C287.104 50.0799 289.799 51.2617 289.799 54.7117ZM288.428 113.606V127.219C284.551 126.368 278.547 121.878 279.067 114.693C279.209 112.708 280.343 108.691 284.267 108.691C286.584 108.691 288.428 111.054 288.428 113.606ZM287.151 174.958C287.151 174.958 285.639 178.645 282.329 178.739C280.532 178.739 278.216 177.558 278.216 174.958C278.216 172.311 280.532 171.177 282.329 171.177C285.544 171.318 287.151 174.958 287.151 174.958ZM283.653 201.711C286.678 201.711 288.191 203.459 288.144 205.539C288.096 208.233 285.402 209.132 283.795 209.085C279.398 208.943 278.027 204.972 278.027 201.711H283.653ZM272.07 54.7117C272.07 61.9907 277.884 65.7251 283.321 65.7251H285.496C287.34 65.7251 288.428 66.7179 288.428 68.4191V73.5243V73.7601V76.6908C288.428 79.527 286.632 81.2281 283.842 81.2281H275.143V87.6097H284.646C287.34 87.6097 288.428 88.9328 288.428 91.3909V96.0696H288.475V103.018C287.199 102.499 285.78 102.12 284.173 102.12C276.798 102.12 273.11 109.211 273.11 115.071C273.11 118.049 274.481 123.721 278.831 127.313L264.08 126.793V133.175H288.428V138.705V139.13V141.871C288.428 144.707 286.632 146.409 283.842 146.409H264.08V152.79H284.646C287.34 152.79 288.428 154.113 288.428 156.571V160.873V161.251V167.018C286.678 165.836 285.024 164.795 282.329 164.749C277.223 164.749 272.117 168.719 272.117 174.958C272.117 181.197 277.223 185.12 282.329 185.12C285.024 185.12 286.678 184.175 288.428 182.946V188.618V188.996V192.636C288.428 194.29 287.435 195.33 285.591 195.33H270.935L272.495 201.711H274.102C274.15 209.604 276.798 215.323 284.267 215.182C288.428 215.134 292.399 211.542 292.636 207.052C292.825 203.885 291.217 201.853 290.082 200.86C292.493 199.868 294.715 197.741 294.715 193.203V188.996V188.618V179.543C294.715 178.314 294.432 176.235 293.675 174.958C294.432 173.398 294.715 171.744 294.715 170.231V161.251V160.873V154.775C294.715 151.845 293.392 149.387 291.406 148.252C293.108 147.023 294.715 144.943 294.715 141.493V139.13V138.705V96.0696V95.6447V89.5944C294.715 86.6637 293.392 84.2065 291.406 83.0715C293.108 81.8429 294.715 79.7628 294.715 76.3128V73.7601V73.5243V68.1355C294.715 65.2994 293.297 63.3615 292.21 62.5109C293.722 60.8089 295.236 58.3516 295.236 54.7117C295.236 47.4327 288.806 43.5093 283.321 43.5093C277.884 43.5093 272.07 47.4327 272.07 54.7117Z" fill="white"/>
<path d="M226.583 125.094C225.128 123.008 222.91 120.339 220.29 117.402C209.697 105.523 192.521 89.2403 192.521 89.2403L174.106 95.2624V101.132C177.399 112.202 181.73 126.963 181.514 127.309C181.167 127.863 190.306 145.858 190.306 145.858L193.352 170.337C193.352 170.337 218.137 158.04 225.752 149.319C231.183 143.1 233.922 135.614 226.583 125.094Z" fill="#EEC718"/>
<path d="M226.583 125.094C225.128 123.008 222.91 120.339 220.29 117.402C209.697 105.523 192.521 89.2403 192.521 89.2403L174.106 95.2624V101.132C177.399 112.202 181.73 126.963 181.514 127.309C181.167 127.863 190.306 145.858 190.306 145.858L193.352 170.337C193.352 170.337 218.137 158.04 225.752 149.319C231.183 143.1 233.922 135.614 226.583 125.094Z" stroke="#502A73" stroke-width="0.365333" stroke-miterlimit="10" stroke-linecap="round" stroke-linejoin="round"/>
<path d="M46.5171 308.899C46.5171 308.899 34.3177 297.753 38.5207 290.87C41.1916 286.497 49.3177 283.659 53.7836 287.126C60.8365 292.602 48.7231 311.716 48.7231 311.716L46.5171 308.899Z" fill="white"/>
<path d="M46.5171 308.899C46.5171 308.899 34.3177 297.753 38.5207 290.87C41.1916 286.497 49.3177 283.659 53.7836 287.126C60.8365 292.602 48.7231 311.716 48.7231 311.716L46.5171 308.899Z" stroke="#502A73" stroke-width="0.365333" stroke-miterlimit="10" stroke-linecap="round" stroke-linejoin="round"/>
<path d="M68.3486 304.427C65.4551 301.976 54.7282 304.004 39.253 306.838C23.7778 309.67 12.2555 310.65 5.95658 313.814C-0.342298 316.979 -0.639566 322.112 3.04473 328.898C6.72903 335.685 18.3374 343.925 44.4936 348.521C70.651 353.118 80.8247 352.881 83.95 352.187C87.0742 351.493 92.7717 350.271 93.9734 341.694C94.2144 339.975 95.5114 330.431 95.5114 330.431L97.8551 310.194C95.0798 307.071 84.7064 316.152 82.202 314.791C78.7404 312.911 69.4344 305.346 68.3486 304.427Z" fill="white"/>
<path d="M68.3486 304.427C65.4551 301.976 54.7282 304.004 39.253 306.838C23.7778 309.67 12.2555 310.65 5.95658 313.814C-0.342298 316.979 -0.639566 322.112 3.04473 328.898C6.72903 335.685 18.3374 343.925 44.4936 348.521C70.651 353.118 80.8247 352.881 83.95 352.187C87.0742 351.493 92.7717 350.271 93.9734 341.694C94.2144 339.975 95.5114 330.431 95.5114 330.431L97.8551 310.194C95.0798 307.071 84.7064 316.152 82.202 314.791C78.7404 312.911 69.4344 305.346 68.3486 304.427Z" stroke="#502A73" stroke-width="0.365333" stroke-miterlimit="10" stroke-linecap="round" stroke-linejoin="round"/>
<path d="M96.6974 309.579C93.3345 308.998 89.3632 314.134 86.2643 314.522C82.6351 321.352 80.6254 335.805 83.3352 341.158C85.3725 345.181 88.3578 347.389 91.0964 348.601C92.4392 347.093 93.5227 344.912 93.9738 341.694C94.2137 339.975 95.5118 330.431 95.5118 330.431L97.8463 310.266L96.6974 309.579Z" fill="#4BBEA5"/>
<path d="M96.6974 309.579C93.3345 308.998 89.3632 314.134 86.2643 314.522C82.6351 321.352 80.6254 335.805 83.3352 341.158C85.3725 345.181 88.3578 347.389 91.0964 348.601C92.4392 347.093 93.5227 344.912 93.9738 341.694C94.2137 339.975 95.5118 330.431 95.5118 330.431L97.8463 310.266L96.6974 309.579Z" stroke="#502A73" stroke-width="0.365333" stroke-miterlimit="10" stroke-linecap="round" stroke-linejoin="round"/>
<path d="M83.9497 352.187C87.0738 351.492 92.7724 350.272 93.973 341.694C94.1096 340.722 94.5836 337.25 94.9693 334.414C94.4539 334.107 93.9191 333.773 93.3027 333.672C79.4091 331.394 69.8334 346.662 51.0607 341.992C43.2422 340.047 43.1929 331.636 37.2658 327.025C31.34 322.415 19.082 329.439 12.324 328.702C5.09425 327.912 1.88742 319.155 1.91612 317.101C-0.170502 320.134 0.441253 324.103 3.04436 328.899C6.72866 335.686 18.3371 343.925 44.4944 348.52C70.6506 353.117 80.8255 352.881 83.9497 352.187Z" fill="#4BBEA5"/>
<path d="M83.9497 352.187C87.0738 351.492 92.7724 350.272 93.973 341.694C94.1096 340.722 94.5836 337.25 94.9693 334.414C94.4539 334.107 93.9191 333.773 93.3027 333.672C79.4091 331.394 69.8334 346.662 51.0607 341.992C43.2422 340.047 43.1929 331.636 37.2658 327.025C31.34 322.415 19.082 329.439 12.324 328.702C5.09425 327.912 1.88742 319.155 1.91612 317.101C-0.170502 320.134 0.441253 324.103 3.04436 328.899C6.72866 335.686 18.3371 343.925 44.4944 348.52C70.6506 353.117 80.8255 352.881 83.9497 352.187Z" stroke="#502A73" stroke-width="0.365333" stroke-miterlimit="10" stroke-linecap="round" stroke-linejoin="round"/>
<path d="M71.7103 326.592C71.0515 326.516 70.1356 326.408 68.8604 326.257C64.3291 325.726 56.7114 325.311 56.7114 325.311L58.0566 330.651L72.1499 327.103C72.0041 326.934 71.8572 326.765 71.7103 326.592Z" fill="#4BBEA5"/>
<path d="M71.7103 326.592C71.0515 326.516 70.1356 326.408 68.8604 326.257C64.3291 325.726 56.7114 325.311 56.7114 325.311L58.0566 330.651L72.1499 327.103C72.0041 326.934 71.8572 326.765 71.7103 326.592Z" stroke="#502A73" stroke-width="0.365333" stroke-miterlimit="10" stroke-linecap="round" stroke-linejoin="round"/>
<path d="M9.15936 312.519C7.97603 312.91 6.90632 313.337 5.95598 313.814C1.92162 315.842 0.352634 318.678 0.711882 322.238C6.78925 317.975 9.14789 312.545 9.15936 312.519Z" fill="#4BBEA5"/>
<path d="M9.15936 312.519C7.97603 312.91 6.90632 313.337 5.95598 313.814C1.92162 315.842 0.352634 318.678 0.711882 322.238C6.78925 317.975 9.14788 312.545 9.15936 312.519Z" stroke="#502A73" stroke-width="0.365333" stroke-miterlimit="10" stroke-linecap="round" stroke-linejoin="round"/>
<path d="M185.183 194.171C185.183 194.171 212.965 180.639 217.949 183.408C222.934 186.176 207.337 196.801 200.691 199.846L194.045 202.892H182.691L185.183 194.171Z" fill="#502A73"/>
<path d="M185.183 194.171C185.183 194.171 212.965 180.639 217.949 183.408C222.934 186.176 207.337 196.801 200.691 199.846L194.045 202.892H182.691L185.183 194.171Z" stroke="#502A73" stroke-width="0.365333" stroke-miterlimit="10" stroke-linecap="round" stroke-linejoin="round"/>
<path d="M185.183 194.171C185.183 194.171 212.965 180.639 217.949 183.408C222.934 186.176 207.337 196.801 200.691 199.846L194.045 202.892H182.691L185.183 194.171Z" stroke="#502A73" stroke-width="0.365333" stroke-miterlimit="10" stroke-linecap="round" stroke-linejoin="round"/>
<path d="M195.568 174.098C195.568 174.098 195.568 179.082 194.322 183.374C193.077 187.664 192.522 187.526 192.799 191.264C193.077 195.001 198.06 217.427 198.06 217.427C198.06 217.427 210.799 227.602 237.107 233.346C247.844 235.692 256.31 239.289 256.31 239.289L208.079 301.889C208.079 301.889 210.262 304.163 209.149 303.174C205.503 299.931 193.971 287.656 181.584 278.475C165.522 266.57 156.661 256.603 152.133 239.57C149.198 228.528 149.6 198.531 149.6 198.531L136 191.056L124.053 183.939L122.392 161.64" fill="#008056"/>
<path d="M195.568 174.098C195.568 174.098 195.568 179.082 194.322 183.374C193.077 187.664 192.522 187.526 192.799 191.264C193.077 195.001 198.06 217.427 198.06 217.427C198.06 217.427 210.799 227.602 237.107 233.346C247.844 235.692 256.31 239.289 256.31 239.289L208.079 301.889C208.079 301.889 210.262 304.163 209.149 303.174C205.503 299.931 193.971 287.656 181.584 278.475C165.522 266.57 156.661 256.603 152.133 239.57C149.198 228.528 149.6 198.531 149.6 198.531L136 191.056L124.053 183.939L122.392 161.64" stroke="#502A73" stroke-width="0.365333" stroke-miterlimit="10" stroke-linecap="round" stroke-linejoin="round"/>
<path d="M158.46 195.14C158.46 195.14 160.676 220.334 162.199 227.117C163.722 233.9 165.107 242.068 174.246 249.682C180.566 254.948 200.666 265.446 212.459 271.419" fill="#008056"/>
<path d="M158.46 195.14C158.46 195.14 160.676 220.334 162.199 227.117C163.722 233.9 165.107 242.068 174.246 249.682C180.566 254.948 200.666 265.446 212.459 271.419" stroke="#502A73" stroke-width="0.365333" stroke-miterlimit="10" stroke-linecap="round" stroke-linejoin="round"/>
<path d="M120.938 159.494C120.938 159.494 102.941 179.596 85.4882 207.875C60.4993 248.366 43.7397 302.545 43.7397 302.545C43.7397 302.545 46.0307 318.482 73.9716 322.672C91.8961 325.361 107.451 320.507 108.69 312.002C108.726 311.756 108.747 311.509 108.759 311.263C109.281 305.949 112.955 272.757 125.715 244.005C139.63 212.651 151.676 199.569 151.676 199.569L175.492 188.772" fill="#008056"/>
<path d="M120.938 159.494C120.938 159.494 102.941 179.596 85.4882 207.875C60.4993 248.366 43.7397 302.545 43.7397 302.545C43.7397 302.545 46.0307 318.482 73.9716 322.672C91.8961 325.361 107.451 320.507 108.69 312.002C108.726 311.756 108.747 311.509 108.759 311.263C109.281 305.949 112.955 272.757 125.715 244.005C139.63 212.651 151.676 199.569 151.676 199.569L175.492 188.772" stroke="#502A73" stroke-width="0.365333" stroke-miterlimit="10" stroke-linecap="round" stroke-linejoin="round"/>
<path d="M72.8144 290.292C69.222 301.581 66.0691 312.041 63.645 320.286C65.3242 320.836 67.1457 321.337 69.1175 321.776C77.1369 294.544 93.1676 242.99 107.049 216.056C110.056 210.221 111.143 208.105 113.963 203.064C121.661 189.308 132.766 172.679 141.915 167.341L135.061 164.754C127.481 171.849 117.881 184.512 110.367 197.843C107.254 203.365 105.468 206.759 102.013 213.463C93.7759 229.445 83.9523 255.295 72.8144 290.292Z" fill="#4BBEA5"/>
<path d="M72.8144 290.292C69.222 301.581 66.0691 312.041 63.645 320.286C65.3242 320.836 67.1457 321.337 69.1175 321.776C77.1369 294.544 93.1676 242.99 107.049 216.056C110.056 210.221 111.143 208.105 113.963 203.064C121.661 189.308 132.766 172.679 141.915 167.341L135.061 164.754C127.481 171.849 117.881 184.512 110.367 197.843C107.254 203.365 105.468 206.759 102.013 213.463C93.7759 229.445 83.9523 255.295 72.8144 290.292Z" stroke="#502A73" stroke-width="0.365333" stroke-miterlimit="10" stroke-linecap="round" stroke-linejoin="round"/>
<path d="M180.061 89.2404C180.061 89.2404 187.122 96.5776 190.861 113.465C194.599 130.354 198.573 149.059 201.799 155.549C209.2 170.435 215.565 176.14 218.371 180.206C220.448 183.217 218.579 186.179 218.579 186.179C218.579 186.179 218.922 184.841 218.594 184.147C216.978 180.726 210.213 185.836 206.446 187.864C201.662 190.439 195.291 193.755 185.184 194.17C168.702 194.847 166.492 188.634 148.63 190.018C140.48 190.65 129.696 195.174 119.069 190.848C113.009 188.381 109.032 183.735 107.75 178.286C107.195 175.932 107.191 172.966 108.22 171.39L118.596 155.506C119.735 153.505 119.978 151.117 119.264 148.928L112.492 128.14L120.661 92.1471L138.505 89.2404H180.061Z" fill="#EEC718"/>
<path d="M180.061 89.2404C180.061 89.2404 187.122 96.5776 190.861 113.465C194.599 130.354 198.573 149.059 201.799 155.549C209.2 170.435 215.565 176.14 218.371 180.206C220.448 183.217 218.579 186.179 218.579 186.179C218.579 186.179 218.922 184.841 218.594 184.147C216.978 180.726 210.213 185.836 206.446 187.864C201.662 190.439 195.291 193.755 185.184 194.17C168.702 194.847 166.492 188.634 148.63 190.018C140.48 190.65 129.696 195.174 119.069 190.848C113.009 188.381 109.032 183.735 107.75 178.286C107.195 175.932 107.191 172.966 108.22 171.39L118.596 155.506C119.735 153.505 119.978 151.117 119.264 148.928L112.492 128.14L120.661 92.1471L138.505 89.2404H180.061Z" stroke="#502A73" stroke-width="0.365333" stroke-miterlimit="10" stroke-linecap="round" stroke-linejoin="round"/>
<path d="M149.541 86.7063L164.258 80.0278C164.099 78.5498 163.365 71.6372 163.159 69.7737C162.193 61.0274 160.794 49.2288 159.893 45.5924C158.135 38.4916 157.053 36.6476 152.358 35.5678C148.39 34.6567 142.894 37.0836 138.661 39.8239C136.121 41.4682 136.247 50.0034 136.247 50.0034C136.247 50.0034 135.986 52.848 135.763 56.5728C135.749 57.0261 135.58 57.4621 135.284 57.8064L132.979 61.0137C132.371 61.8605 132.62 63.047 133.517 63.5772L135.207 64.5744C135.881 65.015 135.69 65.3535 135.165 66.2853C134.42 67.6015 135.71 68.2659 136.002 68.4196C136.526 68.6951 135.746 68.7673 135.657 69.7749C135.579 70.6378 136.014 70.9006 136.076 71.4055C136.147 71.9918 136.212 72.4153 136.277 72.7951C136.651 74.9971 138.456 76.6725 140.681 76.8756L146.621 77.4184L148.816 87.0769L149.541 86.7063Z" fill="#BF792A"/>
<path d="M149.541 86.7063L164.258 80.0278C164.099 78.5498 163.365 71.6373 163.159 69.7737C162.193 61.0274 160.794 49.2288 159.893 45.5924C158.135 38.4916 157.053 36.6476 152.358 35.5678C148.39 34.6567 142.894 37.0836 138.661 39.8239C136.121 41.4682 136.247 50.0034 136.247 50.0034C136.247 50.0034 135.986 52.848 135.763 56.5728C135.749 57.0261 135.58 57.4621 135.284 57.8064L132.979 61.0137C132.371 61.8605 132.62 63.047 133.517 63.5772L135.207 64.5744C135.881 65.015 135.69 65.3535 135.165 66.2853C134.42 67.6015 135.71 68.2659 136.002 68.4196C136.526 68.6951 135.746 68.7673 135.657 69.7749C135.579 70.6378 136.014 70.9006 136.076 71.4055C136.147 71.9918 136.212 72.4153 136.277 72.7951C136.651 74.9971 138.456 76.6725 140.681 76.8756L146.621 77.4184L148.816 87.0769L149.541 86.7063Z" stroke="#502A73" stroke-width="0.365333" stroke-miterlimit="10" stroke-linecap="round" stroke-linejoin="round"/>
<path d="M142.063 39.3708C142.063 39.3708 137.304 38.3771 133.968 39.2664C127.74 40.928 127.206 48.9227 134.056 49.5457C140.906 50.1688 142.33 48.0919 142.33 48.0919" fill="#502A73"/>
<path d="M142.063 39.3708C142.063 39.3708 137.304 38.3771 133.968 39.2664C127.74 40.928 127.206 48.9227 134.056 49.5457C140.906 50.1688 142.33 48.0919 142.33 48.0919" stroke="#502A73" stroke-width="0.365333" stroke-miterlimit="10" stroke-linecap="round" stroke-linejoin="round"/>
<path d="M136.126 68.4904C137.504 68.7153 138.891 68.1116 139.679 66.9444L139.797 66.7687" stroke="#502A73" stroke-width="0.365333" stroke-miterlimit="10" stroke-linecap="round" stroke-linejoin="round"/>
<path d="M159.636 65.8794C156.561 65.8794 154.045 63.3641 154.045 60.2899V56.2771C154.045 53.2029 156.561 50.6876 159.636 50.6876C162.711 50.6876 165.227 53.2029 165.227 56.2771V60.2899C165.227 63.3641 162.711 65.8794 159.636 65.8794Z" fill="#EEC718"/>
<path d="M159.636 65.8794C156.561 65.8794 154.045 63.3641 154.045 60.2899V56.2771C154.045 53.2029 156.561 50.6876 159.636 50.6876C162.711 50.6876 165.227 53.2029 165.227 56.2771V60.2899C165.227 63.3641 162.711 65.8794 159.636 65.8794Z" stroke="#502A73" stroke-width="0.365333" stroke-miterlimit="10" stroke-linecap="round" stroke-linejoin="round"/>
<path d="M158.148 65.8794C155.073 65.8794 152.557 63.3641 152.557 60.2899V56.2771C152.557 53.2029 155.073 50.6876 158.148 50.6876C161.223 50.6876 163.739 53.2029 163.739 56.2771V60.2899C163.739 63.3641 161.223 65.8794 158.148 65.8794Z" fill="#EEC718"/>
<path d="M158.148 65.8794C155.073 65.8794 152.557 63.3641 152.557 60.2899V56.2771C152.557 53.2029 155.073 50.6876 158.148 50.6876C161.223 50.6876 163.739 53.2029 163.739 56.2771V60.2899C163.739 63.3641 161.223 65.8794 158.148 65.8794Z" stroke="#502A73" stroke-width="0.365333" stroke-miterlimit="10" stroke-linecap="round" stroke-linejoin="round"/>
<path d="M170.368 76.1242C170.368 76.1242 179.196 75.2934 184.076 82.665C188.956 90.0366 178.572 93.0476 178.052 92.9432C177.534 92.8399 159.152 89.6212 159.152 89.6212L160.607 82.8727" fill="#008056"/>
<path d="M170.368 76.1242C170.368 76.1242 179.196 75.2934 184.076 82.665C188.956 90.0366 178.572 93.0476 178.052 92.9432C177.534 92.8399 159.152 89.6212 159.152 89.6212L160.607 82.8727" stroke="#502A73" stroke-width="0.365333" stroke-miterlimit="10" stroke-linecap="round" stroke-linejoin="round"/>
<path d="M152.898 35.2521C157.568 36.4364 158.607 38.3045 160.207 45.4431C160.782 48.0124 161.514 54.6209 162.165 61.3647C162.251 62.2598 161.557 63.0401 160.656 63.055L160.576 63.0561C157.529 63.1066 154.78 61.2098 153.767 58.3365C153.554 57.7329 153.436 57.3232 153.436 57.3232C153.436 57.3232 151.621 54.4269 150.209 53.8842C149.426 53.5835 148.701 54.4602 148.654 55.6203C148.502 59.3795 147.87 60.8105 145.751 59.8867C143.632 58.963 144.356 56.1195 144.356 56.1195C144.356 56.1195 145.986 54.35 145.757 53.6983C145.641 53.3655 144.752 52.6173 143.91 51.9632C142.941 51.2105 142.37 50.0538 142.37 48.8271C142.37 48.4278 142.359 48.1202 142.331 48.0916" fill="#502A73"/>
<path d="M152.898 35.2521C157.568 36.4364 158.607 38.3045 160.207 45.4431C160.782 48.0124 161.514 54.6209 162.165 61.3647C162.251 62.2598 161.557 63.0401 160.656 63.055L160.576 63.0561C157.529 63.1066 154.78 61.2098 153.767 58.3365C153.554 57.7329 153.436 57.3232 153.436 57.3232C153.436 57.3232 151.621 54.4269 150.209 53.8842C149.426 53.5835 148.701 54.4602 148.654 55.6203C148.502 59.3795 147.87 60.8105 145.751 59.8867C143.632 58.963 144.356 56.1195 144.356 56.1195C144.356 56.1195 145.986 54.35 145.757 53.6983C145.641 53.3655 144.752 52.6173 143.91 51.9632C142.941 51.2105 142.37 50.0538 142.37 48.8271C142.37 48.4278 142.359 48.1202 142.331 48.0916" stroke="#502A73" stroke-width="0.365333" stroke-miterlimit="10" stroke-linecap="round" stroke-linejoin="round"/>
<path d="M139.902 39.0464C139.902 39.0464 138.695 42.8493 142.953 52.712C145.169 57.8483 149.577 61.1141 148.283 65.361C143.934 79.6497 148.762 82.2499 148.762 82.2499L168.499 87.6489L174.251 75.3098C175.671 72.2655 174.785 69.0295 173.644 65.8705C172.134 61.6924 169.226 53.4912 165.384 46.9504C163.471 43.695 159.257 33.3491 151.156 33.6612C146.379 33.8448 139.902 39.0464 139.902 39.0464Z" fill="#008056"/>
<path d="M139.902 39.0464C139.902 39.0464 138.695 42.8493 142.953 52.712C145.169 57.8483 149.577 61.1141 148.283 65.361C143.934 79.6497 148.762 82.2499 148.762 82.2499L168.499 87.6489L174.251 75.3098C175.671 72.2655 174.785 69.0295 173.644 65.8705C172.134 61.6924 169.226 53.4912 165.384 46.9504C163.471 43.695 159.257 33.3491 151.156 33.6612C146.379 33.8448 139.902 39.0464 139.902 39.0464Z" stroke="#502A73" stroke-width="0.365333" stroke-miterlimit="10" stroke-linecap="round" stroke-linejoin="round"/>
<path d="M147.107 79.8274C147.107 79.8274 132.776 83.496 137.345 92.217C141.914 100.938 151.365 104.675 168.811 104.883C186.257 105.091 188.506 110.143 194.945 115.335C198.869 118.498 207.891 121.496 212.771 121.269C216.662 121.09 220.477 120.269 222.719 117.085L231.014 105.299C231.014 105.299 211.186 106.653 206.922 99.8995C195.776 82.2498 177.014 81.6967 167.045 83.5648C155.612 85.7083 147.107 79.8274 147.107 79.8274Z" fill="#008056"/>
<path d="M147.107 79.8274C147.107 79.8274 132.776 83.496 137.345 92.217C141.914 100.938 151.365 104.675 168.811 104.883C186.257 105.091 188.506 110.143 194.945 115.335C198.869 118.498 207.891 121.496 212.771 121.269C216.662 121.09 220.477 120.269 222.719 117.085L231.014 105.299C231.014 105.299 211.186 106.653 206.922 99.8995C195.776 82.2498 177.014 81.6967 167.045 83.5648C155.612 85.7083 147.107 79.8274 147.107 79.8274Z" stroke="#502A73" stroke-width="0.365333" stroke-miterlimit="10" stroke-linecap="round" stroke-linejoin="round"/>
<path d="M147.376 36.9075C143.688 43.2371 146.225 52.5376 146.225 52.5376H151.013C151.013 52.5376 147.66 40.9283 153.142 35.3193C153.116 35.3124 154.195 34.3875 154.941 34.3382C153.785 33.8654 152.528 33.6084 151.156 33.6612C151.156 33.6612 148.769 34.5172 147.376 36.9075Z" fill="#4BBEA5"/>
<path d="M147.376 36.9075C143.688 43.2371 146.225 52.5376 146.225 52.5376H151.013C151.013 52.5376 147.66 40.9283 153.142 35.3193C153.116 35.3124 154.195 34.3875 154.941 34.3382C153.785 33.8654 152.528 33.6084 151.156 33.6612C151.156 33.6612 148.769 34.5172 147.376 36.9075Z" stroke="#502A73" stroke-width="0.365333" stroke-miterlimit="10" stroke-linecap="round" stroke-linejoin="round"/>
<path d="M137.38 55.5637C137.958 55.4283 138.563 55.4627 139.123 55.6636" stroke="#502A73" stroke-width="0.730667" stroke-miterlimit="10" stroke-linecap="round" stroke-linejoin="round"/>
<path d="M137.635 55.5564C137.449 55.8594 137.309 56.3679 137.281 56.8419C137.239 57.5868 137.493 57.9621 137.832 57.9816C138.171 58.0011 138.467 57.6568 138.509 56.9119C138.535 56.4379 138.454 55.9168 138.305 55.5943L137.635 55.5564Z" fill="#502A73"/>
<path d="M136.521 53.1688C136.664 53.4741 137.044 53.5911 137.326 53.4075C137.807 53.0953 138.597 52.7452 139.547 52.9507C140.067 53.0632 140.447 53.2112 140.723 53.3604C141.047 53.5349 141.441 53.2962 141.45 52.9277C141.453 52.7785 141.39 52.6374 141.278 52.5386C140.705 52.0336 138.817 50.6804 136.669 52.4996C136.475 52.6637 136.415 52.9392 136.521 53.1688Z" fill="#502A73"/>
<path d="M197.257 171.537C197.257 171.537 211.802 172.991 225.199 166.761C238.595 160.531 248.16 145.189 246.273 131.773C244.185 116.926 232.537 105.299 213.568 113.881C198.183 120.842 196.364 130.286 181.514 136.1C164.614 142.716 148.524 133.815 148.979 115.861C149.36 100.811 156.791 96.0509 155.907 86.296C155.155 77.9926 147.794 76.0201 147.794 65.8784V60.1352" stroke="#502A73" stroke-width="1.828" stroke-miterlimit="10" stroke-linecap="round" stroke-linejoin="round"/>
<path d="M197.257 171.537C197.257 171.537 211.802 172.991 225.199 166.761C238.595 160.531 248.16 145.189 246.273 131.773C244.185 116.926 232.537 105.299 213.568 113.881C198.183 120.842 196.364 130.286 181.514 136.1C164.614 142.716 148.524 133.815 148.979 115.861C149.36 100.811 156.791 96.0509 155.907 86.296C155.155 77.9926 147.794 76.0201 147.794 65.8784V60.1352" stroke="#4BBEA5" stroke-width="1.096" stroke-miterlimit="10" stroke-linecap="round" stroke-linejoin="round"/>
<path d="M148.978 65.8794C145.904 65.8794 143.388 63.3641 143.388 60.2899V56.2771C143.388 53.2029 145.904 50.6876 148.978 50.6876C152.053 50.6876 154.569 53.2029 154.569 56.2771V60.2899C154.569 63.3641 152.053 65.8794 148.978 65.8794Z" fill="#4BBEA5"/>
<path d="M148.978 65.8794C145.904 65.8794 143.388 63.3641 143.388 60.2899V56.2771C143.388 53.2029 145.904 50.6876 148.978 50.6876C152.053 50.6876 154.569 53.2029 154.569 56.2771V60.2899C154.569 63.3641 152.053 65.8794 148.978 65.8794Z" stroke="#502A73" stroke-width="0.365333" stroke-miterlimit="10" stroke-linecap="round" stroke-linejoin="round"/>
<path d="M147.49 65.8794C144.415 65.8794 141.899 63.3641 141.899 60.2899V56.2771C141.899 53.2029 144.415 50.6876 147.49 50.6876C150.565 50.6876 153.081 53.2029 153.081 56.2771V60.2899C153.081 63.3641 150.565 65.8794 147.49 65.8794Z" fill="#4BBEA5"/>
<path d="M147.49 65.8794C144.415 65.8794 141.899 63.3641 141.899 60.2899V56.2771C141.899 53.2029 144.415 50.6876 147.49 50.6876C150.565 50.6876 153.081 53.2029 153.081 56.2771V60.2899C153.081 63.3641 150.565 65.8794 147.49 65.8794Z" stroke="#502A73" stroke-width="0.365333" stroke-miterlimit="10" stroke-linecap="round" stroke-linejoin="round"/>
<path d="M149.513 55.2659C148.277 54.9125 147.598 55.4851 147.505 55.57C147.416 55.4862 146.751 54.9216 145.506 55.2888C144.312 55.6423 143.952 56.7117 144.157 57.2419C144.267 57.5207 144.539 57.2327 144.99 56.9206C145.629 56.4799 146.027 56.7381 146.027 56.7381C146.027 56.7381 145.05 57.0181 144.685 57.6034C144.32 58.1886 144.77 59.04 145.18 58.5604C145.858 57.7663 146.273 57.7583 146.273 57.7583C146.273 57.7583 145.855 58.0761 145.65 58.534C145.443 58.9907 145.59 59.4703 145.934 59.4795C146.143 59.4864 147.082 57.8592 146.948 58.8656C146.763 60.2529 146.733 61.249 146.794 61.9386C146.824 62.268 147.044 62.5124 147.306 62.5112L147.542 62.5101C147.804 62.5089 148.03 62.2611 148.067 61.9317C148.144 61.2398 148.138 60.2449 147.986 58.8599C147.876 57.8547 148.776 59.4703 148.985 59.4623C149.329 59.4485 149.488 58.9677 149.293 58.5122C149.097 58.0578 148.688 57.7445 148.688 57.7445C148.688 57.7445 149.101 57.7479 149.761 58.534C150.159 59.009 150.63 58.1519 150.278 57.5712C149.927 56.9894 148.957 56.7209 148.957 56.7209C148.957 56.7209 149.363 56.4581 149.99 56.8919C150.435 57.1983 150.7 57.4829 150.814 57.2029C151.033 56.6704 150.699 55.6056 149.513 55.2659Z" fill="#4BBEA5"/>
<path d="M149.513 55.2659C148.277 54.9125 147.598 55.4851 147.505 55.57C147.416 55.4862 146.751 54.9216 145.506 55.2888C144.312 55.6423 143.952 56.7117 144.157 57.2419C144.267 57.5207 144.539 57.2327 144.99 56.9206C145.629 56.4799 146.027 56.7381 146.027 56.7381C146.027 56.7381 145.05 57.0181 144.685 57.6034C144.32 58.1886 144.77 59.04 145.18 58.5604C145.858 57.7663 146.273 57.7583 146.273 57.7583C146.273 57.7583 145.855 58.0761 145.65 58.534C145.443 58.9907 145.59 59.4703 145.934 59.4795C146.143 59.4864 147.082 57.8592 146.948 58.8656C146.763 60.2529 146.733 61.249 146.794 61.9386C146.824 62.268 147.044 62.5124 147.306 62.5112L147.542 62.5101C147.804 62.5089 148.03 62.2611 148.067 61.9317C148.144 61.2398 148.138 60.2449 147.986 58.8599C147.876 57.8547 148.776 59.4703 148.985 59.4623C149.329 59.4485 149.488 58.9677 149.293 58.5122C149.097 58.0578 148.688 57.7445 148.688 57.7445C148.688 57.7445 149.101 57.7479 149.761 58.534C150.159 59.009 150.63 58.1519 150.278 57.5712C149.927 56.9894 148.957 56.7209 148.957 56.7209C148.957 56.7209 149.363 56.4581 149.99 56.8919C150.435 57.1983 150.7 57.4829 150.814 57.2029C151.033 56.6704 150.699 55.6056 149.513 55.2659Z" stroke="#502A73" stroke-width="0.365333" stroke-miterlimit="10" stroke-linecap="round" stroke-linejoin="round"/>
<path d="M156.7 189.91C167.695 190.591 171.574 194.73 185.183 194.171C195.291 193.756 201.662 190.439 206.446 187.863C210.213 185.836 216.977 180.726 218.594 184.148C218.922 184.841 218.578 186.18 218.578 186.18C218.578 186.18 220.448 183.217 218.37 180.207C215.565 176.139 209.2 170.436 201.799 155.549C199.808 151.544 197.532 142.885 195.202 132.873" fill="#EEC718"/>
<path d="M156.7 189.91C167.695 190.591 171.574 194.73 185.183 194.171C195.291 193.756 201.662 190.439 206.446 187.863C210.213 185.836 216.977 180.726 218.594 184.148C218.922 184.841 218.578 186.18 218.578 186.18C218.578 186.18 220.448 183.217 218.37 180.207C215.565 176.139 209.2 170.436 201.799 155.549C199.808 151.544 197.532 142.885 195.202 132.873" stroke="#502A73" stroke-width="0.365333" stroke-miterlimit="10" stroke-linecap="round" stroke-linejoin="round"/>
<path d="M66.211 119.522L59.593 112.412L58.5325 102.653C58.4923 102.283 58.4326 101.916 58.3271 101.56C57.519 98.8384 55.0732 97.1114 52.4069 97.1114H50.046L47.933 94.3058C47.2592 93.4119 45.7373 92.0498 44.7147 91.5942C41.3403 90.0887 39.7116 93.771 39.0252 94.2507C38.3309 94.7372 37.3943 93.6184 35.6807 94.6569C32.9617 96.3036 33.8156 97.886 32.9284 98.602C32.2925 99.115 31.3709 98.5504 30.1761 99.5361C28.8171 100.66 28.9399 103.479 28.4108 104.001C24.0493 108.309 27.1655 113.5 29.8306 117.342C32.5909 121.321 41.3231 128.001 41.3231 128.001C41.3231 128.001 46.7956 133.144 47.7264 134.369C48.2911 132.965 56.7099 135.857 57.5913 134.265C61.5683 127.09 60.3988 120.789 66.211 119.522Z" fill="#BF792A"/>
<path d="M66.211 119.522L59.593 112.412L58.5325 102.653C58.4923 102.283 58.4326 101.916 58.3271 101.56C57.519 98.8384 55.0732 97.1114 52.4069 97.1114H50.046L47.933 94.3058C47.2592 93.4119 45.7373 92.0498 44.7147 91.5942C41.3403 90.0887 39.7116 93.771 39.0252 94.2507C38.3309 94.7372 37.3943 93.6184 35.6807 94.6569C32.9617 96.3036 33.8156 97.886 32.9284 98.602C32.2925 99.115 31.3709 98.5504 30.1761 99.5361C28.8171 100.659 28.9399 103.479 28.4108 104.001C24.0493 108.309 27.1655 113.5 29.8306 117.342C32.5909 121.321 41.3231 128.001 41.3231 128.001C41.3231 128.001 46.7956 133.144 47.7264 134.369C48.2911 132.965 56.7099 135.857 57.5913 134.265C61.5683 127.09 60.3988 120.789 66.211 119.522Z" stroke="#502A73" stroke-width="0.365333" stroke-miterlimit="10" stroke-linecap="round" stroke-linejoin="round"/>
<path d="M50.0454 97.1114C50.0454 97.1114 51.4388 99.1207 52.6072 102.027L50.0454 97.1114Z" fill="#BF792A"/>
<path d="M50.0454 97.1114C50.0454 97.1114 51.4388 99.1207 52.6072 102.027" stroke="#502A73" stroke-width="0.365333" stroke-miterlimit="10" stroke-linecap="round" stroke-linejoin="round"/>
<path d="M60.4995 117.688C60.4995 117.688 57.9492 118.825 55.9785 120.457C52.9221 122.986 51.5688 124.471 51.5688 124.471" fill="#EEC718"/>
<path d="M60.4995 117.688C60.4995 117.688 57.9492 118.825 55.9785 120.457C52.9221 122.986 51.5688 124.471 51.5688 124.471" stroke="#502A73" stroke-width="0.365333" stroke-miterlimit="10" stroke-linecap="round" stroke-linejoin="round"/>
<path d="M81.1367 168.183C85.8827 170.556 91.3678 170.986 96.4248 169.381C100.652 168.04 104.326 165.359 106.891 161.744L128.793 130.875C131.341 127.284 132.727 123 132.764 118.597C132.804 113.784 132.347 107.463 130.215 102.391C126.199 92.8395 120.661 92.1476 120.661 92.1476L116.856 93.3008C113.51 94.3152 110.654 96.5241 108.83 99.5065L88.6695 132.48L83.6618 130.16C77.4433 127.277 64.8616 114.019 64.8616 114.019C60.5001 114.123 51.9895 115.684 44.9228 125.44C42.742 128.451 39.3148 136.964 41.8078 143.193C46.9749 149.997 66.0242 159.676 81.1367 168.183Z" fill="#EEC718"/>
<path d="M81.1367 168.183C85.8827 170.556 91.3678 170.986 96.4248 169.381C100.652 168.04 104.326 165.359 106.891 161.744L128.793 130.875C131.341 127.284 132.727 123 132.764 118.597C132.804 113.784 132.347 107.463 130.215 102.391C126.199 92.8395 120.661 92.1476 120.661 92.1476L116.856 93.3008C113.51 94.3152 110.654 96.5241 108.83 99.5065L88.6695 132.48L83.6618 130.16C77.4433 127.277 64.8616 114.019 64.8616 114.019C60.5001 114.123 51.9895 115.684 44.9228 125.44C42.742 128.451 39.3148 136.964 41.8078 143.193C46.9749 149.997 66.0242 159.676 81.1367 168.183Z" stroke="#502A73" stroke-width="0.365333" stroke-miterlimit="10" stroke-linecap="round" stroke-linejoin="round"/>
<path d="M88.6691 132.48C85.9868 136.833 83.9151 141.534 82.5126 146.451L82.3071 147.174" fill="#EEC718"/>
<path d="M88.6691 132.48C85.9868 136.833 83.9151 141.534 82.5126 146.451L82.3071 147.174" stroke="#502A73" stroke-width="0.365333" stroke-miterlimit="10" stroke-linecap="round" stroke-linejoin="round"/>
<path d="M152.557 144.128C152.557 144.128 158.322 151.603 168.292 154.511C178.261 157.417 188.853 157.417 188.853 157.417" fill="#EEC718"/>
<path d="M152.557 144.128C152.557 144.128 158.322 151.603 168.292 154.511C178.261 157.417 188.853 157.417 188.853 157.417" stroke="#502A73" stroke-width="0.365333" stroke-miterlimit="10" stroke-linecap="round" stroke-linejoin="round"/>
<path d="M249.48 283.928C235.971 301.388 218.305 310.35 210.021 303.944C201.738 297.538 205.974 278.19 219.483 260.73C232.991 243.269 250.658 234.307 258.942 240.714C267.225 247.119 262.989 266.467 249.48 283.928Z" fill="#502A73"/>
<path d="M249.48 283.928C235.971 301.388 218.305 310.35 210.021 303.944C201.738 297.538 205.974 278.19 219.483 260.73C232.991 243.269 250.658 234.307 258.942 240.714C267.225 247.119 262.989 266.467 249.48 283.928Z" stroke="#502A73" stroke-width="0.365333" stroke-miterlimit="10" stroke-linecap="round" stroke-linejoin="round"/>
<path d="M249.48 283.928C235.971 301.388 218.305 310.35 210.021 303.944C201.738 297.538 205.974 278.19 219.483 260.73C232.991 243.269 250.658 234.307 258.942 240.714C267.225 247.119 262.989 266.467 249.48 283.928Z" stroke="#502A73" stroke-width="0.365333" stroke-miterlimit="10" stroke-linecap="round" stroke-linejoin="round"/>
<path d="M178.953 225.733C178.953 225.733 180.907 226.612 188.715 224.418C200.047 221.234 198.061 217.427 198.061 217.427" fill="#008056"/>
<path d="M178.953 225.733C178.953 225.733 180.907 226.612 188.715 224.418C200.047 221.234 198.061 217.427 198.061 217.427" stroke="#502A73" stroke-width="0.365333" stroke-miterlimit="10" stroke-linecap="round" stroke-linejoin="round"/>
<path d="M219.483 260.73C212.955 269.167 208.593 278.045 206.762 285.689L208.272 288.331L226.778 290.125L241.823 247.398L235.853 244.945C230.29 248.746 224.589 254.13 219.483 260.73Z" fill="#BF792A"/>
<path d="M219.483 260.73C212.955 269.167 208.593 278.045 206.762 285.689L208.272 288.331L226.778 290.125L241.823 247.398L235.853 244.945C230.29 248.746 224.589 254.13 219.483 260.73Z" stroke="#502A73" stroke-width="0.365333" stroke-miterlimit="10" stroke-linecap="round" stroke-linejoin="round"/>
<path d="M220.633 296.122C220.633 296.122 220.86 311.018 213.852 313.837C209.757 315.485 204.049 309.941 201.981 304.767C198.271 295.485 212.548 284.453 212.548 284.453L219.57 276.708L220.633 296.122Z" fill="white"/>
<path d="M220.633 296.122C220.633 296.122 220.86 311.018 213.852 313.837C209.757 315.485 204.049 309.941 201.981 304.767C198.271 295.485 212.548 284.453 212.548 284.453L219.57 276.708L220.633 296.122Z" stroke="#502A73" stroke-width="0.365333" stroke-miterlimit="10" stroke-linecap="round" stroke-linejoin="round"/>
<path d="M219.475 297.078C219.502 300.36 218.687 309.78 214.667 311.399C213.607 311.825 211.203 311.332 208.081 308.267C206.659 306.87 205.407 305.031 204.733 303.345C203.482 300.213 206.29 295.941 208.076 293.674C210.903 290.083 214.252 287.469 214.286 287.443L214.492 287.282L216.953 284.568L219.475 297.078Z" fill="white"/>
<path d="M219.475 297.078C219.502 300.36 218.687 309.78 214.667 311.399C213.607 311.825 211.203 311.332 208.081 308.267C206.659 306.87 205.407 305.031 204.733 303.345C203.482 300.213 206.29 295.941 208.076 293.674C210.903 290.083 214.252 287.469 214.286 287.443L214.492 287.282L216.953 284.568L219.475 297.078Z" stroke="#502A73" stroke-width="0.365333" stroke-miterlimit="10" stroke-linecap="round" stroke-linejoin="round"/>
<path d="M230.47 256.464C229.982 258.818 229.719 261.093 229.585 262.602C229.477 263.804 228.971 264.936 228.148 265.822L218.123 276.622C216.731 278.303 215.79 280.309 215.389 282.454L212.723 299.91C212.723 299.91 210.486 307.901 210.242 320.857C209.996 333.812 214.723 344.315 223.68 348.528C232.637 352.742 262.953 296.957 262.953 296.957L279.109 258.078C279.109 258.078 274.264 250.531 264.361 249.861C259.003 249.498 249.182 248.243 241.823 247.398C239.275 247.106 236.72 247.859 234.739 249.488C234.692 249.526 234.644 249.565 234.597 249.604C232.483 251.356 231.027 253.774 230.47 256.464Z" fill="white"/>
<path d="M230.47 256.464C229.982 258.818 229.719 261.093 229.585 262.602C229.477 263.804 228.971 264.936 228.148 265.822L218.123 276.622C216.731 278.303 215.79 280.309 215.389 282.454L212.723 299.91C212.723 299.91 210.486 307.901 210.242 320.857C209.996 333.812 214.723 344.315 223.68 348.528C232.637 352.742 262.953 296.957 262.953 296.957L279.109 258.078C279.109 258.078 274.264 250.531 264.361 249.861C259.003 249.498 249.182 248.243 241.823 247.398C239.275 247.106 236.72 247.859 234.739 249.488C234.692 249.526 234.644 249.565 234.597 249.604C232.483 251.356 231.027 253.774 230.47 256.464Z" stroke="#502A73" stroke-width="0.365333" stroke-miterlimit="10" stroke-linecap="round" stroke-linejoin="round"/>
<path d="M264.361 249.861C259.003 249.498 249.182 248.244 241.824 247.398C239.274 247.106 236.719 247.859 234.738 249.488C234.691 249.527 234.645 249.565 234.598 249.604C234.578 249.621 234.558 249.639 234.538 249.656C236.324 250.255 238.855 250.96 241.824 251.378C247.733 252.208 260.818 253.869 260.818 253.869L267.165 250.253C266.279 250.065 265.346 249.927 264.361 249.861Z" fill="#4BBEA5"/>
<path d="M264.361 249.861C259.003 249.498 249.182 248.244 241.824 247.398C239.274 247.106 236.719 247.859 234.738 249.488C234.691 249.527 234.645 249.565 234.598 249.604C234.578 249.621 234.558 249.639 234.538 249.656C236.324 250.255 238.855 250.96 241.824 251.378C247.733 252.208 260.818 253.869 260.818 253.869L267.165 250.253C266.279 250.065 265.346 249.927 264.361 249.861Z" stroke="#502A73" stroke-width="0.365333" stroke-miterlimit="10" stroke-linecap="round" stroke-linejoin="round"/>
<path d="M279.108 258.079C279.108 258.079 274.265 250.53 264.361 249.86C261.941 249.696 258.609 249.351 255.006 248.942C252.652 249.331 245.534 252.7 243.531 266.328C240.41 287.563 226.802 286.973 221.212 299.966C218.426 306.441 219.929 310.923 217.85 318.504C215.772 326.085 212.347 330.118 212.347 330.118L223.183 335.981C223.183 335.981 247.855 306.024 248.087 305.664C248.24 305.425 258.864 295.908 266.258 289.004L279.108 258.079Z" fill="#4BBEA5"/>
<path d="M279.108 258.079C279.108 258.079 274.265 250.53 264.361 249.86C261.941 249.696 258.609 249.351 255.006 248.942C252.652 249.331 245.534 252.7 243.531 266.328C240.41 287.563 226.802 286.973 221.212 299.966C218.426 306.441 219.929 310.923 217.85 318.504C215.772 326.085 212.347 330.118 212.347 330.118L223.183 335.981C223.183 335.981 247.855 306.024 248.087 305.664C248.24 305.425 258.864 295.908 266.258 289.004L279.108 258.079Z" stroke="#502A73" stroke-width="0.365333" stroke-miterlimit="10" stroke-linecap="round" stroke-linejoin="round"/>
<path d="M223.551 335.395C223.551 335.395 215.038 327.416 210.979 330.06C212.627 338.674 216.964 345.369 223.681 348.528C226.068 349.651 229.975 346.508 234.421 341.295C236.464 337.15 238.119 333.701 238.119 333.701L223.551 335.395Z" fill="#4BBEA5"/>
<path d="M223.551 335.395C223.551 335.395 215.038 327.416 210.979 330.06C212.627 338.674 216.964 345.369 223.681 348.528C226.068 349.651 229.975 346.508 234.421 341.295C236.464 337.15 238.119 333.701 238.119 333.701L223.551 335.395Z" stroke="#502A73" stroke-width="0.365333" stroke-miterlimit="10" stroke-linecap="round" stroke-linejoin="round"/>
<path d="M231.729 271.396C231.729 271.396 233.677 264.021 235.115 259.692L236.554 255.362L237.233 271.16L231.729 271.396Z" fill="#4BBEA5"/>
<path d="M231.729 271.396C231.729 271.396 233.677 264.021 235.115 259.692L236.554 255.362L237.233 271.16L231.729 271.396Z" stroke="#502A73" stroke-width="0.365333" stroke-miterlimit="10" stroke-linecap="round" stroke-linejoin="round"/>
<path d="M221.417 329.261C216.76 348.882 225.939 353.419 236.764 347.661C249.941 340.652 260.162 323.754 268.405 307.786C274.975 295.058 281.435 281.383 282.316 272.362C283.886 256.269 273.346 253.914 271.465 253.549C263.986 252.101 256.951 254.324 242.217 291.52C239.548 298.257 224.293 317.143 221.417 329.261Z" fill="#502A73"/>
<path d="M221.417 329.261C216.76 348.882 225.939 353.419 236.764 347.661C249.941 340.652 260.162 323.754 268.405 307.786C274.975 295.058 281.435 281.383 282.316 272.362C283.886 256.269 273.346 253.914 271.465 253.549C263.986 252.101 256.951 254.324 242.217 291.52C239.548 298.257 224.293 317.143 221.417 329.261Z" stroke="#502A73" stroke-width="0.365333" stroke-miterlimit="10" stroke-linecap="round" stroke-linejoin="round"/>
<path d="M221.417 329.261C216.76 348.882 225.939 353.419 236.764 347.661C249.941 340.652 260.162 323.754 268.405 307.786C274.975 295.058 281.435 281.383 282.316 272.362C283.886 256.269 273.346 253.914 271.465 253.549C263.986 252.101 256.951 254.324 242.217 291.52C239.548 298.257 224.293 317.143 221.417 329.261Z" stroke="#502A73" stroke-width="0.365333" stroke-miterlimit="10" stroke-linecap="round" stroke-linejoin="round"/>
</svg>
