<svg width="260" height="318" viewBox="0 0 260 318" fill="none" xmlns="http://www.w3.org/2000/svg">
<path d="M228.931 3.8147e-05H53.1789C36.5666 3.8147e-05 23.0996 13.467 23.0996 30.0793V249.389C23.0996 266.001 36.5666 279.468 53.1789 279.468H228.931C245.543 279.468 259.01 266.001 259.01 249.389V30.0793C259.01 13.467 245.543 3.8147e-05 228.931 3.8147e-05Z" fill="#EEC718"/>
<path d="M55.4845 272.008C40.2915 262.651 33.524 249.423 39.0652 243.087C43.3006 238.25 56.2793 236.683 71.4723 246.039C86.6652 255.396 95.4085 268.794 90.9915 275.959C86.5744 283.136 70.6774 281.364 55.4845 272.008Z" fill="#502A73" stroke="#502A73" stroke-width="0.228" stroke-miterlimit="10" stroke-linecap="round" stroke-linejoin="round"/>
<path d="M55.4845 272.008C40.2915 262.651 33.524 249.423 39.0652 243.087C43.3006 238.25 56.2793 236.683 71.4723 246.039C86.6652 255.396 95.4085 268.794 90.9915 275.959C86.5744 283.136 70.6774 281.364 55.4845 272.008Z" stroke="#502A73" stroke-width="0.228" stroke-miterlimit="10" stroke-linecap="round" stroke-linejoin="round"/>
<path d="M210.718 260.346L225.593 264.286L220.063 296.114L210.718 296.409L208.538 293.718L210.718 260.346Z" fill="#4BBEA5" stroke="#502A73" stroke-width="0.228" stroke-miterlimit="10" stroke-linecap="round" stroke-linejoin="round"/>
<path d="M224.969 256.872L211.809 263.832" stroke="#502A73" stroke-width="0.228" stroke-miterlimit="10" stroke-linecap="round" stroke-linejoin="round"/>
<path d="M209.628 275.642L222.788 268.681" stroke="#502A73" stroke-width="0.228" stroke-miterlimit="10" stroke-linecap="round" stroke-linejoin="round"/>
<path d="M208.538 281.546L221.698 274.586" stroke="#502A73" stroke-width="0.228" stroke-miterlimit="10" stroke-linecap="round" stroke-linejoin="round"/>
<path d="M207.448 287.451L220.609 280.49" stroke="#502A73" stroke-width="0.228" stroke-miterlimit="10" stroke-linecap="round" stroke-linejoin="round"/>
<path d="M209.333 259.438C206.835 261.311 205.211 261.993 204.654 274.926C204.098 287.859 204.087 305.573 205.472 311.205C206.857 316.837 210.922 318.007 217.043 316.292C223.163 314.577 231.895 306.765 240.354 286.622C248.814 266.478 250.483 258.268 250.494 255.645C250.506 253.011 250.563 248.219 243.909 245.687C242.569 245.176 240.286 244.211 240.286 244.211L235.676 246.743C232.667 248.401 229.193 248.98 225.786 248.492C223.89 248.219 221.721 248.458 220.165 250.218C218.019 252.648 217.372 258.507 216.872 266.217C216.657 269.544 215.158 285.111 215.044 288.677C215.033 289.108 214.726 289.472 214.295 289.562C213.738 289.676 213.216 289.267 213.182 288.7C213.034 285.997 213.296 277.81 213.489 272.61C214.125 255.997 210.264 258.734 209.333 259.438Z" fill="#4BBEA5" stroke="#502A73" stroke-width="0.228" stroke-miterlimit="10" stroke-linecap="round" stroke-linejoin="round"/>
<path d="M243.908 245.687C242.568 245.176 235.188 242.076 235.188 242.076L236.039 246.55C238.469 247.969 241.887 249.309 246.452 249.65C247.508 249.73 248.461 249.809 249.324 249.866C248.405 248.287 246.781 246.777 243.908 245.687Z" fill="#4BBEA5" stroke="#502A73" stroke-width="0.228" stroke-miterlimit="10" stroke-linecap="round" stroke-linejoin="round"/>
<path d="M242.671 248.049C237.493 250.945 237.573 254.385 237.8 257.95C238.027 261.516 242.989 269.022 239.526 274.676C236.062 280.331 230.828 278.151 226.456 282.523C222.096 286.894 225.57 297.466 225.298 303.052C225.025 308.639 216.032 311.603 216.032 311.603L219.836 315.145C225.661 312.068 233.099 303.859 240.343 286.622C248.803 266.478 250.472 258.268 250.483 255.645C250.495 253.726 250.529 250.649 247.951 248.14C246.645 247.243 244.874 246.823 242.671 248.049Z" fill="#008056" stroke="#502A73" stroke-width="0.228" stroke-miterlimit="10" stroke-linecap="round" stroke-linejoin="round"/>
<path d="M209.594 310.899C207.789 312.5 207.732 314.294 208.3 315.861C210.367 317.314 213.319 317.337 217.043 316.292C219.121 315.713 221.517 314.419 224.083 312.171C219.757 309.445 213.489 307.447 209.594 310.899Z" fill="#008056" stroke="#502A73" stroke-width="0.228" stroke-miterlimit="10" stroke-linecap="round" stroke-linejoin="round"/>
<path d="M232.111 249.514C231.929 250.025 231.68 250.74 231.328 251.739C230.078 255.282 228.353 261.311 228.353 261.311L232.883 261.209L232.611 249.252C232.44 249.332 232.27 249.423 232.111 249.514Z" fill="#008056" stroke="#502A73" stroke-width="0.228" stroke-miterlimit="10" stroke-linecap="round" stroke-linejoin="round"/>
<path d="M82.634 278.185L88.5613 253.227L61.423 221.649L46.7751 244.234L43.6411 257.735L61.9453 283.159" fill="#BF792A"/>
<path d="M82.634 278.185L88.5613 253.227L61.423 221.649L46.7751 244.234L43.6411 257.735L61.9453 283.159" stroke="#502A73" stroke-width="0.228" stroke-miterlimit="10" stroke-linecap="round" stroke-linejoin="round"/>
<path d="M82.577 268.772C79.8404 267.352 74.2311 265.649 72.2894 265.217C71.3129 265.002 70.4499 264.468 69.814 263.696L62.0813 254.351C60.8663 253.034 59.322 252.046 57.6188 251.489L43.6636 247.436C43.6636 247.436 37.3842 244.744 26.8468 243.143C16.3094 241.542 7.22551 244.267 2.81979 251.115C-1.58594 257.962 40.6431 288.711 40.6431 288.711L70.2114 306.481C70.2114 306.481 77.2969 302.95 78.9093 294.956C79.9426 289.835 82.6678 279.763 84.0872 273.836C83.2469 272.098 84.1667 270.94 82.577 268.772Z" fill="#4BBEA5" stroke="#502A73" stroke-width="0.228" stroke-miterlimit="10" stroke-linecap="round" stroke-linejoin="round"/>
<path d="M78.9207 294.956C79.8745 290.255 82.9176 279.468 84.5187 273.155C84.9502 271.44 84.1894 269.635 82.6224 268.806C82.6111 268.795 82.5997 268.794 82.577 268.783C80.6012 273.359 75.7754 285.191 73.7542 290.971C71.0858 298.567 71.0858 298.567 71.0858 298.567C71.0858 298.567 70.7678 302.507 70.2114 306.493C71.6876 305.721 77.524 301.871 78.9207 294.956Z" fill="#4BBEA5" stroke="#502A73" stroke-width="0.228" stroke-miterlimit="10" stroke-linecap="round" stroke-linejoin="round"/>
<path d="M67.4299 276.527C50.4429 271.69 52.3959 260.653 42.4035 254.692C37.4187 251.717 33.6034 252.466 27.6421 249.945C21.6807 247.436 19.2508 242.746 19.2508 242.746L13.3008 250.956C13.3008 250.956 35.0682 274.313 35.3408 274.54C35.5565 274.722 44.754 288.223 49.3755 294.491L57.9485 300.157C60.174 300.974 62.1271 301.644 62.1271 301.644L62.8198 303.37L70.2118 306.47C70.2118 306.47 77.2973 302.939 78.9097 294.945C79.3298 292.844 80.0452 289.915 80.8287 286.769C81.1239 285.645 79.4548 279.956 67.4299 276.527Z" fill="#008056" stroke="#502A73" stroke-width="0.228" stroke-miterlimit="10" stroke-linecap="round" stroke-linejoin="round"/>
<path d="M13.5503 252.432C13.5503 252.432 20.9765 246.346 19.2619 242.758C12.0628 243.167 6.12422 245.983 2.81992 251.115C1.65036 252.943 3.78508 256.463 7.55492 260.653C10.7116 262.765 13.346 264.491 13.346 264.491L13.5503 252.432Z" fill="#008056" stroke="#502A73" stroke-width="0.228" stroke-miterlimit="10" stroke-linecap="round" stroke-linejoin="round"/>
<path d="M19.1938 250.706C3.59205 244.938 -1.34735 252.341 1.991 262.072C6.06743 273.927 18.6942 284.169 30.8099 292.651C40.473 299.408 50.9195 306.164 58.2548 307.742C71.3471 310.558 74.6627 301.803 75.2078 300.236C77.3766 294.002 75.8891 285.6 47.0815 269.658C41.8696 266.762 28.8228 254.271 19.1938 250.706Z" fill="#502A73" stroke="#502A73" stroke-width="0.228" stroke-miterlimit="10" stroke-linecap="round" stroke-linejoin="round"/>
<path d="M19.1938 250.706C3.59205 244.938 -1.34735 252.341 1.991 262.072C6.06743 273.927 18.6942 284.169 30.8099 292.651C40.473 299.408 50.9195 306.164 58.2548 307.742C71.3471 310.558 74.6627 301.803 75.2078 300.236C77.3766 294.002 75.8891 285.6 47.0815 269.658C41.8696 266.762 28.8228 254.271 19.1938 250.706Z" stroke="#502A73" stroke-width="0.228" stroke-miterlimit="10" stroke-linecap="round" stroke-linejoin="round"/>
<path d="M64.3867 265.388C64.3867 265.388 70.1891 267.772 73.5728 269.419C76.9453 271.054 76.9453 271.054 76.9453 271.054L63.9893 269.907L64.3867 265.388Z" fill="#008056" stroke="#502A73" stroke-width="0.228" stroke-miterlimit="10" stroke-linecap="round" stroke-linejoin="round"/>
<path d="M238.322 234.571C237.89 231.766 236.233 229.313 233.859 227.758L197.115 203.731C193.254 201.21 190.586 197.236 189.7 192.705L189.689 192.66C188.837 188.322 188.564 183.894 188.882 179.488C189.087 176.672 189.189 173.265 188.871 170.245C188.19 163.636 183.807 152.645 183.807 152.645L134.379 155.154L117.914 157.777L90.151 164.84L86.4039 177.887L75.9005 183.723C70.7681 186.573 66.4873 190.729 63.4896 195.771L39.0083 243.121H39.0196C42.8122 239.272 56.4836 236.808 71.4608 246.028C84.712 254.181 93.0465 265.411 92.0473 272.917L103.243 217.902C103.856 214.915 105.548 212.247 108.001 210.43L147.925 180.896L156.271 216.675C157.815 223.307 161.188 229.37 165.991 234.185L198.091 266.365C204.064 272.337 217.292 268.783 227.648 258.428C235.415 250.684 239.355 241.304 238.322 234.571Z" fill="white" stroke="#502A73" stroke-width="0.228" stroke-miterlimit="10" stroke-linecap="round" stroke-linejoin="round"/>
<path d="M234.529 249.559C235.335 248.151 236.039 246.743 236.607 245.358C229.192 240.702 213.466 230.869 205.46 226.281C194.151 219.798 184.295 211.736 182.035 207.114C179.469 201.868 178.731 198.53 177.38 177.716C176.891 170.131 175.222 153.757 175.199 153.598C175.177 153.428 175.143 153.269 175.097 153.11L170.612 153.337C170.555 153.576 170.544 153.814 170.567 154.075C170.578 154.234 172.247 170.529 172.724 178.023C174.121 199.529 174.995 203.345 177.845 209.17C179.299 212.145 182.603 215.721 187.656 219.821C192.073 223.397 197.569 227.133 203.144 230.324C211.229 234.957 227.33 245.029 234.529 249.559Z" fill="white" stroke="#502A73" stroke-width="0.228" stroke-miterlimit="10" stroke-linecap="round" stroke-linejoin="round"/>
<path d="M43.6641 247.436L55.2007 250.797C55.4732 246.63 55.5867 235.286 49.069 233.378C44.6065 232.073 37.6686 233.265 36.1584 237.205C35.1138 239.93 36.0108 242.871 37.4642 245.392C41.4612 246.493 43.6641 247.436 43.6641 247.436Z" fill="#4BBEA5" stroke="#502A73" stroke-width="0.228" stroke-miterlimit="10" stroke-linecap="round" stroke-linejoin="round"/>
<path d="M43.6637 247.436L52.3162 249.957C52.3957 248.435 52.4184 246.232 52.1572 243.973C51.862 241.406 50.965 236.989 48.2625 236.194C46.809 235.774 44.9014 235.683 43.1641 235.979C39.3488 236.615 37.5661 238.125 37.1687 239.135C36.4079 241.122 37.4298 243.598 38.8833 245.789C41.9718 246.709 43.6637 247.436 43.6637 247.436Z" fill="#4BBEA5" stroke="#502A73" stroke-width="0.228" stroke-miterlimit="10" stroke-linecap="round" stroke-linejoin="round"/>
<path d="M204.756 257.315C203.031 258.166 197.807 260.267 197.376 262.458C196.819 265.252 204.132 268.079 207.47 269.215C212.501 268.783 218.394 266.206 223.855 261.834C222.879 261.789 221.346 261.493 220.687 260.142C219.938 258.609 219.859 256.009 218.689 254.93C216.497 252.92 214.397 252.568 204.756 257.315Z" fill="#4BBEA5" stroke="#502A73" stroke-width="0.228" stroke-miterlimit="10" stroke-linecap="round" stroke-linejoin="round"/>
<path d="M221.846 263.344C219.711 263.208 218.144 262.447 217.701 260.233C217.497 259.29 216.986 255.918 214.295 256.599C212.569 257.031 209.935 258.03 206.04 259.949C205.79 260.074 205.461 260.221 205.097 260.392C203.644 261.062 202.508 261.652 201.679 262.14C201.112 262.481 201.066 263.276 201.589 263.673C202.701 264.525 205.097 266.637 208.878 268.147C209.889 268.545 211.002 268.613 212.035 268.295C215.226 267.33 218.587 265.66 221.846 263.344Z" fill="#4BBEA5" stroke="#502A73" stroke-width="0.228" stroke-miterlimit="10" stroke-linecap="round" stroke-linejoin="round"/>
<path d="M187.69 147.875C185.282 142.788 184.158 140.472 182.909 134.204C181.66 127.936 182.455 123.042 182.455 123.042C182.455 123.042 175.188 111.108 178.095 103.25C181.002 95.3927 187.78 94.7682 187.78 94.7682C183.477 94.4503 179.514 94.0755 171.395 95.3586C163.277 96.6417 153.398 100.423 153.398 100.423C153.398 100.423 131.823 104.136 122.512 107.191C122.081 107.338 121.649 107.497 121.218 107.667C113.247 114.526 111.452 122.985 113.156 128.106C114.859 133.227 114.859 138.19 113.837 142.8C112.815 147.41 111.362 153.223 110.158 156.471C108.966 159.719 109.59 162.989 113.633 164.045C113.633 164.045 117.278 164.613 128.894 165.294C140.51 165.975 150.196 164.385 159.189 163.011C168.193 161.649 184.136 161.649 184.136 161.649C184.136 161.649 186.645 161.99 188.575 160.4C190.54 158.81 190.994 154.847 187.69 147.875Z" fill="#008056" stroke="#502A73" stroke-width="0.228" stroke-miterlimit="10" stroke-linecap="round" stroke-linejoin="round"/>
<path d="M67.7588 117.558C67.9859 114.571 67.5658 111.324 68.1676 109.11C68.7694 106.895 70.325 101.763 66.6801 101.434C63.8754 101.184 61.2297 106.839 61.2297 106.839C61.2297 106.839 60.151 99.2649 59.095 95.0182C57.9822 90.5443 54.3713 90.4308 53.2244 92.5655C52.3501 94.2006 53.2244 99.0605 53.2244 99.0605C53.2244 99.0605 52.475 92.679 49.6022 93.1673C45.8664 93.7918 47.2972 100.196 47.2972 100.196C47.2972 100.196 45.7529 96.0174 43.6182 96.8804C40.7454 98.0386 42.0625 104.295 42.0625 104.295C42.0625 104.295 39.9505 101.275 38.4176 103.841C36.8846 106.407 37.8498 116.956 41.3244 124.734C44.2654 131.32 47.3085 132.773 47.3085 132.773C47.3085 132.773 66.9072 128.527 67.7588 117.558Z" fill="#BF792A" stroke="#502A73" stroke-width="0.228" stroke-miterlimit="10" stroke-linecap="round" stroke-linejoin="round"/>
<path d="M53.2134 99.0605L54.3602 105.987" stroke="#502A73" stroke-width="0.228" stroke-miterlimit="10" stroke-linecap="round" stroke-linejoin="round"/>
<path d="M47.2974 100.196L48.9438 107.668" stroke="#502A73" stroke-width="0.228" stroke-miterlimit="10" stroke-linecap="round" stroke-linejoin="round"/>
<path d="M42.0513 104.307C42.0513 104.307 42.7894 107.804 43.6978 110.359C44.6061 112.914 44.6061 112.914 44.6061 112.914" fill="#BF792A"/>
<path d="M42.0513 104.307C42.0513 104.307 42.7894 107.804 43.6978 110.359C44.6061 112.914 44.6061 112.914 44.6061 112.914" stroke="#502A73" stroke-width="0.228" stroke-miterlimit="10" stroke-linecap="round" stroke-linejoin="round"/>
<path d="M61.2186 106.839C61.2186 106.839 60.3329 107.895 59.3109 108.599C58.289 109.314 54.3602 112.448 54.644 117.285" fill="#BF792A"/>
<path d="M61.2186 106.839C61.2186 106.839 60.3329 107.895 59.3109 108.599C58.289 109.314 54.3602 112.448 54.644 117.285" stroke="#502A73" stroke-width="0.228" stroke-miterlimit="10" stroke-linecap="round" stroke-linejoin="round"/>
<path d="M110.17 156.471C111.362 153.224 112.815 147.41 113.849 142.8C114.871 138.19 114.871 133.228 113.167 128.107C111.464 122.986 113.247 114.526 121.229 107.668C104.379 114.401 89.9577 143.425 89.8442 143.084C89.7306 142.743 82.2137 129.64 77.8874 127.028C73.5612 124.416 70.0298 125.438 70.0298 125.438C70.0298 125.438 56.5855 133.523 53.2244 136.01C49.8634 138.497 48.6938 140.132 48.7052 144.901C48.7279 150.499 55.8929 164.624 67.3954 171.914C78.898 179.204 86.415 177.898 86.415 177.898L113.644 164.045C109.602 162.989 108.977 159.719 110.17 156.471Z" fill="#008056" stroke="#502A73" stroke-width="0.228" stroke-miterlimit="10" stroke-linecap="round" stroke-linejoin="round"/>
<path d="M70.1208 125.302L67.2594 119.829L47.2974 132.773L50.0907 138.837L70.1208 125.302Z" fill="#008056" stroke="#502A73" stroke-width="0.228" stroke-miterlimit="10" stroke-linecap="round" stroke-linejoin="round"/>
<path d="M89.8443 143.084C89.8443 143.084 88.3114 145.707 87.6187 152.202C87.0964 157.164 88.0843 162.024 88.0843 162.024" fill="#008056"/>
<path d="M89.8443 143.084C89.8443 143.084 88.3114 145.707 87.6187 152.202C87.0964 157.164 88.0843 162.024 88.0843 162.024" stroke="#502A73" stroke-width="0.228" stroke-miterlimit="10" stroke-linecap="round" stroke-linejoin="round"/>
<path d="M224.651 173.81C224.651 173.81 223.05 182.747 221.46 186.46C219.927 190.037 217.599 194.545 212.07 193.534C211.4 193.409 209.322 194.783 207.766 194.374C206.403 194.011 206.347 193.125 205.631 192.921C204.632 192.637 203.871 193.954 201.214 192.841C199.534 192.149 199.897 190.99 199.17 190.741C198.455 190.491 194.81 191.059 194.208 188.061C194.027 187.153 194.265 185.483 194.606 184.62L195.639 181.895L194.413 180.283C193.027 178.455 193.311 176.184 194.719 174.196C198.035 169.541 204.326 166.804 204.326 166.804C204.326 166.804 207.823 165.851 215.374 166.089C226.195 166.441 224.651 173.81 224.651 173.81Z" fill="#BF792A" stroke="#502A73" stroke-width="0.228" stroke-miterlimit="10" stroke-linecap="round" stroke-linejoin="round"/>
<path d="M195.627 181.895C195.627 181.895 196.433 180.021 198.034 177.898L195.627 181.895Z" fill="#BF792A"/>
<path d="M195.627 181.895C195.627 181.895 196.433 180.021 198.034 177.898" stroke="#502A73" stroke-width="0.228" stroke-miterlimit="10" stroke-linecap="round" stroke-linejoin="round"/>
<path d="M191.789 131.695C202.1 137.679 206.937 136.816 206.937 136.816C206.937 136.816 202.145 143.913 200.442 149.34C198.023 157.062 203.417 162.353 203.417 162.353C203.417 162.353 223.538 166.736 226.956 167.531C230.373 168.326 239.503 153.803 240.865 137.486C242.035 123.394 238.095 119.67 224.719 110.665C211.388 101.695 189.848 94.8932 187.77 94.7456C187.77 94.7456 180.979 95.3587 178.084 103.228C175.177 111.085 182.444 123.019 182.444 123.019C182.444 123.019 186.804 128.799 191.789 131.695Z" fill="#008056" stroke="#502A73" stroke-width="0.228" stroke-miterlimit="10" stroke-linecap="round" stroke-linejoin="round"/>
<path d="M203.428 162.364L201.565 168.269L224.65 173.81L226.966 167.554L203.428 162.364Z" fill="#008056" stroke="#502A73" stroke-width="0.228" stroke-miterlimit="10" stroke-linecap="round" stroke-linejoin="round"/>
<path d="M221.119 123.894C221.119 123.894 216.85 125.597 212.183 130.355C209.162 133.432 206.948 136.816 206.948 136.816C206.948 136.816 205.813 136.134 206.324 132.262C206.835 128.39 210.366 124.688 210.366 124.688" fill="#008056"/>
<path d="M221.119 123.894C221.119 123.894 216.85 125.597 212.183 130.355C209.162 133.432 206.948 136.816 206.948 136.816C206.948 136.816 205.813 136.134 206.324 132.262C206.835 128.39 210.366 124.688 210.366 124.688" stroke="#502A73" stroke-width="0.228" stroke-miterlimit="10" stroke-linecap="round" stroke-linejoin="round"/>
<path d="M137.547 109.439C137.547 109.439 132.142 118.682 135.491 121.748C138.841 124.814 144.791 120.839 150.457 120.885C158.565 120.953 158.565 124.87 158.565 124.87" stroke="#502A73" stroke-width="1.1399" stroke-miterlimit="10" stroke-linecap="round" stroke-linejoin="round"/>
<path d="M137.547 109.439C137.547 109.439 132.142 118.682 135.491 121.748C138.841 124.814 144.791 120.839 150.457 120.885C158.565 120.953 158.565 124.87 158.565 124.87" stroke="#EEC718" stroke-width="0.6839" stroke-miterlimit="10" stroke-linecap="round" stroke-linejoin="round"/>
<path d="M158.565 127.289C159.449 127.289 160.166 126.572 160.166 125.688C160.166 124.803 159.449 124.087 158.565 124.087C157.681 124.087 156.964 124.803 156.964 125.688C156.964 126.572 157.681 127.289 158.565 127.289Z" fill="#EEC718" stroke="#502A73" stroke-width="0.228" stroke-miterlimit="10" stroke-linecap="round" stroke-linejoin="round"/>
<path d="M139.965 102.353C139.965 102.353 132.709 111.278 139.057 113.243C144.041 114.787 149.503 108.474 152.853 105.646C159.132 100.355 165.434 97.3232 168.784 96.3807C179.196 93.4398 187.792 94.7797 187.792 94.7797C187.792 94.7797 193.333 93.0424 191.46 86.5133C189.575 79.9842 178.492 76.8616 166.127 81.6988C153.761 86.536 147.3 95.6426 147.3 95.6426" fill="#008056"/>
<path d="M139.965 102.353C139.965 102.353 132.709 111.278 139.057 113.243C144.041 114.787 149.503 108.474 152.853 105.646C159.132 100.355 165.434 97.3232 168.784 96.3807C179.196 93.4398 187.792 94.7797 187.792 94.7797C187.792 94.7797 193.333 93.0424 191.46 86.5133C189.575 79.9842 178.492 76.8616 166.127 81.6988C153.761 86.536 147.3 95.6426 147.3 95.6426" stroke="#502A73" stroke-width="0.228" stroke-miterlimit="10" stroke-linecap="round" stroke-linejoin="round"/>
<path d="M146.914 106.577C146.914 106.577 142.133 114.764 145.086 117.478C148.049 120.192 153.329 116.672 158.348 116.717C165.536 116.774 165.536 120.249 165.536 120.249" stroke="#502A73" stroke-width="1.1399" stroke-miterlimit="10" stroke-linecap="round" stroke-linejoin="round"/>
<path d="M146.914 106.577C146.914 106.577 142.133 114.764 145.086 117.478C148.049 120.192 153.329 116.672 158.348 116.717C165.536 116.774 165.536 120.249 165.536 120.249" stroke="#EEC718" stroke-width="0.6839" stroke-miterlimit="10" stroke-linecap="round" stroke-linejoin="round"/>
<path d="M165.491 122.985C166.375 122.985 167.092 122.268 167.092 121.384C167.092 120.5 166.375 119.783 165.491 119.783C164.606 119.783 163.89 120.5 163.89 121.384C163.89 122.268 164.606 122.985 165.491 122.985Z" fill="#EEC718" stroke="#502A73" stroke-width="0.228" stroke-miterlimit="10" stroke-linecap="round" stroke-linejoin="round"/>
<path d="M141.566 106.896L153.398 97.3575C152.796 90.4196 151.547 76.8845 150.707 73.2396C149.367 67.369 148.504 65.8361 144.666 64.871C139.465 63.5765 131.483 73.1714 131.483 73.1714C131.483 73.1714 130.938 78.8262 130.699 81.892C130.677 82.2667 130.54 82.6188 130.291 82.9026L127.543 85.9799C127.088 86.559 127.361 87.4105 128.054 87.6376L130.12 88.4665C130.563 88.6596 130.506 89.1138 130.063 89.8746C129.428 90.942 130.472 91.4983 130.722 91.6119C131.278 91.8844 131.437 91.8844 131.437 91.8844L131.483 93.9623C131.483 93.9623 130.745 94.1327 130.677 94.7231C130.597 95.4271 130.949 95.6542 130.995 96.0744C131.097 97.0282 131.188 97.4596 131.278 98.1182C131.449 99.3105 132.55 100.151 133.742 99.9805L139.318 99.2197L140.976 107.202L141.566 106.896Z" fill="#BF792A" stroke="#502A73" stroke-width="0.228" stroke-miterlimit="10" stroke-linecap="round" stroke-linejoin="round"/>
<path d="M137.194 91.1348C137.728 91.3051 138.102 91.0553 138.102 91.0553C138.102 91.0553 136.479 89.4202 136.013 89.1704C135.548 88.9206 134.321 89.0114 132.561 89.1477C131.619 89.2158 130.892 89.0796 130.426 88.9319C130.426 89.1704 130.302 89.477 130.063 89.8744C130.018 89.9426 129.984 90.0107 129.961 90.0788C130.438 90.2605 131.176 90.4762 132.084 90.5443C133.674 90.6579 135.525 90.374 135.672 90.3399C135.752 90.3172 136.558 90.9418 137.194 91.1348Z" fill="#502A73" stroke="#502A73" stroke-width="0.228" stroke-miterlimit="10" stroke-linecap="round" stroke-linejoin="round"/>
<path d="M137.194 91.1348C137.728 91.3051 138.102 91.0553 138.102 91.0553C138.102 91.0553 136.479 89.4202 136.013 89.1704C135.548 88.9206 134.321 89.0114 132.561 89.1477C131.619 89.2158 130.892 89.0796 130.426 88.9319C130.426 89.1704 130.302 89.477 130.063 89.8744C130.018 89.9426 129.984 90.0107 129.961 90.0788C130.438 90.2605 131.176 90.4762 132.084 90.5443C133.674 90.6579 135.525 90.374 135.672 90.3399C135.752 90.3172 136.558 90.9418 137.194 91.1348Z" stroke="#502A73" stroke-width="0.228" stroke-miterlimit="10" stroke-linecap="round" stroke-linejoin="round"/>
<path d="M138.387 74.5907C138.988 74.3863 137.274 74.8292 137.648 74.8292C138.92 74.8065 139.329 74.7383 139.329 74.7383C139.329 74.7383 139.329 74.7383 139.851 75.431C140.374 76.1236 143.122 74.92 143.212 74.9995C143.292 75.079 141.293 77.1683 141.452 78.0086C141.611 78.8602 142.838 78.3379 142.917 78.5877C143.008 78.8262 141.18 80.7905 141.373 81.3356C141.566 81.8693 142.202 82.0509 142.202 82.0509C142.202 82.0509 141.611 84.39 143.36 85.1508C145.109 85.9003 145.62 84.7194 145.733 81.6308C145.767 80.677 146.358 79.9503 147.005 80.2001C148.163 80.6429 149.673 83.0161 149.673 83.0161C149.673 83.0161 150.934 87.3197 152.558 87.876C151.978 81.926 151.286 75.6694 150.729 73.2395C149.39 67.369 148.527 65.8361 144.689 64.8709C141.645 64.1101 137.455 65.7452 134.038 67.7437C133.311 68.1638 133.038 67.1873 130.484 67.2327C128.451 67.2668 127.327 71.048 129.234 73.1486C130.574 74.6702 136.252 75.3174 138.387 74.5907Z" fill="#502A73" stroke="#502A73" stroke-width="0.228" stroke-miterlimit="10" stroke-linecap="round" stroke-linejoin="round"/>
<path d="M138.387 74.5907C138.988 74.3863 137.274 74.8292 137.648 74.8292C138.92 74.8065 139.329 74.7384 139.329 74.7384C139.329 74.7384 139.329 74.7383 139.851 75.431C140.374 76.1236 143.122 74.92 143.212 74.9995C143.292 75.079 141.293 77.1683 141.452 78.0086C141.611 78.8602 142.838 78.3379 142.917 78.5877C143.008 78.8262 141.18 80.7905 141.373 81.3356C141.566 81.8693 142.202 82.0509 142.202 82.0509C142.202 82.0509 141.611 84.39 143.36 85.1508C145.109 85.9003 145.62 84.7194 145.733 81.6308C145.767 80.677 146.358 79.9503 147.005 80.2001C148.163 80.6429 149.673 83.0161 149.673 83.0161C149.673 83.0161 150.934 87.3197 152.558 87.876C151.978 81.926 151.286 75.6694 150.729 73.2395C149.39 67.369 148.527 65.8361 144.689 64.8709C141.645 64.1101 137.455 65.7452 134.038 67.7437C133.311 68.1638 133.038 67.1873 130.484 67.2327C128.451 67.2668 127.327 71.048 129.234 73.1486C130.574 74.6702 136.252 75.3174 138.387 74.5907Z" stroke="#502A73" stroke-width="0.228" stroke-miterlimit="10" stroke-linecap="round" stroke-linejoin="round"/>
<path d="M146.153 82.4711C146.187 81.8807 146.29 81.3584 146.449 81.0063C147.119 79.5983 148.595 78.917 150.003 79.5756C151.411 80.2456 151.74 81.8466 151.411 83.3568C151.093 84.7761 150.366 86.0138 149.537 86.7065C148.901 87.2402 148.209 87.4446 147.607 87.1493" fill="#BF792A"/>
<path d="M146.153 82.4711C146.187 81.8807 146.29 81.3584 146.449 81.0063C147.119 79.5983 148.595 78.917 150.003 79.5756C151.411 80.2456 151.74 81.8466 151.411 83.3568C151.093 84.7761 150.366 86.0138 149.537 86.7065C148.901 87.2402 148.209 87.4446 147.607 87.1493" stroke="#502A73" stroke-width="0.228" stroke-miterlimit="10" stroke-linecap="round" stroke-linejoin="round"/>
<path d="M145.677 86.0593C145.677 86.0593 145.223 86.8996 144.36 86.945C143.497 86.9905 142.577 86.0934 142.577 86.0934" stroke="#502A73" stroke-width="0.228" stroke-miterlimit="10" stroke-linecap="round" stroke-linejoin="round"/>
<path d="M145.585 87.5353C145.585 87.5353 145.131 88.3755 144.268 88.421C143.405 88.4664 142.485 87.5693 142.485 87.5693" stroke="#502A73" stroke-width="0.228" stroke-miterlimit="10" stroke-linecap="round" stroke-linejoin="round"/>
<path d="M147.539 82.6527C147.539 82.6527 147.902 81.0176 149.288 81.6762C150.185 82.0964 149.957 83.5839 149.129 84.0267C148.663 84.2765 147.982 84.0494 147.982 84.0494C147.982 84.0494 148.436 84.3901 148.209 84.8443C147.925 85.4121 147.289 84.9351 147.289 84.9351" fill="#BF792A"/>
<path d="M147.539 82.6527C147.539 82.6527 147.902 81.0176 149.288 81.6762C150.185 82.0964 149.957 83.5839 149.129 84.0267C148.663 84.2765 147.982 84.0494 147.982 84.0494C147.982 84.0494 148.436 84.3901 148.209 84.8443C147.925 85.4121 147.289 84.9351 147.289 84.9351" stroke="#502A73" stroke-width="0.228" stroke-miterlimit="10" stroke-linecap="round" stroke-linejoin="round"/>
<path d="M135.775 92.0546C135.639 91.8048 135.355 91.6912 135.094 91.748C134.753 91.8161 133.868 91.9751 132.88 92.0319C132.312 92.066 131.801 91.9751 131.415 91.8843L131.472 93.9963C131.483 94.3938 131.79 94.723 132.176 94.7571C132.528 94.7912 132.971 94.7571 133.516 94.5868C135.162 94.0985 135.98 92.4293 135.775 92.0546Z" fill="white" stroke="#502A73" stroke-width="0.228" stroke-miterlimit="10" stroke-linecap="round" stroke-linejoin="round"/>
<path d="M135.06 81.6194C135.536 81.5059 136.036 81.5286 136.49 81.6989" stroke="#502A73" stroke-width="0.456" stroke-miterlimit="10" stroke-linecap="round" stroke-linejoin="round"/>
<path d="M135.264 81.608C135.116 81.8578 135.003 82.278 134.98 82.664C134.946 83.2772 135.162 83.5838 135.434 83.5951C135.707 83.6065 135.957 83.3227 135.991 82.7095C136.013 82.3234 135.945 81.8919 135.82 81.6307L135.264 81.608Z" fill="#502A73"/>
<path d="M130.552 81.3808C131.029 81.2673 131.528 81.29 131.982 81.4603" stroke="#502A73" stroke-width="0.456" stroke-miterlimit="10" stroke-linecap="round" stroke-linejoin="round"/>
<path d="M130.756 81.3697C130.609 81.6195 130.495 82.0397 130.472 82.4258C130.438 83.0389 130.654 83.3455 130.926 83.3568C131.21 83.3682 131.449 83.0843 131.483 82.4712C131.506 82.0851 131.437 81.6536 131.313 81.3924L130.756 81.3697Z" fill="#502A73"/>
<path d="M133.595 79.655C133.708 79.9048 134.026 79.9956 134.253 79.848C134.651 79.5869 135.298 79.3029 136.081 79.4619C136.513 79.5528 136.819 79.6777 137.047 79.7913C137.319 79.9389 137.637 79.7345 137.637 79.4279C137.637 79.303 137.592 79.1894 137.489 79.1099C137.012 78.7011 135.457 77.5884 133.697 79.0873C133.549 79.2349 133.504 79.462 133.595 79.655Z" fill="#502A73"/>
<path d="M131.63 78.5307C131.403 78.4512 131.187 78.4399 131.006 78.4626L130.903 79.5299C131.006 79.4959 131.119 79.4846 131.244 79.4959C131.516 79.5186 131.778 79.6435 131.982 79.7571C132.221 79.8933 132.516 79.8025 132.629 79.5527C132.72 79.371 132.675 79.1439 132.516 79.0077C132.357 78.8714 132.073 78.6897 131.63 78.5307Z" fill="#502A73"/>
<path d="M150.048 70.5598C149.719 70.7415 149.367 71.014 148.935 71.207C140.499 75.0791 133.095 74.4318 131.392 74.1707C131.301 75.0791 131.176 76.487 131.04 77.9632C132.459 78.2016 135.571 78.5423 140.158 78.0881C144.496 77.6567 148.731 76.0329 151.047 75.0109C150.934 74.2842 150.82 73.6824 150.718 73.2396C150.491 72.2176 150.275 71.3319 150.048 70.5598Z" fill="#008056" stroke="#502A73" stroke-width="0.228" stroke-miterlimit="10" stroke-linecap="round" stroke-linejoin="round"/>
<path d="M139.738 108.803C139.738 108.803 145.529 100.31 154.704 95.8813C161.551 92.577 169.17 91.1917 176.653 91.1917C185.26 91.1917 185.771 85.5596 181.661 84.1971C177.607 82.8458 171.01 86.0592 171.01 86.0592" fill="#008056"/>
<path d="M139.738 108.803C139.738 108.803 145.529 100.31 154.704 95.8813C161.551 92.577 169.17 91.1917 176.653 91.1917C185.26 91.1917 185.771 85.5596 181.661 84.1971C177.607 82.8458 171.01 86.0592 171.01 86.0592" stroke="#502A73" stroke-width="0.228" stroke-miterlimit="10" stroke-linecap="round" stroke-linejoin="round"/>
<path d="M126.476 116.354C124.523 116.07 123.455 117.229 123.308 117.399C123.16 117.274 122.115 116.479 120.151 117.433C118.266 118.353 117.698 120.283 118.028 121.146C118.198 121.6 118.629 121.033 119.345 120.374C120.355 119.454 120.98 119.795 120.98 119.795C120.98 119.795 119.436 120.533 118.857 121.634C118.277 122.736 118.993 124.087 119.64 123.156C120.707 121.612 121.366 121.487 121.366 121.487C121.366 121.487 120.707 122.145 120.378 122.986C120.049 123.826 120.287 124.609 120.832 124.541C121.162 124.496 122.649 121.453 122.433 123.224C122.138 125.654 122.093 127.38 122.195 128.549C122.24 129.106 122.592 129.469 123.001 129.401L123.376 129.333C123.785 129.265 124.148 128.777 124.205 128.197C124.33 126.994 124.318 125.279 124.08 122.929C123.91 121.226 125.329 123.78 125.658 123.701C126.203 123.587 126.453 122.713 126.146 121.986C125.84 121.26 125.193 120.817 125.193 120.817C125.193 120.817 125.851 120.715 126.885 121.895C127.509 122.611 128.258 121.01 127.702 120.101C127.146 119.193 125.613 118.977 125.613 118.977C125.613 118.977 126.249 118.421 127.248 119C127.952 119.409 128.372 119.829 128.554 119.318C128.872 118.375 128.349 116.627 126.476 116.354Z" fill="#EEC718" stroke="#502A73" stroke-width="0.228" stroke-miterlimit="10" stroke-linecap="round" stroke-linejoin="round"/>
<path d="M199.307 126.858C200.783 120.476 203.008 117.569 203.008 117.569L198.955 114.401C198.955 114.401 195.945 117.683 194.231 124.87C193.436 128.22 193.357 130.866 193.47 132.649C195.366 133.671 197.058 134.454 198.546 135.044C198.5 133.08 198.58 129.992 199.307 126.858Z" fill="#4BBEA5" stroke="#502A73" stroke-width="0.228" stroke-miterlimit="10" stroke-linecap="round" stroke-linejoin="round"/>
<path d="M215.975 115.866C213.727 119.999 208.504 121.544 204.359 119.295L196.195 114.856C192.062 112.607 190.518 107.384 192.766 103.239C195.014 99.1062 200.237 97.562 204.382 99.8103L212.546 104.25C216.691 106.51 218.224 111.733 215.975 115.866Z" fill="#4BBEA5" stroke="#502A73" stroke-width="0.228" stroke-miterlimit="10" stroke-linecap="round" stroke-linejoin="round"/>
<path d="M216.804 114.356C214.556 118.489 209.333 120.033 205.188 117.785L197.024 113.345C192.891 111.097 191.347 105.874 193.595 101.729C195.843 97.5958 201.066 96.0515 205.211 98.2998L213.375 102.74C217.508 104.999 219.053 110.223 216.804 114.356Z" fill="#4BBEA5" stroke="#502A73" stroke-width="0.228" stroke-miterlimit="10" stroke-linecap="round" stroke-linejoin="round"/>
<path d="M207.13 114.208L198.966 109.768C196.785 108.587 195.979 105.862 197.171 103.682C198.352 101.502 201.078 100.696 203.258 101.888L211.422 106.328C213.602 107.509 214.408 110.234 213.216 112.414C212.035 114.594 209.31 115.4 207.13 114.208Z" fill="#502A73" stroke="#502A73" stroke-width="0.228" stroke-miterlimit="10" stroke-linecap="round" stroke-linejoin="round"/>
<path d="M207.13 114.208L198.966 109.768C196.785 108.587 195.979 105.862 197.171 103.682C198.352 101.502 201.078 100.696 203.258 101.888L211.422 106.328C213.602 107.509 214.408 110.234 213.216 112.414C212.035 114.594 209.31 115.4 207.13 114.208Z" stroke="#502A73" stroke-width="0.228" stroke-miterlimit="10" stroke-linecap="round" stroke-linejoin="round"/>
<path d="M147.937 180.907C147.937 180.907 143.849 180.566 138.762 178.511C133.675 176.456 128.372 175.945 128.372 175.945" fill="white"/>
<path d="M147.937 180.907C147.937 180.907 143.849 180.566 138.762 178.511C133.675 176.456 128.372 175.945 128.372 175.945" stroke="#502A73" stroke-width="0.228" stroke-miterlimit="10" stroke-linecap="round" stroke-linejoin="round"/>
<path d="M136.968 177.852L95.3631 198.53C90.9801 200.71 87.5509 204.423 85.7341 208.976L71.0181 245.755" fill="white"/>
<path d="M136.968 177.852L95.3631 198.53C90.9801 200.71 87.5509 204.423 85.7341 208.976L71.0181 245.755" stroke="#502A73" stroke-width="0.228" stroke-miterlimit="10" stroke-linecap="round" stroke-linejoin="round"/>
<path d="M91.1296 43V13.96H96.6496V30.28L106.45 21.8H114.25L104.45 29.8L115.09 43H107.65L100.13 33.32L96.6496 36.16V43H91.1296ZM141.405 33.8H121.405C121.525 36.16 123.125 39.8 128.605 39.8C132.245 39.8 133.845 38.52 134.925 36.76H140.925C139.725 39.12 136.845 43.8 128.765 43.8C119.205 43.8 115.645 38.24 115.645 32.6C115.645 25.52 120.885 21 128.405 21C137.805 21 141.405 26.8 141.405 33V33.8ZM121.405 30.28H135.645C134.965 26.04 131.205 24.76 128.485 24.76C125.925 24.76 122.325 25.96 121.405 30.28ZM170.272 33.8H150.272C150.392 36.16 151.992 39.8 157.472 39.8C161.112 39.8 162.712 38.52 163.792 36.76H169.792C168.592 39.12 165.712 43.8 157.632 43.8C148.072 43.8 144.512 38.24 144.512 32.6C144.512 25.52 149.752 21 157.272 21C166.672 21 170.272 26.8 170.272 33V33.8ZM150.272 30.28H164.512C163.832 26.04 160.072 24.76 157.352 24.76C154.792 24.76 151.192 25.96 150.272 30.28ZM174.059 43V21.8H179.579V25H179.659C181.459 22.72 184.259 21.24 188.019 21.24C192.579 21.24 197.019 22.88 197.019 28.6V43H191.499V30.36C191.499 28.08 190.739 25.48 186.179 25.48C183.299 25.48 179.579 27.08 179.579 31.6V43H174.059Z" fill="white"/>
</svg>
