<svg width="405" height="400" viewBox="0 0 405 400" fill="none" xmlns="http://www.w3.org/2000/svg">
<path d="M326.237 136.231C318.655 134.061 314.497 137.572 313.93 138.098C313.379 137.58 309.301 134.109 301.678 136.375C294.359 138.537 292.148 145.088 293.41 148.344C294.072 150.059 295.74 148.288 298.51 146.381C302.429 143.676 304.895 145.264 304.895 145.264C304.895 145.264 298.909 146.971 296.666 150.562C294.423 154.152 297.193 159.339 299.707 156.426C303.857 151.559 306.395 151.511 306.395 151.511C304.788 152.81 303.484 154.444 302.572 156.299C301.311 159.1 302.213 162.036 304.32 162.1C305.605 162.1 311.352 152.166 310.538 158.333C309.404 166.831 309.221 172.935 309.596 177.164C309.772 179.183 311.12 180.683 312.725 180.675H314.177C315.774 180.675 317.162 179.151 317.37 177.124C317.841 172.895 317.801 166.751 316.875 158.302C316.205 152.142 321.72 162.052 322.997 161.996C325.112 161.908 326.078 158.964 324.889 156.171C324.022 154.342 322.753 152.733 321.177 151.463C321.177 151.463 323.707 151.463 327.754 156.307C330.196 159.219 333.078 153.969 330.947 150.402C328.815 146.836 322.845 145.2 322.845 145.2C322.845 145.2 325.328 143.604 329.175 146.245C331.896 148.12 333.525 149.868 334.227 148.152C335.552 144.865 333.501 138.33 326.237 136.231Z" fill="#A9D054" stroke="#502A73" stroke-width="0.49" stroke-linecap="round" stroke-linejoin="round"/>
<path d="M395.764 181.577C388.19 179.406 384.031 182.917 383.465 183.436C382.906 182.925 378.835 179.446 371.205 181.712C363.886 183.875 361.683 190.434 362.944 193.681C363.607 195.389 365.275 193.625 368.036 191.718C371.955 189.013 374.422 190.601 374.422 190.601C374.422 190.601 368.436 192.309 366.201 195.899C363.966 199.49 366.72 204.676 369.234 201.764C373.392 196.897 375.93 196.849 375.93 196.849C374.323 198.132 373.018 199.753 372.107 201.596C370.838 204.397 371.74 207.341 373.855 207.397C375.132 207.397 380.887 197.463 380.065 203.639C378.931 212.137 378.748 218.241 379.123 222.47C379.306 224.489 380.655 225.989 382.259 225.981H383.704C385.3 225.981 386.697 224.457 386.897 222.43C387.376 218.201 387.336 212.097 386.402 203.607C385.731 197.447 391.247 207.349 392.532 207.302C394.639 207.214 395.612 204.27 394.415 201.477C393.549 199.648 392.28 198.039 390.704 196.769C390.704 196.769 393.242 196.769 397.281 201.612C399.723 204.525 402.612 199.275 400.473 195.708C398.334 192.141 392.356 190.489 392.356 190.489C392.356 190.489 394.838 188.894 398.693 191.527C401.415 193.41 403.043 195.157 403.746 193.434C405.079 190.178 403.035 183.651 395.764 181.577Z" fill="#A9D054" stroke="#502A73" stroke-width="0.49" stroke-linecap="round" stroke-linejoin="round"/>
<path d="M399.021 216.908C389.539 217.97 376.377 217.802 365.73 206.049C358.73 198.333 355.577 162.554 309.756 171.116C295.102 173.861 285.492 171.643 280.049 160.057C274.605 148.471 269.425 131.332 253.622 121.27C242.24 114.033 227.371 113.379 219.932 113.578V162.762C226.809 163.845 233.395 166.316 239.287 170.023C255.09 180.077 256.551 184.968 260.278 197.224C266.065 216.286 280.743 222.231 295.397 219.877C310.051 217.523 314.656 214.706 327.323 222.151C339.989 229.595 344.124 247.285 351.331 254.809C366.009 270.114 385.747 269.012 398.957 266.874L399.021 216.908Z" fill="#EEC718" stroke="#502A73" stroke-width="0.49" stroke-linecap="round" stroke-linejoin="round"/>
<path d="M365.73 206.049C358.73 198.333 355.577 162.554 309.756 171.116C295.102 173.861 285.492 171.643 280.049 160.057C274.605 148.471 269.425 131.332 253.622 121.27C242.24 114.033 227.371 113.379 219.932 113.578V137.029C226.81 138.116 233.395 140.589 239.287 144.298C255.09 154.344 256.551 159.243 260.278 171.491C266.065 190.553 280.743 196.498 295.397 194.144C310.051 191.79 314.656 188.973 327.323 196.426C339.99 203.878 344.124 221.56 351.331 229.077C366.009 244.381 385.747 243.288 398.957 241.141V216.908C389.539 217.97 376.377 217.802 365.73 206.049Z" fill="#A9D054" stroke="#502A73" stroke-width="0.49" stroke-linecap="round" stroke-linejoin="round"/>
<path d="M297.081 115.07C294.637 111.74 292.015 108.544 289.227 105.495C276.01 90.678 254.588 70.387 254.588 70.387L231.609 77.8954V85.1644C235.719 98.9763 241.123 117.384 240.852 117.815C240.421 118.509 251.818 140.955 251.818 140.955L255.617 171.491C255.617 171.491 286.537 156.155 296.043 145.279C302.82 137.532 306.236 128.196 297.081 115.07Z" fill="#EEC718" stroke="#502A73" stroke-width="0.49" stroke-linecap="round" stroke-linejoin="round"/>
<path d="M72.4343 344.367C72.4343 344.367 57.2136 330.46 62.4574 321.874C65.7857 316.416 75.9222 312.882 81.4933 317.206C90.2729 324.037 75.1799 347.878 75.1799 347.878L72.4343 344.367Z" fill="#EAE7DA" stroke="#502A73" stroke-width="0.49" stroke-linecap="round" stroke-linejoin="round"/>
<path d="M99.6671 338.79C96.0595 335.726 82.6745 338.264 63.3673 341.79C44.0601 345.317 29.6855 346.578 21.8636 350.496C14.0417 354.413 13.6347 360.869 18.224 369.319C22.8134 377.768 37.3078 388.062 69.9361 393.791C102.564 399.52 115.263 399.232 119.166 398.371C123.069 397.509 130.172 395.977 131.665 385.277C131.968 383.13 133.588 371.226 133.588 371.226L136.51 345.979C133.054 342.086 120.108 353.416 116.987 351.717C112.637 349.371 101.024 339.931 99.6671 338.79Z" fill="#EAE7DA" stroke="#502A73" stroke-width="0.49" stroke-linecap="round" stroke-linejoin="round"/>
<path d="M135.033 345.214C130.843 344.487 125.886 350.895 122.023 351.381C117.49 359.903 114.984 377.928 118.368 384.607C120.398 388.748 123.827 392.038 128.049 393.894C129.725 392.011 131.074 389.29 131.633 385.277C131.936 383.131 133.556 371.226 133.556 371.226L136.47 346.075L135.033 345.214Z" fill="#4BBEA5" stroke="#502A73" stroke-width="0.49" stroke-linecap="round" stroke-linejoin="round"/>
<path d="M119.134 398.371C123.029 397.501 130.14 395.977 131.633 385.277C131.808 384.064 132.431 379.731 132.878 376.196C132.25 375.76 131.547 375.446 130.803 375.271C113.467 372.43 101.519 391.476 78.1251 385.644C68.3717 383.25 68.3078 372.726 60.917 366.973C53.5261 361.22 38.2256 369.981 29.7892 369.063C20.7701 368.074 16.7714 357.15 16.8033 354.589C14.2014 358.371 14.9596 363.326 18.2081 369.31C22.8054 377.776 37.2918 388.053 69.9201 393.783C102.548 399.512 115.231 399.232 119.134 398.371Z" fill="#4BBEA5" stroke="#502A73" stroke-width="0.49" stroke-linecap="round" stroke-linejoin="round"/>
<path d="M103.857 366.438L100.298 366.023C94.6467 365.361 85.1328 364.842 85.1328 364.842L86.8089 371.505L104.368 367.076L103.857 366.438Z" fill="#4BBEA5" stroke="#502A73" stroke-width="0.49" stroke-linecap="round" stroke-linejoin="round"/>
<path d="M25.8224 348.884C24.4555 349.319 23.1218 349.852 21.8317 350.48C16.7954 353.009 14.8399 356.552 15.2869 360.988C19.767 357.91 23.3922 353.745 25.8224 348.884Z" fill="#4BBEA5" stroke="#502A73" stroke-width="0.49" stroke-linecap="round" stroke-linejoin="round"/>
<path d="M245.425 201.245C245.425 201.245 280.088 184.362 286.306 187.816C292.524 191.271 273.065 204.525 264.756 208.323L256.471 212.121H242.32L245.425 201.245Z" fill="#502A73" stroke="#502A73" stroke-width="0.49" stroke-linecap="round" stroke-linejoin="round"/>
<path d="M245.425 201.245C245.425 201.245 280.088 184.362 286.306 187.816C292.524 191.271 273.065 204.525 264.756 208.323L256.471 212.121H242.32L245.425 201.245Z" stroke="#502A73" stroke-width="0.49" stroke-linecap="round" stroke-linejoin="round"/>
<path d="M258.387 176.207C258.326 180.114 257.79 183.999 256.79 187.777C255.234 193.131 254.548 192.955 254.891 197.615C255.234 202.275 261.452 230.258 261.452 230.258C261.452 230.258 277.343 242.944 310.139 250.118C318.314 251.914 326.323 254.394 334.083 257.53L273.911 335.623C273.911 335.623 276.632 338.455 275.244 337.218C270.702 333.173 256.312 317.861 240.859 306.403C220.818 291.554 209.732 279.122 204.145 257.873C200.481 244.093 200.952 206.679 200.952 206.679L184.071 197.36L169.162 188.479L167.087 160.663" fill="#008056"/>
<path d="M258.387 176.207C258.326 180.114 257.79 183.999 256.79 187.777C255.234 193.131 254.548 192.955 254.891 197.615C255.234 202.275 261.452 230.258 261.452 230.258C261.452 230.258 277.343 242.944 310.139 250.118C318.314 251.914 326.323 254.394 334.083 257.53L273.911 335.623C273.911 335.623 276.632 338.455 275.244 337.218C270.702 333.173 256.312 317.861 240.859 306.403C220.818 291.554 209.732 279.122 204.145 257.873C200.481 244.093 200.952 206.679 200.952 206.679L184.071 197.36L169.162 188.479L167.087 160.663" stroke="#502A73" stroke-width="0.49" stroke-linecap="round" stroke-linejoin="round"/>
<path d="M212.086 202.458C212.086 202.458 214.856 233.888 216.755 242.354C218.655 250.82 220.379 261.001 231.785 270.505C239.67 277.071 264.748 290.165 279.458 297.634" fill="#008056"/>
<path d="M212.086 202.458C212.086 202.458 214.856 233.888 216.755 242.354C218.655 250.82 220.379 261.001 231.785 270.505C239.67 277.071 264.748 290.165 279.458 297.634" stroke="#502A73" stroke-width="0.49" stroke-linecap="round" stroke-linejoin="round"/>
<path d="M165.315 157.982C148.996 176.897 134.208 197.078 121.089 218.337C89.9137 268.853 69.0102 336.428 69.0102 336.428C69.0102 336.428 71.8676 356.312 106.723 361.539C129.071 364.898 148.49 358.842 150.038 348.229C150.078 347.918 150.11 347.615 150.126 347.304C150.772 340.673 155.354 299.269 171.277 263.403C188.637 224.305 203.666 207.972 203.666 207.972L233.333 194.479" fill="#008056"/>
<path d="M165.315 157.982C148.996 176.897 134.208 197.078 121.089 218.337C89.9137 268.853 69.0102 336.428 69.0102 336.428C69.0102 336.428 71.8676 356.312 106.723 361.539C129.071 364.898 148.49 358.842 150.038 348.229C150.078 347.918 150.11 347.615 150.126 347.304C150.772 340.673 155.354 299.269 171.277 263.403C188.637 224.305 203.666 207.972 203.666 207.972L233.333 194.479" stroke="#502A73" stroke-width="0.49" stroke-linecap="round" stroke-linejoin="round"/>
<path d="M105.238 321.156C100.761 335.239 96.8257 348.285 93.8007 358.571C95.8919 359.257 98.1666 359.876 100.625 360.43C110.634 326.454 130.627 262.142 147.947 228.542C151.698 221.265 153.055 218.624 156.575 212.336C166.153 195.181 180.033 174.435 191.446 167.773L182.898 164.581C173.44 173.43 161.46 189.229 152.089 205.857C148.203 212.743 145.976 216.98 141.666 225.342C131.394 245.25 119.134 277.462 105.238 321.156Z" fill="#4BBEA5" stroke="#502A73" stroke-width="0.49" stroke-linecap="round" stroke-linejoin="round"/>
<path d="M239.04 70.3472C239.04 70.3472 247.819 79.4993 252.512 100.564C257.206 121.629 262.09 144.968 266.161 153.059C275.387 171.635 283.329 178.752 286.833 183.827C287.572 184.918 287.988 186.195 288.034 187.512C288.079 188.829 287.751 190.132 287.088 191.271C287.31 190.443 287.31 189.571 287.088 188.742C285.069 184.473 276.632 190.849 271.923 193.378C265.953 196.57 258.004 200.727 245.393 201.245C224.833 202.091 222.079 194.335 199.795 196.067C189.626 196.865 176.17 202.498 162.912 197.096C155.354 194.024 150.389 188.223 148.793 181.425C148.099 178.489 148.091 174.786 149.376 172.824L162.354 152.987C163.05 151.749 163.48 150.38 163.617 148.966C163.755 147.553 163.596 146.126 163.152 144.777L154.699 118.845L164.932 73.9937L187.192 70.3711L239.04 70.3472Z" fill="#EEC718" stroke="#502A73" stroke-width="0.49" stroke-linecap="round" stroke-linejoin="round"/>
<path d="M200.96 67.1794L219.317 58.8491C219.126 57.0059 218.208 48.3884 217.953 46.0825C216.747 35.1749 215 20.4533 213.874 15.9212C211.679 7.05632 210.338 4.75035 204.48 3.40985C199.523 2.27681 192.667 5.30094 187.384 8.724C184.191 10.7746 184.375 21.4188 184.375 21.4188C184.375 21.4188 184.047 24.9696 183.776 29.6135C183.754 30.1792 183.543 30.7212 183.177 31.1534L180.296 35.143C180.116 35.3923 179.99 35.6764 179.927 35.9771C179.864 36.2778 179.864 36.5885 179.928 36.8891C179.992 37.1898 180.118 37.4736 180.298 37.7226C180.478 37.9716 180.709 38.1801 180.974 38.3347L183.082 39.5794C183.92 40.13 183.68 40.5529 183.026 41.7178C182.1 43.3536 183.704 44.1834 184.071 44.3749C184.726 44.718 183.752 44.8138 183.64 46.0665C183.544 47.1437 184.087 47.4708 184.159 48.1012C184.231 48.7315 184.335 49.3619 184.414 49.8326C184.637 51.1692 185.297 52.3941 186.291 53.3154C187.284 54.2367 188.556 54.8022 189.906 54.9233L197.321 55.6016L200.058 67.6501L200.96 67.1794Z" fill="#BF792A" stroke="#502A73" stroke-width="0.49" stroke-linecap="round" stroke-linejoin="round"/>
<path d="M191.654 8.13363C191.654 8.13363 185.715 6.88885 181.557 8.00594C173.791 10.0725 173.121 20.0465 181.669 20.8285C190.217 21.6104 191.989 19.0092 191.989 19.0092" fill="#502A73"/>
<path d="M191.654 8.13363C191.654 8.13363 185.715 6.88885 181.557 8.00594C173.791 10.0725 173.121 20.0465 181.669 20.8285C190.217 21.6104 191.989 19.0092 191.989 19.0092" stroke="#502A73" stroke-width="0.49" stroke-linecap="round" stroke-linejoin="round"/>
<path d="M184.223 44.4708C185.07 44.6058 185.938 44.4958 186.724 44.1536C187.51 43.8114 188.182 43.2515 188.661 42.5398L188.804 42.3164" stroke="#502A73" stroke-width="0.49" stroke-linecap="round" stroke-linejoin="round"/>
<path d="M214.106 22.2488H213.004C209.456 22.2488 206.579 25.1245 206.579 28.672V34.776C206.579 38.3235 209.456 41.1993 213.004 41.1993H214.106C217.654 41.1993 220.531 38.3235 220.531 34.776V28.672C220.531 25.1245 217.654 22.2488 214.106 22.2488Z" fill="#EEC718" stroke="#502A73" stroke-width="0.49" stroke-linecap="round" stroke-linejoin="round"/>
<path d="M212.254 22.2488H211.152C207.604 22.2488 204.727 25.1245 204.727 28.672V34.776C204.727 38.3235 207.604 41.1993 211.152 41.1993H212.254C215.802 41.1993 218.679 38.3235 218.679 34.776V28.672C218.679 25.1245 215.802 22.2488 212.254 22.2488Z" fill="#EEC718" stroke="#502A73" stroke-width="0.49" stroke-linecap="round" stroke-linejoin="round"/>
<path d="M226.948 53.9819C226.948 53.9819 237.954 52.9446 244.044 62.1446C250.134 71.3446 237.18 75.0948 236.534 74.9671C235.887 74.8394 212.956 70.818 212.956 70.818L214.8 62.3999" fill="#008056"/>
<path d="M226.948 53.9819C226.948 53.9819 237.954 52.9446 244.044 62.1446C250.134 71.3446 237.18 75.0948 236.534 74.9671C235.887 74.8394 212.956 70.818 212.956 70.818L214.8 62.3999" stroke="#502A73" stroke-width="0.49" stroke-linecap="round" stroke-linejoin="round"/>
<path d="M205.15 2.979C210.977 4.45515 212.27 6.78506 214.265 15.6898C214.983 18.8815 215.861 27.1399 216.707 35.55C216.733 35.8139 216.703 36.0802 216.621 36.3323C216.539 36.5844 216.406 36.8169 216.23 37.0152C216.054 37.2136 215.839 37.3736 215.598 37.4853C215.358 37.597 215.097 37.658 214.832 37.6644H214.728C212.874 37.6971 211.056 37.1462 209.532 36.0894C208.008 35.0327 206.855 33.5237 206.236 31.7758C205.972 31.0258 205.821 30.5151 205.821 30.5151C205.821 30.5151 203.554 26.9005 201.83 26.2223C200.848 25.8473 199.946 26.9405 199.882 28.3847C199.699 33.0764 198.909 34.8638 196.267 33.7068C193.625 32.5498 194.527 29.007 194.527 29.007C194.527 29.007 196.554 26.8048 196.275 25.9909C195.628 25.1501 194.849 24.4198 193.968 23.8286C193.371 23.364 192.888 22.7699 192.555 22.0912C192.222 21.4125 192.047 20.6669 192.045 19.9108C192.066 19.6041 192.049 19.296 191.997 18.9932" fill="#502A73"/>
<path d="M205.15 2.979C210.977 4.45515 212.27 6.78506 214.265 15.6898C214.983 18.8815 215.861 27.1399 216.707 35.55C216.733 35.8139 216.703 36.0802 216.621 36.3323C216.539 36.5844 216.406 36.8169 216.23 37.0152C216.054 37.2136 215.839 37.3736 215.598 37.4853C215.358 37.597 215.097 37.658 214.832 37.6644H214.728C212.874 37.6971 211.056 37.1462 209.532 36.0894C208.008 35.0327 206.855 33.5237 206.236 31.7758C205.972 31.0258 205.821 30.5151 205.821 30.5151C205.821 30.5151 203.554 26.9005 201.83 26.2223C200.848 25.8473 199.946 26.9405 199.882 28.3847C199.699 33.0764 198.909 34.8638 196.267 33.7068C193.625 32.5498 194.527 29.007 194.527 29.007C194.527 29.007 196.554 26.8048 196.275 25.9909C195.628 25.1501 194.849 24.4198 193.968 23.8286C193.371 23.364 192.888 22.7699 192.555 22.0912C192.222 21.4125 192.047 20.6669 192.045 19.9108C192.066 19.6041 192.049 19.296 191.997 18.9932" stroke="#502A73" stroke-width="0.49" stroke-linecap="round" stroke-linejoin="round"/>
<path d="M188.94 7.76644C188.94 7.76644 187.432 12.514 192.739 24.8179C195.509 31.2013 201.008 35.2946 199.396 40.5927C193.968 58.4182 199.986 61.6657 199.986 61.6657L224.617 68.4001L231.801 53.0083C233.572 49.2102 232.463 45.1728 231.042 41.2311C229.159 36.0207 225.527 25.7834 220.738 17.6287C218.344 13.5673 213.092 0.657019 202.987 1.048C197.017 1.2395 188.94 7.76644 188.94 7.76644Z" fill="#008056" stroke="#502A73" stroke-width="0.49" stroke-linecap="round" stroke-linejoin="round"/>
<path d="M197.927 58.6018C197.927 58.6018 180.049 63.1739 185.747 74.0574C191.446 84.941 203.235 89.6009 225 89.8562C246.766 90.1115 249.575 96.423 257.605 102.894C262.505 106.844 273.759 110.578 279.849 110.299C284.702 110.075 289.427 109.054 292.252 105.08L302.628 90.3749C302.628 90.3749 277.886 92.0664 272.57 83.6404C258.666 61.6259 235.265 60.9317 222.821 63.2616C214.232 64.8277 205.367 63.1684 197.927 58.6018Z" fill="#008056" stroke="#502A73" stroke-width="0.49" stroke-linecap="round" stroke-linejoin="round"/>
<path d="M198.262 5.06172C193.657 12.9531 196.826 24.5548 196.826 24.5548H202.828C202.828 24.5548 198.645 10.0726 205.486 3.07492C206.116 2.48299 206.889 2.06269 207.728 1.85413C206.236 1.23448 204.626 0.945912 203.011 1.00834C201.032 1.81176 199.366 3.23367 198.262 5.06172Z" fill="#4BBEA5" stroke="#502A73" stroke-width="0.49" stroke-linecap="round" stroke-linejoin="round"/>
<path d="M185.787 28.3368C186.51 28.1642 187.267 28.2058 187.966 28.4565" stroke="#502A73" stroke-width="0.98" stroke-linecap="round" stroke-linejoin="round"/>
<path d="M186.107 28.321C185.843 28.8138 185.693 29.3589 185.668 29.9169C185.612 30.8504 185.931 31.3132 186.354 31.3371C186.777 31.3611 187.152 30.9382 187.2 30.0046C187.236 29.4447 187.148 28.8837 186.945 28.3609L186.107 28.321Z" fill="#502A73"/>
<path d="M184.718 25.3206C184.759 25.4108 184.819 25.4912 184.895 25.5562C184.97 25.6212 185.058 25.6693 185.153 25.6973C185.249 25.7252 185.349 25.7324 185.447 25.7184C185.546 25.7043 185.64 25.6693 185.723 25.6158C186.125 25.3435 186.576 25.1532 187.052 25.056C187.527 24.9588 188.017 24.9565 188.493 25.0492C189.003 25.1527 189.497 25.3245 189.962 25.5599C190.055 25.6094 190.16 25.6339 190.266 25.631C190.372 25.6281 190.475 25.5979 190.566 25.5433C190.657 25.4887 190.732 25.4116 190.784 25.3194C190.836 25.2273 190.863 25.1232 190.863 25.0173C190.866 24.9261 190.848 24.8354 190.813 24.7515C190.777 24.6675 190.723 24.5922 190.656 24.5306C189.882 23.7889 188.851 23.3748 187.779 23.3748C186.706 23.3748 185.675 23.7889 184.901 24.5306C184.792 24.6264 184.715 24.7542 184.682 24.896C184.649 25.0377 184.662 25.1863 184.718 25.3206Z" fill="#502A73"/>
<path d="M260.494 173.007C260.494 173.007 278.636 174.818 295.349 167.055C312.062 159.291 323.995 140.141 321.64 123.401C319.038 104.881 304.504 90.3749 280.839 101.059C261.683 109.74 259.377 121.526 240.852 128.779C219.765 137.029 199.691 125.93 200.258 103.533C200.737 84.7576 210.003 78.7971 208.902 66.6449C207.968 56.272 198.781 53.8303 198.781 41.1754V33.9941" stroke="#502A73" stroke-width="2.46" stroke-linecap="round" stroke-linejoin="round"/>
<path d="M260.494 173.007C260.494 173.007 278.636 174.818 295.349 167.055C312.062 159.291 323.995 140.141 321.64 123.401C319.038 104.881 304.504 90.3749 280.839 101.059C261.683 109.74 259.377 121.526 240.852 128.779C219.765 137.029 199.691 125.93 200.258 103.533C200.737 84.7576 210.003 78.7971 208.902 66.6449C207.968 56.272 198.781 53.8303 198.781 41.1754V33.9941" stroke="#4BBEA5" stroke-width="1.48" stroke-linecap="round" stroke-linejoin="round"/>
<path d="M200.808 22.2488H199.707C196.159 22.2488 193.282 25.1245 193.282 28.672V34.776C193.282 38.3235 196.159 41.1993 199.707 41.1993H200.808C204.357 41.1993 207.234 38.3235 207.234 34.776V28.672C207.234 25.1245 204.357 22.2488 200.808 22.2488Z" fill="#4BBEA5" stroke="#502A73" stroke-width="0.49" stroke-linecap="round" stroke-linejoin="round"/>
<path d="M198.957 22.2488H197.855C194.307 22.2488 191.43 25.1245 191.43 28.672V34.776C191.43 38.3235 194.307 41.1993 197.855 41.1993H198.957C202.505 41.1993 205.382 38.3235 205.382 34.776V28.672C205.382 25.1245 202.505 22.2488 198.957 22.2488Z" fill="#4BBEA5" stroke="#502A73" stroke-width="0.49" stroke-linecap="round" stroke-linejoin="round"/>
<path d="M200.928 27.9618C200.513 27.8044 200.064 27.7569 199.625 27.824C199.186 27.8911 198.771 28.0705 198.422 28.3448C198.075 28.0714 197.662 27.8949 197.224 27.8332C196.787 27.7715 196.341 27.8269 195.932 27.9937C195.395 28.0968 194.92 28.404 194.606 28.8505C194.292 29.297 194.163 29.8481 194.248 30.3875C194.383 30.7306 194.719 30.3875 195.285 29.9885C196.083 29.4379 196.578 29.7571 196.578 29.7571C195.924 29.9408 195.341 30.3159 194.902 30.8343C194.447 31.5684 195.014 32.6296 195.525 32.0312C196.371 31.0417 196.881 31.0338 196.881 31.0338C196.546 31.291 196.273 31.6212 196.083 31.9993C195.828 32.5658 196.012 33.1642 196.435 33.1802C196.698 33.1802 197.871 31.1535 197.704 32.3822C197.502 33.6483 197.438 34.9324 197.512 36.2123C197.509 36.3902 197.573 36.5627 197.691 36.6957C197.81 36.8287 197.973 36.9124 198.151 36.9304H198.446C198.624 36.9075 198.788 36.8217 198.908 36.6885C199.028 36.5553 199.096 36.3836 199.1 36.2043C199.202 34.9276 199.167 33.6437 198.997 32.3743C198.861 31.1216 199.986 33.1722 200.242 33.1244C200.673 33.1244 200.872 32.5099 200.625 31.9434C200.453 31.568 200.196 31.2375 199.875 30.978C199.875 30.978 200.385 30.9779 201.215 31.9674C201.71 32.5578 202.293 31.4886 201.854 30.7625C201.431 30.2454 200.855 29.8742 200.21 29.7013C200.21 29.7013 200.713 29.3741 201.495 29.9167C202.054 30.2997 202.381 30.6588 202.524 30.3077C202.618 29.7856 202.504 29.2475 202.205 28.8089C201.907 28.3703 201.448 28.0662 200.928 27.9618Z" fill="#4BBEA5" stroke="#502A73" stroke-width="0.49" stroke-linecap="round" stroke-linejoin="round"/>
<path d="M209.891 195.931C223.611 196.777 228.448 201.94 245.425 201.246C258.036 200.727 265.985 196.586 271.955 193.378C276.656 190.849 285.093 184.473 287.12 188.742C287.342 189.571 287.342 190.443 287.12 191.272C287.783 190.133 288.111 188.829 288.066 187.512C288.02 186.195 287.604 184.918 286.865 183.827C283.361 178.752 275.419 171.635 266.193 153.059C263.702 148.064 260.869 137.269 257.956 124.773" fill="#EEC718"/>
<path d="M209.891 195.931C223.611 196.777 228.448 201.94 245.425 201.246C258.036 200.727 265.985 196.586 271.955 193.378C276.656 190.849 285.093 184.473 287.12 188.742C287.342 189.571 287.342 190.443 287.12 191.272C287.783 190.133 288.111 188.829 288.066 187.512C288.02 186.195 287.604 184.918 286.865 183.827C283.361 178.752 275.419 171.635 266.193 153.059C263.702 148.064 260.869 137.269 257.956 124.773" stroke="#502A73" stroke-width="0.49" stroke-linecap="round" stroke-linejoin="round"/>
<path d="M97.0013 108.121L88.7484 99.2478L87.4235 87.0716C87.3746 86.6134 87.2892 86.1598 87.1681 85.7151C86.7091 84.1085 85.7399 82.6948 84.4067 81.6872C83.0734 80.6797 81.4485 80.133 79.7772 80.1297H76.8321L74.1982 76.6348C73.1074 75.2519 71.7504 74.1016 70.2074 73.2517C65.9932 71.3686 63.9659 75.9646 63.1119 76.563C62.2579 77.1614 61.0766 75.7651 58.9376 77.0657C55.5455 79.1243 56.607 81.0952 55.5056 81.9889C54.7074 82.6272 53.5581 81.925 52.0655 83.1538C50.3734 84.5581 50.5251 88.0769 49.8706 88.7392C44.4272 94.1172 48.3142 100.596 51.6345 105.384C55.0825 110.347 66.0012 118.685 66.0012 118.685C66.0012 118.685 72.8254 125.068 73.9827 126.664C74.6851 124.917 85.1567 128.523 86.2901 126.537C91.2067 117.56 89.7461 109.701 97.0013 108.121Z" fill="#BF792A" stroke="#502A73" stroke-width="0.49" stroke-linecap="round" stroke-linejoin="round"/>
<path d="M76.8321 80.1614C78.1003 82.094 79.1699 84.1497 80.0247 86.2974L76.8321 80.1614Z" fill="#BF792A"/>
<path d="M76.8321 80.1614C78.1003 82.094 79.1699 84.1497 80.0247 86.2974" stroke="#502A73" stroke-width="0.49" stroke-linecap="round" stroke-linejoin="round"/>
<path d="M89.8738 105.831C87.8641 106.757 85.9701 107.917 84.2309 109.286C82.2971 110.842 80.4606 112.515 78.7316 114.296" fill="#EEC718"/>
<path d="M89.8738 105.831C87.8641 106.757 85.9701 107.917 84.2309 109.286C82.2971 110.842 80.4606 112.515 78.7316 114.296" stroke="#502A73" stroke-width="0.49" stroke-linecap="round" stroke-linejoin="round"/>
<path d="M115.622 168.826C121.544 171.786 128.387 172.322 134.698 170.318C139.969 168.643 144.552 165.299 147.756 160.791L175.076 122.284C178.254 117.803 179.984 112.456 180.033 106.964C180.081 100.963 179.514 93.0797 176.84 86.7523C171.836 74.8314 164.924 73.9856 164.924 73.9856L160.175 75.4218C155.997 76.6816 152.429 79.4336 150.15 83.1537L125.016 124.262L118.775 121.366C111.017 117.767 95.3172 101.234 95.3172 101.234C89.8738 101.362 79.2584 103.309 70.4389 115.477C67.7252 119.235 63.4471 129.84 66.5519 137.627C73.001 146.133 96.7698 158.214 115.622 168.826Z" fill="#EEC718" stroke="#502A73" stroke-width="0.49" stroke-linecap="round" stroke-linejoin="round"/>
<path d="M125.016 124.262C121.67 129.692 119.086 135.556 117.338 141.689L117.083 142.591" fill="#EEC718"/>
<path d="M125.016 124.262C121.67 129.692 119.086 135.556 117.338 141.689L117.083 142.591" stroke="#502A73" stroke-width="0.49" stroke-linecap="round" stroke-linejoin="round"/>
<path d="M204.727 138.816C209.896 144.932 216.719 149.428 224.378 151.767C236.789 155.381 250.006 155.381 250.006 155.381" fill="#EEC718"/>
<path d="M204.727 138.816C209.896 144.932 216.719 149.428 224.378 151.767C236.789 155.381 250.006 155.381 250.006 155.381" stroke="#502A73" stroke-width="0.49" stroke-linecap="round" stroke-linejoin="round"/>
<path d="M325.646 313.171C342.499 291.388 347.783 267.252 337.448 259.261C327.113 251.27 305.073 262.45 288.22 284.233C271.368 306.015 266.084 330.152 276.419 338.143C286.754 346.134 308.794 334.954 325.646 313.171Z" fill="#502A73" stroke="#502A73" stroke-width="0.49" stroke-linecap="round" stroke-linejoin="round"/>
<path d="M325.646 313.171C342.499 291.388 347.783 267.252 337.448 259.261C327.113 251.27 305.073 262.45 288.22 284.233C271.368 306.015 266.084 330.152 276.419 338.143C286.754 346.134 308.794 334.954 325.646 313.171Z" stroke="#502A73" stroke-width="0.49" stroke-linecap="round" stroke-linejoin="round"/>
<path d="M237.659 240.615C237.659 240.615 240.093 241.716 249.831 238.979C263.974 234.989 261.492 230.258 261.492 230.258" fill="#008056"/>
<path d="M237.659 240.615C237.659 240.615 240.093 241.716 249.831 238.979C263.974 234.989 261.492 230.258 261.492 230.258" stroke="#502A73" stroke-width="0.49" stroke-linecap="round" stroke-linejoin="round"/>
<path d="M180.088 271.877C170.606 272.938 157.445 272.771 146.79 261.017C139.798 253.301 136.645 217.531 90.8236 226.093C76.1696 228.829 66.5519 226.619 61.1165 215.025C55.6811 203.432 50.4931 186.3 34.6818 176.239C23.3082 169.002 8.43874 168.347 1 168.547V217.73C7.87771 218.817 14.4627 221.29 20.3551 224.999C36.1584 235.045 37.619 239.936 41.3384 252.192C47.133 271.255 61.8109 277.199 76.4968 274.845C91.1827 272.491 95.7561 269.675 108.423 277.119C121.089 284.564 125.224 302.262 132.431 309.778C147.101 325.082 166.847 323.989 180.057 321.842L180.088 271.877Z" fill="#EEC718" stroke="#502A73" stroke-width="0.49" stroke-linecap="round" stroke-linejoin="round"/>
<path d="M146.79 261.017C139.798 253.301 136.645 217.531 90.8236 226.093C76.1696 228.829 66.5519 226.619 61.1165 215.025C55.6811 203.432 50.4932 186.3 34.6818 176.239C23.3082 169.002 8.43874 168.347 1 168.547V194.942C7.87674 196.032 14.461 198.505 20.3551 202.211C36.1584 212.257 37.619 217.156 41.3384 229.404C47.133 248.474 61.8109 254.411 76.4968 252.065C91.1828 249.719 95.7561 246.886 108.423 254.339C121.089 261.791 125.224 279.473 132.431 286.989C147.101 302.301 166.847 301.2 180.057 299.054V271.877C170.606 272.938 157.445 272.771 146.79 261.017Z" fill="#A9D054" stroke="#502A73" stroke-width="0.49" stroke-linecap="round" stroke-linejoin="round"/>
<path d="M130.994 199.466C123.412 197.304 119.254 200.814 118.687 201.333C118.136 200.822 114.058 197.343 106.435 199.61C99.1163 201.772 96.9055 208.331 98.1665 211.578C98.829 213.286 100.497 211.522 103.267 209.615C107.186 206.91 109.652 208.49 109.652 208.49C109.652 208.49 103.666 210.206 101.423 213.797C99.1802 217.387 101.95 222.574 104.464 219.661C108.614 214.794 111.152 214.746 111.152 214.746C109.544 216.044 108.239 217.678 107.329 219.534C106.068 222.334 106.97 225.271 109.077 225.334C110.362 225.334 116.109 215.4 115.295 221.576C114.161 230.074 113.978 236.178 114.353 240.407C114.529 242.426 115.877 243.926 117.482 243.918H118.934C120.531 243.918 121.919 242.394 122.127 240.367C122.598 236.13 122.558 229.994 121.632 221.544C120.962 215.384 126.477 225.287 127.754 225.239C129.869 225.151 130.835 222.199 129.645 219.414C128.779 217.585 127.51 215.976 125.934 214.706C125.934 214.706 128.464 214.706 132.511 219.549C134.953 222.462 137.834 217.212 135.703 213.645C133.572 210.078 127.602 208.435 127.602 208.435C127.602 208.435 130.084 206.839 133.932 209.48C136.653 211.363 138.281 213.11 138.984 211.387C140.341 208.044 138.289 201.549 130.994 199.466Z" fill="#A9D054" stroke="#502A73" stroke-width="0.49" stroke-linecap="round" stroke-linejoin="round"/>
<path d="M53.9492 146.668C46.3668 144.497 42.2084 148.008 41.6497 148.527C41.091 148.016 37.0204 144.537 29.3902 146.803C22.0711 148.966 19.8682 155.525 21.1213 158.772C21.7838 160.48 23.4599 158.716 26.2215 156.809C30.1404 154.104 32.6067 155.692 32.6067 155.692C32.6067 155.692 26.6206 157.4 24.3857 160.99C22.1509 164.581 24.9046 169.767 27.4187 166.855C31.5771 161.988 34.1152 161.94 34.1152 161.94C32.5085 163.224 31.2034 164.844 30.292 166.688C29.023 169.488 29.9249 172.433 32.032 172.488C33.317 172.488 39.0717 162.554 38.2496 168.73C37.1162 177.228 36.9326 183.332 37.3078 187.561C37.4834 189.58 38.8322 191.08 40.4365 191.072H41.8891C43.4854 191.072 44.8822 189.548 45.0817 187.521C45.5526 183.292 45.5207 177.188 44.5869 168.698C43.9164 162.538 49.4317 172.441 50.7167 172.393C52.8238 172.305 53.7975 169.353 52.6003 166.568C51.734 164.739 50.4652 163.13 48.8889 161.86C48.8889 161.86 51.427 161.86 55.4656 166.703C57.908 169.616 60.7973 164.366 58.6582 160.799C56.5192 157.232 50.557 155.597 50.557 155.597C50.557 155.597 53.0393 154.001 56.8863 156.634C59.608 158.517 61.2362 160.264 61.9466 158.541C63.2635 155.269 61.2123 148.742 53.9492 146.668Z" fill="#A9D054" stroke="#502A73" stroke-width="0.49" stroke-linecap="round" stroke-linejoin="round"/>
<path d="M288.23 284.277C280.081 294.801 274.661 305.877 272.354 315.396L274.238 318.691L297.329 320.925L316.101 267.632L308.654 264.568C300.871 270.046 293.981 276.694 288.23 284.277Z" fill="#BF792A" stroke="#502A73" stroke-width="0.49" stroke-linecap="round" stroke-linejoin="round"/>
<path d="M289.658 328.426C289.658 328.426 289.938 347.009 281.198 350.528C276.082 352.587 268.962 345.669 266.384 339.214C261.755 327.636 279.57 313.872 279.57 313.872L288.349 304.209L289.658 328.426Z" fill="#EAE7DA" stroke="#502A73" stroke-width="0.49" stroke-linecap="round" stroke-linejoin="round"/>
<path d="M288.23 329.622C288.23 333.715 287.24 345.468 282.227 347.487C280.903 348.014 277.909 347.399 274.015 343.577C272.229 341.825 270.808 339.737 269.832 337.433C268.276 333.532 271.78 328.202 274.007 325.369C276.303 322.511 278.899 319.905 281.749 317.597L282.012 317.398L285.077 314.015L288.23 329.622Z" fill="#EAE7DA" stroke="#502A73" stroke-width="0.49" stroke-linecap="round" stroke-linejoin="round"/>
<path d="M301.926 278.955C301.417 281.483 301.049 284.037 300.824 286.607C300.682 288.098 300.051 289.501 299.029 290.596L286.521 304.073C284.788 306.168 283.615 308.669 283.113 311.342L279.785 333.117C279.785 333.117 277 343.091 276.688 359.249C276.377 375.407 282.275 388.516 293.449 393.775C304.623 399.033 342.44 329.439 342.44 329.439L362.601 280.933C360.471 277.984 357.72 275.538 354.541 273.767C351.362 271.997 347.833 270.946 344.204 270.688C337.515 270.233 325.264 268.669 316.085 267.616C314.512 267.435 312.918 267.572 311.399 268.019C309.88 268.466 308.466 269.213 307.241 270.217L307.066 270.361C304.425 272.558 302.612 275.589 301.926 278.955Z" fill="#EAE7DA" stroke="#502A73" stroke-width="0.49" stroke-linecap="round" stroke-linejoin="round"/>
<path d="M344.212 270.72C337.523 270.265 325.272 268.701 316.093 267.648C314.52 267.467 312.926 267.604 311.407 268.051C309.888 268.497 308.474 269.245 307.249 270.249L307.074 270.393L307.002 270.465C309.962 271.449 313.005 272.167 316.093 272.611C323.468 273.64 339.79 275.715 339.79 275.715L347.708 271.207C346.556 270.958 345.387 270.795 344.212 270.72Z" fill="#4BBEA5" stroke="#502A73" stroke-width="0.49" stroke-linecap="round" stroke-linejoin="round"/>
<path d="M362.609 280.966C360.479 278.016 357.728 275.57 354.549 273.799C351.37 272.029 347.841 270.978 344.212 270.72C341.187 270.513 337.028 270.082 332.535 269.571C329.598 270.058 320.722 274.255 318.224 291.259C314.329 317.75 297.352 317.015 290.377 333.221C286.905 341.304 288.78 346.889 286.186 356.361C283.592 365.832 279.314 370.851 279.314 370.851L292.835 378.168C292.835 378.168 323.619 340.793 323.907 340.347C324.098 340.051 337.348 328.178 346.574 319.601L362.609 280.966Z" fill="#4BBEA5" stroke="#502A73" stroke-width="0.49" stroke-linecap="round" stroke-linejoin="round"/>
<path d="M293.298 377.417C293.298 377.417 282.674 367.467 277.614 370.763C279.665 381.511 285.077 389.865 293.457 393.807C296.435 395.203 301.311 391.285 306.858 384.782C309.404 379.612 311.472 375.311 311.472 375.311L293.298 377.417Z" fill="#4BBEA5" stroke="#502A73" stroke-width="0.49" stroke-linecap="round" stroke-linejoin="round"/>
<path d="M303.498 297.578C303.498 297.578 305.893 288.386 307.72 282.984L309.516 277.582L310.362 297.283L303.498 297.578Z" fill="#4BBEA5" stroke="#502A73" stroke-width="0.49" stroke-linecap="round" stroke-linejoin="round"/>
<path d="M290.624 369.765C284.814 394.245 296.267 399.903 309.78 392.721C326.221 383.944 338.968 362.895 349.256 342.979C357.453 327.101 365.506 310.041 366.608 298.783C368.563 278.707 355.434 275.771 353.039 275.316C343.709 273.513 334.929 276.281 316.548 322.688C313.252 331.09 294.224 354.653 290.624 369.765Z" fill="#502A73" stroke="#502A73" stroke-width="0.49" stroke-linecap="round" stroke-linejoin="round"/>
<path d="M290.624 369.765C284.814 394.245 296.267 399.903 309.78 392.721C326.221 383.944 338.968 362.895 349.256 342.979C357.453 327.101 365.506 310.041 366.608 298.783C368.563 278.707 355.434 275.771 353.039 275.316C343.709 273.513 334.929 276.281 316.548 322.688C313.252 331.09 294.224 354.653 290.624 369.765Z" stroke="#502A73" stroke-width="0.49" stroke-linecap="round" stroke-linejoin="round"/>
</svg>
