<svg width="23" height="27" viewBox="0 0 23 27" fill="none" xmlns="http://www.w3.org/2000/svg">
<path d="M22.9227 11.0467C22.7067 11.0693 22.4827 11.076 22.2653 11.076C19.8533 11.084 17.5973 9.86667 16.2827 7.84267V18.8587C16.2827 23.356 12.6373 27 8.14133 27C3.64533 27 0 23.356 0 18.8587C0 14.3627 3.64533 10.7187 8.14133 10.7187C8.30533 10.7187 8.47733 10.7333 8.64133 10.748V14.7587C8.47733 14.736 8.31333 14.7067 8.14133 14.7067C5.84133 14.7067 3.98133 16.5667 3.98133 18.8587C3.98133 21.152 5.84133 23.02 8.14133 23.02C10.4347 23.02 12.4587 21.204 12.4587 18.912L12.504 0.209335H16.3347C16.7013 3.64533 19.472 6.33333 22.9307 6.588V11.0467" fill="white"/>
</svg>
