<svg width="430" height="325" viewBox="0 0 430 325" fill="none" xmlns="http://www.w3.org/2000/svg">
<path d="M-45.4636 324.795C-58.5003 324.348 -71.6856 323.179 -85.0001 321.29C-127.88 315.207 -172.491 301.614 -217.589 280.889C-260.421 261.205 -300.794 237.464 -339.836 214.503C-379.989 190.889 -421.509 166.47 -465.726 146.459C-578.34 95.4918 -684.918 103.97 -783.313 120.721L-783.381 120.471C-719.502 109.594 -667.811 105.785 -620.703 108.485C-565.443 111.65 -514.694 123.999 -465.565 146.234C-421.331 166.253 -379.802 190.677 -339.642 214.293C-300.606 237.249 -260.243 260.988 -217.425 280.664C-119.927 325.47 -28.1406 336.254 55.3867 312.717C129.718 291.773 187.989 248.197 244.341 206.058C252.258 200.136 260.443 194.016 268.493 188.097C308.007 159.04 342.123 138.301 375.861 122.828C417.226 103.855 458.865 92.4519 503.157 87.9649C548.452 83.3782 597.13 84.3779 651.968 91.0227C703.572 97.2763 754.562 107.838 797.635 117.344C888.705 137.442 980.463 160.163 1069.2 182.135C1092.54 187.913 1116.67 193.891 1140.42 199.725C1192.34 212.483 1253.87 227.47 1316.57 241.885C1321.56 243.032 1332.98 245.052 1347.44 247.609C1395.9 256.179 1477 270.524 1479 280.339L1478.68 280.38C1477.83 276.218 1461.53 270.601 1430.22 263.688C1403.58 257.802 1371.09 252.055 1347.37 247.859C1332.9 245.3 1321.48 243.278 1316.48 242.13C1253.78 227.713 1192.24 212.726 1140.32 199.968C1116.58 194.131 1092.44 188.156 1069.1 182.378C980.366 160.406 888.608 137.687 797.545 117.589C731.945 103.111 658.447 88.3868 583.47 85.8071C556.799 84.8892 529.957 85.5054 503.192 88.2155C402.629 98.4013 328.224 144.516 268.706 188.281C260.657 194.2 252.471 200.321 244.554 206.242C188.18 248.401 129.883 291.995 55.4868 312.957C23.2633 322.036 -10.5591 325.991 -45.4669 324.79L-45.4636 324.795Z" fill="white"/>
<path d="M-57.4765 313.499C-69.079 313.101 -80.7881 312.193 -92.5909 310.774C-135.974 305.561 -180.582 293.493 -225.18 274.909C-228.775 273.411 -232.493 271.831 -236.231 270.215C-277.912 252.185 -317.791 230.379 -356.361 209.287C-394.518 188.422 -433.974 166.843 -475.94 148.41C-534.892 122.385 -592.672 111.997 -647.491 110.108C-699.631 108.313 -749.087 114.204 -794.383 121.641L-794.457 121.357C-730.985 110.934 -679.171 107.48 -631.398 110.481C-576.247 113.946 -525.341 126.269 -475.762 148.154C-433.78 166.595 -394.318 188.176 -356.155 209.046C-317.594 230.131 -277.721 251.937 -236.056 269.959C-232.319 271.575 -228.601 273.155 -225.009 274.651C-130.089 314.208 -35.7573 323.66 47.7925 301.987C120.111 283.226 176.703 242.879 231.431 203.859C239.696 197.966 248.246 191.871 256.657 185.99C258.89 184.431 261.109 182.892 263.26 181.414C300.823 155.563 333.344 137.137 365.603 123.421C405.045 106.652 444.585 96.7751 486.483 93.229C522.579 90.1764 561.68 90.6314 606.016 94.6275C647.093 98.3295 687.182 104.517 724.38 110.65C741.234 113.434 758.919 116.52 781.727 120.654C834.048 130.17 887.565 140.435 945.342 152.038C998.519 162.717 1056.44 175.487 1122.43 191.078C1190.34 207.17 1246.64 220.69 1299.61 233.629C1305.33 235.027 1317.72 237.356 1333.42 240.304C1356.75 244.689 1388.72 250.695 1414.49 256.703C1445.15 263.849 1460.79 269.476 1462.27 273.907L1461.92 273.981C1458.61 264.125 1380.18 249.391 1333.33 240.586C1317.63 237.635 1305.23 235.306 1299.49 233.905C1246.53 220.966 1190.23 207.443 1122.32 191.354C1056.34 175.764 998.419 162.996 945.248 152.316C887.474 140.714 833.958 130.449 781.643 120.933C758.839 116.796 741.154 113.713 724.302 110.929C651.521 98.9253 567.125 86.6916 486.518 93.5128C391.091 101.587 320.229 142.588 263.496 181.629C261.348 183.104 259.129 184.643 256.897 186.203C248.485 192.08 239.939 198.175 231.673 204.069C176.916 243.109 120.295 283.479 47.9056 302.258C14.2415 310.991 -21.0797 314.75 -57.4797 313.497L-57.4765 313.499Z" fill="#9C9C9C" fill-opacity="0.13"/>
<path d="M-70.5424 302.245C-134.221 300.054 -190.767 284.627 -232.765 268.924C-236.305 267.599 -240.029 266.186 -243.831 264.718C-289.195 247.212 -330.798 226.081 -374.847 203.708C-410.398 185.653 -447.16 166.979 -486.153 150.355C-579.407 110.221 -674.898 101.906 -805.452 122.559L-805.533 122.242C-742.478 112.269 -690.541 109.167 -642.09 112.476C-587.072 116.236 -536.004 128.534 -485.96 150.071C-446.953 166.703 -410.185 185.377 -374.628 203.437C-330.592 225.803 -288.998 246.931 -243.653 264.429C-239.855 265.897 -236.13 267.31 -232.594 268.632C-167.452 292.99 -67.2445 316.685 40.2049 291.249C110.537 274.599 165.514 237.402 218.681 201.43C227.247 195.634 236.104 189.641 244.826 183.876C246.99 182.447 249.167 181.018 251.299 179.632C288.387 155.451 320.252 138.326 351.574 125.737C390.322 110.162 429 101.249 469.809 98.4905C543.106 93.5331 618.668 103.801 691.746 113.731C697.437 114.506 703.11 115.275 708.759 116.034C727.775 118.601 745.847 121.143 765.815 123.96C831.526 133.302 879.67 140.451 926.804 147.873C981.8 156.53 1041.56 168.157 1104.43 182.429C1171.44 197.723 1229.73 211.769 1282.64 225.373C1289.07 227.027 1302.23 229.646 1318.9 232.959C1367.45 242.616 1440.83 257.212 1445.55 267.469L1445.17 267.579C1443.16 263.202 1427.37 257.362 1398.25 250.229C1373.19 244.091 1343.03 238.093 1318.8 233.271C1302.12 229.955 1288.95 227.337 1282.51 225.678C1229.61 212.076 1171.32 198.03 1104.31 182.738C1041.46 168.467 981.706 156.842 926.723 148.187C879.593 140.768 831.448 133.617 765.741 124.277C745.776 121.46 727.7 118.918 708.688 116.352C703.038 115.592 697.366 114.82 691.675 114.048C618.623 104.12 543.087 93.8579 469.841 98.8127C377.483 105.059 307.667 143.301 251.554 179.885C249.422 181.271 247.248 182.697 245.084 184.126C236.366 189.889 227.509 195.882 218.943 201.678C165.743 237.671 110.731 274.891 40.318 291.561C2.02832 300.624 -35.3536 303.457 -70.5489 302.247L-70.5424 302.245Z" fill="#9C9C9C" fill-opacity="0.13"/>
<path d="M-85.5579 290.967C-92.9645 290.712 -100.397 290.297 -107.859 289.725C-152.434 286.296 -197.013 277.287 -240.351 262.941C-243.852 261.783 -247.473 260.566 -251.43 259.224C-301.843 242.102 -348.269 220.216 -397.421 197.05C-429.099 182.119 -461.855 166.68 -496.363 152.303C-591.932 112.488 -687.678 103.867 -816.518 123.477L-816.602 123.127C-754.112 113.616 -702.075 110.893 -652.835 114.559C-598.082 118.635 -546.83 130.878 -496.153 151.989C-461.636 166.37 -428.873 181.81 -397.189 196.744C-348.049 219.905 -301.633 241.782 -251.249 258.896C-247.296 260.239 -243.672 261.456 -240.173 262.614C-176.356 283.737 -77.2244 303.988 32.6218 280.513C100.993 265.902 154.416 231.79 206.082 198.802C214.9 193.172 224.018 187.348 233.001 181.764C235.14 180.434 237.271 179.12 239.345 177.852C275.962 155.361 307.171 139.543 337.56 128.071C375.617 113.708 413.422 105.751 453.139 103.752C514.812 100.648 579.149 108.224 641.37 115.551C658.445 117.561 676.097 119.642 693.139 121.421C710.023 123.196 729.972 125.277 749.905 127.271C762.328 128.531 774.771 129.779 786.803 130.988C828.116 135.135 867.139 139.052 908.267 143.71C963.78 149.997 1023.72 160.117 1086.44 173.785C1152.59 188.312 1211.22 202.486 1265.67 217.12C1272.79 219.033 1287.24 222.067 1303.97 225.578C1351.28 235.51 1422.78 250.521 1428.82 261.036L1428.41 261.185C1422.46 250.825 1351.09 235.84 1303.85 225.923C1287.11 222.41 1272.66 219.375 1265.52 217.458C1211.08 202.828 1152.46 188.654 1086.31 174.13C1023.62 160.467 963.693 150.353 908.2 144.066C867.074 139.408 828.054 135.491 786.741 131.344C774.709 130.137 762.267 128.887 749.844 127.626C729.911 125.632 709.962 123.551 693.078 121.777C676.033 119.997 658.377 117.919 641.302 115.907C579.104 108.582 514.789 101.009 453.165 104.11C363.866 108.607 295.103 144.056 239.617 178.139C237.543 179.407 235.411 180.721 233.276 182.05C224.296 187.634 215.181 193.456 206.363 199.085C154.661 232.097 101.203 266.231 32.7382 280.863C-5.26727 288.986 -44.9652 292.373 -85.5579 290.975V290.967Z" fill="#9C9C9C" fill-opacity="0.13"/>
<path d="M-102.897 279.759C-107.106 279.613 -111.315 279.427 -115.534 279.194C-160.849 276.691 -205.392 269.21 -247.932 256.961C-251.363 255.974 -254.99 254.916 -259.024 253.732C-315.312 237.196 -367.417 214.331 -422.581 190.127C-449.549 178.292 -477.434 166.056 -506.576 154.254C-604.222 114.7 -700.228 105.772 -827.587 124.398L-827.678 124.014C-797.599 119.614 -770.166 116.85 -743.805 115.559C-715.616 114.179 -689.361 114.513 -663.54 116.579C-609.003 120.943 -557.589 133.154 -506.353 153.909C-477.205 165.716 -449.316 177.955 -422.345 189.79C-367.197 213.989 -315.112 236.845 -258.856 253.372C-254.822 254.555 -251.195 255.611 -247.768 256.601C-160.002 281.876 -63.1219 286.56 25.0308 269.783C91.4611 257.14 143.382 226.059 193.597 195.997C202.628 190.59 211.967 185.001 221.169 179.658C223.259 178.443 225.349 177.239 227.387 176.078C264.033 155.011 293.692 140.932 323.551 130.429C360.913 117.288 397.849 110.285 436.469 109.019C489.416 107.286 545.142 113.33 599.03 119.172C625.006 121.989 651.868 124.901 677.515 126.809C696.741 128.253 715.74 129.521 733.987 130.58C754.976 131.838 775.704 132.952 795.75 134.029C826.226 135.667 857.739 137.36 889.723 139.546C945.226 143.343 1005.35 151.951 1068.44 165.136C1132.83 178.727 1193.48 193.438 1248.7 208.862C1256.49 211.036 1271.41 214.334 1288.68 218.153C1337.66 228.981 1404.75 243.81 1412.1 254.599L1411.66 254.783C1404.41 244.139 1334.69 228.725 1288.55 218.527C1271.27 214.707 1256.34 211.406 1248.54 209.228C1193.32 193.806 1132.69 179.098 1068.31 165.509C1005.26 152.332 945.158 143.726 889.681 139.932C857.7 137.746 826.19 136.051 795.717 134.415C775.671 133.338 754.944 132.224 733.951 130.966C715.701 129.907 696.699 128.639 677.47 127.195C651.813 125.287 624.945 122.373 598.965 119.555C545.097 113.713 489.397 107.674 436.491 109.405C350.48 112.22 285.3 143.263 227.678 176.39C225.643 177.551 223.553 178.755 221.463 179.969C212.264 185.31 202.929 190.902 193.897 196.307C143.643 226.391 91.6808 257.498 25.1503 270.159C-16.2757 278.041 -59.291 281.265 -102.897 279.764V279.759Z" fill="#9C9C9C" fill-opacity="0.13"/>
<path d="M-124.007 268.622C-169.432 267.057 -213.972 261.156 -255.511 250.978C-258.754 250.183 -262.281 249.314 -266.616 248.238C-330.165 232.46 -389.408 208.131 -452.13 182.372C-472.974 173.813 -494.529 164.962 -516.784 156.2C-615.27 117.423 -714.538 107.896 -838.654 125.313L-838.748 124.896C-778.022 116.374 -724.212 114.311 -674.239 118.591C-619.954 123.239 -568.372 135.417 -516.548 155.821C-494.29 164.586 -472.735 173.437 -451.888 181.999C-389.189 207.748 -329.965 232.069 -266.458 247.836C-262.123 248.913 -258.596 249.782 -255.353 250.577C-170.892 271.268 -74.0081 274.275 17.4523 259.042C81.9543 248.299 132.425 220.196 181.232 193.018C190.437 187.892 199.96 182.59 209.346 177.54C211.333 176.472 213.326 175.413 215.316 174.355L215.435 174.291C272.737 143.841 337.155 115.495 419.801 114.275C465.91 113.595 514.743 118.716 561.964 123.669C595.14 127.148 629.444 130.746 661.894 132.187C680.786 133.044 699.162 133.599 718.068 133.88C742.129 134.297 765.645 134.399 788.388 134.499C815.178 134.614 842.88 134.734 871.178 135.376C926.455 136.633 986.771 143.733 1050.44 156.478C1114.05 169.367 1175.04 184.211 1231.74 200.596C1240.15 203.03 1255.41 206.574 1273.08 210.677C1321.03 221.814 1386.71 237.07 1395.37 248.153L1394.91 248.376C1386.36 237.43 1320.8 222.203 1272.93 211.084C1255.26 206.978 1239.99 203.432 1231.55 200.995C1174.88 184.615 1113.9 169.776 1050.31 156.89C986.677 144.15 926.403 137.05 871.166 135.798C842.873 135.153 815.172 135.036 788.384 134.921C765.641 134.823 742.123 134.721 718.059 134.304C699.143 134.021 680.764 133.466 661.865 132.609C629.396 131.167 595.082 127.568 561.896 124.088C514.694 119.138 465.885 114.02 419.813 114.697C337.304 115.914 272.97 144.227 215.735 174.641L215.616 174.705C213.626 175.763 211.633 176.822 209.65 177.891C200.266 182.937 190.747 188.237 181.542 193.364C132.69 220.567 82.1772 248.695 17.5654 259.456C-29.003 267.211 -76.9765 270.243 -124.004 268.624L-124.007 268.622Z" fill="#9C9C9C" fill-opacity="0.13"/>
<path d="M-150.138 257.675C-190.282 256.294 -228.193 252.042 -263.088 244.998C-266.816 244.247 -270.521 243.495 -274.209 242.746C-307.324 236.022 -340.998 226.685 -380.179 213.362C-415.132 201.476 -450.169 187.882 -487.261 173.491C-500.149 168.49 -513.473 163.32 -526.994 158.148C-627.718 119.612 -727.251 109.766 -849.723 126.231L-849.82 125.781C-789.543 117.679 -735.61 115.986 -684.936 120.603C-630.939 125.525 -579.193 137.672 -526.745 157.739C-513.224 162.914 -499.897 168.083 -487.009 173.082C-411.608 202.335 -346.489 227.6 -274.064 242.304C-270.375 243.053 -266.67 243.805 -262.946 244.556C-183.156 260.663 -86.2658 261.993 9.86853 248.304C72.455 239.392 121.514 214.226 168.958 189.889C178.312 185.091 187.983 180.131 197.521 175.424C199.175 174.608 200.832 173.798 202.489 172.99L203.481 172.506C227.703 160.684 260.063 145.764 295.6 135.22C331.606 124.536 366.779 119.404 403.127 119.537C443.668 119.686 486.784 124.226 528.484 128.619C567.688 132.748 608.226 137.017 646.26 137.575C664.901 137.866 683.177 137.741 702.141 137.191C727.426 136.529 751.92 135.366 775.603 134.241C800.472 133.06 826.187 131.84 852.625 131.214C907.569 129.91 968.066 135.501 1032.44 147.832C1095.34 160.053 1156.68 175.027 1214.76 192.341C1223.78 195.031 1239.25 198.799 1257.17 203.164C1304.22 214.625 1368.65 230.321 1378.63 241.716L1378.15 241.977C1368.3 230.709 1303.97 215.039 1257 203.598C1239.07 199.232 1223.6 195.46 1214.56 192.768C1156.5 175.459 1095.18 160.49 1032.3 148.274C967.982 135.954 907.537 130.365 852.641 131.669C826.213 132.295 800.501 133.515 775.639 134.696C751.949 135.821 727.455 136.982 702.161 137.646C683.187 138.196 664.898 138.321 646.247 138.03C608.181 137.472 567.623 133.203 528.404 129.071C486.722 124.681 443.623 120.141 403.121 119.995C323.78 119.706 260.424 145.252 203.778 172.898L202.786 173.381C201.129 174.189 199.472 174.997 197.822 175.812C188.29 180.517 178.619 185.477 169.268 190.273C121.775 214.635 72.6682 239.826 9.96545 248.754C-37.4234 255.501 -84.8381 258.651 -130.97 258.117C-137.415 258.043 -143.81 257.894 -150.144 257.677L-150.138 257.675Z" fill="#9C9C9C" fill-opacity="0.13"/>
<path d="M-182.608 247.059C-214.299 245.968 -243.783 243.278 -270.661 239.014L-271.921 238.814C-275.228 238.29 -278.52 237.768 -281.795 237.249C-365.183 224.059 -441.317 195.749 -529.473 162.968L-537.206 160.094C-640.275 121.785 -740.073 111.625 -860.794 127.146L-860.895 126.663C-740.043 111.123 -640.133 121.299 -536.944 159.652L-529.211 162.525C-441.094 195.292 -364.993 223.592 -281.676 236.769C-278.4 237.288 -275.109 237.809 -271.801 238.333L-270.541 238.533C-196.759 250.237 -102.418 249.9 2.28937 237.564C62.9669 230.413 110.65 208.152 156.763 186.622C166.24 182.199 176.037 177.623 185.701 173.304C187.116 172.67 188.537 172.044 189.955 171.415L191.531 170.72C216.991 159.447 247.606 146.702 281.625 137.626C316.947 128.202 351.241 124.007 386.462 124.794C422.309 125.599 460.547 129.757 497.526 133.776C541.933 138.605 587.852 143.598 630.635 142.954C649.16 142.696 667.339 141.89 686.219 140.494C711.95 138.672 736.653 136.164 760.543 133.737C784.233 131.331 808.727 128.844 834.073 127.046C888.627 123.173 949.307 127.256 1014.44 139.18C1076.7 150.762 1138.39 165.87 1197.8 184.083C1207.37 187.018 1222.95 190.991 1240.98 195.588C1287.24 207.387 1350.6 223.546 1361.9 235.278L1361.41 235.575C1350.23 223.965 1286.98 207.835 1240.79 196.056C1222.75 191.454 1207.17 187.481 1197.57 184.541C1138.19 166.335 1076.53 151.235 1014.3 139.658C949.236 127.747 888.617 123.669 834.131 127.537C808.795 129.337 784.307 131.822 760.624 134.228C736.728 136.654 712.017 139.163 686.277 140.988C667.384 142.384 649.185 143.192 630.648 143.45C587.817 144.094 541.875 139.099 497.442 134.269C460.479 130.25 422.261 126.09 386.446 125.29C306.504 123.5 244.076 148.024 191.835 171.152L190.259 171.85C188.841 172.476 187.423 173.105 186.008 173.736C176.35 178.052 166.553 182.626 157.079 187.049C110.914 208.602 63.1801 230.891 2.38306 238.055C-47.3121 243.912 -94.785 247.11 -138.714 247.566C-153.763 247.721 -168.406 247.553 -182.608 247.064V247.059Z" fill="#9C9C9C" fill-opacity="0.13"/>
<path d="M-221.268 237.142C-241.663 236.439 -260.566 235.074 -278.234 233.033C-281.978 232.601 -285.689 232.177 -289.381 231.758C-329.732 227.171 -369.96 218.918 -415.982 205.787C-456.536 194.215 -497.852 179.931 -547.415 162.042C-652.939 123.953 -753.005 113.473 -871.863 128.064L-871.963 127.548C-829.258 122.306 -788.959 120.297 -749.978 121.639C-680.343 124.037 -614.872 137.12 -547.14 161.569C-457.838 193.804 -376.798 221.293 -289.288 231.241C-285.596 231.66 -281.881 232.087 -278.137 232.519C-195.033 242.112 -93.5756 235.028 -5.28723 226.831C53.4845 221.375 99.8235 201.985 144.635 183.234C154.212 179.226 164.119 175.081 173.887 171.193C175.114 170.702 176.348 170.218 177.579 169.733L179.588 168.94C204.815 158.969 235.007 147.74 267.656 140.06C302.299 131.914 335.712 128.639 369.799 130.061C401.573 131.382 435.525 135.269 468.356 139.027C517.382 144.639 568.076 150.44 615.006 148.344C633.033 147.561 651.118 146.076 670.295 143.808C695.817 140.788 720.126 136.959 743.635 133.257C766.74 129.616 790.63 125.852 815.524 122.887C869.645 116.441 930.516 119.013 996.442 130.531C1057.25 141.346 1121.01 157.008 1180.83 175.828C1190.91 178.998 1206.46 183.145 1224.48 187.949C1272.61 200.781 1332.52 216.752 1345.16 228.843L1344.65 229.175C1332.13 217.2 1269.79 200.579 1224.26 188.442C1206.24 183.638 1190.68 179.489 1180.58 176.314C1120.79 157.504 1057.06 141.85 996.294 131.043C930.445 119.537 869.657 116.968 815.618 123.403C790.74 126.366 766.856 130.13 743.758 133.768C720.239 137.472 695.923 141.302 670.386 144.324C651.189 146.595 633.085 148.08 615.038 148.865C568.04 150.964 517.311 145.158 468.256 139.543C435.438 135.788 401.502 131.904 369.757 130.582C368.885 130.546 368.009 130.513 367.14 130.483C291.827 127.89 231.03 149.185 179.875 169.405L177.863 170.198C176.632 170.684 175.401 171.167 174.174 171.658C164.413 175.547 154.509 179.688 144.935 183.695C100.069 202.468 53.675 221.881 -5.21942 227.347C-63.2418 232.734 -106.816 235.71 -146.498 237.001C-173.547 237.881 -198.354 237.932 -221.275 237.142H-221.268Z" fill="#9C9C9C" fill-opacity="0.13"/>
<path d="M-261.327 228.334C-269.648 228.048 -277.814 227.626 -285.802 227.051C-289.555 226.78 -293.273 226.519 -296.962 226.261C-337.887 223.42 -379.659 216.538 -424.664 205.222C-462.101 195.808 -503.104 183.091 -557.622 163.99C-627.993 139.331 -695.088 126.146 -765.576 123.72C-803.374 122.419 -842.136 124.208 -882.932 128.979L-883.035 128.429C-824.102 121.537 -769.794 120.944 -717.011 126.617C-664.154 132.298 -611.923 144.355 -557.341 163.481C-460.344 197.47 -382.941 219.733 -296.904 225.708C-293.212 225.964 -289.494 226.227 -285.741 226.496C-219.708 231.254 -141.403 225.471 -65.6769 219.877C-48.3409 218.596 -30.4138 217.271 -12.8679 216.09C43.9949 212.26 89.0096 195.719 132.545 179.721C142.216 176.168 152.213 172.494 162.071 169.07C163.163 168.689 164.258 168.314 165.353 167.938C166.115 167.674 166.881 167.414 167.646 167.148C193.936 158.059 222.558 148.783 253.69 142.501C287.654 135.647 320.185 133.297 353.135 135.317C381.276 137.043 410.024 140.551 440.458 144.265C493.68 150.762 548.715 157.478 599.379 153.725C617.426 152.411 635.414 150.248 654.368 147.114C679.799 142.91 703.815 137.71 727.039 132.684C749.459 127.831 772.645 122.812 796.971 118.722C850.636 109.702 911.691 110.763 978.448 121.879C1038.74 132.114 1102.86 147.911 1163.87 167.567C1174.38 170.955 1189.81 175.247 1207.67 180.215C1255.23 193.448 1314.41 209.921 1328.44 222.4L1327.92 222.771C1314.01 210.399 1254.92 193.954 1207.44 180.742C1189.57 175.769 1174.14 171.476 1163.61 168.083C1102.64 148.441 1038.56 132.653 978.306 122.426C911.649 111.328 850.69 110.264 797.122 119.269C772.816 123.354 749.64 128.371 727.229 133.223C703.995 138.252 679.97 143.455 654.517 147.661C635.537 150.798 617.522 152.963 599.45 154.28C548.698 158.041 493.622 151.319 440.358 144.818C409.936 141.105 381.202 137.598 353.087 135.874C280.031 131.398 221.563 149.121 167.934 167.659C167.168 167.922 166.403 168.186 165.641 168.449C164.549 168.825 163.454 169.201 162.362 169.579C152.51 173.003 142.513 176.676 132.849 180.228C89.2583 196.245 44.1855 212.807 -12.8 216.645C-30.3427 217.826 -48.2666 219.151 -65.6025 220.431C-132.204 225.35 -200.802 230.418 -261.321 228.334H-261.327Z" fill="#9C9C9C" fill-opacity="0.13"/>
<path d="M-310.106 220.6C-350.234 219.22 -390.61 213.994 -433.351 204.662C-472.616 196.089 -515.35 183.784 -567.833 165.938C-678.661 128.253 -779.253 117.137 -894.002 129.897L-894.105 129.314C-779.214 116.538 -678.496 127.667 -567.539 165.396C-461.685 201.389 -386.575 217.379 -310.309 220.002C-308.378 220.068 -306.456 220.127 -304.521 220.176C-300.832 220.27 -297.105 220.368 -293.345 220.477C-244.357 221.881 -189.904 217.509 -132.256 212.879C-95.6011 209.936 -57.6959 206.894 -20.4464 205.352C34.4977 203.079 78.201 189.365 120.467 176.104C130.222 173.043 140.313 169.876 150.258 166.951C151.23 166.664 152.206 166.381 153.181 166.097C154.021 165.852 154.864 165.609 155.704 165.361C180.069 158.205 208.668 150.138 239.726 144.966C273.018 139.421 304.664 137.986 336.467 140.579C361.278 142.601 386.615 145.927 413.437 149.45C470.565 156.952 529.637 164.709 583.745 159.11C601.814 157.264 619.705 154.423 638.433 150.425C663.651 145.043 687.256 138.477 710.087 132.126C731.935 126.049 754.53 119.765 778.41 114.559C831.6 102.965 892.849 102.515 960.442 113.225C1020.26 122.899 1084.74 138.835 1146.9 159.306C1157.76 162.886 1172.93 167.283 1190.48 172.376C1237.6 186.044 1296.25 203.056 1311.7 215.96L1311.16 216.364C1295.83 203.56 1237.28 186.576 1190.23 172.928C1172.66 167.833 1157.49 163.433 1146.61 159.848C1084.5 139.39 1020.07 123.467 960.297 113.8C892.817 103.108 831.687 103.553 778.607 115.124C754.753 120.325 732.171 126.604 710.332 132.679C687.489 139.032 663.87 145.6 638.624 150.99C619.86 154.996 601.94 157.841 583.838 159.69C529.621 165.299 470.494 157.535 413.315 150.028C386.505 146.508 361.181 143.182 336.39 141.162C266.936 135.504 209.175 150.284 155.963 165.91C155.123 166.156 154.28 166.401 153.437 166.647C152.461 166.93 151.489 167.214 150.517 167.501C140.578 170.425 130.493 173.588 120.742 176.648C78.4207 189.928 34.6592 203.66 -20.4076 205.938C-57.6378 207.477 -95.5333 210.519 -132.182 213.462C-189.856 218.092 -244.331 222.467 -293.371 221.063C-297.134 220.956 -300.858 220.858 -304.547 220.764C-306.398 220.715 -308.255 220.662 -310.109 220.598L-310.106 220.6Z" fill="#9C9C9C" fill-opacity="0.13"/>
<path d="M-344.588 215.006C-376.615 213.904 -408.757 210.302 -442.034 204.112C-482.982 196.496 -526.201 184.986 -578.041 167.886C-691.734 130.385 -792.594 118.952 -905.072 130.815L-905.176 130.198C-792.552 118.32 -691.566 129.769 -577.737 167.314C-472.72 201.954 -393.288 216.111 -312.138 214.651C-308.63 214.587 -304.845 214.52 -300.946 214.464C-262.463 213.894 -220.384 209.675 -175.838 205.206C-127.515 200.361 -77.5457 195.35 -28.0184 194.619C24.9908 193.837 67.3827 182.93 108.376 172.384C118.228 169.85 128.412 167.229 138.455 164.834C139.327 164.627 140.199 164.42 141.074 164.215C141.972 164.003 142.873 163.791 143.771 163.576C169.238 157.488 196.545 151.227 225.764 147.451C258.401 143.232 289.161 142.706 319.806 145.843C341.486 148.062 363.596 151.202 387.005 154.528C447.844 163.172 510.753 172.11 568.11 164.499C586.208 162.121 604 158.601 622.499 153.74C647.435 147.188 670.566 139.262 692.938 131.597C714.279 124.285 736.344 116.725 759.849 110.407C812.823 96.1666 874.256 94.2081 942.444 104.583C1001.31 113.539 1066.15 129.61 1129.93 151.056C1141.03 154.789 1156.5 159.46 1172.87 164.404C1219.72 178.55 1278.02 196.156 1294.96 209.53L1294.41 209.969C1277.58 196.69 1219.37 179.11 1172.59 164.985C1156.21 160.037 1140.74 155.366 1129.62 151.629C1065.89 130.199 1001.11 114.143 942.295 105.194C874.243 94.8397 812.945 96.793 760.101 110.998C736.625 117.308 714.573 124.863 693.248 132.17C670.86 139.84 647.71 147.771 622.744 154.334C604.207 159.207 586.376 162.732 568.236 165.115C547.647 167.848 526.345 168.451 504.7 167.707C465.897 166.373 425.956 160.697 386.863 155.144C363.464 151.82 341.367 148.681 319.702 146.464C253.979 139.74 199.087 151.005 143.994 164.177C143.093 164.392 142.192 164.604 141.294 164.816C140.422 165.02 139.55 165.228 138.677 165.435C128.645 167.828 118.464 170.446 108.615 172.979C67.5635 183.541 25.1168 194.46 -28.0087 195.245C-77.494 195.977 -127.441 200.985 -175.744 205.828C-220.316 210.297 -262.414 214.518 -300.94 215.088C-304.835 215.144 -308.621 215.213 -312.129 215.274C-322.962 215.469 -333.774 215.382 -344.594 215.009L-344.588 215.006Z" fill="#9C9C9C" fill-opacity="0.13"/>
<path d="M-377.253 210.563C-401.543 209.727 -425.882 207.403 -450.712 203.57C-492.4 197.135 -537.389 186.1 -588.246 169.837C-704.97 132.507 -806.098 120.757 -916.141 131.735L-916.244 131.086C-858.638 125.339 -803.953 125.837 -749.067 132.61C-697.986 138.912 -645.28 150.892 -587.936 169.231C-484.357 202.358 -404.153 214.29 -319.76 209.123L-319.428 209.103C-315.849 208.883 -312.224 208.663 -308.555 208.448C-277.226 206.618 -243.427 202.302 -207.64 197.731C-151.575 190.57 -93.6013 183.165 -35.5887 183.886C15.4502 184.52 56.5081 176.406 96.219 168.557C106.19 166.585 116.501 164.548 126.659 162.72C127.451 162.577 128.242 162.436 129.034 162.295C129.97 162.129 130.91 161.963 131.847 161.792C154.425 157.691 182.527 152.585 211.808 149.957C243.799 147.086 273.678 147.461 303.149 151.107C321.813 153.416 340.796 156.346 360.9 159.45C425.341 169.395 491.974 179.678 552.481 169.889C570.614 166.979 588.306 162.781 606.572 157.057C631.182 149.343 653.806 140.062 675.68 131.088C696.547 122.529 718.12 113.68 741.296 106.248C768.151 97.6395 797.729 92.4827 829.213 90.9232C858.849 89.4556 890.892 91.1404 924.45 95.929C983.47 104.542 1048.66 120.747 1112.97 142.795C1124.16 146.633 1139.02 151.296 1154.74 156.233C1201.51 170.916 1259.71 189.186 1278.24 203.09L1277.67 203.565C1259.25 189.749 1201.13 171.504 1154.44 156.842C1138.7 151.902 1123.84 147.239 1112.64 143.396C1048.39 121.368 983.257 105.177 924.298 96.5733C855.132 86.7046 793.666 90.1637 741.603 106.854C718.459 114.273 696.902 123.117 676.055 131.669C654.161 140.65 631.521 149.936 606.869 157.663C588.561 163.402 570.821 167.611 552.639 170.528C525.484 174.92 494.455 175.623 457.784 172.673C425.357 170.065 392.503 164.995 360.735 160.091C340.641 156.99 321.664 154.063 303.017 151.754C236.263 143.493 180.886 153.554 132.028 162.428C131.088 162.6 130.148 162.766 129.208 162.932C128.417 163.073 127.625 163.213 126.837 163.354C116.688 165.179 106.381 167.217 96.416 169.186C56.6566 177.045 15.5406 185.17 -35.6048 184.536C-93.5432 183.815 -151.482 191.216 -207.511 198.373C-243.313 202.946 -277.133 207.265 -308.497 209.098C-312.166 209.313 -315.787 209.535 -319.366 209.752L-319.699 209.773C-338.989 210.954 -358.108 211.22 -377.256 210.56L-377.253 210.563Z" fill="#9C9C9C" fill-opacity="0.13"/>
<path d="M-407.664 207.14C-424.832 206.549 -442.016 205.184 -459.387 203.039C-502.144 197.762 -547.631 187.54 -598.453 171.786C-720.005 134.111 -818.326 122.406 -927.213 132.651L-927.316 131.966C-870.15 126.586 -815.342 127.448 -759.752 134.596C-709.481 141.062 -656.618 153.017 -598.14 171.142C-495.471 202.965 -414.499 212.67 -327.386 203.591L-325.073 203.351C-322.137 203.044 -319.169 202.734 -316.165 202.428C-289.978 199.753 -262.034 195.287 -232.45 190.554C-202.345 185.74 -171.217 180.762 -139.42 177.285C-103.362 173.34 -71.8685 171.99 -43.1594 173.143C5.83484 175.12 45.5166 169.771 83.887 164.599C94.036 163.231 104.531 161.817 114.864 160.595C115.565 160.511 116.266 160.432 116.967 160.35C117.952 160.235 118.937 160.12 119.925 160.002L123.146 159.611C147.472 156.655 172.628 153.598 199.651 152.388C230.321 151.015 258.726 152.317 286.489 156.367C302.165 158.652 318.06 161.326 334.885 164.154C402.892 175.588 473.212 187.41 536.845 175.271C555.011 171.827 572.605 166.954 590.632 160.368C614.897 151.504 636.984 140.878 658.342 130.603C678.749 120.785 699.855 110.633 722.734 102.088C749.405 92.1301 778.976 85.9148 810.631 83.6189C840.287 81.4661 872.527 82.6959 906.452 87.2775C936.76 91.4653 968.793 97.7956 1001.66 106.097C1032.58 113.908 1064.33 123.477 1096 134.538C1107.07 138.403 1121.08 142.967 1135.91 147.802C1182.84 163.101 1241.25 182.138 1261.51 196.652L1260.92 197.163C1240.78 182.728 1182.45 163.717 1135.58 148.438C1120.74 143.604 1106.73 139.037 1095.65 135.169C1030.39 112.381 964.911 96.0571 906.3 87.9601C836.281 78.5081 774.645 83.4732 723.105 102.717C700.268 111.244 679.182 121.389 658.794 131.196C637.417 141.482 615.31 152.117 590.997 160.997C572.918 167.603 555.269 172.492 537.048 175.946C508.5 181.391 475.741 182.439 436.902 179.154C402.634 176.252 368.101 170.449 334.708 164.834C317.885 162.007 301.997 159.335 286.334 157.049C224.364 148.011 170.66 154.539 123.278 160.296L120.058 160.687C119.069 160.807 118.081 160.923 117.096 161.038C116.395 161.119 115.697 161.201 114.996 161.283C104.673 162.505 94.1813 163.919 84.0356 165.287C46.4178 170.357 7.5434 175.593 -40.1458 173.954C-41.1633 173.918 -42.1776 173.882 -43.2015 173.839C-107.319 171.267 -173.701 181.869 -232.276 191.237C-261.876 195.972 -289.836 200.441 -316.052 203.118C-319.052 203.425 -322.021 203.734 -324.957 204.041L-327.27 204.284C-354.37 207.109 -380.99 208.062 -407.667 207.145L-407.664 207.14Z" fill="#9C9C9C" fill-opacity="0.13"/>
<path d="M-435.704 204.577C-446.467 204.207 -457.233 203.516 -468.054 202.509C-511.731 198.441 -557.725 189.028 -608.66 173.734C-696.784 147.275 -771.79 133.497 -845.517 130.958C-876.375 129.894 -906.996 130.802 -938.283 133.568L-938.383 132.85C-881.656 127.834 -826.718 129.056 -770.427 136.585C-720.435 143.273 -668.931 154.863 -608.334 173.059C-506.208 203.723 -424.464 211.202 -335.006 198.068C-333.591 197.861 -332.17 197.651 -330.739 197.439C-328.439 197.099 -326.117 196.756 -323.775 196.416C-301.416 193.157 -277.768 188.537 -252.732 183.646C-190.359 171.463 -119.661 157.66 -50.7278 162.41C-3.91711 165.639 34.2626 163.029 71.1892 160.505C81.6386 159.792 92.4435 159.053 103.074 158.483C103.707 158.45 104.343 158.417 104.979 158.383C105.987 158.332 106.995 158.279 108.006 158.22C111.294 158.031 114.605 157.834 117.939 157.634C162.378 154.993 212.749 152.002 269.828 161.633C282.48 163.768 295.242 166.112 308.757 168.592C377.025 181.128 454.405 195.335 521.204 180.662C539.406 176.687 556.9 171.134 574.691 163.688C598.597 153.682 620.132 141.719 640.957 130.15C660.919 119.059 681.559 107.592 704.164 97.9359C730.644 86.6226 760.206 79.3463 792.029 76.309C821.71 73.4762 854.147 74.256 888.441 78.6253C918.768 82.5805 950.982 88.8648 984.184 97.2993C1015.11 105.153 1047.02 114.905 1079.03 126.277C1089.67 130.055 1102.51 134.394 1116.1 138.986C1163.54 155.016 1222.58 174.966 1244.76 190.211L1244.17 190.756C1222.09 175.585 1163.12 155.661 1115.74 139.651C1102.14 135.056 1089.31 130.72 1078.66 126.936C1012.41 103.402 946.583 86.9422 888.292 79.3387C817.414 70.3059 755.609 76.7768 704.593 98.5699C682.037 108.206 661.416 119.66 641.477 130.738C620.63 142.32 599.072 154.295 575.111 164.323C557.262 171.793 539.706 177.364 521.44 181.355C491.484 187.936 456.954 189.332 415.877 185.625C379.726 182.362 343.539 175.718 308.54 169.293C295.032 166.813 282.27 164.468 269.627 162.336C212.677 152.725 162.378 155.714 117.997 158.353C114.66 158.55 111.349 158.746 108.061 158.938C107.05 158.997 106.039 159.048 105.028 159.102C104.395 159.135 103.758 159.166 103.125 159.201C92.5015 159.772 81.7001 160.511 71.2572 161.224C40.1674 163.348 8.17957 165.534 -29.0991 164.254C-36.1439 164.011 -43.3696 163.645 -50.8215 163.131C-119.607 158.383 -190.223 172.179 -252.529 184.346C-277.578 189.24 -301.242 193.86 -323.626 197.125C-325.968 197.467 -328.291 197.81 -330.59 198.147C-332.021 198.36 -333.446 198.569 -334.861 198.776C-369.083 203.8 -402.35 205.723 -435.724 204.575L-435.704 204.577Z" fill="#9C9C9C" fill-opacity="0.13"/>
<path d="M-461.498 202.737C-466.569 202.563 -471.634 202.315 -476.715 201.99C-521.207 199.162 -567.707 190.557 -618.869 175.684C-714.215 147.965 -820.246 123.791 -949.357 134.489L-949.457 133.737C-893.169 129.074 -838.102 130.656 -781.114 138.574C-732.3 145.357 -680.641 156.923 -618.543 174.976C-562.491 191.27 -511.229 200.167 -461.211 201.89C-421.5 203.258 -382.584 200.106 -342.637 192.546C-340.628 192.165 -338.599 191.779 -336.555 191.39C-334.846 191.065 -333.124 190.735 -331.39 190.406C-311.944 186.716 -291.524 181.958 -269.905 176.922C-204.744 161.74 -130.887 144.531 -58.2973 151.68C-14.0255 156.039 22.3971 156.105 57.6246 156.167C69.169 156.187 80.0739 156.208 91.292 156.369C91.8573 156.376 92.4258 156.386 92.9943 156.394C94.0247 156.409 95.0583 156.427 96.0952 156.438C101.854 156.491 107.559 156.514 113.596 156.542C154.747 156.724 201.387 156.929 253.169 166.897C262.672 168.725 272.194 170.64 282.278 172.667C354.08 187.102 435.463 203.465 505.566 186.052C523.958 181.503 541.355 175.275 558.753 167.007C582.4 155.865 603.435 142.522 623.775 129.616C643.223 117.277 663.33 104.519 685.602 93.7838C711.882 81.1155 741.431 72.7755 773.429 68.9968C803.142 65.489 835.782 65.8188 870.442 69.9785C900.801 73.7061 933.193 79.9419 966.721 88.5093C997.643 96.412 1029.72 106.342 1062.07 118.024C1071.81 121.539 1083 125.453 1094.85 129.598C1143.3 146.538 1203.61 167.621 1228.03 183.779L1227.42 184.359C1203.1 168.27 1142.86 147.211 1094.46 130.291C1082.61 126.146 1071.41 122.232 1061.67 118.714C993.512 94.0982 929.123 77.9529 870.296 70.7303C798.556 62.1219 736.58 70.0962 686.096 94.4357C663.88 105.146 643.795 117.888 624.369 130.211C604.003 143.133 582.943 156.494 559.24 167.661C541.778 175.96 524.313 182.212 505.847 186.778C435.485 204.255 353.964 187.864 282.039 173.406C271.958 171.379 262.436 169.466 252.939 167.636C201.267 157.688 154.683 157.483 113.586 157.302C107.546 157.276 101.838 157.251 96.079 157.197C95.0421 157.187 94.0052 157.171 92.9717 157.154C92.4032 157.146 91.8379 157.136 91.2726 157.128C80.0609 156.964 69.1594 156.946 57.6182 156.926C22.3649 156.862 -14.0901 156.798 -58.4169 152.431C-130.813 145.303 -204.566 162.487 -269.637 177.648C-291.269 182.687 -311.699 187.448 -331.17 191.142C-332.905 191.472 -334.626 191.799 -336.335 192.124C-338.38 192.515 -340.408 192.901 -342.417 193.282C-383.081 200.978 -422.198 204.091 -461.501 202.739L-461.498 202.737Z" fill="#9C9C9C" fill-opacity="0.13"/>
<path d="M-485.285 201.476C-485.311 201.476 -485.336 201.476 -485.362 201.474C-530.6 199.909 -577.608 192.111 -629.073 177.633C-742.617 145.689 -842.421 126.284 -960.427 135.404L-960.523 134.619C-904.675 130.303 -849.479 132.244 -791.789 140.556C-743.761 147.474 -693.475 158.68 -628.74 176.891C-528.168 205.183 -442.282 208.308 -350.263 187.021C-347.65 186.417 -345.005 185.796 -342.327 185.17L-339.003 184.392C-321.806 180.373 -303.853 175.485 -284.847 170.308C-217.574 151.984 -141.327 131.216 -65.8591 140.944C-25.2728 146.178 8.53986 148.742 41.2382 151.222C54.3751 152.219 66.7787 153.16 79.5182 154.259L80.9717 154.385C82.0441 154.479 83.1165 154.571 84.1921 154.658C92.8101 155.349 101.451 155.949 110.598 156.589C148.029 159.199 190.45 162.154 236.517 172.164C242.655 173.496 248.753 174.843 255.207 176.27C330.714 192.944 416.295 211.846 489.932 191.444C508.334 186.366 525.634 179.461 542.818 170.331C566.082 158.064 586.541 143.401 606.322 129.219C625.341 115.587 645.003 101.495 667.042 89.6344C693.112 75.6059 722.645 66.1998 754.82 61.6796C784.569 57.4994 817.416 57.3819 852.443 61.3294C882.842 64.8346 915.414 71.0217 949.253 79.7195C980.174 87.6682 1012.42 97.7773 1045.1 109.766C1053.15 112.716 1061.94 115.889 1071.25 119.248C1121.53 137.39 1184.1 159.966 1211.3 177.341L1210.67 177.955C1183.58 160.643 1121.07 138.088 1070.83 119.967C1061.52 116.607 1052.73 113.434 1044.68 110.482C975.591 85.1346 910.863 68.8613 852.298 62.1092C779.688 53.9278 717.544 63.4079 667.597 90.2863C645.616 102.113 625.977 116.191 606.988 129.802C587.177 144.002 566.692 158.685 543.368 170.983C526.112 180.148 508.738 187.085 490.255 192.185C457.276 201.323 418.886 203.381 372.899 198.48C332.684 194.195 293.157 185.466 254.936 177.024C248.482 175.6 242.386 174.253 236.249 172.921C190.269 162.932 147.893 159.979 110.508 157.371C101.357 156.732 92.7131 156.131 84.0889 155.441C83.01 155.354 81.9343 155.259 80.8588 155.167L79.4084 155.042C66.6753 153.942 54.2717 153.002 41.1414 152.004C8.42688 149.522 -25.4052 146.958 -66.0238 141.722C-141.243 132.024 -217.367 152.759 -284.527 171.052C-303.546 176.231 -321.509 181.125 -338.725 185.147L-342.049 185.924C-344.727 186.55 -347.376 187.172 -349.989 187.775C-396.47 198.526 -440.729 203.008 -485.291 201.474L-485.285 201.476Z" fill="#9C9C9C" fill-opacity="0.13"/>
<path d="M-507.439 200.686C-549.207 199.249 -592.484 192.311 -639.279 179.581C-759.755 146.804 -857.356 128.133 -971.498 136.322L-971.592 135.504C-916.179 131.528 -860.857 133.829 -802.464 142.535C-743.559 151.317 -686.745 165.798 -638.94 178.804C-538.151 206.224 -451.471 207.055 -357.888 181.498C-354.587 180.596 -351.305 179.686 -347.83 178.719L-346.618 178.382C-331.182 174.094 -315.138 169.073 -298.154 163.755C-229.253 142.187 -151.158 117.74 -73.4195 130.209C-45.8732 134.627 -21.7087 138.306 1.6579 141.865C24.4721 145.339 46.0201 148.619 67.7522 152.148L69.0345 152.355C70.1199 152.531 71.2052 152.71 72.297 152.876C84.3033 154.735 96.5292 156.397 109.469 158.156C144.189 162.875 180.089 167.754 219.868 177.42C222.306 178.014 224.761 178.612 227.229 179.213C302.765 197.613 396.774 220.513 474.296 196.826C492.711 191.216 509.911 183.633 526.886 173.644C549.768 160.257 569.646 144.283 588.868 128.836C607.451 113.902 626.667 98.4626 648.483 85.4772C674.337 70.0886 703.85 59.6165 736.203 54.3523C766.001 49.5048 799.054 48.9397 834.447 52.6725C892.882 58.9721 958.05 75.4014 1028.14 101.502C1033 103.313 1038.09 105.197 1043.33 107.143C1094.09 125.96 1163.59 151.731 1194.57 170.898L1193.93 171.548C1163.04 152.439 1093.6 126.691 1042.89 107.889C1037.65 105.943 1032.56 104.059 1027.7 102.249C957.704 76.1812 892.637 59.7775 834.307 53.488C760.826 45.7388 698.517 56.7249 649.106 86.1343C627.355 99.0839 608.165 114.503 589.608 129.414C570.356 144.884 550.449 160.881 527.503 174.304C510.454 184.339 493.173 191.958 474.671 197.593C439.986 208.193 399.387 210.542 350.554 204.777C308.036 199.758 264.944 189.26 226.925 180C224.458 179.399 222.003 178.801 219.564 178.208C179.85 168.556 143.983 163.681 109.295 158.969C96.3451 157.21 84.116 155.546 72.0967 153.684C71.0017 153.516 69.9132 153.336 68.8247 153.16L67.5455 152.953C45.8167 149.427 24.2718 146.145 1.46405 142.673C-21.9058 139.114 -46.0701 135.432 -73.6229 131.014C-151.061 118.594 -229.001 142.992 -297.77 164.519C-314.763 169.84 -330.814 174.864 -346.273 179.156L-347.484 179.494C-350.963 180.46 -354.248 181.373 -357.549 182.275C-404.602 195.125 -449.236 201.238 -493.998 200.96C-498.462 200.932 -502.943 200.842 -507.439 200.686Z" fill="#9C9C9C" fill-opacity="0.13"/>
<path d="M-528.227 200.282C-566.839 198.953 -606.754 192.768 -649.485 181.532C-755.7 153.603 -861.102 129.196 -982.57 137.24L-982.66 136.388C-953.596 134.463 -925.206 134.279 -895.867 135.821C-868.964 137.237 -841.905 140.08 -813.141 144.514C-757.283 153.122 -701.308 167.002 -649.142 180.721C-547.972 207.326 -460.498 205.861 -365.517 175.979C-361.766 174.797 -357.884 173.552 -354.231 172.376C-340.196 167.859 -325.664 162.704 -310.279 157.246C-274.835 144.675 -238.183 131.674 -199.489 123.388C-155.224 113.91 -116.459 112.632 -80.9799 119.481C-27.2956 129.843 15.0414 140.116 55.9862 150.051L56.9778 150.292C58.118 150.568 59.2583 150.846 60.4017 151.115C76.6782 154.929 93.5781 158.343 111.466 161.955C140.596 167.838 170.716 173.92 203.214 182.698C276.47 202.479 376.794 229.569 458.654 202.228C477.085 196.089 494.188 187.829 510.943 176.978C533.444 162.479 552.744 145.204 571.407 128.498C589.554 112.253 608.318 95.4586 629.917 81.3407C655.545 64.5919 685.036 53.0509 717.57 47.0428C747.419 41.5306 780.686 40.5181 816.443 44.0335C874.675 49.8781 940.192 66.4403 1011.18 93.2573C1059.65 111.568 1140.77 142.215 1177.84 164.473L1177.18 165.156C1140.21 142.951 1059.15 112.327 1010.71 94.0319C939.833 67.2533 874.427 50.7193 816.311 44.8849C741.957 37.5728 679.477 50.0597 630.609 82.0028C609.074 96.0773 590.339 112.849 572.221 129.069C553.529 145.802 534.2 163.103 511.631 177.645C494.796 188.55 477.605 196.849 459.077 203.02C423.139 215.024 380.99 217.734 330.219 211.309C284.271 205.493 237.221 192.789 202.865 183.513C170.406 174.749 140.305 168.669 111.198 162.791C93.2971 159.176 76.3907 155.76 60.0948 151.943C58.9482 151.675 57.8015 151.396 56.6613 151.117L55.6697 150.877C14.741 140.947 -27.5798 130.677 -81.2351 120.322C-160.418 105.038 -239.798 133.195 -309.836 158.036C-325.231 163.497 -339.769 168.654 -353.824 173.176C-357.48 174.352 -361.363 175.6 -365.116 176.781C-412.67 191.743 -457.649 199.487 -502.625 200.459C-511.104 200.643 -519.634 200.587 -528.223 200.29L-528.227 200.282Z" fill="#9C9C9C" fill-opacity="0.13"/>
<path d="M-547.839 200.193C-583.602 198.963 -620.503 193.433 -659.691 183.48C-754.226 159.47 -836.917 140.334 -925.764 137.276C-947.919 136.514 -970.439 136.749 -993.641 138.158L-993.729 137.271C-964.703 135.509 -936.246 135.504 -906.726 137.26C-879.951 138.853 -852.831 141.87 -823.819 146.487C-769.055 155.201 -714.774 168.557 -659.348 182.634C-557.652 208.464 -469.383 204.708 -373.151 170.456C-369.178 169.042 -365.212 167.595 -361.852 166.366C-348.935 161.636 -335.601 156.341 -321.486 150.734C-287.269 137.148 -248.489 121.747 -209.153 112.433C-164.093 101.761 -124.643 100.557 -88.5436 108.748C-43.6129 118.944 -6.84149 131.094 28.722 142.844C33.7965 144.521 39.0421 146.255 44.2168 147.95L44.9307 148.185C46.1194 148.574 47.308 148.965 48.5032 149.346C70.5356 156.366 93.9927 162.597 118.826 169.196C140.558 174.969 163.026 180.941 186.558 187.962C268.993 212.557 363.593 236.39 443.009 207.615C461.456 200.945 478.462 192.009 495 180.297C517.12 164.694 535.842 146.124 553.943 128.166C571.648 110.605 589.956 92.4445 611.346 77.1863C636.737 59.0773 666.202 46.4703 698.92 39.713C728.831 33.5361 762.311 32.0762 798.43 35.3769C856.478 40.7791 922.343 57.4716 994.2 84.9942C1074.87 115.889 1131.01 140.464 1161.09 158.031L1160.42 158.747C1130.4 141.213 1074.31 116.666 993.712 85.7946C921.968 58.3154 856.226 41.651 798.304 36.259C723.078 29.3866 660.43 43.3767 612.098 77.8433C590.773 93.0504 572.497 111.182 554.822 128.716C536.688 146.702 517.941 165.302 495.746 180.957C479.124 192.73 462.024 201.714 443.474 208.42C424.403 215.329 403.12 219.557 380.215 220.981C359.963 222.242 337.662 221.355 313.927 218.34C269.988 212.762 226.55 200.84 186.157 188.788C162.645 181.772 140.183 175.805 118.464 170.032C93.6147 163.428 70.1449 157.192 48.0801 150.164C46.8817 149.783 45.6897 149.392 44.4978 149.001L43.7839 148.765C38.6094 147.07 33.3605 145.337 28.2859 143.66C-7.24841 131.92 -43.9909 119.778 -88.8571 109.597C-169.384 91.3246 -249.926 123.306 -320.985 151.524C-335.11 157.133 -348.454 162.431 -361.384 167.166C-364.743 168.396 -368.716 169.845 -372.693 171.262C-420.698 188.348 -466.023 197.726 -511.248 199.935C-523.341 200.525 -535.525 200.612 -547.842 200.188L-547.839 200.193Z" fill="#9C9C9C" fill-opacity="0.13"/>
<path d="M-566.457 200.362C-599.646 199.219 -633.83 194.269 -669.891 185.428L-673.005 184.664C-787.173 156.673 -885.775 132.5 -1004.71 139.073L-1004.79 138.153C-950.358 135.143 -896.722 138.339 -835.996 148.21C-781.856 157.011 -728.815 170.014 -672.663 183.781L-669.549 184.546C-567.216 209.632 -478.156 203.583 -380.778 164.934C-377.512 163.637 -373.92 162.183 -369.469 160.355C-357.466 155.428 -345.101 149.987 -332.013 144.227C-297.451 129.017 -258.276 111.778 -218.4 101.421C-172.672 89.5424 -132.667 88.4277 -96.099 98.0152C-54.3596 108.96 -19.9848 123.587 13.2595 137.733C19.5452 140.407 26.0442 143.174 32.4559 145.853L32.7014 145.956C34.0032 146.5 35.3049 147.042 36.613 147.576C67.4056 160.148 101.341 171.075 137.27 182.644C147.871 186.057 158.837 189.588 169.913 193.223C247.855 218.803 347.556 244.17 427.375 213.002C445.838 205.802 462.748 196.192 479.069 183.618C500.814 166.915 518.955 147.06 536.497 127.857C553.756 108.968 571.599 89.435 592.792 73.034C617.941 53.57 647.377 39.8943 680.282 32.3879C710.261 25.5488 743.961 23.6416 780.441 26.7249C838.328 31.6925 904.542 48.518 977.248 76.736C1047.34 103.942 1109.82 131.924 1144.37 151.593L1143.69 152.342C1109.19 132.702 1046.77 104.75 976.735 77.5644C904.151 49.395 838.066 32.5976 780.315 27.6427C704.214 21.2152 641.395 36.7087 593.606 73.6961C572.487 90.0409 554.67 109.541 537.441 128.399C519.869 147.633 501.696 167.521 479.88 184.28C463.471 196.923 446.465 206.59 427.888 213.83C408.74 221.306 387.364 225.967 364.346 227.68C343.88 229.203 321.431 228.442 297.625 225.417C250.365 219.411 204.307 205.513 169.464 194.077C158.391 190.444 147.428 186.913 136.827 183.5C100.876 171.924 66.9178 160.989 36.0769 148.4C34.7654 147.865 33.4604 147.318 32.1555 146.774L31.91 146.671C25.4951 143.989 18.9929 141.223 12.7071 138.546C-20.4919 124.421 -54.8215 109.812 -96.4639 98.8922C-178.001 77.5107 -259.523 113.383 -331.444 145.035C-344.542 150.798 -356.914 156.244 -368.93 161.175C-373.387 163.006 -376.986 164.461 -380.254 165.76C-428.68 184.978 -474.341 195.992 -519.85 199.426C-535.222 200.586 -550.73 200.901 -566.46 200.359L-566.457 200.362Z" fill="#9C9C9C" fill-opacity="0.13"/>
<path d="M313.952 235.201C303.389 234.838 292.478 233.946 281.286 232.525C243.494 227.728 201.457 216.883 152.766 199.367C102.377 181.24 61.2058 165.335 24.0758 146.631C22.7289 145.95 21.3948 145.268 20.0382 144.57C13.1193 141.011 6.11316 137.314 -0.663574 133.74C-32.1378 117.134 -64.6842 99.9635 -104.075 88.1849C-186.336 63.5871 -268.714 103.41 -341.391 138.544C-353.643 144.468 -365.216 150.062 -376.477 155.183C-380.734 157.121 -384.442 158.78 -387.817 160.255C-436.569 181.591 -482.56 194.218 -528.417 198.863C-576.756 203.76 -626.367 200.004 -680.09 187.381C-686.405 185.878 -692.684 184.38 -698.931 182.887C-803.425 157.916 -902.121 134.33 -1015.78 139.996L-1015.86 139.042C-963.868 136.452 -912.528 139.577 -854.286 148.873C-802.472 157.146 -752.012 169.203 -698.586 181.971C-692.339 183.465 -686.063 184.963 -679.748 186.466C-646.927 194.177 -615.446 198.598 -584.641 199.659C-518.494 201.937 -455.401 188.739 -388.402 159.422C-385.033 157.946 -381.331 156.29 -377.08 154.357C-365.833 149.241 -354.269 143.649 -342.024 137.728C-307.162 120.875 -267.651 101.774 -227.323 90.3632C-181.013 77.2602 -140.563 76.2555 -103.652 87.2927C-64.1318 99.1096 -31.5272 116.311 0.00183105 132.947C6.77533 136.521 13.7782 140.216 20.6938 143.77C22.0505 144.468 23.3813 145.148 24.7251 145.825C61.797 164.502 102.923 180.389 153.267 198.498C223.919 223.911 327.58 253.625 411.737 218.399C430.219 210.67 447.029 200.382 463.134 186.947C484.505 169.152 502.07 148.016 519.054 127.578C535.86 107.355 553.238 86.4464 574.234 68.8922C599.135 48.0732 628.538 33.3289 661.63 25.0708C691.687 17.5695 725.606 15.2174 762.442 18.0783C820.187 22.6164 886.749 39.5749 960.286 68.4832C1021.26 92.4521 1086.95 122.549 1127.64 145.16L1126.94 145.943C1086.3 123.357 1020.67 93.288 959.747 69.3396C886.339 40.485 819.918 23.5572 762.319 19.0319C685.349 13.0519 622.356 30.0487 575.109 69.5519C554.188 87.0446 536.839 107.917 520.061 128.107C503.048 148.581 485.454 169.751 464.01 187.609C447.814 201.121 430.901 211.47 412.302 219.248C393.08 227.294 371.603 232.392 348.466 234.396C337.474 235.35 325.939 235.618 313.958 235.207L313.952 235.201Z" fill="#9C9C9C" fill-opacity="0.13"/>
<path d="M295.939 242.212C249.054 240.599 195.632 228.071 136.062 204.652C87.8657 185.707 47.3053 166.146 12.0681 144.854C10.7599 144.061 9.45813 143.261 8.15637 142.461C0.985596 138.038 -6.26605 133.418 -13.2753 128.949C-43.2216 109.863 -74.1854 90.1307 -111.697 77.47C-194.436 49.5486 -281.248 95.3028 -351.002 132.065C-362.534 138.142 -373.425 143.882 -384.033 149.182C-388.2 151.263 -391.915 153.084 -395.39 154.743C-444.52 178.231 -490.846 192.5 -537.021 198.37C-558.152 201.055 -579.516 202.031 -601.322 201.28C-630.025 200.293 -659.503 196.317 -690.302 189.322C-702.473 186.54 -714.657 183.702 -726.437 180.962C-825.501 157.898 -919.074 136.118 -1026.86 140.906L-1026.93 139.919C-918.932 135.12 -825.259 156.926 -726.085 180.013C-714.305 182.756 -702.124 185.592 -689.956 188.373C-585.957 211.989 -495.307 201.359 -396.036 153.897C-392.567 152.237 -388.859 150.422 -384.702 148.344C-374.107 143.051 -363.222 137.314 -351.697 131.239C-316.563 112.721 -276.742 91.7337 -236.007 79.2546C-189.174 64.9065 -148.352 64.0244 -111.209 76.5572C-73.5361 89.269 -42.5045 109.047 -12.4936 128.174C-5.48749 132.64 1.76086 137.258 8.92517 141.676C10.2238 142.476 11.5254 143.274 12.8271 144.064C47.9998 165.315 88.4923 184.843 136.618 203.762C244.009 245.978 331.309 252.715 396.092 223.789C414.594 215.53 431.307 204.567 447.192 190.27C468.191 171.387 485.178 148.983 501.606 127.315C517.954 105.752 534.86 83.4551 555.662 64.7428C580.308 42.5739 609.679 26.7608 642.956 17.7485C673.093 9.58507 707.235 6.783 744.426 9.4266C775.209 11.6279 808.848 17.5441 844.405 27.014C875.391 35.2644 908.667 46.4396 943.31 60.2252C997.392 81.7473 1060.04 111.09 1110.89 138.723L1110.19 139.538C1059.37 111.931 996.781 82.6114 942.748 61.1098C868.537 31.5776 801.777 14.522 744.316 10.4134C666.464 4.88591 603.309 23.3861 556.599 65.3999C535.871 84.0458 518.994 106.302 502.676 127.826C486.218 149.532 469.202 171.975 448.126 190.928C432.146 205.309 415.327 216.341 396.702 224.655C367.551 237.671 333.883 243.518 295.936 242.215L295.939 242.212Z" fill="#9C9C9C" fill-opacity="0.13"/>
<path d="M277.928 249.222C268.367 248.892 258.551 248.095 248.483 246.829C227.073 244.134 204.44 239.279 181.209 232.404C160.96 226.409 140.151 218.851 119.356 209.939C76.667 191.646 36.5328 169.15 0.0650635 143.079C-8.53357 136.933 -17.1675 130.408 -25.5174 124.098C-54.0134 102.563 -83.4816 80.2975 -119.32 66.7624C-156.249 52.8157 -197.033 53.5725 -244.002 69.0761C-284.975 82.601 -325.032 105.465 -360.373 125.64C-375.357 134.195 -389.508 142.271 -402.958 149.243C-452.437 174.887 -499.099 190.799 -545.606 197.889C-569.289 201.499 -593.24 202.89 -617.757 202.046C-644.522 201.126 -671.961 197.544 -700.506 191.28C-717.835 187.478 -735.074 183.541 -751.745 179.734C-846.122 158.179 -935.267 137.82 -1037.94 141.831L-1038 140.809C-935.115 136.79 -845.87 157.172 -751.386 178.75C-734.719 182.557 -717.483 186.494 -700.16 190.293C-595.379 213.28 -503.938 200.356 -403.666 148.387C-390.241 141.428 -376.1 133.356 -361.128 124.809C-325.73 104.604 -285.612 81.701 -244.499 68.1301C-197.172 52.5088 -156.043 51.7572 -118.761 65.8394C-82.7354 79.4434 -53.1929 101.768 -24.6226 123.357C-16.2793 129.662 -7.65173 136.181 0.93396 142.32C37.3275 168.337 77.3776 190.784 119.976 209.039C179.42 234.514 292.302 271.005 380.452 229.185C429.501 205.917 457.296 165.836 484.177 127.074C500.062 104.167 516.491 80.4789 537.105 60.5982C554.667 43.6602 574.872 30.0997 597.153 20.2897C617.958 11.1291 641.124 4.99816 666.009 2.06566C689.02 -0.644421 714.112 -0.687824 740.589 1.93532C764.779 4.33093 790.781 9.01981 817.872 15.8717C863.982 27.5301 913.277 45.2147 968.583 69.9275C1014.58 90.4858 1056.13 112.046 1094.17 132.282L1093.45 133.131C1006.91 87.0982 913.59 41.1496 817.482 16.8433C694.818 -14.1743 600.826 0.764362 538.107 61.2451C517.57 81.0517 501.17 104.696 485.311 127.565C471.851 146.976 457.932 167.045 441.484 184.804C423.008 204.754 403.263 219.557 381.117 230.062C351.426 244.147 316.819 250.559 277.932 249.222H277.928Z" fill="#9C9C9C" fill-opacity="0.13"/>
</svg>
