<svg width="519" height="577" viewBox="0 0 519 577" fill="none" xmlns="http://www.w3.org/2000/svg">
<g opacity="0.5">
<path d="M241.62 0.870764C241.287 1.01486 241.121 1.1701 241.154 1.34744C241.198 1.51371 241.453 1.70213 241.963 1.89056C242.473 2.07899 243.238 2.27853 244.291 2.47805C245.355 2.67756 246.707 2.88808 248.403 3.0876C249.035 3.16519 250.044 3.24273 251.207 3.32032C252.371 3.39791 253.679 3.47557 254.909 3.53099C256.14 3.5975 257.293 3.65293 258.146 3.68619C258.988 3.71944 259.532 3.75262 259.532 3.75262L266.781 1.67989C266.781 1.67989 266.526 1.63558 266.116 1.56907C265.694 1.50257 265.107 1.40281 264.431 1.29197C263.755 1.18113 263.001 1.07035 262.236 0.948429C261.471 0.837587 260.706 0.726724 260.008 0.649135C259.099 0.538293 257.802 0.405207 256.317 0.294366C254.832 0.17244 253.136 0.0726931 251.418 0.0283564C249.7 -0.0159802 247.96 -0.0159261 246.353 0.0838314C244.745 0.183589 243.282 0.371939 242.118 0.693379C242.074 0.704464 242.03 0.715591 241.985 0.737759C241.941 0.748844 241.897 0.759971 241.863 0.782139C241.83 0.804308 241.786 0.8153 241.742 0.826384C241.686 0.837468 241.653 0.848596 241.62 0.870764Z" fill="#008056"/>
<path d="M263.012 4.17364C263.012 4.17364 263.201 4.20697 263.511 4.25131C263.832 4.30673 264.276 4.37316 264.819 4.45075C265.351 4.52834 265.983 4.62808 266.637 4.71676C267.302 4.80543 267.989 4.90518 268.676 4.98277C269.352 5.06036 270.117 5.10469 270.904 5.11577C271.702 5.12686 272.534 5.10476 273.332 5.04934C274.141 4.99392 274.917 4.91637 275.615 4.81661C276.313 4.71686 276.923 4.59484 277.411 4.45075C277.477 4.42858 277.544 4.40649 277.61 4.39541C277.677 4.37324 277.732 4.35102 277.787 4.33993C277.843 4.31777 277.898 4.29554 277.943 4.28446C277.987 4.26229 278.031 4.25129 278.076 4.22912C278.353 4.09611 278.486 3.97423 278.497 3.86339C278.508 3.74146 278.397 3.63056 278.175 3.51972C277.965 3.40887 277.643 3.30908 277.244 3.20933C276.845 3.10957 276.369 3.02091 275.837 2.94332C275.493 2.8879 275.105 2.83245 274.695 2.77703C274.274 2.72161 273.83 2.65519 273.343 2.58868C272.855 2.52218 272.334 2.45561 271.78 2.38911C271.226 2.3226 270.627 2.24507 269.995 2.16748L263.012 4.17364Z" fill="#008056"/>
<path d="M208.6 2.38923C207.735 2.73284 207.635 3.06536 208.034 3.35355C208.433 3.64174 209.342 3.90785 210.473 4.14062C211.614 4.37339 212.989 4.56171 214.33 4.72798C215.671 4.88316 216.979 5.00516 217.977 5.08275C218.742 5.13817 219.662 5.19362 220.604 5.24904C221.546 5.30446 222.521 5.34866 223.397 5.393C224.273 5.43734 225.048 5.47069 225.614 5.49286C226.179 5.51502 226.512 5.52614 226.512 5.52614L232.253 3.25383C232.253 3.25383 231.865 3.18729 231.233 3.07645C230.602 2.97669 229.737 2.83262 228.784 2.68853C227.831 2.54443 226.8 2.38924 225.824 2.25623C224.86 2.12322 223.951 2.02345 223.264 1.96803C221.224 1.81285 219.395 1.72417 217.777 1.67983C216.159 1.63549 214.751 1.64659 213.543 1.69093C212.335 1.73526 211.326 1.8239 210.517 1.93475C209.708 2.04559 209.098 2.18968 208.688 2.34485C208.677 2.34485 208.666 2.35595 208.655 2.35595C208.644 2.35595 208.633 2.36704 208.622 2.36704C208.611 2.36704 208.6 2.37814 208.6 2.37814C208.6 2.37814 208.611 2.37815 208.6 2.38923Z" fill="#008056"/>
<path d="M230.569 5.71455C231.267 5.76998 231.921 5.81432 232.553 5.85865C233.185 5.90299 233.783 5.94731 234.337 5.98056C234.903 6.01382 235.435 6.04717 235.934 6.08042C236.432 6.11367 236.898 6.13578 237.33 6.15795C238.117 6.20228 238.893 6.22438 239.647 6.22438C240.401 6.22438 241.132 6.20228 241.808 6.15795C242.484 6.11361 243.116 6.03608 243.681 5.93632C244.247 5.83656 244.746 5.70343 245.156 5.53717C245.167 5.53717 245.167 5.52621 245.178 5.52621C245.189 5.52621 245.189 5.51512 245.2 5.51512C245.211 5.51512 245.211 5.50402 245.222 5.50402C245.233 5.50402 245.233 5.49293 245.244 5.49293C245.588 5.33775 245.787 5.18252 245.854 5.02734C245.92 4.87216 245.832 4.70585 245.621 4.56176C245.411 4.41766 245.067 4.28468 244.59 4.17384C244.125 4.063 243.526 3.97435 242.806 3.91892C242.063 3.8635 241.276 3.80807 240.5 3.76373C239.724 3.71939 238.971 3.67507 238.317 3.64182C237.663 3.60857 237.086 3.57537 236.687 3.56429C236.288 3.54212 236.044 3.53101 236.044 3.53101L230.569 5.71455Z" fill="#008056"/>
<path d="M287.674 5.49344C287.364 5.63753 287.22 5.80373 287.298 5.98108C287.375 6.15843 287.652 6.35796 288.195 6.55748C288.739 6.75699 289.525 6.97875 290.623 7.18935C291.72 7.41103 293.106 7.6327 294.835 7.86547C295.489 7.95414 296.531 8.0428 297.739 8.13148C298.936 8.22015 300.299 8.3088 301.574 8.38639C302.849 8.46398 304.046 8.53053 304.921 8.57487C305.797 8.61921 306.362 8.6524 306.362 8.6524L313.811 6.52419C313.811 6.52419 313.545 6.47987 313.113 6.40228C312.68 6.32469 312.071 6.21382 311.361 6.09189C310.663 5.96997 309.876 5.837 309.078 5.71507C308.28 5.59314 307.493 5.4713 306.772 5.38263C305.819 5.2607 304.489 5.10553 302.937 4.97252C301.397 4.83951 299.645 4.71754 297.872 4.65103C296.098 4.58453 294.292 4.57345 292.64 4.66213C290.977 4.7508 289.47 4.93915 288.273 5.27168C288.218 5.28276 288.162 5.30497 288.107 5.31606C288.051 5.32714 287.996 5.34936 287.952 5.37153C287.907 5.3937 287.852 5.4047 287.807 5.42687C287.752 5.46012 287.708 5.48236 287.674 5.49344Z" fill="#008056"/>
<path d="M309.954 9.1399C309.954 9.1399 310.143 9.17324 310.475 9.22866C310.808 9.28408 311.273 9.36162 311.827 9.45029C312.382 9.53896 313.036 9.63874 313.712 9.74958C314.399 9.84934 315.119 9.9602 315.829 10.0489C316.527 10.1376 317.325 10.193 318.145 10.2152C318.966 10.2373 319.83 10.2151 320.661 10.1708C321.493 10.1265 322.291 10.0489 323.011 9.94916C323.732 9.8494 324.364 9.72738 324.862 9.5722C324.94 9.55003 325.029 9.52792 325.095 9.49467C325.173 9.4725 325.239 9.45027 325.295 9.4281C325.361 9.40593 325.417 9.38383 325.472 9.36166C325.527 9.3395 325.572 9.31726 325.616 9.29509C325.86 9.16208 325.971 9.0402 325.96 8.91827C325.949 8.79634 325.816 8.68556 325.583 8.56364C325.35 8.45279 325.029 8.34191 324.619 8.24215C324.208 8.14239 323.721 8.04263 323.166 7.95395C322.801 7.89853 322.402 7.83198 321.98 7.76547C321.548 7.69897 321.083 7.63253 320.584 7.55494C320.085 7.47735 319.542 7.41076 318.966 7.33317C318.389 7.25559 317.768 7.16694 317.114 7.08936L309.954 9.1399Z" fill="#008056"/>
<path d="M253.568 6.84583C252.77 7.20052 252.737 7.53308 253.191 7.84343C253.646 8.15379 254.588 8.43089 255.763 8.67474C256.938 8.9186 258.346 9.14022 259.709 9.30648C261.083 9.48383 262.402 9.61682 263.422 9.7055C264.22 9.772 265.162 9.84965 266.138 9.90507C267.113 9.97158 268.111 10.027 269.02 10.0825C269.929 10.1379 270.727 10.1711 271.314 10.2044C271.89 10.2376 272.245 10.2486 272.245 10.2486L278.131 7.89877C278.131 7.89877 277.721 7.82127 277.078 7.71043C276.424 7.59959 275.526 7.43331 274.54 7.27813C273.553 7.11187 272.489 6.94554 271.48 6.80145C270.483 6.65736 269.541 6.53552 268.831 6.4801C266.725 6.30275 264.841 6.19185 263.178 6.13643C261.505 6.08101 260.053 6.08098 258.811 6.11424C257.57 6.14749 256.528 6.23626 255.697 6.3471C254.865 6.45794 254.244 6.60203 253.823 6.75721C253.801 6.76829 253.779 6.77926 253.757 6.77926C253.735 6.79034 253.712 6.80145 253.69 6.80145C253.668 6.81253 253.646 6.82364 253.635 6.82364C253.602 6.82364 253.579 6.83475 253.568 6.84583Z" fill="#008056"/>
<path d="M276.436 10.4923C277.145 10.5588 277.832 10.6141 278.475 10.6696C279.129 10.725 279.739 10.7693 280.326 10.8137C280.914 10.858 281.457 10.9023 281.978 10.9356C282.499 10.9688 282.975 11.0022 283.43 11.0243C284.239 11.0687 285.048 11.1019 285.824 11.1129C286.6 11.124 287.353 11.1019 288.063 11.0576C288.761 11.0133 289.415 10.9467 290.003 10.8358C290.579 10.7361 291.089 10.592 291.51 10.4257C291.532 10.4147 291.543 10.4146 291.565 10.4035C291.588 10.3925 291.599 10.3924 291.61 10.3814C291.621 10.3703 291.643 10.3704 291.654 10.3593C291.665 10.3482 291.687 10.3482 291.698 10.3371C292.02 10.1819 292.197 10.0156 292.23 9.84934C292.264 9.68308 292.175 9.52797 291.942 9.37279C291.71 9.21762 291.355 9.08462 290.867 8.97378C290.379 8.86294 289.77 8.76319 289.038 8.70777C288.273 8.64127 287.453 8.5858 286.655 8.51929C285.857 8.46387 285.081 8.40844 284.394 8.37519C283.718 8.33086 283.13 8.29764 282.709 8.27547C282.299 8.2533 282.044 8.24219 282.044 8.24219L276.436 10.4923Z" fill="#008056"/>
<path d="M335.137 11.057C334.849 11.2122 334.738 11.3784 334.827 11.5668C334.915 11.7552 335.204 11.9659 335.747 12.1765C336.29 12.3982 337.066 12.6308 338.141 12.8747C339.216 13.1185 340.568 13.3735 342.242 13.6396C342.896 13.7393 343.96 13.8613 345.19 13.9721C346.421 14.0941 347.806 14.2048 349.114 14.3157C350.422 14.4265 351.652 14.5152 352.561 14.5817C353.459 14.6482 354.036 14.6925 354.036 14.6925L362.171 12.5533C362.171 12.5533 361.905 12.4979 361.473 12.4092C361.041 12.3206 360.42 12.1875 359.722 12.0545C359.012 11.9104 358.225 11.7664 357.416 11.6112C356.618 11.4671 355.809 11.3229 355.066 11.212C354.102 11.068 352.75 10.8796 351.176 10.7133C349.602 10.5471 347.817 10.3808 345.988 10.281C344.16 10.1813 342.297 10.137 340.557 10.2146C338.828 10.2811 337.221 10.4585 335.913 10.791C335.835 10.8131 335.758 10.8352 335.68 10.8574C335.603 10.8796 335.536 10.9018 335.47 10.924C335.403 10.9462 335.348 10.9683 335.292 10.9904C335.237 11.0126 335.181 11.0348 335.137 11.057Z" fill="#008056"/>
<path d="M357.704 15.258C357.704 15.258 357.893 15.3025 358.225 15.3579C358.558 15.4244 359.023 15.5131 359.588 15.6239C360.154 15.7347 360.808 15.8455 361.495 15.9674C362.182 16.0894 362.914 16.2114 363.634 16.3222C364.355 16.433 365.164 16.4995 366.017 16.5327C366.871 16.566 367.769 16.566 368.633 16.5216C369.509 16.4884 370.351 16.422 371.127 16.3222C371.892 16.2225 372.579 16.1004 373.122 15.9563C373.244 15.9231 373.344 15.8899 373.444 15.8677C373.543 15.8345 373.632 15.8013 373.721 15.7791C373.809 15.7458 373.876 15.7125 373.942 15.6903C374.009 15.6571 374.064 15.6239 374.12 15.6017C374.33 15.4798 374.408 15.3468 374.386 15.2249C374.364 15.103 374.22 14.981 373.998 14.8701C373.765 14.7593 373.455 14.6374 373.056 14.5266C372.657 14.4157 372.191 14.3159 371.67 14.2162C371.304 14.1497 370.905 14.072 370.473 13.9944C370.041 13.9168 369.564 13.8393 369.054 13.7506C368.544 13.6619 367.99 13.5733 367.414 13.4846C366.826 13.3959 366.206 13.2961 365.541 13.1853L357.704 15.258Z" fill="#008056"/>
<path d="M299.59 11.9439C298.892 12.2875 298.903 12.6312 299.38 12.9526C299.856 13.2741 300.798 13.5733 301.951 13.8504C303.115 14.1275 304.489 14.3603 305.819 14.5709C307.161 14.7704 308.457 14.9367 309.466 15.0364C310.275 15.1251 311.24 15.2138 312.226 15.2914C313.224 15.38 314.243 15.4576 315.163 15.5241C316.083 15.5906 316.915 15.6571 317.502 15.6904C318.101 15.7347 318.455 15.7569 318.455 15.7569L324.973 13.3627C324.973 13.3627 324.574 13.2741 323.92 13.1411C323.266 13.0081 322.379 12.8196 321.393 12.6311C320.406 12.4427 319.331 12.2432 318.333 12.0658C317.325 11.8996 316.383 11.7555 315.662 11.6779C313.523 11.4562 311.594 11.301 309.887 11.2123C308.18 11.1237 306.673 11.0904 305.387 11.1126C304.09 11.1348 303.015 11.2013 302.139 11.3011C301.264 11.4008 300.599 11.5449 300.133 11.7112C300.078 11.7334 300.033 11.7444 299.978 11.7665C299.934 11.7887 299.878 11.7998 299.845 11.822C299.801 11.8442 299.756 11.8553 299.723 11.8775C299.668 11.9107 299.623 11.9328 299.59 11.9439Z" fill="#008056"/>
<path d="M322.722 16.1005C323.454 16.1781 324.152 16.2558 324.817 16.3223C325.482 16.3888 326.114 16.4552 326.701 16.5106C327.3 16.566 327.854 16.6215 328.386 16.6658C328.918 16.7102 329.417 16.7545 329.871 16.7877C330.703 16.8542 331.534 16.8986 332.332 16.9207C333.141 16.9429 333.917 16.9429 334.649 16.8985C335.38 16.8653 336.067 16.7989 336.699 16.6991C337.32 16.5993 337.874 16.4663 338.34 16.289C338.384 16.2779 338.417 16.2557 338.462 16.2446C338.495 16.2335 338.539 16.2113 338.573 16.2002C338.606 16.1892 338.639 16.1671 338.672 16.156C338.706 16.1449 338.739 16.1227 338.761 16.1116C339.038 15.9564 339.193 15.7902 339.215 15.624C339.238 15.4577 339.138 15.2914 338.905 15.1473C338.672 14.9921 338.329 14.848 337.852 14.7261C337.387 14.6042 336.799 14.5044 336.09 14.4268C335.314 14.3492 334.471 14.2606 333.662 14.1941C332.853 14.1165 332.055 14.0499 331.357 13.9945C330.658 13.9391 330.06 13.8947 329.639 13.8615C329.217 13.8282 328.963 13.8062 328.963 13.8062L322.722 16.1005Z" fill="#008056"/>
<path d="M383.308 18.0294C383.053 18.1846 382.953 18.3619 383.042 18.5614C383.131 18.7609 383.397 18.9827 383.895 19.2155C384.394 19.4482 385.104 19.7031 386.079 19.9802C387.055 20.2573 388.285 20.5455 389.814 20.8448C390.457 20.9778 391.51 21.133 392.741 21.2882C393.971 21.4545 395.368 21.6206 396.687 21.7647C398.006 21.9199 399.247 22.053 400.167 22.1528C401.076 22.2525 401.663 22.3078 401.663 22.3078L411.074 20.2573C411.074 20.2573 410.83 20.1908 410.409 20.0799C409.988 19.9691 409.411 19.814 408.735 19.6478C408.059 19.4815 407.305 19.2929 406.529 19.1156C405.765 18.9383 404.978 18.761 404.268 18.628C403.326 18.4395 401.985 18.2068 400.422 17.9851C398.859 17.7524 397.063 17.5417 395.201 17.3754C393.339 17.2203 391.422 17.1206 389.582 17.1427C387.753 17.1649 386.001 17.3089 384.505 17.6193C384.372 17.6525 384.25 17.6748 384.139 17.708C384.029 17.7413 383.918 17.7745 383.818 17.8077C383.718 17.841 383.629 17.8742 383.552 17.9075C383.441 17.9518 383.363 17.9961 383.308 18.0294Z" fill="#008056"/>
<path d="M405.222 23.0283C405.222 23.0283 405.4 23.0727 405.721 23.1613C406.042 23.2389 406.486 23.3498 407.029 23.4828C407.572 23.6158 408.193 23.7599 408.858 23.9151C409.523 24.0703 410.232 24.2144 410.931 24.3585C411.629 24.5026 412.46 24.5912 413.336 24.6577C414.211 24.7131 415.154 24.7353 416.085 24.7242C417.016 24.7132 417.936 24.6688 418.778 24.5801C419.621 24.5025 420.396 24.3917 421.028 24.2476C421.206 24.2032 421.372 24.17 421.527 24.1256C421.671 24.0813 421.815 24.0481 421.926 24.0037C422.048 23.9594 422.148 23.9151 422.236 23.8818C422.325 23.8375 422.403 23.7932 422.458 23.7488C422.624 23.6269 422.691 23.505 422.658 23.3942C422.624 23.2723 422.502 23.1503 422.303 23.0283C422.103 22.9064 421.815 22.7845 421.472 22.6737C421.128 22.5518 420.707 22.4409 420.252 22.33C419.909 22.2413 419.521 22.1527 419.1 22.064C418.678 21.9643 418.213 21.8645 417.725 21.7647C417.226 21.6539 416.694 21.5431 416.118 21.4323C415.542 21.3103 414.932 21.1883 414.289 21.0664L405.222 23.0283Z" fill="#008056"/>
<path d="M346.022 18.0293C345.423 18.3729 345.456 18.7166 345.911 19.0491C346.365 19.3817 347.23 19.7142 348.294 20.0134C349.358 20.3127 350.622 20.6009 351.852 20.8337C353.082 21.0664 354.29 21.266 355.233 21.4101C356.02 21.5209 356.973 21.6428 357.959 21.7647C358.946 21.8866 359.966 21.9975 360.897 22.0973C361.817 22.197 362.648 22.2857 363.246 22.3411C363.845 22.4076 364.211 22.4408 364.211 22.4408L372.014 20.0799C372.014 20.0799 371.637 19.9801 371.016 19.8139C370.396 19.6476 369.553 19.4371 368.611 19.2043C367.68 18.9716 366.649 18.7277 365.685 18.5171C364.721 18.3065 363.812 18.1291 363.091 18.0293C360.985 17.7301 359.068 17.5195 357.339 17.3754C355.609 17.2313 354.08 17.1649 352.739 17.1427C351.397 17.1316 350.256 17.1648 349.303 17.2535C348.349 17.3422 347.607 17.4641 347.052 17.6303C346.942 17.6636 346.831 17.6968 346.731 17.73C346.631 17.7633 346.543 17.7966 346.454 17.8299C346.365 17.8631 346.288 17.8964 346.221 17.9296C346.144 17.9629 346.077 17.9961 346.022 18.0293Z" fill="#008056"/>
<path d="M368.479 22.9286C369.199 23.0283 369.886 23.1281 370.54 23.2168C371.194 23.3054 371.815 23.3941 372.413 23.4717C373.001 23.5493 373.566 23.6157 374.098 23.6822C374.63 23.7487 375.118 23.8042 375.583 23.8596C376.415 23.9483 377.257 24.0259 378.077 24.0703C378.909 24.1146 379.718 24.1367 380.494 24.1145C381.27 24.1034 382.023 24.048 382.711 23.9593C383.398 23.8706 384.041 23.7377 384.606 23.5714C384.695 23.5381 384.783 23.516 384.872 23.4828C384.95 23.4495 385.027 23.4274 385.105 23.3941C385.171 23.3609 385.238 23.3275 385.304 23.2943C385.371 23.261 385.426 23.2278 385.47 23.1946C385.703 23.0394 385.836 22.8842 385.858 22.729C385.881 22.5738 385.792 22.4076 385.592 22.2635C385.393 22.1084 385.094 21.9643 384.672 21.8423C384.262 21.7093 383.73 21.5984 383.099 21.5098C382.323 21.3989 381.491 21.288 380.682 21.1883C379.873 21.0885 379.075 20.9888 378.377 20.9112C377.678 20.8336 377.08 20.7672 376.648 20.7228C376.215 20.6785 375.971 20.6562 375.971 20.6562L368.479 22.9286Z" fill="#008056"/>
<path d="M430.682 27.1295C430.461 27.2846 430.361 27.4731 430.416 27.6837C430.461 27.8943 430.66 28.127 431.037 28.3709C431.403 28.6258 431.957 28.9029 432.7 29.2022C433.442 29.5015 434.396 29.8229 435.559 30.1776C436.125 30.3439 437.1 30.5544 438.242 30.7872C439.395 31.0199 440.714 31.2638 441.955 31.4855C443.208 31.7071 444.393 31.9067 445.258 32.0619C446.134 32.206 446.688 32.2946 446.688 32.2946L458.337 30.5766C458.337 30.5766 458.127 30.4879 457.783 30.3549C457.44 30.2219 456.941 30.0223 456.376 29.8117C455.81 29.6011 455.156 29.3684 454.491 29.1356C453.826 28.9139 453.15 28.6923 452.518 28.5039C451.687 28.26 450.49 27.9497 449.038 27.6393C447.586 27.3289 445.901 27.0074 444.083 26.7525C442.276 26.4976 440.337 26.3092 438.408 26.2427C436.479 26.1873 434.54 26.2538 432.711 26.5198C432.478 26.553 432.256 26.5973 432.046 26.6306C431.835 26.6749 431.647 26.7193 431.48 26.7747C431.303 26.8301 431.159 26.8856 431.015 26.941C430.893 26.9964 430.782 27.063 430.682 27.1295Z" fill="#008056"/>
<path d="M449.869 33.2256C449.869 33.2256 450.024 33.2809 450.29 33.3807C450.556 33.4804 450.933 33.6247 451.388 33.7909C451.842 33.9572 452.385 34.1456 452.962 34.334C453.538 34.5225 454.159 34.7219 454.779 34.9103C455.389 35.0876 456.165 35.2317 457.041 35.3426C457.916 35.4534 458.881 35.52 459.867 35.5533C460.854 35.5865 461.873 35.5754 462.827 35.5311C463.791 35.4867 464.7 35.4092 465.487 35.2873C465.808 35.2429 466.096 35.1875 466.351 35.1321C466.606 35.0766 466.828 35.0212 467.016 34.9658C467.205 34.9103 467.371 34.8438 467.504 34.7884C467.637 34.7219 467.737 34.6665 467.814 34.6C467.947 34.4892 467.992 34.3783 467.981 34.2675C467.97 34.1566 467.892 34.0348 467.748 33.9239C467.615 33.802 467.415 33.6911 467.172 33.5692C466.928 33.4472 466.628 33.3253 466.296 33.2034C465.997 33.0926 465.675 32.9817 465.309 32.8597C464.944 32.7378 464.545 32.6048 464.112 32.4718C463.68 32.3388 463.214 32.1836 462.705 32.0395C462.195 31.8844 461.652 31.7293 461.075 31.563L449.869 33.2256Z" fill="#008056"/>
<path d="M391.933 25.4554C391.445 25.7768 391.445 26.1203 391.788 26.475C392.132 26.8297 392.797 27.1734 393.639 27.517C394.471 27.8495 395.479 28.1709 396.466 28.448C397.452 28.7251 398.439 28.969 399.226 29.1353C399.946 29.2904 400.844 29.4679 401.764 29.6341C402.684 29.8004 403.648 29.9777 404.524 30.1218C405.4 30.2659 406.176 30.3988 406.741 30.4875C407.306 30.5762 407.65 30.6316 407.65 30.6316L417.692 28.5146C417.692 28.5146 417.382 28.3926 416.883 28.1931C416.373 27.9936 415.675 27.7275 414.899 27.4393C414.123 27.1512 413.258 26.852 412.438 26.586C411.607 26.32 410.82 26.0871 410.155 25.9541C408.226 25.544 406.42 25.2226 404.757 24.9898C403.094 24.757 401.576 24.6129 400.212 24.5353C398.849 24.4577 397.63 24.4467 396.588 24.4911C395.546 24.5354 394.659 24.6352 393.972 24.7792C393.717 24.8347 393.495 24.8789 393.285 24.9343C393.074 24.9897 392.886 25.0452 392.72 25.1006C392.553 25.156 392.409 25.2115 392.276 25.278C392.143 25.3334 392.032 25.3999 391.933 25.4554Z" fill="#008056"/>
<path d="M411.64 31.3522C412.305 31.4963 412.936 31.6293 413.535 31.7623C414.145 31.8953 414.721 32.0062 415.264 32.1171C415.807 32.2279 416.328 32.3276 416.827 32.4273C417.315 32.516 417.78 32.6048 418.224 32.6824C419.011 32.8154 419.82 32.9372 420.64 33.0259C421.46 33.1146 422.292 33.17 423.112 33.1922C423.932 33.2144 424.752 33.1921 425.55 33.1367C426.348 33.0813 427.124 32.9706 427.856 32.8154C428.077 32.771 428.277 32.7156 428.454 32.6713C428.643 32.6159 428.809 32.5604 428.964 32.505C429.119 32.4496 429.252 32.383 429.374 32.3276C429.496 32.2611 429.596 32.2056 429.685 32.1391C429.862 32.0061 429.973 31.862 429.995 31.729C430.017 31.596 429.973 31.4519 429.829 31.3078C429.696 31.1748 429.474 31.0418 429.175 30.9088C428.875 30.7869 428.476 30.665 428 30.5653C427.279 30.4101 426.503 30.2549 425.739 30.1108C424.974 29.9667 424.231 29.8226 423.566 29.7118C422.912 29.5898 422.347 29.5011 421.937 29.4236C421.538 29.3571 421.294 29.3127 421.294 29.3127L411.64 31.3522Z" fill="#008056"/>
<path d="M472.392 39.5987C472.203 39.7649 472.081 39.9423 472.048 40.1418C472.004 40.3413 472.048 40.5629 472.17 40.8179C472.292 41.0617 472.514 41.3277 472.835 41.6159C473.156 41.9041 473.578 42.2144 474.11 42.558C474.442 42.7686 475.14 43.0679 476.005 43.3894C476.859 43.7108 477.878 44.0655 478.865 44.3981C479.851 44.7306 480.793 45.0299 481.481 45.2405C482.179 45.4621 482.633 45.5951 482.633 45.5951L497.342 44.7527C497.342 44.7527 497.253 44.6529 497.087 44.4867C496.921 44.3204 496.688 44.0877 496.411 43.8217C496.123 43.5556 495.801 43.2674 495.436 42.9792C495.081 42.6911 494.693 42.414 494.294 42.1812C493.773 41.8709 492.975 41.4496 491.911 41.0173C490.858 40.585 489.55 40.1196 488.02 39.7206C486.502 39.3215 484.762 38.9668 482.833 38.7562C480.904 38.5456 478.787 38.4569 476.493 38.59C476.016 38.6121 475.573 38.6564 475.152 38.7119C474.73 38.7673 474.342 38.8337 473.988 38.9224C473.633 39.0111 473.323 39.0998 473.057 39.2217C472.78 39.3325 472.558 39.4546 472.392 39.5987Z" fill="#008056"/>
<path d="M484.529 46.814C484.529 46.814 484.596 46.8915 484.729 47.0134C484.862 47.1353 485.05 47.3126 485.283 47.5122C485.516 47.7228 485.804 47.9556 486.125 48.1995C486.447 48.4434 486.802 48.6982 487.178 48.931C487.555 49.1637 488.165 49.3744 488.919 49.5628C489.683 49.7402 490.592 49.8952 491.579 50.0061C492.576 50.1169 493.64 50.1946 494.716 50.2279C495.791 50.2611 496.866 50.25 497.875 50.1946C498.495 50.1613 499.039 50.1059 499.526 50.0505C500.003 49.995 500.413 49.9175 500.757 49.8399C501.1 49.7623 501.388 49.6737 501.61 49.5739C501.832 49.4742 501.998 49.3744 502.109 49.2635C502.198 49.1749 502.253 49.0973 502.275 48.9975C502.297 48.9089 502.297 48.8091 502.275 48.7204C502.253 48.6207 502.198 48.5209 502.12 48.4211C502.042 48.3214 501.954 48.2216 501.832 48.1107C501.677 47.9777 501.488 47.8336 501.289 47.6673C501.078 47.5122 500.856 47.346 500.601 47.1686C500.346 46.9913 500.069 46.8028 499.759 46.6033C499.449 46.4038 499.116 46.1933 498.761 45.9827L484.529 46.814Z" fill="#008056"/>
<path d="M434.894 34.9547C434.495 35.2539 434.395 35.5865 434.484 35.9301C434.573 36.2737 434.861 36.6284 435.26 36.961C435.659 37.3046 436.169 37.626 436.701 37.9253C437.233 38.2245 437.787 38.4794 438.264 38.69C438.763 38.9006 439.417 39.1445 440.104 39.3883C440.802 39.6322 441.534 39.876 442.21 40.0977C442.886 40.3194 443.507 40.5078 443.95 40.6408C444.393 40.7739 444.67 40.8625 444.67 40.8625L457.994 39.488C457.994 39.488 457.861 39.3329 457.628 39.089C457.395 38.8452 457.074 38.5238 456.697 38.1691C456.32 37.8144 455.877 37.4376 455.411 37.1051C454.957 36.7725 454.469 36.4733 454.003 36.2848C452.618 35.7195 451.221 35.254 449.858 34.8993C448.494 34.5446 447.142 34.2785 445.856 34.0901C444.571 33.9127 443.34 33.8131 442.21 33.7798C441.079 33.7466 440.026 33.7798 439.117 33.8795C438.541 33.935 438.02 34.0014 437.565 34.079C437.111 34.1566 436.712 34.2453 436.357 34.334C436.014 34.4227 435.714 34.5223 435.471 34.6332C435.249 34.7219 435.049 34.8327 434.894 34.9547Z" fill="#008056"/>
<path d="M447.752 41.8822C448.217 42.0817 448.661 42.2701 449.093 42.4475C449.525 42.6248 449.947 42.791 450.346 42.9462C450.745 43.1014 451.133 43.2455 451.51 43.3785C451.886 43.5115 452.241 43.6336 452.574 43.7555C453.183 43.955 453.848 44.1434 454.569 44.2986C455.289 44.4538 456.054 44.5756 456.874 44.6643C457.694 44.753 458.559 44.7973 459.468 44.7973C460.377 44.7973 461.33 44.753 462.317 44.6421C462.815 44.5867 463.292 44.5203 463.713 44.4427C464.145 44.3651 464.533 44.2763 464.877 44.1876C465.221 44.0879 465.52 43.9882 465.764 43.8774C466.008 43.7665 466.207 43.6556 466.34 43.5337C466.451 43.434 466.529 43.3453 466.562 43.2455C466.595 43.1458 466.595 43.046 466.551 42.9462C466.506 42.8465 466.418 42.7468 466.285 42.6471C466.152 42.5473 465.974 42.4475 465.742 42.3589C465.232 42.1483 464.655 41.9265 464.079 41.7159C463.503 41.5053 462.937 41.3058 462.427 41.1395C461.918 40.9732 461.474 40.8293 461.164 40.7184C460.853 40.6187 460.654 40.5632 460.654 40.5632L447.752 41.8822Z" fill="#008056"/>
<path d="M498.152 57.2898C498.063 57.3785 497.975 57.4782 497.886 57.578C497.808 57.6778 497.731 57.7775 497.653 57.8884C497.587 57.9992 497.52 58.11 497.465 58.2208C497.409 58.3317 497.354 58.4537 497.31 58.5756C497.221 58.8195 497.343 59.1851 497.553 59.5953C497.775 60.0054 498.097 60.4599 498.44 60.8811C498.784 61.3023 499.127 61.7013 499.393 61.9895C499.659 62.2777 499.848 62.4662 499.848 62.4662L516.707 63.3528C516.707 63.3528 516.729 63.3307 516.773 63.2975C516.818 63.2531 516.873 63.1977 516.94 63.1312C517.006 63.0647 517.095 62.976 517.195 62.8763C517.283 62.7765 517.394 62.6656 517.494 62.5548C517.627 62.3996 517.771 62.2444 517.915 62.067C518.059 61.9007 518.192 61.7234 518.325 61.5461C518.447 61.3687 518.569 61.1914 518.658 61.0141C518.746 60.8367 518.824 60.6705 518.868 60.5264C518.968 60.1606 518.99 59.6729 518.791 59.1298C518.591 58.5867 518.181 57.9992 517.427 57.4339C516.674 56.8686 515.587 56.3477 514.024 55.9154C512.473 55.4942 510.455 55.1838 507.828 55.0508C506.875 55.0064 505.911 55.0065 504.969 55.0619C504.027 55.1173 503.107 55.2282 502.253 55.4055C501.4 55.5829 500.602 55.8266 499.903 56.137C499.205 56.4363 498.606 56.8243 498.152 57.2898Z" fill="#008056"/>
<path d="M499.371 63.8408C499.371 63.8408 499.294 63.9183 499.183 64.0514C499.061 64.1844 498.906 64.3728 498.728 64.5945C498.551 64.8162 498.374 65.0711 498.207 65.3483C498.041 65.6143 497.897 65.9024 497.808 66.1685C497.709 66.4345 497.897 66.7116 498.307 66.9665C498.717 67.2325 499.338 67.4764 500.125 67.6981C500.912 67.9198 501.854 68.1193 502.885 68.2745C503.916 68.4297 505.046 68.5515 506.199 68.6069C507.418 68.6734 508.483 68.6846 509.414 68.6402C510.345 68.5959 511.143 68.5072 511.808 68.3742C512.484 68.2412 513.027 68.075 513.459 67.8644C513.892 67.6649 514.224 67.4321 514.446 67.1772C514.457 67.1661 514.457 67.155 514.468 67.155C514.479 67.1439 514.479 67.1328 514.49 67.1328C514.501 67.1217 514.501 67.1106 514.512 67.1106C514.523 67.0995 514.523 67.0884 514.534 67.0884C514.656 66.9443 514.767 66.7781 514.878 66.6119C514.989 66.4345 515.089 66.2572 515.188 66.0577C515.288 65.8581 515.377 65.6475 515.466 65.4147C515.554 65.193 515.632 64.9491 515.698 64.6942L499.371 63.8408Z" fill="#008056"/>
<path d="M463.414 48.3442C463.159 48.5659 462.959 48.7877 462.815 49.0204C462.671 49.2421 462.56 49.4638 462.494 49.6855C462.427 49.8961 462.405 50.1066 462.394 50.295C462.394 50.4834 462.416 50.6609 462.461 50.805C462.527 51.0599 462.693 51.3702 462.893 51.6694C463.092 51.9798 463.336 52.2902 463.569 52.5673C463.802 52.8444 464.023 53.0994 464.19 53.2767C464.356 53.4541 464.467 53.5649 464.467 53.5649L480.583 53.7201C480.583 53.7201 480.583 53.7201 480.594 53.709C480.594 53.709 480.605 53.6979 480.616 53.6868C480.628 53.6757 480.639 53.6646 480.65 53.6535C480.661 53.6425 480.672 53.6313 480.694 53.6092C480.816 53.4872 481.049 53.2656 481.326 52.9885C481.592 52.7114 481.902 52.3789 482.19 52.0353C482.479 51.6917 482.733 51.3369 482.9 51.0155C483.066 50.6941 483.144 50.4059 483.066 50.1953C482.822 49.497 482.346 48.9095 481.703 48.4218C481.06 47.9341 480.24 47.5351 479.32 47.2137C478.4 46.9034 477.38 46.6706 476.305 46.5265C475.241 46.3713 474.121 46.2936 473.024 46.2936C471.627 46.2826 470.408 46.338 469.355 46.4377C468.291 46.5375 467.393 46.6927 466.617 46.8811C465.841 47.0696 465.209 47.2912 464.688 47.5462C464.156 47.79 463.735 48.056 463.414 48.3442Z" fill="#008056"/>
<path d="M465.453 54.884C465.52 55.1279 465.597 55.3496 465.675 55.5712C465.752 55.7818 465.841 55.9925 465.93 56.1809C466.018 56.3694 466.118 56.5467 466.218 56.724C466.318 56.8903 466.429 57.0455 466.539 57.1896C466.728 57.4556 467.027 57.6994 467.426 57.9211C467.825 58.1428 468.346 58.3534 468.978 58.5197C469.621 58.697 470.386 58.83 471.283 58.9298C472.192 59.0295 473.234 59.0961 474.431 59.1072C475.351 59.1183 476.249 59.0849 477.103 59.0295C477.956 58.9741 478.754 58.8854 479.464 58.7635C480.173 58.6527 480.794 58.5086 481.292 58.3423C481.791 58.176 482.157 57.9987 482.356 57.7992C482.401 57.7659 482.434 57.7216 482.456 57.6773C482.489 57.6329 482.501 57.5997 482.523 57.5554C482.534 57.511 482.545 57.4778 482.545 57.4334C482.545 57.3891 482.534 57.3448 482.523 57.3115C482.434 57.0566 482.29 56.7795 482.135 56.5135C481.98 56.2475 481.802 55.9925 481.636 55.7819C481.47 55.5602 481.315 55.3718 481.204 55.2388C481.093 55.1058 481.026 55.0281 481.026 55.0281L465.453 54.884Z" fill="#008056"/>
<path d="M477.025 79.7346L491.734 82.816C491.734 82.816 492.1 82.7384 492.687 82.5943C493.275 82.4502 494.095 82.2617 494.993 82.029C495.891 81.8073 496.888 81.5524 497.83 81.2864C498.772 81.0315 499.67 80.7654 500.38 80.5326C500.834 80.3774 501.355 80.189 501.876 79.9784C502.408 79.7678 502.951 79.5239 503.472 79.269C503.993 79.0141 504.492 78.737 504.924 78.4488C505.356 78.1606 505.733 77.8614 505.999 77.5621C506.277 77.2518 506.454 76.9413 506.487 76.631C506.52 76.3206 506.41 76.0103 506.11 75.711C505.811 75.4118 505.345 75.1235 504.647 74.8464C503.949 74.5693 503.029 74.3145 501.854 74.0817C500.834 73.8711 499.626 73.7381 498.285 73.6716C496.944 73.6162 495.458 73.6383 493.873 73.7602C492.288 73.8821 490.592 74.1149 488.819 74.4585C487.045 74.8132 485.194 75.2788 483.299 75.8995C482.656 76.1101 481.947 76.4537 481.237 76.8527C480.528 77.2518 479.83 77.7062 479.209 78.1274C478.588 78.5597 478.034 78.9586 477.646 79.2579C477.258 79.535 477.025 79.7346 477.025 79.7346Z" fill="#008056"/>
<path d="M465.52 83.3823C465.298 83.604 465.22 83.8477 465.298 84.0916C465.375 84.3354 465.586 84.5793 465.93 84.8231C466.273 85.067 466.75 85.2998 467.326 85.5215C467.914 85.7431 468.601 85.9427 469.399 86.1089C470.474 86.3417 471.527 86.4859 472.569 86.5745C473.611 86.6632 474.631 86.6853 475.606 86.6521C476.593 86.6188 477.546 86.5302 478.455 86.3971C479.364 86.2641 480.228 86.0868 481.037 85.8762C481.481 85.7543 481.957 85.6323 482.456 85.4882C482.955 85.3441 483.476 85.2001 484.03 85.0338C484.584 84.8676 485.15 84.6902 485.748 84.5018C486.347 84.3134 486.967 84.1027 487.61 83.8921L473.434 80.9104C473.434 80.9104 473.19 80.9658 472.769 81.0767C472.358 81.1764 471.771 81.3316 471.106 81.509C470.43 81.6863 469.676 81.897 468.911 82.1076C468.146 82.3293 467.371 82.562 466.661 82.7948C466.528 82.8391 466.395 82.8835 466.284 82.9389C466.162 82.9832 466.063 83.0387 465.963 83.083C465.863 83.1384 465.786 83.1828 465.708 83.2382C465.641 83.2714 465.575 83.3269 465.52 83.3823Z" fill="#008056"/>
<path d="M463.448 67.5866L478.866 69.8034C478.866 69.8034 479.409 69.6814 480.24 69.4819C481.072 69.2824 482.202 69.0054 483.388 68.7061C484.574 68.4068 485.805 68.0742 486.869 67.7638C487.922 67.4535 488.797 67.1653 489.252 66.9325C489.562 66.7773 489.839 66.6333 490.094 66.4893C490.349 66.3452 490.582 66.201 490.792 66.057C491.003 65.9129 491.191 65.7799 491.358 65.6468C491.524 65.5138 491.668 65.3918 491.79 65.2588C492.211 64.8376 492.388 64.4497 492.377 64.1061C492.366 63.7625 492.167 63.4632 491.812 63.1861C491.457 62.92 490.948 62.6873 490.327 62.4988C489.706 62.3104 488.963 62.1553 488.143 62.0445C485.716 61.712 483.399 61.6343 481.238 61.7341C479.076 61.8339 477.081 62.0999 475.297 62.4435C473.512 62.7982 471.938 63.2194 470.652 63.6516C469.356 64.0728 468.336 64.4941 467.671 64.8155C467.161 65.0594 466.64 65.3476 466.152 65.6579C465.665 65.9572 465.199 66.2786 464.8 66.5557C464.401 66.8439 464.068 67.0988 463.836 67.2762C463.581 67.4757 463.448 67.5866 463.448 67.5866Z" fill="#008056"/>
<path d="M457.03 71.444C456.775 71.6767 456.642 71.9095 456.631 72.1312C456.62 72.3529 456.753 72.5745 457.03 72.7851C457.318 72.9957 457.762 73.1953 458.382 73.3726C459.003 73.561 459.812 73.7273 460.832 73.8824C461.874 74.0376 463.015 74.1374 464.179 74.1928C465.332 74.2482 466.507 74.2483 467.604 74.2039C468.702 74.1596 469.732 74.0598 470.608 73.9157C471.484 73.7716 472.204 73.5721 472.692 73.3282C473.191 73.0844 473.667 72.8184 474.1 72.5524C474.532 72.2975 474.931 72.0425 475.263 71.8208C475.596 71.5991 475.873 71.4107 476.062 71.2777C476.25 71.1447 476.35 71.067 476.35 71.067L461.475 68.9167C461.009 69.1384 460.577 69.3601 460.178 69.5596C459.779 69.7591 459.413 69.9586 459.081 70.1471C458.748 70.3355 458.449 70.5017 458.172 70.668C457.895 70.8343 457.662 70.9895 457.451 71.1336C457.407 71.1558 457.374 71.1889 457.329 71.2111C457.296 71.2333 457.252 71.2666 457.219 71.2888C457.185 71.3109 457.152 71.3441 457.119 71.3663C457.085 71.3885 457.052 71.4107 457.03 71.444Z" fill="#008056"/>
<path d="M411.307 89.4665L416.993 94.1884C416.993 94.1884 417.514 94.1773 418.39 94.1551C419.254 94.1329 420.463 94.0996 421.826 94.0663C423.189 94.022 424.697 93.9778 426.182 93.9113C427.656 93.8448 429.108 93.7782 430.328 93.7006C431.602 93.6119 433.221 93.4789 434.95 93.3016C436.679 93.1242 438.53 92.8915 440.281 92.6144C442.032 92.3373 443.684 92.0047 445.025 91.6279C446.366 91.251 447.397 90.8187 447.896 90.331C448.029 90.209 448.118 90.0761 448.184 89.9541C448.24 89.8211 448.262 89.6881 448.24 89.5551C448.217 89.4221 448.151 89.278 448.051 89.1339C447.94 88.9898 447.785 88.8457 447.586 88.6905C447.153 88.3691 446.4 88.0699 445.324 87.815C444.249 87.56 442.831 87.3494 441.079 87.2164C439.328 87.0723 437.222 87.0057 434.75 87.0168C432.278 87.0279 429.452 87.1388 426.226 87.3494C425.14 87.427 423.666 87.5933 422.07 87.8039C420.474 88.0145 418.745 88.2804 417.149 88.5242C415.552 88.7681 414.089 89.0121 413.036 89.1894C411.972 89.3557 411.307 89.4665 411.307 89.4665Z" fill="#008056"/>
<path d="M389.571 91.7826C389.416 91.9046 389.294 92.0375 389.217 92.1706C389.128 92.3036 389.083 92.4366 389.072 92.5696C389.061 92.7026 389.095 92.8467 389.161 92.9797C389.228 93.1127 389.338 93.2568 389.483 93.3898C389.859 93.7334 390.425 94.0216 391.112 94.2433C391.81 94.4761 392.642 94.6423 393.584 94.7642C394.526 94.8861 395.568 94.9638 396.676 94.9971C397.785 95.0303 398.959 95.0192 400.168 94.9749C400.833 94.9527 401.553 94.9195 402.329 94.8863C403.105 94.853 403.925 94.8086 404.812 94.7642C405.688 94.7199 406.63 94.6646 407.616 94.5981C408.603 94.5426 409.645 94.4761 410.731 94.3985L405.355 89.854C405.355 89.854 404.989 89.8651 404.38 89.8873C403.77 89.9095 402.905 89.9427 401.886 89.9759C400.877 90.0203 399.724 90.0646 398.527 90.12C397.33 90.1754 396.111 90.2531 394.947 90.3196C394.282 90.3639 393.672 90.4304 393.107 90.519C392.542 90.6077 392.032 90.7186 391.577 90.8405C391.123 90.9624 390.724 91.1065 390.38 91.2617C390.07 91.4391 389.793 91.6053 389.571 91.7826Z" fill="#008056"/>
<path d="M432.046 78.7146L440.636 82.849C440.636 82.849 441.434 82.8269 442.687 82.7936C443.939 82.7493 445.657 82.6938 447.508 82.6273C449.348 82.5608 451.31 82.4722 453.062 82.3724C454.813 82.2727 456.342 82.1618 457.329 82.0398C459.18 81.8182 460.798 81.5854 462.184 81.3415C463.569 81.1088 464.733 80.865 465.697 80.6212C466.662 80.3773 467.415 80.1445 467.992 79.9007C468.568 79.6679 468.967 79.4241 469.189 79.2024C469.322 79.0694 469.4 78.9473 469.433 78.8254C469.466 78.7035 469.444 78.5816 469.377 78.4597C469.311 78.3378 469.2 78.227 469.056 78.1161C468.901 78.0053 468.712 77.8944 468.48 77.7947C467.039 77.1518 465.055 76.7416 462.804 76.4978C460.554 76.2539 458.027 76.1874 455.511 76.2096C452.995 76.2317 450.468 76.3648 448.229 76.531C445.99 76.6973 444.028 76.8968 442.62 77.0631C441.545 77.1961 440.348 77.3624 439.151 77.5397C437.954 77.7171 436.768 77.9166 435.715 78.0829C434.662 78.2602 433.742 78.4154 433.088 78.5373C432.434 78.6482 432.046 78.7146 432.046 78.7146Z" fill="#008056"/>
<path d="M413.712 82.0184C413.59 82.1293 413.501 82.2402 413.457 82.351C413.413 82.4619 413.424 82.5837 413.479 82.7056C413.535 82.8276 413.645 82.9496 413.801 83.0826C413.956 83.2156 414.178 83.3486 414.444 83.4816C415.009 83.7587 415.774 84.0136 416.683 84.2353C417.591 84.4569 418.622 84.6344 419.731 84.7563C420.828 84.8783 421.992 84.9558 423.145 84.978C424.297 84.989 425.428 84.9447 426.47 84.8117C427.512 84.6787 428.587 84.5346 429.607 84.3905C430.626 84.2464 431.602 84.1023 432.433 83.9693C433.276 83.8362 433.985 83.7255 434.484 83.6368C434.983 83.5592 435.271 83.5038 435.271 83.5038L427.035 79.5024C426.071 79.6133 425.162 79.724 424.308 79.8349C423.455 79.9457 422.657 80.0455 421.903 80.1453C421.161 80.245 420.462 80.3448 419.819 80.4335C419.177 80.5221 418.589 80.6219 418.046 80.6995C417.514 80.7882 417.015 80.8768 416.561 80.9766C416.106 81.0763 415.685 81.1761 415.319 81.287C414.953 81.3978 414.621 81.5086 414.355 81.6305C414.089 81.7635 413.867 81.8854 413.712 82.0184Z" fill="#008056"/>
<path d="M331.79 89.977L330.804 94.7986C330.804 94.7986 331.314 94.8319 332.156 94.8873C332.998 94.9428 334.173 95.0092 335.503 95.0757C336.834 95.1422 338.33 95.2199 339.804 95.2864C341.278 95.3529 342.741 95.3972 344.016 95.4194C345.524 95.4415 347.508 95.4526 349.691 95.4083C351.875 95.3639 354.258 95.2752 356.541 95.109C358.825 94.9427 361.019 94.6988 362.815 94.3663C364.61 94.0227 366.029 93.5793 366.772 93.003C366.861 92.9365 366.927 92.87 366.994 92.8035C367.06 92.737 367.115 92.6594 367.16 92.5928C367.204 92.5263 367.248 92.4488 367.271 92.3712C367.293 92.2936 367.315 92.216 367.326 92.1384C367.359 91.8058 367.049 91.4623 366.351 91.1298C365.663 90.8084 364.588 90.4979 363.103 90.2208C361.618 89.9437 359.7 89.711 357.328 89.5336C354.956 89.3563 352.119 89.2233 348.771 89.1679C347.63 89.1457 346.011 89.19 344.204 89.2565C342.398 89.323 340.425 89.4339 338.585 89.5336C336.745 89.6334 335.049 89.7442 333.808 89.8218C332.566 89.9216 331.79 89.977 331.79 89.977Z" fill="#008056"/>
<path d="M306.828 91.1079C306.739 91.1633 306.662 91.2298 306.584 91.2853C306.506 91.3518 306.451 91.4071 306.396 91.4736C306.34 91.5401 306.296 91.5956 306.252 91.6621C306.218 91.7286 306.185 91.795 306.163 91.8504C306.063 92.2051 306.207 92.5045 306.551 92.7705C306.894 93.0365 307.438 93.2582 308.147 93.4466C308.856 93.635 309.721 93.7903 310.707 93.9122C311.694 94.0341 312.802 94.1228 313.988 94.1782C314.642 94.2115 315.352 94.2447 316.116 94.2668C316.881 94.3001 317.713 94.3222 318.599 94.3555C319.486 94.3776 320.428 94.411 321.437 94.4331C322.446 94.4553 323.51 94.4774 324.629 94.4996L325.682 89.8665C325.682 89.8665 325.327 89.8442 324.729 89.8221C324.13 89.7888 323.277 89.7556 322.268 89.7113C321.271 89.6669 320.118 89.6226 318.932 89.5783C317.735 89.5339 316.504 89.5007 315.318 89.4896C314.387 89.4785 313.478 89.5118 312.614 89.5893C311.749 89.6669 310.94 89.7777 310.197 89.9218C309.455 90.0659 308.79 90.2433 308.213 90.4429C307.659 90.6534 307.183 90.8751 306.828 91.1079Z" fill="#008056"/>
<path d="M366.018 81.5858L368.622 86.1524C368.622 86.1524 369.42 86.1967 370.673 86.2632C371.937 86.3297 373.666 86.4073 375.539 86.4849C377.412 86.5625 379.429 86.6401 381.247 86.6844C383.076 86.7288 384.717 86.751 385.825 86.7177C388.419 86.6401 390.68 86.5182 392.62 86.3741C394.559 86.23 396.189 86.0416 397.541 85.842C398.882 85.6425 399.946 85.4209 400.744 85.177C401.542 84.9442 402.074 84.6893 402.385 84.4343C402.473 84.3678 402.54 84.2903 402.584 84.2238C402.64 84.1573 402.662 84.0796 402.684 84.0131C402.695 83.9466 402.695 83.8691 402.684 83.8026C402.662 83.7361 402.64 83.6584 402.584 83.5919C402.085 82.8714 400.711 82.3172 398.849 81.9182C396.987 81.5192 394.626 81.2421 392.143 81.0758C389.66 80.9095 387.033 80.832 384.628 80.8098C382.234 80.7876 380.061 80.8209 378.476 80.8653C377.279 80.8985 375.894 80.9649 374.508 81.0425C373.111 81.1201 371.704 81.2089 370.451 81.2865C369.199 81.3641 368.09 81.4416 367.292 81.5081C366.505 81.5524 366.018 81.5858 366.018 81.5858Z" fill="#008056"/>
<path d="M343.173 83.6807C343.074 83.7472 342.996 83.8249 342.93 83.9025C342.863 83.98 342.819 84.0576 342.785 84.1352C342.752 84.2128 342.741 84.3014 342.752 84.3901C342.763 84.4788 342.785 84.5674 342.841 84.6672C342.985 84.9665 343.362 85.2658 343.927 85.5429C344.492 85.82 345.235 86.0639 346.1 86.2634C346.975 86.4629 347.973 86.6291 349.037 86.7288C350.101 86.8286 351.243 86.873 352.407 86.8398C353.57 86.8065 354.801 86.7511 355.976 86.6957C357.151 86.6403 358.281 86.5848 359.257 86.5294C360.232 86.474 361.074 86.4186 361.662 86.3853C362.249 86.352 362.593 86.3187 362.593 86.3187L360.188 81.9294C359.112 81.9627 358.093 81.9959 357.128 82.0292C356.164 82.0624 355.255 82.0958 354.413 82.1401C353.559 82.1734 352.772 82.2177 352.041 82.2509C351.309 82.2842 350.622 82.3285 350.001 82.3728C349.192 82.4172 348.416 82.4837 347.707 82.5613C346.997 82.6389 346.332 82.7276 345.745 82.8384C345.157 82.9493 344.637 83.0711 344.204 83.2041C343.761 83.3593 343.417 83.5144 343.173 83.6807Z" fill="#008056"/>
<path d="M255.774 89.4673L253.613 94.2334C253.613 94.2334 254.1 94.2667 254.91 94.3111C255.719 94.3554 256.86 94.4218 258.146 94.4994C259.443 94.5659 260.884 94.6436 262.325 94.699C263.766 94.7544 265.185 94.8098 266.426 94.832C267.889 94.8542 269.829 94.8652 271.979 94.8209C274.13 94.7766 276.479 94.6879 278.763 94.5216C281.046 94.3553 283.252 94.1227 285.103 93.779C286.954 93.4465 288.45 93.0031 289.315 92.4378C289.415 92.3713 289.503 92.3048 289.592 92.2383C289.67 92.1718 289.747 92.1052 289.814 92.0277C289.88 91.9612 289.936 91.8836 289.98 91.806C290.024 91.7284 290.058 91.6508 290.091 91.5732C290.202 91.2406 289.98 90.8972 289.381 90.5868C288.783 90.2654 287.807 89.966 286.411 89.6889C285.014 89.4229 283.196 89.1901 280.913 89.0017C278.63 88.8244 275.87 88.6914 272.589 88.6471C271.492 88.6249 269.884 88.6692 268.1 88.7468C266.315 88.8244 264.353 88.9241 262.536 89.0239C260.707 89.1236 259.022 89.2345 257.791 89.3121C256.55 89.4118 255.774 89.4673 255.774 89.4673Z" fill="#008056"/>
<path d="M230.99 90.5867C230.89 90.6421 230.791 90.7085 230.702 90.764C230.613 90.8305 230.536 90.8859 230.469 90.9524C230.403 91.0189 230.336 91.0744 230.281 91.1409C230.225 91.2074 230.181 91.2738 230.148 91.3293C229.959 91.6729 230.026 91.9833 230.303 92.2382C230.58 92.5043 231.057 92.7259 231.711 92.9144C232.365 93.1028 233.174 93.2469 234.116 93.3688C235.058 93.4908 236.122 93.5683 237.264 93.6238C237.896 93.657 238.583 93.6902 239.337 93.7124C240.079 93.7456 240.888 93.7678 241.753 93.801C242.618 93.8232 243.538 93.8565 244.513 93.8787C245.488 93.9008 246.53 93.9229 247.628 93.9451L249.767 89.3673C249.767 89.3673 249.423 89.3453 248.847 89.3231C248.27 89.3009 247.439 89.2566 246.464 89.2123C245.499 89.1679 244.38 89.1235 243.227 89.0902C242.074 89.0459 240.866 89.0238 239.725 89.0016C238.816 88.9905 237.918 89.0237 237.053 89.0902C236.189 89.1678 235.368 89.2787 234.604 89.4228C233.839 89.5669 233.141 89.7442 232.531 89.9437C231.921 90.1322 231.4 90.3539 230.99 90.5867Z" fill="#008056"/>
<path d="M291.366 81.1538L292.818 85.6539C292.818 85.6539 293.583 85.6982 294.802 85.7537C296.021 85.8091 297.695 85.8978 299.513 85.9754C301.33 86.053 303.281 86.1196 305.066 86.1639C306.839 86.2082 308.446 86.2192 309.544 86.1859C312.104 86.1084 314.343 85.9865 316.294 85.8424C318.234 85.6983 319.874 85.5099 321.249 85.3104C322.612 85.1109 323.709 84.8891 324.541 84.6563C325.383 84.4236 325.97 84.1798 326.336 83.9249C326.436 83.8584 326.525 83.7807 326.591 83.7142C326.658 83.6477 326.713 83.5702 326.746 83.5037C326.78 83.4372 326.802 83.3595 326.802 83.293C326.802 83.2265 326.791 83.149 326.757 83.0825C326.436 82.362 325.228 81.83 323.499 81.4309C321.77 81.0319 319.531 80.7659 317.125 80.5996C314.731 80.4334 312.171 80.3558 309.821 80.3336C307.471 80.3114 305.332 80.3446 303.769 80.4C302.583 80.4333 301.208 80.4998 299.834 80.5774C298.449 80.655 297.052 80.7437 295.799 80.8213C294.547 80.8988 293.438 80.9875 292.651 81.0429C291.842 81.1205 291.366 81.1538 291.366 81.1538Z" fill="#008056"/>
<path d="M268.421 83.2365C268.31 83.303 268.211 83.3805 268.122 83.4471C268.044 83.5246 267.978 83.6022 267.922 83.6798C267.878 83.7574 267.845 83.8462 267.823 83.9348C267.812 84.0235 267.812 84.1122 267.834 84.2008C267.9 84.5001 268.211 84.7993 268.687 85.0653C269.175 85.3313 269.84 85.5752 270.649 85.7858C271.458 85.9853 272.389 86.1516 273.42 86.2514C274.44 86.3511 275.548 86.3954 276.701 86.3511C277.854 86.3178 279.073 86.2624 280.237 86.207C281.401 86.1516 282.52 86.0961 283.496 86.0407C284.471 85.9853 285.302 85.9299 285.89 85.8966C286.477 85.8634 286.821 85.8413 286.821 85.8413L285.524 81.5073C284.46 81.5406 283.451 81.5738 282.498 81.607C281.545 81.6403 280.647 81.6737 279.805 81.718C278.962 81.7512 278.175 81.7956 277.444 81.8288C276.712 81.8621 276.036 81.9064 275.415 81.9507C274.606 81.9951 273.841 82.0616 273.121 82.1392C272.4 82.2168 271.735 82.3055 271.137 82.4163C270.538 82.5271 269.995 82.649 269.541 82.782C269.086 82.915 268.709 83.0703 268.421 83.2365Z" fill="#008056"/>
<path d="M184.825 95.0864L188.826 99.6974C188.826 99.6974 189.336 99.6752 190.189 99.6198C191.043 99.5754 192.218 99.509 193.548 99.4203C194.878 99.3427 196.363 99.243 197.826 99.1321C199.278 99.0213 200.708 98.9104 201.917 98.7885C203.114 98.6665 204.621 98.5003 206.261 98.2786C207.891 98.0569 209.653 97.8021 211.36 97.4917C213.067 97.1813 214.719 96.8377 216.149 96.4497C217.578 96.0618 218.776 95.6405 219.574 95.175C219.84 95.0198 220.05 94.8758 220.228 94.7096C220.394 94.5544 220.516 94.388 220.582 94.2218C220.649 94.0555 220.66 93.8893 220.615 93.7231C220.571 93.5568 220.46 93.3795 220.283 93.2021C219.973 92.8918 219.341 92.6036 218.376 92.3819C217.412 92.1602 216.115 91.9828 214.453 91.8941C212.801 91.8055 210.784 91.7944 208.39 91.8719C205.995 91.9606 203.213 92.1491 200.01 92.4594C198.935 92.5703 197.45 92.7809 195.831 93.0469C194.213 93.313 192.451 93.6234 190.821 93.9226C189.192 94.2219 187.696 94.5101 186.598 94.7207C185.512 94.9534 184.825 95.0864 184.825 95.0864Z" fill="#008056"/>
<path d="M163.344 97.7909C163.055 97.9461 162.812 98.1012 162.623 98.2564C162.424 98.4227 162.28 98.5779 162.18 98.7442C162.08 98.9104 162.036 99.0766 162.036 99.2429C162.036 99.4092 162.102 99.5644 162.213 99.7196C162.479 100.063 162.933 100.329 163.543 100.54C164.153 100.75 164.918 100.894 165.793 100.994C166.669 101.094 167.666 101.138 168.753 101.138C169.828 101.138 170.992 101.094 172.189 101.016C172.854 100.972 173.563 100.928 174.328 100.861C175.093 100.806 175.913 100.739 176.789 100.662C177.664 100.584 178.584 100.507 179.571 100.418C180.557 100.329 181.588 100.229 182.685 100.119L178.895 95.6738C178.895 95.6738 178.54 95.6959 177.941 95.7292C177.343 95.7624 176.478 95.829 175.481 95.8955C174.483 95.962 173.342 96.0506 172.155 96.1504C170.969 96.2501 169.75 96.3499 168.597 96.4608C168.032 96.5162 167.489 96.5939 166.979 96.6825C166.469 96.7712 165.993 96.8709 165.549 96.9928C165.106 97.1036 164.696 97.2367 164.33 97.3697C163.953 97.5027 163.621 97.6468 163.344 97.7909Z" fill="#008056"/>
<path d="M208.445 83.6031L215.462 87.5269C215.462 87.5269 216.237 87.4826 217.468 87.405C218.698 87.3274 220.372 87.2165 222.179 87.0946C223.974 86.9727 225.903 86.8286 227.621 86.6734C229.339 86.5182 230.858 86.3741 231.844 86.2189C233.518 85.964 235.014 85.7091 236.322 85.4542C237.63 85.1992 238.772 84.9553 239.747 84.7115C240.722 84.4676 241.532 84.2238 242.197 83.991C242.862 83.7582 243.372 83.5255 243.759 83.3038C244.037 83.1375 244.247 82.9824 244.391 82.8272C244.535 82.6721 244.602 82.5279 244.613 82.3838C244.624 82.2398 244.569 82.1067 244.458 81.9737C244.347 81.8407 244.181 81.7187 243.959 81.6079C242.784 80.9982 241 80.6437 238.905 80.4663C236.81 80.289 234.404 80.2889 231.966 80.3775C229.527 80.4773 227.056 80.6768 224.839 80.9096C222.622 81.1423 220.66 81.3973 219.252 81.6079C218.177 81.7631 216.969 81.9737 215.761 82.1843C214.553 82.3949 213.333 82.6277 212.258 82.8383C211.172 83.0489 210.23 83.2373 209.554 83.3704C208.855 83.5144 208.445 83.6031 208.445 83.6031Z" fill="#008056"/>
<path d="M189.912 87.2716C189.679 87.3935 189.491 87.5265 189.358 87.6595C189.225 87.7925 189.147 87.9255 189.136 88.0696C189.125 88.2026 189.169 88.3467 189.28 88.4908C189.391 88.6349 189.568 88.7791 189.823 88.9342C190.278 89.2003 190.943 89.444 191.752 89.6324C192.561 89.8208 193.514 89.976 194.545 90.0758C195.576 90.1756 196.673 90.2199 197.782 90.1977C198.89 90.1755 199.998 90.098 201.051 89.9317C202.104 89.7765 203.202 89.5881 204.244 89.4108C205.286 89.2334 206.272 89.0561 207.137 88.901C207.99 88.7458 208.722 88.6017 209.232 88.513C209.741 88.4133 210.041 88.3578 210.041 88.3578L203.335 84.5559C202.359 84.7 201.439 84.8441 200.575 84.9771C199.71 85.1101 198.901 85.2431 198.147 85.365C197.394 85.487 196.684 85.609 196.041 85.7198C195.387 85.8306 194.789 85.9414 194.246 86.0411C193.769 86.1298 193.315 86.2296 192.882 86.3183C192.45 86.418 192.051 86.5178 191.685 86.6175C191.319 86.7173 190.987 86.8282 190.688 86.939C190.388 87.0499 190.122 87.1608 189.912 87.2716Z" fill="#008056"/>
<path d="M128.329 110.016L140.255 113.452C140.255 113.452 140.71 113.352 141.463 113.175C142.206 113.009 143.248 112.765 144.401 112.488C145.553 112.211 146.828 111.9 148.058 111.59C149.289 111.28 150.464 110.958 151.428 110.67C151.993 110.504 152.636 110.293 153.312 110.071C153.988 109.85 154.709 109.595 155.429 109.318C156.15 109.052 156.87 108.752 157.558 108.453C158.245 108.154 158.91 107.832 159.497 107.511C160.229 107.112 160.861 106.713 161.326 106.314C161.792 105.915 162.102 105.516 162.191 105.128C162.279 104.74 162.135 104.374 161.714 104.019C161.293 103.676 160.584 103.354 159.531 103.066C158.699 102.833 157.624 102.689 156.316 102.634C155.008 102.579 153.479 102.623 151.727 102.789C149.976 102.955 148.014 103.244 145.842 103.665C143.669 104.097 141.286 104.673 138.715 105.427C137.839 105.682 136.753 106.092 135.622 106.569C134.48 107.045 133.294 107.589 132.219 108.098C131.133 108.608 130.158 109.085 129.459 109.44C128.772 109.794 128.329 110.016 128.329 110.016Z" fill="#008056"/>
<path d="M112.988 114.34C112.456 114.606 112.09 114.905 111.868 115.193C111.647 115.493 111.591 115.792 111.669 116.08C111.758 116.368 111.99 116.657 112.356 116.912C112.733 117.167 113.254 117.41 113.908 117.61C114.772 117.876 115.704 118.042 116.679 118.131C117.654 118.219 118.685 118.23 119.727 118.186C120.769 118.142 121.844 118.02 122.919 117.843C123.983 117.676 125.059 117.455 126.101 117.2C126.677 117.056 127.298 116.9 127.952 116.734C128.606 116.568 129.304 116.379 130.035 116.18C130.767 115.98 131.543 115.759 132.352 115.526C133.161 115.293 134.015 115.049 134.912 114.783L123.451 111.447C123.451 111.447 123.141 111.525 122.598 111.647C122.066 111.769 121.312 111.957 120.448 112.168C119.572 112.389 118.585 112.633 117.577 112.899C116.557 113.165 115.526 113.453 114.573 113.73C114.418 113.775 114.263 113.83 114.119 113.875C113.974 113.919 113.83 113.974 113.697 114.03C113.564 114.085 113.442 114.129 113.32 114.185C113.21 114.229 113.099 114.285 112.988 114.34Z" fill="#008056"/>
<path d="M133.072 95.7075C132.861 95.8183 132.673 95.907 132.496 95.9957C132.329 96.0843 132.174 96.1619 132.052 96.2173C131.93 96.2838 131.83 96.3281 131.775 96.3614C131.72 96.3946 131.675 96.4169 131.675 96.4169L145.231 98.8331C145.231 98.8331 145.907 98.678 146.96 98.4341C148.013 98.1903 149.454 97.8578 150.962 97.4809C152.48 97.1151 154.076 96.7161 155.462 96.3281C156.847 95.9513 158.033 95.5965 158.721 95.3305C159.075 95.1864 159.419 95.0534 159.74 94.9204C160.062 94.7874 160.372 94.6544 160.66 94.5214C160.949 94.3884 161.226 94.2665 161.481 94.1446C161.736 94.0226 161.979 93.9008 162.212 93.7788C163.287 93.2135 164.041 92.7148 164.507 92.2603C164.972 91.8059 165.161 91.4067 165.116 91.0631C165.072 90.7195 164.795 90.4313 164.34 90.1985C163.886 89.9658 163.243 89.7773 162.456 89.6443C160.317 89.2785 158.022 89.212 155.728 89.3561C153.433 89.4891 151.117 89.8217 148.956 90.254C146.783 90.6863 144.744 91.2072 142.992 91.7171C141.241 92.2269 139.778 92.7368 138.769 93.1137C138.281 93.3021 137.772 93.5017 137.262 93.7234C136.752 93.945 136.231 94.1778 135.732 94.3995C135.233 94.6322 134.746 94.865 134.291 95.0756C133.859 95.3194 133.438 95.5301 133.072 95.7075Z" fill="#008056"/>
<path d="M121.612 100.783C121.013 101.083 120.548 101.371 120.226 101.659C119.905 101.947 119.749 102.224 119.783 102.49C119.816 102.756 120.038 103 120.492 103.233C120.947 103.455 121.634 103.665 122.587 103.843C123.496 104.009 124.56 104.12 125.702 104.175C126.832 104.22 128.029 104.22 129.215 104.142C130.39 104.075 131.554 103.942 132.607 103.765C133.66 103.577 134.613 103.344 135.367 103.045C136.121 102.745 136.875 102.435 137.584 102.125C138.293 101.814 138.947 101.515 139.513 101.249C140.078 100.983 140.543 100.761 140.876 100.595C141.208 100.44 141.397 100.34 141.397 100.34L128.329 97.9902C127.619 98.2563 126.954 98.5224 126.333 98.7662C125.713 99.0101 125.136 99.2428 124.604 99.4645C124.072 99.6862 123.585 99.8967 123.141 100.085C122.698 100.285 122.288 100.462 121.922 100.639C121.9 100.65 121.867 100.662 121.844 100.673C121.822 100.684 121.789 100.695 121.767 100.706C121.745 100.717 121.711 100.728 121.689 100.739C121.667 100.761 121.645 100.772 121.612 100.783Z" fill="#008056"/>
<path d="M98.2242 125.679C98.069 125.756 97.9249 125.834 97.7697 125.912C97.6145 125.989 97.4704 126.078 97.3153 126.155C97.1601 126.233 97.016 126.322 96.8608 126.41C96.7056 126.499 96.5615 126.588 96.4063 126.676C95.7967 127.031 95.176 127.563 94.5775 128.173C93.9789 128.782 93.4025 129.458 92.9037 130.09C92.405 130.722 91.9727 131.32 91.6734 131.753C91.3741 132.185 91.1968 132.462 91.1968 132.462L108.211 134.391C108.211 134.391 108.466 134.28 108.887 134.092C109.308 133.903 109.896 133.637 110.572 133.316C111.248 132.994 112.013 132.64 112.789 132.252C113.554 131.875 114.329 131.476 115.039 131.099C115.172 131.032 115.305 130.955 115.427 130.888C115.549 130.822 115.682 130.744 115.793 130.678C115.914 130.611 116.025 130.545 116.136 130.478C116.247 130.412 116.358 130.345 116.458 130.279C117.311 129.747 118.342 129.026 119.24 128.217C120.138 127.408 120.891 126.532 121.202 125.679C121.512 124.825 121.379 124.016 120.514 123.34C119.65 122.664 118.043 122.132 115.405 121.855C114.341 121.744 113.143 121.711 111.847 121.788C110.55 121.866 109.142 122.043 107.668 122.331C106.194 122.631 104.642 123.041 103.068 123.584C101.472 124.149 99.8425 124.836 98.2242 125.679Z" fill="#008056"/>
<path d="M83.4938 136.597C83.2943 136.696 83.1059 136.807 82.9064 136.907C82.7069 137.007 82.5184 137.118 82.3189 137.228C82.1305 137.339 81.931 137.439 81.7536 137.55C81.5652 137.661 81.3878 137.76 81.2105 137.871C80.5454 138.27 80.1908 138.669 80.1021 139.08C80.0134 139.479 80.2018 139.878 80.6119 140.232C81.0221 140.598 81.6649 140.919 82.4852 141.197C83.3165 141.474 84.3252 141.684 85.4779 141.817C86.7415 141.961 87.9497 142.017 89.1246 141.984C90.2884 141.95 91.3968 141.828 92.4609 141.651C93.5139 141.463 94.5115 141.219 95.4426 140.908C96.3736 140.609 97.2382 140.254 98.0252 139.867C98.1803 139.789 98.3355 139.711 98.4907 139.634C98.6459 139.556 98.8121 139.467 98.9673 139.39C99.1336 139.301 99.2999 139.224 99.4661 139.135C99.6324 139.046 99.8097 138.958 99.976 138.858C100.297 138.68 100.63 138.503 100.974 138.315C101.317 138.126 101.661 137.927 102.027 137.716C102.381 137.506 102.747 137.295 103.124 137.073C103.501 136.852 103.878 136.619 104.266 136.375L87.8277 134.491C87.8277 134.491 87.6947 134.546 87.4619 134.657C87.2292 134.768 86.8967 134.923 86.4865 135.111C86.0875 135.3 85.6109 135.533 85.101 135.787C84.5911 136.031 84.037 136.309 83.4938 136.597Z" fill="#008056"/>
<path d="M85.4221 111.623C84.8789 111.889 84.3802 112.155 83.9146 112.41C83.4491 112.676 83.0279 112.931 82.6399 113.175C82.252 113.419 81.9084 113.663 81.6091 113.885C81.3098 114.106 81.0438 114.306 80.8221 114.494C80.3677 114.871 79.9354 115.314 79.5253 115.769C79.1152 116.223 78.7494 116.689 78.4391 117.099C78.1287 117.52 77.8627 117.886 77.6853 118.152C77.508 118.418 77.4082 118.584 77.4082 118.584L94.9766 119.371C94.9766 119.371 95.2094 119.272 95.5973 119.094C95.9853 118.917 96.5284 118.673 97.1713 118.385C97.8031 118.097 98.5347 117.753 99.2884 117.398C100.031 117.044 100.807 116.667 101.527 116.301C101.904 116.112 102.259 115.924 102.603 115.747C102.946 115.569 103.257 115.392 103.545 115.226C103.833 115.06 104.088 114.904 104.309 114.76C104.531 114.616 104.709 114.483 104.842 114.361C105.972 113.341 106.626 112.466 106.903 111.734C107.18 111.003 107.081 110.393 106.681 109.905C106.294 109.418 105.617 109.063 104.731 108.797C103.855 108.542 102.78 108.398 101.583 108.342C99.8537 108.265 98.2132 108.32 96.6725 108.475C95.1318 108.62 93.6798 108.874 92.3275 109.185C90.9752 109.495 89.7227 109.872 88.57 110.293C87.4061 110.714 86.3531 111.169 85.4221 111.623Z" fill="#008056"/>
<path d="M75.8001 120.547C75.39 120.901 75.002 121.234 74.6584 121.555C74.3037 121.877 73.9933 122.176 73.7052 122.453C73.417 122.741 73.162 122.996 72.9293 123.251C72.6965 123.495 72.497 123.728 72.3307 123.938C72.0093 124.326 71.8319 124.703 71.8209 125.047C71.8098 125.39 71.9649 125.712 72.3196 125.989C72.6743 126.266 73.2396 126.499 74.0377 126.687C74.8358 126.865 75.8666 126.998 77.1634 127.064C78.2164 127.108 79.3248 127.108 80.4443 127.042C81.5638 126.975 82.6833 126.865 83.7474 126.698C84.8115 126.543 85.8202 126.333 86.7069 126.089C87.5936 125.845 88.3695 125.568 88.9681 125.268C89.0567 125.224 89.1343 125.18 89.2119 125.135C89.2895 125.091 89.3671 125.047 89.4336 125.002C89.5001 124.958 89.5666 124.914 89.6331 124.869C89.6996 124.825 89.755 124.781 89.8104 124.725C90.2427 124.337 90.6529 123.938 91.0187 123.539C91.3844 123.151 91.6948 122.775 91.9608 122.442C92.2268 122.11 92.4263 121.833 92.5704 121.633C92.7145 121.433 92.7921 121.323 92.7921 121.323L75.8001 120.547Z" fill="#008056"/>
<path d="M75.6677 147.659C75.1134 147.947 74.5925 148.28 74.1048 148.635C73.6171 148.989 73.1626 149.388 72.7414 149.821C72.3313 150.253 71.9544 150.718 71.633 151.228C71.3116 151.738 71.0345 152.281 70.8128 152.869C70.6576 153.301 70.7241 153.911 70.9236 154.587C71.1121 155.263 71.4335 156.017 71.766 156.704C72.0985 157.402 72.4533 158.045 72.7304 158.51C73.0075 158.987 73.1959 159.275 73.1959 159.275L94.0341 158.677C94.0341 158.677 94.2004 158.477 94.4553 158.134C94.7102 157.801 95.0539 157.336 95.4086 156.804C95.7633 156.283 96.1401 155.695 96.4615 155.119C96.783 154.554 97.0379 153.988 97.182 153.512C97.3705 152.88 97.4813 152.037 97.3261 151.129C97.182 150.231 96.7719 149.266 95.9517 148.402C95.1314 147.537 93.89 146.772 92.0501 146.24C90.2212 145.708 87.7937 145.42 84.5904 145.509C83.8256 145.531 83.0497 145.586 82.2738 145.686C81.4979 145.786 80.7331 145.919 79.9683 146.085C79.2146 146.263 78.472 146.473 77.7515 146.739C77.0199 147.016 76.3216 147.316 75.6677 147.659Z" fill="#008056"/>
<path d="M72.32 161.724C72.32 161.724 72.2091 161.868 72.0318 162.123C71.8545 162.367 71.6106 162.721 71.3446 163.132C71.0786 163.542 70.7904 164.018 70.5243 164.517C70.2583 165.016 70.0145 165.526 69.8482 166.013C69.6709 166.501 69.8593 166.956 70.3137 167.355C70.7793 167.765 71.5219 168.119 72.4641 168.408C73.4062 168.696 74.5479 168.929 75.8226 169.073C77.0862 169.217 78.4717 169.272 79.9015 169.239C80.9213 169.206 81.8524 169.139 82.7169 169.039C83.5815 168.94 84.3574 168.807 85.0778 168.651C85.7872 168.485 86.4301 168.297 87.0065 168.086C87.5829 167.876 88.0927 167.632 88.5361 167.377C88.78 167.233 89.0017 167.089 89.2123 166.944C89.4229 166.789 89.6113 166.634 89.7886 166.479C89.966 166.324 90.1211 166.158 90.2652 165.991C90.4093 165.825 90.5312 165.659 90.6421 165.481C90.8083 165.204 90.9746 164.916 91.1409 164.595C91.3071 164.284 91.4623 163.941 91.6286 163.586C91.7838 163.231 91.939 162.843 92.083 162.444C92.2271 162.045 92.3712 161.624 92.5043 161.17L72.32 161.724Z" fill="#008056"/>
<path d="M42.0163 136.441C40.9411 136.973 40.0876 137.55 39.4115 138.159C38.7353 138.769 38.2366 139.39 37.8708 139.999C37.505 140.609 37.2833 141.196 37.1614 141.739C37.0395 142.272 37.0062 142.759 37.0395 143.136C37.0727 143.568 37.2168 144.067 37.4053 144.566C37.5937 145.065 37.8375 145.575 38.0703 146.029C38.3031 146.483 38.5359 146.883 38.7132 147.171C38.8906 147.459 39.0014 147.636 39.0014 147.636L59.2189 145.951C59.2189 145.951 59.4738 145.652 59.8507 145.187C60.2276 144.721 60.7153 144.078 61.203 143.391C61.6907 142.704 62.1562 141.972 62.4887 141.318C62.8213 140.664 63.0208 140.088 62.9543 139.689C62.7769 138.536 62.3003 137.594 61.5798 136.84C60.8704 136.087 59.9283 135.51 58.8531 135.089C57.7669 134.668 56.5365 134.402 55.2397 134.269C53.9428 134.136 52.5684 134.136 51.2051 134.247C50.1742 134.335 49.221 134.446 48.3343 134.59C47.4475 134.734 46.6273 134.901 45.8625 135.089C45.1088 135.277 44.4105 135.488 43.7676 135.721C43.1247 135.943 42.5483 136.186 42.0163 136.441Z" fill="#008056"/>
<path d="M39.9209 149.798C39.9542 150.208 39.9985 150.585 40.0539 150.951C40.1093 151.316 40.1758 151.66 40.2534 151.97C40.331 152.292 40.4197 152.591 40.5084 152.868C40.597 153.145 40.6968 153.4 40.8076 153.644C41.0071 154.076 41.3286 154.464 41.7941 154.808C42.2597 155.151 42.8693 155.44 43.6563 155.661C44.4321 155.883 45.3743 156.027 46.5049 156.094C47.6355 156.16 48.9434 156.127 50.4619 156.005C51.3376 155.927 52.2132 155.828 53.0445 155.684C53.8869 155.551 54.6961 155.373 55.4609 155.185C56.2257 154.996 56.9351 154.786 57.578 154.553C58.2208 154.32 58.7972 154.076 59.2849 153.821C59.5731 153.666 59.8281 153.511 60.0497 153.356C60.2714 153.201 60.4599 153.034 60.604 152.879C60.7481 152.713 60.8589 152.558 60.9254 152.392C60.9919 152.225 61.014 152.07 60.9919 151.904C60.9254 151.472 60.8034 151.017 60.6483 150.585C60.4931 150.153 60.3268 149.742 60.1495 149.377C59.9832 149.022 59.817 148.712 59.7061 148.501C59.5842 148.29 59.5177 148.168 59.5177 148.168L39.9209 149.798Z" fill="#008056"/>
<path d="M81.9858 173.984C81.3097 174.372 80.7555 174.826 80.3675 175.347C79.9796 175.868 79.7579 176.444 79.7357 177.087C79.7136 177.73 79.8909 178.44 80.3121 179.227C80.7333 180.003 81.3984 180.856 82.3405 181.776C82.795 182.219 83.7593 182.796 84.9453 183.417C86.1313 184.037 87.5501 184.702 88.9245 185.312C90.2989 185.921 91.6069 186.476 92.5823 186.886C93.5577 187.296 94.1895 187.54 94.1895 187.54L115.349 183.594C115.349 183.594 115.227 183.372 115.006 183.017C114.795 182.663 114.485 182.164 114.097 181.599C113.72 181.044 113.276 180.424 112.8 179.836C112.323 179.238 111.791 178.672 111.259 178.185C110.55 177.553 109.441 176.733 107.989 175.89C106.537 175.059 104.731 174.206 102.613 173.507C100.507 172.809 98.08 172.277 95.3644 172.055C92.6599 171.834 89.6561 171.944 86.3862 172.532C85.9539 172.609 85.5327 172.698 85.1337 172.798C84.7347 172.898 84.3357 173.008 83.9699 173.13C83.6041 173.252 83.2494 173.385 82.9169 173.529C82.5844 173.662 82.274 173.818 81.9858 173.984Z" fill="#008056"/>
<path d="M96.8057 190.034C96.8057 190.034 96.8944 190.189 97.0717 190.455C97.238 190.721 97.4929 191.098 97.8033 191.541C98.1136 191.985 98.4905 192.483 98.9227 192.993C99.355 193.514 99.8317 194.035 100.353 194.534C100.874 195.022 101.716 195.432 102.791 195.742C103.866 196.053 105.163 196.274 106.582 196.396C108.001 196.518 109.541 196.54 111.082 196.463C112.623 196.385 114.186 196.219 115.638 195.942C116.236 195.831 116.779 195.709 117.289 195.576C117.799 195.443 118.254 195.31 118.675 195.166C119.096 195.022 119.473 194.878 119.805 194.722C120.138 194.567 120.437 194.412 120.692 194.246C121.113 193.98 121.435 193.692 121.667 193.392C121.9 193.104 122.033 192.794 122.089 192.483C122.144 192.173 122.111 191.863 122.011 191.541C121.911 191.22 121.734 190.898 121.501 190.577C121.291 190.289 121.047 189.989 120.77 189.657C120.493 189.336 120.182 188.981 119.827 188.615C119.473 188.249 119.096 187.861 118.675 187.451C118.254 187.041 117.788 186.62 117.3 186.177L96.8057 190.034Z" fill="#008056"/>
<path d="M29.0921 168.497C27.629 169.273 26.831 170.116 26.5095 170.991C26.1881 171.867 26.3322 172.765 26.7645 173.618C27.1968 174.483 27.9062 175.303 28.7042 176.023C29.5023 176.755 30.3779 177.376 31.1316 177.841C31.8188 178.262 32.7056 178.728 33.6588 179.193C34.6121 179.659 35.6318 180.114 36.5629 180.513C37.494 180.923 38.3474 181.266 38.9681 181.521C39.5889 181.776 39.9657 181.92 39.9657 181.92L59.7177 176.966C59.7177 176.966 59.5514 176.633 59.2743 176.123C58.9862 175.613 58.5871 174.915 58.0994 174.172C57.6228 173.43 57.0575 172.654 56.459 171.967C55.8604 171.279 55.2286 170.692 54.5857 170.326C52.7125 169.24 50.8061 168.397 48.8996 167.777C47.0042 167.156 45.131 166.746 43.3132 166.502C41.5064 166.269 39.7551 166.203 38.1258 166.28C36.4964 166.358 34.9889 166.58 33.6478 166.901C33.1601 167.023 32.6945 167.145 32.2622 167.267C31.83 167.389 31.4198 167.522 31.043 167.655C30.6661 167.788 30.3114 167.921 29.99 168.065C29.6796 168.209 29.3692 168.353 29.0921 168.497Z" fill="#008056"/>
<path d="M44.2109 183.87C44.8427 184.258 45.4635 184.624 46.0509 184.968C46.6495 185.311 47.2258 185.633 47.78 185.932C48.3342 186.231 48.8774 186.508 49.3983 186.763C49.9193 187.018 50.407 187.251 50.8836 187.473C51.726 187.85 52.6571 188.182 53.6657 188.437C54.6855 188.692 55.7828 188.869 56.9577 188.958C58.1326 189.047 59.3851 189.036 60.7152 188.903C62.0343 188.781 63.4309 188.537 64.8829 188.16C65.3263 188.049 65.7475 187.927 66.1465 187.794C66.5455 187.661 66.9335 187.528 67.2992 187.384C67.665 187.24 68.0087 187.096 68.3301 186.941C68.6515 186.786 68.9508 186.63 69.2279 186.464C69.8043 186.132 70.2698 185.777 70.6356 185.433C70.9903 185.079 71.2341 184.724 71.345 184.38C71.4558 184.037 71.4336 183.693 71.2785 183.372C71.1122 183.05 70.8019 182.74 70.3363 182.463C69.6159 182.053 68.8178 181.631 68.0197 181.232C67.2217 180.833 66.4347 180.468 65.7253 180.146C65.027 179.825 64.4063 179.559 63.974 179.37C63.5417 179.182 63.2757 179.071 63.2757 179.071L44.2109 183.87Z" fill="#008056"/>
<path d="M128.905 199.343C128.173 199.831 127.674 200.385 127.486 201.006C127.297 201.638 127.408 202.325 127.907 203.09C128.406 203.855 129.27 204.686 130.589 205.573C131.908 206.459 133.693 207.413 135.987 208.421C136.918 208.831 138.537 209.33 140.421 209.84C142.316 210.35 144.5 210.882 146.573 211.37C148.645 211.846 150.607 212.279 152.059 212.589C153.511 212.899 154.431 213.088 154.431 213.088L173.064 206.603C173.064 206.603 172.72 206.393 172.133 206.038C171.545 205.694 170.725 205.207 169.783 204.675C168.83 204.143 167.755 203.555 166.657 202.99C165.56 202.425 164.429 201.893 163.387 201.46C162.013 200.884 160.029 200.152 157.635 199.443C155.263 198.734 152.492 198.047 149.532 197.559C146.584 197.071 143.447 196.772 140.321 196.838C137.196 196.905 134.07 197.337 131.132 198.312C130.911 198.39 130.7 198.457 130.501 198.545C130.301 198.623 130.102 198.712 129.913 198.789C129.725 198.878 129.547 198.966 129.381 199.055C129.215 199.155 129.049 199.244 128.905 199.343Z" fill="#008056"/>
<path d="M159.696 215.394C159.696 215.394 159.951 215.549 160.406 215.804C160.86 216.059 161.503 216.424 162.279 216.846C163.055 217.267 163.964 217.743 164.939 218.231C165.914 218.719 166.967 219.218 168.02 219.672C169.051 220.127 170.348 220.437 171.8 220.636C173.252 220.836 174.848 220.914 176.467 220.869C178.096 220.836 179.748 220.681 181.31 220.426C182.873 220.171 184.336 219.816 185.6 219.362C185.91 219.251 186.199 219.14 186.465 219.029C186.731 218.918 186.986 218.796 187.207 218.686C187.44 218.575 187.651 218.453 187.839 218.342C188.027 218.231 188.205 218.109 188.36 217.987C188.892 217.588 189.225 217.178 189.369 216.768C189.513 216.358 189.479 215.948 189.28 215.538C189.092 215.128 188.737 214.729 188.271 214.329C187.795 213.93 187.196 213.543 186.487 213.166C185.977 212.889 185.412 212.6 184.802 212.301C184.181 211.991 183.505 211.669 182.774 211.337C182.042 210.993 181.255 210.639 180.402 210.273C179.548 209.896 178.639 209.508 177.675 209.109L159.696 215.394Z" fill="#008056"/>
<path d="M65.8696 199.189C64.074 200.264 63.4311 201.362 63.5752 202.448C63.7193 203.534 64.6503 204.598 65.9915 205.585C67.3438 206.571 69.1062 207.48 70.9018 208.256C72.6974 209.032 74.5263 209.675 75.9894 210.129C77.1754 210.495 78.6275 210.883 80.146 211.26C81.6645 211.637 83.2496 212.002 84.6905 212.324C86.1314 212.645 87.4283 212.922 88.3594 213.122C89.2904 213.321 89.8668 213.432 89.8668 213.432L106.593 205.973C106.593 205.973 106.083 205.651 105.263 205.141C104.442 204.631 103.301 203.944 102.026 203.224C100.763 202.503 99.3549 201.738 98.0137 201.084C96.6725 200.43 95.3757 199.876 94.3005 199.555C91.1526 198.624 88.2153 197.959 85.4997 197.515C82.7951 197.072 80.3012 196.839 78.0622 196.795C75.8232 196.739 73.8169 196.873 72.0878 197.139C70.3587 197.405 68.8956 197.804 67.7206 198.291C67.5433 198.369 67.366 198.446 67.1997 198.524C67.0334 198.602 66.8783 198.679 66.7231 198.757C66.5679 198.834 66.4238 198.912 66.2797 198.99C66.1356 199.034 66.0026 199.112 65.8696 199.189Z" fill="#008056"/>
<path d="M96.5503 214.972C97.6365 215.316 98.6785 215.626 99.676 215.925C100.674 216.225 101.627 216.491 102.547 216.746C103.456 217.001 104.32 217.222 105.152 217.433C105.972 217.644 106.748 217.832 107.49 217.998C108.798 218.309 110.151 218.541 111.514 218.697C112.877 218.841 114.263 218.907 115.637 218.852C117.012 218.807 118.364 218.641 119.683 218.353C121.002 218.065 122.266 217.644 123.474 217.089C123.618 217.023 123.751 216.956 123.884 216.89C124.017 216.823 124.15 216.757 124.272 216.679C124.394 216.613 124.516 216.535 124.638 216.469C124.759 216.391 124.87 216.325 124.981 216.247C125.724 215.748 126.256 215.216 126.588 214.673C126.921 214.141 127.043 213.598 126.943 213.077C126.843 212.556 126.533 212.068 125.99 211.625C125.447 211.193 124.671 210.805 123.651 210.494C122.465 210.14 121.19 209.796 119.927 209.475C118.674 209.153 117.444 208.854 116.358 208.599C115.271 208.344 114.34 208.133 113.675 207.978C113.01 207.834 112.622 207.745 112.622 207.745L96.5503 214.972Z" fill="#008056"/>
<path d="M204.056 222.865C203.335 223.43 202.936 224.073 202.925 224.782C202.914 225.503 203.313 226.29 204.178 227.143C205.053 227.997 206.417 228.917 208.345 229.892C210.285 230.868 212.801 231.899 215.982 232.963C217.201 233.373 219.185 233.849 221.48 234.326C223.785 234.803 226.401 235.29 228.873 235.723C231.356 236.155 233.684 236.543 235.391 236.82C237.109 237.097 238.195 237.263 238.195 237.263L254.688 229.238C254.688 229.238 254.2 229.017 253.402 228.662C252.593 228.307 251.463 227.82 250.166 227.276C248.869 226.733 247.406 226.135 245.932 225.569C244.457 225.004 242.983 224.461 241.631 224.029C239.857 223.463 237.352 222.743 234.426 222.078C231.511 221.413 228.197 220.781 224.772 220.371C221.358 219.961 217.844 219.784 214.53 219.994C211.216 220.216 208.079 220.837 205.43 222.045C205.297 222.111 205.164 222.167 205.031 222.233C204.909 222.3 204.787 222.366 204.665 222.433C204.554 222.499 204.432 222.566 204.333 222.643C204.255 222.71 204.155 222.787 204.056 222.865Z" fill="#008056"/>
<path d="M245.066 239.524C245.066 239.524 245.421 239.679 246.042 239.945C246.663 240.211 247.538 240.577 248.591 241.01C249.644 241.442 250.863 241.918 252.16 242.417C253.457 242.905 254.843 243.415 256.206 243.869C257.558 244.313 259.11 244.612 260.762 244.756C262.413 244.9 264.153 244.911 265.871 244.789C267.578 244.667 269.263 244.423 270.793 244.069C272.322 243.714 273.697 243.249 274.794 242.694C274.983 242.595 275.16 242.495 275.337 242.395C275.504 242.295 275.659 242.195 275.814 242.096C275.958 241.996 276.091 241.896 276.224 241.796C276.357 241.697 276.468 241.597 276.568 241.508C277.111 240.998 277.388 240.489 277.421 239.99C277.454 239.491 277.255 239.003 276.867 238.527C276.468 238.05 275.88 237.585 275.127 237.13C274.373 236.676 273.464 236.243 272.433 235.822C271.746 235.545 271.003 235.257 270.183 234.947C269.363 234.636 268.476 234.315 267.523 233.971C266.57 233.627 265.539 233.273 264.442 232.907C263.344 232.541 262.169 232.153 260.928 231.743L245.066 239.524Z" fill="#008056"/>
<path d="M136.132 225.381C134.236 226.711 133.793 228.03 134.325 229.293C134.857 230.557 136.353 231.765 138.349 232.852C140.344 233.949 142.827 234.935 145.276 235.756C147.737 236.587 150.175 237.241 152.06 237.684C153.534 238.039 155.318 238.405 157.17 238.748C159.021 239.092 160.938 239.424 162.667 239.713C164.396 240.001 165.948 240.245 167.068 240.411C168.187 240.577 168.863 240.677 168.863 240.677L183.062 231.61C183.062 231.61 182.342 231.267 181.189 230.746C180.036 230.225 178.44 229.515 176.689 228.761C174.937 228.019 173.031 227.243 171.235 226.578C169.44 225.913 167.755 225.359 166.436 225.059C162.534 224.173 158.998 223.574 155.817 223.197C152.647 222.831 149.821 222.698 147.36 222.743C144.899 222.787 142.793 223.031 141.042 223.397C139.291 223.774 137.905 224.283 136.897 224.882C136.83 224.926 136.764 224.96 136.697 225.004C136.631 225.048 136.564 225.082 136.509 225.126C136.442 225.17 136.387 225.204 136.32 225.248C136.243 225.303 136.187 225.337 136.132 225.381Z" fill="#008056"/>
<path d="M176.899 242.107C178.252 242.428 179.549 242.728 180.779 243.005C182.02 243.282 183.195 243.537 184.315 243.77C185.434 244.002 186.498 244.213 187.496 244.412C188.493 244.601 189.436 244.778 190.311 244.922C191.885 245.199 193.459 245.399 195.011 245.499C196.563 245.598 198.081 245.598 199.533 245.477C200.985 245.355 202.36 245.111 203.634 244.734C204.898 244.357 206.062 243.836 207.071 243.149C207.115 243.116 207.17 243.082 207.215 243.049C207.259 243.016 207.303 242.983 207.348 242.949C207.392 242.916 207.436 242.883 207.481 242.85C207.525 242.816 207.569 242.783 207.614 242.75C208.367 242.129 208.844 241.464 209.055 240.799C209.265 240.134 209.21 239.458 208.888 238.826C208.567 238.194 207.979 237.596 207.137 237.086C206.295 236.576 205.186 236.144 203.812 235.833C202.349 235.501 200.786 235.168 199.256 234.869C197.727 234.57 196.241 234.293 194.944 234.06C193.648 233.827 192.517 233.639 191.73 233.506C190.932 233.373 190.466 233.306 190.466 233.306L176.899 242.107Z" fill="#008056"/>
<path d="M295.488 248.657C294.846 249.289 294.557 250.009 294.69 250.818C294.823 251.627 295.389 252.525 296.464 253.489C297.55 254.465 299.146 255.518 301.352 256.626C303.569 257.746 306.395 258.932 309.92 260.173C311.295 260.661 313.5 261.226 316.05 261.803C318.61 262.379 321.503 262.978 324.23 263.51C326.968 264.042 329.539 264.518 331.423 264.862C333.308 265.205 334.516 265.405 334.516 265.405L351.087 256.571C351.087 256.571 350.532 256.316 349.613 255.895C348.693 255.473 347.396 254.908 345.921 254.265C344.447 253.622 342.785 252.924 341.1 252.259C339.426 251.594 337.752 250.951 336.234 250.441C334.239 249.776 331.434 248.923 328.187 248.114C324.95 247.316 321.292 246.551 317.557 246.03C313.833 245.52 310.031 245.254 306.495 245.453C302.959 245.653 299.689 246.307 297.007 247.637C296.852 247.715 296.708 247.792 296.564 247.87C296.42 247.947 296.287 248.036 296.165 248.125C296.043 248.213 295.921 248.302 295.81 248.391C295.688 248.479 295.588 248.568 295.488 248.657Z" fill="#008056"/>
<path d="M342.264 268.132C342.264 268.132 342.674 268.321 343.373 268.62C344.082 268.93 345.08 269.363 346.277 269.861C347.474 270.36 348.87 270.937 350.356 271.513C351.841 272.089 353.415 272.688 354.956 273.22C356.485 273.752 358.214 274.118 360.032 274.317C361.85 274.517 363.734 274.55 365.574 274.45C367.414 274.339 369.188 274.084 370.784 273.708C372.38 273.32 373.776 272.81 374.874 272.189C375.084 272.067 375.295 271.945 375.472 271.823C375.661 271.701 375.827 271.579 375.982 271.457C376.137 271.335 376.281 271.214 376.403 271.092C376.536 270.97 376.647 270.848 376.747 270.726C377.201 270.172 377.368 269.606 377.301 269.052C377.235 268.498 376.924 267.944 376.414 267.412C375.905 266.869 375.195 266.348 374.32 265.827C373.455 265.317 372.413 264.807 371.26 264.33C370.473 264.009 369.62 263.665 368.678 263.299C367.747 262.934 366.727 262.557 365.641 262.147C364.554 261.748 363.379 261.326 362.138 260.883C360.897 260.44 359.567 259.985 358.159 259.498L342.264 268.132Z" fill="#008056"/>
<path d="M222.866 250.509C221.159 251.972 220.948 253.435 221.735 254.854C222.522 256.272 224.307 257.647 226.579 258.899C228.862 260.163 231.622 261.305 234.338 262.258C237.065 263.222 239.736 264.009 241.809 264.541C243.438 264.962 245.411 265.406 247.439 265.827C249.479 266.248 251.574 266.658 253.48 267.013C255.387 267.368 257.083 267.667 258.313 267.889C259.543 268.099 260.286 268.232 260.286 268.232L274.263 258.146C274.263 258.146 273.443 257.747 272.124 257.137C270.805 256.527 268.998 255.696 267.003 254.832C265.019 253.967 262.869 253.058 260.84 252.271C258.823 251.495 256.939 250.841 255.487 250.487C251.186 249.423 247.306 248.68 243.859 248.214C240.412 247.749 237.375 247.549 234.748 247.571C232.121 247.583 229.893 247.815 228.086 248.203C226.269 248.591 224.85 249.145 223.852 249.81C223.764 249.866 223.675 249.932 223.586 249.988C223.498 250.043 223.42 250.11 223.342 250.165C223.265 250.221 223.187 250.287 223.11 250.343C223.01 250.387 222.943 250.442 222.866 250.509Z" fill="#008056"/>
<path d="M269.086 269.95C270.594 270.338 272.035 270.703 273.409 271.036C274.784 271.369 276.092 271.69 277.333 271.967C278.574 272.255 279.749 272.521 280.847 272.754C281.955 272.987 282.986 273.208 283.95 273.386C285.691 273.718 287.42 273.973 289.104 274.106C290.789 274.239 292.43 274.262 293.981 274.151C295.533 274.04 296.985 273.785 298.304 273.375C299.623 272.965 300.798 272.388 301.785 271.623C301.851 271.568 301.918 271.524 301.973 271.468C302.04 271.413 302.095 271.369 302.151 271.313C302.206 271.258 302.261 271.213 302.317 271.158C302.372 271.102 302.428 271.047 302.472 271.003C303.126 270.315 303.492 269.584 303.58 268.841C303.669 268.099 303.481 267.356 303.026 266.647C302.572 265.937 301.851 265.272 300.865 264.696C299.889 264.119 298.659 263.621 297.174 263.255C295.555 262.856 293.826 262.457 292.13 262.091C290.446 261.725 288.805 261.393 287.364 261.105C285.923 260.816 284.693 260.584 283.817 260.428C282.942 260.262 282.421 260.174 282.421 260.174L269.086 269.95Z" fill="#008056"/>
<path d="M393.151 285.502C392.63 286.19 392.419 286.999 392.586 287.919C392.752 288.839 393.306 289.869 394.304 291.011C395.312 292.164 396.764 293.416 398.759 294.791C400.755 296.165 403.293 297.662 406.441 299.258C407.815 299.956 410.087 300.832 412.725 301.763C415.375 302.694 418.412 303.68 421.271 304.578C424.153 305.476 426.858 306.296 428.853 306.884C430.848 307.471 432.134 307.837 432.134 307.837L453.271 299.335C453.271 299.335 452.728 298.981 451.819 298.404C450.91 297.828 449.636 297.03 448.173 296.143C446.709 295.256 445.058 294.281 443.395 293.339C441.733 292.397 440.048 291.499 438.518 290.756C436.512 289.781 433.641 288.517 430.283 287.265C426.935 286.012 423.111 284.771 419.132 283.806C415.175 282.853 411.052 282.166 407.106 282.033C403.16 281.9 399.369 282.321 396.044 283.574C395.722 283.696 395.423 283.829 395.135 283.962C394.847 284.106 394.592 284.25 394.348 284.405C394.104 284.56 393.882 284.726 393.694 284.904C393.472 285.125 393.295 285.314 393.151 285.502Z" fill="#008056"/>
<path d="M439.949 311.826C439.949 311.826 440.348 312.081 441.047 312.513C441.745 312.945 442.742 313.555 443.928 314.264C445.126 314.974 446.511 315.794 447.996 316.625C449.482 317.457 451.078 318.321 452.641 319.119C454.192 319.906 456.032 320.516 458.016 320.937C460 321.369 462.118 321.613 464.212 321.68C466.318 321.757 468.402 321.646 470.32 321.38C472.237 321.103 473.989 320.671 475.419 320.061C475.862 319.873 476.272 319.673 476.627 319.474C476.993 319.274 477.303 319.064 477.58 318.864C477.857 318.654 478.101 318.443 478.3 318.221C478.5 318 478.655 317.789 478.788 317.556C479.098 317.002 479.176 316.437 479.065 315.86C478.954 315.284 478.655 314.685 478.19 314.087C477.724 313.488 477.092 312.89 476.327 312.28C475.563 311.682 474.654 311.083 473.645 310.485C472.869 310.019 472.005 309.531 471.062 309.01C470.12 308.489 469.101 307.935 467.992 307.359C466.884 306.782 465.698 306.162 464.434 305.519C463.171 304.876 461.818 304.211 460.388 303.513L439.949 311.826Z" fill="#008056"/>
<path d="M313.644 280.791C312.314 282.243 312.237 283.795 313.013 285.358C313.788 286.932 315.396 288.517 317.424 290.024C319.464 291.532 321.924 292.962 324.352 294.192C326.79 295.433 329.196 296.486 331.113 297.24C332.731 297.883 334.715 298.581 336.766 299.269C338.828 299.956 340.967 300.632 342.907 301.23C344.846 301.829 346.587 302.35 347.85 302.716C349.114 303.082 349.879 303.303 349.879 303.303L368.112 293.283C368.112 293.283 367.336 292.751 366.095 291.92C364.853 291.088 363.135 289.969 361.24 288.783C359.356 287.597 357.294 286.355 355.343 285.269C353.403 284.183 351.563 283.263 350.1 282.709C345.789 281.079 341.843 279.86 338.273 278.996C334.715 278.131 331.523 277.61 328.708 277.377C325.892 277.145 323.454 277.178 321.403 277.444C319.342 277.71 317.668 278.187 316.404 278.84C316.094 278.996 315.817 279.151 315.551 279.317C315.285 279.472 315.041 279.639 314.808 279.805C314.575 279.971 314.376 280.137 314.176 280.304C313.966 280.448 313.8 280.625 313.644 280.791Z" fill="#008056"/>
<path d="M358.868 306.205C360.386 306.804 361.849 307.369 363.235 307.89C364.631 308.422 365.962 308.91 367.214 309.364C368.478 309.819 369.675 310.24 370.805 310.628C371.936 311.016 373 311.36 373.998 311.67C375.782 312.246 377.6 312.723 379.407 313.055C381.213 313.399 382.998 313.599 384.738 313.632C386.467 313.665 388.141 313.532 389.715 313.188C391.278 312.856 392.752 312.313 394.06 311.548C394.304 311.404 394.537 311.249 394.758 311.094C394.98 310.938 395.179 310.772 395.368 310.606C395.556 310.44 395.734 310.273 395.889 310.096C396.044 309.919 396.188 309.752 396.321 309.564C396.809 308.877 397.086 308.145 397.13 307.414C397.175 306.682 397.008 305.939 396.609 305.219C396.21 304.498 395.59 303.811 394.747 303.168C393.905 302.537 392.841 301.96 391.544 301.461C389.892 300.83 388.108 300.198 386.367 299.599C384.638 299.012 382.942 298.458 381.457 297.992C379.972 297.527 378.708 297.128 377.799 296.861C376.902 296.584 376.359 296.429 376.359 296.429L358.868 306.205Z" fill="#008056"/>
<path d="M471.24 361.682C471.052 362.037 470.874 362.403 470.697 362.779C470.52 363.156 470.364 363.544 470.209 363.954C470.054 364.353 469.91 364.775 469.766 365.196C469.622 365.617 469.5 366.06 469.378 366.515C469.09 367.59 469.167 369.208 469.444 371.037C469.722 372.877 470.209 374.95 470.741 376.89C471.273 378.84 471.839 380.669 472.282 382.022C472.725 383.374 473.036 384.227 473.036 384.227L509.004 390.202C509.004 390.202 509.104 390.013 509.292 389.692C509.469 389.359 509.724 388.883 510.035 388.306C510.334 387.73 510.689 387.043 511.054 386.289C511.42 385.535 511.808 384.715 512.185 383.862C512.418 383.33 512.651 382.775 512.872 382.221C513.094 381.667 513.304 381.124 513.493 380.57C513.681 380.026 513.859 379.483 514.003 378.973C514.147 378.452 514.269 377.954 514.358 377.477C514.679 375.87 514.845 373.664 514.557 371.203C514.28 368.765 513.559 366.094 512.118 363.533C510.689 360.995 508.538 358.556 505.39 356.55C502.265 354.555 498.141 352.981 492.732 352.15C490.704 351.839 488.631 351.751 486.592 351.928C484.552 352.094 482.546 352.527 480.651 353.258C478.755 353.99 476.971 355.032 475.375 356.417C473.767 357.803 472.36 359.543 471.24 361.682Z" fill="#008056"/>
<path d="M470.685 391.876C470.441 392.375 470.142 392.973 469.821 393.66C469.499 394.348 469.156 395.112 468.823 395.922C468.48 396.731 468.147 397.595 467.837 398.471C467.526 399.347 467.249 400.244 467.016 401.109C466.673 402.361 466.961 403.669 467.726 404.944C468.491 406.23 469.754 407.482 471.362 408.646C472.98 409.81 474.953 410.863 477.147 411.739C479.342 412.614 481.758 413.313 484.252 413.745C486.968 414.221 489.373 414.377 491.49 414.266C493.607 414.155 495.414 413.778 496.955 413.18C498.496 412.581 499.759 411.772 500.768 410.808C501.776 409.843 502.541 408.713 503.084 407.471C503.384 406.784 503.683 406.041 503.971 405.221C504.259 404.412 504.536 403.548 504.814 402.605C505.08 401.674 505.346 400.688 505.612 399.635C505.867 398.593 506.121 397.484 506.365 396.321L471.428 390.457C471.428 390.457 471.406 390.49 471.373 390.557C471.339 390.623 471.284 390.712 471.228 390.834C471.162 390.956 471.084 391.1 470.996 391.277C470.896 391.455 470.796 391.654 470.685 391.876Z" fill="#008056"/>
<path d="M403.815 322.379C403.238 323.221 402.762 324.075 402.363 324.928C401.964 325.782 401.653 326.635 401.398 327.455C401.154 328.276 400.977 329.074 400.855 329.805C400.733 330.537 400.667 331.224 400.645 331.812C400.611 332.898 400.722 334.172 400.922 335.48C401.121 336.788 401.398 338.129 401.686 339.338C401.975 340.546 402.263 341.621 402.485 342.397C402.706 343.173 402.85 343.649 402.85 343.649L435.826 345.955C435.826 345.955 435.892 345.855 436.003 345.689C436.125 345.512 436.291 345.257 436.502 344.935C436.712 344.614 436.956 344.226 437.233 343.782C437.51 343.339 437.81 342.851 438.131 342.33C438.652 341.466 439.217 340.502 439.761 339.504C440.304 338.506 440.836 337.487 441.29 336.5C441.745 335.514 442.133 334.549 442.399 333.685C442.665 332.82 442.809 332.055 442.775 331.446C442.654 328.542 442 326.07 440.947 323.975C439.905 321.902 438.475 320.195 436.79 318.832C435.116 317.48 433.177 316.46 431.115 315.74C429.064 315.03 426.87 314.62 424.686 314.476C421.782 314.288 419.233 314.398 416.994 314.742C414.744 315.086 412.804 315.662 411.119 316.405C409.434 317.147 408.004 318.056 406.807 319.076C405.588 320.096 404.613 321.215 403.815 322.379Z" fill="#008056"/>
<path d="M403.936 349.357C403.914 350.388 403.903 351.374 403.925 352.305C403.947 353.247 403.981 354.134 404.036 354.965C404.091 355.808 404.169 356.595 404.258 357.337C404.346 358.08 404.457 358.767 404.579 359.41C404.812 360.574 405.255 361.682 405.942 362.713C406.63 363.744 407.572 364.697 408.791 365.528C410.01 366.36 411.518 367.069 413.347 367.612C415.176 368.155 417.326 368.543 419.82 368.721C421.771 368.865 423.71 368.843 425.561 368.665C427.413 368.488 429.164 368.166 430.738 367.712C432.312 367.258 433.697 366.681 434.817 365.994C435.936 365.307 436.79 364.531 437.3 363.655C437.388 363.5 437.466 363.345 437.532 363.19C437.599 363.035 437.654 362.868 437.699 362.713C437.743 362.547 437.776 362.381 437.798 362.214C437.821 362.048 437.821 361.882 437.821 361.704C437.776 360.552 437.643 359.332 437.466 358.169C437.289 357.005 437.067 355.885 436.845 354.91C436.623 353.934 436.413 353.114 436.258 352.527C436.102 351.939 435.992 351.607 435.992 351.607L403.936 349.357Z" fill="#008056"/>
<path d="M401.409 467.803L432.866 486.313C432.866 486.313 433.764 485.926 435.238 485.261C436.701 484.595 438.718 483.664 440.969 482.589C443.208 481.514 445.657 480.295 447.996 479.042C450.324 477.801 452.54 476.537 454.303 475.362C455.511 474.575 456.863 473.6 458.282 472.492C459.69 471.383 461.142 470.131 462.538 468.778C463.924 467.426 465.254 465.974 466.429 464.456C467.593 462.937 468.59 461.352 469.322 459.734C470.009 458.226 470.464 456.697 470.608 455.156C470.752 453.626 470.586 452.097 470.031 450.589C469.477 449.093 468.535 447.619 467.127 446.2C465.731 444.781 463.857 443.418 461.452 442.132C459.269 440.968 456.664 440.092 453.693 439.616C450.723 439.139 447.397 439.051 443.762 439.45C440.126 439.86 436.18 440.769 431.99 442.287C427.778 443.817 423.289 445.967 418.601 448.86C417.016 449.847 415.165 451.498 413.28 453.438C411.385 455.389 409.445 457.617 407.705 459.734C405.954 461.873 404.391 463.89 403.26 465.376C402.096 466.85 401.409 467.803 401.409 467.803Z" fill="#008056"/>
<path d="M371.748 485.836C371.083 487 370.739 488.264 370.706 489.572C370.672 490.88 370.961 492.243 371.526 493.584C372.102 494.925 372.967 496.256 374.098 497.519C375.239 498.783 376.647 499.958 378.298 501.011C380.571 502.452 382.898 503.46 385.237 504.114C387.587 504.757 389.937 505.034 392.276 505.001C394.603 504.968 396.909 504.613 399.159 504.014C401.398 503.416 403.57 502.562 405.643 501.532C406.785 500.955 408.004 500.312 409.29 499.614C410.576 498.916 411.917 498.151 413.335 497.32C414.743 496.488 416.228 495.602 417.769 494.648C419.31 493.695 420.917 492.675 422.591 491.6L392.353 473.478C392.353 473.478 391.732 473.755 390.69 474.253C389.649 474.741 388.185 475.451 386.49 476.293C384.794 477.135 382.865 478.122 380.903 479.175C378.941 480.239 376.935 481.369 375.106 482.489C374.729 482.733 374.375 482.977 374.042 483.243C373.71 483.509 373.41 483.775 373.133 484.063C372.856 484.34 372.601 484.639 372.368 484.939C372.136 485.205 371.925 485.515 371.748 485.836Z" fill="#008056"/>
<path d="M392.187 408.347L424.22 420.994C424.22 420.994 425.483 420.462 427.445 419.598C429.407 418.733 432.056 417.536 434.85 416.217C437.632 414.898 440.547 413.457 443.041 412.094C445.524 410.73 447.596 409.445 448.716 408.414C449.547 407.649 450.312 406.895 451.01 406.164C451.709 405.432 452.34 404.712 452.906 404.013C453.471 403.315 453.97 402.639 454.413 401.974C454.856 401.309 455.233 400.666 455.555 400.045C456.508 398.216 456.973 396.543 457.04 395.013C457.106 393.494 456.774 392.12 456.12 390.912C455.466 389.704 454.491 388.64 453.271 387.731C452.052 386.822 450.589 386.079 448.949 385.481C443.939 383.652 439.039 383.031 434.384 383.22C429.729 383.408 425.306 384.383 421.294 385.78C417.259 387.177 413.612 388.983 410.553 390.79C407.483 392.608 405 394.437 403.326 395.844C402.051 396.931 400.721 398.239 399.447 399.613C398.161 400.987 396.931 402.406 395.866 403.703C394.791 405 393.871 406.164 393.228 406.995C392.563 407.837 392.187 408.347 392.187 408.347Z" fill="#008056"/>
<path d="M374.718 426.525C374.042 427.612 373.598 428.698 373.443 429.773C373.288 430.859 373.421 431.923 373.887 432.965C374.363 434.007 375.172 435.027 376.392 436.002C377.611 436.978 379.218 437.909 381.291 438.774C383.485 439.693 385.935 440.37 388.462 440.791C390.989 441.212 393.594 441.389 396.088 441.301C398.582 441.212 400.954 440.857 403.027 440.237C405.1 439.616 406.862 438.729 408.137 437.576C409.422 436.401 410.675 435.138 411.828 433.908C412.98 432.677 414.033 431.48 414.92 430.427C415.807 429.374 416.538 428.476 417.048 427.833C417.558 427.191 417.835 426.814 417.835 426.814L386.833 414.41C385.636 415.441 384.505 416.428 383.474 417.359C382.432 418.301 381.468 419.199 380.581 420.052C379.695 420.906 378.874 421.715 378.143 422.48C377.4 423.245 376.735 423.965 376.148 424.641C376.015 424.796 375.882 424.951 375.76 425.107C375.638 425.262 375.516 425.417 375.394 425.583C375.272 425.739 375.161 425.894 375.05 426.06C374.917 426.204 374.807 426.37 374.718 426.525Z" fill="#008056"/>
<path d="M242.695 517.37L253.613 545.103C253.613 545.103 254.876 545.037 256.96 544.893C259.044 544.759 261.937 544.549 265.207 544.283C268.477 544.017 272.112 543.684 275.659 543.296C279.217 542.908 282.686 542.454 285.635 541.944C288.594 541.423 292.308 540.636 296.309 539.583C300.299 538.541 304.578 537.222 308.679 535.648C312.769 534.074 316.682 532.245 319.974 530.139C323.243 528.045 325.893 525.684 327.478 523.068C327.965 522.259 328.353 521.427 328.63 520.574C328.907 519.72 329.063 518.834 329.096 517.936C329.129 517.038 329.04 516.107 328.808 515.154C328.575 514.2 328.209 513.225 327.699 512.227C326.746 510.387 325.061 508.692 322.59 507.262C320.129 505.832 316.903 504.679 312.858 503.903C308.823 503.127 303.968 502.75 298.26 502.872C292.551 502.994 285.956 503.626 278.43 504.901C275.892 505.322 272.411 506.308 268.621 507.539C264.819 508.78 260.684 510.277 256.849 511.729C253.003 513.192 249.478 514.599 246.896 515.641C244.313 516.683 242.695 517.37 242.695 517.37Z" fill="#008056"/>
<path d="M190.809 529.93C190.166 530.75 189.634 531.603 189.191 532.49C188.759 533.377 188.426 534.286 188.216 535.206C188.005 536.126 187.905 537.068 187.927 537.999C187.95 538.93 188.105 539.861 188.382 540.781C189.014 542.842 190.111 544.538 191.596 545.902C193.081 547.265 194.944 548.296 197.105 549.039C199.266 549.781 201.716 550.214 204.365 550.402C207.014 550.59 209.863 550.524 212.822 550.247C214.441 550.103 216.192 549.914 218.076 549.681C219.961 549.46 221.967 549.194 224.106 548.883C226.245 548.573 228.518 548.229 230.923 547.853C233.328 547.465 235.855 547.043 238.516 546.578L228.573 519.799C228.573 519.799 227.72 519.865 226.256 519.987C224.804 520.109 222.743 520.297 220.337 520.541C217.932 520.785 215.183 521.084 212.346 521.439C209.508 521.794 206.582 522.204 203.811 522.669C202.381 522.913 201.029 523.268 199.765 523.722C198.491 524.177 197.305 524.72 196.207 525.352C195.11 525.984 194.101 526.693 193.203 527.458C192.294 528.211 191.496 529.043 190.809 529.93Z" fill="#008056"/>
<path d="M294.569 457.97L312.891 479.928C312.891 479.928 314.698 479.795 317.558 479.562C320.418 479.329 324.308 478.985 328.487 478.564C332.666 478.143 337.11 477.633 341.067 477.068C345.024 476.503 348.494 475.882 350.711 475.217C354.601 474.075 358.015 472.9 360.986 471.703C363.945 470.517 366.472 469.32 368.6 468.123C370.718 466.926 372.436 465.729 373.788 464.554C375.14 463.379 376.127 462.215 376.792 461.085C377.257 460.298 377.556 459.533 377.723 458.779C377.889 458.025 377.9 457.294 377.789 456.584C377.678 455.875 377.435 455.188 377.069 454.523C376.703 453.869 376.226 453.237 375.639 452.627C372.424 449.302 368.024 447.218 363.047 446.021C358.093 444.824 352.54 444.48 346.997 444.658C341.444 444.835 335.891 445.522 330.925 446.398C325.96 447.274 321.593 448.316 318.456 449.202C316.062 449.878 313.379 450.754 310.697 451.696C308.014 452.638 305.321 453.647 302.938 454.578C300.544 455.509 298.449 456.352 296.941 456.961C295.467 457.582 294.569 457.97 294.569 457.97Z" fill="#008056"/>
<path d="M252.67 474.985C252.205 475.605 251.839 476.259 251.606 476.935C251.373 477.612 251.251 478.31 251.274 479.041C251.296 479.773 251.451 480.516 251.75 481.303C252.05 482.079 252.504 482.888 253.125 483.719C254.255 485.249 255.885 486.645 257.847 487.82C259.808 489.006 262.103 489.97 264.564 490.658C267.024 491.345 269.651 491.744 272.267 491.799C274.883 491.855 277.488 491.544 279.904 490.835C282.354 490.115 284.87 489.305 287.264 488.485C289.658 487.665 291.919 486.845 293.881 486.113C295.832 485.382 297.484 484.739 298.647 484.284C299.8 483.83 300.476 483.553 300.476 483.553L283.185 462.238C280.99 462.859 278.917 463.457 276.978 464.045C275.027 464.632 273.198 465.197 271.491 465.74C269.773 466.295 268.177 466.816 266.703 467.325C265.217 467.835 263.854 468.323 262.591 468.8C261.471 469.221 260.407 469.664 259.409 470.13C258.412 470.595 257.492 471.094 256.649 471.604C255.807 472.125 255.042 472.668 254.388 473.233C253.712 473.776 253.136 474.364 252.67 474.985Z" fill="#008056"/>
<path d="M-59.8252 520.519L-37.812 543.308C-37.812 543.308 -35.8169 543.02 -32.6801 542.532C-29.5432 542.044 -25.2648 541.357 -20.6759 540.548C-16.0982 539.75 -11.2211 538.83 -6.88722 537.888C-2.5644 536.946 1.21532 535.981 3.62058 535.073C7.83257 533.499 11.5125 531.925 14.7048 530.362C17.8859 528.81 20.5793 527.28 22.8294 525.784C25.0795 524.288 26.8752 522.836 28.2829 521.417C29.6795 520.009 30.6881 518.646 31.331 517.338C31.7744 516.429 32.0514 515.553 32.1734 514.711C32.2953 513.868 32.251 513.059 32.0736 512.283C31.8963 511.508 31.5638 510.765 31.1204 510.067C30.6659 509.368 30.0896 508.703 29.3913 508.094C25.5672 504.68 20.5461 502.729 14.9486 501.798C9.37327 500.867 3.21045 500.944 -2.90801 501.576C-9.02647 502.219 -15.1228 503.427 -20.5318 504.79C-25.952 506.154 -30.696 507.672 -34.0878 508.903C-36.6815 509.834 -39.5744 511.031 -42.4563 512.283C-45.3493 513.547 -48.2312 514.877 -50.8027 516.096C-53.3742 517.316 -55.6243 518.424 -57.2315 519.222C-58.8498 520.02 -59.8252 520.519 -59.8252 520.519Z" fill="#008056"/>
<path d="M57.1566 544.727L55.8486 575.054C55.8486 575.054 57.1344 575.087 59.2625 575.12C61.3907 575.153 64.3724 575.187 67.742 575.175C71.1226 575.164 74.8912 575.131 78.6266 575.009C82.3619 574.898 86.0419 574.71 89.2341 574.422C92.6037 574.111 96.9265 573.557 101.693 572.704C106.448 571.861 111.624 570.72 116.69 569.245C121.744 567.771 126.665 565.964 130.955 563.759C135.211 561.575 138.825 559.004 141.263 556.022C141.851 555.302 142.372 554.559 142.815 553.794C143.258 553.029 143.624 552.242 143.912 551.422C144.201 550.613 144.4 549.771 144.511 548.906C144.622 548.041 144.655 547.155 144.577 546.246C144.433 544.195 143.469 542.233 141.607 540.493C139.756 538.764 136.996 537.257 133.26 536.104C129.536 534.951 124.814 534.153 119.006 533.821C113.209 533.488 106.315 533.632 98.2012 534.375C95.4745 534.63 91.5618 535.394 87.2279 536.403C82.8829 537.412 78.1056 538.675 73.6609 539.906C69.2051 541.136 65.0707 542.344 62.0558 543.242C59.063 544.14 57.1566 544.727 57.1566 544.727Z" fill="#008056"/>
<path d="M-1.45605 555.456C-2.17652 556.177 -2.84157 556.93 -3.42903 557.695C-4.0165 558.471 -4.54854 559.258 -4.99191 560.056C-5.43527 560.854 -5.80103 561.674 -6.07813 562.495C-6.35524 563.315 -6.54368 564.135 -6.64344 564.955C-6.94271 567.194 -6.62126 569.09 -5.76778 570.653C-4.9143 572.226 -3.52879 573.468 -1.73316 574.421C0.0735612 575.374 2.29039 576.039 4.80649 576.461C7.33368 576.882 10.1602 577.037 13.164 576.993C14.8377 576.982 16.6444 576.948 18.6063 576.871C20.5682 576.793 22.6631 576.693 24.9132 576.56C27.1633 576.427 29.5574 576.261 32.1068 576.062C34.6562 575.862 37.3607 575.629 40.2204 575.352L42.0715 546.101C42.0715 546.101 41.1958 546.101 39.6995 546.112C38.2031 546.123 36.086 546.156 33.6143 546.223C31.1314 546.289 28.2828 546.389 25.3233 546.533C22.3638 546.677 19.2935 546.877 16.3562 547.143C14.6049 547.298 12.898 547.631 11.2353 548.096C9.57271 548.562 7.96549 549.171 6.44696 549.903C4.92843 550.634 3.4875 551.477 2.1574 552.408C0.860548 553.339 -0.369805 554.37 -1.45605 555.456Z" fill="#008056"/>
<path d="M135.034 485.76L143.813 510.533C143.813 510.533 145.697 510.544 148.679 510.522C151.66 510.5 155.75 510.444 160.162 510.322C164.573 510.2 169.318 510.012 173.596 509.724C177.874 509.435 181.687 509.036 184.259 508.504C189.18 507.485 193.525 506.387 197.338 505.223C201.14 504.071 204.41 502.851 207.203 501.599C209.974 500.358 212.269 499.072 214.109 497.786C215.949 496.5 217.345 495.214 218.332 493.94C218.864 493.264 219.285 492.588 219.584 491.911C219.895 491.246 220.094 490.581 220.194 489.938C220.294 489.295 220.294 488.653 220.194 488.032C220.094 487.411 219.906 486.813 219.629 486.225C217.789 482.412 214.208 479.852 209.653 478.178C205.119 476.515 199.611 475.729 193.88 475.496C188.161 475.263 182.208 475.584 176.799 476.139C171.379 476.693 166.502 477.48 162.944 478.189C160.24 478.732 157.147 479.475 154.044 480.273C150.929 481.082 147.781 481.958 144.966 482.767C142.15 483.576 139.667 484.319 137.883 484.862C136.109 485.427 135.034 485.76 135.034 485.76Z" fill="#008056"/>
<path d="M84.5128 501.654C83.9696 502.231 83.4931 502.829 83.1162 503.45C82.7282 504.082 82.44 504.736 82.2405 505.423C82.041 506.11 81.9302 506.82 81.9302 507.573C81.9302 508.316 82.0299 509.092 82.2516 509.901C82.7172 511.619 83.7369 513.215 85.1667 514.623C86.6077 516.031 88.4698 517.239 90.6313 518.159C92.7927 519.079 95.2423 519.722 97.836 519.976C100.441 520.242 103.179 520.132 105.938 519.566C108.71 518.99 111.591 518.325 114.351 517.638C117.1 516.951 119.738 516.252 122.011 515.632C124.294 515.011 126.223 514.457 127.586 514.058C128.949 513.659 129.736 513.426 129.736 513.426L121.678 489.417C119.206 489.916 116.867 490.404 114.651 490.881C112.434 491.357 110.361 491.812 108.41 492.266C106.459 492.709 104.631 493.153 102.946 493.574C101.25 493.995 99.687 494.405 98.2461 494.804C96.7608 495.214 95.342 495.669 94.0008 496.157C92.6596 496.644 91.396 497.176 90.2322 497.742C89.0684 498.307 87.9932 498.928 87.04 499.582C86.0646 500.202 85.2222 500.901 84.5128 501.654Z" fill="#008056"/>
</g>
</svg>
