<svg width="105" height="89" viewBox="0 0 105 89" fill="none" xmlns="http://www.w3.org/2000/svg">
<path d="M68.511 49.747C67.8537 49.2214 66.8956 49.33 66.3715 49.9895L62.5184 54.8394C62.3034 55.1098 62.1865 55.4453 62.1865 55.7911V87.2877C62.1865 88.1311 62.8681 88.8148 63.7089 88.8148C64.5496 88.8148 65.2312 88.1311 65.2312 87.2877V56.3252L68.7525 51.893C69.2768 51.2334 69.1684 50.2727 68.511 49.747Z" fill="#008056"/>
<path d="M100.282 4.20394H97.8477C97.454 4.20394 97.074 4.26278 96.7127 4.36561C96.6031 2.15673 94.7826 0.391937 92.5538 0.391937H88.4023C86.1034 0.391937 84.2329 2.26811 84.2329 4.57453V19.198H71.3194V13.9959C71.3194 10.4217 68.4208 7.51401 64.8579 7.51401C63.1706 7.51401 61.6328 8.16702 60.4807 9.23339C59.3416 7.38329 57.3022 6.1473 54.9799 6.1473C52.5913 6.1473 50.5028 7.45516 49.3848 9.39364C48.2437 8.37798 46.7439 7.75937 45.102 7.75937C42.9423 7.75937 41.0282 8.82879 39.8543 10.4663C38.6795 9.25396 37.0384 8.49872 35.224 8.49872C31.6611 8.49872 28.7625 11.4064 28.7625 14.9806V18.9987C28.7625 19.0655 28.7656 19.1316 28.7676 19.198H20.8551V14.8772C20.8551 14.0338 20.1735 13.35 19.3327 13.35C18.492 13.35 17.8104 14.0338 17.8104 14.8772V45.9918C17.8104 46.6138 17.306 47.12 16.6857 47.12H12.5343C11.9142 47.12 11.4096 46.614 11.4096 45.9918V4.57453C11.4096 3.95246 11.914 3.44626 12.5343 3.44626H16.6859C17.306 3.44626 17.8106 3.95226 17.8106 4.57453V8.36881C17.8106 9.21221 18.4922 9.89598 19.3329 9.89598C20.1737 9.89598 20.8553 9.21221 20.8553 8.36881V4.57453C20.8553 2.26831 18.985 0.391937 16.6859 0.391937H12.5343C10.3056 0.391937 8.48511 2.15673 8.37551 4.36561C8.014 4.26278 7.63423 4.20394 7.24045 4.20394H4.80612C2.50697 4.20394 0.636719 6.08031 0.636719 8.38653V42.1796C0.636719 44.4858 2.50697 46.3622 4.80612 46.3622H7.24065C7.63443 46.3622 8.01441 46.3033 8.37571 46.2005C8.48532 48.4094 10.3058 50.1742 12.5346 50.1742H16.6861C18.985 50.1742 20.8555 48.298 20.8555 45.9916V31.3679H29.2844V40.729C29.2844 44.3524 30.4767 47.9453 32.6415 50.8459L33.7022 52.267V87.2875C33.7022 88.1309 34.3838 88.8146 35.2246 88.8146C36.0653 88.8146 36.7469 88.1309 36.7469 87.2875V51.7587C36.7469 51.4287 36.6404 51.1076 36.4433 50.8435L35.0788 49.0153C33.3056 46.6397 32.3293 43.6968 32.3293 40.729V31.3679H52.3378C53.0989 32.0347 54.0048 32.5385 55.0019 32.8252C51.8386 35.5344 49.9428 39.5622 49.9428 43.789V45.0235C49.9428 45.8669 50.6244 46.5507 51.4652 46.5507C52.3059 46.5507 52.9875 45.8669 52.9875 45.0235V43.789C52.9875 39.8632 55.0632 36.1544 58.4042 34.11L60.0546 33.1005C60.0565 33.0995 60.0579 33.098 60.0597 33.097H61.4077C62.2484 33.097 62.93 32.4133 62.93 31.5699C62.93 30.7265 62.2484 30.0427 61.4077 30.0427H56.9229C54.753 30.0427 52.9875 28.2718 52.9875 26.0949C52.9875 23.918 54.753 22.1471 56.9229 22.1471H67.7544C70.802 22.1471 73.2814 24.6343 73.2814 27.6915V31.8313C73.2814 36.3753 72.1276 40.8825 69.9448 44.8653C69.5396 45.6045 69.8086 46.533 70.5454 46.9394C70.778 47.0677 71.0295 47.1286 71.2774 47.1286C71.8146 47.1286 72.3357 46.8425 72.6128 46.3369C75.0418 41.9045 76.3259 36.8887 76.3259 31.8315V31.3681H84.2335V45.9918C84.2335 48.298 86.1038 50.1744 88.4029 50.1744H92.5545C94.7832 50.1744 96.6037 48.4096 96.7133 46.2007C97.0748 46.3035 97.4546 46.3624 97.8484 46.3624H100.283C102.582 46.3624 104.452 44.4862 104.452 42.1798V8.38653C104.451 6.08031 102.581 4.20394 100.282 4.20394ZM7.24045 43.3078H4.80612C4.18601 43.3078 3.68141 42.8018 3.68141 42.1796V8.38653C3.68141 7.76446 4.18581 7.25826 4.80612 7.25826H7.24065C7.86075 7.25826 8.36536 7.76426 8.36536 8.38653V42.1796C8.36515 42.8016 7.86055 43.3078 7.24045 43.3078ZM41.6854 14.2413C41.6854 12.3514 43.2181 10.8137 45.1022 10.8137C46.9862 10.8137 48.5189 12.3512 48.5189 14.2413V19.8335C48.5189 21.7233 46.9862 23.2611 45.1022 23.2611C43.2181 23.2611 41.6854 21.7235 41.6854 19.8335V14.2413ZM31.8074 14.9808C31.8074 13.091 33.3401 11.5533 35.2242 11.5533C37.1082 11.5533 38.6409 13.0908 38.6409 14.9808V18.9989C38.6409 20.8889 37.1082 22.4264 35.2242 22.4264C33.3401 22.4264 31.8074 20.8889 31.8074 18.9989V14.9808ZM20.8551 22.2523H29.6392C30.7599 24.1808 32.8428 25.4806 35.224 25.4806C37.0183 25.4806 38.6438 24.7424 39.8156 23.5537C40.9857 25.222 42.9183 26.3152 45.102 26.3152C47.3079 26.3152 49.2584 25.1998 50.4247 23.5024C50.4304 23.501 50.4361 23.4995 50.4417 23.4979C50.1206 24.3016 49.942 25.1774 49.942 26.0949C49.942 26.8703 50.0701 27.6157 50.3031 28.3135H20.8551V22.2523ZM51.5634 21.614V12.6292C51.5634 10.7394 53.0961 9.20162 54.9802 9.20162C56.8642 9.20162 58.3969 10.7392 58.3969 12.6292V19.093H56.9223C54.7713 19.093 52.845 20.0744 51.5634 21.614ZM61.4416 19.093V13.9959C61.4416 12.1061 62.9743 10.5683 64.8583 10.5683C66.7424 10.5683 68.2751 12.1059 68.2751 13.9959V19.093H61.4416ZM76.3254 28.3135V27.6915C76.3254 25.6296 75.5976 23.7353 74.387 22.2523H84.2331V28.3135H76.3254ZM101.407 42.1796C101.407 42.8016 100.902 43.3078 100.282 43.3078H97.8475C97.2274 43.3078 96.7228 42.8018 96.7228 42.1796V34.7901C96.7228 33.9467 96.0412 33.263 95.2005 33.263C94.3597 33.263 93.6781 33.9467 93.6781 34.7901V45.9916C93.6781 46.6136 93.1737 47.1198 92.5534 47.1198H88.4019C87.7818 47.1198 87.2772 46.6138 87.2772 45.9916V4.57453C87.2772 3.95246 87.7816 3.44626 88.4019 3.44626H92.5534C93.1735 3.44626 93.6781 3.95226 93.6781 4.57453V28.282C93.6781 29.1254 94.3597 29.8091 95.2005 29.8091C96.0412 29.8091 96.7228 29.1254 96.7228 28.282V8.38653C96.7228 7.76446 97.2272 7.25826 97.8475 7.25826H100.282C100.902 7.25826 101.407 7.76426 101.407 8.38653V42.1796Z" fill="#008056"/>
</svg>
