<svg width="66" height="100" viewBox="0 0 66 100" fill="none" xmlns="http://www.w3.org/2000/svg">
<path d="M57.1088 35.5645V75.7386C57.1088 79.1283 54.3609 81.8762 50.9712 81.8762H8.74517C5.35531 81.8762 2.60742 79.1283 2.60742 75.7386V24.1399C2.60742 20.7501 5.35531 18.0022 8.74517 18.0022H50.9712C54.3609 18.0022 57.1088 20.7501 57.1088 24.1399V28.8412" stroke="#008056" stroke-width="4.07" stroke-miterlimit="10" stroke-linecap="round" stroke-linejoin="round"/>
<path d="M22.4649 2.20457H18.0483C16.3216 2.20457 14.7918 3.31795 14.2608 4.96092L10.0469 18.0021H49.6699L45.456 4.96092C44.925 3.31795 43.3952 2.20457 41.6685 2.20457H29.1788" stroke="#008056" stroke-width="4.07" stroke-miterlimit="10" stroke-linecap="round" stroke-linejoin="round"/>
<path d="M41.6685 97.6742H18.0483C16.3216 97.6742 14.7918 96.5609 14.2608 94.9179L10.0469 81.8767H49.6699L45.4559 94.9179C44.925 96.5609 43.3952 97.6742 41.6685 97.6742Z" stroke="#008056" stroke-width="4.07" stroke-miterlimit="10" stroke-linecap="round" stroke-linejoin="round"/>
<path d="M60.9345 55.2087H57.1084V42.2949H60.9345C62.3998 42.2949 63.5877 43.483 63.5877 44.9481V52.5554C63.5877 54.0208 62.3998 55.2087 60.9345 55.2087Z" stroke="#008056" stroke-width="4.07" stroke-miterlimit="10" stroke-linecap="round" stroke-linejoin="round"/>
<path d="M60.9345 72.9904H57.1084V60.0768H60.9345C62.3998 60.0768 63.5877 61.2647 63.5877 62.73V70.3372C63.5877 71.8025 62.3998 72.9904 60.9345 72.9904Z" stroke="#008056" stroke-width="4.07" stroke-miterlimit="10" stroke-linecap="round" stroke-linejoin="round"/>
<path d="M10.9209 33.5377L13.0495 36.2179C13.2254 36.4396 13.5743 36.3924 13.6851 36.1319L17.6184 26.877C17.77 26.5203 18.2977 26.6025 18.3334 26.9886L20.0839 45.9328C20.1214 46.3357 20.6833 46.3996 20.8098 46.0154L25.4854 31.8342C25.5989 31.4905 26.0861 31.4932 26.1956 31.8382L27.4109 35.6664C27.5152 35.9951 27.9716 36.0184 28.109 35.702L30.617 29.9192C30.7605 29.5882 31.2434 29.6332 31.3233 29.9849L33.5921 39.9684C33.6743 40.3299 34.1762 40.3633 34.3057 40.016L37.7632 30.741C37.8838 30.4175 38.341 30.4171 38.4622 30.7402L40.0412 34.9465C40.1275 35.1768 40.4091 35.2619 40.6085 35.1184L44.7118 32.164C44.8145 32.0899 44.9482 32.073 45.0662 32.1194L48.7949 33.5843" stroke="#008056" stroke-width="4.07" stroke-miterlimit="10" stroke-linecap="round" stroke-linejoin="round"/>
<path d="M46.6468 47.9542C43.8511 47.3679 42.3848 49.8532 41.9686 50.7115C41.9173 50.8171 41.7676 50.8171 41.7163 50.7115C41.2999 49.8532 39.8336 47.3679 37.0381 47.9542C37.0381 47.9542 34.2161 48.4672 34.2643 51.8079C34.2766 52.6502 34.4829 53.4772 34.835 54.2423C35.5851 55.8728 37.6075 57.37 41.5162 60.2765C41.7394 60.4425 42.0462 60.4425 42.2694 60.2765C46.1783 57.37 48.0996 55.8728 48.8499 54.2423C49.202 53.4772 49.4085 52.6502 49.4206 51.8079C49.4686 48.4672 46.6468 47.9542 46.6468 47.9542Z" stroke="#008056" stroke-width="4.07" stroke-miterlimit="10" stroke-linecap="round" stroke-linejoin="round"/>
<path d="M10.2949 53.265H27.3526" stroke="#008056" stroke-width="4.07" stroke-miterlimit="10" stroke-linecap="round" stroke-linejoin="round"/>
<path d="M10.2949 59.9195H27.3526" stroke="#008056" stroke-width="4.07" stroke-miterlimit="10" stroke-linecap="round" stroke-linejoin="round"/>
<path d="M10.2949 66.5741H49.4218" stroke="#008056" stroke-width="4.07" stroke-miterlimit="10" stroke-linecap="round" stroke-linejoin="round"/>
<path d="M10.2949 73.2288H49.4218" stroke="#008056" stroke-width="4.07" stroke-miterlimit="10" stroke-linecap="round" stroke-linejoin="round"/>
</svg>
