<svg width="67" height="90" viewBox="0 0 67 90" fill="none" xmlns="http://www.w3.org/2000/svg">
<path d="M59.4385 77.9057H7.65016C4.79292 77.9057 2.47656 75.5894 2.47656 72.7319V16.8989C2.47656 14.0415 4.79292 11.7252 7.65016 11.7252H59.4385C62.296 11.7252 64.6123 14.0415 64.6123 16.8989V72.7319C64.6123 75.5894 62.296 77.9057 59.4385 77.9057Z" stroke="#008056" stroke-width="4" stroke-miterlimit="10" stroke-linecap="round" stroke-linejoin="round"/>
<path d="M21.4751 1.50041H14.4025C13.5043 1.50041 12.7764 2.22849 12.7764 3.12669V11.7254H54.1874V3.12669C54.1874 2.22849 53.4593 1.50041 52.5611 1.50041H26.7043" stroke="#008056" stroke-width="4" stroke-miterlimit="10" stroke-linecap="round" stroke-linejoin="round"/>
<path d="M47.454 88.1307H52.6863C53.5845 88.1307 54.3126 87.4027 54.3126 86.5045V77.9057H12.9014V86.5045C12.9014 87.4027 13.6296 88.1307 14.5276 88.1307H42.2248" stroke="#008056" stroke-width="4" stroke-miterlimit="10" stroke-linecap="round" stroke-linejoin="round"/>
<path d="M33.4473 23.4136V66.0816" stroke="#008056" stroke-width="4" stroke-miterlimit="10" stroke-linecap="round" stroke-linejoin="round"/>
<path d="M22.302 24.2016C20.7048 24.1557 19.2698 24.8521 18.313 25.9701C17.3562 24.8521 15.921 24.1557 14.3238 24.2016C11.7162 24.2763 9.55948 26.3802 9.42492 28.9854C9.35136 30.4083 9.86644 31.7109 10.7484 32.6713C11.6119 33.6118 13.7683 35.8703 17.5073 38.8824C17.9747 39.2587 18.6421 39.2536 19.1029 38.8695C22.8098 35.7788 25.0133 33.6124 25.8776 32.6713C26.7594 31.7109 27.2746 30.4081 27.2011 28.9854C27.0663 26.3802 24.9096 24.2763 22.302 24.2016Z" stroke="#008056" stroke-width="4" stroke-miterlimit="10" stroke-linecap="round" stroke-linejoin="round"/>
<path d="M26.3991 55.5575C26.3991 60.1927 21.8145 63.5294 19.5495 65.6014C18.8495 66.2416 17.7763 66.2416 17.0763 65.6014C14.8112 63.5294 10.2266 59.9429 10.2266 55.5575C10.2266 51.0916 13.8469 47.4713 18.3128 47.4713C22.7787 47.4713 26.3991 51.0916 26.3991 55.5575Z" stroke="#008056" stroke-width="4" stroke-miterlimit="10" stroke-linecap="round" stroke-linejoin="round"/>
<path d="M20.9525 55.4908C20.9525 56.949 19.7703 58.131 18.3123 58.131C16.854 58.131 15.6719 56.949 15.6719 55.4908C15.6719 54.0325 16.854 52.8504 18.3123 52.8504C19.7703 52.8504 20.9525 54.0325 20.9525 55.4908Z" stroke="#008056" stroke-width="4" stroke-miterlimit="10" stroke-linecap="round" stroke-linejoin="round"/>
<path d="M41.8457 29.7786V32.7566" stroke="#008056" stroke-width="4" stroke-miterlimit="10" stroke-linecap="round" stroke-linejoin="round"/>
<path d="M46.5488 23.4136V32.7566" stroke="#008056" stroke-width="4" stroke-miterlimit="10" stroke-linecap="round" stroke-linejoin="round"/>
<path d="M51.2529 26.5919V32.7566" stroke="#008056" stroke-width="4" stroke-miterlimit="10" stroke-linecap="round" stroke-linejoin="round"/>
<path d="M55.957 29.7786V32.7566" stroke="#008056" stroke-width="4" stroke-miterlimit="10" stroke-linecap="round" stroke-linejoin="round"/>
<path d="M56.5375 43.5696H41.264C40.6383 43.5696 40.1309 43.0622 40.1309 42.4363V39.2689C40.1309 38.643 40.6383 38.1356 41.264 38.1356H56.5375C57.1634 38.1356 57.6708 38.643 57.6708 39.2689V42.4363C57.6708 43.0622 57.1634 43.5696 56.5375 43.5696Z" stroke="#008056" stroke-width="4" stroke-miterlimit="10" stroke-linecap="round" stroke-linejoin="round"/>
<path d="M42.583 52.8504H46.4713" stroke="#008056" stroke-width="4" stroke-miterlimit="10" stroke-linecap="round" stroke-linejoin="round"/>
<path d="M42.583 58.9402H46.4713" stroke="#008056" stroke-width="4" stroke-miterlimit="10" stroke-linecap="round" stroke-linejoin="round"/>
<path d="M51.3311 52.8504H55.2193" stroke="#008056" stroke-width="4" stroke-miterlimit="10" stroke-linecap="round" stroke-linejoin="round"/>
<path d="M51.3311 58.9402H55.2193" stroke="#008056" stroke-width="4" stroke-miterlimit="10" stroke-linecap="round" stroke-linejoin="round"/>
<path d="M42.583 64.7369H46.4713" stroke="#008056" stroke-width="4" stroke-miterlimit="10" stroke-linecap="round" stroke-linejoin="round"/>
<path d="M51.3311 64.7369H55.2193" stroke="#008056" stroke-width="4" stroke-miterlimit="10" stroke-linecap="round" stroke-linejoin="round"/>
</svg>
