<svg width="111" height="112" viewBox="0 0 111 112" fill="none" xmlns="http://www.w3.org/2000/svg">
<mask id="mask0_360_3319" style="mask-type:luminance" maskUnits="userSpaceOnUse" x="0" y="0" width="111" height="112">
<path d="M0.351562 0.835739H110.542V111.026H0.351562V0.835739Z" fill="white"/>
</mask>
<g mask="url(#mask0_360_3319)">
<path d="M101.104 20.4776C96.618 16.234 90.5695 13.6271 83.9435 13.6363C76.0813 13.6473 69.076 17.2969 64.51 22.9885C63.772 23.9085 62.3699 23.9085 61.6317 22.9885C57.0659 17.2969 50.0604 13.6473 42.1984 13.6363C28.4769 13.6172 17.2335 24.8163 17.2081 38.5378C17.1911 47.7393 21.5881 56.8774 27.6656 65.1081" stroke="#008056" stroke-width="4" stroke-miterlimit="10" stroke-linecap="round" stroke-linejoin="round"/>
<path d="M36.166 75.0988C45.8798 85.2092 56.5747 92.8868 60.9894 95.8894C62.2462 96.7441 63.8956 96.7441 65.1525 95.8894C74.1175 89.792 108.982 64.4149 108.934 38.538C108.926 34.1378 107.764 29.9968 105.736 26.4021" stroke="#008056" stroke-width="4" stroke-miterlimit="10" stroke-linecap="round" stroke-linejoin="round"/>
<path d="M26.2666 37.4138H42.1499L47.4016 54.6656L54.3604 31.8059L57.0519 40.6482H72.4432" stroke="#008056" stroke-width="4" stroke-miterlimit="10" stroke-linecap="round" stroke-linejoin="round"/>
<path d="M56.7114 75.0986H17.6387" stroke="#008056" stroke-width="4" stroke-miterlimit="10" stroke-linecap="round" stroke-linejoin="round"/>
<path d="M50.0078 65.109H56.7109" stroke="#008056" stroke-width="4" stroke-miterlimit="10" stroke-linecap="round" stroke-linejoin="round"/>
<path d="M17.6387 65.109H42.7082" stroke="#008056" stroke-width="4" stroke-miterlimit="10" stroke-linecap="round" stroke-linejoin="round"/>
<path d="M62.3797 85.406H58.8631C57.6747 85.406 56.7109 84.4425 56.7109 83.2539V57.1132C56.7109 55.9245 57.6747 54.961 58.8631 54.961H62.3797C63.5681 54.961 64.5319 55.9245 64.5319 57.1132V83.2539C64.5319 84.4425 63.5681 85.406 62.3797 85.406Z" stroke="#008056" stroke-width="4" stroke-miterlimit="10" stroke-linecap="round" stroke-linejoin="round"/>
<path d="M64.5322 60.9732C64.5322 59.7846 65.4957 58.8211 66.6844 58.8211H70.2008C71.3892 58.8211 72.3529 59.7846 72.3529 60.9732V79.3939C72.3529 80.5825 71.3892 81.5461 70.2008 81.5461H66.6844C65.4957 81.5461 64.5322 80.5825 64.5322 79.3939" stroke="#008056" stroke-width="4" stroke-miterlimit="10" stroke-linecap="round" stroke-linejoin="round"/>
<path d="M9.7002 62.9561V57.1132C9.7002 55.9245 10.6639 54.961 11.8523 54.961H15.369C16.5574 54.961 17.5211 55.9245 17.5211 57.1132V83.2539C17.5211 84.4425 16.5574 85.406 15.369 85.406H11.8523C10.6639 85.406 9.7002 84.4425 9.7002 83.2539V70.4912" stroke="#008056" stroke-width="4" stroke-miterlimit="10" stroke-linecap="round" stroke-linejoin="round"/>
<path d="M9.70059 79.3939C9.70059 80.5825 8.73707 81.5461 7.54844 81.5461H4.03204C2.8434 81.5461 1.87988 80.5825 1.87988 79.3939V60.9732C1.87988 59.7846 2.8434 58.8211 4.03204 58.8211H7.54844C8.73707 58.8211 9.70059 59.7846 9.70059 60.9732" stroke="#008056" stroke-width="4" stroke-miterlimit="10" stroke-linecap="round" stroke-linejoin="round"/>
</g>
</svg>
