<svg width="91" height="96" viewBox="0 0 91 96" fill="none" xmlns="http://www.w3.org/2000/svg">
<path d="M18.6738 85.5714C20.6576 86.8851 23.0345 87.6499 25.5893 87.6499C26.0336 87.6499 26.4724 87.6261 26.9047 87.5809C28.4551 90.8608 31.785 93.1297 35.6441 93.1297C40.9836 93.1297 45.3124 88.7874 45.3124 83.4308" stroke="#008056" stroke-width="4" stroke-miterlimit="10" stroke-linecap="round" stroke-linejoin="round"/>
<path d="M45.3125 10.4477C45.3125 6.16263 41.8496 2.68875 37.578 2.68875C34.1142 2.68875 31.1826 4.97307 30.1974 8.12194C28.9218 7.49977 27.4898 7.1502 25.976 7.1502C20.6365 7.1502 16.3078 11.4925 16.3078 16.849C16.3078 17.568 16.3882 18.2679 16.5362 18.9423C12.0104 19.7508 8.57328 23.7151 8.57328 28.4875C8.57328 29.4174 8.70643 30.3156 8.95005 31.1669C6.32774 32.4087 4.51265 35.0843 4.51265 38.1862C4.51265 39.5921 4.88724 40.9094 5.53901 42.0466C3.58516 44.1296 2.38574 46.9327 2.38574 50.0187C2.38574 54.182 4.56653 57.8326 7.84315 59.8896C7.31945 61.0837 7.02649 62.4027 7.02649 63.791C7.02649 67.9167 9.59565 71.4384 13.2157 72.84C13.09 73.5553 13.0208 74.2901 13.0208 75.0415C13.0208 77.1544 13.5389 79.1459 14.4546 80.895" stroke="#008056" stroke-width="4" stroke-miterlimit="10" stroke-linecap="round" stroke-linejoin="round"/>
<path d="M72.8007 11.6319C73.7607 13.1382 74.3172 14.9283 74.3172 16.8489C74.3172 17.5678 74.2369 18.2677 74.0888 18.9421C78.6146 19.7506 82.0517 23.7149 82.0517 28.4874C82.0517 29.4172 81.9186 30.3155 81.675 31.1667C84.2973 32.4085 86.1124 35.0841 86.1124 38.186C86.1124 39.5919 85.7378 40.9092 85.086 42.0464C87.0399 44.1295 88.2393 46.9326 88.2393 50.0185C88.2393 54.1819 86.0585 57.8324 82.7819 59.8895C83.3056 61.0836 83.5985 62.4025 83.5985 63.7908C83.5985 67.9165 81.0294 71.4383 77.4094 72.8398C77.5351 73.5552 77.6042 74.29 77.6042 75.0413C77.6042 82.0047 71.977 87.6497 65.0355 87.6497C64.5913 87.6497 64.1525 87.6259 63.7202 87.5808C62.1698 90.8607 58.8398 93.1295 54.9807 93.1295C49.6412 93.1295 45.3125 88.7873 45.3125 83.4307" stroke="#008056" stroke-width="4" stroke-miterlimit="10" stroke-linecap="round" stroke-linejoin="round"/>
<path d="M45.3125 10.4477C45.3125 6.16263 48.7754 2.68875 53.047 2.68875C56.5108 2.68875 59.4424 4.97307 60.4276 8.12194C61.7032 7.49977 63.1352 7.1502 64.649 7.1502C65.7913 7.1502 66.8873 7.34892 67.9044 7.71377" stroke="#008056" stroke-width="4" stroke-miterlimit="10" stroke-linecap="round" stroke-linejoin="round"/>
<path d="M76.7197 38.4467C80.0112 38.4467 82.9862 39.826 85.0853 42.0466" stroke="#008056" stroke-width="4" stroke-miterlimit="10" stroke-linecap="round" stroke-linejoin="round"/>
<path d="M77.4084 72.84C76.4517 73.1718 75.4046 73.2946 74.3356 73.2946C71.98 73.2946 69.8279 72.4199 68.1846 70.9766" stroke="#008056" stroke-width="4" stroke-miterlimit="10" stroke-linecap="round" stroke-linejoin="round"/>
<path d="M80.083 56.5341C81.177 57.3918 82.19 58.5218 82.7811 59.8897" stroke="#008056" stroke-width="4" stroke-miterlimit="10" stroke-linecap="round" stroke-linejoin="round"/>
<path d="M56.7432 11.5737C57.6681 10.1534 58.9038 8.88272 60.4274 8.1217" stroke="#008056" stroke-width="4" stroke-miterlimit="10" stroke-linecap="round" stroke-linejoin="round"/>
<path d="M63.9192 80.0209C64.3319 81.096 64.5581 82.2641 64.5581 83.4851C64.5581 84.9391 64.2374 86.3179 63.6631 87.5544" stroke="#008056" stroke-width="4" stroke-miterlimit="10" stroke-linecap="round" stroke-linejoin="round"/>
<path d="M80.5034 54.2783C80.5034 56.2535 79.4578 57.9835 77.8916 58.9421" stroke="#008056" stroke-width="4" stroke-miterlimit="10" stroke-linecap="round" stroke-linejoin="round"/>
<path d="M74.0879 18.9421C73.461 18.8171 72.8224 18.7025 72.1589 18.7025C70.3111 18.7025 68.582 19.2109 67.1025 20.096" stroke="#008056" stroke-width="4" stroke-miterlimit="10" stroke-linecap="round" stroke-linejoin="round"/>
<path d="M13.8987 38.4467C10.6072 38.4467 7.63822 39.826 5.53906 42.0466" stroke="#008056" stroke-width="4" stroke-miterlimit="10" stroke-linecap="round" stroke-linejoin="round"/>
<path d="M13.21 72.84C14.1667 73.1718 15.2137 73.2946 16.2827 73.2946C18.6383 73.2946 20.7905 72.4199 22.4338 70.9766" stroke="#008056" stroke-width="4" stroke-miterlimit="10" stroke-linecap="round" stroke-linejoin="round"/>
<path d="M10.5351 56.5341C9.44103 57.3918 8.4281 58.5218 7.83691 59.8897" stroke="#008056" stroke-width="4" stroke-miterlimit="10" stroke-linecap="round" stroke-linejoin="round"/>
<path d="M33.8756 11.5738C32.9507 10.1535 31.715 8.88281 30.1914 8.1218" stroke="#008056" stroke-width="4" stroke-miterlimit="10" stroke-linecap="round" stroke-linejoin="round"/>
<path d="M26.6994 80.0209C26.2868 81.096 26.0605 82.2641 26.0605 83.4851C26.0605 84.9391 26.3813 86.3179 26.9556 87.5544" stroke="#008056" stroke-width="4" stroke-miterlimit="10" stroke-linecap="round" stroke-linejoin="round"/>
<path d="M10.1152 54.2783C10.1152 56.2535 11.1608 57.9835 12.727 58.9421" stroke="#008056" stroke-width="4" stroke-miterlimit="10" stroke-linecap="round" stroke-linejoin="round"/>
<path d="M16.5303 18.9421C17.1572 18.8171 17.7957 18.7025 18.4593 18.7025C20.307 18.7025 22.0361 19.2109 23.5156 20.096" stroke="#008056" stroke-width="4" stroke-miterlimit="10" stroke-linecap="round" stroke-linejoin="round"/>
<path d="M45.3125 10.4477V14.2441" stroke="#008056" stroke-width="4" stroke-miterlimit="10" stroke-linecap="round" stroke-linejoin="round"/>
<path d="M45.3125 79.7546V83.4309" stroke="#008056" stroke-width="4" stroke-miterlimit="10" stroke-linecap="round" stroke-linejoin="round"/>
<path d="M43.7526 19.9581C46.4993 21.3073 50.5897 23.7283 54.4796 27.8951C55.8396 29.3518 58.9747 32.7636 60.9209 37.4607C64.1393 45.2274 64.4212 57.2649 57.1522 65.6694C53.1353 70.3137 43.9356 77.175 36.3734 73.38C31.8856 71.1279 29.2319 65.7534 29.461 60.7699C29.8372 52.5884 37.9619 45.9305 44.4295 46.921C49.0774 47.6327 51.8009 52.1307 53.4571 54.866C59.3023 64.5193 57.3009 75.3336 56.284 79.4997" stroke="#008056" stroke-width="4" stroke-miterlimit="10" stroke-linecap="round" stroke-linejoin="round"/>
<path d="M25.9549 51.0243C25.3097 54.7018 26.5006 59.4877 29.82 62.2929C34.2233 66.0139 40.2862 64.5173 41.9103 64.1164C47.3661 62.7696 52.0217 58.6385 54.0659 53.5239C57.8484 44.0598 52.2914 32.2208 44.939 29.3596C34.6866 25.3701 22.293 39.3616 19.6435 36.5176C17.7141 34.4464 22.3282 24.924 26.5233 25.0915C32.2051 25.3182 31.2892 43.0876 40.4939 46.38C49.0304 49.4335 64.1067 39.2616 63.7341 29.4981C63.6115 26.2832 61.7991 22.0936 58.6199 21.2114C52.5158 19.5178 41.7753 29.3773 40.3798 40.7747C38.9914 52.1142 47.4573 60.2053 48.3219 61.005C50.3191 62.853 53.0892 65.4161 57.1524 65.6692C61.7416 65.9551 66.6182 63.2093 69.4263 59.1322" stroke="#008056" stroke-width="4" stroke-miterlimit="10" stroke-linecap="round" stroke-linejoin="round"/>
<path d="M71.7155 53.2572C72.6543 45.4234 65.3112 39.6397 60.9213 37.4608C50.1936 32.136 34.915 37.3261 28.6523 45.3244" stroke="#008056" stroke-width="4" stroke-miterlimit="10" stroke-linecap="round" stroke-linejoin="round"/>
</svg>
