<svg width="145" height="166" viewBox="0 0 145 166" fill="none" xmlns="http://www.w3.org/2000/svg">
<path d="M46.3371 0.958709C46.1106 1.21372 46.6768 1.72375 47.5827 2.17002C48.6019 2.61629 49.338 3.57259 49.5078 4.46514C49.7343 5.80395 49.7343 5.80395 49.8476 4.21012C49.9042 2.04251 47.4128 -0.316355 46.3371 0.958709Z" fill="#008057"/>
<path d="M41.6944 3.76373C41.4679 4.14625 41.4113 4.52877 41.5812 4.72003C41.6944 4.91129 41.9775 4.59252 42.1474 4.01875C42.5437 2.93494 42.204 2.74368 41.6944 3.76373Z" fill="#008057"/>
<path d="M43.1099 5.22995C43.1099 7.52507 43.7893 8.1626 46.224 8.1626C47.9793 8.1626 48.9984 6.63252 48.5455 4.65617C48.2058 3.2536 47.866 3.06234 45.6578 3.06234C43.1665 3.06234 43.1099 3.06234 43.1099 5.22995Z" fill="#008057"/>
<path d="M45.2612 9.75656C46.2237 10.2666 47.073 11.0316 47.073 11.4141C47.073 12.6892 47.8657 11.4779 47.9224 10.0753C47.979 9.24654 47.8091 8.99152 47.3561 9.4378C47.0164 9.75656 46.4502 9.75656 45.9406 9.4378C45.4877 9.05528 44.695 8.80026 44.242 8.86402C43.789 8.86402 44.242 9.24654 45.2612 9.75656Z" fill="#008057"/>
<path d="M130.306 9.05515C130.306 9.18266 130.702 9.50142 131.212 9.69268C131.665 9.88394 131.892 9.82019 131.722 9.43767C131.382 8.80014 130.306 8.54512 130.306 9.05515Z" fill="#008057"/>
<path d="M141.63 10.394C142.14 11.0953 142.253 12.6254 142.027 15.3667C141.8 17.7894 141.913 18.8094 142.197 18.0444C142.48 17.3431 142.706 15.1117 142.706 13.0716C142.763 10.139 142.593 9.4377 141.857 9.4377C141.064 9.4377 141.064 9.62896 141.63 10.394Z" fill="#008057"/>
<path d="M40.8447 10.3303C40.8447 10.4578 41.4676 10.7128 42.2603 10.8403C43.0529 11.0315 43.6758 10.904 43.6758 10.649C43.6758 10.3303 43.0529 10.0752 42.2603 10.0752C41.4676 10.0752 40.8447 10.2028 40.8447 10.3303Z" fill="#008057"/>
<path d="M127.701 10.9678C127.532 11.4779 127.475 12.8167 127.588 14.028C127.758 15.8768 127.815 15.7493 128.041 13.0717C128.324 10.0115 128.211 9.37401 127.701 10.9678Z" fill="#008057"/>
<path d="M137.723 10.9678C137.327 11.4778 137.1 12.6891 137.214 13.7092C137.384 15.3668 137.44 15.2393 138.006 12.7529C138.742 9.82025 138.686 9.62899 137.723 10.9678Z" fill="#008057"/>
<path d="M113.037 11.3505C112.81 11.733 113.376 11.988 114.282 11.988C115.528 11.988 115.698 11.8605 115.018 11.3505C113.943 10.5855 113.49 10.5855 113.037 11.3505Z" fill="#008057"/>
<path d="M128.721 15.558C128.324 18.2994 127.758 20.8495 127.418 21.3595C127.079 21.8058 125.776 22.1883 124.531 22.1883C122.719 22.1883 122.322 22.3796 122.492 23.2721C122.606 23.9097 123.285 24.5472 124.078 24.6109C126.569 25.0572 127.079 25.9498 126.739 29.6475C126.343 33.8552 126.116 34.3014 124.078 34.3014C123.228 34.3014 122.096 34.4927 121.586 34.684C120.227 35.2577 121.473 37.2341 123.512 37.7441L125.267 38.1266L124.87 43.6094C124.474 48.7734 124.531 49.0922 125.55 48.8372C126.399 48.7097 126.796 47.6259 127.475 43.8644C127.928 41.2505 128.551 38.7004 128.777 38.2541C129.966 36.214 135.968 38.1266 135.175 40.4217C134.553 42.2068 134.156 48.8372 134.666 49.1559C135.798 49.9847 136.648 48.3271 137.214 44.0557C137.497 41.6331 138.006 39.2104 138.233 38.7642C138.459 38.3179 139.648 37.7441 140.838 37.5529C143.612 37.0428 143.725 35.6403 141.064 34.684C139.082 33.9827 139.082 33.9827 139.252 30.4762C139.479 26.3323 139.988 25.5035 142.366 25.2485C143.725 25.121 144.178 24.7385 144.178 23.7822C144.178 22.9534 143.725 22.4433 142.933 22.3158C140.781 21.9333 140.385 20.7858 141.064 16.1955C141.687 11.7328 141.517 10.7127 140.215 10.7127C139.309 10.7127 139.026 11.669 138.459 16.1318C137.78 21.6145 137.44 22.1883 134.722 22.1883C130.929 22.1883 130.646 21.7421 131.212 16.7056C131.438 14.2829 131.665 11.9878 131.722 11.669C131.722 11.2865 131.212 10.9678 130.533 10.8403C129.513 10.649 129.287 11.159 128.721 15.558ZM136.308 26.2048C137.27 27.2886 136.421 33.0264 135.119 34.0464C134.043 34.939 130.476 34.7477 129.57 33.7277C129.287 33.4089 129.174 31.6238 129.457 29.5199C129.74 26.7148 130.08 25.8223 131.042 25.376C132.514 24.6747 135.402 25.121 136.308 26.2048Z" fill="#008057"/>
<path d="M131.778 26.5873C131.609 26.906 132.458 27.2886 133.704 27.4161C136.138 27.6711 136.761 27.0335 134.723 26.396C132.911 25.886 132.118 25.9497 131.778 26.5873Z" fill="#008057"/>
<path d="M132.571 33.0265C131.892 33.5366 131.892 33.6641 132.854 33.6641C133.477 33.6641 134.383 33.3453 134.836 33.0265C135.515 32.5165 135.515 32.389 134.553 32.389C133.93 32.389 133.024 32.7078 132.571 33.0265Z" fill="#008057"/>
<path d="M36.4282 13.5817C36.4282 14.6018 36.5415 14.9843 36.7113 14.3468C36.8246 13.773 36.8246 12.8804 36.7113 12.4342C36.5415 12.0516 36.4282 12.4979 36.4282 13.5817Z" fill="#008057"/>
<path d="M37.6741 12.8804C37.5042 13.3904 37.4476 14.4742 37.5609 15.303C37.7307 16.5781 38.0705 16.7693 40.7316 16.9606L43.6759 17.1519V14.6017V11.9878H40.8449C38.8632 11.9878 37.9006 12.3066 37.6741 12.8804Z" fill="#008057"/>
<path d="M44.2422 12.5617C44.2422 12.9442 44.4687 13.3905 44.8084 13.5818C45.1481 13.773 45.2047 13.518 45.0349 13.008C44.6385 11.8604 44.2422 11.6692 44.2422 12.5617Z" fill="#008057"/>
<path d="M47.866 12.8804C47.6961 13.3904 47.6395 14.6017 47.7528 15.6218C47.866 17.0243 48.2624 17.4706 49.5646 17.5981C50.4139 17.7256 51.7729 17.6619 52.5655 17.4069C53.7546 17.0881 53.9245 16.7056 53.7546 14.6655C53.5847 12.3066 53.5281 12.3066 50.8669 12.1153C48.9418 11.9878 48.0925 12.1791 47.866 12.8804Z" fill="#008057"/>
<path d="M132.627 13.008C132.627 13.7093 132.797 13.9006 132.967 13.3906C133.137 12.9443 133.08 12.3705 132.91 12.1792C132.741 11.9242 132.571 12.3068 132.627 13.008Z" fill="#008057"/>
<path d="M113.207 13.3268C112.641 13.7093 112.471 17.7257 112.471 31.2414V48.646L115.189 48.8373L117.85 49.0286L117.906 43.737C117.906 40.8044 118.02 32.8352 118.02 26.0137L118.133 13.5818L116.038 13.1993C114.905 13.008 113.603 13.0718 113.207 13.3268Z" fill="#008057"/>
<path d="M45.7707 14.9206C44.9214 15.8768 45.431 17.5344 46.7899 18.2357C47.5259 18.6182 49.3944 19.1283 50.8666 19.3833C53.188 19.702 53.7543 19.5745 54.6602 18.427C55.3396 17.5344 55.5661 16.7694 55.2264 16.0044C54.83 14.9843 54.7734 14.9843 54.6036 16.3231C54.2638 18.2995 52.6218 19.1283 49.904 18.6182C48.0355 18.2995 47.4693 17.8532 46.9031 16.3231C46.5068 15.3031 46.0538 14.6655 45.7707 14.9206Z" fill="#008057"/>
<path d="M40.222 19.3832C41.1846 19.8295 42.3736 20.0845 42.8266 19.8933C44.412 19.192 43.6759 18.682 41.0714 18.6182L38.4668 18.5545L40.222 19.3832Z" fill="#008057"/>
<path d="M133.703 20.531C133.703 20.6585 134.099 20.9773 134.609 21.1685C135.062 21.3598 135.289 21.296 135.119 20.9135C134.779 20.276 133.703 20.021 133.703 20.531Z" fill="#008057"/>
<path d="M61.2283 21.6146C61.9643 21.9334 63.1534 22.7622 63.7196 23.336C64.852 24.4198 64.852 24.4198 64.0027 22.8259C63.4365 21.8059 62.4739 21.1684 61.4548 21.1046C59.8127 20.9134 59.8127 20.9134 61.2283 21.6146Z" fill="#008057"/>
<path d="M89.9918 21.3596C90.3881 21.5509 90.8977 21.4871 91.0676 21.2959C91.294 21.1046 90.9543 20.9133 90.3315 20.9771C89.7087 20.9771 89.5388 21.1684 89.9918 21.3596Z" fill="#008057"/>
<path d="M93.3892 21.3596C93.7856 21.5509 94.2952 21.4871 94.465 21.2959C94.6915 21.1046 94.3518 20.9133 93.7289 20.9771C93.1061 20.9771 92.9362 21.1684 93.3892 21.3596Z" fill="#008057"/>
<path d="M57.0384 23.1447C56.5288 24.8023 56.642 25.1848 57.3215 23.9097C57.6612 23.2722 57.8311 22.5709 57.6612 22.4434C57.548 22.2521 57.2649 22.5709 57.0384 23.1447Z" fill="#008057"/>
<path d="M88.2366 23.0809C87.0475 23.5909 85.5187 24.4835 84.8959 25.1847C82.9142 27.1611 81.0457 32.3889 81.0457 36.0228C81.0457 41.1868 80.0831 41.9518 73.685 41.9518C67.7398 41.9518 64.9087 40.9318 64.0594 38.4454C63.7197 37.4891 63.4932 33.9189 63.4932 30.4125V24.1009H60.7188H57.9443L57.7178 32.5801C57.4914 43.0356 56.8685 44.6932 53.1882 44.3745C51.4329 44.2469 50.5836 43.7369 49.6777 42.3981C48.6019 40.8043 48.4886 39.7205 48.4886 33.1539V25.6948H45.6576H42.8265L42.5434 33.8552C42.2603 41.5056 42.1471 42.1431 40.9014 43.2907C39.0329 45.012 36.7681 44.8207 35.1261 42.8444C33.8804 41.3143 33.7672 40.6768 33.5973 33.3451L33.3708 25.5035L31.3325 25.2485C30.2 25.0572 28.9544 25.0572 28.6146 25.1847C28.2183 25.376 27.8786 28.3724 27.7087 33.5364C27.4256 41.6968 26.8594 44.2469 24.5379 47.2433C21.1973 51.5148 13.6101 51.3236 10.1562 46.7971C7.43839 43.2269 6.64569 39.6567 7.49501 34.5565C7.83474 32.5801 7.94798 30.8588 7.83474 30.6675C7.66487 30.54 6.53245 30.2212 5.28679 30.03C2.22926 29.5837 1.5498 30.9863 1.5498 38.1266C1.5498 42.4619 1.83291 44.1832 2.90871 46.6696C8.51419 59.8027 24.4813 60.8865 31.2758 48.5822C32.6347 46.032 33.0311 45.9683 36.032 47.6896C38.9763 49.411 41.8073 49.2835 45.0347 47.3709C46.5069 46.4783 48.0923 45.777 48.6019 45.777C49.0548 45.777 50.1872 46.4783 51.1498 47.3709C53.358 49.4747 58.0576 49.6022 60.2658 47.6896C61.9644 46.1595 63.3233 46.0958 65.6448 47.4346C67.9096 48.6459 79.8 48.4547 82.5178 47.0521C84.1032 46.2871 84.5562 46.3508 86.9343 47.6896C89.5955 49.0922 93.3891 49.4747 95.9936 48.5822C99.5608 47.3071 102.901 42.9081 103.637 38.3817C105.449 27.7349 97.1827 19.5107 88.2366 23.0809ZM95.8804 29.0099C98.2585 31.4326 98.485 38.3817 96.2767 41.5693C93.9553 44.8845 89.1425 43.9919 87.8968 39.9755C86.4813 35.449 87.7836 29.0737 90.3315 27.8624C91.9169 27.1611 94.5781 27.6711 95.8804 29.0099Z" fill="#008057"/>
<path d="M88.9162 31.2414C88.0669 33.4728 88.0103 39.2105 88.803 40.1031C89.0295 40.3581 89.1993 38.7643 89.0861 36.5329C88.9728 34.2378 89.1427 31.8789 89.539 31.1139C89.8788 30.3488 90.1052 29.5838 89.9354 29.4563C89.8221 29.265 89.3126 30.0938 88.9162 31.2414Z" fill="#008057"/>
<path d="M94.8615 30.5401C96.0505 32.4527 96.0505 38.1905 94.8615 40.8681L93.9556 42.9082L95.2012 41.5056C96.1072 40.5493 96.5601 39.1468 96.7866 36.9154C97.1263 32.8352 96.6168 30.6676 95.1446 29.775C93.9556 29.0738 93.9556 29.1375 94.8615 30.5401Z" fill="#008057"/>
<path d="M46.224 23.4635C46.0541 23.7823 46.3938 24.1011 47.0733 24.1011C47.7527 24.1011 48.0924 23.7823 47.9226 23.4635C47.7527 23.081 47.3564 22.826 47.0733 22.826C46.7902 22.826 46.3938 23.081 46.224 23.4635Z" fill="#008057"/>
<path d="M82.5746 25.7587C79.1207 29.6477 77.8184 34.4929 79.517 37.043C80.0832 37.9993 80.1965 37.7443 80.2531 35.3854C80.3663 31.4965 81.4421 28.1813 83.4239 25.6312C85.6321 22.7623 85.1791 22.8261 82.5746 25.7587Z" fill="#008057"/>
<path d="M34.2769 25.7587C34.4468 26.2687 34.6166 29.8389 34.6166 33.6004C34.6166 38.8281 34.8431 40.7407 35.5226 41.697C36.3153 42.8446 36.3719 42.8446 35.6924 41.3782C35.2395 40.2944 35.1828 37.6806 35.4659 32.7078C35.8057 26.3325 35.749 25.5037 34.8997 25.1212C34.1637 24.8024 33.9938 24.9937 34.2769 25.7587Z" fill="#008057"/>
<path d="M102.109 26.5236C107.205 33.5364 104.6 45.7133 97.183 49.3472C96.2771 49.7935 95.8807 50.176 96.3337 50.176C98.0323 50.2398 101.826 47.8171 102.958 46.0321C106.639 40.103 106.129 29.6475 101.939 25.6948C100.75 24.5472 100.807 24.6747 102.109 26.5236Z" fill="#008057"/>
<path d="M40.4487 28.5637C40.4487 30.1575 40.562 30.7951 40.6752 29.9663C40.7885 29.2012 40.7885 27.9262 40.6752 27.0974C40.562 26.3324 40.4487 26.9699 40.4487 28.5637Z" fill="#008057"/>
<path d="M140.838 26.5873C140.158 27.7986 139.762 33.0264 140.385 33.0264C140.668 33.0264 140.951 32.6438 140.894 32.1976C140.781 27.7986 141.064 26.7148 142.65 26.4598L144.178 26.2048L142.65 26.0773C141.8 26.0773 141.008 26.2685 140.838 26.5873Z" fill="#008057"/>
<path d="M49.3945 33.0265C49.3945 36.7242 49.621 40.2943 49.8475 40.9319C50.2438 42.1432 50.0174 28.245 49.621 26.9699C49.5078 26.5874 49.4512 29.3288 49.3945 33.0265Z" fill="#008057"/>
<path d="M125.89 27.9263C125.89 28.8188 126.003 29.1376 126.173 28.6913C126.286 28.3088 126.286 27.5438 126.173 27.0975C126.003 26.715 125.89 27.0337 125.89 27.9263Z" fill="#008057"/>
<path d="M55.3964 32.7714C54.8868 35.5128 54.4338 38.8917 54.4338 40.2305C54.4338 42.1431 54.1507 42.7807 53.1882 43.2269C51.9425 43.737 51.9425 43.8007 53.0749 43.8007C54.8302 43.8645 55.5662 42.5894 55.5662 39.2105C55.5662 37.5529 55.8494 34.8753 56.1891 33.4089C56.5288 31.8789 56.6987 29.9663 56.5854 29.2012C56.4722 28.3724 55.9626 29.9663 55.3964 32.7714Z" fill="#008057"/>
<path d="M8.23102 35.8954C8.45751 36.533 8.79723 38.4456 8.9671 40.0394C9.13696 41.6332 9.64655 43.6733 10.0429 44.6296C10.8922 46.4785 13.4402 48.9648 14.4593 48.9648C14.7991 48.9011 14.516 48.5823 13.7799 48.1361C11.7981 46.861 10.8356 44.8846 9.98627 40.2944C9.53331 37.9355 8.91048 35.7042 8.51413 35.3217C8.00454 34.8116 7.94792 34.9391 8.23102 35.8954Z" fill="#008057"/>
<path d="M110.659 40.0394C110.659 42.3345 110.772 43.2271 110.885 42.0795C110.998 40.9957 110.998 39.0831 110.885 37.9356C110.772 36.8518 110.659 37.7443 110.659 40.0394Z" fill="#008057"/>
<path d="M0.247639 39.0829C0.247639 40.4855 0.360881 40.9955 0.474123 40.1667C0.587365 39.4017 0.587365 38.2541 0.474123 37.6166C0.30426 37.0428 0.191018 37.6804 0.247639 39.0829Z" fill="#008057"/>
<path d="M122.266 38.573C122.662 38.7643 123.172 38.7005 123.341 38.5092C123.568 38.318 123.228 38.1267 122.605 38.1905C121.983 38.1905 121.813 38.3817 122.266 38.573Z" fill="#008057"/>
<path d="M66.3245 39.9757C67.0606 40.6132 79.857 40.9957 79.2907 40.4219C79.1775 40.2944 76.0067 39.9757 72.2697 39.7844C67.5136 39.4656 65.7583 39.5294 66.3245 39.9757Z" fill="#008057"/>
<path d="M0.700559 43.6096C0.700559 44.3109 0.870422 44.5021 1.04029 43.9921C1.21015 43.5458 1.15353 42.9721 0.983664 42.7808C0.813801 42.5258 0.643938 42.9083 0.700559 43.6096Z" fill="#008057"/>
<path d="M123.568 44.2471C123.568 44.9483 123.738 45.1396 123.908 44.6296C124.078 44.1833 124.021 43.6095 123.851 43.4183C123.681 43.1632 123.512 43.5458 123.568 44.2471Z" fill="#008057"/>
<path d="M119.039 45.5858C119.039 46.3508 118.812 47.4984 118.642 48.1359C118.359 49.0284 118.416 49.0922 118.925 48.5822C119.322 48.1997 119.548 47.0521 119.378 46.032C119.208 44.6932 119.152 44.5657 119.039 45.5858Z" fill="#008057"/>
<path d="M137.724 46.1596C137.724 46.8609 137.893 47.0522 138.063 46.5422C138.233 46.0959 138.176 45.5221 138.007 45.3309C137.837 45.0758 137.667 45.4584 137.724 46.1596Z" fill="#008057"/>
<path d="M132.627 46.7971C132.627 47.4984 132.797 47.6896 132.967 47.1796C133.137 46.7333 133.08 46.1596 132.91 45.9683C132.741 45.7133 132.571 46.0958 132.627 46.7971Z" fill="#008057"/>
<path d="M48.2056 47.3709C48.2056 47.8171 47.8659 48.5184 47.4129 48.7734C46.9033 49.0922 47.5262 49.2834 49.0549 49.2834H51.5463L50.0741 47.8171C48.3189 46.1595 48.2056 46.0958 48.2056 47.3709Z" fill="#008057"/>
<path d="M1.77637 47.6259C1.77637 48.0084 2.00285 48.4547 2.34258 48.646C2.6823 48.8372 2.73892 48.5822 2.56906 48.0722C2.17271 46.9246 1.77637 46.7334 1.77637 47.6259Z" fill="#008057"/>
<path d="M21.0274 48.0085C20.2347 48.5186 19.895 48.9011 20.2347 48.9648C20.5178 48.9648 21.3105 48.5186 21.9333 48.0085C23.2922 46.861 22.8393 46.7972 21.0274 48.0085Z" fill="#008057"/>
<path d="M82.4046 48.0085C81.8384 48.5185 80.8193 48.9648 80.1964 49.0285C79.2905 49.0923 79.2339 49.156 80.0266 49.4111C80.9325 49.6661 84.443 48.0085 84.443 47.371C84.443 46.7972 83.5371 47.0522 82.4046 48.0085Z" fill="#008057"/>
<path d="M63.2102 48.6459C65.475 50.6223 70.0047 51.3873 72.2696 50.176C73.0622 49.7935 72.5527 49.7297 70.7408 49.9848C68.5892 50.3035 67.6266 50.1123 66.0412 49.0285C63.6065 47.4346 61.3983 47.1159 63.2102 48.6459Z" fill="#008057"/>
<path d="M122.945 48.8373C122.945 49.666 124.474 51.0686 125.154 50.7499C125.437 50.6861 125.04 50.0486 124.304 49.411C123.568 48.7735 122.945 48.5185 122.945 48.8373Z" fill="#008057"/>
<path d="M133.137 49.8573C134.043 51.1961 136.195 51.1323 137.157 49.7935C137.894 48.8372 137.837 48.8372 136.705 49.6023C135.742 50.3035 135.176 50.3673 133.93 49.666C132.571 48.9647 132.458 49.0285 133.137 49.8573Z" fill="#008057"/>
<path d="M38.9763 50.3672C39.3161 51.0048 42.5434 50.941 43.959 50.2397C44.7517 49.8572 44.0722 49.7297 41.864 49.7935C40.1087 49.8572 38.8065 50.1122 38.9763 50.3672Z" fill="#008057"/>
<path d="M11.855 57.699C12.2514 57.8902 12.761 57.8265 12.9308 57.6352C13.1573 57.444 12.8176 57.2527 12.1948 57.3165C11.5719 57.3165 11.4021 57.5077 11.855 57.699Z" fill="#008057"/>
<path d="M14.1198 58.3365C14.4595 58.464 15.1389 58.464 15.5353 58.3365C15.875 58.1452 15.5919 58.0177 14.7992 58.0177C14.0065 58.0177 13.7234 58.1452 14.1198 58.3365Z" fill="#008057"/>
<path d="M19.3289 64.9668C17.2905 65.6681 11.9682 69.4295 10.8357 70.9596C10.496 71.4696 12.4777 70.7683 15.3088 69.4295C18.0832 68.027 21.3672 66.7519 22.5563 66.5606C23.7453 66.3694 30.9928 66.4331 38.6367 66.6881L52.5654 67.2619L55.7928 69.2383C58.1143 70.7046 58.9636 71.0234 58.9636 70.3858C58.9636 68.792 57.4348 67.6444 54.8869 67.1982C42.4303 65.1581 22.4997 63.9468 19.3289 64.9668Z" fill="#008057"/>
<path d="M17.7435 69.3021C14.5161 70.2584 10.7791 72.681 9.08048 75.0399C6.53254 78.6101 5.68322 82.3077 5.85309 89.5119L6.02295 95.8234H13.3271H20.6312L21.3106 92.1257C21.6503 90.0219 22.3298 88.1093 22.7828 87.7905C23.2357 87.4717 27.4257 87.2167 32.1819 87.2167C40.4485 87.2167 40.8449 87.2805 42.3736 88.7468C43.7892 90.0856 43.959 90.7232 44.1289 94.9309C44.2421 98.5648 44.0723 100.159 43.2796 101.88C41.6942 105.323 39.8823 105.96 31.7855 105.96L24.7079 106.024L24.538 110.487C24.4814 112.909 24.5946 116.543 24.8211 118.456L25.2741 121.898L32.3517 121.771C44.0156 121.58 47.0732 123.62 47.0732 131.844C47.0732 136.625 45.6576 139.367 42.2038 141.407C39.6558 142.873 38.7499 143.001 30.0869 143.192C19.4987 143.447 19.5554 143.511 18.4796 138.602C17.9134 135.988 17.9134 135.988 14.7992 135.542C9.1371 134.84 5.3435 134.968 4.60742 135.988C4.15446 136.625 3.98459 139.048 4.15446 143.766C4.2677 149.185 4.5508 151.161 5.51336 153.201C7.15537 156.771 10.7225 159.64 14.3462 160.405C15.9882 160.724 25.1042 160.979 34.6166 160.915L51.886 160.852L54.717 159.194C60.6056 155.815 62.5307 149.695 62.5873 134.394C62.6439 122.217 61.8512 118.52 58.3974 115.013C57.1517 113.738 55.7362 112.718 55.17 112.718C54.6604 112.718 55.17 111.953 56.5289 110.869C61.1152 107.171 62.3042 103.538 62.3608 93.9108C62.3608 79.6939 58.3974 73.3823 47.5261 70.2584C43.4494 69.1108 20.9709 68.4095 17.7435 69.3021Z" fill="#008057"/>
<path d="M91.9735 72.9997L88.6895 76.3787L91.3506 74.7211C92.8794 73.8285 95.9936 72.681 98.3716 72.2347C100.693 71.7884 102.731 71.2784 102.901 71.0871C103.015 70.9596 101.373 70.5771 99.221 70.1946L95.2575 69.6208L91.9735 72.9997Z" fill="#008057"/>
<path d="M107.375 70.0032C107.997 70.322 108.903 70.577 109.356 70.577C110.092 70.6408 110.092 70.577 109.356 70.0032C108.903 69.6845 107.997 69.4295 107.375 69.4295H106.242L107.375 70.0032Z" fill="#008057"/>
<path d="M114.509 70.5772C118.472 72.3623 128.041 75.295 128.438 74.8487C128.664 74.6574 128.494 74.4662 128.098 74.4662C127.758 74.4662 126.399 73.7649 125.154 72.8723C123.059 71.3423 120.567 70.5772 114.452 69.7484L111.904 69.3659L114.509 70.5772Z" fill="#008057"/>
<path d="M60.4359 72.7448C59.4733 73.5099 59.5866 73.8286 61.7382 77.3351C63.0405 79.3752 64.0596 80.7777 64.0596 80.459C64.0596 79.7577 61.7948 71.916 61.5683 71.916C61.5117 71.916 61.0021 72.2986 60.4359 72.7448Z" fill="#008057"/>
<path d="M99.1082 73.4461C89.0296 75.8687 83.594 82.5628 81.499 95.3134C80.3666 102.135 80.5365 131.462 81.7821 137.837C83.5374 147.272 87.2744 153.775 92.5967 156.835C96.5602 159.13 100.297 159.959 108.507 160.278C120.794 160.852 126.739 158.939 132.231 152.628C134.44 150.077 134.496 150.077 133.42 152.118C132.798 153.265 131.099 155.05 129.627 156.134C126.569 158.174 126.116 158.939 128.494 157.919C131.609 156.58 137.214 148.866 136.308 147.209C136.138 146.89 136.478 145.041 137.101 143.065C138.856 137.327 139.366 130.824 139.366 114.949C139.366 99.1386 138.799 93.4008 136.591 87.5993C134.043 80.9689 129.797 76.9525 122.662 74.4661C117.567 72.681 104.827 72.1073 99.1082 73.4461ZM115.358 90.7232C118.699 91.807 120.737 94.0384 122.436 98.3736C124.021 102.326 124.418 111.889 123.625 125.66C123.115 133.948 122.889 135.35 121.587 137.837C119.662 141.598 116.491 143.001 110.206 143.001C104.827 143.001 100.977 141.598 98.9383 138.793C96.3903 135.414 95.7675 131.462 95.7675 119.285C95.7675 102.964 96.8433 96.8435 100.467 93.0821C103.411 90.0219 110.093 88.9381 115.358 90.7232ZM135.176 148.93C134.213 149.95 134.157 149.95 134.893 148.611C135.289 147.846 135.742 147.336 135.912 147.527C136.082 147.655 135.742 148.292 135.176 148.93Z" fill="#008057"/>
<path d="M103.581 93.3371C102.675 93.8471 101.996 94.5484 101.996 94.8672C101.996 95.5047 103.864 95.2497 104.94 94.4847C105.336 94.2296 106.922 93.6559 108.507 93.2096L111.338 92.4446L108.224 92.3808C106.469 92.3808 104.43 92.7633 103.581 93.3371Z" fill="#008057"/>
<path d="M115.584 94.1657C115.584 94.4845 116.207 95.632 117 96.6521C117.793 97.7359 118.699 100.222 119.208 102.9C120.284 108.701 121.02 132.736 120.114 135.287C119.208 138.092 119.944 138.092 121.077 135.287C122.266 132.099 122.662 120.305 121.926 109.721C121.416 102.709 121.19 101.561 119.548 98.2459C117.793 94.7395 116.943 93.5919 116.037 93.5919C115.754 93.5919 115.584 93.8469 115.584 94.1657Z" fill="#008057"/>
<path d="M98.3719 108.701C98.2021 114.949 98.2587 121.07 98.5418 122.281C98.9381 124.002 99.0514 122.727 99.108 116.862C99.1646 112.654 99.561 106.789 100.014 103.792C101.09 97.0984 101.09 97.4171 99.7874 97.4171C98.8249 97.4171 98.7116 98.2459 98.3719 108.701Z" fill="#008057"/>
<path d="M97.5227 126.106C97.4661 130.314 98.3154 136.179 98.8816 135.542C98.9949 135.414 98.7684 132.163 98.3154 128.338L97.5793 121.325L97.5227 126.106Z" fill="#008057"/>
<path d="M99.2211 125.851C99.2211 126.552 99.3909 126.744 99.5608 126.234C99.7307 125.787 99.674 125.214 99.5042 125.022C99.3343 124.767 99.1644 125.15 99.2211 125.851Z" fill="#008057"/>
<path d="M112.754 137.964C110.036 138.666 108.281 138.729 105.959 138.283C103.864 137.901 102.618 137.901 102.109 138.411C100.524 139.877 102.618 140.451 109.413 140.451C115.528 140.451 116.321 140.323 117.057 139.239C118.699 136.689 118.359 136.562 112.754 137.964Z" fill="#008057"/>
<path d="M4.94729 77.7174C4.4377 78.4187 3.70163 79.7575 3.41852 80.7138C2.56921 83.1365 2.11624 97.4809 2.85231 98.6922C3.87149 100.35 20.8578 100.414 23.2359 98.756C23.8021 98.3097 23.8587 97.7997 23.4057 96.3971L22.8395 94.5483L22.7829 96.2696L22.7263 98.0547H13.4404C8.28793 98.0547 3.98473 97.8635 3.87149 97.5447C3.30528 96.6521 4.55094 82.2439 5.40026 79.5025C6.41944 76.2511 6.30619 75.9324 4.94729 77.7174Z" fill="#008057"/>
<path d="M80.8194 80.14C76.7427 86.3878 76.7994 86.0053 76.7994 107.618C76.7994 125.979 77.7619 144.913 78.7811 147.081C79.6304 148.866 80.0834 139.175 79.687 126.744C79.5172 119.922 79.1774 108.128 79.0076 100.605L78.6679 86.8979L80.9893 81.9251C82.235 79.2475 83.1409 77.0161 83.0277 77.0161C82.9144 77.0161 81.9519 78.4187 80.8194 80.14Z" fill="#008057"/>
<path d="M133.76 80.2675C134.779 82.0526 136.648 86.2603 138.007 89.6393C139.365 93.0182 140.498 95.5045 140.498 95.122C140.498 93.7832 137.101 80.7776 136.421 79.63C135.798 78.4187 133.647 77.0161 132.571 77.0161C132.231 77.0161 132.797 78.4824 133.76 80.2675Z" fill="#008057"/>
<path d="M63.6068 84.1566C63.2104 84.7303 63.2671 85.5591 63.7766 86.898L64.5127 88.8105L64.5693 86.0692C64.626 83.2003 64.5127 82.9453 63.6068 84.1566Z" fill="#008057"/>
<path d="M23.2925 90.1494C23.2925 91.0419 23.9719 91.1694 29.1244 90.7869C33.3144 90.4682 35.8057 90.5957 38.297 91.2969C40.1655 91.807 41.7509 92.1257 41.8642 92.062C41.9208 91.9345 41.8642 91.4245 41.6943 90.9144C41.298 89.8306 35.6359 89.1293 27.7089 89.1293C24.0286 89.1293 23.2925 89.3206 23.2925 90.1494Z" fill="#008057"/>
<path d="M64.6825 91.4243C64.6825 92.1256 64.8524 92.3168 65.0222 91.8068C65.1921 91.3605 65.1355 90.7868 64.9656 90.5955C64.7957 90.3405 64.6259 90.723 64.6825 91.4243Z" fill="#008057"/>
<path d="M41.5243 97.6084C40.4485 100.414 35.4659 102.581 29.4074 103.027C26.6896 103.155 24.5947 103.601 24.7645 103.856C25.1609 104.685 31.7289 104.558 36.3718 103.665C39.7125 103.091 40.5052 102.645 41.4677 101.115C42.1472 100.095 42.5435 98.6285 42.4303 97.6084L42.2604 95.8233L41.5243 97.6084Z" fill="#008057"/>
<path d="M140.328 113.993C140.158 119.093 139.875 127.509 139.705 132.8C139.478 142.044 139.478 142.3 140.384 140.132C141.46 137.518 141.97 118.328 141.177 109.849L140.724 104.749L140.328 113.993Z" fill="#008057"/>
<path d="M22.0469 109.275C21.8204 110.359 21.4807 114.057 21.2542 117.563C20.9145 123.301 21.0277 124.002 22.0469 125.277C22.8396 126.297 23.7455 126.744 25.3309 126.744C27.3126 126.744 27.4259 126.68 26.3501 125.787C25.7839 125.277 24.8213 124.831 24.3117 124.831C23.7455 124.831 23.2359 124.767 23.2359 124.64C23.1793 124.576 23.0094 120.623 22.783 115.906C22.5565 110.359 22.33 108 22.0469 109.275Z" fill="#008057"/>
<path d="M60.4357 115.268C61.0585 116.479 61.7946 118.328 62.1909 119.412L62.8138 121.325L62.8704 119.412C62.8704 118.137 62.3042 116.734 61.1718 115.268L59.4165 113.037L60.4357 115.268Z" fill="#008057"/>
<path d="M28.0484 124.959C27.8785 125.214 30.8794 125.405 34.7297 125.405C42.5433 125.277 42.2036 125.022 33.8803 124.64C30.8228 124.576 28.1616 124.703 28.0484 124.959Z" fill="#008057"/>
<path d="M65.3052 127.062C65.3052 128.082 65.4184 128.465 65.5883 127.827C65.7015 127.254 65.7015 126.361 65.5883 125.915C65.4184 125.532 65.3052 125.979 65.3052 127.062Z" fill="#008057"/>
<path d="M65.8716 130.569C65.8716 131.461 65.9848 131.78 66.1547 131.334C66.2679 130.951 66.2679 130.186 66.1547 129.74C65.9848 129.358 65.8716 129.676 65.8716 130.569Z" fill="#008057"/>
<path d="M4.43737 132.29C1.04011 132.864 3.87116 133.757 9.0803 133.757C15.4218 133.757 18.7059 133.247 17.5168 132.418C16.7808 131.844 7.43829 131.78 4.43737 132.29Z" fill="#008057"/>
<path d="M25.557 140.706L22.4429 141.088L25.5004 141.662C28.5579 142.172 35.6356 141.726 38.41 140.769C40.2785 140.132 30.4831 140.132 25.557 140.706Z" fill="#008057"/>
<path d="M65.1921 142.937C65.1921 143.447 64.1729 146.125 62.9839 148.866C61.7382 151.607 60.6058 154.986 60.4359 156.389L60.1528 158.939L61.6816 156.07C62.5875 154.476 63.6633 152.054 64.1729 150.651C65.1921 147.782 66.098 142.044 65.5318 142.044C65.362 142.044 65.1921 142.427 65.1921 142.937Z" fill="#008057"/>
<path d="M80.8192 149.249C80.5928 151.289 80.4795 153.074 80.5928 153.138C81.3288 153.903 92.3699 160.915 95.0311 162.382C96.843 163.402 99.8439 164.422 101.712 164.677C103.581 164.868 105.676 165.251 106.412 165.442C107.431 165.697 107.658 165.506 107.658 164.103C107.658 162.446 107.658 162.446 103.015 162.446C98.5416 162.446 98.3151 162.382 94.1252 159.513C82.9142 151.799 82.801 151.671 81.9517 148.484L81.2156 145.551L80.8192 149.249Z" fill="#008057"/>
<path d="M2.39939 152.373C2.34277 157.919 3.53181 160.533 6.193 160.533C8.34459 160.533 8.51446 159.768 6.58934 158.365C4.55099 156.835 3.2487 154.349 2.85236 151.034C2.51263 148.292 2.51263 148.356 2.39939 152.373Z" fill="#008057"/>
<path d="M65.9847 150.141C65.3618 153.074 62.644 159.513 61.6248 160.469C60.4358 161.489 60.3792 162.446 61.455 162.446C62.4742 162.446 66.2111 154.413 66.6641 151.097C67.0605 148.101 66.5509 147.4 65.9847 150.141Z" fill="#008057"/>
<path d="M135.289 153.647C134.27 155.178 132.798 156.963 132.005 157.664C131.269 158.365 129.967 159.576 129.174 160.342L127.758 161.808L130.023 160.788C132.061 159.895 134.496 156.835 137.271 151.799C138.233 150.014 137.101 151.097 135.289 153.647Z" fill="#008057"/>
<path d="M56.4159 160.214L54.7173 161.808H56.5858C58.1712 161.808 58.3977 161.617 58.3977 160.214C58.3977 158.301 58.5109 158.301 56.4159 160.214Z" fill="#008057"/>
<path d="M11.9683 162.445C11.9683 162.828 13.95 163.083 16.6112 163.083C19.1591 163.083 21.0842 162.956 20.971 162.828C20.3482 162.254 11.9683 161.872 11.9683 162.445Z" fill="#008057"/>
<path d="M110.432 162.7C111.338 163.912 120.397 164.741 121.53 163.721C123.228 162.127 122.266 161.808 116.094 161.808C110.772 161.808 109.866 161.935 110.432 162.7Z" fill="#008057"/>
<path d="M26.1234 163.976L20.1782 164.613L27.9919 165.123C35.0695 165.633 36.0321 165.569 38.1837 164.422L40.5618 163.211H36.3152C33.9937 163.274 29.4074 163.593 26.1234 163.976Z" fill="#008057"/>
<path d="M43.336 164.677C41.9771 165.824 42.5433 165.824 46.5068 164.677L49.6209 163.848L47.0164 163.784C45.6008 163.721 43.9588 164.103 43.336 164.677Z" fill="#008057"/>
</svg>
