<svg width="430" height="485" viewBox="0 0 430 485" fill="none" xmlns="http://www.w3.org/2000/svg">
<path d="M-50.4636 483.972C-63.5003 483.221 -76.6856 481.26 -90.0001 478.09C-132.88 467.885 -177.491 445.076 -222.589 410.302C-265.421 377.275 -305.794 337.44 -344.836 298.913C-384.989 259.292 -426.509 218.32 -470.726 184.743C-583.34 99.2253 -689.918 113.45 -788.313 141.557L-788.381 141.137C-724.502 122.888 -672.811 116.496 -625.703 121.026C-570.443 126.337 -519.694 147.057 -470.565 184.366C-426.331 217.955 -384.802 258.936 -344.642 298.561C-305.606 337.079 -265.243 376.91 -222.425 409.925C-124.927 485.104 -33.1406 503.198 50.3867 463.706C124.718 428.564 182.989 355.448 239.341 284.743C247.258 274.808 255.443 264.538 263.493 254.607C303.007 205.853 337.123 171.054 370.861 145.092C412.226 113.257 453.865 94.1247 498.157 86.5961C543.452 78.9001 592.13 80.5774 646.968 91.7267C698.572 102.22 749.562 119.941 792.635 135.891C883.705 169.613 975.463 207.737 1064.2 244.603C1087.54 254.298 1111.67 264.328 1135.42 274.117C1187.34 295.524 1248.87 320.671 1311.57 344.857C1316.56 346.783 1327.98 350.172 1342.44 354.461C1390.9 368.841 1472 392.911 1474 409.38L1473.68 409.449C1472.83 402.465 1456.53 393.04 1425.22 381.44C1398.58 371.565 1366.09 361.921 1342.37 354.882C1327.9 350.588 1316.48 347.195 1311.48 345.269C1248.78 321.078 1187.24 295.931 1135.32 274.525C1111.58 264.731 1087.44 254.706 1064.1 245.011C975.366 208.144 883.608 170.025 792.545 136.302C726.945 112.009 653.447 87.3039 578.47 82.9755C551.799 81.4354 524.957 82.4692 498.192 87.0165C397.629 104.107 323.224 181.483 263.706 254.916C255.657 264.847 247.471 275.117 239.554 285.052C183.18 355.791 124.883 428.937 50.4868 464.11C18.2633 479.343 -15.5591 485.979 -50.4669 483.963L-50.4636 483.972Z" fill="white"/>
<path d="M-62.4765 465.019C-74.079 464.349 -85.7881 462.826 -97.5909 460.446C-140.974 451.699 -185.582 431.451 -230.18 400.268C-233.775 397.754 -237.493 395.103 -241.231 392.392C-282.912 362.14 -322.791 325.552 -361.361 290.161C-399.518 255.152 -438.974 218.945 -480.94 188.016C-539.892 144.349 -597.672 126.92 -652.491 123.75C-704.631 120.738 -754.087 130.622 -799.383 143.101L-799.457 142.625C-735.985 125.135 -684.171 119.34 -636.398 124.376C-581.247 130.189 -530.341 150.866 -480.762 187.587C-438.78 218.529 -399.318 254.74 -361.155 289.758C-322.594 325.136 -282.721 361.724 -241.056 391.963C-237.319 394.674 -233.601 397.325 -230.009 399.835C-135.089 466.207 -40.7573 482.066 42.7925 445.701C115.111 414.223 171.703 346.525 226.431 281.054C234.696 271.166 243.246 260.939 251.657 251.072C253.89 248.455 256.109 245.873 258.26 243.393C295.823 200.019 328.344 169.102 360.603 146.087C400.045 117.95 439.585 101.378 481.483 95.4285C517.579 90.3064 556.68 91.0699 601.016 97.7749C642.093 103.987 682.182 114.368 719.38 124.659C736.234 129.331 753.919 134.509 776.727 141.445C829.048 157.412 882.565 174.636 940.342 194.103C993.519 212.021 1051.44 233.449 1117.43 259.609C1185.34 286.609 1241.64 309.294 1294.61 331.004C1300.33 333.351 1312.72 337.259 1328.42 342.205C1351.75 349.562 1383.72 359.639 1409.49 369.72C1440.15 381.71 1455.79 391.152 1457.27 398.586L1456.92 398.711C1453.61 382.173 1375.18 357.451 1328.33 342.677C1312.63 337.726 1300.23 333.819 1294.49 331.468C1241.53 309.757 1185.23 287.068 1117.32 260.072C1051.34 233.913 993.419 212.489 940.248 194.571C882.474 175.103 828.958 157.88 776.643 141.913C753.839 134.972 736.154 129.799 719.302 125.127C646.521 104.986 562.125 84.4593 481.518 95.9046C386.091 109.452 315.229 178.248 258.496 243.753C256.348 246.229 254.129 248.811 251.897 251.428C243.485 261.29 234.939 271.517 226.673 281.405C171.916 346.911 115.295 414.647 42.9056 446.156C9.24152 460.81 -26.0797 467.116 -62.4797 465.014L-62.4765 465.019Z" fill="#9C9C9C" fill-opacity="0.13"/>
<path d="M-75.5424 446.135C-139.221 442.459 -195.767 416.574 -237.765 390.226C-241.305 388.004 -245.029 385.631 -248.831 383.169C-294.195 353.797 -335.798 318.341 -379.847 280.801C-415.398 250.506 -452.16 219.173 -491.153 191.281C-584.407 123.939 -679.898 109.988 -810.452 144.642L-810.533 144.11C-747.478 127.375 -695.541 122.172 -647.09 127.723C-592.072 134.033 -541.004 154.667 -490.96 190.804C-451.953 218.71 -415.185 250.043 -379.628 280.346C-335.592 317.873 -293.998 353.325 -248.653 382.684C-244.855 385.147 -241.13 387.519 -237.594 389.737C-172.452 430.606 -72.2445 470.364 35.2049 427.684C105.537 399.749 160.514 337.337 213.681 276.979C222.247 267.254 231.104 257.198 239.826 247.525C241.99 245.127 244.167 242.729 246.299 240.403C283.387 199.83 315.252 171.097 346.574 149.974C385.322 123.84 424 108.886 464.809 104.257C538.106 95.9392 613.668 113.167 686.746 129.829C692.437 131.129 698.11 132.42 703.759 133.694C722.775 138.001 740.847 142.265 760.815 146.992C826.526 162.667 874.67 174.662 921.804 187.115C976.8 201.641 1036.56 221.151 1099.43 245.097C1166.44 270.758 1224.73 294.327 1277.64 317.153C1284.07 319.928 1297.23 324.321 1313.9 329.881C1362.45 346.083 1435.83 370.574 1440.55 387.785L1440.17 387.969C1438.16 380.625 1422.37 370.827 1393.25 358.858C1368.19 348.559 1338.03 338.495 1313.8 330.404C1297.12 324.84 1283.95 320.447 1277.51 317.663C1224.61 294.841 1166.32 271.273 1099.31 245.616C1036.46 221.67 976.706 202.164 921.723 187.643C874.593 175.194 826.448 163.195 760.741 147.525C740.776 142.797 722.7 138.533 703.688 134.226C698.038 132.952 692.366 131.656 686.675 130.361C613.623 113.703 538.087 96.4841 464.841 104.798C372.483 115.278 302.667 179.445 246.554 240.828C244.422 243.153 242.248 245.547 240.084 247.945C231.366 257.614 222.509 267.67 213.943 277.395C160.743 337.787 105.731 400.238 35.318 428.208C-2.97168 443.415 -40.3536 448.168 -75.5489 446.139L-75.5424 446.135Z" fill="#9C9C9C" fill-opacity="0.13"/>
<path d="M-90.5579 427.212C-97.9645 426.783 -105.397 426.088 -112.859 425.127C-157.434 419.375 -202.013 404.257 -245.351 380.187C-248.852 378.244 -252.473 376.202 -256.43 373.95C-306.843 345.221 -353.269 308.5 -402.421 269.629C-434.099 244.577 -466.855 218.671 -501.363 194.549C-596.932 127.743 -692.678 113.278 -821.518 146.181L-821.602 145.594C-759.112 129.635 -707.075 125.067 -657.835 131.218C-603.082 138.056 -551.83 158.6 -501.153 194.021C-466.636 218.152 -433.873 244.058 -402.189 269.115C-353.049 307.976 -306.633 344.685 -256.249 373.401C-252.296 375.653 -248.672 377.695 -245.173 379.638C-181.356 415.08 -82.2244 449.06 27.6218 409.671C95.9933 385.155 149.416 327.92 201.082 272.568C209.9 263.122 219.018 253.35 228.001 243.981C230.14 241.75 232.271 239.545 234.345 237.417C270.962 199.68 302.171 173.138 332.56 153.89C370.617 129.79 408.422 116.44 448.139 113.085C509.812 107.877 574.149 120.588 636.37 132.883C653.445 136.254 671.097 139.746 688.139 142.732C705.023 145.709 724.972 149.201 744.905 152.547C757.328 154.662 769.771 156.756 781.803 158.785C823.116 165.743 862.139 172.315 903.267 180.131C958.78 190.68 1018.72 207.659 1081.44 230.592C1147.59 254.967 1206.22 278.75 1260.67 303.305C1267.79 306.513 1282.24 311.605 1298.97 317.495C1346.28 334.161 1417.78 359.347 1423.82 376.991L1423.41 377.24C1417.46 359.857 1346.09 334.715 1298.85 318.075C1282.11 312.18 1267.66 307.088 1260.52 303.871C1206.08 279.325 1147.46 255.542 1081.31 231.171C1018.62 208.246 958.693 191.276 903.2 180.727C862.074 172.911 823.054 166.339 781.741 159.381C769.709 157.356 757.267 155.258 744.844 153.143C724.911 149.797 704.962 146.306 688.078 143.328C671.033 140.343 653.377 136.855 636.302 133.479C574.104 121.189 509.789 108.482 448.165 113.686C358.866 121.231 290.103 180.71 234.617 237.898C232.543 240.025 230.411 242.23 228.276 244.461C219.296 253.83 210.181 263.598 201.363 273.044C149.661 328.434 96.2034 385.708 27.7382 410.259C-10.2673 423.888 -49.9652 429.572 -90.5579 427.225V427.212Z" fill="#9C9C9C" fill-opacity="0.13"/>
<path d="M-107.897 408.406C-112.106 408.161 -116.315 407.848 -120.534 407.458C-165.849 403.258 -210.392 390.706 -252.932 370.153C-256.363 368.497 -259.99 366.722 -264.024 364.735C-320.312 336.989 -372.417 298.625 -427.581 258.013C-454.549 238.156 -482.434 217.624 -511.576 197.823C-609.222 131.455 -705.228 116.474 -832.587 147.726L-832.678 147.082C-802.599 139.7 -775.166 135.062 -748.805 132.896C-720.616 130.579 -694.361 131.141 -668.54 134.607C-614.003 141.93 -562.589 162.419 -511.353 197.243C-482.205 217.054 -454.316 237.589 -427.345 257.447C-372.197 298.05 -320.112 336.401 -263.856 364.13C-259.822 366.117 -256.195 367.888 -252.768 369.549C-165.002 411.958 -68.1219 419.817 20.0308 391.667C86.4611 370.454 138.382 318.302 188.597 267.863C197.628 258.79 206.967 249.412 216.169 240.446C218.259 238.409 220.349 236.388 222.387 234.44C259.033 199.092 288.692 175.468 318.551 157.846C355.913 135.796 392.849 124.046 431.469 121.923C484.416 119.014 540.142 129.155 594.03 138.957C620.006 143.685 646.868 148.571 672.515 151.771C691.741 154.195 710.74 156.323 728.987 158.099C749.976 160.209 770.704 162.08 790.75 163.886C821.226 166.635 852.739 169.475 884.723 173.143C940.226 179.513 1000.35 193.957 1063.44 216.08C1127.83 238.885 1188.48 263.568 1243.7 289.449C1251.49 293.095 1266.41 298.629 1283.68 305.038C1332.66 323.205 1399.75 348.087 1407.1 366.19L1406.66 366.498C1399.41 348.64 1329.69 322.776 1283.55 305.664C1266.27 299.255 1251.34 293.717 1243.54 290.062C1188.32 264.186 1127.69 239.507 1063.31 216.706C1000.26 194.597 940.158 180.157 884.681 173.791C852.7 170.123 821.19 167.279 790.717 164.533C770.671 162.727 749.944 160.857 728.951 158.746C710.701 156.97 691.699 154.843 672.47 152.419C646.813 149.219 619.945 144.328 593.965 139.601C540.097 129.799 484.397 119.666 431.491 122.57C345.48 127.293 280.3 179.38 222.678 234.964C220.643 236.911 218.553 238.932 216.463 240.969C207.264 249.931 197.929 259.313 188.897 268.382C138.643 318.86 86.6808 371.054 20.1503 392.298C-21.2757 405.523 -64.291 410.932 -107.897 408.414V408.406Z" fill="#9C9C9C" fill-opacity="0.13"/>
<path d="M-129.007 389.719C-174.432 387.094 -218.972 377.193 -260.511 360.115C-263.754 358.781 -267.281 357.322 -271.616 355.516C-335.165 329.044 -394.408 288.222 -457.13 245.002C-477.974 230.639 -499.529 215.788 -521.784 201.087C-620.27 136.023 -719.538 120.039 -843.654 149.261L-843.748 148.562C-783.022 134.264 -729.212 130.802 -679.239 137.983C-624.954 145.782 -573.372 166.215 -521.548 200.452C-499.29 215.157 -477.735 230.009 -456.888 244.375C-394.189 287.578 -334.965 328.387 -271.458 354.843C-267.123 356.649 -263.596 358.107 -260.353 359.441C-175.892 394.159 -79.0081 399.204 12.4523 373.645C76.9543 355.619 127.425 308.465 176.232 262.864C185.437 254.263 194.96 245.366 204.346 236.894C206.333 235.101 208.326 233.325 210.316 231.549L210.435 231.441C267.737 180.35 332.155 132.788 414.801 130.742C460.91 129.601 509.743 138.193 556.964 146.503C590.14 152.341 624.444 158.377 656.894 160.797C675.786 162.234 694.162 163.165 713.068 163.637C737.129 164.336 760.645 164.507 783.388 164.675C810.178 164.868 837.88 165.069 866.178 166.146C921.455 168.257 981.771 180.169 1045.44 201.554C1109.05 223.179 1170.04 248.086 1226.74 275.58C1235.15 279.663 1250.41 285.609 1268.08 292.494C1316.03 311.181 1381.71 336.778 1390.37 355.375L1389.91 355.748C1381.36 337.383 1315.8 311.833 1267.93 293.176C1250.26 286.287 1234.99 280.337 1226.55 276.249C1169.88 248.764 1108.9 223.866 1045.31 202.245C981.677 180.869 921.403 168.956 866.166 166.854C837.873 165.773 810.172 165.576 783.384 165.382C760.641 165.219 737.123 165.048 713.059 164.349C694.143 163.872 675.764 162.942 656.865 161.504C624.396 159.085 590.082 153.045 556.896 147.206C509.694 138.901 460.885 130.313 414.813 131.45C332.304 133.492 267.97 180.997 210.735 232.029L210.616 232.136C208.626 233.912 206.633 235.688 204.65 237.482C195.266 245.95 185.747 254.842 176.542 263.444C127.69 309.087 77.1772 356.284 12.5654 374.34C-34.003 387.351 -81.9765 392.439 -129.004 389.723L-129.007 389.719Z" fill="#9C9C9C" fill-opacity="0.13"/>
<path d="M-155.138 371.351C-195.282 369.034 -233.193 361.9 -268.088 350.082C-271.816 348.82 -275.521 347.559 -279.209 346.302C-312.324 335.02 -345.998 319.354 -385.179 296.999C-420.132 277.056 -455.169 254.247 -492.261 230.099C-505.149 221.708 -518.473 213.035 -531.994 204.356C-632.718 139.696 -732.251 123.175 -854.723 150.802L-854.82 150.047C-794.543 136.452 -740.61 133.613 -689.936 141.36C-635.939 149.618 -584.193 169.999 -531.745 203.67C-518.224 212.352 -504.897 221.026 -492.009 229.413C-416.608 278.497 -351.489 320.889 -279.064 345.56C-275.375 346.817 -271.67 348.078 -267.946 349.339C-188.156 376.365 -91.2658 378.596 4.86853 355.628C67.455 340.674 116.514 298.449 163.958 257.614C173.312 249.562 182.983 241.24 192.521 233.343C194.175 231.974 195.832 230.614 197.489 229.259L198.481 228.448C222.703 208.612 255.063 183.576 290.6 165.885C326.606 147.958 361.779 139.348 398.127 139.571C438.668 139.82 481.784 147.439 523.484 154.809C562.688 161.737 603.226 168.901 641.26 169.836C659.901 170.325 678.177 170.115 697.141 169.192C722.426 168.081 746.92 166.129 770.603 164.242C795.472 162.26 821.187 160.214 847.625 159.163C902.569 156.975 963.066 166.357 1027.44 187.047C1090.34 207.552 1151.68 232.678 1209.76 261.728C1218.78 266.241 1234.25 272.564 1252.17 279.887C1299.22 299.118 1363.65 325.454 1373.63 344.573L1373.15 345.011C1363.3 326.106 1298.97 299.813 1252 280.617C1234.07 273.289 1218.6 266.962 1209.56 262.445C1151.5 233.402 1090.18 208.286 1027.3 187.789C962.982 167.116 902.537 157.739 847.641 159.926C821.213 160.977 795.501 163.024 770.639 165.006C746.949 166.893 722.455 168.841 697.161 169.956C678.187 170.878 659.898 171.089 641.247 170.6C603.181 169.664 562.623 162.5 523.404 155.568C481.722 148.202 438.623 140.584 398.121 140.339C318.78 139.854 255.424 182.718 198.778 229.104L197.786 229.915C196.129 231.271 194.472 232.626 192.822 233.995C183.29 241.888 173.619 250.21 164.268 258.258C116.775 299.136 67.6682 341.403 4.96545 356.383C-42.4234 367.704 -89.8381 372.989 -135.97 372.093C-142.415 371.968 -148.81 371.72 -155.144 371.355L-155.138 371.351Z" fill="#9C9C9C" fill-opacity="0.13"/>
<path d="M-187.608 353.539C-219.299 351.707 -248.783 347.194 -275.661 340.039L-276.921 339.704C-280.228 338.825 -283.52 337.949 -286.795 337.079C-370.183 314.947 -446.317 267.446 -534.473 212.442L-542.206 207.62C-645.275 143.341 -745.073 126.294 -865.794 152.337L-865.895 151.526C-745.043 125.453 -645.133 142.526 -541.944 206.878L-534.211 211.7C-446.094 266.678 -369.993 314.162 -286.676 336.272C-283.4 337.143 -280.109 338.018 -276.801 338.898L-275.541 339.232C-201.759 358.871 -107.418 358.305 -2.71063 337.606C57.9669 325.608 105.65 288.256 151.763 252.131C161.24 244.71 171.037 237.031 180.701 229.786C182.116 228.722 183.537 227.671 184.955 226.616L186.531 225.449C211.991 206.535 242.606 185.15 276.625 169.921C311.947 154.109 346.241 147.069 381.462 148.391C417.309 149.742 455.547 156.717 492.526 163.461C536.933 171.564 582.852 179.942 625.635 178.861C644.16 178.428 662.339 177.077 681.219 174.734C706.95 171.676 731.653 167.468 755.543 163.396C779.233 159.36 803.727 155.186 829.073 152.17C883.627 145.671 944.307 152.522 1009.44 172.53C1071.7 191.962 1133.39 217.311 1192.8 247.872C1202.37 252.796 1217.95 259.463 1235.98 267.176C1282.24 286.974 1345.6 314.085 1356.9 333.771L1356.41 334.269C1345.23 314.789 1281.98 287.724 1235.79 267.961C1217.75 260.239 1202.17 253.573 1192.57 248.64C1133.19 218.092 1071.53 192.756 1009.3 173.332C944.236 153.345 883.617 146.503 829.131 152.994C803.795 156.014 779.307 160.183 755.624 164.22C731.728 168.291 707.017 172.499 681.277 175.562C662.384 177.905 644.185 179.26 625.648 179.693C582.817 180.774 536.875 172.392 492.442 164.289C455.479 157.545 417.261 150.566 381.446 149.223C301.504 146.22 239.076 187.368 186.835 226.174L185.259 227.345C183.841 228.396 182.423 229.451 181.008 230.511C171.35 237.752 161.553 245.427 152.079 252.848C105.914 289.011 58.1801 326.41 -2.61694 338.43C-52.3121 348.258 -99.785 353.624 -143.714 354.388C-158.763 354.65 -173.406 354.367 -187.608 353.547V353.539Z" fill="#9C9C9C" fill-opacity="0.13"/>
<path d="M-226.268 336.899C-246.663 335.719 -265.566 333.428 -283.234 330.005C-286.978 329.28 -290.689 328.568 -294.381 327.864C-334.732 320.168 -374.96 306.321 -420.982 284.288C-461.536 264.873 -502.852 240.905 -552.415 210.889C-657.939 146.98 -758.005 129.396 -876.863 153.878L-876.963 153.011C-834.258 144.217 -793.959 140.845 -754.978 143.097C-685.343 147.121 -619.872 169.072 -552.14 210.096C-462.838 264.182 -381.798 310.306 -294.288 326.998C-290.596 327.701 -286.881 328.418 -283.137 329.143C-200.033 345.238 -98.5756 333.351 -10.2872 319.598C48.4845 310.443 94.8235 277.909 139.635 246.448C149.212 239.721 159.119 232.768 168.887 226.243C170.114 225.419 171.348 224.608 172.579 223.793L174.588 222.463C199.815 205.733 230.007 186.892 262.656 174.005C297.299 160.338 330.712 154.843 364.799 157.228C396.573 159.446 430.525 165.966 463.356 172.272C512.382 181.689 563.076 191.422 610.006 187.904C628.033 186.592 646.118 184.099 665.295 180.294C690.817 175.228 715.126 168.802 738.635 162.59C761.74 156.481 785.63 150.167 810.524 145.191C864.645 134.376 925.516 138.692 991.442 158.017C1052.25 176.163 1116.01 202.443 1175.83 234.02C1185.91 239.34 1201.46 246.298 1219.48 254.358C1267.61 275.889 1327.52 302.687 1340.16 322.974L1339.65 323.532C1327.13 303.438 1264.79 275.55 1219.26 255.186C1201.24 247.125 1185.68 240.163 1175.58 234.835C1115.79 203.275 1052.06 177.008 991.294 158.875C925.445 139.571 864.657 135.26 810.618 146.057C785.74 151.029 761.856 157.344 738.758 163.448C715.239 169.664 690.923 176.09 665.386 181.161C646.189 184.97 628.085 187.463 610.038 188.78C563.04 192.302 512.311 182.559 463.256 173.139C430.438 166.837 396.502 160.321 364.757 158.103C363.885 158.043 363.009 157.987 362.14 157.936C286.827 153.586 226.03 189.316 174.875 223.244L172.863 224.574C171.632 225.389 170.401 226.2 169.174 227.023C159.413 233.548 149.509 240.498 139.935 247.22C95.069 278.72 48.675 311.293 -10.2194 320.464C-68.2418 329.503 -111.816 334.496 -151.498 336.663C-178.547 338.139 -203.354 338.224 -226.275 336.899H-226.268Z" fill="#9C9C9C" fill-opacity="0.13"/>
<path d="M-266.327 322.12C-274.648 321.64 -282.814 320.932 -290.802 319.967C-294.555 319.512 -298.273 319.074 -301.962 318.641C-342.887 313.875 -384.659 302.327 -429.664 283.34C-467.101 267.545 -508.104 246.207 -562.622 214.158C-632.993 172.783 -700.088 150.66 -770.576 146.589C-808.374 144.406 -847.136 147.408 -887.932 155.413L-888.035 154.491C-829.102 142.926 -774.794 141.93 -722.011 151.45C-669.154 160.982 -616.923 181.212 -562.341 213.305C-465.344 270.334 -387.941 307.689 -301.904 317.715C-298.212 318.144 -294.494 318.586 -290.741 319.036C-224.708 327.019 -146.403 317.316 -70.6769 307.93C-53.3409 305.78 -35.4138 303.558 -17.8679 301.576C38.9949 295.15 84.0096 267.395 127.545 240.554C137.216 234.591 147.213 228.426 157.071 222.682C158.163 222.043 159.258 221.412 160.353 220.782C161.115 220.34 161.881 219.902 162.646 219.456C188.936 204.206 217.558 188.642 248.69 178.102C282.654 166.601 315.185 162.659 348.135 166.048C376.276 168.943 405.024 174.829 435.458 181.062C488.68 191.963 543.715 203.232 594.379 196.935C612.426 194.73 630.414 191.1 649.368 185.841C674.799 178.789 698.815 170.063 722.039 161.629C744.459 153.487 767.645 145.066 791.971 138.203C845.636 123.068 906.691 124.848 973.448 143.5C1033.74 160.673 1097.86 187.179 1158.87 220.16C1169.38 225.844 1184.81 233.046 1202.67 241.382C1250.23 263.586 1309.41 291.225 1323.44 312.164L1322.92 312.786C1309.01 292.027 1249.92 264.435 1202.44 242.265C1184.57 233.921 1169.14 226.719 1158.61 221.026C1097.64 188.067 1033.56 161.578 973.306 144.418C906.649 125.796 845.69 124.012 792.122 139.12C767.816 145.976 744.64 154.392 722.229 162.534C698.995 170.972 674.97 179.702 649.517 186.759C630.537 192.023 612.522 195.656 594.45 197.865C543.698 204.176 488.622 192.898 435.358 181.989C404.936 175.76 376.202 169.874 348.087 166.983C275.031 159.472 216.563 189.209 162.934 220.314C162.168 220.756 161.403 221.198 160.641 221.64C159.549 222.27 158.454 222.901 157.362 223.536C147.51 229.28 137.513 235.444 127.849 241.403C84.2583 268.279 39.1855 296.068 -17.8 302.507C-35.3427 304.489 -53.2666 306.711 -70.6025 308.86C-137.204 317.114 -205.802 325.617 -266.321 322.12H-266.327Z" fill="#9C9C9C" fill-opacity="0.13"/>
<path d="M-315.106 309.143C-355.234 306.827 -395.61 298.058 -438.351 282.4C-477.616 268.017 -520.35 247.37 -572.833 217.427C-683.661 154.195 -784.253 135.542 -899.002 156.953L-899.105 155.975C-784.214 134.539 -683.496 153.212 -572.539 216.517C-466.685 276.909 -391.575 303.738 -315.309 308.139C-313.378 308.251 -311.456 308.35 -309.521 308.431C-305.832 308.59 -302.105 308.753 -298.345 308.937C-249.357 311.292 -194.904 303.957 -137.256 296.188C-100.601 291.25 -62.6959 286.145 -25.4464 283.559C29.4977 279.745 73.201 256.734 115.467 234.483C125.222 229.348 135.313 224.033 145.258 219.125C146.23 218.645 147.206 218.169 148.181 217.693C149.021 217.281 149.864 216.873 150.704 216.457C175.069 204.45 203.668 190.916 234.726 182.237C268.018 172.933 299.664 170.526 331.467 174.876C356.278 178.269 381.615 183.85 408.437 189.762C465.565 202.348 524.637 215.363 578.745 205.968C596.814 202.871 614.705 198.105 633.433 191.396C658.651 182.366 682.256 171.35 705.087 160.694C726.935 150.497 749.53 139.952 773.41 131.218C826.6 111.764 887.849 111.009 955.442 128.979C1015.26 145.212 1079.74 171.95 1141.9 206.299C1152.76 212.305 1167.93 219.683 1185.48 228.228C1232.6 251.162 1291.25 279.706 1306.7 301.357L1306.16 302.035C1290.83 280.551 1232.28 252.054 1185.23 229.155C1167.66 220.605 1152.49 213.223 1141.61 207.208C1079.5 172.881 1015.07 146.164 955.297 129.944C887.817 112.004 826.687 112.75 773.607 132.166C749.753 140.892 727.171 151.428 705.332 161.62C682.489 172.28 658.87 183.301 633.624 192.344C614.86 199.066 596.94 203.841 578.838 206.942C524.621 216.354 465.494 203.326 408.315 190.731C381.505 184.824 356.181 179.243 331.39 175.854C261.936 166.361 204.175 191.16 150.963 217.379C150.123 217.791 149.28 218.203 148.437 218.615C147.461 219.091 146.489 219.567 145.517 220.048C135.578 224.955 125.493 230.262 115.742 235.397C73.4207 257.678 29.6592 280.719 -25.4076 284.541C-62.6378 287.124 -100.533 292.228 -137.182 297.166C-194.856 304.935 -249.331 312.275 -298.371 309.92C-302.134 309.74 -305.858 309.576 -309.547 309.418C-311.398 309.336 -313.255 309.246 -315.109 309.139L-315.106 309.143Z" fill="#9C9C9C" fill-opacity="0.13"/>
<path d="M-349.588 299.757C-381.615 297.908 -413.757 291.864 -447.034 281.478C-487.982 268.699 -531.201 249.386 -583.041 220.696C-696.734 157.772 -797.594 138.588 -910.072 158.493L-910.176 157.459C-797.552 137.529 -696.566 156.739 -582.737 219.735C-477.72 277.858 -398.288 301.611 -317.138 299.161C-313.63 299.054 -309.845 298.942 -305.946 298.848C-267.463 297.891 -225.384 290.813 -180.838 283.314C-132.515 275.185 -82.5457 266.777 -33.0184 265.55C19.9908 264.237 62.3827 245.937 103.376 228.241C113.228 223.99 123.412 219.593 133.455 215.574C134.327 215.226 135.199 214.879 136.074 214.536C136.972 214.18 137.873 213.823 138.771 213.463C164.238 203.249 191.545 192.743 220.764 186.407C253.401 179.329 284.161 178.445 314.806 183.709C336.486 187.432 358.596 192.7 382.005 198.281C442.844 212.785 505.753 227.782 563.11 215.012C581.208 211.022 599 205.115 617.499 196.96C642.435 185.965 665.566 172.667 687.938 159.806C709.279 147.537 731.344 134.852 754.849 124.252C807.823 100.358 869.256 97.0714 937.444 114.48C996.312 129.507 1061.15 156.473 1124.93 192.456C1136.03 198.719 1151.5 206.556 1167.87 214.853C1214.72 238.589 1273.02 268.128 1289.96 290.568L1289.41 291.306C1272.58 269.025 1214.37 239.528 1167.59 215.827C1151.21 207.526 1135.74 199.688 1124.62 193.417C1060.89 157.459 996.112 130.519 937.295 115.505C869.243 98.131 807.945 101.409 755.101 125.243C731.625 135.83 709.573 148.506 688.248 160.767C665.86 173.636 642.71 186.943 617.744 197.955C599.207 206.132 581.376 212.047 563.236 216.046C542.647 220.631 521.345 221.644 499.7 220.395C460.897 218.156 420.956 208.633 381.863 199.315C358.464 193.738 336.367 188.47 314.702 184.751C248.979 173.469 194.087 192.37 138.994 214.471C138.093 214.832 137.192 215.188 136.294 215.544C135.422 215.887 134.55 216.234 133.677 216.582C123.645 220.597 113.464 224.99 103.615 229.241C62.5635 246.962 20.1168 265.284 -33.0087 266.601C-82.494 267.828 -132.441 276.232 -180.744 284.357C-225.316 291.855 -267.414 298.938 -305.94 299.895C-309.835 299.989 -313.621 300.105 -317.129 300.208C-327.962 300.534 -338.774 300.388 -349.594 299.762L-349.588 299.757Z" fill="#9C9C9C" fill-opacity="0.13"/>
<path d="M-382.253 292.302C-406.543 290.899 -430.882 287 -455.712 280.569C-497.4 269.772 -542.389 251.257 -593.246 223.969C-709.97 161.333 -811.098 141.617 -921.141 160.038L-921.244 158.948C-863.638 149.305 -808.953 150.141 -754.067 161.505C-702.986 172.08 -650.28 192.182 -592.936 222.952C-489.357 278.536 -409.153 298.557 -324.76 289.887L-324.428 289.852C-320.849 289.483 -317.224 289.115 -313.555 288.754C-282.226 285.683 -248.427 278.441 -212.64 270.771C-156.575 258.755 -98.6013 246.332 -40.5887 247.542C10.4502 248.606 51.5081 234.99 91.219 221.82C101.19 218.513 111.501 215.094 121.659 212.026C122.451 211.786 123.242 211.55 124.034 211.314C124.97 211.035 125.91 210.757 126.847 210.469C149.425 203.588 177.527 195.022 206.808 190.612C238.799 185.794 268.678 186.425 298.149 192.542C316.813 196.416 335.796 201.332 355.9 206.54C420.341 223.227 486.974 240.481 547.481 224.055C565.614 219.173 583.306 212.129 601.572 202.524C626.182 189.582 648.806 174.01 670.68 158.953C691.547 144.59 713.12 129.743 736.296 117.273C763.151 102.829 792.729 94.1763 824.213 91.5595C853.849 89.0972 885.892 91.924 919.45 99.9588C978.47 114.411 1043.66 141.6 1107.97 178.596C1119.16 185.035 1134.02 192.859 1149.74 201.143C1196.51 225.78 1254.71 256.435 1273.24 279.763L1272.67 280.561C1254.25 257.378 1196.13 226.766 1149.44 202.164C1133.7 193.876 1118.84 186.051 1107.64 179.604C1043.39 142.643 978.257 115.475 919.298 101.04C850.132 84.4811 788.666 90.2853 736.603 118.289C713.459 130.738 691.902 145.577 671.055 159.926C649.161 174.997 626.521 190.577 601.869 203.541C583.561 213.172 565.821 220.233 547.639 225.128C520.484 232.497 489.455 233.677 452.784 228.727C420.357 224.351 387.503 215.844 355.735 207.616C335.641 202.413 316.664 197.501 298.017 193.627C231.263 179.767 175.886 196.647 127.028 211.537C126.088 211.825 125.148 212.104 124.208 212.382C123.417 212.618 122.625 212.854 121.837 213.09C111.688 216.153 101.381 219.572 91.416 222.875C51.6566 236.062 10.5406 249.695 -40.6048 248.632C-98.5432 247.422 -156.482 259.841 -212.511 271.848C-248.313 279.523 -282.133 286.768 -313.497 289.844C-317.166 290.204 -320.787 290.577 -324.366 290.942L-324.699 290.976C-343.989 292.958 -363.108 293.404 -382.256 292.298L-382.253 292.302Z" fill="#9C9C9C" fill-opacity="0.13"/>
<path d="M-412.664 286.557C-429.832 285.566 -447.016 283.276 -464.387 279.677C-507.144 270.822 -552.631 253.672 -603.453 227.238C-725.005 164.023 -823.326 144.384 -932.213 161.573L-932.316 160.424C-875.15 151.398 -820.342 152.844 -764.752 164.838C-714.481 175.687 -661.618 195.746 -603.14 226.157C-500.471 279.552 -419.499 295.836 -332.386 280.603L-330.073 280.2C-327.137 279.685 -324.169 279.166 -321.165 278.651C-294.978 274.164 -267.034 266.67 -237.45 258.729C-207.345 250.652 -176.217 242.299 -144.42 236.465C-108.362 229.846 -76.8685 227.581 -48.1594 229.516C0.834839 232.832 40.5166 223.857 78.887 215.179C89.036 212.884 99.5305 210.512 109.864 208.461C110.565 208.32 111.266 208.187 111.967 208.049C112.952 207.856 113.937 207.663 114.925 207.466L118.146 206.809C142.472 201.85 167.628 196.72 194.651 194.691C225.321 192.387 253.726 194.571 281.489 201.366C297.165 205.201 313.06 209.688 329.885 214.432C397.892 233.617 468.212 253.453 531.845 233.085C550.011 227.306 567.605 219.13 585.632 208.079C609.897 193.206 631.984 175.378 653.342 158.137C673.749 141.664 694.855 124.629 717.734 110.293C744.405 93.5839 773.976 83.1552 805.631 79.3029C835.287 75.6909 867.527 77.7543 901.452 85.4417C931.76 92.4684 963.793 103.09 996.66 117.019C1027.58 130.124 1059.33 146.181 1091 164.739C1102.07 171.225 1116.08 178.883 1130.91 186.995C1177.84 212.665 1236.25 244.607 1256.51 268.96L1255.92 269.818C1235.78 245.598 1177.45 213.699 1130.58 188.063C1115.74 179.951 1101.73 172.289 1090.65 165.799C1025.39 127.563 959.911 100.173 901.3 86.587C831.281 70.7275 769.645 79.0585 718.105 111.348C695.268 125.655 674.182 142.677 653.794 159.132C632.417 176.39 610.31 194.236 585.997 209.135C567.918 220.219 550.269 228.422 532.048 234.217C503.5 243.355 470.741 245.113 431.902 239.601C397.634 234.732 363.101 224.994 329.708 215.574C312.885 210.829 296.997 206.346 281.334 202.511C219.364 187.347 165.66 198.299 118.278 207.959L115.058 208.615C114.069 208.817 113.081 209.01 112.096 209.203C111.395 209.34 110.697 209.478 109.996 209.615C99.6727 211.666 89.1813 214.038 79.0356 216.333C41.4178 224.84 2.5434 233.625 -45.1458 230.875C-46.1633 230.815 -47.1776 230.755 -48.2015 230.682C-112.319 226.367 -178.701 244.157 -237.276 259.875C-266.876 267.819 -294.836 275.318 -321.052 279.809C-324.052 280.324 -327.021 280.843 -329.957 281.358L-332.27 281.766C-359.37 286.506 -385.99 288.106 -412.667 286.566L-412.664 286.557Z" fill="#9C9C9C" fill-opacity="0.13"/>
<path d="M-440.704 282.259C-451.467 281.637 -462.233 280.479 -473.054 278.789C-516.731 271.963 -562.725 256.168 -613.66 230.507C-701.784 186.111 -776.79 162.993 -850.517 158.733C-881.375 156.949 -911.996 158.472 -943.283 163.113L-943.383 161.908C-886.656 153.491 -831.718 155.542 -775.427 168.175C-725.435 179.397 -673.931 198.843 -613.334 229.374C-511.208 280.826 -429.464 293.374 -340.006 271.337C-338.591 270.99 -337.17 270.638 -335.739 270.282C-333.439 269.711 -331.117 269.136 -328.775 268.566C-306.416 263.096 -282.768 255.345 -257.732 247.138C-195.359 226.697 -124.661 203.536 -55.7278 211.507C-8.91711 216.925 29.2626 212.545 66.1892 208.311C76.6386 207.114 87.4435 205.874 98.0737 204.918C98.7068 204.862 99.3431 204.806 99.9795 204.75C100.987 204.665 101.995 204.575 103.006 204.476C106.294 204.158 109.605 203.828 112.939 203.493C157.378 199.062 207.749 194.043 264.828 210.203C277.48 213.785 290.242 217.718 303.757 221.88C372.025 242.913 449.405 266.751 516.204 242.132C534.406 235.461 551.9 226.144 569.691 213.652C593.597 196.861 615.132 176.789 635.957 157.378C655.919 138.769 676.559 119.529 699.164 103.326C725.644 84.3435 755.206 72.1347 787.029 67.0384C816.71 62.2853 849.147 63.5937 883.441 70.925C913.768 77.5614 945.982 88.1058 979.184 102.258C1010.11 115.436 1042.02 131.798 1074.03 150.879C1084.67 157.219 1097.51 164.499 1111.1 172.204C1158.54 199.101 1217.58 232.574 1239.76 258.154L1239.17 259.068C1217.09 233.612 1158.12 200.182 1110.74 173.319C1097.14 165.61 1084.31 158.335 1073.66 151.986C1007.41 112.498 941.583 84.8798 883.292 72.1219C812.414 56.9659 750.609 67.8234 699.593 104.39C677.037 120.558 656.416 139.777 636.477 158.365C615.63 177.798 594.072 197.891 570.111 214.716C552.262 227.251 534.706 236.598 516.44 243.295C486.484 254.337 451.954 256.679 410.877 250.459C374.726 244.985 338.539 233.835 303.54 223.055C290.032 218.894 277.27 214.96 264.627 211.383C207.677 195.257 157.378 200.272 112.997 204.699C109.66 205.029 106.349 205.36 103.061 205.681C102.05 205.78 101.039 205.866 100.028 205.956C99.3948 206.012 98.7584 206.063 98.1252 206.123C87.5015 207.08 76.7001 208.32 66.2572 209.516C35.1674 213.081 3.17957 216.749 -34.0991 214.6C-41.1439 214.192 -48.3696 213.579 -55.8215 212.717C-124.607 204.75 -195.223 227.898 -257.529 248.314C-282.578 256.524 -306.242 264.276 -328.626 269.754C-330.968 270.329 -333.291 270.904 -335.59 271.47C-337.021 271.826 -338.446 272.178 -339.861 272.525C-374.083 280.955 -407.35 284.181 -440.724 282.255L-440.704 282.259Z" fill="#9C9C9C" fill-opacity="0.13"/>
<path d="M-466.498 279.17C-471.569 278.878 -476.634 278.462 -481.715 277.917C-526.207 273.173 -572.707 258.733 -623.869 233.779C-719.215 187.269 -825.246 146.709 -954.357 164.657L-954.457 163.396C-898.169 155.572 -843.102 158.227 -786.114 171.512C-737.3 182.893 -685.641 202.301 -623.543 232.591C-567.491 259.93 -516.229 274.859 -466.211 277.75C-426.5 280.045 -387.584 274.756 -347.637 262.071C-345.628 261.432 -343.599 260.784 -341.555 260.132C-339.846 259.587 -338.124 259.034 -336.39 258.48C-316.944 252.29 -296.524 244.306 -274.905 235.855C-209.744 210.382 -135.887 181.508 -63.2973 193.502C-19.0255 200.816 17.3971 200.928 52.6246 201.031C64.169 201.065 75.0739 201.099 86.292 201.37C86.8573 201.383 87.4258 201.4 87.9943 201.412C89.0247 201.438 90.0583 201.468 91.0952 201.486C96.8544 201.576 102.559 201.614 108.596 201.661C149.747 201.966 196.387 202.309 248.169 219.035C257.672 222.102 267.194 225.316 277.278 228.717C349.08 252.938 430.463 280.392 500.566 251.174C518.958 243.543 536.355 233.093 553.753 219.22C577.4 200.525 598.435 178.136 618.775 156.481C638.223 135.778 658.33 114.372 680.602 96.359C706.882 75.1029 736.431 61.1094 768.429 54.769C798.142 48.8834 830.782 49.4367 865.442 56.4163C895.801 62.6708 928.193 73.1337 961.721 87.5089C992.643 100.769 1024.72 117.431 1057.07 137.031C1066.81 142.929 1078 149.497 1089.85 156.451C1138.3 184.875 1198.61 220.249 1223.03 247.361L1222.42 248.335C1198.1 221.339 1137.86 186.004 1089.46 157.613C1077.61 150.66 1066.41 144.092 1056.67 138.189C988.512 96.8865 924.123 69.7964 865.296 57.6777C793.556 43.2338 731.58 56.6137 681.096 97.4528C658.88 115.423 638.795 136.803 619.369 157.48C599.003 179.161 577.943 201.58 554.24 220.318C536.778 234.243 519.313 244.731 500.847 252.393C430.485 281.718 348.964 254.216 277.039 229.957C266.958 226.555 257.436 223.346 247.939 220.275C196.267 203.583 149.683 203.24 108.586 202.935C102.546 202.893 96.8383 202.85 91.079 202.76C90.0421 202.742 89.0052 202.717 87.9717 202.687C87.4032 202.674 86.8379 202.657 86.2726 202.644C75.0609 202.369 64.1594 202.339 52.6182 202.305C17.3649 202.198 -19.0901 202.09 -63.4169 194.763C-135.813 182.803 -209.566 211.635 -274.637 237.074C-296.269 245.529 -316.699 253.517 -336.17 259.716C-337.905 260.269 -339.626 260.818 -341.335 261.363C-343.38 262.019 -345.408 262.667 -347.417 263.306C-388.081 276.219 -427.198 281.443 -466.501 279.174L-466.498 279.17Z" fill="#9C9C9C" fill-opacity="0.13"/>
<path d="M-490.285 277.056C-490.311 277.056 -490.336 277.056 -490.362 277.051C-535.6 274.426 -582.608 261.342 -634.073 237.049C-747.617 183.452 -847.421 150.892 -965.427 166.194L-965.523 164.877C-909.675 157.635 -854.479 160.891 -796.789 174.838C-748.761 186.446 -698.475 205.248 -633.74 235.805C-533.168 283.276 -447.282 288.518 -355.263 252.801C-352.65 251.789 -350.005 250.746 -347.327 249.695L-344.003 248.391C-326.806 241.647 -308.853 233.445 -289.847 224.758C-222.574 194.013 -146.327 159.167 -70.8591 175.49C-30.2728 184.271 3.53986 188.574 36.2382 192.735C49.3751 194.408 61.7787 195.987 74.5182 197.831L75.9717 198.041C77.0441 198.2 78.1165 198.354 79.1921 198.5C87.8101 199.659 96.4506 200.667 105.598 201.739C143.029 206.119 185.45 211.078 231.517 227.873C237.655 230.108 243.753 232.369 250.207 234.762C325.714 262.741 411.295 294.455 484.932 260.222C503.334 251.703 520.634 240.116 537.818 224.797C561.082 204.214 581.541 179.612 601.322 155.816C620.341 132.943 640.003 109.298 662.042 89.3972C688.112 65.8589 717.645 50.0765 749.82 42.4921C779.569 35.4782 812.416 35.2811 847.443 41.9045C877.842 47.7859 910.414 58.1672 944.253 72.7611C975.174 86.0982 1007.42 103.06 1040.1 123.175C1048.15 128.126 1056.94 133.449 1066.25 139.086C1116.53 169.527 1179.1 207.406 1206.3 236.56L1205.67 237.589C1178.58 208.543 1116.07 170.698 1065.83 140.292C1056.52 134.655 1047.73 129.331 1039.68 124.376C970.591 81.8471 905.863 54.5423 847.298 43.2129C774.688 29.4854 712.544 45.3921 662.597 90.491C640.616 110.336 620.977 133.956 601.988 156.795C582.177 180.62 561.692 205.257 538.368 225.891C521.112 241.27 503.738 252.908 485.255 261.466C452.276 276.798 413.886 280.252 367.899 272.028C327.684 264.838 288.157 250.193 249.936 236.028C243.482 233.638 237.386 231.378 231.249 229.143C185.269 212.382 142.893 207.428 105.508 203.052C96.3569 201.979 87.7131 200.971 79.0889 199.813C78.01 199.667 76.9343 199.508 75.8588 199.354L74.4084 199.144C61.6753 197.299 49.2717 195.72 36.1414 194.047C3.42688 189.882 -30.4052 185.579 -71.0238 176.794C-146.243 160.523 -222.367 195.313 -289.527 226.007C-308.546 234.698 -326.509 242.909 -343.725 249.656L-347.049 250.961C-349.727 252.012 -352.376 253.054 -354.989 254.067C-401.47 272.105 -445.729 279.625 -490.291 277.051L-490.285 277.056Z" fill="#9C9C9C" fill-opacity="0.13"/>
<path d="M-512.439 275.73C-554.207 273.319 -597.484 261.676 -644.279 240.317C-764.755 185.322 -862.356 153.993 -976.498 167.733L-976.592 166.361C-921.179 159.69 -865.857 163.551 -807.464 178.158C-748.559 192.893 -691.745 217.191 -643.94 239.013C-543.151 285.022 -456.471 286.416 -362.888 243.535C-359.587 242.02 -356.305 240.493 -352.83 238.872L-351.618 238.305C-336.182 231.111 -320.138 222.686 -303.154 213.763C-234.253 177.574 -156.158 136.555 -78.4195 157.476C-50.8732 164.889 -26.7087 171.062 -3.3421 177.034C19.4721 182.864 41.0201 188.367 62.7522 194.287L64.0345 194.635C65.1199 194.931 66.2052 195.231 67.297 195.51C79.3033 198.629 91.5292 201.417 104.469 204.368C139.189 212.288 175.089 220.473 214.868 236.692C217.306 237.688 219.761 238.691 222.229 239.699C297.765 270.573 391.774 308.997 469.296 269.252C487.711 259.84 504.911 247.117 521.886 230.356C544.768 207.895 564.646 181.092 583.868 155.173C602.451 130.116 621.667 104.21 643.483 82.4215C669.337 56.6011 698.85 39.03 731.203 30.1973C761.001 22.0638 794.054 21.1156 829.447 27.3787C887.882 37.9489 953.05 65.5154 1023.14 109.31C1028 112.347 1033.09 115.509 1038.33 118.774C1089.09 150.347 1158.59 193.588 1189.57 225.749L1188.93 226.839C1158.04 194.776 1088.6 151.574 1037.89 120.026C1032.65 116.762 1027.56 113.6 1022.7 110.563C952.704 66.8238 887.637 39.3001 829.307 28.7472C755.826 15.7447 693.517 34.1783 644.106 83.5242C622.355 105.252 603.165 131.124 584.608 156.142C565.356 182.1 545.449 208.942 522.503 231.463C505.454 248.301 488.173 261.084 469.671 270.539C434.986 288.325 394.387 292.267 345.554 282.594C303.036 274.173 259.944 256.559 221.925 241.021C219.458 240.013 217.003 239.009 214.564 238.014C174.85 221.82 138.983 213.639 104.295 205.733C91.3451 202.781 79.116 199.989 67.0967 196.866C66.0017 196.583 64.9132 196.282 63.8247 195.986L62.5455 195.639C40.8167 189.723 19.2718 184.215 -3.53595 178.389C-26.9058 172.418 -51.0701 166.24 -78.6229 158.828C-156.061 137.988 -234.001 178.926 -302.77 215.046C-319.763 223.973 -335.814 232.403 -351.273 239.605L-352.484 240.171C-355.963 241.793 -359.248 243.324 -362.549 244.839C-409.602 266.399 -454.236 276.656 -498.998 276.189C-503.462 276.142 -507.943 275.992 -512.439 275.73Z" fill="#9C9C9C" fill-opacity="0.13"/>
<path d="M-533.227 275.052C-571.839 272.822 -611.754 262.445 -654.485 243.591C-760.7 196.729 -866.102 155.778 -987.57 169.274L-987.66 167.845C-958.596 164.615 -930.206 164.306 -900.867 166.893C-873.964 169.27 -846.905 174.04 -818.141 181.478C-762.283 195.922 -706.308 219.212 -654.142 242.231C-552.972 286.871 -465.498 284.413 -370.517 234.273C-366.766 232.291 -362.884 230.202 -359.231 228.229C-345.196 220.649 -330.664 212 -315.279 202.842C-279.835 181.749 -243.183 159.935 -204.489 146.032C-160.224 130.129 -121.459 127.984 -85.9799 139.477C-32.2956 156.863 10.0414 174.1 50.9862 190.77L51.9778 191.173C53.118 191.637 54.2583 192.104 55.4017 192.555C71.6782 198.955 88.5781 204.682 106.466 210.743C135.596 220.614 165.716 230.82 198.214 245.547C271.47 278.737 371.794 324.192 453.654 278.317C472.085 268.017 489.188 254.157 505.943 235.951C528.444 211.623 547.744 182.637 566.407 154.607C584.554 127.349 603.318 99.1695 624.917 75.4811C650.545 47.3784 680.036 28.014 712.57 17.9329C742.419 8.68401 775.686 6.98523 811.443 12.8837C869.675 22.6903 935.192 50.4799 1006.18 95.4759C1054.65 126.2 1135.77 177.622 1172.84 214.969L1172.18 216.114C1135.21 178.857 1054.15 127.474 1005.71 96.7757C934.833 51.844 869.427 24.1017 811.311 14.3123C736.957 2.04338 674.477 22.995 625.609 76.5921C604.074 100.208 585.339 128.349 567.221 155.563C548.529 183.64 529.2 212.67 506.631 237.07C489.796 255.366 472.605 269.291 454.077 279.647C418.139 299.788 375.99 304.335 325.219 293.554C279.271 283.795 232.221 262.479 197.865 246.915C165.406 232.21 135.305 222.009 106.198 212.146C88.2971 206.08 71.3907 200.349 55.0948 193.945C53.9482 193.494 52.8015 193.027 51.6613 192.559L50.6697 192.156C9.74103 175.494 -32.5798 158.262 -86.2351 140.888C-165.418 115.243 -244.798 162.487 -314.836 204.167C-330.231 213.33 -344.769 221.983 -358.824 229.572C-362.48 231.545 -366.363 233.638 -370.116 235.62C-417.67 260.724 -462.649 273.718 -507.625 275.348C-516.104 275.657 -524.634 275.563 -533.223 275.065L-533.227 275.052Z" fill="#9C9C9C" fill-opacity="0.13"/>
<path d="M-552.839 274.902C-588.602 272.839 -625.503 263.56 -664.691 246.86C-759.226 206.574 -841.917 174.465 -930.764 169.334C-952.919 168.056 -975.439 168.45 -998.641 170.814L-998.729 169.325C-969.703 166.37 -941.246 166.361 -911.726 169.308C-884.951 171.981 -857.831 177.043 -828.819 184.79C-774.055 199.41 -719.774 221.82 -664.348 245.44C-562.652 288.78 -474.383 282.478 -378.151 225.007C-374.178 222.635 -370.212 220.207 -366.852 218.144C-353.935 210.207 -340.601 201.323 -326.486 191.916C-292.269 169.119 -253.489 143.278 -214.153 127.65C-169.093 109.744 -129.643 107.723 -93.5436 121.468C-48.6129 138.576 -11.8415 158.961 23.722 178.677C28.7965 181.491 34.0421 184.4 39.2168 187.244L39.9307 187.639C41.1194 188.291 42.308 188.947 43.5032 189.586C65.5356 201.366 88.9927 211.82 113.826 222.892C135.558 232.579 158.026 242.6 181.558 254.38C263.993 295.648 358.593 335.638 438.009 287.356C456.456 276.164 473.462 261.171 490 241.519C512.12 215.338 530.842 184.181 548.943 154.049C566.648 124.582 584.956 94.1119 606.346 68.5102C631.737 38.1253 661.202 16.9721 693.92 5.63404C723.831 -4.73018 757.311 -7.17965 793.43 -1.64149C851.478 7.42292 917.343 35.4311 989.2 81.6111C1069.87 133.449 1126.01 174.683 1156.09 204.159L1155.42 205.36C1125.4 175.94 1069.31 134.754 988.712 82.954C916.968 36.8469 851.226 8.88584 793.304 -0.161412C718.078 -11.6925 655.43 11.7814 607.098 69.6126C585.773 95.1285 567.497 125.552 549.822 154.972C531.688 185.151 512.941 216.359 490.746 242.626C474.124 262.38 457.024 277.455 438.474 288.707C419.403 300.298 398.12 307.393 375.215 309.783C354.963 311.898 332.662 310.409 308.927 305.351C264.988 295.991 221.55 275.988 181.157 255.765C157.645 243.994 135.183 233.982 113.464 224.295C88.6147 213.215 65.1449 202.752 43.0801 190.959C41.8817 190.32 40.6897 189.663 39.4978 189.007L38.7839 188.612C33.6094 185.768 28.3605 182.86 23.2859 180.046C-12.2484 160.347 -48.9909 139.974 -93.8571 122.892C-174.384 92.2327 -254.926 145.894 -325.985 193.241C-340.11 202.653 -353.454 211.542 -366.384 219.486C-369.743 221.55 -373.716 223.982 -377.693 226.359C-425.698 255.028 -471.023 270.763 -516.248 274.469C-528.341 275.46 -540.525 275.606 -552.842 274.894L-552.839 274.902Z" fill="#9C9C9C" fill-opacity="0.13"/>
<path d="M-571.457 275.185C-604.646 273.268 -638.83 264.963 -674.891 250.128L-678.005 248.846C-792.173 201.881 -890.775 161.32 -1009.71 172.349L-1009.79 170.805C-955.358 165.756 -901.722 171.118 -840.996 187.681C-786.856 202.447 -733.815 224.265 -677.663 247.366L-674.549 248.648C-572.216 290.74 -483.156 280.591 -385.778 215.741C-382.512 213.566 -378.92 211.125 -374.469 208.058C-362.466 199.792 -350.101 190.663 -337.013 180.998C-302.451 155.478 -263.276 126.551 -223.4 109.173C-177.672 89.2425 -137.667 87.3722 -101.099 103.459C-59.3596 121.824 -24.9848 146.366 8.25946 170.102C14.5452 174.589 21.0442 179.23 27.4559 183.726L27.7014 183.898C29.0032 184.812 30.3049 185.721 31.613 186.617C62.4056 207.711 96.3411 226.045 132.27 245.457C142.871 251.184 153.837 257.108 164.913 263.208C242.855 306.128 342.556 348.691 422.375 296.394C440.838 284.314 457.748 268.188 474.069 247.091C495.814 219.066 513.955 185.751 531.497 153.53C548.756 121.837 566.599 89.0625 587.792 61.5432C612.941 28.8847 642.377 5.93846 675.282 -6.65648C705.261 -18.1318 738.961 -21.3319 775.441 -16.1584C833.328 -7.82327 899.542 20.408 972.248 67.7549C1042.34 113.403 1104.82 160.355 1139.37 193.357L1138.69 194.614C1104.19 161.659 1041.77 114.759 971.735 69.1449C899.151 21.8795 833.066 -6.30474 775.315 -14.6184C699.214 -25.403 636.395 0.593262 588.606 62.6542C567.487 90.0791 549.67 122.798 532.441 154.439C514.869 186.712 496.696 220.082 474.88 248.202C458.471 269.415 441.465 285.635 422.888 297.784C403.74 310.328 382.364 318.148 359.346 321.022C338.88 323.579 316.431 322.3 292.625 317.226C245.365 307.149 199.307 283.829 164.464 264.641C153.391 258.545 142.428 252.621 131.827 246.894C95.876 227.469 61.9178 209.122 31.0769 187.999C29.7654 187.102 28.4604 186.184 27.1555 185.27L26.91 185.099C20.4951 180.599 13.9929 175.957 7.70709 171.466C-25.4919 147.765 -59.8215 123.252 -101.464 104.931C-183.001 69.0547 -264.523 129.245 -336.444 182.353C-349.542 192.023 -361.914 201.16 -373.93 209.435C-378.387 212.507 -381.986 214.948 -385.254 217.127C-433.68 249.373 -479.341 267.854 -524.85 273.615C-540.222 275.563 -555.73 276.09 -571.46 275.181L-571.457 275.185Z" fill="#9C9C9C" fill-opacity="0.13"/>
<path d="M308.952 333.642C298.389 333.033 287.478 331.536 276.286 329.151C238.494 321.103 196.457 302.906 147.766 273.516C97.3767 243.101 56.2058 216.414 19.0758 185.03C17.7289 183.889 16.3948 182.743 15.0382 181.572C8.11926 175.601 1.11316 169.398 -5.66357 163.401C-37.1378 135.538 -69.6842 106.728 -109.075 86.9644C-191.336 45.6919 -273.714 112.51 -346.391 171.461C-358.643 181.401 -370.216 190.787 -381.477 199.379C-385.734 202.631 -389.442 205.415 -392.817 207.89C-441.569 243.689 -487.56 264.877 -533.417 272.671C-581.756 280.886 -631.367 274.584 -685.09 253.406C-691.405 250.883 -697.684 248.369 -703.931 245.864C-808.425 203.965 -907.121 164.392 -1020.78 173.898L-1020.86 172.298C-968.868 167.952 -917.528 173.194 -859.286 188.792C-807.472 202.674 -757.012 222.905 -703.586 244.328C-697.339 246.833 -691.063 249.347 -684.748 251.87C-651.927 264.808 -620.446 272.225 -589.641 274.005C-523.494 277.828 -460.401 255.683 -393.402 206.492C-390.033 204.017 -386.331 201.237 -382.08 197.994C-370.833 189.41 -359.269 180.028 -347.024 170.093C-312.162 141.814 -272.651 109.765 -232.323 90.6193C-186.013 68.6339 -145.563 66.9481 -108.652 85.4673C-69.1318 105.295 -36.5272 134.157 -4.99817 162.071C1.77533 168.068 8.7782 174.267 15.6938 180.23C17.0505 181.401 18.3813 182.542 19.7251 183.679C56.797 215.016 97.9226 241.673 148.267 272.058C218.919 314.699 322.58 364.555 406.737 305.45C425.219 292.481 442.029 275.219 458.134 252.676C479.505 222.819 497.07 187.355 514.054 153.062C530.86 119.13 548.238 84.0473 569.234 54.5933C594.135 19.6613 623.538 -5.07813 656.63 -18.9343C686.687 -31.5206 720.606 -35.4673 757.442 -30.667C815.187 -23.0526 881.749 5.40204 955.286 53.9071C1016.26 94.1243 1081.95 144.624 1122.64 182.563L1121.94 183.876C1081.3 145.98 1015.67 95.5269 954.747 55.3441C881.339 6.92905 814.918 -21.4739 757.319 -29.0669C680.349 -39.1008 617.356 -10.582 570.109 55.7001C549.188 85.0511 531.839 120.073 515.061 153.95C498.048 188.303 480.454 223.823 459.01 253.787C442.814 276.459 425.901 293.824 407.302 306.874C388.08 320.374 366.603 328.928 343.466 332.291C332.474 333.891 320.939 334.342 308.958 333.651L308.952 333.642Z" fill="#9C9C9C" fill-opacity="0.13"/>
<path d="M290.939 345.406C244.054 342.699 190.632 321.678 131.062 282.384C82.8657 250.596 42.3053 217.775 7.06812 182.049C5.75989 180.719 4.45813 179.376 3.15637 178.034C-4.0144 170.612 -11.2661 162.861 -18.2753 155.362C-48.2216 123.338 -79.1854 90.2295 -116.697 68.9863C-199.436 22.1371 -286.248 98.9078 -356.002 160.591C-367.534 170.788 -378.425 180.419 -389.033 189.312C-393.2 192.803 -396.915 195.858 -400.39 198.642C-449.52 238.053 -495.846 261.994 -542.021 271.844C-563.152 276.348 -584.516 277.987 -606.322 276.725C-635.025 275.07 -664.503 268.399 -695.302 256.662C-707.473 251.995 -719.657 247.233 -731.437 242.634C-830.501 203.936 -924.074 167.391 -1031.86 175.426L-1031.93 173.77C-923.932 165.717 -830.259 202.306 -731.085 241.043C-719.305 245.646 -707.124 250.403 -694.956 255.07C-590.957 294.695 -500.307 276.858 -401.036 197.222C-397.567 194.438 -393.859 191.392 -389.702 187.905C-379.107 179.025 -368.222 169.398 -356.697 159.206C-321.563 128.134 -281.742 92.9192 -241.007 71.9806C-194.174 47.906 -153.352 46.4259 -116.209 67.4547C-78.5361 88.7837 -47.5045 121.97 -17.4936 154.062C-10.4875 161.556 -3.23914 169.304 3.92517 176.717C5.22375 178.059 6.52539 179.398 7.82715 180.723C42.9998 216.38 83.4923 249.146 131.618 280.891C239.009 351.724 326.309 363.028 391.092 314.493C409.594 300.637 426.307 282.242 442.192 258.253C463.191 226.569 480.178 188.977 496.606 152.621C512.954 116.44 529.86 79.0286 550.662 47.6314C575.308 10.4343 604.679 -16.0983 637.956 -31.22C668.093 -44.9174 702.235 -49.619 739.426 -45.1833C770.209 -41.4897 803.848 -31.5631 839.405 -15.6735C870.391 -1.83027 903.667 16.9205 938.31 40.0513C992.392 76.1631 1055.04 125.398 1105.89 171.762L1105.19 173.13C1054.37 126.809 991.781 77.613 937.748 41.5355C863.537 -8.01626 796.777 -36.6337 739.316 -43.5275C661.464 -52.8021 598.309 -21.7608 551.599 48.734C530.871 80.0197 513.994 117.363 497.676 153.479C481.218 189.899 464.202 227.555 443.126 259.356C427.146 283.486 410.327 301.997 391.702 315.947C362.551 337.787 328.883 347.598 290.936 345.41L290.939 345.406Z" fill="#9C9C9C" fill-opacity="0.13"/>
<path d="M272.928 357.168C263.367 356.615 253.551 355.276 243.483 353.153C222.073 348.631 199.44 340.485 176.209 328.95C155.96 318.89 135.151 306.209 114.356 291.255C71.667 260.561 31.5328 222.815 -4.93494 179.072C-13.5336 168.759 -22.1675 157.811 -30.5174 147.224C-59.0134 111.091 -88.4816 73.7305 -124.32 51.0202C-161.249 27.6192 -202.033 28.8889 -249.002 54.9024C-289.975 77.5956 -330.032 115.959 -365.373 149.81C-380.357 164.164 -394.508 177.716 -407.958 189.414C-457.437 232.441 -504.099 259.141 -550.606 271.037C-574.289 277.094 -598.24 279.428 -622.757 278.012C-649.522 276.468 -676.961 270.458 -705.506 259.948C-722.835 253.569 -740.074 246.962 -756.745 240.575C-851.122 204.407 -940.267 170.247 -1042.94 176.978L-1043 175.262C-940.115 168.518 -850.87 202.717 -756.386 238.923C-739.719 245.311 -722.483 251.917 -705.16 258.292C-600.379 296.862 -508.938 275.176 -408.666 187.977C-395.241 176.3 -381.1 162.757 -366.128 148.416C-330.73 114.514 -290.612 76.0855 -249.499 53.3151C-202.172 27.1042 -161.043 25.843 -123.761 49.4714C-87.7354 72.2976 -58.1929 109.756 -29.6226 145.98C-21.2793 156.558 -12.6517 167.498 -4.06604 177.797C32.3275 221.451 72.3776 259.115 114.976 289.745C174.42 332.489 287.302 393.717 375.452 323.548C424.501 284.507 452.296 217.255 479.177 152.217C495.062 113.78 511.491 74.035 532.105 40.6772C549.667 12.2571 569.872 -10.496 592.153 -26.956C612.958 -42.3265 636.124 -52.6136 661.009 -57.5341C684.02 -62.0813 709.112 -62.1541 735.589 -57.7527C759.779 -53.7332 785.781 -45.8657 812.872 -34.369C858.982 -14.8074 908.277 14.8655 963.583 56.3309C1009.58 90.8255 1051.13 127.002 1089.17 160.956L1088.45 162.38C1001.91 85.1414 908.59 8.04468 812.482 -32.7387C689.818 -84.7829 595.826 -59.7175 533.107 41.7627C512.57 74.996 496.17 114.668 480.311 153.041C466.851 185.609 452.932 219.284 436.484 249.081C418.008 282.555 398.263 307.393 376.117 325.02C346.426 348.653 311.819 359.411 272.932 357.168H272.928Z" fill="#9C9C9C" fill-opacity="0.13"/>
</svg>
