<svg width="75" height="105" viewBox="0 0 75 105" fill="none" xmlns="http://www.w3.org/2000/svg">
<path d="M51.6279 22.0651V5.111C51.6279 3.43904 50.2767 2.08356 48.61 2.08356H26.4788C24.8121 2.08356 23.4609 3.43904 23.4609 5.111V10.3301" stroke="#008056" stroke-width="4" stroke-miterlimit="10" stroke-linecap="round" stroke-linejoin="round"/>
<path d="M23.4609 82.4113V99.3653C23.4609 101.037 24.8121 102.393 26.4788 102.393H48.61C50.2767 102.393 51.6279 101.037 51.6279 99.3653V96.237" stroke="#008056" stroke-width="4" stroke-miterlimit="10" stroke-linecap="round" stroke-linejoin="round"/>
<path d="M51.6279 89.173V82.4113" stroke="#008056" stroke-width="4" stroke-miterlimit="10" stroke-linecap="round" stroke-linejoin="round"/>
<path d="M54.0914 47.3943V26.404C54.0914 23.6174 51.8394 21.3583 49.0616 21.3583H26.5302C25.748 24.4549 23.7131 27.0493 20.999 28.5708V78.0723C20.999 80.859 23.251 83.1181 26.0288 83.1181H49.0616C51.8394 83.1181 54.0914 80.859 54.0914 78.0723V54.4583" stroke="#008056" stroke-width="4" stroke-miterlimit="10" stroke-linecap="round" stroke-linejoin="round"/>
<path d="M46.2925 66.5477H41.9182C40.807 66.5477 39.9062 65.6441 39.9062 64.5294V54.5249C39.9062 53.4102 40.807 52.5067 41.9182 52.5067H46.2925C47.4037 52.5067 48.3044 53.4102 48.3044 54.5249V64.5294C48.3044 65.6441 47.4035 66.5477 46.2925 66.5477Z" stroke="#008056" stroke-width="4" stroke-miterlimit="10" stroke-linecap="round" stroke-linejoin="round"/>
<path d="M33.1704 66.5477H28.7961C27.6849 66.5477 26.7842 65.6441 26.7842 64.5294V61.5454C26.7842 60.4307 27.6849 59.5271 28.7961 59.5271H33.1704C34.2816 59.5271 35.1824 60.4307 35.1824 61.5454V64.5294C35.1824 65.6441 34.2816 66.5477 33.1704 66.5477Z" stroke="#008056" stroke-width="4" stroke-miterlimit="10" stroke-linecap="round" stroke-linejoin="round"/>
<path d="M33.1704 59.527H28.7961C27.6849 59.527 26.7842 58.6234 26.7842 57.5087V54.5247C26.7842 53.41 27.6849 52.5064 28.7961 52.5064H33.1704C34.2816 52.5064 35.1824 53.41 35.1824 54.5247V57.5087C35.1824 58.6234 34.2816 59.527 33.1704 59.527Z" stroke="#008056" stroke-width="4" stroke-miterlimit="10" stroke-linecap="round" stroke-linejoin="round"/>
<path d="M44.7013 28.7219C41.7407 27.5992 38.6138 29.171 37.5443 31.8955C36.4747 29.171 33.3478 27.5992 30.3872 28.7219C26.6032 30.1572 25.5572 35.0321 28.418 37.9018L37.5443 47.0569L46.6706 37.9018C49.5313 35.0321 48.4853 30.157 44.7013 28.7219Z" stroke="#008056" stroke-width="4" stroke-miterlimit="10" stroke-linecap="round" stroke-linejoin="round"/>
<path d="M26.7842 74.1023V76.1206" stroke="#008056" stroke-width="4" stroke-miterlimit="10" stroke-linecap="round" stroke-linejoin="round"/>
<path d="M31.0879 74.1024V76.1207" stroke="#008056" stroke-width="4" stroke-miterlimit="10" stroke-linecap="round" stroke-linejoin="round"/>
<path d="M35.3926 74.1024V76.1207" stroke="#008056" stroke-width="4" stroke-miterlimit="10" stroke-linecap="round" stroke-linejoin="round"/>
<path d="M39.6963 74.1024V76.1207" stroke="#008056" stroke-width="4" stroke-miterlimit="10" stroke-linecap="round" stroke-linejoin="round"/>
<path d="M44 74.1024V76.1207" stroke="#008056" stroke-width="4" stroke-miterlimit="10" stroke-linecap="round" stroke-linejoin="round"/>
<path d="M48.3047 74.1024V76.1207" stroke="#008056" stroke-width="4" stroke-miterlimit="10" stroke-linecap="round" stroke-linejoin="round"/>
<path d="M65.1543 36.5006C74.4814 45.1783 74.4814 59.298 65.1543 67.9757" stroke="#008056" stroke-width="4" stroke-miterlimit="10" stroke-linecap="round" stroke-linejoin="round"/>
<path d="M59.9971 41.2986C66.4805 47.3307 66.4805 57.1457 59.9971 63.1777" stroke="#008056" stroke-width="4" stroke-miterlimit="10" stroke-linecap="round" stroke-linejoin="round"/>
<path d="M9.93477 67.9758C0.607681 59.2982 0.607681 45.1784 9.93477 36.5007" stroke="#008056" stroke-width="4" stroke-miterlimit="10" stroke-linecap="round" stroke-linejoin="round"/>
<path d="M15.0921 63.1777C8.60863 57.1456 8.60863 47.3307 15.0921 41.2986" stroke="#008056" stroke-width="4" stroke-miterlimit="10" stroke-linecap="round" stroke-linejoin="round"/>
<path d="M4.60368 22.3675C6.18083 26.8305 10.424 30.0279 15.4136 30.0279C21.7471 30.0279 26.8815 24.8772 26.8815 18.5236C26.8815 12.17 21.7471 7.01935 15.4136 7.01935C10.1946 7.01935 5.79313 10.5177 4.4043 15.3034" stroke="#008056" stroke-width="4" stroke-miterlimit="10" stroke-linecap="round" stroke-linejoin="round"/>
<path d="M15.4138 12.4869L11.8905 18.2414C10.1983 21.0053 12.1806 24.5603 15.4138 24.5603C18.647 24.5603 20.6293 21.0051 18.9371 18.2414L15.4138 12.4869Z" stroke="#008056" stroke-width="4" stroke-miterlimit="10" stroke-linecap="round" stroke-linejoin="round"/>
</svg>
