<svg width="28" height="28" viewBox="0 0 28 28" fill="none" xmlns="http://www.w3.org/2000/svg">
<path fill-rule="evenodd" clip-rule="evenodd" d="M16.26 6.48133C17.164 6.48133 18.0893 6.53333 19.0013 6.616C18.8747 6.31734 18.732 6.04 18.5827 5.764C17.4627 3.67333 15.9093 2.20934 14.1093 1.51467L14.356 6.57867C14.968 6.51067 15.6027 6.48133 16.26 6.48133ZM13.3093 1.612C11.6067 2.344 10.1427 3.77067 9.06667 5.764C8.87333 6.12267 8.70133 6.504 8.52933 6.9C10.016 6.48933 11.748 6.40667 13.4813 6.39867L13.3093 1.612ZM11.1213 1.67867C8.724 2.19467 6.55067 3.38134 4.79467 5.13733C4.1 5.824 3.49467 6.59334 2.98 7.42267C4.40667 7.124 5.94533 6.892 7.544 6.72C7.63333 6.28 7.88 5.75733 8.14133 5.27067C8.93333 3.792 9.948 2.568 11.1213 1.67867ZM16.536 1.67867C17.7013 2.568 18.7253 3.792 19.516 5.264C19.7773 5.75733 20.0173 6.28 20.2333 6.832C21.72 6.9 23.244 7.13067 24.6773 7.42267C24.1627 6.59334 23.5573 5.824 22.8627 5.13733C21.1067 3.38134 18.9333 2.19467 16.536 1.67867ZM20.308 7.804C21.1373 9.43867 21.4733 11.5453 21.5027 13.824L26.5893 13.652C26.5227 11.8667 26.0893 10.164 25.312 8.572C23.8333 8.296 22.1013 8.00533 20.308 7.804ZM14.356 13.824L20.4427 13.652C20.3973 11.4253 20.0467 9.39467 19.3973 7.60134C17.8213 7.54934 16.0067 7.46 14.1693 7.44533L14.356 13.824ZM13.3027 7.452C11.532 7.46667 9.77733 7.55733 8.096 7.72133C7.588 9.43867 7.23733 11.5373 7.208 13.8307L13.4813 13.644L13.3027 7.452ZM7.05867 7.83333C5.37067 8.03467 3.74133 8.31867 2.21867 8.66933C1.53867 10.216 1.10533 11.9933 1.05333 13.8307L6.33333 13.644C6.192 11.6493 6.49067 9.648 7.05867 7.83333ZM0.873333 14.6973C1.10533 16.348 1.53867 18.1187 2.33733 19.776C3.72667 20.0307 5.348 20.3067 7.05867 20.508C6.49067 18.6933 6.184 16.684 6.15467 14.5187L0.873333 14.6973ZM21.496 14.6893C21.4507 16.9 21.1147 18.9547 20.5027 20.784C22.1227 20.336 23.848 20.0453 25.44 19.672C26.1187 18.1253 26.552 16.356 26.5973 14.5107L21.496 14.6893ZM7.21467 14.6893C7.26 16.916 7.61067 18.9467 8.25333 20.74C9.79867 20.784 11.6147 20.8813 13.4813 20.8893L13.3027 14.5187L7.21467 14.6893ZM14.356 21.076C16.044 20.8813 17.8507 20.784 19.5533 20.62C20.0613 18.9027 20.4133 16.8107 20.4507 14.5107L14.356 14.6893V21.076ZM24.6773 20.9187C23.244 21.2173 21.712 21.4493 20.1067 21.6213C20.0173 22.0613 19.7773 22.584 19.516 23.0707C18.7253 24.5493 17.7013 25.7733 16.536 26.6627C18.9333 26.148 21.1067 24.96 22.8627 23.204C23.5493 22.5173 24.1627 21.748 24.6773 20.9187ZM2.98 20.9187C3.49467 21.748 4.108 22.5173 4.79467 23.204C6.55067 24.96 8.724 26.148 11.1213 26.6627C9.948 25.7733 8.93333 24.5493 8.14133 23.0707C7.88 22.584 7.63333 22.0613 7.41733 21.5093C5.93067 21.4413 4.40667 21.2107 2.98 20.9187ZM8.656 21.7253C8.784 22.0173 8.92533 22.3013 9.06667 22.5693C10.188 24.6613 11.7413 26.132 13.5493 26.8267L13.3027 21.7627C12.6893 21.8307 12.048 21.86 11.3907 21.86C10.4933 21.86 9.568 21.808 8.656 21.7253ZM19.0013 21.7253C17.4253 21.868 15.7973 21.9347 14.1693 21.9493L14.356 26.992C15.916 26.132 17.4627 24.6613 18.5907 22.5773C18.732 22.3013 18.8667 22.0173 19.0013 21.7253ZM13.8253 28C10.1347 28 6.66267 26.5653 4.048 23.952C1.43333 21.3373 0 17.864 0 14.1667C0 10.4773 1.43333 7.004 4.048 4.39067C6.66267 1.776 10.1347 0.341335 13.8253 0.341335C17.5227 0.341335 20.996 1.776 23.6027 4.39067C26.216 7.004 27.6573 10.4773 27.6573 14.1667C27.6573 17.864 26.216 21.3373 23.6027 23.952C20.996 26.5653 17.5227 28 13.8253 28Z" fill="white"/>
</svg>
