<svg width="357" height="388" viewBox="0 0 357 388" fill="none" xmlns="http://www.w3.org/2000/svg">
<path d="M50.4557 205.211L160.843 325.152L353.764 138.895L296.714 6.44263L160.843 24.1205L50.4557 205.211Z" fill="#A9D054" stroke="#502A73" stroke-width="0.49" stroke-linecap="round" stroke-linejoin="round"/>
<path d="M160.842 325.152L335.11 156.913C293.983 86.3754 233.218 150.983 233.218 150.983C233.218 150.983 243.287 202.504 233.218 214.886C223.15 227.269 224.845 234.607 203.581 230.015C182.318 225.424 163.649 173.282 116.78 172.065C92.9145 171.422 66.061 198.638 56.2273 211.498L160.842 325.152Z" fill="#EEC718" stroke="#502A73" stroke-width="0.49" stroke-linecap="round" stroke-linejoin="round"/>
<path d="M280.253 183.849L256.721 146.527L220.139 134.651L190.071 134.605L152.249 198.653C152.249 198.653 123.671 199.576 140.093 214.977C169.042 242.11 200.487 251.959 255.926 250.885C287.061 250.28 280.253 183.849 280.253 183.849Z" fill="#502A73" stroke="#502A73" stroke-width="0.49" stroke-linecap="round" stroke-linejoin="round"/>
<path d="M280.253 183.849L256.721 146.527L220.139 134.651L190.071 134.605L152.249 198.653C152.249 198.653 123.671 199.576 140.093 214.977C169.042 242.11 200.487 251.959 255.926 250.885C287.061 250.28 280.253 183.849 280.253 183.849Z" stroke="#502A73" stroke-width="0.49" stroke-linecap="round" stroke-linejoin="round"/>
<path d="M58.9654 262.141C58.9654 262.141 51.1741 268.117 58.1258 284.297C70.3573 312.785 110.66 342.112 116.568 328.813C123.731 312.694 114.246 265.946 114.246 265.946L88.9279 252.02L58.9654 262.141Z" fill="#502A73" stroke="#502A73" stroke-width="0.49" stroke-linecap="round" stroke-linejoin="round"/>
<path d="M112.726 320.311L127.053 286.173L82.4228 262.905L69.6768 263.48L62.0368 281.983L82.0899 322.505" fill="#BF792A"/>
<path d="M112.726 320.311L127.053 286.173L82.4228 262.905L69.6768 263.48L62.0368 281.983L82.0899 322.505" stroke="#502A73" stroke-width="0.49" stroke-linecap="round" stroke-linejoin="round"/>
<path d="M250.246 307.678L269.701 302.247L254.209 357.527L243.786 356.9L250.246 307.678Z" fill="#EAE7DA" stroke="#502A73" stroke-width="0.49" stroke-linecap="round" stroke-linejoin="round"/>
<path d="M270.949 302.882L250.866 310.522" stroke="#502A73" stroke-width="0.49" stroke-linecap="round" stroke-linejoin="round"/>
<path d="M248.264 318.79L268.339 311.15" stroke="#502A73" stroke-width="0.49" stroke-linecap="round" stroke-linejoin="round"/>
<path d="M245.654 327.051L265.73 319.411" stroke="#502A73" stroke-width="0.49" stroke-linecap="round" stroke-linejoin="round"/>
<path d="M243.044 335.319L263.128 327.679" stroke="#502A73" stroke-width="0.49" stroke-linecap="round" stroke-linejoin="round"/>
<path d="M240.435 343.578L260.518 335.938" stroke="#502A73" stroke-width="0.49" stroke-linecap="round" stroke-linejoin="round"/>
<path d="M248.098 303.798C244.194 306.067 241.736 306.725 238.657 325.152C235.579 343.579 232.417 368.942 233.408 377.256C234.399 385.569 240.011 387.974 249.081 386.598C258.151 385.221 272.039 375.584 287.72 348.231C303.401 320.878 307.251 309.418 307.735 305.651C308.219 301.884 309.157 295.023 300.065 290.22C298.242 289.259 295.133 287.459 295.133 287.459L288.083 290.273C283.468 292.084 278.39 292.35 273.612 291.029C270.934 290.273 267.795 290.273 265.291 292.497C261.797 295.606 259.822 303.843 257.727 314.834C256.827 319.562 251.918 341.597 251.131 346.68C251.086 346.979 250.941 347.254 250.72 347.46C250.499 347.666 250.214 347.791 249.913 347.815C249.721 347.83 249.528 347.803 249.348 347.736C249.168 347.67 249.003 347.565 248.867 347.429C248.731 347.294 248.625 347.13 248.558 346.95C248.49 346.77 248.462 346.577 248.476 346.385C248.741 342.49 250.571 330.803 251.759 323.397C255.564 299.706 249.565 302.951 248.098 303.798Z" fill="#EAE7DA" stroke="#502A73" stroke-width="0.49" stroke-linecap="round" stroke-linejoin="round"/>
<path d="M300.065 290.22C298.242 289.259 295.133 287.459 295.133 287.459L288.635 290.054C292.88 293.225 297.797 295.378 303.007 296.347L307.084 297.172C306.04 294.744 303.983 292.315 300.065 290.22Z" fill="#4BBEA5" stroke="#502A73" stroke-width="0.49" stroke-linecap="round" stroke-linejoin="round"/>
<path d="M297.863 293.389C289.943 296.627 289.437 301.567 289.134 306.703C288.831 311.839 294.611 323.488 288.65 330.969C282.689 338.45 275.564 334.411 268.536 339.895C261.509 345.379 264.626 361.151 263.241 369.101C261.857 377.051 248.46 379.691 248.46 379.691L253.287 385.433C262.182 382.051 274.285 371.628 287.712 348.216C303.4 320.856 307.243 309.403 307.727 305.636C308.083 302.883 308.673 298.48 305.42 294.433C303.703 292.936 301.245 292.013 297.863 293.389Z" fill="#4BBEA5" stroke="#502A73" stroke-width="0.49" stroke-linecap="round" stroke-linejoin="round"/>
<path d="M239.406 377.543C238.262 378.236 237.376 379.283 236.882 380.526C236.388 381.768 236.313 383.138 236.668 384.427C239.368 386.87 243.604 387.453 249.119 386.598C252.205 386.129 255.851 384.699 259.936 381.946C254.179 377.278 245.563 373.292 239.406 377.543Z" fill="#4BBEA5" stroke="#502A73" stroke-width="0.49" stroke-linecap="round" stroke-linejoin="round"/>
<path d="M282.523 293.608C282.167 294.312 281.676 295.288 281.01 296.634C278.589 301.475 275.049 309.819 275.049 309.819L281.555 310.469L283.279 293.298L282.523 293.608Z" fill="#4BBEA5" stroke="#502A73" stroke-width="0.49" stroke-linecap="round" stroke-linejoin="round"/>
<path d="M58.9654 262.141C58.9654 262.141 51.1741 268.117 58.1258 284.297C70.3573 312.785 110.66 342.112 116.568 328.813C123.731 312.694 114.246 265.946 114.246 265.946L88.9279 252.02L58.9654 262.141Z" stroke="#502A73" stroke-width="0.49" stroke-linecap="round" stroke-linejoin="round"/>
<path d="M356.427 231.271C356.427 231.271 355.617 238.722 341.918 236.838C330.054 235.295 317.997 236.28 306.54 239.728C298.65 242.194 278.241 254.403 278.241 254.403L268.756 235.537L284.838 219.138L346.865 215.877C349.694 216.089 355.436 226.21 355.988 228.994L356.427 231.271Z" fill="#502A73" stroke="#502A73" stroke-width="0.49" stroke-linecap="round" stroke-linejoin="round"/>
<path d="M356.427 231.271C356.427 231.271 355.617 238.722 341.918 236.838C330.054 235.295 317.997 236.28 306.54 239.728C298.65 242.194 278.241 254.403 278.241 254.403L268.756 235.537L284.838 219.138L346.865 215.877C349.694 216.089 355.436 226.21 355.988 228.994L356.427 231.271Z" stroke="#502A73" stroke-width="0.49" stroke-linecap="round" stroke-linejoin="round"/>
<path d="M104.76 201.127L110.471 203.721L120.827 189.258H108.27L104.329 191.149C104.329 191.149 103.996 192.465 103.996 192.662V195.582C103.996 195.582 102.604 197.503 104.76 201.127Z" fill="#502A73" stroke="#502A73" stroke-width="0.49" stroke-linecap="round" stroke-linejoin="round"/>
<path d="M104.76 201.127L110.471 203.721L120.827 189.258H108.27L104.329 191.149C104.329 191.149 103.996 192.465 103.996 192.662V195.582C103.996 195.582 102.604 197.503 104.76 201.127Z" stroke="#502A73" stroke-width="0.49" stroke-linecap="round" stroke-linejoin="round"/>
<path d="M143.293 148.986C143.293 148.986 85.5544 227.118 75.0021 241.271C64.4498 255.424 58.9656 262.156 58.9656 262.156C58.9656 262.156 74.5785 257.201 96.5227 282.837C123.505 314.358 116.568 328.828 116.568 328.828C116.568 328.828 134.503 290.25 145.26 269.758C156.016 249.266 202.908 158.751 202.908 158.751C202.908 158.751 195.056 197.39 198.43 218.275C202.605 244.107 215.071 270.174 222.485 287.27C229.898 304.365 237.038 313.215 237.038 313.215C237.038 313.215 264.679 313.427 283.453 302.247C302.228 291.067 308.143 282.202 308.143 282.202L259.671 201.8C257.921 198.929 256.934 195.659 256.804 192.299C256.501 184.235 255.942 168.85 255.79 162.798C255.579 154.364 256.993 128.622 256.993 128.622L182.787 116.383L143.293 148.986Z" fill="#008056" stroke="#502A73" stroke-width="0.49" stroke-linecap="round" stroke-linejoin="round"/>
<path d="M202.87 131.951C202.87 131.951 199.285 140.605 198.233 144.81C197.182 149.016 202.87 149.667 202.87 149.667" fill="#008056"/>
<path d="M202.87 131.951C202.87 131.951 199.285 140.605 198.233 144.81C197.182 149.016 202.87 149.667 202.87 149.667" stroke="#502A73" stroke-width="0.49" stroke-linecap="round" stroke-linejoin="round"/>
<path d="M296.714 293.253C289.565 282.156 271.381 253.79 264.943 242.315C254.86 224.289 247.545 213.616 246.297 202.647C245.049 191.679 247.144 146.527 247.144 146.527L242.084 138.895C242.084 138.895 241.569 146.202 240.185 161.716C238.627 179.115 236.524 205.65 243.559 219.206C253.393 238.192 282.137 283.132 291.214 297.255C293.264 295.863 295.087 294.517 296.714 293.253Z" fill="#008056" stroke="#502A73" stroke-width="0.49" stroke-linecap="round" stroke-linejoin="round"/>
<path d="M202.908 158.736V156.157C202.91 155.676 202.808 155.2 202.609 154.762C202.409 154.324 202.117 153.935 201.752 153.622C201.387 153.308 200.959 153.077 200.496 152.945C200.034 152.814 199.548 152.784 199.073 152.859C194.655 153.615 186.75 157.617 177.136 174.326C162.158 200.31 116.621 285.22 108.83 299.358" stroke="#502A73" stroke-width="0.49" stroke-linecap="round" stroke-linejoin="round"/>
<path d="M257.719 105.695C256.138 99.1365 258.982 92.5101 258.982 92.5101L278.884 66.1407C271.742 62.3271 263.808 60.2317 255.714 60.0211C250.881 59.9077 245.495 59.6732 240.586 59.416C240.586 59.416 237.613 55.1875 234.905 51.655C232.197 48.1224 229.39 48.8562 229.39 48.8562C229.39 48.8562 219.693 48.7729 211.44 49.1058C203.187 49.4386 204.072 57.0105 204.072 57.0105L201.803 56.8517L182.817 56.3298C181.237 57.4509 179.937 58.9215 179.019 60.6272C178.1 62.3328 177.588 64.2274 177.522 66.1635C177.31 74.1817 175.192 84.038 172.832 89.1061L161.417 113.6L164.08 114.78C166.098 115.677 167.892 117.012 169.331 118.688C170.77 120.364 171.818 122.339 172.4 124.47C172.695 125.541 172.87 126.642 172.922 127.753L173.104 131.754C173.192 133.612 172.729 135.454 171.773 137.049C179.284 135.196 184.988 133.025 190.041 134.659C196.584 136.769 202.144 142.98 209.768 143.517C213.422 143.774 224.284 139.946 231.993 141.936C240.313 144.084 238.044 151.013 248.173 152.132C253.347 152.707 259.519 150.272 266.176 153.116C271.471 155.385 274.224 163.547 272.59 168.888C272.59 168.888 275.805 164.304 270.957 150.166C266.978 138.373 259.3 112.283 257.719 105.695Z" fill="#008056" stroke="#502A73" stroke-width="0.49" stroke-linecap="round" stroke-linejoin="round"/>
<path d="M132.801 56.0951L91.3562 55.906C87.2951 55.9078 83.3255 57.1119 79.9477 59.3663C76.5698 61.6207 73.935 64.8247 72.3753 68.5743C70.8156 72.3239 70.4008 76.4513 71.1833 80.4363C71.9657 84.4212 73.9104 88.0854 76.7721 90.9669C77.2789 91.4812 93.217 112.321 98.1717 118.516C106.803 129.303 112.166 132.019 115.373 132.45C118.353 132.851 114.443 123.925 113.928 121.187L115.025 113.577C115.025 113.577 126.372 102.23 140.691 98.9321C139.502 97.8931 138.366 96.7949 137.287 95.6416C137.287 95.6416 150.782 102.003 163.596 105.4L168.989 104.946C168.989 104.946 170.268 84.9153 171.554 80.3011C176.289 63.2964 182.764 56.3221 182.764 56.3221L132.801 56.0951Z" fill="#008056" stroke="#502A73" stroke-width="0.49" stroke-linecap="round" stroke-linejoin="round"/>
<path d="M108.489 115.014C108.489 115.014 107.264 123.645 111.114 129.5C115.486 136.157 132.12 133.01 132.499 121.936C132.877 110.861 108.489 115.014 108.489 115.014Z" fill="#502A73" stroke="#502A73" stroke-width="0.49" stroke-linecap="round" stroke-linejoin="round"/>
<path d="M108.489 115.014C108.489 115.014 107.264 123.645 111.114 129.5C115.486 136.157 132.12 133.01 132.499 121.936C132.877 110.861 108.489 115.014 108.489 115.014Z" stroke="#502A73" stroke-width="0.49" stroke-linecap="round" stroke-linejoin="round"/>
<path d="M182.817 56.3069C182.817 56.3069 170.033 61.375 165.298 78.3797C164.038 83.0133 163.562 87.8252 163.891 92.6158L164.035 94.9835C164.341 99.8006 163.856 104.635 162.597 109.295L161.44 113.584L159.829 117.026C159.573 117.549 159.283 118.055 158.959 118.539L149.7 132.707C149.7 132.707 128.127 161.557 118.013 172.798C107.899 184.039 102.355 189.198 102.355 193.509C102.355 198.691 104.738 201.149 104.738 201.149C104.738 201.149 102.468 192.897 107.529 193.139C112.589 193.381 124.17 203.131 126.152 200.786C127.249 199.478 145.736 172.284 156.523 152.851C165.056 137.465 166.478 128.857 166.637 128.471C170.472 119.174 179.821 109.658 182.817 103.009C186.092 95.7324 183.225 81.9652 190.465 68.2813C195.23 59.2721 200.381 57.8198 202.212 56.9347H201.803L182.817 56.3069Z" fill="#EAE7DA" stroke="#502A73" stroke-width="0.49" stroke-linecap="round" stroke-linejoin="round"/>
<path d="M186.402 70.392L179.194 74.2423C177.545 75.1234 176.285 76.588 175.659 78.3495C175.034 80.111 175.088 82.0424 175.812 83.7658L179.647 92.9338L172.605 97.2833C171.227 98.1379 170.163 99.4152 169.572 100.924C168.98 102.434 168.892 104.094 169.322 105.657L170.948 111.527L161.44 121.883L159.277 139.636L147.045 147.337L144.095 160.325L137.658 160.96C135.964 161.129 134.378 161.869 133.16 163.058C131.943 164.247 131.165 165.814 130.956 167.503L129.829 176.581L121.901 180.65C120.448 181.395 119.278 182.594 118.569 184.064C117.859 185.534 117.648 187.196 117.968 188.797L120.025 199.047C122.937 200.65 125.32 201.702 126.145 200.749C127.241 199.44 145.729 172.246 156.516 152.813C165.048 137.427 166.47 128.819 166.629 128.433C170.464 119.137 179.814 109.621 182.809 102.972C186.085 95.6948 183.218 81.9277 190.457 68.2437C195.094 59.4766 200.086 57.8654 202.046 56.9426L201.796 56.8367L192.454 57.8654C191.458 57.9744 190.494 58.2818 189.619 58.7696C188.744 59.2574 187.976 59.9157 187.359 60.7055C186.743 61.4953 186.291 62.4006 186.031 63.3679C185.77 64.3353 185.706 65.345 185.843 66.3375L186.402 70.392Z" fill="#4BBEA5" stroke="#502A73" stroke-width="0.49" stroke-linecap="round" stroke-linejoin="round"/>
<path d="M266.857 306.559C266.857 304.101 266.918 300.508 265.594 298.602C263.105 295.107 260.238 293.98 245.17 297.8C242.485 298.488 234.474 299.903 233.211 302.86C231.115 307.739 243.188 312.966 243.188 312.966C251.838 312.428 260.403 310.936 268.725 308.518C268.472 308.519 268.222 308.468 267.989 308.368C267.756 308.269 267.546 308.123 267.371 307.939C267.196 307.756 267.061 307.539 266.972 307.302C266.884 307.065 266.845 306.812 266.857 306.559Z" fill="#EAE7DA" stroke="#502A73" stroke-width="0.49" stroke-linecap="round" stroke-linejoin="round"/>
<path d="M263.937 309.834C263.679 309.601 263.438 309.348 263.219 309.078C262.712 308.435 262.75 307.618 262.621 305.818C262.621 304.426 262.893 299.517 258.899 299.66C256.335 299.759 252.311 300.417 246.244 301.93C245.851 302.028 245.352 302.149 244.777 302.278C242.507 302.792 240.737 303.276 239.421 303.722C239.213 303.792 239.026 303.912 238.875 304.071C238.724 304.231 238.615 304.424 238.557 304.636C238.498 304.847 238.493 305.07 238.541 305.284C238.589 305.498 238.688 305.697 238.831 305.863C241.12 308.629 243.909 310.939 247.054 312.671C252.741 312.127 258.384 311.179 263.937 309.834Z" fill="#EAE7DA" stroke="#502A73" stroke-width="0.49" stroke-linecap="round" stroke-linejoin="round"/>
<path d="M228.77 78.2816C220.086 75.4071 214.496 78.4707 213.732 78.9321C213.157 78.3648 208.891 74.5524 199.36 76.0426C190.237 77.4873 186.455 83.7128 187.393 87.0411C187.885 88.7961 190.192 87.2151 193.83 85.5963C198.989 83.327 201.637 85.1122 201.637 85.1122C201.637 85.1122 194.178 86.2166 190.873 89.5449C187.567 92.8732 189.957 98.2818 193.475 95.5964C199.299 91.2015 202.34 91.3906 202.34 91.3906C200.269 92.4545 198.432 93.9232 196.939 95.7099C194.935 98.3499 195.502 101.338 198.013 101.603C199.526 101.761 208.165 92.5253 206.107 98.4936C203.263 106.769 201.977 112.768 201.682 116.981C201.63 117.437 201.67 117.898 201.801 118.338C201.932 118.777 202.15 119.186 202.442 119.539C202.735 119.892 203.096 120.183 203.503 120.393C203.911 120.604 204.356 120.729 204.814 120.763L206.554 120.892C207.543 120.92 208.515 120.624 209.32 120.049C210.126 119.474 210.722 118.652 211.017 117.707C212.325 113.577 213.346 107.556 213.725 99.0836C213.997 92.9413 218.861 103.252 220.404 103.32C222.946 103.441 224.625 100.627 223.679 97.7598C222.912 95.8166 221.669 94.0974 220.064 92.7598C220.064 92.7598 223.089 93.0246 227.083 98.1683C229.496 101.277 233.891 96.3831 231.917 92.6539C229.943 88.9246 223.142 86.731 223.142 86.731C223.142 86.731 226.387 85.3845 230.533 88.38C233.46 90.4981 235.071 92.374 236.244 90.7477C238.415 87.6765 237.136 81.035 228.77 78.2816Z" fill="#4BBEA5" stroke="#502A73" stroke-width="0.49" stroke-linecap="round" stroke-linejoin="round"/>
<path d="M258.082 57.737C246.244 60.7628 230.094 79.2652 231.97 105.393C233.407 125.211 237.862 140.854 231.448 154.402C225.033 167.95 220.162 184.97 224.791 211.846C226.055 218.545 228.03 225.09 230.684 231.369C231.569 233.488 233.145 235.245 235.154 236.354C240.26 239.176 251.607 243.646 269.822 241.559C295.654 238.609 312.251 215.083 340.98 220.31C355.481 222.973 356.426 231.256 356.426 231.256C356.426 231.256 360.67 221.127 335.11 199.107C314.376 181.24 314.308 150.696 310.148 140.862C305.987 131.028 285.942 89.2577 285.942 89.2577L274.988 58.728C274.988 58.728 269.482 54.7945 258.082 57.737Z" fill="#EAE7DA" stroke="#502A73" stroke-width="0.49" stroke-linecap="round" stroke-linejoin="round"/>
<path d="M252.704 222.375L245.752 217.996L251.804 210.93C252.475 210.148 252.962 209.223 253.226 208.226C253.491 207.229 253.527 206.186 253.333 205.173C253.138 204.16 252.717 203.204 252.101 202.376C251.485 201.549 250.691 200.871 249.776 200.393L242.295 196.49L250.147 187.693C250.809 186.946 251.301 186.063 251.587 185.107C251.872 184.151 251.946 183.143 251.802 182.156C251.658 181.168 251.299 180.223 250.752 179.389C250.205 178.554 249.482 177.848 248.634 177.322L242.749 173.638L252.348 163.411C253.029 162.687 253.544 161.823 253.857 160.88C254.171 159.936 254.275 158.936 254.163 157.949C254.05 156.961 253.724 156.01 253.207 155.161C252.69 154.312 251.994 153.586 251.168 153.033L241.463 146.527L249.481 141.028C250.31 140.455 251.001 139.707 251.507 138.836C252.014 137.966 252.322 136.994 252.41 135.991C252.498 134.988 252.364 133.978 252.017 133.033C251.671 132.087 251.12 131.23 250.404 130.521L240.987 121.209L248.748 116.444C249.596 115.932 250.322 115.242 250.876 114.42C251.429 113.599 251.797 112.667 251.954 111.689C252.11 110.711 252.051 109.71 251.781 108.757C251.51 107.804 251.036 106.922 250.389 106.171L242.303 96.6404L248.211 91.2622C249.514 90.0737 250.309 88.4284 250.43 86.6686C250.551 84.9089 249.989 83.1701 248.861 81.8142L245.26 77.4874L253.528 70.4299C254.254 69.8094 254.842 69.0442 255.255 68.1833C255.668 67.3223 255.896 66.3847 255.925 65.4303C255.954 64.476 255.784 63.5262 255.424 62.6416C255.065 61.757 254.525 60.9573 253.838 60.2936L253.256 59.7263C242.318 65.7778 230.328 82.7144 231.97 105.43C233.407 125.249 237.862 140.892 231.448 154.44C225.033 167.987 220.162 185.007 224.791 211.884C226.051 218.581 228.026 225.124 230.684 231.4C231.564 233.519 233.138 235.276 235.147 236.385C237.955 237.907 240.926 239.105 244.005 239.955L252.923 233.85C253.865 233.209 254.633 232.344 255.156 231.332C255.679 230.319 255.942 229.193 255.92 228.053C255.898 226.914 255.592 225.798 255.031 224.807C254.469 223.816 253.67 222.98 252.704 222.375Z" fill="#4BBEA5" stroke="#502A73" stroke-width="0.49" stroke-linecap="round" stroke-linejoin="round"/>
<path d="M134.715 92.9339C133.091 90.9788 131.576 88.9359 130.177 86.8144C128.664 84.4316 125.82 80.6116 123.702 77.8127C121.051 74.2249 118.149 70.8301 115.018 67.6538" fill="#008056"/>
<path d="M134.715 92.9339C133.091 90.9788 131.576 88.9359 130.177 86.8144C128.664 84.4316 125.82 80.6116 123.702 77.8127C121.051 74.2249 118.149 70.8301 115.018 67.6538" stroke="#502A73" stroke-width="0.49" stroke-linecap="round" stroke-linejoin="round"/>
<path d="M319.747 200.393C321.477 201.373 323.395 201.974 325.375 202.156C328.961 202.579 330.224 202.292 331.911 204.546C333.598 206.8 333.25 210.03 327.41 210.03C323.826 209.972 320.383 208.63 317.705 206.248" fill="#BF792A"/>
<path d="M319.747 200.393C321.477 201.373 323.395 201.974 325.375 202.156C328.961 202.579 330.224 202.292 331.911 204.546C333.598 206.8 333.25 210.03 327.41 210.03C323.826 209.972 320.383 208.63 317.705 206.248" stroke="#502A73" stroke-width="0.49" stroke-linecap="round" stroke-linejoin="round"/>
<path d="M278.884 66.1408C285.057 69.4313 297.735 101.164 303.362 111.709C308.99 122.253 315.034 136.747 315.465 146.595C315.897 156.444 314.482 192.171 314.482 192.171C314.482 192.171 319.686 196.104 321.23 199.622C322.773 203.139 324.187 206.377 329.808 211.014C335.428 215.651 340.398 216.218 340.504 219.334C340.609 222.451 335.473 224.236 335.473 224.236C335.14 225.404 334.512 226.467 333.65 227.323C332.787 228.179 331.72 228.798 330.549 229.123C329.118 229.514 327.662 229.81 326.192 230.008C324.686 231.602 322.612 232.537 320.42 232.61C317.682 232.476 314.969 232.027 312.334 231.271C312.334 231.271 300.775 235.666 291.592 222.799C282.409 209.932 284.285 197.133 282.326 182.496C280.753 170.718 277.666 149.795 279.467 141.883L261.312 109.757C253.823 96.5117 268.831 94.371 280.223 84.2801C284.036 80.8762 275.548 64.3556 278.884 66.1408Z" fill="#BF792A" stroke="#502A73" stroke-width="0.49" stroke-linecap="round" stroke-linejoin="round"/>
<path d="M290.587 84.6736C290.617 84.7275 290.645 84.783 290.67 84.84L290.587 84.6736Z" fill="white" stroke="#502A73" stroke-width="0.49" stroke-linecap="round" stroke-linejoin="round"/>
<path d="M316.774 135.99C314.505 124.266 297.273 98.6224 290.67 84.8401C289.959 83.3802 289.248 81.943 288.544 80.5663V80.4982L288.166 79.7418V79.704L287.78 78.9475V78.8946C287.659 78.6525 287.53 78.418 287.409 78.1835L287.349 78.0625L287.008 77.4195L286.956 77.3287L286.608 76.6782L286.54 76.5496C286.426 76.353 286.32 76.1487 286.214 75.952L286.131 75.8083L285.821 75.2485L285.73 75.0973L285.428 74.5526L285.337 74.3938L285.042 73.8794L284.951 73.7281L284.656 73.2289L284.558 73.0549C284.459 72.9036 284.369 72.7523 284.278 72.601L284.179 72.4346L283.907 71.9883L283.771 71.7841L283.536 71.4059L283.408 71.2092L283.166 70.8385L283.03 70.6343C282.954 70.5284 282.886 70.4149 282.81 70.3015L282.667 70.0972L282.455 69.7871C282.4 69.7196 282.35 69.6489 282.303 69.5753L282.107 69.303L281.948 69.0987L281.759 68.8491L281.6 68.6449L281.426 68.4179L281.252 68.2137L281.093 68.017C281.04 67.9565 280.98 67.896 280.927 67.8279L280.768 67.6464L280.609 67.48L280.45 67.3135L280.291 67.1547L280.14 67.0034L279.989 66.8748L279.837 66.7311L279.656 66.5874L279.542 66.4966L279.353 66.368L279.255 66.2999C279.167 66.2362 279.073 66.1805 278.975 66.1335C273.309 63.1077 266.585 71.5269 260.866 79.2198C255.147 86.9128 253.71 96.3985 258.438 104.719L264.527 115.483L279.452 141.86C277.651 149.773 280.738 170.696 282.311 182.473C282.81 186.188 283.067 189.773 283.31 193.283C285.231 194.228 288.953 194.614 295.957 194.675C312.599 194.826 327.947 188.427 331.404 186.112C323.022 173.472 320.39 149.637 316.774 135.99Z" fill="#008056" stroke="#502A73" stroke-width="0.49" stroke-linecap="round" stroke-linejoin="round"/>
<path d="M312.319 231.271C312.319 231.271 306.456 228.669 303.431 224.516L312.319 231.271Z" fill="#BF792A"/>
<path d="M312.319 231.271C312.319 231.271 306.456 228.669 303.431 224.516" stroke="#502A73" stroke-width="0.49" stroke-linecap="round" stroke-linejoin="round"/>
<path d="M326.177 230.008C323.629 229.246 321.212 228.104 319.006 226.619C316.718 225.144 314.676 223.319 312.954 221.21" fill="#BF792A"/>
<path d="M326.177 230.008C323.629 229.246 321.212 228.104 319.006 226.619C316.718 225.144 314.676 223.319 312.954 221.21" stroke="#502A73" stroke-width="0.49" stroke-linecap="round" stroke-linejoin="round"/>
<path d="M335.473 224.236C335.473 224.236 333.559 224.637 329.308 223.154C326.398 222.013 323.77 220.253 321.608 217.995" fill="#BF792A"/>
<path d="M335.473 224.236C335.473 224.236 333.559 224.637 329.308 223.154C326.398 222.013 323.77 220.253 321.608 217.995" stroke="#502A73" stroke-width="0.49" stroke-linecap="round" stroke-linejoin="round"/>
<path d="M62.3393 273.525C62.3393 273.525 50.9927 259.909 56.2424 250.968C59.3211 245.726 69.48 245.673 75.5315 248.578C86.3788 253.797 79.5861 276.982 79.5861 276.982L77.9824 290.53L62.3393 273.525Z" fill="#EAE7DA" stroke="#502A73" stroke-width="0.49" stroke-linecap="round" stroke-linejoin="round"/>
<path d="M62.8459 271.589C60.3648 268.563 54.1771 259.123 57.2029 253.971C58.0047 252.61 60.9018 250.885 66.4844 250.885C68.9674 250.872 71.4248 251.388 73.6932 252.398C77.3543 254.16 77.5888 260.666 77.4073 264.387C77.1691 268.244 76.538 272.066 75.5238 275.794L75.4254 276.127L74.8581 280.878L62.8459 271.589Z" fill="#EAE7DA" stroke="#502A73" stroke-width="0.49" stroke-linecap="round" stroke-linejoin="round"/>
<path d="M103.134 335.432C103.134 335.432 122.204 370.614 160.843 381.302C160.843 381.302 118.588 391.824 75.5165 355.485C32.445 319.146 103.134 335.432 103.134 335.432Z" fill="#EEC718" stroke="#502A73" stroke-width="0.49" stroke-linecap="round" stroke-linejoin="round"/>
<path d="M112.075 305.281C108.644 302.891 104.941 300.915 101.046 299.396C99.7141 298.853 98.5996 297.885 97.8764 296.642L89.0791 281.513C87.6574 279.349 85.704 277.586 83.4058 276.392L64.4949 267.315C64.4949 267.315 56.1741 262.02 41.5597 257.239C26.9454 252.459 13.3598 254.214 5.47014 262.913C-2.4195 271.612 50.4479 325.379 50.4479 325.379L86.5223 358.882C86.5223 358.882 99.2683 354.29 103.467 343.276C106.144 336.234 112.4 322.535 115.834 314.441C114.846 311.286 113.588 308.221 112.075 305.281Z" fill="#EAE7DA" stroke="#502A73" stroke-width="0.49" stroke-linecap="round" stroke-linejoin="round"/>
<path d="M103.467 343.299C106.144 336.257 112.4 322.558 115.834 314.464C115.268 312.626 114.601 310.82 113.837 309.055C109.942 315.107 101.303 328.647 97.052 336.393L91.462 346.59C91.462 346.59 88.9128 353.103 87.1805 358.64C89.8205 357.543 99.8357 352.83 103.467 343.299Z" fill="#4BBEA5" stroke="#502A73" stroke-width="0.49" stroke-linecap="round" stroke-linejoin="round"/>
<path d="M92.5138 312.406C69.4727 301.506 74.8585 286.256 62.0369 275.401C55.645 269.993 50.0323 270.152 42.1427 265.159C34.253 260.167 30.8566 254.887 30.8566 254.887L20.4405 265.159C20.4405 265.159 45.9248 303.563 46.2501 303.949C46.5754 304.335 56.4166 325.651 61.5226 335.674L72.385 345.765C75.3578 347.452 77.9826 348.874 77.9826 348.874L78.55 351.491L86.5228 358.904C86.5228 358.904 99.2688 354.313 103.467 343.299C104.564 340.409 106.266 336.4 108.127 332.111C108.8 330.576 108.815 320.122 92.5138 312.406Z" fill="#4BBEA5" stroke="#502A73" stroke-width="0.49" stroke-linecap="round" stroke-linejoin="round"/>
<path d="M20.4401 267.353C20.4401 267.353 32.4523 260.446 30.8562 254.924C20.5006 253.812 11.3931 256.437 5.4778 262.95C3.37491 265.273 5.59127 270.795 9.97104 277.655C13.9726 281.438 17.316 284.463 17.316 284.463L20.4401 267.353Z" fill="#4BBEA5" stroke="#502A73" stroke-width="0.49" stroke-linecap="round" stroke-linejoin="round"/>
<path d="M30.6823 264.168C9.40376 252.761 -0.490434 263.366 1.18129 278.926C3.20098 297.837 18.5188 315.704 33.7081 330.734C45.8111 342.716 59.0638 354.819 69.4648 358.435C88.0126 364.88 95.9401 351.922 97.2941 349.592C102.665 340.341 103.346 327.141 65.8339 297.89C59.0033 292.595 43.8292 271.21 30.6823 264.168Z" fill="#502A73" stroke="#502A73" stroke-width="0.49" stroke-linecap="round" stroke-linejoin="round"/>
<path d="M30.6823 264.168C9.40376 252.761 -0.490434 263.366 1.18129 278.926C3.20098 297.837 18.5188 315.704 33.7081 330.734C45.8111 342.716 59.0638 354.819 69.4648 358.435C88.0126 364.88 95.9401 351.922 97.2941 349.592C102.665 340.341 103.346 327.141 65.8339 297.89C59.0033 292.595 43.8292 271.21 30.6823 264.168Z" stroke="#502A73" stroke-width="0.49" stroke-linecap="round" stroke-linejoin="round"/>
<path d="M90.1005 296.393C90.1005 296.393 97.8085 301.158 102.203 304.29L106.621 307.421L88.4666 302.724L90.1005 296.393Z" fill="#4BBEA5" stroke="#502A73" stroke-width="0.49" stroke-linecap="round" stroke-linejoin="round"/>
<path d="M214.338 60.7549L229.398 48.8562C228.793 47.1996 225.972 39.4385 225.2 37.3507C221.592 27.5171 216.607 14.3399 214.534 10.4065C210.48 2.72108 208.71 0.905632 202.984 1.00397C198.158 1.07961 192.515 5.45179 188.415 9.81643C185.956 12.4413 188.536 22.2447 188.536 22.2447C188.536 22.2447 189.05 25.5957 189.859 29.9528C189.971 30.4803 189.899 31.03 189.655 31.511L187.915 35.8681C187.807 36.1397 187.755 36.4311 187.766 36.7236C187.776 37.016 187.847 37.3032 187.974 37.5666C188.102 37.8301 188.283 38.064 188.506 38.2534C188.729 38.4429 188.989 38.5837 189.269 38.6669L191.501 39.3326C192.401 39.6503 192.257 40.089 191.94 41.322C191.456 43.0467 193.135 43.4476 193.513 43.5384C194.201 43.7048 193.324 44.0149 193.513 45.2026C193.672 46.2162 194.27 46.3977 194.459 46.9651C194.648 47.5324 194.905 48.0846 195.086 48.4779C195.602 49.6592 196.493 50.637 197.622 51.2594C198.75 51.8819 200.053 52.114 201.327 51.9197L208.332 50.8531L213.627 61.36L214.338 60.7549Z" fill="#BF792A" stroke="#502A73" stroke-width="0.49" stroke-linecap="round" stroke-linejoin="round"/>
<path d="M211.614 24.9833C211.442 24.2834 211.401 23.5574 211.493 22.8425C211.894 20.6337 213.71 19.1209 215.911 19.5293C218.112 19.9378 219.186 22.0331 219.285 24.2722C219.403 26.1631 218.927 28.0437 217.923 29.6505C217.679 30.0979 217.308 30.464 216.858 30.7033C216.407 30.9425 215.897 31.0446 215.389 30.9969" fill="#BF792A"/>
<path d="M211.614 24.9833C211.442 24.2834 211.401 23.5574 211.493 22.8425C211.894 20.6337 213.71 19.1209 215.911 19.5293C218.112 19.9378 219.186 22.0331 219.285 24.2722C219.403 26.1631 218.927 28.0437 217.923 29.6505C217.679 30.0979 217.308 30.464 216.858 30.7033C216.407 30.9425 215.897 31.0446 215.389 30.9969" stroke="#502A73" stroke-width="0.49" stroke-linecap="round" stroke-linejoin="round"/>
<path d="M210.351 26.2842C210.251 26.6696 210.062 27.0263 209.799 27.3257C209.537 27.6251 209.208 27.8591 208.838 28.0089C207.658 28.3947 206.04 27.4945 206.04 27.4945" stroke="#502A73" stroke-width="0.49" stroke-linecap="round" stroke-linejoin="round"/>
<path d="M213.611 24.7182C213.611 24.7182 213.513 22.3052 215.676 22.7061C217.083 22.9633 217.325 25.1191 216.334 26.0419C215.872 26.3707 215.312 26.5334 214.746 26.5034C214.948 26.5824 215.118 26.7265 215.229 26.9127C215.34 27.099 215.385 27.317 215.359 27.5321C215.17 28.4399 214.103 28.0011 214.103 28.0011" fill="#BF792A"/>
<path d="M213.611 24.7182C213.611 24.7182 213.513 22.3052 215.676 22.7061C217.083 22.9633 217.325 25.1191 216.334 26.0419C215.872 26.3707 215.312 26.5334 214.746 26.5034C214.948 26.5824 215.118 26.7265 215.229 26.9127C215.34 27.099 215.385 27.317 215.359 27.5321C215.17 28.4399 214.103 28.0011 214.103 28.0011" stroke="#502A73" stroke-width="0.49" stroke-linecap="round" stroke-linejoin="round"/>
<path d="M193.748 43.5838C194.856 43.498 195.918 43.0962 196.805 42.4259C197.693 41.7555 198.369 40.8448 198.755 39.8016L198.869 39.4763" stroke="#502A73" stroke-width="0.49" stroke-linecap="round" stroke-linejoin="round"/>
<path d="M195.828 27.9403C196.448 27.6053 197.152 27.4581 197.855 27.5167" stroke="#502A73" stroke-width="0.99" stroke-linecap="round" stroke-linejoin="round"/>
<path d="M196.115 27.8574C195.997 28.3777 195.997 28.9179 196.115 29.4383C196.304 30.3082 196.705 30.6561 197.106 30.5729C197.507 30.4897 197.726 30.0056 197.545 29.1357C197.442 28.6118 197.222 28.1179 196.902 27.6909L196.115 27.8574Z" fill="#502A73"/>
<path d="M189.481 29.287C190.101 28.952 190.806 28.8048 191.508 28.8634" stroke="#502A73" stroke-width="0.99" stroke-linecap="round" stroke-linejoin="round"/>
<path d="M189.738 29.204C189.62 29.7244 189.62 30.2646 189.738 30.785C189.92 31.6549 190.328 32.0028 190.722 31.9196C191.115 31.8364 191.349 31.3523 191.168 30.4824C191.06 29.9589 190.838 29.4657 190.517 29.0376L189.738 29.204Z" fill="#502A73"/>
<path d="M193.052 25.7473C193.113 25.8191 193.189 25.8767 193.274 25.9163C193.36 25.9558 193.453 25.9763 193.547 25.9763C193.641 25.9763 193.734 25.9558 193.82 25.9163C193.906 25.8767 193.981 25.8191 194.043 25.7473C194.343 25.3962 194.711 25.1084 195.124 24.9006C195.537 24.6928 195.987 24.5692 196.448 24.537C196.942 24.4994 197.439 24.5325 197.923 24.6353C198.021 24.6585 198.124 24.6557 198.22 24.6274C198.317 24.599 198.405 24.546 198.475 24.4736C198.545 24.4012 198.595 24.3118 198.621 24.2142C198.646 24.1166 198.645 24.0141 198.619 23.9167C198.6 23.8313 198.561 23.7514 198.506 23.6832C198.451 23.6151 198.381 23.5604 198.301 23.5234C197.41 23.024 196.36 22.8901 195.373 23.1498C194.385 23.4094 193.536 24.0423 193.006 24.9152C192.917 25.0379 192.872 25.1877 192.88 25.3394C192.889 25.491 192.949 25.6351 193.052 25.7473Z" fill="#502A73"/>
<path d="M189.897 24.9149C189.592 24.8902 189.286 24.9395 189.005 25.0586L189.262 26.5715C189.402 26.4834 189.559 26.4242 189.723 26.3975C190.103 26.3475 190.489 26.3758 190.858 26.4807C190.946 26.5053 191.039 26.5111 191.13 26.4976C191.221 26.4842 191.308 26.4518 191.386 26.4026C191.464 26.3535 191.53 26.2885 191.581 26.2121C191.632 26.1356 191.667 26.0494 191.682 25.9588C191.709 25.8158 191.687 25.6681 191.622 25.5383C191.556 25.4086 191.45 25.3038 191.319 25.2401C190.87 25.0417 190.388 24.9313 189.897 24.9149Z" fill="#502A73"/>
<path d="M212.174 19.8846C212.03 17.6152 206.698 17.2748 203.248 17.2824C203.307 16.6809 203.232 16.0739 203.029 15.5048L200.132 8.41699L189.481 10.2022C189.481 10.2022 186.198 9.37764 181.607 12.1765C176.546 15.2552 178.21 21.3596 181.849 23.523C185.487 25.6864 192.492 24.5064 198.672 22.101C199.556 21.773 200.391 21.325 201.153 20.7696C201.327 22.5321 202 24.2038 203.74 24.9073C208.142 26.7227 212.386 23.2129 212.174 19.8846Z" fill="#502A73" stroke="#502A73" stroke-width="0.49" stroke-linecap="round" stroke-linejoin="round"/>
<path d="M212.174 19.8846C212.03 17.6152 206.698 17.2748 203.248 17.2824C203.307 16.6809 203.232 16.0739 203.029 15.5048L200.132 8.41699L189.481 10.2022C189.481 10.2022 186.198 9.37764 181.607 12.1765C176.546 15.2552 178.21 21.3596 181.849 23.523C185.487 25.6864 192.492 24.5064 198.672 22.101C199.556 21.773 200.391 21.325 201.153 20.7696C201.327 22.5321 202 24.2038 203.74 24.9073C208.142 26.7227 212.386 23.2129 212.174 19.8846Z" stroke="#502A73" stroke-width="0.49" stroke-linecap="round" stroke-linejoin="round"/>
<path d="M215.276 40.7016C218.467 40.7016 221.055 38.1142 221.055 34.9225C221.055 31.7307 218.467 29.1433 215.276 29.1433C212.084 29.1433 209.496 31.7307 209.496 34.9225C209.496 38.1142 212.084 40.7016 215.276 40.7016Z" fill="#EEC718" stroke="#502A73" stroke-width="0.49" stroke-linecap="round" stroke-linejoin="round"/>
<path d="M233.68 33.818C226.872 18.6893 210.298 3.62863 209.716 3.08399C207.968 1.44253 206.039 0.950844 202.983 1.00379C198.157 1.07944 192.514 5.45161 188.414 9.81625C188.335 9.90211 188.262 9.99311 188.195 10.0886C188.195 10.0886 198.868 9.27921 206.055 21.8512C220.934 47.918 216.94 54.0376 213.294 60.7547L229.398 46.5186C232.439 41.2462 234.595 35.8831 233.68 33.818Z" fill="#008056" stroke="#502A73" stroke-width="0.49" stroke-linecap="round" stroke-linejoin="round"/>
<path d="M208.324 50.8835C208.324 50.8835 211.35 56.0953 216.221 55.1044C219.708 54.4009 225.17 49.5219 229.965 44.5748C230.879 43.6375 231.857 42.7654 232.893 41.9651C237.105 38.776 242.236 37.0371 247.519 37.0084C252.801 36.9798 257.951 38.6631 262.197 41.8062C266.645 45.0665 271.804 48.7579 272.386 48.7957C274.051 48.9016 287.614 51.7534 291.169 52.3358C293.616 52.7311 295.868 53.9129 297.583 55.7022C299.299 57.4916 300.385 59.791 300.677 62.2527L302.455 77.4873L283.899 73.7052C276.747 72.2484 270.094 68.9649 264.588 64.1741C262.044 62.0344 258.985 60.5975 255.715 60.0061C250.314 58.8336 243.332 63.4025 237.167 65.4903C231.002 67.578 222.227 70.9593 215.366 67.6688C206.054 63.2058 204.02 56.8896 204.02 56.8896C203.695 55.9965 203.578 55.0412 203.678 54.0962C203.777 53.1513 204.091 52.2414 204.595 51.4357L208.324 50.8835Z" fill="#008056" stroke="#502A73" stroke-width="0.49" stroke-linecap="round" stroke-linejoin="round"/>
<path d="M173.157 131.731L173.066 129.727L172.976 127.73C172.976 127.45 172.976 127.177 172.915 126.898C172.855 126.618 172.855 126.345 172.809 126.073C172.72 125.525 172.602 124.982 172.454 124.447C172.386 124.174 172.302 123.91 172.212 123.645C171.77 122.339 171.151 121.1 170.373 119.961C168.805 117.679 166.634 115.878 164.103 114.757L163.18 114.348L161.44 113.592L155.245 110.861C153.353 110.023 151.6 108.901 150.048 107.533C147.779 105.528 144.201 102.321 140.683 98.9548C126.311 102.276 115.017 113.599 115.017 113.599L113.921 121.209L119.972 126.073L120.94 126.882C123.763 129.242 126.342 131.877 128.641 134.749L132.332 139.349C132.521 139.583 132.71 139.81 132.907 140.029C134.798 142.147 137.334 143.583 140.124 144.114C140.124 144.114 137.937 147.337 138.822 149.409C140.335 153.063 147.756 156.088 153.452 152.132L169.557 139.606C170.465 138.881 171.234 137.997 171.826 136.996C171.939 136.814 172.038 136.625 172.136 136.429L172.174 136.353C172.265 136.179 172.34 136.005 172.416 135.824C172.43 135.796 172.442 135.769 172.454 135.74C172.537 135.544 172.613 135.347 172.681 135.143C172.756 134.923 172.817 134.712 172.87 134.492C172.923 134.303 172.96 134.099 172.998 133.902C172.998 133.842 172.998 133.789 172.998 133.728C172.998 133.668 173.044 133.426 173.059 133.267C173.066 133.199 173.066 133.13 173.059 133.063C173.059 132.911 173.059 132.76 173.059 132.609C173.059 132.457 173.059 132.473 173.059 132.412C173.165 132.162 173.165 131.951 173.157 131.731Z" fill="#BF792A" stroke="#502A73" stroke-width="0.49" stroke-linecap="round" stroke-linejoin="round"/>
<path d="M116.107 103.206C113.77 104.611 111.834 106.594 110.485 108.964C109.136 111.334 108.42 114.012 108.406 116.739L117.763 124.303C118.626 115.899 123.104 112.336 123.104 112.336L131.735 103.887C131.735 103.887 127.075 96.209 116.107 103.206Z" fill="#EEC718" stroke="#502A73" stroke-width="0.49" stroke-linecap="round" stroke-linejoin="round"/>
<path d="M154.912 138.895C154.912 138.895 158.528 148.676 154.912 150.998V138.895Z" fill="#BF792A"/>
<path d="M154.912 138.895C154.912 138.895 158.528 148.676 154.912 150.998" stroke="#502A73" stroke-width="0.49" stroke-linecap="round" stroke-linejoin="round"/>
<path d="M161.44 132.707C161.44 132.707 165.615 142.647 162.484 145.083L161.44 132.707Z" fill="#BF792A"/>
<path d="M161.44 132.707C161.44 132.707 165.615 142.647 162.484 145.083" stroke="#502A73" stroke-width="0.49" stroke-linecap="round" stroke-linejoin="round"/>
<path d="M166.636 128.448C167.565 130.304 168.269 132.265 168.732 134.288C169.314 137.185 169.102 139.931 167.922 140.854" fill="#BF792A"/>
<path d="M166.636 128.448C167.565 130.304 168.269 132.265 168.732 134.288C169.314 137.185 169.102 139.931 167.922 140.854" stroke="#502A73" stroke-width="0.49" stroke-linecap="round" stroke-linejoin="round"/>
<path d="M140.093 144.099H140.365C141.263 144.077 142.152 143.924 143.005 143.645L143.202 143.577C143.202 143.577 143.308 145.688 144.102 146.535" fill="#BF792A"/>
<path d="M140.093 144.099H140.365C141.263 144.077 142.152 143.924 143.005 143.645L143.202 143.577C143.202 143.577 143.308 145.688 144.102 146.535" stroke="#502A73" stroke-width="0.49" stroke-linecap="round" stroke-linejoin="round"/>
<path d="M113.686 102.223L122.605 115.203C123.507 116.505 124.883 117.402 126.439 117.7C127.995 117.999 129.606 117.675 130.925 116.799L144.367 107.722C145.093 107.229 145.704 106.585 146.156 105.834C146.608 105.082 146.892 104.241 146.987 103.369C147.082 102.497 146.986 101.614 146.706 100.783C146.426 99.9516 145.969 99.191 145.366 98.5539L134.193 86.8443C133.194 85.8138 131.861 85.172 130.433 85.0334C129.004 84.8948 127.573 85.2686 126.394 86.0878L115.207 93.8564C113.904 94.7708 113.014 96.1615 112.729 97.7274C112.445 99.2934 112.789 100.908 113.686 102.223Z" fill="#EEC718" stroke="#502A73" stroke-width="0.49" stroke-linecap="round" stroke-linejoin="round"/>
<path d="M127.582 113.584C127.287 113.594 126.994 113.53 126.73 113.398C126.466 113.266 126.239 113.07 126.069 112.828L117.143 99.8474C116.877 99.4554 116.776 98.9742 116.863 98.5083C116.949 98.0425 117.216 97.6294 117.605 97.3588L128.823 89.5902C129.123 89.3814 129.478 89.2681 129.844 89.2649C130.087 89.2649 130.328 89.3146 130.552 89.4108C130.776 89.5071 130.977 89.6479 131.145 89.8246L142.317 101.534C142.497 101.723 142.634 101.949 142.718 102.196C142.801 102.443 142.83 102.705 142.802 102.964C142.774 103.224 142.69 103.474 142.555 103.697C142.42 103.92 142.239 104.112 142.022 104.257L128.573 113.335C128.281 113.534 127.935 113.639 127.582 113.637V113.584Z" fill="#502A73" stroke="#502A73" stroke-width="0.49" stroke-linecap="round" stroke-linejoin="round"/>
<path d="M127.582 113.584C127.287 113.594 126.994 113.53 126.73 113.398C126.466 113.266 126.239 113.07 126.069 112.828L117.143 99.8474C116.877 99.4554 116.776 98.9742 116.863 98.5083C116.949 98.0425 117.216 97.6294 117.605 97.3588L128.823 89.5902C129.123 89.3814 129.478 89.2681 129.844 89.2649C130.087 89.2649 130.328 89.3146 130.552 89.4108C130.776 89.5071 130.977 89.6479 131.145 89.8246L142.317 101.534C142.497 101.723 142.634 101.949 142.718 102.196C142.801 102.443 142.83 102.705 142.802 102.964C142.774 103.224 142.69 103.474 142.555 103.697C142.42 103.92 142.239 104.112 142.022 104.257L128.573 113.335C128.281 113.534 127.935 113.639 127.582 113.637V113.584Z" stroke="#502A73" stroke-width="0.49" stroke-linecap="round" stroke-linejoin="round"/>
<path d="M127.506 101.55C127.506 101.55 126.523 103.872 127.62 105.476C128.717 107.079 131.463 105.982 132.416 103.153C133.059 101.269 133.431 99.3027 133.52 97.3136C133.52 97.3136 125.676 95.4831 124.186 97.7826C123.043 99.5451 124.042 102.064 127.506 101.55Z" fill="#4BBEA5" stroke="#502A73" stroke-width="0.49" stroke-linecap="round" stroke-linejoin="round"/>
</svg>
