<svg width="251" height="337" viewBox="0 0 251 337" fill="none" xmlns="http://www.w3.org/2000/svg">
<path d="M217.479 0.189453H49.3459C32.7336 0.189453 19.2666 13.6565 19.2666 30.2688V245.241C19.2666 261.853 32.7336 275.32 49.3459 275.32H217.49C234.102 275.32 247.569 261.853 247.569 245.241V30.2688C247.558 13.6565 234.091 0.189453 217.479 0.189453Z" fill="#016642"/>
<path d="M70.6111 63L61.1311 34.44H67.6111L74.0511 56.6H74.1311L81.2511 34.44H87.4911L94.6511 56.6H94.7311L101.291 34.44H107.531L97.9311 63H91.4511L84.3311 41.08H84.2511L77.0911 63H70.6111ZM109.709 63V41.8H115.229V63H109.709ZM109.709 38.44V33.96H115.229V38.44H109.709ZM120.021 63V33.96H125.541V63H120.021ZM130.334 63V33.96H135.854V63H130.334ZM140.646 63V41.8H146.166V63H140.646ZM140.646 38.44V33.96H146.166V38.44H140.646ZM150.799 63V41.8H156.319V45H156.399C158.199 42.72 160.999 41.24 164.759 41.24C169.319 41.24 173.759 42.88 173.759 48.6V63H168.239V50.36C168.239 48.08 167.479 45.48 162.919 45.48C160.039 45.48 156.319 47.08 156.319 51.6V63H150.799ZM182.9 51.96C182.9 55.08 184.78 58.52 190.58 58.52C194.78 58.52 197.7 55.8 197.7 51.88C197.7 46.8 192.94 45.48 190.1 45.48C185.98 45.48 182.9 48.16 182.9 51.96ZM197.7 41.72H203.22V62.28C203.22 67.32 199.98 71.8 190.62 71.8C184.06 71.8 178.66 70.36 178.18 64.88H183.94C184.5 67.6 187.1 68.04 190.46 68.04C196.78 68.04 197.7 64.68 197.7 61.92V59.36H197.58C194.94 61.88 192.18 62.76 188.94 62.76C183.34 62.76 177.14 59.92 177.14 52.04C177.14 46.6 180.74 41.24 188.9 41.24C193.18 41.24 196.34 42.6 197.62 44.84H197.7V41.72Z" fill="white"/>
<path d="M189.353 184.639C189.353 184.639 187.184 190.555 173.887 187.682C160.591 184.81 162.794 177.985 162.794 177.985L175.352 160.726L182.188 167.028L188.058 173.284C188.07 173.284 190.75 180.79 189.353 184.639Z" fill="#502A73" stroke="#502A73" stroke-width="0.2291" stroke-miterlimit="10" stroke-linecap="round" stroke-linejoin="round"/>
<path d="M189.353 184.639C189.353 184.639 187.184 190.555 173.887 187.682C160.591 184.81 162.794 177.985 162.794 177.985L175.352 160.726L182.188 167.028L188.058 173.284C188.07 173.284 190.75 180.79 189.353 184.639Z" stroke="#502A73" stroke-width="0.2291" stroke-miterlimit="10" stroke-linecap="round" stroke-linejoin="round"/>
<path d="M40.5797 249.601C40.5797 249.601 35.152 253.757 39.9892 265.021C48.5054 284.858 76.5635 305.274 80.6853 296.02C85.6702 284.79 79.073 252.247 79.073 252.247L61.4501 242.55L40.5797 249.601Z" fill="#502A73" stroke="#502A73" stroke-width="0.2291" stroke-miterlimit="10" stroke-linecap="round" stroke-linejoin="round"/>
<path d="M78.006 290.104L87.9871 266.327L56.9085 250.135L48.029 250.532L42.7148 263.409L56.6814 291.626" fill="#BF792A"/>
<path d="M78.006 290.104L87.9871 266.327L56.9085 250.135L48.029 250.532L42.7148 263.409L56.6814 291.626" stroke="#502A73" stroke-width="0.2291" stroke-miterlimit="10" stroke-linecap="round" stroke-linejoin="round"/>
<path d="M173.751 281.304L187.298 277.523L176.522 316.016L169.255 315.574L173.751 281.304Z" fill="#4BBEA5" stroke="#502A73" stroke-width="0.2291" stroke-miterlimit="10" stroke-linecap="round" stroke-linejoin="round"/>
<path d="M188.172 277.966L174.194 283.291" stroke="#502A73" stroke-width="0.2291" stroke-miterlimit="10" stroke-linecap="round" stroke-linejoin="round"/>
<path d="M172.377 289.037L186.355 283.722" stroke="#502A73" stroke-width="0.2291" stroke-miterlimit="10" stroke-linecap="round" stroke-linejoin="round"/>
<path d="M170.561 294.794L184.538 289.48" stroke="#502A73" stroke-width="0.2291" stroke-miterlimit="10" stroke-linecap="round" stroke-linejoin="round"/>
<path d="M168.743 300.551L182.721 295.237" stroke="#502A73" stroke-width="0.2291" stroke-miterlimit="10" stroke-linecap="round" stroke-linejoin="round"/>
<path d="M166.927 306.308L180.905 300.983" stroke="#502A73" stroke-width="0.2291" stroke-miterlimit="10" stroke-linecap="round" stroke-linejoin="round"/>
<path d="M172.264 278.602C169.55 280.169 167.836 280.646 165.69 293.465C163.543 306.285 161.341 323.954 162.033 329.745C162.726 335.536 166.632 337.205 172.945 336.251C179.259 335.297 188.922 328.586 199.845 309.533C210.769 290.49 213.437 282.508 213.778 279.885C214.118 277.262 214.766 272.481 208.43 269.143C207.158 268.473 205 267.224 205 267.224L200.084 269.189C196.87 270.472 193.339 270.619 190.012 269.722C188.15 269.223 185.958 269.177 184.198 270.744C181.768 272.902 180.394 278.659 178.941 286.289C178.316 289.582 174.898 304.923 174.353 308.465C174.285 308.897 173.933 309.215 173.502 309.249C172.934 309.294 172.457 308.829 172.502 308.25C172.684 305.536 173.967 297.394 174.796 292.25C177.465 275.763 173.275 278.023 172.264 278.602Z" fill="#4BBEA5" stroke="#502A73" stroke-width="0.2291" stroke-miterlimit="10" stroke-linecap="round" stroke-linejoin="round"/>
<path d="M208.441 269.154C207.17 268.484 205.012 267.235 205.012 267.235L200.481 269.041C202.73 270.755 205.966 272.504 210.485 273.424C211.53 273.64 212.472 273.821 213.324 274.003C212.609 272.3 211.178 270.596 208.441 269.154Z" fill="#4BBEA5" stroke="#502A73" stroke-width="0.2291" stroke-miterlimit="10" stroke-linecap="round" stroke-linejoin="round"/>
<path d="M206.908 271.357C201.39 273.606 201.038 277.046 200.833 280.623C200.629 284.2 204.649 292.307 200.493 297.519C196.337 302.731 191.386 299.915 186.492 303.73C181.598 307.557 183.767 318.526 182.813 324.067C181.859 329.608 172.525 331.448 172.525 331.448L175.886 335.445C182.075 333.094 190.512 325.827 199.857 309.533C210.78 290.49 213.449 282.508 213.789 279.885C214.039 277.966 214.448 274.9 212.188 272.095C210.985 271.039 209.259 270.404 206.908 271.357Z" fill="#008056" stroke="#502A73" stroke-width="0.2291" stroke-miterlimit="10" stroke-linecap="round" stroke-linejoin="round"/>
<path d="M166.19 329.949C164.191 331.323 163.907 333.105 164.282 334.74C166.156 336.444 169.108 336.83 172.946 336.251C175.092 335.921 177.635 334.933 180.474 333.014C176.489 329.767 170.493 326.996 166.19 329.949Z" fill="#008056" stroke="#502A73" stroke-width="0.2291" stroke-miterlimit="10" stroke-linecap="round" stroke-linejoin="round"/>
<path d="M196.201 271.505C195.951 271.993 195.61 272.674 195.145 273.628C193.453 277.001 191 282.803 191 282.803L195.531 283.257L196.734 271.3C196.553 271.38 196.371 271.448 196.201 271.505Z" fill="#008056" stroke="#502A73" stroke-width="0.2291" stroke-miterlimit="10" stroke-linecap="round" stroke-linejoin="round"/>
<path d="M40.5797 249.601C40.5797 249.601 35.152 253.757 39.9892 265.021C48.5054 284.858 76.5635 305.274 80.6853 296.02C85.6702 284.79 79.073 252.247 79.073 252.247L61.4501 242.55L40.5797 249.601Z" stroke="#502A73" stroke-width="0.2291" stroke-miterlimit="10" stroke-linecap="round" stroke-linejoin="round"/>
<path d="M99.2852 170.82C99.2852 170.82 59.0886 225.222 51.742 235.067C44.3953 244.911 40.5801 249.612 40.5801 249.612C40.5801 249.612 51.4468 246.16 66.7305 264.01C85.5116 285.96 80.6858 296.031 80.6858 296.031C80.6858 296.031 93.1762 269.143 100.659 254.904C108.153 240.653 140.799 177.622 140.799 177.622C140.799 177.622 135.337 204.522 137.688 219.067C140.595 237.054 149.292 255.21 154.436 267.099C159.58 278.999 164.576 285.165 164.576 285.165C164.576 285.165 183.823 285.312 196.892 277.523C209.962 269.733 214.084 263.568 214.084 263.568L180.337 207.599C179.133 205.6 178.452 203.318 178.361 200.979C178.157 195.37 177.759 184.662 177.657 180.415C177.51 174.545 178.497 156.615 178.497 156.615L126.832 148.099L99.2852 170.82Z" fill="white" stroke="#502A73" stroke-width="0.2291" stroke-miterlimit="10" stroke-linecap="round" stroke-linejoin="round"/>
<path d="M185.322 280.521C185.322 278.806 185.368 276.285 184.448 274.979C182.711 272.549 180.724 271.754 170.243 274.423C168.369 274.9 162.794 275.888 161.92 277.943C160.466 281.338 168.869 284.983 168.869 284.983C173.093 284.699 179.872 283.938 186.651 281.883C186.64 281.894 185.322 281.895 185.322 280.521Z" fill="#4BBEA5" stroke="#502A73" stroke-width="0.2291" stroke-miterlimit="10" stroke-linecap="round" stroke-linejoin="round"/>
<path d="M183.29 282.814C183.108 282.644 182.938 282.462 182.79 282.281C182.438 281.827 182.461 281.259 182.37 280.01C182.37 279.045 182.563 275.627 179.781 275.729C177.998 275.797 175.194 276.229 170.97 277.307C170.697 277.375 170.345 277.455 169.948 277.546C168.381 277.909 167.132 278.238 166.223 278.545C165.599 278.761 165.383 279.533 165.814 280.044C166.893 281.316 168.801 283.337 171.537 284.79C174.819 284.45 178.963 283.87 183.29 282.814Z" fill="#4BBEA5" stroke="#502A73" stroke-width="0.2291" stroke-miterlimit="10" stroke-linecap="round" stroke-linejoin="round"/>
<path d="M206.113 271.266C201.139 263.545 188.479 243.787 184.005 235.805C176.988 223.258 171.912 215.832 171.026 208.19C170.14 200.548 171.617 169.117 171.617 169.117L168.097 163.803C168.097 163.803 167.733 168.89 166.779 179.689C165.701 191.816 164.236 210.279 169.13 219.726C175.977 232.943 195.973 264.238 202.298 274.071C203.706 273.083 204.977 272.141 206.113 271.266Z" fill="#EEC718" stroke="#502A73" stroke-width="0.2291" stroke-miterlimit="10" stroke-linecap="round" stroke-linejoin="round"/>
<path d="M140.8 177.61V175.816C140.8 174.397 139.528 173.284 138.131 173.523C135.054 174.034 129.547 176.838 122.848 188.466C112.412 206.554 80.7206 265.68 75.293 275.524" stroke="#502A73" stroke-width="0.2291" stroke-miterlimit="10" stroke-linecap="round" stroke-linejoin="round"/>
<path d="M140.777 158.932C140.777 158.932 138.279 164.95 137.541 167.891C136.803 170.832 140.777 171.275 140.777 171.275" fill="white"/>
<path d="M140.777 158.932C140.777 158.932 138.279 164.95 137.541 167.891C136.803 170.832 140.777 171.275 140.777 171.275" stroke="#502A73" stroke-width="0.2291" stroke-miterlimit="10" stroke-linecap="round" stroke-linejoin="round"/>
<path d="M126.81 106.302L63.1311 106.006C55.2167 106.006 48.8125 112.422 48.8125 120.325C48.8125 124.265 50.4022 127.831 52.9684 130.42C53.6838 131.135 83.0363 154.844 83.0363 154.844L83.7063 155.4C85.6707 157.047 87.4648 158.875 89.0658 160.873L91.632 164.076C91.7569 164.235 91.8932 164.394 92.0295 164.553C93.3353 166.029 95.118 167.017 97.0484 167.391C97.0484 167.391 95.5268 169.64 96.14 171.093C97.2187 173.636 102.362 175.749 106.325 172.989L117.533 164.269C119.213 162.963 120.156 160.919 120.065 158.784L119.94 156.002C119.906 155.23 119.781 154.458 119.577 153.72C118.748 150.711 116.613 148.235 113.763 146.975L107.597 144.25C106.28 143.671 105.065 142.887 103.986 141.933C101.454 139.697 96.5714 135.302 93.3125 131.782H121.666L126.81 106.302Z" fill="#BF792A" stroke="#502A73" stroke-width="0.2291" stroke-miterlimit="10" stroke-linecap="round" stroke-linejoin="round"/>
<path d="M91.916 106.301C91.916 106.301 96.5488 109.821 100.727 120.552C102.522 125.139 103.43 129.182 104.111 131.793H121.655L126.798 106.301L91.9728 106.142L91.916 106.301Z" fill="#4BBEA5" stroke="#502A73" stroke-width="0.2291" stroke-miterlimit="10" stroke-linecap="round" stroke-linejoin="round"/>
<path d="M178.964 140.673C177.862 136.108 179.849 131.487 179.849 131.487L193.702 113.126C193.702 113.126 186.901 109.083 177.567 108.868C168.233 108.652 155.97 107.778 155.97 107.778L140.027 106.665L126.81 106.301C126.81 106.301 123.256 108.584 123.143 113.137C122.995 118.724 121.519 125.582 119.872 129.113L111.924 146.169L113.775 146.986C116.625 148.247 118.76 150.722 119.588 153.731C119.793 154.48 119.918 155.241 119.952 156.013L120.077 158.795C120.133 160.101 119.804 161.373 119.146 162.463C124.38 161.169 128.343 159.658 131.863 160.794C136.416 162.259 140.311 166.596 145.603 166.96C148.146 167.141 155.709 164.473 161.079 165.858C166.871 167.357 165.292 172.171 172.344 172.955C175.943 173.352 180.235 171.661 184.879 173.636C188.581 175.215 190.489 180.892 189.353 184.617C189.353 184.617 191.59 181.426 188.218 171.581C185.402 163.428 180.054 145.238 178.964 140.673Z" fill="#4BBEA5" stroke="#502A73" stroke-width="0.2291" stroke-miterlimit="10" stroke-linecap="round" stroke-linejoin="round"/>
<path d="M158.809 121.585C152.757 119.587 148.873 121.722 148.339 122.04C147.942 121.642 144.967 118.996 138.336 120.03C131.977 121.018 129.343 125.378 129.99 127.694C130.331 128.909 131.943 127.808 134.475 126.684C138.063 125.094 139.903 126.343 139.903 126.343C139.903 126.343 134.714 127.115 132.408 129.432C130.103 131.748 131.773 135.518 134.225 133.667C138.279 130.601 140.402 130.738 140.402 130.738C140.402 130.738 138.029 131.907 136.632 133.747C135.236 135.586 135.633 137.664 137.382 137.846C138.449 137.959 144.456 131.498 143.014 135.677C141.038 141.445 140.141 145.624 139.937 148.553C139.835 149.95 140.777 151.074 142.117 151.176L143.332 151.267C144.672 151.369 146.012 150.427 146.443 149.053C147.352 146.18 148.067 141.979 148.328 136.086C148.521 131.805 151.905 138.981 152.984 139.038C154.755 139.117 155.925 137.164 155.266 135.166C154.607 133.168 152.745 131.68 152.745 131.68C152.745 131.68 154.857 131.873 157.639 135.45C159.32 137.619 162.363 134.201 161 131.612C159.638 129.023 154.891 127.49 154.891 127.49C154.891 127.49 157.151 126.548 160.035 128.637C162.079 130.113 163.214 131.419 164.009 130.283C165.519 128.126 164.611 123.504 158.809 121.585Z" fill="#EEC718" stroke="#502A73" stroke-width="0.2291" stroke-miterlimit="10" stroke-linecap="round" stroke-linejoin="round"/>
<path d="M160.375 118.713L169.209 117.679C170.549 117.52 171.809 116.941 172.809 116.021L173.808 114.863C177.464 110.628 182.074 107.323 187.252 105.234L188.002 104.928C189.966 103.872 191.238 101.873 191.363 99.6475L191.953 88.6786C191.953 88.6786 187.286 91.4038 180.609 93.4136C175.647 94.9125 171.878 94.0723 170.47 96.7066L163.554 106.563" fill="#4BBEA5"/>
<path d="M160.375 118.713L169.209 117.679C170.549 117.52 171.809 116.941 172.809 116.021L173.808 114.863C177.464 110.628 182.074 107.323 187.252 105.234L188.002 104.928C189.966 103.872 191.238 101.873 191.363 99.6475L191.953 88.6786C191.953 88.6786 187.286 91.4038 180.609 93.4136C175.647 94.9125 171.878 94.0723 170.47 96.7066L163.554 106.563" stroke="#502A73" stroke-width="0.2291" stroke-miterlimit="10" stroke-linecap="round" stroke-linejoin="round"/>
<path d="M180.587 93.425C175.625 94.9239 171.855 94.0836 170.447 96.7179L163.532 106.574L160.375 118.713L165.473 118.122C166.211 117.906 166.915 117.554 167.54 117.089C167.824 116.873 168.085 116.612 168.312 116.328L169.493 114.886C173.149 110.65 177.759 107.346 182.937 105.257L183.687 104.95C185.651 103.894 186.923 101.896 187.048 99.6703L187.525 90.8815C185.64 91.6877 183.278 92.6075 180.587 93.425Z" fill="#008056" stroke="#502A73" stroke-width="0.2291" stroke-miterlimit="10" stroke-linecap="round" stroke-linejoin="round"/>
<path d="M180.587 93.425C175.625 94.9239 171.855 94.0836 170.447 96.7179L163.532 106.574L160.375 118.713L165.473 118.122C166.211 117.906 166.915 117.554 167.54 117.089C167.824 116.873 168.085 116.612 168.312 116.328L169.493 114.886C173.149 110.65 177.759 107.346 182.937 105.257L183.687 104.95C185.651 103.894 186.923 101.896 187.048 99.6703L187.525 90.8815C185.64 91.6877 183.278 92.6075 180.587 93.425Z" stroke="#502A73" stroke-width="0.2291" stroke-miterlimit="10" stroke-linecap="round" stroke-linejoin="round"/>
<path d="M141.855 102.191L141.105 102.793C139.64 103.974 139.073 105.95 139.697 107.733L143.955 119.996C144.637 121.949 146.737 123.005 148.702 122.38L160.375 118.713L169.924 104.746C171.116 102.998 170.923 100.647 169.447 99.1255L165.893 95.4465C164.383 93.8795 162.294 92.9938 160.113 92.9938H152.948" fill="#008056"/>
<path d="M141.855 102.191L141.105 102.793C139.64 103.974 139.073 105.95 139.697 107.733L143.955 119.996C144.637 121.949 146.737 123.005 148.702 122.38L160.375 118.713L169.924 104.746C171.116 102.998 170.923 100.647 169.447 99.1255L165.893 95.4465C164.383 93.8795 162.294 92.9938 160.113 92.9938H152.948" stroke="#502A73" stroke-width="0.2291" stroke-miterlimit="10" stroke-linecap="round" stroke-linejoin="round"/>
<path d="M141.855 102.191L141.105 102.793C139.64 103.974 139.073 105.95 139.697 107.733L143.955 119.996C144.637 121.949 146.737 123.005 148.702 122.38L160.375 118.713L169.924 104.746C171.116 102.998 170.923 100.647 169.447 99.1255L165.893 95.4465C164.383 93.8795 162.294 92.9938 160.113 92.9938H152.948" stroke="#502A73" stroke-width="0.2291" stroke-miterlimit="10" stroke-linecap="round" stroke-linejoin="round"/>
<path d="M148.759 109.39L157.774 97.0471C155.379 90.4726 150.655 77.6528 148.895 74.3258C146.068 68.9776 144.841 67.7059 140.856 67.774C135.473 67.8648 128.649 75.5976 127.093 78.7429C125.538 81.8882 126.81 83.5461 128.07 83.5574C129.342 83.5688 130.795 82.5695 130.795 82.5695C130.795 82.5695 131.147 84.9086 131.715 87.9404C131.794 88.3038 131.749 88.6899 131.579 89.0305L129.716 92.7322C129.433 93.4135 129.909 94.1743 130.647 94.2084L132.862 94.4809C133.339 94.5604 133.407 95.0145 133.168 95.8661C132.828 97.0698 133.997 97.3423 134.27 97.4105C134.747 97.524 134.134 97.7397 134.258 98.5686C134.372 99.2726 134.769 99.3976 134.917 99.795C135.292 100.783 135.496 101.169 135.803 101.907C136.246 102.986 137.381 103.633 138.539 103.451L144.58 102.532L148.259 109.844L148.759 109.39Z" fill="#BF792A" stroke="#502A73" stroke-width="0.2291" stroke-miterlimit="10" stroke-linecap="round" stroke-linejoin="round"/>
<path d="M135.303 79.5381C137.552 77.8575 139.595 75.4843 139.595 75.4843C139.595 75.4843 138.21 78.7432 138.891 79.2768C139.573 79.8105 141.935 77.937 142.037 77.9937C142.139 78.0505 140.731 80.594 141.117 81.3662C141.492 82.1497 142.548 81.3321 142.695 81.5478C142.843 81.7636 141.583 84.1481 141.9 84.6137C142.23 85.0792 142.9 85.0906 142.9 85.0906C142.9 85.0906 142.934 87.5205 144.83 87.7931C146.726 88.0656 146.919 86.7938 146.215 83.7621C146 82.831 146.386 81.968 147.078 82.0361C148.316 82.161 150.394 84.08 150.394 84.08C150.394 84.08 152.733 87.9294 154.448 88.0543C152.336 82.4222 150.031 76.5289 148.872 74.3147C146.045 68.9665 144.819 67.6948 140.833 67.7629C135.451 67.8537 128.627 75.5865 127.071 78.7318C125.515 81.8771 126.787 83.535 128.047 83.5463C129.319 83.5577 130.773 82.5584 130.773 82.5584C130.773 82.5584 132.692 81.4911 135.303 79.5381Z" fill="#502A73" stroke="#502A73" stroke-width="0.2291" stroke-miterlimit="10" stroke-linecap="round" stroke-linejoin="round"/>
<path d="M135.303 79.5381C137.552 77.8575 139.595 75.4843 139.595 75.4843C139.595 75.4843 138.21 78.7432 138.891 79.2768C139.573 79.8105 141.935 77.937 142.037 77.9937C142.139 78.0505 140.731 80.594 141.117 81.3662C141.492 82.1497 142.548 81.3321 142.695 81.5478C142.843 81.7636 141.583 84.1481 141.9 84.6137C142.23 85.0792 142.9 85.0906 142.9 85.0906C142.9 85.0906 142.934 87.5205 144.83 87.7931C146.726 88.0656 146.919 86.7938 146.215 83.7621C146 82.831 146.386 81.968 147.078 82.0361C148.316 82.161 150.394 84.08 150.394 84.08C150.394 84.08 152.733 87.9294 154.448 88.0543C152.336 82.4222 150.031 76.5289 148.872 74.3147C146.045 68.9665 144.819 67.6948 140.833 67.7629C135.451 67.8537 128.627 75.5865 127.071 78.7318C125.515 81.8771 126.787 83.535 128.047 83.5463C129.319 83.5577 130.773 82.5584 130.773 82.5584C130.773 82.5584 132.692 81.4911 135.303 79.5381Z" stroke="#502A73" stroke-width="0.2291" stroke-miterlimit="10" stroke-linecap="round" stroke-linejoin="round"/>
<path d="M146.863 84.4776C146.738 83.8985 146.704 83.3648 146.772 82.9787C147.056 81.4458 148.316 80.3898 149.849 80.6737C151.382 80.9576 152.131 82.4223 152.199 83.978C152.268 85.4314 151.882 86.828 151.246 87.7251C150.769 88.4064 150.144 88.7811 149.486 88.6562" fill="#BF792A"/>
<path d="M146.863 84.4776C146.738 83.8985 146.704 83.3648 146.772 82.9787C147.056 81.4458 148.316 80.3898 149.849 80.6737C151.382 80.9576 152.131 82.4223 152.199 83.978C152.268 85.4314 151.882 86.828 151.246 87.7251C150.769 88.4064 150.144 88.7811 149.486 88.6562" stroke="#502A73" stroke-width="0.2291" stroke-miterlimit="10" stroke-linecap="round" stroke-linejoin="round"/>
<path d="M147.329 88.0883C147.329 88.0883 147.113 89.0194 146.284 89.2919C145.455 89.5644 144.331 88.9285 144.331 88.9285" stroke="#502A73" stroke-width="0.2291" stroke-miterlimit="10" stroke-linecap="round" stroke-linejoin="round"/>
<path d="M147.612 89.5418C147.612 89.5418 147.396 90.4729 146.567 90.7454C145.75 91.0179 144.614 90.382 144.614 90.382" stroke="#502A73" stroke-width="0.2291" stroke-miterlimit="10" stroke-linecap="round" stroke-linejoin="round"/>
<path d="M148.248 84.2955C148.248 84.2955 148.179 82.6149 149.69 82.8874C150.666 83.0691 150.837 84.568 150.144 85.2152C149.758 85.5672 149.042 85.5331 149.042 85.5331C149.042 85.5331 149.565 85.7489 149.463 86.2485C149.326 86.8844 148.588 86.5778 148.588 86.5778" fill="#BF792A"/>
<path d="M148.248 84.2955C148.248 84.2955 148.179 82.6149 149.69 82.8874C150.666 83.0691 150.837 84.568 150.144 85.2152C149.758 85.5672 149.042 85.5331 149.042 85.5331C149.042 85.5331 149.565 85.7489 149.463 86.2485C149.326 86.8844 148.588 86.5778 148.588 86.5778" stroke="#502A73" stroke-width="0.2291" stroke-miterlimit="10" stroke-linecap="round" stroke-linejoin="round"/>
<path d="M134.259 97.3994C134.259 97.3994 135.78 97.6037 136.95 97.229C138.165 96.8316 138.664 96.2979 138.664 96.2979" stroke="#502A73" stroke-width="0.2291" stroke-miterlimit="10" stroke-linecap="round" stroke-linejoin="round"/>
<path d="M135.859 86.5325C136.291 86.294 136.779 86.1918 137.267 86.2372" stroke="#502A73" stroke-width="0.4582" stroke-miterlimit="10" stroke-linecap="round" stroke-linejoin="round"/>
<path d="M136.064 86.4756C135.984 86.7595 135.984 87.191 136.064 87.577C136.188 88.1788 136.472 88.4287 136.745 88.3719C137.017 88.3151 137.176 87.9745 137.051 87.3727C136.972 86.9866 136.79 86.5891 136.597 86.362L136.064 86.4756Z" fill="#502A73"/>
<path d="M131.431 87.4752C131.862 87.2367 132.35 87.1345 132.839 87.1799" stroke="#502A73" stroke-width="0.4582" stroke-miterlimit="10" stroke-linecap="round" stroke-linejoin="round"/>
<path d="M131.624 87.4182C131.545 87.7021 131.545 88.1335 131.624 88.5196C131.749 89.1214 132.033 89.3712 132.305 89.3145C132.578 89.2577 132.737 88.917 132.612 88.3152C132.532 87.9292 132.351 87.5317 132.158 87.3046L131.624 87.4182Z" fill="#502A73"/>
<path d="M133.929 85.0109C134.11 85.2267 134.44 85.2381 134.621 85.0223C134.939 84.6703 135.496 84.2161 136.291 84.1821C136.734 84.1593 137.063 84.1934 137.313 84.2502C137.608 84.3183 137.869 84.0458 137.801 83.7506C137.767 83.6257 137.687 83.5348 137.574 83.4781C137.006 83.1942 135.212 82.5242 133.883 84.4432C133.781 84.6135 133.793 84.852 133.929 85.0109Z" fill="#502A73"/>
<path d="M140.413 95.2192C140.969 95.2419 141.264 94.9012 141.264 94.9012C141.264 94.9012 139.266 93.7317 138.743 93.6181C138.221 93.5046 137.063 93.902 135.382 94.4925C134.485 94.8104 133.747 94.8558 133.259 94.8331C133.316 95.0602 133.282 95.4009 133.157 95.8437C133.134 95.9232 133.123 95.9913 133.111 96.0708C133.622 96.1162 134.394 96.1389 135.291 95.9686C136.87 95.662 138.584 94.9126 138.721 94.8331C138.8 94.799 139.743 95.1965 140.413 95.2192Z" fill="#502A73" stroke="#502A73" stroke-width="0.2291" stroke-miterlimit="10" stroke-linecap="round" stroke-linejoin="round"/>
<path d="M140.413 95.2192C140.969 95.2419 141.264 94.9012 141.264 94.9012C141.264 94.9012 139.266 93.7317 138.743 93.6181C138.221 93.5046 137.063 93.902 135.382 94.4925C134.485 94.8104 133.747 94.8558 133.259 94.8331C133.316 95.0602 133.282 95.4009 133.157 95.8437C133.134 95.9232 133.123 95.9913 133.111 96.0708C133.622 96.1162 134.394 96.1389 135.291 95.9686C136.87 95.662 138.584 94.9126 138.721 94.8331C138.8 94.799 139.743 95.1965 140.413 95.2192Z" stroke="#502A73" stroke-width="0.2291" stroke-miterlimit="10" stroke-linecap="round" stroke-linejoin="round"/>
<path d="M131.738 84.4321C131.488 84.4094 131.284 84.4548 131.113 84.5342L131.295 85.6016C131.386 85.5448 131.488 85.4994 131.613 85.4767C131.885 85.4313 132.169 85.4767 132.396 85.5335C132.658 85.6016 132.919 85.4313 132.976 85.1701C133.01 84.9657 132.907 84.7613 132.726 84.6705C132.533 84.5683 132.215 84.4662 131.738 84.4321Z" fill="#502A73"/>
<path d="M222.147 206.612C222.147 206.612 223.566 207.543 226.064 207.838C228.562 208.133 229.448 207.94 230.618 209.507C231.787 211.074 231.549 213.322 227.484 213.322C223.419 213.322 220.728 210.677 220.728 210.677" fill="#BF792A"/>
<path d="M222.147 206.612C222.147 206.612 223.566 207.543 226.064 207.838C228.562 208.133 229.448 207.94 230.618 209.507C231.787 211.074 231.549 213.322 227.484 213.322C223.419 213.322 220.728 210.677 220.728 210.677" stroke="#502A73" stroke-width="0.2291" stroke-miterlimit="10" stroke-linecap="round" stroke-linejoin="round"/>
<path d="M193.702 113.138C198.006 115.431 206.829 137.528 210.746 144.864C214.664 152.21 218.876 162.293 219.172 169.152C219.467 176.01 218.49 200.878 218.49 200.878C218.49 200.878 222.112 203.614 223.191 206.067C224.27 208.519 225.246 210.768 229.164 214.004C233.081 217.24 236.511 217.626 236.601 219.784C236.704 221.941 233.093 223.213 233.093 223.213C233.093 223.213 232.434 225.904 229.664 226.619C227.733 227.119 226.632 227.232 226.632 227.232C226.632 227.232 225.042 229.049 222.612 229.049C220.182 229.049 216.98 228.118 216.98 228.118C216.98 228.118 208.929 231.184 202.537 222.214C196.144 213.254 197.45 204.341 196.087 194.155C194.986 185.957 192.839 171.389 194.088 165.882L181.439 143.512C176.227 134.292 186.674 132.793 194.611 125.776C197.279 123.391 191.375 111.889 193.702 113.138Z" fill="#BF792A" stroke="#502A73" stroke-width="0.2291" stroke-miterlimit="10" stroke-linecap="round" stroke-linejoin="round"/>
<path d="M210.111 143.637C205.943 135.336 197.779 115.306 193.703 113.126C189.751 111.025 185.073 116.884 181.099 122.233C177.102 127.604 176.182 134.178 179.475 140.003L186.708 152.789C190.432 152.528 194.884 151.858 198.949 150.291C205.853 147.622 208.918 144.954 210.111 143.637Z" fill="#4BBEA5" stroke="#502A73" stroke-width="0.2291" stroke-miterlimit="10" stroke-linecap="round" stroke-linejoin="round"/>
<path d="M194.089 165.87C194.089 165.87 197.03 167.664 200.993 168.073C204.956 168.482 208.158 167.63 208.158 167.63" fill="#BF792A"/>
<path d="M194.089 165.87C194.089 165.87 197.03 167.664 200.993 168.073C204.956 168.482 208.158 167.63 208.158 167.63" stroke="#502A73" stroke-width="0.2291" stroke-miterlimit="10" stroke-linecap="round" stroke-linejoin="round"/>
<path d="M198.494 178.36C198.494 178.36 200.447 179.53 205.353 180.03C210.247 180.518 214.073 180.03 214.073 180.03C214.073 180.03 210.258 182.278 206.726 183.754C203.195 185.23 199.187 186.4 199.187 186.4C199.187 186.4 199.868 187.921 204.864 188.478C209.861 189.045 210.542 189.045 210.542 189.045L201.117 195.211" stroke="#502A73" stroke-width="0.2291" stroke-miterlimit="10" stroke-linecap="round" stroke-linejoin="round"/>
<path d="M216.98 228.107C216.98 228.107 212.893 226.29 210.792 223.406L216.98 228.107Z" fill="#BF792A"/>
<path d="M216.98 228.107C216.98 228.107 212.893 226.29 210.792 223.406" stroke="#502A73" stroke-width="0.2291" stroke-miterlimit="10" stroke-linecap="round" stroke-linejoin="round"/>
<path d="M226.621 227.221C226.621 227.221 224.566 226.732 221.636 224.859C219.081 223.235 217.446 221.1 217.446 221.1" fill="#BF792A"/>
<path d="M226.621 227.221C226.621 227.221 224.566 226.732 221.636 224.859C219.081 223.235 217.446 221.1 217.446 221.1" stroke="#502A73" stroke-width="0.2291" stroke-miterlimit="10" stroke-linecap="round" stroke-linejoin="round"/>
<path d="M233.081 223.212C233.081 223.212 231.753 223.496 228.789 222.463C225.746 221.396 223.43 218.875 223.43 218.875" fill="#BF792A"/>
<path d="M233.081 223.212C233.081 223.212 231.753 223.496 228.789 222.463C225.746 221.396 223.43 218.875 223.43 218.875" stroke="#502A73" stroke-width="0.2291" stroke-miterlimit="10" stroke-linecap="round" stroke-linejoin="round"/>
<path d="M42.931 257.527C42.931 257.527 35.0052 248.068 38.6842 241.823C40.8303 238.166 47.9045 238.132 52.1172 240.154C59.6682 243.787 54.9445 259.923 54.9445 259.923L53.8204 269.359L42.931 257.527Z" fill="#4BBEA5" stroke="#502A73" stroke-width="0.2291" stroke-miterlimit="10" stroke-linecap="round" stroke-linejoin="round"/>
<path d="M43.2836 256.175C41.5577 254.075 37.2428 247.489 39.3548 243.901C39.9112 242.958 41.9324 241.755 45.8158 241.755C47.5872 241.755 49.4607 242.152 50.8347 242.811C53.3782 244.037 53.5485 248.567 53.4236 251.156C53.2192 255.256 52.1291 259.059 52.1178 259.105L52.0497 259.343L51.6522 262.648L43.2836 256.175Z" fill="#4BBEA5" stroke="#502A73" stroke-width="0.2291" stroke-miterlimit="10" stroke-linecap="round" stroke-linejoin="round"/>
<path d="M77.5521 279.635C75.0767 277.773 71.7383 276.285 69.8761 275.536C68.945 275.161 68.1729 274.491 67.6733 273.617L61.553 263.08C60.5651 261.569 59.2025 260.343 57.6014 259.514L44.441 253.189C44.441 253.189 38.6614 249.488 28.476 246.172C18.2906 242.856 8.84324 244.06 3.34744 250.124C-2.14836 256.187 34.6644 293.624 34.6644 293.624L59.7816 316.959C59.7816 316.959 68.6611 313.768 71.5794 306.092C73.4416 301.187 77.8019 291.649 80.1864 286.017C79.6073 284.166 78.7671 282.042 77.5521 279.635Z" fill="#4BBEA5" stroke="#502A73" stroke-width="0.2291" stroke-miterlimit="10" stroke-linecap="round" stroke-linejoin="round"/>
<path d="M71.5565 306.115C73.4187 301.209 77.779 291.671 80.1636 286.039C79.8116 284.892 79.3573 283.632 78.7782 282.281C76.0644 286.493 70.0463 295.918 67.094 301.311C63.1992 308.408 63.1992 308.408 63.1992 308.408C63.1992 308.408 61.4279 312.939 60.2129 316.8C62.0637 316.027 69.0357 312.746 71.5565 306.115Z" fill="#4BBEA5" stroke="#502A73" stroke-width="0.2291" stroke-miterlimit="10" stroke-linecap="round" stroke-linejoin="round"/>
<path d="M63.9379 284.597C47.8934 277 51.6405 266.383 42.7155 258.832C38.2644 255.063 34.3583 255.176 28.8625 251.702C23.3667 248.227 21.0049 244.548 21.0049 244.548L13.749 251.702C13.749 251.702 31.4968 278.442 31.7239 278.704C31.9056 278.919 38.7981 293.817 42.3635 300.789L49.9259 307.818C51.9925 308.999 53.8207 309.986 53.8207 309.986L54.2181 311.815L59.7707 316.97C59.7707 316.97 68.6503 313.779 71.5685 306.103C72.3293 304.093 73.5215 301.3 74.816 298.314C75.2702 297.246 75.2815 289.968 63.9379 284.597Z" fill="#008056" stroke="#502A73" stroke-width="0.2291" stroke-miterlimit="10" stroke-linecap="round" stroke-linejoin="round"/>
<path d="M13.7485 253.2C13.7485 253.2 22.1171 248.397 21.0043 244.548C13.7939 243.776 7.45784 245.581 3.33599 250.134C1.8712 251.747 3.41545 255.596 6.46993 260.377C9.2519 262.988 11.5797 265.134 11.5797 265.134L13.7485 253.2Z" fill="#008056" stroke="#502A73" stroke-width="0.2291" stroke-miterlimit="10" stroke-linecap="round" stroke-linejoin="round"/>
<path d="M20.8796 251.009C6.06142 243.072 -0.831042 250.453 0.327163 261.285C1.73518 274.468 12.3975 286.891 22.9576 297.36C31.3716 305.706 40.6146 314.131 47.859 316.641C60.7696 321.137 66.2995 312.11 67.242 310.486C70.9777 304.037 71.4319 294.851 45.3382 274.491C40.6032 270.801 30.0317 255.914 20.8796 251.009Z" fill="#502A73" stroke="#502A73" stroke-width="0.2291" stroke-miterlimit="10" stroke-linecap="round" stroke-linejoin="round"/>
<path d="M20.8796 251.009C6.06142 243.072 -0.831042 250.453 0.327163 261.285C1.73518 274.468 12.3975 286.891 22.9576 297.36C31.3716 305.706 40.6146 314.131 47.859 316.641C60.7696 321.137 66.2995 312.11 67.2419 310.486C70.9777 304.037 71.4319 294.851 45.3382 274.491C40.6032 270.801 30.0317 255.914 20.8796 251.009Z" stroke="#502A73" stroke-width="0.2291" stroke-miterlimit="10" stroke-linecap="round" stroke-linejoin="round"/>
<path d="M62.2572 273.447C62.2572 273.447 67.6167 276.762 70.6939 278.942C73.7711 281.122 73.7712 281.122 73.7712 281.122L61.1104 277.852L62.2572 273.447Z" fill="#008056" stroke="#502A73" stroke-width="0.2291" stroke-miterlimit="10" stroke-linecap="round" stroke-linejoin="round"/>
<path d="M80.3341 138.913C76.0647 141.615 75.0427 145.453 74.9746 148.337C77.7112 150.552 80.0389 152.437 81.4923 153.606C82.0942 147.758 85.2168 145.272 85.2168 145.272L91.2235 139.39C91.2122 139.39 87.9987 134.064 80.3341 138.913Z" fill="#A9D054" stroke="#502A73" stroke-width="0.2291" stroke-miterlimit="10" stroke-linecap="round" stroke-linejoin="round"/>
<path d="M93.3124 131.793C93.3124 131.793 91.5071 129.625 90.1785 127.535C89.1225 125.878 87.1467 123.221 85.6706 121.267C82.3436 116.862 79.5957 114.216 79.5957 114.216" fill="#BF792A"/>
<path d="M93.3124 131.793C93.3124 131.793 91.5071 129.625 90.1785 127.535C89.1225 125.878 87.1467 123.221 85.6706 121.267C82.3436 116.862 79.5957 114.216 79.5957 114.216" stroke="#502A73" stroke-width="0.2291" stroke-miterlimit="10" stroke-linecap="round" stroke-linejoin="round"/>
<path d="M107.382 163.792C107.382 163.792 109.891 170.605 107.382 172.206V163.792Z" fill="#BF792A"/>
<path d="M107.382 163.792C107.382 163.792 109.891 170.605 107.382 172.206" stroke="#502A73" stroke-width="0.2291" stroke-miterlimit="10" stroke-linecap="round" stroke-linejoin="round"/>
<path d="M111.924 159.477C111.924 159.477 114.831 166.392 112.651 168.095L111.924 159.477Z" fill="#BF792A"/>
<path d="M111.924 159.477C111.924 159.477 114.831 166.392 112.651 168.095" stroke="#502A73" stroke-width="0.2291" stroke-miterlimit="10" stroke-linecap="round" stroke-linejoin="round"/>
<path d="M115.546 156.513C115.546 156.513 116.602 158.557 116.999 160.578C117.397 162.599 117.261 164.507 116.432 165.154" fill="#BF792A"/>
<path d="M115.546 156.513C115.546 156.513 116.602 158.557 116.999 160.578C117.397 162.599 117.261 164.507 116.432 165.154" stroke="#502A73" stroke-width="0.2291" stroke-miterlimit="10" stroke-linecap="round" stroke-linejoin="round"/>
<path d="M97.0596 167.414H97.2526C97.8771 167.403 98.4903 167.289 99.0921 167.096L99.2283 167.05C99.2283 167.05 99.2965 168.515 99.8528 169.106" fill="#BF792A"/>
<path d="M97.0596 167.414H97.2526C97.8771 167.403 98.4903 167.289 99.0921 167.096L99.2283 167.05C99.2283 167.05 99.2965 168.515 99.8528 169.106" stroke="#502A73" stroke-width="0.2291" stroke-miterlimit="10" stroke-linecap="round" stroke-linejoin="round"/>
<path d="M80.833 121.937C80.833 121.937 78.1533 121.483 74.0769 125.139C70.0118 128.807 69.1602 131.793 69.1602 131.793" stroke="#502A73" stroke-width="0.2291" stroke-miterlimit="10" stroke-linecap="round" stroke-linejoin="round"/>
<path d="M77.0523 117.589C77.0523 117.589 73.1575 117.361 67.9001 118.156C62.6314 118.962 58.748 121.926 58.748 121.926" stroke="#502A73" stroke-width="0.2291" stroke-miterlimit="10" stroke-linecap="round" stroke-linejoin="round"/>
<path d="M78.6767 138.254L84.8879 147.293C86.1937 149.189 88.7826 149.689 90.6902 148.394L100.047 142.104C102.204 140.65 102.533 137.607 100.739 135.722L92.9612 127.569C91.5305 126.07 89.2255 125.843 87.5336 127.013L79.7441 132.418C77.8478 133.746 77.3709 136.347 78.6767 138.254Z" fill="#A9D054" stroke="#502A73" stroke-width="0.2291" stroke-miterlimit="10" stroke-linecap="round" stroke-linejoin="round"/>
<path d="M88.35 146.169C87.9412 146.169 87.5552 145.964 87.3167 145.624L81.1055 136.585C80.7195 136.018 80.8558 135.245 81.4235 134.848L89.213 129.443C89.4742 129.261 89.7467 129.216 89.9284 129.216C90.1328 129.216 90.5075 129.261 90.8368 129.602L98.6149 137.755C98.9669 138.118 98.9783 138.538 98.9556 138.754C98.9329 138.97 98.8307 139.379 98.4106 139.651L89.054 145.942C88.8269 146.101 88.5998 146.169 88.35 146.169Z" fill="#502A73" stroke="#502A73" stroke-width="0.2291" stroke-miterlimit="10" stroke-linecap="round" stroke-linejoin="round"/>
<path d="M88.35 146.169C87.9412 146.169 87.5552 145.964 87.3167 145.624L81.1055 136.585C80.7195 136.018 80.8558 135.245 81.4235 134.848L89.213 129.443C89.4742 129.261 89.7467 129.216 89.9284 129.216C90.1328 129.216 90.5075 129.261 90.8368 129.602L98.6149 137.755C98.9669 138.118 98.9783 138.538 98.9556 138.754C98.9329 138.97 98.8307 139.379 98.4106 139.651L89.054 145.942C88.8269 146.101 88.5998 146.169 88.35 146.169Z" stroke="#502A73" stroke-width="0.2291" stroke-miterlimit="10" stroke-linecap="round" stroke-linejoin="round"/>
<path d="M89.6566 140.366C91.4188 140.366 92.8473 138.938 92.8473 137.176C92.8473 135.413 91.4188 133.985 89.6566 133.985C87.8944 133.985 86.4658 135.413 86.4658 137.176C86.4658 138.938 87.8944 140.366 89.6566 140.366Z" fill="#EEC718" stroke="#502A73" stroke-width="0.2291" stroke-miterlimit="10" stroke-linecap="round" stroke-linejoin="round"/>
</svg>
