<svg width="23" height="27" viewBox="0 0 23 27" fill="none" xmlns="http://www.w3.org/2000/svg">
<path d="M5.43733 10.62H7.08V4.95067L9.01467 0.0880013H7.22267L6.192 3.704L5.14667 0.081337H3.376L5.43733 4.95067V10.62ZM10.248 8.63334C10.248 9.052 10.5613 9.39467 10.9427 9.39467C11.3227 9.39467 11.6293 9.052 11.6293 8.63334V4.69734C11.6293 4.27867 11.3227 3.93467 10.9427 3.93467C10.5613 3.93467 10.248 4.27867 10.248 4.69734V8.63334ZM8.888 5.69734C8.888 4.988 8.948 4.428 9.06667 4.032C9.18 3.636 9.396 3.31467 9.70267 3.076C10.008 2.82933 10.404 2.71067 10.8827 2.71067C11.2853 2.71067 11.6293 2.78534 11.9133 2.94134C12.204 3.09867 12.428 3.3 12.5853 3.54667C12.7427 3.80133 12.8467 4.05467 12.9067 4.316C12.9667 4.58533 12.988 4.988 12.988 5.52667V7.40133C12.988 8.088 12.9667 8.588 12.9133 8.90933C12.8613 9.23067 12.7427 9.52934 12.5707 9.80533C12.3987 10.0827 12.1747 10.292 11.8987 10.4253C11.6213 10.5533 11.308 10.62 10.9573 10.62C10.5613 10.62 10.2253 10.568 9.94933 10.456C9.672 10.336 9.46267 10.164 9.30667 9.94C9.15733 9.70933 9.04533 9.432 8.98533 9.11067C8.91733 8.79067 8.888 8.304 8.888 7.65467V5.69734ZM14.1533 9.87333C14.236 10.0667 14.3627 10.224 14.528 10.344C14.6987 10.4627 14.916 10.5227 15.1693 10.5227C15.3933 10.5227 15.5947 10.4627 15.7667 10.336C15.9387 10.2093 16.088 10.0227 16.208 9.776L16.1773 10.388H17.9107V2.99467H16.544V8.75334C16.544 9.05867 16.2893 9.31334 15.976 9.31334C15.6627 9.31334 15.408 9.05867 15.408 8.75334V2.99467H13.9747V7.984C13.9747 8.61867 13.9893 9.044 14.004 9.25334C14.0267 9.46934 14.0787 9.672 14.1533 9.87333ZM20.152 21.9053H18.9867V22.0707V22.72C18.9867 23.0707 18.6947 23.3547 18.344 23.3547H18.112C17.7613 23.3547 17.4773 23.0707 17.4773 22.72V22.6453V21.928V21.0013H20.152V19.9933C20.152 19.2613 20.136 18.5227 20.0693 18.104C19.8827 16.7667 18.008 16.5573 17.0667 17.2373C16.768 17.4547 16.544 17.7387 16.4093 18.1187C16.2827 18.5067 16.2147 19.0307 16.2147 19.6947V21.9053C16.2147 25.596 20.6893 25.072 20.152 21.9053ZM15.2747 22.3987L15.2667 18.6787C15.2667 17.26 14.2067 16.416 12.772 17.5587L12.78 14.7947L11.2187 14.8027L11.2107 24.34L12.496 24.3187L12.608 23.728C14.2427 25.2293 15.2747 24.1987 15.2747 22.3987ZM10.284 17.2827H8.724V21.7493C8.724 22.3907 8.76133 22.72 8.724 22.832C8.59733 23.176 8.02133 23.5413 7.80533 22.8693C7.768 22.7493 7.79733 22.3907 7.79733 21.7787L7.79067 17.2827H6.244V21.704C6.244 22.384 6.22933 22.892 6.252 23.1227C6.28933 23.5267 6.27333 24.004 6.65467 24.2733C7.35733 24.7733 8.70133 24.1987 9.03733 23.4747L9.02933 24.3933L10.284 24.4V17.2827ZM4.676 24.4V16.0347H6.54267V14.7947L1.56133 14.788V16.0053L3.11467 16.012V24.4H4.676ZM22.4293 15.5947V23.5347C22.4293 25.4387 20.7787 27 18.7627 27H3.66667C1.65067 27 0 25.4387 0 23.5347V15.5947C0 13.6973 1.65067 12.136 3.66667 12.136H18.7627C20.7787 12.136 22.4293 13.6973 22.4293 15.5947ZM13.4293 17.932C13.056 17.932 12.7493 18.1867 12.7493 18.492V22.668C12.7493 22.9733 13.056 23.228 13.4293 23.228C13.8107 23.228 14.116 22.9733 14.116 22.668V18.492C14.116 18.1867 13.8107 17.932 13.4293 17.932ZM18.972 19.7693H17.492L17.5 18.9107C17.5 18.5293 17.8133 18.216 18.1947 18.216H18.292C18.672 18.216 18.9933 18.5293 18.9933 18.9107L18.972 19.7693Z" fill="#9B945F"/>
</svg>
