<svg width="118" height="108" viewBox="0 0 118 108" fill="none" xmlns="http://www.w3.org/2000/svg">
<g clip-path="url(#clip0_182_5614)">
<path d="M38.024 103.589C37.6101 103.845 37.0204 103.708 36.811 103.218C36.6968 102.952 36.7693 103.074 36.7484 97.5541H38.4429V96.9184H36.7484V94.3266H36.3186C36.0059 95.9269 35.594 97.1805 33.9402 97.1805V97.5541H35.2485C35.2763 102.982 35.183 103.054 35.3369 103.621C35.5185 104.279 35.9791 104.667 36.7266 104.667C37.6706 104.667 38.3427 104.257 38.7606 103.536L38.3873 103.281C38.2841 103.405 38.162 103.508 38.024 103.589ZM24.5397 94.0835C25.1204 95.1776 26.8804 94.1163 25.9373 93.2564C25.2345 92.6585 24.1843 93.362 24.5397 94.0835ZM28.819 98.2746C28.819 97.2183 31.0267 96.4929 32.3579 98.6632L32.9068 98.1679C32.3986 97.4983 31.8099 96.9503 30.985 96.8167C28.9888 96.4919 27.7003 97.59 27.7003 98.8824C27.7003 100.408 29.0861 100.932 30.4649 101.573C32.8502 102.673 31.4814 104.571 29.7293 104.063C29.0593 103.864 28.5669 103.284 28.1579 102.704L27.5445 103.261C27.9246 103.761 28.3753 104.167 28.9491 104.408C29.9566 104.845 31.6422 104.748 32.5058 104.006C33.3168 103.314 33.6037 101.848 32.5326 100.921C31.3543 99.8709 28.819 99.6407 28.819 98.2746ZM43.3199 96.7639C42.4443 96.7639 41.6532 97.6269 41.1588 98.3523V96.9184H39.6669V104.503H41.1588V99.2501C41.3286 98.9731 41.5509 98.6413 41.7743 98.4051C42.1803 97.9856 42.4632 97.9896 42.9437 98.2427C43.441 98.5167 44.0028 98.439 44.2599 98.2277C44.5736 97.9696 44.5945 97.3827 44.1468 97.036C43.9065 96.8476 43.6177 96.7639 43.3199 96.7639ZM13.2789 93.2574C12.9245 93.5763 12.9533 94.0356 13.2789 94.3246C14.078 95.0251 15.297 93.9748 14.4899 93.2574C14.1762 92.9824 13.6481 92.9425 13.2789 93.2574ZM17.9682 98.3035V96.9184H16.4713V104.503H17.9682V98.8824C19.5654 97.3349 21.2976 97.3947 21.2976 99.3139V104.503H22.8025V99.0588C22.8025 98.423 22.5841 97.8471 22.2436 97.4345C21.1428 96.0993 19.1991 96.9204 17.9682 98.3035ZM5.57282 102.217H5.49539L1.68157 94.6664H0V104.503H0.724645V96.5029H0.837809L4.90376 104.503H5.24127L9.25858 96.4461H9.31417V104.503H10.9679V94.6664H9.31417M24.5972 97.1964V104.503H26.0882V96.7639H25.6514M13.1498 97.1964V104.503H14.6408V96.7639H14.205M103.328 93.4647V104.503H104.826V93.0362H104.398M109.946 103.589C109.523 103.845 108.935 103.704 108.732 103.218C108.616 102.955 108.689 103.094 108.668 97.5541H110.364V96.9184H108.668V94.3266H108.239C107.927 95.9438 107.508 97.1805 105.86 97.1805V97.5541H107.17C107.198 102.991 107.106 103.047 107.256 103.621C107.37 104.03 107.595 104.363 107.989 104.539C108.452 104.752 109.314 104.707 109.878 104.362C110.212 104.162 110.479 103.886 110.681 103.536L110.307 103.281C110.204 103.405 110.084 103.508 109.946 103.589ZM100.653 97.314C99.871 96.6723 98.3125 96.6723 97.3963 96.9014C94.9305 97.5103 95.26 99.4255 96.3053 99.4255C96.8781 99.4255 97.0518 98.986 97.0518 98.4161C97.0518 98.1311 97.1034 97.8441 97.2881 97.6259C97.6345 97.2093 98.4356 97.2004 98.8912 97.3608C99.2992 97.5053 99.5285 97.8381 99.6466 98.2506C99.7787 98.7299 99.7499 99.6975 99.7469 99.5969C98.653 99.8709 97.6881 100.129 96.7322 100.64C93.3938 102.439 96.1485 106.415 99.2228 103.882C99.3925 103.743 99.5682 103.603 99.7469 103.466V104.503H101.253C101.208 98.6024 101.489 98.0035 100.653 97.314ZM99.7469 102.914C99.326 103.231 98.9359 103.533 98.4356 103.681C97.1868 104.056 96.4036 102.711 96.8612 101.863C97.3327 100.985 98.8068 100.391 99.7469 100.083V102.914ZM117.765 98.1659C117.006 95.9977 114.617 96.5776 113.085 98.3035V93.0362H112.657L111.588 93.4647V104.503H113.085V98.8824C114.658 97.3498 116.415 97.3797 116.415 99.3139V104.503H117.914C117.869 99.0179 118.022 98.8914 117.765 98.1659ZM58.4789 97.9467C56.0895 100.399 57.6202 104.667 61.3457 104.667C64.9322 104.667 66.6376 100.163 64.2016 97.8471C62.7136 96.4411 60.0493 96.3265 58.4789 97.9467ZM63.4988 102.364C63.2387 103.275 62.5696 104.11 61.6266 104.11C58.9196 104.11 58.1106 98.8774 60.2478 97.5471C60.9943 97.0828 62.3612 97.318 63.0481 98.4798C63.6586 99.5161 63.7876 101.355 63.4988 102.364ZM49.3205 102.4L46.4021 96.9264H44.6927L48.5611 104.15C47.9636 105.49 47.7442 106.151 47.2598 106.509C47.0166 106.69 46.6642 106.662 46.5004 106.592C46.2611 106.492 46.2611 106.448 46.01 106.351C45.4412 106.138 44.7404 106.491 44.7404 107.125C44.7404 108.309 47.3977 108.65 48.6465 105.833L52.502 96.9264H51.7L49.3205 102.4ZM72.0535 93.4128C71.1869 92.8518 69.551 92.801 68.5137 93.9071C67.4942 94.9912 67.7196 96.2597 67.6908 96.9184H66.1095V97.5541H67.6908V104.503H69.1967V97.5541H71.2167V96.9184H69.1967C69.2135 95.4825 69.0666 94.7092 69.4895 94.0655C69.6513 93.8114 69.9203 93.5902 70.238 93.5902C71.4202 93.5902 70.7214 95.0401 71.8282 95.0401C72.7166 95.0401 72.9033 93.9569 72.0535 93.4128ZM93.4891 102.347C93.1526 102.785 92.6583 103.146 92.0478 103.355C89.9642 104.097 88.4405 102.329 88.4405 99.9626H94.0758C94.0758 96.8436 90.0079 95.6579 88.0166 97.9627C85.791 100.567 87.3177 104.667 90.6988 104.667C92.2692 104.667 93.8614 103.379 94.2793 101.848L93.8505 101.659C93.781 101.893 93.6599 102.123 93.4891 102.347ZM88.64 98.5466C89.5453 96.4291 92.1967 97.309 92.1967 99.3557L88.4474 99.3477C88.4702 99.0598 88.5338 98.7937 88.64 98.5466ZM83.5913 99.1504H78.6667V94.6664H77.0208V104.503H78.6667V99.7872H83.5913V104.503H85.2391V94.6664H83.5913" fill="#9B945F"/>
<path fill-rule="evenodd" clip-rule="evenodd" d="M86.8409 28.3482C73.3913 30.2942 44.0918 55.675 44.0918 55.675H56.0623C63.6731 47.0875 75.053 37.9381 81.0824 34.2821C85.9088 31.3575 89.3563 31.214 89.3563 31.214C96.8876 30.5135 103.323 36.7513 102.487 44.6861C103.474 35.3164 98.8263 26.6163 86.8409 28.3482Z" fill="#9B945F"/>
<path fill-rule="evenodd" clip-rule="evenodd" d="M31.005 28.3482C19.0196 26.6163 14.3699 35.3164 15.3596 44.6861C14.5158 36.7373 20.995 30.5164 28.4896 31.214C28.4896 31.214 31.9371 31.3575 36.7634 34.2821C42.3353 37.661 53.8452 46.7178 61.7836 55.675H73.7531C73.7531 55.675 44.4546 30.2942 31.005 28.3482Z" fill="#9B945F"/>
<path d="M58.334 83.7831H53.0124C53.0253 83.6835 53.3072 82.2576 53.3072 80.9861C53.3072 74.6337 48.5712 72.013 43.9404 75.2993C40.6209 77.6489 39.932 79.9229 37.91 83.7831H37.8256V77.4626H36.1728V83.7831H31.3544V83.1514C31.3544 76.4701 26.539 74.0986 22.4175 74.0986H16.0684V75.5095C16.531 75.4747 21.9301 75.4597 22.2021 75.4597C30.1434 75.4597 29.5617 83.6825 29.5954 83.7831H9.22594V73.14C8.74152 73.0822 7.88287 73.0433 7.50764 73.0433C4.50086 73.0433 0.0527344 75.2146 0.0527344 79.877C0.0527344 83.0896 2.46193 85.0088 5.51537 85.0088H6.04049C6.1328 84.9091 7.27139 83.6835 7.17907 83.7831H5.97199C1.1804 83.7831 0.65826 78.0724 3.78912 75.6002C4.90885 74.7174 6.21718 74.4055 6.99642 74.4055H7.57217V85.0088H59.9888V66.0372H58.334V83.7831ZM51.3487 83.5709L51.297 83.7831H39.4943L39.5707 83.4413C40.6011 78.8248 44.7336 75.2435 47.6033 75.2435C48.5275 75.2435 51.5452 75.6789 51.5452 81.283C51.5452 81.6338 51.5323 82.8335 51.3487 83.5709Z" fill="#008755"/>
<path d="M8.1571 70.4117C8.85117 70.4117 9.41382 69.8469 9.41382 69.1502C9.41382 68.4535 8.85117 67.8887 8.1571 67.8887C7.46304 67.8887 6.90039 68.4535 6.90039 69.1502C6.90039 69.8469 7.46304 70.4117 8.1571 70.4117Z" fill="#008755"/>
<path d="M65.207 66.0382H66.8598V85.0088H65.207V66.0382Z" fill="#008755"/>
<path d="M79.4305 70.4226C80.1246 70.4226 80.6873 69.8578 80.6873 69.161C80.6873 68.4643 80.1246 67.8995 79.4305 67.8995C78.7365 67.8995 78.1738 68.4643 78.1738 69.161C78.1738 69.8578 78.7365 70.4226 79.4305 70.4226Z" fill="#008755"/>
<path d="M4.39734 70.4117C5.0914 70.4117 5.65405 69.8469 5.65405 69.1502C5.65405 68.4535 5.0914 67.8887 4.39734 67.8887C3.70327 67.8887 3.14062 68.4535 3.14062 69.1502C3.14062 69.8469 3.70327 70.4117 4.39734 70.4117Z" fill="#008755"/>
<path d="M104.644 70.4236C105.339 70.4236 105.902 69.8583 105.902 69.1611C105.902 68.4638 105.339 67.8986 104.644 67.8986C103.95 67.8986 103.387 68.4638 103.387 69.1611C103.387 69.8583 103.95 70.4236 104.644 70.4236Z" fill="#008755"/>
<path d="M116.852 73.4199C112.549 73.4199 109.18 76.3635 109.18 80.1211C109.18 83.5051 112.134 85.2349 115.049 84.9928C115.146 84.8921 116.319 83.6824 116.222 83.7831H115.127C113.043 83.7831 110.941 82.5923 110.941 79.9328C110.941 77.5522 113.134 74.8907 116.07 74.8907H116.349V85.2608C116.349 87.2468 115.979 89.0852 113.295 89.0852C113.063 89.0852 112.763 89.0533 112.445 88.9985L112.236 90.266C112.633 90.3447 113.06 90.3906 113.725 90.3906C115.013 90.3906 118.001 89.9591 118.001 85.9643V73.5166C117.541 73.4518 117.172 73.4199 116.852 73.4199ZM103.82 86.046C103.82 88.2223 102.948 89.1091 100.819 89.1091C100.594 89.1091 100.258 89.0703 99.9978 89.0254L99.7903 90.3547C103.821 90.9386 105.471 89.143 105.471 86.5582V74.8269H103.82V86.046ZM89.8349 86.046C89.8349 88.2223 88.9643 89.1091 86.8341 89.1091C86.6097 89.1091 86.2762 89.0703 86.0122 89.0254L85.8047 90.3547C89.8419 90.9386 91.4847 89.137 91.4847 86.5582V74.8269H89.8349V86.046Z" fill="#008755"/>
<path d="M83.1884 70.4226C83.8824 70.4226 84.4451 69.8578 84.4451 69.161C84.4451 68.4643 83.8824 67.8995 83.1884 67.8995C82.4943 67.8995 81.9316 68.4643 81.9316 69.161C81.9316 69.8578 82.4943 70.4226 83.1884 70.4226Z" fill="#008755"/>
<path d="M96.5429 66.0382H98.1947V85.0087H96.5429V66.0382ZM75.0676 80.0125C75.0676 82.8594 77.4163 85.0087 80.5283 85.0087H84.2399V73.1399C78.8447 72.3876 75.0676 75.8702 75.0676 80.0125ZM82.5871 83.7831H81.0137C74.7629 83.7831 75.9352 74.4054 81.9845 74.4054H82.5871V83.7831ZM30.0801 36.4952L26.4946 40.0974L22.9071 36.4952L18.8203 40.5937L22.9071 44.6921L26.4946 41.0909L30.0801 44.6921L34.1649 40.5937M67.844 5.36692C71.5526 5.58016 75.1352 7.20837 77.7409 10.0812C74.7162 3.00432 66.7521 -0.390611 59.6585 2.10352C59.2962 0.773251 59.0123 0 59.0123 0C59.0123 0 58.7234 0.773251 58.3631 2.10352C51.2457 -0.400576 43.2835 3.0362 40.2827 10.0812C42.8855 7.20837 46.471 5.58016 50.1776 5.36692C45.8734 8.69907 43.8384 14.075 44.7209 19.3074C45.4287 15.0634 47.9709 11.4443 51.4949 9.28997C48.8147 14.6509 49.6346 21.1249 53.7313 25.6418C51.3241 20.0537 52.6692 13.5179 57.0617 9.34278C56.9615 10.4249 56.9009 11.5649 56.9009 12.7387C56.9009 19.7767 59.0123 25.4784 59.0123 25.4784C59.0262 25.3728 61.7689 17.9542 60.9629 9.34278C65.3534 13.5179 66.6995 20.0537 64.2913 25.6418C68.3344 21.2086 69.2367 14.7037 66.5268 9.28997C70.0547 11.4443 72.5969 15.0634 73.3027 19.3074C74.1772 14.1208 72.181 8.72299 67.844 5.36692Z" fill="#008755"/>
<path fill-rule="evenodd" clip-rule="evenodd" d="M73.0803 38.4902C54.7696 18.9138 44.3496 34.0051 44.3496 34.0051C44.3496 34.0051 53.2806 25.1367 70.2532 43.9637C77.8788 52.4266 84.6915 55.7329 90.1829 55.6761C94.3978 55.6323 98.2721 53.6513 100.997 49.3685C101.437 48.677 101.7 47.9605 101.7 47.9605C96.7931 53.8177 90.3259 56.9257 73.0803 38.4902Z" fill="#008755"/>
</g>
<defs>
<clipPath id="clip0_182_5614">
<rect width="118" height="108" fill="white"/>
</clipPath>
</defs>
</svg>
