<svg width="283" height="339" viewBox="0 0 283 339" fill="none" xmlns="http://www.w3.org/2000/svg">
<path d="M220.097 -0.000335693H41.2608C24.4703 -0.000335693 10.8579 13.6079 10.8579 30.3959V253.425C10.8579 270.211 24.4703 283.821 41.2608 283.821H220.097C236.889 283.821 250.5 270.211 250.5 253.425V30.3959C250.5 13.6079 236.889 -0.000335693 220.097 -0.000335693Z" fill="#4BBEA5"/>
<path d="M221.927 177.766L203.287 148.208L174.316 138.804L150.504 138.768L120.554 189.482C120.554 189.482 97.8848 190.219 110.902 202.413C133.831 223.897 158.733 231.694 202.644 230.843C227.279 230.365 221.927 177.766 221.927 177.766Z" fill="#502A73"/>
<path d="M221.927 177.766L203.287 148.208L174.316 138.804L150.504 138.768L120.554 189.482C120.554 189.482 97.8848 190.219 110.902 202.413C133.831 223.897 158.733 231.694 202.644 230.843C227.279 230.365 221.927 177.766 221.927 177.766Z" stroke="#502A73" stroke-width="0.344" stroke-miterlimit="10" stroke-linecap="round" stroke-linejoin="round"/>
<path d="M221.927 177.766L203.287 148.208L174.316 138.804L150.504 138.768L120.554 189.482C120.554 189.482 97.8848 190.219 110.902 202.413C133.831 223.897 158.733 231.694 202.644 230.843C227.279 230.365 221.927 177.766 221.927 177.766Z" stroke="#502A73" stroke-width="0.344" stroke-miterlimit="10" stroke-linecap="round" stroke-linejoin="round"/>
<path d="M46.6508 239.759C46.6508 239.759 40.4759 244.485 45.9829 257.301C55.6745 279.854 87.5901 303.076 92.2695 292.551C97.944 279.785 90.4308 242.766 90.4308 242.766L70.3795 231.74L46.6508 239.759Z" fill="#502A73"/>
<path d="M46.6508 239.759C46.6508 239.759 40.4759 244.485 45.9829 257.301C55.6745 279.854 87.5901 303.076 92.2695 292.551C97.944 279.785 90.4308 242.766 90.4308 242.766L70.3795 231.74L46.6508 239.759Z" stroke="#502A73" stroke-width="0.344" stroke-miterlimit="10" stroke-linecap="round" stroke-linejoin="round"/>
<path d="M89.2264 285.814L100.575 258.784L65.2246 240.364L55.1335 240.819L49.0791 255.465L64.964 287.554" fill="#BF792A"/>
<path d="M89.2264 285.814L100.575 258.784L65.2246 240.364L55.1335 240.819L49.0791 255.465L64.964 287.554" stroke="#502A73" stroke-width="0.344" stroke-miterlimit="10" stroke-linecap="round" stroke-linejoin="round"/>
<path d="M198.141 275.813L213.55 271.514L201.284 315.288L193.024 314.787L198.141 275.813Z" fill="white"/>
<path d="M198.141 275.813L213.55 271.514L201.284 315.288L193.024 314.787L198.141 275.813Z" stroke="#502A73" stroke-width="0.344" stroke-miterlimit="10" stroke-linecap="round" stroke-linejoin="round"/>
<path d="M214.539 272.017L198.637 278.066" stroke="#502A73" stroke-width="0.344" stroke-miterlimit="10" stroke-linecap="round" stroke-linejoin="round"/>
<path d="M196.572 284.611L212.474 278.561" stroke="#502A73" stroke-width="0.344" stroke-miterlimit="10" stroke-linecap="round" stroke-linejoin="round"/>
<path d="M194.506 291.155L210.408 285.105" stroke="#502A73" stroke-width="0.344" stroke-miterlimit="10" stroke-linecap="round" stroke-linejoin="round"/>
<path d="M192.441 297.699L208.343 291.649" stroke="#502A73" stroke-width="0.344" stroke-miterlimit="10" stroke-linecap="round" stroke-linejoin="round"/>
<path d="M190.375 304.243L206.278 298.194" stroke="#502A73" stroke-width="0.344" stroke-miterlimit="10" stroke-linecap="round" stroke-linejoin="round"/>
<path d="M196.441 272.739C193.347 274.514 191.402 275.06 188.962 289.648C186.523 304.236 184.021 324.327 184.807 330.908C185.594 337.488 190.04 339.391 197.221 338.302C204.401 337.213 215.399 329.581 227.824 307.922C240.248 286.263 243.291 277.191 243.675 274.206C244.06 271.222 244.8 265.793 237.597 261.99C236.153 261.228 233.696 259.804 233.696 259.804L228.108 262.032C224.458 263.487 220.441 263.662 216.648 262.636C214.528 262.062 212.04 262.022 210.037 263.802C207.267 266.261 205.704 272.805 204.061 281.486C203.351 285.23 199.46 302.678 198.841 306.705C198.765 307.191 198.364 307.561 197.873 307.599C197.227 307.649 196.687 307.115 196.732 306.469C196.944 303.387 198.394 294.129 199.336 288.269C202.355 269.503 197.6 272.073 196.441 272.739Z" fill="white"/>
<path d="M196.441 272.739C193.347 274.514 191.402 275.06 188.962 289.648C186.523 304.236 184.021 324.327 184.807 330.908C185.594 337.488 190.04 339.391 197.221 338.302C204.401 337.213 215.399 329.581 227.824 307.922C240.248 286.263 243.291 277.191 243.675 274.206C244.06 271.222 244.8 265.793 237.597 261.99C236.153 261.228 233.696 259.804 233.696 259.804L228.108 262.032C224.458 263.487 220.441 263.662 216.648 262.636C214.528 262.062 212.04 262.022 210.037 263.802C207.267 266.261 205.704 272.805 204.061 281.486C203.351 285.23 199.46 302.678 198.841 306.705C198.765 307.191 198.364 307.561 197.873 307.599C197.227 307.649 196.687 307.115 196.732 306.469C196.944 303.387 198.394 294.129 199.336 288.269C202.355 269.503 197.6 272.073 196.441 272.739Z" stroke="#502A73" stroke-width="0.344" stroke-miterlimit="10" stroke-linecap="round" stroke-linejoin="round"/>
<path d="M237.597 261.99C236.153 261.228 233.697 259.804 233.697 259.804L228.544 261.858C231.098 263.811 234.787 265.803 239.918 266.839C241.109 267.08 242.18 267.297 243.148 267.492C242.331 265.573 240.704 263.631 237.597 261.99Z" fill="#4BBEA5"/>
<path d="M237.597 261.99C236.153 261.228 233.697 259.804 233.697 259.804L228.544 261.858C231.098 263.811 234.787 265.803 239.918 266.839C241.109 267.08 242.18 267.297 243.148 267.492C242.331 265.573 240.704 263.631 237.597 261.99Z" stroke="#502A73" stroke-width="0.344" stroke-miterlimit="10" stroke-linecap="round" stroke-linejoin="round"/>
<path d="M235.858 264.501C229.584 267.06 229.18 270.973 228.944 275.044C228.706 279.116 233.281 288.334 228.557 294.255C223.833 300.177 218.196 296.979 212.631 301.324C207.066 305.671 209.53 318.154 208.44 324.451C207.351 330.749 196.734 332.845 196.734 332.845L200.558 337.396C207.602 334.718 217.19 326.461 227.825 307.923C240.248 286.262 243.291 277.19 243.675 274.206C243.956 272.026 244.422 268.543 241.849 265.341C240.486 264.143 238.532 263.41 235.858 264.501Z" fill="#4BBEA5"/>
<path d="M235.858 264.501C229.584 267.06 229.18 270.973 228.944 275.044C228.706 279.116 233.281 288.334 228.557 294.255C223.833 300.177 218.196 296.979 212.631 301.324C207.066 305.671 209.53 318.154 208.44 324.451C207.351 330.749 196.734 332.845 196.734 332.845L200.558 337.396C207.602 334.718 217.19 326.461 227.825 307.923C240.248 286.262 243.291 277.19 243.675 274.206C243.956 272.026 244.422 268.543 241.849 265.341C240.486 264.143 238.532 263.41 235.858 264.501Z" stroke="#502A73" stroke-width="0.344" stroke-miterlimit="10" stroke-linecap="round" stroke-linejoin="round"/>
<path d="M189.53 331.137C187.261 332.694 186.939 334.721 187.36 336.584C189.496 338.516 192.851 338.965 197.221 338.303C199.666 337.932 202.553 336.8 205.788 334.618C201.255 330.922 194.433 327.771 189.53 331.137Z" fill="#4BBEA5"/>
<path d="M189.53 331.137C187.261 332.694 186.939 334.721 187.36 336.584C189.496 338.516 192.851 338.965 197.221 338.303C199.666 337.932 202.553 336.8 205.788 334.618C201.255 330.922 194.433 327.771 189.53 331.137Z" stroke="#502A73" stroke-width="0.344" stroke-miterlimit="10" stroke-linecap="round" stroke-linejoin="round"/>
<path d="M223.674 264.672C223.395 265.23 223.007 266.005 222.468 267.085C220.549 270.922 217.747 277.525 217.747 277.525L222.9 278.042L224.266 264.446C224.071 264.522 223.873 264.596 223.674 264.672Z" fill="#4BBEA5"/>
<path d="M223.674 264.672C223.395 265.23 223.007 266.005 222.468 267.085C220.549 270.922 217.747 277.525 217.747 277.525L222.9 278.042L224.266 264.446C224.071 264.522 223.873 264.596 223.674 264.672Z" stroke="#502A73" stroke-width="0.344" stroke-miterlimit="10" stroke-linecap="round" stroke-linejoin="round"/>
<path d="M46.6508 239.759C46.6508 239.759 40.4759 244.485 45.9829 257.301C55.6745 279.854 87.5901 303.076 92.2695 292.551C97.944 279.785 90.4308 242.766 90.4308 242.766L70.3795 231.74L46.6508 239.759Z" stroke="#502A73" stroke-width="0.344" stroke-miterlimit="10" stroke-linecap="round" stroke-linejoin="round"/>
<path d="M282.24 215.312C282.24 215.312 281.6 221.21 270.749 219.721C259.454 218.171 248.979 220.056 242.728 222.009C236.478 223.962 220.318 233.627 220.318 233.627L212.801 218.689L225.541 205.704L274.661 203.125C276.899 203.29 281.451 211.307 281.885 213.508L282.24 215.312Z" fill="#502A73"/>
<path d="M282.24 215.312C282.24 215.312 281.6 221.21 270.749 219.721C259.454 218.171 248.979 220.056 242.728 222.009C236.478 223.962 220.318 233.627 220.318 233.627L212.801 218.689L225.541 205.704L274.661 203.125C276.899 203.29 281.451 211.307 281.885 213.508L282.24 215.312Z" stroke="#502A73" stroke-width="0.344" stroke-miterlimit="10" stroke-linecap="round" stroke-linejoin="round"/>
<path d="M282.24 215.312C282.24 215.312 281.6 221.21 270.749 219.721C259.454 218.171 248.979 220.056 242.728 222.009C236.478 223.962 220.318 233.627 220.318 233.627L212.801 218.689L225.541 205.704L274.661 203.125C276.899 203.29 281.451 211.307 281.885 213.508L282.24 215.312Z" stroke="#502A73" stroke-width="0.344" stroke-miterlimit="10" stroke-linecap="round" stroke-linejoin="round"/>
<path d="M82.9021 191.445L87.4254 193.5L95.6284 182.044H85.7003L82.575 183.542C82.575 183.542 82.3144 184.583 82.3144 184.714V187.023C82.3144 187.023 81.2115 188.576 82.9021 191.445Z" fill="#502A73"/>
<path d="M82.9021 191.445L87.4254 193.5L95.6284 182.044H85.7003L82.575 183.542C82.575 183.542 82.3144 184.583 82.3144 184.714V187.023C82.3144 187.023 81.2115 188.576 82.9021 191.445Z" stroke="#502A73" stroke-width="0.344" stroke-miterlimit="10" stroke-linecap="round" stroke-linejoin="round"/>
<path d="M82.9021 191.445L87.4254 193.5L95.6284 182.044H85.7003L82.575 183.542C82.575 183.542 82.3144 184.583 82.3144 184.714V187.023C82.3144 187.023 81.2115 188.576 82.9021 191.445Z" stroke="#502A73" stroke-width="0.344" stroke-miterlimit="10" stroke-linecap="round" stroke-linejoin="round"/>
<path d="M113.435 150.157C113.435 150.157 67.7053 212.027 59.3508 223.219C50.9951 234.413 46.6509 239.758 46.6509 239.758C46.6509 239.758 59.0157 235.833 76.395 256.131C97.7627 281.09 92.2696 292.552 92.2696 292.552C92.2696 292.552 106.473 261.979 114.995 245.774C123.517 229.567 160.648 157.879 160.648 157.879C160.648 157.879 154.431 188.47 157.104 205.01C160.411 225.466 170.305 246.107 176.153 259.639C182.002 273.171 187.684 280.188 187.684 280.188C187.684 280.188 209.574 280.356 224.446 271.501C239.318 262.646 243.997 255.629 243.997 255.629L205.606 191.979C204.232 189.701 203.46 187.114 203.361 184.457C203.122 178.071 202.677 165.899 202.556 161.072C202.389 154.389 203.512 134.007 203.512 134.007L144.739 124.317L113.435 150.157Z" fill="#008056"/>
<path d="M113.435 150.157C113.435 150.157 67.7053 212.027 59.3508 223.219C50.9951 234.413 46.6509 239.758 46.6509 239.758C46.6509 239.758 59.0157 235.833 76.395 256.131C97.7627 281.09 92.2696 292.552 92.2696 292.552C92.2696 292.552 106.473 261.979 114.995 245.774C123.517 229.567 160.648 157.879 160.648 157.879C160.648 157.879 154.431 188.47 157.104 205.01C160.411 225.466 170.305 246.107 176.153 259.639C182.002 273.171 187.684 280.188 187.684 280.188C187.684 280.188 209.574 280.356 224.446 271.501C239.318 262.646 243.997 255.629 243.997 255.629L205.606 191.979C204.232 189.701 203.46 187.114 203.361 184.457C203.122 178.071 202.677 165.899 202.556 161.072C202.389 154.389 203.512 134.007 203.512 134.007L144.739 124.317L113.435 150.157Z" stroke="#502A73" stroke-width="0.344" stroke-miterlimit="10" stroke-linecap="round" stroke-linejoin="round"/>
<path d="M160.623 136.638C160.623 136.638 157.783 143.487 156.947 146.829C156.111 150.17 160.623 150.671 160.623 150.671" fill="#008056"/>
<path d="M160.623 136.638C160.623 136.638 157.783 143.487 156.947 146.829C156.111 150.17 160.623 150.671 160.623 150.671" stroke="#502A73" stroke-width="0.344" stroke-miterlimit="10" stroke-linecap="round" stroke-linejoin="round"/>
<path d="M234.943 264.389C229.281 255.605 214.883 233.143 209.798 224.054C201.815 209.783 196.039 201.334 195.037 192.647C194.034 183.96 195.705 148.208 195.705 148.208L191.695 142.165C191.695 142.165 191.287 147.954 190.19 160.236C188.958 174.035 187.295 195.027 192.865 205.772C200.66 220.807 223.397 256.39 230.591 267.573C232.213 266.458 233.656 265.393 234.943 264.389Z" fill="#008056"/>
<path d="M234.943 264.389C229.281 255.605 214.883 233.143 209.798 224.054C201.815 209.783 196.039 201.334 195.037 192.647C194.034 183.96 195.705 148.208 195.705 148.208L191.695 142.165C191.695 142.165 191.287 147.954 190.19 160.236C188.958 174.035 187.295 195.027 192.865 205.772C200.66 220.807 223.397 256.39 230.591 267.573C232.213 266.458 233.656 265.393 234.943 264.389Z" stroke="#502A73" stroke-width="0.344" stroke-miterlimit="10" stroke-linecap="round" stroke-linejoin="round"/>
<path d="M160.649 157.88V155.845C160.649 154.231 159.208 152.97 157.615 153.236C154.117 153.821 147.856 157.002 140.228 170.232C128.364 190.809 92.3114 258.042 86.1284 269.236" stroke="#502A73" stroke-width="0.344" stroke-miterlimit="10" stroke-linecap="round" stroke-linejoin="round"/>
<path d="M204.06 115.881C202.809 110.687 205.063 105.44 205.063 105.44L220.825 84.5565C220.825 84.5565 213.084 79.9619 202.473 79.7118C198.644 79.6211 194.381 79.4341 190.495 79.2333C190.495 79.2333 188.139 75.8848 185.991 73.0861C183.842 70.2873 181.629 70.8726 181.629 70.8726C181.629 70.8726 173.946 70.8083 167.409 71.0688C160.871 71.3293 161.576 77.3307 161.576 77.3307L159.778 77.2056L144.739 76.7879C144.739 76.7879 140.698 79.379 140.561 84.5565C140.395 90.9045 138.718 98.7121 136.847 102.726L127.808 122.122L129.917 123.054C133.164 124.488 135.593 127.306 136.534 130.726C136.767 131.574 136.906 132.446 136.945 133.325L137.088 136.491C137.155 137.976 136.776 139.423 136.035 140.664C141.982 139.196 146.502 137.478 150.504 138.769C155.684 140.44 160.112 145.367 166.128 145.785C169.02 145.986 177.625 142.955 183.73 144.533C190.322 146.236 188.519 151.716 196.541 152.607C200.638 153.062 205.515 151.13 210.8 153.387C215.005 155.183 217.178 161.642 215.882 165.875C215.882 165.875 218.431 162.241 214.587 151.047C211.395 141.752 205.312 121.075 204.06 115.881Z" fill="#008056"/>
<path d="M204.06 115.881C202.809 110.687 205.063 105.44 205.063 105.44L220.825 84.5565C220.825 84.5565 213.084 79.9619 202.473 79.7118C198.644 79.6211 194.381 79.4341 190.495 79.2333C190.495 79.2333 188.139 75.8849 185.991 73.0861C183.842 70.2873 181.629 70.8726 181.629 70.8726C181.629 70.8726 173.946 70.8083 167.409 71.0688C160.871 71.3293 161.576 77.3307 161.576 77.3307L159.778 77.2056L144.739 76.7879C144.739 76.7879 140.698 79.379 140.561 84.5565C140.395 90.9045 138.718 98.7121 136.847 102.726L127.808 122.122L129.917 123.054C133.164 124.488 135.593 127.306 136.534 130.726C136.767 131.574 136.906 132.446 136.945 133.325L137.088 136.491C137.155 137.976 136.776 139.423 136.035 140.664C141.982 139.196 146.502 137.478 150.504 138.769C155.684 140.44 160.112 145.367 166.128 145.785C169.02 145.986 177.625 142.955 183.73 144.533C190.322 146.236 188.519 151.716 196.541 152.607C200.638 153.062 205.515 151.13 210.8 153.387C215.005 155.183 217.178 161.642 215.882 165.875C215.882 165.875 218.431 162.241 214.587 151.047C211.395 141.752 205.312 121.075 204.06 115.881Z" stroke="#502A73" stroke-width="0.344" stroke-miterlimit="10" stroke-linecap="round" stroke-linejoin="round"/>
<path d="M105.126 76.6053L72.3007 76.4538C63.3023 76.4538 56.0083 83.7462 56.0083 92.7426C56.0083 97.2202 57.816 101.274 60.7405 104.219L60.7439 104.222C61.1468 104.627 73.7698 121.134 77.6917 126.036C84.5277 134.578 88.7756 136.726 91.319 137.067C93.6799 137.385 90.5821 130.321 90.1747 128.149L91.0435 122.127C91.0435 122.127 100.011 113.159 111.373 110.531C109.696 108.927 110.102 109.424 108.704 107.917C108.704 107.917 119.391 112.952 129.542 115.642L129.558 115.648L133.831 115.29C133.831 115.29 134.844 99.4314 135.861 95.7778C139.609 82.3118 144.739 76.7878 144.739 76.7878L105.126 76.6053Z" fill="#008056"/>
<path d="M105.127 76.6053L72.3007 76.4538C63.3023 76.4538 56.0083 83.7462 56.0083 92.7426C56.0083 97.2202 57.816 101.274 60.7405 104.219L60.7439 104.222C61.1468 104.627 73.7698 121.134 77.6917 126.036C84.5277 134.578 88.7756 136.726 91.319 137.067C93.6799 137.385 90.5821 130.321 90.1747 128.149L91.0435 122.127C91.0435 122.127 100.011 113.159 111.373 110.531C109.696 108.927 110.102 109.424 108.704 107.917C108.704 107.917 119.391 112.952 129.542 115.642L129.558 115.648L133.831 115.29C133.831 115.29 134.844 99.4314 135.861 95.7778C139.609 82.3118 144.739 76.7878 144.739 76.7878L105.127 76.6053Z" stroke="#502A73" stroke-width="0.344" stroke-miterlimit="10" stroke-linecap="round" stroke-linejoin="round"/>
<path d="M85.8703 123.255C85.8703 123.255 84.9039 130.093 87.9489 134.726C91.4163 139.998 104.584 137.507 104.889 128.721C105.192 119.933 85.8703 123.255 85.8703 123.255Z" fill="#502A73"/>
<path d="M85.8703 123.255C85.8703 123.255 84.9039 130.093 87.9489 134.726C91.4163 139.998 104.584 137.507 104.889 128.721C105.192 119.933 85.8703 123.255 85.8703 123.255Z" stroke="#502A73" stroke-width="0.344" stroke-miterlimit="10" stroke-linecap="round" stroke-linejoin="round"/>
<path d="M85.8703 123.255C85.8703 123.255 84.9039 130.093 87.9489 134.726C91.4163 139.998 104.584 137.507 104.889 128.721C105.192 119.933 85.8703 123.255 85.8703 123.255Z" stroke="#502A73" stroke-width="0.344" stroke-miterlimit="10" stroke-linecap="round" stroke-linejoin="round"/>
<path d="M144.739 76.7877C144.739 76.7877 134.612 80.8005 130.866 94.2664C129.849 97.9212 129.508 101.731 129.748 105.517L129.866 107.388C130.107 111.202 129.722 115.03 128.726 118.72L127.807 122.122L126.531 124.844C126.331 125.267 126.103 125.677 125.846 126.069L118.512 137.265C118.512 137.265 101.422 160.109 93.4137 168.994C85.407 177.878 81.0134 181.978 81.0122 185.397C81.0111 189.497 82.9014 191.444 82.9014 191.444C82.9014 191.444 81.1098 184.908 85.1131 185.103C89.1177 185.299 98.2974 193.011 99.8595 191.157C100.732 190.122 115.374 168.584 123.912 153.2C130.674 141.016 131.8 134.197 131.927 133.893C134.961 126.537 142.367 119.001 144.739 113.734C147.334 107.973 145.062 97.0709 150.797 86.2339C154.573 79.0987 158.648 77.9512 160.097 77.2272L159.778 77.2054L144.739 76.7877Z" fill="white"/>
<path d="M144.739 76.7877C144.739 76.7877 134.612 80.8005 130.866 94.2664C129.849 97.9212 129.508 101.731 129.748 105.517L129.866 107.388C130.107 111.202 129.722 115.03 128.726 118.72L127.807 122.122L126.531 124.844C126.331 125.267 126.103 125.677 125.846 126.069L118.512 137.265C118.512 137.265 101.422 160.109 93.4137 168.994C85.407 177.878 81.0134 181.978 81.0122 185.397C81.0111 189.497 82.9014 191.444 82.9014 191.444C82.9014 191.444 81.1098 184.908 85.1131 185.103C89.1177 185.299 98.2974 193.011 99.8595 191.157C100.732 190.122 115.374 168.584 123.912 153.2C130.674 141.016 131.8 134.197 131.927 133.893C134.961 126.537 142.367 119.001 144.739 113.734C147.334 107.973 145.062 97.0709 150.797 86.2339C154.573 79.0987 158.648 77.9512 160.097 77.2272L159.778 77.2054L144.739 76.7877Z" stroke="#502A73" stroke-width="0.344" stroke-miterlimit="10" stroke-linecap="round" stroke-linejoin="round"/>
<path d="M147.58 87.9262L141.868 90.9751C139.163 92.4198 138.003 95.6856 139.19 98.5119L142.242 105.773L136.665 109.22C134.421 110.608 133.362 113.308 134.064 115.851L135.34 120.47L127.808 128.672L126.096 142.731L116.41 148.849L114.076 159.133L108.976 159.641C106.215 159.915 104.012 162.065 103.671 164.818L102.78 172.021L96.4968 175.244C94.1347 176.456 92.8641 179.09 93.3864 181.693L95.015 189.811C97.3186 191.079 99.2227 191.913 99.8597 191.157C100.731 190.122 115.374 168.584 123.912 153.201C130.675 141.017 131.801 134.198 131.926 133.893C134.962 126.536 142.366 119.001 144.739 113.734C147.334 107.973 145.061 97.0706 150.797 86.2336C154.471 79.2935 158.425 78.0186 159.972 77.2877L159.778 77.205L152.375 78.0175C149.054 78.3824 146.687 81.4152 147.14 84.7258L147.58 87.9262Z" fill="#4BBEA5"/>
<path d="M147.58 87.9262L141.868 90.9751C139.163 92.4198 138.003 95.6856 139.19 98.5119L142.242 105.773L136.665 109.22C134.421 110.608 133.362 113.308 134.064 115.851L135.34 120.47L127.808 128.672L126.096 142.731L116.41 148.849L114.076 159.133L108.976 159.641C106.215 159.915 104.012 162.065 103.671 164.818L102.78 172.021L96.4968 175.244C94.1347 176.456 92.8641 179.09 93.3864 181.693L95.015 189.811C97.3186 191.079 99.2227 191.913 99.8597 191.157C100.731 190.122 115.374 168.584 123.912 153.201C130.675 141.017 131.801 134.198 131.926 133.893C134.962 126.536 142.366 119.001 144.739 113.734C147.334 107.973 145.061 97.0706 150.797 86.2336C154.471 79.2935 158.425 78.0186 159.972 77.2877L159.778 77.205L152.375 78.0175C149.054 78.3824 146.687 81.4152 147.14 84.7258L147.58 87.9262Z" stroke="#502A73" stroke-width="0.344" stroke-miterlimit="10" stroke-linecap="round" stroke-linejoin="round"/>
<path d="M211.298 274.926C211.298 272.981 211.348 270.104 210.298 268.629C208.326 265.861 206.058 264.968 194.145 267.994C192.018 268.534 185.678 269.654 184.673 271.998C183.017 275.861 192.577 280.001 192.577 280.001C197.381 279.681 205.091 278.816 212.801 276.481C212.801 276.481 211.298 276.488 211.298 274.926Z" fill="white"/>
<path d="M211.298 274.926C211.298 272.981 211.348 270.104 210.298 268.629C208.326 265.861 206.058 264.968 194.145 267.994C192.018 268.534 185.678 269.654 184.673 271.998C183.017 275.861 192.577 280.001 192.577 280.001C197.381 279.681 205.091 278.816 212.801 276.481C212.801 276.481 211.298 276.488 211.298 274.926Z" stroke="#502A73" stroke-width="0.344" stroke-miterlimit="10" stroke-linecap="round" stroke-linejoin="round"/>
<path d="M208.985 277.523C208.775 277.326 208.581 277.121 208.417 276.913C208.014 276.401 208.046 275.754 207.943 274.326C207.941 273.225 208.159 269.337 204.995 269.455C202.964 269.532 199.778 270.024 194.972 271.245C194.66 271.324 194.265 271.415 193.812 271.519C192.03 271.928 190.614 272.309 189.571 272.661C188.859 272.902 188.617 273.788 189.105 274.361C190.333 275.801 192.498 278.103 195.616 279.753C199.355 279.391 204.07 278.73 208.985 277.523Z" fill="white"/>
<path d="M208.985 277.523C208.775 277.326 208.581 277.121 208.417 276.913C208.014 276.401 208.046 275.754 207.943 274.326C207.941 273.225 208.159 269.337 204.995 269.455C202.964 269.532 199.778 270.024 194.972 271.245C194.66 271.324 194.265 271.415 193.812 271.519C192.03 271.928 190.614 272.309 189.571 272.661C188.859 272.902 188.617 273.788 189.105 274.361C190.333 275.801 192.498 278.103 195.616 279.753C199.355 279.391 204.07 278.73 208.985 277.523Z" stroke="#502A73" stroke-width="0.344" stroke-miterlimit="10" stroke-linecap="round" stroke-linejoin="round"/>
<path d="M181.138 94.1698C174.259 91.8954 169.832 94.319 169.224 94.6839C168.772 94.2375 165.39 91.2207 157.85 92.3957C150.615 93.5237 147.618 98.4741 148.361 101.109C148.752 102.496 150.579 101.244 153.465 99.9647C157.549 98.1551 159.644 99.5791 159.644 99.5791C159.644 99.5791 153.737 100.457 151.118 103.088C148.5 105.721 150.393 110.009 153.179 107.905C157.793 104.423 160.206 104.576 160.206 104.576C160.206 104.576 157.509 105.905 155.924 107.996C154.339 110.087 154.786 112.451 156.774 112.662C157.984 112.789 164.815 105.442 163.183 110.198C160.934 116.751 159.914 121.504 159.681 124.837C159.57 126.43 160.642 127.703 162.162 127.819L163.538 127.924C165.059 128.039 166.581 126.964 167.076 125.4C168.113 122.129 168.921 117.361 169.218 110.658C169.433 105.794 173.287 113.955 174.509 114.012C176.52 114.107 177.849 111.878 177.102 109.609C176.354 107.341 174.238 105.645 174.238 105.645C174.238 105.645 176.638 105.858 179.8 109.933C181.71 112.394 185.173 108.514 183.626 105.566C182.079 102.617 176.675 100.877 176.675 100.877C176.675 100.877 179.248 99.8086 182.53 102.179C184.848 103.855 186.148 105.344 187.053 104.056C188.771 101.609 187.736 96.3512 181.138 94.1698Z" fill="#4BBEA5"/>
<path d="M181.138 94.1698C174.259 91.8954 169.832 94.319 169.224 94.6839C168.772 94.2375 165.39 91.2207 157.85 92.3957C150.615 93.5237 147.618 98.4741 148.361 101.109C148.752 102.496 150.579 101.244 153.465 99.9647C157.549 98.1551 159.644 99.5791 159.644 99.5791C159.644 99.5791 153.737 100.457 151.118 103.088C148.5 105.721 150.393 110.009 153.179 107.905C157.793 104.423 160.206 104.576 160.206 104.576C160.206 104.576 157.509 105.905 155.924 107.996C154.339 110.087 154.786 112.451 156.774 112.662C157.984 112.789 164.815 105.442 163.183 110.198C160.934 116.751 159.914 121.504 159.681 124.837C159.57 126.43 160.642 127.703 162.162 127.819L163.538 127.924C165.059 128.039 166.581 126.964 167.076 125.4C168.113 122.129 168.921 117.361 169.218 110.658C169.433 105.794 173.287 113.955 174.509 114.012C176.52 114.107 177.849 111.878 177.102 109.609C176.354 107.341 174.238 105.645 174.238 105.645C174.238 105.645 176.638 105.858 179.8 109.933C181.71 112.394 185.173 108.514 183.626 105.566C182.079 102.617 176.675 100.877 176.675 100.877C176.675 100.877 179.248 99.8086 182.53 102.179C184.848 103.855 186.148 105.344 187.053 104.056C188.771 101.609 187.736 96.3512 181.138 94.1698Z" stroke="#502A73" stroke-width="0.344" stroke-miterlimit="10" stroke-linecap="round" stroke-linejoin="round"/>
<path d="M204.35 77.9028C194.975 80.2953 182.172 94.9501 183.668 115.649C184.805 131.344 188.334 143.732 183.256 154.458C178.179 165.186 174.317 178.66 177.984 199.944C179.067 206.238 181.33 212.239 182.65 215.4C183.352 217.079 184.595 218.472 186.188 219.35C190.234 221.58 199.222 225.122 213.649 223.474C234.108 221.136 247.253 202.483 270.006 206.648C281.492 208.751 282.24 215.312 282.24 215.312C282.24 215.312 285.598 207.292 265.356 189.855C248.934 175.709 248.88 151.536 245.56 143.716C242.24 135.896 226.42 102.859 226.42 102.859L217.746 78.6842C217.746 78.6842 213.378 75.5986 204.35 77.9028Z" fill="white"/>
<path d="M204.35 77.9028C194.975 80.2953 182.172 94.9501 183.668 115.649C184.805 131.344 188.334 143.732 183.256 154.458C178.179 165.186 174.317 178.66 177.984 199.944C179.067 206.238 181.33 212.239 182.65 215.4C183.352 217.079 184.595 218.472 186.188 219.35C190.234 221.58 199.222 225.122 213.649 223.474C234.108 221.136 247.253 202.483 270.006 206.648C281.492 208.751 282.24 215.312 282.24 215.312C282.24 215.312 285.598 207.292 265.356 189.855C248.934 175.709 248.88 151.536 245.56 143.716C242.24 135.896 226.42 102.859 226.42 102.859L217.746 78.6842C217.746 78.6842 213.378 75.5986 204.35 77.9028Z" stroke="#502A73" stroke-width="0.344" stroke-miterlimit="10" stroke-linecap="round" stroke-linejoin="round"/>
<path d="M200.092 208.268L194.585 204.801L199.385 199.204C201.657 196.553 200.871 192.478 197.775 190.862L191.851 187.772L198.07 180.807C200.31 178.3 199.753 174.38 196.903 172.596L192.241 169.677L199.845 161.579C202.137 159.139 201.692 155.226 198.911 153.361L191.223 148.207L197.536 143.846C200.332 141.915 200.683 137.917 198.267 135.526L190.809 128.149L196.958 124.38C199.794 122.641 200.412 118.782 198.259 116.245L191.851 108.693L196.53 104.437C198.678 102.483 198.906 99.1861 197.049 96.9542L194.194 93.5232L200.741 87.9349C203.177 85.8567 203.29 82.1319 200.988 79.9081L200.527 79.4628C191.865 84.2422 182.368 97.6622 183.67 115.648C184.805 131.344 188.335 143.731 183.256 154.459C178.179 165.186 174.317 178.66 177.984 199.944C179.067 206.236 181.329 212.235 182.649 215.397C183.351 217.075 184.592 218.468 186.185 219.346C187.762 220.216 190.091 221.284 193.201 222.167L200.264 217.335C203.487 215.131 203.396 210.348 200.092 208.268Z" fill="#4BBEA5"/>
<path d="M200.092 208.268L194.585 204.801L199.385 199.204C201.657 196.553 200.871 192.478 197.775 190.862L191.851 187.772L198.07 180.807C200.31 178.3 199.753 174.38 196.903 172.596L192.241 169.677L199.845 161.579C202.137 159.139 201.692 155.226 198.911 153.361L191.223 148.207L197.536 143.846C200.332 141.915 200.683 137.917 198.267 135.526L190.809 128.149L196.958 124.38C199.794 122.641 200.412 118.782 198.259 116.245L191.851 108.693L196.53 104.437C198.678 102.483 198.906 99.1861 197.049 96.9542L194.195 93.5232L200.741 87.9349C203.177 85.8567 203.29 82.1319 200.988 79.9081L200.527 79.4628C191.865 84.2422 182.368 97.6622 183.67 115.648C184.805 131.344 188.335 143.731 183.256 154.459C178.179 165.186 174.317 178.66 177.984 199.944C179.067 206.236 181.329 212.235 182.649 215.397C183.351 217.075 184.592 218.468 186.185 219.346C187.762 220.216 190.091 221.284 193.201 222.167L200.264 217.335C203.487 215.131 203.396 210.348 200.092 208.268Z" stroke="#502A73" stroke-width="0.344" stroke-miterlimit="10" stroke-linecap="round" stroke-linejoin="round"/>
<path d="M106.641 105.774C106.641 105.774 104.59 103.308 103.075 100.929C101.874 99.0415 99.6273 96.019 97.9505 93.8009C94.1629 88.7886 91.0444 85.7821 91.0444 85.7821" fill="#008056"/>
<path d="M106.641 105.774C106.641 105.774 104.59 103.308 103.075 100.929C101.874 99.0415 99.6273 96.019 97.9505 93.8009C94.1629 88.7886 91.0444 85.7821 91.0444 85.7821" stroke="#502A73" stroke-width="0.344" stroke-miterlimit="10" stroke-linecap="round" stroke-linejoin="round"/>
<path d="M253.188 190.865C253.188 190.865 254.803 191.923 257.643 192.257C260.484 192.591 261.487 192.368 262.824 194.15C264.16 195.932 263.882 198.495 259.259 198.495C254.636 198.495 251.573 195.487 251.573 195.487" fill="#BF792A"/>
<path d="M253.188 190.865C253.188 190.865 254.803 191.923 257.643 192.257C260.484 192.591 261.487 192.368 262.824 194.15C264.16 195.932 263.882 198.495 259.259 198.495C254.636 198.495 251.573 195.487 251.573 195.487" stroke="#502A73" stroke-width="0.344" stroke-miterlimit="10" stroke-linecap="round" stroke-linejoin="round"/>
<path d="M220.826 84.5564C225.715 87.1624 235.753 112.289 240.209 120.642C244.666 128.996 249.455 140.467 249.789 148.264C250.124 156.06 249.01 184.349 249.01 184.349C249.01 184.349 253.132 187.468 254.357 190.252C255.583 193.037 256.696 195.598 261.152 199.273C265.609 202.949 269.508 203.395 269.619 205.845C269.73 208.295 265.632 209.743 265.632 209.743C265.632 209.743 264.885 212.806 261.732 213.614C259.53 214.177 258.279 214.309 258.279 214.309C258.279 214.309 256.468 216.37 253.711 216.37C250.954 216.37 247.306 215.312 247.306 215.312C247.306 215.312 238.149 218.792 230.88 208.602C223.61 198.411 225.091 188.282 223.539 176.692C222.29 167.365 219.851 150.797 221.271 144.533L206.878 119.094C200.945 108.608 212.834 106.909 221.856 98.9243C224.906 96.2254 218.18 83.1473 220.826 84.5564Z" fill="#BF792A"/>
<path d="M220.826 84.5564C225.715 87.1624 235.753 112.289 240.209 120.642C244.666 128.996 249.455 140.467 249.789 148.264C250.124 156.06 249.01 184.349 249.01 184.349C249.01 184.349 253.132 187.468 254.357 190.252C255.583 193.037 256.696 195.598 261.152 199.273C265.609 202.949 269.508 203.395 269.619 205.845C269.73 208.295 265.632 209.743 265.632 209.743C265.632 209.743 264.885 212.806 261.732 213.614C259.53 214.177 258.279 214.309 258.279 214.309C258.279 214.309 256.468 216.37 253.711 216.37C250.954 216.37 247.306 215.312 247.306 215.312C247.306 215.312 238.149 218.792 230.88 208.602C223.61 198.411 225.091 188.282 223.539 176.692C222.29 167.365 219.851 150.797 221.271 144.533L206.878 119.094C200.945 108.608 212.834 106.909 221.856 98.9243C224.906 96.2254 218.18 83.1473 220.826 84.5564Z" stroke="#502A73" stroke-width="0.344" stroke-miterlimit="10" stroke-linecap="round" stroke-linejoin="round"/>
<path d="M230.094 99.2328C230.115 99.2764 230.138 99.3224 230.159 99.366C230.138 99.3212 230.116 99.2776 230.094 99.2328Z" fill="white"/>
<path d="M230.094 99.2328C230.115 99.2764 230.138 99.3224 230.159 99.366C230.138 99.3212 230.116 99.2776 230.094 99.2328Z" stroke="#502A73" stroke-width="0.344" stroke-miterlimit="10" stroke-linecap="round" stroke-linejoin="round"/>
<path d="M250.833 139.867C249.011 130.581 235.387 110.279 230.16 99.3655C230.157 99.3586 230.153 99.3529 230.15 99.346C229.587 98.1893 229.026 97.0544 228.468 95.9597C228.46 95.9425 228.452 95.9264 228.443 95.9104C228.343 95.7141 228.244 95.5202 228.145 95.3263C228.14 95.3171 228.135 95.3079 228.13 95.2987C228.027 95.0991 227.925 94.9017 227.823 94.7055C227.815 94.6906 227.807 94.6756 227.799 94.6596C227.701 94.4714 227.603 94.2832 227.505 94.0984C227.488 94.0652 227.471 94.0342 227.454 94.0009C227.364 93.8322 227.275 93.6624 227.186 93.496C227.174 93.4719 227.161 93.449 227.148 93.4249C227.055 93.2516 226.962 93.0795 226.871 92.9096C226.852 92.8752 226.833 92.8419 226.814 92.8075C226.728 92.6492 226.642 92.4908 226.556 92.3347C226.535 92.2957 226.514 92.2579 226.492 92.2188C226.409 92.0697 226.326 91.9205 226.244 91.7736C226.222 91.7334 226.2 91.6944 226.177 91.6554C226.097 91.5108 226.015 91.3674 225.935 91.2262C225.911 91.1826 225.887 91.1413 225.862 91.0989C225.784 90.9623 225.706 90.8269 225.629 90.6927C225.605 90.6513 225.58 90.6112 225.556 90.5699C225.479 90.4379 225.403 90.306 225.326 90.1774C225.298 90.1315 225.272 90.0868 225.244 90.0409C225.171 89.9181 225.097 89.7953 225.025 89.676C224.997 89.6324 224.971 89.5899 224.945 89.5452C224.872 89.4281 224.8 89.3099 224.729 89.1952C224.694 89.1389 224.659 89.085 224.624 89.0299C224.561 88.9289 224.498 88.828 224.435 88.7304C224.402 88.6776 224.367 88.6272 224.334 88.5744C224.271 88.4768 224.208 88.3793 224.146 88.2852C224.11 88.2301 224.075 88.1785 224.038 88.1245C223.979 88.035 223.92 87.9455 223.86 87.8583C223.822 87.8021 223.784 87.7493 223.746 87.6942C223.691 87.6139 223.635 87.5313 223.58 87.4533C223.539 87.3959 223.5 87.342 223.459 87.2857C223.407 87.2134 223.354 87.1388 223.302 87.0688C223.262 87.0126 223.222 86.961 223.182 86.9071C223.131 86.8393 223.081 86.7705 223.03 86.7062C222.988 86.65 222.946 86.5984 222.904 86.5444C222.857 86.4848 222.81 86.424 222.764 86.3654C222.718 86.3092 222.673 86.2564 222.628 86.2025C222.586 86.152 222.543 86.0981 222.501 86.0499C222.457 85.9982 222.415 85.9512 222.372 85.903C222.329 85.8536 222.286 85.8032 222.244 85.7572C222.201 85.7102 222.159 85.6666 222.117 85.6218C222.075 85.5782 222.034 85.5312 221.993 85.4899C221.951 85.4474 221.91 85.4084 221.869 85.3671C221.828 85.3281 221.787 85.2856 221.747 85.2478C221.707 85.211 221.669 85.1778 221.629 85.1422C221.589 85.1066 221.547 85.0676 221.507 85.0332C221.459 84.9919 221.412 84.9563 221.364 84.9184C221.334 84.8943 221.303 84.8679 221.274 84.8461C221.224 84.8083 221.175 84.7761 221.126 84.7429C221.1 84.7245 221.072 84.7038 221.047 84.6866C220.972 84.6384 220.899 84.5948 220.825 84.5558C216.335 82.1644 211.013 88.8268 206.483 94.9189C201.944 101.027 200.885 108.501 204.633 115.124L209.453 123.644L221.272 144.532C219.851 150.797 222.291 167.364 223.54 176.692C223.933 179.63 224.132 182.473 224.327 185.247C225.852 185.999 228.796 186.303 234.349 186.353C247.521 186.474 259.681 181.407 262.422 179.57C255.781 169.547 253.698 150.67 250.833 139.867Z" fill="#008056"/>
<path d="M250.833 139.867C249.011 130.581 235.387 110.279 230.16 99.3655C230.157 99.3586 230.153 99.3529 230.15 99.346C229.587 98.1893 229.026 97.0544 228.468 95.9597C228.46 95.9425 228.452 95.9264 228.443 95.9104C228.343 95.7141 228.244 95.5202 228.145 95.3263C228.14 95.3171 228.135 95.3079 228.13 95.2987C228.027 95.0991 227.925 94.9017 227.823 94.7055C227.815 94.6906 227.807 94.6756 227.799 94.6596C227.701 94.4714 227.603 94.2832 227.505 94.0984C227.488 94.0652 227.471 94.0342 227.454 94.0009C227.364 93.8322 227.275 93.6624 227.186 93.496C227.174 93.4719 227.161 93.449 227.148 93.4249C227.055 93.2516 226.962 93.0795 226.871 92.9096C226.852 92.8752 226.833 92.8419 226.814 92.8075C226.728 92.6492 226.642 92.4908 226.556 92.3347C226.535 92.2957 226.514 92.2579 226.492 92.2188C226.409 92.0697 226.326 91.9205 226.244 91.7736C226.222 91.7334 226.2 91.6944 226.177 91.6554C226.097 91.5108 226.015 91.3674 225.935 91.2262C225.911 91.1826 225.887 91.1413 225.862 91.0989C225.784 90.9623 225.706 90.8269 225.629 90.6927C225.605 90.6513 225.58 90.6112 225.556 90.5699C225.479 90.4379 225.403 90.306 225.326 90.1774C225.298 90.1315 225.272 90.0868 225.244 90.0409C225.171 89.9181 225.097 89.7953 225.025 89.676C224.997 89.6324 224.971 89.5899 224.945 89.5452C224.872 89.4281 224.8 89.3099 224.729 89.1952C224.694 89.1389 224.659 89.085 224.624 89.0299C224.561 88.9289 224.498 88.828 224.435 88.7304C224.402 88.6776 224.367 88.6271 224.334 88.5744C224.271 88.4768 224.208 88.3793 224.146 88.2852C224.11 88.2301 224.075 88.1785 224.038 88.1245C223.979 88.035 223.92 87.9455 223.86 87.8583C223.822 87.8021 223.784 87.7493 223.746 87.6942C223.691 87.6139 223.635 87.5313 223.58 87.4533C223.539 87.3959 223.5 87.342 223.459 87.2857C223.407 87.2134 223.354 87.1388 223.302 87.0688C223.262 87.0126 223.222 86.961 223.182 86.907C223.131 86.8393 223.081 86.7705 223.03 86.7062C222.988 86.65 222.946 86.5984 222.904 86.5444C222.857 86.4848 222.81 86.4239 222.764 86.3654C222.718 86.3092 222.673 86.2564 222.628 86.2025C222.586 86.152 222.543 86.0981 222.501 86.0499C222.457 85.9982 222.415 85.9512 222.372 85.903C222.329 85.8536 222.286 85.8032 222.244 85.7573C222.201 85.7102 222.159 85.6666 222.117 85.6218C222.075 85.5782 222.034 85.5312 221.993 85.4899C221.951 85.4474 221.91 85.4084 221.869 85.3671C221.828 85.3281 221.787 85.2856 221.747 85.2478C221.707 85.211 221.669 85.1778 221.629 85.1422C221.589 85.1066 221.547 85.0676 221.507 85.0332C221.459 84.9919 221.412 84.9563 221.364 84.9184C221.334 84.8943 221.303 84.8679 221.274 84.8461C221.224 84.8083 221.175 84.7761 221.126 84.7429C221.1 84.7245 221.072 84.7038 221.047 84.6866C220.972 84.6384 220.899 84.5948 220.825 84.5558C216.335 82.1644 211.013 88.8268 206.483 94.9189C201.944 101.027 200.885 108.501 204.633 115.124L209.453 123.644L221.272 144.532C219.851 150.797 222.291 167.364 223.54 176.692C223.933 179.63 224.132 182.473 224.327 185.247C225.852 185.999 228.796 186.303 234.349 186.353C247.521 186.474 259.681 181.407 262.422 179.57C255.781 169.547 253.698 150.67 250.833 139.867Z" stroke="#502A73" stroke-width="0.344" stroke-miterlimit="10" stroke-linecap="round" stroke-linejoin="round"/>
<path d="M247.306 215.312C247.306 215.312 242.66 213.251 240.266 209.966L247.306 215.312Z" fill="#BF792A"/>
<path d="M247.306 215.312C247.306 215.312 242.66 213.251 240.266 209.966" stroke="#502A73" stroke-width="0.344" stroke-miterlimit="10" stroke-linecap="round" stroke-linejoin="round"/>
<path d="M258.279 214.31C258.279 214.31 255.944 213.756 252.603 211.626C249.702 209.777 247.84 207.349 247.84 207.349" fill="#BF792A"/>
<path d="M258.279 214.31C258.279 214.31 255.944 213.756 252.603 211.626C249.702 209.777 247.84 207.349 247.84 207.349" stroke="#502A73" stroke-width="0.344" stroke-miterlimit="10" stroke-linecap="round" stroke-linejoin="round"/>
<path d="M265.631 209.743C265.631 209.743 264.116 210.061 260.749 208.885C257.281 207.674 254.649 204.801 254.649 204.801" fill="#BF792A"/>
<path d="M265.631 209.743C265.631 209.743 264.116 210.061 260.749 208.885C257.281 207.674 254.649 204.801 254.649 204.801" stroke="#502A73" stroke-width="0.344" stroke-miterlimit="10" stroke-linecap="round" stroke-linejoin="round"/>
<path d="M49.3239 248.772C49.3239 248.772 40.3117 238.02 44.4895 230.913C46.9308 226.759 54.9766 226.715 59.7685 229.019C68.3617 233.151 62.9822 251.507 62.9822 251.507L61.7093 262.234L49.3239 248.772Z" fill="white"/>
<path d="M49.3239 248.772C49.3239 248.772 40.3117 238.02 44.4895 230.913C46.9308 226.759 54.9766 226.715 59.7685 229.019C68.3617 233.151 62.9822 251.507 62.9822 251.507L61.7093 262.234L49.3239 248.772Z" stroke="#502A73" stroke-width="0.344" stroke-miterlimit="10" stroke-linecap="round" stroke-linejoin="round"/>
<path d="M49.7238 247.239C47.7577 244.854 42.8579 237.364 45.2544 233.285C45.8857 232.211 48.1835 230.843 52.6046 230.843C54.6189 230.843 56.7526 231.291 58.3136 232.042C61.2128 233.436 61.3987 238.586 61.2518 241.533C61.02 246.199 59.7735 250.523 59.7609 250.566L59.684 250.833L59.2375 254.592L49.7238 247.239Z" fill="white"/>
<path d="M49.7238 247.239C47.7577 244.854 42.8579 237.364 45.2544 233.285C45.8857 232.211 48.1835 230.843 52.6046 230.843C54.6189 230.843 56.7526 231.291 58.3136 232.042C61.2128 233.436 61.3987 238.586 61.2518 241.533C61.02 246.199 59.7735 250.523 59.7609 250.566L59.684 250.833L59.2375 254.592L49.7238 247.239Z" stroke="#502A73" stroke-width="0.344" stroke-miterlimit="10" stroke-linecap="round" stroke-linejoin="round"/>
<path d="M88.7114 273.918C85.8891 271.806 82.0958 270.114 79.9782 269.255C78.9222 268.827 78.0407 268.061 77.468 267.077L70.5023 255.098C69.3717 253.385 67.8246 251.988 66.0065 251.038L51.0329 243.853C51.0329 243.853 44.4574 239.648 32.8685 235.873C21.2808 232.098 10.5344 233.467 4.28712 240.365C-1.96126 247.263 39.9066 289.832 39.9066 289.832L68.4754 316.375C68.4754 316.375 78.571 312.743 81.8915 304.021C84.0148 298.443 88.9708 287.598 91.6876 281.184C91.0448 279.069 90.0933 276.649 88.7114 273.918Z" fill="white"/>
<path d="M88.7114 273.918C85.8891 271.806 82.0958 270.114 79.9782 269.255C78.9222 268.827 78.0408 268.061 77.468 267.077L70.5023 255.098C69.3718 253.385 67.8246 251.988 66.0065 251.038L51.0329 243.853C51.0329 243.853 44.4574 239.648 32.8685 235.873C21.2808 232.098 10.5344 233.467 4.28712 240.365C-1.96126 247.263 39.9066 289.832 39.9066 289.832L68.4754 316.375C68.4754 316.375 78.571 312.743 81.8915 304.021C84.0148 298.443 88.9708 287.598 91.6876 281.184C91.0448 279.069 90.0933 276.649 88.7114 273.918Z" stroke="#502A73" stroke-width="0.344" stroke-miterlimit="10" stroke-linecap="round" stroke-linejoin="round"/>
<path d="M81.8912 304.021C84.0145 298.443 88.9717 287.598 91.6872 281.184C91.289 279.875 90.7725 278.45 90.1102 276.905C87.0205 281.697 80.1787 292.418 76.8135 298.553L72.3866 306.624C72.3866 306.624 70.3665 311.781 68.9927 316.169C71.0885 315.296 79.0206 311.562 81.8912 304.021Z" fill="#4BBEA5"/>
<path d="M81.8912 304.021C84.0145 298.443 88.9717 287.598 91.6872 281.184C91.289 279.875 90.7725 278.45 90.1102 276.905C87.0205 281.697 80.1787 292.418 76.8135 298.553L72.3866 306.624C72.3866 306.624 70.3665 311.781 68.9927 316.169C71.0885 315.296 79.0206 311.562 81.8912 304.021Z" stroke="#502A73" stroke-width="0.344" stroke-miterlimit="10" stroke-linecap="round" stroke-linejoin="round"/>
<path d="M73.2181 279.558C54.9699 270.925 59.2349 258.849 49.0785 250.257C44.018 245.976 39.5739 246.097 33.3244 242.147C27.0737 238.197 24.3856 234.011 24.3856 234.011L16.1367 242.147C16.1367 242.147 36.3189 272.553 36.5794 272.861C36.7837 273.103 44.632 290.046 48.6756 297.979L57.278 305.971C59.6286 307.31 61.7095 308.434 61.7095 308.434L62.1617 310.508L68.4744 316.374C68.4744 316.374 78.5712 312.742 81.8905 304.02C82.7628 301.731 84.1114 298.555 85.5863 295.163C86.1165 293.943 86.128 285.666 73.2181 279.558Z" fill="#4BBEA5"/>
<path d="M73.2181 279.558C54.9699 270.925 59.2349 258.849 49.0785 250.257C44.018 245.976 39.5739 246.097 33.3244 242.147C27.0737 238.197 24.3856 234.011 24.3856 234.011L16.1367 242.147C16.1367 242.147 36.3189 272.553 36.5794 272.861C36.7837 273.103 44.6321 290.046 48.6756 297.979L57.278 305.971C59.6286 307.31 61.7095 308.434 61.7095 308.434L62.1617 310.508L68.4744 316.374C68.4744 316.374 78.5712 312.742 81.8905 304.02C82.7628 301.731 84.1114 298.555 85.5863 295.163C86.1165 293.943 86.128 285.666 73.2181 279.558Z" stroke="#502A73" stroke-width="0.344" stroke-miterlimit="10" stroke-linecap="round" stroke-linejoin="round"/>
<path d="M16.1368 243.852C16.1368 243.852 25.6506 238.385 24.3857 234.011C16.1839 233.129 8.97022 235.192 4.28623 240.365C2.61969 242.204 4.37575 246.58 7.84542 252.009C11.0144 254.983 13.6634 257.417 13.6634 257.417L16.1368 243.852Z" fill="#4BBEA5"/>
<path d="M16.1368 243.852C16.1368 243.852 25.6506 238.385 24.3857 234.011C16.1839 233.129 8.97022 235.192 4.28623 240.365C2.61969 242.204 4.37575 246.58 7.84542 252.009C11.0144 254.983 13.6634 257.417 13.6634 257.417L16.1368 243.852Z" stroke="#502A73" stroke-width="0.344" stroke-miterlimit="10" stroke-linecap="round" stroke-linejoin="round"/>
<path d="M24.2514 241.362C7.39427 232.331 -0.442604 240.728 0.871576 253.047C2.4704 268.044 14.601 282.171 26.6077 294.072C36.18 303.559 46.6934 313.14 54.9274 316.003C69.6164 321.11 75.9038 310.848 76.9724 309.004C81.2214 301.674 81.7413 291.222 52.0546 268.064C46.6774 263.869 34.6615 246.939 24.2514 241.362Z" fill="#502A73"/>
<path d="M24.2514 241.362C7.39427 232.331 -0.442604 240.728 0.871576 253.047C2.4704 268.044 14.601 282.171 26.6077 294.072C36.18 303.559 46.6934 313.14 54.9274 316.003C69.6164 321.11 75.9038 310.848 76.9724 309.004C81.2214 301.674 81.7413 291.222 52.0546 268.064C46.6774 263.869 34.6615 246.939 24.2514 241.362Z" stroke="#502A73" stroke-width="0.344" stroke-miterlimit="10" stroke-linecap="round" stroke-linejoin="round"/>
<path d="M24.2514 241.362C7.39427 232.331 -0.442604 240.728 0.871576 253.047C2.4704 268.044 14.601 282.171 26.6077 294.072C36.18 303.559 46.6934 313.14 54.9274 316.003C69.6164 321.11 75.9038 310.848 76.9724 309.004C81.2214 301.674 81.7413 291.222 52.0546 268.064C46.6774 263.869 34.6615 246.939 24.2514 241.362Z" stroke="#502A73" stroke-width="0.344" stroke-miterlimit="10" stroke-linecap="round" stroke-linejoin="round"/>
<path d="M71.3101 266.876C71.3101 266.876 77.4105 270.651 80.9111 273.132L84.4118 275.613L70.0132 271.891L71.3101 266.876Z" fill="#4BBEA5"/>
<path d="M71.3101 266.876C71.3101 266.876 77.4105 270.651 80.9111 273.132L84.4118 275.613L70.0132 271.891L71.3101 266.876Z" stroke="#502A73" stroke-width="0.344" stroke-miterlimit="10" stroke-linecap="round" stroke-linejoin="round"/>
<path d="M169.706 80.295L181.629 70.8729C181.15 69.559 178.918 63.4164 178.309 61.7605C175.448 53.9954 171.504 43.5428 169.859 40.4262C166.649 34.3421 165.245 32.9031 160.715 32.9789C156.887 33.0443 152.418 36.5017 149.173 39.9603C147.226 42.035 149.272 49.7978 149.272 49.7978C149.272 49.7978 149.678 52.452 150.316 55.9025C150.405 56.3202 150.349 56.7563 150.158 57.1372L148.778 60.5866C148.414 61.4966 148.911 62.5236 149.85 62.8036L151.618 63.3326C152.333 63.5828 152.235 63.9339 151.965 64.9035C151.583 66.2737 152.911 66.5892 153.213 66.6627C153.753 66.7958 153.058 67.0379 153.204 67.9777C153.328 68.7832 153.784 68.9244 153.954 69.3708C154.153 69.8906 154.309 70.2624 154.454 70.5952C155.291 72.5207 157.318 73.6418 159.395 73.3239L164.941 72.4771L169.129 80.7976L169.706 80.295Z" fill="#BF792A"/>
<path d="M169.706 80.295L181.629 70.8729C181.15 69.559 178.918 63.4164 178.309 61.7605C175.448 53.9954 171.504 43.5428 169.859 40.4262C166.649 34.3421 165.245 32.9031 160.715 32.9789C156.887 33.0443 152.418 36.5017 149.173 39.9603C147.226 42.0349 149.272 49.7978 149.272 49.7978C149.272 49.7978 149.678 52.452 150.316 55.9025C150.405 56.3202 150.349 56.7563 150.158 57.1372L148.778 60.5866C148.414 61.4966 148.911 62.5236 149.85 62.8036L151.618 63.3326C152.333 63.5828 152.235 63.9339 151.965 64.9035C151.583 66.2737 152.911 66.5892 153.213 66.6627C153.753 66.7958 153.058 67.0379 153.204 67.9777C153.328 68.7832 153.784 68.9244 153.954 69.3708C154.153 69.8906 154.309 70.2624 154.454 70.5952C155.291 72.5207 157.318 73.6418 159.395 73.3239L164.941 72.4771L169.129 80.7976L169.706 80.295Z" stroke="#502A73" stroke-width="0.344" stroke-miterlimit="10" stroke-linecap="round" stroke-linejoin="round"/>
<path d="M167.55 51.9709C167.412 51.3088 167.368 50.7075 167.449 50.2703C167.771 48.525 169.204 47.3258 170.951 47.6471C172.696 47.9696 173.542 49.6346 173.62 51.4086C173.693 53.0633 173.253 54.6538 172.54 55.6636C171.996 56.4347 171.292 56.8673 170.535 56.7273" fill="#BF792A"/>
<path d="M167.55 51.9709C167.412 51.3088 167.368 50.7075 167.449 50.2703C167.771 48.525 169.204 47.3258 170.951 47.6471C172.696 47.9696 173.542 49.6346 173.62 51.4086C173.693 53.0633 173.253 54.6538 172.54 55.6636C171.996 56.4347 171.292 56.8673 170.535 56.7273" stroke="#502A73" stroke-width="0.344" stroke-miterlimit="10" stroke-linecap="round" stroke-linejoin="round"/>
<path d="M166.547 52.9963C166.547 52.9963 166.295 54.0545 165.36 54.3633C164.425 54.672 163.141 53.9547 163.141 53.9547" stroke="#502A73" stroke-width="0.344" stroke-miterlimit="10" stroke-linecap="round" stroke-linejoin="round"/>
<path d="M169.128 51.7582C169.128 51.7582 169.05 49.846 170.765 50.1628C171.877 50.3671 172.072 52.0738 171.285 52.8072C170.85 53.2135 170.029 53.1699 170.029 53.1699C170.029 53.1699 170.629 53.4155 170.51 53.9848C170.361 54.7022 169.52 54.3578 169.52 54.3578" fill="#BF792A"/>
<path d="M169.128 51.7582C169.128 51.7582 169.05 49.846 170.765 50.1628C171.877 50.3671 172.072 52.0738 171.285 52.8072C170.85 53.2135 170.029 53.1699 170.029 53.1699C170.029 53.1699 170.629 53.4155 170.51 53.9848C170.361 54.7022 169.52 54.3578 169.52 54.3578" stroke="#502A73" stroke-width="0.344" stroke-miterlimit="10" stroke-linecap="round" stroke-linejoin="round"/>
<path d="M153.396 66.6995C155.191 66.5583 156.739 65.3841 157.36 63.6946L157.454 63.4398" stroke="#502A73" stroke-width="0.344" stroke-miterlimit="10" stroke-linecap="round" stroke-linejoin="round"/>
<path d="M155.042 54.3123C155.533 54.046 156.091 53.9289 156.648 53.9725" stroke="#502A73" stroke-width="0.688" stroke-miterlimit="10" stroke-linecap="round" stroke-linejoin="round"/>
<path d="M155.271 54.2429C155.177 54.5643 155.176 55.0601 155.268 55.4963C155.412 56.1838 155.736 56.4604 156.048 56.395C156.36 56.3284 156.544 55.9439 156.398 55.2575C156.306 54.8214 156.104 54.368 155.889 54.1121L155.271 54.2429Z" fill="#502A73"/>
<path d="M149.994 55.3784C150.485 55.1121 151.043 54.9951 151.601 55.0387" stroke="#502A73" stroke-width="0.688" stroke-miterlimit="10" stroke-linecap="round" stroke-linejoin="round"/>
<path d="M150.223 55.3086C150.129 55.63 150.128 56.1258 150.22 56.562C150.364 57.2495 150.688 57.5261 151 57.4606C151.313 57.3952 151.496 57.0096 151.35 56.3232C151.259 55.8871 151.057 55.4337 150.841 55.1778L150.223 55.3086Z" fill="#502A73"/>
<path d="M152.843 52.5751C153.048 52.8172 153.422 52.8299 153.632 52.5934C153.991 52.1917 154.622 51.6798 155.536 51.6316C156.034 51.6052 156.416 51.6465 156.703 51.7131C157.041 51.7923 157.338 51.4778 157.256 51.1415C157.223 51.0061 157.13 50.8925 157.004 50.8305C156.36 50.5137 154.314 49.7504 152.812 51.9312C152.677 52.1286 152.69 52.3926 152.843 52.5751Z" fill="#502A73"/>
<path d="M150.345 51.9152C150.065 51.8957 149.832 51.9451 149.638 52.03L149.846 53.2432C149.949 53.18 150.067 53.1272 150.211 53.1043C150.52 53.0538 150.844 53.1043 151.107 53.1732C151.405 53.2523 151.705 53.063 151.762 52.7588C151.804 52.5258 151.687 52.2951 151.476 52.1895C151.245 52.0736 150.883 51.9531 150.345 51.9152Z" fill="#502A73"/>
<path d="M167.992 47.929C167.878 46.1469 163.652 45.8658 160.923 45.8715C160.995 45.0499 160.747 44.4624 160.747 44.4624L158.452 38.8488L149.994 40.2648C149.994 40.2648 147.392 39.6096 143.755 41.8266C139.751 44.2673 141.069 49.1006 143.95 50.8092C146.831 52.5179 152.378 51.5907 157.271 49.6858C158.091 49.3668 158.732 49.0065 159.235 48.629C159.377 50.0289 159.909 51.3497 161.285 51.9108C164.8 53.3475 168.16 50.5648 167.992 47.929Z" fill="#502A73"/>
<path d="M167.992 47.929C167.878 46.1469 163.652 45.8658 160.923 45.8715C160.995 45.0499 160.747 44.4624 160.747 44.4624L158.452 38.8488L149.994 40.2648C149.994 40.2648 147.392 39.6096 143.755 41.8266C139.751 44.2673 141.069 49.1006 143.95 50.8092C146.831 52.5179 152.378 51.5907 157.271 49.6858C158.091 49.3668 158.732 49.0065 159.235 48.629C159.377 50.0289 159.909 51.3497 161.285 51.9108C164.8 53.3475 168.16 50.5648 167.992 47.929Z" stroke="#502A73" stroke-width="0.344" stroke-miterlimit="10" stroke-linecap="round" stroke-linejoin="round"/>
<path d="M167.992 47.929C167.878 46.1469 163.652 45.8658 160.923 45.8715C160.995 45.0499 160.747 44.4624 160.747 44.4624L158.452 38.8488L149.994 40.2648C149.994 40.2648 147.392 39.6096 143.755 41.8266C139.751 44.2673 141.069 49.1006 143.95 50.8092C146.831 52.5179 152.378 51.5907 157.271 49.6858C158.091 49.3668 158.732 49.0065 159.235 48.629C159.377 50.0289 159.909 51.3497 161.285 51.9108C164.8 53.3475 168.16 50.5648 167.992 47.929Z" stroke="#502A73" stroke-width="0.344" stroke-miterlimit="10" stroke-linecap="round" stroke-linejoin="round"/>
<path d="M175.023 59.8405C175.023 62.3685 172.973 64.4167 170.445 64.4167C167.917 64.4167 165.868 62.3685 165.868 59.8405C165.868 57.3126 167.917 55.2643 170.445 55.2643C172.973 55.2643 175.023 57.3126 175.023 59.8405Z" fill="#EEC718"/>
<path d="M175.023 59.8405C175.023 62.3685 172.973 64.4167 170.445 64.4167C167.917 64.4167 165.868 62.3685 165.868 59.8405C165.868 57.3126 167.917 55.2643 170.445 55.2643C172.973 55.2643 175.023 57.3126 175.023 59.8405Z" stroke="#502A73" stroke-width="0.344" stroke-miterlimit="10" stroke-linecap="round" stroke-linejoin="round"/>
<path d="M185.023 58.9619C179.643 46.9533 166.504 35.0572 166.043 34.6257C164.657 33.329 163.13 32.9389 160.714 32.979C156.886 33.0444 152.417 36.5019 149.173 39.9604C149.111 40.0258 149.054 40.0981 149 40.175C149 40.175 157.454 39.5324 163.141 49.4916C174.93 70.1317 171.762 74.9742 168.876 80.2952L181.628 69.0187C184.038 64.8452 185.744 60.5719 185.023 58.9619Z" fill="#008056"/>
<path d="M185.023 58.9619C179.643 46.9533 166.504 35.0572 166.043 34.6257C164.657 33.329 163.13 32.9389 160.714 32.979C156.886 33.0444 152.417 36.5019 149.173 39.9604C149.111 40.0258 149.054 40.0981 149 40.175C149 40.175 157.454 39.5324 163.141 49.4916C174.93 70.1317 171.762 74.9742 168.876 80.2952L181.628 69.0187C184.038 64.8452 185.744 60.5719 185.023 58.9619Z" stroke="#502A73" stroke-width="0.344" stroke-miterlimit="10" stroke-linecap="round" stroke-linejoin="round"/>
<path d="M164.94 72.4769C164.94 72.4769 167.306 76.6056 171.196 75.8196C173.957 75.2619 178.284 71.4017 182.082 67.4841C182.81 66.7325 183.586 66.0417 184.402 65.4129C191.194 60.178 200.685 60.2273 207.606 65.2912C211.13 67.8685 215.218 70.7912 215.678 70.8222C216.997 70.9106 227.736 73.1631 230.554 73.6244C234.529 74.2762 237.591 77.4789 238.065 81.4779L239.493 93.5244L224.796 90.5604C219.128 89.4175 213.872 86.8 209.501 83.0156C207.956 81.6776 205.883 80.4544 202.472 79.7119C198.198 78.7813 192.67 82.404 187.788 84.0575C182.904 85.7111 175.954 88.387 170.519 85.7822C163.142 82.2479 161.544 77.2436 161.544 77.2436C161.021 75.8116 161.188 74.2177 161.998 72.9267L164.94 72.4769Z" fill="#008056"/>
<path d="M164.94 72.4769C164.94 72.4769 167.306 76.6056 171.196 75.8196C173.957 75.2619 178.284 71.4017 182.082 67.4841C182.81 66.7325 183.586 66.0417 184.402 65.4129C191.194 60.178 200.685 60.2273 207.606 65.2912C211.13 67.8685 215.218 70.7912 215.678 70.8222C216.997 70.9106 227.736 73.1631 230.554 73.6244C234.529 74.2762 237.591 77.4789 238.065 81.4779L239.493 93.5244L224.796 90.5604C219.128 89.4175 213.872 86.8 209.501 83.0156C207.956 81.6776 205.883 80.4544 202.472 79.7119C198.198 78.7813 192.67 82.404 187.788 84.0575C182.904 85.7111 175.954 88.387 170.519 85.7822C163.142 82.2479 161.544 77.2436 161.544 77.2436C161.021 75.8116 161.188 74.2177 161.998 72.9267L164.94 72.4769Z" stroke="#502A73" stroke-width="0.344" stroke-miterlimit="10" stroke-linecap="round" stroke-linejoin="round"/>
<path d="M137.088 136.494V136.492L137.017 134.908L136.945 133.325C136.936 133.105 136.919 132.886 136.896 132.667C136.875 132.449 136.847 132.231 136.813 132.014C136.744 131.58 136.651 131.15 136.534 130.726C136.475 130.512 136.411 130.301 136.341 130.092C135.99 129.047 135.496 128.067 134.883 127.173C133.656 125.386 131.946 123.95 129.918 123.053L129.184 122.73L127.807 122.122L122.901 119.954C121.403 119.293 120.016 118.406 118.788 117.323C116.991 115.737 114.155 113.193 111.373 110.532C100.011 113.158 91.0437 122.126 91.0437 122.126L90.1748 128.149C93.058 130.48 94.9426 132.003 94.9426 132.003L95.707 132.642C97.9417 134.511 99.9858 136.597 101.808 138.869L104.733 142.516C104.88 142.699 105.031 142.878 105.186 143.053C106.674 144.738 108.695 145.859 110.901 146.287C110.901 146.287 109.171 148.837 109.87 150.491C111.096 153.386 116.945 155.781 121.458 152.649L134.211 142.727C134.952 142.151 135.565 141.448 136.035 140.664C136.122 140.517 136.203 140.367 136.281 140.215C136.292 140.195 136.302 140.174 136.311 140.153C136.38 140.017 136.443 139.878 136.503 139.738C136.512 139.715 136.522 139.693 136.532 139.67C136.596 139.513 136.657 139.355 136.711 139.194C136.711 139.192 136.712 139.188 136.712 139.188C136.769 139.019 136.82 138.845 136.864 138.672C136.866 138.665 136.867 138.659 136.868 138.654C136.907 138.499 136.94 138.342 136.97 138.183C136.978 138.138 136.985 138.093 136.993 138.048C137.012 137.926 137.03 137.805 137.043 137.683C137.05 137.628 137.056 137.573 137.062 137.518C137.072 137.398 137.08 137.278 137.085 137.156C137.087 137.106 137.092 137.054 137.093 137.002C137.096 136.834 137.096 136.664 137.088 136.494Z" fill="#BF792A"/>
<path d="M137.088 136.494V136.492L137.017 134.908L136.945 133.325C136.936 133.105 136.919 132.886 136.896 132.667C136.875 132.449 136.847 132.231 136.813 132.014C136.744 131.58 136.651 131.15 136.534 130.726C136.475 130.512 136.411 130.301 136.341 130.092C135.99 129.047 135.496 128.067 134.883 127.173C133.656 125.386 131.946 123.95 129.918 123.053L129.184 122.73L127.807 122.122L122.901 119.954C121.403 119.293 120.016 118.406 118.788 117.323C116.991 115.737 114.155 113.193 111.373 110.532C100.011 113.158 91.0437 122.126 91.0437 122.126L90.1748 128.149C93.058 130.48 94.9426 132.003 94.9426 132.003L95.707 132.642C97.9417 134.511 99.9858 136.597 101.808 138.869L104.733 142.516C104.88 142.699 105.031 142.878 105.186 143.053C106.674 144.738 108.695 145.859 110.901 146.287C110.901 146.287 109.171 148.837 109.87 150.491C111.096 153.386 116.945 155.781 121.458 152.649L134.211 142.727C134.952 142.151 135.565 141.448 136.035 140.664C136.122 140.517 136.203 140.367 136.281 140.215C136.292 140.195 136.302 140.174 136.311 140.153C136.38 140.017 136.443 139.878 136.503 139.738C136.512 139.715 136.522 139.693 136.532 139.67C136.596 139.513 136.657 139.355 136.711 139.194C136.711 139.192 136.712 139.188 136.712 139.188C136.769 139.019 136.82 138.845 136.864 138.672C136.866 138.665 136.867 138.659 136.868 138.654C136.907 138.499 136.94 138.342 136.97 138.183C136.978 138.138 136.985 138.093 136.993 138.048C137.012 137.926 137.03 137.805 137.043 137.683C137.05 137.628 137.056 137.573 137.062 137.518C137.072 137.398 137.08 137.278 137.085 137.156C137.087 137.106 137.092 137.054 137.093 137.002C137.096 136.834 137.096 136.664 137.088 136.494Z" stroke="#502A73" stroke-width="0.344" stroke-miterlimit="10" stroke-linecap="round" stroke-linejoin="round"/>
<path d="M91.8762 113.88C87.0258 116.951 85.8585 121.321 85.7759 124.593C88.8851 127.107 91.5434 129.256 93.1846 130.582C93.8687 123.928 97.4176 121.105 97.4176 121.105L104.254 114.417C104.254 114.417 100.592 108.364 91.8762 113.88Z" fill="#EEC718"/>
<path d="M91.8762 113.88C87.0258 116.951 85.8585 121.321 85.7759 124.593C88.8851 127.107 91.5434 129.256 93.1846 130.582C93.8687 123.928 97.4176 121.105 97.4176 121.105L104.254 114.417C104.254 114.417 100.592 108.364 91.8762 113.88Z" stroke="#502A73" stroke-width="0.344" stroke-miterlimit="10" stroke-linecap="round" stroke-linejoin="round"/>
<path d="M122.641 142.165C122.641 142.165 125.501 149.909 122.641 151.728V142.165Z" fill="#BF792A"/>
<path d="M122.641 142.165C122.641 142.165 125.501 149.909 122.641 151.728" stroke="#502A73" stroke-width="0.344" stroke-miterlimit="10" stroke-linecap="round" stroke-linejoin="round"/>
<path d="M127.807 137.265C127.807 137.265 131.116 145.136 128.635 147.066L127.807 137.265Z" fill="#BF792A"/>
<path d="M127.807 137.265C127.807 137.265 131.116 145.136 128.635 147.066" stroke="#502A73" stroke-width="0.344" stroke-miterlimit="10" stroke-linecap="round" stroke-linejoin="round"/>
<path d="M131.926 133.893C131.926 133.893 133.126 136.221 133.585 138.519C134.045 140.816 133.877 142.987 132.941 143.716" fill="#BF792A"/>
<path d="M131.926 133.893C131.926 133.893 133.126 136.221 133.585 138.519C134.045 140.816 133.877 142.987 132.941 143.716" stroke="#502A73" stroke-width="0.344" stroke-miterlimit="10" stroke-linecap="round" stroke-linejoin="round"/>
<path d="M110.901 146.286L111.117 146.28C111.826 146.262 112.531 146.14 113.206 145.92L113.365 145.868C113.365 145.868 113.449 147.54 114.076 148.208" fill="#BF792A"/>
<path d="M110.901 146.286L111.117 146.28C111.826 146.262 112.531 146.14 113.206 145.92L113.365 145.868C113.365 145.868 113.449 147.54 114.076 148.208" stroke="#502A73" stroke-width="0.344" stroke-miterlimit="10" stroke-linecap="round" stroke-linejoin="round"/>
<path d="M89.9867 113.128L97.0523 123.409C98.5352 125.566 101.479 126.129 103.652 124.668L114.298 117.511C116.756 115.861 117.133 112.395 115.09 110.254L106.242 100.982C104.619 99.2818 101.999 99.0156 100.066 100.355L91.201 106.502C89.041 107.999 88.4981 110.961 89.9867 113.128Z" fill="#EEC718"/>
<path d="M89.9867 113.128L97.0523 123.409C98.5352 125.566 101.479 126.129 103.652 124.668L114.298 117.511C116.756 115.861 117.133 112.395 115.09 110.254L106.242 100.982C104.619 99.2818 101.999 99.0156 100.066 100.355L91.201 106.502C89.041 107.999 88.4981 110.961 89.9867 113.128Z" stroke="#502A73" stroke-width="0.344" stroke-miterlimit="10" stroke-linecap="round" stroke-linejoin="round"/>
<path d="M100.992 122.126C100.522 122.126 100.083 121.896 99.8181 121.51L92.7525 111.228C92.3106 110.586 92.4725 109.702 93.1129 109.258L101.978 103.111C102.28 102.902 102.584 102.858 102.786 102.858C103.013 102.858 103.45 102.916 103.815 103.298L112.663 112.57C113.059 112.985 113.074 113.459 113.046 113.704C113.02 113.949 112.904 114.407 112.427 114.728L101.78 121.884C101.541 122.045 101.276 122.126 100.992 122.126Z" fill="#502A73"/>
<path d="M100.992 122.126C100.522 122.126 100.083 121.896 99.8181 121.51L92.7525 111.228C92.3106 110.586 92.4725 109.702 93.1129 109.258L101.978 103.111C102.28 102.902 102.584 102.858 102.786 102.858C103.013 102.858 103.45 102.916 103.815 103.298L112.663 112.57C113.059 112.985 113.074 113.459 113.046 113.704C113.02 113.949 112.904 114.407 112.427 114.728L101.78 121.884C101.541 122.045 101.276 122.126 100.992 122.126Z" stroke="#502A73" stroke-width="0.344" stroke-miterlimit="10" stroke-linecap="round" stroke-linejoin="round"/>
<path d="M100.992 122.126C100.522 122.126 100.083 121.896 99.8181 121.51L92.7525 111.228C92.3106 110.586 92.4725 109.702 93.1129 109.258L101.978 103.111C102.28 102.902 102.584 102.858 102.786 102.858C103.013 102.858 103.45 102.916 103.815 103.298L112.663 112.57C113.059 112.985 113.074 113.459 113.046 113.704C113.02 113.949 112.904 114.407 112.427 114.728L101.78 121.884C101.541 122.045 101.276 122.126 100.992 122.126Z" stroke="#502A73" stroke-width="0.344" stroke-miterlimit="10" stroke-linecap="round" stroke-linejoin="round"/>
<path d="M100.931 112.595C100.931 112.595 100.152 114.437 101.026 115.704C101.898 116.972 104.069 116.105 104.82 113.866C105.68 111.3 105.693 109.241 105.693 109.241C105.693 109.241 99.4841 107.791 98.302 109.613C97.3964 111.008 98.1918 113.001 100.931 112.595Z" fill="#4BBEA5"/>
<path d="M100.931 112.595C100.931 112.595 100.152 114.437 101.026 115.704C101.898 116.972 104.069 116.105 104.82 113.866C105.68 111.3 105.693 109.241 105.693 109.241C105.693 109.241 99.4841 107.791 98.302 109.613C97.3964 111.008 98.1918 113.001 100.931 112.595Z" stroke="#502A73" stroke-width="0.344" stroke-miterlimit="10" stroke-linecap="round" stroke-linejoin="round"/>
<path d="M65.0001 49.4613H59.125V56.3486H65.0001V49.4613Z" fill="white"/>
<path d="M65.0001 39.4349H59.125V46.3223H65.0001V39.4349Z" fill="white"/>
<path d="M22.8579 106.686H28.6828V99.7986H22.8579V106.686Z" fill="white"/>
<path d="M22.8579 116.713H28.6828V109.826H22.8579V116.713Z" fill="white"/>
<path d="M43.4229 52.095C40.1811 52.095 38.5606 50.2214 38.6108 47.9928C38.6619 45.1065 41.5488 44.1441 43.2715 44.1952C47.9813 44.3466 49.4503 48.6003 49.4503 52.095H43.4229ZM41.3462 109.876C39.3708 109.876 38.307 108.762 38.307 106.939V101.216V100.964V92.4553V92.0001V83.6943V83.2392V74.9343V74.4782V66.1222V65.7172V61.8175C38.307 60.045 39.3708 58.9312 41.3462 58.9312H57.0481L55.3765 52.095H53.6548C53.6037 43.6378 50.767 37.5105 42.7641 37.6619C38.307 37.713 34.0523 41.5616 33.7996 46.3727C33.5961 49.7652 35.3188 51.9427 36.5341 53.0063C33.9511 54.07 31.5706 56.3487 31.5706 61.2099V65.7172V66.1222V74.4782V74.9343V83.2392V83.6943V92.0001V92.4553V100.964V101.216V107.546C31.5706 116.054 38.8645 116.712 41.7513 116.712H54.1101V109.876H41.3462Z" fill="white"/>
<path d="M54.7178 133.526C54.7178 130.588 53.6539 124.41 47.1201 124.157V130.588C49.3492 130.842 49.9568 132.462 49.9568 133.627C49.9568 136.564 47.5763 136.564 47.5763 136.564H38.307V123.093H31.5697V143.553H45.9048C51.9824 143.553 54.7178 140.008 54.7178 133.526Z" fill="white"/>
<path d="M22.8579 178.899H28.6828V171.962H22.8579V178.899Z" fill="white"/>
<path d="M54.1102 173.532H41.3454C39.37 173.532 38.307 172.418 38.307 170.594V164.872V164.619V160.517C38.307 158.744 39.37 157.631 41.3454 157.631H64.3922V150.845H41.7514C38.8645 150.845 31.5697 151.452 31.5697 159.959V164.619V164.872V171.202C31.5697 179.71 38.8645 180.368 41.7514 180.368H54.1102V173.532Z" fill="white"/>
</svg>
