<svg width="229" height="275" viewBox="0 0 229 275" fill="none" xmlns="http://www.w3.org/2000/svg">
<path d="M13.9085 165.537L1.27533 175.458C1.27533 175.458 0.721702 175.086 -0.181767 174.455C-1.08831 173.83 -2.33965 172.95 -3.74626 171.942C-5.15287 170.934 -6.70663 169.797 -8.20488 168.657C-9.70816 167.515 -11.1528 166.366 -12.3463 165.332C-13.5417 164.29 -15.0046 162.92 -16.5242 161.349C-18.0418 159.786 -19.6131 158.017 -21.0334 156.177C-22.4486 154.34 -23.7129 152.433 -24.6194 150.565C-25.5188 148.708 -26.0635 146.896 -26.0557 145.253C-26.0521 144.745 -25.9973 144.255 -25.8861 143.783C-25.7748 143.312 -25.5992 142.859 -25.3653 142.433C-25.1314 142.007 -24.833 141.599 -24.4633 141.219C-24.0936 140.84 -23.6575 140.486 -23.1501 140.161C-22.2083 139.564 -20.9752 139.233 -19.4597 139.238C-17.9491 139.239 -16.1692 139.576 -14.1224 140.31C-12.0806 141.041 -9.77811 142.179 -7.22754 143.78C-4.67696 145.38 -1.8663 147.457 1.18761 150.084C2.21998 150.966 3.52214 152.365 4.8972 153.962C6.2742 155.566 7.73105 157.379 9.0647 159.09C10.4003 160.81 11.6057 162.416 12.4861 163.598C13.3664 164.781 13.9085 165.537 13.9085 165.537Z" fill="#008056" fill-opacity="0.24"/>
<path d="M33.9166 185.399C33.9802 185.953 33.9844 186.493 33.9393 187.025C33.8891 187.554 33.7876 188.065 33.6278 188.549C33.468 189.033 33.252 189.498 32.9837 189.924C32.7155 190.35 32.3871 190.74 32.0065 191.093C31.1488 191.879 30.1817 192.369 29.1312 192.6C28.0807 192.832 26.9518 192.807 25.7673 192.567C24.5828 192.327 23.3539 191.865 22.1023 191.236C20.8507 190.607 19.5795 189.806 18.3164 188.877C17.6237 188.372 16.8831 187.811 16.0946 187.194C15.3029 186.581 14.4684 185.915 13.586 185.192C12.7035 184.47 11.7701 183.696 10.7856 182.87C9.80424 182.04 8.77687 181.161 7.70159 180.225L19.6288 170.483C19.6288 170.483 19.9968 170.745 20.6254 171.197C21.2489 171.646 22.1301 172.291 23.1514 173.055C24.1728 173.819 25.3343 174.701 26.5206 175.633C27.7069 176.565 28.918 177.547 30.0434 178.512C30.6232 179.012 31.1371 179.543 31.5831 180.095C32.0342 180.651 32.4205 181.224 32.7421 181.814C33.0637 182.404 33.3237 183.006 33.5181 183.604C33.7206 184.2 33.8513 184.801 33.9166 185.399Z" fill="#008056" fill-opacity="0.24"/>
<path d="M6.89507 123.934L-7.4889 129.172C-7.4889 129.172 -8.26998 128.621 -9.50013 127.74C-10.7303 126.859 -12.3964 125.647 -14.1715 124.321C-15.9465 122.996 -17.8174 121.557 -19.4522 120.224C-21.0869 118.892 -22.4856 117.665 -23.3048 116.757C-24.7496 115.175 -25.9694 113.706 -26.9823 112.347C-27.9933 110.996 -28.8055 109.757 -29.4371 108.626C-30.0636 107.497 -30.5094 106.477 -30.7959 105.566C-31.0823 104.655 -31.2062 103.848 -31.1938 103.143C-31.1863 102.652 -31.1097 102.216 -30.976 101.821C-30.8422 101.426 -30.6444 101.084 -30.3975 100.784C-30.1506 100.485 -29.8497 100.232 -29.4997 100.022C-29.1527 99.8175 -28.7617 99.6531 -28.3267 99.529C-25.9493 98.8547 -23.3792 99.0774 -20.7941 99.8676C-18.219 100.652 -15.6096 101.994 -13.1497 103.575C-10.6847 105.159 -8.36119 106.98 -6.35584 108.73C-4.3505 110.479 -2.66221 112.144 -1.48794 113.404C-0.591497 114.365 0.380096 115.497 1.33325 116.66C2.2864 117.823 3.22613 119.019 4.04687 120.096C4.87262 121.176 5.58748 122.133 6.1009 122.824C6.5962 123.511 6.89507 123.934 6.89507 123.934Z" fill="#008056" fill-opacity="0.24"/>
<path d="M21.1458 143.163C21.1845 143.577 21.1687 143.98 21.0866 144.356C21.0045 144.733 20.8661 145.09 20.6532 145.424C20.4403 145.758 20.164 146.06 19.8103 146.345C19.4597 146.624 19.0296 146.877 18.518 147.095C17.582 147.499 16.457 147.707 15.243 147.722C14.0259 147.742 12.7198 147.569 11.4151 147.222C10.1105 146.876 8.81058 146.351 7.61091 145.669C6.41124 144.987 5.31801 144.139 4.42075 143.156C3.51151 142.159 2.59674 141.103 1.74026 140.075C0.883768 139.046 0.0875187 138.054 -0.597847 137.184C-1.2782 136.317 -1.84766 135.572 -2.24855 135.046C-2.64443 134.523 -2.87367 134.212 -2.87367 134.212L10.8653 128.993C11.6868 129.875 12.4593 130.713 13.1745 131.511C13.8948 132.311 14.5661 133.068 15.1883 133.782C15.8124 134.504 16.3906 135.177 16.9166 135.813C17.4477 136.451 17.9297 137.046 18.3696 137.609C18.7596 138.107 19.1184 138.601 19.441 139.087C19.7635 139.573 20.0417 140.053 20.2817 140.518C20.5186 140.987 20.7143 141.446 20.8536 141.885C21.0091 142.32 21.1072 142.749 21.1458 143.163Z" fill="#008056" fill-opacity="0.24"/>
<path d="M149.998 248.814L133.712 253.439C133.712 253.439 132.889 252.766 131.604 251.691C130.319 250.617 128.573 249.14 126.719 247.524C124.868 245.915 122.915 244.169 121.214 242.56C119.519 240.953 118.075 239.484 117.238 238.411C115.767 236.541 114.538 234.816 113.526 233.227C112.516 231.646 111.721 230.208 111.117 228.904C110.513 227.601 110.103 226.442 109.859 225.402C109.617 224.371 109.538 223.465 109.61 222.684C109.661 222.143 109.779 221.661 109.957 221.237C110.136 220.813 110.38 220.449 110.675 220.137C110.971 219.825 111.327 219.57 111.722 219.366C112.121 219.165 112.567 219.012 113.052 218.918C115.73 218.367 118.544 218.819 121.336 219.901C124.119 220.977 126.887 222.679 129.482 224.627C132.074 226.58 134.499 228.79 136.57 230.886C138.646 232.984 140.372 234.972 141.567 236.461C142.483 237.594 143.461 238.933 144.418 240.293C145.377 241.662 146.313 243.059 147.139 244.321C147.966 245.582 148.677 246.705 149.183 247.51C149.695 248.318 149.998 248.814 149.998 248.814Z" fill="#008056" fill-opacity="0.24"/>
<path d="M164.186 271.259C164.194 271.725 164.144 272.162 164.027 272.574C163.91 272.986 163.722 273.37 163.466 273.719C163.209 274.069 162.877 274.386 162.462 274.67C162.051 274.948 161.559 275.191 160.974 275.393C159.907 275.768 158.651 275.898 157.313 275.824C155.969 275.748 154.542 275.447 153.131 274.96C151.715 274.47 150.325 273.787 149.059 272.932C147.792 272.078 146.648 271.052 145.742 269.89C144.816 268.715 143.894 267.466 143.029 266.259C142.169 265.054 141.366 263.89 140.683 262.868C139.997 261.85 139.433 260.983 139.032 260.366C138.636 259.753 138.408 259.393 138.408 259.393L153.985 254.735C154.819 255.778 155.602 256.769 156.334 257.709C157.063 258.654 157.749 259.546 158.376 260.388C159.009 261.234 159.587 262.033 160.122 262.778C160.654 263.529 161.14 264.231 161.58 264.885C161.973 265.469 162.33 266.045 162.644 266.603C162.96 267.168 163.229 267.72 163.456 268.254C163.679 268.792 163.859 269.311 163.979 269.816C164.108 270.319 164.18 270.802 164.186 271.259Z" fill="#008056" fill-opacity="0.24"/>
<path d="M90.3228 228.414L82.5056 242.846C82.5056 242.846 81.9142 242.513 80.9415 241.953C79.9688 241.393 78.6097 240.602 77.0872 239.686C75.5597 238.766 73.8628 237.732 72.2054 236.665C70.545 235.603 68.9312 234.521 67.5659 233.523C66.1264 232.468 64.323 231.042 62.4018 229.357C60.4826 227.679 58.4557 225.75 56.5711 223.695C54.6916 221.644 52.9645 219.474 51.6341 217.29C50.3126 215.126 49.3898 212.955 49.1126 210.911C49.0464 210.418 49.0165 209.932 49.0278 209.457C49.0392 208.982 49.0918 208.518 49.1887 208.059C49.2826 207.606 49.4259 207.161 49.6155 206.729C49.805 206.298 50.0359 205.877 50.323 205.477C50.9569 204.564 51.9375 203.914 53.2632 203.609C54.5807 203.307 56.2482 203.354 58.259 203.829C60.2648 204.301 62.6238 205.208 65.3456 206.624C68.0623 208.038 71.1437 209.969 74.6111 212.508C75.7749 213.364 77.3343 214.777 79.0167 216.417C80.7041 218.061 82.5166 219.939 84.1877 221.712C85.8639 223.489 87.4006 225.168 88.5166 226.4C89.6226 227.626 90.3228 228.414 90.3228 228.414Z" fill="#008056" fill-opacity="0.24"/>
<path d="M113.884 249.246C114.01 249.775 114.102 250.305 114.156 250.819C114.207 251.338 114.23 251.847 114.209 252.338C114.189 252.828 114.127 253.308 114.025 253.764C113.923 254.219 113.781 254.651 113.598 255.059C113.113 256.179 112.442 256.972 111.622 257.467C110.799 257.966 109.828 258.168 108.75 258.125C107.668 258.079 106.48 257.788 105.224 257.303C103.963 256.815 102.641 256.123 101.293 255.29C100.538 254.832 99.7295 254.328 98.8628 253.761C97.996 253.195 97.0753 252.582 96.0935 251.912C95.1116 251.241 94.0738 250.517 92.9749 249.735C91.8761 248.953 90.7162 248.113 89.4983 247.211L96.7716 233.132C96.7716 233.132 97.168 233.368 97.8424 233.778C98.5168 234.188 99.466 234.776 100.567 235.475C101.672 236.178 102.934 236.995 104.234 237.862C105.534 238.729 106.869 239.652 108.125 240.57C108.875 241.116 109.555 241.732 110.179 242.397C110.803 243.063 111.361 243.781 111.846 244.531C112.331 245.281 112.749 246.062 113.093 246.854C113.422 247.637 113.693 248.448 113.884 249.246Z" fill="#008056" fill-opacity="0.24"/>
<path d="M71.4165 179.979L60.5725 189.105C60.5725 189.105 59.7164 188.6 58.3726 187.784C57.0289 186.967 55.1925 185.835 53.2291 184.585C51.2656 183.336 49.1701 181.965 47.313 180.674C45.4559 179.384 43.8402 178.167 42.8235 177.225C40.8782 175.42 39.2154 173.736 37.8118 172.164C36.4102 170.601 35.268 169.151 34.3507 167.814C33.4404 166.488 32.7581 165.271 32.2816 164.176C31.8052 163.082 31.5294 162.107 31.4363 161.249C31.3829 160.791 31.3797 160.363 31.4317 159.969C31.4756 159.576 31.5697 159.213 31.7028 158.888C31.8359 158.562 32.0142 158.264 32.2314 158.003C32.4487 157.742 32.7 157.515 32.9884 157.317C34.8787 156.045 37.2096 155.824 39.7362 156.279C42.2497 156.733 44.962 157.858 47.621 159.3C50.2749 160.738 52.8806 162.497 55.1758 164.218C57.476 165.941 59.4658 167.625 60.8799 168.916C61.9538 169.9 63.1479 171.081 64.3317 172.291C65.5175 173.509 66.6998 174.767 67.7501 175.904C68.8003 177.041 69.7185 178.057 70.3758 178.792C71.022 179.534 71.4165 179.979 71.4165 179.979Z" fill="#008056" fill-opacity="0.24"/>
<path d="M89.8818 201.021C89.9679 201.435 90.0177 201.842 90.0162 202.232C90.0166 202.63 89.9657 203.012 89.8655 203.385C89.7653 203.758 89.6187 204.117 89.4097 204.467C89.2038 204.812 88.9435 205.145 88.6187 205.461C87.9316 206.132 87.0273 206.597 85.9896 206.864C84.9469 207.128 83.7688 207.185 82.5351 207.028C81.3014 206.87 80.0142 206.506 78.7692 205.923C77.5162 205.342 76.3074 204.55 75.2146 203.541C74.1199 202.524 72.9996 201.436 71.9406 200.371C70.8866 199.308 69.8859 198.271 69.0293 197.368C68.1677 196.463 67.4482 195.684 66.9416 195.13C66.435 194.576 66.1433 194.255 66.1433 194.255L76.449 185.289C77.4298 186.189 78.3534 187.048 79.2249 187.869C80.0963 188.69 80.9087 189.461 81.6659 190.2C82.4262 190.933 83.1312 191.634 83.7772 192.285C84.4282 192.939 85.022 193.552 85.5637 194.127C86.1225 194.719 86.6388 195.314 87.1108 195.903C87.5827 196.492 88.0072 197.081 88.3774 197.658C88.7476 198.235 89.0622 198.814 89.3124 199.375C89.5819 199.927 89.7696 200.479 89.8818 201.021Z" fill="#008056" fill-opacity="0.24"/>
</svg>
