<svg width="197" height="150" viewBox="0 0 197 150" fill="none" xmlns="http://www.w3.org/2000/svg">
<path d="M33.2124 108.439L26.4048 119.657C26.4048 119.657 25.8744 119.531 25.0023 119.309C24.1294 119.091 22.9196 118.778 21.5543 118.412C20.1891 118.045 18.674 117.622 17.2009 117.182C15.7231 116.74 14.2881 116.277 13.0782 115.829C11.8646 115.376 10.3523 114.749 8.73883 113.985C7.12914 113.226 5.41904 112.325 3.80418 111.327C2.19401 110.329 0.67905 109.234 -0.550998 108.067C-1.77252 106.905 -2.70998 105.676 -3.17634 104.418C-3.3195 104.029 -3.41865 103.637 -3.46906 103.245C-3.51946 102.853 -3.51555 102.456 -3.45909 102.063C-3.40263 101.67 -3.29187 101.272 -3.11829 100.876C-2.94471 100.479 -2.71299 100.083 -2.41845 99.6887C-1.86977 98.962 -1.02229 98.354 0.137901 97.9219C1.2934 97.489 2.75132 97.2351 4.52735 97.2079C6.29869 97.1799 8.38639 97.3882 10.7967 97.8787C13.207 98.3692 15.9531 99.1492 19.0434 100.28C20.0864 100.658 21.4843 101.353 22.9946 102.179C24.5087 103.01 26.1437 103.977 27.6554 104.902C29.1709 105.833 30.5545 106.715 31.5675 107.365C32.5804 108.016 33.2124 108.439 33.2124 108.439Z" fill="#008056" fill-opacity="0.24"/>
<path d="M54.2206 117.874C54.4287 118.28 54.5872 118.691 54.7055 119.111C54.8191 119.529 54.8886 119.95 54.9056 120.366C54.9226 120.782 54.8908 121.199 54.8082 121.602C54.7257 122.005 54.5867 122.398 54.397 122.777C53.9671 123.624 53.3687 124.277 52.6319 124.756C51.8951 125.235 51.0247 125.54 50.0501 125.697C49.0755 125.855 48.0031 125.855 46.8652 125.734C45.7274 125.612 44.5251 125.365 43.2923 125.018C42.6176 124.831 41.89 124.615 41.1095 124.37C40.3281 124.129 39.4985 123.859 38.616 123.561C37.7335 123.262 36.7973 122.938 35.8073 122.59C34.8181 122.237 33.7799 121.86 32.6888 121.454L39.008 110.576C39.008 110.576 39.3646 110.67 39.9752 110.835C40.5812 111 41.4404 111.24 42.4408 111.53C43.4413 111.82 44.5831 112.161 45.7581 112.533C46.9331 112.904 48.1414 113.307 49.2795 113.722C49.8665 113.937 50.4119 114.195 50.9118 114.489C51.4165 114.785 51.8765 115.112 52.2921 115.47C52.7076 115.829 53.0795 116.215 53.4 116.616C53.726 117.013 53.999 117.436 54.2206 117.874Z" fill="#008056" fill-opacity="0.24"/>
<path d="M15.8899 78.6439L6.3973 86.784C6.3973 86.784 5.64185 86.5876 4.44785 86.2673C3.25385 85.9469 1.63159 85.4994 -0.106761 84.9961C-1.84511 84.4927 -3.68925 83.9305 -5.32229 83.3815C-6.95534 82.8325 -8.3773 82.2968 -9.26479 81.8379C-10.8244 81.0435 -12.1793 80.2711 -13.3445 79.5231C-14.5058 78.7808 -15.4831 78.0668 -16.2912 77.3833C-17.0946 76.7007 -17.7288 76.0487 -18.2097 75.4344C-18.6907 74.82 -19.0174 74.2386 -19.2105 73.6962C-19.346 73.3184 -19.4128 72.963 -19.424 72.6227C-19.4353 72.2823 -19.3825 71.9635 -19.2797 71.6637C-19.177 71.3638 -19.0196 71.0838 -18.8123 70.8227C-18.6059 70.5665 -18.3542 70.3285 -18.0572 70.1085C-16.4333 68.9095 -14.4041 68.3409 -12.2003 68.202C-10.0058 68.0614 -7.62473 68.3377 -5.28927 68.8395C-2.94912 69.3422 -0.649029 70.0665 1.38722 70.8277C3.42347 71.5889 5.19292 72.3765 6.453 73.0023C7.41481 73.4797 8.4831 74.0659 9.54617 74.681C10.6092 75.2961 11.6718 75.9409 12.6089 76.5283C13.5506 77.1164 14.3725 77.6432 14.9637 78.0237C15.5398 78.4065 15.8899 78.6439 15.8899 78.6439Z" fill="#008056" fill-opacity="0.24"/>
<path d="M32.3144 89.2507C32.4629 89.5562 32.5666 89.8685 32.6121 90.1802C32.6577 90.4919 32.6545 90.8048 32.5876 91.1211C32.5207 91.4374 32.3965 91.7483 32.2078 92.0674C32.02 92.3818 31.7638 92.6986 31.4353 93.0124C30.8358 93.5906 30.0354 94.0728 29.1113 94.4331C28.1864 94.7983 27.138 95.0416 26.0409 95.1517C24.9438 95.2618 23.7988 95.2339 22.6855 95.0575C21.5723 94.8812 20.4924 94.5466 19.5238 94.0531C18.542 93.5522 17.539 93.0076 16.5885 92.4676C15.638 91.9276 14.7439 91.3978 13.9697 90.9294C13.2002 90.462 12.5506 90.0559 12.0929 89.7692C11.64 89.4833 11.3751 89.311 11.3751 89.311L20.3802 81.3715C21.2618 81.8095 22.0935 82.2285 22.8696 82.6325C23.6504 83.0374 24.3813 83.4233 25.0622 83.7902C25.747 84.1627 26.3827 84.5115 26.9675 84.8461C27.5571 85.1815 28.0967 85.498 28.595 85.8021C29.0364 86.0709 29.4527 86.3452 29.839 86.624C30.2253 86.9028 30.5761 87.1901 30.8931 87.4763C31.2093 87.7673 31.4908 88.062 31.7236 88.3578C31.9676 88.6457 32.1658 88.9452 32.3144 89.2507Z" fill="#008056" fill-opacity="0.24"/>
<path d="M161.209 132.993L150.087 141.211C150.087 141.211 149.264 140.933 147.972 140.481C146.681 140.028 144.921 139.402 143.039 138.698C141.161 138 139.166 137.227 137.403 136.485C135.644 135.744 134.118 135.035 133.17 134.456C131.508 133.449 130.072 132.483 128.841 131.559C127.615 130.641 126.593 129.769 125.757 128.946C124.92 128.124 124.273 127.355 123.788 126.63C123.307 125.911 122.986 125.241 122.816 124.624C122.7 124.195 122.651 123.793 122.666 123.417C122.68 123.042 122.763 122.693 122.899 122.37C123.035 122.046 123.234 121.749 123.477 121.479C123.725 121.211 124.021 120.966 124.365 120.754C126.255 119.563 128.536 119.1 130.982 119.125C133.419 119.147 136.026 119.653 138.57 120.397C141.113 121.145 143.602 122.137 145.788 123.145C147.979 124.153 149.87 125.176 151.212 125.971C152.238 126.574 153.37 127.316 154.493 128.082C155.621 128.853 156.738 129.652 157.732 130.379C158.726 131.106 159.593 131.76 160.212 132.23C160.835 132.701 161.209 132.993 161.209 132.993Z" fill="#008056" fill-opacity="0.24"/>
<path d="M178.51 146.076C178.65 146.43 178.737 146.779 178.767 147.128C178.796 147.476 178.762 147.824 178.667 148.164C178.571 148.505 178.408 148.844 178.172 149.18C177.938 149.51 177.631 149.838 177.243 150.161C176.534 150.754 175.611 151.214 174.567 151.543C173.518 151.871 172.34 152.051 171.121 152.084C169.897 152.117 168.638 151.994 167.424 151.704C166.21 151.415 165.04 150.96 164.014 150.332C162.968 149.7 161.904 149.01 160.895 148.335C159.892 147.661 158.943 147.002 158.127 146.416C157.31 145.836 156.629 145.335 156.145 144.978C155.666 144.623 155.389 144.414 155.389 144.414L165.96 136.374C166.897 136.932 167.781 137.465 168.611 137.973C169.44 138.486 170.221 138.971 170.943 139.434C171.669 139.899 172.341 140.344 172.964 140.76C173.587 141.181 174.161 141.578 174.685 141.952C175.154 142.285 175.592 142.623 175.993 142.959C176.397 143.301 176.761 143.646 177.088 143.988C177.413 144.336 177.7 144.681 177.937 145.033C178.18 145.38 178.374 145.728 178.51 146.076Z" fill="#008056" fill-opacity="0.24"/>
<path d="M109.716 134.549L107.888 147.831C107.888 147.831 107.34 147.747 106.435 147.598C105.53 147.45 104.264 147.236 102.836 146.973C101.404 146.709 99.809 146.405 98.2351 146.066C96.6603 145.732 95.1151 145.368 93.7845 144.998C92.3804 144.605 90.5915 144.033 88.638 143.296C86.6885 142.566 84.5838 141.673 82.5523 140.644C80.5255 139.616 78.5812 138.453 76.9361 137.166C75.3034 135.89 73.9737 134.496 73.1743 133.013C72.9818 132.654 72.8193 132.292 72.6915 131.925C72.5636 131.559 72.4704 131.189 72.4127 130.81C72.3541 130.436 72.3357 130.055 72.3567 129.671C72.3777 129.286 72.4332 128.898 72.5376 128.509C72.7598 127.629 73.3228 126.85 74.2489 126.236C75.1695 125.627 76.4579 125.183 78.132 124.968C79.8014 124.753 81.8658 124.768 84.3541 125.068C86.8377 125.368 89.749 125.959 93.1302 126.904C94.2661 127.223 95.8646 127.856 97.6226 128.626C99.3853 129.398 101.311 130.313 103.099 131.189C104.891 132.065 106.549 132.907 107.756 133.528C108.954 134.148 109.716 134.549 109.716 134.549Z" fill="#008056" fill-opacity="0.24"/>
<path d="M133.72 143.705C133.969 144.073 134.192 144.452 134.381 144.829C134.569 145.211 134.732 145.594 134.858 145.975C134.983 146.356 135.073 146.741 135.126 147.118C135.179 147.496 135.195 147.867 135.173 148.231C135.124 149.227 134.838 150.027 134.354 150.641C133.868 151.259 133.183 151.693 132.347 151.969C131.506 152.245 130.514 152.364 129.415 152.355C128.31 152.344 127.1 152.195 125.83 151.945C125.121 151.812 124.358 151.659 123.532 151.475C122.707 151.291 121.827 151.087 120.883 150.857C119.94 150.627 118.938 150.371 117.873 150.089C116.808 149.807 115.68 149.498 114.489 149.159L116.003 136.302C116.003 136.302 116.374 136.37 117.008 136.489C117.641 136.609 118.536 136.785 119.579 137.004C120.626 137.223 121.826 137.485 123.069 137.774C124.312 138.063 125.598 138.385 126.822 138.726C127.553 138.928 128.25 139.203 128.918 139.533C129.587 139.863 130.22 140.251 130.806 140.685C131.392 141.12 131.937 141.596 132.428 142.103C132.904 142.607 133.345 143.149 133.72 143.705Z" fill="#008056" fill-opacity="0.24"/>
<path d="M81.3359 102.949L75.6677 113.045C75.6677 113.045 74.868 112.905 73.6057 112.667C72.3435 112.429 70.614 112.091 68.7535 111.7C66.893 111.309 64.8967 110.863 63.1056 110.41C61.3145 109.957 59.7295 109.491 58.6812 109.063C56.675 108.243 54.9193 107.433 53.3944 106.635C51.8733 105.842 50.583 105.062 49.4973 104.303C48.4202 103.551 47.5485 102.816 46.8696 102.117C46.1906 101.417 45.6996 100.751 45.3816 100.121C45.2092 99.7864 45.0838 99.4602 45.01 99.1434C44.9307 98.8305 44.8984 98.5262 44.9066 98.2391C44.9149 97.952 44.9654 97.6726 45.0565 97.4104C45.1475 97.1483 45.2744 96.9025 45.4381 96.6684C46.5177 95.1521 48.2366 94.3135 50.2993 93.9352C52.3518 93.56 54.749 93.6401 57.1965 93.9781C59.6394 94.3153 62.1374 94.9112 64.3868 95.5666C66.641 96.2229 68.6466 96.9388 70.0992 97.5198C71.203 97.9632 72.4556 98.523 73.7086 99.1077C74.9654 99.6981 76.231 100.32 77.3609 100.887C78.4908 101.455 79.485 101.968 80.1988 102.341C80.9062 102.723 81.3359 102.949 81.3359 102.949Z" fill="#008056" fill-opacity="0.24"/>
<path d="M101.504 113.731C101.689 114.023 101.844 114.32 101.955 114.618C102.07 114.923 102.141 115.229 102.171 115.543C102.202 115.857 102.193 116.174 102.134 116.502C102.075 116.824 101.972 117.154 101.815 117.489C101.482 118.2 100.925 118.815 100.208 119.318C99.4863 119.819 98.602 120.202 97.6134 120.436C96.6248 120.67 95.5359 120.762 94.4163 120.674C93.2912 120.59 92.1393 120.332 91.0138 119.874C89.8844 119.412 88.7149 118.902 87.5989 118.391C86.4876 117.882 85.4242 117.376 84.5097 116.932C83.5905 116.488 82.8165 116.099 82.2699 115.821C81.7233 115.543 81.408 115.382 81.408 115.382L86.7107 105.564C87.7193 105.97 88.6724 106.361 89.5747 106.738C90.477 107.115 91.32 107.472 92.1113 107.819C92.9034 108.161 93.6439 108.494 94.325 108.806C95.0108 109.119 95.6411 109.417 96.2206 109.701C96.818 109.993 97.3838 110.299 97.914 110.614C98.4442 110.929 98.9381 111.257 99.387 111.592C99.836 111.927 100.243 112.279 100.596 112.636C100.96 112.981 101.263 113.349 101.504 113.731Z" fill="#008056" fill-opacity="0.24"/>
</svg>
