<svg width="205" height="482" viewBox="0 0 205 482" fill="none" xmlns="http://www.w3.org/2000/svg">
<path d="M-8.93084 60.6868C-8.96574 61.3808 -8.73867 62.015 -8.21039 62.552C-7.68211 63.089 -6.84524 63.5238 -5.66289 63.831C-4.46814 64.1406 -2.93289 64.3154 -0.980755 64.3248C0.971383 64.3343 3.34046 64.1784 6.16067 63.8121C7.39266 63.6532 9.30281 63.2047 11.4817 62.6271C13.668 62.0445 16.1377 61.3228 18.4491 60.6224C20.7752 59.9121 22.948 59.2305 24.543 58.716C26.1379 58.2015 27.16 57.8615 27.16 57.8615L37.3734 42.6071C37.3734 42.6071 36.8508 42.6175 35.9841 42.6463C35.1174 42.6751 33.9065 42.7224 32.5299 42.7962C31.1533 42.8699 29.6111 42.9702 28.0765 43.0976C26.542 43.2251 25.0129 43.3921 23.6574 43.592C21.879 43.8532 19.3942 44.3151 16.5897 45.0057C13.7927 45.6912 10.6833 46.6005 7.59644 47.7647C4.52936 48.9262 1.47235 50.3403 -1.21505 52.0428C-3.90245 53.7454 -6.23497 55.7464 -7.88023 58.0896C-8.03889 58.3167 -8.17777 58.5411 -8.30926 58.7605C-8.43572 58.9872 -8.54004 59.1989 -8.63195 59.4129C-8.72386 59.6269 -8.79597 59.8381 -8.84092 60.0417C-8.88789 60.2899 -8.92044 60.4959 -8.93084 60.6868Z" fill="#008056" fill-opacity="0.16"/>
<path d="M34.1733 56.9698C34.1733 56.9698 34.5546 56.9584 35.2158 56.9292C35.8769 56.9 36.8177 56.853 37.9293 56.787C39.0483 56.7159 40.343 56.6331 41.7091 56.5123C43.0753 56.3916 44.5303 56.2427 45.9331 56.0646C47.3234 55.8842 48.825 55.4549 50.3371 54.8347C51.8542 54.2219 53.3744 53.4234 54.7993 52.5167C56.2366 51.6125 57.5736 50.5928 58.7294 49.5453C59.8803 48.4904 60.8499 47.4077 61.5251 46.3528C61.7348 46.0261 61.9173 45.7072 62.0629 45.4134C62.2159 45.1145 62.3269 44.8334 62.4208 44.5748C62.5097 44.3088 62.5764 44.058 62.6086 43.8198C62.6408 43.5817 62.6485 43.3709 62.6314 43.1556C62.5865 42.6458 62.3816 42.2343 62.0461 41.9009C61.7107 41.5675 61.2398 41.3047 60.6582 41.1176C60.0766 40.9304 59.3843 40.8188 58.5984 40.7601C57.8176 40.7087 56.9407 40.7227 55.9975 40.7821C55.2697 40.8243 54.4727 40.8921 53.609 40.9729C52.7453 41.0537 51.8149 41.1477 50.8153 41.267C49.8158 41.3864 48.7444 41.5115 47.6114 41.657C46.4783 41.8026 45.2762 41.9737 44.0073 42.1578L34.1733 56.9698Z" fill="#008056" fill-opacity="0.16"/>
<path d="M-22.3579 90.0314C-21.0753 89.7407 -19.8446 89.4529 -18.6858 89.1708C-17.5145 88.8911 -16.4075 88.6121 -15.3674 88.3461C-14.3199 88.0751 -13.3318 87.8121 -12.403 87.5572C-11.4742 87.3023 -10.6098 87.0481 -9.8048 86.8019C-8.35511 86.3756 -6.92856 85.8678 -5.5748 85.2691C-4.21601 84.6778 -2.93737 84.0006 -1.76373 83.2329C-0.597466 82.4701 0.456413 81.6219 1.34831 80.6787C2.23785 79.7479 2.97277 78.7172 3.49638 77.6144C3.59331 77.4077 3.67783 77.1988 3.75498 76.9948C3.83213 76.7909 3.88951 76.5897 3.93949 76.3935C3.98947 76.1972 4.03205 76.006 4.05487 75.8175C4.07768 75.629 4.09816 75.4529 4.10118 75.2671C4.11394 74.5882 3.96638 73.9754 3.66384 73.4683C3.3613 72.9611 2.91349 72.5421 2.32081 72.2435C1.72813 71.945 1.00293 71.7693 0.150295 71.7236C-0.697308 71.6854 -1.66726 71.7847 -2.75704 72.0413C-4.14334 72.3703 -5.61824 72.7597 -7.04847 73.1511C-8.46629 73.5448 -9.84685 73.9457 -11.047 74.3099C-12.2471 74.6742 -13.2695 74.9821 -13.9953 75.2175C-14.7188 75.4406 -15.1509 75.5838 -15.1509 75.5838L-22.3579 90.0314Z" fill="#008056" fill-opacity="0.16"/>
<path d="M77.6351 75.9588C77.6707 76.2805 77.7186 76.6045 77.7716 76.9359C77.8246 77.2673 77.8974 77.5961 77.9803 77.9395C78.0581 78.2756 78.1533 78.6214 78.2486 78.9672C78.3438 79.313 78.4639 79.6635 78.589 80.0214C78.8851 80.868 79.6713 81.9102 80.6859 83.002C81.7056 84.1012 82.9711 85.2597 84.2058 86.3096C85.4455 87.3669 86.652 88.3279 87.5609 89.0269C88.4699 89.7259 89.0639 90.1533 89.0639 90.1533L115.722 77.8046C115.722 77.8046 115.702 77.6339 115.682 77.3343C115.649 77.0324 115.603 76.5994 115.548 76.0748C115.485 75.5553 115.409 74.9367 115.311 74.2689C115.212 73.601 115.098 72.8789 114.962 72.1397C114.875 71.6798 114.778 71.2052 114.675 70.7356C114.571 70.266 114.464 69.8089 114.338 69.3544C114.217 68.9073 114.089 68.4651 113.953 68.0603C113.813 67.648 113.667 67.2606 113.51 66.9031C112.994 65.6872 112.104 64.1432 110.795 62.6358C109.504 61.1381 107.812 59.6868 105.69 58.6363C103.586 57.5954 101.048 56.948 98.0413 57.0412C95.0547 57.1317 91.5952 57.9555 87.6168 59.8572C86.1255 60.5713 84.7053 61.453 83.428 62.4968C82.1457 63.5333 81.0062 64.7318 80.0764 66.0791C79.1466 67.4265 78.4315 68.9301 77.9978 70.577C77.5567 72.229 77.4094 74.0265 77.6351 75.9588Z" fill="#008056" fill-opacity="0.16"/>
<path d="M90.9711 96.3118C91.0352 96.7546 91.1076 97.2889 91.2056 97.8923C91.3035 98.4957 91.4219 99.1609 91.5678 99.8505C91.7063 100.545 91.8773 101.272 92.0681 101.995C92.259 102.719 92.482 103.443 92.7195 104.124C93.0593 105.114 93.8449 105.854 94.9326 106.355C96.0254 106.864 97.4352 107.124 99.0334 107.17C100.639 107.21 102.431 107.016 104.289 106.602C106.148 106.189 108.073 105.557 109.93 104.713C111.954 103.798 113.626 102.809 114.985 101.774C116.344 100.74 117.376 99.6687 118.13 98.5709C118.884 97.4731 119.358 96.3608 119.592 95.261C119.826 94.1612 119.822 93.0613 119.62 91.9883C119.507 91.3949 119.369 90.7648 119.189 90.0879C119.013 89.4184 118.805 88.717 118.562 87.964C118.317 87.2234 118.046 86.4459 117.745 85.6241C117.442 84.8147 117.108 83.9611 116.743 83.0756L90.8215 95.0301C90.8215 95.0301 90.8219 95.0624 90.8299 95.1218C90.838 95.1811 90.8413 95.2653 90.8598 95.3717C90.8709 95.483 90.8846 95.6141 90.906 95.7724C90.9201 95.9358 90.9443 96.1139 90.9711 96.3118Z" fill="#008056" fill-opacity="0.16"/>
<path d="M14.9066 80.3972C14.9052 81.2196 14.9753 82.0041 15.097 82.7534C15.2188 83.5027 15.3995 84.2119 15.6021 84.8737C15.8121 85.5304 16.0563 86.1422 16.3071 86.6846C16.558 87.227 16.8257 87.7147 17.0776 88.1159C17.5485 88.8541 18.2009 89.6524 18.9274 90.4326C19.6539 91.2128 20.4471 91.9799 21.1874 92.6534C21.9276 93.327 22.6076 93.9119 23.1073 94.3279C23.6071 94.7438 23.9193 94.9957 23.9193 94.9957L46.9192 81.5629C46.9192 81.5629 46.9182 81.4662 46.9165 81.3052C46.9172 81.1318 46.9122 80.8867 46.9065 80.5771C46.9008 80.2675 46.8871 79.8985 46.8703 79.4776C46.8535 79.0566 46.8314 78.5961 46.809 78.1034C46.7634 77.2914 46.702 76.3927 46.6108 75.4821C46.5195 74.5714 46.4109 73.651 46.2657 72.788C46.1205 71.925 45.941 71.1068 45.7257 70.4105C45.5104 69.7142 45.2591 69.1396 44.9602 68.7488C43.5609 66.8708 42.0036 65.522 40.3517 64.6053C38.7172 63.6983 36.9905 63.2109 35.25 63.068C33.5219 62.9274 31.7677 63.1291 30.0681 63.5852C28.3809 64.0437 26.7337 64.7668 25.2145 65.662C23.1956 66.8548 21.5487 68.0857 20.2141 69.3308C18.872 70.5809 17.8423 71.845 17.0577 73.1042C16.2731 74.3633 15.7337 75.6174 15.3996 76.8397C15.0508 78.072 14.9096 79.2601 14.9066 80.3972Z" fill="#008056" fill-opacity="0.16"/>
<path d="M27.2332 98.3027C27.6863 98.999 28.1267 99.6609 28.5641 100.271C29.0065 100.888 29.4311 101.463 29.8453 101.991C30.2646 102.527 30.6735 103.016 31.0696 103.47C31.4657 103.924 31.8515 104.331 32.2245 104.704C32.9077 105.373 33.706 105.91 34.6314 106.284C35.5568 106.659 36.6167 106.865 37.8058 106.865C38.9949 106.865 40.3204 106.653 41.7845 106.185C43.2486 105.716 44.8563 104.999 46.5972 103.985C47.9613 103.195 49.2427 102.3 50.3945 101.342C51.5464 100.383 52.5663 99.3744 53.4079 98.3574C54.2495 97.3404 54.9103 96.3279 55.3437 95.3622C55.7771 94.3966 55.9931 93.4926 55.9351 92.6782C55.9237 92.5347 55.9049 92.3961 55.8787 92.2626C55.8526 92.1291 55.814 91.9933 55.7731 91.8699C55.7271 91.7391 55.6738 91.6132 55.6131 91.4925C55.5524 91.3717 55.4769 91.261 55.3964 91.143C54.8437 90.3957 54.2017 89.6443 53.5553 88.9499C52.909 88.2556 52.2533 87.611 51.663 87.0622C51.0726 86.5135 50.5601 86.063 50.1901 85.7423C49.8202 85.4216 49.5955 85.2506 49.5955 85.2506L27.2332 98.3027Z" fill="#008056" fill-opacity="0.16"/>
<path d="M79.3143 178.305L108.659 176.35C108.659 176.35 109.08 175.684 109.76 174.572C110.432 173.465 111.353 171.93 112.363 170.193C113.365 168.461 114.443 166.537 115.431 164.642C116.417 162.759 117.32 160.911 117.96 159.329C118.407 158.257 118.864 156.994 119.306 155.612C119.74 154.235 120.138 152.742 120.454 151.208C120.762 149.678 120.989 148.108 121.082 146.564C121.167 145.024 121.112 143.516 120.865 142.107C120.638 140.791 120.246 139.567 119.643 138.476C119.044 137.392 118.239 136.449 117.186 135.697C116.138 134.952 114.842 134.399 113.26 134.093C111.687 133.782 109.821 133.725 107.636 133.961C105.654 134.177 103.522 134.776 101.328 135.807C99.1342 136.839 96.8801 138.289 94.6409 140.205C92.4066 142.128 90.1921 144.524 88.092 147.437C85.9822 150.367 83.9696 153.836 82.1613 157.891C81.5538 159.267 81.0712 161.206 80.6971 163.353C80.3208 165.512 80.0406 167.876 79.843 170.075C79.6481 172.294 79.5233 174.347 79.4448 175.849C79.3392 177.359 79.3143 178.305 79.3143 178.305Z" fill="#008056" fill-opacity="0.16"/>
<path d="M67.7524 203.774C67.8379 204.851 68.1827 205.848 68.7543 206.734C69.3258 207.62 70.1365 208.397 71.1216 209.033C72.1141 209.664 73.2935 210.157 74.6197 210.486C75.9533 210.809 77.4238 210.952 79.0012 210.903C81.168 210.831 83.1756 210.446 85.0294 209.82C86.8856 209.181 88.5758 208.299 90.1178 207.215C91.6523 206.137 93.0262 204.854 94.2526 203.434C95.4715 202.02 96.5304 200.465 97.4425 198.838C97.9409 197.936 98.4608 196.955 98.9998 195.906C99.5389 194.858 100.085 193.74 100.652 192.542C101.212 191.35 101.798 190.085 102.391 188.751C102.984 187.417 103.591 186.009 104.217 184.534L75.8608 186.193C75.8608 186.193 75.5733 186.66 75.106 187.465C74.6338 188.262 73.9817 189.399 73.2351 190.729C72.4884 192.06 71.6521 193.592 70.824 195.184C70.0008 196.783 69.1784 198.446 68.4689 200.021C68.3287 200.355 68.2033 200.678 68.1026 201.006C68.002 201.334 67.9235 201.647 67.8698 201.965C67.8111 202.275 67.7772 202.59 67.7581 202.895C67.7239 203.178 67.7246 203.48 67.7524 203.774Z" fill="#008056" fill-opacity="0.16"/>
<path d="M46.1869 142.909L73.2536 136.788C73.2536 136.788 73.8534 135.861 74.7671 134.395C75.6808 132.929 76.9011 130.929 78.1619 128.783C79.4154 126.642 80.7021 124.36 81.7436 122.32C82.7778 120.285 83.5741 118.489 83.8515 117.294C84.0578 116.408 84.2248 115.559 84.3577 114.755C84.4905 113.951 84.5841 113.184 84.6435 112.463C84.7029 111.741 84.728 111.065 84.7213 110.421C84.7146 109.777 84.6738 109.178 84.606 108.618C84.4105 106.968 83.9607 105.643 83.3106 104.594C82.6656 103.553 81.8205 102.789 80.8367 102.281C79.8529 101.774 78.7205 101.508 77.4963 101.457C76.272 101.405 74.9608 101.575 73.597 101.921C69.4314 102.977 65.888 104.788 62.8742 107.026C59.8605 109.265 57.3588 111.922 55.3215 114.673C53.2693 117.434 51.6616 120.292 50.445 122.883C49.2261 125.487 48.4033 127.832 47.9279 129.529C47.5724 130.83 47.2806 132.305 47.0558 133.798C46.8237 135.297 46.6486 136.8 46.5288 138.147C46.4016 139.498 46.3174 140.69 46.2668 141.536C46.2064 142.398 46.1869 142.909 46.1869 142.909Z" fill="#008056" fill-opacity="0.16"/>
<path d="M42.8083 162.94C42.8512 163.97 43.0491 164.895 43.4338 165.681C43.8236 166.475 44.3951 167.122 45.178 167.605C45.9682 168.082 46.9698 168.394 48.2242 168.49C49.4787 168.586 50.9713 168.476 52.7437 168.111C54.6224 167.727 56.5601 167.065 58.4337 166.199C60.3074 165.332 62.122 164.268 63.7421 163.077C65.3622 161.886 66.7804 160.573 67.8786 159.219C68.9768 157.865 69.7476 156.474 70.0729 155.128C70.3956 153.763 70.656 152.353 70.865 151.01C71.074 149.668 71.2316 148.393 71.344 147.29C71.4564 146.186 71.5359 145.256 71.5836 144.597C71.6312 143.937 71.6446 143.561 71.6446 143.561L45.3748 149.375C45.0457 150.605 44.7408 151.775 44.4772 152.863C44.2111 153.963 43.9767 154.998 43.7738 155.969C43.5708 156.94 43.392 157.851 43.2521 158.692C43.1048 159.538 42.9892 160.32 42.905 161.037C42.8868 161.2 42.8687 161.364 42.858 161.523C42.8472 161.681 42.8365 161.84 42.8308 162.006C42.8201 162.165 42.8167 162.318 42.8184 162.479C42.7952 162.636 42.7969 162.797 42.8083 162.94Z" fill="#008056" fill-opacity="0.16"/>
<path d="M-3.8514 283.346L16.0052 296.853C16.0052 296.853 16.8163 296.236 18.1382 295.194C19.4651 294.159 21.2955 292.706 23.3516 291.045C25.4078 289.383 27.6772 287.512 29.8625 285.644C32.0552 283.77 34.1586 281.893 35.8901 280.215C37.6239 278.525 39.7388 276.316 41.9247 273.798C44.1083 271.294 46.358 268.473 48.3739 265.564C50.3825 262.66 52.1572 259.666 53.393 256.77C54.619 253.891 55.311 251.117 55.1788 248.656C55.1363 247.896 55.0172 247.166 54.8143 246.472C54.6114 245.778 54.3122 245.117 53.9268 244.504C53.5414 243.892 53.0597 243.312 52.4721 242.783C51.8845 242.254 51.1982 241.771 50.4059 241.338C48.9361 240.546 47.0447 240.181 44.7501 240.351C42.4629 240.516 39.7923 241.213 36.7467 242.533C33.7084 243.848 30.3052 245.8 26.5603 248.473C22.8153 251.145 18.7113 254.559 14.2794 258.824C12.7807 260.256 10.9114 262.493 8.94613 265.033C6.97852 267.585 4.90527 270.458 3.01112 273.165C1.11462 275.885 -0.593007 278.422 -1.83945 280.288C-3.0859 282.154 -3.8514 283.346 -3.8514 283.346Z" fill="#008056" fill-opacity="0.16"/>
<path d="M-32.6933 315.259C-32.749 316.097 -32.7158 316.906 -32.6085 317.698C-32.4938 318.484 -32.3026 319.24 -32.0252 319.949C-31.7478 320.657 -31.3866 321.329 -30.9492 321.939C-30.5119 322.549 -29.9859 323.098 -29.3839 323.585C-28.0274 324.671 -26.5271 325.302 -24.9195 325.535C-23.3118 325.768 -21.6042 325.61 -19.8281 325.123C-18.0521 324.636 -16.225 323.812 -14.3758 322.735C-12.5267 321.658 -10.6604 320.321 -8.81589 318.793C-7.80391 317.963 -6.72353 317.042 -5.5747 316.032C-4.42084 315.029 -3.20592 313.941 -1.92259 312.764C-0.63926 311.586 0.717497 310.326 2.14774 308.983C3.57296 307.633 5.06427 306.206 6.62399 304.688L-12.1505 291.373C-12.1505 291.373 -12.6886 291.804 -13.6073 292.55C-14.5186 293.29 -15.8057 294.351 -17.2963 295.605C-18.7869 296.859 -20.4811 298.306 -22.2092 299.831C-23.9373 301.355 -25.6993 302.956 -27.3328 304.524C-28.1741 305.335 -28.9133 306.185 -29.5483 307.061C-30.1907 307.942 -30.7337 308.842 -31.1774 309.761C-31.6212 310.68 -31.9708 311.61 -32.2214 312.526C-32.4843 313.441 -32.6382 314.356 -32.6933 315.259Z" fill="#008056" fill-opacity="0.16"/>
<path d="M3.72197 220.254L25.8867 226.556C25.8867 226.556 27.0291 225.647 28.8273 224.194C30.6255 222.741 33.0597 220.747 35.6505 218.57C38.2413 216.392 40.969 214.035 43.3468 211.863C45.7246 209.691 47.7526 207.703 48.9266 206.254C50.9985 203.728 52.738 201.396 54.1723 199.25C55.6043 197.118 56.7434 195.173 57.6168 193.411C58.4829 191.653 59.0833 190.076 59.4503 188.68C59.8172 187.284 59.9458 186.061 59.8754 185.007C59.8281 184.271 59.6801 183.626 59.4487 183.049C59.2173 182.472 58.8926 181.98 58.4968 181.558C58.101 181.136 57.6268 180.789 57.0814 180.512C56.541 180.243 55.9369 180.039 55.2691 179.9C51.6198 179.145 47.7443 179.755 43.8876 181.217C40.0457 182.669 36.1927 184.961 32.5836 187.594C28.9671 190.233 25.582 193.211 22.6735 196.048C19.7651 198.885 17.3305 201.561 15.6447 203.575C14.3576 205.112 12.9693 206.912 11.6112 208.757C10.253 210.602 8.91769 212.496 7.75376 214.198C6.58245 215.904 5.57012 217.416 4.84325 218.506C4.14355 219.588 3.72197 220.254 3.72197 220.254Z" fill="#008056" fill-opacity="0.16"/>
<path d="M-16.4487 250.6C-16.4768 251.224 -16.4235 251.826 -16.2716 252.382C-16.1196 252.937 -15.8839 253.458 -15.537 253.935C-15.1902 254.412 -14.7498 254.836 -14.1933 255.224C-13.6419 255.604 -12.9721 255.937 -12.1815 256.208C-10.7345 256.714 -9.0158 256.904 -7.17637 256.796C-5.33189 256.695 -3.3667 256.295 -1.41657 255.636C0.533569 254.976 2.46356 254.05 4.23023 252.899C5.9969 251.749 7.59018 250.36 8.87687 248.791C10.1807 247.199 11.4885 245.518 12.7101 243.886C13.9317 242.253 15.0648 240.68 16.0389 239.303C17.0056 237.93 17.8133 236.753 18.3818 235.922C18.943 235.096 19.2673 234.605 19.2673 234.605L-1.91928 228.263C-3.09864 229.672 -4.20691 231.012 -5.23163 232.283C-6.26374 233.56 -7.22468 234.766 -8.11456 235.903C-9.0068 237.051 -9.83299 238.123 -10.583 239.131C-11.3404 240.145 -12.0267 241.088 -12.6516 241.979C-13.2057 242.768 -13.7129 243.546 -14.1657 244.309C-14.6185 245.072 -15.0046 245.821 -15.3339 246.543C-15.6583 247.272 -15.9209 247.981 -16.0997 248.654C-16.3033 249.323 -16.4205 249.975 -16.4487 250.6Z" fill="#008056" fill-opacity="0.16"/>
</svg>
