<svg width="486" height="465" viewBox="0 0 486 465" fill="none" xmlns="http://www.w3.org/2000/svg">
<path d="M336.069 60.6868C336.034 61.3808 336.261 62.015 336.79 62.552C337.318 63.089 338.155 63.5238 339.337 63.831C340.532 64.1406 342.067 64.3154 344.019 64.3248C345.971 64.3343 348.34 64.1784 351.161 63.8121C352.393 63.6532 354.303 63.2047 356.482 62.6271C358.668 62.0445 361.138 61.3228 363.449 60.6224C365.775 59.9121 367.948 59.2305 369.543 58.716C371.138 58.2015 372.16 57.8615 372.16 57.8615L382.373 42.6071C382.373 42.6071 381.851 42.6175 380.984 42.6463C380.117 42.6751 378.906 42.7224 377.53 42.7962C376.153 42.8699 374.611 42.9702 373.077 43.0976C371.542 43.2251 370.013 43.3921 368.657 43.592C366.879 43.8532 364.394 44.3151 361.59 45.0057C358.793 45.6912 355.683 46.6005 352.596 47.7647C349.529 48.9262 346.472 50.3403 343.785 52.0428C341.098 53.7454 338.765 55.7464 337.12 58.0896C336.961 58.3167 336.822 58.5411 336.691 58.7605C336.564 58.9872 336.46 59.1989 336.368 59.4129C336.276 59.6269 336.204 59.8381 336.159 60.0417C336.112 60.2899 336.08 60.4959 336.069 60.6868Z" fill="#008056" fill-opacity="0.16"/>
<path d="M379.173 56.9698C379.173 56.9698 379.554 56.9584 380.215 56.9292C380.876 56.9 381.817 56.853 382.929 56.787C384.048 56.7159 385.342 56.6331 386.709 56.5123C388.075 56.3916 389.53 56.2427 390.933 56.0646C392.323 55.8842 393.825 55.4549 395.337 54.8347C396.854 54.2219 398.374 53.4234 399.799 52.5167C401.236 51.6125 402.573 50.5928 403.729 49.5453C404.88 48.4904 405.849 47.4077 406.525 46.3528C406.734 46.0261 406.917 45.7072 407.062 45.4134C407.215 45.1145 407.326 44.8334 407.42 44.5748C407.509 44.3088 407.576 44.058 407.608 43.8198C407.64 43.5817 407.648 43.3709 407.631 43.1556C407.586 42.6458 407.381 42.2343 407.046 41.9009C406.71 41.5675 406.239 41.3047 405.658 41.1176C405.076 40.9304 404.384 40.8188 403.598 40.7601C402.817 40.7087 401.94 40.7227 400.997 40.7821C400.269 40.8243 399.472 40.8921 398.609 40.9729C397.745 41.0537 396.814 41.1477 395.815 41.267C394.815 41.3864 393.744 41.5115 392.611 41.657C391.478 41.8026 390.276 41.9737 389.007 42.1578L379.173 56.9698Z" fill="#008056" fill-opacity="0.16"/>
<path d="M280.999 93.639C280.773 95.2094 281.426 96.2778 282.652 96.9661C283.883 97.6617 285.672 97.9874 287.707 98.0703C289.749 98.1481 292.036 97.9832 294.21 97.7004C296.397 97.4201 298.477 97.0293 300.095 96.6607C301.465 96.3542 303.102 95.9185 304.779 95.4452C306.464 94.9669 308.195 94.4461 309.758 93.9641C311.321 93.4821 312.716 93.0391 313.724 92.7091C314.731 92.3791 315.341 92.1794 315.341 92.1794L322.931 77.2323C322.931 77.2323 322.173 77.2302 320.969 77.2403C319.766 77.2503 318.114 77.2849 316.314 77.3556C314.521 77.4213 312.585 77.5306 310.793 77.6929C309.008 77.8502 307.366 78.0729 306.14 78.3681C302.53 79.2405 299.35 80.2198 296.581 81.2643C293.82 82.3037 291.458 83.4058 289.478 84.5288C287.498 85.6517 285.89 86.7808 284.645 87.8886C283.394 89.0015 282.496 90.0786 281.951 91.0875C281.815 91.3317 281.701 91.5607 281.599 91.7921C281.493 92.0162 281.406 92.2376 281.326 92.454C281.247 92.6703 281.19 92.8715 281.132 93.0728C281.057 93.2643 281.027 93.4579 280.999 93.639Z" fill="#008056" fill-opacity="0.16"/>
<path d="M322.642 90.0314C323.924 89.7407 325.155 89.4529 326.314 89.1708C327.485 88.8911 328.592 88.6121 329.632 88.3461C330.68 88.0751 331.668 87.8121 332.597 87.5572C333.525 87.3023 334.39 87.0481 335.195 86.8019C336.644 86.3756 338.071 85.8678 339.425 85.2691C340.784 84.6778 342.062 84.0006 343.236 83.2329C344.402 82.4701 345.456 81.6219 346.348 80.6787C347.237 79.7479 347.972 78.7172 348.496 77.6144C348.593 77.4077 348.677 77.1988 348.754 76.9948C348.832 76.7909 348.889 76.5897 348.939 76.3935C348.989 76.1972 349.032 76.006 349.054 75.8175C349.077 75.629 349.098 75.4529 349.101 75.2671C349.113 74.5882 348.966 73.9754 348.663 73.4683C348.361 72.9611 347.913 72.5421 347.32 72.2435C346.728 71.945 346.002 71.7693 345.15 71.7236C344.302 71.6854 343.332 71.7847 342.242 72.0413C340.856 72.3703 339.381 72.7597 337.951 73.1511C336.533 73.5448 335.153 73.9457 333.953 74.3099C332.752 74.6742 331.73 74.9821 331.004 75.2175C330.281 75.4406 329.849 75.5838 329.849 75.5838L322.642 90.0314Z" fill="#008056" fill-opacity="0.16"/>
<path d="M422.635 75.9588C422.671 76.2805 422.719 76.6045 422.772 76.9359C422.825 77.2673 422.897 77.5961 422.98 77.9395C423.058 78.2756 423.153 78.6214 423.249 78.9672C423.344 79.313 423.464 79.6635 423.589 80.0214C423.885 80.868 424.671 81.9102 425.686 83.002C426.706 84.1012 427.971 85.2597 429.206 86.3096C430.445 87.3669 431.652 88.3279 432.561 89.0269C433.47 89.7259 434.064 90.1533 434.064 90.1533L460.722 77.8046C460.722 77.8046 460.702 77.6339 460.682 77.3343C460.649 77.0324 460.603 76.5994 460.548 76.0748C460.485 75.5553 460.409 74.9367 460.311 74.2689C460.212 73.601 460.098 72.8789 459.962 72.1397C459.875 71.6798 459.778 71.2052 459.675 70.7356C459.571 70.266 459.464 69.8089 459.338 69.3544C459.217 68.9073 459.089 68.4651 458.953 68.0603C458.813 67.648 458.667 67.2606 458.51 66.9031C457.994 65.6872 457.104 64.1432 455.795 62.6358C454.504 61.1381 452.812 59.6868 450.69 58.6363C448.586 57.5954 446.048 56.948 443.041 57.0412C440.055 57.1317 436.595 57.9555 432.617 59.8572C431.125 60.5713 429.705 61.453 428.428 62.4968C427.146 63.5333 426.006 64.7318 425.076 66.0791C424.147 67.4265 423.432 68.9301 422.998 70.577C422.557 72.229 422.409 74.0265 422.635 75.9588Z" fill="#008056" fill-opacity="0.16"/>
<path d="M435.971 96.3118C436.035 96.7546 436.108 97.2889 436.206 97.8923C436.303 98.4957 436.422 99.1609 436.568 99.8505C436.706 100.545 436.877 101.272 437.068 101.995C437.259 102.719 437.482 103.443 437.72 104.124C438.059 105.114 438.845 105.854 439.933 106.355C441.025 106.864 442.435 107.124 444.033 107.17C445.639 107.21 447.431 107.016 449.289 106.602C451.148 106.189 453.073 105.557 454.93 104.713C456.954 103.798 458.626 102.809 459.985 101.774C461.344 100.74 462.376 99.6687 463.13 98.5709C463.884 97.4731 464.358 96.3608 464.592 95.261C464.826 94.1612 464.822 93.0613 464.62 91.9883C464.507 91.3949 464.369 90.7648 464.189 90.0879C464.013 89.4184 463.805 88.717 463.562 87.964C463.317 87.2234 463.046 86.4459 462.745 85.6241C462.442 84.8147 462.108 83.9611 461.743 83.0756L435.822 95.0301C435.822 95.0301 435.822 95.0624 435.83 95.1218C435.838 95.1811 435.841 95.2653 435.86 95.3717C435.871 95.483 435.885 95.6141 435.906 95.7724C435.92 95.9358 435.944 96.1139 435.971 96.3118Z" fill="#008056" fill-opacity="0.16"/>
<path d="M359.907 80.3972C359.906 81.2196 359.976 82.0041 360.098 82.7534C360.219 83.5027 360.4 84.2119 360.603 84.8737C360.813 85.5304 361.057 86.1422 361.308 86.6846C361.559 87.227 361.826 87.7147 362.078 88.1159C362.549 88.8541 363.201 89.6524 363.928 90.4326C364.654 91.2128 365.448 91.9799 366.188 92.6534C366.928 93.327 367.608 93.9119 368.108 94.3279C368.608 94.7438 368.92 94.9957 368.92 94.9957L391.92 81.5629C391.92 81.5629 391.919 81.4662 391.917 81.3052C391.918 81.1318 391.913 80.8867 391.907 80.5771C391.901 80.2675 391.888 79.8985 391.871 79.4776C391.854 79.0566 391.832 78.5961 391.809 78.1034C391.764 77.2914 391.702 76.3927 391.611 75.4821C391.52 74.5714 391.411 73.651 391.266 72.788C391.121 71.925 390.941 71.1068 390.726 70.4105C390.511 69.7142 390.26 69.1396 389.961 68.7488C388.561 66.8708 387.004 65.522 385.352 64.6053C383.718 63.6983 381.991 63.2109 380.25 63.068C378.522 62.9274 376.768 63.1291 375.069 63.5852C373.381 64.0437 371.734 64.7668 370.215 65.662C368.196 66.8548 366.549 68.0857 365.215 69.3308C363.873 70.5809 362.843 71.845 362.058 73.1042C361.274 74.3633 360.734 75.6174 360.4 76.8397C360.051 78.072 359.91 79.2601 359.907 80.3972Z" fill="#008056" fill-opacity="0.16"/>
<path d="M372.233 98.3027C372.686 98.999 373.127 99.6609 373.564 100.271C374.007 100.888 374.431 101.463 374.845 101.991C375.265 102.527 375.673 103.016 376.07 103.47C376.466 103.924 376.851 104.331 377.224 104.704C377.908 105.373 378.706 105.91 379.631 106.284C380.557 106.659 381.617 106.865 382.806 106.865C383.995 106.865 385.32 106.653 386.785 106.185C388.249 105.716 389.856 104.999 391.597 103.985C392.961 103.195 394.243 102.3 395.395 101.342C396.546 100.383 397.566 99.3744 398.408 98.3574C399.249 97.3404 399.91 96.3279 400.344 95.3622C400.777 94.3966 400.993 93.4926 400.935 92.6782C400.924 92.5347 400.905 92.3961 400.879 92.2626C400.853 92.1291 400.814 91.9933 400.773 91.8699C400.727 91.7391 400.674 91.6132 400.613 91.4925C400.552 91.3717 400.477 91.261 400.396 91.143C399.844 90.3957 399.202 89.6443 398.555 88.9499C397.909 88.2556 397.253 87.611 396.663 87.0622C396.073 86.5135 395.56 86.063 395.19 85.7423C394.82 85.4216 394.595 85.2506 394.595 85.2506L372.233 98.3027Z" fill="#008056" fill-opacity="0.16"/>
<path d="M424.314 178.305L453.659 176.35C453.659 176.35 454.08 175.684 454.76 174.572C455.432 173.465 456.353 171.93 457.363 170.193C458.365 168.461 459.443 166.537 460.431 164.642C461.417 162.759 462.32 160.911 462.96 159.329C463.407 158.257 463.864 156.994 464.306 155.612C464.74 154.235 465.138 152.742 465.454 151.208C465.762 149.678 465.989 148.108 466.082 146.564C466.167 145.024 466.112 143.516 465.865 142.107C465.638 140.791 465.246 139.567 464.643 138.476C464.044 137.392 463.239 136.449 462.186 135.697C461.138 134.952 459.842 134.399 458.26 134.093C456.687 133.782 454.821 133.725 452.636 133.961C450.654 134.177 448.522 134.776 446.328 135.807C444.134 136.839 441.88 138.289 439.641 140.205C437.407 142.128 435.192 144.524 433.092 147.437C430.982 150.367 428.97 153.836 427.161 157.891C426.554 159.267 426.071 161.206 425.697 163.353C425.321 165.512 425.041 167.876 424.843 170.075C424.648 172.294 424.523 174.347 424.445 175.849C424.339 177.359 424.314 178.305 424.314 178.305Z" fill="#008056" fill-opacity="0.16"/>
<path d="M412.752 203.774C412.838 204.851 413.183 205.848 413.754 206.734C414.326 207.62 415.137 208.397 416.122 209.033C417.114 209.664 418.293 210.157 419.62 210.486C420.953 210.809 422.424 210.952 424.001 210.903C426.168 210.831 428.176 210.446 430.029 209.82C431.886 209.181 433.576 208.299 435.118 207.215C436.652 206.137 438.026 204.854 439.253 203.434C440.471 202.02 441.53 200.465 442.442 198.838C442.941 197.936 443.461 196.955 444 195.906C444.539 194.858 445.085 193.74 445.652 192.542C446.212 191.35 446.798 190.085 447.391 188.751C447.984 187.417 448.591 186.009 449.217 184.534L420.861 186.193C420.861 186.193 420.573 186.66 420.106 187.465C419.634 188.262 418.982 189.399 418.235 190.729C417.488 192.06 416.652 193.592 415.824 195.184C415.001 196.783 414.178 198.446 413.469 200.021C413.329 200.355 413.203 200.678 413.103 201.006C413.002 201.334 412.924 201.647 412.87 201.965C412.811 202.275 412.777 202.59 412.758 202.895C412.724 203.178 412.725 203.48 412.752 203.774Z" fill="#008056" fill-opacity="0.16"/>
<path d="M391.187 142.909L418.254 136.788C418.254 136.788 418.853 135.861 419.767 134.395C420.681 132.929 421.901 130.929 423.162 128.783C424.415 126.642 425.702 124.36 426.744 122.32C427.778 120.285 428.574 118.489 428.852 117.294C429.058 116.408 429.225 115.559 429.358 114.755C429.491 113.951 429.584 113.184 429.643 112.463C429.703 111.741 429.728 111.065 429.721 110.421C429.715 109.777 429.674 109.178 429.606 108.618C429.41 106.968 428.961 105.643 428.311 104.594C427.666 103.553 426.82 102.789 425.837 102.281C424.853 101.774 423.721 101.508 422.496 101.457C421.272 101.405 419.961 101.575 418.597 101.921C414.431 102.977 410.888 104.788 407.874 107.026C404.86 109.265 402.359 111.922 400.321 114.673C398.269 117.434 396.662 120.292 395.445 122.883C394.226 125.487 393.403 127.832 392.928 129.529C392.572 130.83 392.281 132.305 392.056 133.798C391.824 135.297 391.649 136.8 391.529 138.147C391.402 139.498 391.317 140.69 391.267 141.536C391.206 142.398 391.187 142.909 391.187 142.909Z" fill="#008056" fill-opacity="0.16"/>
<path d="M387.808 162.94C387.851 163.97 388.049 164.895 388.433 165.681C388.823 166.475 389.395 167.122 390.177 167.605C390.968 168.082 391.969 168.394 393.224 168.49C394.478 168.586 395.971 168.476 397.743 168.111C399.622 167.727 401.56 167.065 403.433 166.199C405.307 165.332 407.122 164.268 408.742 163.077C410.362 161.886 411.78 160.573 412.878 159.219C413.976 157.865 414.747 156.474 415.072 155.128C415.395 153.763 415.655 152.353 415.864 151.01C416.073 149.668 416.231 148.393 416.343 147.29C416.456 146.186 416.535 145.256 416.583 144.597C416.631 143.937 416.644 143.561 416.644 143.561L390.374 149.375C390.045 150.605 389.74 151.775 389.477 152.863C389.211 153.963 388.976 154.998 388.773 155.969C388.57 156.94 388.392 157.851 388.252 158.692C388.104 159.538 387.989 160.32 387.904 161.037C387.886 161.2 387.868 161.364 387.857 161.523C387.847 161.681 387.836 161.84 387.83 162.006C387.82 162.165 387.816 162.318 387.818 162.479C387.795 162.636 387.796 162.797 387.808 162.94Z" fill="#008056" fill-opacity="0.16"/>
<path d="M341.149 283.346L361.005 296.853C361.005 296.853 361.816 296.236 363.138 295.194C364.465 294.159 366.295 292.706 368.352 291.045C370.408 289.383 372.677 287.512 374.863 285.644C377.055 283.77 379.159 281.893 380.89 280.215C382.624 278.525 384.739 276.316 386.925 273.798C389.108 271.294 391.358 268.473 393.374 265.564C395.382 262.66 397.157 259.666 398.393 256.77C399.619 253.891 400.311 251.117 400.179 248.656C400.136 247.896 400.017 247.166 399.814 246.472C399.611 245.778 399.312 245.117 398.927 244.504C398.541 243.892 398.06 243.312 397.472 242.783C396.884 242.254 396.198 241.771 395.406 241.338C393.936 240.546 392.045 240.181 389.75 240.351C387.463 240.516 384.792 241.213 381.747 242.533C378.708 243.848 375.305 245.8 371.56 248.473C367.815 251.145 363.711 254.559 359.279 258.824C357.781 260.256 355.911 262.493 353.946 265.033C351.979 267.585 349.905 270.458 348.011 273.165C346.115 275.885 344.407 278.422 343.161 280.288C341.914 282.154 341.149 283.346 341.149 283.346Z" fill="#008056" fill-opacity="0.16"/>
<path d="M312.306 315.259C312.251 316.097 312.284 316.906 312.391 317.698C312.506 318.484 312.697 319.24 312.974 319.949C313.252 320.657 313.613 321.329 314.05 321.939C314.488 322.549 315.014 323.098 315.616 323.585C316.972 324.671 318.472 325.302 320.08 325.535C321.688 325.768 323.395 325.61 325.171 325.123C326.947 324.636 328.774 323.812 330.624 322.735C332.473 321.658 334.339 320.321 336.184 318.793C337.196 317.963 338.276 317.042 339.425 316.032C340.579 315.029 341.794 313.941 343.077 312.764C344.36 311.586 345.717 310.326 347.147 308.983C348.572 307.633 350.064 306.206 351.624 304.688L332.849 291.373C332.849 291.373 332.311 291.804 331.392 292.55C330.481 293.29 329.194 294.351 327.703 295.605C326.213 296.859 324.518 298.306 322.79 299.831C321.062 301.355 319.3 302.956 317.667 304.524C316.825 305.335 316.086 306.185 315.451 307.061C314.809 307.942 314.266 308.842 313.822 309.761C313.378 310.68 313.029 311.61 312.778 312.526C312.515 313.441 312.361 314.356 312.306 315.259Z" fill="#008056" fill-opacity="0.16"/>
<path d="M348.721 220.254L370.886 226.556C370.886 226.556 372.029 225.647 373.827 224.194C375.625 222.741 378.059 220.747 380.65 218.57C383.241 216.392 385.968 214.035 388.346 211.863C390.724 209.691 392.752 207.703 393.926 206.254C395.998 203.728 397.738 201.396 399.172 199.25C400.604 197.118 401.743 195.173 402.616 193.411C403.482 191.653 404.083 190.076 404.45 188.68C404.817 187.284 404.945 186.061 404.875 185.007C404.828 184.271 404.68 183.626 404.448 183.049C404.217 182.472 403.892 181.98 403.496 181.558C403.101 181.136 402.626 180.789 402.081 180.512C401.541 180.243 400.936 180.039 400.269 179.9C396.619 179.145 392.744 179.755 388.887 181.217C385.045 182.669 381.192 184.961 377.583 187.594C373.967 190.233 370.582 193.211 367.673 196.048C364.765 198.885 362.33 201.561 360.644 203.575C359.357 205.112 357.969 206.912 356.611 208.757C355.253 210.602 353.917 212.496 352.753 214.198C351.582 215.904 350.57 217.416 349.843 218.506C349.143 219.588 348.721 220.254 348.721 220.254Z" fill="#008056" fill-opacity="0.16"/>
<path d="M328.551 250.6C328.523 251.224 328.577 251.826 328.728 252.382C328.88 252.937 329.116 253.458 329.463 253.935C329.81 254.412 330.25 254.836 330.807 255.224C331.358 255.604 332.028 255.937 332.818 256.208C334.265 256.714 335.984 256.904 337.824 256.796C339.668 256.695 341.633 256.295 343.583 255.636C345.534 254.976 347.464 254.05 349.23 252.899C350.997 251.749 352.59 250.36 353.877 248.791C355.181 247.199 356.489 245.518 357.71 243.886C358.932 242.253 360.065 240.68 361.039 239.303C362.006 237.93 362.813 236.753 363.382 235.922C363.943 235.096 364.267 234.605 364.267 234.605L343.081 228.263C341.901 229.672 340.793 231.012 339.768 232.283C338.736 233.56 337.775 234.766 336.885 235.903C335.993 237.051 335.167 238.123 334.417 239.131C333.66 240.145 332.973 241.088 332.348 241.979C331.794 242.768 331.287 243.546 330.834 244.309C330.381 245.072 329.995 245.821 329.666 246.543C329.342 247.272 329.079 247.981 328.9 248.654C328.697 249.323 328.58 249.975 328.551 250.6Z" fill="#008056" fill-opacity="0.16"/>
<path d="M141.175 422.758L166.174 427.938C166.174 427.938 167.372 426.841 169.239 425.092C171.106 423.343 173.642 420.944 176.33 418.322C179.015 415.713 181.845 412.887 184.302 410.293C186.753 407.703 188.831 405.346 190.02 403.649C192.11 400.689 193.845 397.971 195.261 395.481C196.674 393.004 197.773 390.763 198.592 388.746C199.411 386.728 199.947 384.946 200.24 383.363C200.531 381.792 200.584 380.426 200.418 379.264C200.301 378.458 200.088 377.749 199.787 377.133C199.485 376.516 199.089 375.998 198.618 375.562C198.148 375.126 197.59 374.782 196.978 374.519C196.358 374.26 195.673 374.079 194.931 373.99C190.835 373.453 186.607 374.433 182.458 376.354C178.324 378.265 174.256 381.114 170.469 384.312C166.688 387.517 163.178 391.088 160.195 394.451C157.206 397.819 154.737 400.983 153.037 403.342C151.733 405.139 150.35 407.249 149 409.391C147.648 411.546 146.333 413.739 145.174 415.718C144.016 417.697 143.021 419.457 142.313 420.717C141.598 421.983 141.175 422.758 141.175 422.758Z" fill="#008056" fill-opacity="0.16"/>
<path d="M121.334 457.916C121.357 458.614 121.465 459.264 121.672 459.869C121.879 460.474 122.192 461.028 122.606 461.524C123.02 462.02 123.547 462.461 124.195 462.84C124.838 463.213 125.602 463.524 126.501 463.765C128.145 464.211 130.056 464.271 132.077 464.017C134.106 463.758 136.245 463.154 138.346 462.272C140.455 461.386 142.509 460.212 144.364 458.796C146.22 457.379 147.877 455.72 149.164 453.881C150.479 452.022 151.784 450.051 153.006 448.148C154.219 446.25 155.35 444.42 156.309 442.815C157.274 441.217 158.064 439.856 158.627 438.889C159.181 437.927 159.5 437.364 159.5 437.364L135.572 432.059C134.385 433.711 133.272 435.281 132.232 436.768C131.197 438.263 130.224 439.673 129.336 441.002C128.441 442.337 127.624 443.597 126.868 444.771C126.117 445.953 125.433 447.058 124.814 448.085C124.262 449.002 123.763 449.904 123.329 450.773C122.892 451.654 122.524 452.511 122.221 453.334C121.922 454.164 121.688 454.962 121.542 455.731C121.384 456.498 121.31 457.23 121.334 457.916Z" fill="#008056" fill-opacity="0.16"/>
<path d="M230.044 385.775L242.938 406.559C242.938 406.559 243.809 405.997 245.241 405.054C246.673 404.11 248.673 402.778 250.912 401.242C253.157 399.7 255.651 397.967 258.083 396.19C260.519 394.421 262.883 392.625 264.878 390.984C266.98 389.248 269.607 386.917 272.392 384.186C275.176 381.466 278.104 378.357 280.807 375.076C283.503 371.8 285.959 368.364 287.814 364.948C289.656 361.562 290.894 358.21 291.165 355.118C291.229 354.372 291.238 353.641 291.186 352.931C291.134 352.22 291.021 351.531 290.84 350.854C290.665 350.184 290.415 349.533 290.097 348.907C289.778 348.281 289.398 347.676 288.933 347.106C287.907 345.806 286.374 344.937 284.345 344.624C282.327 344.313 279.806 344.562 276.796 345.49C273.793 346.413 270.287 348.025 266.27 350.44C262.259 352.85 257.735 356.076 252.67 360.253C250.971 361.66 248.713 363.945 246.285 366.584C243.85 369.228 241.244 372.237 238.843 375.074C236.435 377.916 234.231 380.597 232.631 382.563C231.046 384.519 230.044 385.775 230.044 385.775Z" fill="#008056" fill-opacity="0.16"/>
<path d="M195.893 419.523C195.74 420.33 195.64 421.133 195.596 421.909C195.557 422.692 195.56 423.458 195.627 424.19C195.694 424.923 195.823 425.635 196.01 426.307C196.198 426.979 196.445 427.61 196.751 428.202C197.568 429.828 198.642 430.944 199.92 431.597C201.203 432.258 202.689 432.455 204.317 432.275C205.952 432.089 207.73 431.526 209.596 430.664C211.47 429.798 213.422 428.618 215.402 427.225C216.511 426.458 217.699 425.616 218.97 424.673C220.24 423.731 221.59 422.714 223.028 421.604C224.465 420.494 225.984 419.297 227.59 418.007C229.197 416.717 230.892 415.334 232.67 413.852L220.625 393.538C220.625 393.538 220.042 393.935 219.051 394.622C218.06 395.308 216.665 396.291 215.05 397.457C213.427 398.629 211.576 399.988 209.671 401.427C207.766 402.867 205.813 404.393 203.978 405.903C202.882 406.802 201.897 407.798 201.001 408.863C200.106 409.927 199.313 411.062 198.634 412.239C197.955 413.415 197.378 414.63 196.915 415.854C196.474 417.062 196.123 418.307 195.893 419.523Z" fill="#008056" fill-opacity="0.16"/>
<path d="M255.125 311.169L272.214 323.677C272.214 323.677 273.474 322.829 275.449 321.461C277.424 320.093 280.122 318.2 283.003 316.116C285.885 314.032 288.958 311.754 291.675 309.62C294.393 307.486 296.75 305.489 298.221 303.968C301.034 301.055 303.429 298.353 305.439 295.847C307.447 293.354 309.07 291.058 310.361 288.956C311.643 286.872 312.587 284.974 313.228 283.283C313.869 281.592 314.215 280.102 314.294 278.806C314.341 278.114 314.314 277.473 314.207 276.887C314.112 276.303 313.942 275.77 313.717 275.297C313.492 274.823 313.2 274.395 312.852 274.027C312.504 273.659 312.106 273.346 311.655 273.081C308.7 271.378 305.154 271.298 301.361 272.252C297.589 273.203 293.564 275.179 289.643 277.625C285.73 280.067 281.913 282.982 278.563 285.806C275.206 288.636 272.317 291.373 270.27 293.461C268.716 295.05 266.994 296.948 265.29 298.888C263.584 300.84 261.886 302.852 260.379 304.669C258.872 306.485 257.556 308.107 256.614 309.278C255.69 310.46 255.125 311.169 255.125 311.169Z" fill="#008056" fill-opacity="0.16"/>
<path d="M228.705 344.683C228.605 345.313 228.56 345.928 228.591 346.512C228.619 347.109 228.724 347.675 228.903 348.223C229.082 348.771 229.331 349.294 229.673 349.796C230.01 350.29 230.428 350.761 230.943 351.199C232.033 352.132 233.436 352.732 235.027 353.02C236.626 353.303 238.414 353.262 240.27 352.893C242.127 352.525 244.049 351.841 245.892 350.833C247.747 349.828 249.519 348.511 251.1 346.882C252.683 345.241 254.3 343.49 255.825 341.78C257.344 340.074 258.783 338.412 260.014 336.968C261.252 335.518 262.285 334.274 263.011 333.389C263.738 332.505 264.156 331.992 264.156 331.992L247.894 319.666C246.475 321.121 245.139 322.507 243.879 323.83C242.62 325.154 241.446 326.397 240.354 327.585C239.256 328.766 238.24 329.891 237.309 330.936C236.372 331.987 235.517 332.969 234.739 333.889C233.936 334.836 233.198 335.782 232.527 336.716C231.855 337.649 231.255 338.577 230.737 339.482C230.219 340.386 229.785 341.288 229.447 342.156C229.079 343.012 228.836 343.859 228.705 344.683Z" fill="#008056" fill-opacity="0.16"/>
</svg>
