<svg width="85" height="211" viewBox="0 0 85 211" fill="none" xmlns="http://www.w3.org/2000/svg">
<path d="M-9.94849 69.1772C-10.2256 69.4495 -10.3498 69.76 -10.2925 70.1088C-10.2351 70.4576 -9.99148 70.8446 -9.52806 71.2602C-9.05986 71.6806 -8.37188 72.1345 -7.42115 72.6122C-6.46564 73.0948 -5.24737 73.606 -3.72811 74.1411C-3.13569 74.3513 -2.18497 74.5949 -1.08614 74.8434C0.0174761 75.0918 1.26442 75.3498 2.4397 75.5791C3.61975 75.8085 4.72817 76.0139 5.54035 76.162C6.35254 76.3101 6.87328 76.3961 6.87328 76.3961L14.0157 72.5884C14.0157 72.5884 13.7768 72.4784 13.3803 72.2969C12.9838 72.1154 12.4248 71.8717 11.7894 71.5946C11.154 71.3175 10.4373 71.0166 9.71114 70.7299C8.98973 70.4433 8.26832 70.1661 7.61379 69.9464C6.75383 69.6597 5.54511 69.2919 4.14529 68.9431C2.75024 68.5991 1.17367 68.2695 -0.436369 68.0449C-2.04163 67.8252 -3.68035 67.7105 -5.20438 67.7965C-6.72842 67.8825 -8.1378 68.1643 -9.29397 68.7376C-9.36085 68.7711 -9.42294 68.8045 -9.48505 68.838C-9.54716 68.8714 -9.60451 68.9097 -9.65706 68.9479C-9.70962 68.9861 -9.76215 69.0243 -9.80992 69.0625C-9.86247 69.1008 -9.90549 69.139 -9.94849 69.1772Z" fill="#008056" fill-opacity="0.24"/>
<path d="M10.2129 77.5716C10.2129 77.5716 10.3897 77.6528 10.6906 77.7818C10.9964 77.9156 11.4264 78.1019 11.9424 78.3169C12.4583 78.5319 13.0603 78.7803 13.7005 79.0288C14.3407 79.2772 15.0191 79.5351 15.6832 79.7645C16.3425 79.9938 17.0878 80.1515 17.8713 80.2375C18.6548 80.3235 19.467 80.3378 20.2601 80.2948C21.0532 80.247 21.8176 80.1371 22.5055 79.9747C23.1935 79.8075 23.7955 79.5877 24.2684 79.3202C24.3592 79.2676 24.45 79.2151 24.5264 79.1625C24.6077 79.11 24.6793 79.0574 24.7462 79.0048C24.8131 78.9523 24.8752 78.8998 24.9277 78.8472C24.9851 78.7947 25.0328 78.7421 25.0758 78.6895C25.2717 78.4506 25.3434 78.207 25.3147 77.9682C25.2861 77.7293 25.1523 77.4904 24.9325 77.261C24.7128 77.0269 24.407 76.8024 24.0296 76.5779C23.6569 76.3581 23.2078 76.1384 22.7109 75.9329C22.3717 75.7944 22.0039 75.6462 21.5978 75.4886C21.1965 75.3309 20.757 75.1685 20.2888 74.9917C19.8206 74.8197 19.3141 74.6381 18.779 74.447C18.2439 74.2559 17.6707 74.0601 17.0639 73.8499L10.2129 77.5716Z" fill="#008056" fill-opacity="0.24"/>
<path d="M32.1466 85.0582C31.922 85.3544 31.8313 85.7032 31.9029 86.0997C31.9746 86.4962 32.2135 86.9406 32.6435 87.4327C33.0782 87.9295 33.7041 88.4694 34.564 89.0618C35.424 89.6542 36.5181 90.2992 37.8749 90.9872C38.4673 91.2882 39.4467 91.6655 40.5837 92.0669C41.7256 92.4682 43.0346 92.8934 44.2672 93.2804C45.5094 93.6674 46.6751 94.0209 47.5351 94.2741C48.395 94.5273 48.9492 94.685 48.9492 94.685L58.06 91.0206C58.06 91.0206 57.8259 90.8677 57.4342 90.6193C57.0424 90.3709 56.493 90.0269 55.8623 89.6447C55.2317 89.2625 54.5198 88.842 53.8032 88.4359C53.0866 88.0298 52.3604 87.6429 51.7011 87.3228C50.8364 86.9024 49.599 86.3577 48.1514 85.8178C46.7085 85.278 45.0603 84.7429 43.3451 84.3273C41.6396 83.9164 39.8623 83.6202 38.1615 83.5629C36.4607 83.5055 34.8268 83.6871 33.3935 84.2269C33.255 84.2795 33.126 84.3368 33.0018 84.3941C32.8776 84.4563 32.7677 84.5184 32.6626 84.5853C32.5574 84.6521 32.4619 84.7238 32.3807 84.8002C32.2851 84.8958 32.2087 84.977 32.1466 85.0582Z" fill="#008056" fill-opacity="0.24"/>
<path d="M52.3179 96.4047C52.3179 96.4047 52.4899 96.5146 52.7908 96.7009C53.0918 96.8872 53.5218 97.15 54.033 97.4557C54.549 97.7615 55.1462 98.115 55.7864 98.4734C56.4266 98.8317 57.1145 99.2043 57.7882 99.5483C58.457 99.8875 59.2501 100.15 60.1053 100.332C60.9605 100.518 61.873 100.623 62.7759 100.652C63.6837 100.685 64.5819 100.638 65.4084 100.523C66.2349 100.404 66.9897 100.217 67.606 99.9544C67.7971 99.8732 67.9739 99.7872 68.1268 99.7012C68.2845 99.6152 68.4182 99.5244 68.5377 99.4384C68.6571 99.3477 68.7622 99.2569 68.8482 99.1614C68.9342 99.0658 69.0011 98.975 69.0584 98.8747C69.1922 98.6358 69.2256 98.3922 69.1778 98.1437C69.1301 97.8953 69.0011 97.6373 68.8004 97.3793C68.5998 97.1213 68.3274 96.8634 67.9978 96.6006C67.6681 96.3426 67.2764 96.0846 66.8416 95.8266C66.5072 95.6259 66.1346 95.4157 65.7285 95.1912C65.3224 94.9666 64.8828 94.7278 64.4051 94.4793C63.9273 94.2309 63.4161 93.9633 62.8715 93.6862C62.3269 93.4091 61.744 93.1225 61.1277 92.8215L52.3179 96.4047Z" fill="#008056" fill-opacity="0.24"/>
<path d="M-2.12305 83.0279C-2.69636 83.6537 -2.7298 84.3226 -2.39538 84.9962C-2.06095 85.6746 -1.36818 86.3578 -0.493891 87.0075C0.385179 87.6573 1.4458 88.2736 2.49208 88.8039C3.54314 89.339 4.57986 89.7929 5.40637 90.1177C6.10389 90.3948 6.95906 90.6958 7.84291 90.992C8.73153 91.2882 9.65362 91.5796 10.4897 91.8376C11.3258 92.0956 12.0758 92.3202 12.6205 92.4779C13.1651 92.6355 13.4948 92.731 13.4948 92.731L21.3538 88.4122C21.3538 88.4122 21.0194 88.1828 20.4843 87.8245C19.9492 87.4662 19.2087 86.9837 18.3917 86.4725C17.5796 85.9613 16.6909 85.4262 15.8501 84.958C15.014 84.4898 14.221 84.0932 13.5903 83.8544C11.7319 83.1521 10.0311 82.6265 8.49268 82.2539C6.95909 81.8813 5.58315 81.6567 4.36965 81.5563C3.15615 81.456 2.10508 81.4704 1.22123 81.585C0.332609 81.6997 -0.388805 81.9051 -0.933446 82.187C-1.06722 82.2539 -1.18664 82.3207 -1.3013 82.3924C-1.41596 82.4593 -1.52109 82.531 -1.62141 82.6027C-1.72174 82.6743 -1.80774 82.746 -1.89374 82.8176C-1.98451 82.8797 -2.05617 82.9562 -2.12305 83.0279Z" fill="#008056" fill-opacity="0.24"/>
<path d="M17.3696 93.9818C18.0242 94.2398 18.6548 94.4835 19.252 94.708C19.854 94.9374 20.4273 95.1476 20.9671 95.3435C21.5118 95.5394 22.0277 95.7209 22.5151 95.8881C23.0024 96.0553 23.461 96.2034 23.891 96.3372C24.6602 96.5856 25.4437 96.7911 26.2224 96.9344C27.0012 97.0825 27.7704 97.1685 28.5204 97.1828C29.2657 97.1972 29.9871 97.1398 30.6656 96.9917C31.3392 96.8484 31.9746 96.6143 32.5384 96.2847C32.6435 96.2225 32.7438 96.1556 32.8393 96.0888C32.9349 96.0219 33.0209 95.9502 33.1021 95.8786C33.1833 95.8069 33.2598 95.7352 33.3267 95.6588C33.3935 95.5823 33.4557 95.5107 33.513 95.4295C33.7232 95.1332 33.8426 94.818 33.8617 94.5026C33.8809 94.1873 33.8092 93.8672 33.6372 93.5566C33.4652 93.2461 33.1976 92.9499 32.8346 92.6728C32.4715 92.4005 32.0128 92.1521 31.4539 91.9371C30.742 91.6648 29.9728 91.3924 29.2227 91.1344C28.4774 90.8812 27.7465 90.6424 27.1063 90.4417C26.4661 90.2411 25.9215 90.0691 25.5297 89.9544C25.1427 89.835 24.9086 89.7681 24.9086 89.7681L17.3696 93.9818Z" fill="#008056" fill-opacity="0.24"/>
<path d="M65.805 117.894C65.7237 118.047 65.6473 118.204 65.5709 118.367C65.4944 118.529 65.4275 118.697 65.3606 118.873C65.2938 119.045 65.2317 119.227 65.1696 119.408C65.1075 119.59 65.0549 119.781 65.0023 119.977C64.8781 120.44 64.9116 121.138 65.031 121.926C65.1504 122.719 65.3606 123.613 65.59 124.449C65.8193 125.289 66.0629 126.078 66.254 126.661C66.4452 127.244 66.5789 127.611 66.5789 127.611L82.0821 130.186C82.0821 130.186 82.1251 130.105 82.2063 129.967C82.2827 129.823 82.3926 129.618 82.5264 129.37C82.6554 129.121 82.8083 128.825 82.9659 128.5C83.1236 128.175 83.2908 127.822 83.4532 127.454C83.5536 127.224 83.6539 126.986 83.7494 126.747C83.845 126.508 83.9358 126.274 84.017 126.035C84.0982 125.801 84.1746 125.567 84.2368 125.347C84.2989 125.122 84.3514 124.907 84.3896 124.702C84.5282 124.009 84.5998 123.058 84.4756 121.998C84.3562 120.947 84.0456 119.795 83.4246 118.692C82.8083 117.598 81.8814 116.547 80.5246 115.682C79.1773 114.822 77.4001 114.143 75.0686 113.785C74.1943 113.651 73.301 113.613 72.4219 113.69C71.5428 113.761 70.6781 113.948 69.8611 114.263C69.0441 114.578 68.275 115.027 67.587 115.625C66.8943 116.222 66.2875 116.972 65.805 117.894Z" fill="#008056" fill-opacity="0.24"/>
<path d="M65.5651 130.908C65.46 131.123 65.331 131.381 65.1924 131.677C65.0539 131.973 64.9058 132.303 64.7624 132.652C64.6143 133.001 64.471 133.373 64.3372 133.751C64.2035 134.128 64.084 134.515 63.9837 134.888C63.8356 135.427 63.9598 135.991 64.2895 136.541C64.6191 137.095 65.1638 137.635 65.8565 138.136C66.554 138.638 67.4044 139.092 68.3504 139.469C69.2963 139.847 70.3378 140.148 71.4128 140.334C72.5833 140.539 73.62 140.606 74.5325 140.559C75.4451 140.511 76.2238 140.348 76.8879 140.09C77.552 139.832 78.0966 139.484 78.5314 139.068C78.9661 138.652 79.2958 138.165 79.5299 137.63C79.6589 137.334 79.7879 137.014 79.9121 136.66C80.0363 136.311 80.1557 135.939 80.2752 135.533C80.3898 135.131 80.5045 134.706 80.6191 134.252C80.729 133.803 80.8389 133.325 80.944 132.824L65.8852 130.296C65.8852 130.296 65.8756 130.311 65.8613 130.339C65.8469 130.368 65.8231 130.406 65.7992 130.459C65.7705 130.511 65.7371 130.573 65.6989 130.65C65.6559 130.726 65.6128 130.812 65.5651 130.908Z" fill="#008056" fill-opacity="0.24"/>
<path d="M36.7425 100.953C36.494 101.316 36.2886 101.684 36.1166 102.052C35.9446 102.42 35.8108 102.788 35.7009 103.141C35.5958 103.495 35.5194 103.839 35.4668 104.154C35.4143 104.47 35.3856 104.766 35.3761 105.019C35.3617 105.487 35.4095 106.037 35.4955 106.6C35.5815 107.164 35.7009 107.742 35.8251 108.263C35.9494 108.784 36.0736 109.247 36.1691 109.581C36.2647 109.916 36.3268 110.121 36.3268 110.121L50.54 111.115C50.54 111.115 50.5687 111.072 50.6164 111C50.669 110.924 50.7407 110.814 50.8314 110.676C50.9222 110.537 51.0273 110.37 51.1468 110.179C51.2662 109.988 51.3952 109.777 51.5337 109.553C51.7583 109.18 52.0019 108.765 52.236 108.335C52.4701 107.905 52.6995 107.465 52.8953 107.04C53.0912 106.615 53.2584 106.199 53.3731 105.826C53.4878 105.454 53.5499 105.124 53.5355 104.861C53.483 103.61 53.2011 102.544 52.7472 101.641C52.2982 100.748 51.6819 100.012 50.9557 99.4244C50.2343 98.8416 49.3982 98.4021 48.5095 98.0915C47.6257 97.7858 46.6797 97.609 45.7386 97.5469C44.4868 97.4656 43.388 97.5134 42.4229 97.6615C41.4531 97.8096 40.617 98.0581 39.8908 98.3782C39.1647 98.6983 38.5483 99.09 38.0324 99.5295C37.5068 99.969 37.0864 100.452 36.7425 100.953Z" fill="#008056" fill-opacity="0.24"/>
<path d="M36.7951 112.581C36.7856 113.026 36.7808 113.451 36.7904 113.852C36.7999 114.258 36.8142 114.64 36.8381 114.999C36.862 115.362 36.8955 115.701 36.9337 116.021C36.9719 116.341 37.0197 116.637 37.0723 116.915C37.1726 117.416 37.3637 117.894 37.6599 118.338C37.9561 118.783 38.3622 119.193 38.8877 119.552C39.4132 119.91 40.063 120.216 40.8513 120.45C41.6396 120.684 42.5664 120.851 43.6414 120.928C44.4822 120.99 45.3183 120.98 46.1161 120.904C46.914 120.827 47.6688 120.689 48.3473 120.493C49.0257 120.297 49.6229 120.049 50.1054 119.752C50.5879 119.456 50.9558 119.122 51.1756 118.744C51.2138 118.677 51.2472 118.611 51.2759 118.544C51.3046 118.477 51.3284 118.405 51.3475 118.338C51.3667 118.267 51.381 118.195 51.3906 118.123C51.4001 118.052 51.4001 117.98 51.4001 117.903C51.381 117.407 51.3237 116.881 51.2472 116.379C51.1708 115.878 51.0752 115.395 50.9797 114.975C50.8841 114.554 50.7934 114.201 50.7265 113.948C50.6596 113.694 50.6118 113.551 50.6118 113.551L36.7951 112.581Z" fill="#008056" fill-opacity="0.24"/>
<path d="M35.7061 163.635L49.2647 171.613C49.2647 171.613 49.6517 171.446 50.2871 171.159C50.9178 170.873 51.7873 170.471 52.7571 170.008C53.7222 169.544 54.7781 169.019 55.7861 168.479C56.7894 167.944 57.7449 167.399 58.5045 166.893C59.0253 166.554 59.6081 166.133 60.2197 165.655C60.8264 165.178 61.4523 164.638 62.0543 164.055C62.6515 163.472 63.2248 162.846 63.7312 162.192C64.2328 161.537 64.6628 160.854 64.9781 160.157C65.2743 159.507 65.4702 158.847 65.5323 158.183C65.5944 157.524 65.5228 156.865 65.2839 156.215C65.045 155.57 64.6389 154.935 64.0322 154.323C63.4302 153.712 62.6228 153.124 61.5861 152.57C60.6449 152.068 59.5222 151.691 58.2418 151.485C56.9614 151.28 55.5281 151.242 53.9611 151.414C52.3941 151.59 50.6932 151.982 48.8873 152.637C47.0719 153.296 45.1369 154.223 43.116 155.47C42.4329 155.895 41.635 156.607 40.8228 157.443C40.0059 158.284 39.1698 159.244 38.4197 160.157C37.6648 161.079 36.9912 161.948 36.5039 162.588C36.0023 163.224 35.7061 163.635 35.7061 163.635Z" fill="#008056" fill-opacity="0.24"/>
<path d="M22.9214 171.407C22.6347 171.909 22.4866 172.454 22.4723 173.017C22.458 173.581 22.5822 174.169 22.8259 174.747C23.0743 175.325 23.447 175.898 23.9343 176.443C24.4264 176.987 25.0331 177.494 25.7449 177.948C26.7243 178.569 27.7276 179.004 28.7357 179.285C29.7485 179.563 30.7614 179.682 31.7694 179.668C32.7727 179.653 33.7665 179.5 34.7363 179.242C35.7014 178.985 36.6378 178.617 37.5312 178.172C38.0232 177.924 38.5488 177.647 39.103 177.346C39.6572 177.045 40.2353 176.715 40.8468 176.357C41.4535 175.999 42.0937 175.616 42.7578 175.205C43.4219 174.795 44.1146 174.355 44.836 173.892L31.8029 166.08C31.8029 166.08 31.5353 166.2 31.0862 166.415C30.6372 166.625 30.0065 166.931 29.2756 167.294C28.5446 167.657 27.7133 168.082 26.8677 168.536C26.022 168.995 25.1573 169.482 24.369 169.964C24.2066 170.07 24.0537 170.175 23.9104 170.289C23.767 170.404 23.638 170.519 23.5186 170.643C23.3992 170.762 23.2893 170.891 23.1889 171.02C23.0886 171.135 22.9978 171.269 22.9214 171.407Z" fill="#008056" fill-opacity="0.24"/>
<path d="M31.7305 138.007L45.5376 143.459C45.5376 143.459 46.0822 143.229 46.9279 142.857C47.7735 142.484 48.9153 141.968 50.1193 141.399C51.3184 140.831 52.5749 140.21 53.6499 139.622C54.72 139.035 55.6134 138.48 56.096 138.036C56.4543 137.706 56.7839 137.382 57.0849 137.066C57.3859 136.751 57.6582 136.44 57.9019 136.139C58.1456 135.838 58.3605 135.547 58.5516 135.26C58.7427 134.974 58.9052 134.697 59.0437 134.429C59.4546 133.641 59.6553 132.919 59.6839 132.26C59.7126 131.606 59.5693 131.013 59.2874 130.492C59.0055 129.972 58.5851 129.513 58.0596 129.121C57.534 128.729 56.9034 128.409 56.1963 128.151C54.0369 127.363 51.9252 127.096 49.9186 127.177C47.912 127.258 46.0058 127.678 44.2763 128.28C42.5373 128.882 40.9655 129.661 39.6469 130.44C38.3235 131.223 37.2533 132.012 36.5319 132.618C35.9825 133.087 35.4092 133.65 34.8598 134.243C34.3056 134.835 33.7753 135.447 33.3166 136.006C32.8532 136.565 32.4567 137.066 32.1796 137.425C31.8929 137.788 31.7305 138.007 31.7305 138.007Z" fill="#008056" fill-opacity="0.24"/>
<path d="M24.2011 145.843C23.9096 146.311 23.7185 146.779 23.6516 147.243C23.5848 147.711 23.6421 148.17 23.8428 148.619C24.0482 149.068 24.3969 149.507 24.9225 149.928C25.448 150.348 26.1408 150.75 27.0342 151.122C27.9801 151.519 29.0359 151.81 30.1252 151.992C31.2145 152.173 32.3372 152.25 33.4122 152.211C34.4871 152.173 35.5095 152.02 36.4029 151.753C37.2963 151.485 38.056 151.103 38.6054 150.606C39.1596 150.1 39.6994 149.555 40.1963 149.025C40.6932 148.495 41.147 147.979 41.5292 147.525C41.9114 147.071 42.2268 146.684 42.4465 146.407C42.6663 146.13 42.7857 145.967 42.7857 145.967L29.4229 140.621C28.907 141.065 28.4196 141.491 27.9753 141.892C27.5262 142.298 27.1106 142.685 26.7284 143.053C26.3462 143.421 25.9926 143.77 25.6773 144.099C25.3572 144.429 25.0706 144.739 24.8174 145.031C24.76 145.098 24.7027 145.165 24.6502 145.231C24.5976 145.298 24.5451 145.365 24.4925 145.437C24.4399 145.504 24.3922 145.571 24.3444 145.642C24.2871 145.704 24.2393 145.776 24.2011 145.843Z" fill="#008056" fill-opacity="0.24"/>
<path d="M-32.7041 184.999L-27.9982 196.953C-27.9982 196.953 -27.4536 196.924 -26.5554 196.862C-25.6572 196.805 -24.4103 196.714 -23.0009 196.599C-21.5915 196.485 -20.0245 196.341 -18.4957 196.174C-16.9621 196.007 -15.4667 195.811 -14.1959 195.591C-12.9203 195.367 -11.3198 195.028 -9.5951 194.574C-7.87518 194.125 -6.03103 193.556 -4.26334 192.878C-2.50042 192.199 -0.813946 191.411 0.604988 190.503C2.01436 189.6 3.15618 188.583 3.83937 187.455C4.04958 187.106 4.21681 186.748 4.33625 186.38C4.45569 186.012 4.52257 185.63 4.5369 185.243C4.55123 184.856 4.51301 184.455 4.41268 184.044C4.31235 183.633 4.15469 183.213 3.93493 182.783C3.52406 181.99 2.79787 181.259 1.73248 180.642C0.671864 180.026 -0.718386 179.529 -2.46219 179.195C-4.20122 178.86 -6.29381 178.698 -8.75425 178.75C-11.2147 178.803 -14.0573 179.075 -17.3013 179.625C-18.3953 179.806 -19.8955 180.231 -21.5294 180.762C-23.1681 181.297 -24.9501 181.942 -26.6032 182.568C-28.261 183.198 -29.7802 183.805 -30.8934 184.254C-32.0066 184.703 -32.7041 184.999 -32.7041 184.999Z" fill="#008056" fill-opacity="0.24"/>
<path d="M-10.3447 159.396L-2.44745 168.861C-2.44745 168.861 -1.6687 168.803 -0.436092 168.703C0.796515 168.603 2.47343 168.455 4.27456 168.273C6.0757 168.091 7.99149 167.872 9.69707 167.628C11.4027 167.384 12.898 167.117 13.8535 166.83C15.5305 166.338 17.002 165.832 18.2823 165.316C19.558 164.805 20.6472 164.289 21.5645 163.773C22.477 163.257 23.2175 162.741 23.8004 162.234C24.3833 161.728 24.8085 161.226 25.0951 160.739C25.2958 160.4 25.4248 160.07 25.4964 159.745C25.5681 159.42 25.5729 159.105 25.5251 158.799C25.4773 158.493 25.3722 158.197 25.2146 157.911C25.0569 157.629 24.8515 157.356 24.5983 157.094C23.2128 155.66 21.3161 154.762 19.171 154.246C17.0354 153.73 14.6419 153.582 12.2531 153.659C9.85953 153.735 7.46597 154.031 5.32563 154.409C3.18529 154.786 1.30293 155.235 -0.0491123 155.617C-1.08106 155.909 -2.23723 156.286 -3.3934 156.692C-4.54956 157.098 -5.71051 157.533 -6.73768 157.934C-7.76963 158.336 -8.67261 158.699 -9.32235 158.962C-9.95777 159.229 -10.3447 159.396 -10.3447 159.396Z" fill="#008056" fill-opacity="0.24"/>
</svg>
