<svg width="332" height="317" viewBox="0 0 332 317" fill="none" xmlns="http://www.w3.org/2000/svg">
<path d="M300.887 6.10352e-05H123.235C106.445 6.10352e-05 92.8325 13.6083 92.8325 30.3963V252.023C92.8325 268.81 106.445 282.419 123.235 282.419H300.887C317.678 282.419 331.29 268.81 331.29 252.023V30.3963C331.29 13.6083 317.678 6.10352e-05 300.887 6.10352e-05Z" fill="#016642"/>
<path d="M241.791 237.76C241.971 241.915 251.59 249.042 265.391 259.396C279.193 269.75 288.559 278.299 295.798 281.016C303.036 283.732 307.393 280.151 310.118 272.132C312.842 264.113 310.84 248.631 295.072 224.147C279.305 199.661 271.54 191.644 268.655 189.645C265.77 187.645 260.545 183.966 252.74 189.383C251.176 190.469 242.522 196.529 242.522 196.529L224.473 209.705C224.022 214.264 239.061 215.859 239.829 218.888C240.891 223.075 241.723 236.201 241.791 237.76Z" fill="#4BBEA5"/>
<path d="M241.791 237.76C241.971 241.915 251.59 249.042 265.391 259.396C279.193 269.75 288.559 278.299 295.798 281.016C303.036 283.732 307.393 280.151 310.118 272.132C312.842 264.113 310.84 248.631 295.072 224.147C279.305 199.661 271.54 191.644 268.655 189.645C265.77 187.645 260.545 183.966 252.74 189.383C251.176 190.469 242.522 196.529 242.522 196.529L224.473 209.705C224.022 214.264 239.061 215.859 239.829 218.888C240.891 223.075 241.723 236.201 241.791 237.76Z" stroke="#502A73" stroke-width="0.428" stroke-miterlimit="10" stroke-linecap="round" stroke-linejoin="round"/>
<path d="M224.839 211.095C226.875 214.236 233.969 213.61 236.587 215.817C244.792 213.657 257.932 204.516 260.228 198.349C261.953 193.713 261.509 189.666 260.447 186.558C258.232 186.599 255.668 187.351 252.741 189.382C251.177 190.469 242.521 196.528 242.521 196.528L224.537 209.658L224.839 211.095Z" fill="#4BBEA5"/>
<path d="M224.839 211.095C226.875 214.236 233.969 213.61 236.587 215.817C244.792 213.657 257.932 204.516 260.228 198.349C261.953 193.713 261.509 189.666 260.447 186.558C258.232 186.599 255.668 187.351 252.741 189.382C251.177 190.469 242.521 196.528 242.521 196.528L224.537 209.658L224.839 211.095Z" stroke="#502A73" stroke-width="0.428" stroke-miterlimit="10" stroke-linecap="round" stroke-linejoin="round"/>
<path d="M268.655 189.644C265.77 187.645 260.544 183.965 252.74 189.382C251.856 189.996 248.705 192.201 246.134 194C246.269 194.644 246.398 195.323 246.777 195.895C255.284 208.779 274.712 205.125 284.923 223.719C289.177 231.463 282.437 237.763 283.134 245.968C283.832 254.173 298.615 258.816 303.051 264.806C307.798 271.214 303.129 280.316 301.453 281.823C305.45 281.246 308.192 277.799 310.118 272.132C312.842 264.112 310.84 248.631 295.072 224.146C279.304 199.662 271.541 191.643 268.655 189.644Z" fill="#008056"/>
<path d="M268.655 189.644C265.77 187.645 260.544 183.965 252.74 189.382C251.856 189.996 248.705 192.201 246.134 194C246.269 194.644 246.398 195.323 246.777 195.895C255.284 208.779 274.712 205.125 284.923 223.719C289.177 231.463 282.437 237.763 283.134 245.968C283.832 254.173 298.615 258.816 303.051 264.806C307.798 271.214 303.129 280.316 301.453 281.823C305.45 281.246 308.192 277.799 310.118 272.132C312.842 264.112 310.84 248.631 295.072 224.146C279.304 199.662 271.541 191.643 268.655 189.644Z" stroke="#502A73" stroke-width="0.428" stroke-miterlimit="10" stroke-linecap="round" stroke-linejoin="round"/>
<path d="M251.299 213.086C251.727 213.674 252.323 214.492 253.151 215.63C256.096 219.675 261.432 226.12 261.432 226.12L264.733 221.061L251.383 212.353C251.357 212.595 251.328 212.84 251.299 213.086Z" fill="#008056"/>
<path d="M251.299 213.086C251.727 213.674 252.323 214.492 253.151 215.63C256.096 219.675 261.432 226.12 261.432 226.12L264.733 221.061L251.383 212.353C251.357 212.595 251.328 212.84 251.299 213.086Z" stroke="#502A73" stroke-width="0.428" stroke-miterlimit="10" stroke-linecap="round" stroke-linejoin="round"/>
<path d="M309.08 274.785C307.341 274.303 302.26 273.23 297.63 275.545C294.886 276.917 294.446 278.924 295.068 280.725C295.314 280.828 295.557 280.925 295.798 281.016C302.179 283.411 306.322 280.907 309.08 274.785Z" fill="#008056"/>
<path d="M309.08 274.785C307.341 274.303 302.26 273.23 297.63 275.545C294.886 276.917 294.446 278.924 295.068 280.725C295.314 280.828 295.557 280.925 295.798 281.016C302.179 283.411 306.322 280.907 309.08 274.785Z" stroke="#502A73" stroke-width="0.428" stroke-miterlimit="10" stroke-linecap="round" stroke-linejoin="round"/>
<path d="M261.367 248.238L259.961 251.075C261.095 251.934 262.066 252.683 262.741 253.226C263.245 253.633 263.724 254.01 264.177 254.361L265.381 251.932C264.195 250.791 262.807 249.521 261.367 248.238Z" fill="#4BBEA5"/>
<path d="M261.367 248.238L259.961 251.075C261.095 251.934 262.066 252.683 262.741 253.226C263.245 253.633 263.724 254.01 264.177 254.361L265.381 251.932C264.195 250.791 262.807 249.521 261.367 248.238Z" stroke="#502A73" stroke-width="0.428" stroke-miterlimit="10" stroke-linecap="round" stroke-linejoin="round"/>
<path d="M251.047 239.41L246.644 241.232C246.644 241.232 254.922 247.253 259.962 251.074L261.367 248.238C256.491 243.892 251.047 239.41 251.047 239.41Z" fill="#4BBEA5"/>
<path d="M251.047 239.41L246.644 241.232C246.644 241.232 254.922 247.253 259.962 251.074L261.367 248.238C256.491 243.892 251.047 239.41 251.047 239.41Z" stroke="#502A73" stroke-width="0.428" stroke-miterlimit="10" stroke-linecap="round" stroke-linejoin="round"/>
<path d="M268.663 255.504C268.17 254.728 266.955 253.445 265.382 251.932L264.178 254.362C268.644 257.814 270.594 258.536 268.663 255.504Z" fill="#4BBEA5"/>
<path d="M268.663 255.504C268.17 254.728 266.955 253.445 265.382 251.932L264.178 254.362C268.644 257.814 270.594 258.536 268.663 255.504Z" stroke="#502A73" stroke-width="0.428" stroke-miterlimit="10" stroke-linecap="round" stroke-linejoin="round"/>
<path d="M246.128 250.671C246.128 250.671 251.368 265 258.032 267.361C264.696 269.721 266.037 266.718 271.669 260.597C276.832 254.985 273.559 248.586 267.819 244.626C262.078 240.665 251.366 238.16 251.366 238.16L246.128 250.671Z" fill="#4BBEA5"/>
<path d="M246.128 250.671C246.128 250.671 251.368 265 258.032 267.361C264.696 269.721 266.037 266.718 271.669 260.597C276.832 254.985 273.559 248.586 267.819 244.626C262.078 240.665 251.366 238.16 251.366 238.16L246.128 250.671Z" stroke="#502A73" stroke-width="0.428" stroke-miterlimit="10" stroke-linecap="round" stroke-linejoin="round"/>
<path d="M251.643 241.279C254.687 242.021 262.381 244.276 266.41 247.055C268.804 248.707 270.443 250.748 270.907 252.658C271.367 254.548 270.757 256.423 269.095 258.23C268.343 259.047 267.656 259.82 267.052 260.502C266.537 261.081 266.061 261.618 265.608 262.111C262.713 265.258 261.713 265.584 258.477 264.437C255.218 263.283 251.025 256.131 249.175 251.09" fill="#4BBEA5"/>
<path d="M251.643 241.279C254.687 242.021 262.381 244.276 266.41 247.055C268.804 248.707 270.443 250.748 270.907 252.658C271.367 254.548 270.757 256.423 269.095 258.23C268.343 259.047 267.656 259.82 267.052 260.502C266.537 261.081 266.061 261.618 265.608 262.111C262.713 265.258 261.713 265.584 258.477 264.437C255.218 263.283 251.025 256.131 249.175 251.09" stroke="#502A73" stroke-width="0.428" stroke-miterlimit="10" stroke-linecap="round" stroke-linejoin="round"/>
<path d="M152.74 218.345C152.74 218.345 149.945 220.491 145.125 222.556C140.305 224.622 133.46 226.606 131.677 229.521C129.259 233.479 132.649 235.028 137.672 235.028H153.063C153.063 235.028 141.966 247.46 150.39 248.757C158.815 250.052 162.298 239.241 162.298 239.241L179.634 217.049" fill="#BF792A"/>
<path d="M152.74 218.345C152.74 218.345 149.945 220.491 145.125 222.556C140.305 224.622 133.46 226.606 131.677 229.521C129.259 233.479 132.649 235.028 137.672 235.028H153.063C153.063 235.028 141.966 247.46 150.39 248.757C158.815 250.052 162.298 239.241 162.298 239.241L179.634 217.049" stroke="#502A73" stroke-width="0.428" stroke-miterlimit="10" stroke-linecap="round" stroke-linejoin="round"/>
<path d="M139.466 138.533C139.544 139.546 139.622 140.533 139.698 141.485C140.993 157.845 151.929 225.796 151.929 225.796L187.573 214.781L176.738 147.313L139.466 138.533Z" fill="#BF792A"/>
<path d="M139.466 138.533C139.544 139.546 139.622 140.533 139.698 141.485C140.993 157.845 151.929 225.796 151.929 225.796L187.573 214.781L176.738 147.313L139.466 138.533Z" stroke="#502A73" stroke-width="0.428" stroke-miterlimit="10" stroke-linecap="round" stroke-linejoin="round"/>
<path d="M174.774 135.087L157.195 81.9574C157.195 81.9574 145.935 83.4148 140.751 91.8374C136.688 98.439 138.194 122.13 139.466 138.533L176.738 147.313L174.774 135.087Z" fill="white"/>
<path d="M174.774 135.087L157.195 81.9574C157.195 81.9574 145.935 83.4148 140.751 91.8374C136.688 98.439 138.194 122.13 139.466 138.533L176.738 147.313L174.774 135.087Z" stroke="#502A73" stroke-width="0.428" stroke-miterlimit="10" stroke-linecap="round" stroke-linejoin="round"/>
<path d="M237.96 185.138L216.089 155.982L184.657 149.179L180.366 149.451L179.473 147.721L130.948 128.607C130.948 128.607 116.063 122.47 97.1684 122.695C76.7544 122.938 68.4917 146.425 63.1443 169.589C57.7981 192.751 49.1704 243.776 49.1704 243.776C49.1704 243.776 53.5456 255.438 94.5756 260.298C116.875 262.938 119.527 254.344 119.527 254.344C119.527 254.344 123.901 198.583 129.572 191.78C135.242 184.977 178.176 182.223 178.176 182.223L178.361 182.219C172.651 189.025 155.647 209.855 147.231 226.281C137.024 246.205 128.275 262.889 140.426 280.221C152.577 297.554 175.584 292.046 191.948 285.08C204.381 279.788 236.831 265.238 251.701 258.553C256.072 256.59 258.297 251.683 256.898 247.101L237.96 185.138Z" fill="#EEC718"/>
<path d="M237.96 185.138L216.089 155.982L184.657 149.179L180.366 149.451L179.473 147.721L130.948 128.607C130.948 128.607 116.063 122.47 97.1684 122.695C76.7544 122.938 68.4917 146.425 63.1443 169.589C57.7981 192.751 49.1704 243.776 49.1704 243.776C49.1704 243.776 53.5456 255.438 94.5756 260.298C116.875 262.938 119.527 254.344 119.527 254.344C119.527 254.344 123.901 198.583 129.572 191.78C135.242 184.977 178.176 182.223 178.176 182.223L178.361 182.219C172.651 189.025 155.647 209.855 147.231 226.281C137.024 246.205 128.275 262.889 140.426 280.221C152.577 297.554 175.584 292.046 191.948 285.08C204.381 279.788 236.831 265.238 251.701 258.553C256.072 256.59 258.297 251.683 256.898 247.101L237.96 185.138Z" stroke="#502A73" stroke-width="0.428" stroke-miterlimit="10" stroke-linecap="round" stroke-linejoin="round"/>
<path d="M183.183 269.284C179.497 269.284 176.247 268.047 173.965 265.665C170.936 262.506 170.137 257.889 171.828 253.318C173.81 247.955 183.656 234.197 196.321 216.768C200.056 211.631 203.281 207.193 205.256 204.319C212.016 194.491 217.17 178.31 217.222 178.148C217.773 176.404 219.632 175.435 221.38 175.986C223.125 176.537 224.092 178.397 223.543 180.142C223.321 180.842 218.044 197.42 210.719 208.073C208.693 211.018 205.445 215.488 201.684 220.663C192.996 232.618 179.867 250.683 178.044 255.615C177.243 257.784 177.5 259.777 178.75 261.082C180.397 262.799 183.497 263.145 187.044 262.003C209.544 254.767 245.054 232.142 245.41 231.913C246.952 230.929 249.001 231.378 249.987 232.92C250.973 234.461 250.523 236.51 248.981 237.496C247.498 238.444 212.384 260.814 189.074 268.311C187.045 268.964 185.057 269.284 183.183 269.284Z" fill="#EEC718"/>
<path d="M183.183 269.284C179.497 269.284 176.247 268.047 173.965 265.665C170.936 262.506 170.137 257.889 171.828 253.318C173.81 247.955 183.656 234.197 196.321 216.768C200.056 211.631 203.281 207.193 205.256 204.319C212.016 194.491 217.17 178.31 217.222 178.148C217.773 176.404 219.632 175.435 221.38 175.986C223.125 176.537 224.092 178.397 223.543 180.142C223.321 180.842 218.044 197.42 210.719 208.073C208.693 211.018 205.445 215.488 201.684 220.663C192.996 232.618 179.867 250.683 178.044 255.615C177.243 257.784 177.5 259.777 178.75 261.082C180.397 262.799 183.497 263.145 187.044 262.003C209.544 254.767 245.054 232.142 245.41 231.913C246.952 230.929 249.001 231.378 249.987 232.92C250.973 234.461 250.523 236.51 248.981 237.496C247.498 238.444 212.384 260.814 189.074 268.311C187.045 268.964 185.057 269.284 183.183 269.284Z" stroke="#502A73" stroke-width="0.428" stroke-miterlimit="10" stroke-linecap="round" stroke-linejoin="round"/>
<path d="M223.055 222.151C223.055 222.151 209.446 235.028 199.481 242.804L189.518 250.578" stroke="#502A73" stroke-width="0.428" stroke-miterlimit="10" stroke-linecap="round" stroke-linejoin="round"/>
<path d="M178.177 182.223L178.361 182.22C178.361 182.22 183.199 177.445 182.227 173.557C181.255 169.669 177.141 170.115 168.132 169.913C139.293 169.264 120.499 161.003 113.208 167.969C104.423 176.362 102.172 203.836 100.085 217.777C97.727 233.522 96.0112 251.073 95.1802 260.366" stroke="#502A73" stroke-width="0.428" stroke-miterlimit="10" stroke-linecap="round" stroke-linejoin="round"/>
<path d="M235.53 116.134C241.168 112.188 250.113 108.367 252.346 107.44C243.757 102.005 230.281 96.5259 209.932 90.2181C178.582 80.4988 157.196 81.9561 157.196 81.9561C151.363 90.7035 149.904 135.896 149.904 135.896L130.949 128.607C130.949 128.607 136.052 139.541 146.015 146.83C155.98 154.119 180.525 158.249 193.163 164.809C205.8 171.37 200.939 178.173 207.015 186.191C213.09 194.209 221.434 189.026 221.434 189.026C221.434 189.026 224.513 142.214 224.999 134.762C225.485 127.311 229.05 120.669 235.53 116.134Z" fill="white"/>
<path d="M235.53 116.134C241.168 112.188 250.113 108.367 252.346 107.44C243.757 102.005 230.281 96.5259 209.932 90.2181C178.582 80.4988 157.196 81.9561 157.196 81.9561C151.363 90.7035 149.904 135.896 149.904 135.896L130.949 128.607C130.949 128.607 136.052 139.541 146.015 146.83C155.98 154.119 180.525 158.249 193.163 164.809C205.8 171.37 200.939 178.173 207.015 186.191C213.09 194.209 221.434 189.026 221.434 189.026C221.434 189.026 224.513 142.214 224.999 134.762C225.485 127.311 229.05 120.669 235.53 116.134Z" stroke="#502A73" stroke-width="0.428" stroke-miterlimit="10" stroke-linecap="round" stroke-linejoin="round"/>
<path d="M149.905 135.896C149.905 135.896 161.894 141.08 170.237 145.616C178.538 150.127 185.027 154.657 193.568 156.792C206.529 160.032 218.357 159.384 218.357 159.384" stroke="#502A73" stroke-width="0.428" stroke-miterlimit="10" stroke-linecap="round" stroke-linejoin="round"/>
<path d="M169.526 126.315C174.449 124.825 176.967 127.024 176.967 127.024C176.967 127.024 169.852 126.987 166.691 129.794C163.529 132.602 165.796 138.367 169.159 136.257C174.724 132.764 177.628 133.423 177.628 133.423C177.628 133.423 174.376 134.575 172.462 136.901C170.546 139.227 171.079 142.29 173.472 142.94C174.927 143.334 183.176 135.404 181.196 141.077C180.455 143.2 180.027 144.692 179.149 146.384C178.56 147.518 177.504 148.343 176.166 148.955C179.084 150.626 181.88 152.209 184.767 153.575C185.495 153.211 186.12 152.742 186.601 152.135C188.219 150.093 188.309 146.182 188.46 142.823C188.735 136.74 193.35 147.76 194.821 148.068C197.242 148.575 198.85 146.026 197.957 143.026C197.064 140.025 194.521 137.481 194.521 137.481C194.521 137.481 197.411 138.214 201.206 143.955C203.498 147.423 207.678 143.207 205.826 139.195C203.972 135.184 197.47 131.949 197.47 131.949C197.47 131.949 200.572 131.101 204.515 134.72C207.302 137.278 208.863 139.404 209.957 137.957C212.033 135.209 210.803 128.388 202.864 124.367C194.588 120.174 188.388 123.406 187.655 123.748C187.111 123.099 183.912 117.61 174.827 117.633C166.114 117.653 162.49 123.308 163.377 126.768C163.845 128.59 166.047 127.367 169.526 126.315Z" fill="#4BBEA5"/>
<path d="M169.526 126.315C174.449 124.825 176.967 127.024 176.967 127.024C176.967 127.024 169.852 126.987 166.691 129.794C163.529 132.602 165.796 138.367 169.159 136.257C174.724 132.764 177.628 133.423 177.628 133.423C177.628 133.423 174.376 134.575 172.462 136.901C170.546 139.227 171.079 142.29 173.472 142.94C174.927 143.334 183.176 135.404 181.196 141.077C180.455 143.2 180.027 144.692 179.149 146.384C178.56 147.518 177.504 148.343 176.166 148.955C179.084 150.626 181.88 152.209 184.767 153.575C185.495 153.211 186.12 152.742 186.601 152.135C188.219 150.093 188.309 146.182 188.46 142.823C188.735 136.74 193.35 147.76 194.821 148.068C197.242 148.575 198.85 146.026 197.957 143.026C197.064 140.025 194.521 137.481 194.521 137.481C194.521 137.481 197.411 138.214 201.206 143.955C203.498 147.423 207.678 143.207 205.826 139.195C203.972 135.184 197.47 131.949 197.47 131.949C197.47 131.949 200.572 131.101 204.515 134.72C207.302 137.278 208.863 139.404 209.957 137.957C212.033 135.209 210.803 128.388 202.864 124.367C194.588 120.174 188.388 123.406 187.655 123.748C187.111 123.099 183.912 117.61 174.827 117.633C166.114 117.653 162.49 123.308 163.377 126.768C163.845 128.59 166.047 127.367 169.526 126.315Z" stroke="#502A73" stroke-width="0.428" stroke-miterlimit="10" stroke-linecap="round" stroke-linejoin="round"/>
<path d="M217.708 106.375C217.708 106.375 228.644 98.7216 235.449 99.5719C242.254 100.422 247.576 103.595 251.124 103.338C259.508 102.731 265.585 98.3579 265.585 98.3579L258.134 94.71C255.177 93.2607 252.434 91.4098 249.983 89.2077L245.313 85.0101C245.282 84.9849 244.143 84.0279 242.922 83.0008C241.075 81.4494 238.591 80.8906 236.257 81.5057C232.069 82.6096 209.446 89.2456 209.081 90.2175" fill="#4BBEA5"/>
<path d="M217.708 106.375C217.708 106.375 228.644 98.7216 235.449 99.5719C242.254 100.422 247.576 103.595 251.124 103.338C259.508 102.731 265.585 98.3579 265.585 98.3579L258.134 94.71C255.177 93.2607 252.434 91.4098 249.983 89.2077L245.313 85.0101C245.282 84.9849 244.143 84.0279 242.922 83.0008C241.075 81.4494 238.591 80.8906 236.257 81.5057C232.069 82.6096 209.446 89.2456 209.081 90.2175" stroke="#502A73" stroke-width="0.428" stroke-miterlimit="10" stroke-linecap="round" stroke-linejoin="round"/>
<path d="M258.134 94.7096C255.177 93.2614 252.434 91.4094 249.983 89.2085L245.313 85.0109C245.282 84.9856 244.143 84.0275 242.922 83.0016C241.075 81.449 238.591 80.8913 236.257 81.5053C232.069 82.6092 209.446 89.2463 209.081 90.2183L216.993 105.037C219.771 101.79 227.219 93.7904 232.654 94.4698C239.459 95.3201 244.782 98.4929 248.329 98.2359C252.833 97.91 256.669 96.4974 259.256 95.2592L258.134 94.7096Z" fill="#008056"/>
<path d="M258.134 94.7096C255.177 93.2614 252.434 91.4094 249.983 89.2085L245.313 85.0109C245.282 84.9856 244.143 84.0275 242.922 83.0016C241.075 81.449 238.591 80.8913 236.257 81.5053C232.069 82.6092 209.446 89.2463 209.081 90.2183L216.993 105.037C219.771 101.79 227.219 93.7904 232.654 94.4698C239.459 95.3201 244.782 98.4929 248.329 98.2359C252.833 97.91 256.669 96.4974 259.256 95.2592L258.134 94.7096Z" stroke="#502A73" stroke-width="0.428" stroke-miterlimit="10" stroke-linecap="round" stroke-linejoin="round"/>
<path d="M258.134 94.7096C255.177 93.2614 252.434 91.4094 249.983 89.2085L245.313 85.0109C245.282 84.9856 244.143 84.0275 242.922 83.0016C241.075 81.449 238.591 80.8913 236.257 81.5053C232.069 82.6092 209.446 89.2463 209.081 90.2183L216.993 105.037C219.771 101.79 227.219 93.7904 232.654 94.4698C239.459 95.3201 244.782 98.4929 248.329 98.2359C252.833 97.91 256.669 96.4974 259.256 95.2592L258.134 94.7096Z" stroke="#502A73" stroke-width="0.428" stroke-miterlimit="10" stroke-linecap="round" stroke-linejoin="round"/>
<path d="M187.315 89.8124L186.064 90.3264C183.598 91.3385 182.035 93.7885 182.154 96.4495L182.981 114.804C183.113 117.722 185.539 120.007 188.46 119.963L203.333 119.738C204.912 119.715 206.437 119.161 207.663 118.166L225.416 99.7647C227.327 97.7841 227.453 94.687 225.711 92.5572L221.54 87.4623C220.818 86.5798 219.847 85.9338 218.754 85.6091L206.083 81.8395" fill="#008056"/>
<path d="M187.315 89.8124L186.064 90.3264C183.598 91.3385 182.035 93.7885 182.154 96.4495L182.981 114.804C183.113 117.722 185.539 120.007 188.46 119.963L203.333 119.738C204.912 119.715 206.437 119.161 207.663 118.166L225.416 99.7647C227.327 97.7841 227.453 94.687 225.711 92.5572L221.54 87.4623C220.818 86.5798 219.847 85.9338 218.754 85.6091L206.083 81.8395" stroke="#502A73" stroke-width="0.428" stroke-miterlimit="10" stroke-linecap="round" stroke-linejoin="round"/>
<path d="M187.315 89.8124L186.064 90.3264C183.598 91.3385 182.035 93.7885 182.154 96.4495L182.981 114.804C183.113 117.722 185.539 120.007 188.46 119.963L203.333 119.738C204.912 119.715 206.437 119.161 207.663 118.166L225.416 99.7647C227.327 97.7841 227.453 94.687 225.711 92.5572L221.54 87.4623C220.818 86.5798 219.847 85.9338 218.754 85.6091L206.083 81.8395" stroke="#502A73" stroke-width="0.428" stroke-miterlimit="10" stroke-linecap="round" stroke-linejoin="round"/>
<path d="M193.774 102.36L210.979 89.2612C210.387 79.3766 209.143 60.0813 208.106 54.8659C206.436 46.4696 205.273 44.2561 199.843 42.7391C192.502 40.6896 180.227 58.7376 180.227 58.7376C180.227 58.7376 179.769 62.0481 179.305 66.3891C179.264 66.9193 179.042 67.4196 178.677 67.8063L174.653 72.0693C173.991 72.8783 174.333 74.0992 175.319 74.4469L178.221 75.7126C178.835 76.0121 178.744 76.6501 178.077 77.7104C177.136 79.2079 178.607 80.0547 178.941 80.2498C179.539 80.6009 178.625 80.6434 178.464 81.815C178.326 82.8202 178.821 83.1507 178.864 83.744C178.977 85.2392 179.101 85.837 179.216 86.9581C179.384 88.6082 180.653 89.9313 182.296 90.1596L190.865 91.345L192.906 102.755L193.774 102.36Z" fill="#BF792A"/>
<path d="M193.774 102.36L210.979 89.2612C210.387 79.3766 209.143 60.0813 208.106 54.8659C206.436 46.4696 205.273 44.2561 199.843 42.7391C192.502 40.6896 180.227 58.7376 180.227 58.7376C180.227 58.7376 179.769 62.0481 179.305 66.3891C179.264 66.9193 179.042 67.4196 178.677 67.8063L174.653 72.0693C173.991 72.8783 174.333 74.0992 175.319 74.4469L178.221 75.7126C178.835 76.0121 178.744 76.6501 178.077 77.7104C177.136 79.2079 178.607 80.0547 178.941 80.2498C179.539 80.6009 178.625 80.6434 178.464 81.815C178.326 82.8202 178.821 83.1507 178.864 83.744C178.977 85.2392 179.101 85.837 179.216 86.9581C179.384 88.6082 180.653 89.9313 182.296 90.1596L190.865 91.345L192.906 102.755L193.774 102.36Z" stroke="#502A73" stroke-width="0.428" stroke-miterlimit="10" stroke-linecap="round" stroke-linejoin="round"/>
<path d="M187.574 56.4556C191.304 55.09 195.034 52.694 195.034 52.694C195.034 52.694 191.842 56.5508 192.555 57.556C193.269 58.5612 197.233 56.9651 197.348 57.0821C197.464 57.1991 194.535 60.0817 194.735 61.2923C194.934 62.5018 196.684 61.8178 196.797 62.1678C196.911 62.5178 194.24 65.2386 194.489 66.0074C194.738 66.7774 195.643 67.0631 195.643 67.0631C195.643 67.0631 194.715 70.369 197.168 71.5097C199.621 72.6491 200.4 70.9921 200.683 66.5983C200.771 65.2431 201.644 64.2379 202.552 64.612C204.188 65.2856 206.231 68.7258 206.231 68.7258C206.231 68.7258 207.852 74.8959 210.133 75.7485C209.54 67.2605 208.797 58.3421 208.106 54.8651C206.436 46.47 205.273 44.2553 199.843 42.7395C192.502 40.6889 183.232 58.0449 187.574 56.4556Z" fill="#502A73"/>
<path d="M187.574 56.4556C191.304 55.09 195.034 52.6941 195.034 52.6941C195.034 52.6941 191.842 56.5508 192.555 57.556C193.269 58.5612 197.233 56.9651 197.348 57.0821C197.464 57.1991 194.535 60.0817 194.735 61.2923C194.934 62.5018 196.684 61.8178 196.797 62.1678C196.911 62.5178 194.24 65.2386 194.489 66.0074C194.738 66.7774 195.643 67.0631 195.643 67.0631C195.643 67.0631 194.715 70.369 197.168 71.5097C199.621 72.6491 200.4 70.9921 200.683 66.5983C200.771 65.2431 201.644 64.2379 202.552 64.612C204.188 65.2856 206.231 68.7258 206.231 68.7258C206.231 68.7258 207.852 74.8959 210.133 75.7485C209.54 67.2605 208.797 58.3421 208.106 54.8651C206.436 46.47 205.273 44.2553 199.843 42.7395C192.502 40.6889 183.232 58.0449 187.574 56.4556Z" stroke="#502A73" stroke-width="0.428" stroke-miterlimit="10" stroke-linecap="round" stroke-linejoin="round"/>
<path d="M187.574 56.4556C191.304 55.09 195.034 52.6941 195.034 52.6941C195.034 52.6941 191.842 56.5508 192.555 57.556C193.269 58.5612 197.233 56.9651 197.348 57.0821C197.464 57.1991 194.535 60.0817 194.735 61.2923C194.934 62.5018 196.684 61.8178 196.797 62.1678C196.911 62.5178 194.24 65.2386 194.489 66.0074C194.738 66.7774 195.643 67.0631 195.643 67.0631C195.643 67.0631 194.715 70.369 197.168 71.5097C199.621 72.6491 200.4 70.9921 200.683 66.5983C200.771 65.2431 201.644 64.2379 202.552 64.612C204.188 65.2856 206.231 68.7258 206.231 68.7258C206.231 68.7258 207.852 74.8959 210.133 75.7485C209.54 67.2605 208.797 58.3421 208.106 54.8651C206.436 46.47 205.273 44.2553 199.843 42.7395C192.502 40.6889 183.232 58.0449 187.574 56.4556Z" stroke="#502A73" stroke-width="0.428" stroke-miterlimit="10" stroke-linecap="round" stroke-linejoin="round"/>
<path d="M200.535 42.8054C196.032 41.5913 188.789 41.9471 183.926 46.7826C180.696 49.9933 180.228 56.7487 180.224 58.3885L208.959 61.6692C208.959 61.6692 211.471 45.7545 200.535 42.8054Z" fill="#008056"/>
<path d="M200.535 42.8054C196.032 41.5913 188.789 41.9471 183.926 46.7826C180.696 49.9933 180.228 56.7487 180.224 58.3885L208.959 61.6692C208.959 61.6692 211.471 45.7545 200.535 42.8054Z" stroke="#502A73" stroke-width="0.428" stroke-miterlimit="10" stroke-linecap="round" stroke-linejoin="round"/>
<path d="M201.255 67.8143C201.327 66.9755 201.487 66.2434 201.739 65.7511C202.742 63.7831 204.877 62.8605 206.845 63.8646C208.813 64.8675 209.231 67.1533 208.695 69.2969C208.195 71.2958 207.105 73.0377 205.897 73.989C204.973 74.7154 203.98 74.9805 203.127 74.5467" fill="#BF792A"/>
<path d="M201.255 67.8143C201.327 66.9755 201.487 66.2434 201.739 65.7511C202.742 63.7831 204.877 62.8605 206.845 63.8646C208.813 64.8675 209.231 67.1533 208.695 69.2969C208.195 71.2958 207.105 73.0377 205.897 73.989C204.973 74.7154 203.98 74.9805 203.127 74.5467" stroke="#502A73" stroke-width="0.428" stroke-miterlimit="10" stroke-linecap="round" stroke-linejoin="round"/>
<path d="M200.426 72.9013C200.426 72.9013 199.75 74.0743 198.525 74.1111C197.301 74.1478 196.025 72.8359 196.025 72.8359" stroke="#502A73" stroke-width="0.428" stroke-miterlimit="10" stroke-linecap="round" stroke-linejoin="round"/>
<path d="M200.238 74.9843C200.238 74.9843 199.562 76.1573 198.337 76.1941C197.113 76.2308 195.837 74.9189 195.837 74.9189" stroke="#502A73" stroke-width="0.428" stroke-miterlimit="10" stroke-linecap="round" stroke-linejoin="round"/>
<path d="M203.213 68.1216C203.213 68.1216 203.799 65.8139 205.732 66.7996C206.985 67.4388 206.612 69.5422 205.414 70.1377C204.749 70.467 203.786 70.1251 203.786 70.1251C203.786 70.1251 204.414 70.63 204.071 71.2669C203.639 72.0701 202.758 71.3598 202.758 71.3598" fill="#BF792A"/>
<path d="M203.213 68.1216C203.213 68.1216 203.799 65.8139 205.732 66.7996C206.985 67.4388 206.612 69.5422 205.414 70.1377C204.749 70.467 203.786 70.1251 203.786 70.1251C203.786 70.1251 204.414 70.63 204.071 71.2669C203.639 72.0701 202.758 71.3598 202.758 71.3598" stroke="#502A73" stroke-width="0.428" stroke-miterlimit="10" stroke-linecap="round" stroke-linejoin="round"/>
<path d="M178.941 80.2496C178.941 80.2496 180.924 81.146 182.669 81.1001C184.484 81.0519 185.371 80.532 185.371 80.532" stroke="#502A73" stroke-width="0.428" stroke-miterlimit="10" stroke-linecap="round" stroke-linejoin="round"/>
<path d="M185.506 66.1692C186.187 66.0269 186.894 66.0843 187.542 66.3345" stroke="#502A73" stroke-width="0.856" stroke-miterlimit="10" stroke-linecap="round" stroke-linejoin="round"/>
<path d="M185.805 66.1678C185.579 66.5179 185.401 67.1078 185.356 67.661C185.285 68.5322 185.572 68.9775 185.968 69.0097C186.364 69.0418 186.718 68.6481 186.79 67.7781C186.834 67.2249 186.754 66.6131 186.588 66.2309L185.805 66.1678Z" fill="#502A73"/>
<path d="M179.108 65.6499C179.789 65.5076 180.496 65.565 181.144 65.8152" stroke="#502A73" stroke-width="0.856" stroke-miterlimit="10" stroke-linecap="round" stroke-linejoin="round"/>
<path d="M179.406 65.6485C179.18 65.9986 179.002 66.5885 178.958 67.1418C178.886 68.0129 179.173 68.4582 179.569 68.4904C179.965 68.5225 180.32 68.1288 180.391 67.2588C180.436 66.7056 180.356 66.0939 180.189 65.7117L179.406 65.6485Z" fill="#502A73"/>
<path d="M183.502 63.3178C183.659 63.6781 184.101 63.8262 184.436 63.6196C185.008 63.2673 185.941 62.8816 187.047 63.1479C187.652 63.2936 188.092 63.4784 188.412 63.6598C188.786 63.8733 189.252 63.6047 189.274 63.1743C189.282 62.9998 189.212 62.8323 189.083 62.714C188.428 62.1069 186.257 60.4713 183.693 62.5396C183.463 62.7255 183.382 63.0457 183.502 63.3178Z" fill="#502A73"/>
<path d="M188.166 79.78C188.913 80.0406 189.453 79.6974 189.453 79.6974C189.453 79.6974 187.209 77.3078 186.557 76.937C185.905 76.5652 184.162 76.6489 181.649 76.7683C180.301 76.8326 179.284 76.6053 178.627 76.3804C178.613 76.7155 178.428 77.1528 178.077 77.7095C178.017 77.8059 177.967 77.9 177.925 77.9918C178.591 78.265 179.637 78.607 180.922 78.731C183.183 78.9502 185.819 78.6231 186.037 78.5783C186.154 78.5531 187.28 79.4713 188.166 79.78Z" fill="#502A73"/>
<path d="M188.166 79.78C188.913 80.0406 189.453 79.6974 189.453 79.6974C189.453 79.6974 187.209 77.3078 186.557 76.937C185.905 76.5652 184.162 76.6489 181.649 76.7683C180.301 76.8326 179.284 76.6053 178.627 76.3804C178.613 76.7155 178.428 77.1528 178.077 77.7095C178.017 77.8059 177.967 77.9 177.925 77.9918C178.591 78.265 179.637 78.607 180.922 78.731C183.183 78.9502 185.819 78.6231 186.037 78.5783C186.154 78.5531 187.28 79.4713 188.166 79.78Z" stroke="#502A73" stroke-width="0.428" stroke-miterlimit="10" stroke-linecap="round" stroke-linejoin="round"/>
<path d="M188.166 79.78C188.913 80.0406 189.453 79.6974 189.453 79.6974C189.453 79.6974 187.209 77.3078 186.557 76.937C185.905 76.5652 184.162 76.6489 181.649 76.7683C180.301 76.8326 179.284 76.6053 178.627 76.3804C178.613 76.7155 178.428 77.1528 178.077 77.7095C178.017 77.8059 177.967 77.9 177.925 77.9918C178.591 78.265 179.637 78.607 180.922 78.731C183.183 78.9502 185.819 78.6231 186.037 78.5783C186.154 78.5531 187.28 79.4713 188.166 79.78Z" stroke="#502A73" stroke-width="0.428" stroke-miterlimit="10" stroke-linecap="round" stroke-linejoin="round"/>
<path d="M180.756 61.6448C180.429 61.522 180.134 61.4979 179.871 61.53L179.688 63.0508C179.835 63.0129 179.995 62.9922 180.174 63.0152C180.56 63.0646 180.929 63.239 181.218 63.4158C181.546 63.6155 181.971 63.495 182.146 63.1541C182.279 62.8912 182.222 62.5745 182.007 62.3725C181.773 62.1532 181.385 61.8812 180.756 61.6448Z" fill="#502A73"/>
<path d="M186.48 54.805C172.628 46.7266 159.506 51.2615 165.651 56.4207C170.744 60.6975 199.664 60.5758 199.664 60.5758C199.664 60.5758 191.551 57.7621 186.48 54.805Z" fill="#502A73"/>
<path d="M186.48 54.805C172.628 46.7266 159.506 51.2615 165.651 56.4207C170.744 60.6975 199.664 60.5758 199.664 60.5758C199.664 60.5758 191.551 57.7621 186.48 54.805Z" stroke="#502A73" stroke-width="0.428" stroke-miterlimit="10" stroke-linecap="round" stroke-linejoin="round"/>
<path d="M186.48 54.805C172.628 46.7266 159.506 51.2615 165.651 56.4207C170.744 60.6975 199.664 60.5758 199.664 60.5758C199.664 60.5758 191.551 57.7621 186.48 54.805Z" stroke="#502A73" stroke-width="0.428" stroke-miterlimit="10" stroke-linecap="round" stroke-linejoin="round"/>
<path d="M249.169 263.213C251.636 250.269 255.948 216.859 259.994 184.976C260.624 180.017 261.249 175.093 261.834 170.29C262.131 167.845 262.418 165.433 262.689 163.063C258.234 166.254 249.596 170.937 237.474 170.722C229.332 170.579 224.996 168.947 222.838 167.681C222.707 169.669 222.58 171.611 222.458 173.462C221.88 182.259 221.434 189.026 221.434 189.026C217.893 205.696 218.501 240.599 218.775 256.277C218.817 258.664 217.727 260.93 215.829 262.379C213.802 263.925 211.266 266.171 209.931 268.559C206.212 275.214 205.692 283.664 203.775 286.538C200.535 291.398 203.126 295.771 209.608 293.827C216.088 291.884 220.138 284.595 220.138 284.595C220.138 284.595 226.335 299.416 234.356 302.696C240.127 305.057 243.307 302.088 243.307 302.088C243.307 302.088 246.629 304.143 249.949 303.385C253.493 302.575 254.526 300.085 254.526 300.085C254.526 300.085 257.747 302.088 261.453 300.793C264.31 299.794 263.579 296.379 263.579 296.379C263.579 296.379 268.744 296.42 268.582 293.018C268.42 289.616 263.883 285.081 257.726 278.116C253.516 273.354 250.595 266.851 249.169 263.213Z" fill="#BF792A"/>
<path d="M249.169 263.213C251.636 250.269 255.948 216.859 259.994 184.976C260.624 180.017 261.249 175.093 261.834 170.29C262.131 167.845 262.418 165.433 262.689 163.063C258.234 166.254 249.596 170.937 237.474 170.722C229.332 170.579 224.996 168.947 222.838 167.681C222.707 169.669 222.58 171.611 222.458 173.462C221.88 182.259 221.434 189.026 221.434 189.026C217.893 205.696 218.501 240.599 218.775 256.277C218.817 258.664 217.727 260.93 215.829 262.379C213.802 263.925 211.266 266.171 209.931 268.559C206.212 275.214 205.692 283.664 203.775 286.538C200.535 291.398 203.126 295.771 209.608 293.827C216.088 291.884 220.138 284.595 220.138 284.595C220.138 284.595 226.335 299.416 234.356 302.696C240.127 305.057 243.307 302.088 243.307 302.088C243.307 302.088 246.629 304.143 249.949 303.385C253.493 302.575 254.526 300.085 254.526 300.085C254.526 300.085 257.747 302.088 261.453 300.793C264.31 299.794 263.579 296.379 263.579 296.379C263.579 296.379 268.744 296.42 268.582 293.018C268.42 289.616 263.883 285.081 257.726 278.116C253.516 273.354 250.595 266.851 249.169 263.213Z" stroke="#502A73" stroke-width="0.428" stroke-miterlimit="10" stroke-linecap="round" stroke-linejoin="round"/>
<path d="M262.69 163.063C265.232 140.848 266.424 122.297 262.304 116.337C260.205 113.302 256.989 110.377 252.346 107.44C250.114 108.367 241.169 112.189 235.53 116.134C229.05 120.67 225.485 127.311 225 134.763C224.737 138.785 223.72 154.275 222.838 167.681C224.996 168.947 229.332 170.579 237.475 170.722C249.596 170.937 258.234 166.254 262.69 163.063Z" fill="white"/>
<path d="M262.69 163.063C265.232 140.848 266.424 122.297 262.304 116.337C260.205 113.302 256.989 110.377 252.346 107.44C250.114 108.367 241.169 112.189 235.53 116.134C229.05 120.67 225.485 127.311 225 134.763C224.737 138.785 223.72 154.275 222.838 167.681C224.996 168.947 229.332 170.579 237.475 170.722C249.596 170.937 258.234 166.254 262.69 163.063Z" stroke="#502A73" stroke-width="0.428" stroke-miterlimit="10" stroke-linecap="round" stroke-linejoin="round"/>
<path d="M230.57 213.43C230.57 213.43 233.342 215.093 240.273 215.786C247.205 216.479 252.611 215.786 252.611 215.786C252.611 215.786 247.205 218.974 242.214 221.052C237.224 223.131 231.54 224.794 231.54 224.794C231.54 224.794 232.511 226.942 239.58 227.74C246.65 228.536 247.62 228.536 247.62 228.536L234.287 237.267" stroke="#502A73" stroke-width="0.428" stroke-miterlimit="10" stroke-linecap="round" stroke-linejoin="round"/>
<path d="M233.96 285.751C234.778 286.868 235.812 288.175 237.058 289.55C240.898 293.788 244.593 298.958 243.307 302.088" fill="#BF792A"/>
<path d="M233.96 285.751C234.778 286.868 235.812 288.175 237.058 289.55C240.898 293.788 244.593 298.958 243.307 302.088" stroke="#502A73" stroke-width="0.428" stroke-miterlimit="10" stroke-linecap="round" stroke-linejoin="round"/>
<path d="M254.526 300.084C254.526 300.084 255.255 299.416 253.737 295.711C252.959 293.814 247.591 287.95 244.274 284.432" fill="#BF792A"/>
<path d="M254.526 300.084C254.526 300.084 255.255 299.416 253.737 295.711C252.959 293.814 247.591 287.95 244.274 284.432" stroke="#502A73" stroke-width="0.428" stroke-miterlimit="10" stroke-linecap="round" stroke-linejoin="round"/>
<path d="M263.579 296.379C263.579 296.379 263.033 293.95 261.028 291.276C259.887 289.756 257.368 287.253 255.053 284.676C253.3 282.724 251.489 280.384 251.489 280.384" fill="#BF792A"/>
<path d="M263.579 296.379C263.579 296.379 263.033 293.95 261.028 291.276C259.887 289.756 257.368 287.253 255.053 284.676C253.3 282.724 251.489 280.384 251.489 280.384" stroke="#502A73" stroke-width="0.428" stroke-miterlimit="10" stroke-linecap="round" stroke-linejoin="round"/>
<path d="M223.703 190.483C223.703 190.483 229.536 194.047 236.665 194.533C243.793 195.019 247.844 193.238 247.844 193.238" stroke="#502A73" stroke-width="0.428" stroke-miterlimit="10" stroke-linecap="round" stroke-linejoin="round"/>
<path d="M57.2719 252.335C57.2719 252.335 43.026 243.564 47.3484 235.893C50.5885 230.143 55.7018 230.181 68.0861 231.682C79.4397 233.059 82.1862 241.495 79.7484 249.503C77.3106 257.51 76.669 261.115 76.669 261.115L30.7679 294.185L23.1216 287.29L57.2719 252.335Z" fill="#4BBEA5"/>
<path d="M57.2719 252.335C57.2719 252.335 43.026 243.564 47.3484 235.893C50.5885 230.143 55.7018 230.181 68.0861 231.682C79.4397 233.059 82.1862 241.495 79.7484 249.503C77.3106 257.51 76.669 261.115 76.669 261.115L30.7679 294.185L23.1216 287.29L57.2719 252.335Z" stroke="#502A73" stroke-width="0.428" stroke-miterlimit="10" stroke-linecap="round" stroke-linejoin="round"/>
<path d="M73.8638 257.992C76.5117 255.015 74.044 253.907 75.7542 248.288C76.7711 244.948 76.5565 241.81 75.1665 239.677C73.7904 237.565 71.2389 236.27 67.5833 235.827C65.9294 235.626 64.3937 235.417 63.0393 235.234C61.8881 235.077 60.8207 234.932 59.8245 234.811C53.459 234.039 50.8318 235.003 49.5601 237.983C48.1105 241.382 54.5976 244.816 58.3439 249.581C59.44 250.976 60.2423 252.587 60.6566 254.312C60.7324 254.632 60.7966 254.958 60.8357 255.271" fill="#4BBEA5"/>
<path d="M73.8638 257.992C76.5117 255.015 74.044 253.907 75.7542 248.288C76.7711 244.948 76.5565 241.81 75.1665 239.677C73.7904 237.565 71.2389 236.27 67.5833 235.827C65.9294 235.626 64.3937 235.417 63.0393 235.234C61.8881 235.077 60.8207 234.932 59.8245 234.811C53.459 234.039 50.8318 235.003 49.5601 237.983C48.1105 241.382 54.5976 244.816 58.3439 249.581C59.44 250.976 60.2423 252.587 60.6566 254.312C60.7324 254.632 60.7966 254.958 60.8357 255.271" stroke="#502A73" stroke-width="0.428" stroke-miterlimit="10" stroke-linecap="round" stroke-linejoin="round"/>
<path d="M76.2726 257.119L55.2549 254.57" stroke="#502A73" stroke-width="0.428" stroke-miterlimit="10" stroke-linecap="round" stroke-linejoin="round"/>
<path d="M49.188 260.58L70.2057 263.129" stroke="#502A73" stroke-width="0.428" stroke-miterlimit="10" stroke-linecap="round" stroke-linejoin="round"/>
<path d="M43.1211 266.59L64.1388 269.14" stroke="#502A73" stroke-width="0.428" stroke-miterlimit="10" stroke-linecap="round" stroke-linejoin="round"/>
<path d="M37.0547 272.6L58.0724 275.15" stroke="#502A73" stroke-width="0.428" stroke-miterlimit="10" stroke-linecap="round" stroke-linejoin="round"/>
<path d="M30.9888 278.611L52.0065 281.16" stroke="#502A73" stroke-width="0.428" stroke-miterlimit="10" stroke-linecap="round" stroke-linejoin="round"/>
<path d="M54.6999 250.533C54.6999 250.533 41.8129 260.03 31.5416 269.255C17.8478 281.555 6.96016 289.588 2.6182 296.6C-1.72261 303.613 1.12497 308.913 8.95611 313.423C16.7872 317.934 33.4079 319.04 62.3026 307.606C91.1974 296.172 101.198 289.706 103.887 287.101C106.577 284.495 111.51 279.788 107.453 270.501C106.64 268.64 105.355 265.35 105.355 265.35L100.693 260.758C99.3958 260.555 92.0651 260.88 86.5731 254.882C84.7286 252.867 82.5663 250.709 79.2366 250.887C74.6341 251.132 68.0345 256.285 59.6995 263.456C56.1036 266.548 39.9398 281.429 36.2119 284.865C35.7608 285.28 35.0836 285.329 34.5763 284.984C33.9095 284.532 33.7981 283.594 34.3433 283C36.9418 280.167 43.9512 272.623 49.4156 267.653C51.8546 265.435 54.561 262.565 56.2448 260.728C57.3191 259.555 58.0709 258.124 58.4301 256.574C58.8869 254.599 58.0261 252.555 56.293 251.501L54.6999 250.533Z" fill="#4BBEA5"/>
<path d="M54.6999 250.533C54.6999 250.533 41.8129 260.03 31.5416 269.255C17.8478 281.555 6.96016 289.588 2.6182 296.6C-1.72261 303.613 1.12497 308.913 8.95611 313.423C16.7872 317.934 33.4079 319.04 62.3026 307.606C91.1974 296.172 101.198 289.706 103.887 287.101C106.577 284.495 111.51 279.788 107.453 270.501C106.64 268.64 105.355 265.35 105.355 265.35L100.693 260.758C99.3958 260.555 92.0651 260.88 86.5731 254.882C84.7286 252.867 82.5663 250.709 79.2366 250.887C74.6341 251.132 68.0345 256.285 59.6995 263.456C56.1036 266.548 39.9398 281.429 36.2119 284.865C35.7608 285.28 35.0836 285.329 34.5763 284.984C33.9095 284.532 33.7981 283.594 34.3433 283C36.9418 280.167 43.9512 272.623 49.4156 267.653C51.8546 265.435 54.561 262.565 56.2448 260.728C57.3191 259.555 58.0709 258.124 58.4301 256.574C58.8869 254.599 58.0261 252.555 56.293 251.501L54.6999 250.533Z" stroke="#502A73" stroke-width="0.428" stroke-miterlimit="10" stroke-linecap="round" stroke-linejoin="round"/>
<path d="M104.041 260.809C102.393 260.83 100.575 260.758 98.5654 260.568C99.5445 264.471 101.788 272.065 105.948 277.02C106.92 278.179 107.793 279.22 108.584 280.162C109.279 277.66 109.203 274.508 107.454 270.502C106.954 269.359 105.269 264.44 104.041 260.809Z" fill="#4BBEA5"/>
<path d="M104.041 260.809C102.393 260.83 100.575 260.758 98.5654 260.568C99.5445 264.471 101.788 272.065 105.948 277.02C106.92 278.179 107.793 279.22 108.584 280.162C109.279 277.66 109.203 274.508 107.454 270.502C106.954 269.359 105.269 264.44 104.041 260.809Z" stroke="#502A73" stroke-width="0.428" stroke-miterlimit="10" stroke-linecap="round" stroke-linejoin="round"/>
<path d="M103.813 271.596C95.7235 269.22 92.2951 272.713 88.9046 276.489C85.5142 280.267 82.8112 292.783 73.6211 294.879C64.4299 296.976 61.4285 289.492 52.6424 289.403C43.8552 289.315 36.5658 303.369 30.6193 308.65C24.6728 313.932 12.7178 307.737 12.7178 307.737L12.9049 315.13C21.8378 317.989 37.5713 317.393 62.3031 307.606C91.1967 296.173 101.197 289.706 103.887 287.102C105.851 285.198 109.009 282.172 108.99 277.061C108.593 274.838 107.261 272.61 103.813 271.596Z" fill="#008056"/>
<path d="M103.813 271.596C95.7235 269.22 92.2951 272.713 88.9046 276.489C85.5142 280.267 82.8112 292.783 73.6211 294.879C64.4299 296.976 61.4285 289.492 52.6424 289.403C43.8552 289.315 36.5658 303.369 30.6193 308.65C24.6728 313.932 12.7178 307.737 12.7178 307.737L12.9049 315.13C21.8378 317.989 37.5713 317.393 62.3031 307.606C91.1967 296.173 101.197 289.706 103.887 287.102C105.851 285.198 109.009 282.172 108.99 277.061C108.593 274.838 107.261 272.61 103.813 271.596Z" stroke="#502A73" stroke-width="0.428" stroke-miterlimit="10" stroke-linecap="round" stroke-linejoin="round"/>
<path d="M7.03402 300.486C3.6183 300.242 1.73254 301.964 0.697266 304.102C1.27459 307.64 4.18989 310.678 8.95537 313.423C11.6216 314.958 15.3082 316.098 20.1494 316.483C18.608 309.372 14.4164 301.015 7.03402 300.486Z" fill="#008056"/>
<path d="M7.03402 300.486C3.6183 300.242 1.73254 301.964 0.697266 304.102C1.27459 307.64 4.18989 310.678 8.95537 313.423C11.6216 314.958 15.3082 316.098 20.1494 316.483C18.608 309.372 14.4164 301.015 7.03402 300.486Z" stroke="#502A73" stroke-width="0.428" stroke-miterlimit="10" stroke-linecap="round" stroke-linejoin="round"/>
<path d="M91.8272 262.312C91.1237 262.638 90.1435 263.092 88.7811 263.723C83.9364 265.968 76.0869 270.218 76.0869 270.218L80.6997 274.719L92.5779 262.552C92.33 262.473 92.0797 262.393 91.8272 262.312Z" fill="#008056"/>
<path d="M91.8272 262.312C91.1237 262.638 90.1435 263.092 88.7811 263.723C83.9364 265.968 76.0869 270.218 76.0869 270.218L80.6997 274.719L92.5779 262.552C92.33 262.473 92.0797 262.393 91.8272 262.312Z" stroke="#502A73" stroke-width="0.428" stroke-miterlimit="10" stroke-linecap="round" stroke-linejoin="round"/>
<path d="M299.18 80.3768V77.4062H301.519C302.882 77.4062 303.612 78.6721 303.612 79.7925C303.612 80.9611 303.272 82.0323 301.664 82.2762V88.8509C307.705 88.4613 309.848 84.1756 309.848 79.6951C309.848 75.0189 307.266 70.7332 301.42 70.8797H293.188V79.3538C293.188 81.8375 292.019 84.6143 288.999 84.6143C286.027 84.6143 284.858 82.0323 284.858 79.3538V65.0841C284.858 57.9734 291.629 57.5347 294.649 59.9702L298.157 54.9054C290.363 49.6941 278.379 53.1024 278.379 65.3763V79.7925C278.379 85.0521 281.887 91.189 288.999 91.189C296.111 91.189 299.18 85.0038 299.18 80.3768Z" fill="white"/>
<path d="M270 70.7822H275.602V64.1102H270V70.7822Z" fill="white"/>
<path d="M270 80.4258H275.602V73.8019H270V80.4258Z" fill="white"/>
<path d="M293.237 112.765V108.625C293.237 105.751 295.429 104.096 297.865 104.096C300.105 104.096 302.59 105.751 302.59 108.625V112.765H293.237ZM297.865 97.3256C291.629 97.3256 286.758 102.294 286.758 108.819V112.473C284.127 111.352 284.078 107.943 284.078 106.774V106.677C284.078 105.119 284.42 103.56 284.76 102.44L278.963 104.144C278.671 105.167 278.428 106.823 278.428 108.138C278.428 113.106 280.815 119.389 288.463 119.389H308.436V108.819C308.436 101.807 303.954 97.3256 297.865 97.3256Z" fill="white"/>
<path d="M318.324 163.661H312.673V170.284H318.324V163.661Z" fill="white"/>
<path d="M308.435 165.073H296.159C294.259 165.073 293.237 164.001 293.237 162.248V156.744V156.501V148.318V147.881V139.892V139.455V135.704C293.237 133.999 294.259 132.928 296.159 132.928H318.324V126.402H296.549C293.773 126.402 286.757 126.986 286.757 135.169V139.455V139.892V147.881V148.318V156.501V156.744V162.832C286.757 171.015 293.773 171.648 296.549 171.648H308.435V165.073Z" fill="white"/>
</svg>
