<svg width="118" height="108" viewBox="0 0 118 108" fill="none" xmlns="http://www.w3.org/2000/svg">
<g clip-path="url(#clip0_33_8912)">
<path d="M38.024 103.589C37.6101 103.845 37.0204 103.708 36.811 103.218C36.6968 102.952 36.7693 103.075 36.7484 97.5542H38.4429V96.9185H36.7484V94.3267H36.3186C36.0059 95.927 35.594 97.1806 33.9402 97.1806V97.5542H35.2485C35.2763 102.982 35.183 103.054 35.3369 103.621C35.5185 104.279 35.9791 104.667 36.7266 104.667C37.6706 104.667 38.3427 104.257 38.7606 103.536L38.3873 103.281C38.2841 103.405 38.162 103.508 38.024 103.589ZM24.5397 94.0836C25.1204 95.1777 26.8804 94.1165 25.9373 93.2565C25.2345 92.6586 24.1843 93.3621 24.5397 94.0836ZM28.819 98.2747C28.819 97.2184 31.0267 96.493 32.3579 98.6633L32.9068 98.1681C32.3986 97.4984 31.8099 96.9504 30.985 96.8169C28.9888 96.492 27.7003 97.5901 27.7003 98.8825C27.7003 100.408 29.0861 100.932 30.4649 101.573C32.8502 102.673 31.4814 104.571 29.7293 104.063C29.0593 103.864 28.5669 103.284 28.1579 102.704L27.5445 103.261C27.9246 103.761 28.3753 104.167 28.9491 104.408C29.9566 104.845 31.6422 104.748 32.5058 104.006C33.3168 103.314 33.6037 101.848 32.5326 100.921C31.3543 99.871 28.819 99.6408 28.819 98.2747ZM43.3199 96.7641C42.4443 96.7641 41.6532 97.627 41.1588 98.3524V96.9185H39.6669V104.504H41.1588V99.2502C41.3286 98.9732 41.5509 98.6414 41.7743 98.4052C42.1803 97.9857 42.4632 97.9897 42.9437 98.2428C43.441 98.5168 44.0028 98.4391 44.2599 98.2279C44.5736 97.9698 44.5945 97.3828 44.1468 97.0361C43.9065 96.8478 43.6177 96.7641 43.3199 96.7641ZM13.2789 93.2575C12.9245 93.5764 12.9533 94.0358 13.2789 94.3247C14.078 95.0252 15.297 93.975 14.4899 93.2575C14.1762 92.9825 13.6481 92.9426 13.2789 93.2575ZM17.9682 98.3036V96.9185H16.4713V104.504H17.9682V98.8825C19.5654 97.335 21.2976 97.3948 21.2976 99.314V104.504H22.8025V99.0589C22.8025 98.4232 22.5841 97.8472 22.2436 97.4347C21.1428 96.0994 19.1991 96.9205 17.9682 98.3036ZM5.57282 102.217H5.49539L1.68157 94.6665H0V104.504H0.724645V96.503H0.837809L4.90376 104.504H5.24127L9.25858 96.4462H9.31417V104.504H10.9679V94.6665H9.31417M24.5972 97.1965V104.504H26.0882V96.7641H25.6514M13.1498 97.1965V104.504H14.6408V96.7641H14.205M103.328 93.4648V104.504H104.826V93.0363H104.398M109.946 103.589C109.523 103.845 108.935 103.704 108.732 103.218C108.616 102.955 108.689 103.095 108.668 97.5542H110.364V96.9185H108.668V94.3267H108.239C107.927 95.944 107.508 97.1806 105.86 97.1806V97.5542H107.17C107.198 102.991 107.106 103.047 107.256 103.621C107.37 104.03 107.595 104.363 107.989 104.539C108.452 104.752 109.314 104.707 109.878 104.362C110.212 104.162 110.479 103.886 110.681 103.536L110.307 103.281C110.204 103.405 110.084 103.508 109.946 103.589ZM100.653 97.3141C99.871 96.6724 98.3125 96.6724 97.3963 96.9016C94.9305 97.5104 95.26 99.4256 96.3053 99.4256C96.8781 99.4256 97.0518 98.9862 97.0518 98.4162C97.0518 98.1312 97.1034 97.8442 97.2881 97.626C97.6345 97.2095 98.4356 97.2005 98.8912 97.3609C99.2992 97.5054 99.5285 97.8382 99.6466 98.2508C99.7787 98.7301 99.7499 99.6976 99.7469 99.597C98.653 99.871 97.6881 100.129 96.7322 100.64C93.3938 102.439 96.1485 106.415 99.2228 103.882C99.3925 103.743 99.5682 103.603 99.7469 103.466V104.504H101.253C101.208 98.6025 101.489 98.0036 100.653 97.3141ZM99.7469 102.914C99.326 103.231 98.9359 103.533 98.4356 103.681C97.1868 104.056 96.4036 102.711 96.8612 101.863C97.3327 100.985 98.8068 100.391 99.7469 100.083V102.914ZM117.765 98.1661C117.006 95.9978 114.617 96.5777 113.085 98.3036V93.0363H112.657L111.588 93.4648V104.504H113.085V98.8825C114.658 97.35 116.415 97.3799 116.415 99.314V104.504H117.914C117.869 99.018 118.022 98.8915 117.765 98.1661ZM58.4789 97.9468C56.0895 100.399 57.6202 104.667 61.3457 104.667C64.9322 104.667 66.6376 100.163 64.2016 97.8472C62.7136 96.4412 60.0493 96.3266 58.4789 97.9468ZM63.4988 102.364C63.2387 103.275 62.5696 104.11 61.6266 104.11C58.9196 104.11 58.1106 98.8775 60.2478 97.5473C60.9943 97.0829 62.3612 97.3181 63.0481 98.48C63.6586 99.5163 63.7876 101.355 63.4988 102.364ZM49.3205 102.4L46.4021 96.9265H44.6927L48.5611 104.15C47.9636 105.49 47.7442 106.151 47.2598 106.509C47.0166 106.69 46.6642 106.662 46.5004 106.592C46.2611 106.492 46.2611 106.449 46.01 106.351C45.4412 106.138 44.7404 106.491 44.7404 107.125C44.7404 108.309 47.3977 108.65 48.6465 105.833L52.502 96.9265H51.7L49.3205 102.4ZM72.0535 93.413C71.1869 92.852 69.551 92.8011 68.5137 93.9072C67.4942 94.9914 67.7196 96.2598 67.6908 96.9185H66.1095V97.5542H67.6908V104.504H69.1967V97.5542H71.2167V96.9185H69.1967C69.2135 95.4826 69.0666 94.7094 69.4895 94.0656C69.6513 93.8116 69.9203 93.5903 70.238 93.5903C71.4202 93.5903 70.7214 95.0402 71.8282 95.0402C72.7166 95.0402 72.9033 93.957 72.0535 93.413ZM93.4891 102.347C93.1526 102.785 92.6583 103.146 92.0478 103.356C89.9642 104.097 88.4405 102.329 88.4405 99.9627H94.0758C94.0758 96.8438 90.0079 95.658 88.0166 97.9628C85.791 100.568 87.3177 104.667 90.6988 104.667C92.2692 104.667 93.8614 103.38 94.2793 101.848L93.8505 101.659C93.781 101.893 93.6599 102.123 93.4891 102.347ZM88.64 98.5467C89.5453 96.4292 92.1967 97.3091 92.1967 99.3558L88.4474 99.3479C88.4702 99.0599 88.5338 98.7938 88.64 98.5467ZM83.5913 99.1506H78.6667V94.6665H77.0208V104.504H78.6667V99.7873H83.5913V104.504H85.2391V94.6665H83.5913" fill="#9B945F"/>
<path fill-rule="evenodd" clip-rule="evenodd" d="M86.8403 28.3483C73.3907 30.2944 44.0912 55.6751 44.0912 55.6751H56.0617C63.6725 47.0877 75.0524 37.9382 81.0818 34.2822C85.9082 31.3576 89.3557 31.2141 89.3557 31.2141C96.887 30.5136 103.322 36.7514 102.487 44.6862C103.473 35.3165 98.8257 26.6164 86.8403 28.3483Z" fill="#9B945F"/>
<path fill-rule="evenodd" clip-rule="evenodd" d="M31.0058 28.3483C19.0204 26.6164 14.3708 35.3165 15.3605 44.6862C14.5167 36.7375 20.9958 30.5166 28.4904 31.2141C28.4904 31.2141 31.938 31.3576 36.7643 34.2822C42.3361 37.6612 53.8461 46.718 61.7844 55.6751H73.754C73.754 55.6751 44.4555 30.2944 31.0058 28.3483Z" fill="#9B945F"/>
<path d="M58.3339 83.783H53.0122C53.0252 83.6834 53.3071 82.2574 53.3071 80.986C53.3071 74.6335 48.5711 72.0129 43.9403 75.2992C40.6208 77.6488 39.9319 79.9227 37.9099 83.783H37.8255V77.4625H36.1727V83.783H31.3543V83.1513C31.3543 76.47 26.5389 74.0984 22.4173 74.0984H16.0683V75.5094C16.5308 75.4746 21.9299 75.4596 22.2019 75.4596C30.1432 75.4596 29.5615 83.6824 29.5953 83.783H9.22582V73.1399C8.7414 73.0821 7.88275 73.0432 7.50752 73.0432C4.50074 73.0432 0.0526123 75.2145 0.0526123 79.8769C0.0526123 83.0895 2.46181 85.0086 5.51524 85.0086H6.04036C6.13268 84.909 7.27127 83.6834 7.17895 83.783H5.97187C1.18028 83.783 0.658137 78.0723 3.789 75.6001C4.90873 74.7172 6.21706 74.4053 6.9963 74.4053H7.57204V85.0086H59.9887V66.0371H58.3339V83.783ZM51.3485 83.5708L51.2969 83.783H39.4941L39.5706 83.4412C40.601 78.8246 44.7334 75.2434 47.6032 75.2434C48.5274 75.2434 51.5451 75.6788 51.5451 81.2829C51.5451 81.6336 51.5322 82.8334 51.3485 83.5708Z" fill="#008755"/>
<path d="M8.15674 70.4117C8.8508 70.4117 9.41345 69.8469 9.41345 69.1502C9.41345 68.4535 8.8508 67.8887 8.15674 67.8887C7.46267 67.8887 6.90002 68.4535 6.90002 69.1502C6.90002 69.8469 7.46267 70.4117 8.15674 70.4117Z" fill="#008755"/>
<path d="M65.2072 66.0381H66.8599V85.0086H65.2072V66.0381Z" fill="#008755"/>
<path d="M79.431 70.4227C80.1251 70.4227 80.6877 69.8579 80.6877 69.1612C80.6877 68.4645 80.1251 67.8997 79.431 67.8997C78.737 67.8997 78.1743 68.4645 78.1743 69.1612C78.1743 69.8579 78.737 70.4227 79.431 70.4227Z" fill="#008755"/>
<path d="M4.39746 70.4117C5.09152 70.4117 5.65417 69.8469 5.65417 69.1502C5.65417 68.4535 5.09152 67.8887 4.39746 67.8887C3.7034 67.8887 3.14075 68.4535 3.14075 69.1502C3.14075 69.8469 3.7034 70.4117 4.39746 70.4117Z" fill="#008755"/>
<path d="M104.644 70.4237C105.338 70.4237 105.901 69.8585 105.901 69.1612C105.901 68.4639 105.338 67.8987 104.644 67.8987C103.949 67.8987 103.386 68.4639 103.386 69.1612C103.386 69.8585 103.949 70.4237 104.644 70.4237Z" fill="#008755"/>
<path d="M116.852 73.4199C112.548 73.4199 109.179 76.3635 109.179 80.1211C109.179 83.5051 112.133 85.2349 115.048 84.9928C115.145 84.8921 116.318 83.6824 116.221 83.7831H115.126C113.043 83.7831 110.94 82.5923 110.94 79.9328C110.94 77.5522 113.133 74.8907 116.069 74.8907H116.348V85.2608C116.348 87.2468 115.978 89.0852 113.294 89.0852C113.063 89.0852 112.763 89.0533 112.444 88.9985L112.236 90.266C112.633 90.3447 113.06 90.3906 113.725 90.3906C115.012 90.3906 118 89.9591 118 85.9643V73.5166C117.54 73.4518 117.171 73.4199 116.852 73.4199ZM103.819 86.046C103.819 88.2223 102.947 89.1091 100.818 89.1091C100.594 89.1091 100.257 89.0703 99.9971 89.0254L99.7896 90.3547C103.82 90.9386 105.471 89.143 105.471 86.5582V74.8269H103.819V86.046ZM89.8342 86.046C89.8342 88.2223 88.9636 89.1091 86.8333 89.1091C86.609 89.1091 86.2755 89.0703 86.0114 89.0254L85.804 90.3547C89.8411 90.9386 91.484 89.137 91.484 86.5582V74.8269H89.8342V86.046Z" fill="#008755"/>
<path d="M83.1893 70.4227C83.8833 70.4227 84.446 69.8579 84.446 69.1612C84.446 68.4645 83.8833 67.8997 83.1893 67.8997C82.4952 67.8997 81.9326 68.4645 81.9326 69.1612C81.9326 69.8579 82.4952 70.4227 83.1893 70.4227Z" fill="#008755"/>
<path d="M96.5426 66.0382H98.1944V85.0087H96.5426V66.0382ZM75.0673 80.0125C75.0673 82.8594 77.4159 85.0087 80.5279 85.0087H84.2395V73.1399C78.8444 72.3876 75.0673 75.8702 75.0673 80.0125ZM82.5867 83.7831H81.0133C74.7625 83.7831 75.9349 74.4054 81.9842 74.4054H82.5867V83.7831ZM30.0797 36.4952L26.4942 40.0974L22.9067 36.4952L18.8199 40.5937L22.9067 44.6921L26.4942 41.0909L30.0797 44.6921L34.1646 40.5937M67.8437 5.36692C71.5523 5.58016 75.1348 7.20837 77.7405 10.0812C74.7159 3.00432 66.7517 -0.390611 59.6582 2.10352C59.2958 0.773251 59.0119 0 59.0119 0C59.0119 0 58.7231 0.773251 58.3627 2.10352C51.2453 -0.400576 43.2832 3.0362 40.2823 10.0812C42.8851 7.20837 46.4706 5.58016 50.1772 5.36692C45.873 8.69907 43.8381 14.075 44.7205 19.3074C45.4283 15.0634 47.9705 11.4443 51.4945 9.28997C48.8143 14.6509 49.6342 21.1249 53.731 25.6418C51.3237 20.0537 52.6688 13.5179 57.0613 9.34278C56.9611 10.4249 56.9005 11.5649 56.9005 12.7387C56.9005 19.7767 59.0119 25.4784 59.0119 25.4784C59.0258 25.3728 61.7686 17.9542 60.9625 9.34278C65.3531 13.5179 66.6991 20.0537 64.2909 25.6418C68.334 21.2086 69.2364 14.7037 66.5264 9.28997C70.0543 11.4443 72.5965 15.0634 73.3023 19.3074C74.1769 14.1208 72.1806 8.72299 67.8437 5.36692Z" fill="#008755"/>
<path fill-rule="evenodd" clip-rule="evenodd" d="M73.0809 38.4901C54.7702 18.9137 44.3502 34.005 44.3502 34.005C44.3502 34.005 53.2812 25.1366 70.2538 43.9636C77.8794 52.4265 84.6921 55.7328 90.1835 55.676C94.3984 55.6321 98.2727 53.6512 100.998 49.3684C101.437 48.6769 101.7 47.9604 101.7 47.9604C96.7937 53.8176 90.3265 56.9255 73.0809 38.4901Z" fill="#008755"/>
</g>
<defs>
<clipPath id="clip0_33_8912">
<rect width="118" height="108" fill="white"/>
</clipPath>
</defs>
</svg>
