<svg width="259" height="327" viewBox="0 0 259 327" fill="none" xmlns="http://www.w3.org/2000/svg">
<path d="M228.072 9.15527e-05H58.1158C41.3253 9.15527e-05 27.7129 13.6083 27.7129 30.3963V247.64C27.7129 264.427 41.3253 278.037 58.1158 278.037H228.072C244.864 278.037 258.475 264.427 258.475 247.64V30.3963C258.475 13.6083 244.864 9.15527e-05 228.072 9.15527e-05Z" fill="#016642"/>
<path d="M55.842 280.544C40.4816 271.091 33.6409 257.719 39.2477 251.316C43.5266 246.429 56.642 244.845 72.0024 254.298C87.3616 263.751 96.1959 277.291 91.7334 284.538C87.271 291.785 71.2024 289.997 55.842 280.544Z" fill="#502A73"/>
<path d="M55.842 280.544C40.4816 271.091 33.6409 257.719 39.2477 251.316C43.5266 246.429 56.642 244.845 72.0024 254.298C87.3616 263.751 96.1959 277.291 91.7334 284.538C87.271 291.785 71.2024 289.997 55.842 280.544Z" stroke="#502A73" stroke-width="0.304" stroke-miterlimit="10" stroke-linecap="round" stroke-linejoin="round"/>
<path d="M55.842 280.544C40.4816 271.091 33.6409 257.719 39.2477 251.316C43.5266 246.429 56.642 244.845 72.0024 254.298C87.3616 263.751 96.1959 277.291 91.7334 284.538C87.271 291.785 71.2024 289.997 55.842 280.544Z" stroke="#502A73" stroke-width="0.304" stroke-miterlimit="10" stroke-linecap="round" stroke-linejoin="round"/>
<path d="M212.75 268.758L227.786 272.739L222.194 304.899L212.75 305.202L210.545 302.482L212.75 268.758Z" fill="#4BBEA5"/>
<path d="M212.75 268.758L227.786 272.739L222.194 304.899L212.75 305.202L210.545 302.482L212.75 268.758Z" stroke="#502A73" stroke-width="0.304" stroke-miterlimit="10" stroke-linecap="round" stroke-linejoin="round"/>
<path d="M227.153 265.241L213.853 272.275" stroke="#502A73" stroke-width="0.304" stroke-miterlimit="10" stroke-linecap="round" stroke-linejoin="round"/>
<path d="M211.648 284.209L224.948 277.175" stroke="#502A73" stroke-width="0.304" stroke-miterlimit="10" stroke-linecap="round" stroke-linejoin="round"/>
<path d="M210.545 290.177L223.845 283.142" stroke="#502A73" stroke-width="0.304" stroke-miterlimit="10" stroke-linecap="round" stroke-linejoin="round"/>
<path d="M209.442 296.144L222.743 289.109" stroke="#502A73" stroke-width="0.304" stroke-miterlimit="10" stroke-linecap="round" stroke-linejoin="round"/>
<path d="M211.348 267.837C208.826 269.73 207.178 270.42 206.619 283.488C206.061 296.556 206.045 314.458 207.449 320.148C208.854 325.838 212.961 327.026 219.146 325.291C225.329 323.557 234.154 315.667 242.707 295.312C251.261 274.955 252.947 266.663 252.961 264.002C252.973 261.341 253.034 256.497 246.3 253.941C244.951 253.428 242.64 252.446 242.64 252.446L237.978 255.007C234.933 256.68 231.427 257.269 227.987 256.78C226.064 256.505 223.875 256.741 222.31 258.519C220.146 260.978 219.484 266.89 218.984 274.688C218.768 278.051 217.246 293.785 217.138 297.385C217.126 297.821 216.814 298.188 216.386 298.276C215.825 298.389 215.294 297.98 215.263 297.407C215.115 294.679 215.382 286.398 215.574 281.153C216.188 264.355 212.293 267.127 211.348 267.837Z" fill="#4BBEA5"/>
<path d="M211.348 267.837C208.826 269.73 207.178 270.42 206.619 283.488C206.061 296.556 206.045 314.458 207.449 320.148C208.854 325.838 212.961 327.026 219.146 325.291C225.329 323.557 234.154 315.667 242.707 295.312C251.261 274.955 252.947 266.663 252.961 264.002C252.973 261.341 253.034 256.497 246.3 253.941C244.951 253.428 242.64 252.446 242.64 252.446L237.978 255.007C234.933 256.68 231.427 257.268 227.987 256.78C226.064 256.505 223.875 256.741 222.31 258.519C220.146 260.978 219.484 266.89 218.984 274.688C218.768 278.051 217.246 293.785 217.138 297.385C217.126 297.821 216.814 298.188 216.386 298.276C215.825 298.389 215.294 297.98 215.263 297.407C215.115 294.679 215.382 286.398 215.574 281.153C216.188 264.355 212.293 267.127 211.348 267.837Z" stroke="#502A73" stroke-width="0.304" stroke-miterlimit="10" stroke-linecap="round" stroke-linejoin="round"/>
<path d="M246.3 253.941C244.95 253.428 237.485 250.292 237.485 250.292L238.342 254.807C240.794 256.244 244.248 257.592 248.863 257.945C249.935 258.027 250.898 258.1 251.769 258.168C250.844 256.572 249.205 255.043 246.3 253.941Z" fill="#4BBEA5"/>
<path d="M246.3 253.941C244.95 253.428 237.485 250.292 237.485 250.292L238.342 254.807C240.794 256.244 244.248 257.592 248.863 257.945C249.935 258.027 250.898 258.1 251.769 258.168C250.844 256.572 249.205 255.043 246.3 253.941Z" stroke="#502A73" stroke-width="0.304" stroke-miterlimit="10" stroke-linecap="round" stroke-linejoin="round"/>
<path d="M245.047 256.333C239.819 259.26 239.889 262.737 240.123 266.336C240.356 269.935 245.371 277.529 241.868 283.238C238.364 288.947 233.07 286.751 228.658 291.169C224.246 295.587 227.762 306.274 227.489 311.92C227.217 317.564 218.126 320.556 218.126 320.556L221.975 324.136C227.867 321.021 235.386 312.734 242.708 295.312C251.261 274.955 252.947 266.663 252.961 264.002C252.97 262.06 253.002 258.952 250.397 256.421C249.07 255.518 247.276 255.086 245.047 256.333Z" fill="#008056"/>
<path d="M245.047 256.333C239.819 259.26 239.889 262.737 240.123 266.336C240.356 269.935 245.371 277.529 241.868 283.238C238.364 288.947 233.07 286.751 228.658 291.169C224.246 295.587 227.762 306.274 227.489 311.92C227.217 317.564 218.126 320.556 218.126 320.556L221.975 324.136C227.867 321.021 235.386 312.734 242.708 295.312C251.261 274.955 252.947 266.663 252.961 264.002C252.97 262.06 253.002 258.952 250.397 256.421C249.07 255.518 247.276 255.086 245.047 256.333Z" stroke="#502A73" stroke-width="0.304" stroke-miterlimit="10" stroke-linecap="round" stroke-linejoin="round"/>
<path d="M211.618 319.837C209.795 321.451 209.733 323.264 210.305 324.853C212.389 326.317 215.383 326.347 219.145 325.293C221.25 324.702 223.661 323.396 226.264 321.129C221.886 318.378 215.556 316.351 211.618 319.837Z" fill="#008056"/>
<path d="M211.618 319.837C209.795 321.451 209.733 323.264 210.305 324.853C212.389 326.317 215.383 326.347 219.145 325.293C221.25 324.702 223.661 323.396 226.264 321.129C221.886 318.378 215.556 316.351 211.618 319.837Z" stroke="#502A73" stroke-width="0.304" stroke-miterlimit="10" stroke-linecap="round" stroke-linejoin="round"/>
<path d="M234.373 257.805C234.189 258.325 233.932 259.047 233.575 260.053C232.308 263.628 230.565 269.727 230.565 269.727L235.145 269.622L234.867 257.543C234.704 257.629 234.539 257.718 234.373 257.805Z" fill="#008056"/>
<path d="M234.373 257.805C234.189 258.325 233.932 259.047 233.575 260.053C232.308 263.628 230.565 269.727 230.565 269.727L235.145 269.622L234.867 257.543C234.704 257.629 234.539 257.718 234.373 257.805Z" stroke="#502A73" stroke-width="0.304" stroke-miterlimit="10" stroke-linecap="round" stroke-linejoin="round"/>
<path d="M83.289 286.784L89.2756 261.562L61.8431 229.646L47.0336 252.467L43.8716 266.118L62.3757 291.813" fill="#BF792A"/>
<path d="M83.289 286.784L89.2756 261.562L61.8431 229.646L47.0336 252.467L43.8716 266.118L62.3757 291.813" stroke="#502A73" stroke-width="0.304" stroke-miterlimit="10" stroke-linecap="round" stroke-linejoin="round"/>
<path d="M83.2274 277.274C80.4602 275.84 74.796 274.121 72.823 273.678C71.8405 273.456 70.9602 272.917 70.3186 272.14L62.507 262.698C61.2731 261.368 59.7214 260.373 57.9974 259.808L43.895 255.705C43.895 255.705 37.5502 252.989 26.8944 251.374C16.2386 249.757 7.06234 252.506 2.6102 259.428C-1.84195 266.35 40.8454 297.426 40.8454 297.426L70.7306 315.381C70.7306 315.381 77.8915 311.817 79.5259 303.728C80.5704 298.556 83.3238 288.377 84.7642 282.389C83.8977 280.637 84.8285 279.456 83.2274 277.274Z" fill="#4BBEA5"/>
<path d="M83.2274 277.274C80.4602 275.84 74.796 274.121 72.823 273.678C71.8405 273.456 70.9602 272.917 70.3186 272.14L62.507 262.698C61.2731 261.368 59.7214 260.373 57.9974 259.808L43.895 255.705C43.895 255.705 37.5502 252.989 26.8944 251.374C16.2386 249.757 7.06234 252.506 2.6102 259.428C-1.84195 266.35 40.8454 297.426 40.8454 297.426L70.7306 315.381C70.7306 315.381 77.8915 311.817 79.5259 303.728C80.5704 298.556 83.3238 288.377 84.7642 282.389C83.8977 280.637 84.8285 279.456 83.2274 277.274Z" stroke="#502A73" stroke-width="0.304" stroke-miterlimit="10" stroke-linecap="round" stroke-linejoin="round"/>
<path d="M79.5252 303.729C80.4848 298.979 83.5699 288.083 85.1837 281.695C85.621 279.964 84.8474 278.133 83.2704 277.296C83.2554 277.289 83.2417 277.281 83.2267 277.274C81.2262 281.901 76.3517 293.856 74.3041 299.694L71.6103 307.376C71.6103 307.376 71.2935 311.355 70.73 315.382C72.214 314.614 78.1123 310.724 79.5252 303.729Z" fill="#4BBEA5"/>
<path d="M79.5252 303.729C80.4848 298.979 83.5699 288.083 85.1837 281.695C85.621 279.964 84.8474 278.133 83.2704 277.296C83.2554 277.289 83.2417 277.281 83.2267 277.274C81.2262 281.901 76.3517 293.856 74.3041 299.694L71.6103 307.376C71.6103 307.376 71.2935 311.355 70.73 315.382C72.214 314.614 78.1123 310.724 79.5252 303.729Z" stroke="#502A73" stroke-width="0.304" stroke-miterlimit="10" stroke-linecap="round" stroke-linejoin="round"/>
<path d="M67.9196 285.111C50.7514 280.221 52.7233 269.069 42.6196 263.043C37.5844 260.041 33.7256 260.79 27.7011 258.249C21.6776 255.707 19.2237 250.977 19.2237 250.977L13.2061 259.268C13.2061 259.268 35.2143 282.873 35.4863 283.104C35.6998 283.285 44.9989 296.93 49.6748 303.266L58.3369 308.993C60.5808 309.82 62.5584 310.499 62.5584 310.499L63.2528 312.244L70.7304 315.381C70.7304 315.381 77.8913 311.818 79.5257 303.729C79.9538 301.606 80.6711 298.64 81.4665 295.466C81.7523 294.326 80.0663 288.571 67.9196 285.111Z" fill="#008056"/>
<path d="M67.9196 285.111C50.7514 280.221 52.7233 269.069 42.6196 263.043C37.5844 260.041 33.7256 260.79 27.7011 258.249C21.6776 255.707 19.2237 250.977 19.2237 250.977L13.2061 259.268C13.2061 259.268 35.2143 282.873 35.4863 283.104C35.6998 283.285 44.9989 296.93 49.6748 303.266L58.3369 308.993C60.5808 309.82 62.5584 310.499 62.5584 310.499L63.2528 312.244L70.7304 315.381C70.7304 315.381 77.8913 311.818 79.5257 303.729C79.9538 301.606 80.6711 298.64 81.4665 295.466C81.7523 294.326 80.0663 288.571 67.9196 285.111Z" stroke="#502A73" stroke-width="0.304" stroke-miterlimit="10" stroke-linecap="round" stroke-linejoin="round"/>
<path d="M13.4533 260.755C13.4533 260.755 20.962 254.609 19.2243 250.977C11.9418 251.394 5.94817 254.237 2.6105 259.428C1.42372 261.274 3.58839 264.837 7.40123 269.07C10.5966 271.207 13.2594 272.948 13.2594 272.948L13.4533 260.755Z" fill="#008056"/>
<path d="M13.4533 260.755C13.4533 260.755 20.962 254.609 19.2243 250.977C11.9418 251.394 5.94817 254.237 2.6105 259.428C1.42372 261.274 3.58839 264.837 7.40123 269.07C10.5966 271.207 13.2594 272.948 13.2594 272.948L13.4533 260.755Z" stroke="#502A73" stroke-width="0.304" stroke-miterlimit="10" stroke-linecap="round" stroke-linejoin="round"/>
<path d="M19.1566 259.014C3.38758 253.19 -1.60974 260.661 1.77269 270.503C5.88969 282.482 18.6527 292.837 30.8981 301.405C40.6609 308.235 51.2272 315.058 58.644 316.652C71.873 319.494 75.2279 310.652 75.78 309.067C77.9745 302.772 76.4709 294.279 47.3547 278.16C42.0807 275.241 28.8953 262.61 19.1566 259.014Z" fill="#502A73"/>
<path d="M19.1566 259.014C3.38758 253.19 -1.60974 260.661 1.77269 270.503C5.88969 282.482 18.6527 292.837 30.8981 301.405C40.6609 308.235 51.2272 315.058 58.644 316.652C71.873 319.494 75.2279 310.652 75.78 309.067C77.9745 302.772 76.4709 294.279 47.3547 278.16C42.0807 275.241 28.8953 262.61 19.1566 259.014Z" stroke="#502A73" stroke-width="0.304" stroke-miterlimit="10" stroke-linecap="round" stroke-linejoin="round"/>
<path d="M19.1566 259.014C3.38758 253.19 -1.60974 260.661 1.77269 270.503C5.88969 282.482 18.6527 292.837 30.8981 301.405C40.6609 308.235 51.2272 315.058 58.644 316.652C71.873 319.494 75.2279 310.652 75.78 309.067C77.9745 302.772 76.4709 294.279 47.3547 278.16C42.0807 275.241 28.8953 262.61 19.1566 259.014Z" stroke="#502A73" stroke-width="0.304" stroke-miterlimit="10" stroke-linecap="round" stroke-linejoin="round"/>
<path d="M64.8436 273.844C64.8436 273.844 70.7121 276.255 74.1244 277.912L77.5378 279.57L64.4385 278.406L64.8436 273.844Z" fill="#008056"/>
<path d="M64.8436 273.844C64.8436 273.844 70.7121 276.255 74.1244 277.912L77.5378 279.57L64.4385 278.406L64.8436 273.844Z" stroke="#502A73" stroke-width="0.304" stroke-miterlimit="10" stroke-linecap="round" stroke-linejoin="round"/>
<path d="M240.649 242.71C240.214 239.879 238.532 237.392 236.135 235.825L198.997 211.543C195.097 208.993 192.394 204.977 191.501 200.405L191.492 200.353C190.636 195.973 190.36 191.5 190.682 187.048C190.887 184.203 190.99 180.756 190.676 177.707C189.985 171.031 185.558 159.927 185.558 159.927L135.602 162.459L118.964 165.107L90.9014 172.244L87.1138 185.433L76.4925 191.332C71.3081 194.211 66.9788 198.413 63.9476 203.509L39.2065 251.361L39.2157 251.365C43.0527 247.471 56.8659 244.983 72.0014 254.299C85.3957 262.541 93.8259 273.891 92.8056 281.467L104.12 225.865C104.735 222.841 106.449 220.152 108.929 218.317L149.289 188.475L157.721 224.638C159.285 231.337 162.687 237.467 167.545 242.338L199.988 274.859C206.021 280.892 219.396 277.3 229.861 266.837C237.71 258.99 241.694 249.505 240.649 242.71Z" fill="white"/>
<path d="M240.649 242.71C240.214 239.879 238.532 237.392 236.135 235.825L198.997 211.543C195.097 208.993 192.394 204.977 191.501 200.405L191.492 200.353C190.636 195.973 190.36 191.5 190.682 187.048C190.887 184.203 190.99 180.756 190.676 177.707C189.985 171.031 185.558 159.927 185.558 159.927L135.602 162.459L118.964 165.107L90.9014 172.244L87.1139 185.433L76.4925 191.332C71.3081 194.211 66.9788 198.413 63.9476 203.509L39.2065 251.361L39.2157 251.365C43.0527 247.471 56.8659 244.983 72.0014 254.299C85.3957 262.541 93.8259 273.891 92.8056 281.467L104.12 225.865C104.735 222.841 106.449 220.152 108.929 218.317L149.289 188.475L157.721 224.638C159.285 231.337 162.687 237.467 167.545 242.338L199.988 274.859C206.021 280.892 219.396 277.3 229.861 266.837C237.71 258.99 241.694 249.505 240.649 242.71Z" stroke="#502A73" stroke-width="0.304" stroke-miterlimit="10" stroke-linecap="round" stroke-linejoin="round"/>
<path d="M236.823 257.849C237.643 256.429 238.345 255.007 238.919 253.603C231.429 248.896 215.53 238.961 207.437 234.321C196.002 227.764 186.044 219.619 183.758 214.952C181.159 209.648 180.413 206.272 179.047 185.241C178.549 177.577 176.864 161.032 176.847 160.867C176.83 160.695 176.793 160.531 176.743 160.373L172.205 160.604C172.153 160.841 172.136 161.089 172.161 161.344C172.178 161.509 173.855 177.968 174.347 185.547C175.759 207.275 176.644 211.137 179.528 217.023C180.999 220.026 184.334 223.648 189.442 227.788C193.905 231.406 199.464 235.177 205.093 238.405C213.269 243.093 229.545 253.273 236.823 257.849Z" fill="white"/>
<path d="M236.823 257.849C237.643 256.429 238.345 255.007 238.919 253.603C231.429 248.896 215.53 238.961 207.437 234.321C196.002 227.764 186.044 219.619 183.758 214.952C181.159 209.648 180.413 206.272 179.047 185.241C178.549 177.577 176.864 161.032 176.847 160.867C176.83 160.695 176.793 160.531 176.743 160.373L172.205 160.604C172.153 160.841 172.136 161.089 172.161 161.344C172.178 161.509 173.855 177.968 174.347 185.547C175.759 207.275 176.644 211.137 179.528 217.023C180.999 220.026 184.334 223.648 189.442 227.788C193.905 231.406 199.464 235.177 205.093 238.405C213.269 243.093 229.545 253.273 236.823 257.849Z" stroke="#502A73" stroke-width="0.304" stroke-miterlimit="10" stroke-linecap="round" stroke-linejoin="round"/>
<path d="M43.8943 255.706L55.5612 259.099C55.8344 254.884 55.9503 243.422 49.3679 241.502C44.855 240.185 37.8422 241.387 36.3134 245.364C35.254 248.122 36.1688 251.086 37.6333 253.638C41.6654 254.752 43.8943 255.706 43.8943 255.706Z" fill="#4BBEA5"/>
<path d="M43.8943 255.706L55.5612 259.099C55.8344 254.884 55.9503 243.422 49.3679 241.502C44.855 240.185 37.8422 241.387 36.3134 245.364C35.254 248.122 36.1688 251.086 37.6333 253.638C41.6654 254.752 43.8943 255.706 43.8943 255.706Z" stroke="#502A73" stroke-width="0.304" stroke-miterlimit="10" stroke-linecap="round" stroke-linejoin="round"/>
<path d="M43.8945 255.706L52.6358 258.249C52.7116 256.707 52.7368 254.479 52.474 252.203C52.1756 249.612 51.2677 245.146 48.5372 244.349C47.0669 243.92 45.1399 243.838 43.3826 244.13C39.5262 244.769 37.7196 246.295 37.3248 247.324C36.5546 249.328 37.5922 251.837 39.0625 254.049C42.1867 254.976 43.8945 255.706 43.8945 255.706Z" fill="#4BBEA5"/>
<path d="M43.8945 255.706L52.6358 258.249C52.7116 256.707 52.7368 254.479 52.474 252.203C52.1756 249.612 51.2677 245.146 48.5372 244.349C47.0669 243.92 45.1399 243.838 43.3826 244.13C39.5262 244.769 37.7196 246.295 37.3248 247.324C36.5546 249.328 37.5922 251.837 39.0625 254.049C42.1867 254.976 43.8945 255.706 43.8945 255.706Z" stroke="#502A73" stroke-width="0.304" stroke-miterlimit="10" stroke-linecap="round" stroke-linejoin="round"/>
<path d="M206.72 265.694C204.978 266.552 199.699 268.681 199.259 270.893C198.699 273.716 206.091 276.571 209.463 277.718C214.547 277.28 220.502 274.678 226.031 270.263C225.04 270.218 223.494 269.915 222.829 268.548C222.078 267.001 221.988 264.368 220.809 263.284C218.597 261.25 216.471 260.893 206.72 265.694Z" fill="#4BBEA5"/>
<path d="M206.72 265.694C204.978 266.552 199.699 268.681 199.259 270.893C198.699 273.716 206.091 276.571 209.463 277.718C214.547 277.28 220.502 274.678 226.031 270.263C225.04 270.218 223.494 269.915 222.829 268.548C222.078 267.001 221.988 264.368 220.809 263.284C218.597 261.25 216.471 260.893 206.72 265.694Z" stroke="#502A73" stroke-width="0.304" stroke-miterlimit="10" stroke-linecap="round" stroke-linejoin="round"/>
<path d="M224.001 271.788C221.845 271.654 220.257 270.877 219.816 268.644C219.612 267.691 219.089 264.288 216.373 264.971C214.631 265.409 211.965 266.419 208.03 268.356C207.775 268.481 207.451 268.632 207.077 268.806C205.611 269.485 204.456 270.075 203.618 270.57C203.047 270.909 203 271.72 203.526 272.125C204.651 272.992 207.075 275.124 210.893 276.648C211.911 277.054 213.038 277.112 214.088 276.793C217.31 275.813 220.701 274.122 224.001 271.788Z" fill="#4BBEA5"/>
<path d="M224.001 271.788C221.845 271.654 220.257 270.877 219.816 268.644C219.612 267.691 219.089 264.288 216.373 264.971C214.631 265.409 211.965 266.419 208.03 268.356C207.775 268.481 207.451 268.632 207.077 268.806C205.611 269.485 204.456 270.075 203.618 270.57C203.047 270.909 203 271.72 203.526 272.125C204.651 272.992 207.075 275.124 210.893 276.648C211.911 277.054 213.038 277.112 214.088 276.793C217.31 275.813 220.701 274.122 224.001 271.788Z" stroke="#502A73" stroke-width="0.304" stroke-miterlimit="10" stroke-linecap="round" stroke-linejoin="round"/>
<path d="M189.473 155.092C187.038 149.952 185.903 147.609 184.637 141.278C183.37 134.947 184.176 129.997 184.176 129.997C184.176 129.997 176.836 117.939 179.772 109.996C182.708 102.053 189.568 101.428 189.568 101.428C185.212 101.107 181.211 100.729 173.008 102.024C164.804 103.319 154.821 107.147 154.821 107.147C154.821 107.147 133.014 110.893 123.599 113.982C123.161 114.126 122.725 114.29 122.29 114.463C114.228 121.398 112.416 129.941 114.142 135.119C115.87 140.299 115.87 145.307 114.833 149.969C113.798 154.632 112.33 160.502 111.12 163.783C109.912 167.064 110.545 170.373 114.632 171.438C114.632 171.438 118.318 172.014 130.06 172.705C141.805 173.394 151.592 171.783 160.688 170.402C169.784 169.02 185.903 169.02 185.903 169.02C185.903 169.02 188.436 169.366 190.394 167.754C192.351 166.142 192.812 162.143 189.473 155.092Z" fill="#008056"/>
<path d="M189.473 155.092C187.038 149.952 185.903 147.609 184.637 141.278C183.37 134.947 184.176 129.997 184.176 129.997C184.176 129.997 176.836 117.939 179.772 109.996C182.708 102.053 189.568 101.428 189.568 101.428C185.212 101.107 181.211 100.729 173.008 102.024C164.804 103.319 154.821 107.147 154.821 107.147C154.821 107.147 133.014 110.893 123.599 113.982C123.161 114.126 122.725 114.29 122.29 114.463C114.228 121.398 112.416 129.941 114.142 135.119C115.87 140.299 115.87 145.307 114.833 149.969C113.798 154.632 112.33 160.502 111.12 163.783C109.912 167.064 110.545 170.373 114.632 171.438C114.632 171.438 118.318 172.014 130.06 172.705C141.805 173.394 151.592 171.783 160.688 170.402C169.784 169.02 185.903 169.02 185.903 169.02C185.903 169.02 188.436 169.366 190.394 167.754C192.351 166.142 192.812 162.143 189.473 155.092Z" stroke="#502A73" stroke-width="0.304" stroke-miterlimit="10" stroke-linecap="round" stroke-linejoin="round"/>
<path d="M68.2451 124.457C68.4804 121.445 68.0511 118.16 68.656 115.915C69.2609 113.67 70.8356 108.485 67.1501 108.159C64.3106 107.908 61.6386 113.623 61.6386 113.623C61.6386 113.623 60.5448 105.969 59.4797 101.679C58.3572 97.1583 54.7016 97.0458 53.5504 99.2043C52.6689 100.857 53.5504 105.766 53.5504 105.766C53.5504 105.766 52.7883 99.3213 49.8948 99.809C46.1244 100.444 47.5637 106.917 47.5637 106.917C47.5637 106.917 46.005 102.692 43.8438 103.566C40.9389 104.741 42.2668 111.061 42.2668 111.061C42.2668 111.061 40.1366 108.01 38.5825 110.6C37.0284 113.19 38.0063 123.853 41.5185 131.71C44.4957 138.371 47.5637 139.833 47.5637 139.833C47.5637 139.833 67.382 135.538 68.2451 124.457Z" fill="#BF792A"/>
<path d="M68.2451 124.457C68.4804 121.445 68.0511 118.16 68.656 115.915C69.2609 113.67 70.8356 108.485 67.1501 108.159C64.3106 107.908 61.6386 113.623 61.6386 113.623C61.6386 113.623 60.5448 105.969 59.4797 101.679C58.3572 97.1583 54.7016 97.0458 53.5504 99.2043C52.6689 100.857 53.5504 105.766 53.5504 105.766C53.5504 105.766 52.7883 99.3213 49.8948 99.809C46.1244 100.444 47.5637 106.917 47.5637 106.917C47.5637 106.917 46.005 102.692 43.8438 103.566C40.9389 104.741 42.2668 111.061 42.2668 111.061C42.2668 111.061 40.1366 108.01 38.5825 110.6C37.0284 113.19 38.0063 123.853 41.5185 131.71C44.4957 138.371 47.5637 139.833 47.5637 139.833C47.5637 139.833 67.382 135.538 68.2451 124.457Z" stroke="#502A73" stroke-width="0.304" stroke-miterlimit="10" stroke-linecap="round" stroke-linejoin="round"/>
<path d="M53.5508 105.766L54.702 112.768L53.5508 105.766Z" fill="#BF792A"/>
<path d="M53.5508 105.766L54.702 112.768" stroke="#502A73" stroke-width="0.304" stroke-miterlimit="10" stroke-linecap="round" stroke-linejoin="round"/>
<path d="M47.563 106.917L49.233 114.457L47.563 106.917Z" fill="#BF792A"/>
<path d="M47.563 106.917L49.233 114.457" stroke="#502A73" stroke-width="0.304" stroke-miterlimit="10" stroke-linecap="round" stroke-linejoin="round"/>
<path d="M42.2666 111.061C42.2666 111.061 43.0149 114.593 43.9366 117.173L44.8571 119.752" fill="#BF792A"/>
<path d="M42.2666 111.061C42.2666 111.061 43.0149 114.593 43.9366 117.173L44.8571 119.752" stroke="#502A73" stroke-width="0.304" stroke-miterlimit="10" stroke-linecap="round" stroke-linejoin="round"/>
<path d="M61.6389 113.622C61.6389 113.622 60.7471 114.687 59.7107 115.407C58.6743 116.126 54.7019 119.292 54.99 124.184" fill="#BF792A"/>
<path d="M61.6389 113.622C61.6389 113.622 60.7471 114.687 59.7107 115.407C58.6743 116.126 54.7019 119.292 54.99 124.184" stroke="#502A73" stroke-width="0.304" stroke-miterlimit="10" stroke-linecap="round" stroke-linejoin="round"/>
<path d="M111.12 163.783C112.329 160.502 113.797 154.632 114.833 149.97C115.87 145.307 115.87 140.3 114.142 135.12C112.416 129.941 114.228 121.398 122.289 114.465C105.261 121.274 90.6798 150.594 90.5673 150.258C90.4525 149.912 82.8532 136.673 78.478 134.026C74.1027 131.379 70.5332 132.415 70.5332 132.415C70.5332 132.415 56.9472 140.588 53.5499 143.098C50.1537 145.608 48.968 147.264 48.9875 152.084C49.0116 157.744 56.2563 172.014 67.8853 179.381C79.5144 186.748 87.1137 185.433 87.1137 185.433L114.632 171.438C110.544 170.373 109.912 167.064 111.12 163.783Z" fill="#008056"/>
<path d="M111.12 163.783C112.329 160.502 113.797 154.632 114.833 149.97C115.87 145.307 115.87 140.3 114.142 135.12C112.416 129.941 114.228 121.398 122.289 114.465C105.261 121.274 90.6798 150.594 90.5673 150.258C90.4525 149.912 82.8532 136.673 78.478 134.026C74.1027 131.379 70.5332 132.415 70.5332 132.415C70.5332 132.415 56.9472 140.588 53.5499 143.098C50.1537 145.608 48.968 147.264 48.9875 152.084C49.0116 157.744 56.2563 172.014 67.8853 179.381C79.5144 186.748 87.1137 185.433 87.1137 185.433L114.632 171.438C110.544 170.373 109.912 167.064 111.12 163.783Z" stroke="#502A73" stroke-width="0.304" stroke-miterlimit="10" stroke-linecap="round" stroke-linejoin="round"/>
<path d="M70.6301 132.289L67.7435 126.749L47.5625 139.834L50.3871 145.962L70.6301 132.289Z" fill="#008056"/>
<path d="M70.6301 132.289L67.7435 126.749L47.5625 139.834L50.3871 145.962L70.6301 132.289Z" stroke="#502A73" stroke-width="0.304" stroke-miterlimit="10" stroke-linecap="round" stroke-linejoin="round"/>
<path d="M90.5675 150.257C90.5675 150.257 89.0134 152.905 88.3225 159.466C87.7945 164.483 88.7976 169.396 88.7976 169.396" fill="#008056"/>
<path d="M90.5675 150.257C90.5675 150.257 89.0134 152.905 88.3225 159.466C87.7945 164.483 88.7976 169.396 88.7976 169.396" stroke="#502A73" stroke-width="0.304" stroke-miterlimit="10" stroke-linecap="round" stroke-linejoin="round"/>
<path d="M226.836 181.309C226.836 181.309 225.22 190.345 223.613 194.094C222.06 197.712 219.708 202.266 214.117 201.245C213.439 201.121 211.34 202.51 209.766 202.09C208.383 201.72 208.334 200.822 207.607 200.62C206.593 200.337 205.826 201.659 203.138 200.542C201.444 199.838 201.811 198.673 201.074 198.418C200.347 198.165 196.667 198.743 196.055 195.714C195.869 194.797 196.117 193.114 196.451 192.235L197.497 189.477L196.26 187.846C194.864 186.003 195.142 183.703 196.574 181.696C199.929 176.992 206.283 174.229 206.283 174.229C206.283 174.229 209.813 173.269 217.452 173.51C228.39 173.856 226.836 181.309 226.836 181.309Z" fill="#BF792A"/>
<path d="M226.836 181.309C226.836 181.309 225.22 190.345 223.613 194.094C222.06 197.712 219.708 202.266 214.117 201.245C213.439 201.121 211.34 202.51 209.766 202.09C208.383 201.72 208.334 200.822 207.607 200.62C206.593 200.337 205.826 201.659 203.138 200.542C201.444 199.838 201.811 198.673 201.074 198.418C200.347 198.165 196.667 198.743 196.055 195.714C195.869 194.797 196.117 193.114 196.451 192.235L197.497 189.477L196.26 187.846C194.864 186.003 195.142 183.703 196.574 181.696C199.929 176.992 206.283 174.229 206.283 174.229C206.283 174.229 209.813 173.269 217.452 173.51C228.39 173.856 226.836 181.309 226.836 181.309Z" stroke="#502A73" stroke-width="0.304" stroke-miterlimit="10" stroke-linecap="round" stroke-linejoin="round"/>
<path d="M197.497 189.478C197.497 189.478 198.31 187.585 199.928 185.433L197.497 189.478Z" fill="#BF792A"/>
<path d="M197.497 189.478C197.497 189.478 198.31 187.585 199.928 185.433" stroke="#502A73" stroke-width="0.304" stroke-miterlimit="10" stroke-linecap="round" stroke-linejoin="round"/>
<path d="M193.618 138.746C204.038 144.789 208.931 143.925 208.931 143.925C208.931 143.925 204.088 151.095 202.368 156.588C199.928 164.388 205.376 169.74 205.376 169.74C205.376 169.74 225.719 174.172 229.173 174.978C232.628 175.785 241.861 161.105 243.233 144.621C244.417 130.379 240.431 126.613 226.912 117.517C213.441 108.45 191.663 101.583 189.567 101.428C189.567 101.428 182.708 102.053 179.772 109.996C176.836 117.939 184.176 129.997 184.176 129.997C184.176 129.997 188.578 135.823 193.618 138.746Z" fill="#008056"/>
<path d="M193.618 138.746C204.038 144.789 208.931 143.925 208.931 143.925C208.931 143.925 204.088 151.095 202.368 156.588C199.928 164.388 205.376 169.74 205.376 169.74C205.376 169.74 225.719 174.172 229.173 174.978C232.628 175.785 241.861 161.105 243.233 144.621C244.417 130.379 240.431 126.613 226.912 117.517C213.441 108.45 191.663 101.583 189.567 101.428C189.567 101.428 182.708 102.053 179.772 109.996C176.836 117.939 184.176 129.997 184.176 129.997C184.176 129.997 188.578 135.823 193.618 138.746Z" stroke="#502A73" stroke-width="0.304" stroke-miterlimit="10" stroke-linecap="round" stroke-linejoin="round"/>
<path d="M205.376 169.74L203.5 175.699L226.836 181.31L229.173 174.979L205.376 169.74Z" fill="#008056"/>
<path d="M205.376 169.74L203.5 175.699L226.836 181.31L229.173 174.979L205.376 169.74Z" stroke="#502A73" stroke-width="0.304" stroke-miterlimit="10" stroke-linecap="round" stroke-linejoin="round"/>
<path d="M223.266 130.861C223.266 130.861 218.948 132.588 214.228 137.394C211.176 140.501 208.931 143.926 208.931 143.926C208.931 143.926 207.78 143.235 208.298 139.321C208.816 135.408 212.386 131.666 212.386 131.666" fill="#008056"/>
<path d="M223.266 130.861C223.266 130.861 218.948 132.588 214.228 137.394C211.176 140.501 208.931 143.926 208.931 143.926C208.931 143.926 207.78 143.235 208.298 139.321C208.816 135.408 212.386 131.666 212.386 131.666" stroke="#502A73" stroke-width="0.304" stroke-miterlimit="10" stroke-linecap="round" stroke-linejoin="round"/>
<path d="M138.785 116.25C138.785 116.25 133.327 125.589 136.706 128.684C140.086 131.779 146.107 127.771 151.839 127.815C160.037 127.881 160.037 131.844 160.037 131.844" stroke="#502A73" stroke-width="1.52" stroke-miterlimit="10" stroke-linecap="round" stroke-linejoin="round"/>
<path d="M138.785 116.25C138.785 116.25 133.327 125.589 136.706 128.684C140.086 131.779 146.107 127.771 151.839 127.815C160.037 127.881 160.037 131.844 160.037 131.844" stroke="#EEC718" stroke-width="0.912" stroke-miterlimit="10" stroke-linecap="round" stroke-linejoin="round"/>
<path d="M161.657 132.668C161.657 133.562 160.931 134.287 160.037 134.287C159.143 134.287 158.419 133.562 158.419 132.668C158.419 131.774 159.143 131.048 160.037 131.048C160.931 131.048 161.657 131.774 161.657 132.668Z" fill="#EEC718"/>
<path d="M161.657 132.668C161.657 133.562 160.931 134.287 160.037 134.287C159.143 134.287 158.419 133.562 158.419 132.668C158.419 131.774 159.143 131.048 160.037 131.048C160.931 131.048 161.657 131.774 161.657 132.668Z" stroke="#502A73" stroke-width="0.304" stroke-miterlimit="10" stroke-linecap="round" stroke-linejoin="round"/>
<path d="M141.231 109.09C141.231 109.09 133.898 118.103 140.307 120.09C145.346 121.651 150.872 115.264 154.254 112.413C160.601 107.061 166.975 104.001 170.359 103.046C180.881 100.077 189.568 101.428 189.568 101.428C189.568 101.428 195.172 99.671 193.272 93.0774C191.372 86.4839 180.159 83.3294 167.66 88.2166C155.16 93.1027 148.629 102.313 148.629 102.313" fill="#008056"/>
<path d="M141.231 109.09C141.231 109.09 133.898 118.103 140.307 120.09C145.346 121.651 150.872 115.264 154.254 112.413C160.601 107.061 166.975 104.001 170.359 103.046C180.881 100.077 189.568 101.428 189.568 101.428C189.568 101.428 195.172 99.671 193.272 93.0774C191.372 86.4839 180.159 83.3294 167.66 88.2166C155.16 93.1027 148.629 102.313 148.629 102.313" stroke="#502A73" stroke-width="0.304" stroke-miterlimit="10" stroke-linecap="round" stroke-linejoin="round"/>
<path d="M148.259 113.363C148.259 113.363 143.423 121.635 146.417 124.378C149.41 127.119 154.745 123.568 159.821 123.608C167.084 123.665 167.084 127.177 167.084 127.177" stroke="#502A73" stroke-width="1.52" stroke-miterlimit="10" stroke-linecap="round" stroke-linejoin="round"/>
<path d="M148.259 113.363C148.259 113.363 143.423 121.635 146.417 124.378C149.41 127.119 154.745 123.568 159.821 123.608C167.084 123.665 167.084 127.177 167.084 127.177" stroke="#EEC718" stroke-width="0.912" stroke-miterlimit="10" stroke-linecap="round" stroke-linejoin="round"/>
<path d="M168.659 128.321C168.659 129.215 167.933 129.94 167.039 129.94C166.145 129.94 165.421 129.215 165.421 128.321C165.421 127.427 166.145 126.701 167.039 126.701C167.933 126.701 168.659 127.427 168.659 128.321Z" fill="#EEC718"/>
<path d="M168.659 128.321C168.659 129.215 167.933 129.94 167.039 129.94C166.145 129.94 165.421 129.215 165.421 128.321C165.421 127.427 166.145 126.701 167.039 126.701C167.933 126.701 168.659 127.427 168.659 128.321Z" stroke="#502A73" stroke-width="0.304" stroke-miterlimit="10" stroke-linecap="round" stroke-linejoin="round"/>
<path d="M142.856 113.686L154.82 104.043C154.206 97.0336 152.944 83.3497 152.105 79.665C150.754 73.7336 149.884 72.1833 145.996 71.2125C140.741 69.9009 132.666 79.6065 132.666 79.6065C132.666 79.6065 132.114 85.3245 131.871 88.417C131.853 88.7946 131.705 89.1537 131.453 89.436L128.678 92.5435C128.223 93.131 128.491 93.9916 129.198 94.2188L131.285 95.0611C131.726 95.2619 131.674 95.7174 131.221 96.4828C130.582 97.5661 131.637 98.1192 131.885 98.2385C132.451 98.5105 132.604 98.5139 132.604 98.5139L132.65 100.614C132.65 100.614 131.903 100.787 131.839 101.379C131.761 102.095 132.119 102.32 132.161 102.741C132.26 103.703 132.352 104.14 132.445 104.807C132.615 106.015 133.732 106.857 134.94 106.691L140.573 105.919L142.248 113.983L142.856 113.686Z" fill="#BF792A"/>
<path d="M142.856 113.686L154.82 104.043C154.206 97.0336 152.944 83.3497 152.105 79.665C150.754 73.7336 149.884 72.1833 145.996 71.2125C140.741 69.9009 132.666 79.6065 132.666 79.6065C132.666 79.6065 132.114 85.3245 131.871 88.417C131.853 88.7946 131.705 89.1537 131.453 89.436L128.678 92.5435C128.223 93.131 128.491 93.9916 129.198 94.2188L131.285 95.0611C131.726 95.2619 131.674 95.7174 131.221 96.4828C130.582 97.5661 131.637 98.1192 131.885 98.2385C132.451 98.5105 132.604 98.5139 132.604 98.5139L132.65 100.614C132.65 100.614 131.903 100.787 131.839 101.379C131.761 102.095 132.119 102.32 132.161 102.741C132.26 103.703 132.352 104.14 132.445 104.807C132.615 106.015 133.732 106.857 134.94 106.691L140.573 105.919L142.248 113.983L142.856 113.686Z" stroke="#502A73" stroke-width="0.304" stroke-miterlimit="10" stroke-linecap="round" stroke-linejoin="round"/>
<path d="M138.428 97.7556C138.964 97.9255 139.341 97.6719 139.341 97.6719C139.341 97.6719 137.699 96.0191 137.229 95.7677C136.758 95.5164 135.522 95.6105 133.74 95.7448C132.782 95.8171 132.056 95.6748 131.585 95.5278C131.582 95.7666 131.458 96.0811 131.22 96.4828C131.179 96.5528 131.146 96.6205 131.118 96.6859C131.596 96.8673 132.346 97.0899 133.261 97.1531C134.871 97.2644 136.739 96.9798 136.891 96.943C136.975 96.9235 137.792 97.5536 138.428 97.7556Z" fill="#502A73"/>
<path d="M138.428 97.7556C138.964 97.9255 139.341 97.6719 139.341 97.6719C139.341 97.6719 137.699 96.0191 137.229 95.7677C136.758 95.5164 135.522 95.6105 133.74 95.7448C132.782 95.8171 132.056 95.6748 131.585 95.5278C131.582 95.7666 131.458 96.0811 131.22 96.4828C131.179 96.5528 131.146 96.6205 131.118 96.6859C131.596 96.8673 132.346 97.0899 133.261 97.1531C134.871 97.2644 136.739 96.9798 136.891 96.943C136.975 96.9235 137.792 97.5536 138.428 97.7556Z" stroke="#502A73" stroke-width="0.304" stroke-miterlimit="10" stroke-linecap="round" stroke-linejoin="round"/>
<path d="M138.428 97.7556C138.964 97.9255 139.341 97.6719 139.341 97.6719C139.341 97.6719 137.699 96.0191 137.229 95.7677C136.758 95.5164 135.522 95.6105 133.74 95.7448C132.782 95.8171 132.056 95.6748 131.585 95.5278C131.582 95.7666 131.458 96.0811 131.22 96.4828C131.179 96.5528 131.146 96.6205 131.118 96.6859C131.596 96.8673 132.346 97.0899 133.261 97.1531C134.871 97.2644 136.739 96.9798 136.891 96.943C136.975 96.9235 137.792 97.5536 138.428 97.7556Z" stroke="#502A73" stroke-width="0.304" stroke-miterlimit="10" stroke-linecap="round" stroke-linejoin="round"/>
<path d="M139.639 81.0303C140.246 80.8226 138.51 81.2747 138.888 81.2678C140.172 81.2438 140.584 81.1818 140.584 81.1818L141.11 81.8818C141.636 82.5817 144.421 81.37 144.505 81.4503C144.59 81.5318 142.565 83.6363 142.732 84.4923C142.897 85.3484 144.126 84.8286 144.214 85.0741C144.301 85.3208 142.458 87.306 142.649 87.8476C142.842 88.3893 143.49 88.574 143.49 88.574C143.49 88.574 142.896 90.9413 144.661 91.7032C146.425 92.464 146.946 91.2729 147.061 88.146C147.097 87.1809 147.698 86.45 148.35 86.6978C149.525 87.1442 151.044 89.5482 151.044 89.5482C151.044 89.5482 152.318 93.8996 153.955 94.4607C153.366 88.442 152.663 82.1204 152.104 79.6648C150.752 73.7333 149.883 72.1831 145.996 71.2123C142.919 70.4446 138.681 72.0901 135.229 74.1212C134.5 74.5492 134.222 73.5624 131.634 73.606C129.579 73.6392 128.448 77.4581 130.368 79.5891C131.747 81.1187 137.476 81.7682 139.639 81.0303Z" fill="#502A73"/>
<path d="M139.639 81.0303C140.246 80.8226 138.51 81.2747 138.888 81.2678C140.172 81.2438 140.584 81.1818 140.584 81.1818L141.11 81.8818C141.636 82.5817 144.421 81.37 144.505 81.4503C144.59 81.5318 142.565 83.6363 142.732 84.4923C142.897 85.3484 144.126 84.8286 144.214 85.0741C144.301 85.3208 142.458 87.306 142.649 87.8476C142.842 88.3893 143.49 88.574 143.49 88.574C143.49 88.574 142.896 90.9413 144.661 91.7032C146.425 92.464 146.946 91.2729 147.061 88.146C147.097 87.1809 147.698 86.45 148.35 86.6978C149.525 87.1442 151.044 89.5482 151.044 89.5482C151.044 89.5482 152.318 93.8996 153.955 94.4607C153.366 88.442 152.663 82.1204 152.104 79.6648C150.752 73.7333 149.883 72.1831 145.996 71.2123C142.919 70.4446 138.681 72.0901 135.229 74.1212C134.5 74.5492 134.222 73.5624 131.634 73.606C129.579 73.6392 128.448 77.4581 130.368 79.5891C131.747 81.1187 137.476 81.7682 139.639 81.0303Z" stroke="#502A73" stroke-width="0.304" stroke-miterlimit="10" stroke-linecap="round" stroke-linejoin="round"/>
<path d="M139.639 81.0303C140.246 80.8226 138.51 81.2747 138.888 81.2678C140.172 81.2438 140.584 81.1818 140.584 81.1818L141.11 81.8818C141.636 82.5817 144.421 81.37 144.505 81.4503C144.59 81.5318 142.565 83.6363 142.732 84.4923C142.897 85.3484 144.126 84.8286 144.214 85.0741C144.301 85.3208 142.458 87.306 142.649 87.8476C142.842 88.3893 143.49 88.574 143.49 88.574C143.49 88.574 142.896 90.9413 144.661 91.7032C146.425 92.464 146.946 91.2729 147.061 88.146C147.097 87.1809 147.698 86.45 148.35 86.6978C149.525 87.1442 151.044 89.5482 151.044 89.5482C151.044 89.5482 152.318 93.8996 153.955 94.4607C153.366 88.442 152.663 82.1204 152.104 79.6648C150.752 73.7333 149.883 72.1831 145.996 71.2123C142.919 70.4446 138.681 72.0901 135.229 74.1212C134.5 74.5492 134.222 73.5624 131.634 73.606C129.579 73.6392 128.448 77.4581 130.368 79.5891C131.747 81.1187 137.476 81.7682 139.639 81.0303Z" stroke="#502A73" stroke-width="0.304" stroke-miterlimit="10" stroke-linecap="round" stroke-linejoin="round"/>
<path d="M147.492 88.9982C147.525 88.4015 147.626 87.8771 147.795 87.5226C148.468 86.1054 149.967 85.4077 151.385 86.0824C152.804 86.756 153.144 88.3717 152.806 89.9048C152.489 91.3357 151.75 92.5934 150.911 93.2933C150.268 93.8281 149.568 94.0358 148.954 93.7432" fill="#BF792A"/>
<path d="M147.492 88.9982C147.525 88.4015 147.626 87.8771 147.795 87.5226C148.468 86.1054 149.967 85.4077 151.385 86.0824C152.804 86.756 153.144 88.3717 152.806 89.9048C152.489 91.3357 151.75 92.5934 150.911 93.2933C150.268 93.8281 149.568 94.0358 148.954 93.7432" stroke="#502A73" stroke-width="0.304" stroke-miterlimit="10" stroke-linecap="round" stroke-linejoin="round"/>
<path d="M147.003 92.6282C147.003 92.6282 146.546 93.4741 145.677 93.5246C144.807 93.5751 143.875 92.6684 143.875 92.6684" stroke="#502A73" stroke-width="0.304" stroke-miterlimit="10" stroke-linecap="round" stroke-linejoin="round"/>
<path d="M146.91 94.1116C146.91 94.1116 146.454 94.9575 145.585 95.008C144.715 95.0585 143.783 94.1518 143.783 94.1518" stroke="#502A73" stroke-width="0.304" stroke-miterlimit="10" stroke-linecap="round" stroke-linejoin="round"/>
<path d="M148.889 89.1776C148.889 89.1776 149.259 87.5259 150.652 88.1882C151.556 88.6175 151.332 90.121 150.492 90.5663C150.027 90.8143 149.336 90.5893 149.336 90.5893C149.336 90.5893 149.791 90.9359 149.561 91.3962C149.269 91.9746 148.63 91.488 148.63 91.488" fill="#BF792A"/>
<path d="M148.889 89.1776C148.889 89.1776 149.259 87.5259 150.652 88.1882C151.556 88.6175 151.332 90.121 150.492 90.5663C150.027 90.8143 149.336 90.5893 149.336 90.5893C149.336 90.5893 149.791 90.9359 149.561 91.3962C149.269 91.9746 148.63 91.488 148.63 91.488" stroke="#502A73" stroke-width="0.304" stroke-miterlimit="10" stroke-linecap="round" stroke-linejoin="round"/>
<path d="M136.998 98.6858C136.996 98.6824 136.994 98.679 136.992 98.6744C136.858 98.4356 136.574 98.3232 136.304 98.3771C135.958 98.4471 135.07 98.6101 134.069 98.664C133.491 98.6962 132.978 98.6112 132.594 98.5137L132.652 100.646C132.662 101.047 132.968 101.375 133.367 101.419C133.72 101.459 134.166 101.418 134.724 101.248C136.38 100.745 137.2 99.06 136.998 98.6858Z" fill="white"/>
<path d="M136.998 98.6858C136.996 98.6824 136.994 98.679 136.992 98.6744C136.858 98.4356 136.574 98.3232 136.304 98.3771C135.958 98.4471 135.07 98.6101 134.069 98.664C133.491 98.6962 132.978 98.6112 132.594 98.5137L132.652 100.646C132.662 101.047 132.968 101.375 133.367 101.419C133.72 101.459 134.166 101.418 134.724 101.248C136.38 100.745 137.2 99.06 136.998 98.6858Z" stroke="#502A73" stroke-width="0.304" stroke-miterlimit="10" stroke-linecap="round" stroke-linejoin="round"/>
<path d="M136.272 88.139C136.753 88.0242 137.256 88.0518 137.722 88.217" stroke="#502A73" stroke-width="0.608" stroke-miterlimit="10" stroke-linecap="round" stroke-linejoin="round"/>
<path d="M136.484 88.1319C136.33 88.3844 136.215 88.8079 136.194 89.2016C136.161 89.8213 136.373 90.1324 136.656 90.1473C136.937 90.1634 137.181 89.8764 137.215 89.2567C137.235 88.8618 137.167 88.4291 137.04 88.1617L136.484 88.1319Z" fill="#502A73"/>
<path d="M131.716 87.8956C132.197 87.7808 132.699 87.8072 133.165 87.9736" stroke="#502A73" stroke-width="0.608" stroke-miterlimit="10" stroke-linecap="round" stroke-linejoin="round"/>
<path d="M131.928 87.8884C131.774 88.1409 131.659 88.5645 131.639 88.9582C131.605 89.5779 131.818 89.889 132.1 89.9039C132.381 89.92 132.626 89.633 132.659 89.0132C132.68 88.6184 132.611 88.1857 132.485 87.9183L131.928 87.8884Z" fill="#502A73"/>
<path d="M134.791 86.1522C134.91 86.4047 135.227 86.5023 135.46 86.3485C135.86 86.0868 136.515 85.7941 137.307 85.9617C137.739 86.0535 138.055 86.1763 138.286 86.2991C138.556 86.4426 138.882 86.2429 138.889 85.9376C138.891 85.8125 138.838 85.6954 138.744 85.6139C138.266 85.195 136.693 84.0759 134.912 85.5956C134.752 85.7322 134.702 85.9617 134.791 86.1522Z" fill="#502A73"/>
<path d="M132.808 85.0178C132.573 84.9363 132.364 84.9259 132.178 84.9535L132.078 86.0381C132.18 86.0083 132.294 85.9899 132.421 86.0025C132.697 86.0301 132.963 86.1472 133.171 86.2665C133.407 86.402 133.708 86.309 133.825 86.0622C133.915 85.8728 133.867 85.649 133.71 85.5102C133.54 85.3587 133.259 85.1739 132.808 85.0178Z" fill="#502A73"/>
<path d="M151.426 76.9562C151.097 77.1352 150.734 77.4175 150.304 77.6149C141.776 81.5267 134.287 80.8749 132.569 80.6145C132.483 81.5302 132.349 82.9588 132.213 84.4448C133.649 84.6835 136.798 85.0301 141.431 84.5699C145.813 84.135 150.095 82.4918 152.433 81.4602C152.319 80.7304 152.208 80.1199 152.105 79.6643C151.87 78.635 151.649 77.7411 151.426 76.9562Z" fill="#008056"/>
<path d="M151.426 76.9562C151.097 77.1352 150.734 77.4175 150.304 77.6149C141.776 81.5267 134.287 80.8749 132.569 80.6145C132.483 81.5302 132.349 82.9588 132.213 84.4448C133.649 84.6835 136.798 85.0301 141.431 84.5699C145.813 84.135 150.095 82.4918 152.433 81.4602C152.319 80.7304 152.208 80.1199 152.105 79.6643C151.87 78.635 151.649 77.7411 151.426 76.9562Z" stroke="#502A73" stroke-width="0.304" stroke-miterlimit="10" stroke-linecap="round" stroke-linejoin="round"/>
<path d="M140.999 115.608C140.999 115.608 146.847 107.022 156.121 102.55C163.043 99.2124 170.747 97.8136 178.304 97.8136C187.001 97.8136 187.515 92.1243 183.37 90.7427C179.276 89.3794 172.604 92.628 172.604 92.628" fill="#008056"/>
<path d="M140.999 115.608C140.999 115.608 146.847 107.022 156.121 102.55C163.043 99.2124 170.747 97.8136 178.304 97.8136C187.001 97.8136 187.515 92.1243 183.37 90.7427C179.276 89.3794 172.604 92.628 172.604 92.628" stroke="#502A73" stroke-width="0.304" stroke-miterlimit="10" stroke-linecap="round" stroke-linejoin="round"/>
<path d="M127.598 123.241C125.625 122.95 124.541 124.124 124.394 124.296C124.251 124.174 123.189 123.366 121.203 124.332C119.297 125.258 118.723 127.212 119.051 128.081C119.224 128.538 119.658 127.965 120.378 127.305C121.398 126.371 122.035 126.715 122.035 126.715C122.035 126.715 120.476 127.458 119.893 128.572C119.31 129.686 120.03 131.048 120.683 130.107C121.766 128.548 122.426 128.424 122.426 128.424C122.426 128.424 121.759 129.088 121.431 129.938C121.102 130.786 121.337 131.581 121.885 131.508C122.219 131.465 123.717 128.388 123.504 130.175C123.209 132.635 123.162 134.375 123.258 135.559C123.305 136.125 123.656 136.492 124.074 136.421L124.452 136.357C124.87 136.285 125.23 135.797 125.29 135.213C125.413 133.99 125.402 132.261 125.161 129.892C124.986 128.173 126.421 130.748 126.755 130.678C127.305 130.563 127.558 129.685 127.247 128.945C126.934 128.206 126.28 127.768 126.28 127.768C126.28 127.768 126.94 127.665 127.994 128.86C128.63 129.582 129.38 127.968 128.82 127.049C128.259 126.13 126.711 125.918 126.711 125.918C126.711 125.918 127.357 125.354 128.36 125.943C129.069 126.36 129.493 126.786 129.676 126.268C130.024 125.286 129.491 123.52 127.598 123.241Z" fill="#EEC718"/>
<path d="M127.598 123.241C125.625 122.95 124.541 124.124 124.394 124.296C124.251 124.174 123.189 123.366 121.203 124.332C119.297 125.258 118.723 127.212 119.051 128.081C119.224 128.538 119.658 127.965 120.378 127.305C121.398 126.371 122.035 126.715 122.035 126.715C122.035 126.715 120.476 127.458 119.893 128.572C119.31 129.686 120.03 131.048 120.683 130.107C121.766 128.548 122.426 128.424 122.426 128.424C122.426 128.424 121.759 129.088 121.431 129.938C121.102 130.786 121.337 131.581 121.885 131.508C122.219 131.465 123.717 128.388 123.504 130.175C123.209 132.635 123.162 134.375 123.258 135.559C123.305 136.125 123.656 136.492 124.074 136.421L124.452 136.357C124.87 136.285 125.23 135.797 125.29 135.213C125.413 133.99 125.402 132.261 125.161 129.892C124.986 128.173 126.421 130.748 126.755 130.678C127.305 130.563 127.558 129.685 127.247 128.945C126.934 128.206 126.28 127.768 126.28 127.768C126.28 127.768 126.94 127.665 127.994 128.86C128.63 129.582 129.38 127.968 128.82 127.049C128.259 126.13 126.711 125.918 126.711 125.918C126.711 125.918 127.357 125.354 128.36 125.943C129.069 126.36 129.493 126.786 129.676 126.268C130.024 125.286 129.491 123.52 127.598 123.241Z" stroke="#502A73" stroke-width="0.304" stroke-miterlimit="10" stroke-linecap="round" stroke-linejoin="round"/>
<path d="M201.217 133.854C202.714 127.407 204.959 124.472 204.959 124.472L200.862 121.266C200.862 121.266 197.821 124.586 196.093 131.844C195.288 135.231 195.213 137.908 195.328 139.702C197.248 140.739 198.958 141.528 200.46 142.126C200.404 140.137 200.48 137.026 201.217 133.854Z" fill="#4BBEA5"/>
<path d="M201.217 133.854C202.714 127.407 204.959 124.472 204.959 124.472L200.862 121.266C200.862 121.266 197.821 124.586 196.093 131.844C195.288 135.231 195.213 137.908 195.328 139.702C197.248 140.739 198.958 141.528 200.46 142.126C200.404 140.137 200.48 137.026 201.217 133.854Z" stroke="#502A73" stroke-width="0.304" stroke-miterlimit="10" stroke-linecap="round" stroke-linejoin="round"/>
<path d="M218.066 122.752C215.792 126.933 210.508 128.492 206.327 126.218L198.073 121.726C193.891 119.452 192.331 114.171 194.606 109.991C196.881 105.81 202.163 104.251 206.344 106.525L214.6 111.017C218.782 113.291 220.341 118.572 218.066 122.752Z" fill="#4BBEA5"/>
<path d="M218.066 122.752C215.792 126.933 210.508 128.492 206.327 126.218L198.073 121.726C193.891 119.452 192.331 114.171 194.606 109.991C196.881 105.81 202.163 104.251 206.344 106.525L214.6 111.017C218.782 113.291 220.341 118.572 218.066 122.752Z" stroke="#502A73" stroke-width="0.304" stroke-miterlimit="10" stroke-linecap="round" stroke-linejoin="round"/>
<path d="M218.897 121.225C216.622 125.405 211.339 126.965 207.159 124.691L198.903 120.199C194.722 117.925 193.162 112.644 195.437 108.464C197.712 104.283 202.994 102.724 207.175 104.998L215.431 109.49C219.612 111.764 221.172 117.045 218.897 121.225Z" fill="#4BBEA5"/>
<path d="M218.897 121.225C216.622 125.405 211.339 126.965 207.159 124.691L198.903 120.199C194.722 117.925 193.162 112.644 195.437 108.464C197.712 104.283 202.994 102.724 207.175 104.998L215.431 109.49C219.612 111.764 221.172 117.045 218.897 121.225Z" stroke="#502A73" stroke-width="0.304" stroke-miterlimit="10" stroke-linecap="round" stroke-linejoin="round"/>
<path d="M209.127 121.074L200.871 116.583C198.671 115.386 197.857 112.632 199.054 110.431C200.252 108.231 203.007 107.418 205.207 108.615L213.463 113.106C215.664 114.303 216.477 117.058 215.28 119.258C214.083 121.459 211.328 122.271 209.127 121.074Z" fill="#502A73"/>
<path d="M209.127 121.074L200.871 116.583C198.671 115.386 197.857 112.632 199.054 110.431C200.252 108.231 203.007 107.418 205.207 108.615L213.463 113.106C215.664 114.303 216.477 117.058 215.28 119.258C214.083 121.459 211.328 122.271 209.127 121.074Z" stroke="#502A73" stroke-width="0.304" stroke-miterlimit="10" stroke-linecap="round" stroke-linejoin="round"/>
<path d="M209.127 121.074L200.871 116.583C198.671 115.386 197.857 112.632 199.054 110.431C200.252 108.231 203.007 107.418 205.207 108.615L213.463 113.106C215.664 114.303 216.477 117.058 215.28 119.258C214.083 121.459 211.328 122.271 209.127 121.074Z" stroke="#502A73" stroke-width="0.304" stroke-miterlimit="10" stroke-linecap="round" stroke-linejoin="round"/>
<path d="M149.289 188.475C149.289 188.475 145.152 188.13 140.01 186.058C134.867 183.986 129.514 183.468 129.514 183.468" fill="white"/>
<path d="M149.289 188.475C149.289 188.475 145.152 188.13 140.01 186.058C134.867 183.986 129.514 183.468 129.514 183.468" stroke="#502A73" stroke-width="0.304" stroke-miterlimit="10" stroke-linecap="round" stroke-linejoin="round"/>
<path d="M138.207 185.394L96.1592 206.292C91.7266 208.496 88.2592 212.254 86.4205 216.849L71.5444 254.021" fill="white"/>
<path d="M138.207 185.394L96.1592 206.292C91.7266 208.496 88.2592 212.254 86.4205 216.849L71.5444 254.021" stroke="#502A73" stroke-width="0.304" stroke-miterlimit="10" stroke-linecap="round" stroke-linejoin="round"/>
<path d="M98.4424 16.0624H92.4175V21.2004H98.4424V16.0624Z" fill="white"/>
<path d="M93.7908 34.4426C92.1517 34.4426 90.9116 33.2466 90.9116 31.6079C90.9116 28.3751 95.1642 28.419 97.2461 28.4637C97.2461 30.8109 97.1137 34.4426 93.7908 34.4426ZM85.1963 32.361C85.0638 36.2584 88.6516 38.4285 91.7088 38.4285C94.0118 38.4285 95.8289 37.72 97.2014 36.0813V36.126V38.2961C97.2014 40.0234 96.2271 40.9528 94.6327 40.9528H78.7285C76.6912 40.9528 75.096 39.4473 74.7864 37.8972C74.3874 35.9042 75.6721 34.1769 75.6721 34.1769C75.6721 34.1769 73.8998 32.6706 71.3749 30.3681C69.0272 33.4684 68.9386 36.3917 69.0272 37.8972C69.249 42.4591 73.5455 46.844 78.9503 46.844H95.1642C102.606 46.844 103.182 40.4662 103.182 37.9419L103.226 25.0976C93.5251 25.0976 85.4629 24.433 85.1963 32.361Z" fill="white"/>
<path d="M142.565 18.144H136.541V23.282H142.565V18.144Z" fill="white"/>
<path d="M133.794 18.144H127.769V23.282H133.794V18.144Z" fill="white"/>
<path d="M202.326 42.238C199.225 42.238 198.117 39.3148 198.117 36.1697C198.117 33.3359 199.225 30.4565 202.326 30.4565C205.559 30.4565 206.667 33.0255 206.667 36.1697C206.667 39.7137 205.559 42.238 202.326 42.238ZM202.326 25.6289C195.504 25.6289 192.004 31.0773 192.004 36.1697V38.2074C192.004 39.9347 191.074 40.9535 189.479 40.9535H184.65H184.473H178.138C178.138 32.4942 171.271 25.9839 163.209 25.9839C157.893 25.9839 152.045 28.9949 151.913 35.8163H157.539C157.804 32.5389 160.241 31.2982 163.209 31.2982C168.747 31.2982 172.157 35.4613 172.113 40.9535H149.83H149.432H146.862C144.204 40.9535 142.61 39.2709 142.61 36.6572V28.5082H136.629V37.4104C136.629 39.9347 135.388 40.9535 133.085 40.9535H129.098H128.699H126.085C123.472 40.9535 121.921 39.3587 121.833 36.879V28.5082H115.808V43.7435C115.763 47.9513 112.441 49.2805 110.314 49.2805C107.745 49.2805 105.22 48.2616 105.22 48.2616L106.194 53.1778C106.194 53.1778 108.366 54.1967 111.112 54.4176C116.074 54.8166 121.079 51.6715 121.744 45.4708C122.851 46.2687 124.402 46.8439 126.44 46.8439H128.699H129.098H134.768C137.515 46.8439 139.818 45.6041 140.882 43.7435C142.033 45.3384 143.983 46.8439 147.216 46.8439H149.432H149.83H184.473H184.65H189.744C192.403 46.8439 194.219 45.5155 195.016 44.4967C196.611 45.9136 198.914 47.3314 202.326 47.3314C209.148 47.3314 212.825 41.3078 212.825 36.1697C212.825 31.0773 209.148 25.6289 202.326 25.6289Z" fill="white"/>
</svg>
