<svg width="180" height="146" viewBox="0 0 180 146" fill="none" xmlns="http://www.w3.org/2000/svg">
<path d="M129.65 47.3103C146.733 47.3103 160.581 33.3873 160.581 16.2123C160.581 -0.962671 146.733 -14.8857 129.65 -14.8857C112.568 -14.8857 98.7195 -0.962671 98.7195 16.2123C98.7195 33.3873 112.568 47.3103 129.65 47.3103Z" stroke="#048057" stroke-width="0.7541" stroke-miterlimit="10"/>
<path d="M129.65 51.3943C148.976 51.3943 164.643 35.6428 164.643 16.2123C164.643 -3.21819 148.976 -18.9697 129.65 -18.9697C110.324 -18.9697 94.6575 -3.21819 94.6575 16.2123C94.6575 35.6428 110.324 51.3943 129.65 51.3943Z" stroke="#048057" stroke-width="0.7541" stroke-miterlimit="10"/>
<path d="M129.65 55.4743C151.218 55.4743 168.701 37.896 168.701 16.2122C168.701 -5.4716 151.218 -23.0498 129.65 -23.0498C108.083 -23.0498 90.5994 -5.4716 90.5994 16.2122C90.5994 37.896 108.083 55.4743 129.65 55.4743Z" stroke="#048057" stroke-width="0.7541" stroke-miterlimit="10"/>
<path d="M129.65 59.5544C153.459 59.5544 172.759 40.1495 172.759 16.2124C172.759 -7.72475 153.459 -27.1296 129.65 -27.1296C105.842 -27.1296 86.5413 -7.72475 86.5413 16.2124C86.5413 40.1495 105.842 59.5544 129.65 59.5544Z" stroke="#048057" stroke-width="0.7541" stroke-miterlimit="10"/>
<path d="M129.65 63.6384C155.702 63.6384 176.822 42.405 176.822 16.2124C176.822 -9.98028 155.702 -31.2136 129.65 -31.2136C103.598 -31.2136 82.4792 -9.98028 82.4792 16.2124C82.4792 42.405 103.598 63.6384 129.65 63.6384Z" stroke="#048057" stroke-width="0.7541" stroke-miterlimit="10"/>
<path d="M129.65 67.7183C157.943 67.7183 180.88 44.6583 180.88 16.2123C180.88 -12.2337 157.943 -35.2937 129.65 -35.2937C101.357 -35.2937 78.4211 -12.2337 78.4211 16.2123C78.4211 44.6583 101.357 67.7183 129.65 67.7183Z" stroke="#048057" stroke-width="0.7541" stroke-miterlimit="10"/>
<path d="M129.651 71.7982C160.185 71.7982 184.938 46.9115 184.938 16.2122C184.938 -14.4871 160.185 -39.3738 129.651 -39.3738C99.1162 -39.3738 74.3633 -14.4871 74.3633 16.2122C74.3633 46.9115 99.1162 71.7982 129.651 71.7982Z" stroke="#048057" stroke-width="0.7541" stroke-miterlimit="10"/>
<path d="M129.65 75.8822C162.428 75.8822 189 49.1671 189 16.2122C189 -16.7426 162.428 -43.4578 129.65 -43.4578C96.8726 -43.4578 70.301 -16.7426 70.301 16.2122C70.301 49.1671 96.8726 75.8822 129.65 75.8822Z" stroke="#048057" stroke-width="0.7541" stroke-miterlimit="10"/>
<path d="M129.65 79.9624C164.669 79.9624 193.058 51.4206 193.058 16.2124C193.058 -18.9957 164.669 -47.5376 129.65 -47.5376C94.6314 -47.5376 66.2429 -18.9957 66.2429 16.2124C66.2429 51.4206 94.6314 79.9624 129.65 79.9624Z" stroke="#048057" stroke-width="0.7541" stroke-miterlimit="10"/>
<path d="M129.651 84.0423C166.911 84.0423 197.116 53.6738 197.116 16.2123C197.116 -21.2492 166.911 -51.6177 129.651 -51.6177C92.3904 -51.6177 62.1851 -21.2492 62.1851 16.2123C62.1851 53.6738 92.3904 84.0423 129.651 84.0423Z" stroke="#048057" stroke-width="0.7541" stroke-miterlimit="10"/>
<path d="M129.651 88.1263C169.154 88.1263 201.178 55.9293 201.178 16.2123C201.178 -23.5047 169.154 -55.7017 129.651 -55.7017C90.147 -55.7017 58.123 -23.5047 58.123 16.2123C58.123 55.9293 90.147 88.1263 129.651 88.1263Z" stroke="#048057" stroke-width="0.7541" stroke-miterlimit="10"/>
<path d="M129.651 92.2062C171.395 92.2062 205.236 58.1825 205.236 16.2122C205.236 -25.7581 171.395 -59.7817 129.651 -59.7817C87.9058 -59.7817 54.0649 -25.7581 54.0649 16.2122C54.0649 58.1825 87.9058 92.2062 129.651 92.2062Z" stroke="#048057" stroke-width="0.7541" stroke-miterlimit="10"/>
<path d="M129.65 96.2902C173.638 96.2902 209.298 60.4381 209.298 16.2123C209.298 -28.0136 173.638 -63.8657 129.65 -63.8657C85.6622 -63.8657 50.0027 -28.0136 50.0027 16.2123C50.0027 60.4381 85.6622 96.2902 129.65 96.2902Z" stroke="#048057" stroke-width="0.7541" stroke-miterlimit="10"/>
<path d="M129.651 100.37C175.88 100.37 213.356 62.6916 213.356 16.2124C213.356 -30.2667 175.88 -67.9456 129.651 -67.9456C83.4212 -67.9456 45.9448 -30.2667 45.9448 16.2124C45.9448 62.6916 83.4212 100.37 129.651 100.37Z" stroke="#048057" stroke-width="0.7541" stroke-miterlimit="10"/>
<path d="M129.651 104.45C178.121 104.45 217.414 64.9448 217.414 16.2123C217.414 -32.5201 178.121 -72.0256 129.651 -72.0256C81.1799 -72.0256 41.8867 -32.5201 41.8867 16.2123C41.8867 64.9448 81.1799 104.45 129.651 104.45Z" stroke="#048057" stroke-width="0.7541" stroke-miterlimit="10"/>
<path d="M129.651 108.534C180.365 108.534 221.476 67.2003 221.476 16.2123C221.476 -34.7757 180.365 -76.1096 129.651 -76.1096C78.9365 -76.1096 37.8247 -34.7757 37.8247 16.2123C37.8247 67.2003 78.9365 108.534 129.651 108.534Z" stroke="#048057" stroke-width="0.7541" stroke-miterlimit="10"/>
<path d="M129.65 112.614C182.606 112.614 225.534 69.4536 225.534 16.2123C225.534 -37.0291 182.606 -80.1897 129.65 -80.1897C76.6953 -80.1897 33.7666 -37.0291 33.7666 16.2123C33.7666 69.4536 76.6953 112.614 129.65 112.614Z" stroke="#048057" stroke-width="0.7541" stroke-miterlimit="10"/>
<path d="M129.65 116.694C184.847 116.694 229.592 71.7071 229.592 16.2124C229.592 -39.2822 184.847 -84.2695 129.65 -84.2695C74.454 -84.2695 29.7085 -39.2822 29.7085 16.2124C29.7085 71.7071 74.454 116.694 129.65 116.694Z" stroke="#048057" stroke-width="0.7541" stroke-miterlimit="10"/>
<path d="M129.65 120.778C187.09 120.778 233.655 73.9626 233.655 16.2124C233.655 -41.5378 187.09 -88.3535 129.65 -88.3535C72.2107 -88.3535 25.6465 -41.5378 25.6465 16.2124C25.6465 73.9626 72.2107 120.778 129.65 120.778Z" stroke="#048057" stroke-width="0.7541" stroke-miterlimit="10"/>
<path d="M129.65 124.858C189.331 124.858 237.713 76.2158 237.713 16.2123C237.713 -43.7912 189.331 -92.4336 129.65 -92.4336C69.9694 -92.4336 21.5884 -43.7912 21.5884 16.2123C21.5884 76.2158 69.9694 124.858 129.65 124.858Z" stroke="#048057" stroke-width="0.7541" stroke-miterlimit="10"/>
<path d="M129.65 128.938C191.573 128.938 241.771 78.4691 241.771 16.2123C241.771 -46.0446 191.573 -96.5137 129.65 -96.5137C67.7282 -96.5137 17.5303 -46.0446 17.5303 16.2123C17.5303 78.4691 67.7282 128.938 129.65 128.938Z" stroke="#048057" stroke-width="0.7541" stroke-miterlimit="10"/>
<path d="M129.65 133.022C193.816 133.022 245.833 80.7246 245.833 16.2122C245.833 -48.3001 193.816 -100.598 129.65 -100.598C65.4848 -100.598 13.4683 -48.3001 13.4683 16.2122C13.4683 80.7246 65.4848 133.022 129.65 133.022Z" stroke="#048057" stroke-width="0.7541" stroke-miterlimit="10"/>
<path d="M129.65 137.102C196.057 137.102 249.891 82.9781 249.891 16.2124C249.891 -50.5532 196.057 -104.677 129.65 -104.677C63.2436 -104.677 9.41016 -50.5532 9.41016 16.2124C9.41016 82.9781 63.2436 137.102 129.65 137.102Z" stroke="#048057" stroke-width="0.7541" stroke-miterlimit="10"/>
<path d="M129.65 141.182C198.298 141.182 253.949 85.2313 253.949 16.2123C253.949 -52.8066 198.298 -108.758 129.65 -108.758C61.0023 -108.758 5.35205 -52.8066 5.35205 16.2123C5.35205 85.2313 61.0023 141.182 129.65 141.182Z" stroke="#048057" stroke-width="0.7541" stroke-miterlimit="10"/>
<path d="M129.65 145.266C200.542 145.266 258.011 87.4868 258.011 16.2123C258.011 -55.0622 200.542 -112.842 129.65 -112.842C58.7589 -112.842 1.29004 -55.0622 1.29004 16.2123C1.29004 87.4868 58.7589 145.266 129.65 145.266Z" stroke="#048057" stroke-width="0.7541" stroke-miterlimit="10"/>
</svg>
