<svg width="602" height="487" viewBox="0 0 602 487" fill="none" xmlns="http://www.w3.org/2000/svg">
<path d="M433.482 158.444C490.996 158.444 537.621 111.815 537.621 54.2959C537.621 -3.22342 490.996 -49.8521 433.482 -49.8521C375.967 -49.8521 329.343 -3.22342 329.343 54.2959C329.343 111.815 375.967 158.444 433.482 158.444Z" stroke="#048057" stroke-width="0.7541" stroke-miterlimit="10"/>
<path d="M433.482 172.121C498.55 172.121 551.297 119.369 551.297 54.2958C551.297 -10.7773 498.55 -63.5295 433.482 -63.5295C368.415 -63.5295 315.667 -10.7773 315.667 54.2958C315.667 119.369 368.415 172.121 433.482 172.121Z" stroke="#048057" stroke-width="0.7541" stroke-miterlimit="10"/>
<path d="M433.482 185.785C506.095 185.785 564.96 126.915 564.96 54.2959C564.96 -18.3236 506.095 -77.1934 433.482 -77.1934C360.869 -77.1934 302.004 -18.3236 302.004 54.2959C302.004 126.915 360.869 185.785 433.482 185.785Z" stroke="#048057" stroke-width="0.7541" stroke-miterlimit="10"/>
<path d="M433.482 199.449C513.641 199.449 578.622 134.462 578.622 54.2959C578.622 -25.8701 513.641 -90.8574 433.482 -90.8574C353.323 -90.8574 288.341 -25.8701 288.341 54.2959C288.341 134.462 353.323 199.449 433.482 199.449Z" stroke="#048057" stroke-width="0.7541" stroke-miterlimit="10"/>
<path d="M433.482 213.126C521.194 213.126 592.299 142.015 592.299 54.2957C592.299 -33.424 521.194 -104.535 433.482 -104.535C345.77 -104.535 274.665 -33.424 274.665 54.2957C274.665 142.015 345.77 213.126 433.482 213.126Z" stroke="#048057" stroke-width="0.7541" stroke-miterlimit="10"/>
<path d="M433.482 226.791C528.74 226.791 605.961 149.562 605.961 54.2959C605.961 -40.9702 528.74 -118.199 433.482 -118.199C338.224 -118.199 261.002 -40.9702 261.002 54.2959C261.002 149.562 338.224 226.791 433.482 226.791Z" stroke="#048057" stroke-width="0.7541" stroke-miterlimit="10"/>
<path d="M433.482 240.455C536.286 240.455 619.625 157.108 619.625 54.2959C619.625 -48.5167 536.286 -131.863 433.482 -131.863C330.679 -131.863 247.34 -48.5167 247.34 54.2959C247.34 157.108 330.679 240.455 433.482 240.455Z" stroke="#048057" stroke-width="0.7541" stroke-miterlimit="10"/>
<path d="M433.482 254.132C543.839 254.132 633.3 164.662 633.3 54.296C633.3 -56.0704 543.839 -145.54 433.482 -145.54C323.125 -145.54 233.663 -56.0704 233.663 54.296C233.663 164.662 323.125 254.132 433.482 254.132Z" stroke="#048057" stroke-width="0.7541" stroke-miterlimit="10"/>
<path d="M433.482 267.796C551.384 267.796 646.963 172.209 646.963 54.2959C646.963 -63.6169 551.384 -159.204 433.482 -159.204C315.579 -159.204 220 -63.6169 220 54.2959C220 172.209 315.579 267.796 433.482 267.796Z" stroke="#048057" stroke-width="0.7541" stroke-miterlimit="10"/>
<path d="M433.482 281.46C558.931 281.46 660.626 179.755 660.626 54.2959C660.626 -71.1634 558.931 -172.868 433.482 -172.868C308.034 -172.868 206.338 -71.1634 206.338 54.2959C206.338 179.755 308.034 281.46 433.482 281.46Z" stroke="#048057" stroke-width="0.7541" stroke-miterlimit="10"/>
<path d="M433.482 295.137C566.483 295.137 674.302 187.309 674.302 54.2959C674.302 -78.7171 566.483 -186.545 433.482 -186.545C300.48 -186.545 192.661 -78.7171 192.661 54.2959C192.661 187.309 300.48 295.137 433.482 295.137Z" stroke="#048057" stroke-width="0.7541" stroke-miterlimit="10"/>
<path d="M433.482 308.801C574.03 308.801 687.966 194.855 687.966 54.2959C687.966 -86.2635 574.03 -200.209 433.482 -200.209C292.935 -200.209 178.999 -86.2635 178.999 54.2959C178.999 194.855 292.935 308.801 433.482 308.801Z" stroke="#048057" stroke-width="0.7541" stroke-miterlimit="10"/>
<path d="M433.482 322.479C581.582 322.479 701.641 202.409 701.641 54.296C701.641 -93.8172 581.582 -213.887 433.482 -213.887C285.381 -213.887 165.322 -93.8172 165.322 54.296C165.322 202.409 285.381 322.479 433.482 322.479Z" stroke="#048057" stroke-width="0.7541" stroke-miterlimit="10"/>
<path d="M433.482 336.143C589.129 336.143 715.305 209.956 715.305 54.2959C715.305 -101.364 589.129 -227.551 433.482 -227.551C277.836 -227.551 151.66 -101.364 151.66 54.2959C151.66 209.956 277.836 336.143 433.482 336.143Z" stroke="#048057" stroke-width="0.7541" stroke-miterlimit="10"/>
<path d="M433.482 349.806C596.674 349.806 728.967 217.502 728.967 54.2958C728.967 -108.91 596.674 -241.215 433.482 -241.215C270.29 -241.215 137.997 -108.91 137.997 54.2958C137.997 217.502 270.29 349.806 433.482 349.806Z" stroke="#048057" stroke-width="0.7541" stroke-miterlimit="10"/>
<path d="M433.482 363.484C604.227 363.484 742.643 225.056 742.643 54.296C742.643 -116.464 604.227 -254.892 433.482 -254.892C262.737 -254.892 124.32 -116.464 124.32 54.296C124.32 225.056 262.737 363.484 433.482 363.484Z" stroke="#048057" stroke-width="0.7541" stroke-miterlimit="10"/>
<path d="M433.482 377.148C611.773 377.148 756.306 232.602 756.306 54.2958C756.306 -124.01 611.773 -268.556 433.482 -268.556C255.191 -268.556 110.658 -124.01 110.658 54.2958C110.658 232.602 255.191 377.148 433.482 377.148Z" stroke="#048057" stroke-width="0.7541" stroke-miterlimit="10"/>
<path d="M433.482 390.812C619.318 390.812 769.969 240.148 769.969 54.2958C769.969 -131.557 619.318 -282.22 433.482 -282.22C247.645 -282.22 96.9951 -131.557 96.9951 54.2958C96.9951 240.148 247.645 390.812 433.482 390.812Z" stroke="#048057" stroke-width="0.7541" stroke-miterlimit="10"/>
<path d="M433.482 404.489C626.872 404.489 783.645 247.702 783.645 54.2959C783.645 -139.111 626.872 -295.897 433.482 -295.897C240.093 -295.897 83.3193 -139.111 83.3193 54.2959C83.3193 247.702 240.093 404.489 433.482 404.489Z" stroke="#048057" stroke-width="0.7541" stroke-miterlimit="10"/>
<path d="M433.482 418.153C634.417 418.153 797.308 255.249 797.308 54.2958C797.308 -146.657 634.417 -309.562 433.482 -309.562C232.547 -309.562 69.6562 -146.657 69.6562 54.2958C69.6562 255.249 232.547 418.153 433.482 418.153Z" stroke="#048057" stroke-width="0.7541" stroke-miterlimit="10"/>
<path d="M433.482 431.817C641.963 431.817 810.97 262.795 810.97 54.2957C810.97 -154.204 641.963 -323.226 433.482 -323.226C225.001 -323.226 55.9932 -154.204 55.9932 54.2957C55.9932 262.795 225.001 431.817 433.482 431.817Z" stroke="#048057" stroke-width="0.7541" stroke-miterlimit="10"/>
<path d="M433.482 445.495C649.516 445.495 824.647 270.349 824.647 54.2958C824.647 -161.757 649.516 -336.903 433.482 -336.903C217.448 -336.903 42.3174 -161.757 42.3174 54.2958C42.3174 270.349 217.448 445.495 433.482 445.495Z" stroke="#048057" stroke-width="0.7541" stroke-miterlimit="10"/>
<path d="M433.482 459.159C657.062 459.159 838.309 277.895 838.309 54.2958C838.309 -169.304 657.062 -350.567 433.482 -350.567C209.902 -350.567 28.6543 -169.304 28.6543 54.2958C28.6543 277.895 209.902 459.159 433.482 459.159Z" stroke="#048057" stroke-width="0.7541" stroke-miterlimit="10"/>
<path d="M433.482 472.822C664.608 472.822 851.972 285.442 851.972 54.2957C851.972 -176.85 664.608 -364.231 433.482 -364.231C202.356 -364.231 14.9912 -176.85 14.9912 54.2957C14.9912 285.442 202.356 472.822 433.482 472.822Z" stroke="#048057" stroke-width="0.7541" stroke-miterlimit="10"/>
<path d="M433.482 486.5C672.161 486.5 865.648 292.995 865.648 54.2958C865.648 -184.404 672.161 -377.908 433.482 -377.908C194.803 -377.908 1.31543 -184.404 1.31543 54.2958C1.31543 292.995 194.803 486.5 433.482 486.5Z" stroke="#048057" stroke-width="0.7541" stroke-miterlimit="10"/>
</svg>
