<svg width="247" height="230" viewBox="0 0 247 230" fill="none" xmlns="http://www.w3.org/2000/svg">
<path d="M123.5 136.385C87.938 136.385 59.0718 107.373 59.0718 71.6319L59.5182 62.6592H69.6362V49.0507H70.8266V46.957H75.7368L77.076 49.2002H79.6055V66.5474H81.6886V68.9401H82.2838V55.182H90.3188V58.7711H92.9971V65.5006H97.6097V58.9206H103.71L105.793 61.762V69.2392H118.292V71.0338H103.859V62.2106L102.669 60.7152H99.3953V69.3888H96.8657V67.1456H91.2115V60.5656H88.5332V56.827H84.0694V70.8842H79.6055V68.1924H77.6712V50.9947H75.8856L74.5465 48.7516H72.6121V50.8452H71.4218V64.4538H61.3037L61.0061 71.6319C61.0061 106.326 88.9796 134.59 123.5 134.74C158.021 134.74 186.143 106.625 186.292 71.931H179.745V60.8647H176.025V55.182H171.71V52.6397H166.353V54.4343L165.163 55.6306V65.7997H159.657V58.1729L158.169 56.6775H155.193V53.9856H151.771V70.7347H146.266V64.6033H141.207V70.7347H128.113V68.9401H139.421V62.6592H148.051V68.9401H149.837V52.1911H156.979V54.7334H159.062L161.294 57.4252V64.0051H163.08V54.7334L164.27 53.537V50.8452H173.495V53.3875H177.959V59.0702H181.679V70.1365H188.077V71.7815C187.78 107.373 159.062 136.385 123.5 136.385Z" fill="#80BD42"/>
<path d="M99.0975 110.364C98.5023 110.364 98.0559 110.514 97.4608 110.663C96.1216 111.71 95.6752 113.504 96.568 114.85C97.0144 115.598 97.7584 116.047 98.6511 116.196C98.9487 116.196 99.2463 116.196 99.5439 116.196C103.413 115.748 106.984 114.103 109.811 111.411L110.406 110.962L110.704 111.56C112.043 113.804 114.275 115.449 116.804 115.897H117.251C119.036 116.047 120.673 115 121.268 113.205C121.417 111.71 120.673 110.364 119.482 109.766C118.441 109.467 117.251 109.616 116.358 110.065C116.06 110.214 115.911 110.514 115.763 111.261C115.614 111.859 115.465 112.757 114.423 112.757C113.531 112.757 112.638 112.159 112.191 111.411C111.894 110.962 111.894 110.514 112.191 110.214C114.126 107.373 116.655 104.98 119.334 103.036C120.524 102.139 121.566 101.092 122.756 100.045L123.202 99.7463L123.649 100.045C124.69 101.092 125.881 101.989 127.071 103.036C130.047 104.98 132.428 107.672 134.213 110.663C134.362 110.962 134.362 111.112 134.213 111.411C133.767 112.308 133.023 112.906 132.13 113.056C131.832 113.205 131.386 113.056 131.237 112.757C130.94 112.458 130.94 112.009 130.94 111.71C130.94 111.56 130.94 111.261 130.94 111.112C130.642 110.364 129.749 110.214 128.857 109.915C127.22 109.766 125.732 110.813 125.285 112.458C125.137 113.205 125.285 113.953 125.583 114.551C126.327 115.598 127.666 116.196 128.857 116.196C131.684 115.897 134.213 114.252 135.701 111.71L135.999 111.112L136.445 111.56C139.123 113.654 142.694 116.196 146.117 116.196C147.01 116.196 148.051 116.047 148.944 115.748C149.539 115.449 150.134 114.85 150.283 114.103C150.432 113.355 150.283 112.458 149.837 111.859C149.241 110.962 148.349 110.514 147.307 110.514C146.266 110.514 145.373 110.962 144.778 111.859L144.48 112.308L144.034 112.159C142.099 111.56 140.314 110.214 139.123 108.42C138.826 107.672 138.826 106.775 139.272 106.177C139.57 105.429 140.016 105.279 140.314 105.279C140.611 105.279 140.611 105.279 140.611 105.279C141.355 105.728 142.248 106.027 143.29 106.177C144.778 106.177 145.968 105.13 146.266 103.784C146.414 103.036 146.266 102.139 145.819 101.541C145.373 100.793 144.629 100.344 143.736 100.195H143.141C141.653 100.195 140.314 100.943 139.421 101.989C138.826 102.737 138.528 103.634 138.231 104.382C138.082 105.13 137.635 106.027 137.338 106.625L136.891 107.373L125.732 96.905L126.178 96.4563C138.231 84.7918 154.449 80.7541 167.692 79.5578C166.055 79.4082 164.27 79.2587 162.633 79.2587C148.349 79.1091 134.511 84.1937 123.649 93.4654L123.351 93.7645L123.5 93.615C117.102 88.5305 109.96 84.6423 102.222 82.1C94.6336 79.8569 86.7475 78.9596 78.8614 79.5578C92.1041 80.7541 108.323 84.9414 120.375 96.6059L120.822 97.0545L109.662 107.373L109.216 106.775C108.769 106.027 108.472 105.279 108.323 104.532C108.025 103.634 107.728 102.737 107.132 101.989C106.388 101.242 105.347 100.644 104.305 100.344C102.669 99.8959 100.883 100.943 100.437 102.588C100.437 102.737 100.437 102.737 100.437 102.887C100.288 104.233 101.032 105.728 102.222 106.326C102.52 106.326 102.669 106.326 102.966 106.326C103.859 106.177 104.603 106.027 105.347 105.579L105.644 105.429C105.793 105.429 105.942 105.429 106.091 105.429C106.686 105.429 107.132 105.878 107.281 106.326C107.728 107.074 107.728 107.971 107.281 108.569C105.942 110.364 104.157 111.56 102.222 112.159L101.776 112.308L101.627 111.859C101.329 111.112 100.288 110.514 99.0975 110.364ZM99.5439 117.841C99.0975 117.841 98.7999 117.841 98.3535 117.841C97.1632 117.692 96.1216 116.944 95.3776 115.748C94.1873 113.654 94.7824 110.962 96.7168 109.616C98.6511 108.569 101.032 109.018 102.371 110.514C104.008 110.065 105.496 108.869 106.388 107.523C106.388 107.373 106.388 107.074 106.388 106.775C106.388 106.625 106.24 106.326 106.091 106.177L105.793 106.326C104.901 106.775 103.859 107.074 102.817 107.074C102.371 107.074 101.925 106.924 101.627 106.775C99.8415 105.878 98.7999 103.934 99.0975 101.989C99.3951 99.8959 101.181 98.4004 103.264 98.4004C103.561 98.4004 104.008 98.4004 104.305 98.55C105.496 98.9986 106.686 99.7463 107.579 100.644C108.323 101.541 108.769 102.438 108.918 103.485C109.067 103.934 109.216 104.382 109.513 104.831L118.738 96.4563C105.198 83.745 86.0035 80.6046 72.3144 80.1559L66.6602 80.0064L72.1656 78.9596C82.2837 77.165 92.5505 77.6137 102.371 80.6046C110.108 83.1468 117.251 87.035 123.649 92.1195C137.784 80.3055 156.532 75.5201 174.685 78.9596L180.34 80.0064L174.537 80.1559C160.848 80.455 141.802 83.745 127.964 96.7554L137.189 105.13C137.487 104.681 137.487 104.233 137.635 103.784C137.933 102.737 138.379 101.69 138.975 100.943C140.314 99.2977 142.397 98.55 144.331 98.849C145.373 99.1481 146.414 99.7463 147.01 100.644C148.349 102.438 147.902 105.13 146.117 106.326C145.373 106.924 144.48 107.074 143.587 107.074C142.546 107.074 141.504 106.775 140.611 106.326C140.463 106.625 140.314 107.224 140.463 107.523C141.504 109.018 142.843 110.065 144.629 110.514C146.266 108.719 149.093 108.569 150.878 110.364C151.027 110.514 151.325 110.813 151.473 111.112C152.217 112.009 152.366 113.355 152.069 114.402C151.771 115.449 151.027 116.346 150.134 116.645C149.093 117.094 148.051 117.393 146.861 117.393C143.141 116.944 139.719 115.449 137.04 112.906C135.255 115.449 132.428 116.944 129.452 117.393C127.666 117.393 126.029 116.495 124.988 115.149C124.244 114.252 124.095 113.056 124.393 111.859C124.839 109.915 126.625 108.42 128.559 108.42C128.857 108.42 129.154 108.42 129.452 108.569C130.642 108.719 131.684 109.317 132.279 110.364C132.576 110.813 132.576 111.261 132.576 111.71C133.023 111.56 133.32 111.261 133.469 110.962C131.684 108.121 129.303 105.728 126.625 103.784C125.583 103.036 124.541 102.139 123.649 101.391C122.607 102.289 121.566 103.186 120.524 104.083C117.846 106.027 115.614 108.42 113.679 111.112C113.977 111.411 114.423 111.71 114.87 111.859C114.87 111.71 115.019 111.411 115.167 111.261C115.167 110.364 115.763 109.616 116.507 109.168C117.846 108.569 119.334 108.42 120.673 108.869C122.458 109.766 123.5 111.71 123.202 113.654C122.458 116.346 119.78 117.991 116.953 117.243C114.275 116.794 111.894 115.149 110.406 112.906C107.132 115.748 103.413 117.393 99.5439 117.841Z" fill="#80BD42"/>
<path d="M147.01 34.0961L148.646 35.2925L147.456 33.797C140.314 23.4785 132.13 23.0298 129.601 23.3289C130.344 22.5812 131.237 21.8335 132.279 21.5344L133.172 21.2353L132.279 20.9362C129.898 20.0389 127.369 20.338 125.285 21.8335C124.988 20.1885 124.393 18.5435 123.5 17.1976C123.351 17.1976 123.202 17.048 123.202 17.1976C122.607 17.3471 121.417 18.9921 120.97 21.8335C119.036 20.338 116.358 20.0389 114.126 21.0857L113.382 21.3848L114.126 21.6839C115.167 21.983 115.911 22.7307 116.507 23.4785C105.942 23.7775 102.222 28.8621 99.0975 33.0493L98.3535 33.9466L98.7999 34.3952C102.669 30.9557 107.876 29.3107 113.084 29.9089C109.216 31.5539 101.925 35.8907 99.3951 48.7515L99.0975 50.3965L99.9903 49.0506C104.157 42.3211 108.323 38.2834 113.233 36.0402C109.96 40.8257 105.793 49.2002 107.43 56.6774L107.728 58.0233L108.025 56.6774C109.364 50.5461 112.489 44.8634 116.804 40.2275C115.019 46.5084 114.87 53.2379 116.507 59.5188L116.953 60.8647V59.3692C117.399 53.3874 118.59 47.5552 120.673 41.8725L121.566 48.602L120.97 48.7515L121.417 58.0233H120.673L121.417 67.4446L120.524 67.7437V68.0428C120.524 68.0428 121.119 74.0246 121.417 77.3146C120.524 77.9128 119.631 78.6605 118.887 79.4082V80.0064H127.071V79.4082C126.327 78.6605 125.434 77.9128 124.541 77.3146L125.434 67.4446H124.541L125.137 57.7242H124.393L124.839 48.4524H124.095C124.244 47.5552 124.541 45.4615 124.988 41.5734C127.517 47.1065 129.005 53.2379 129.303 59.3692L129.601 61.6124L129.898 59.3692C131.088 52.9388 130.791 46.2093 129.303 39.7788C133.32 44.7138 136.445 50.5461 138.231 56.6774L138.677 58.4719L138.826 56.6774C139.57 49.2002 137.338 41.7229 132.576 36.0402C135.404 37.087 137.933 38.8816 139.867 40.9752C142.248 43.3679 144.331 46.0597 146.117 49.0506L146.861 50.3965L146.712 48.7515C145.819 40.5266 140.611 33.3484 133.172 29.9089C137.933 28.8621 144.926 32.6007 147.01 34.0961Z" fill="#80BD42"/>
<path d="M44.3408 211.157H43.4481V205.923L41.8113 211.157H40.7698L39.133 205.923V211.157H38.2402V204.876H39.5794L41.2161 210.41L42.8529 204.876H44.192L44.3408 211.157Z" fill="#80BC00"/>
<path d="M46.5732 205.325C46.5732 205.624 46.4244 205.923 45.978 205.923C45.8292 205.923 45.6804 205.923 45.5316 205.774C45.3828 205.624 45.3828 205.475 45.3828 205.325C45.3828 205.175 45.3828 205.026 45.5316 204.876C45.6804 204.727 45.8292 204.727 45.978 204.727C46.1268 204.727 46.2756 204.727 46.4244 204.876C46.5732 205.026 46.5732 205.175 46.5732 205.325ZM46.8708 210.559L47.0196 211.008C46.722 211.157 46.5732 211.157 46.2756 211.157C46.1268 211.157 45.8292 211.157 45.6804 211.008C45.5316 210.858 45.5316 210.709 45.5316 210.559V206.671H46.4244V210.26C46.4244 210.41 46.4244 210.559 46.5732 210.559H46.8708Z" fill="#80BC00"/>
<path d="M51.9298 210.559V211.008C51.781 211.157 51.4834 211.157 51.1858 211.157C51.037 211.157 50.7394 211.157 50.5906 211.008C50.4419 210.858 50.4419 210.709 50.4419 210.559V208.166C50.4419 208.017 50.4419 207.718 50.2931 207.568C50.1443 207.419 49.9955 207.419 49.8467 207.419C49.5491 207.419 49.4003 207.568 49.1027 207.568C48.8051 207.718 48.6563 207.867 48.3587 208.017V211.157H47.6147V206.671H48.5075V207.269C48.8051 207.12 48.9539 206.97 49.2515 206.82C49.5491 206.671 49.8467 206.671 50.1443 206.671C50.4419 206.671 50.8882 206.671 51.1858 206.97C51.4834 207.269 51.4834 207.718 51.4834 208.166V210.41C51.4834 210.559 51.4834 210.709 51.6322 210.709L51.9298 210.559Z" fill="#80BC00"/>
<path d="M53.7153 205.325C53.7153 205.475 53.7153 205.624 53.5665 205.774C53.4177 205.923 53.2689 205.923 53.1201 205.923C52.9713 205.923 52.8225 205.923 52.6737 205.774C52.5249 205.624 52.5249 205.475 52.5249 205.325C52.5249 205.026 52.8225 204.727 53.1201 204.727C53.2689 204.727 53.4177 204.727 53.5665 204.876C53.7153 205.026 53.7153 205.175 53.7153 205.325ZM54.0129 210.559V211.008C53.7153 211.157 53.5665 211.157 53.2689 211.157C53.1201 211.157 52.8225 211.157 52.6737 211.008C52.5249 210.858 52.5249 210.709 52.5249 210.559V206.671H53.5665V210.26C53.5665 210.41 53.5665 210.559 53.7153 210.559H54.0129Z" fill="#80BC00"/>
<path d="M54.7568 211.008L54.9056 210.26C55.0544 210.41 55.352 210.41 55.5008 210.41H56.096C56.84 210.41 57.1376 210.26 57.1376 209.811C57.1376 209.662 57.1376 209.512 56.9888 209.512C56.6912 209.363 56.5424 209.213 56.2448 209.213C55.9472 209.064 55.5008 208.914 55.2032 208.765C54.9056 208.615 54.7568 208.316 54.7568 207.867C54.7568 207.568 54.9056 207.12 55.2032 206.97C55.6496 206.671 56.096 206.671 56.5424 206.671C56.9888 206.671 57.4351 206.671 57.7327 206.97L57.5839 207.718C57.2864 207.568 56.84 207.419 56.5424 207.419C55.9472 207.419 55.6496 207.568 55.6496 207.867C55.6496 208.017 55.6496 208.166 55.7984 208.166C55.9472 208.316 56.2448 208.465 56.3936 208.465C56.84 208.615 57.1376 208.765 57.4351 208.914C57.8815 209.363 58.0303 210.11 57.5839 210.559C57.4352 210.709 57.4352 210.709 57.2864 210.858C56.9888 211.157 56.5424 211.157 56.096 211.157C55.7984 211.157 55.352 211.157 54.7568 211.008Z" fill="#80BC00"/>
<path d="M61.0061 210.409L61.1549 211.008C60.8573 211.157 60.5597 211.157 60.1133 211.157C59.8157 211.157 59.5181 211.008 59.3693 210.858C59.2205 210.559 59.0717 210.26 59.2205 209.961V207.269H58.4766L58.6254 206.521H59.2205V205.325L60.1133 205.026V206.521H61.0061V207.269H60.1133V209.811C60.1133 209.961 60.1133 210.11 60.1133 210.26C60.1133 210.26 60.2621 210.26 60.5597 210.26C60.5597 210.409 60.8573 210.409 61.0061 210.409Z" fill="#80BC00"/>
<path d="M62.7917 211.157H61.8989V206.671H62.7917V207.269C62.7917 207.12 62.9405 206.97 63.0893 206.82C63.2381 206.671 63.3869 206.671 63.5357 206.671C63.8333 206.671 64.1309 206.82 64.4284 206.97L64.2797 207.718C63.9821 207.718 63.8333 207.718 63.5357 207.718C63.2381 207.718 62.9405 208.017 62.7917 208.316V211.157Z" fill="#80BC00"/>
<path d="M66.5114 211.008L64.8746 206.671H65.7674L66.9577 209.811L67.8505 206.671H68.7433L67.1065 211.307C66.9577 211.755 66.8089 212.204 66.3626 212.653C66.065 212.952 65.7674 213.101 65.321 212.952C65.0234 212.952 64.7258 212.952 64.4282 212.802L64.577 212.055C64.8746 212.204 65.0234 212.204 65.321 212.204C65.4698 212.204 65.6186 212.204 65.7674 212.055C66.2138 211.755 66.3626 211.456 66.5114 211.008Z" fill="#80BC00"/>
<path d="M73.0586 211.307C71.5706 211.307 70.8267 210.559 70.8267 209.064C70.8267 207.568 71.5706 206.821 73.0586 206.821C74.5465 206.821 75.1417 207.568 75.1417 209.064C75.2905 210.41 74.5465 211.307 73.0586 211.307ZM73.0586 210.559C73.3562 210.559 73.6538 210.41 73.9514 210.26C74.249 209.811 74.249 209.512 74.249 209.064C74.249 208.615 74.249 208.166 73.9514 207.867C73.6538 207.568 73.3562 207.419 73.0586 207.419C72.761 207.419 72.3146 207.568 72.1658 207.718C71.8682 208.166 71.8682 208.615 71.8682 209.064C71.8682 209.512 71.8682 209.961 72.1658 210.26C72.4634 210.41 72.761 210.559 73.0586 210.559Z" fill="#80BC00"/>
<path d="M77.5225 211.157H76.6297V207.419H75.8857L76.0345 206.671H76.6297V206.073C76.6297 205.624 76.6297 205.325 76.9273 205.026C77.2249 204.727 77.5225 204.577 77.9689 204.727C78.2665 204.727 78.5641 204.727 78.8616 204.876L78.7129 205.624C78.5641 205.624 78.2665 205.624 78.1177 205.624C77.9689 205.624 77.8201 205.624 77.6713 205.624C77.6713 205.774 77.6713 205.923 77.6713 206.073V206.821H78.5641V207.568H77.6713L77.5225 211.157Z" fill="#80BC00"/>
<path d="M87.1942 211.157H86.3014V205.923L84.5159 211.157H83.4743L81.8376 205.923V211.157H80.9448V204.876H82.284L83.9207 210.41L85.5575 204.876H86.8966L87.1942 211.157Z" fill="#80BC00"/>
<path d="M92.5509 210.559V211.008C92.4021 211.157 92.1045 211.157 91.8069 211.157C91.6581 211.157 91.3605 211.157 91.2117 211.008C91.0629 210.858 91.063 210.709 91.063 210.559C90.7654 210.709 90.6166 210.858 90.319 211.008C90.0214 211.157 89.8726 211.157 89.575 211.157C89.2774 211.157 88.831 211.157 88.5334 210.858C88.2358 210.559 88.2358 210.111 88.2358 209.662V206.521H89.1286V209.512C89.1286 209.811 89.1286 209.961 89.1286 210.111C89.1286 210.26 89.2774 210.26 89.575 210.26C89.8726 210.26 90.1702 210.111 90.319 210.111C90.6166 209.961 90.7654 209.811 90.9142 209.662V206.521H91.8069V210.111C91.8069 210.26 91.8069 210.41 92.1045 210.41L92.5509 210.559Z" fill="#80BC00"/>
<path d="M97.6095 210.559V211.008C97.3119 211.157 97.1631 211.157 96.8655 211.157C96.7167 211.157 96.4191 211.157 96.2703 211.008C96.1215 210.858 96.1215 210.709 96.1215 210.559V208.166C96.1215 208.017 96.1215 207.867 96.1215 207.568C95.9727 207.419 95.824 207.419 95.6752 207.419C95.3776 207.419 95.2288 207.568 94.9312 207.568C94.6336 207.718 94.4848 207.867 94.1872 208.017V211.157H93.2944V206.671H94.1872V207.269C94.4848 207.12 94.6336 206.97 94.9312 206.82C95.2288 206.671 95.5264 206.671 95.824 206.671C96.1215 206.671 96.5679 206.671 96.8655 206.97C97.1631 207.269 97.1631 207.718 97.1631 208.166V210.41C97.1631 210.559 97.1631 210.709 97.4607 210.709L97.6095 210.559Z" fill="#80BC00"/>
<path d="M99.3954 205.325C99.3954 205.475 99.3954 205.624 99.2466 205.774C99.0978 205.923 98.9491 205.923 98.8003 205.923C98.6515 205.923 98.5027 205.923 98.3539 205.774C98.2051 205.624 98.2051 205.475 98.2051 205.325C98.2051 205.175 98.2051 205.026 98.3539 204.876C98.5027 204.727 98.6515 204.727 98.8003 204.727C98.9491 204.727 99.0978 204.727 99.2466 204.876C99.2466 205.026 99.3954 205.175 99.3954 205.325ZM99.693 210.559V211.008C99.3954 211.157 99.2466 211.157 98.9491 211.157C98.8003 211.157 98.5027 211.157 98.3539 211.008C98.2051 210.858 98.2051 210.709 98.2051 210.559V206.671H99.0978V210.26C99.0978 210.41 99.0979 210.559 99.3954 210.559H99.693Z" fill="#80BC00"/>
<path d="M103.71 210.26L103.562 211.008C103.115 211.157 102.669 211.157 102.222 211.157C101.627 211.157 101.181 211.008 100.883 210.559C100.437 210.11 100.288 209.512 100.288 208.764C100.288 208.166 100.437 207.568 100.883 207.119C101.33 206.671 101.925 206.372 102.52 206.521C102.966 206.521 103.413 206.521 103.859 206.82L103.71 207.568C103.413 207.419 102.966 207.419 102.52 207.419C101.627 207.419 101.181 208.017 101.181 208.914C101.181 209.961 101.627 210.409 102.669 210.409H103.264C103.413 210.409 103.562 210.409 103.71 210.26Z" fill="#80BC00"/>
<path d="M105.644 205.325C105.644 205.624 105.496 205.923 105.049 205.923C104.9 205.923 104.752 205.923 104.603 205.774C104.454 205.624 104.454 205.475 104.454 205.325C104.454 205.175 104.454 205.026 104.603 204.876C104.752 204.727 104.9 204.727 105.049 204.727C105.198 204.727 105.347 204.727 105.496 204.876C105.644 205.026 105.644 205.175 105.644 205.325ZM106.091 210.559L106.24 211.008C105.942 211.157 105.793 211.157 105.496 211.157C105.347 211.157 105.049 211.157 104.9 211.008C104.752 210.858 104.752 210.709 104.752 210.559V206.671H105.644V210.26C105.644 210.41 105.644 210.559 105.793 210.559H106.091Z" fill="#80BC00"/>
<path d="M107.728 212.952H106.835V206.671H107.728V207.269C108.025 206.821 108.621 206.521 109.216 206.671C109.662 206.671 110.108 206.821 110.406 207.269C110.704 207.718 111.001 208.466 110.852 209.064C110.852 209.662 110.704 210.26 110.257 210.858C109.96 211.307 109.364 211.456 108.769 211.456C108.472 211.456 108.323 211.456 108.025 211.456C107.877 211.456 107.728 211.307 107.43 211.157V212.952H107.728ZM107.728 208.615V210.111C107.877 210.26 108.025 210.41 108.174 210.41C108.323 210.41 108.62 210.41 108.769 210.41C109.067 210.41 109.513 210.26 109.662 210.111C109.811 209.811 109.96 209.363 109.96 208.914C109.96 208.466 109.96 208.017 109.662 207.718C109.513 207.419 109.216 207.419 108.769 207.419C108.472 207.419 108.025 207.568 107.877 207.867C107.728 208.017 107.728 208.316 107.728 208.615Z" fill="#80BC00"/>
<path d="M115.763 210.559V211.008C115.465 211.157 115.316 211.157 115.019 211.157C114.87 211.157 114.572 211.157 114.424 211.008C114.275 210.858 114.275 210.709 114.275 210.559C113.977 211.008 113.531 211.307 112.936 211.157C112.043 211.157 111.448 210.709 111.448 209.811C111.448 209.363 111.745 208.765 112.192 208.615C112.638 208.465 113.085 208.316 113.531 208.316H114.275V207.867C114.275 207.718 114.275 207.419 113.977 207.269C113.68 207.12 113.382 207.12 113.084 207.12C112.638 207.12 112.192 207.12 111.745 207.419L111.894 206.671C112.341 206.521 112.787 206.372 113.382 206.372C113.828 206.372 114.275 206.521 114.721 206.82C115.019 207.12 115.168 207.568 115.019 208.017V210.11C115.019 210.26 115.019 210.41 115.316 210.41L115.763 210.559ZM114.424 209.512V209.064H113.828C113.531 209.064 113.233 209.064 112.936 209.213C112.787 209.363 112.638 209.662 112.638 209.811C112.638 210.26 112.936 210.41 113.382 210.41C113.977 210.559 114.424 210.11 114.424 209.512C114.424 209.662 114.424 209.662 114.424 209.512Z" fill="#80BC00"/>
<path d="M117.995 210.559V211.008C117.697 211.157 117.548 211.157 117.251 211.157C117.102 211.157 116.804 211.157 116.656 211.008C116.507 210.858 116.507 210.709 116.507 210.559V204.876H117.4V210.41C117.4 210.559 117.4 210.709 117.548 210.709L117.995 210.559Z" fill="#80BC00"/>
<path d="M124.839 211.157H123.798L122.608 208.914H121.417V211.157H120.524V204.876H122.459C123.947 204.876 124.691 205.475 124.691 206.821C124.691 207.269 124.542 207.568 124.393 208.017C124.244 208.316 123.947 208.615 123.5 208.765L124.839 211.157ZM121.417 208.017H122.608C123.203 208.017 123.649 207.718 123.649 206.821C123.649 206.521 123.5 206.222 123.352 205.923C123.203 205.774 122.905 205.624 122.756 205.624H121.566L121.417 208.017Z" fill="#80BC00"/>
<path d="M129.898 210.559V211.008C129.6 211.157 129.452 211.157 129.154 211.157C129.005 211.157 128.708 211.157 128.559 211.008C128.41 210.858 128.41 210.709 128.41 210.559C128.261 210.709 127.964 210.858 127.666 211.008C127.369 211.157 127.22 211.157 126.922 211.157C126.625 211.157 126.178 211.157 125.881 210.858C125.583 210.559 125.583 210.111 125.583 209.662V206.521H126.476V209.512C126.476 209.662 126.476 209.961 126.476 210.111C126.625 210.26 126.773 210.26 126.922 210.26C127.22 210.26 127.517 210.111 127.666 210.111C127.964 209.961 128.113 209.811 128.261 209.662V206.521H129.154V210.111C129.154 210.26 129.154 210.41 129.452 210.41L129.898 210.559Z" fill="#80BC00"/>
<path d="M131.535 211.157H130.642V206.671H131.535V207.269C131.535 207.12 131.684 206.97 131.832 206.82C131.981 206.671 132.13 206.671 132.279 206.671C132.576 206.671 132.874 206.82 133.172 206.97L133.023 207.718C132.725 207.718 132.576 207.718 132.279 207.718C131.981 207.718 131.684 208.017 131.535 208.316V211.157Z" fill="#80BC00"/>
<path d="M137.635 210.559V211.008C137.338 211.157 137.189 211.157 136.891 211.157C136.743 211.157 136.445 211.157 136.296 211.008C136.147 210.858 136.147 210.709 136.147 210.559C135.85 211.008 135.403 211.307 134.808 211.157C133.915 211.157 133.32 210.709 133.32 209.811C133.32 209.363 133.618 208.765 134.064 208.615C134.511 208.465 134.957 208.316 135.403 208.316H136.147V207.867C136.147 207.718 136.147 207.419 135.85 207.269C135.552 207.12 135.255 207.12 134.957 207.12C134.511 207.12 134.064 207.269 133.618 207.419L133.767 206.671C134.213 206.521 134.659 206.372 135.255 206.372C135.701 206.372 136.147 206.521 136.594 206.82C136.891 207.12 137.04 207.568 136.891 208.017V210.11C136.891 210.26 136.891 210.41 137.189 210.41L137.635 210.559ZM136.296 209.512V209.064H135.701C135.403 209.064 135.106 209.064 134.808 209.213C134.659 209.363 134.511 209.662 134.511 209.811C134.511 210.26 134.808 210.41 135.255 210.41C135.85 210.559 136.296 210.11 136.296 209.512C136.296 209.662 136.296 209.662 136.296 209.512Z" fill="#80BC00"/>
<path d="M139.719 210.559L139.867 211.008C139.57 211.157 139.421 211.157 139.123 211.157C138.975 211.157 138.677 211.157 138.528 211.008C138.379 210.858 138.379 210.709 138.379 210.559V204.876H139.272V210.41C139.272 210.559 139.272 210.709 139.421 210.709L139.719 210.559Z" fill="#80BC00"/>
<path d="M147.159 211.157H146.117L145.671 209.662H143.439L142.992 211.157H141.951L144.034 204.876H145.075L147.159 211.157ZM145.373 208.914L144.48 206.073L143.587 208.914H145.373Z" fill="#80BC00"/>
<path d="M148.944 211.157H148.051V207.419H147.307L147.456 206.671H148.051V206.073C148.051 205.624 148.051 205.325 148.349 205.026C148.646 204.727 148.944 204.577 149.39 204.727C149.688 204.727 149.985 204.727 150.283 204.876L150.134 205.624C149.985 205.624 149.688 205.624 149.539 205.624C149.39 205.624 149.241 205.624 149.093 205.624C149.093 205.774 149.093 205.923 149.093 206.073V206.821H149.985V207.568H149.093L148.944 211.157ZM152.069 211.157H151.176V207.419H150.432L150.581 206.671H151.176V206.073C151.176 205.624 151.176 205.325 151.473 205.026C151.771 204.727 152.069 204.577 152.515 204.727C152.813 204.727 153.11 204.727 153.408 204.876L153.259 205.624C153.11 205.624 152.813 205.624 152.664 205.624C152.515 205.624 152.366 205.624 152.217 205.624C152.217 205.774 152.217 205.923 152.217 206.073V206.821H153.11V207.568H152.069V211.157Z" fill="#80BC00"/>
<path d="M157.574 210.559V211.008C157.277 211.157 157.128 211.157 156.83 211.157C156.682 211.157 156.384 211.157 156.235 211.008C156.086 210.858 156.086 210.709 156.086 210.559C155.789 211.008 155.342 211.307 154.747 211.157C153.854 211.157 153.259 210.709 153.259 209.811C153.259 209.363 153.557 208.765 154.003 208.615C154.45 208.466 154.896 208.316 155.342 208.316H156.086V207.867C156.086 207.718 155.938 207.419 155.789 207.269C155.491 207.12 155.194 207.12 154.896 207.12C154.45 207.12 154.003 207.12 153.557 207.419L153.706 206.671C154.152 206.521 154.598 206.372 155.194 206.372C155.938 206.222 156.682 206.671 156.83 207.419C156.83 207.568 156.83 207.867 156.83 208.017V210.111C156.83 210.26 156.83 210.41 157.128 210.41L157.574 210.559ZM156.235 209.512V209.064H155.64C155.342 209.064 155.045 209.064 154.747 209.213C154.598 209.363 154.45 209.662 154.45 209.811C154.45 210.26 154.747 210.41 155.194 210.41C155.491 210.41 155.64 210.26 155.938 210.111C156.235 210.111 156.235 209.811 156.235 209.512Z" fill="#80BC00"/>
<path d="M159.36 205.325C159.36 205.475 159.36 205.624 159.211 205.774C159.062 205.923 158.913 205.923 158.765 205.923C158.616 205.923 158.467 205.923 158.318 205.774C158.169 205.624 158.169 205.475 158.169 205.325C158.169 205.175 158.169 205.026 158.318 204.876C158.467 204.727 158.616 204.727 158.765 204.727C158.913 204.727 159.062 204.727 159.211 204.876C159.36 205.026 159.36 205.175 159.36 205.325ZM159.657 210.559V211.008C159.36 211.157 159.211 211.157 158.913 211.157C158.765 211.157 158.467 211.157 158.318 211.008C158.169 210.858 158.169 210.709 158.169 210.559V206.671H159.062V210.26C159.062 210.41 159.062 210.559 159.36 210.559H159.657Z" fill="#80BC00"/>
<path d="M161.443 211.157H160.55V206.671H161.443V207.269C161.592 207.12 161.592 206.97 161.741 206.82C161.889 206.671 162.038 206.671 162.187 206.671C162.485 206.671 162.782 206.82 163.08 206.97L162.931 207.718C162.633 207.718 162.485 207.718 162.187 207.718C161.889 207.718 161.592 207.867 161.443 208.316V211.157Z" fill="#80BC00"/>
<path d="M163.526 211.008L163.675 210.26C163.823 210.41 164.121 210.41 164.27 210.41H164.865C165.609 210.41 165.907 210.26 165.907 209.811C165.907 209.662 165.758 209.512 165.758 209.512C165.46 209.363 165.311 209.213 165.014 209.213C164.716 209.064 164.27 208.914 163.972 208.765C163.675 208.615 163.526 208.316 163.526 207.867C163.526 207.568 163.675 207.12 163.972 206.97C164.419 206.671 164.865 206.671 165.311 206.671C165.758 206.671 166.204 206.671 166.502 206.97L166.353 207.718C166.055 207.568 165.609 207.419 165.311 207.419C164.716 207.419 164.419 207.568 164.419 207.867C164.419 208.017 164.567 208.166 164.567 208.166C164.716 208.316 165.014 208.465 165.163 208.465C165.46 208.615 165.907 208.765 166.204 208.914C166.502 209.213 166.651 209.512 166.651 209.811C166.651 210.26 166.502 210.709 166.055 210.858C165.758 211.157 165.311 211.157 164.865 211.157C164.567 211.157 164.121 211.157 163.526 211.008Z" fill="#80BC00"/>
<path d="M174.834 210.41L174.685 211.157C174.537 211.157 174.239 211.157 174.09 211.157C173.644 211.157 173.197 210.858 173.049 210.41C172.9 210.559 172.602 210.858 172.305 210.858C172.007 211.008 171.709 211.008 171.412 211.008C170.817 211.008 170.37 210.858 169.924 210.559C169.626 210.26 169.329 209.811 169.478 209.363C169.478 208.465 169.924 207.718 170.668 207.419C170.37 206.97 170.222 206.521 170.073 205.923C170.073 205.475 170.222 205.175 170.519 204.876C170.817 204.577 171.263 204.428 171.709 204.428C172.156 204.428 172.751 204.577 173.197 204.727L173.049 205.475C172.751 205.325 172.305 205.175 171.858 205.175C171.412 205.175 171.114 205.325 171.114 205.774C171.114 206.222 171.263 206.521 171.412 206.82C172.007 207.568 172.453 208.166 173.197 208.914C173.346 208.765 173.346 208.465 173.346 208.166C173.346 207.718 173.346 207.419 173.346 206.97H174.983L174.834 207.718H174.09C174.09 208.017 174.09 208.316 174.09 208.615C173.941 208.914 173.941 209.213 173.793 209.363C173.941 209.512 174.09 209.662 174.239 209.811C174.388 209.811 174.537 209.811 174.685 209.811C174.685 210.41 174.834 210.41 174.834 210.41ZM172.602 210.11C172.156 209.662 171.709 209.064 171.114 208.316C170.668 208.465 170.37 209.064 170.37 209.512C170.37 210.26 170.668 210.559 171.561 210.559C171.709 210.559 172.007 210.559 172.156 210.41C172.305 210.26 172.453 210.11 172.602 210.11Z" fill="#80BC00"/>
<path d="M182.274 211.157H181.382V208.316H178.703V211.157H177.811V204.876H178.703V207.568H181.382V204.876H182.274V211.157Z" fill="#80BC00"/>
<path d="M185.547 211.307C184.06 211.307 183.464 210.559 183.464 209.064C183.464 207.568 184.208 206.821 185.547 206.821C186.887 206.821 187.631 207.568 187.631 209.064C187.779 210.41 187.035 211.307 185.547 211.307ZM185.547 210.559C185.845 210.559 186.291 210.41 186.44 210.26C186.738 209.811 186.738 209.512 186.738 209.064C186.738 208.615 186.738 208.166 186.44 207.867C185.994 207.419 185.101 207.419 184.655 207.867C184.506 208.316 184.357 208.765 184.357 209.213C184.357 209.662 184.357 210.111 184.655 210.41C184.804 210.41 185.25 210.559 185.547 210.559Z" fill="#80BC00"/>
<path d="M192.987 210.559V211.008C192.69 211.157 192.541 211.157 192.243 211.157C192.095 211.157 191.797 211.157 191.648 211.008C191.499 210.858 191.499 210.709 191.499 210.559C191.351 210.709 191.053 210.858 190.755 211.008C190.458 211.157 190.309 211.157 190.012 211.157C189.714 211.157 189.268 211.157 188.97 210.858C188.672 210.559 188.672 210.111 188.672 209.662V206.521H189.565V209.512C189.565 209.662 189.565 209.961 189.565 210.111C189.714 210.26 189.863 210.26 190.012 210.26C190.309 210.26 190.607 210.111 190.755 210.111C191.053 209.961 191.202 209.811 191.351 209.662V206.521H192.243V210.111C192.243 210.26 192.243 210.41 192.541 210.41L192.987 210.559Z" fill="#80BC00"/>
<path d="M193.583 211.008L193.731 210.26C193.88 210.41 194.178 210.41 194.326 210.41H194.922C195.666 210.41 195.963 210.26 195.963 209.811C195.963 209.662 195.963 209.512 195.814 209.512C195.517 209.363 195.368 209.213 195.07 209.213C194.773 209.064 194.326 208.914 194.029 208.765C193.731 208.615 193.583 208.316 193.583 207.867C193.583 207.568 193.731 207.12 194.029 206.97C194.475 206.671 194.922 206.671 195.368 206.671C195.814 206.671 196.261 206.671 196.558 206.97L196.41 207.718C196.112 207.568 195.666 207.419 195.368 207.419C194.773 207.419 194.475 207.568 194.475 207.867C194.475 208.017 194.624 208.166 194.624 208.166C194.773 208.316 195.07 208.465 195.219 208.465C195.517 208.615 195.963 208.765 196.261 208.914C196.707 209.363 196.856 210.11 196.41 210.559C196.261 210.709 196.261 210.709 196.112 210.858C195.814 211.157 195.368 211.157 194.922 211.157C194.475 211.157 194.029 211.157 193.583 211.008Z" fill="#80BC00"/>
<path d="M198.79 205.325C198.79 205.475 198.79 205.624 198.642 205.774C198.493 205.923 198.344 205.923 198.195 205.923C198.046 205.923 197.898 205.923 197.749 205.774C197.6 205.624 197.6 205.475 197.6 205.325C197.6 205.175 197.6 205.026 197.749 204.876C197.898 204.727 198.046 204.727 198.195 204.727C198.344 204.727 198.493 204.727 198.642 204.876C198.79 205.026 198.79 205.175 198.79 205.325ZM199.088 210.559V211.008C198.79 211.157 198.642 211.157 198.344 211.157C198.195 211.157 197.898 211.157 197.749 211.008C197.6 210.858 197.6 210.709 197.6 210.559V206.671H198.493V210.26C198.493 210.41 198.493 210.559 198.642 210.559H199.088Z" fill="#80BC00"/>
<path d="M204.147 210.559V211.008C203.998 211.157 203.701 211.157 203.403 211.157C203.254 211.157 202.957 211.157 202.808 211.008C202.659 210.858 202.659 210.709 202.659 210.559V208.166C202.659 207.867 202.659 207.718 202.659 207.568C202.51 207.419 202.362 207.419 202.213 207.419C201.915 207.419 201.766 207.568 201.469 207.568C201.171 207.718 201.022 207.867 200.725 208.017V211.157H199.832V206.671H200.725V207.269C201.022 207.12 201.171 206.97 201.469 206.82C201.766 206.671 202.064 206.671 202.362 206.671C202.659 206.671 203.106 206.671 203.403 206.97C203.701 207.269 203.701 207.718 203.701 208.166V210.41C203.701 210.559 203.701 210.709 203.849 210.709L204.147 210.559Z" fill="#80BC00"/>
<path d="M208.016 211.008V210.559C207.867 210.709 207.569 210.858 207.421 211.008C207.123 211.008 206.974 211.008 206.677 211.008C205.486 211.008 204.891 210.26 204.891 208.765C204.742 207.718 205.486 206.671 206.528 206.521C206.677 206.521 206.974 206.521 207.123 206.521C207.718 206.521 208.462 206.521 209.057 206.821V211.008C209.206 211.756 208.909 212.503 208.313 212.952C207.867 213.101 207.272 213.251 206.677 213.251C206.081 213.251 205.486 213.101 204.891 212.952L205.04 212.204C205.486 212.503 206.081 212.653 206.677 212.653C207.123 212.653 207.421 212.653 207.718 212.354C208.016 211.756 208.165 211.456 208.016 211.008ZM208.016 209.064V207.568C207.718 207.568 207.421 207.568 207.123 207.568C206.825 207.568 206.528 207.568 206.23 207.867C205.933 208.166 205.635 208.615 205.784 209.213C205.784 209.662 205.784 210.111 206.081 210.41C206.23 210.709 206.677 210.858 206.974 210.709C207.569 210.41 208.016 209.961 208.016 209.064Z" fill="#80BC00"/>
<path d="M46.7218 161.807H43.1507V160.312L42.1091 161.658H41.3651C40.1748 161.807 38.9844 161.359 38.2404 160.462C37.6452 159.714 37.3477 158.817 37.3477 157.919V154.33C37.3477 153.134 37.794 152.087 38.538 151.339C39.282 150.741 40.1748 150.442 41.0675 150.592H45.2338V159.564H46.573L46.7218 161.807ZM39.7284 147.9C39.4308 147.9 38.9844 147.75 38.8356 147.451C38.538 147.152 38.3892 146.853 38.3892 146.554C38.3892 146.255 38.538 145.806 38.8356 145.657C39.1332 145.358 39.4308 145.208 39.7284 145.357C40.026 145.357 40.4724 145.507 40.6211 145.657C40.9187 145.956 41.0675 146.255 41.0675 146.554C41.0675 146.853 40.9187 147.302 40.6211 147.451C40.4724 147.9 40.1748 148.049 39.7284 147.9ZM43.2995 159.564V152.685H41.0675C40.3236 152.536 39.5796 153.134 39.5796 153.882C39.5796 154.031 39.5796 154.181 39.5796 154.33V157.919C39.5796 158.368 39.7284 158.817 40.026 159.116C40.3236 159.415 40.9187 159.564 41.3651 159.415L43.2995 159.564ZM43.0019 147.9C42.7043 147.9 42.2579 147.75 42.1091 147.451C41.8115 147.152 41.6627 146.853 41.6627 146.554C41.6627 146.255 41.8115 145.806 42.1091 145.657C42.4067 145.358 42.7043 145.208 43.0019 145.357C43.2995 145.357 43.7458 145.507 43.8946 145.657C44.1922 145.956 44.341 146.255 44.341 146.554C44.341 146.853 44.1922 147.302 43.8946 147.451C43.7458 147.9 43.4483 148.049 43.0019 147.9Z" fill="#006B68"/>
<path d="M48.9535 161.808H46.5728V159.714H49.1023C50.1438 159.714 50.5902 159.265 50.5902 158.218V150.741H52.6734V157.919C52.8222 159.116 52.227 160.163 51.3342 160.91C50.739 161.508 49.8463 161.808 48.9535 161.808ZM49.6975 166.443C49.6975 167.191 49.1023 167.789 48.5071 167.789C48.2095 167.789 47.7631 167.64 47.6143 167.49C47.3167 167.191 47.1679 166.892 47.3167 166.593C47.3167 166.294 47.4655 165.845 47.6143 165.696C48.0607 165.247 48.9535 165.247 49.3999 165.696C49.5487 165.696 49.6975 165.995 49.6975 166.443ZM51.7806 167.64C51.483 167.64 51.0366 167.49 50.8878 167.341C50.5902 167.042 50.4414 166.743 50.4414 166.443C50.4414 166.144 50.5902 165.696 50.8878 165.546C51.1854 165.247 51.483 165.098 51.7806 165.098C52.0782 165.098 52.3758 165.247 52.6734 165.546C52.971 165.845 53.1197 166.144 53.1197 166.443C53.1197 166.743 52.9709 167.042 52.8222 167.341C52.5246 167.49 52.0782 167.64 51.7806 167.64Z" fill="#006B68"/>
<path d="M65.7678 161.807H55.9473V159.714H62.3455V156.125C62.6431 154.629 61.4527 153.134 59.9647 152.984C59.6671 152.984 59.5184 152.984 59.2208 152.984H57.7328V150.891H59.3696C60.7087 150.891 62.0479 151.339 63.0894 152.386C63.9822 153.283 64.4286 154.629 64.4286 155.975V159.863H65.7678V161.807Z" fill="#006B68"/>
<path d="M71.5705 161.808H65.6187V159.714H68.1482V146.255H70.2313V159.714H71.5705V161.808Z" fill="#006B68"/>
<path d="M79.1592 161.808H71.4219V159.714H75.5881V150.741H77.6713V159.714H79.0104L79.1592 161.808ZM76.7785 167.64C76.4809 167.64 76.0345 167.49 75.8857 167.341C75.5881 167.042 75.4393 166.743 75.4393 166.443C75.4393 166.144 75.5881 165.696 75.8857 165.546C76.1833 165.247 76.4809 165.098 76.7785 165.098C77.0761 165.098 77.3737 165.247 77.6713 165.546C77.9689 165.845 78.1177 166.144 78.1177 166.443C78.1177 166.743 77.9689 167.042 77.6713 167.341C77.5225 167.49 77.0761 167.64 76.7785 167.64Z" fill="#006B68"/>
<path d="M79.903 161.808H79.0103V159.714H79.903C80.3494 159.714 80.7958 159.564 81.2422 159.415C81.5398 159.116 81.6886 158.518 81.6886 158.069V146.255H83.7717V158.368C83.7717 159.415 83.4741 160.312 82.7301 161.06C81.8374 161.508 80.7958 161.808 79.903 161.808Z" fill="#006B68"/>
<path d="M88.8307 161.807L86.7476 163.004V146.105H88.8307V161.807Z" fill="#006B68"/>
<path d="M107.876 162.256V150.741H109.96V162.406C109.96 164.2 108.918 165.845 107.43 166.593C106.091 167.341 104.603 167.789 102.966 167.64C101.329 167.64 99.6927 167.191 98.2047 166.294C96.8656 165.397 96.1216 163.901 96.1216 162.406V156.723L98.3535 155.377V162.256C98.3535 163.453 98.9487 164.499 99.9903 164.948C100.883 165.397 101.925 165.546 102.966 165.546C104.157 165.546 105.347 165.247 106.388 164.649C107.579 164.2 108.025 163.153 107.876 162.256ZM103.264 148.049C102.966 148.049 102.52 147.9 102.222 147.601C101.925 147.302 101.776 147.003 101.776 146.704C101.776 146.404 101.925 145.956 102.222 145.806C102.52 145.507 102.817 145.358 103.264 145.507C104.008 145.507 104.454 146.105 104.454 146.853C104.454 147.152 104.305 147.601 104.008 147.75C103.859 147.9 103.561 148.049 103.264 148.049Z" fill="#006B68"/>
<path d="M115.614 167.64L114.126 165.696H114.424C117.4 165.696 119.036 164.649 119.036 162.406V161.808H117.251C116.209 161.957 115.019 161.508 114.275 160.761C113.531 160.013 113.233 158.966 113.233 158.069V154.48C113.233 153.433 113.531 152.386 114.424 151.638C115.168 151.04 116.061 150.741 117.102 150.741H121.268V162.256C121.417 163.752 120.822 165.397 119.78 166.443C118.441 167.191 117.102 167.64 115.614 167.64ZM118.888 159.564V152.685H116.804C116.358 152.685 115.912 152.835 115.614 153.134C115.317 153.433 115.168 153.882 115.317 154.33V157.919C115.317 158.368 115.465 158.817 115.763 159.265C116.209 159.564 116.804 159.714 117.4 159.564H118.888Z" fill="#006B68"/>
<path d="M133.469 161.807H132.13V162.107C132.279 163.602 131.684 165.247 130.642 166.294C129.452 167.191 127.964 167.64 126.625 167.64L125.137 165.696H125.434C128.41 165.696 130.047 164.649 130.047 162.406V161.807H128.261C127.22 161.957 126.029 161.508 125.285 160.761C124.541 160.013 124.244 158.966 124.393 158.069V154.48C124.393 153.433 124.69 152.386 125.434 151.638C126.178 151.04 127.071 150.741 128.113 150.741H132.428V159.714H133.767L133.469 161.807ZM130.196 147.9H126.178V147.002H127.071C126.922 146.703 126.773 146.404 126.773 146.105C126.773 145.657 126.922 145.208 127.22 144.909C127.517 144.61 127.964 144.46 128.41 144.46H129.452V145.357H128.857C128.113 145.357 127.666 145.657 127.666 146.255C127.666 146.853 128.113 147.152 128.857 147.152H130.047L130.196 147.9ZM130.047 159.564V152.685H127.964C127.517 152.685 127.071 152.835 126.773 153.134C126.476 153.433 126.327 153.882 126.476 154.33V157.919C126.476 158.368 126.625 158.817 126.922 159.265C127.369 159.564 127.964 159.714 128.559 159.564H130.047Z" fill="#006B68"/>
<path d="M154.3 161.807H133.32V159.714H139.57V150.741H141.653V159.714H145.373V150.741H147.456V159.714H151.176V150.741H153.259V159.714H154.152L154.3 161.807ZM146.266 146.703C146.266 147.002 146.117 147.451 145.819 147.601C145.522 147.9 145.224 148.049 144.926 148.049C144.629 148.049 144.182 147.9 144.034 147.601C143.587 147.002 143.587 146.255 144.034 145.657C144.331 145.357 144.629 145.208 144.926 145.357C145.224 145.357 145.67 145.507 145.819 145.806C146.117 145.956 146.266 146.404 146.266 146.703ZM147.605 143.712C147.605 144.012 147.456 144.311 147.307 144.61C147.158 144.759 146.861 144.909 146.563 144.909C145.968 144.909 145.373 144.311 145.373 143.712C145.373 143.413 145.522 143.114 145.67 142.815C145.819 142.516 146.117 142.516 146.563 142.516C146.861 142.516 147.158 142.666 147.307 142.815C147.456 143.114 147.605 143.413 147.605 143.712ZM149.539 146.703C149.539 147.002 149.39 147.451 149.093 147.601C148.795 147.9 148.497 148.049 148.2 148.049C147.902 148.049 147.456 147.9 147.307 147.601C147.009 147.302 146.861 147.002 147.009 146.703C147.009 145.956 147.456 145.357 148.2 145.357H148.349C148.646 145.357 149.093 145.507 149.241 145.657C149.39 145.956 149.539 146.255 149.539 146.703Z" fill="#006B68"/>
<path d="M155.045 161.808H154.152V159.714H155.045C155.491 159.714 155.937 159.564 156.384 159.415C156.681 159.116 156.83 158.518 156.83 158.069V146.255H158.913V158.368C158.913 159.415 158.616 160.312 157.872 161.06C156.979 161.508 156.086 161.808 155.045 161.808Z" fill="#006B68"/>
<path d="M164.121 161.807L162.038 163.004V146.105H164.121V161.807Z" fill="#006B68"/>
<path d="M179.447 150.592V157.919C179.596 159.116 179.001 160.312 178.108 161.06C177.364 161.508 176.471 161.807 175.43 161.807C174.388 161.807 173.198 161.508 172.454 160.761C171.859 160.013 171.412 158.966 171.561 158.069V154.48C171.561 153.433 171.859 152.237 172.751 151.489C173.495 150.891 174.388 150.592 175.281 150.592H179.447ZM173.793 148.049C173.049 148.049 172.454 147.451 172.454 146.703C172.454 146.404 172.603 145.956 172.9 145.806C173.198 145.507 173.495 145.507 173.793 145.507C174.091 145.507 174.537 145.657 174.686 145.806C174.983 146.105 175.132 146.404 175.132 146.703C175.132 147.002 174.983 147.451 174.686 147.601C174.537 147.9 174.239 148.049 173.793 148.049ZM177.215 157.919V152.685H175.132C174.091 152.685 173.644 153.283 173.644 154.33V157.919C173.644 158.966 174.239 159.564 175.43 159.564C176.62 159.564 177.215 159.116 177.215 157.919ZM177.215 147.9C176.471 147.9 175.876 147.302 175.876 146.554C175.876 146.255 176.025 145.806 176.323 145.657C176.769 145.208 177.662 145.208 178.108 145.657C178.406 145.956 178.554 146.255 178.554 146.554C178.554 146.853 178.406 147.302 178.108 147.451C177.959 147.75 177.513 148.049 177.215 147.9Z" fill="#006B68"/>
<path d="M183.018 167.64L181.53 165.696C183.167 165.546 184.506 163.901 184.209 162.256V162.107V150.592H186.292V162.705C186.441 164.948 185.101 166.892 183.018 167.64Z" fill="#006B68"/>
<path d="M191.648 161.807L189.565 163.004V146.105H191.648V161.807Z" fill="#006B68"/>
<path d="M195.219 167.64L193.731 165.696C195.368 165.546 196.707 163.901 196.41 162.256V162.106V150.591H198.493V162.705C198.642 164.948 197.303 166.892 195.219 167.64ZM197.451 148.049C197.154 148.049 196.707 147.9 196.559 147.601C196.261 147.302 196.112 147.002 196.261 146.703C196.261 146.404 196.41 145.956 196.559 145.806C196.856 145.507 197.154 145.357 197.451 145.357C198.195 145.357 198.79 145.956 198.642 146.703C198.642 147.002 198.493 147.451 198.344 147.601C198.195 147.9 197.898 148.049 197.451 148.049Z" fill="#006B68"/>
<path d="M204.147 167.64L202.659 165.696H202.957C205.933 165.696 207.569 164.649 207.569 162.406V161.808H205.784C204.742 161.957 203.552 161.508 202.808 160.761C202.064 160.013 201.766 158.966 201.915 158.069V154.48C201.915 153.433 202.213 152.386 202.957 151.638C203.701 151.04 204.593 150.741 205.635 150.741H209.801V162.256C209.801 163.752 209.355 165.247 208.165 166.443C206.974 167.191 205.635 167.64 204.147 167.64ZM207.421 159.564V152.685H205.337C204.891 152.685 204.445 152.835 204.147 153.134C203.849 153.433 203.701 153.882 203.849 154.33V157.919C203.849 158.368 203.998 158.817 204.296 159.265C204.742 159.564 205.337 159.714 205.933 159.564H207.421Z" fill="#006B68"/>
<path d="M49.4002 192.614V180.949H51.6321V192.763C51.6321 194.558 50.7393 196.203 49.1026 196.95C47.7634 197.698 46.2755 198.147 44.6387 198.147C42.8532 198.147 41.2165 197.698 39.7285 196.651C38.3893 195.754 37.6454 194.259 37.7942 192.763V187.23L39.8773 185.735V192.614C39.8773 193.81 40.4725 194.857 41.6628 195.305C42.5556 195.754 43.5972 195.904 44.6387 195.904C45.8291 195.904 47.0195 195.605 48.061 195.006C48.9538 194.558 49.4002 193.66 49.4002 192.614ZM44.7875 178.407C44.4899 178.407 44.0436 178.257 43.8948 177.958C43.5972 177.659 43.4484 177.36 43.4484 177.061C43.4484 176.762 43.5972 176.313 43.8948 176.164C44.1924 175.865 44.4899 175.715 44.7875 175.715C45.0851 175.715 45.3827 175.865 45.6803 176.164C45.9779 176.463 46.1267 176.762 46.1267 177.061C46.1267 177.36 45.9779 177.809 45.6803 177.958C45.3827 178.257 45.0851 178.407 44.7875 178.407Z" fill="#006B68"/>
<path d="M58.0301 192.165C56.9885 192.165 56.0957 191.866 55.3518 191.118C54.7566 190.52 54.459 189.623 54.459 188.875V176.612H56.6909V188.725C56.6909 189.623 57.1373 190.071 57.8813 190.071H58.0301V192.165Z" fill="#006B68"/>
<path d="M61.6012 192.165H57.8813V190.072H61.6012V192.165Z" fill="#006B68"/>
<path d="M74.5466 192.165H61.4526V190.071H71.1243V184.837C71.2731 184.09 70.6779 183.342 69.934 183.342C69.7852 183.342 69.6364 183.342 69.6364 183.342H63.9822V180.351C63.9822 177.809 65.3213 176.463 67.9996 176.463H71.7195V178.706H67.702C66.9581 178.557 66.2141 179.155 66.0653 179.902C66.0653 180.052 66.0653 180.202 66.0653 180.351V180.949H69.4876C70.5291 180.949 71.5707 181.248 72.3147 181.996C72.9099 182.744 73.2075 183.791 73.0587 184.688V189.922H74.3978L74.5466 192.165Z" fill="#006B68"/>
<path d="M77.9685 192.165H74.3975V190.072H77.9685V192.165Z" fill="#006B68"/>
<path d="M94.0385 192.165H77.8198V190.071H84.0692V180.949H86.1524V189.922H89.8722V180.949H91.9554V189.922H94.0385C95.0801 189.922 95.6753 189.473 95.6753 188.426V180.949H97.7584V188.277C97.7584 189.324 97.4608 190.371 96.7168 191.118C96.1216 191.866 95.0801 192.165 94.0385 192.165Z" fill="#006B68"/>
<path d="M108.025 192.165H100.883V190.071H104.752L101.181 180.949H103.413L106.835 189.922H107.728C108.174 189.922 108.621 189.772 109.067 189.623C109.365 189.324 109.513 188.875 109.513 188.426V176.612H111.597V188.725C111.597 189.772 111.299 190.67 110.555 191.417C110.109 191.866 109.067 192.315 108.025 192.165ZM105.198 198.147H101.032V197.1H101.925C101.478 196.352 101.627 195.604 102.222 195.006C102.52 194.707 102.966 194.408 103.413 194.558H104.306V195.455H103.71C102.966 195.455 102.669 195.754 102.669 196.352C102.669 196.95 102.966 197.249 103.71 197.249H105.05V198.147H105.198Z" fill="#006B68"/>
<path d="M117.102 192.165L115.019 193.361V176.463H117.102V192.165Z" fill="#006B68"/>
<path d="M122.607 198.147L121.119 196.203H121.417C124.393 196.203 126.03 195.156 126.03 192.913V192.165H124.244C123.054 192.315 122.012 191.866 121.119 191.118C120.375 190.371 120.078 189.324 120.227 188.426V184.837C120.078 183.791 120.524 182.744 121.119 181.996C121.863 181.248 122.905 180.949 123.798 180.949H128.113V192.464C128.262 193.96 127.666 195.605 126.625 196.651C125.583 197.549 124.095 198.147 122.607 198.147ZM126.03 190.071V183.342H123.947C123.5 183.342 123.054 183.491 122.756 183.641C122.459 183.94 122.31 184.389 122.459 184.837V188.426C122.459 188.875 122.607 189.324 122.905 189.772C123.351 190.071 123.947 190.221 124.542 190.071H126.03Z" fill="#006B68"/>
<path d="M144.778 192.165H141.355V190.819L140.314 192.165H139.57C138.379 192.315 137.338 191.866 136.445 190.969C135.85 190.221 135.552 189.324 135.552 188.277V184.837C135.552 183.641 135.999 182.594 136.743 181.846C137.487 181.248 138.379 180.949 139.272 180.949H143.438V189.922H144.778V192.165ZM137.933 178.407C137.635 178.407 137.189 178.257 137.04 177.958C136.743 177.659 136.594 177.36 136.594 177.061C136.594 176.762 136.743 176.313 137.04 176.164C137.338 175.865 137.635 175.715 137.933 175.715C138.231 175.715 138.677 175.865 138.826 176.164C139.123 176.463 139.272 176.762 139.272 177.061C139.272 177.36 139.123 177.809 138.826 177.958C138.528 178.257 138.231 178.407 137.933 178.407ZM141.355 190.071V183.342H139.272C138.528 183.192 137.784 183.791 137.784 184.538C137.784 184.688 137.784 184.837 137.784 184.837V188.426C137.784 188.875 137.933 189.324 138.231 189.623C138.528 189.922 139.123 190.071 139.57 189.922L141.355 190.071ZM141.206 178.407C140.909 178.407 140.462 178.257 140.314 177.958C140.016 177.659 139.867 177.36 139.867 177.061C139.867 176.762 140.016 176.313 140.314 176.164C140.611 175.865 140.909 175.715 141.206 175.715C141.504 175.715 141.95 175.865 142.099 176.164C142.397 176.463 142.546 176.762 142.546 177.061C142.546 177.36 142.397 177.809 142.099 177.958C141.802 178.257 141.504 178.407 141.206 178.407Z" fill="#006B68"/>
<path d="M148.2 192.165H144.629V190.072H148.2V192.165Z" fill="#006B68"/>
<path d="M150.432 192.165H148.051V190.071H150.581C151.622 190.071 152.218 189.623 152.218 188.576V180.949H154.301V188.426C154.449 189.623 153.854 190.67 152.962 191.417C152.366 191.866 151.474 192.165 150.432 192.165ZM151.325 196.801C151.325 197.1 151.176 197.549 150.878 197.698C150.581 197.997 150.283 198.147 149.986 198.147C149.242 198.147 148.646 197.698 148.646 196.951C148.646 196.951 148.646 196.951 148.646 196.801C148.646 196.502 148.795 196.053 149.093 195.904C149.39 195.605 149.688 195.455 149.986 195.455C150.283 195.455 150.73 195.605 150.878 195.904C151.176 196.053 151.325 196.502 151.325 196.801ZM153.408 198.147C153.11 198.147 152.664 197.997 152.515 197.848C152.218 197.549 152.069 197.25 152.218 196.951C152.218 196.651 152.366 196.203 152.515 196.053C152.813 195.754 153.11 195.605 153.408 195.605C153.705 195.605 154.003 195.754 154.301 196.053C154.598 196.352 154.747 196.651 154.598 196.951C154.598 197.25 154.449 197.698 154.301 197.848C154.003 197.997 153.705 198.147 153.408 198.147Z" fill="#006B68"/>
<path d="M159.955 198.147L158.467 196.203H158.765C161.74 196.203 163.228 195.156 163.377 192.913V192.165H161.592C160.55 192.314 159.36 191.866 158.616 191.118C157.872 190.37 157.574 189.324 157.574 188.426V184.837C157.574 183.79 157.872 182.744 158.616 181.996C159.36 181.398 160.253 181.099 161.294 181.099H165.46V192.614C165.609 194.109 165.014 195.754 163.972 196.801C162.931 197.698 161.443 198.147 159.955 198.147ZM163.228 190.071V183.342H161.145C160.699 183.342 160.253 183.491 159.955 183.641C159.657 183.94 159.509 184.389 159.657 184.837V188.426C159.657 188.875 159.806 189.324 160.104 189.772C160.55 190.071 161.145 190.221 161.74 190.071H163.228Z" fill="#006B68"/>
<path d="M169.031 198.147L167.543 196.203C168.436 196.053 169.18 195.604 169.627 195.006C170.073 194.259 170.222 193.511 170.222 192.763V181.099H172.305V190.071H173.644V192.165H172.305V193.212C172.454 195.305 171.115 197.399 169.031 198.147Z" fill="#006B68"/>
<path d="M185.25 192.165H173.495V190.071H176.173V184.837C176.173 183.791 176.471 182.744 177.364 181.846C178.108 181.248 179.001 180.949 179.893 180.949H184.208V189.922H185.399V192.165H185.25ZM178.405 178.407C178.108 178.407 177.661 178.257 177.513 177.958C177.215 177.659 177.066 177.36 177.066 177.061C177.066 176.762 177.215 176.313 177.513 176.164C177.81 175.865 178.108 175.715 178.405 175.715C178.703 175.715 179.001 175.865 179.298 176.164C179.596 176.463 179.745 176.762 179.745 177.061C179.745 177.36 179.596 177.809 179.298 177.958C179.001 178.257 178.703 178.407 178.405 178.407ZM181.828 190.071V183.342H179.745C178.703 183.342 178.257 183.94 178.257 184.987V190.221L181.828 190.071ZM181.679 178.407C181.381 178.407 180.935 178.257 180.786 177.958C180.488 177.659 180.34 177.36 180.34 177.061C180.34 176.762 180.488 176.313 180.786 176.164C181.084 175.865 181.381 175.715 181.679 175.715C181.976 175.715 182.423 175.865 182.572 176.164C182.869 176.463 183.018 176.762 183.018 177.061C183.018 177.36 182.869 177.809 182.572 177.958C182.274 178.257 181.976 178.407 181.679 178.407Z" fill="#006B68"/>
<path d="M188.821 192.165H185.25V190.072H188.821V192.165Z" fill="#006B68"/>
<path d="M189.565 192.165H188.672V190.071H189.565C190.012 190.071 190.458 189.922 190.904 189.772C191.202 189.473 191.351 189.025 191.351 188.576V176.612H193.434V188.725C193.434 189.772 193.136 190.67 192.392 191.417C191.499 191.866 190.458 192.315 189.565 192.165Z" fill="#006B68"/>
<path d="M198.642 192.165L196.41 193.361V176.463H198.642V192.165Z" fill="#006B68"/>
<path d="M204.147 198.147L202.659 196.203H202.957C205.933 196.203 207.421 195.156 207.569 192.913V192.165H205.784C204.742 192.315 203.552 191.866 202.808 191.118C202.064 190.371 201.766 189.324 201.915 188.427V184.837C201.915 183.791 202.213 182.744 202.957 181.996C203.701 181.398 204.593 180.949 205.635 181.099H209.801V192.614C209.95 194.109 209.355 195.754 208.313 196.801C207.123 197.698 205.635 198.147 204.147 198.147ZM207.421 190.071V183.342H205.337C204.891 183.342 204.445 183.492 204.147 183.641C203.849 183.94 203.701 184.389 203.849 184.837V188.427C203.849 189.025 203.998 189.473 204.296 189.772C204.742 190.072 205.337 190.221 205.933 190.071H207.421Z" fill="#006B68"/>
</svg>
