<svg width="608" height="420" viewBox="0 0 608 420" fill="none" xmlns="http://www.w3.org/2000/svg">
<g opacity="0.5">
<path d="M338.156 0.847058C337.832 0.987229 337.671 1.13824 337.703 1.31076C337.746 1.4725 337.994 1.65579 338.49 1.83909C338.986 2.02239 339.73 2.2165 340.754 2.41059C341.79 2.60467 343.105 2.80946 344.755 3.00354C345.369 3.07902 346.35 3.15445 347.483 3.22993C348.615 3.30541 349.887 3.38095 351.084 3.43486C352.281 3.49956 353.402 3.55348 354.232 3.58583C355.052 3.61818 355.58 3.65046 355.58 3.65046L362.632 1.63415C362.632 1.63415 362.384 1.59105 361.985 1.52636C361.575 1.46166 361.004 1.36462 360.346 1.25679C359.688 1.14897 358.955 1.04122 358.211 0.922609C357.467 0.814784 356.723 0.706939 356.044 0.631462C355.16 0.523638 353.898 0.394176 352.453 0.286352C351.009 0.167745 349.359 0.0707141 347.687 0.0275844C346.016 -0.0155452 344.323 -0.0154925 342.76 0.0815491C341.197 0.178591 339.773 0.361813 338.641 0.674503C338.598 0.685285 338.555 0.69611 338.512 0.717674C338.469 0.728457 338.425 0.739281 338.393 0.760846C338.361 0.782411 338.318 0.793104 338.274 0.803886C338.221 0.814669 338.188 0.825493 338.156 0.847058Z" fill="#008056"/>
<path d="M358.966 4.06019C358.966 4.06019 359.149 4.09261 359.451 4.13574C359.764 4.18965 360.195 4.25427 360.723 4.32975C361.241 4.40523 361.856 4.50226 362.492 4.58852C363.139 4.67478 363.807 4.77181 364.476 4.84728C365.133 4.92276 365.877 4.96589 366.643 4.97667C367.419 4.98745 368.228 4.96595 369.004 4.91204C369.791 4.85813 370.546 4.7827 371.226 4.68565C371.905 4.58861 372.498 4.46992 372.972 4.32975C373.037 4.30819 373.102 4.2867 373.166 4.27592C373.231 4.25435 373.285 4.23273 373.339 4.22195C373.393 4.20039 373.447 4.17877 373.49 4.16799C373.533 4.14642 373.576 4.13572 373.619 4.11415C373.889 3.98477 374.018 3.86621 374.029 3.75838C374.04 3.63978 373.932 3.53189 373.716 3.42406C373.511 3.31624 373.199 3.21917 372.811 3.12213C372.422 3.02508 371.959 2.93884 371.441 2.86336C371.107 2.80945 370.73 2.75551 370.331 2.7016C369.921 2.64768 369.49 2.58307 369.015 2.51838C368.541 2.45368 368.034 2.38893 367.495 2.32424C366.956 2.25954 366.373 2.18412 365.759 2.10864L358.966 4.06019Z" fill="#008056"/>
<path d="M306.035 2.32423C305.194 2.65849 305.097 2.98195 305.485 3.2623C305.873 3.54264 306.757 3.80151 307.857 4.02794C308.968 4.25437 310.305 4.43757 311.61 4.5993C312.914 4.75026 314.187 4.86894 315.157 4.94441C315.901 4.99833 316.796 5.05226 317.712 5.10618C318.629 5.16009 319.578 5.20309 320.43 5.24622C321.281 5.28935 322.036 5.32179 322.586 5.34336C323.136 5.36492 323.459 5.37574 323.459 5.37574L329.045 3.16529C329.045 3.16529 328.667 3.10056 328.053 2.99274C327.438 2.89569 326.597 2.75555 325.67 2.61538C324.743 2.47521 323.74 2.32424 322.791 2.19485C321.853 2.06546 320.969 1.96841 320.3 1.91449C318.316 1.76354 316.537 1.67727 314.963 1.63414C313.389 1.59101 312.019 1.6018 310.844 1.64493C309.669 1.68806 308.688 1.77429 307.9 1.88212C307.113 1.98994 306.52 2.13011 306.121 2.28106C306.111 2.28106 306.1 2.29185 306.089 2.29185C306.078 2.29185 306.067 2.30265 306.057 2.30265C306.046 2.30265 306.035 2.31344 306.035 2.31344C306.035 2.31344 306.046 2.31345 306.035 2.32423Z" fill="#008056"/>
<path d="M327.406 5.55892C328.085 5.61283 328.721 5.65596 329.336 5.69909C329.95 5.74222 330.533 5.78534 331.072 5.81768C331.622 5.85003 332.139 5.88247 332.624 5.91482C333.11 5.94717 333.563 5.96867 333.983 5.99024C334.749 6.03337 335.503 6.05487 336.237 6.05487C336.97 6.05487 337.681 6.03337 338.339 5.99024C338.997 5.94711 339.611 5.87169 340.161 5.77464C340.711 5.6776 341.196 5.5481 341.595 5.38636C341.606 5.38636 341.606 5.3757 341.617 5.3757C341.628 5.3757 341.628 5.36491 341.639 5.36491C341.649 5.36491 341.649 5.35411 341.66 5.35411C341.671 5.35411 341.671 5.34332 341.682 5.34332C342.016 5.19237 342.21 5.04137 342.275 4.89041C342.339 4.73946 342.253 4.57768 342.048 4.4375C341.843 4.29733 341.509 4.16797 341.046 4.06015C340.593 3.95232 340.01 3.86608 339.31 3.81217C338.587 3.75826 337.822 3.70433 337.067 3.6612C336.312 3.61807 335.579 3.57496 334.943 3.54261C334.307 3.51026 333.746 3.47798 333.358 3.46719C332.97 3.44563 332.732 3.43481 332.732 3.43481L327.406 5.55892Z" fill="#008056"/>
<path d="M382.957 5.34359C382.655 5.48376 382.515 5.64543 382.59 5.81795C382.666 5.99047 382.935 6.18457 383.463 6.37865C383.992 6.57274 384.757 6.78846 385.825 6.99332C386.892 7.20897 388.24 7.42461 389.922 7.65104C390.558 7.7373 391.572 7.82354 392.747 7.9098C393.912 7.99606 395.238 8.0823 396.478 8.15778C397.718 8.23325 398.882 8.298 399.734 8.34113C400.586 8.38426 401.136 8.41654 401.136 8.41654L408.382 6.34628C408.382 6.34628 408.123 6.30316 407.702 6.22768C407.282 6.15221 406.689 6.04435 405.999 5.92575C405.319 5.80714 404.554 5.67779 403.778 5.55918C403.001 5.44057 402.236 5.32205 401.535 5.23579C400.607 5.11718 399.314 4.96623 397.804 4.83684C396.305 4.70745 394.602 4.58881 392.877 4.52411C391.151 4.45942 389.394 4.44865 387.787 4.5349C386.17 4.62116 384.703 4.80439 383.539 5.12786C383.485 5.13864 383.431 5.16025 383.377 5.17103C383.323 5.18181 383.269 5.20343 383.226 5.22499C383.183 5.24656 383.129 5.25726 383.086 5.27883C383.032 5.31117 382.989 5.3328 382.957 5.34359Z" fill="#008056"/>
<path d="M404.63 8.89096C404.63 8.89096 404.813 8.92339 405.136 8.9773C405.46 9.03121 405.913 9.10664 406.452 9.1929C406.991 9.27916 407.627 9.37622 408.285 9.48404C408.953 9.58109 409.654 9.68893 410.344 9.77519C411.024 9.86145 411.8 9.91539 412.598 9.93695C413.396 9.95852 414.237 9.93691 415.045 9.89378C415.854 9.85065 416.63 9.77523 417.331 9.67819C418.032 9.58114 418.647 9.46244 419.132 9.31149C419.207 9.28992 419.294 9.26842 419.358 9.23607C419.434 9.21451 419.498 9.19288 419.552 9.17131C419.617 9.14975 419.671 9.12825 419.725 9.10669C419.779 9.08512 419.822 9.06349 419.865 9.04193C420.102 8.91254 420.21 8.79397 420.199 8.67536C420.189 8.55676 420.059 8.44899 419.833 8.33038C419.606 8.22256 419.294 8.11469 418.895 8.01765C418.496 7.92061 418.021 7.82356 417.482 7.7373C417.126 7.68339 416.738 7.61865 416.328 7.55395C415.908 7.48926 415.455 7.42463 414.97 7.34915C414.485 7.27367 413.956 7.2089 413.396 7.13342C412.835 7.05794 412.231 6.97172 411.595 6.89624L404.63 8.89096Z" fill="#008056"/>
<path d="M349.779 6.65928C349.003 7.00432 348.971 7.32782 349.413 7.62972C349.855 7.93163 350.771 8.20119 351.914 8.4384C353.057 8.67562 354.427 8.89121 355.753 9.05294C357.09 9.22546 358.373 9.35483 359.365 9.44109C360.141 9.50579 361.058 9.58132 362.007 9.63523C362.955 9.69993 363.926 9.75388 364.81 9.80779C365.694 9.8617 366.47 9.89403 367.042 9.92638C367.603 9.95873 367.948 9.96942 367.948 9.96942L373.673 7.68356C373.673 7.68356 373.274 7.60816 372.649 7.50034C372.013 7.39252 371.139 7.23076 370.18 7.07981C369.22 6.91807 368.185 6.75628 367.204 6.61611C366.233 6.47594 365.317 6.35742 364.627 6.30351C362.578 6.13099 360.745 6.0231 359.128 5.96919C357.5 5.91528 356.087 5.91526 354.879 5.9476C353.672 5.97995 352.658 6.0663 351.85 6.17412C351.041 6.28195 350.437 6.42211 350.027 6.57307C350.006 6.58385 349.984 6.59452 349.963 6.59452C349.941 6.6053 349.92 6.61611 349.898 6.61611C349.876 6.62689 349.855 6.63769 349.844 6.63769C349.812 6.63769 349.79 6.6485 349.779 6.65928Z" fill="#008056"/>
<path d="M372.023 10.2067C372.713 10.2714 373.382 10.3252 374.007 10.3791C374.643 10.433 375.236 10.4762 375.808 10.5193C376.379 10.5624 376.908 10.6055 377.415 10.6379C377.921 10.6702 378.385 10.7027 378.827 10.7242C379.614 10.7673 380.401 10.7996 381.156 10.8104C381.911 10.8212 382.644 10.7997 383.334 10.7566C384.013 10.7135 384.65 10.6487 385.221 10.5409C385.782 10.4438 386.278 10.3037 386.687 10.1419C386.709 10.1311 386.72 10.1311 386.741 10.1203C386.763 10.1096 386.774 10.1095 386.784 10.0988C386.795 10.088 386.817 10.0881 386.828 10.0773C386.838 10.0665 386.86 10.0665 386.871 10.0557C387.183 9.90476 387.356 9.74295 387.388 9.58122C387.421 9.41948 387.334 9.2686 387.108 9.11765C386.881 8.9667 386.536 8.83732 386.062 8.7295C385.588 8.62167 384.995 8.52464 384.283 8.47073C383.539 8.40604 382.741 8.35208 381.965 8.28738C381.188 8.23347 380.434 8.17955 379.765 8.14721C379.107 8.10408 378.536 8.07177 378.126 8.0502C377.727 8.02864 377.479 8.01782 377.479 8.01782L372.023 10.2067Z" fill="#008056"/>
<path d="M429.127 10.7559C428.847 10.9068 428.739 11.0685 428.825 11.2518C428.911 11.4351 429.192 11.64 429.72 11.8449C430.248 12.0606 431.003 12.2869 432.049 12.5241C433.095 12.7613 434.41 13.0094 436.039 13.2681C436.675 13.3652 437.71 13.4838 438.907 13.5917C440.104 13.7103 441.451 13.818 442.724 13.9258C443.996 14.0337 445.193 14.1199 446.077 14.1846C446.95 14.2493 447.511 14.2924 447.511 14.2924L455.425 12.2115C455.425 12.2115 455.167 12.1576 454.746 12.0713C454.326 11.985 453.722 11.8556 453.042 11.7262C452.352 11.586 451.587 11.446 450.8 11.295C450.023 11.1548 449.236 11.0145 448.514 10.9067C447.576 10.7665 446.26 10.5833 444.729 10.4216C443.198 10.2598 441.462 10.0981 439.683 10.001C437.904 9.90399 436.093 9.86093 434.4 9.93641C432.718 10.0011 431.154 10.1736 429.882 10.4971C429.806 10.5187 429.731 10.5402 429.655 10.5617C429.58 10.5833 429.515 10.6049 429.451 10.6265C429.386 10.6481 429.332 10.6696 429.278 10.6911C429.224 10.7127 429.17 10.7343 429.127 10.7559Z" fill="#008056"/>
<path d="M451.08 14.8425C451.08 14.8425 451.264 14.8857 451.587 14.9396C451.911 15.0043 452.363 15.0906 452.913 15.1984C453.463 15.3062 454.099 15.414 454.768 15.5326C455.436 15.6512 456.148 15.7699 456.849 15.8777C457.55 15.9855 458.337 16.0501 459.167 16.0825C459.997 16.1148 460.871 16.1148 461.712 16.0717C462.564 16.0393 463.383 15.9747 464.138 15.8777C464.882 15.7806 465.55 15.6619 466.079 15.5218C466.197 15.4894 466.294 15.4571 466.391 15.4356C466.488 15.4032 466.575 15.3709 466.661 15.3493C466.747 15.317 466.812 15.2846 466.877 15.263C466.941 15.2307 466.995 15.1984 467.049 15.1768C467.254 15.0582 467.329 14.9288 467.308 14.8102C467.286 14.6916 467.146 14.5729 466.93 14.4651C466.704 14.3573 466.402 14.2388 466.014 14.1309C465.626 14.0231 465.173 13.926 464.666 13.829C464.31 13.7643 463.922 13.6887 463.502 13.6133C463.081 13.5378 462.617 13.4623 462.121 13.3761C461.626 13.2898 461.086 13.2036 460.526 13.1173C459.954 13.0311 459.35 12.934 458.703 12.8262L451.08 14.8425Z" fill="#008056"/>
<path d="M394.548 11.6186C393.869 11.9529 393.879 12.2872 394.343 12.5999C394.807 12.9125 395.723 13.2036 396.845 13.4732C397.977 13.7427 399.314 13.9692 400.608 14.174C401.912 14.3681 403.174 14.5299 404.155 14.627C404.942 14.7132 405.88 14.7995 406.84 14.8749C407.81 14.9612 408.802 15.0366 409.697 15.1013C410.592 15.166 411.401 15.2307 411.972 15.2631C412.555 15.3062 412.9 15.3278 412.9 15.3278L419.24 12.9988C419.24 12.9988 418.851 12.9126 418.215 12.7832C417.579 12.6538 416.717 12.4704 415.757 12.2871C414.797 12.1038 413.751 11.9097 412.781 11.7372C411.8 11.5755 410.883 11.4353 410.182 11.3599C408.101 11.1442 406.225 10.9932 404.565 10.9069C402.904 10.8207 401.438 10.7884 400.187 10.8099C398.926 10.8315 397.88 10.8962 397.028 10.9933C396.176 11.0903 395.529 11.2305 395.076 11.3922C395.022 11.4138 394.979 11.4245 394.925 11.4461C394.882 11.4676 394.828 11.4785 394.796 11.5C394.753 11.5216 394.71 11.5324 394.677 11.554C394.623 11.5863 394.58 11.6078 394.548 11.6186Z" fill="#008056"/>
<path d="M417.051 15.6623C417.763 15.7378 418.442 15.8134 419.089 15.878C419.736 15.9427 420.35 16.0074 420.922 16.0613C421.504 16.1152 422.043 16.1691 422.561 16.2122C423.078 16.2554 423.564 16.2985 424.006 16.3308C424.814 16.3955 425.623 16.4386 426.399 16.4602C427.186 16.4818 427.941 16.4818 428.653 16.4386C429.365 16.4063 430.033 16.3417 430.648 16.2446C431.251 16.1476 431.791 16.0182 432.243 15.8457C432.287 15.8349 432.319 15.8133 432.362 15.8025C432.394 15.7917 432.438 15.7701 432.47 15.7593C432.502 15.7485 432.535 15.7271 432.567 15.7163C432.599 15.7055 432.632 15.6839 432.653 15.6731C432.923 15.5222 433.074 15.3605 433.095 15.1988C433.117 15.037 433.02 14.8752 432.793 14.735C432.567 14.5841 432.233 14.4439 431.769 14.3253C431.316 14.2067 430.745 14.1096 430.055 14.0342C429.3 13.9587 428.48 13.8725 427.693 13.8078C426.906 13.7323 426.13 13.6675 425.45 13.6136C424.771 13.5597 424.189 13.5166 423.779 13.4843C423.37 13.4519 423.122 13.4304 423.122 13.4304L417.051 15.6623Z" fill="#008056"/>
<path d="M475.987 17.5386C475.739 17.6896 475.642 17.8621 475.729 18.0561C475.815 18.2502 476.074 18.466 476.559 18.6924C477.044 18.9188 477.734 19.1668 478.683 19.4363C479.632 19.7059 480.829 19.9862 482.317 20.2774C482.942 20.4068 483.966 20.5577 485.163 20.7087C486.36 20.8704 487.719 21.0321 489.002 21.1723C490.285 21.3232 491.493 21.4527 492.387 21.5498C493.272 21.6468 493.843 21.7006 493.843 21.7006L502.997 19.7059C502.997 19.7059 502.76 19.6411 502.35 19.5333C501.941 19.4255 501.38 19.2747 500.722 19.1129C500.065 18.9512 499.331 18.7678 498.577 18.5953C497.833 18.4227 497.067 18.2503 496.377 18.1209C495.46 17.9376 494.156 17.7112 492.635 17.4956C491.115 17.2691 489.368 17.0642 487.557 16.9025C485.746 16.7515 483.88 16.6545 482.09 16.6761C480.311 16.6977 478.608 16.8378 477.152 17.1397C477.023 17.172 476.904 17.1937 476.796 17.226C476.688 17.2583 476.58 17.2907 476.483 17.323C476.386 17.3554 476.3 17.3877 476.225 17.42C476.117 17.4631 476.041 17.5063 475.987 17.5386Z" fill="#008056"/>
<path d="M497.305 22.4014C497.305 22.4014 497.477 22.4446 497.79 22.5308C498.103 22.6063 498.534 22.7142 499.062 22.8435C499.591 22.9729 500.194 23.1131 500.841 23.2641C501.488 23.415 502.178 23.5552 502.858 23.6954C503.537 23.8356 504.346 23.9217 505.197 23.9864C506.049 24.0403 506.966 24.0619 507.871 24.0512C508.777 24.0404 509.672 23.9972 510.492 23.911C511.311 23.8355 512.066 23.7276 512.68 23.5875C512.853 23.5443 513.015 23.512 513.166 23.4689C513.306 23.4257 513.446 23.3934 513.554 23.3503C513.672 23.3072 513.769 23.264 513.856 23.2317C513.942 23.1886 514.017 23.1454 514.071 23.1023C514.233 22.9837 514.298 22.8652 514.265 22.7573C514.233 22.6387 514.114 22.52 513.92 22.4014C513.726 22.2828 513.446 22.1643 513.112 22.0564C512.777 21.9378 512.368 21.83 511.926 21.7221C511.591 21.6359 511.214 21.5496 510.804 21.4634C510.395 21.3663 509.942 21.2693 509.467 21.1722C508.982 21.0644 508.464 20.9566 507.904 20.8488C507.343 20.7302 506.75 20.6115 506.125 20.4929L497.305 22.4014Z" fill="#008056"/>
<path d="M439.716 17.5383C439.134 17.8726 439.166 18.2069 439.608 18.5304C440.05 18.8538 440.891 19.1773 441.926 19.4684C442.961 19.7596 444.191 20.0399 445.387 20.2663C446.584 20.4928 447.759 20.6869 448.676 20.827C449.442 20.9349 450.369 21.0534 451.328 21.172C452.288 21.2906 453.28 21.3985 454.186 21.4955C455.081 21.5926 455.889 21.6788 456.472 21.7327C457.054 21.7974 457.41 21.8297 457.41 21.8297L465.001 19.5331C465.001 19.5331 464.634 19.436 464.03 19.2743C463.426 19.1126 462.607 18.9078 461.69 18.6813C460.785 18.4549 459.782 18.2177 458.844 18.0128C457.906 17.808 457.022 17.6354 456.321 17.5383C454.272 17.2472 452.407 17.0424 450.725 16.9022C449.043 16.762 447.555 16.6974 446.25 16.6758C444.945 16.665 443.835 16.6974 442.907 16.7836C441.98 16.8699 441.258 16.9885 440.719 17.1502C440.611 17.1825 440.503 17.2149 440.406 17.2472C440.309 17.2795 440.223 17.312 440.136 17.3443C440.05 17.3767 439.975 17.409 439.91 17.4413C439.834 17.4737 439.77 17.506 439.716 17.5383Z" fill="#008056"/>
<path d="M461.561 22.3044C462.262 22.4015 462.93 22.4985 463.566 22.5848C464.202 22.6711 464.806 22.7573 465.389 22.8328C465.96 22.9082 466.51 22.9729 467.027 23.0376C467.545 23.1023 468.019 23.1562 468.472 23.2101C469.281 23.2964 470.1 23.3719 470.898 23.4151C471.707 23.4582 472.494 23.4797 473.249 23.4581C474.004 23.4473 474.737 23.3934 475.405 23.3071C476.074 23.2209 476.699 23.0915 477.249 22.9298C477.335 22.8974 477.422 22.8759 477.508 22.8436C477.583 22.8112 477.659 22.7897 477.734 22.7573C477.799 22.725 477.864 22.6926 477.928 22.6602C477.993 22.6279 478.047 22.5956 478.09 22.5632C478.317 22.4123 478.446 22.2613 478.468 22.1103C478.489 21.9593 478.403 21.7977 478.209 21.6575C478.015 21.5066 477.724 21.3664 477.314 21.2478C476.915 21.1184 476.397 21.0105 475.783 20.9243C475.028 20.8164 474.219 20.7086 473.432 20.6115C472.645 20.5145 471.869 20.4174 471.189 20.342C470.51 20.2665 469.928 20.2019 469.507 20.1588C469.087 20.1156 468.85 20.094 468.85 20.094L461.561 22.3044Z" fill="#008056"/>
<path d="M522.072 26.3907C521.856 26.5417 521.759 26.725 521.813 26.9298C521.856 27.1347 522.05 27.3611 522.417 27.5983C522.773 27.8463 523.312 28.1159 524.034 28.407C524.757 28.6981 525.684 29.0108 526.816 29.3559C527.366 29.5176 528.315 29.7224 529.425 29.9488C530.547 30.1753 531.83 30.4125 533.037 30.6281C534.256 30.8438 535.41 31.0379 536.251 31.1888C537.102 31.329 537.642 31.4152 537.642 31.4152L548.974 29.744C548.974 29.744 548.769 29.6577 548.435 29.5283C548.1 29.3989 547.615 29.2048 547.065 29C546.515 28.7951 545.879 28.5687 545.232 28.3423C544.585 28.1266 543.928 27.911 543.313 27.7277C542.504 27.4905 541.34 27.1886 539.927 26.8867C538.515 26.5848 536.876 26.272 535.108 26.024C533.35 25.776 531.463 25.5928 529.587 25.5281C527.711 25.4742 525.824 25.5389 524.045 25.7976C523.818 25.83 523.603 25.8731 523.398 25.9054C523.193 25.9486 523.01 25.9917 522.848 26.0456C522.676 26.0995 522.535 26.1535 522.395 26.2074C522.277 26.2613 522.169 26.326 522.072 26.3907Z" fill="#008056"/>
<path d="M540.736 32.3212C540.736 32.3212 540.887 32.375 541.146 32.4721C541.404 32.5691 541.771 32.7094 542.213 32.8711C542.655 33.0329 543.183 33.2162 543.744 33.3995C544.305 33.5828 544.909 33.7767 545.512 33.96C546.105 34.1326 546.86 34.2727 547.712 34.3806C548.564 34.4884 549.502 34.5531 550.462 34.5855C551.421 34.6178 552.413 34.607 553.34 34.5639C554.279 34.5208 555.163 34.4453 555.928 34.3267C556.241 34.2836 556.521 34.2297 556.769 34.1758C557.017 34.1218 557.233 34.0679 557.416 34.014C557.599 33.9601 557.761 33.8954 557.891 33.8414C558.02 33.7767 558.117 33.7229 558.193 33.6582C558.322 33.5504 558.365 33.4425 558.354 33.3347C558.343 33.2269 558.268 33.1083 558.128 33.0005C557.998 32.8819 557.804 32.774 557.567 32.6554C557.33 32.5368 557.039 32.4182 556.715 32.2996C556.424 32.1918 556.112 32.0839 555.756 31.9653C555.4 31.8467 555.012 31.7173 554.591 31.588C554.171 31.4586 553.718 31.3076 553.222 31.1674C552.726 31.0165 552.198 30.8656 551.637 30.7039L540.736 32.3212Z" fill="#008056"/>
<path d="M484.376 24.7626C483.902 25.0753 483.902 25.4095 484.236 25.7545C484.57 26.0996 485.217 26.4339 486.037 26.7681C486.846 27.0916 487.827 27.4043 488.786 27.6738C489.746 27.9434 490.706 28.1806 491.471 28.3423C492.172 28.4933 493.045 28.6659 493.94 28.8276C494.835 28.9894 495.773 29.1618 496.625 29.302C497.477 29.4422 498.232 29.5715 498.782 29.6578C499.332 29.744 499.666 29.7979 499.666 29.7979L509.435 27.7386C509.435 27.7386 509.133 27.6199 508.648 27.4259C508.152 27.2318 507.472 26.9729 506.718 26.6926C505.963 26.4123 505.122 26.1212 504.324 25.8625C503.515 25.6037 502.75 25.3772 502.103 25.2478C500.227 24.8488 498.469 24.5362 496.852 24.3097C495.234 24.0833 493.757 23.9431 492.431 23.8676C491.105 23.7921 489.919 23.7814 488.905 23.8246C487.891 23.8677 487.029 23.9648 486.36 24.1049C486.112 24.1588 485.897 24.2019 485.692 24.2558C485.487 24.3097 485.304 24.3636 485.142 24.4175C484.98 24.4714 484.84 24.5254 484.711 24.5901C484.581 24.644 484.473 24.7087 484.376 24.7626Z" fill="#008056"/>
<path d="M503.547 30.4986C504.194 30.6387 504.809 30.7681 505.391 30.8975C505.984 31.0269 506.545 31.1348 507.073 31.2426C507.602 31.3505 508.108 31.4474 508.594 31.5444C509.068 31.6307 509.521 31.7171 509.952 31.7925C510.718 31.9219 511.505 32.0405 512.303 32.1267C513.101 32.213 513.909 32.2669 514.707 32.2885C515.505 32.3101 516.303 32.2884 517.079 32.2345C517.856 32.1806 518.61 32.0729 519.322 31.9219C519.538 31.8788 519.732 31.8249 519.904 31.7817C520.088 31.7278 520.249 31.6739 520.4 31.62C520.551 31.5661 520.681 31.5013 520.799 31.4474C520.918 31.3827 521.015 31.3288 521.101 31.2641C521.274 31.1347 521.381 30.9945 521.403 30.8651C521.425 30.7358 521.381 30.5956 521.241 30.4554C521.112 30.326 520.896 30.1966 520.605 30.0673C520.314 29.9486 519.926 29.8301 519.462 29.7331C518.761 29.5821 518.007 29.4311 517.263 29.291C516.519 29.1508 515.796 29.0106 515.149 28.9028C514.513 28.7842 513.963 28.6979 513.564 28.6224C513.176 28.5578 512.939 28.5146 512.939 28.5146L503.547 30.4986Z" fill="#008056"/>
<path d="M562.646 38.5207C562.462 38.6824 562.344 38.8549 562.312 39.049C562.268 39.2431 562.311 39.4587 562.43 39.7067C562.549 39.9439 562.764 40.2027 563.077 40.483C563.39 40.7633 563.799 41.0652 564.317 41.3995C564.64 41.6043 565.32 41.8955 566.161 42.2082C566.991 42.5208 567.983 42.8659 568.943 43.1894C569.902 43.5129 570.819 43.804 571.487 44.0089C572.167 44.2245 572.609 44.3538 572.609 44.3538L586.917 43.5344C586.917 43.5344 586.831 43.4373 586.669 43.2756C586.507 43.1139 586.281 42.8875 586.011 42.6287C585.731 42.3699 585.418 42.0896 585.062 41.8092C584.717 41.5289 584.34 41.2593 583.952 41.0329C583.445 40.731 582.669 40.3212 581.634 39.9007C580.609 39.4802 579.337 39.0274 577.849 38.6392C576.372 38.2511 574.679 37.906 572.803 37.7012C570.927 37.4963 568.867 37.41 566.635 37.5394C566.172 37.561 565.74 37.6041 565.331 37.658C564.921 37.7119 564.543 37.7766 564.198 37.8628C563.853 37.9491 563.551 38.0354 563.293 38.154C563.023 38.2618 562.808 38.3805 562.646 38.5207Z" fill="#008056"/>
<path d="M574.453 45.5394C574.453 45.5394 574.517 45.6148 574.647 45.7334C574.776 45.852 574.959 46.0245 575.186 46.2186C575.412 46.4234 575.693 46.65 576.005 46.8872C576.318 47.1244 576.663 47.3723 577.03 47.5987C577.396 47.8252 577.989 48.0301 578.722 48.2134C579.466 48.3859 580.351 48.5368 581.31 48.6446C582.281 48.7524 583.316 48.828 584.362 48.8603C585.408 48.8927 586.453 48.8819 587.435 48.8279C588.039 48.7956 588.567 48.7417 589.041 48.6878C589.505 48.6339 589.904 48.5584 590.238 48.483C590.572 48.4075 590.853 48.3212 591.068 48.2242C591.284 48.1272 591.446 48.0301 591.554 47.9223C591.64 47.836 591.694 47.7605 591.715 47.6635C591.737 47.5772 591.737 47.4802 591.715 47.3939C591.694 47.2969 591.64 47.1998 591.564 47.1028C591.489 47.0057 591.403 46.9087 591.284 46.8009C591.133 46.6715 590.95 46.5313 590.756 46.3695C590.551 46.2186 590.335 46.0569 590.087 45.8844C589.839 45.7119 589.57 45.5285 589.268 45.3345C588.966 45.1404 588.642 44.9356 588.297 44.7307L574.453 45.5394Z" fill="#008056"/>
<path d="M526.169 34.0031C525.781 34.2943 525.684 34.6177 525.77 34.952C525.856 35.2863 526.137 35.6314 526.525 35.9548C526.913 36.2891 527.409 36.6018 527.926 36.8929C528.444 37.184 528.983 37.4319 529.447 37.6368C529.932 37.8417 530.568 38.0789 531.237 38.3161C531.916 38.5533 532.627 38.7906 533.285 39.0062C533.943 39.2218 534.547 39.4051 534.978 39.5345C535.409 39.6639 535.679 39.7501 535.679 39.7501L548.639 38.4131C548.639 38.4131 548.51 38.2622 548.284 38.025C548.057 37.7878 547.744 37.4751 547.378 37.1301C547.011 36.785 546.58 36.4185 546.127 36.095C545.685 35.7715 545.211 35.4804 544.758 35.2971C543.41 34.7472 542.051 34.2944 540.725 33.9493C539.399 33.6043 538.083 33.3454 536.833 33.1621C535.582 32.9896 534.385 32.8926 533.285 32.8603C532.185 32.8279 531.161 32.8602 530.277 32.9573C529.716 33.0112 529.209 33.0758 528.767 33.1513C528.325 33.2268 527.937 33.3131 527.592 33.3994C527.258 33.4857 526.967 33.5826 526.73 33.6904C526.514 33.7767 526.32 33.8845 526.169 34.0031Z" fill="#008056"/>
<path d="M538.676 40.742C539.129 40.9361 539.561 41.1194 539.981 41.2919C540.402 41.4645 540.811 41.6261 541.2 41.7771C541.588 41.9281 541.965 42.0682 542.332 42.1976C542.698 42.327 543.043 42.4457 543.367 42.5643C543.96 42.7584 544.607 42.9417 545.308 43.0927C546.008 43.2436 546.752 43.3622 547.55 43.4484C548.348 43.5347 549.189 43.5778 550.073 43.5778C550.958 43.5778 551.885 43.5347 552.844 43.4268C553.33 43.3729 553.793 43.3083 554.203 43.2328C554.624 43.1574 555.001 43.071 555.335 42.9847C555.669 42.8877 555.961 42.7907 556.198 42.6829C556.435 42.5751 556.629 42.4672 556.759 42.3486C556.866 42.2516 556.942 42.1653 556.974 42.0682C557.007 41.9712 557.007 41.8741 556.963 41.7771C556.92 41.6801 556.834 41.5831 556.705 41.4861C556.575 41.389 556.403 41.292 556.176 41.2057C555.68 41.0009 555.12 40.7851 554.559 40.5803C553.998 40.3754 553.448 40.1813 552.952 40.0196C552.456 39.8578 552.025 39.7178 551.723 39.61C551.421 39.5129 551.227 39.459 551.227 39.459L538.676 40.742Z" fill="#008056"/>
<path d="M587.704 55.7299C587.618 55.8162 587.531 55.9132 587.445 56.0103C587.37 56.1073 587.294 56.2044 587.219 56.3122C587.154 56.42 587.089 56.5278 587.035 56.6356C586.981 56.7434 586.928 56.8621 586.884 56.9807C586.798 57.2179 586.917 57.5737 587.122 57.9726C587.337 58.3716 587.65 58.8137 587.984 59.2234C588.319 59.6331 588.653 60.0213 588.912 60.3017C589.17 60.582 589.354 60.7654 589.354 60.7654L605.754 61.6279C605.754 61.6279 605.775 61.6064 605.818 61.574C605.861 61.5309 605.915 61.477 605.98 61.4123C606.045 61.3476 606.131 61.2613 606.228 61.1643C606.314 61.0673 606.422 60.9594 606.519 60.8516C606.649 60.7006 606.789 60.5496 606.929 60.3771C607.069 60.2153 607.199 60.0429 607.328 59.8703C607.446 59.6978 607.565 59.5253 607.651 59.3528C607.738 59.1803 607.813 59.0186 607.856 58.8784C607.953 58.5226 607.975 58.0482 607.781 57.5198C607.587 56.9915 607.188 56.42 606.455 55.8701C605.721 55.3202 604.665 54.8134 603.144 54.3929C601.635 53.9832 599.672 53.6812 597.117 53.5519C596.19 53.5087 595.252 53.5087 594.335 53.5627C593.419 53.6166 592.524 53.7245 591.693 53.897C590.863 54.0695 590.087 54.3066 589.408 54.6085C588.728 54.8996 588.146 55.2771 587.704 55.7299Z" fill="#008056"/>
<path d="M588.891 62.1025C588.891 62.1025 588.815 62.178 588.707 62.3073C588.589 62.4367 588.438 62.62 588.265 62.8357C588.093 63.0513 587.92 63.2994 587.758 63.5689C587.597 63.8277 587.457 64.108 587.37 64.3668C587.273 64.6256 587.457 64.8951 587.855 65.1431C588.254 65.4019 588.858 65.6391 589.624 65.8548C590.389 66.0704 591.306 66.2645 592.309 66.4155C593.311 66.5665 594.411 66.685 595.533 66.7389C596.719 66.8036 597.754 66.8144 598.659 66.7713C599.565 66.7281 600.342 66.6419 600.988 66.5125C601.646 66.3831 602.175 66.2214 602.595 66.0166C603.016 65.8225 603.339 65.596 603.555 65.3481C603.565 65.3373 603.565 65.3265 603.576 65.3265C603.587 65.3157 603.587 65.3049 603.598 65.3049C603.609 65.2941 603.609 65.2833 603.619 65.2833C603.63 65.2725 603.63 65.2617 603.641 65.2617C603.759 65.1215 603.867 64.9599 603.975 64.7981C604.083 64.6256 604.18 64.4531 604.277 64.259C604.374 64.0649 604.46 63.86 604.547 63.6336C604.633 63.4179 604.708 63.1807 604.773 62.9327L588.891 62.1025Z" fill="#008056"/>
<path d="M553.912 47.0281C553.664 47.2437 553.47 47.4595 553.33 47.6859C553.189 47.9016 553.082 48.1172 553.017 48.3328C552.952 48.5377 552.931 48.7425 552.92 48.9258C552.92 49.1091 552.941 49.2817 552.984 49.4219C553.049 49.6699 553.211 49.9717 553.405 50.2628C553.599 50.5647 553.836 50.8667 554.063 51.1362C554.289 51.4058 554.505 51.6538 554.667 51.8263C554.828 51.9988 554.936 52.1067 554.936 52.1067L570.614 52.2576C570.614 52.2576 570.614 52.2576 570.624 52.2468C570.624 52.2468 570.635 52.236 570.646 52.2253C570.657 52.2145 570.668 52.2037 570.678 52.1929C570.689 52.1821 570.7 52.1713 570.722 52.1497C570.84 52.0311 571.067 51.8155 571.336 51.546C571.595 51.2764 571.897 50.9529 572.177 50.6187C572.458 50.2844 572.706 49.9393 572.867 49.6267C573.029 49.314 573.104 49.0336 573.029 48.8288C572.792 48.1495 572.328 47.578 571.703 47.1036C571.077 46.6292 570.279 46.2411 569.385 45.9284C568.49 45.6265 567.498 45.4 566.452 45.2599C565.417 45.1089 564.328 45.0333 563.26 45.0333C561.902 45.0226 560.715 45.0765 559.691 45.1735C558.656 45.2706 557.783 45.4215 557.028 45.6048C556.273 45.7881 555.659 46.0038 555.152 46.2518C554.634 46.489 554.224 46.7477 553.912 47.0281Z" fill="#008056"/>
<path d="M555.896 53.3899C555.96 53.6271 556.036 53.8427 556.111 54.0584C556.187 54.2633 556.273 54.4682 556.359 54.6515C556.446 54.8348 556.543 55.0073 556.64 55.1798C556.737 55.3415 556.845 55.4925 556.952 55.6327C557.136 55.8915 557.427 56.1286 557.815 56.3443C558.203 56.5599 558.71 56.7648 559.325 56.9266C559.95 57.0991 560.694 57.2285 561.567 57.3255C562.451 57.4225 563.465 57.4873 564.629 57.4981C565.524 57.5088 566.398 57.4764 567.228 57.4225C568.058 57.3686 568.835 57.2823 569.525 57.1637C570.215 57.0559 570.819 56.9157 571.304 56.754C571.789 56.5923 572.145 56.4198 572.339 56.2257C572.382 56.1933 572.414 56.1502 572.436 56.1071C572.468 56.064 572.479 56.0316 572.501 55.9885C572.511 55.9454 572.522 55.913 572.522 55.8699C572.522 55.8268 572.511 55.7837 572.501 55.7513C572.414 55.5033 572.274 55.2338 572.123 54.975C571.972 54.7162 571.8 54.4682 571.638 54.2633C571.476 54.0477 571.325 53.8644 571.218 53.735C571.11 53.6056 571.045 53.5301 571.045 53.5301L555.896 53.3899Z" fill="#008056"/>
<path d="M567.153 77.5639L581.461 80.5614C581.461 80.5614 581.817 80.4858 582.388 80.3457C582.96 80.2055 583.758 80.0222 584.631 79.7958C585.504 79.5801 586.475 79.3322 587.391 79.0734C588.308 78.8254 589.181 78.5666 589.871 78.3402C590.313 78.1892 590.82 78.0059 591.327 77.801C591.845 77.5962 592.373 77.359 592.88 77.111C593.386 76.863 593.872 76.5934 594.292 76.3131C594.713 76.0327 595.079 75.7417 595.338 75.4506C595.608 75.1486 595.78 74.8466 595.812 74.5447C595.845 74.2428 595.737 73.941 595.446 73.6498C595.155 73.3587 594.702 73.0783 594.023 72.8088C593.343 72.5392 592.448 72.2913 591.305 72.0649C590.313 71.86 589.138 71.7306 587.833 71.6659C586.529 71.612 585.084 71.6335 583.542 71.7521C582 71.8707 580.351 72.0972 578.625 72.4314C576.9 72.7765 575.099 73.2294 573.256 73.8332C572.63 74.0381 571.94 74.3723 571.25 74.7605C570.56 75.1486 569.881 75.5907 569.277 76.0005C568.673 76.421 568.134 76.809 567.757 77.1002C567.379 77.3697 567.153 77.5639 567.153 77.5639Z" fill="#008056"/>
<path d="M555.96 81.1121C555.745 81.3278 555.669 81.5649 555.745 81.8021C555.82 82.0393 556.025 82.2765 556.359 82.5137C556.694 82.751 557.157 82.9774 557.718 83.193C558.289 83.4087 558.958 83.6028 559.734 83.7645C560.78 83.991 561.804 84.1312 562.818 84.2174C563.831 84.3037 564.823 84.3252 565.772 84.2929C566.732 84.2605 567.659 84.1743 568.543 84.0449C569.428 83.9155 570.269 83.743 571.056 83.5381C571.487 83.4195 571.951 83.3008 572.436 83.1607C572.921 83.0205 573.428 82.8804 573.967 82.7187C574.506 82.5569 575.056 82.3844 575.638 82.2011C576.22 82.0178 576.824 81.8129 577.45 81.6081L563.659 78.7075C563.659 78.7075 563.422 78.7615 563.012 78.8693C562.613 78.9663 562.042 79.1173 561.395 79.2898C560.737 79.4623 560.004 79.6672 559.26 79.8721C558.516 80.0878 557.761 80.3142 557.071 80.5406C556.941 80.5837 556.812 80.6269 556.704 80.6808C556.586 80.7239 556.489 80.7778 556.392 80.821C556.295 80.8749 556.219 80.918 556.144 80.9719C556.079 81.0043 556.014 81.0582 555.96 81.1121Z" fill="#008056"/>
<path d="M553.945 65.7465L568.943 67.9029C568.943 67.9029 569.471 67.7843 570.28 67.5902C571.089 67.3961 572.188 67.1266 573.342 66.8355C574.496 66.5444 575.693 66.2208 576.728 65.9189C577.752 65.617 578.604 65.3366 579.046 65.1102C579.348 64.9592 579.617 64.8192 579.865 64.679C580.113 64.5388 580.34 64.3986 580.545 64.2585C580.75 64.1183 580.933 63.9889 581.095 63.8595C581.256 63.7301 581.397 63.6114 581.515 63.482C581.925 63.0723 582.097 62.695 582.087 62.3608C582.076 62.0265 581.882 61.7353 581.537 61.4657C581.192 61.207 580.696 60.9805 580.092 60.7972C579.488 60.6139 578.766 60.4631 577.968 60.3552C575.606 60.0318 573.353 59.9563 571.25 60.0533C569.148 60.1504 567.207 60.4091 565.471 60.7434C563.735 61.0884 562.204 61.4981 560.953 61.9186C559.692 62.3284 558.7 62.7382 558.053 63.0508C557.557 63.2881 557.05 63.5684 556.575 63.8703C556.101 64.1614 555.648 64.4741 555.26 64.7436C554.872 65.024 554.548 65.272 554.322 65.4445C554.074 65.6386 553.945 65.7465 553.945 65.7465Z" fill="#008056"/>
<path d="M547.701 69.4987C547.453 69.7251 547.324 69.9516 547.313 70.1672C547.302 70.3829 547.432 70.5985 547.701 70.8033C547.982 71.0082 548.413 71.2023 549.017 71.3748C549.621 71.5581 550.408 71.7198 551.4 71.8708C552.413 72.0217 553.524 72.1188 554.656 72.1727C555.777 72.2266 556.92 72.2266 557.988 72.1835C559.055 72.1404 560.058 72.0433 560.91 71.9032C561.762 71.763 562.463 71.5689 562.937 71.3317C563.422 71.0944 563.886 70.8357 564.306 70.5769C564.727 70.3289 565.115 70.0809 565.438 69.8653C565.762 69.6496 566.032 69.4663 566.215 69.3369C566.398 69.2076 566.495 69.132 566.495 69.132L552.025 67.0403C551.572 67.2559 551.152 67.4715 550.764 67.6656C550.375 67.8597 550.02 68.0538 549.696 68.2371C549.373 68.4204 549.082 68.5821 548.812 68.7439C548.542 68.9056 548.316 69.0566 548.111 69.1968C548.068 69.2183 548.036 69.2506 547.993 69.2722C547.96 69.2937 547.917 69.3262 547.885 69.3477C547.852 69.3693 547.82 69.4016 547.788 69.4232C547.755 69.4447 547.723 69.4664 547.701 69.4987Z" fill="#008056"/>
<path d="M503.224 87.0309L508.755 91.6242C508.755 91.6242 509.262 91.6134 510.114 91.5918C510.955 91.5703 512.13 91.5378 513.457 91.5055C514.783 91.4623 516.249 91.4193 517.694 91.3546C519.128 91.2899 520.541 91.2252 521.727 91.1497C522.967 91.0634 524.541 90.9341 526.223 90.7616C527.905 90.589 529.706 90.3626 531.409 90.0931C533.113 89.8235 534.719 89.5 536.024 89.1334C537.329 88.7668 538.332 88.3462 538.817 87.8718C538.946 87.7532 539.032 87.6239 539.097 87.5052C539.151 87.3759 539.173 87.2465 539.151 87.1171C539.129 86.9877 539.065 86.8475 538.968 86.7074C538.86 86.5672 538.709 86.427 538.515 86.276C538.094 85.9633 537.361 85.6723 536.315 85.4243C535.269 85.1763 533.889 84.9714 532.186 84.842C530.482 84.7019 528.433 84.6371 526.029 84.6479C523.624 84.6587 520.875 84.7665 517.737 84.9714C516.68 85.0469 515.246 85.2087 513.694 85.4135C512.141 85.6184 510.459 85.8771 508.906 86.1143C507.354 86.3515 505.93 86.5888 504.906 86.7613C503.871 86.9231 503.224 87.0309 503.224 87.0309Z" fill="#008056"/>
<path d="M482.08 89.2838C481.929 89.4024 481.81 89.5318 481.735 89.6612C481.648 89.7906 481.605 89.92 481.594 90.0494C481.584 90.1787 481.616 90.3189 481.681 90.4483C481.745 90.5777 481.853 90.7179 481.993 90.8472C482.36 91.1815 482.91 91.4619 483.578 91.6775C484.258 91.9039 485.066 92.0656 485.983 92.1842C486.899 92.3029 487.913 92.3784 488.991 92.4108C490.069 92.4431 491.212 92.4323 492.388 92.3892C493.035 92.3676 493.735 92.3353 494.49 92.303C495.245 92.2706 496.043 92.2274 496.905 92.1842C497.757 92.1411 498.674 92.0873 499.633 92.0226C500.593 91.9687 501.607 91.904 502.663 91.8285L497.434 87.4077C497.434 87.4077 497.078 87.4185 496.485 87.4401C495.892 87.4617 495.051 87.494 494.059 87.5263C493.078 87.5694 491.956 87.6126 490.792 87.6665C489.627 87.7204 488.441 87.7959 487.309 87.8606C486.662 87.9038 486.069 87.9684 485.519 88.0546C484.969 88.1409 484.473 88.2488 484.031 88.3674C483.589 88.486 483.201 88.6261 482.867 88.7771C482.565 88.9496 482.295 89.1113 482.08 89.2838Z" fill="#008056"/>
<path d="M523.398 76.5716L531.754 80.5934C531.754 80.5934 532.531 80.5719 533.749 80.5396C534.967 80.4964 536.639 80.4425 538.439 80.3778C540.229 80.3131 542.138 80.2269 543.841 80.1298C545.545 80.0328 547.033 79.9249 547.993 79.8063C549.793 79.5907 551.368 79.3642 552.715 79.127C554.063 78.9006 555.195 78.6635 556.133 78.4263C557.071 78.189 557.805 77.9626 558.365 77.7254C558.926 77.4989 559.314 77.2617 559.53 77.0461C559.659 76.9167 559.735 76.798 559.767 76.6794C559.799 76.5608 559.778 76.4422 559.713 76.3236C559.648 76.205 559.541 76.0972 559.4 75.9894C559.249 75.8816 559.066 75.7737 558.84 75.6767C557.438 75.0513 555.508 74.6523 553.319 74.4151C551.13 74.1779 548.672 74.1132 546.224 74.1347C543.777 74.1563 541.318 74.2857 539.14 74.4475C536.962 74.6092 535.054 74.8033 533.684 74.965C532.638 75.0944 531.474 75.2562 530.309 75.4287C529.145 75.6012 527.991 75.7953 526.967 75.957C525.943 76.1296 525.048 76.2806 524.411 76.3992C523.775 76.507 523.398 76.5716 523.398 76.5716Z" fill="#008056"/>
<path d="M505.564 79.7854C505.445 79.8932 505.359 80.0011 505.316 80.1089C505.273 80.2167 505.284 80.3353 505.337 80.4539C505.391 80.5725 505.499 80.6912 505.65 80.8206C505.801 80.95 506.017 81.0793 506.276 81.2087C506.825 81.4783 507.569 81.7262 508.454 81.9419C509.338 82.1575 510.341 82.3301 511.419 82.4487C512.486 82.5673 513.618 82.6428 514.74 82.6643C515.861 82.6751 516.961 82.632 517.975 82.5026C518.988 82.3732 520.034 82.233 521.026 82.0928C522.018 81.9527 522.967 81.8125 523.775 81.6831C524.595 81.5537 525.285 81.446 525.77 81.3597C526.255 81.2842 526.536 81.2303 526.536 81.2303L518.524 77.3379C517.586 77.4457 516.702 77.5535 515.872 77.6613C515.042 77.7691 514.265 77.8662 513.532 77.9632C512.81 78.0603 512.13 78.1573 511.505 78.2436C510.88 78.3298 510.308 78.4269 509.78 78.5023C509.262 78.5886 508.777 78.6749 508.335 78.7719C507.893 78.8689 507.483 78.966 507.127 79.0738C506.772 79.1817 506.448 79.2894 506.189 79.408C505.931 79.5374 505.715 79.656 505.564 79.7854Z" fill="#008056"/>
<path d="M425.871 87.5273L424.912 92.2176C424.912 92.2176 425.408 92.2501 426.227 92.304C427.047 92.3579 428.19 92.4225 429.483 92.4872C430.777 92.5519 432.233 92.6274 433.667 92.6921C435.101 92.7568 436.524 92.8 437.764 92.8215C439.231 92.8431 441.161 92.8539 443.285 92.8107C445.409 92.7676 447.727 92.6813 449.948 92.5196C452.17 92.3579 454.304 92.1206 456.051 91.7971C457.798 91.4629 459.178 91.0316 459.901 90.4709C459.987 90.4062 460.052 90.3416 460.116 90.2769C460.181 90.2122 460.235 90.1367 460.278 90.072C460.321 90.0073 460.364 89.9318 460.386 89.8564C460.407 89.7809 460.429 89.7053 460.44 89.6298C460.472 89.3064 460.17 88.9722 459.491 88.6487C458.822 88.3361 457.776 88.0341 456.332 87.7645C454.887 87.4949 453.021 87.2685 450.714 87.096C448.407 86.9235 445.646 86.7941 442.39 86.7402C441.279 86.7187 439.705 86.7618 437.948 86.8264C436.19 86.8911 434.271 86.999 432.481 87.096C430.691 87.193 429.041 87.3009 427.834 87.3764C426.626 87.4734 425.871 87.5273 425.871 87.5273Z" fill="#008056"/>
<path d="M401.589 88.6277C401.502 88.6816 401.427 88.7464 401.352 88.8003C401.276 88.865 401.222 88.9188 401.168 88.9835C401.114 89.0482 401.071 89.1022 401.028 89.1668C400.996 89.2315 400.963 89.2962 400.942 89.3501C400.845 89.6951 400.985 89.9863 401.319 90.2451C401.653 90.5039 402.182 90.7195 402.872 90.9028C403.562 91.0861 404.403 91.2371 405.363 91.3557C406.322 91.4743 407.4 91.5606 408.554 91.6145C409.19 91.6468 409.88 91.6791 410.624 91.7007C411.368 91.733 412.177 91.7545 413.04 91.7869C413.902 91.8085 414.819 91.8409 415.8 91.8624C416.781 91.884 417.816 91.9055 418.905 91.9271L419.93 87.4201C419.93 87.4201 419.585 87.3985 419.002 87.3769C418.42 87.3446 417.59 87.3123 416.609 87.2691C415.638 87.226 414.517 87.1829 413.363 87.1397C412.199 87.0966 411.002 87.0643 409.848 87.0535C408.942 87.0428 408.058 87.0751 407.217 87.1505C406.376 87.226 405.589 87.3338 404.867 87.4739C404.144 87.6141 403.497 87.7867 402.937 87.9808C402.397 88.1857 401.934 88.4013 401.589 88.6277Z" fill="#008056"/>
<path d="M459.167 79.3647L461.701 83.8071C461.701 83.8071 462.477 83.8502 463.696 83.9149C464.925 83.9796 466.607 84.055 468.429 84.1305C470.252 84.2059 472.214 84.2815 473.982 84.3246C475.761 84.3677 477.357 84.3893 478.435 84.357C480.958 84.2815 483.158 84.1628 485.045 84.0227C486.932 83.8825 488.517 83.6992 489.832 83.5051C491.137 83.3111 492.172 83.0954 492.949 82.8582C493.725 82.6318 494.242 82.3837 494.544 82.1358C494.631 82.0711 494.695 81.9956 494.738 81.931C494.792 81.8663 494.814 81.7907 494.835 81.726C494.846 81.6613 494.846 81.5859 494.835 81.5212C494.814 81.4565 494.792 81.381 494.738 81.3163C494.253 80.6154 492.916 80.0763 491.105 79.6881C489.293 79.3 486.997 79.0304 484.581 78.8687C482.166 78.7069 479.611 78.6314 477.271 78.6099C474.942 78.5883 472.829 78.6207 471.287 78.6638C470.122 78.6962 468.774 78.7608 467.427 78.8363C466.068 78.9118 464.699 78.9981 463.48 79.0736C462.262 79.1491 461.184 79.2245 460.407 79.2892C459.642 79.3323 459.167 79.3647 459.167 79.3647Z" fill="#008056"/>
<path d="M436.944 81.4028C436.847 81.4675 436.772 81.543 436.707 81.6185C436.642 81.694 436.599 81.7694 436.567 81.8449C436.535 81.9204 436.524 82.0066 436.535 82.0929C436.545 82.1791 436.567 82.2654 436.621 82.3624C436.761 82.6536 437.128 82.9447 437.678 83.2143C438.228 83.4839 438.95 83.7211 439.791 83.9152C440.643 84.1093 441.613 84.2709 442.648 84.368C443.683 84.465 444.794 84.5082 445.926 84.4759C447.058 84.4435 448.255 84.3896 449.398 84.3357C450.541 84.2818 451.641 84.2279 452.59 84.1739C453.539 84.12 454.358 84.0661 454.929 84.0338C455.501 84.0014 455.835 83.969 455.835 83.969L453.495 79.6992C452.449 79.7316 451.457 79.7639 450.519 79.7962C449.581 79.8286 448.697 79.861 447.878 79.9042C447.048 79.9365 446.282 79.9796 445.57 80.012C444.859 80.0443 444.19 80.0874 443.586 80.1305C442.799 80.1737 442.044 80.2384 441.354 80.3139C440.664 80.3894 440.017 80.4756 439.446 80.5834C438.874 80.6913 438.368 80.8098 437.947 80.9392C437.516 81.0902 437.182 81.2411 436.944 81.4028Z" fill="#008056"/>
<path d="M351.925 87.0315L349.823 91.6678C349.823 91.6678 350.297 91.7002 351.084 91.7434C351.871 91.7865 352.982 91.8511 354.233 91.9266C355.494 91.9913 356.896 92.0668 358.298 92.1207C359.699 92.1746 361.08 92.2286 362.287 92.2501C363.71 92.2717 365.597 92.2825 367.689 92.2393C369.781 92.1962 372.067 92.1099 374.288 91.9482C376.509 91.7864 378.655 91.5601 380.456 91.2258C382.256 90.9024 383.712 90.471 384.553 89.9211C384.65 89.8564 384.736 89.7918 384.822 89.7271C384.898 89.6624 384.973 89.5976 385.038 89.5221C385.103 89.4574 385.157 89.382 385.2 89.3065C385.243 89.2311 385.275 89.1555 385.308 89.08C385.415 88.7565 385.2 88.4224 384.618 88.1205C384.035 87.8078 383.086 87.5166 381.728 87.2471C380.369 86.9883 378.601 86.7619 376.38 86.5786C374.159 86.406 371.474 86.2767 368.282 86.2336C367.215 86.212 365.651 86.2551 363.915 86.3306C362.179 86.4061 360.271 86.5031 358.503 86.6001C356.723 86.6972 355.085 86.805 353.888 86.8805C352.68 86.9775 351.925 87.0315 351.925 87.0315Z" fill="#008056"/>
<path d="M327.816 88.1204C327.719 88.1743 327.622 88.2389 327.535 88.2928C327.449 88.3575 327.374 88.4115 327.309 88.4762C327.244 88.5409 327.18 88.5948 327.126 88.6595C327.072 88.7242 327.029 88.7888 326.996 88.8427C326.813 89.177 326.878 89.479 327.147 89.727C327.417 89.9857 327.881 90.2014 328.517 90.3847C329.153 90.568 329.94 90.7082 330.856 90.8268C331.773 90.9454 332.808 91.0209 333.919 91.0748C334.533 91.1071 335.202 91.1394 335.935 91.161C336.657 91.1933 337.445 91.2148 338.286 91.2472C339.127 91.2688 340.022 91.3012 340.97 91.3227C341.919 91.3443 342.933 91.3658 344 91.3874L346.081 86.9342C346.081 86.9342 345.747 86.9128 345.186 86.8912C344.626 86.8696 343.817 86.8265 342.868 86.7834C341.93 86.7403 340.841 86.697 339.72 86.6647C338.598 86.6215 337.423 86.6 336.312 86.5785C335.428 86.5677 334.555 86.6 333.714 86.6647C332.873 86.7402 332.075 86.848 331.331 86.9882C330.587 87.1284 329.908 87.3009 329.315 87.4949C328.722 87.6782 328.215 87.894 327.816 88.1204Z" fill="#008056"/>
<path d="M386.548 78.9443L387.96 83.3219C387.96 83.3219 388.704 83.365 389.89 83.4189C391.076 83.4728 392.705 83.5591 394.473 83.6346C396.241 83.7101 398.139 83.7748 399.875 83.818C401.6 83.8611 403.164 83.8718 404.231 83.8394C406.722 83.7639 408.9 83.6454 410.797 83.5052C412.684 83.3651 414.28 83.1818 415.617 82.9877C416.943 82.7936 418.011 82.5779 418.82 82.3514C419.639 82.125 420.211 81.8879 420.566 81.6399C420.663 81.5752 420.75 81.4997 420.814 81.435C420.879 81.3703 420.933 81.2949 420.965 81.2302C420.998 81.1655 421.019 81.0899 421.019 81.0252C421.019 80.9605 421.008 80.8851 420.976 80.8204C420.663 80.1196 419.488 79.602 417.806 79.2139C416.124 78.8257 413.946 78.5669 411.606 78.4052C409.277 78.2434 406.786 78.168 404.501 78.1464C402.215 78.1248 400.134 78.1571 398.613 78.211C397.46 78.2434 396.123 78.3081 394.786 78.3836C393.438 78.4591 392.079 78.5453 390.861 78.6208C389.642 78.6963 388.564 78.7825 387.799 78.8364C387.011 78.9118 386.548 78.9443 386.548 78.9443Z" fill="#008056"/>
<path d="M364.228 80.9707C364.12 81.0354 364.023 81.1108 363.937 81.1755C363.861 81.251 363.797 81.3264 363.743 81.4019C363.7 81.4774 363.667 81.5637 363.646 81.65C363.635 81.7362 363.635 81.8225 363.657 81.9088C363.721 82.1999 364.023 82.4909 364.487 82.7497C364.961 83.0085 365.608 83.2457 366.395 83.4506C367.182 83.6447 368.088 83.8064 369.091 83.9035C370.083 84.0005 371.161 84.0436 372.282 84.0005C373.404 83.9681 374.59 83.9142 375.722 83.8603C376.854 83.8064 377.943 83.7525 378.892 83.6985C379.841 83.6446 380.65 83.5907 381.221 83.5584C381.793 83.526 382.127 83.5045 382.127 83.5045L380.865 79.2886C379.83 79.3209 378.849 79.3532 377.922 79.3856C376.994 79.4179 376.121 79.4504 375.302 79.4935C374.482 79.5259 373.717 79.569 373.005 79.6013C372.293 79.6337 371.636 79.6768 371.032 79.7199C370.245 79.763 369.501 79.8278 368.8 79.9032C368.099 79.9787 367.452 80.065 366.87 80.1728C366.287 80.2806 365.759 80.3992 365.317 80.5286C364.875 80.658 364.508 80.809 364.228 80.9707Z" fill="#008056"/>
<path d="M282.907 92.4977L286.8 96.9832C286.8 96.9832 287.296 96.9616 288.126 96.9077C288.956 96.8645 290.099 96.7999 291.393 96.7137C292.687 96.6382 294.132 96.5411 295.555 96.4333C296.967 96.3255 298.358 96.2176 299.534 96.099C300.698 95.9804 302.164 95.8187 303.76 95.603C305.345 95.3874 307.06 95.1394 308.72 94.8375C310.381 94.5356 311.987 94.2013 313.378 93.8239C314.769 93.4465 315.934 93.0368 316.71 92.5839C316.969 92.433 317.174 92.2929 317.346 92.1311C317.508 91.9802 317.626 91.8184 317.691 91.6566C317.756 91.4949 317.767 91.3332 317.724 91.1715C317.68 91.0098 317.573 90.8373 317.4 90.6647C317.098 90.3628 316.484 90.0825 315.545 89.8669C314.607 89.6512 313.346 89.4786 311.728 89.3924C310.122 89.3061 308.16 89.2953 305.831 89.3708C303.502 89.457 300.795 89.6404 297.679 89.9423C296.633 90.0501 295.188 90.255 293.614 90.5138C292.04 90.7726 290.325 91.0745 288.74 91.3656C287.155 91.6568 285.7 91.9371 284.632 92.1419C283.576 92.3684 282.907 92.4977 282.907 92.4977Z" fill="#008056"/>
<path d="M262.011 95.1283C261.73 95.2793 261.493 95.4301 261.31 95.5811C261.116 95.7428 260.976 95.8939 260.879 96.0556C260.782 96.2173 260.738 96.379 260.738 96.5408C260.738 96.7025 260.803 96.8535 260.911 97.0045C261.17 97.3387 261.612 97.5975 262.205 97.8023C262.798 98.0072 263.542 98.1473 264.394 98.2443C265.245 98.3414 266.216 98.3845 267.273 98.3845C268.318 98.3845 269.451 98.3414 270.615 98.2659C271.262 98.2228 271.952 98.1796 272.696 98.1149C273.44 98.061 274.238 97.9964 275.09 97.9209C275.942 97.8455 276.837 97.77 277.796 97.6837C278.756 97.5975 279.759 97.5004 280.826 97.3926L277.138 93.0688C277.138 93.0688 276.793 93.0903 276.211 93.1227C275.629 93.155 274.788 93.2197 273.817 93.2844C272.847 93.3491 271.736 93.4354 270.583 93.5324C269.429 93.6295 268.243 93.7265 267.122 93.8344C266.572 93.8883 266.043 93.9638 265.547 94.0501C265.051 94.1363 264.588 94.2333 264.156 94.3519C263.725 94.4597 263.326 94.5892 262.97 94.7186C262.604 94.848 262.28 94.9882 262.011 95.1283Z" fill="#008056"/>
<path d="M305.884 81.3269L312.709 85.1439C312.709 85.1439 313.464 85.1008 314.661 85.0253C315.858 84.9499 317.486 84.842 319.244 84.7234C320.99 84.6048 322.866 84.4646 324.538 84.3137C326.209 84.1627 327.686 84.0225 328.646 83.8715C330.274 83.6236 331.73 83.3756 333.002 83.1276C334.274 82.8796 335.385 82.6424 336.334 82.4052C337.283 82.1679 338.07 81.9307 338.717 81.7043C339.364 81.4778 339.86 81.2514 340.237 81.0358C340.506 80.874 340.711 80.7232 340.852 80.5722C340.992 80.4212 341.056 80.281 341.067 80.1409C341.078 80.0007 341.024 79.8713 340.916 79.7419C340.808 79.6125 340.647 79.4939 340.431 79.386C339.288 78.793 337.552 78.4481 335.514 78.2755C333.476 78.103 331.137 78.1029 328.764 78.1892C326.392 78.2862 323.988 78.4803 321.831 78.7067C319.675 78.9332 317.766 79.1812 316.397 79.386C315.351 79.537 314.176 79.7419 313.001 79.9467C311.825 80.1516 310.639 80.3781 309.593 80.583C308.537 80.7879 307.62 80.9711 306.962 81.1005C306.283 81.2407 305.884 81.3269 305.884 81.3269Z" fill="#008056"/>
<path d="M287.856 84.8957C287.63 85.0143 287.446 85.1436 287.317 85.273C287.187 85.4024 287.112 85.5318 287.101 85.672C287.09 85.8014 287.134 85.9415 287.241 86.0817C287.349 86.2219 287.522 86.3621 287.77 86.513C288.212 86.7718 288.859 87.0089 289.646 87.1922C290.433 87.3755 291.36 87.5265 292.363 87.6235C293.366 87.7206 294.433 87.7637 295.511 87.7421C296.59 87.7205 297.668 87.6451 298.692 87.4833C299.717 87.3324 300.784 87.1491 301.798 86.9766C302.811 86.8041 303.771 86.6316 304.612 86.4807C305.442 86.3297 306.154 86.1896 306.65 86.1033C307.146 86.0063 307.437 85.9523 307.437 85.9523L300.913 82.2539C299.965 82.3941 299.07 82.5343 298.229 82.6636C297.388 82.793 296.601 82.9224 295.867 83.041C295.134 83.1596 294.444 83.2783 293.819 83.3861C293.183 83.4939 292.6 83.6017 292.072 83.6987C291.608 83.785 291.166 83.882 290.746 83.9683C290.325 84.0653 289.937 84.1624 289.581 84.2594C289.225 84.3565 288.902 84.4643 288.611 84.5721C288.32 84.68 288.061 84.7879 287.856 84.8957Z" fill="#008056"/>
<path d="M227.949 107.021L239.551 110.364C239.551 110.364 239.993 110.266 240.726 110.094C241.449 109.932 242.462 109.695 243.583 109.425C244.705 109.156 245.945 108.854 247.142 108.552C248.339 108.25 249.481 107.937 250.42 107.657C250.969 107.495 251.595 107.29 252.253 107.075C252.91 106.859 253.611 106.611 254.312 106.342C255.013 106.083 255.714 105.792 256.382 105.501C257.051 105.21 257.698 104.897 258.269 104.584C258.981 104.196 259.595 103.808 260.048 103.42C260.501 103.031 260.803 102.643 260.889 102.266C260.976 101.889 260.835 101.533 260.426 101.188C260.016 100.853 259.326 100.541 258.301 100.26C257.493 100.034 256.447 99.8938 255.175 99.8399C253.902 99.786 252.414 99.8291 250.711 99.9909C249.007 100.153 247.099 100.433 244.985 100.843C242.872 101.263 240.554 101.824 238.052 102.557C237.2 102.805 236.144 103.204 235.044 103.668C233.933 104.131 232.78 104.66 231.734 105.156C230.677 105.652 229.728 106.115 229.049 106.46C228.38 106.805 227.949 107.021 227.949 107.021Z" fill="#008056"/>
<path d="M213.026 111.227C212.509 111.486 212.153 111.777 211.937 112.057C211.722 112.348 211.668 112.64 211.743 112.92C211.829 113.2 212.056 113.481 212.412 113.729C212.778 113.977 213.285 114.214 213.921 114.408C214.762 114.667 215.668 114.828 216.617 114.915C217.566 115.001 218.568 115.012 219.582 114.968C220.595 114.925 221.641 114.807 222.687 114.634C223.722 114.473 224.768 114.257 225.782 114.009C226.342 113.869 226.946 113.718 227.582 113.556C228.219 113.394 228.898 113.211 229.61 113.017C230.321 112.823 231.076 112.607 231.863 112.381C232.65 112.154 233.48 111.917 234.354 111.658L223.205 108.413C223.205 108.413 222.903 108.488 222.375 108.607C221.857 108.726 221.124 108.909 220.283 109.114C219.431 109.329 218.471 109.567 217.49 109.825C216.498 110.084 215.495 110.365 214.568 110.634C214.417 110.677 214.266 110.731 214.126 110.774C213.986 110.817 213.846 110.871 213.716 110.925C213.587 110.979 213.468 111.022 213.35 111.076C213.242 111.119 213.134 111.173 213.026 111.227Z" fill="#008056"/>
<path d="M232.564 93.1017C232.359 93.2095 232.176 93.2958 232.003 93.3821C231.841 93.4683 231.69 93.5438 231.572 93.5977C231.453 93.6624 231.356 93.7055 231.302 93.7378C231.248 93.7702 231.205 93.7918 231.205 93.7918L244.392 96.1423C244.392 96.1423 245.05 95.9914 246.074 95.7542C247.098 95.5169 248.5 95.1935 249.967 94.8269C251.444 94.4711 252.996 94.0829 254.344 93.7055C255.692 93.3389 256.846 92.9938 257.514 92.735C257.859 92.5949 258.194 92.4655 258.506 92.3361C258.819 92.2067 259.121 92.0773 259.401 91.9479C259.682 91.8185 259.951 91.7 260.199 91.5814C260.447 91.4628 260.684 91.3442 260.911 91.2256C261.957 90.6757 262.69 90.1905 263.143 89.7484C263.596 89.3063 263.779 88.9181 263.736 88.5838C263.693 88.2496 263.423 87.9692 262.981 87.7428C262.539 87.5163 261.913 87.333 261.148 87.2036C259.067 86.8478 256.835 86.7831 254.603 86.9233C252.371 87.0527 250.118 87.3762 248.015 87.7967C245.902 88.2172 243.918 88.724 242.214 89.22C240.51 89.7159 239.087 90.2119 238.106 90.5785C237.632 90.7618 237.136 90.956 236.64 91.1716C236.144 91.3873 235.637 91.6137 235.152 91.8293C234.666 92.0558 234.192 92.2822 233.75 92.4871C233.329 92.7243 232.92 92.9292 232.564 93.1017Z" fill="#008056"/>
<path d="M221.415 98.0397C220.833 98.3308 220.38 98.6112 220.067 98.8915C219.754 99.1719 219.604 99.4415 219.636 99.7002C219.668 99.959 219.884 100.196 220.326 100.423C220.768 100.638 221.437 100.843 222.364 101.016C223.248 101.177 224.283 101.285 225.394 101.339C226.493 101.382 227.658 101.382 228.812 101.307C229.955 101.242 231.087 101.113 232.111 100.94C233.135 100.757 234.063 100.53 234.796 100.239C235.529 99.9482 236.262 99.6462 236.952 99.3443C237.643 99.0424 238.279 98.7514 238.829 98.4926C239.378 98.2338 239.831 98.0181 240.155 97.8563C240.478 97.7054 240.662 97.6084 240.662 97.6084L227.949 95.3225C227.259 95.5813 226.612 95.8401 226.008 96.0774C225.404 96.3146 224.844 96.541 224.326 96.7567C223.809 96.9723 223.334 97.1771 222.903 97.3604C222.472 97.5545 222.073 97.727 221.717 97.8995C221.695 97.9103 221.663 97.9211 221.641 97.9319C221.62 97.9427 221.588 97.9535 221.566 97.9643C221.544 97.9751 221.512 97.9857 221.49 97.9965C221.469 98.0181 221.447 98.0289 221.415 98.0397Z" fill="#008056"/>
<path d="M198.664 122.257C198.513 122.333 198.373 122.408 198.222 122.484C198.071 122.559 197.931 122.645 197.78 122.721C197.629 122.796 197.489 122.883 197.338 122.969C197.187 123.055 197.047 123.141 196.896 123.228C196.303 123.573 195.699 124.09 195.117 124.683C194.534 125.276 193.974 125.934 193.488 126.549C193.003 127.163 192.583 127.745 192.292 128.166C192 128.586 191.828 128.856 191.828 128.856L208.379 130.732C208.379 130.732 208.627 130.624 209.037 130.441C209.446 130.258 210.018 129.999 210.676 129.686C211.333 129.374 212.077 129.029 212.832 128.651C213.576 128.285 214.331 127.896 215.021 127.53C215.15 127.465 215.28 127.39 215.398 127.325C215.517 127.26 215.646 127.185 215.754 127.12C215.873 127.055 215.98 126.991 216.088 126.926C216.196 126.861 216.304 126.797 216.401 126.732C217.231 126.214 218.234 125.513 219.107 124.726C219.981 123.939 220.714 123.087 221.016 122.257C221.318 121.427 221.188 120.64 220.347 119.982C219.506 119.324 217.943 118.807 215.377 118.537C214.342 118.429 213.177 118.397 211.916 118.473C210.654 118.548 209.285 118.72 207.851 119.001C206.416 119.292 204.907 119.691 203.376 120.219C201.823 120.769 200.238 121.438 198.664 122.257Z" fill="#008056"/>
<path d="M184.335 132.878C184.14 132.975 183.957 133.083 183.763 133.18C183.569 133.277 183.386 133.385 183.192 133.493C183.008 133.6 182.814 133.697 182.642 133.805C182.458 133.913 182.286 134.01 182.113 134.118C181.466 134.506 181.121 134.894 181.035 135.293C180.949 135.681 181.132 136.07 181.531 136.415C181.93 136.77 182.555 137.083 183.353 137.353C184.162 137.622 185.143 137.827 186.265 137.957C187.494 138.097 188.669 138.151 189.812 138.118C190.944 138.086 192.022 137.967 193.057 137.795C194.082 137.611 195.052 137.374 195.958 137.072C196.864 136.781 197.705 136.436 198.47 136.059C198.621 135.983 198.772 135.908 198.923 135.832C199.074 135.757 199.236 135.671 199.387 135.595C199.548 135.509 199.71 135.433 199.872 135.347C200.034 135.261 200.206 135.175 200.368 135.078C200.681 134.905 201.004 134.733 201.338 134.549C201.673 134.366 202.007 134.172 202.363 133.967C202.708 133.762 203.064 133.557 203.43 133.342C203.797 133.126 204.163 132.9 204.541 132.662L188.55 130.829C188.55 130.829 188.421 130.883 188.195 130.991C187.968 131.099 187.645 131.25 187.246 131.433C186.858 131.616 186.394 131.843 185.898 132.091C185.402 132.328 184.863 132.598 184.335 132.878Z" fill="#008056"/>
<path d="M186.21 108.584C185.682 108.843 185.197 109.102 184.744 109.35C184.291 109.609 183.881 109.857 183.504 110.094C183.127 110.331 182.792 110.568 182.501 110.784C182.21 111 181.951 111.194 181.736 111.377C181.294 111.744 180.873 112.175 180.474 112.617C180.075 113.059 179.719 113.512 179.418 113.911C179.116 114.321 178.857 114.677 178.684 114.935C178.512 115.194 178.415 115.356 178.415 115.356L195.505 116.121C195.505 116.121 195.731 116.024 196.109 115.852C196.486 115.679 197.014 115.442 197.64 115.162C198.254 114.881 198.966 114.547 199.699 114.202C200.422 113.857 201.176 113.49 201.877 113.135C202.244 112.951 202.589 112.768 202.923 112.595C203.257 112.423 203.559 112.25 203.84 112.089C204.12 111.927 204.368 111.776 204.584 111.636C204.799 111.496 204.972 111.366 205.101 111.248C206.201 110.256 206.837 109.404 207.107 108.692C207.376 107.981 207.279 107.388 206.891 106.913C206.514 106.439 205.856 106.094 204.993 105.835C204.142 105.587 203.096 105.447 201.931 105.393C200.249 105.317 198.653 105.371 197.155 105.522C195.656 105.662 194.243 105.91 192.928 106.212C191.612 106.514 190.394 106.881 189.273 107.29C188.141 107.7 187.116 108.142 186.21 108.584Z" fill="#008056"/>
<path d="M176.851 117.265C176.452 117.61 176.074 117.933 175.74 118.246C175.395 118.559 175.093 118.85 174.813 119.12C174.532 119.4 174.284 119.648 174.058 119.896C173.832 120.133 173.638 120.36 173.476 120.564C173.163 120.942 172.991 121.308 172.98 121.643C172.969 121.977 173.12 122.29 173.465 122.559C173.81 122.829 174.36 123.055 175.136 123.238C175.913 123.411 176.915 123.54 178.177 123.605C179.201 123.648 180.279 123.648 181.368 123.583C182.458 123.519 183.547 123.411 184.582 123.249C185.617 123.098 186.598 122.893 187.461 122.656C188.323 122.419 189.078 122.149 189.66 121.858C189.746 121.815 189.822 121.772 189.897 121.729C189.973 121.686 190.048 121.643 190.113 121.599C190.178 121.556 190.242 121.513 190.307 121.47C190.372 121.427 190.426 121.384 190.48 121.33C190.9 120.952 191.299 120.564 191.655 120.176C192.011 119.799 192.313 119.432 192.571 119.109C192.83 118.785 193.024 118.516 193.164 118.322C193.305 118.128 193.38 118.02 193.38 118.02L176.851 117.265Z" fill="#008056"/>
<path d="M176.722 143.639C176.183 143.92 175.676 144.243 175.202 144.588C174.727 144.933 174.285 145.321 173.875 145.742C173.476 146.162 173.11 146.615 172.797 147.111C172.484 147.607 172.215 148.135 171.999 148.707C171.848 149.127 171.913 149.721 172.107 150.378C172.29 151.036 172.603 151.769 172.926 152.438C173.25 153.117 173.595 153.742 173.865 154.195C174.134 154.659 174.317 154.939 174.317 154.939L194.588 154.357C194.588 154.357 194.75 154.163 194.998 153.829C195.246 153.505 195.58 153.052 195.925 152.535C196.27 152.028 196.637 151.457 196.95 150.896C197.262 150.346 197.51 149.796 197.651 149.332C197.834 148.718 197.942 147.898 197.791 147.014C197.651 146.141 197.252 145.203 196.454 144.362C195.656 143.521 194.448 142.777 192.658 142.259C190.879 141.742 188.518 141.461 185.402 141.547C184.658 141.569 183.903 141.623 183.148 141.72C182.393 141.817 181.649 141.946 180.905 142.108C180.172 142.281 179.45 142.485 178.749 142.744C178.037 143.014 177.358 143.305 176.722 143.639Z" fill="#008056"/>
<path d="M173.465 157.321C173.465 157.321 173.357 157.461 173.185 157.709C173.012 157.946 172.775 158.292 172.516 158.69C172.258 159.089 171.977 159.553 171.718 160.038C171.46 160.523 171.223 161.019 171.061 161.494C170.888 161.968 171.072 162.41 171.514 162.799C171.966 163.198 172.689 163.543 173.605 163.823C174.522 164.103 175.632 164.33 176.872 164.47C178.102 164.61 179.449 164.664 180.84 164.632C181.832 164.599 182.738 164.535 183.579 164.437C184.42 164.34 185.175 164.211 185.876 164.06C186.566 163.898 187.191 163.715 187.752 163.51C188.313 163.305 188.809 163.068 189.24 162.82C189.477 162.68 189.693 162.54 189.898 162.4C190.103 162.249 190.286 162.098 190.458 161.947C190.631 161.796 190.782 161.634 190.922 161.472C191.062 161.311 191.181 161.149 191.289 160.976C191.45 160.707 191.612 160.426 191.774 160.114C191.936 159.812 192.086 159.478 192.248 159.133C192.399 158.788 192.55 158.41 192.69 158.022C192.83 157.634 192.971 157.224 193.1 156.782L173.465 157.321Z" fill="#008056"/>
<path d="M143.986 132.727C142.94 133.244 142.11 133.805 141.452 134.398C140.795 134.991 140.309 135.595 139.954 136.188C139.598 136.781 139.382 137.352 139.264 137.88C139.145 138.398 139.113 138.872 139.145 139.239C139.177 139.66 139.317 140.145 139.501 140.63C139.684 141.115 139.921 141.611 140.148 142.053C140.374 142.495 140.601 142.884 140.773 143.164C140.946 143.444 141.053 143.617 141.053 143.617L160.721 141.978C160.721 141.978 160.969 141.687 161.335 141.234C161.702 140.781 162.176 140.156 162.651 139.487C163.125 138.819 163.578 138.107 163.901 137.471C164.225 136.835 164.419 136.274 164.354 135.886C164.182 134.764 163.718 133.848 163.017 133.115C162.327 132.382 161.411 131.821 160.365 131.411C159.308 131.001 158.111 130.743 156.85 130.613C155.588 130.484 154.251 130.484 152.925 130.592C151.922 130.678 150.995 130.786 150.132 130.926C149.27 131.066 148.472 131.228 147.728 131.411C146.995 131.594 146.315 131.799 145.69 132.026C145.065 132.241 144.504 132.479 143.986 132.727Z" fill="#008056"/>
<path d="M141.948 145.72C141.981 146.119 142.024 146.485 142.078 146.841C142.132 147.197 142.196 147.531 142.272 147.833C142.347 148.146 142.434 148.437 142.52 148.706C142.606 148.976 142.703 149.224 142.811 149.461C143.005 149.882 143.318 150.259 143.771 150.593C144.224 150.928 144.817 151.208 145.582 151.424C146.337 151.639 147.253 151.78 148.353 151.844C149.453 151.909 150.725 151.876 152.203 151.758C153.054 151.682 153.906 151.585 154.715 151.445C155.534 151.316 156.321 151.143 157.065 150.96C157.809 150.777 158.499 150.572 159.125 150.345C159.75 150.119 160.311 149.882 160.785 149.634C161.066 149.483 161.314 149.332 161.529 149.181C161.745 149.03 161.928 148.868 162.068 148.717C162.209 148.556 162.316 148.405 162.381 148.243C162.446 148.081 162.467 147.93 162.446 147.768C162.381 147.348 162.263 146.906 162.112 146.485C161.961 146.065 161.799 145.666 161.626 145.31C161.465 144.965 161.303 144.663 161.195 144.458C161.076 144.253 161.012 144.135 161.012 144.135L141.948 145.72Z" fill="#008056"/>
<path d="M182.868 169.247C182.21 169.624 181.671 170.067 181.294 170.573C180.916 171.08 180.701 171.641 180.679 172.266C180.657 172.891 180.83 173.582 181.24 174.347C181.649 175.102 182.296 175.932 183.213 176.827C183.655 177.258 184.593 177.819 185.747 178.423C186.9 179.027 188.281 179.674 189.618 180.267C190.955 180.86 192.227 181.399 193.176 181.798C194.125 182.197 194.739 182.434 194.739 182.434L215.323 178.595C215.323 178.595 215.204 178.38 214.989 178.035C214.784 177.69 214.482 177.205 214.104 176.655C213.738 176.115 213.307 175.512 212.843 174.94C212.379 174.358 211.862 173.808 211.344 173.334C210.654 172.719 209.576 171.921 208.163 171.102C206.751 170.293 204.993 169.463 202.934 168.783C200.885 168.104 198.524 167.587 195.882 167.371C193.251 167.155 190.329 167.263 187.148 167.835C186.728 167.91 186.318 167.996 185.93 168.093C185.542 168.19 185.154 168.298 184.798 168.417C184.442 168.535 184.097 168.665 183.774 168.805C183.45 168.934 183.148 169.085 182.868 169.247Z" fill="#008056"/>
<path d="M197.284 184.86C197.284 184.86 197.37 185.011 197.543 185.27C197.705 185.529 197.953 185.895 198.255 186.327C198.557 186.758 198.923 187.243 199.344 187.739C199.764 188.246 200.228 188.753 200.735 189.238C201.241 189.712 202.061 190.111 203.107 190.413C204.153 190.715 205.414 190.931 206.794 191.049C208.174 191.168 209.673 191.189 211.172 191.114C212.671 191.038 214.191 190.877 215.604 190.607C216.186 190.499 216.714 190.381 217.21 190.251C217.706 190.122 218.148 189.993 218.558 189.852C218.968 189.712 219.334 189.572 219.658 189.421C219.981 189.27 220.272 189.119 220.52 188.957C220.93 188.699 221.243 188.418 221.469 188.127C221.696 187.847 221.825 187.545 221.879 187.243C221.933 186.941 221.9 186.639 221.803 186.327C221.706 186.014 221.534 185.701 221.307 185.388C221.103 185.108 220.865 184.817 220.596 184.494C220.326 184.181 220.024 183.836 219.679 183.48C219.334 183.124 218.968 182.747 218.558 182.348C218.148 181.949 217.695 181.539 217.221 181.108L197.284 184.86Z" fill="#008056"/>
<path d="M131.414 163.91C129.991 164.665 129.215 165.484 128.902 166.336C128.589 167.188 128.729 168.061 129.15 168.892C129.57 169.733 130.26 170.53 131.037 171.231C131.813 171.943 132.665 172.547 133.398 173C134.067 173.409 134.929 173.862 135.857 174.315C136.784 174.768 137.776 175.21 138.682 175.598C139.587 175.997 140.417 176.331 141.021 176.579C141.625 176.827 141.992 176.968 141.992 176.968L161.206 172.148C161.206 172.148 161.044 171.824 160.775 171.328C160.494 170.832 160.106 170.153 159.632 169.431C159.168 168.708 158.618 167.953 158.036 167.285C157.454 166.616 156.839 166.045 156.214 165.689C154.391 164.632 152.537 163.813 150.682 163.209C148.839 162.605 147.016 162.207 145.248 161.969C143.49 161.743 141.787 161.678 140.202 161.754C138.617 161.829 137.15 162.045 135.846 162.357C135.371 162.476 134.918 162.595 134.498 162.713C134.077 162.832 133.678 162.961 133.312 163.091C132.945 163.22 132.6 163.349 132.288 163.49C131.986 163.63 131.684 163.77 131.414 163.91Z" fill="#008056"/>
<path d="M146.121 178.865C146.736 179.242 147.34 179.598 147.911 179.932C148.493 180.266 149.054 180.579 149.593 180.87C150.132 181.161 150.661 181.431 151.167 181.679C151.674 181.927 152.149 182.153 152.612 182.369C153.432 182.735 154.337 183.059 155.319 183.307C156.311 183.555 157.378 183.727 158.521 183.814C159.664 183.9 160.882 183.889 162.176 183.76C163.459 183.641 164.818 183.404 166.23 183.037C166.662 182.929 167.071 182.811 167.46 182.682C167.848 182.552 168.225 182.423 168.581 182.283C168.937 182.142 169.271 182.002 169.584 181.851C169.896 181.7 170.188 181.549 170.457 181.388C171.018 181.064 171.471 180.719 171.826 180.385C172.172 180.04 172.409 179.695 172.517 179.361C172.624 179.026 172.603 178.692 172.452 178.379C172.29 178.067 171.988 177.765 171.535 177.495C170.834 177.096 170.058 176.686 169.282 176.298C168.506 175.91 167.74 175.554 167.05 175.242C166.371 174.929 165.767 174.67 165.346 174.487C164.926 174.304 164.667 174.196 164.667 174.196L146.121 178.865Z" fill="#008056"/>
<path d="M228.51 193.916C227.798 194.391 227.313 194.93 227.129 195.534C226.946 196.148 227.054 196.817 227.539 197.561C228.024 198.305 228.865 199.114 230.149 199.976C231.432 200.839 233.168 201.766 235.4 202.747C236.305 203.146 237.879 203.631 239.712 204.127C241.556 204.623 243.68 205.141 245.697 205.615C247.713 206.079 249.622 206.5 251.034 206.801C252.447 207.103 253.341 207.287 253.341 207.287L271.467 200.979C271.467 200.979 271.132 200.774 270.561 200.429C269.99 200.095 269.192 199.62 268.275 199.103C267.348 198.585 266.302 198.014 265.234 197.464C264.167 196.914 263.067 196.396 262.054 195.976C260.717 195.415 258.787 194.704 256.458 194.013C254.15 193.323 251.455 192.655 248.576 192.181C245.708 191.706 242.656 191.415 239.615 191.48C236.575 191.544 233.534 191.965 230.677 192.914C230.461 192.989 230.256 193.054 230.062 193.14C229.868 193.216 229.674 193.302 229.491 193.377C229.307 193.464 229.135 193.55 228.973 193.636C228.811 193.733 228.65 193.819 228.51 193.916Z" fill="#008056"/>
<path d="M258.463 209.53C258.463 209.53 258.711 209.681 259.153 209.929C259.595 210.177 260.22 210.532 260.975 210.942C261.73 211.352 262.614 211.815 263.563 212.29C264.512 212.764 265.536 213.25 266.56 213.692C267.563 214.134 268.825 214.436 270.237 214.63C271.65 214.824 273.202 214.899 274.777 214.856C276.362 214.824 277.968 214.673 279.489 214.425C281.009 214.177 282.432 213.832 283.661 213.39C283.963 213.282 284.244 213.174 284.502 213.066C284.761 212.959 285.009 212.84 285.225 212.732C285.451 212.624 285.656 212.506 285.839 212.398C286.023 212.29 286.195 212.171 286.346 212.053C286.864 211.665 287.187 211.266 287.327 210.867C287.468 210.468 287.435 210.069 287.241 209.67C287.058 209.271 286.713 208.883 286.26 208.494C285.796 208.106 285.214 207.729 284.524 207.362C284.028 207.093 283.478 206.812 282.885 206.521C282.281 206.219 281.624 205.907 280.912 205.583C280.2 205.249 279.435 204.904 278.604 204.548C277.774 204.182 276.89 203.804 275.952 203.416L258.463 209.53Z" fill="#008056"/>
<path d="M167.19 193.766C165.444 194.812 164.818 195.879 164.958 196.936C165.099 197.993 166.004 199.028 167.309 199.987C168.624 200.947 170.339 201.831 172.086 202.586C173.832 203.341 175.611 203.966 177.035 204.408C178.188 204.764 179.601 205.141 181.078 205.508C182.555 205.875 184.097 206.23 185.499 206.543C186.901 206.856 188.162 207.125 189.068 207.319C189.974 207.514 190.534 207.621 190.534 207.621L206.805 200.365C206.805 200.365 206.309 200.052 205.511 199.556C204.713 199.06 203.603 198.392 202.363 197.691C201.133 196.99 199.764 196.246 198.459 195.61C197.155 194.974 195.893 194.434 194.847 194.122C191.785 193.216 188.928 192.569 186.286 192.138C183.655 191.707 181.229 191.48 179.051 191.437C176.873 191.383 174.921 191.513 173.239 191.771C171.557 192.03 170.134 192.418 168.991 192.893C168.819 192.968 168.646 193.044 168.484 193.119C168.323 193.195 168.172 193.27 168.021 193.345C167.87 193.421 167.73 193.496 167.589 193.572C167.449 193.615 167.32 193.691 167.19 193.766Z" fill="#008056"/>
<path d="M197.036 209.12C198.093 209.454 199.106 209.756 200.077 210.047C201.047 210.338 201.974 210.597 202.869 210.845C203.753 211.093 204.594 211.309 205.403 211.514C206.201 211.719 206.956 211.902 207.678 212.064C208.95 212.365 210.266 212.592 211.592 212.743C212.918 212.883 214.266 212.948 215.603 212.894C216.94 212.851 218.256 212.689 219.539 212.409C220.822 212.128 222.051 211.719 223.226 211.179C223.367 211.115 223.496 211.05 223.625 210.985C223.755 210.921 223.884 210.856 224.003 210.781C224.121 210.716 224.24 210.64 224.359 210.576C224.477 210.5 224.585 210.435 224.693 210.36C225.415 209.875 225.933 209.357 226.256 208.829C226.58 208.311 226.698 207.783 226.601 207.276C226.504 206.769 226.202 206.295 225.674 205.864C225.146 205.443 224.391 205.066 223.399 204.764C222.245 204.419 221.005 204.085 219.776 203.772C218.558 203.459 217.361 203.168 216.304 202.92C215.247 202.672 214.342 202.467 213.695 202.316C213.048 202.176 212.67 202.09 212.67 202.09L197.036 209.12Z" fill="#008056"/>
<path d="M301.615 216.798C300.914 217.347 300.526 217.973 300.515 218.663C300.504 219.364 300.892 220.129 301.733 220.96C302.585 221.79 303.911 222.685 305.787 223.634C307.674 224.582 310.122 225.585 313.216 226.62C314.402 227.019 316.333 227.483 318.564 227.947C320.807 228.41 323.352 228.885 325.756 229.305C328.172 229.726 330.436 230.103 332.096 230.373C333.768 230.642 334.824 230.804 334.824 230.804L350.869 222.997C350.869 222.997 350.394 222.782 349.618 222.437C348.831 222.092 347.731 221.617 346.469 221.089C345.208 220.561 343.785 219.978 342.351 219.428C340.916 218.878 339.482 218.35 338.167 217.93C336.442 217.38 334.005 216.679 331.158 216.032C328.323 215.385 325.099 214.77 321.767 214.371C318.446 213.973 315.028 213.8 311.804 214.005C308.58 214.221 305.529 214.824 302.952 216C302.822 216.064 302.693 216.118 302.563 216.183C302.445 216.248 302.326 216.312 302.208 216.377C302.1 216.442 301.981 216.506 301.884 216.582C301.809 216.646 301.712 216.722 301.615 216.798Z" fill="#008056"/>
<path d="M341.509 233.003C341.509 233.003 341.854 233.154 342.458 233.413C343.062 233.672 343.914 234.028 344.938 234.448C345.962 234.869 347.148 235.332 348.41 235.818C349.671 236.292 351.019 236.788 352.345 237.23C353.661 237.661 355.17 237.953 356.777 238.093C358.384 238.233 360.076 238.244 361.748 238.125C363.408 238.007 365.047 237.769 366.535 237.424C368.023 237.079 369.36 236.626 370.427 236.087C370.611 235.99 370.783 235.893 370.956 235.796C371.118 235.699 371.268 235.602 371.419 235.505C371.56 235.408 371.689 235.311 371.818 235.214C371.948 235.117 372.056 235.02 372.153 234.933C372.681 234.437 372.951 233.941 372.983 233.456C373.015 232.971 372.821 232.497 372.444 232.033C372.056 231.569 371.484 231.117 370.751 230.674C370.018 230.232 369.134 229.812 368.131 229.402C367.462 229.132 366.74 228.852 365.942 228.55C365.144 228.248 364.281 227.936 363.354 227.601C362.427 227.267 361.424 226.922 360.357 226.566C359.289 226.21 358.146 225.833 356.939 225.434L341.509 233.003Z" fill="#008056"/>
<path d="M235.54 219.245C233.696 220.539 233.265 221.822 233.782 223.051C234.3 224.28 235.755 225.456 237.696 226.512C239.637 227.58 242.052 228.539 244.435 229.337C246.829 230.146 249.201 230.782 251.034 231.213C252.468 231.558 254.204 231.914 256.005 232.248C257.805 232.583 259.671 232.906 261.353 233.186C263.035 233.467 264.544 233.704 265.633 233.866C266.723 234.027 267.38 234.125 267.38 234.125L281.193 225.305C281.193 225.305 280.492 224.97 279.37 224.464C278.249 223.957 276.696 223.267 274.993 222.533C273.289 221.811 271.434 221.056 269.688 220.409C267.941 219.762 266.302 219.223 265.019 218.932C261.223 218.07 257.784 217.487 254.689 217.121C251.606 216.765 248.856 216.636 246.462 216.679C244.069 216.722 242.02 216.959 240.316 217.315C238.613 217.681 237.265 218.177 236.284 218.76C236.219 218.803 236.154 218.835 236.09 218.878C236.025 218.921 235.96 218.954 235.906 218.997C235.842 219.04 235.788 219.072 235.723 219.115C235.648 219.169 235.594 219.202 235.54 219.245Z" fill="#008056"/>
<path d="M275.197 235.516C276.513 235.828 277.774 236.119 278.971 236.389C280.179 236.659 281.322 236.906 282.411 237.133C283.5 237.359 284.535 237.564 285.505 237.758C286.476 237.942 287.392 238.114 288.244 238.254C289.775 238.524 291.306 238.718 292.816 238.815C294.325 238.912 295.802 238.912 297.215 238.793C298.627 238.675 299.964 238.438 301.204 238.071C302.434 237.704 303.566 237.198 304.547 236.529C304.59 236.497 304.644 236.464 304.687 236.432C304.73 236.4 304.773 236.367 304.817 236.335C304.86 236.303 304.903 236.27 304.946 236.238C304.989 236.206 305.032 236.173 305.075 236.141C305.809 235.537 306.272 234.89 306.477 234.243C306.682 233.596 306.628 232.939 306.315 232.324C306.003 231.709 305.431 231.127 304.612 230.631C303.792 230.135 302.714 229.715 301.377 229.413C299.954 229.089 298.433 228.766 296.945 228.475C295.457 228.183 294.013 227.914 292.751 227.687C291.489 227.461 290.39 227.278 289.624 227.148C288.848 227.019 288.395 226.954 288.395 226.954L275.197 235.516Z" fill="#008056"/>
<path d="M390.558 241.887C389.933 242.502 389.653 243.203 389.782 243.99C389.911 244.777 390.461 245.65 391.507 246.588C392.564 247.537 394.117 248.562 396.262 249.64C398.419 250.729 401.168 251.883 404.597 253.09C405.934 253.565 408.08 254.115 410.56 254.675C413.05 255.236 415.865 255.818 418.517 256.336C421.18 256.853 423.682 257.317 425.515 257.651C427.348 257.985 428.523 258.18 428.523 258.18L444.643 249.586C444.643 249.586 444.104 249.338 443.209 248.928C442.314 248.518 441.052 247.969 439.618 247.343C438.184 246.718 436.567 246.039 434.928 245.392C433.3 244.745 431.672 244.119 430.194 243.623C428.254 242.976 425.526 242.146 422.366 241.359C419.218 240.583 415.66 239.839 412.026 239.332C408.403 238.836 404.705 238.577 401.265 238.771C397.826 238.965 394.645 239.601 392.035 240.895C391.885 240.971 391.744 241.046 391.604 241.122C391.464 241.197 391.335 241.284 391.216 241.37C391.097 241.456 390.979 241.542 390.871 241.629C390.752 241.715 390.655 241.801 390.558 241.887Z" fill="#008056"/>
<path d="M436.06 260.832C436.06 260.832 436.459 261.016 437.138 261.307C437.828 261.609 438.799 262.029 439.963 262.515C441.128 263 442.486 263.56 443.931 264.121C445.376 264.682 446.907 265.264 448.406 265.781C449.894 266.299 451.576 266.655 453.344 266.849C455.113 267.043 456.946 267.075 458.735 266.978C460.525 266.871 462.251 266.623 463.803 266.256C465.356 265.879 466.714 265.383 467.782 264.779C467.987 264.66 468.192 264.542 468.364 264.423C468.547 264.304 468.709 264.186 468.86 264.067C469.011 263.949 469.151 263.83 469.27 263.711C469.399 263.593 469.507 263.474 469.604 263.355C470.046 262.816 470.208 262.267 470.143 261.727C470.079 261.188 469.777 260.649 469.281 260.132C468.785 259.603 468.095 259.096 467.243 258.59C466.402 258.094 465.388 257.598 464.267 257.134C463.501 256.821 462.671 256.487 461.755 256.131C460.849 255.775 459.857 255.409 458.8 255.01C457.744 254.622 456.601 254.212 455.393 253.781C454.185 253.349 452.891 252.907 451.522 252.433L436.06 260.832Z" fill="#008056"/>
<path d="M319.912 243.689C318.252 245.112 318.047 246.535 318.812 247.915C319.578 249.296 321.314 250.633 323.524 251.851C325.745 253.08 328.43 254.191 331.072 255.118C333.724 256.056 336.323 256.822 338.339 257.339C339.924 257.749 341.844 258.18 343.817 258.59C345.801 259 347.839 259.399 349.693 259.744C351.548 260.089 353.197 260.38 354.394 260.596C355.591 260.8 356.314 260.93 356.314 260.93L369.91 251.118C369.91 251.118 369.112 250.73 367.829 250.137C366.546 249.544 364.789 248.735 362.848 247.894C360.918 247.053 358.826 246.169 356.853 245.403C354.89 244.648 353.057 244.012 351.645 243.667C347.461 242.632 343.687 241.91 340.334 241.457C336.981 241.004 334.026 240.81 331.471 240.831C328.915 240.842 326.748 241.069 324.991 241.446C323.222 241.823 321.842 242.362 320.872 243.009C320.786 243.063 320.699 243.128 320.613 243.182C320.527 243.236 320.451 243.301 320.376 243.354C320.3 243.408 320.225 243.473 320.149 243.527C320.052 243.57 319.988 243.624 319.912 243.689Z" fill="#008056"/>
<path d="M364.875 262.601C366.341 262.978 367.743 263.334 369.08 263.657C370.417 263.981 371.689 264.293 372.897 264.563C374.105 264.843 375.248 265.102 376.315 265.329C377.393 265.555 378.396 265.771 379.334 265.943C381.027 266.267 382.709 266.515 384.348 266.644C385.987 266.773 387.583 266.795 389.092 266.687C390.602 266.579 392.014 266.331 393.297 265.932C394.581 265.533 395.723 264.973 396.683 264.229C396.748 264.175 396.813 264.132 396.866 264.078C396.931 264.024 396.985 263.981 397.039 263.927C397.093 263.873 397.147 263.83 397.201 263.776C397.255 263.722 397.308 263.668 397.352 263.625C397.988 262.956 398.344 262.245 398.43 261.522C398.516 260.8 398.333 260.078 397.891 259.387C397.449 258.697 396.748 258.05 395.788 257.49C394.839 256.929 393.642 256.444 392.198 256.088C390.623 255.7 388.941 255.312 387.292 254.956C385.653 254.6 384.057 254.277 382.655 253.996C381.254 253.716 380.057 253.49 379.205 253.339C378.353 253.177 377.846 253.091 377.846 253.091L364.875 262.601Z" fill="#008056"/>
<path d="M485.562 277.73C485.055 278.398 484.85 279.185 485.012 280.08C485.174 280.975 485.713 281.978 486.683 283.088C487.664 284.21 489.077 285.428 491.018 286.765C492.959 288.102 495.428 289.558 498.49 291.111C499.827 291.79 502.037 292.642 504.604 293.547C507.181 294.453 510.135 295.413 512.917 296.286C515.72 297.16 518.351 297.957 520.292 298.529C522.233 299.1 523.484 299.456 523.484 299.456L544.046 291.186C544.046 291.186 543.517 290.841 542.633 290.28C541.749 289.72 540.509 288.943 539.086 288.081C537.662 287.218 536.056 286.269 534.439 285.353C532.821 284.436 531.182 283.563 529.694 282.841C527.743 281.892 524.95 280.662 521.683 279.444C518.427 278.226 514.707 277.018 510.836 276.08C506.986 275.153 502.975 274.484 499.137 274.355C495.298 274.225 491.611 274.635 488.376 275.854C488.063 275.972 487.772 276.101 487.492 276.231C487.212 276.371 486.964 276.511 486.726 276.662C486.489 276.813 486.274 276.975 486.09 277.147C485.875 277.363 485.702 277.546 485.562 277.73Z" fill="#008056"/>
<path d="M531.086 303.337C531.086 303.337 531.474 303.585 532.154 304.005C532.833 304.426 533.803 305.019 534.957 305.709C536.121 306.399 537.469 307.197 538.914 308.006C540.359 308.814 541.912 309.655 543.432 310.432C544.941 311.197 546.731 311.79 548.661 312.2C550.591 312.62 552.651 312.858 554.689 312.922C556.737 312.998 558.765 312.89 560.63 312.631C562.495 312.362 564.199 311.941 565.59 311.348C566.021 311.165 566.42 310.971 566.765 310.777C567.121 310.583 567.423 310.378 567.692 310.184C567.962 309.979 568.199 309.774 568.393 309.558C568.587 309.343 568.738 309.138 568.868 308.911C569.169 308.372 569.245 307.822 569.137 307.262C569.029 306.701 568.738 306.119 568.285 305.536C567.833 304.954 567.218 304.372 566.474 303.779C565.73 303.197 564.846 302.614 563.865 302.032C563.11 301.579 562.269 301.105 561.352 300.598C560.436 300.091 559.444 299.552 558.366 298.991C557.287 298.431 556.134 297.827 554.904 297.202C553.675 296.576 552.36 295.929 550.969 295.25L531.086 303.337Z" fill="#008056"/>
<path d="M408.22 273.147C406.926 274.56 406.851 276.069 407.605 277.589C408.36 279.12 409.924 280.662 411.897 282.129C413.881 283.595 416.274 284.986 418.636 286.183C421.008 287.391 423.348 288.415 425.213 289.148C426.787 289.773 428.717 290.453 430.712 291.121C432.718 291.79 434.799 292.447 436.685 293.03C438.572 293.612 440.265 294.119 441.494 294.475C442.724 294.83 443.468 295.046 443.468 295.046L461.205 285.299C461.205 285.299 460.45 284.781 459.242 283.972C458.035 283.164 456.363 282.075 454.52 280.921C452.687 279.767 450.681 278.56 448.783 277.503C446.896 276.446 445.107 275.551 443.683 275.012C439.489 273.427 435.65 272.241 432.178 271.4C428.717 270.559 425.612 270.052 422.873 269.826C420.134 269.6 417.762 269.632 415.768 269.891C413.762 270.149 412.134 270.613 410.905 271.249C410.603 271.4 410.333 271.551 410.075 271.713C409.816 271.864 409.578 272.026 409.352 272.187C409.126 272.349 408.932 272.511 408.737 272.673C408.533 272.813 408.371 272.985 408.22 273.147Z" fill="#008056"/>
<path d="M452.212 297.869C453.689 298.452 455.112 299.002 456.46 299.508C457.819 300.026 459.113 300.5 460.331 300.942C461.56 301.385 462.725 301.794 463.825 302.172C464.924 302.549 465.96 302.883 466.93 303.185C468.666 303.746 470.434 304.21 472.192 304.533C473.949 304.867 475.685 305.061 477.378 305.094C479.06 305.126 480.688 304.997 482.219 304.662C483.74 304.339 485.174 303.811 486.446 303.067C486.683 302.926 486.91 302.775 487.125 302.624C487.341 302.474 487.535 302.312 487.718 302.15C487.902 301.988 488.074 301.827 488.225 301.654C488.376 301.482 488.516 301.32 488.646 301.137C489.12 300.468 489.39 299.756 489.433 299.045C489.476 298.333 489.314 297.611 488.926 296.91C488.538 296.209 487.934 295.54 487.115 294.915C486.295 294.3 485.26 293.74 483.998 293.255C482.392 292.64 480.656 292.025 478.963 291.443C477.281 290.872 475.631 290.333 474.186 289.88C472.742 289.427 471.512 289.039 470.628 288.78C469.755 288.51 469.227 288.359 469.227 288.359L452.212 297.869Z" fill="#008056"/>
<path d="M561.525 351.836C561.341 352.181 561.169 352.536 560.996 352.903C560.824 353.27 560.673 353.647 560.522 354.046C560.371 354.434 560.231 354.844 560.091 355.254C559.95 355.663 559.832 356.095 559.713 356.537C559.433 357.583 559.508 359.157 559.778 360.936C560.047 362.726 560.522 364.742 561.039 366.629C561.557 368.527 562.107 370.306 562.538 371.621C562.969 372.937 563.271 373.767 563.271 373.767L598.26 379.579C598.26 379.579 598.357 379.395 598.541 379.083C598.713 378.759 598.961 378.296 599.263 377.735C599.554 377.174 599.899 376.506 600.255 375.773C600.611 375.039 600.988 374.241 601.355 373.411C601.581 372.894 601.808 372.355 602.023 371.815C602.239 371.276 602.444 370.748 602.627 370.209C602.81 369.681 602.983 369.152 603.123 368.656C603.263 368.149 603.382 367.664 603.468 367.201C603.781 365.637 603.943 363.491 603.662 361.098C603.393 358.726 602.692 356.127 601.29 353.636C599.899 351.167 597.807 348.795 594.745 346.843C591.705 344.903 587.694 343.371 582.432 342.563C580.459 342.261 578.442 342.175 576.458 342.347C574.474 342.509 572.523 342.929 570.679 343.641C568.835 344.353 567.099 345.366 565.547 346.714C563.983 348.062 562.614 349.755 561.525 351.836Z" fill="#008056"/>
<path d="M560.985 381.207C560.748 381.693 560.457 382.275 560.144 382.943C559.832 383.612 559.497 384.356 559.174 385.143C558.84 385.93 558.516 386.771 558.214 387.623C557.912 388.475 557.643 389.348 557.416 390.189C557.082 391.407 557.362 392.68 558.106 393.92C558.85 395.171 560.08 396.389 561.643 397.521C563.217 398.653 565.136 399.678 567.271 400.529C569.406 401.381 571.757 402.06 574.183 402.481C576.825 402.945 579.164 403.096 581.224 402.988C583.283 402.88 585.041 402.513 586.54 401.931C588.038 401.349 589.268 400.562 590.249 399.624C591.23 398.686 591.974 397.586 592.502 396.378C592.793 395.71 593.085 394.987 593.365 394.189C593.645 393.402 593.915 392.561 594.184 391.645C594.443 390.739 594.702 389.779 594.961 388.755C595.209 387.741 595.457 386.663 595.694 385.531L561.708 379.827C561.708 379.827 561.686 379.86 561.654 379.924C561.621 379.989 561.567 380.075 561.514 380.194C561.449 380.312 561.373 380.453 561.287 380.625C561.19 380.798 561.093 380.992 560.985 381.207Z" fill="#008056"/>
<path d="M495.935 313.602C495.375 314.422 494.911 315.252 494.523 316.082C494.135 316.913 493.833 317.743 493.585 318.541C493.347 319.339 493.175 320.115 493.056 320.827C492.938 321.538 492.873 322.207 492.852 322.778C492.819 323.835 492.927 325.075 493.121 326.347C493.315 327.62 493.585 328.924 493.865 330.099C494.145 331.275 494.426 332.321 494.641 333.075C494.857 333.83 494.997 334.294 494.997 334.294L527.075 336.537C527.075 336.537 527.14 336.44 527.247 336.278C527.366 336.105 527.528 335.857 527.733 335.545C527.938 335.232 528.175 334.855 528.444 334.423C528.714 333.992 529.005 333.518 529.318 333.011C529.824 332.17 530.374 331.232 530.903 330.261C531.431 329.291 531.949 328.299 532.391 327.339C532.833 326.38 533.21 325.442 533.469 324.6C533.728 323.759 533.868 323.015 533.835 322.422C533.717 319.597 533.081 317.193 532.056 315.155C531.043 313.139 529.652 311.478 528.013 310.152C526.385 308.837 524.498 307.845 522.492 307.144C520.498 306.454 518.363 306.055 516.239 305.915C513.414 305.731 510.934 305.839 508.756 306.173C506.567 306.508 504.68 307.068 503.041 307.791C501.402 308.513 500.011 309.397 498.847 310.389C497.66 311.381 496.712 312.47 495.935 313.602Z" fill="#008056"/>
<path d="M496.054 339.846C496.032 340.849 496.021 341.808 496.043 342.714C496.064 343.631 496.097 344.493 496.151 345.302C496.205 346.121 496.28 346.887 496.366 347.609C496.453 348.332 496.56 349 496.679 349.626C496.906 350.758 497.337 351.836 498.005 352.839C498.674 353.842 499.59 354.769 500.776 355.577C501.962 356.386 503.429 357.076 505.208 357.605C506.987 358.133 509.079 358.51 511.505 358.683C513.403 358.823 515.289 358.801 517.09 358.629C518.891 358.456 520.594 358.144 522.126 357.702C523.657 357.259 525.004 356.699 526.093 356.03C527.182 355.362 528.013 354.607 528.509 353.755C528.595 353.604 528.67 353.453 528.735 353.302C528.8 353.151 528.854 352.99 528.897 352.839C528.94 352.677 528.972 352.515 528.994 352.354C529.015 352.192 529.015 352.03 529.015 351.858C528.972 350.736 528.843 349.55 528.67 348.418C528.498 347.286 528.282 346.197 528.067 345.248C527.851 344.299 527.646 343.501 527.495 342.93C527.344 342.358 527.236 342.035 527.236 342.035L496.054 339.846Z" fill="#008056"/>
<path d="M484.624 397.23L515.785 409.533C515.785 409.533 517.014 409.016 518.922 408.174C520.831 407.333 523.408 406.169 526.125 404.886C528.832 403.603 531.667 402.201 534.093 400.875C536.509 399.549 538.525 398.298 539.614 397.295C540.423 396.551 541.167 395.818 541.846 395.106C542.525 394.395 543.14 393.694 543.69 393.014C544.24 392.335 544.725 391.677 545.156 391.03C545.587 390.383 545.954 389.758 546.267 389.154C547.194 387.375 547.647 385.747 547.712 384.259C547.776 382.782 547.453 381.445 546.817 380.27C546.18 379.094 545.232 378.059 544.046 377.175C542.859 376.291 541.436 375.568 539.84 374.986C534.967 373.207 530.201 372.603 525.672 372.787C521.144 372.97 516.841 373.919 512.938 375.277C509.013 376.636 505.466 378.393 502.49 380.151C499.503 381.919 497.088 383.698 495.46 385.068C494.22 386.124 492.926 387.397 491.686 388.734C490.435 390.071 489.239 391.451 488.203 392.713C487.158 393.974 486.263 395.106 485.637 395.915C484.99 396.734 484.624 397.23 484.624 397.23Z" fill="#008056"/>
<path d="M467.631 414.914C466.973 415.97 466.542 417.027 466.391 418.073C466.24 419.13 466.369 420.165 466.822 421.178C467.286 422.192 468.073 423.184 469.259 424.133C470.445 425.082 472.008 425.987 474.025 426.828C476.16 427.723 478.542 428.381 481.001 428.791C483.459 429.2 485.993 429.373 488.419 429.287C490.845 429.2 493.153 428.855 495.169 428.251C497.185 427.648 498.9 426.785 500.14 425.664C501.39 424.521 502.609 423.292 503.73 422.095C504.852 420.898 505.876 419.733 506.738 418.709C507.601 417.685 508.313 416.811 508.809 416.186C509.305 415.561 509.574 415.194 509.574 415.194L479.416 403.128C478.251 404.131 477.152 405.091 476.149 405.997C475.135 406.913 474.197 407.787 473.335 408.617C472.472 409.447 471.674 410.234 470.962 410.978C470.24 411.722 469.593 412.423 469.022 413.081C468.892 413.232 468.763 413.383 468.644 413.533C468.526 413.684 468.407 413.835 468.288 413.997C468.17 414.148 468.062 414.299 467.954 414.461C467.825 414.601 467.717 414.763 467.631 414.914Z" fill="#008056"/>
</g>
</svg>
