<svg width="547" height="289" viewBox="0 0 547 289" fill="none" xmlns="http://www.w3.org/2000/svg">
<g opacity="0.5">
<path d="M269.62 0.870764C269.287 1.01486 269.121 1.1701 269.154 1.34744C269.198 1.51371 269.453 1.70213 269.963 1.89056C270.473 2.07899 271.238 2.27853 272.291 2.47805C273.355 2.67756 274.707 2.88808 276.403 3.0876C277.035 3.16519 278.044 3.24273 279.207 3.32032C280.371 3.39791 281.679 3.47557 282.909 3.53099C284.14 3.5975 285.293 3.65293 286.146 3.68619C286.988 3.71944 287.532 3.75262 287.532 3.75262L294.781 1.67989C294.781 1.67989 294.526 1.63558 294.116 1.56907C293.694 1.50257 293.107 1.40281 292.431 1.29197C291.755 1.18113 291.001 1.07035 290.236 0.948429C289.471 0.837587 288.706 0.726724 288.008 0.649135C287.099 0.538293 285.802 0.405207 284.317 0.294366C282.832 0.17244 281.136 0.0726931 279.418 0.0283564C277.7 -0.0159802 275.96 -0.0159261 274.353 0.0838314C272.745 0.183589 271.282 0.371939 270.118 0.693379C270.074 0.704464 270.03 0.715591 269.985 0.737759C269.941 0.748844 269.897 0.759971 269.863 0.782139C269.83 0.804308 269.786 0.8153 269.742 0.826384C269.686 0.837468 269.653 0.848596 269.62 0.870764Z" fill="#008056"/>
<path d="M291.012 4.17364C291.012 4.17364 291.201 4.20697 291.511 4.25131C291.832 4.30673 292.276 4.37316 292.819 4.45075C293.351 4.52834 293.983 4.62808 294.637 4.71676C295.302 4.80543 295.989 4.90518 296.676 4.98277C297.352 5.06036 298.117 5.10469 298.904 5.11577C299.702 5.12686 300.534 5.10476 301.332 5.04934C302.141 4.99392 302.917 4.91637 303.615 4.81661C304.313 4.71686 304.923 4.59484 305.411 4.45075C305.477 4.42858 305.544 4.40649 305.61 4.39541C305.677 4.37324 305.732 4.35102 305.787 4.33993C305.843 4.31777 305.898 4.29554 305.943 4.28446C305.987 4.26229 306.031 4.25129 306.076 4.22912C306.353 4.09611 306.486 3.97423 306.497 3.86339C306.508 3.74146 306.397 3.63056 306.175 3.51972C305.965 3.40887 305.643 3.30908 305.244 3.20933C304.845 3.10957 304.369 3.02091 303.837 2.94332C303.493 2.8879 303.105 2.83245 302.695 2.77703C302.274 2.72161 301.83 2.65519 301.343 2.58868C300.855 2.52218 300.334 2.45561 299.78 2.38911C299.226 2.3226 298.627 2.24507 297.995 2.16748L291.012 4.17364Z" fill="#008056"/>
<path d="M236.6 2.38923C235.735 2.73284 235.635 3.06536 236.034 3.35355C236.433 3.64174 237.342 3.90785 238.473 4.14062C239.614 4.37339 240.989 4.56171 242.33 4.72798C243.671 4.88316 244.979 5.00516 245.977 5.08275C246.742 5.13817 247.662 5.19362 248.604 5.24904C249.546 5.30446 250.521 5.34866 251.397 5.393C252.273 5.43734 253.048 5.47069 253.614 5.49286C254.179 5.51502 254.512 5.52614 254.512 5.52614L260.253 3.25383C260.253 3.25383 259.865 3.18729 259.233 3.07645C258.602 2.97669 257.737 2.83262 256.784 2.68853C255.831 2.54443 254.8 2.38924 253.824 2.25623C252.86 2.12322 251.951 2.02345 251.264 1.96803C249.224 1.81285 247.395 1.72417 245.777 1.67983C244.159 1.63549 242.751 1.64659 241.543 1.69093C240.335 1.73526 239.326 1.8239 238.517 1.93475C237.708 2.04559 237.098 2.18968 236.688 2.34485C236.677 2.34485 236.666 2.35595 236.655 2.35595C236.644 2.35595 236.633 2.36704 236.622 2.36704C236.611 2.36704 236.6 2.37814 236.6 2.37814C236.6 2.37814 236.611 2.37815 236.6 2.38923Z" fill="#008056"/>
<path d="M258.569 5.71455C259.267 5.76998 259.921 5.81432 260.553 5.85865C261.185 5.90299 261.783 5.94731 262.337 5.98056C262.903 6.01382 263.435 6.04717 263.934 6.08042C264.432 6.11367 264.898 6.13578 265.33 6.15795C266.117 6.20228 266.893 6.22438 267.647 6.22438C268.401 6.22438 269.132 6.20228 269.808 6.15795C270.484 6.11361 271.116 6.03608 271.681 5.93632C272.247 5.83656 272.746 5.70343 273.156 5.53717C273.167 5.53717 273.167 5.52621 273.178 5.52621C273.189 5.52621 273.189 5.51512 273.2 5.51512C273.211 5.51512 273.211 5.50402 273.222 5.50402C273.233 5.50402 273.233 5.49293 273.244 5.49293C273.588 5.33775 273.787 5.18252 273.854 5.02734C273.92 4.87216 273.832 4.70585 273.621 4.56176C273.411 4.41766 273.067 4.28468 272.59 4.17384C272.125 4.063 271.526 3.97435 270.806 3.91892C270.063 3.8635 269.276 3.80807 268.5 3.76373C267.724 3.71939 266.971 3.67507 266.317 3.64182C265.663 3.60857 265.086 3.57537 264.687 3.56429C264.288 3.54212 264.044 3.53101 264.044 3.53101L258.569 5.71455Z" fill="#008056"/>
<path d="M315.674 5.49344C315.364 5.63753 315.22 5.80373 315.298 5.98108C315.375 6.15843 315.652 6.35796 316.195 6.55748C316.739 6.75699 317.525 6.97875 318.623 7.18935C319.72 7.41103 321.106 7.6327 322.835 7.86547C323.489 7.95414 324.531 8.0428 325.739 8.13148C326.936 8.22015 328.299 8.3088 329.574 8.38639C330.849 8.46398 332.046 8.53053 332.921 8.57487C333.797 8.61921 334.362 8.6524 334.362 8.6524L341.811 6.52419C341.811 6.52419 341.545 6.47987 341.113 6.40228C340.68 6.32469 340.071 6.21382 339.361 6.09189C338.663 5.96997 337.876 5.837 337.078 5.71507C336.28 5.59314 335.493 5.4713 334.772 5.38263C333.819 5.2607 332.489 5.10553 330.937 4.97252C329.397 4.83951 327.645 4.71754 325.872 4.65103C324.098 4.58453 322.292 4.57345 320.64 4.66213C318.977 4.7508 317.47 4.93915 316.273 5.27168C316.218 5.28276 316.162 5.30497 316.107 5.31606C316.051 5.32714 315.996 5.34936 315.952 5.37153C315.907 5.3937 315.852 5.4047 315.807 5.42687C315.752 5.46012 315.708 5.48236 315.674 5.49344Z" fill="#008056"/>
<path d="M337.954 9.1399C337.954 9.1399 338.143 9.17324 338.475 9.22866C338.808 9.28408 339.273 9.36162 339.827 9.45029C340.382 9.53896 341.036 9.63874 341.712 9.74958C342.399 9.84934 343.119 9.9602 343.829 10.0489C344.527 10.1376 345.325 10.193 346.145 10.2152C346.966 10.2373 347.83 10.2151 348.661 10.1708C349.493 10.1265 350.291 10.0489 351.011 9.94916C351.732 9.8494 352.364 9.72738 352.862 9.5722C352.94 9.55003 353.029 9.52792 353.095 9.49467C353.173 9.4725 353.239 9.45027 353.295 9.4281C353.361 9.40593 353.417 9.38383 353.472 9.36166C353.527 9.3395 353.572 9.31726 353.616 9.29509C353.86 9.16208 353.971 9.0402 353.96 8.91827C353.949 8.79634 353.816 8.68556 353.583 8.56364C353.35 8.45279 353.029 8.34191 352.619 8.24215C352.208 8.14239 351.721 8.04263 351.166 7.95395C350.801 7.89853 350.402 7.83198 349.98 7.76547C349.548 7.69897 349.083 7.63253 348.584 7.55494C348.085 7.47735 347.542 7.41076 346.966 7.33317C346.389 7.25559 345.768 7.16694 345.114 7.08936L337.954 9.1399Z" fill="#008056"/>
<path d="M281.568 6.84583C280.77 7.20052 280.737 7.53308 281.191 7.84343C281.646 8.15379 282.588 8.43089 283.763 8.67474C284.938 8.9186 286.346 9.14022 287.709 9.30648C289.083 9.48383 290.402 9.61682 291.422 9.7055C292.22 9.772 293.162 9.84965 294.138 9.90507C295.113 9.97158 296.111 10.027 297.02 10.0825C297.929 10.1379 298.727 10.1711 299.314 10.2044C299.89 10.2376 300.245 10.2486 300.245 10.2486L306.131 7.89877C306.131 7.89877 305.721 7.82127 305.078 7.71043C304.424 7.59959 303.526 7.43331 302.54 7.27813C301.553 7.11187 300.489 6.94554 299.48 6.80145C298.483 6.65736 297.541 6.53552 296.831 6.4801C294.725 6.30275 292.841 6.19185 291.178 6.13643C289.505 6.08101 288.053 6.08098 286.811 6.11424C285.57 6.14749 284.528 6.23626 283.697 6.3471C282.865 6.45794 282.244 6.60203 281.823 6.75721C281.801 6.76829 281.779 6.77926 281.757 6.77926C281.735 6.79034 281.712 6.80145 281.69 6.80145C281.668 6.81253 281.646 6.82364 281.635 6.82364C281.602 6.82364 281.579 6.83475 281.568 6.84583Z" fill="#008056"/>
<path d="M304.436 10.4923C305.145 10.5588 305.832 10.6141 306.475 10.6696C307.129 10.725 307.739 10.7693 308.326 10.8137C308.914 10.858 309.457 10.9023 309.978 10.9356C310.499 10.9688 310.975 11.0022 311.43 11.0243C312.239 11.0687 313.048 11.1019 313.824 11.1129C314.6 11.124 315.353 11.1019 316.063 11.0576C316.761 11.0133 317.415 10.9467 318.003 10.8358C318.579 10.7361 319.089 10.592 319.51 10.4257C319.532 10.4147 319.543 10.4146 319.565 10.4035C319.588 10.3925 319.599 10.3924 319.61 10.3814C319.621 10.3703 319.643 10.3704 319.654 10.3593C319.665 10.3482 319.687 10.3482 319.698 10.3371C320.02 10.1819 320.197 10.0156 320.23 9.84934C320.264 9.68308 320.175 9.52797 319.942 9.37279C319.71 9.21762 319.355 9.08462 318.867 8.97378C318.379 8.86294 317.77 8.76319 317.038 8.70777C316.273 8.64127 315.453 8.5858 314.655 8.51929C313.857 8.46387 313.081 8.40844 312.394 8.37519C311.718 8.33086 311.13 8.29764 310.709 8.27547C310.299 8.2533 310.044 8.24219 310.044 8.24219L304.436 10.4923Z" fill="#008056"/>
<path d="M363.137 11.057C362.849 11.2122 362.738 11.3784 362.827 11.5668C362.915 11.7552 363.204 11.9659 363.747 12.1765C364.29 12.3982 365.066 12.6308 366.141 12.8747C367.216 13.1185 368.568 13.3735 370.242 13.6396C370.896 13.7393 371.96 13.8613 373.19 13.9721C374.421 14.0941 375.806 14.2048 377.114 14.3157C378.422 14.4265 379.652 14.5152 380.561 14.5817C381.459 14.6482 382.036 14.6925 382.036 14.6925L390.171 12.5533C390.171 12.5533 389.905 12.4979 389.473 12.4092C389.041 12.3206 388.42 12.1875 387.722 12.0545C387.012 11.9104 386.225 11.7664 385.416 11.6112C384.618 11.4671 383.809 11.3229 383.066 11.212C382.102 11.068 380.75 10.8796 379.176 10.7133C377.602 10.5471 375.817 10.3808 373.988 10.281C372.16 10.1813 370.297 10.137 368.557 10.2146C366.828 10.2811 365.221 10.4585 363.913 10.791C363.835 10.8131 363.758 10.8352 363.68 10.8574C363.603 10.8796 363.536 10.9018 363.47 10.924C363.403 10.9462 363.348 10.9683 363.292 10.9904C363.237 11.0126 363.181 11.0348 363.137 11.057Z" fill="#008056"/>
<path d="M385.704 15.258C385.704 15.258 385.893 15.3025 386.225 15.3579C386.558 15.4244 387.023 15.5131 387.588 15.6239C388.154 15.7347 388.808 15.8455 389.495 15.9674C390.182 16.0894 390.914 16.2114 391.634 16.3222C392.355 16.433 393.164 16.4995 394.017 16.5327C394.871 16.566 395.769 16.566 396.633 16.5216C397.509 16.4884 398.351 16.422 399.127 16.3222C399.892 16.2225 400.579 16.1004 401.122 15.9563C401.244 15.9231 401.344 15.8899 401.444 15.8677C401.543 15.8345 401.632 15.8013 401.721 15.7791C401.809 15.7458 401.876 15.7125 401.942 15.6903C402.009 15.6571 402.064 15.6239 402.12 15.6017C402.33 15.4798 402.408 15.3468 402.386 15.2249C402.364 15.103 402.22 14.981 401.998 14.8701C401.765 14.7593 401.455 14.6374 401.056 14.5266C400.657 14.4157 400.191 14.3159 399.67 14.2162C399.304 14.1497 398.905 14.072 398.473 13.9944C398.041 13.9168 397.564 13.8393 397.054 13.7506C396.544 13.6619 395.99 13.5733 395.414 13.4846C394.826 13.3959 394.206 13.2961 393.541 13.1853L385.704 15.258Z" fill="#008056"/>
<path d="M327.59 11.9439C326.892 12.2875 326.903 12.6312 327.38 12.9526C327.856 13.2741 328.798 13.5733 329.951 13.8504C331.115 14.1275 332.489 14.3603 333.819 14.5709C335.161 14.7704 336.457 14.9367 337.466 15.0364C338.275 15.1251 339.24 15.2138 340.226 15.2914C341.224 15.38 342.243 15.4576 343.163 15.5241C344.083 15.5906 344.915 15.6571 345.502 15.6904C346.101 15.7347 346.455 15.7569 346.455 15.7569L352.973 13.3627C352.973 13.3627 352.574 13.2741 351.92 13.1411C351.266 13.0081 350.379 12.8196 349.393 12.6311C348.406 12.4427 347.331 12.2432 346.333 12.0658C345.325 11.8996 344.383 11.7555 343.662 11.6779C341.523 11.4562 339.594 11.301 337.887 11.2123C336.18 11.1237 334.673 11.0904 333.387 11.1126C332.09 11.1348 331.015 11.2013 330.139 11.3011C329.264 11.4008 328.599 11.5449 328.133 11.7112C328.078 11.7334 328.033 11.7444 327.978 11.7665C327.934 11.7887 327.878 11.7998 327.845 11.822C327.801 11.8442 327.756 11.8553 327.723 11.8775C327.668 11.9107 327.623 11.9328 327.59 11.9439Z" fill="#008056"/>
<path d="M350.722 16.1005C351.454 16.1781 352.152 16.2558 352.817 16.3223C353.482 16.3888 354.114 16.4552 354.701 16.5106C355.3 16.566 355.854 16.6215 356.386 16.6658C356.918 16.7102 357.417 16.7545 357.871 16.7877C358.703 16.8542 359.534 16.8986 360.332 16.9207C361.141 16.9429 361.917 16.9429 362.649 16.8985C363.38 16.8653 364.067 16.7989 364.699 16.6991C365.32 16.5993 365.874 16.4663 366.34 16.289C366.384 16.2779 366.417 16.2557 366.462 16.2446C366.495 16.2335 366.539 16.2113 366.573 16.2002C366.606 16.1892 366.639 16.1671 366.672 16.156C366.706 16.1449 366.739 16.1227 366.761 16.1116C367.038 15.9564 367.193 15.7902 367.215 15.624C367.238 15.4577 367.138 15.2914 366.905 15.1473C366.672 14.9921 366.329 14.848 365.852 14.7261C365.387 14.6042 364.799 14.5044 364.09 14.4268C363.314 14.3492 362.471 14.2606 361.662 14.1941C360.853 14.1165 360.055 14.0499 359.357 13.9945C358.658 13.9391 358.06 13.8947 357.639 13.8615C357.217 13.8282 356.963 13.8062 356.963 13.8062L350.722 16.1005Z" fill="#008056"/>
<path d="M411.308 18.0294C411.053 18.1846 410.953 18.3619 411.042 18.5614C411.131 18.7609 411.397 18.9827 411.895 19.2155C412.394 19.4482 413.104 19.7031 414.079 19.9802C415.055 20.2573 416.285 20.5455 417.814 20.8448C418.457 20.9778 419.51 21.133 420.741 21.2882C421.971 21.4545 423.368 21.6206 424.687 21.7647C426.006 21.9199 427.247 22.053 428.167 22.1528C429.076 22.2525 429.663 22.3078 429.663 22.3078L439.074 20.2573C439.074 20.2573 438.83 20.1908 438.409 20.0799C437.988 19.9691 437.411 19.814 436.735 19.6478C436.059 19.4815 435.305 19.2929 434.529 19.1156C433.765 18.9383 432.978 18.761 432.268 18.628C431.326 18.4395 429.985 18.2068 428.422 17.9851C426.859 17.7524 425.063 17.5417 423.201 17.3754C421.339 17.2203 419.422 17.1206 417.582 17.1427C415.753 17.1649 414.001 17.3089 412.505 17.6193C412.372 17.6525 412.25 17.6748 412.139 17.708C412.029 17.7413 411.918 17.7745 411.818 17.8077C411.718 17.841 411.629 17.8742 411.552 17.9075C411.441 17.9518 411.363 17.9961 411.308 18.0294Z" fill="#008056"/>
<path d="M433.222 23.0283C433.222 23.0283 433.4 23.0727 433.721 23.1613C434.042 23.2389 434.486 23.3498 435.029 23.4828C435.572 23.6158 436.193 23.7599 436.858 23.9151C437.523 24.0703 438.232 24.2144 438.931 24.3585C439.629 24.5026 440.46 24.5912 441.336 24.6577C442.211 24.7131 443.154 24.7353 444.085 24.7242C445.016 24.7132 445.936 24.6688 446.778 24.5801C447.621 24.5025 448.396 24.3917 449.028 24.2476C449.206 24.2032 449.372 24.17 449.527 24.1256C449.671 24.0813 449.815 24.0481 449.926 24.0037C450.048 23.9594 450.148 23.9151 450.236 23.8818C450.325 23.8375 450.403 23.7932 450.458 23.7488C450.624 23.6269 450.691 23.505 450.658 23.3942C450.624 23.2723 450.502 23.1503 450.303 23.0283C450.103 22.9064 449.815 22.7845 449.472 22.6737C449.128 22.5518 448.707 22.4409 448.252 22.33C447.909 22.2413 447.521 22.1527 447.1 22.064C446.678 21.9643 446.213 21.8645 445.725 21.7647C445.226 21.6539 444.694 21.5431 444.118 21.4323C443.542 21.3103 442.932 21.1883 442.289 21.0664L433.222 23.0283Z" fill="#008056"/>
<path d="M374.022 18.0293C373.423 18.3729 373.456 18.7166 373.911 19.0491C374.365 19.3817 375.23 19.7142 376.294 20.0134C377.358 20.3127 378.622 20.6009 379.852 20.8337C381.082 21.0664 382.29 21.266 383.233 21.4101C384.02 21.5209 384.973 21.6428 385.959 21.7647C386.946 21.8866 387.966 21.9975 388.897 22.0973C389.817 22.197 390.648 22.2857 391.246 22.3411C391.845 22.4076 392.211 22.4408 392.211 22.4408L400.014 20.0799C400.014 20.0799 399.637 19.9801 399.016 19.8139C398.396 19.6476 397.553 19.4371 396.611 19.2043C395.68 18.9716 394.649 18.7277 393.685 18.5171C392.721 18.3065 391.812 18.1291 391.091 18.0293C388.985 17.7301 387.068 17.5195 385.339 17.3754C383.609 17.2313 382.08 17.1649 380.739 17.1427C379.397 17.1316 378.256 17.1648 377.303 17.2535C376.349 17.3422 375.607 17.4641 375.052 17.6303C374.942 17.6636 374.831 17.6968 374.731 17.73C374.631 17.7633 374.543 17.7966 374.454 17.8299C374.365 17.8631 374.288 17.8964 374.221 17.9296C374.144 17.9629 374.077 17.9961 374.022 18.0293Z" fill="#008056"/>
<path d="M396.479 22.9286C397.199 23.0283 397.886 23.1281 398.54 23.2168C399.194 23.3054 399.815 23.3941 400.413 23.4717C401.001 23.5493 401.566 23.6157 402.098 23.6822C402.63 23.7487 403.118 23.8042 403.583 23.8596C404.415 23.9483 405.257 24.0259 406.077 24.0703C406.909 24.1146 407.718 24.1367 408.494 24.1145C409.27 24.1034 410.023 24.048 410.711 23.9593C411.398 23.8706 412.041 23.7377 412.606 23.5714C412.695 23.5381 412.783 23.516 412.872 23.4828C412.95 23.4495 413.027 23.4274 413.105 23.3941C413.171 23.3609 413.238 23.3275 413.304 23.2943C413.371 23.261 413.426 23.2278 413.47 23.1946C413.703 23.0394 413.836 22.8842 413.858 22.729C413.881 22.5738 413.792 22.4076 413.592 22.2635C413.393 22.1084 413.094 21.9643 412.672 21.8423C412.262 21.7093 411.73 21.5984 411.099 21.5098C410.323 21.3989 409.491 21.288 408.682 21.1883C407.873 21.0885 407.075 20.9888 406.377 20.9112C405.678 20.8336 405.08 20.7672 404.648 20.7228C404.215 20.6785 403.971 20.6562 403.971 20.6562L396.479 22.9286Z" fill="#008056"/>
<path d="M458.682 27.1295C458.461 27.2846 458.361 27.4731 458.416 27.6837C458.461 27.8943 458.66 28.127 459.037 28.3709C459.403 28.6258 459.957 28.9029 460.7 29.2022C461.442 29.5015 462.396 29.8229 463.559 30.1776C464.125 30.3439 465.1 30.5544 466.242 30.7872C467.395 31.0199 468.714 31.2638 469.955 31.4855C471.208 31.7071 472.393 31.9067 473.258 32.0619C474.134 32.206 474.688 32.2946 474.688 32.2946L486.337 30.5766C486.337 30.5766 486.127 30.4879 485.783 30.3549C485.44 30.2219 484.941 30.0223 484.376 29.8117C483.81 29.6011 483.156 29.3684 482.491 29.1356C481.826 28.9139 481.15 28.6923 480.518 28.5039C479.687 28.26 478.49 27.9497 477.038 27.6393C475.586 27.3289 473.901 27.0074 472.083 26.7525C470.276 26.4976 468.337 26.3092 466.408 26.2427C464.479 26.1873 462.54 26.2538 460.711 26.5198C460.478 26.553 460.256 26.5973 460.046 26.6306C459.835 26.6749 459.647 26.7193 459.48 26.7747C459.303 26.8301 459.159 26.8856 459.015 26.941C458.893 26.9964 458.782 27.063 458.682 27.1295Z" fill="#008056"/>
<path d="M477.869 33.2256C477.869 33.2256 478.024 33.2809 478.29 33.3807C478.556 33.4804 478.933 33.6247 479.388 33.7909C479.842 33.9572 480.385 34.1456 480.962 34.334C481.538 34.5225 482.159 34.7219 482.779 34.9103C483.389 35.0876 484.165 35.2317 485.041 35.3426C485.916 35.4534 486.881 35.52 487.867 35.5533C488.854 35.5865 489.873 35.5754 490.827 35.5311C491.791 35.4867 492.7 35.4092 493.487 35.2873C493.808 35.2429 494.096 35.1875 494.351 35.1321C494.606 35.0766 494.828 35.0212 495.016 34.9658C495.205 34.9103 495.371 34.8438 495.504 34.7884C495.637 34.7219 495.737 34.6665 495.814 34.6C495.947 34.4892 495.992 34.3783 495.981 34.2675C495.97 34.1566 495.892 34.0348 495.748 33.9239C495.615 33.802 495.415 33.6911 495.172 33.5692C494.928 33.4472 494.628 33.3253 494.296 33.2034C493.997 33.0926 493.675 32.9817 493.309 32.8597C492.944 32.7378 492.545 32.6048 492.112 32.4718C491.68 32.3388 491.214 32.1836 490.705 32.0395C490.195 31.8844 489.652 31.7293 489.075 31.563L477.869 33.2256Z" fill="#008056"/>
<path d="M419.933 25.4554C419.445 25.7768 419.445 26.1203 419.788 26.475C420.132 26.8297 420.797 27.1734 421.639 27.517C422.471 27.8495 423.479 28.1709 424.466 28.448C425.452 28.7251 426.439 28.969 427.226 29.1353C427.946 29.2904 428.844 29.4679 429.764 29.6341C430.684 29.8004 431.648 29.9777 432.524 30.1218C433.4 30.2659 434.176 30.3988 434.741 30.4875C435.306 30.5762 435.65 30.6316 435.65 30.6316L445.692 28.5146C445.692 28.5146 445.382 28.3926 444.883 28.1931C444.373 27.9936 443.675 27.7275 442.899 27.4393C442.123 27.1512 441.258 26.852 440.438 26.586C439.607 26.32 438.82 26.0871 438.155 25.9541C436.226 25.544 434.42 25.2226 432.757 24.9898C431.094 24.757 429.576 24.6129 428.212 24.5353C426.849 24.4577 425.63 24.4467 424.588 24.4911C423.546 24.5354 422.659 24.6352 421.972 24.7792C421.717 24.8347 421.495 24.8789 421.285 24.9343C421.074 24.9897 420.886 25.0452 420.72 25.1006C420.553 25.156 420.409 25.2115 420.276 25.278C420.143 25.3334 420.032 25.3999 419.933 25.4554Z" fill="#008056"/>
<path d="M439.64 31.3522C440.305 31.4963 440.936 31.6293 441.535 31.7623C442.145 31.8953 442.721 32.0062 443.264 32.1171C443.807 32.2279 444.328 32.3276 444.827 32.4273C445.315 32.516 445.78 32.6048 446.224 32.6824C447.011 32.8154 447.82 32.9372 448.64 33.0259C449.46 33.1146 450.292 33.17 451.112 33.1922C451.932 33.2144 452.752 33.1921 453.55 33.1367C454.348 33.0813 455.124 32.9706 455.856 32.8154C456.077 32.771 456.277 32.7156 456.454 32.6713C456.643 32.6159 456.809 32.5604 456.964 32.505C457.119 32.4496 457.252 32.383 457.374 32.3276C457.496 32.2611 457.596 32.2056 457.685 32.1391C457.862 32.0061 457.973 31.862 457.995 31.729C458.017 31.596 457.973 31.4519 457.829 31.3078C457.696 31.1748 457.474 31.0418 457.175 30.9088C456.875 30.7869 456.476 30.665 456 30.5653C455.279 30.4101 454.503 30.2549 453.739 30.1108C452.974 29.9667 452.231 29.8226 451.566 29.7118C450.912 29.5898 450.347 29.5011 449.937 29.4236C449.538 29.3571 449.294 29.3127 449.294 29.3127L439.64 31.3522Z" fill="#008056"/>
<path d="M500.392 39.5987C500.203 39.7649 500.081 39.9423 500.048 40.1418C500.004 40.3413 500.048 40.5629 500.17 40.8179C500.292 41.0617 500.514 41.3277 500.835 41.6159C501.156 41.9041 501.578 42.2144 502.11 42.558C502.442 42.7686 503.14 43.0679 504.005 43.3894C504.859 43.7108 505.878 44.0655 506.865 44.3981C507.851 44.7306 508.793 45.0299 509.481 45.2405C510.179 45.4621 510.633 45.5951 510.633 45.5951L525.342 44.7527C525.342 44.7527 525.253 44.6529 525.087 44.4867C524.921 44.3204 524.688 44.0877 524.411 43.8217C524.123 43.5556 523.801 43.2674 523.436 42.9792C523.081 42.6911 522.693 42.414 522.294 42.1812C521.773 41.8709 520.975 41.4496 519.911 41.0173C518.858 40.585 517.55 40.1196 516.02 39.7206C514.502 39.3215 512.762 38.9668 510.833 38.7562C508.904 38.5456 506.787 38.4569 504.493 38.59C504.016 38.6121 503.573 38.6564 503.152 38.7119C502.73 38.7673 502.342 38.8337 501.988 38.9224C501.633 39.0111 501.323 39.0998 501.057 39.2217C500.78 39.3325 500.558 39.4546 500.392 39.5987Z" fill="#008056"/>
<path d="M512.529 46.814C512.529 46.814 512.596 46.8915 512.729 47.0134C512.862 47.1353 513.05 47.3126 513.283 47.5122C513.516 47.7228 513.804 47.9556 514.125 48.1995C514.447 48.4434 514.802 48.6982 515.178 48.931C515.555 49.1637 516.165 49.3744 516.919 49.5628C517.683 49.7402 518.592 49.8952 519.579 50.0061C520.576 50.1169 521.64 50.1946 522.716 50.2279C523.791 50.2611 524.866 50.25 525.875 50.1946C526.495 50.1613 527.039 50.1059 527.526 50.0505C528.003 49.995 528.413 49.9175 528.757 49.8399C529.1 49.7623 529.388 49.6737 529.61 49.5739C529.832 49.4742 529.998 49.3744 530.109 49.2635C530.198 49.1749 530.253 49.0973 530.275 48.9975C530.297 48.9089 530.297 48.8091 530.275 48.7204C530.253 48.6207 530.198 48.5209 530.12 48.4211C530.042 48.3214 529.954 48.2216 529.832 48.1107C529.677 47.9777 529.488 47.8336 529.289 47.6673C529.078 47.5122 528.856 47.346 528.601 47.1686C528.346 46.9913 528.069 46.8028 527.759 46.6033C527.449 46.4038 527.116 46.1933 526.761 45.9827L512.529 46.814Z" fill="#008056"/>
<path d="M462.894 34.9547C462.495 35.2539 462.395 35.5865 462.484 35.9301C462.573 36.2737 462.861 36.6284 463.26 36.961C463.659 37.3046 464.169 37.626 464.701 37.9253C465.233 38.2245 465.787 38.4794 466.264 38.69C466.763 38.9006 467.417 39.1445 468.104 39.3883C468.802 39.6322 469.534 39.876 470.21 40.0977C470.886 40.3194 471.507 40.5078 471.95 40.6408C472.393 40.7739 472.67 40.8625 472.67 40.8625L485.994 39.488C485.994 39.488 485.861 39.3329 485.628 39.089C485.395 38.8452 485.074 38.5238 484.697 38.1691C484.32 37.8144 483.877 37.4376 483.411 37.1051C482.957 36.7725 482.469 36.4733 482.003 36.2848C480.618 35.7195 479.221 35.254 477.858 34.8993C476.494 34.5446 475.142 34.2785 473.856 34.0901C472.571 33.9127 471.34 33.8131 470.21 33.7798C469.079 33.7466 468.026 33.7798 467.117 33.8795C466.541 33.935 466.02 34.0014 465.565 34.079C465.111 34.1566 464.712 34.2453 464.357 34.334C464.014 34.4227 463.714 34.5223 463.471 34.6332C463.249 34.7219 463.049 34.8327 462.894 34.9547Z" fill="#008056"/>
<path d="M475.752 41.8822C476.217 42.0817 476.661 42.2701 477.093 42.4475C477.525 42.6248 477.947 42.791 478.346 42.9462C478.745 43.1014 479.133 43.2455 479.51 43.3785C479.886 43.5115 480.241 43.6336 480.574 43.7555C481.183 43.955 481.848 44.1434 482.569 44.2986C483.289 44.4538 484.054 44.5756 484.874 44.6643C485.694 44.753 486.559 44.7973 487.468 44.7973C488.377 44.7973 489.33 44.753 490.317 44.6421C490.815 44.5867 491.292 44.5203 491.713 44.4427C492.145 44.3651 492.533 44.2763 492.877 44.1876C493.221 44.0879 493.52 43.9882 493.764 43.8774C494.008 43.7665 494.207 43.6556 494.34 43.5337C494.451 43.434 494.529 43.3453 494.562 43.2455C494.595 43.1458 494.595 43.046 494.551 42.9462C494.506 42.8465 494.418 42.7468 494.285 42.6471C494.152 42.5473 493.974 42.4475 493.742 42.3589C493.232 42.1483 492.655 41.9265 492.079 41.7159C491.503 41.5053 490.937 41.3058 490.427 41.1395C489.918 40.9732 489.474 40.8293 489.164 40.7184C488.853 40.6187 488.654 40.5632 488.654 40.5632L475.752 41.8822Z" fill="#008056"/>
<path d="M526.152 57.2898C526.063 57.3785 525.975 57.4782 525.886 57.578C525.808 57.6778 525.731 57.7775 525.653 57.8884C525.587 57.9992 525.52 58.11 525.465 58.2208C525.409 58.3317 525.354 58.4537 525.31 58.5756C525.221 58.8195 525.343 59.1851 525.553 59.5953C525.775 60.0054 526.097 60.4599 526.44 60.8811C526.784 61.3023 527.127 61.7013 527.393 61.9895C527.659 62.2777 527.848 62.4662 527.848 62.4662L544.707 63.3528C544.707 63.3528 544.729 63.3307 544.773 63.2975C544.818 63.2531 544.873 63.1977 544.94 63.1312C545.006 63.0647 545.095 62.976 545.195 62.8763C545.283 62.7765 545.394 62.6656 545.494 62.5548C545.627 62.3996 545.771 62.2444 545.915 62.067C546.059 61.9007 546.192 61.7234 546.325 61.5461C546.447 61.3687 546.569 61.1914 546.658 61.0141C546.746 60.8367 546.824 60.6705 546.868 60.5264C546.968 60.1606 546.99 59.6729 546.791 59.1298C546.591 58.5867 546.181 57.9992 545.427 57.4339C544.674 56.8686 543.587 56.3477 542.024 55.9154C540.473 55.4942 538.455 55.1838 535.828 55.0508C534.875 55.0064 533.911 55.0065 532.969 55.0619C532.027 55.1173 531.107 55.2282 530.253 55.4055C529.4 55.5829 528.602 55.8266 527.903 56.137C527.205 56.4363 526.606 56.8243 526.152 57.2898Z" fill="#008056"/>
<path d="M527.371 63.8408C527.371 63.8408 527.294 63.9183 527.183 64.0514C527.061 64.1844 526.906 64.3728 526.728 64.5945C526.551 64.8162 526.374 65.0711 526.207 65.3483C526.041 65.6143 525.897 65.9024 525.808 66.1685C525.709 66.4345 525.897 66.7116 526.307 66.9665C526.717 67.2325 527.338 67.4764 528.125 67.6981C528.912 67.9198 529.854 68.1193 530.885 68.2745C531.916 68.4297 533.046 68.5515 534.199 68.6069C535.418 68.6734 536.483 68.6846 537.414 68.6402C538.345 68.5959 539.143 68.5072 539.808 68.3742C540.484 68.2412 541.027 68.075 541.459 67.8644C541.892 67.6649 542.224 67.4321 542.446 67.1772C542.457 67.1661 542.457 67.155 542.468 67.155C542.479 67.1439 542.479 67.1328 542.49 67.1328C542.501 67.1217 542.501 67.1106 542.512 67.1106C542.523 67.0995 542.523 67.0884 542.534 67.0884C542.656 66.9443 542.767 66.7781 542.878 66.6119C542.989 66.4345 543.089 66.2572 543.188 66.0577C543.288 65.8581 543.377 65.6475 543.466 65.4147C543.554 65.193 543.632 64.9491 543.698 64.6942L527.371 63.8408Z" fill="#008056"/>
<path d="M491.414 48.3442C491.159 48.5659 490.959 48.7877 490.815 49.0204C490.671 49.2421 490.56 49.4638 490.494 49.6855C490.427 49.8961 490.405 50.1066 490.394 50.295C490.394 50.4834 490.416 50.6609 490.461 50.805C490.527 51.0599 490.693 51.3702 490.893 51.6694C491.092 51.9798 491.336 52.2902 491.569 52.5673C491.802 52.8444 492.023 53.0994 492.19 53.2767C492.356 53.4541 492.467 53.5649 492.467 53.5649L508.583 53.7201C508.583 53.7201 508.583 53.7201 508.594 53.709C508.594 53.709 508.605 53.6979 508.616 53.6868C508.628 53.6757 508.639 53.6646 508.65 53.6535C508.661 53.6425 508.672 53.6313 508.694 53.6092C508.816 53.4872 509.049 53.2656 509.326 52.9885C509.592 52.7114 509.902 52.3789 510.19 52.0353C510.479 51.6917 510.733 51.3369 510.9 51.0155C511.066 50.6941 511.144 50.4059 511.066 50.1953C510.822 49.497 510.346 48.9095 509.703 48.4218C509.06 47.9341 508.24 47.5351 507.32 47.2137C506.4 46.9034 505.38 46.6706 504.305 46.5265C503.241 46.3713 502.121 46.2936 501.024 46.2936C499.627 46.2826 498.408 46.338 497.355 46.4377C496.291 46.5375 495.393 46.6927 494.617 46.8811C493.841 47.0696 493.209 47.2912 492.688 47.5462C492.156 47.79 491.735 48.056 491.414 48.3442Z" fill="#008056"/>
<path d="M493.453 54.884C493.52 55.1279 493.597 55.3496 493.675 55.5712C493.752 55.7818 493.841 55.9925 493.93 56.1809C494.018 56.3694 494.118 56.5467 494.218 56.724C494.318 56.8903 494.429 57.0455 494.539 57.1896C494.728 57.4556 495.027 57.6994 495.426 57.9211C495.825 58.1428 496.346 58.3534 496.978 58.5197C497.621 58.697 498.386 58.83 499.283 58.9298C500.192 59.0295 501.234 59.0961 502.431 59.1072C503.351 59.1183 504.249 59.0849 505.103 59.0295C505.956 58.9741 506.754 58.8854 507.464 58.7635C508.173 58.6527 508.794 58.5086 509.292 58.3423C509.791 58.176 510.157 57.9987 510.356 57.7992C510.401 57.7659 510.434 57.7216 510.456 57.6773C510.489 57.6329 510.501 57.5997 510.523 57.5554C510.534 57.511 510.545 57.4778 510.545 57.4334C510.545 57.3891 510.534 57.3448 510.523 57.3115C510.434 57.0566 510.29 56.7795 510.135 56.5135C509.98 56.2475 509.802 55.9925 509.636 55.7819C509.47 55.5602 509.315 55.3718 509.204 55.2388C509.093 55.1058 509.026 55.0281 509.026 55.0281L493.453 54.884Z" fill="#008056"/>
<path d="M505.025 79.7346L519.734 82.816C519.734 82.816 520.1 82.7384 520.687 82.5943C521.275 82.4502 522.095 82.2617 522.993 82.029C523.891 81.8073 524.888 81.5524 525.83 81.2864C526.772 81.0315 527.67 80.7654 528.38 80.5326C528.834 80.3774 529.355 80.189 529.876 79.9784C530.408 79.7678 530.951 79.5239 531.472 79.269C531.993 79.0141 532.492 78.737 532.924 78.4488C533.356 78.1606 533.733 77.8614 533.999 77.5621C534.277 77.2518 534.454 76.9413 534.487 76.631C534.52 76.3206 534.41 76.0103 534.11 75.711C533.811 75.4118 533.345 75.1235 532.647 74.8464C531.949 74.5693 531.029 74.3145 529.854 74.0817C528.834 73.8711 527.626 73.7381 526.285 73.6716C524.944 73.6162 523.458 73.6383 521.873 73.7602C520.288 73.8821 518.592 74.1149 516.819 74.4585C515.045 74.8132 513.194 75.2788 511.299 75.8995C510.656 76.1101 509.947 76.4537 509.237 76.8527C508.528 77.2518 507.83 77.7062 507.209 78.1274C506.588 78.5597 506.034 78.9586 505.646 79.2579C505.258 79.535 505.025 79.7346 505.025 79.7346Z" fill="#008056"/>
<path d="M493.52 83.3823C493.298 83.604 493.22 83.8477 493.298 84.0916C493.375 84.3354 493.586 84.5793 493.93 84.8231C494.273 85.067 494.75 85.2998 495.326 85.5215C495.914 85.7431 496.601 85.9427 497.399 86.1089C498.474 86.3417 499.527 86.4859 500.569 86.5745C501.611 86.6632 502.631 86.6853 503.606 86.6521C504.593 86.6188 505.546 86.5302 506.455 86.3971C507.364 86.2641 508.228 86.0868 509.037 85.8762C509.481 85.7543 509.957 85.6323 510.456 85.4882C510.955 85.3441 511.476 85.2001 512.03 85.0338C512.584 84.8676 513.15 84.6902 513.748 84.5018C514.347 84.3134 514.967 84.1027 515.61 83.8921L501.434 80.9104C501.434 80.9104 501.19 80.9658 500.769 81.0767C500.358 81.1764 499.771 81.3316 499.106 81.509C498.43 81.6863 497.676 81.897 496.911 82.1076C496.146 82.3293 495.371 82.562 494.661 82.7948C494.528 82.8391 494.395 82.8835 494.284 82.9389C494.162 82.9832 494.063 83.0387 493.963 83.083C493.863 83.1384 493.786 83.1828 493.708 83.2382C493.641 83.2714 493.575 83.3269 493.52 83.3823Z" fill="#008056"/>
<path d="M491.448 67.5866L506.866 69.8034C506.866 69.8034 507.409 69.6814 508.24 69.4819C509.072 69.2824 510.202 69.0054 511.388 68.7061C512.574 68.4068 513.805 68.0742 514.869 67.7638C515.922 67.4535 516.797 67.1653 517.252 66.9325C517.562 66.7773 517.839 66.6333 518.094 66.4893C518.349 66.3452 518.582 66.201 518.792 66.057C519.003 65.9129 519.191 65.7799 519.358 65.6468C519.524 65.5138 519.668 65.3918 519.79 65.2588C520.211 64.8376 520.388 64.4497 520.377 64.1061C520.366 63.7625 520.167 63.4632 519.812 63.1861C519.457 62.92 518.948 62.6873 518.327 62.4988C517.706 62.3104 516.963 62.1553 516.143 62.0445C513.716 61.712 511.399 61.6343 509.238 61.7341C507.076 61.8339 505.081 62.0999 503.297 62.4435C501.512 62.7982 499.938 63.2194 498.652 63.6516C497.356 64.0728 496.336 64.4941 495.671 64.8155C495.161 65.0594 494.64 65.3476 494.152 65.6579C493.665 65.9572 493.199 66.2786 492.8 66.5557C492.401 66.8439 492.068 67.0988 491.836 67.2762C491.581 67.4757 491.448 67.5866 491.448 67.5866Z" fill="#008056"/>
<path d="M485.03 71.444C484.775 71.6767 484.642 71.9095 484.631 72.1312C484.62 72.3529 484.753 72.5745 485.03 72.7851C485.318 72.9957 485.762 73.1953 486.382 73.3726C487.003 73.561 487.812 73.7273 488.832 73.8824C489.874 74.0376 491.015 74.1374 492.179 74.1928C493.332 74.2482 494.507 74.2483 495.604 74.2039C496.702 74.1596 497.732 74.0598 498.608 73.9157C499.484 73.7716 500.204 73.5721 500.692 73.3282C501.191 73.0844 501.667 72.8184 502.1 72.5524C502.532 72.2975 502.931 72.0425 503.263 71.8208C503.596 71.5991 503.873 71.4107 504.062 71.2777C504.25 71.1447 504.35 71.067 504.35 71.067L489.475 68.9167C489.009 69.1384 488.577 69.3601 488.178 69.5596C487.779 69.7591 487.413 69.9586 487.081 70.1471C486.748 70.3355 486.449 70.5017 486.172 70.668C485.895 70.8343 485.662 70.9895 485.451 71.1336C485.407 71.1558 485.374 71.1889 485.329 71.2111C485.296 71.2333 485.252 71.2666 485.219 71.2888C485.185 71.3109 485.152 71.3441 485.119 71.3663C485.085 71.3885 485.052 71.4107 485.03 71.444Z" fill="#008056"/>
<path d="M439.307 89.4665L444.993 94.1884C444.993 94.1884 445.514 94.1773 446.39 94.1551C447.254 94.1329 448.463 94.0996 449.826 94.0663C451.189 94.022 452.697 93.9778 454.182 93.9113C455.656 93.8448 457.108 93.7782 458.328 93.7006C459.602 93.6119 461.221 93.4789 462.95 93.3016C464.679 93.1242 466.53 92.8915 468.281 92.6144C470.032 92.3373 471.684 92.0047 473.025 91.6279C474.366 91.251 475.397 90.8187 475.896 90.331C476.029 90.209 476.118 90.0761 476.184 89.9541C476.24 89.8211 476.262 89.6881 476.24 89.5551C476.217 89.4221 476.151 89.278 476.051 89.1339C475.94 88.9898 475.785 88.8457 475.586 88.6905C475.153 88.3691 474.4 88.0699 473.324 87.815C472.249 87.56 470.831 87.3494 469.079 87.2164C467.328 87.0723 465.222 87.0057 462.75 87.0168C460.278 87.0279 457.452 87.1388 454.226 87.3494C453.14 87.427 451.666 87.5933 450.07 87.8039C448.474 88.0145 446.745 88.2804 445.149 88.5242C443.552 88.7681 442.089 89.0121 441.036 89.1894C439.972 89.3557 439.307 89.4665 439.307 89.4665Z" fill="#008056"/>
<path d="M417.571 91.7826C417.416 91.9046 417.294 92.0375 417.217 92.1706C417.128 92.3036 417.083 92.4366 417.072 92.5696C417.061 92.7026 417.095 92.8467 417.161 92.9797C417.228 93.1127 417.338 93.2568 417.483 93.3898C417.859 93.7334 418.425 94.0216 419.112 94.2433C419.81 94.4761 420.642 94.6423 421.584 94.7642C422.526 94.8861 423.568 94.9638 424.676 94.9971C425.785 95.0303 426.959 95.0192 428.168 94.9749C428.833 94.9527 429.553 94.9195 430.329 94.8863C431.105 94.853 431.925 94.8086 432.812 94.7642C433.688 94.7199 434.63 94.6646 435.616 94.5981C436.603 94.5426 437.645 94.4761 438.731 94.3985L433.355 89.854C433.355 89.854 432.989 89.8651 432.38 89.8873C431.77 89.9095 430.905 89.9427 429.886 89.9759C428.877 90.0203 427.724 90.0646 426.527 90.12C425.33 90.1754 424.111 90.2531 422.947 90.3196C422.282 90.3639 421.672 90.4304 421.107 90.519C420.542 90.6077 420.032 90.7186 419.577 90.8405C419.123 90.9624 418.724 91.1065 418.38 91.2617C418.07 91.4391 417.793 91.6053 417.571 91.7826Z" fill="#008056"/>
<path d="M460.046 78.7146L468.636 82.849C468.636 82.849 469.434 82.8269 470.687 82.7936C471.939 82.7493 473.657 82.6938 475.508 82.6273C477.348 82.5608 479.31 82.4722 481.062 82.3724C482.813 82.2727 484.342 82.1618 485.329 82.0398C487.18 81.8182 488.798 81.5854 490.184 81.3415C491.569 81.1088 492.733 80.865 493.697 80.6212C494.662 80.3773 495.415 80.1445 495.992 79.9007C496.568 79.6679 496.967 79.4241 497.189 79.2024C497.322 79.0694 497.4 78.9473 497.433 78.8254C497.466 78.7035 497.444 78.5816 497.377 78.4597C497.311 78.3378 497.2 78.227 497.056 78.1161C496.901 78.0053 496.712 77.8944 496.48 77.7947C495.039 77.1518 493.055 76.7416 490.804 76.4978C488.554 76.2539 486.027 76.1874 483.511 76.2096C480.995 76.2317 478.468 76.3648 476.229 76.531C473.99 76.6973 472.028 76.8968 470.62 77.0631C469.545 77.1961 468.348 77.3624 467.151 77.5397C465.954 77.7171 464.768 77.9166 463.715 78.0829C462.662 78.2602 461.742 78.4154 461.088 78.5373C460.434 78.6482 460.046 78.7146 460.046 78.7146Z" fill="#008056"/>
<path d="M441.712 82.0184C441.59 82.1293 441.501 82.2402 441.457 82.351C441.413 82.4619 441.424 82.5837 441.479 82.7056C441.535 82.8276 441.645 82.9496 441.801 83.0826C441.956 83.2156 442.178 83.3486 442.444 83.4816C443.009 83.7587 443.774 84.0136 444.683 84.2353C445.591 84.4569 446.622 84.6344 447.731 84.7563C448.828 84.8783 449.992 84.9558 451.145 84.978C452.297 84.989 453.428 84.9447 454.47 84.8117C455.512 84.6787 456.587 84.5346 457.607 84.3905C458.626 84.2464 459.602 84.1023 460.433 83.9693C461.276 83.8362 461.985 83.7255 462.484 83.6368C462.983 83.5592 463.271 83.5038 463.271 83.5038L455.035 79.5024C454.071 79.6133 453.162 79.724 452.308 79.8349C451.455 79.9457 450.657 80.0455 449.903 80.1453C449.161 80.245 448.462 80.3448 447.819 80.4335C447.177 80.5221 446.589 80.6219 446.046 80.6995C445.514 80.7882 445.015 80.8768 444.561 80.9766C444.106 81.0763 443.685 81.1761 443.319 81.287C442.953 81.3978 442.621 81.5086 442.355 81.6305C442.089 81.7635 441.867 81.8854 441.712 82.0184Z" fill="#008056"/>
<path d="M359.79 89.977L358.804 94.7986C358.804 94.7986 359.314 94.8319 360.156 94.8873C360.998 94.9428 362.173 95.0092 363.503 95.0757C364.834 95.1422 366.33 95.2199 367.804 95.2864C369.278 95.3529 370.741 95.3972 372.016 95.4194C373.524 95.4415 375.508 95.4526 377.691 95.4083C379.875 95.3639 382.258 95.2752 384.541 95.109C386.825 94.9427 389.019 94.6988 390.815 94.3663C392.61 94.0227 394.029 93.5793 394.772 93.003C394.861 92.9365 394.927 92.87 394.994 92.8035C395.06 92.737 395.115 92.6594 395.16 92.5928C395.204 92.5263 395.248 92.4488 395.271 92.3712C395.293 92.2936 395.315 92.216 395.326 92.1384C395.359 91.8058 395.049 91.4623 394.351 91.1298C393.663 90.8084 392.588 90.4979 391.103 90.2208C389.618 89.9437 387.7 89.711 385.328 89.5336C382.956 89.3563 380.119 89.2233 376.771 89.1679C375.63 89.1457 374.011 89.19 372.204 89.2565C370.398 89.323 368.425 89.4339 366.585 89.5336C364.745 89.6334 363.049 89.7442 361.808 89.8218C360.566 89.9216 359.79 89.977 359.79 89.977Z" fill="#008056"/>
<path d="M334.828 91.1079C334.739 91.1633 334.662 91.2298 334.584 91.2853C334.506 91.3518 334.451 91.4071 334.396 91.4736C334.34 91.5401 334.296 91.5956 334.252 91.6621C334.218 91.7286 334.185 91.795 334.163 91.8504C334.063 92.2051 334.207 92.5045 334.551 92.7705C334.894 93.0365 335.438 93.2582 336.147 93.4466C336.856 93.635 337.721 93.7903 338.707 93.9122C339.694 94.0341 340.802 94.1228 341.988 94.1782C342.642 94.2115 343.352 94.2447 344.116 94.2668C344.881 94.3001 345.713 94.3222 346.599 94.3555C347.486 94.3776 348.428 94.411 349.437 94.4331C350.446 94.4553 351.51 94.4774 352.629 94.4996L353.682 89.8665C353.682 89.8665 353.327 89.8442 352.729 89.8221C352.13 89.7888 351.277 89.7556 350.268 89.7113C349.271 89.6669 348.118 89.6226 346.932 89.5783C345.735 89.5339 344.504 89.5007 343.318 89.4896C342.387 89.4785 341.478 89.5118 340.614 89.5893C339.749 89.6669 338.94 89.7777 338.197 89.9218C337.455 90.0659 336.79 90.2433 336.213 90.4429C335.659 90.6534 335.183 90.8751 334.828 91.1079Z" fill="#008056"/>
<path d="M394.018 81.5858L396.622 86.1524C396.622 86.1524 397.42 86.1967 398.673 86.2632C399.937 86.3297 401.666 86.4073 403.539 86.4849C405.412 86.5625 407.429 86.6401 409.247 86.6844C411.076 86.7288 412.717 86.751 413.825 86.7177C416.419 86.6401 418.68 86.5182 420.62 86.3741C422.559 86.23 424.189 86.0416 425.541 85.842C426.882 85.6425 427.946 85.4209 428.744 85.177C429.542 84.9442 430.074 84.6893 430.385 84.4343C430.473 84.3678 430.54 84.2903 430.584 84.2238C430.64 84.1573 430.662 84.0796 430.684 84.0131C430.695 83.9466 430.695 83.8691 430.684 83.8026C430.662 83.7361 430.64 83.6584 430.584 83.5919C430.085 82.8714 428.711 82.3172 426.849 81.9182C424.987 81.5192 422.626 81.2421 420.143 81.0758C417.66 80.9095 415.033 80.832 412.628 80.8098C410.234 80.7876 408.061 80.8209 406.476 80.8653C405.279 80.8985 403.894 80.9649 402.508 81.0425C401.111 81.1201 399.704 81.2089 398.451 81.2865C397.199 81.3641 396.09 81.4416 395.292 81.5081C394.505 81.5524 394.018 81.5858 394.018 81.5858Z" fill="#008056"/>
<path d="M371.173 83.6807C371.074 83.7472 370.996 83.8249 370.93 83.9025C370.863 83.98 370.819 84.0576 370.785 84.1352C370.752 84.2128 370.741 84.3014 370.752 84.3901C370.763 84.4788 370.785 84.5674 370.841 84.6672C370.985 84.9665 371.362 85.2658 371.927 85.5429C372.492 85.82 373.235 86.0639 374.1 86.2634C374.975 86.4629 375.973 86.6291 377.037 86.7288C378.101 86.8286 379.243 86.873 380.407 86.8398C381.57 86.8065 382.801 86.7511 383.976 86.6957C385.151 86.6403 386.281 86.5848 387.257 86.5294C388.232 86.474 389.074 86.4186 389.662 86.3853C390.249 86.352 390.593 86.3187 390.593 86.3187L388.188 81.9294C387.112 81.9627 386.093 81.9959 385.128 82.0292C384.164 82.0624 383.255 82.0958 382.413 82.1401C381.559 82.1734 380.772 82.2177 380.041 82.2509C379.309 82.2842 378.622 82.3285 378.001 82.3728C377.192 82.4172 376.416 82.4837 375.707 82.5613C374.997 82.6389 374.332 82.7276 373.745 82.8384C373.157 82.9493 372.637 83.0711 372.204 83.2041C371.761 83.3593 371.417 83.5144 371.173 83.6807Z" fill="#008056"/>
<path d="M283.774 89.4673L281.613 94.2334C281.613 94.2334 282.1 94.2667 282.91 94.3111C283.719 94.3554 284.86 94.4218 286.146 94.4994C287.443 94.5659 288.884 94.6436 290.325 94.699C291.766 94.7544 293.185 94.8098 294.426 94.832C295.889 94.8542 297.829 94.8652 299.979 94.8209C302.13 94.7766 304.479 94.6879 306.763 94.5216C309.046 94.3553 311.252 94.1227 313.103 93.779C314.954 93.4465 316.45 93.0031 317.315 92.4378C317.415 92.3713 317.503 92.3048 317.592 92.2383C317.67 92.1718 317.747 92.1052 317.814 92.0277C317.88 91.9612 317.936 91.8836 317.98 91.806C318.024 91.7284 318.058 91.6508 318.091 91.5732C318.202 91.2406 317.98 90.8972 317.381 90.5868C316.783 90.2654 315.807 89.966 314.411 89.6889C313.014 89.4229 311.196 89.1901 308.913 89.0017C306.63 88.8244 303.87 88.6914 300.589 88.6471C299.492 88.6249 297.884 88.6692 296.1 88.7468C294.315 88.8244 292.353 88.9241 290.536 89.0239C288.707 89.1236 287.022 89.2345 285.791 89.3121C284.55 89.4118 283.774 89.4673 283.774 89.4673Z" fill="#008056"/>
<path d="M258.99 90.5867C258.89 90.6421 258.791 90.7085 258.702 90.764C258.613 90.8305 258.536 90.8859 258.469 90.9524C258.403 91.0189 258.336 91.0744 258.281 91.1409C258.225 91.2074 258.181 91.2738 258.148 91.3293C257.959 91.6729 258.026 91.9833 258.303 92.2382C258.58 92.5043 259.057 92.7259 259.711 92.9144C260.365 93.1028 261.174 93.2469 262.116 93.3688C263.058 93.4908 264.122 93.5683 265.264 93.6238C265.896 93.657 266.583 93.6902 267.337 93.7124C268.079 93.7456 268.888 93.7678 269.753 93.801C270.618 93.8232 271.538 93.8565 272.513 93.8787C273.488 93.9008 274.53 93.9229 275.628 93.9451L277.767 89.3673C277.767 89.3673 277.423 89.3453 276.847 89.3231C276.27 89.3009 275.439 89.2566 274.464 89.2123C273.499 89.1679 272.38 89.1235 271.227 89.0902C270.074 89.0459 268.866 89.0238 267.725 89.0016C266.816 88.9905 265.918 89.0237 265.053 89.0902C264.189 89.1678 263.368 89.2787 262.604 89.4228C261.839 89.5669 261.141 89.7442 260.531 89.9437C259.921 90.1322 259.4 90.3539 258.99 90.5867Z" fill="#008056"/>
<path d="M319.366 81.1538L320.818 85.6539C320.818 85.6539 321.583 85.6982 322.802 85.7537C324.021 85.8091 325.695 85.8978 327.513 85.9754C329.33 86.053 331.281 86.1196 333.066 86.1639C334.839 86.2082 336.446 86.2192 337.544 86.1859C340.104 86.1084 342.343 85.9865 344.294 85.8424C346.234 85.6983 347.874 85.5099 349.249 85.3104C350.612 85.1109 351.709 84.8891 352.541 84.6563C353.383 84.4236 353.97 84.1798 354.336 83.9249C354.436 83.8584 354.525 83.7807 354.591 83.7142C354.658 83.6477 354.713 83.5702 354.746 83.5037C354.78 83.4372 354.802 83.3595 354.802 83.293C354.802 83.2265 354.791 83.149 354.757 83.0825C354.436 82.362 353.228 81.83 351.499 81.4309C349.77 81.0319 347.531 80.7659 345.125 80.5996C342.731 80.4334 340.171 80.3558 337.821 80.3336C335.471 80.3114 333.332 80.3446 331.769 80.4C330.583 80.4333 329.208 80.4998 327.834 80.5774C326.449 80.655 325.052 80.7437 323.799 80.8213C322.547 80.8988 321.438 80.9875 320.651 81.0429C319.842 81.1205 319.366 81.1538 319.366 81.1538Z" fill="#008056"/>
<path d="M296.421 83.2365C296.31 83.303 296.211 83.3805 296.122 83.4471C296.044 83.5246 295.978 83.6022 295.922 83.6798C295.878 83.7574 295.845 83.8462 295.823 83.9348C295.812 84.0235 295.812 84.1122 295.834 84.2008C295.9 84.5001 296.211 84.7993 296.687 85.0653C297.175 85.3313 297.84 85.5752 298.649 85.7858C299.458 85.9853 300.389 86.1516 301.42 86.2514C302.44 86.3511 303.548 86.3954 304.701 86.3511C305.854 86.3178 307.073 86.2624 308.237 86.207C309.401 86.1516 310.52 86.0961 311.496 86.0407C312.471 85.9853 313.302 85.9299 313.89 85.8966C314.477 85.8634 314.821 85.8413 314.821 85.8413L313.524 81.5073C312.46 81.5406 311.451 81.5738 310.498 81.607C309.545 81.6403 308.647 81.6737 307.805 81.718C306.962 81.7512 306.175 81.7956 305.444 81.8288C304.712 81.8621 304.036 81.9064 303.415 81.9507C302.606 81.9951 301.841 82.0616 301.121 82.1392C300.4 82.2168 299.735 82.3055 299.137 82.4163C298.538 82.5271 297.995 82.649 297.541 82.782C297.086 82.915 296.709 83.0703 296.421 83.2365Z" fill="#008056"/>
<path d="M212.825 95.0864L216.826 99.6974C216.826 99.6974 217.336 99.6752 218.189 99.6198C219.043 99.5754 220.218 99.509 221.548 99.4203C222.878 99.3427 224.363 99.243 225.826 99.1321C227.278 99.0213 228.708 98.9104 229.917 98.7885C231.114 98.6665 232.621 98.5003 234.261 98.2786C235.891 98.0569 237.653 97.8021 239.36 97.4917C241.067 97.1813 242.719 96.8377 244.149 96.4497C245.578 96.0618 246.776 95.6405 247.574 95.175C247.84 95.0198 248.05 94.8758 248.228 94.7096C248.394 94.5544 248.516 94.388 248.582 94.2218C248.649 94.0555 248.66 93.8893 248.615 93.7231C248.571 93.5568 248.46 93.3795 248.283 93.2021C247.973 92.8918 247.341 92.6036 246.376 92.3819C245.412 92.1602 244.115 91.9828 242.453 91.8941C240.801 91.8055 238.784 91.7944 236.39 91.8719C233.995 91.9606 231.213 92.1491 228.01 92.4594C226.935 92.5703 225.45 92.7809 223.831 93.0469C222.213 93.313 220.451 93.6234 218.821 93.9226C217.192 94.2219 215.696 94.5101 214.598 94.7207C213.512 94.9534 212.825 95.0864 212.825 95.0864Z" fill="#008056"/>
<path d="M191.344 97.7909C191.055 97.9461 190.812 98.1012 190.623 98.2564C190.424 98.4227 190.28 98.5779 190.18 98.7442C190.08 98.9104 190.036 99.0766 190.036 99.2429C190.036 99.4092 190.102 99.5644 190.213 99.7196C190.479 100.063 190.933 100.329 191.543 100.54C192.153 100.75 192.918 100.894 193.793 100.994C194.669 101.094 195.666 101.138 196.753 101.138C197.828 101.138 198.992 101.094 200.189 101.016C200.854 100.972 201.563 100.928 202.328 100.861C203.093 100.806 203.913 100.739 204.789 100.662C205.664 100.584 206.584 100.507 207.571 100.418C208.557 100.329 209.588 100.229 210.685 100.119L206.895 95.6738C206.895 95.6738 206.54 95.6959 205.941 95.7292C205.343 95.7624 204.478 95.829 203.481 95.8955C202.483 95.962 201.342 96.0506 200.155 96.1504C198.969 96.2501 197.75 96.3499 196.597 96.4608C196.032 96.5162 195.489 96.5939 194.979 96.6825C194.469 96.7712 193.993 96.8709 193.549 96.9928C193.106 97.1036 192.696 97.2367 192.33 97.3697C191.953 97.5027 191.621 97.6468 191.344 97.7909Z" fill="#008056"/>
<path d="M236.445 83.6031L243.462 87.5269C243.462 87.5269 244.237 87.4826 245.468 87.405C246.698 87.3274 248.372 87.2165 250.179 87.0946C251.974 86.9727 253.903 86.8286 255.621 86.6734C257.339 86.5182 258.858 86.3741 259.844 86.2189C261.518 85.964 263.014 85.7091 264.322 85.4542C265.63 85.1992 266.772 84.9553 267.747 84.7115C268.722 84.4676 269.532 84.2238 270.197 83.991C270.862 83.7582 271.372 83.5255 271.759 83.3038C272.037 83.1375 272.247 82.9824 272.391 82.8272C272.535 82.6721 272.602 82.5279 272.613 82.3838C272.624 82.2398 272.569 82.1067 272.458 81.9737C272.347 81.8407 272.181 81.7187 271.959 81.6079C270.784 80.9982 269 80.6437 266.905 80.4663C264.81 80.289 262.404 80.2889 259.966 80.3775C257.527 80.4773 255.056 80.6768 252.839 80.9096C250.622 81.1423 248.66 81.3973 247.252 81.6079C246.177 81.7631 244.969 81.9737 243.761 82.1843C242.553 82.3949 241.333 82.6277 240.258 82.8383C239.172 83.0489 238.23 83.2373 237.554 83.3704C236.855 83.5144 236.445 83.6031 236.445 83.6031Z" fill="#008056"/>
<path d="M217.912 87.2716C217.679 87.3935 217.491 87.5265 217.358 87.6595C217.225 87.7925 217.147 87.9255 217.136 88.0696C217.125 88.2026 217.169 88.3467 217.28 88.4908C217.391 88.6349 217.568 88.7791 217.823 88.9342C218.278 89.2003 218.943 89.444 219.752 89.6324C220.561 89.8208 221.514 89.976 222.545 90.0758C223.576 90.1756 224.673 90.2199 225.782 90.1977C226.89 90.1755 227.998 90.098 229.051 89.9317C230.104 89.7765 231.202 89.5881 232.244 89.4108C233.286 89.2334 234.272 89.0561 235.137 88.901C235.99 88.7458 236.722 88.6017 237.232 88.513C237.741 88.4133 238.041 88.3578 238.041 88.3578L231.335 84.5559C230.359 84.7 229.439 84.8441 228.575 84.9771C227.71 85.1101 226.901 85.2431 226.147 85.365C225.394 85.487 224.684 85.609 224.041 85.7198C223.387 85.8306 222.789 85.9414 222.246 86.0411C221.769 86.1298 221.315 86.2296 220.882 86.3183C220.45 86.418 220.051 86.5178 219.685 86.6175C219.319 86.7173 218.987 86.8282 218.688 86.939C218.388 87.0499 218.122 87.1608 217.912 87.2716Z" fill="#008056"/>
<path d="M156.329 110.016L168.255 113.452C168.255 113.452 168.71 113.352 169.463 113.175C170.206 113.009 171.248 112.765 172.401 112.488C173.553 112.211 174.828 111.9 176.058 111.59C177.289 111.28 178.464 110.958 179.428 110.67C179.993 110.504 180.636 110.293 181.312 110.071C181.988 109.85 182.709 109.595 183.429 109.318C184.15 109.052 184.87 108.752 185.558 108.453C186.245 108.154 186.91 107.832 187.497 107.511C188.229 107.112 188.861 106.713 189.326 106.314C189.792 105.915 190.102 105.516 190.191 105.128C190.279 104.74 190.135 104.374 189.714 104.019C189.293 103.676 188.584 103.354 187.531 103.066C186.699 102.833 185.624 102.689 184.316 102.634C183.008 102.579 181.479 102.623 179.727 102.789C177.976 102.955 176.014 103.244 173.842 103.665C171.669 104.097 169.286 104.673 166.715 105.427C165.839 105.682 164.753 106.092 163.622 106.569C162.48 107.045 161.294 107.589 160.219 108.098C159.133 108.608 158.158 109.085 157.459 109.44C156.772 109.794 156.329 110.016 156.329 110.016Z" fill="#008056"/>
<path d="M140.988 114.34C140.456 114.606 140.09 114.905 139.868 115.193C139.647 115.493 139.591 115.792 139.669 116.08C139.758 116.368 139.99 116.657 140.356 116.912C140.733 117.167 141.254 117.41 141.908 117.61C142.772 117.876 143.704 118.042 144.679 118.131C145.654 118.219 146.685 118.23 147.727 118.186C148.769 118.142 149.844 118.02 150.919 117.843C151.983 117.676 153.059 117.455 154.101 117.2C154.677 117.056 155.298 116.9 155.952 116.734C156.606 116.568 157.304 116.379 158.035 116.18C158.767 115.98 159.543 115.759 160.352 115.526C161.161 115.293 162.015 115.049 162.912 114.783L151.451 111.447C151.451 111.447 151.141 111.525 150.598 111.647C150.066 111.769 149.312 111.957 148.448 112.168C147.572 112.389 146.585 112.633 145.577 112.899C144.557 113.165 143.526 113.453 142.573 113.73C142.418 113.775 142.263 113.83 142.119 113.875C141.974 113.919 141.83 113.974 141.697 114.03C141.564 114.085 141.442 114.129 141.32 114.185C141.21 114.229 141.099 114.285 140.988 114.34Z" fill="#008056"/>
<path d="M161.072 95.7075C160.861 95.8183 160.673 95.907 160.496 95.9957C160.329 96.0843 160.174 96.1619 160.052 96.2173C159.93 96.2838 159.83 96.3281 159.775 96.3614C159.72 96.3946 159.675 96.4169 159.675 96.4169L173.231 98.8331C173.231 98.8331 173.907 98.678 174.96 98.4341C176.013 98.1903 177.454 97.8578 178.962 97.4809C180.48 97.1151 182.076 96.7161 183.462 96.3281C184.847 95.9513 186.033 95.5965 186.721 95.3305C187.075 95.1864 187.419 95.0534 187.74 94.9204C188.062 94.7874 188.372 94.6544 188.66 94.5214C188.949 94.3884 189.226 94.2665 189.481 94.1446C189.736 94.0226 189.979 93.9008 190.212 93.7788C191.287 93.2135 192.041 92.7148 192.507 92.2603C192.972 91.8059 193.161 91.4067 193.116 91.0631C193.072 90.7195 192.795 90.4313 192.34 90.1985C191.886 89.9658 191.243 89.7773 190.456 89.6443C188.317 89.2785 186.022 89.212 183.728 89.3561C181.433 89.4891 179.117 89.8217 176.956 90.254C174.783 90.6863 172.744 91.2072 170.992 91.7171C169.241 92.2269 167.778 92.7368 166.769 93.1137C166.281 93.3021 165.772 93.5017 165.262 93.7234C164.752 93.945 164.231 94.1778 163.732 94.3995C163.233 94.6322 162.746 94.865 162.291 95.0756C161.859 95.3194 161.438 95.5301 161.072 95.7075Z" fill="#008056"/>
<path d="M149.612 100.783C149.013 101.083 148.548 101.371 148.226 101.659C147.905 101.947 147.749 102.224 147.783 102.49C147.816 102.756 148.038 103 148.492 103.233C148.947 103.455 149.634 103.665 150.587 103.843C151.496 104.009 152.56 104.12 153.702 104.175C154.832 104.22 156.029 104.22 157.215 104.142C158.39 104.075 159.554 103.942 160.607 103.765C161.66 103.577 162.613 103.344 163.367 103.045C164.121 102.745 164.875 102.435 165.584 102.125C166.293 101.814 166.947 101.515 167.513 101.249C168.078 100.983 168.543 100.761 168.876 100.595C169.208 100.44 169.397 100.34 169.397 100.34L156.329 97.9902C155.619 98.2563 154.954 98.5224 154.333 98.7662C153.713 99.0101 153.136 99.2428 152.604 99.4645C152.072 99.6862 151.585 99.8967 151.141 100.085C150.698 100.285 150.288 100.462 149.922 100.639C149.9 100.65 149.867 100.662 149.844 100.673C149.822 100.684 149.789 100.695 149.767 100.706C149.745 100.717 149.711 100.728 149.689 100.739C149.667 100.761 149.645 100.772 149.612 100.783Z" fill="#008056"/>
<path d="M126.224 125.679C126.069 125.756 125.925 125.834 125.77 125.912C125.615 125.989 125.47 126.078 125.315 126.155C125.16 126.233 125.016 126.322 124.861 126.41C124.706 126.499 124.562 126.588 124.406 126.676C123.797 127.031 123.176 127.563 122.577 128.173C121.979 128.782 121.403 129.458 120.904 130.09C120.405 130.722 119.973 131.32 119.673 131.753C119.374 132.185 119.197 132.462 119.197 132.462L136.211 134.391C136.211 134.391 136.466 134.28 136.887 134.092C137.308 133.903 137.896 133.637 138.572 133.316C139.248 132.994 140.013 132.64 140.789 132.252C141.554 131.875 142.329 131.476 143.039 131.099C143.172 131.032 143.305 130.955 143.427 130.888C143.549 130.822 143.682 130.744 143.793 130.678C143.914 130.611 144.025 130.545 144.136 130.478C144.247 130.412 144.358 130.345 144.458 130.279C145.311 129.747 146.342 129.026 147.24 128.217C148.138 127.408 148.891 126.532 149.202 125.679C149.512 124.825 149.379 124.016 148.514 123.34C147.65 122.664 146.043 122.132 143.405 121.855C142.341 121.744 141.143 121.711 139.847 121.788C138.55 121.866 137.142 122.043 135.668 122.331C134.194 122.631 132.642 123.041 131.068 123.584C129.472 124.149 127.842 124.836 126.224 125.679Z" fill="#008056"/>
<path d="M111.494 136.597C111.294 136.696 111.106 136.807 110.906 136.907C110.707 137.007 110.518 137.118 110.319 137.228C110.13 137.339 109.931 137.439 109.754 137.55C109.565 137.661 109.388 137.76 109.21 137.871C108.545 138.27 108.191 138.669 108.102 139.08C108.013 139.479 108.202 139.878 108.612 140.232C109.022 140.598 109.665 140.919 110.485 141.197C111.316 141.474 112.325 141.684 113.478 141.817C114.742 141.961 115.95 142.017 117.125 141.984C118.288 141.95 119.397 141.828 120.461 141.651C121.514 141.463 122.511 141.219 123.443 140.908C124.374 140.609 125.238 140.254 126.025 139.867C126.18 139.789 126.336 139.711 126.491 139.634C126.646 139.556 126.812 139.467 126.967 139.39C127.134 139.301 127.3 139.224 127.466 139.135C127.632 139.046 127.81 138.958 127.976 138.858C128.297 138.68 128.63 138.503 128.974 138.315C129.317 138.126 129.661 137.927 130.027 137.716C130.381 137.506 130.747 137.295 131.124 137.073C131.501 136.852 131.878 136.619 132.266 136.375L115.828 134.491C115.828 134.491 115.695 134.546 115.462 134.657C115.229 134.768 114.897 134.923 114.487 135.111C114.088 135.3 113.611 135.533 113.101 135.787C112.591 136.031 112.037 136.309 111.494 136.597Z" fill="#008056"/>
<path d="M113.422 111.623C112.879 111.889 112.38 112.155 111.915 112.41C111.449 112.676 111.028 112.931 110.64 113.175C110.252 113.419 109.908 113.663 109.609 113.885C109.31 114.106 109.044 114.306 108.822 114.494C108.368 114.871 107.935 115.314 107.525 115.769C107.115 116.223 106.749 116.689 106.439 117.099C106.129 117.52 105.863 117.886 105.685 118.152C105.508 118.418 105.408 118.584 105.408 118.584L122.977 119.371C122.977 119.371 123.209 119.272 123.597 119.094C123.985 118.917 124.528 118.673 125.171 118.385C125.803 118.097 126.535 117.753 127.288 117.398C128.031 117.044 128.807 116.667 129.527 116.301C129.904 116.112 130.259 115.924 130.603 115.747C130.946 115.569 131.257 115.392 131.545 115.226C131.833 115.06 132.088 114.904 132.309 114.76C132.531 114.616 132.709 114.483 132.842 114.361C133.972 113.341 134.626 112.466 134.903 111.734C135.18 111.003 135.081 110.393 134.681 109.905C134.294 109.418 133.617 109.063 132.731 108.797C131.855 108.542 130.78 108.398 129.583 108.342C127.854 108.265 126.213 108.32 124.672 108.475C123.132 108.62 121.68 108.874 120.328 109.185C118.975 109.495 117.723 109.872 116.57 110.293C115.406 110.714 114.353 111.169 113.422 111.623Z" fill="#008056"/>
<path d="M103.8 120.547C103.39 120.901 103.002 121.234 102.658 121.555C102.304 121.877 101.993 122.176 101.705 122.453C101.417 122.741 101.162 122.996 100.929 123.251C100.697 123.495 100.497 123.728 100.331 123.938C100.009 124.326 99.8319 124.703 99.8209 125.047C99.8098 125.39 99.9649 125.712 100.32 125.989C100.674 126.266 101.24 126.499 102.038 126.687C102.836 126.865 103.867 126.998 105.163 127.064C106.216 127.108 107.325 127.108 108.444 127.042C109.564 126.975 110.683 126.865 111.747 126.698C112.811 126.543 113.82 126.333 114.707 126.089C115.594 125.845 116.37 125.568 116.968 125.268C117.057 125.224 117.134 125.18 117.212 125.135C117.29 125.091 117.367 125.047 117.434 125.002C117.5 124.958 117.567 124.914 117.633 124.869C117.7 124.825 117.755 124.781 117.81 124.725C118.243 124.337 118.653 123.938 119.019 123.539C119.384 123.151 119.695 122.775 119.961 122.442C120.227 122.11 120.426 121.833 120.57 121.633C120.715 121.433 120.792 121.323 120.792 121.323L103.8 120.547Z" fill="#008056"/>
<path d="M103.668 147.659C103.113 147.947 102.592 148.28 102.105 148.635C101.617 148.989 101.163 149.388 100.741 149.821C100.331 150.253 99.9544 150.718 99.633 151.228C99.3116 151.738 99.0345 152.281 98.8128 152.869C98.6576 153.301 98.7241 153.911 98.9236 154.587C99.1121 155.263 99.4335 156.017 99.766 156.704C100.099 157.402 100.453 158.045 100.73 158.51C101.007 158.987 101.196 159.275 101.196 159.275L122.034 158.677C122.034 158.677 122.2 158.477 122.455 158.134C122.71 157.801 123.054 157.336 123.409 156.804C123.763 156.283 124.14 155.695 124.462 155.119C124.783 154.554 125.038 153.988 125.182 153.512C125.37 152.88 125.481 152.037 125.326 151.129C125.182 150.231 124.772 149.266 123.952 148.402C123.131 147.537 121.89 146.772 120.05 146.24C118.221 145.708 115.794 145.42 112.59 145.509C111.826 145.531 111.05 145.586 110.274 145.686C109.498 145.786 108.733 145.919 107.968 146.085C107.215 146.263 106.472 146.473 105.751 146.739C105.02 147.016 104.322 147.316 103.668 147.659Z" fill="#008056"/>
<path d="M100.32 161.724C100.32 161.724 100.209 161.868 100.032 162.123C99.8545 162.367 99.6106 162.721 99.3446 163.132C99.0786 163.542 98.7904 164.018 98.5243 164.517C98.2583 165.016 98.0145 165.526 97.8482 166.013C97.6709 166.501 97.8593 166.956 98.3137 167.355C98.7793 167.765 99.5219 168.119 100.464 168.408C101.406 168.696 102.548 168.929 103.823 169.073C105.086 169.217 106.472 169.272 107.902 169.239C108.921 169.206 109.852 169.139 110.717 169.039C111.581 168.94 112.357 168.807 113.078 168.651C113.787 168.485 114.43 168.297 115.006 168.086C115.583 167.876 116.093 167.632 116.536 167.377C116.78 167.233 117.002 167.089 117.212 166.944C117.423 166.789 117.611 166.634 117.789 166.479C117.966 166.324 118.121 166.158 118.265 165.991C118.409 165.825 118.531 165.659 118.642 165.481C118.808 165.204 118.975 164.916 119.141 164.595C119.307 164.284 119.462 163.941 119.629 163.586C119.784 163.231 119.939 162.843 120.083 162.444C120.227 162.045 120.371 161.624 120.504 161.17L100.32 161.724Z" fill="#008056"/>
<path d="M70.0163 136.441C68.9411 136.973 68.0876 137.55 67.4115 138.159C66.7353 138.769 66.2366 139.39 65.8708 139.999C65.505 140.609 65.2833 141.196 65.1614 141.739C65.0395 142.272 65.0062 142.759 65.0395 143.136C65.0727 143.568 65.2168 144.067 65.4053 144.566C65.5937 145.065 65.8375 145.575 66.0703 146.029C66.3031 146.483 66.5359 146.883 66.7132 147.171C66.8906 147.459 67.0014 147.636 67.0014 147.636L87.2189 145.951C87.2189 145.951 87.4738 145.652 87.8507 145.187C88.2276 144.721 88.7153 144.078 89.203 143.391C89.6907 142.704 90.1562 141.972 90.4887 141.318C90.8213 140.664 91.0208 140.088 90.9543 139.689C90.7769 138.536 90.3003 137.594 89.5798 136.84C88.8704 136.087 87.9283 135.51 86.8531 135.089C85.7669 134.668 84.5365 134.402 83.2397 134.269C81.9428 134.136 80.5684 134.136 79.2051 134.247C78.1742 134.335 77.221 134.446 76.3343 134.59C75.4475 134.734 74.6273 134.901 73.8625 135.089C73.1088 135.277 72.4105 135.488 71.7676 135.721C71.1247 135.943 70.5483 136.186 70.0163 136.441Z" fill="#008056"/>
<path d="M67.9209 149.798C67.9542 150.208 67.9985 150.585 68.0539 150.951C68.1093 151.316 68.1758 151.66 68.2534 151.97C68.331 152.292 68.4197 152.591 68.5084 152.868C68.597 153.145 68.6968 153.4 68.8076 153.644C69.0071 154.076 69.3286 154.464 69.7941 154.808C70.2597 155.151 70.8693 155.44 71.6563 155.661C72.4321 155.883 73.3743 156.027 74.5049 156.094C75.6355 156.16 76.9434 156.127 78.4619 156.005C79.3376 155.927 80.2132 155.828 81.0445 155.684C81.8869 155.551 82.6961 155.373 83.4609 155.185C84.2257 154.996 84.9351 154.786 85.578 154.553C86.2208 154.32 86.7972 154.076 87.2849 153.821C87.5731 153.666 87.8281 153.511 88.0497 153.356C88.2714 153.201 88.4599 153.034 88.604 152.879C88.7481 152.713 88.8589 152.558 88.9254 152.392C88.9919 152.225 89.014 152.07 88.9919 151.904C88.9254 151.472 88.8034 151.017 88.6483 150.585C88.4931 150.153 88.3268 149.742 88.1495 149.377C87.9832 149.022 87.817 148.712 87.7061 148.501C87.5842 148.29 87.5177 148.168 87.5177 148.168L67.9209 149.798Z" fill="#008056"/>
<path d="M109.986 173.984C109.31 174.372 108.755 174.826 108.368 175.347C107.98 175.868 107.758 176.444 107.736 177.087C107.714 177.73 107.891 178.44 108.312 179.227C108.733 180.003 109.398 180.856 110.341 181.776C110.795 182.219 111.759 182.796 112.945 183.417C114.131 184.037 115.55 184.702 116.925 185.312C118.299 185.921 119.607 186.476 120.582 186.886C121.558 187.296 122.189 187.54 122.189 187.54L143.349 183.594C143.349 183.594 143.227 183.372 143.006 183.017C142.795 182.663 142.485 182.164 142.097 181.599C141.72 181.044 141.276 180.424 140.8 179.836C140.323 179.238 139.791 178.672 139.259 178.185C138.55 177.553 137.441 176.733 135.989 175.89C134.537 175.059 132.731 174.206 130.613 173.507C128.507 172.809 126.08 172.277 123.364 172.055C120.66 171.834 117.656 171.944 114.386 172.532C113.954 172.609 113.533 172.698 113.134 172.798C112.735 172.898 112.336 173.008 111.97 173.13C111.604 173.252 111.249 173.385 110.917 173.529C110.584 173.662 110.274 173.818 109.986 173.984Z" fill="#008056"/>
<path d="M124.806 190.034C124.806 190.034 124.894 190.189 125.072 190.455C125.238 190.721 125.493 191.098 125.803 191.541C126.114 191.985 126.49 192.483 126.923 192.993C127.355 193.514 127.832 194.035 128.353 194.534C128.874 195.022 129.716 195.432 130.791 195.742C131.866 196.053 133.163 196.274 134.582 196.396C136.001 196.518 137.541 196.54 139.082 196.463C140.623 196.385 142.186 196.219 143.638 195.942C144.236 195.831 144.779 195.709 145.289 195.576C145.799 195.443 146.254 195.31 146.675 195.166C147.096 195.022 147.473 194.878 147.805 194.722C148.138 194.567 148.437 194.412 148.692 194.246C149.113 193.98 149.435 193.692 149.667 193.392C149.9 193.104 150.033 192.794 150.089 192.483C150.144 192.173 150.111 191.863 150.011 191.541C149.911 191.22 149.734 190.898 149.501 190.577C149.291 190.289 149.047 189.989 148.77 189.657C148.493 189.336 148.182 188.981 147.827 188.615C147.473 188.249 147.096 187.861 146.675 187.451C146.254 187.041 145.788 186.62 145.3 186.177L124.806 190.034Z" fill="#008056"/>
<path d="M57.0921 168.497C55.629 169.273 54.831 170.116 54.5095 170.991C54.1881 171.867 54.3322 172.765 54.7645 173.618C55.1968 174.483 55.9062 175.303 56.7042 176.023C57.5023 176.755 58.3779 177.376 59.1316 177.841C59.8188 178.262 60.7056 178.728 61.6588 179.193C62.6121 179.659 63.6318 180.114 64.5629 180.513C65.494 180.923 66.3474 181.266 66.9681 181.521C67.5889 181.776 67.9657 181.92 67.9657 181.92L87.7177 176.966C87.7177 176.966 87.5514 176.633 87.2743 176.123C86.9862 175.613 86.5871 174.915 86.0994 174.172C85.6228 173.43 85.0575 172.654 84.459 171.967C83.8604 171.279 83.2286 170.692 82.5857 170.326C80.7125 169.24 78.8061 168.397 76.8996 167.777C75.0042 167.156 73.131 166.746 71.3132 166.502C69.5064 166.269 67.7551 166.203 66.1258 166.28C64.4964 166.358 62.9889 166.58 61.6478 166.901C61.1601 167.023 60.6945 167.145 60.2622 167.267C59.83 167.389 59.4198 167.522 59.043 167.655C58.6661 167.788 58.3114 167.921 57.99 168.065C57.6796 168.209 57.3692 168.353 57.0921 168.497Z" fill="#008056"/>
<path d="M72.2109 183.87C72.8427 184.258 73.4635 184.624 74.0509 184.968C74.6495 185.311 75.2258 185.633 75.78 185.932C76.3342 186.231 76.8774 186.508 77.3983 186.763C77.9193 187.018 78.407 187.251 78.8836 187.473C79.726 187.85 80.6571 188.182 81.6657 188.437C82.6855 188.692 83.7828 188.869 84.9577 188.958C86.1326 189.047 87.3851 189.036 88.7152 188.903C90.0343 188.781 91.4309 188.537 92.8829 188.16C93.3263 188.049 93.7475 187.927 94.1465 187.794C94.5455 187.661 94.9335 187.528 95.2992 187.384C95.665 187.24 96.0087 187.096 96.3301 186.941C96.6515 186.786 96.9508 186.63 97.2279 186.464C97.8043 186.132 98.2698 185.777 98.6356 185.433C98.9903 185.079 99.2341 184.724 99.345 184.38C99.4558 184.037 99.4336 183.693 99.2785 183.372C99.1122 183.05 98.8019 182.74 98.3363 182.463C97.6159 182.053 96.8178 181.631 96.0197 181.232C95.2217 180.833 94.4347 180.468 93.7253 180.146C93.027 179.825 92.4063 179.559 91.974 179.37C91.5417 179.182 91.2757 179.071 91.2757 179.071L72.2109 183.87Z" fill="#008056"/>
<path d="M156.905 199.343C156.173 199.831 155.674 200.385 155.486 201.006C155.297 201.638 155.408 202.325 155.907 203.09C156.406 203.855 157.27 204.686 158.589 205.573C159.908 206.459 161.693 207.413 163.987 208.421C164.918 208.831 166.537 209.33 168.421 209.84C170.316 210.35 172.5 210.882 174.573 211.37C176.645 211.846 178.607 212.279 180.059 212.589C181.511 212.899 182.431 213.088 182.431 213.088L201.064 206.603C201.064 206.603 200.72 206.393 200.133 206.038C199.545 205.694 198.725 205.207 197.783 204.675C196.83 204.143 195.755 203.555 194.657 202.99C193.56 202.425 192.429 201.893 191.387 201.46C190.013 200.884 188.029 200.152 185.635 199.443C183.263 198.734 180.492 198.047 177.532 197.559C174.584 197.071 171.447 196.772 168.321 196.838C165.196 196.905 162.07 197.337 159.132 198.312C158.911 198.39 158.7 198.457 158.501 198.545C158.301 198.623 158.102 198.712 157.913 198.789C157.725 198.878 157.547 198.966 157.381 199.055C157.215 199.155 157.049 199.244 156.905 199.343Z" fill="#008056"/>
<path d="M187.696 215.394C187.696 215.394 187.951 215.549 188.406 215.804C188.86 216.059 189.503 216.424 190.279 216.846C191.055 217.267 191.964 217.743 192.939 218.231C193.914 218.719 194.967 219.218 196.02 219.672C197.051 220.127 198.348 220.437 199.8 220.636C201.252 220.836 202.848 220.914 204.467 220.869C206.096 220.836 207.748 220.681 209.31 220.426C210.873 220.171 212.336 219.816 213.6 219.362C213.91 219.251 214.199 219.14 214.465 219.029C214.731 218.918 214.986 218.796 215.207 218.686C215.44 218.575 215.651 218.453 215.839 218.342C216.027 218.231 216.205 218.109 216.36 217.987C216.892 217.588 217.225 217.178 217.369 216.768C217.513 216.358 217.479 215.948 217.28 215.538C217.092 215.128 216.737 214.729 216.271 214.329C215.795 213.93 215.196 213.543 214.487 213.166C213.977 212.889 213.412 212.6 212.802 212.301C212.181 211.991 211.505 211.669 210.774 211.337C210.042 210.993 209.255 210.639 208.402 210.273C207.548 209.896 206.639 209.508 205.675 209.109L187.696 215.394Z" fill="#008056"/>
<path d="M93.8696 199.189C92.074 200.264 91.4311 201.362 91.5752 202.448C91.7193 203.534 92.6503 204.598 93.9915 205.585C95.3438 206.571 97.1062 207.48 98.9018 208.256C100.697 209.032 102.526 209.675 103.989 210.129C105.175 210.495 106.627 210.883 108.146 211.26C109.665 211.637 111.25 212.002 112.691 212.324C114.131 212.645 115.428 212.922 116.359 213.122C117.29 213.321 117.867 213.432 117.867 213.432L134.593 205.973C134.593 205.973 134.083 205.651 133.263 205.141C132.442 204.631 131.301 203.944 130.026 203.224C128.763 202.503 127.355 201.738 126.014 201.084C124.673 200.43 123.376 199.876 122.3 199.555C119.153 198.624 116.215 197.959 113.5 197.515C110.795 197.072 108.301 196.839 106.062 196.795C103.823 196.739 101.817 196.873 100.088 197.139C98.3587 197.405 96.8956 197.804 95.7206 198.291C95.5433 198.369 95.366 198.446 95.1997 198.524C95.0334 198.602 94.8783 198.679 94.7231 198.757C94.5679 198.834 94.4238 198.912 94.2797 198.99C94.1356 199.034 94.0026 199.112 93.8696 199.189Z" fill="#008056"/>
<path d="M124.55 214.972C125.637 215.316 126.678 215.626 127.676 215.925C128.674 216.225 129.627 216.491 130.547 216.746C131.456 217.001 132.32 217.222 133.152 217.433C133.972 217.644 134.748 217.832 135.49 217.998C136.798 218.309 138.151 218.541 139.514 218.697C140.877 218.841 142.263 218.907 143.637 218.852C145.012 218.807 146.364 218.641 147.683 218.353C149.002 218.065 150.266 217.644 151.474 217.089C151.618 217.023 151.751 216.956 151.884 216.89C152.017 216.823 152.15 216.757 152.272 216.679C152.394 216.613 152.516 216.535 152.638 216.469C152.759 216.391 152.87 216.325 152.981 216.247C153.724 215.748 154.256 215.216 154.588 214.673C154.921 214.141 155.043 213.598 154.943 213.077C154.843 212.556 154.533 212.068 153.99 211.625C153.447 211.193 152.671 210.805 151.651 210.494C150.465 210.14 149.19 209.796 147.927 209.475C146.674 209.153 145.444 208.854 144.358 208.599C143.271 208.344 142.34 208.133 141.675 207.978C141.01 207.834 140.622 207.745 140.622 207.745L124.55 214.972Z" fill="#008056"/>
<path d="M232.056 222.865C231.335 223.43 230.936 224.073 230.925 224.782C230.914 225.503 231.313 226.29 232.178 227.143C233.053 227.997 234.417 228.917 236.345 229.892C238.285 230.868 240.801 231.899 243.982 232.963C245.201 233.373 247.185 233.849 249.48 234.326C251.785 234.803 254.401 235.29 256.873 235.723C259.356 236.155 261.684 236.543 263.391 236.82C265.109 237.097 266.195 237.263 266.195 237.263L282.688 229.238C282.688 229.238 282.2 229.017 281.402 228.662C280.593 228.307 279.463 227.82 278.166 227.276C276.869 226.733 275.406 226.135 273.932 225.569C272.457 225.004 270.983 224.461 269.631 224.029C267.857 223.463 265.352 222.743 262.426 222.078C259.511 221.413 256.197 220.781 252.772 220.371C249.358 219.961 245.844 219.784 242.53 219.994C239.216 220.216 236.079 220.837 233.43 222.045C233.297 222.111 233.164 222.167 233.031 222.233C232.909 222.3 232.787 222.366 232.665 222.433C232.554 222.499 232.432 222.566 232.333 222.643C232.255 222.71 232.155 222.787 232.056 222.865Z" fill="#008056"/>
<path d="M273.066 239.524C273.066 239.524 273.421 239.679 274.042 239.945C274.663 240.211 275.538 240.577 276.591 241.01C277.644 241.442 278.863 241.918 280.16 242.417C281.457 242.905 282.843 243.415 284.206 243.869C285.558 244.313 287.11 244.612 288.762 244.756C290.413 244.9 292.153 244.911 293.871 244.789C295.578 244.667 297.263 244.423 298.793 244.069C300.322 243.714 301.697 243.249 302.794 242.694C302.983 242.595 303.16 242.495 303.337 242.395C303.504 242.295 303.659 242.195 303.814 242.096C303.958 241.996 304.091 241.896 304.224 241.796C304.357 241.697 304.468 241.597 304.568 241.508C305.111 240.998 305.388 240.489 305.421 239.99C305.454 239.491 305.255 239.003 304.867 238.527C304.468 238.05 303.88 237.585 303.127 237.13C302.373 236.676 301.464 236.243 300.433 235.822C299.746 235.545 299.003 235.257 298.183 234.947C297.363 234.636 296.476 234.315 295.523 233.971C294.57 233.627 293.539 233.273 292.442 232.907C291.344 232.541 290.169 232.153 288.928 231.743L273.066 239.524Z" fill="#008056"/>
<path d="M164.132 225.381C162.236 226.711 161.793 228.03 162.325 229.293C162.857 230.557 164.353 231.765 166.349 232.852C168.344 233.949 170.827 234.935 173.276 235.756C175.737 236.587 178.175 237.241 180.06 237.684C181.534 238.039 183.318 238.405 185.17 238.748C187.021 239.092 188.938 239.424 190.667 239.713C192.396 240.001 193.948 240.245 195.068 240.411C196.187 240.577 196.863 240.677 196.863 240.677L211.062 231.61C211.062 231.61 210.342 231.267 209.189 230.746C208.036 230.225 206.44 229.515 204.689 228.761C202.937 228.019 201.031 227.243 199.235 226.578C197.44 225.913 195.755 225.359 194.436 225.059C190.534 224.173 186.998 223.574 183.817 223.197C180.647 222.831 177.821 222.698 175.36 222.743C172.899 222.787 170.793 223.031 169.042 223.397C167.291 223.774 165.905 224.283 164.897 224.882C164.83 224.926 164.764 224.96 164.697 225.004C164.631 225.048 164.564 225.082 164.509 225.126C164.442 225.17 164.387 225.204 164.32 225.248C164.243 225.303 164.187 225.337 164.132 225.381Z" fill="#008056"/>
<path d="M204.899 242.107C206.252 242.428 207.549 242.728 208.779 243.005C210.02 243.282 211.195 243.537 212.315 243.77C213.434 244.002 214.498 244.213 215.496 244.412C216.493 244.601 217.436 244.778 218.311 244.922C219.885 245.199 221.459 245.399 223.011 245.499C224.563 245.598 226.081 245.598 227.533 245.477C228.985 245.355 230.36 245.111 231.634 244.734C232.898 244.357 234.062 243.836 235.071 243.149C235.115 243.116 235.17 243.082 235.215 243.049C235.259 243.016 235.303 242.983 235.348 242.949C235.392 242.916 235.436 242.883 235.481 242.85C235.525 242.816 235.569 242.783 235.614 242.75C236.367 242.129 236.844 241.464 237.055 240.799C237.265 240.134 237.21 239.458 236.888 238.826C236.567 238.194 235.979 237.596 235.137 237.086C234.295 236.576 233.186 236.144 231.812 235.833C230.349 235.501 228.786 235.168 227.256 234.869C225.727 234.57 224.241 234.293 222.944 234.06C221.648 233.827 220.517 233.639 219.73 233.506C218.932 233.373 218.466 233.306 218.466 233.306L204.899 242.107Z" fill="#008056"/>
<path d="M323.488 248.657C322.846 249.289 322.557 250.009 322.69 250.818C322.823 251.627 323.389 252.525 324.464 253.489C325.55 254.465 327.146 255.518 329.352 256.626C331.569 257.746 334.395 258.932 337.92 260.173C339.295 260.661 341.5 261.226 344.05 261.803C346.61 262.379 349.503 262.978 352.23 263.51C354.968 264.042 357.539 264.518 359.423 264.862C361.308 265.205 362.516 265.405 362.516 265.405L379.087 256.571C379.087 256.571 378.532 256.316 377.613 255.895C376.693 255.473 375.396 254.908 373.921 254.265C372.447 253.622 370.785 252.924 369.1 252.259C367.426 251.594 365.752 250.951 364.234 250.441C362.239 249.776 359.434 248.923 356.187 248.114C352.95 247.316 349.292 246.551 345.557 246.03C341.833 245.52 338.031 245.254 334.495 245.453C330.959 245.653 327.689 246.307 325.007 247.637C324.852 247.715 324.708 247.792 324.564 247.87C324.42 247.947 324.287 248.036 324.165 248.125C324.043 248.213 323.921 248.302 323.81 248.391C323.688 248.479 323.588 248.568 323.488 248.657Z" fill="#008056"/>
<path d="M370.264 268.132C370.264 268.132 370.674 268.321 371.373 268.62C372.082 268.93 373.08 269.362 374.277 269.861C375.474 270.36 376.87 270.936 378.356 271.513C379.841 272.089 381.415 272.688 382.956 273.22C384.485 273.752 386.214 274.118 388.032 274.317C389.85 274.517 391.734 274.55 393.574 274.45C395.414 274.339 397.188 274.084 398.784 273.707C400.38 273.319 401.776 272.81 402.874 272.189C403.084 272.067 403.295 271.945 403.472 271.823C403.661 271.701 403.827 271.579 403.982 271.457C404.137 271.335 404.281 271.213 404.403 271.092C404.536 270.97 404.647 270.848 404.747 270.726C405.201 270.171 405.368 269.606 405.301 269.052C405.235 268.498 404.924 267.944 404.414 267.412C403.905 266.868 403.195 266.348 402.32 265.827C401.455 265.317 400.413 264.807 399.26 264.33C398.473 264.009 397.62 263.665 396.678 263.299C395.747 262.934 394.727 262.557 393.641 262.147C392.554 261.748 391.379 261.326 390.138 260.883C388.897 260.44 387.567 259.985 386.159 259.497L370.264 268.132Z" fill="#008056"/>
<path d="M250.866 250.509C249.159 251.972 248.948 253.435 249.735 254.854C250.522 256.273 252.307 257.647 254.579 258.9C256.862 260.163 259.622 261.305 262.338 262.258C265.065 263.222 267.736 264.009 269.809 264.541C271.438 264.963 273.411 265.406 275.439 265.827C277.479 266.248 279.574 266.658 281.48 267.013C283.387 267.368 285.083 267.667 286.313 267.889C287.543 268.099 288.286 268.232 288.286 268.232L302.263 258.146C302.263 258.146 301.443 257.747 300.124 257.137C298.805 256.528 296.998 255.696 295.003 254.832C293.019 253.967 290.869 253.058 288.84 252.271C286.823 251.495 284.939 250.841 283.487 250.487C279.186 249.423 275.306 248.68 271.859 248.214C268.412 247.749 265.375 247.549 262.748 247.572C260.121 247.583 257.893 247.815 256.086 248.203C254.269 248.591 252.85 249.145 251.852 249.81C251.764 249.866 251.675 249.932 251.586 249.988C251.498 250.043 251.42 250.11 251.342 250.165C251.265 250.221 251.187 250.287 251.11 250.343C251.01 250.387 250.943 250.442 250.866 250.509Z" fill="#008056"/>
<path d="M297.086 269.95C298.594 270.338 300.035 270.703 301.409 271.036C302.784 271.369 304.092 271.69 305.333 271.967C306.574 272.255 307.749 272.521 308.847 272.754C309.955 272.987 310.986 273.208 311.95 273.386C313.691 273.718 315.42 273.973 317.104 274.106C318.789 274.239 320.43 274.262 321.981 274.151C323.533 274.04 324.985 273.785 326.304 273.375C327.623 272.965 328.798 272.388 329.785 271.623C329.851 271.568 329.918 271.524 329.973 271.468C330.04 271.413 330.095 271.369 330.151 271.313C330.206 271.258 330.261 271.213 330.317 271.158C330.372 271.102 330.428 271.047 330.472 271.003C331.126 270.315 331.492 269.584 331.58 268.841C331.669 268.099 331.481 267.356 331.026 266.647C330.572 265.937 329.851 265.272 328.865 264.696C327.889 264.119 326.659 263.621 325.174 263.255C323.555 262.856 321.826 262.457 320.13 262.091C318.446 261.725 316.805 261.393 315.364 261.105C313.923 260.816 312.693 260.584 311.817 260.428C310.942 260.262 310.421 260.174 310.421 260.174L297.086 269.95Z" fill="#008056"/>
<path d="M421.151 285.502C420.63 286.189 420.419 286.999 420.586 287.919C420.752 288.838 421.306 289.869 422.304 291.011C423.312 292.164 424.764 293.416 426.759 294.791C428.755 296.165 431.293 297.662 434.441 299.258C435.815 299.956 438.087 300.832 440.725 301.763C443.375 302.694 446.412 303.68 449.271 304.578C452.153 305.476 454.858 306.296 456.853 306.883C458.848 307.471 460.134 307.837 460.134 307.837L481.271 299.335C481.271 299.335 480.728 298.981 479.819 298.404C478.91 297.828 477.636 297.03 476.173 296.143C474.709 295.256 473.058 294.281 471.395 293.339C469.733 292.397 468.048 291.499 466.518 290.756C464.512 289.781 461.641 288.517 458.283 287.265C454.935 286.012 451.111 284.771 447.132 283.806C443.175 282.853 439.052 282.166 435.106 282.033C431.16 281.9 427.369 282.321 424.044 283.574C423.722 283.696 423.423 283.829 423.135 283.962C422.847 284.106 422.592 284.25 422.348 284.405C422.104 284.56 421.882 284.726 421.694 284.904C421.472 285.125 421.295 285.314 421.151 285.502Z" fill="#008056"/>
<path d="M341.644 280.791C340.314 282.243 340.237 283.795 341.013 285.358C341.788 286.932 343.396 288.517 345.424 290.025C347.464 291.532 349.924 292.962 352.352 294.192C354.79 295.434 357.196 296.487 359.113 297.24C360.731 297.883 362.715 298.581 364.766 299.269C366.828 299.956 368.967 300.632 370.907 301.231C372.846 301.829 374.587 302.35 375.85 302.716C377.114 303.082 377.879 303.303 377.879 303.303L396.112 293.283C396.112 293.283 395.336 292.751 394.095 291.92C392.853 291.089 391.135 289.969 389.24 288.783C387.356 287.597 385.294 286.356 383.343 285.269C381.403 284.183 379.563 283.263 378.1 282.709C373.789 281.08 369.843 279.86 366.273 278.996C362.715 278.131 359.523 277.61 356.708 277.377C353.892 277.145 351.454 277.178 349.403 277.444C347.342 277.71 345.668 278.187 344.404 278.841C344.094 278.996 343.817 279.151 343.551 279.317C343.285 279.472 343.041 279.639 342.808 279.805C342.575 279.971 342.376 280.137 342.176 280.304C341.966 280.448 341.8 280.625 341.644 280.791Z" fill="#008056"/>
</g>
</svg>
